<svg width="550" height="550" xmlns="http://www.w3.org/2000/svg" xmlns:xlink="http://www.w3.org/1999/xlink" overflow="hidden"><defs><clipPath id="clip0"><rect x="319" y="778" width="550" height="550"/></clipPath><clipPath id="clip1"><rect x="371" y="830" width="451" height="452"/></clipPath><clipPath id="clip2"><rect x="371" y="830" width="451" height="452"/></clipPath><clipPath id="clip3"><rect x="371" y="830" width="451" height="452"/></clipPath></defs><g clip-path="url(#clip0)" transform="translate(-319 -778)"><rect x="319" y="778" width="550" height="550" fill="#FF0066"/><g clip-path="url(#clip1)"><g clip-path="url(#clip2)"><g clip-path="url(#clip3)"><path d="M437.7 1207.2 389.1 1207.2 405.3 1147.8 405.3 1043.4 421.499 1050.6 421.499 1146.9Z" fill="#FFFFFF"/><path d="M597 1110 477.75 1057.35 421.5 1032.6 405.3 1025.4 376.95 1013.25 404.85 1000.65 597 916.049 817.05 1013.25 716.25 1057.35Z" fill="#FFFFFF"/><path d="M741.45 1129.8 597 1186.95 452.55 1129.8C452.55 1106.85 457.949 1087.05 467.401 1071.3L597.001 1128 726.151 1071.3C736.051 1087.05 741.451 1106.4 741.451 1129.8Z" fill="#FFFFFF"/></g></g></g></g></svg>