<svg width="550" height="550" xmlns="http://www.w3.org/2000/svg" xmlns:xlink="http://www.w3.org/1999/xlink" overflow="hidden"><defs><clipPath id="clip0"><rect x="950" y="130" width="550" height="550"/></clipPath><clipPath id="clip1"><rect x="957" y="135" width="536" height="536"/></clipPath><clipPath id="clip2"><rect x="957" y="135" width="536" height="536"/></clipPath><clipPath id="clip3"><rect x="957" y="135" width="536" height="536"/></clipPath></defs><g clip-path="url(#clip0)" transform="translate(-950 -130)"><rect x="950" y="130" width="550" height="550" fill="#00B050"/><g clip-path="url(#clip1)"><g clip-path="url(#clip2)"><g clip-path="url(#clip3)"><path d="M1264.45 420.898 1224.82 450.882 1264.45 475.266 1216.69 529.625 1243.11 529.625 1316.12 465.1Z" fill="#FFFFFF" fill-rule="evenodd"/><path d="M1367.34 350.794 1327.67 386.073 1295.7 354.573C1295.93 353.978 1296.17 353.378 1296.16 352.669 1296.04 337.313 1302.59 342.073 1313.1 342.769 1323.61 343.478 1336.23 323.844 1341.83 309.125 1347.44 294.406 1345.35 276.879 1319.41 270.57 1293.48 264.261 1286.47 293.001 1284.37 302.815 1282.24 312.63 1275.94 315.465 1275.94 315.465L1258.41 315.465C1258.12 316.06 1258 316.585 1257.74 317.17L1203.63 263.838 1155.3 347.092 1171.56 341.921 1203.63 305.885 1228.85 329.93 1056.27 544.938 1080.18 544.938 1284.57 383.003 1331.68 427.866 1389.06 342.977Z" fill="#FFFFFF" fill-rule="evenodd"/></g></g></g></g></svg>