<svg width="550" height="550" xmlns="http://www.w3.org/2000/svg" xmlns:xlink="http://www.w3.org/1999/xlink" overflow="hidden"><defs><filter id="fx0" x="-10%" y="-10%" width="120%" height="120%" filterUnits="userSpaceOnUse" primitiveUnits="userSpaceOnUse"><feComponentTransfer color-interpolation-filters="sRGB"><feFuncR type="discrete" tableValues="0 0"/><feFuncG type="discrete" tableValues="0 0"/><feFuncB type="discrete" tableValues="0 0"/><feFuncA type="linear" slope="0.4" intercept="0"/></feComponentTransfer><feGaussianBlur stdDeviation="6.11111 6.11111"/></filter><clipPath id="clip1"><rect x="1570" y="130" width="550" height="550"/></clipPath><clipPath id="clip2"><rect x="-13" y="-13" width="158" height="158"/></clipPath><clipPath id="clip3"><rect x="0" y="0" width="452" height="453"/></clipPath><clipPath id="clip4"><rect x="19" y="19" width="413" height="414"/></clipPath><clipPath id="clip5"><rect x="19" y="19" width="413" height="414"/></clipPath><clipPath id="clip6"><rect x="19" y="19" width="413" height="414"/></clipPath><clipPath id="clip7"><rect x="1603" y="210" width="414" height="413"/></clipPath><clipPath id="clip8"><rect x="1603" y="210" width="414" height="413"/></clipPath><clipPath id="clip9"><rect x="1603" y="210" width="414" height="413"/></clipPath></defs><g clip-path="url(#clip1)" transform="translate(-1570 -130)"><rect x="1570" y="130" width="550" height="550" fill="#997300"/><g clip-path="url(#clip2)" filter="url(#fx0)" transform="translate(1594 200)"><g clip-path="url(#clip3)"><g clip-path="url(#clip4)"><g clip-path="url(#clip5)"><g clip-path="url(#clip6)"><path d="M274.667 13.7333C206.398 13.7333 151.067 82.7983 151.067 151.067L111.528 219.733C107.272 228.248 111.542 238.548 120.565 241.555L151.067 247.2C151.067 302.133 123.6 329.6 233.467 302.133L233.467 398.267 384.534 343.333 357.067 247.2C382.35 224.567 398.267 173.933 398.267 137.333 398.267 69.065 342.935 13.7333 274.667 13.7333ZM347.907 236.969 341.507 242.696 367.82 334.791 247.2 378.656 247.2 284.541 230.13 288.812C201.84 295.886 183.231 299.181 171.557 299.181 164.211 299.181 162.384 297.821 162.356 297.807 160.955 295.459 162.081 284.431 162.919 276.384 162.974 275.849 163.029 275.217 163.084 274.667L192.267 274.667 192.267 260.934 164.265 260.934C164.554 256.567 164.8 252.062 164.8 247.201L164.8 235.774 124.452 228.317C124.15 228.111 123.902 227.823 123.765 227.466 123.545 226.931 123.559 226.394 123.82 225.873L164.8 154.748 164.8 151.067C164.8 92.7144 211.782 27.4673 274.667 27.4673 335.245 27.4673 384.534 76.7563 384.534 137.334 384.534 169.484 370.525 216.713 347.907 236.969Z" fill="#FFFFFF" transform="matrix(1 0 0 1.00243 19.7227 19.7227)"/><path d="M274.667 41.2C238.754 41.2 208.76 65.92 192.267 97.5067L367.82 164.8C369.757 155.145 370.8 145.697 370.8 137.333 370.8 84.3227 327.677 41.2 274.667 41.2Z" fill="#FFFFFF" transform="matrix(1 0 0 1.00243 19.7227 19.7227)"/><path d="M219.733 178.533C219.733 186.118 213.584 192.267 206 192.267 198.416 192.267 192.267 186.118 192.267 178.533 192.267 170.949 198.416 164.8 206 164.8 213.584 164.8 219.733 170.949 219.733 178.533" fill="#FFFFFF" transform="matrix(1 0 0 1.00243 19.7227 19.7227)"/><path d="M74.4347 121.622 83.7998 131.689 144.199 75.5196 83.7998 19.364 74.4347 29.4305 116.651 68.6667 13.7333 68.6667 13.7333 82.4 116.624 82.4Z" fill="#FFFFFF" transform="matrix(1 0 0 1.00243 19.7227 19.7227)"/></g></g></g></g></g><g clip-path="url(#clip7)"><g clip-path="url(#clip8)"><g clip-path="url(#clip9)"><path d="M274.667 13.7333C206.398 13.7333 151.067 82.7983 151.067 151.067L111.528 219.733C107.272 228.248 111.542 238.548 120.565 241.555L151.067 247.2C151.067 302.133 123.6 329.6 233.467 302.133L233.467 398.267 384.534 343.333 357.067 247.2C382.35 224.567 398.267 173.933 398.267 137.333 398.267 69.065 342.935 13.7333 274.667 13.7333ZM347.907 236.969 341.507 242.696 367.82 334.791 247.2 378.656 247.2 284.541 230.13 288.812C201.84 295.886 183.231 299.181 171.557 299.181 164.211 299.181 162.384 297.821 162.356 297.807 160.955 295.459 162.081 284.431 162.919 276.384 162.974 275.849 163.029 275.217 163.084 274.667L192.267 274.667 192.267 260.934 164.265 260.934C164.554 256.567 164.8 252.062 164.8 247.201L164.8 235.774 124.452 228.317C124.15 228.111 123.902 227.823 123.765 227.466 123.545 226.931 123.559 226.394 123.82 225.873L164.8 154.748 164.8 151.067C164.8 92.7144 211.782 27.4673 274.667 27.4673 335.245 27.4673 384.534 76.7563 384.534 137.334 384.534 169.484 370.525 216.713 347.907 236.969Z" fill="#FFFFFF" transform="matrix(1 0 0 1.00243 1604 210)"/><path d="M274.667 41.2C238.754 41.2 208.76 65.92 192.267 97.5067L367.82 164.8C369.757 155.145 370.8 145.697 370.8 137.333 370.8 84.3227 327.677 41.2 274.667 41.2Z" fill="#FFFFFF" transform="matrix(1 0 0 1.00243 1604 210)"/><path d="M219.733 178.533C219.733 186.118 213.584 192.267 206 192.267 198.416 192.267 192.267 186.118 192.267 178.533 192.267 170.949 198.416 164.8 206 164.8 213.584 164.8 219.733 170.949 219.733 178.533" fill="#FFFFFF" transform="matrix(1 0 0 1.00243 1604 210)"/><path d="M74.4347 121.622 83.7998 131.689 144.199 75.5196 83.7998 19.364 74.4347 29.4305 116.651 68.6667 13.7333 68.6667 13.7333 82.4 116.624 82.4Z" fill="#FFFFFF" transform="matrix(1 0 0 1.00243 1604 210)"/></g></g></g></g></svg>