<svg width="554" height="550" xmlns="http://www.w3.org/2000/svg" xmlns:xlink="http://www.w3.org/1999/xlink" overflow="hidden"><defs><filter id="fx0" x="-10%" y="-10%" width="120%" height="120%" filterUnits="userSpaceOnUse" primitiveUnits="userSpaceOnUse"><feComponentTransfer color-interpolation-filters="sRGB"><feFuncR type="discrete" tableValues="0 0"/><feFuncG type="discrete" tableValues="0 0"/><feFuncB type="discrete" tableValues="0 0"/><feFuncA type="linear" slope="0.4" intercept="0"/></feComponentTransfer><feGaussianBlur stdDeviation="6.11111 6.11111"/></filter><clipPath id="clip1"><rect x="2190" y="128" width="554" height="550"/></clipPath><clipPath id="clip2"><rect x="1" y="-16" width="141" height="172"/></clipPath><clipPath id="clip3"><rect x="0" y="0" width="484" height="483"/></clipPath><clipPath id="clip4"><rect x="19" y="19" width="445" height="444"/></clipPath><clipPath id="clip5"><rect x="19" y="19" width="445" height="444"/></clipPath><clipPath id="clip6"><rect x="19" y="19" width="445" height="444"/></clipPath><clipPath id="clip7"><rect x="2271" y="183" width="444" height="444"/></clipPath><clipPath id="clip8"><rect x="2271" y="183" width="444" height="444"/></clipPath><clipPath id="clip9"><rect x="2271" y="183" width="444" height="444"/></clipPath></defs><g clip-path="url(#clip1)" transform="translate(-2190 -128)"><rect x="2190" y="128" width="550" height="550" fill="#20A0FB"/><g clip-path="url(#clip2)" filter="url(#fx0)" transform="translate(2261 174)"><g clip-path="url(#clip3)"><g clip-path="url(#clip4)"><g clip-path="url(#clip5)"><g clip-path="url(#clip6)"><path d="M380.537 368.576C376.55 364.589 369.462 364.146 365.475 368.576L357.5 376.106C357.5 384.966 353.955 393.384 346.868 399.142 341.552 403.572 334.463 405.787 327.818 405.787L326.488 405.787 323.389 409.333C318.959 413.32 318.959 419.965 322.947 424.395 325.162 426.61 327.819 427.495 330.477 427.495 333.134 427.495 335.792 426.61 338.007 424.395L380.092 383.639C384.524 379.65 384.524 373.005 380.536 368.575Z" fill="#FFFFFF" transform="matrix(1.00226 0 0 1 19.7229 19.7226)"/><path d="M341.553 392.498C350.413 384.968 351.743 371.678 344.211 362.373L273.774 278.646 286.178 359.715 311.429 389.84C315.859 394.713 321.619 397.37 327.819 397.37 332.692 397.369 337.564 395.598 341.552 392.496Z" fill="#FFFFFF" transform="matrix(1.00226 0 0 1 19.7229 19.7226)"/><path d="M198.021 57.59C198.021 83.2789 177.196 104.105 151.506 104.105 125.817 104.105 104.991 83.2789 104.991 57.59 104.991 31.9012 125.817 11.075 151.506 11.075 177.196 11.075 198.021 31.9012 198.021 57.59" fill="#FFFFFF" transform="matrix(1.00226 0 0 1 19.7229 19.7226)"/><path d="M198.021 313.644 138.216 313.644C122.268 313.644 108.536 302.126 106.321 286.179L87.7155 167.012C86.3859 159.482 79.2981 154.164 71.3252 155.052 63.795 156.381 58.4779 163.469 59.365 171.442L77.9702 290.609C82.4002 320.289 108.095 341.997 138.218 341.997L197.58 341.997C205.555 341.997 211.756 335.794 211.756 327.822 212.198 320.29 205.553 313.645 198.021 313.645Z" fill="#FFFFFF" transform="matrix(1.00226 0 0 1 19.7229 19.7226)"/><path d="M287.95 201.565 282.635 210.868C279.534 216.183 281.305 222.385 286.622 225.487 288.394 226.373 290.167 226.817 291.937 226.817 295.482 226.817 299.025 225.045 301.24 221.502L316.745 194.922 341.995 212.642C343.768 213.971 345.983 214.414 348.198 214.414 351.298 214.414 354.843 212.642 357.058 209.984 360.602 205.111 359.273 198.466 354.4 194.922L327.82 176.316 343.768 148.407C346.868 143.091 345.097 136.889 339.78 133.787 334.465 131.129 328.263 132.457 325.161 137.774L310.541 163.469C312.756 167.014 313.641 170.999 313.641 175.429 313.2 189.16 301.682 200.68 287.949 201.565Z" fill="#FFFFFF" transform="matrix(1.00226 0 0 1 19.7229 19.7226)"/><path d="M264.471 272.002C262.699 261.812 253.839 253.839 243.651 253.839L203.338 253.839 198.023 178.529C212.641 187.832 230.361 193.148 248.082 193.148L287.066 193.148C296.811 193.148 304.786 185.173 304.786 175.428 304.786 165.682 296.811 157.708 287.066 157.708L248.082 157.708C235.677 157.708 223.717 154.163 213.527 147.518L178.087 124.038C171.442 119.608 163.467 116.508 154.607 116.508L147.962 116.508C135.557 116.508 124.04 121.823 115.622 131.128 107.648 140.43 104.105 152.835 105.877 165.238L123.597 278.203C125.369 288.393 134.229 296.366 144.417 296.366L225.043 296.366 243.206 413.761C244.978 424.393 253.838 431.923 264.026 431.923 264.912 431.923 266.241 431.923 267.127 431.481 278.644 429.708 286.619 418.633 284.847 407.116Z" fill="#FFFFFF" transform="matrix(1.00226 0 0 1 19.7229 19.7226)"/></g></g></g></g></g><g clip-path="url(#clip7)"><g clip-path="url(#clip8)"><g clip-path="url(#clip9)"><path d="M380.537 368.576C376.55 364.589 369.462 364.146 365.475 368.576L357.5 376.106C357.5 384.966 353.955 393.384 346.868 399.142 341.552 403.572 334.463 405.787 327.818 405.787L326.488 405.787 323.389 409.333C318.959 413.32 318.959 419.965 322.947 424.395 325.162 426.61 327.819 427.495 330.477 427.495 333.134 427.495 335.792 426.61 338.007 424.395L380.092 383.639C384.524 379.65 384.524 373.005 380.536 368.575Z" fill="#FFFFFF" transform="matrix(1.00226 0 0 1 2271 184)"/><path d="M341.553 392.498C350.413 384.968 351.743 371.678 344.211 362.373L273.774 278.646 286.178 359.715 311.429 389.84C315.859 394.713 321.619 397.37 327.819 397.37 332.692 397.369 337.564 395.598 341.552 392.496Z" fill="#FFFFFF" transform="matrix(1.00226 0 0 1 2271 184)"/><path d="M198.021 57.59C198.021 83.2789 177.196 104.105 151.506 104.105 125.817 104.105 104.991 83.2789 104.991 57.59 104.991 31.9012 125.817 11.075 151.506 11.075 177.196 11.075 198.021 31.9012 198.021 57.59" fill="#FFFFFF" transform="matrix(1.00226 0 0 1 2271 184)"/><path d="M198.021 313.644 138.216 313.644C122.268 313.644 108.536 302.126 106.321 286.179L87.7155 167.012C86.3859 159.482 79.2981 154.164 71.3252 155.052 63.795 156.381 58.4779 163.469 59.365 171.442L77.9702 290.609C82.4002 320.289 108.095 341.997 138.218 341.997L197.58 341.997C205.555 341.997 211.756 335.794 211.756 327.822 212.198 320.29 205.553 313.645 198.021 313.645Z" fill="#FFFFFF" transform="matrix(1.00226 0 0 1 2271 184)"/><path d="M287.95 201.565 282.635 210.868C279.534 216.183 281.305 222.385 286.622 225.487 288.394 226.373 290.167 226.817 291.937 226.817 295.482 226.817 299.025 225.045 301.24 221.502L316.745 194.922 341.995 212.642C343.768 213.971 345.983 214.414 348.198 214.414 351.298 214.414 354.843 212.642 357.058 209.984 360.602 205.111 359.273 198.466 354.4 194.922L327.82 176.316 343.768 148.407C346.868 143.091 345.097 136.889 339.78 133.787 334.465 131.129 328.263 132.457 325.161 137.774L310.541 163.469C312.756 167.014 313.641 170.999 313.641 175.429 313.2 189.16 301.682 200.68 287.949 201.565Z" fill="#FFFFFF" transform="matrix(1.00226 0 0 1 2271 184)"/><path d="M264.471 272.002C262.699 261.812 253.839 253.839 243.651 253.839L203.338 253.839 198.023 178.529C212.641 187.832 230.361 193.148 248.082 193.148L287.066 193.148C296.811 193.148 304.786 185.173 304.786 175.428 304.786 165.682 296.811 157.708 287.066 157.708L248.082 157.708C235.677 157.708 223.717 154.163 213.527 147.518L178.087 124.038C171.442 119.608 163.467 116.508 154.607 116.508L147.962 116.508C135.557 116.508 124.04 121.823 115.622 131.128 107.648 140.43 104.105 152.835 105.877 165.238L123.597 278.203C125.369 288.393 134.229 296.366 144.417 296.366L225.043 296.366 243.206 413.761C244.978 424.393 253.838 431.923 264.026 431.923 264.912 431.923 266.241 431.923 267.127 431.481 278.644 429.708 286.619 418.633 284.847 407.116Z" fill="#FFFFFF" transform="matrix(1.00226 0 0 1 2271 184)"/></g></g></g></g></svg>