<svg width="550" height="550" xmlns="http://www.w3.org/2000/svg" xmlns:xlink="http://www.w3.org/1999/xlink" overflow="hidden"><defs><filter id="fx0" x="-10%" y="-10%" width="120%" height="120%" filterUnits="userSpaceOnUse" primitiveUnits="userSpaceOnUse"><feComponentTransfer color-interpolation-filters="sRGB"><feFuncR type="discrete" tableValues="0 0"/><feFuncG type="discrete" tableValues="0 0"/><feFuncB type="discrete" tableValues="0 0"/><feFuncA type="linear" slope="0.4" intercept="0"/></feComponentTransfer><feGaussianBlur stdDeviation="6.11111 6.11111"/></filter><clipPath id="clip1"><rect x="1570" y="780" width="550" height="550"/></clipPath><clipPath id="clip2"><rect x="1" y="-16" width="137" height="168"/></clipPath><clipPath id="clip3"><rect x="0" y="0" width="470" height="470"/></clipPath><clipPath id="clip4"><rect x="19" y="19" width="431" height="431"/></clipPath><clipPath id="clip5"><rect x="19" y="19" width="431" height="431"/></clipPath><clipPath id="clip6"><rect x="19" y="19" width="431" height="431"/></clipPath><clipPath id="clip7"><rect x="1634" y="838" width="431" height="431"/></clipPath><clipPath id="clip8"><rect x="1634" y="838" width="431" height="431"/></clipPath><clipPath id="clip9"><rect x="1634" y="838" width="431" height="431"/></clipPath></defs><g clip-path="url(#clip1)" transform="translate(-1570 -780)"><rect x="1570" y="780" width="550" height="550" fill="#F68D00"/><g clip-path="url(#clip2)" filter="url(#fx0)" transform="translate(1625 828)"><g clip-path="url(#clip3)"><g clip-path="url(#clip4)"><g clip-path="url(#clip5)"><g clip-path="url(#clip6)"><path d="M386.513 224.833C383.933 221.824 318.143 145.283 234.723 145.283 151.303 145.283 85.5125 221.823 82.9325 225.263 78.2029 230.854 78.2029 239.454 82.9325 245.042 85.5136 247.624 151.303 324.162 234.723 324.162 318.143 324.162 383.933 247.622 386.513 244.182 391.243 239.022 391.243 230.422 386.513 224.831ZM222.683 184.413C233.003 184.413 241.603 193.013 241.603 203.333 241.603 213.654 233.003 222.254 222.683 222.254 212.362 222.254 203.762 213.654 203.762 203.333 203.764 193.013 211.933 184.413 222.683 184.413ZM234.723 294.063C181.833 294.063 134.963 254.073 115.613 235.153 127.654 223.112 151.304 202.473 180.113 189.143 177.104 196.022 175.384 203.763 175.384 211.934 175.384 244.613 202.043 271.273 234.724 271.273 267.403 271.273 294.064 244.614 294.064 211.934 294.064 203.763 292.343 196.024 289.334 189.143 318.143 202.472 341.794 223.113 353.834 235.153 334.481 253.642 287.614 294.063 234.72 294.063Z" fill="#FFFFFF"/><path d="M131.093 124.213C134.102 130.663 140.122 134.104 147.002 134.104 149.581 134.104 151.731 133.674 154.311 132.383 162.911 128.513 166.781 118.192 162.911 109.592L139.692 60.1424C135.822 51.5425 125.501 47.6721 116.901 51.5425 108.301 55.4128 104.431 65.7331 108.301 74.3331Z" fill="#FFFFFF"/><path d="M315.133 132.383C317.283 133.674 319.862 134.103 322.442 134.103 328.892 134.103 335.342 130.233 338.351 124.212L361.142 74.7624C365.012 66.1624 361.571 55.8421 352.542 51.9716 343.942 48.1013 333.621 51.5419 329.751 60.5717L306.96 110.022C302.663 118.193 306.532 128.513 315.132 132.382Z" fill="#FFFFFF"/><path d="M234.723 118.623C244.182 118.623 251.923 110.882 251.923 101.423L251.923 47.6728C251.923 38.2135 244.182 30.4728 234.723 30.4728 225.263 30.4728 217.523 38.2135 217.523 47.6728L217.523 100.993C217.523 110.452 225.263 118.622 234.723 118.622Z" fill="#FFFFFF"/><path d="M338.353 345.233C334.482 336.633 324.162 332.762 315.562 336.633 306.962 340.503 303.091 350.824 306.962 359.424L329.753 408.873C332.762 415.323 338.782 418.763 345.662 418.763 348.241 418.763 350.391 418.333 352.971 417.043 361.571 413.173 365.441 402.853 361.571 394.253Z" fill="#FFFFFF"/><path d="M154.313 337.063C145.713 333.192 135.392 336.633 131.522 345.663L108.731 395.113C104.861 403.713 108.301 414.033 117.331 417.903 119.481 419.193 122.061 419.623 124.64 419.623 131.09 419.623 137.54 415.753 140.55 409.733L163.34 360.283C166.781 351.252 162.912 340.932 154.312 337.063Z" fill="#FFFFFF"/><path d="M234.723 350.823C225.263 350.823 217.523 358.564 217.523 368.023L217.523 421.343C217.523 430.803 225.263 438.543 234.723 438.543 244.182 438.543 251.923 430.803 251.923 421.343L251.923 368.453C251.923 358.993 244.182 350.823 234.723 350.823Z" fill="#FFFFFF"/></g></g></g></g></g><g clip-path="url(#clip7)"><g clip-path="url(#clip8)"><g clip-path="url(#clip9)"><path d="M2001.79 1043.11C1999.21 1040.1 1933.42 963.56 1850 963.56 1766.58 963.56 1700.79 1040.1 1698.21 1043.54 1693.48 1049.13 1693.48 1057.73 1698.21 1063.32 1700.79 1065.9 1766.58 1142.44 1850 1142.44 1933.42 1142.44 1999.21 1065.9 2001.79 1062.46 2006.52 1057.3 2006.52 1048.7 2001.79 1043.11ZM1837.96 1002.69C1848.28 1002.69 1856.88 1011.29 1856.88 1021.61 1856.88 1031.93 1848.28 1040.53 1837.96 1040.53 1827.64 1040.53 1819.04 1031.93 1819.04 1021.61 1819.04 1011.29 1827.21 1002.69 1837.96 1002.69ZM1850 1112.34C1797.11 1112.34 1750.24 1072.35 1730.89 1053.43 1742.93 1041.39 1766.58 1020.75 1795.39 1007.42 1792.38 1014.3 1790.66 1022.04 1790.66 1030.21 1790.66 1062.89 1817.32 1089.55 1850 1089.55 1882.68 1089.55 1909.34 1062.89 1909.34 1030.21 1909.34 1022.04 1907.62 1014.3 1904.61 1007.42 1933.42 1020.75 1957.07 1041.39 1969.11 1053.43 1949.76 1071.92 1902.89 1112.34 1850 1112.34Z" fill="#FFFFFF"/><path d="M1746.37 942.49C1749.38 948.94 1755.4 952.381 1762.28 952.381 1764.86 952.381 1767.01 951.951 1769.59 950.66 1778.19 946.79 1782.06 936.47 1778.19 927.87L1754.97 878.42C1751.1 869.82 1740.78 865.949 1732.18 869.82 1723.58 873.69 1719.71 884.01 1723.58 892.61Z" fill="#FFFFFF"/><path d="M1930.41 950.66C1932.56 951.951 1935.14 952.38 1937.72 952.38 1944.17 952.38 1950.62 948.51 1953.63 942.49L1976.42 893.04C1980.29 884.44 1976.85 874.119 1967.82 870.249 1959.22 866.379 1948.9 869.819 1945.03 878.849L1922.24 928.299C1917.94 936.471 1921.81 946.791 1930.41 950.66Z" fill="#FFFFFF"/><path d="M1850 936.9C1859.46 936.9 1867.2 929.159 1867.2 919.7L1867.2 865.95C1867.2 856.491 1859.46 848.75 1850 848.75 1840.54 848.75 1832.8 856.491 1832.8 865.95L1832.8 919.27C1832.8 928.729 1840.54 936.9 1850 936.9Z" fill="#FFFFFF"/><path d="M1953.63 1163.51C1949.76 1154.91 1939.44 1151.04 1930.84 1154.91 1922.24 1158.78 1918.37 1169.1 1922.24 1177.7L1945.03 1227.15C1948.04 1233.6 1954.06 1237.04 1960.94 1237.04 1963.52 1237.04 1965.67 1236.61 1968.25 1235.32 1976.85 1231.45 1980.72 1221.13 1976.85 1212.53Z" fill="#FFFFFF"/><path d="M1769.59 1155.34C1760.99 1151.47 1750.67 1154.91 1746.8 1163.94L1724.01 1213.39C1720.14 1221.99 1723.58 1232.31 1732.61 1236.18 1734.76 1237.47 1737.34 1237.9 1739.92 1237.9 1746.37 1237.9 1752.82 1234.03 1755.83 1228.01L1778.62 1178.56C1782.06 1169.53 1778.19 1159.21 1769.59 1155.34Z" fill="#FFFFFF"/><path d="M1850 1169.1C1840.54 1169.1 1832.8 1176.84 1832.8 1186.3L1832.8 1239.62C1832.8 1249.08 1840.54 1256.82 1850 1256.82 1859.46 1256.82 1867.2 1249.08 1867.2 1239.62L1867.2 1186.73C1867.2 1177.27 1859.46 1169.1 1850 1169.1Z" fill="#FFFFFF"/></g></g></g></g></svg>