<svg width="550" height="550" xmlns="http://www.w3.org/2000/svg" xmlns:xlink="http://www.w3.org/1999/xlink" overflow="hidden"><defs><filter id="fx0" x="-10%" y="-10%" width="120%" height="120%" filterUnits="userSpaceOnUse" primitiveUnits="userSpaceOnUse"><feComponentTransfer color-interpolation-filters="sRGB"><feFuncR type="discrete" tableValues="0 0"/><feFuncG type="discrete" tableValues="0 0"/><feFuncB type="discrete" tableValues="0 0"/><feFuncA type="linear" slope="0.4" intercept="0"/></feComponentTransfer><feGaussianBlur stdDeviation="6.11111 6.11111"/></filter><clipPath id="clip1"><rect x="950" y="780" width="550" height="550"/></clipPath><clipPath id="clip2"><rect x="-13" y="-13" width="158" height="158"/></clipPath><clipPath id="clip3"><rect x="0" y="0" width="446" height="446"/></clipPath><clipPath id="clip4"><rect x="19" y="19" width="407" height="407"/></clipPath><clipPath id="clip5"><rect x="19" y="19" width="407" height="407"/></clipPath><clipPath id="clip6"><rect x="19" y="19" width="407" height="407"/></clipPath><clipPath id="clip7"><rect x="1021" y="850" width="407" height="407"/></clipPath><clipPath id="clip8"><rect x="1021" y="850" width="407" height="407"/></clipPath><clipPath id="clip9"><rect x="1021" y="850" width="407" height="407"/></clipPath></defs><g clip-path="url(#clip1)" transform="translate(-950 -780)"><rect x="950" y="780" width="550" height="550" fill="#C00000"/><g clip-path="url(#clip2)" filter="url(#fx0)" transform="translate(1012 840)"><g clip-path="url(#clip3)"><g clip-path="url(#clip4)"><g clip-path="url(#clip5)"><g clip-path="url(#clip6)"><path d="M412.967 151.862C412.856 151.338 412.686 150.826 412.46 150.34 404.847 133.339 365.391 47.8891 338.937 39.0687 327.454 35.2625 318.341 35.77 311.595 40.5912 304.237 45.92 300.621 55.7526 300.621 70.5973 300.384 75.5296 302.681 80.2412 306.711 83.0947 313.879 88.1697 325.488 86.4569 332.847 84.6172 335.285 92.3671 336.652 100.413 336.907 108.533 336.471 126.649 339.775 144.661 346.613 161.442 337.594 163.866 329.281 168.396 322.355 174.661 315.429 180.925 310.089 188.744 306.774 197.474 290.212 198.068 274.245 203.811 261.099 213.904 246.953 198.806 248.855 193.478 255.96 174.13 257.293 170.324 258.879 166.074 260.464 161.316 268.331 137.653 262.368 122.11 256.024 113.293 248.456 102.365 236.011 95.8461 222.719 95.8461 209.427 95.8461 196.982 102.366 189.414 113.293 183.07 122.11 177.107 137.653 184.973 161.316 186.559 166.073 188.145 170.324 189.477 174.13 196.582 193.479 198.485 198.807 184.339 213.904 171.193 203.811 155.226 198.067 138.664 197.474 135.349 188.744 130.008 180.925 123.083 174.661 116.156 168.396 107.844 163.866 98.825 161.442 105.663 144.661 108.967 126.651 108.531 108.533 108.786 100.413 110.153 92.3674 112.591 84.6172 119.95 86.4569 131.559 88.1697 138.727 83.0947 142.757 80.2413 145.054 75.5299 144.817 70.5973 144.817 55.753 141.201 45.92 133.842 40.5912 127.118 35.77 117.92 35.2625 106.501 39.0687 80.0475 47.8864 40.5904 133.335 32.9779 150.34 32.7519 150.826 32.5814 151.338 32.4704 151.862 31.8994 155.542 29.2985 189.925 128.452 264.592 132.702 278.738 157.951 366.092 146.849 404.98 146.279 406.876 146.657 408.93 147.864 410.498 149.071 412.084 150.946 413.023 152.939 413.036L292.502 413.036C294.495 413.023 296.37 412.084 297.577 410.498 298.783 408.93 299.161 406.876 298.592 404.98 287.49 366.156 312.738 278.741 316.988 264.592 416.14 189.925 413.542 155.543 412.97 151.862Z" fill="#FFFFFF"/></g></g></g></g></g><g clip-path="url(#clip7)"><g clip-path="url(#clip8)"><g clip-path="url(#clip9)"><path d="M1415.24 982.14C1415.13 981.615 1414.96 981.103 1414.74 980.617 1407.12 963.616 1367.67 878.166 1341.21 869.346 1329.73 865.54 1320.62 866.047 1313.87 870.869 1306.51 876.197 1302.9 886.03 1302.9 900.875 1302.66 905.807 1304.96 910.518 1308.99 913.372 1316.16 918.447 1327.77 916.734 1335.12 914.894 1337.56 922.644 1338.93 930.691 1339.18 938.811 1338.75 956.926 1342.05 974.938 1348.89 991.719 1339.87 994.143 1331.56 998.674 1324.63 1004.94 1317.71 1011.2 1312.37 1019.02 1309.05 1027.75 1292.49 1028.35 1276.52 1034.09 1263.38 1044.18 1249.23 1029.08 1251.13 1023.75 1258.24 1004.41 1259.57 1000.6 1261.16 996.351 1262.74 991.593 1270.61 967.931 1264.64 952.387 1258.3 943.57 1250.73 932.643 1238.29 926.123 1225 926.123 1211.7 926.123 1199.26 932.643 1191.69 943.57 1185.35 952.388 1179.38 967.93 1187.25 991.593 1188.84 996.351 1190.42 1000.6 1191.75 1004.41 1198.86 1023.76 1200.76 1029.08 1186.62 1044.18 1173.47 1034.09 1157.5 1028.34 1140.94 1027.75 1137.63 1019.02 1132.29 1011.2 1125.36 1004.94 1118.43 998.673 1110.12 994.143 1101.1 991.719 1107.94 974.938 1111.24 956.928 1110.81 938.811 1111.06 930.691 1112.43 922.645 1114.87 914.894 1122.23 916.734 1133.84 918.447 1141 913.372 1145.03 910.519 1147.33 905.807 1147.09 900.875 1147.09 886.03 1143.48 876.197 1136.12 870.869 1129.4 866.047 1120.2 865.54 1108.78 869.346 1082.32 878.164 1042.87 963.612 1035.26 980.617 1035.03 981.103 1034.86 981.615 1034.75 982.14 1034.18 985.819 1031.58 1020.2 1130.73 1094.87 1134.98 1109.02 1160.23 1196.37 1149.13 1235.26 1148.56 1237.15 1148.93 1239.21 1150.14 1240.78 1151.35 1242.36 1153.22 1243.3 1155.22 1243.31L1294.78 1243.31C1296.77 1243.3 1298.65 1242.36 1299.85 1240.78 1301.06 1239.21 1301.44 1237.15 1300.87 1235.26 1289.77 1196.43 1315.02 1109.02 1319.27 1094.87 1418.42 1020.2 1415.82 985.821 1415.25 982.14Z" fill="#FFFFFF"/></g></g></g></g></svg>