<svg width="550" height="550" xmlns="http://www.w3.org/2000/svg" xmlns:xlink="http://www.w3.org/1999/xlink" overflow="hidden"><defs><filter id="fx0" x="-10%" y="-10%" width="120%" height="120%" filterUnits="userSpaceOnUse" primitiveUnits="userSpaceOnUse"><feComponentTransfer color-interpolation-filters="sRGB"><feFuncR type="discrete" tableValues="0 0"/><feFuncG type="discrete" tableValues="0 0"/><feFuncB type="discrete" tableValues="0 0"/><feFuncA type="linear" slope="0.4" intercept="0"/></feComponentTransfer><feGaussianBlur stdDeviation="6.11111 6.11111"/></filter><clipPath id="clip1"><rect x="2190" y="780" width="550" height="550"/></clipPath><clipPath id="clip2"><rect x="-16" y="-16" width="158" height="158"/></clipPath><clipPath id="clip3"><rect x="0" y="0" width="428" height="428"/></clipPath><clipPath id="clip4"><rect x="19" y="19" width="389" height="389"/></clipPath><clipPath id="clip5"><rect x="19" y="19" width="389" height="389"/></clipPath><clipPath id="clip6"><rect x="19" y="19" width="389" height="389"/></clipPath><clipPath id="clip7"><rect x="2271" y="860" width="388" height="389"/></clipPath><clipPath id="clip8"><rect x="2271" y="860" width="388" height="389"/></clipPath><clipPath id="clip9"><rect x="2271" y="860" width="388" height="389"/></clipPath></defs><g clip-path="url(#clip1)" transform="translate(-2190 -780)"><rect x="2190" y="780" width="550" height="550" fill="#576272"/><g clip-path="url(#clip2)" filter="url(#fx0)" transform="translate(2261 850)"><g clip-path="url(#clip3)"><g clip-path="url(#clip4)"><g clip-path="url(#clip5)"><g clip-path="url(#clip6)"><path d="M256.742 165.223C244.727 165.262 233.38 170.757 225.899 180.159L222.656 184.282C220.501 187.021 217.207 188.621 213.721 188.621 210.235 188.621 206.941 187.021 204.786 184.282L201.543 180.159C194.062 170.757 182.715 165.262 170.7 165.223 154.741 165.223 141.729 177.848 141.729 193.36 141.714 196.9 142.08 200.432 142.82 203.894 152.672 249.19 200.254 271.218 213.721 276.644 227.157 271.263 274.733 249.234 284.615 203.894 285.361 200.433 285.729 196.9 285.713 193.36 285.713 177.848 272.709 165.223 256.742 165.223Z" fill="#FFFFFF"/><path d="M381.209 164.466 353.087 164.466C351.354 159.548 349.358 154.726 347.108 150.022L367 130.13C371.975 125.156 374.77 118.409 374.77 111.374 374.77 104.339 371.975 97.5918 367 92.618L334.839 60.4715C329.865 55.4964 323.118 52.7015 316.083 52.7015 309.048 52.7015 302.301 55.4966 297.327 60.4715L277.434 80.3491C272.731 78.0984 267.909 76.1028 262.99 74.37L262.99 46.2474C262.99 39.2123 260.197 32.4666 255.222 27.4928 250.248 22.5177 243.502 19.7241 236.467 19.7241L191 19.7241C183.965 19.7241 177.219 22.5179 172.245 27.4928 167.27 32.4666 164.477 39.2123 164.477 46.2474L164.477 74.37C159.558 76.1029 154.736 78.0984 150.033 80.3491L130.14 60.4715C125.166 55.4964 118.419 52.7015 111.384 52.7015 104.349 52.7015 97.6022 55.4966 92.6284 60.4715L60.4819 92.618C55.5068 97.5918 52.7119 104.339 52.7119 111.374 52.7119 118.409 55.507 125.156 60.4819 130.13L80.3595 150.022C78.1088 154.726 76.1132 159.548 74.3804 164.466L46.2579 164.466C39.2228 164.466 32.4771 167.26 27.5033 172.235 22.5281 177.209 19.7345 183.954 19.7345 190.99L19.7345 236.457C19.7345 243.492 22.5283 250.238 27.5033 255.211 32.4771 260.186 39.2228 262.98 46.2579 262.98L74.3804 262.98C76.1133 267.898 78.1088 272.72 80.3595 277.424L60.4819 297.316C55.5068 302.29 52.7119 309.037 52.7119 316.072 52.7119 323.107 55.507 329.854 60.4819 334.828L92.6284 366.975C97.6022 371.95 104.349 374.745 111.384 374.745 118.419 374.745 125.166 371.95 130.14 366.975L150.033 347.097C154.736 349.348 159.558 351.344 164.477 353.076L164.477 381.199C164.477 388.234 167.27 394.98 172.245 399.953 177.219 404.929 183.965 407.722 191 407.722L236.467 407.722C243.502 407.722 250.248 404.928 255.222 399.953 260.197 394.98 262.99 388.234 262.99 381.199L262.99 353.076C267.909 351.343 272.731 349.348 277.434 347.097L297.327 366.99C302.301 371.965 309.048 374.76 316.083 374.76 323.118 374.76 329.865 371.965 334.839 366.99L366.985 334.843C371.96 329.869 374.755 323.122 374.755 316.087 374.755 309.052 371.96 302.305 366.985 297.331L347.107 277.424C349.358 272.72 351.354 267.898 353.086 262.98L381.209 262.98C388.244 262.98 394.99 260.186 399.964 255.211 404.939 250.237 407.732 243.491 407.732 236.456L407.732 190.989C407.732 183.954 404.939 177.208 399.964 172.235 394.99 167.259 388.244 164.466 381.209 164.466ZM306.836 208.76C292.544 274.206 220.332 298.546 217.27 299.552 214.97 300.299 212.492 300.299 210.192 299.552 207.16 298.544 134.904 274.203 120.619 208.75 119.534 203.689 118.992 198.527 119.005 193.351 119.005 165.312 142.224 142.488 170.725 142.488 186.765 142.446 202.19 148.655 213.731 159.796 225.267 148.651 240.691 142.442 256.728 142.488 285.229 142.488 308.432 165.305 308.449 193.351 308.465 198.53 307.923 203.695 306.835 208.757Z" fill="#FFFFFF"/></g></g></g></g></g><g clip-path="url(#clip7)"><g clip-path="url(#clip8)"><g clip-path="url(#clip9)"><path d="M2508.02 1005.5C2496 1005.54 2484.66 1011.03 2477.18 1020.44L2473.93 1024.56C2471.78 1027.3 2468.48 1028.9 2465 1028.9 2461.51 1028.9 2458.22 1027.3 2456.06 1024.56L2452.82 1020.44C2445.34 1011.03 2433.99 1005.54 2421.98 1005.5 2406.02 1005.5 2393.01 1018.13 2393.01 1033.64 2392.99 1037.18 2393.36 1040.71 2394.1 1044.17 2403.95 1089.47 2451.53 1111.5 2465 1116.92 2478.43 1111.54 2526.01 1089.51 2535.89 1044.17 2536.64 1040.71 2537.01 1037.18 2536.99 1033.64 2536.99 1018.12 2523.99 1005.5 2508.02 1005.5Z" fill="#FFFFFF"/><path d="M2632.49 1004.74 2604.36 1004.74C2602.63 999.825 2600.64 995.003 2598.39 990.3L2618.28 970.407C2623.25 965.433 2626.05 958.686 2626.05 951.651 2626.05 944.616 2623.25 937.869 2618.28 932.895L2586.12 900.749C2581.14 895.774 2574.4 892.979 2567.36 892.979 2560.32 892.979 2553.58 895.774 2548.6 900.749L2528.71 920.626C2524.01 918.376 2519.19 916.38 2514.27 914.647L2514.27 886.525C2514.27 879.49 2511.47 872.744 2506.5 867.77 2501.53 862.795 2494.78 860.001 2487.74 860.001L2442.28 860.001C2435.24 860.001 2428.5 862.795 2423.52 867.77 2418.55 872.744 2415.75 879.49 2415.75 886.525L2415.75 914.647C2410.84 916.38 2406.01 918.376 2401.31 920.626L2381.42 900.749C2376.44 895.774 2369.7 892.979 2362.66 892.979 2355.63 892.979 2348.88 895.774 2343.91 900.749L2311.76 932.895C2306.78 937.869 2303.99 944.616 2303.99 951.651 2303.99 958.686 2306.78 965.433 2311.76 970.407L2331.64 990.3C2329.39 995.003 2327.39 999.825 2325.66 1004.74L2297.54 1004.74C2290.5 1004.74 2283.75 1007.54 2278.78 1012.51 2273.81 1017.49 2271.01 1024.23 2271.01 1031.27L2271.01 1076.73C2271.01 1083.77 2273.81 1090.51 2278.78 1095.49 2283.75 1100.46 2290.5 1103.26 2297.54 1103.26L2325.66 1103.26C2327.39 1108.18 2329.39 1113 2331.64 1117.7L2311.76 1137.59C2306.78 1142.57 2303.99 1149.31 2303.99 1156.35 2303.99 1163.38 2306.78 1170.13 2311.76 1175.11L2343.91 1207.25C2348.88 1212.23 2355.63 1215.02 2362.66 1215.02 2369.7 1215.02 2376.44 1212.23 2381.42 1207.25L2401.31 1187.37C2406.01 1189.63 2410.84 1191.62 2415.75 1193.35L2415.75 1221.48C2415.75 1228.51 2418.55 1235.26 2423.52 1240.23 2428.5 1245.21 2435.24 1248 2442.28 1248L2487.74 1248C2494.78 1248 2501.53 1245.21 2506.5 1240.23 2511.47 1235.26 2514.27 1228.51 2514.27 1221.48L2514.27 1193.35C2519.19 1191.62 2524.01 1189.63 2528.71 1187.37L2548.6 1207.27C2553.58 1212.24 2560.32 1215.04 2567.36 1215.04 2574.4 1215.04 2581.14 1212.24 2586.12 1207.27L2618.26 1175.12C2623.24 1170.15 2626.03 1163.4 2626.03 1156.36 2626.03 1149.33 2623.24 1142.58 2618.26 1137.61L2598.38 1117.7C2600.64 1113 2602.63 1108.18 2604.36 1103.26L2632.49 1103.26C2639.52 1103.26 2646.27 1100.46 2651.24 1095.49 2656.22 1090.51 2659.01 1083.77 2659.01 1076.73L2659.01 1031.27C2659.01 1024.23 2656.22 1017.49 2651.24 1012.51 2646.27 1007.54 2639.52 1004.74 2632.49 1004.74ZM2558.11 1049.04C2543.82 1114.48 2471.61 1138.82 2468.55 1139.83 2466.25 1140.58 2463.77 1140.58 2461.47 1139.83 2458.44 1138.82 2386.18 1114.48 2371.9 1049.03 2370.81 1043.97 2370.27 1038.8 2370.28 1033.63 2370.28 1005.59 2393.5 982.765 2422 982.765 2438.04 982.723 2453.47 988.932 2465.01 1000.07 2476.54 988.928 2491.97 982.719 2508.01 982.765 2536.51 982.765 2559.71 1005.58 2559.73 1033.63 2559.74 1038.81 2559.2 1043.97 2558.11 1049.03Z" fill="#FFFFFF"/></g></g></g></g></svg>