<svg xmlns="http://www.w3.org/2000/svg" viewBox="0 0 512 512" style="height: 512px; width: 512px;"><defs><filter id="shadow-1" height="300%" width="300%" x="-100%" y="-100%"><feFlood flood-color="rgba(5, 5, 5, 1)" result="flood"></feFlood><feComposite in="flood" in2="SourceGraphic" operator="atop" result="composite"></feComposite><feGaussianBlur in="composite" stdDeviation="15" result="blur"></feGaussianBlur><feOffset dx="0" dy="0" result="offset"></feOffset><feComposite in="SourceGraphic" in2="offset" operator="over"></feComposite></filter><filter id="shadow-2" height="300%" width="300%" x="-100%" y="-100%"><feFlood flood-color="rgba(5, 5, 5, 1)" result="flood"></feFlood><feComposite in="flood" in2="SourceGraphic" operator="atop" result="composite"></feComposite><feGaussianBlur in="composite" stdDeviation="15" result="blur"></feGaussianBlur><feOffset dx="0" dy="0" result="offset"></feOffset><feComposite in="SourceGraphic" in2="offset" operator="over"></feComposite></filter><filter id="shadow-3" height="300%" width="300%" x="-100%" y="-100%"><feFlood flood-color="rgba(5, 5, 5, 1)" result="flood"></feFlood><feComposite in="flood" in2="SourceGraphic" operator="atop" result="composite"></feComposite><feGaussianBlur in="composite" stdDeviation="15" result="blur"></feGaussianBlur><feOffset dx="0" dy="0" result="offset"></feOffset><feComposite in="SourceGraphic" in2="offset" operator="over"></feComposite></filter><filter id="shadow-4" height="300%" width="300%" x="-100%" y="-100%"><feFlood flood-color="rgba(5, 5, 5, 1)" result="flood"></feFlood><feComposite in="flood" in2="SourceGraphic" operator="atop" result="composite"></feComposite><feGaussianBlur in="composite" stdDeviation="10" result="blur"></feGaussianBlur><feOffset dx="0" dy="0" result="offset"></feOffset><feComposite in="SourceGraphic" in2="offset" operator="over"></feComposite></filter><filter id="shadow-5" height="300%" width="300%" x="-100%" y="-100%"><feFlood flood-color="rgba(5, 5, 5, 1)" result="flood"></feFlood><feComposite in="flood" in2="SourceGraphic" operator="atop" result="composite"></feComposite><feGaussianBlur in="composite" stdDeviation="10" result="blur"></feGaussianBlur><feOffset dx="0" dy="0" result="offset"></feOffset><feComposite in="SourceGraphic" in2="offset" operator="over"></feComposite></filter><filter id="shadow-6" height="300%" width="300%" x="-100%" y="-100%"><feFlood flood-color="rgba(5, 5, 5, 1)" result="flood"></feFlood><feComposite in="flood" in2="SourceGraphic" operator="atop" result="composite"></feComposite><feGaussianBlur in="composite" stdDeviation="15" result="blur"></feGaussianBlur><feOffset dx="0" dy="0" result="offset"></feOffset><feComposite in="SourceGraphic" in2="offset" operator="over"></feComposite></filter><filter id="shadow-7" height="300%" width="300%" x="-100%" y="-100%"><feFlood flood-color="rgba(5, 5, 5, 1)" result="flood"></feFlood><feComposite in="flood" in2="SourceGraphic" operator="atop" result="composite"></feComposite><feGaussianBlur in="composite" stdDeviation="15" result="blur"></feGaussianBlur><feOffset dx="0" dy="0" result="offset"></feOffset><feComposite in="SourceGraphic" in2="offset" operator="over"></feComposite></filter><filter id="shadow-8" height="300%" width="300%" x="-100%" y="-100%"><feFlood flood-color="rgba(5, 5, 5, 1)" result="flood"></feFlood><feComposite in="flood" in2="SourceGraphic" operator="atop" result="composite"></feComposite><feGaussianBlur in="composite" stdDeviation="15" result="blur"></feGaussianBlur><feOffset dx="0" dy="0" result="offset"></feOffset><feComposite in="SourceGraphic" in2="offset" operator="over"></feComposite></filter></defs><polygon points="256,512,0,256,256,0,512,256" fill="#4b57cc" fill-opacity="1"></polygon><g class="" transform="translate(-3,-28)" style=""><path d="M136.1 18.48c5.4 12.59 14.3 23.16 25.5 34.1 14.2 13.99 31.8 28.2 47.1 47.4 35.9 44.92 40.6 99.42 38.2 149.82-.3 6.6-5.2 10.5-8.6 12.5-3.3 2-6.5 3.2-9.3 4.5-2.7 1.4-4.8 2.8-5.8 3.8-.7.8-.9 1.2-1 2.2.2.1.2.2.8.6 1.6 1.1 4.7 2.7 8.8 4 8.2 2.6 20 4.4 31.9 4.7 11.9.3 23.9-1 32.4-3.6 7-2.2 10.5-4.9 11.9-7.3-1.4-1.3-4.3-3.2-7.5-5.1-3.2-1.9-6.8-3.7-9.9-5.6-1.6-.9-3-1.8-4.5-3-1.4-1.1-3.3-2.1-4.6-6.2-5.6-16.5-6.9-41.6-3.4-69.2 3.5-27.6 11.9-57.4 27.8-81.1 13.3-19.76 32.4-36.25 48.2-51.61 11.4-11.13 20.5-21.62 25.3-30.91H218.3c15.5 26.22 22.9 68.56 15.5 70.93-4.7 1.52-22.8-41.55-42.1-70.93h-55.6zm139.6 38.59l24.4 5.83c-19.9 26.3-21.7 59-33.4 85.9-5.1-27.8-5.2-64.08 9-91.73zM55.95 169L26.2 407h459.6l-29.7-238H298.5c-1 5.1-1.9 10.2-2.5 15.3-3.1 24.6-1.5 47.6 2.1 59.6l.1.1H384l64 28-64 28H273.8c-3.5.1-7 .2-10.5.1-.8 0-1.5-.1-2.3-.1H155.9l-1.9 42h-32l2.4-54H66l2-32h57.9l2.1-48h32l-1.6 36h70.7c1-25.5-.2-50.9-6.3-75H55.95zM25 425v62h462v-62H25z" fill="#ffffff" fill-opacity="1" transform="translate(51.2, 51.2) scale(0.8, 0.8) rotate(0, 256, 256) skewX(0) skewY(0)" filter="url(#shadow-1)"></path></g><g class="" transform="translate(294,322)" style=""><g transform="translate(9.6, 9.6) scale(0.7, 0.7) rotate(0, 128, 128)"><circle cx="128" cy="128" r="128" fill="#9b9b9b" fill-opacity="1"></circle><circle stroke="#ffffff" stroke-opacity="1" fill="#9b9b9b" fill-opacity="1" stroke-width="18" cx="128" cy="128" r="101"></circle><path fill="#ffffff" fill-opacity="1" d="M89.725 93.62H56.354c6.003 14.567 19.228 28.56 33.371 31.882v12.375h21.982C107.158 149.336 99.13 157.776 89.76 166H80.2v12.016h106.73V166h-10.288c-10.785-8.218-18.788-16.646-23.131-28.123h23.894v-10.956c7.244-2.226 12.263-5.266 22.24-17.77-7.437-6.578-14.725-10.229-22.24-11.989V81.984h-87.68z"></path></g></g></svg>