<svg xmlns="http://www.w3.org/2000/svg" viewBox="0 0 512 512" style="height: 512px; width: 512px;"><defs><filter id="shadow-1" height="300%" width="300%" x="-100%" y="-100%"><feFlood flood-color="rgba(5, 5, 5, 1)" result="flood"></feFlood><feComposite in="flood" in2="SourceGraphic" operator="atop" result="composite"></feComposite><feGaussianBlur in="composite" stdDeviation="15" result="blur"></feGaussianBlur><feOffset dx="0" dy="0" result="offset"></feOffset><feComposite in="SourceGraphic" in2="offset" operator="over"></feComposite></filter><filter id="shadow-2" height="300%" width="300%" x="-100%" y="-100%"><feFlood flood-color="rgba(5, 5, 5, 1)" result="flood"></feFlood><feComposite in="flood" in2="SourceGraphic" operator="atop" result="composite"></feComposite><feGaussianBlur in="composite" stdDeviation="15" result="blur"></feGaussianBlur><feOffset dx="0" dy="0" result="offset"></feOffset><feComposite in="SourceGraphic" in2="offset" operator="over"></feComposite></filter><filter id="shadow-3" height="300%" width="300%" x="-100%" y="-100%"><feFlood flood-color="rgba(5, 5, 5, 1)" result="flood"></feFlood><feComposite in="flood" in2="SourceGraphic" operator="atop" result="composite"></feComposite><feGaussianBlur in="composite" stdDeviation="15" result="blur"></feGaussianBlur><feOffset dx="0" dy="0" result="offset"></feOffset><feComposite in="SourceGraphic" in2="offset" operator="over"></feComposite></filter><filter id="shadow-4" height="300%" width="300%" x="-100%" y="-100%"><feFlood flood-color="rgba(5, 5, 5, 1)" result="flood"></feFlood><feComposite in="flood" in2="SourceGraphic" operator="atop" result="composite"></feComposite><feGaussianBlur in="composite" stdDeviation="10" result="blur"></feGaussianBlur><feOffset dx="0" dy="0" result="offset"></feOffset><feComposite in="SourceGraphic" in2="offset" operator="over"></feComposite></filter><filter id="shadow-5" height="300%" width="300%" x="-100%" y="-100%"><feFlood flood-color="rgba(5, 5, 5, 1)" result="flood"></feFlood><feComposite in="flood" in2="SourceGraphic" operator="atop" result="composite"></feComposite><feGaussianBlur in="composite" stdDeviation="10" result="blur"></feGaussianBlur><feOffset dx="0" dy="0" result="offset"></feOffset><feComposite in="SourceGraphic" in2="offset" operator="over"></feComposite></filter><filter id="shadow-6" height="300%" width="300%" x="-100%" y="-100%"><feFlood flood-color="rgba(5, 5, 5, 1)" result="flood"></feFlood><feComposite in="flood" in2="SourceGraphic" operator="atop" result="composite"></feComposite><feGaussianBlur in="composite" stdDeviation="15" result="blur"></feGaussianBlur><feOffset dx="0" dy="0" result="offset"></feOffset><feComposite in="SourceGraphic" in2="offset" operator="over"></feComposite></filter><filter id="shadow-7" height="300%" width="300%" x="-100%" y="-100%"><feFlood flood-color="rgba(5, 5, 5, 1)" result="flood"></feFlood><feComposite in="flood" in2="SourceGraphic" operator="atop" result="composite"></feComposite><feGaussianBlur in="composite" stdDeviation="15" result="blur"></feGaussianBlur><feOffset dx="0" dy="0" result="offset"></feOffset><feComposite in="SourceGraphic" in2="offset" operator="over"></feComposite></filter><filter id="shadow-8" height="300%" width="300%" x="-100%" y="-100%"><feFlood flood-color="rgba(5, 5, 5, 1)" result="flood"></feFlood><feComposite in="flood" in2="SourceGraphic" operator="atop" result="composite"></feComposite><feGaussianBlur in="composite" stdDeviation="15" result="blur"></feGaussianBlur><feOffset dx="0" dy="0" result="offset"></feOffset><feComposite in="SourceGraphic" in2="offset" operator="over"></feComposite></filter></defs><polygon points="256,512,0,256,256,0,512,256" fill="#4b57cc" fill-opacity="1"></polygon><g class="" transform="translate(-1,4)" style=""><path d="M257.03 17.625c-30.488 0-58.12 4.958-78.967 13.5-10.424 4.27-19.193 9.4-25.813 15.813-3.92 3.797-7.126 8.218-9.094 13.093-14.737 2.635-29.356 5.773-43.812 9.407 27.48 115.995 84.27 189.266 160.187 232.844 75.63-43.412 132.25-116.295 159.845-231.53-15.998-4.16-32.162-7.707-48.438-10.625-1.964-4.912-5.18-9.366-9.125-13.188-6.62-6.413-15.39-11.54-25.812-15.812-20.846-8.542-48.48-13.5-78.97-13.5zm0 18.688c28.422 0 54.116 4.816 71.876 12.093 8.88 3.64 15.73 7.923 19.906 11.97 4.176 4.045 5.532 7.357 5.532 10.312 0 2.954-2.117 10.08-6.97 17.937-4.85 7.857-12.145 16.657-21.155 24.72-18.02 16.122-42.748 29.124-69.19 29.124-26.44 0-51.166-13.003-69.186-29.126-9.01-8.062-16.304-16.862-21.156-24.72-4.853-7.856-6.97-14.982-6.97-17.936 0-2.955 1.356-6.267 5.532-10.313s11.026-8.33 19.906-11.97c17.76-7.276 43.455-12.093 71.875-12.093zM81.22 73.906c-3.418 1.244-6.14 3.31-8.47 5.72-4.96 5.123-8.637 11.95-12.063 20.468-6.354 15.8-11.376 37.542-14.312 62.812-3.59 19.297-4.55 39.622-3 60.563 3.545 47.928 20.35 98.78 48.438 146.218 25.367-40.346 56.914-73.48 93.437-100.063-37.737-36.798-68.137-84.54-89.188-144.72 2.14 18.382 2.275 42.013-.218 66.72-2.674 26.5-7.94 49.237-13.75 63.688-2.906 7.225-6.083 12.327-8.125 14.437-.422.435-.34.31-.595.5-.666-.786-1.99-2.45-3.5-6.28-2.076-5.275-3.98-13.097-5.28-22.533-2.603-18.87-2.957-44.186-.282-70.687 2.674-26.5 7.907-49.206 13.718-63.656 2.842-7.065 5.955-12.12 8-14.313-1.698-6.168-3.29-12.47-4.81-18.874zm356.53.28c-1.563 6.57-3.217 13.023-4.97 19.345 2.026 2.486 4.82 7.21 7.376 13.564 5.81 14.45 11.045 37.155 13.72 63.656 2.673 26.5 2.32 51.817-.282 70.688-1.3 9.435-3.205 17.257-5.28 22.53-1.51 3.833-2.835 5.496-3.502 6.282-.255-.19-.173-.065-.593-.5-2.043-2.11-5.22-7.212-8.126-14.438-5.81-14.45-11.076-37.186-13.75-63.687-2.34-23.19-2.368-45.437-.594-63.28-21.398 59.69-52.126 106.966-90.125 143.343 36.126 26.816 67.28 60.153 92.28 100.656 30.156-48.402 47.387-99.807 50.314-148.28.593-9.844.58-19.547 0-29.095-.285-8.466-.855-17.212-1.75-26.095-2.81-27.826-8.12-51.745-14.97-68.78-3.426-8.52-7.104-15.346-12.063-20.47-2.154-2.226-4.625-4.172-7.687-5.438zM199.312 282.533c-38.34 27.264-70.936 61.702-96.468 104.72 2.514 3.787 5.09 7.554 7.75 11.28 80.937 65.808 213.544 66.076 294.906.814 2.41-3.242 4.773-6.502 7.063-9.78-25.13-43.067-57.255-77.624-95.094-105.064-16.623 14.114-34.475 26.346-53.408 36.813l-4.53 2.5-4.532-2.5c-19.806-10.95-38.416-23.835-55.688-38.782zm-90.03 138.5c-7.83 11.086-8.854 19.277-6.688 26.158 2.532 8.044 11.047 16.432 25.53 23.593C157.093 485.106 207.11 493.12 257 493.095c49.89-.025 100.116-8.06 129.563-22.438 14.723-7.188 23.563-15.67 26.343-23.78 2.342-6.834 1.588-14.775-5.594-25.5-85.68 61.277-212.512 61.175-298.03-.345z" fill="#ffffff" fill-opacity="1" transform="translate(51.2, 51.2) scale(0.8, 0.8) rotate(0, 256, 256) skewX(0) skewY(0)" filter="url(#shadow-1)"></path></g><g class="" transform="translate(294,322)" style=""><g transform="translate(9.6, 9.6) scale(0.7, 0.7) rotate(0, 128, 128)"><circle cx="128" cy="128" r="128" fill="#9b9b9b" fill-opacity="1"></circle><circle stroke="#ffffff" stroke-opacity="1" fill="#9b9b9b" fill-opacity="1" stroke-width="18" cx="128" cy="128" r="101"></circle><path fill="#ffffff" fill-opacity="1" d="M89.725 93.62H56.354c6.003 14.567 19.228 28.56 33.371 31.882v12.375h21.982C107.158 149.336 99.13 157.776 89.76 166H80.2v12.016h106.73V166h-10.288c-10.785-8.218-18.788-16.646-23.131-28.123h23.894v-10.956c7.244-2.226 12.263-5.266 22.24-17.77-7.437-6.578-14.725-10.229-22.24-11.989V81.984h-87.68z"></path></g></g></svg>