<svg width="561" height="580" xmlns="http://www.w3.org/2000/svg" xmlns:xlink="http://www.w3.org/1999/xlink" overflow="hidden"><defs><clipPath id="clip0"><rect x="31" y="35" width="561" height="580"/></clipPath><radialGradient cx="762000" cy="762000" r="1.07763e+06" gradientUnits="userSpaceOnUse" spreadMethod="pad" id="fill1" gradientTransform="matrix(0.000360892 0 0 0.000360892 41.9999 35.0001)"><stop offset="0" stop-color="#5D6CFF"/><stop offset="0.17" stop-color="#5D6CFF"/><stop offset="0.33" stop-color="#4B57CC"/><stop offset="1" stop-color="#0F1113"/></radialGradient><radialGradient cx="374073" cy="421179" r="563313" fx="374073" fy="421178" gradientUnits="userSpaceOnUse" spreadMethod="pad" id="fill2" gradientTransform="matrix(0.000360892 0 0 0.000360892 61.9999 62.9999)"><stop offset="0" stop-color="#5D6CFF"/><stop offset="0.54" stop-color="#4B57CC" stop-opacity="0"/><stop offset="1" stop-color="#4B57CC" stop-opacity="0"/></radialGradient><linearGradient x1="315" y1="40.9999" x2="315" y2="195" gradientUnits="userSpaceOnUse" spreadMethod="reflect" id="fill3"><stop offset="0" stop-color="#F5FAFF" stop-opacity="0.231373"/><stop offset="0.32" stop-color="#FFFFFF" stop-opacity="0"/><stop offset="1" stop-color="#FFFFFF" stop-opacity="0"/></linearGradient><radialGradient cx="94210.5" cy="101138" r="138219" gradientUnits="userSpaceOnUse" spreadMethod="pad" id="fill4" gradientTransform="matrix(0.000360892 0 0 0.000360892 81.0001 164)"><stop offset="0" stop-color="#5D6CFF"/><stop offset="0.54" stop-color="#4B57CC" stop-opacity="0"/><stop offset="1" stop-color="#4B57CC" stop-opacity="0"/></radialGradient><radialGradient cx="112222" cy="120534" r="164689" gradientUnits="userSpaceOnUse" spreadMethod="pad" id="fill5" gradientTransform="matrix(0.000360892 0 0 0.000360892 109 209)"><stop offset="0" stop-color="#5D6CFF"/><stop offset="0.54" stop-color="#4B57CC" stop-opacity="0"/><stop offset="1" stop-color="#4B57CC" stop-opacity="0"/></radialGradient><radialGradient cx="292331" cy="278477" r="403741" fx="292331" fy="278476" gradientUnits="userSpaceOnUse" spreadMethod="pad" id="fill6" gradientTransform="matrix(0.000360892 0 0 0.000360892 331 340)"><stop offset="0" stop-color="#5D6CFF"/><stop offset="0.54" stop-color="#4B57CC" stop-opacity="0"/><stop offset="1" stop-color="#4B57CC" stop-opacity="0"/></radialGradient><radialGradient cx="72043.5" cy="77585.5" r="105876" fx="72043.5" fy="77585.5" gradientUnits="userSpaceOnUse" spreadMethod="pad" id="fill7" gradientTransform="matrix(0.000360892 0 0 0.000360892 476 468)"><stop offset="0" stop-color="#5D6CFF"/><stop offset="0.54" stop-color="#4B57CC" stop-opacity="0"/><stop offset="1" stop-color="#4B57CC" stop-opacity="0"/></radialGradient><radialGradient cx="77585.5" cy="84512.5" r="114725" gradientUnits="userSpaceOnUse" spreadMethod="pad" id="fill8" gradientTransform="matrix(0.000360892 0 0 0.000360892 460 385)"><stop offset="0" stop-color="#5D6CFF"/><stop offset="0.54" stop-color="#4B57CC" stop-opacity="0"/><stop offset="1" stop-color="#4B57CC" stop-opacity="0"/></radialGradient><clipPath id="clip9"><rect x="47" y="148" width="252" height="253"/></clipPath><clipPath id="clip10"><rect x="47" y="148" width="252" height="253"/></clipPath><clipPath id="clip11"><rect x="47" y="148" width="252" height="253"/></clipPath><clipPath id="clip12"><rect x="78" y="313" width="511" height="155"/></clipPath><clipPath id="clip13"><rect x="78" y="313" width="511" height="155"/></clipPath><clipPath id="clip14"><rect x="78" y="313" width="511" height="155"/></clipPath></defs><g clip-path="url(#clip0)" transform="translate(-31 -35)"><rect x="41.9999" y="35.0001" width="550" height="550" fill="url(#fill1)"/><path d="M61.9999 215C61.9999 131.053 122.441 62.9999 197 62.9999 271.558 62.9999 332 131.053 332 215 332 298.947 271.558 367 197 367 122.441 367 61.9999 298.947 61.9999 215Z" fill="url(#fill2)" fill-rule="evenodd"/><path d="M75.7875 40.9999 554.213 40.9999C570.112 40.9999 583 60.8638 583 85.3676L583 195C583 156.824 562.92 125.876 538.15 125.876L91.8505 125.876C67.0803 125.876 47.0001 156.824 47.0001 195L47.0001 85.3676C47.0001 60.8638 59.8886 40.9999 75.7875 40.9999Z" fill="url(#fill3)" fill-rule="evenodd"/><path d="M81.0001 200.5C81.0001 180.342 96.2224 164 115 164 133.778 164 149 180.342 149 200.5 149 220.658 133.778 237 115 237 96.2224 237 81.0001 220.658 81.0001 200.5Z" fill="url(#fill4)" fill-rule="evenodd"/><path d="M109 252.5C109 228.476 127.132 209 149.5 209 171.868 209 190 228.476 190 252.5 190 276.524 171.868 296 149.5 296 127.132 296 109 276.524 109 252.5Z" fill="url(#fill5)" fill-rule="evenodd"/><path d="M331 440.5C331 384.995 378.234 340 436.5 340 494.766 340 542 384.995 542 440.5 542 496.005 494.766 541 436.5 541 378.234 541 331 496.005 331 440.5Z" fill="url(#fill6)" fill-rule="evenodd"/><path d="M476 496C476 480.536 487.641 468 502 468 516.359 468 528 480.536 528 496 528 511.464 516.359 524 502 524 487.641 524 476 511.464 476 496Z" fill="url(#fill7)" fill-rule="evenodd"/><path d="M460 415.5C460 398.655 472.536 385 488 385 503.464 385 516 398.655 516 415.5 516 432.345 503.464 446 488 446 472.536 446 460 432.345 460 415.5Z" fill="url(#fill8)" fill-rule="evenodd"/><g clip-path="url(#clip9)"><g clip-path="url(#clip10)"><g clip-path="url(#clip11)"><path d="M262.609 357.832C260.35 355.573 256.334 355.322 254.075 357.832L249.556 362.099C249.556 367.119 247.548 371.888 243.532 375.151 240.521 377.661 236.504 378.916 232.739 378.916L231.985 378.916 230.23 380.924C227.72 383.183 227.72 386.948 229.979 389.458 231.234 390.713 232.74 391.215 234.245 391.215 235.751 391.215 237.257 390.713 238.512 389.458L262.356 366.366C264.868 364.107 264.868 360.342 262.609 357.832Z" stroke="#5E93FE" stroke-width="3.24919" fill="#0F1113"/><path d="M240.521 371.386C245.541 367.119 246.294 359.589 242.027 354.318L202.118 306.879 209.146 352.812 223.453 369.88C225.963 372.641 229.226 374.147 232.739 374.147 235.5 374.145 238.261 373.143 240.52 371.384Z" stroke="#5E93FE" stroke-width="3.24919" fill="#0F1113"/><path d="M159.197 181.63C159.197 196.185 147.398 207.985 132.842 207.985 118.287 207.985 106.487 196.185 106.487 181.63 106.487 167.075 118.287 155.275 132.842 155.275 147.398 155.275 159.197 167.075 159.197 181.63" stroke="#5E93FE" stroke-width="3.24919" fill="#0F1113"/><path d="M159.197 326.708 125.312 326.708C116.276 326.708 108.496 320.182 107.241 311.146L96.6989 243.627C95.9455 239.361 91.9297 236.348 87.4123 236.851 83.1458 237.604 80.1331 241.62 80.6358 246.137L91.1773 313.656C93.6873 330.473 108.246 342.772 125.313 342.772L158.947 342.772C163.466 342.772 166.979 339.258 166.979 334.741 167.23 330.473 163.465 326.708 159.197 326.708Z" stroke="#5E93FE" stroke-width="3.24919" fill="#0F1113"/><path d="M210.15 263.205 207.138 268.476C205.382 271.487 206.385 275.002 209.398 276.759 210.402 277.261 211.406 277.513 212.409 277.513 214.418 277.513 216.425 276.508 217.68 274.501L226.465 259.441 240.772 269.481C241.776 270.234 243.031 270.485 244.286 270.485 246.042 270.485 248.051 269.481 249.306 267.975 251.314 265.214 250.561 261.449 247.8 259.441L232.74 248.899 241.776 233.086C243.532 230.074 242.529 226.56 239.517 224.802 236.505 223.297 232.991 224.049 231.233 227.062L222.95 241.62C224.205 243.628 224.706 245.887 224.706 248.397 224.456 256.177 217.93 262.703 210.15 263.205Z" stroke="#5E93FE" stroke-width="3.24919" fill="#0F1113"/><path d="M196.847 303.114C195.843 297.341 190.823 292.823 185.05 292.823L162.209 292.823 159.198 250.153C167.48 255.424 177.52 258.436 187.561 258.436L209.649 258.436C215.17 258.436 219.689 253.917 219.689 248.396 219.689 242.874 215.17 238.356 209.649 238.356L187.561 238.356C180.532 238.356 173.756 236.347 167.982 232.582L147.902 219.279C144.137 216.769 139.619 215.012 134.599 215.012L130.834 215.012C123.806 215.012 117.28 218.024 112.511 223.296 107.992 228.567 105.985 235.595 106.989 242.622L117.029 306.627C118.033 312.401 123.053 316.918 128.826 316.918L174.508 316.918 184.798 383.434C185.803 389.458 190.823 393.723 196.595 393.723 197.097 393.723 197.85 393.723 198.352 393.474 204.877 392.468 209.396 386.193 208.392 379.669Z" stroke="#5E93FE" stroke-width="3.24919" fill="#0F1113"/></g></g></g><path d="M44.4998 586.5 44.4998 327.5 291.5 586.5Z" stroke="#0F1113" stroke-width="4.58333" stroke-miterlimit="8" fill="#5E93FE" fill-rule="evenodd"/><text fill="#0F1113" font-family="Aurebesh,Aurebesh_MSFontService,sans-serif" font-weight="700" font-size="83" transform="matrix(1 0 0 1 81.2618 546)">A</text><g clip-path="url(#clip12)"><g clip-path="url(#clip13)"><g clip-path="url(#clip14)"><path d="M918.083 433.625C906.784 431.971 893.161 432.266 898.455 415.509 900.857 404.547 879.89 410.935 876.074 409.59 871.838 415.986 880.213 433.081 871.912 434.357 857.453 433.907 846.658 432.703 832.222 434.115 821.597 434.087 814.862 427.144 808.136 424.759 807.573 413.524 810.123 401.312 806.773 390.803 791.132 389.54 775.223 396.015 760.875 387.994 746.047 393.404 725.966 392.609 711.53 385.444 705.724 376.923 684.65 385.522 689.528 370.301 690.304 364.384 687.957 355.596 690.655 351.453 704.85 352.648 712.667 340.909 726.021 341.606 744.208 332.975 753.816 347.888 770.479 341.466 781.113 331.314 807.993 353.348 809.259 333.946 809.346 324.638 809.291 315.33 809.305 306.022 816.992 307.274 824.738 299.89 826.194 296.405 808.289 289.655 788.869 285.45 769.966 291.414 730.964 305.231 724.737 308.027 683.264 310.201 666.555 312.982 646.133 308.942 631.48 315.42 615.183 317.531 605.602 308.859 592.834 314.805 580.029 313.357 563.976 320.274 548.977 318.31 533.04 321.447 521.127 313.58 508.174 311.372 492.098 312.599 503.841 300.447 511.588 304.026 524.49 297.968 510.474 295.519 503.31 296.852 506.654 285.08 536.87 277.33 540.417 287.76 540.108 300.11 561.274 297.437 558.729 290.133 563.325 295.876 563.445 278.682 572.684 288.388 584.602 289.962 618.569 287.573 611.242 305.5 626.819 308.373 642.941 311.784 659.474 310.286 705.788 308.801 717.688 308.387 761.332 292.591 778.992 286.838 797.973 284.378 816.437 285.505 824.235 292.287 836.587 285.441 843.891 298.41 852.284 302.995 869.002 294.421 875.307 300.952 874.231 311.901 875.303 319.263 886.611 315.916 902.359 321.905 893.263 295.247 909.865 299.383 924.55 300.597 947.347 293.285 956.752 304.813 974.329 301.926 967.359 328.014 969.419 339.841 965.936 352.028 974.606 353.885 985.457 354.636 998.179 355.402 1023.42 369.323 998.886 375.893 985.758 382.936 963.474 377.198 968.264 398.911 967.978 406.797 964.929 414.255 956.124 409.3 960.748 426.851 951.856 441.431 932.731 435.479 928.107 434.825 921.95 436.488 918.083 433.625Z" stroke="#5E93FE" stroke-width="4.33851" fill="#0F1113" transform="matrix(1.00065 0 0 1 -422.469 30.1352)"/></g></g></g></g></svg>