<svg width="561" height="579" xmlns="http://www.w3.org/2000/svg" xmlns:xlink="http://www.w3.org/1999/xlink" overflow="hidden"><defs><clipPath id="clip0"><rect x="50" y="46" width="561" height="579"/></clipPath><radialGradient cx="762000" cy="762000" r="1.07763e+06" gradientUnits="userSpaceOnUse" spreadMethod="pad" id="fill1" gradientTransform="matrix(0.000360892 0 0 0.000360892 60.9998 46.0001)"><stop offset="0" stop-color="#D9D9D9"/><stop offset="0.17" stop-color="#D9D9D9"/><stop offset="0.33" stop-color="#7F7F7F"/><stop offset="1" stop-color="#0F1113"/></radialGradient><radialGradient cx="374072" cy="432262" r="571647" fx="374072" fy="432262" gradientUnits="userSpaceOnUse" spreadMethod="pad" id="fill2" gradientTransform="matrix(0.000360892 0 0 0.000360892 81.0001 65)"><stop offset="0" stop-color="#FFFFFF"/><stop offset="0.54" stop-color="#7F7F7F" stop-opacity="0"/><stop offset="1" stop-color="#7F7F7F" stop-opacity="0"/></radialGradient><linearGradient x1="334" y1="50.9999" x2="334" y2="206" gradientUnits="userSpaceOnUse" spreadMethod="reflect" id="fill3"><stop offset="0" stop-color="#F5FAFF" stop-opacity="0.231373"/><stop offset="0.32" stop-color="#FFFFFF" stop-opacity="0"/><stop offset="1" stop-color="#FFFFFF" stop-opacity="0"/></linearGradient><radialGradient cx="95596.5" cy="102524" r="140178" gradientUnits="userSpaceOnUse" spreadMethod="pad" id="fill4" gradientTransform="matrix(0.000360892 0 0 0.000360892 99 174)"><stop offset="0" stop-color="#FFFFFF"/><stop offset="0.54" stop-color="#7F7F7F" stop-opacity="0"/><stop offset="1" stop-color="#7F7F7F" stop-opacity="0"/></radialGradient><radialGradient cx="112222" cy="120534" r="164689" gradientUnits="userSpaceOnUse" spreadMethod="pad" id="fill5" gradientTransform="matrix(0.000360892 0 0 0.000360892 128 219)"><stop offset="0" stop-color="#FFFFFF"/><stop offset="0.54" stop-color="#7F7F7F" stop-opacity="0"/><stop offset="1" stop-color="#7F7F7F" stop-opacity="0"/></radialGradient><radialGradient cx="292331" cy="278477" r="403741" fx="292331" fy="278476" gradientUnits="userSpaceOnUse" spreadMethod="pad" id="fill6" gradientTransform="matrix(0.000360892 0 0 0.000360892 350 350)"><stop offset="0" stop-color="#FFFFFF"/><stop offset="0.54" stop-color="#7F7F7F" stop-opacity="0"/><stop offset="1" stop-color="#7F7F7F" stop-opacity="0"/></radialGradient><radialGradient cx="72043.5" cy="77585" r="105876" gradientUnits="userSpaceOnUse" spreadMethod="pad" id="fill7" gradientTransform="matrix(0.000360892 0 0 0.000360892 495 478)"><stop offset="0" stop-color="#FFFFFF"/><stop offset="0.54" stop-color="#7F7F7F" stop-opacity="0"/><stop offset="1" stop-color="#7F7F7F" stop-opacity="0"/></radialGradient><radialGradient cx="77585.5" cy="84513" r="114726" fx="77585.5" fy="84513" gradientUnits="userSpaceOnUse" spreadMethod="pad" id="fill8" gradientTransform="matrix(0.000360892 0 0 0.000360892 479 395)"><stop offset="0" stop-color="#FFFFFF"/><stop offset="0.54" stop-color="#7F7F7F" stop-opacity="0"/><stop offset="1" stop-color="#7F7F7F" stop-opacity="0"/></radialGradient><clipPath id="clip9"><rect x="79" y="60" width="380" height="380"/></clipPath><clipPath id="clip10"><rect x="79" y="60" width="380" height="381"/></clipPath><clipPath id="clip11"><rect x="79" y="60" width="380" height="381"/></clipPath><clipPath id="clip12"><rect x="308" y="294" width="292" height="294"/></clipPath><clipPath id="clip13"><rect x="308" y="294" width="292" height="294"/></clipPath><clipPath id="clip14"><rect x="308" y="294" width="292" height="294"/></clipPath></defs><g clip-path="url(#clip0)" transform="translate(-50 -46)"><rect x="60.9998" y="46.0001" width="550" height="550" fill="url(#fill1)"/><path d="M81.0001 221C81.0001 134.844 141.442 65 216 65 290.558 65 351 134.844 351 221 351 307.156 290.558 377 216 377 141.442 377 81.0001 307.156 81.0001 221Z" fill="url(#fill2)" fill-rule="evenodd"/><path d="M94.7874 50.9999 573.212 50.9999C589.111 50.9999 602 70.9928 602 95.6556L602 206C602 167.576 581.92 136.427 557.15 136.427L110.85 136.427C86.0802 136.427 66 167.576 66 206L66 95.6556C66 70.9928 78.8885 50.9999 94.7874 50.9999Z" fill="url(#fill3)" fill-rule="evenodd"/><path d="M99 211C99 190.565 114.446 174 133.5 174 152.554 174 168 190.565 168 211 168 231.434 152.554 248 133.5 248 114.446 248 99 231.434 99 211Z" fill="url(#fill4)" fill-rule="evenodd"/><path d="M128 262.5C128 238.476 146.132 219 168.5 219 190.867 219 209 238.476 209 262.5 209 286.524 190.867 306 168.5 306 146.132 306 128 286.524 128 262.5Z" fill="url(#fill5)" fill-rule="evenodd"/><path d="M350 450.5C350 394.995 397.234 350 455.5 350 513.766 350 561 394.995 561 450.5 561 506.005 513.766 551 455.5 551 397.234 551 350 506.005 350 450.5Z" fill="url(#fill6)" fill-rule="evenodd"/><path d="M495 506C495 490.536 506.641 478 521 478 535.359 478 547 490.536 547 506 547 521.464 535.359 534 521 534 506.641 534 495 521.464 495 506Z" fill="url(#fill7)" fill-rule="evenodd"/><path d="M479 425.5C479 408.655 491.536 395 507 395 522.464 395 535 408.655 535 425.5 535 442.345 522.464 456 507 456 491.536 456 479 442.345 479 425.5Z" fill="url(#fill8)" fill-rule="evenodd"/><path d="M63.5001 597.5 63.5001 337.5 310.5 597.5Z" stroke="#0F1113" stroke-width="4.58333" stroke-miterlimit="8" fill="#F2F2F2" fill-rule="evenodd"/><text fill="#0F1113" font-family="Aurebesh,Aurebesh_MSFontService,sans-serif" font-weight="700" font-size="83" transform="matrix(1 0 0 1 100.179 556)">A</text><g clip-path="url(#clip9)"><g clip-path="url(#clip10)"><g clip-path="url(#clip11)"><path d="M410.645 168.658C410.645 174.035 406.275 178.428 400.939 178.428 395.605 178.428 391.755 182.794 392.397 188.129L415.332 380.939C416.117 386.252 412.358 390.603 406.981 390.603L330.259 390.603 314.28 390.603C310.867 390.603 308.07 386.208 308.07 380.831L308.072 372.704C308.072 367.33 306.274 358.921 304.081 354.019 304.081 354.019 291.408 325.732 270.844 325.732 250.279 325.732 237.606 354.019 237.606 354.019 235.409 358.921 233.612 367.334 233.612 372.704L233.612 380.831C233.612 386.208 230.823 390.603 227.41 390.603L211.431 390.603 131.045 390.603C125.664 390.603 121.91 386.252 122.693 380.939L145.618 188.129C146.26 182.794 142.384 178.432 137.011 178.432L135.936 178.432C130.559 178.432 126.159 174.035 126.159 168.666L126.158 128.674C126.158 123.297 130.558 118.9 135.935 118.9L184.505 118.9C189.882 118.9 194.282 123.297 194.282 128.674L194.282 138.896C194.282 144.273 198.682 148.666 204.059 148.666L215.132 148.666C220.513 148.666 224.91 144.27 224.91 138.896L224.91 128.674C224.91 123.297 229.31 118.9 234.687 118.9L245.76 118.9C251.141 118.9 255.538 123.297 255.538 128.674L255.538 138.896C255.538 144.273 259.937 148.666 265.315 148.666L276.384 148.666C281.761 148.666 286.161 144.27 286.161 138.896L286.161 128.674C286.161 123.297 290.557 118.9 295.935 118.9L307.011 118.9C312.388 118.9 316.785 123.297 316.785 128.674L316.785 138.896C316.785 144.273 321.181 148.666 326.562 148.666L337.632 148.666C343.013 148.666 347.409 144.27 347.409 138.896L347.409 128.674C347.409 123.297 351.809 118.9 357.186 118.9L400.873 118.9C406.25 118.9 410.651 123.297 410.651 128.674L410.651 168.659Z" stroke="#FFFFFF" stroke-width="4.60607" fill="#0F1113"/></g></g></g><g clip-path="url(#clip12)"><g clip-path="url(#clip13)"><g clip-path="url(#clip14)"><path d="M242.864 164.095C239.517 95.0116 206.634 57.9963 170.114 48.0441 205.907 64.0491 227.615 116.4 232.504 175.939 228.139 180.246 221.708 183.883 221.708 183.883 219.264 129.059 201.047 79.2398 171.54 59.4518 158.735 50.8678 145.641 45.1055 129.49 42.8653 124.544 43.2147 114.766 45.5139 110.051 46.4157 114.126 47.4047 118.17 48.7146 122.069 50.3147 168.95 69.7241 177.68 182.72 179.018 206.64 173.198 208.415 165.894 209.957 165.894 209.957 163.1 147.392 146.629 74.846 117.006 62.5658 105.016 57.5897 92.0962 56.3384 80.2234 57.4155 51.6763 74.0317 31.7719 107.409 28.7455 163.572 25.1373 165.988 22.5474 167.821 21.8199 168.578 9.9185 180.829 9.191 186.562 45.9734 204.633 82.7558 222.733 112.671 232.685 131.44 240.339 150.181 247.993 177.331 253.987 236.258 238.476 301.908 225.409 274.496 196.077 242.864 164.096Z" stroke="#FFFFFF" stroke-width="4.61905" fill="#0F1113" transform="matrix(1 0 0 1.00344 308 295)"/></g></g></g></g></svg>