<svg width="561" height="580" xmlns="http://www.w3.org/2000/svg" xmlns:xlink="http://www.w3.org/1999/xlink" overflow="hidden"><defs><clipPath id="clip0"><rect x="2409" y="614" width="561" height="580"/></clipPath><radialGradient cx="762000" cy="762000" r="1.07763e+06" gradientUnits="userSpaceOnUse" spreadMethod="pad" id="fill1" gradientTransform="matrix(0.000360892 0 0 0.000360892 2420 614)"><stop offset="0" stop-color="#D9D9D9"/><stop offset="0.17" stop-color="#D9D9D9"/><stop offset="0.33" stop-color="#7F7F7F"/><stop offset="1" stop-color="#0F1113"/></radialGradient><radialGradient cx="374073" cy="433648" r="572696" gradientUnits="userSpaceOnUse" spreadMethod="pad" id="fill2" gradientTransform="matrix(0.000360892 0 0 0.000360892 2440 633)"><stop offset="0" stop-color="#FFFFFF"/><stop offset="0.54" stop-color="#7F7F7F" stop-opacity="0"/><stop offset="1" stop-color="#7F7F7F" stop-opacity="0"/></radialGradient><linearGradient x1="2692.5" y1="620" x2="2692.5" y2="774" gradientUnits="userSpaceOnUse" spreadMethod="reflect" id="fill3"><stop offset="0" stop-color="#F5FAFF" stop-opacity="0.231373"/><stop offset="0.32" stop-color="#FFFFFF" stop-opacity="0"/><stop offset="1" stop-color="#FFFFFF" stop-opacity="0"/></linearGradient><radialGradient cx="95596" cy="102523" r="140177" fx="95596" fy="102524" gradientUnits="userSpaceOnUse" spreadMethod="pad" id="fill4" gradientTransform="matrix(0.000360892 0 0 0.000360892 2458 742)"><stop offset="0" stop-color="#FFFFFF"/><stop offset="0.54" stop-color="#7F7F7F" stop-opacity="0"/><stop offset="1" stop-color="#7F7F7F" stop-opacity="0"/></radialGradient><radialGradient cx="112222" cy="120534" r="164689" gradientUnits="userSpaceOnUse" spreadMethod="pad" id="fill5" gradientTransform="matrix(0.000360892 0 0 0.000360892 2487 788)"><stop offset="0" stop-color="#FFFFFF"/><stop offset="0.54" stop-color="#7F7F7F" stop-opacity="0"/><stop offset="1" stop-color="#7F7F7F" stop-opacity="0"/></radialGradient><radialGradient cx="292331" cy="279862" r="404697" gradientUnits="userSpaceOnUse" spreadMethod="pad" id="fill6" gradientTransform="matrix(0.000360892 0 0 0.000360892 2709 918)"><stop offset="0" stop-color="#FFFFFF"/><stop offset="0.54" stop-color="#7F7F7F" stop-opacity="0"/><stop offset="1" stop-color="#7F7F7F" stop-opacity="0"/></radialGradient><radialGradient cx="72043.5" cy="77585.5" r="105876" fx="72043.5" fy="77585.5" gradientUnits="userSpaceOnUse" spreadMethod="pad" id="fill7" gradientTransform="matrix(0.000360892 0 0 0.000360892 2854 1047)"><stop offset="0" stop-color="#FFFFFF"/><stop offset="0.54" stop-color="#7F7F7F" stop-opacity="0"/><stop offset="1" stop-color="#7F7F7F" stop-opacity="0"/></radialGradient><radialGradient cx="77585.5" cy="83127.5" r="113709" gradientUnits="userSpaceOnUse" spreadMethod="pad" id="fill8" gradientTransform="matrix(0.000360892 0 0 0.000360892 2838 964)"><stop offset="0" stop-color="#FFFFFF"/><stop offset="0.54" stop-color="#7F7F7F" stop-opacity="0"/><stop offset="1" stop-color="#7F7F7F" stop-opacity="0"/></radialGradient><clipPath id="clip9"><rect x="2437" y="635" width="401" height="401"/></clipPath><clipPath id="clip10"><rect x="2437" y="635" width="401" height="401"/></clipPath><clipPath id="clip11"><rect x="2437" y="635" width="401" height="401"/></clipPath><clipPath id="clip12"><rect x="2666" y="863" width="292" height="292"/></clipPath><clipPath id="clip13"><rect x="2666" y="863" width="292" height="292"/></clipPath><clipPath id="clip14"><rect x="2666" y="863" width="292" height="292"/></clipPath></defs><g clip-path="url(#clip0)" transform="translate(-2409 -614)"><rect x="2420" y="614" width="550" height="550" fill="url(#fill1)"/><path d="M2440 789.5C2440 703.067 2500.44 633 2575 633 2649.56 633 2710 703.067 2710 789.5 2710 875.932 2649.56 946 2575 946 2500.44 946 2440 875.932 2440 789.5Z" fill="url(#fill2)" fill-rule="evenodd"/><path d="M2453.73 620 2931.27 620C2947.14 620 2960 639.864 2960 664.368L2960 774C2960 735.824 2939.96 704.876 2915.23 704.876L2469.77 704.876C2445.04 704.876 2425 735.824 2425 774L2425 664.368C2425 639.864 2437.86 620 2453.73 620Z" fill="url(#fill3)" fill-rule="evenodd"/><path d="M2458 779C2458 758.566 2473.45 742 2492.5 742 2511.55 742 2527 758.566 2527 779 2527 799.435 2511.55 816 2492.5 816 2473.45 816 2458 799.435 2458 779Z" fill="url(#fill4)" fill-rule="evenodd"/><path d="M2487 831.5C2487 807.475 2505.13 788 2527.5 788 2549.87 788 2568 807.475 2568 831.5 2568 855.524 2549.87 875 2527.5 875 2505.13 875 2487 855.524 2487 831.5Z" fill="url(#fill5)" fill-rule="evenodd"/><path d="M2709 1019C2709 963.219 2756.23 918 2814.5 918 2872.77 918 2920 963.219 2920 1019 2920 1074.78 2872.77 1120 2814.5 1120 2756.23 1120 2709 1074.78 2709 1019Z" fill="url(#fill6)" fill-rule="evenodd"/><path d="M2854 1075C2854 1059.54 2865.64 1047 2880 1047 2894.36 1047 2906 1059.54 2906 1075 2906 1090.46 2894.36 1103 2880 1103 2865.64 1103 2854 1090.46 2854 1075Z" fill="url(#fill7)" fill-rule="evenodd"/><path d="M2838 994C2838 977.431 2850.54 964 2866 964 2881.46 964 2894 977.431 2894 994 2894 1010.57 2881.46 1024 2866 1024 2850.54 1024 2838 1010.57 2838 994Z" fill="url(#fill8)" fill-rule="evenodd"/><path d="M2422.5 1165.5 2422.5 906.5 2669.5 1165.5Z" stroke="#0F1113" stroke-width="4.58333" stroke-miterlimit="8" fill="#F2F2F2" fill-rule="evenodd"/><text fill="#0F1113" font-family="Aurebesh,Aurebesh_MSFontService,sans-serif" font-weight="700" font-size="83" transform="matrix(1 0 0 1 2459.08 1125)">A</text><g clip-path="url(#clip9)"><g clip-path="url(#clip10)"><g clip-path="url(#clip11)"><path d="M139.035 259.397 65.8151 259.397C69.6076 277.744 77.3448 295.14 88.5511 310.256Z" stroke="#FFFFFF" stroke-width="4.58621" fill="#0F1113" transform="matrix(1.00251 0 0 1 2438 636)"/><path d="M150.327 111.125C114.762 123.355 86.849 150.473 72.8873 184.208L148.012 211.786Z" stroke="#FFFFFF" stroke-width="4.58621" fill="#0F1113" transform="matrix(1.00251 0 0 1 2438 636)"/><path d="M143.906 236.817C143.906 232.312 144.672 227.817 145.956 223.394L63.449 223.394C63.1933 226.681 63.0347 229.987 63.0347 233.321 63.0347 238.856 63.5088 244.348 64.2141 249.803L145.693 249.803C144.528 245.586 143.906 241.244 143.906 236.816Z" stroke="#FFFFFF" stroke-width="4.58621" fill="#0F1113" transform="matrix(1.00251 0 0 1 2438 636)"/><path d="M150.559 100.944 151.426 63.2448C151.488 60.6367 153.618 58.5549 156.222 58.5549L160.688 58.5549 160.688 6.04651 134.132 6.04651 86.7609 143.382C103.317 123.902 125.211 108.939 150.561 100.942Z" stroke="#FFFFFF" stroke-width="4.58621" fill="#0F1113" transform="matrix(1.00251 0 0 1 2438 636)"/><path d="M277.997 136.581C265.25 125.292 250.339 116.558 234.313 111.043L235.77 174.321Z" stroke="#FFFFFF" stroke-width="4.58621" fill="#0F1113" transform="matrix(1.00251 0 0 1 2438 636)"/><path d="M233.209 63.2448 234.076 100.9C252.913 106.843 270.439 116.875 285.192 130.149L291.396 124.604 250.505 6.04784 223.949 6.04784 223.949 58.5563 228.415 58.5563C231.019 58.5549 233.149 60.6384 233.212 63.2452Z" stroke="#FFFFFF" stroke-width="4.58621" fill="#0F1113" transform="matrix(1.00251 0 0 1 2438 636)"/><path d="M153.499 236.817C153.499 258.708 171.312 275.593 192.355 275.596 214.052 275.596 231.137 258.007 231.137 236.817 231.137 215.386 213.618 198.04 192.361 198.04 170.174 198.04 153.502 216.259 153.502 236.817Z" stroke="#FFFFFF" stroke-width="4.58621" fill="#0F1113" transform="matrix(1.00251 0 0 1 2438 636)"/><path d="M192.358 188.448C200.072 188.448 207.466 190.328 214.1 193.685L226.364 182.725 223.724 68.1489 160.914 68.1489 157.808 203.074C166.799 193.833 179.121 188.449 192.358 188.449Z" stroke="#FFFFFF" stroke-width="4.58621" fill="#0F1113" transform="matrix(1.00251 0 0 1 2438 636)"/><path d="M69.5291 193.189C67.3289 199.868 65.6741 206.757 64.5871 213.804L125.667 213.804Z" stroke="#FFFFFF" stroke-width="4.58621" fill="#0F1113" transform="matrix(1.00251 0 0 1 2438 636)"/><path d="M238.695 223.397C239.954 227.784 240.729 232.36 240.729 236.819 240.729 241.24 240.106 245.586 238.939 249.806L320.505 249.806C321.158 244.396 321.601 238.921 321.601 233.324 321.601 229.998 321.466 226.687 321.215 223.397Z" stroke="#FFFFFF" stroke-width="4.58621" fill="#0F1113" transform="matrix(1.00251 0 0 1 2438 636)"/><path d="M255.686 204.797 311.872 184.188C309.206 177.71 305.99 171.452 302.266 165.438Z" stroke="#FFFFFF" stroke-width="4.58621" fill="#0F1113" transform="matrix(1.00251 0 0 1 2438 636)"/><path d="M315.187 193.189 258.994 213.803 320.131 213.803C319.069 206.781 317.38 199.904 315.189 193.189Z" stroke="#FFFFFF" stroke-width="4.58621" fill="#0F1113" transform="matrix(1.00251 0 0 1 2438 636)"/><path d="M322.808 92.6312C316.881 94.2169 312.934 100.888 312.934 106.327 312.699 114.647 313.716 117.383 311.407 119.556 311.377 119.584 311.366 119.623 311.335 119.652 236.898 186.478 243.219 180.529 222.451 199.089 226.49 202.333 230.093 206.184 232.986 210.697 233.089 210.85 233.164 211.027 233.264 211.183L335.968 124.4 335.968 106.305C335.968 98.9367 330.108 92.9102 322.807 92.6322Z" stroke="#FFFFFF" stroke-width="4.58621" fill="#0F1113" transform="matrix(1.00251 0 0 1 2438 636)"/><path d="M192.401 285.189C192.387 285.189 192.373 285.191 192.358 285.191L192.357 285.191 192.352 285.191C175.237 285.191 159.118 275.87 150.557 261.406L73.0975 339.453C103.882 373.926 147.338 392.955 192.285 392.955 235.996 392.955 279.839 374.811 311.154 339.828L233.771 261.875C225.101 276.281 208.799 285.176 192.399 285.193ZM143.095 352.556 142.383 352.556C139.735 352.556 137.586 350.409 137.586 347.759 137.586 345.112 139.734 342.964 142.383 342.964L143.095 342.964C145.743 342.964 147.891 345.112 147.891 347.759 147.891 350.409 145.743 352.556 143.095 352.556ZM157.84 322.925 157.129 322.925C154.481 322.925 152.332 320.777 152.332 318.128 152.332 315.48 154.48 313.332 157.129 313.332L157.84 313.332C160.489 313.332 162.637 315.48 162.637 318.128 162.637 320.777 160.489 322.925 157.84 322.925ZM196.713 313.333 197.418 313.333C200.067 313.333 202.215 315.481 202.215 318.13 202.215 320.778 200.067 322.926 197.418 322.926L196.713 322.926C194.065 322.926 191.916 320.778 191.916 318.13 191.916 315.481 194.065 313.333 196.713 313.333ZM197.774 352.553 197.062 352.553C194.414 352.553 192.266 350.405 192.266 347.759 192.266 345.108 194.414 342.961 197.062 342.961L197.774 342.961C200.422 342.961 202.571 345.108 202.571 347.759 202.571 350.405 200.422 352.553 197.774 352.553ZM251.749 342.964 252.461 342.964C255.109 342.964 257.257 345.112 257.257 347.759 257.257 350.409 255.109 352.556 252.461 352.556L251.749 352.556C249.101 352.556 246.952 350.409 246.952 347.759 246.952 345.112 249.1 342.964 251.749 342.964ZM237.003 313.331C239.651 313.331 241.8 315.48 241.8 318.128 241.8 320.776 239.651 322.925 237.003 322.925L236.292 322.925C233.643 322.925 231.495 320.776 231.495 318.128 231.495 315.48 233.643 313.331 236.292 313.331Z" stroke="#FFFFFF" stroke-width="4.58621" fill="#0F1113" transform="matrix(1.00251 0 0 1 2438 636)"/><path d="M295.895 310.841C307.486 295.693 315.292 278.285 319.003 259.4L244.835 259.4Z" stroke="#FFFFFF" stroke-width="4.58621" fill="#0F1113" transform="matrix(1.00251 0 0 1 2438 636)"/></g></g></g><g clip-path="url(#clip12)"><g clip-path="url(#clip13)"><g clip-path="url(#clip14)"><path d="M2909.7 1027.66C2906.34 958.338 2873.34 921.196 2836.7 911.209 2872.61 927.269 2894.4 979.8 2899.3 1039.54 2894.92 1043.87 2888.47 1047.52 2888.47 1047.52 2886.02 992.503 2867.74 942.512 2838.13 922.656 2825.28 914.043 2812.14 908.261 2795.94 906.013 2790.97 906.363 2781.16 908.67 2776.43 909.575 2780.52 910.568 2784.58 911.882 2788.49 913.488 2835.53 932.964 2844.29 1046.35 2845.63 1070.35 2839.79 1072.13 2832.46 1073.68 2832.46 1073.68 2829.66 1010.9 2813.13 938.103 2783.41 925.781 2771.38 920.788 2758.41 919.532 2746.5 920.613 2717.85 937.286 2697.88 970.779 2694.84 1027.13 2691.22 1029.56 2688.62 1031.4 2687.9 1032.16 2675.95 1044.45 2675.22 1050.2 2712.13 1068.34 2749.04 1086.5 2779.06 1096.48 2797.89 1104.16 2816.7 1111.84 2843.94 1117.86 2903.07 1102.3 2968.95 1089.18 2941.44 1059.75 2909.7 1027.66Z" stroke="#FFFFFF" stroke-width="4.63491" fill="#0F1113"/></g></g></g></g></svg>