<svg width="561" height="579" xmlns="http://www.w3.org/2000/svg" xmlns:xlink="http://www.w3.org/1999/xlink" overflow="hidden"><defs><clipPath id="clip0"><rect x="1198" y="1185" width="561" height="579"/></clipPath><radialGradient cx="762000" cy="762000" r="1.07763e+06" gradientUnits="userSpaceOnUse" spreadMethod="pad" id="fill1" gradientTransform="matrix(0.000360892 0 0 0.000360892 1209 1185)"><stop offset="0" stop-color="#D9D9D9"/><stop offset="0.17" stop-color="#D9D9D9"/><stop offset="0.33" stop-color="#7F7F7F"/><stop offset="1" stop-color="#0F1113"/></radialGradient><radialGradient cx="374073" cy="432261" r="571647" fx="374073" fy="432262" gradientUnits="userSpaceOnUse" spreadMethod="pad" id="fill2" gradientTransform="matrix(0.000360892 0 0 0.000360892 1229 1204)"><stop offset="0" stop-color="#FFFFFF"/><stop offset="0.54" stop-color="#7F7F7F" stop-opacity="0"/><stop offset="1" stop-color="#7F7F7F" stop-opacity="0"/></radialGradient><linearGradient x1="1481.5" y1="1191" x2="1481.5" y2="1345" gradientUnits="userSpaceOnUse" spreadMethod="reflect" id="fill3"><stop offset="0" stop-color="#F5FAFF" stop-opacity="0.231373"/><stop offset="0.32" stop-color="#FFFFFF" stop-opacity="0"/><stop offset="1" stop-color="#FFFFFF" stop-opacity="0"/></linearGradient><radialGradient cx="94210.5" cy="102524" r="139236" gradientUnits="userSpaceOnUse" spreadMethod="pad" id="fill4" gradientTransform="matrix(0.000360892 0 0 0.000360892 1247 1313)"><stop offset="0" stop-color="#FFFFFF"/><stop offset="0.54" stop-color="#7F7F7F" stop-opacity="0"/><stop offset="1" stop-color="#7F7F7F" stop-opacity="0"/></radialGradient><radialGradient cx="112222" cy="121920" r="165705" fx="112222" fy="121920" gradientUnits="userSpaceOnUse" spreadMethod="pad" id="fill5" gradientTransform="matrix(0.000360892 0 0 0.000360892 1276 1358)"><stop offset="0" stop-color="#FFFFFF"/><stop offset="0.54" stop-color="#7F7F7F" stop-opacity="0"/><stop offset="1" stop-color="#7F7F7F" stop-opacity="0"/></radialGradient><radialGradient cx="292331" cy="278476" r="403740" gradientUnits="userSpaceOnUse" spreadMethod="pad" id="fill6" gradientTransform="matrix(0.000360892 0 0 0.000360892 1498 1489)"><stop offset="0" stop-color="#FFFFFF"/><stop offset="0.54" stop-color="#7F7F7F" stop-opacity="0"/><stop offset="1" stop-color="#7F7F7F" stop-opacity="0"/></radialGradient><radialGradient cx="72043.5" cy="77585.5" r="105876" fx="72043.5" fy="77585.5" gradientUnits="userSpaceOnUse" spreadMethod="pad" id="fill7" gradientTransform="matrix(0.000360892 0 0 0.000360892 1643 1617)"><stop offset="0" stop-color="#FFFFFF"/><stop offset="0.54" stop-color="#7F7F7F" stop-opacity="0"/><stop offset="1" stop-color="#7F7F7F" stop-opacity="0"/></radialGradient><radialGradient cx="77585.5" cy="83127.5" r="113709" gradientUnits="userSpaceOnUse" spreadMethod="pad" id="fill8" gradientTransform="matrix(0.000360892 0 0 0.000360892 1627 1535)"><stop offset="0" stop-color="#FFFFFF"/><stop offset="0.54" stop-color="#7F7F7F" stop-opacity="0"/><stop offset="1" stop-color="#7F7F7F" stop-opacity="0"/></radialGradient><clipPath id="clip9"><rect x="1235" y="1202" width="397" height="397"/></clipPath><clipPath id="clip10"><rect x="1235" y="1202" width="397" height="397"/></clipPath><clipPath id="clip11"><rect x="1235" y="1202" width="397" height="397"/></clipPath><clipPath id="clip12"><rect x="1455" y="1434" width="292" height="292"/></clipPath><clipPath id="clip13"><rect x="1455" y="1434" width="292" height="292"/></clipPath><clipPath id="clip14"><rect x="1455" y="1434" width="292" height="292"/></clipPath></defs><g clip-path="url(#clip0)" transform="translate(-1198 -1185)"><rect x="1209" y="1185" width="550" height="550" fill="url(#fill1)"/><path d="M1229 1360C1229 1273.84 1289.44 1204 1364 1204 1438.56 1204 1499 1273.84 1499 1360 1499 1446.16 1438.56 1516 1364 1516 1289.44 1516 1229 1446.16 1229 1360Z" fill="url(#fill2)" fill-rule="evenodd"/><path d="M1242.73 1191 1720.27 1191C1736.14 1191 1749 1210.86 1749 1235.37L1749 1345C1749 1306.82 1728.96 1275.88 1704.23 1275.88L1258.77 1275.88C1234.04 1275.88 1214 1306.82 1214 1345L1214 1235.37C1214 1210.86 1226.86 1191 1242.73 1191Z" fill="url(#fill3)" fill-rule="evenodd"/><path d="M1247 1350C1247 1329.57 1262.22 1313 1281 1313 1299.78 1313 1315 1329.57 1315 1350 1315 1370.43 1299.78 1387 1281 1387 1262.22 1387 1247 1370.43 1247 1350Z" fill="url(#fill4)" fill-rule="evenodd"/><path d="M1276 1402C1276 1377.7 1294.13 1358 1316.5 1358 1338.87 1358 1357 1377.7 1357 1402 1357 1426.3 1338.87 1446 1316.5 1446 1294.13 1446 1276 1426.3 1276 1402Z" fill="url(#fill5)" fill-rule="evenodd"/><path d="M1498 1589.5C1498 1534 1545.23 1489 1603.5 1489 1661.77 1489 1709 1534 1709 1589.5 1709 1645 1661.77 1690 1603.5 1690 1545.23 1690 1498 1645 1498 1589.5Z" fill="url(#fill6)" fill-rule="evenodd"/><path d="M1643 1645C1643 1629.54 1654.64 1617 1669 1617 1683.36 1617 1695 1629.54 1695 1645 1695 1660.46 1683.36 1673 1669 1673 1654.64 1673 1643 1660.46 1643 1645Z" fill="url(#fill7)" fill-rule="evenodd"/><path d="M1627 1565C1627 1548.43 1639.54 1535 1655 1535 1670.46 1535 1683 1548.43 1683 1565 1683 1581.57 1670.46 1595 1655 1595 1639.54 1595 1627 1581.57 1627 1565Z" fill="url(#fill8)" fill-rule="evenodd"/><path d="M1211.5 1736.5 1211.5 1477.5 1458.5 1736.5Z" stroke="#0F1113" stroke-width="4.58333" stroke-miterlimit="8" fill="#F2F2F2" fill-rule="evenodd"/><text fill="#0F1113" font-family="Aurebesh,Aurebesh_MSFontService,sans-serif" font-weight="700" font-size="83" transform="matrix(1 0 0 1 1248.06 1695)">A</text><g clip-path="url(#clip9)"><g clip-path="url(#clip10)"><g clip-path="url(#clip11)"><path d="M1403.53 1335.6 1506.35 1232.79C1517.56 1221.56 1532.77 1215.24 1548.64 1215.2 1564.51 1215.16 1579.75 1221.41 1591.02 1232.57L1553.12 1270.48C1542.63 1261.22 1529.01 1256.32 1515.03 1256.76 1501.05 1257.21 1487.76 1262.97 1477.88 1272.87L1450.19 1300.55 1450.03 1300.71 1417.63 1333.11C1406.11 1344.57 1392.39 1353.59 1377.3 1359.63 1362.21 1365.67 1346.06 1368.61 1329.81 1368.26L1301.54 1367.63 1340 1332.83 1342.79 1335.61 1342.79 1335.61C1350.85 1343.65 1361.77 1348.17 1373.16 1348.17 1384.55 1348.17 1395.47 1343.65 1403.53 1335.61ZM1448.34 1530.83C1443.09 1528.49 1437.56 1526.87 1431.88 1525.98L1388.26 1482.35C1392.66 1477.75 1396.68 1472.79 1400.28 1467.54 1403.15 1463.25 1404.44 1458.09 1403.94 1452.96 1403.43 1447.82 1401.17 1443.01 1397.52 1439.36L1393.54 1435.38C1389.87 1431.75 1385.07 1429.5 1379.94 1429 1374.8 1428.5 1369.65 1429.78 1365.35 1432.62 1361.27 1435.37 1357.37 1438.36 1353.66 1441.59 1353.63 1441.62 1353.59 1441.63 1353.55 1441.66 1353.53 1441.69 1353.52 1441.73 1353.49 1441.75 1352.45 1442.66 1351.55 1443.7 1350.54 1444.64L1306.51 1400.61 1306.51 1400.61C1305.45 1393.7 1303.28 1387.01 1300.08 1380.8L1329.52 1381.45 1329.52 1381.45C1352.91 1381.89 1376.01 1376.23 1396.54 1365.02 1392.91 1378.11 1394 1392.07 1399.62 1404.44 1405.23 1416.81 1415.02 1426.81 1427.26 1432.7 1439.51 1438.58 1453.43 1439.97 1466.6 1436.63 1455.6 1455.87 1449.58 1477.54 1449.07 1499.7ZM1317.76 1529.16C1315.94 1530.8 1314.02 1532.33 1312.15 1533.91L1298.98 1520.75C1300.57 1518.88 1302.09 1516.96 1303.73 1515.14L1353.34 1460.33C1354.85 1458.66 1356.55 1457.18 1358.17 1455.61L1377.29 1474.73C1375.72 1476.35 1374.24 1478.05 1372.56 1479.57ZM1389.32 1460.19C1388.27 1461.75 1387.03 1463.17 1385.9 1464.67L1368.23 1447.01C1369.74 1445.88 1371.15 1444.64 1372.71 1443.59L1372.71 1443.59C1374.47 1442.43 1376.57 1441.91 1378.66 1442.12 1380.75 1442.32 1382.71 1443.24 1384.21 1444.71L1388.19 1448.7 1388.2 1448.7C1389.68 1450.19 1390.61 1452.15 1390.81 1454.25 1391.01 1456.34 1390.49 1458.44 1389.32 1460.19ZM1527.26 1296.34C1515.45 1286.94 1500.44 1282.51 1485.42 1283.99L1487.22 1282.2 1487.22 1282.2C1494.63 1274.78 1504.56 1270.41 1515.04 1269.97 1525.52 1269.53 1535.78 1273.04 1543.79 1279.81ZM1427.13 1342.29 1459.53 1309.88C1467.95 1301.56 1479.31 1296.9 1491.15 1296.91 1502.98 1296.92 1514.34 1301.6 1522.74 1309.93 1522.79 1309.97 1522.8 1310.04 1522.85 1310.09 1522.89 1310.13 1522.96 1310.14 1523 1310.19L1523 1310.19C1531.36 1318.62 1536.04 1330.02 1536.01 1341.89 1535.99 1353.76 1531.26 1365.14 1522.86 1373.53L1484.31 1412.09C1475.89 1420.55 1464.46 1425.32 1452.53 1425.34 1440.6 1425.36 1429.15 1420.62 1420.71 1412.19 1412.27 1403.75 1407.54 1392.3 1407.56 1380.37 1407.58 1368.44 1412.35 1357 1420.81 1348.59L1426.96 1342.44C1427.02 1342.39 1427.08 1342.34 1427.13 1342.29ZM1536.59 1305.67 1553.13 1289.14 1553.13 1289.14C1559.89 1297.15 1563.39 1307.41 1562.94 1317.89 1562.49 1328.36 1558.13 1338.28 1550.72 1345.69L1548.94 1347.47C1549.12 1345.59 1549.21 1343.7 1549.21 1341.78 1549.24 1328.66 1544.79 1315.92 1536.59 1305.67ZM1349.39 1282.21 1353.37 1286.2C1354.85 1287.69 1355.78 1289.65 1355.98 1291.75 1356.19 1293.84 1355.66 1295.94 1354.5 1297.7 1353.44 1299.26 1352.2 1300.68 1351.07 1302.19L1333.39 1284.52C1334.9 1283.39 1336.32 1282.14 1337.89 1281.09 1339.64 1279.94 1341.74 1279.42 1343.83 1279.62 1345.93 1279.83 1347.89 1280.74 1349.39 1282.21ZM1318.52 1297.84C1320.03 1296.18 1321.72 1294.7 1323.34 1293.13L1342.46 1312.25C1340.89 1313.86 1339.41 1315.56 1337.74 1317.07L1282.93 1366.67C1281.12 1368.31 1279.2 1369.83 1277.33 1371.42L1264.16 1358.25C1265.75 1356.39 1267.27 1354.46 1268.91 1352.65ZM1258.06 1386.42 1249.16 1377.53C1251.27 1374.48 1253.55 1371.53 1255.81 1368.57L1267.01 1379.77C1264.05 1382.04 1261.1 1384.32 1258.06 1386.42ZM1291.46 1453.55C1299.72 1443.89 1305.01 1432.04 1306.67 1419.43L1325.44 1438.2 1287.65 1475.99 1279.36 1467.7ZM1296.98 1485.33 1334.77 1447.54 1341.25 1454.02 1305.35 1493.69ZM1292.88 1548.92 1283.98 1540.02C1286.1 1536.97 1288.38 1534.02 1290.64 1531.06L1301.83 1542.27C1298.87 1544.53 1295.91 1546.81 1292.88 1548.92ZM1378.88 1491.65 1385.42 1498.18 1347.63 1535.97 1339.21 1527.55ZM1378.79 1541.07 1364.79 1553.14 1356.96 1545.3 1394.75 1507.51 1413.04 1525.81 1413.04 1525.81C1400.38 1527.47 1388.48 1532.77 1378.78 1541.07ZM1456.03 1584.4 1447.13 1575.5C1449.24 1572.46 1451.52 1569.51 1453.78 1566.55L1464.98 1577.75C1462.02 1580.01 1459.07 1582.3 1456.03 1584.4ZM1480.9 1564.65C1479.09 1566.29 1477.17 1567.81 1475.3 1569.4L1462.13 1556.23C1463.72 1554.37 1465.24 1552.44 1466.88 1550.63L1516.49 1495.82C1518 1494.15 1519.7 1492.67 1521.31 1491.1L1540.45 1510.2C1538.88 1511.82 1537.39 1513.53 1535.71 1515.05ZM1547.36 1480.19 1551.34 1484.17 1551.34 1484.17C1552.82 1485.66 1553.75 1487.62 1553.96 1489.72 1554.16 1491.82 1553.63 1493.92 1552.47 1495.67 1551.42 1497.23 1550.18 1498.64 1549.06 1500.14L1531.37 1482.49C1532.88 1481.36 1534.29 1480.12 1535.86 1479.07 1537.61 1477.91 1539.71 1477.39 1541.81 1477.6 1543.9 1477.8 1545.86 1478.71 1547.36 1480.19ZM1496.82 1489.63 1500.74 1493.55 1461.4 1537.01 1462.26 1500.01C1462.93 1468.98 1475.58 1439.42 1497.55 1417.52L1560.04 1355.03C1569.94 1345.15 1575.7 1331.87 1576.14 1317.89 1576.59 1303.92 1571.7 1290.3 1562.46 1279.8L1600.33 1241.92C1611.26 1253.25 1617.31 1268.41 1617.18 1284.14 1617.04 1299.88 1610.75 1314.93 1599.64 1326.07L1496.82 1428.89C1488.77 1436.94 1484.24 1447.87 1484.24 1459.26 1484.24 1470.65 1488.77 1481.57 1496.82 1489.63Z" stroke="#FFFFFF" stroke-width="4.5913" fill="#0F1113"/></g></g></g><g clip-path="url(#clip12)"><g clip-path="url(#clip13)"><g clip-path="url(#clip14)"><path d="M1698.7 1598.66C1695.34 1529.34 1662.34 1492.2 1625.7 1482.21 1661.61 1498.27 1683.4 1550.8 1688.3 1610.54 1683.92 1614.87 1677.47 1618.52 1677.47 1618.52 1675.02 1563.5 1656.74 1513.51 1627.13 1493.66 1614.28 1485.04 1601.14 1479.26 1584.94 1477.01 1579.97 1477.36 1570.16 1479.67 1565.43 1480.58 1569.52 1481.57 1573.58 1482.88 1577.49 1484.49 1624.53 1503.96 1633.29 1617.35 1634.63 1641.35 1628.79 1643.13 1621.46 1644.68 1621.46 1644.68 1618.66 1581.9 1602.13 1509.1 1572.41 1496.78 1560.38 1491.79 1547.41 1490.53 1535.5 1491.61 1506.85 1508.29 1486.88 1541.78 1483.84 1598.13 1480.22 1600.56 1477.62 1602.4 1476.9 1603.16 1464.95 1615.45 1464.22 1621.2 1501.13 1639.34 1538.04 1657.5 1568.06 1667.48 1586.89 1675.16 1605.7 1682.84 1632.94 1688.86 1692.07 1673.3 1757.95 1660.18 1730.44 1630.75 1698.7 1598.66Z" stroke="#FFFFFF" stroke-width="4.63491" fill="#0F1113"/></g></g></g></g></svg>