<svg width="560" height="579" xmlns="http://www.w3.org/2000/svg" xmlns:xlink="http://www.w3.org/1999/xlink" overflow="hidden"><defs><clipPath id="clip0"><rect x="654" y="46" width="560" height="579"/></clipPath><radialGradient cx="762000" cy="762000" r="1.07763e+06" gradientUnits="userSpaceOnUse" spreadMethod="pad" id="fill1" gradientTransform="matrix(0.000360892 0 0 0.000360892 664 46.0001)"><stop offset="0" stop-color="#D9D9D9"/><stop offset="0.17" stop-color="#D9D9D9"/><stop offset="0.33" stop-color="#7F7F7F"/><stop offset="1" stop-color="#0F1113"/></radialGradient><radialGradient cx="374072" cy="432262" r="571647" fx="374072" fy="432262" gradientUnits="userSpaceOnUse" spreadMethod="pad" id="fill2" gradientTransform="matrix(0.000360892 0 0 0.000360892 684 65)"><stop offset="0" stop-color="#FFFFFF"/><stop offset="0.54" stop-color="#7F7F7F" stop-opacity="0"/><stop offset="1" stop-color="#7F7F7F" stop-opacity="0"/></radialGradient><linearGradient x1="937.5" y1="50.9999" x2="937.5" y2="206" gradientUnits="userSpaceOnUse" spreadMethod="reflect" id="fill3"><stop offset="0" stop-color="#F5FAFF" stop-opacity="0.231373"/><stop offset="0.32" stop-color="#FFFFFF" stop-opacity="0"/><stop offset="1" stop-color="#FFFFFF" stop-opacity="0"/></linearGradient><radialGradient cx="94211" cy="102524" r="139236" gradientUnits="userSpaceOnUse" spreadMethod="pad" id="fill4" gradientTransform="matrix(0.000360892 0 0 0.000360892 703 174)"><stop offset="0" stop-color="#FFFFFF"/><stop offset="0.54" stop-color="#7F7F7F" stop-opacity="0"/><stop offset="1" stop-color="#7F7F7F" stop-opacity="0"/></radialGradient><radialGradient cx="110836" cy="120534" r="163748" gradientUnits="userSpaceOnUse" spreadMethod="pad" id="fill5" gradientTransform="matrix(0.000360892 0 0 0.000360892 732 219)"><stop offset="0" stop-color="#FFFFFF"/><stop offset="0.54" stop-color="#7F7F7F" stop-opacity="0"/><stop offset="1" stop-color="#7F7F7F" stop-opacity="0"/></radialGradient><radialGradient cx="292331" cy="278477" r="403741" fx="292331" fy="278476" gradientUnits="userSpaceOnUse" spreadMethod="pad" id="fill6" gradientTransform="matrix(0.000360892 0 0 0.000360892 953 350)"><stop offset="0" stop-color="#FFFFFF"/><stop offset="0.54" stop-color="#7F7F7F" stop-opacity="0"/><stop offset="1" stop-color="#7F7F7F" stop-opacity="0"/></radialGradient><radialGradient cx="72043.5" cy="77585" r="105876" gradientUnits="userSpaceOnUse" spreadMethod="pad" id="fill7" gradientTransform="matrix(0.000360892 0 0 0.000360892 1098 478)"><stop offset="0" stop-color="#FFFFFF"/><stop offset="0.54" stop-color="#7F7F7F" stop-opacity="0"/><stop offset="1" stop-color="#7F7F7F" stop-opacity="0"/></radialGradient><radialGradient cx="77585.5" cy="84513" r="114726" fx="77585.5" fy="84513" gradientUnits="userSpaceOnUse" spreadMethod="pad" id="fill8" gradientTransform="matrix(0.000360892 0 0 0.000360892 1082 395)"><stop offset="0" stop-color="#FFFFFF"/><stop offset="0.54" stop-color="#7F7F7F" stop-opacity="0"/><stop offset="1" stop-color="#7F7F7F" stop-opacity="0"/></radialGradient><clipPath id="clip9"><rect x="689" y="66" width="386" height="385"/></clipPath><clipPath id="clip10"><rect x="689" y="66" width="386" height="385"/></clipPath><clipPath id="clip11"><rect x="689" y="66" width="386" height="385"/></clipPath><clipPath id="clip12"><rect x="910" y="294" width="294" height="294"/></clipPath><clipPath id="clip13"><rect x="910" y="294" width="294" height="294"/></clipPath><clipPath id="clip14"><rect x="910" y="294" width="294" height="294"/></clipPath></defs><g clip-path="url(#clip0)" transform="translate(-654 -46)"><rect x="664" y="46.0001" width="550" height="550" fill="url(#fill1)"/><path d="M684 221C684 134.844 744.442 65 819 65 893.558 65 954 134.844 954 221 954 307.156 893.558 377 819 377 744.442 377 684 307.156 684 221Z" fill="url(#fill2)" fill-rule="evenodd"/><path d="M698.734 50.9999 1176.27 50.9999C1192.14 50.9999 1205 70.9928 1205 95.6556L1205 206C1205 167.576 1184.96 136.427 1160.23 136.427L714.767 136.427C690.043 136.427 670 167.576 670 206L670 95.6556C670 70.9928 682.864 50.9999 698.734 50.9999Z" fill="url(#fill3)" fill-rule="evenodd"/><path d="M703 211C703 190.565 718.222 174 737 174 755.778 174 771 190.565 771 211 771 231.434 755.778 248 737 248 718.222 248 703 231.434 703 211Z" fill="url(#fill4)" fill-rule="evenodd"/><path d="M732 262.5C732 238.476 749.908 219 772 219 794.091 219 812 238.476 812 262.5 812 286.524 794.091 306 772 306 749.908 306 732 286.524 732 262.5Z" fill="url(#fill5)" fill-rule="evenodd"/><path d="M953 450.5C953 394.995 1000.23 350 1058.5 350 1116.77 350 1164 394.995 1164 450.5 1164 506.005 1116.77 551 1058.5 551 1000.23 551 953 506.005 953 450.5Z" fill="url(#fill6)" fill-rule="evenodd"/><path d="M1098 506C1098 490.536 1109.64 478 1124 478 1138.36 478 1150 490.536 1150 506 1150 521.464 1138.36 534 1124 534 1109.64 534 1098 521.464 1098 506Z" fill="url(#fill7)" fill-rule="evenodd"/><path d="M1082 425.5C1082 408.655 1094.54 395 1110 395 1125.46 395 1138 408.655 1138 425.5 1138 442.345 1125.46 456 1110 456 1094.54 456 1082 442.345 1082 425.5Z" fill="url(#fill8)" fill-rule="evenodd"/><g clip-path="url(#clip9)"><g clip-path="url(#clip10)"><g clip-path="url(#clip11)"><path d="M691.268 306.151 718.119 306.151 718.119 333.025 691.268 333.025Z" stroke="#FFFFFF" stroke-width="5.6837" fill="#0F1113"/><path d="M735.298 306.151 762.149 306.151 762.149 333.025 735.298 333.025Z" stroke="#FFFFFF" stroke-width="5.6837" fill="#0F1113"/><path d="M780.398 306.151 807.257 306.151 807.257 333.025 780.398 333.025Z" stroke="#FFFFFF" stroke-width="5.6837" fill="#0F1113"/><path d="M824.437 306.151 851.28 306.151 851.28 333.025 824.437 333.025Z" stroke="#FFFFFF" stroke-width="5.6837" fill="#0F1113"/><path d="M869.529 306.151 896.38 306.151 896.38 333.025 869.529 333.025Z" stroke="#FFFFFF" stroke-width="5.6837" fill="#0F1113"/><path d="M913.567 306.151 940.418 306.151 940.418 333.025 913.567 333.025Z" stroke="#FFFFFF" stroke-width="5.6837" fill="#0F1113"/><path d="M958.66 306.151 985.526 306.151 985.526 333.025 958.66 333.025Z" stroke="#FFFFFF" stroke-width="5.6837" fill="#0F1113"/><path d="M1002.71 306.151 1029.56 306.151 1029.56 333.025 1002.71 333.025Z" stroke="#FFFFFF" stroke-width="5.6837" fill="#0F1113"/><path d="M691.268 350.694 718.119 350.694 718.119 377.537 691.268 377.537Z" stroke="#FFFFFF" stroke-width="5.6837" fill="#0F1113"/><path d="M735.298 350.694 762.149 350.694 762.149 377.537 735.298 377.537Z" stroke="#FFFFFF" stroke-width="5.6837" fill="#0F1113"/><path d="M780.398 350.694 807.257 350.694 807.257 377.537 780.398 377.537Z" stroke="#FFFFFF" stroke-width="5.6837" fill="#0F1113"/><path d="M824.437 350.694 851.28 350.694 851.28 377.537 824.437 377.537Z" stroke="#FFFFFF" stroke-width="5.6837" fill="#0F1113"/><path d="M869.529 350.694 896.38 350.694 896.38 377.537 869.529 377.537Z" stroke="#FFFFFF" stroke-width="5.6837" fill="#0F1113"/><path d="M913.567 350.694 940.418 350.694 940.418 377.537 913.567 377.537Z" stroke="#FFFFFF" stroke-width="5.6837" fill="#0F1113"/><path d="M958.66 350.694 985.526 350.694 985.526 377.537 958.66 377.537Z" stroke="#FFFFFF" stroke-width="5.6837" fill="#0F1113"/><path d="M1002.71 350.694 1029.56 350.694 1029.56 377.537 1002.71 377.537Z" stroke="#FFFFFF" stroke-width="5.6837" fill="#0F1113"/><path d="M691.268 395.649 718.119 395.649 718.119 422.492 691.268 422.492Z" stroke="#FFFFFF" stroke-width="5.6837" fill="#0F1113"/><path d="M735.298 395.649 762.149 395.649 762.149 422.492 735.298 422.492Z" stroke="#FFFFFF" stroke-width="5.6837" fill="#0F1113"/><path d="M780.398 395.649 985.526 395.649 985.526 422.492 780.398 422.492Z" stroke="#FFFFFF" stroke-width="5.6837" fill="#0F1113"/><path d="M1002.71 395.649 1029.56 395.649 1029.56 422.492 1002.71 422.492Z" stroke="#FFFFFF" stroke-width="5.6837" fill="#0F1113"/><path d="M1048.16 306.151 1075.01 306.151 1075.01 333.025 1048.16 333.025Z" stroke="#FFFFFF" stroke-width="5.6837" fill="#0F1113"/><path d="M1048.16 350.694 1075.01 350.694 1075.01 377.537 1048.16 377.537Z" stroke="#FFFFFF" stroke-width="5.6837" fill="#0F1113"/><path d="M1048.16 395.649 1075.01 395.649 1075.01 422.492 1048.16 422.492Z" stroke="#FFFFFF" stroke-width="5.6837" fill="#0F1113"/><path d="M735.833 96.8 1030.09 96.8 1030.09 280.592 735.833 280.592Z" stroke="#FFFFFF" stroke-width="5.6837" fill="#0F1113"/></g></g></g><path d="M666.5 597.5 666.5 337.5 914.5 597.5Z" stroke="#0F1113" stroke-width="4.58333" stroke-miterlimit="8" fill="#F2F2F2" fill-rule="evenodd"/><text fill="#0F1113" font-family="Aurebesh,Aurebesh_MSFontService,sans-serif" font-weight="700" font-size="83" transform="matrix(1 0 0 1 703.547 556)">A</text><g clip-path="url(#clip12)"><g clip-path="url(#clip13)"><g clip-path="url(#clip14)"><path d="M1154.7 459.659C1151.34 390.338 1118.34 353.196 1081.7 343.209 1117.61 359.269 1139.4 411.8 1144.3 471.543 1139.92 475.865 1133.47 479.515 1133.47 479.515 1131.02 424.503 1112.74 374.512 1083.13 354.656 1070.28 346.043 1057.14 340.26 1040.94 338.013 1035.97 338.363 1026.16 340.67 1021.43 341.575 1025.52 342.568 1029.58 343.882 1033.49 345.487 1080.53 364.964 1089.29 478.348 1090.63 502.35 1084.79 504.131 1077.46 505.679 1077.46 505.679 1074.66 442.899 1058.13 370.103 1028.41 357.781 1016.38 352.788 1003.41 351.532 991.499 352.613 962.854 369.286 942.881 402.778 939.844 459.134 936.224 461.558 933.625 463.398 932.895 464.157 920.953 476.45 920.223 482.203 957.131 500.336 994.04 518.499 1024.06 528.485 1042.89 536.164 1061.7 543.845 1088.94 549.86 1148.07 534.296 1213.95 521.184 1186.44 491.751 1154.7 459.66Z" stroke="#FFFFFF" stroke-width="4.63492" fill="#0F1113"/></g></g></g></g></svg>