<svg width="560" height="580" xmlns="http://www.w3.org/2000/svg" xmlns:xlink="http://www.w3.org/1999/xlink" overflow="hidden"><defs><clipPath id="clip0"><rect x="626" y="34" width="560" height="580"/></clipPath><radialGradient cx="762000" cy="762000" r="1.07763e+06" gradientUnits="userSpaceOnUse" spreadMethod="pad" id="fill1" gradientTransform="matrix(0.000360892 0 0 0.000360892 636 34)"><stop offset="0" stop-color="#D9D9D9"/><stop offset="0.17" stop-color="#D9D9D9"/><stop offset="0.33" stop-color="#7F7F7F"/><stop offset="1" stop-color="#0F1113"/></radialGradient><radialGradient cx="374073" cy="432262" r="571648" fx="374073" fy="432262" gradientUnits="userSpaceOnUse" spreadMethod="pad" id="fill2" gradientTransform="matrix(0.000360892 0 0 0.000360892 657 54)"><stop offset="0" stop-color="#FFFFFF"/><stop offset="0.54" stop-color="#7F7F7F" stop-opacity="0"/><stop offset="1" stop-color="#7F7F7F" stop-opacity="0"/></radialGradient><linearGradient x1="909.5" y1="39.9999" x2="909.5" y2="194" gradientUnits="userSpaceOnUse" spreadMethod="reflect" id="fill3"><stop offset="0" stop-color="#F5FAFF" stop-opacity="0.231373"/><stop offset="0.32" stop-color="#FFFFFF" stop-opacity="0"/><stop offset="1" stop-color="#FFFFFF" stop-opacity="0"/></linearGradient><radialGradient cx="94210.5" cy="101138" r="138219" fx="94210.5" fy="101138" gradientUnits="userSpaceOnUse" spreadMethod="pad" id="fill4" gradientTransform="matrix(0.000360892 0 0 0.000360892 675 163)"><stop offset="0" stop-color="#FFFFFF"/><stop offset="0.54" stop-color="#7F7F7F" stop-opacity="0"/><stop offset="1" stop-color="#7F7F7F" stop-opacity="0"/></radialGradient><radialGradient cx="110836" cy="120534" r="163748" gradientUnits="userSpaceOnUse" spreadMethod="pad" id="fill5" gradientTransform="matrix(0.000360892 0 0 0.000360892 704 208)"><stop offset="0" stop-color="#FFFFFF"/><stop offset="0.54" stop-color="#7F7F7F" stop-opacity="0"/><stop offset="1" stop-color="#7F7F7F" stop-opacity="0"/></radialGradient><radialGradient cx="292331" cy="278477" r="403741" fx="292331" fy="278476" gradientUnits="userSpaceOnUse" spreadMethod="pad" id="fill6" gradientTransform="matrix(0.000360892 0 0 0.000360892 925 339)"><stop offset="0" stop-color="#FFFFFF"/><stop offset="0.54" stop-color="#7F7F7F" stop-opacity="0"/><stop offset="1" stop-color="#7F7F7F" stop-opacity="0"/></radialGradient><radialGradient cx="70658" cy="77585" r="104938" fx="70658" fy="77585" gradientUnits="userSpaceOnUse" spreadMethod="pad" id="fill7" gradientTransform="matrix(0.000360892 0 0 0.000360892 1071 467)"><stop offset="0" stop-color="#FFFFFF"/><stop offset="0.54" stop-color="#7F7F7F" stop-opacity="0"/><stop offset="1" stop-color="#7F7F7F" stop-opacity="0"/></radialGradient><radialGradient cx="77585.5" cy="84513" r="114726" fx="77585.5" fy="84513" gradientUnits="userSpaceOnUse" spreadMethod="pad" id="fill8" gradientTransform="matrix(0.000360892 0 0 0.000360892 1054 384)"><stop offset="0" stop-color="#FFFFFF"/><stop offset="0.54" stop-color="#7F7F7F" stop-opacity="0"/><stop offset="1" stop-color="#7F7F7F" stop-opacity="0"/></radialGradient><clipPath id="clip9"><rect x="644" y="49" width="530" height="530"/></clipPath><clipPath id="clip10"><rect x="644" y="49" width="530" height="530"/></clipPath><clipPath id="clip11"><rect x="644" y="49" width="530" height="530"/></clipPath></defs><g clip-path="url(#clip0)" transform="translate(-626 -34)"><rect x="636" y="34" width="550" height="550" fill="url(#fill1)"/><path d="M657 210C657 123.844 717.441 54 792 54 866.558 54 927 123.844 927 210 927 296.156 866.558 366 792 366 717.441 366 657 296.156 657 210Z" fill="url(#fill2)" fill-rule="evenodd"/><path d="M670.734 39.9999 1148.27 39.9999C1164.14 39.9999 1177 59.8638 1177 84.3675L1177 194C1177 155.824 1156.96 124.876 1132.23 124.876L686.767 124.876C662.043 124.876 642 155.824 642 194L642 84.3675C642 59.8638 654.865 39.9999 670.734 39.9999Z" fill="url(#fill3)" fill-rule="evenodd"/><path d="M675 199.5C675 179.342 690.222 163 709 163 727.778 163 743 179.342 743 199.5 743 219.659 727.778 236 709 236 690.222 236 675 219.659 675 199.5Z" fill="url(#fill4)" fill-rule="evenodd"/><path d="M704 251.5C704 227.476 721.909 208 744 208 766.091 208 784 227.476 784 251.5 784 275.524 766.091 295 744 295 721.909 295 704 275.524 704 251.5Z" fill="url(#fill5)" fill-rule="evenodd"/><path d="M925 439.5C925 383.995 972.234 339 1030.5 339 1088.77 339 1136 383.995 1136 439.5 1136 495.005 1088.77 540 1030.5 540 972.234 540 925 495.005 925 439.5Z" fill="url(#fill6)" fill-rule="evenodd"/><path d="M1071 495C1071 479.536 1082.42 467 1096.5 467 1110.58 467 1122 479.536 1122 495 1122 510.464 1110.58 523 1096.5 523 1082.42 523 1071 510.464 1071 495Z" fill="url(#fill7)" fill-rule="evenodd"/><path d="M1054 414.5C1054 397.655 1066.54 384 1082 384 1097.46 384 1110 397.655 1110 414.5 1110 431.345 1097.46 445 1082 445 1066.54 445 1054 431.345 1054 414.5Z" fill="url(#fill8)" fill-rule="evenodd"/><path d="M638.5 585.5 638.5 326.5 886.5 585.5Z" stroke="#0F1113" stroke-width="4.58333" stroke-miterlimit="8" fill="#F2F2F2" fill-rule="evenodd"/><text fill="#0F1113" font-family="Aurebesh,Aurebesh_MSFontService,sans-serif" font-weight="700" font-size="83" transform="matrix(1 0 0 1 675.79 545)">A</text><g clip-path="url(#clip9)"><g clip-path="url(#clip10)"><g clip-path="url(#clip11)"><path d="M898.409 138.078 901.419 300.543C906.597 298.935 912.062 297.638 917.659 296.528L920.595 138.074C927.429 134.191 932.089 126.933 932.089 118.512 932.089 106.038 921.979 95.925 909.502 95.925 897.022 95.925 886.914 106.04 886.914 118.512 886.914 126.935 891.574 134.193 898.409 138.076Z" stroke="#FFFFFF" stroke-width="4.61002" fill="#0F1113"/><path d="M833.853 232.289C878.968 232.289 865.969 251.756 894.273 253.857L892.307 147.722C881.262 139.856 857.795 124.79 840.02 124.79 813.458 124.79 792.339 149.034 756.059 159.338 713.534 171.41 671.449 170.411 671.449 180.006 671.449 191.507 700.21 194.648 700.21 194.648 700.21 194.648 698.327 209.862 728.131 210.646 728.131 210.646 727.661 222.882 752.286 220.998 752.286 220.998 756.523 232.451 778.322 229.467 778.322 229.467 779.422 242.332 807.501 232.916 807.503 232.918 816.13 241.392 833.851 232.288Z" stroke="#FFFFFF" stroke-width="4.61002" fill="#0F1113"/><path d="M1147.55 180.006C1147.55 170.414 1105.47 171.41 1062.94 159.338 1026.66 149.039 1005.54 124.79 978.98 124.79 961.205 124.79 937.739 139.856 926.692 147.722L924.724 253.857C953.03 251.756 940.033 232.289 985.145 232.289 1002.87 241.388 1011.49 232.919 1011.49 232.919 1039.57 242.33 1040.67 229.47 1040.67 229.47 1062.48 232.449 1066.71 221.001 1066.71 221.001 1091.33 222.885 1090.86 210.649 1090.86 210.649 1120.68 209.865 1118.79 194.651 1118.79 194.651 1118.79 194.651 1147.55 191.509 1147.55 180.007Z" stroke="#FFFFFF" stroke-width="4.61002" fill="#0F1113"/><path d="M976.811 254.547C976.208 254.462 975.578 254.424 974.954 254.36 964.385 249.642 932.127 259.027 932.127 268.517 932.127 278.06 966.739 283.79 976.717 277.468 983.61 279.113 985.936 282.699 985.936 284.387 985.936 292.296 959.422 296.252 941.886 298.866 925.794 301.268 909.157 303.747 895.845 309.165 873.283 318.338 868.542 333.383 868.542 344.385 868.542 358.044 874.874 367.646 883.264 375.084 888.835 370.825 894.845 367.36 900.171 364.287 901.011 363.8 901.79 363.345 902.573 362.885 902.616 362.859 902.652 362.837 902.696 362.811 902.992 362.642 903.308 362.456 903.594 362.282 903.594 362.282 903.589 362.277 903.584 362.277 909.372 358.859 913.694 356.04 916.602 353.444L916.983 332.679C910.725 334.208 905.563 335.954 902.108 338.054L902.542 361.524C895.289 356.339 891.132 351.309 891.132 344.385 891.132 330.362 913.546 325.934 945.218 321.204 959.809 319.023 973.588 316.971 984.655 312.873 1004.38 305.568 1008.53 293.347 1008.53 284.386 1008.53 272.051 998.602 257.445 976.812 254.547Z" stroke="#FFFFFF" stroke-width="4.61002" fill="#0F1113"/><path d="M893.48 303.36C894.591 302.911 895.734 302.482 896.886 302.064 890.379 300.858 883.705 299.858 877.113 298.874 859.571 296.255 833.057 292.299 833.057 284.395 833.057 282.708 835.39 279.121 842.283 277.476 852.261 283.798 886.869 278.069 886.869 268.525 886.869 259.036 854.611 249.651 844.041 254.369 843.423 254.433 842.793 254.469 842.19 254.555 820.395 257.453 810.471 272.059 810.471 284.401 810.471 293.362 814.612 305.581 834.34 312.888 844.427 316.628 856.779 318.665 869.935 320.644 874.596 314.253 881.95 308.053 893.482 303.36Z" stroke="#FFFFFF" stroke-width="4.61002" fill="#0F1113"/><path d="M914.592 389.296C930.566 380.082 950.447 368.606 950.447 344.402 950.447 339.286 949.426 333.298 946.061 327.437 936.344 328.886 927.007 330.393 919.157 332.183 924.732 335.261 927.865 339.16 927.865 344.402 927.865 354.818 918.587 360.918 903.309 369.736 888.534 378.258 870.142 388.869 870.142 410.073 870.142 424.043 878.871 434.263 886.933 441.468 889.78 438.548 892.435 436.454 894.583 434.761 896.101 433.597 897.424 432.603 898.619 431.698 900.169 430.529 902.433 428.465 902.433 428.465L903.771 427.386 907.177 424.651C909.187 423.037 912.615 420.298 915.419 417.425L915.81 396.286C922.475 400.831 926.278 404.936 926.278 410.072 926.278 415.997 920.802 421.705 911.909 428.894 911.639 429.111 908.523 431.904 908.217 432.174 906.213 433.893 902.932 436.264 898.462 439.691 896.235 441.447 893.706 443.446 891.045 446.229 889.723 447.621 888.38 449.219 887.141 451.139 885.914 453.049 884.803 455.302 884.111 457.795 883.424 460.291 883.202 462.931 883.418 465.433L883.651 467.195C883.763 467.825 883.873 468.405 884.032 469.005 884.327 470.189 884.708 471.348 885.18 472.449 887.052 476.924 890.031 480.284 892.941 482.917 895.481 485.202 898.057 487.042 900.536 488.756 900.833 488.386 901.129 488.005 901.446 487.625 903.335 485.345 905.349 483.228 907.297 481.181 907.328 481.143 907.366 481.107 907.397 481.069L908.55 479.859C910.513 477.785 912.725 475.399 914.374 473.109L914.612 460.269C913.739 460.708 912.871 461.147 911.983 461.602 910.412 462.421 908.365 463.532 906.862 464.602 905.777 465.375 904.497 466.527 904.497 466.527L904.709 478.228C903.688 477.054 902.725 475.884 901.895 474.71 900.164 472.297 899.064 469.912 898.811 467.911 898.737 467.409 898.711 466.928 898.727 466.461 898.721 466.234 898.747 465.974 898.77 465.779 898.785 465.705 898.807 465.642 898.818 465.578 898.823 465.568 898.828 465.473 898.838 465.361L898.864 465.044C899.018 464.235 899.255 463.579 899.6 463.007 900.276 461.902 901.489 460.722 903.228 459.489 904.936 458.271 907.052 457.104 909.126 456.019 913.336 453.857 917.485 451.855 920.431 450.152 921.171 449.733 924.442 447.798 925.974 446.565 934.888 439.419 948.858 427.733 948.858 410.069 948.858 398.363 943.241 389.887 935.733 383.206 929.792 387.77 923.402 391.462 917.736 394.732 917.085 395.108 916.451 395.478 915.821 395.843 915.801 395.859 915.778 395.869 915.752 395.886 915.658 395.939 915.567 395.998 915.472 396.045 910.542 398.927 906.283 401.552 903.337 403.954L903.75 426.092C896.867 420.184 892.731 415.206 892.731 410.074 892.729 402.464 900.991 397.149 914.592 389.298Z" stroke="#FFFFFF" stroke-width="4.61002" fill="#0F1113"/><path d="M931.859 451.132C931.68 450.851 931.494 450.593 931.31 450.328 930.544 450.946 929.813 451.538 929.125 452.084L928.484 452.554 925.453 454.484C924.876 454.829 924.22 455.225 923.512 455.616 921.417 456.826 918.756 458.176 915.927 459.604 917.583 460.799 918.741 461.932 919.402 463.01 919.741 463.577 919.979 464.233 920.137 465.047L920.163 465.364C920.173 465.476 920.179 465.571 920.184 465.581 920.194 465.645 920.215 465.708 920.237 465.782 920.253 465.979 920.281 466.237 920.281 466.464 920.296 466.935 920.27 467.417 920.191 467.914 919.938 469.914 918.837 472.301 917.106 474.713 915.393 477.136 913.16 479.569 910.844 482.013 908.526 484.467 906.098 486.953 903.876 489.62 901.665 492.292 899.638 495.197 898.349 498.367 897.042 501.528 896.63 504.9 897.052 507.792 897.491 510.904 899.026 513.254 900.56 514.907 902.125 516.565 903.728 517.627 905.066 518.398 905.209 518.482 905.319 518.526 905.462 518.606L905.659 529.234C905.659 531.355 907.377 533.078 909.504 533.078 911.631 533.078 913.344 531.359 913.349 529.234L913.545 518.601C913.683 518.526 913.794 518.482 913.942 518.398 915.28 517.627 916.883 516.56 918.448 514.907 919.982 513.258 921.517 510.909 921.956 507.792 922.385 504.9 921.966 501.523 920.659 498.367 919.904 496.498 918.872 494.735 917.718 493.059 916.38 493.963 915.19 494.823 913.973 495.691L913.974 495.629C913.408 496.031 912.879 496.427 912.345 496.829 912.234 496.921 912.092 497.005 911.98 497.089L911.986 497.097C911.753 497.274 911.493 497.45 911.266 497.631 908.874 499.496 907.166 501.188 906.04 502.815 905.718 503.273 905.447 503.75 905.204 504.239L905.442 517.244C904.431 516.269 903.331 515.057 902.427 513.505 901.454 511.839 900.788 509.727 900.999 507.647 901.191 505.381 902.005 503.11 903.453 501.03 904.903 498.936 906.951 497.009 909.331 495.162 911.71 493.302 914.414 491.516 917.266 489.583 920.107 487.642 923.112 485.572 926.058 482.917 928.973 480.282 931.945 476.918 933.824 472.449 934.294 471.348 934.682 470.185 934.973 469.005 935.131 468.408 935.243 467.825 935.353 467.195L935.586 465.433C935.808 462.926 935.586 460.286 934.893 457.795 934.198 455.295 933.087 453.042 931.859 451.132ZM913.905 498.993C914.513 499.654 915.069 500.333 915.55 501.025 917 503.102 917.819 505.372 918.004 507.642 918.22 509.727 917.554 511.835 916.576 513.501 915.677 515.048 914.577 516.26 913.566 517.239Z" stroke="#FFFFFF" stroke-width="4.61002" fill="#0F1113"/></g></g></g></g></svg>