<svg width="561" height="580" xmlns="http://www.w3.org/2000/svg" xmlns:xlink="http://www.w3.org/1999/xlink" overflow="hidden"><defs><clipPath id="clip0"><rect x="1198" y="614" width="561" height="580"/></clipPath><radialGradient cx="762000" cy="762000" r="1.07763e+06" gradientUnits="userSpaceOnUse" spreadMethod="pad" id="fill1" gradientTransform="matrix(0.000360892 0 0 0.000360892 1209 614)"><stop offset="0" stop-color="#D9D9D9"/><stop offset="0.17" stop-color="#D9D9D9"/><stop offset="0.33" stop-color="#7F7F7F"/><stop offset="1" stop-color="#0F1113"/></radialGradient><radialGradient cx="374073" cy="433648" r="572696" gradientUnits="userSpaceOnUse" spreadMethod="pad" id="fill2" gradientTransform="matrix(0.000360892 0 0 0.000360892 1229 633)"><stop offset="0" stop-color="#FFFFFF"/><stop offset="0.54" stop-color="#7F7F7F" stop-opacity="0"/><stop offset="1" stop-color="#7F7F7F" stop-opacity="0"/></radialGradient><linearGradient x1="1482" y1="620" x2="1482" y2="774" gradientUnits="userSpaceOnUse" spreadMethod="reflect" id="fill3"><stop offset="0" stop-color="#F5FAFF" stop-opacity="0.231373"/><stop offset="0.32" stop-color="#FFFFFF" stop-opacity="0"/><stop offset="1" stop-color="#FFFFFF" stop-opacity="0"/></linearGradient><radialGradient cx="94210.5" cy="102524" r="139236" gradientUnits="userSpaceOnUse" spreadMethod="pad" id="fill4" gradientTransform="matrix(0.000360892 0 0 0.000360892 1248 742)"><stop offset="0" stop-color="#FFFFFF"/><stop offset="0.54" stop-color="#7F7F7F" stop-opacity="0"/><stop offset="1" stop-color="#7F7F7F" stop-opacity="0"/></radialGradient><radialGradient cx="110836" cy="120534" r="163748" gradientUnits="userSpaceOnUse" spreadMethod="pad" id="fill5" gradientTransform="matrix(0.000360892 0 0 0.000360892 1277 788)"><stop offset="0" stop-color="#FFFFFF"/><stop offset="0.54" stop-color="#7F7F7F" stop-opacity="0"/><stop offset="1" stop-color="#7F7F7F" stop-opacity="0"/></radialGradient><radialGradient cx="292331" cy="279862" r="404697" gradientUnits="userSpaceOnUse" spreadMethod="pad" id="fill6" gradientTransform="matrix(0.000360892 0 0 0.000360892 1498 918)"><stop offset="0" stop-color="#FFFFFF"/><stop offset="0.54" stop-color="#7F7F7F" stop-opacity="0"/><stop offset="1" stop-color="#7F7F7F" stop-opacity="0"/></radialGradient><radialGradient cx="72043.5" cy="77585.5" r="105876" fx="72043.5" fy="77585.5" gradientUnits="userSpaceOnUse" spreadMethod="pad" id="fill7" gradientTransform="matrix(0.000360892 0 0 0.000360892 1643 1047)"><stop offset="0" stop-color="#FFFFFF"/><stop offset="0.54" stop-color="#7F7F7F" stop-opacity="0"/><stop offset="1" stop-color="#7F7F7F" stop-opacity="0"/></radialGradient><radialGradient cx="77585.5" cy="83127.5" r="113709" gradientUnits="userSpaceOnUse" spreadMethod="pad" id="fill8" gradientTransform="matrix(0.000360892 0 0 0.000360892 1627 964)"><stop offset="0" stop-color="#FFFFFF"/><stop offset="0.54" stop-color="#7F7F7F" stop-opacity="0"/><stop offset="1" stop-color="#7F7F7F" stop-opacity="0"/></radialGradient><clipPath id="clip9"><rect x="1263" y="661" width="375" height="375"/></clipPath><clipPath id="clip10"><rect x="1263" y="661" width="375" height="375"/></clipPath><clipPath id="clip11"><rect x="1263" y="661" width="375" height="375"/></clipPath><clipPath id="clip12"><rect x="1456" y="863" width="291" height="292"/></clipPath><clipPath id="clip13"><rect x="1456" y="863" width="291" height="292"/></clipPath><clipPath id="clip14"><rect x="1456" y="863" width="291" height="292"/></clipPath></defs><g clip-path="url(#clip0)" transform="translate(-1198 -614)"><rect x="1209" y="614" width="550" height="550" fill="url(#fill1)"/><path d="M1229 789.5C1229 703.067 1289.44 633 1364 633 1438.56 633 1499 703.067 1499 789.5 1499 875.932 1438.56 946 1364 946 1289.44 946 1229 875.932 1229 789.5Z" fill="url(#fill2)" fill-rule="evenodd"/><path d="M1242.79 620 1721.21 620C1737.11 620 1750 639.864 1750 664.368L1750 774C1750 735.824 1729.92 704.876 1705.15 704.876L1258.85 704.876C1234.08 704.876 1214 735.824 1214 774L1214 664.368C1214 639.864 1226.89 620 1242.79 620Z" fill="url(#fill3)" fill-rule="evenodd"/><path d="M1248 779C1248 758.566 1263.22 742 1282 742 1300.78 742 1316 758.566 1316 779 1316 799.435 1300.78 816 1282 816 1263.22 816 1248 799.435 1248 779Z" fill="url(#fill4)" fill-rule="evenodd"/><path d="M1277 831.5C1277 807.475 1294.91 788 1317 788 1339.09 788 1357 807.475 1357 831.5 1357 855.524 1339.09 875 1317 875 1294.91 875 1277 855.524 1277 831.5Z" fill="url(#fill5)" fill-rule="evenodd"/><path d="M1498 1019C1498 963.219 1545.23 918 1603.5 918 1661.77 918 1709 963.219 1709 1019 1709 1074.78 1661.77 1120 1603.5 1120 1545.23 1120 1498 1074.78 1498 1019Z" fill="url(#fill6)" fill-rule="evenodd"/><path d="M1643 1075C1643 1059.54 1654.64 1047 1669 1047 1683.36 1047 1695 1059.54 1695 1075 1695 1090.46 1683.36 1103 1669 1103 1654.64 1103 1643 1090.46 1643 1075Z" fill="url(#fill7)" fill-rule="evenodd"/><path d="M1627 994C1627 977.431 1639.54 964 1655 964 1670.46 964 1683 977.431 1683 994 1683 1010.57 1670.46 1024 1655 1024 1639.54 1024 1627 1010.57 1627 994Z" fill="url(#fill8)" fill-rule="evenodd"/><g clip-path="url(#clip9)"><g clip-path="url(#clip10)"><g clip-path="url(#clip11)"><path d="M1600.69 983.949C1599.57 979.318 1596.79 975.294 1592 975.294L1591.31 975.294 1591.31 778.884C1591.31 774.875 1588.05 771.646 1584.06 771.646L1560.45 771.646C1556.46 771.646 1553.22 774.876 1553.22 778.884L1553.3 1026.33C1553.3 1031.09 1557.19 1035.01 1561.98 1035.01L1602.23 1035.01C1608.77 1035.01 1610.93 1031.09 1610.93 1026.33Z" stroke="#FFFFFF" stroke-width="4.61728" fill="#0F1113"/><path d="M1301.31 983.949C1302.43 979.318 1305.21 975.294 1310.01 975.294L1310.7 975.294 1310.7 778.884C1310.7 774.875 1313.95 771.646 1317.94 771.646L1341.56 771.646C1345.53 771.646 1348.79 774.876 1348.79 778.884L1348.7 1026.33C1348.7 1031.09 1344.82 1035.01 1340.03 1035.01L1299.78 1035.01C1293.24 1035 1291.08 1031.09 1291.08 1026.32Z" stroke="#FFFFFF" stroke-width="4.61728" fill="#0F1113"/><path d="M1543.55 778.882C1543.55 774.873 1540.31 771.644 1536.32 771.644L1364.58 771.643C1360.57 771.643 1357.34 774.872 1357.34 778.88L1357.37 965.148 1365.21 982.921C1367.52 986.932 1370.9 990.154 1376.63 990.154L1428.28 990.154C1427.96 990.887 1418.96 1027.75 1418.96 1027.75 1418.96 1031.75 1420.26 1035 1426.21 1035L1474.69 1035C1480.44 1035 1481.93 1031.75 1481.93 1027.75 1481.93 1027.75 1472.96 990.887 1472.65 990.154L1524.3 990.154C1530.03 990.154 1533.4 986.932 1535.72 982.921L1543.56 965.148 1543.56 778.88ZM1497.72 834.742C1497.72 836.833 1496.03 838.53 1493.93 838.53L1406.96 838.529C1404.86 838.529 1403.17 836.836 1403.17 834.74L1403.17 831.731C1403.17 829.639 1404.86 827.947 1406.96 827.947L1493.93 827.947C1496.02 827.947 1497.72 829.636 1497.72 831.731ZM1497.72 812.26C1497.72 814.347 1496.03 816.044 1493.93 816.044L1406.96 816.044C1404.86 816.044 1403.17 814.351 1403.17 812.26L1403.17 809.251C1403.17 807.159 1404.86 805.462 1406.96 805.462L1493.93 805.462C1496.02 805.462 1497.72 807.156 1497.72 809.251ZM1497.72 789.775C1497.72 791.862 1496.03 793.559 1493.93 793.559L1406.96 793.559C1404.86 793.559 1403.17 791.865 1403.17 789.775L1403.17 786.761C1403.17 784.669 1404.86 782.972 1406.96 782.972L1493.93 782.972C1496.02 782.972 1497.72 784.666 1497.72 786.761Z" stroke="#FFFFFF" stroke-width="4.61728" fill="#0F1113"/><path d="M1450.44 706.619C1444.08 706.619 1438.94 711.775 1438.94 718.124 1438.94 724.473 1444.08 729.625 1450.44 729.625 1456.79 729.625 1461.95 724.474 1461.95 718.124 1461.95 711.775 1456.79 706.619 1450.44 706.619ZM1450.44 661C1399.02 661 1357.34 702.685 1357.34 754.107 1357.34 756.579 1357.52 759.009 1357.71 761.439L1543.18 761.439C1543.36 759.009 1543.55 756.58 1543.55 754.107 1543.55 702.685 1501.85 661 1450.44 661ZM1468.76 732.874C1468.76 734.863 1467.15 736.476 1465.16 736.476L1435.75 736.476C1433.76 736.476 1432.15 734.863 1432.15 732.874L1432.15 703.464C1432.15 701.474 1433.76 699.861 1435.75 699.861L1465.16 699.861C1467.15 699.861 1468.76 701.474 1468.76 703.464ZM1505.47 746.554C1499.11 746.554 1493.97 741.403 1493.97 735.053 1493.97 728.704 1499.11 723.548 1505.47 723.548 1511.82 723.548 1516.98 728.704 1516.98 735.053 1516.98 741.403 1511.82 746.554 1505.47 746.554Z" stroke="#FFFFFF" stroke-width="4.61728" fill="#0F1113"/></g></g></g><path d="M1211.5 1165.5 1211.5 906.5 1459.5 1165.5Z" stroke="#0F1113" stroke-width="4.58333" stroke-miterlimit="8" fill="#F2F2F2" fill-rule="evenodd"/><text fill="#0F1113" font-family="Aurebesh,Aurebesh_MSFontService,sans-serif" font-weight="700" font-size="83" transform="matrix(1 0 0 1 1248.36 1125)">A</text><g clip-path="url(#clip12)"><g clip-path="url(#clip13)"><g clip-path="url(#clip14)"><path d="M242.864 164.095C239.517 95.0114 206.634 57.9963 170.114 48.0441 205.907 64.0491 227.615 116.4 232.504 175.938 228.139 180.246 221.708 183.883 221.708 183.883 219.264 129.059 201.047 79.2397 171.54 59.4517 158.735 50.8677 145.641 45.1055 129.49 42.8652 124.544 43.2147 114.766 45.5138 110.051 46.4157 114.126 47.4046 118.17 48.7146 122.069 50.3146 168.949 69.724 177.679 182.719 179.018 206.64 173.198 208.415 165.894 209.957 165.894 209.957 163.1 147.392 146.629 74.8459 117.006 62.5657 105.016 57.5896 92.0961 56.3383 80.2233 57.4155 51.6762 74.0316 31.7718 107.409 28.7454 163.572 25.1373 165.988 22.5474 167.821 21.8199 168.578 9.91849 180.829 9.19099 186.561 45.9734 204.633 82.7557 222.733 112.671 232.685 131.44 240.338 150.181 247.992 177.331 253.987 236.258 238.476 301.907 225.409 274.495 196.077 242.864 164.096Z" stroke="#FFFFFF" stroke-width="4.61904" fill="#0F1113" transform="matrix(1 0 0 1.00344 1456 863)"/></g></g></g></g></svg>