<svg width="561" height="579" xmlns="http://www.w3.org/2000/svg" xmlns:xlink="http://www.w3.org/1999/xlink" overflow="hidden"><defs><clipPath id="clip0"><rect x="2417" y="1185" width="561" height="579"/></clipPath><radialGradient cx="762000" cy="762000" r="1.07763e+06" gradientUnits="userSpaceOnUse" spreadMethod="pad" id="fill1" gradientTransform="matrix(0.000360892 0 0 0.000360892 2428 1185)"><stop offset="0" stop-color="#D9D9D9"/><stop offset="0.17" stop-color="#D9D9D9"/><stop offset="0.33" stop-color="#7F7F7F"/><stop offset="1" stop-color="#0F1113"/></radialGradient><radialGradient cx="374073" cy="432261" r="571647" fx="374073" fy="432262" gradientUnits="userSpaceOnUse" spreadMethod="pad" id="fill2" gradientTransform="matrix(0.000360892 0 0 0.000360892 2448 1204)"><stop offset="0" stop-color="#FFFFFF"/><stop offset="0.54" stop-color="#7F7F7F" stop-opacity="0"/><stop offset="1" stop-color="#7F7F7F" stop-opacity="0"/></radialGradient><linearGradient x1="2700.5" y1="1191" x2="2700.5" y2="1345" gradientUnits="userSpaceOnUse" spreadMethod="reflect" id="fill3"><stop offset="0" stop-color="#F5FAFF" stop-opacity="0.231373"/><stop offset="0.32" stop-color="#FFFFFF" stop-opacity="0"/><stop offset="1" stop-color="#FFFFFF" stop-opacity="0"/></linearGradient><radialGradient cx="94211" cy="102524" r="139236" gradientUnits="userSpaceOnUse" spreadMethod="pad" id="fill4" gradientTransform="matrix(0.000360892 0 0 0.000360892 2466 1313)"><stop offset="0" stop-color="#FFFFFF"/><stop offset="0.54" stop-color="#7F7F7F" stop-opacity="0"/><stop offset="1" stop-color="#7F7F7F" stop-opacity="0"/></radialGradient><radialGradient cx="112222" cy="121920" r="165705" fx="112222" fy="121920" gradientUnits="userSpaceOnUse" spreadMethod="pad" id="fill5" gradientTransform="matrix(0.000360892 0 0 0.000360892 2495 1358)"><stop offset="0" stop-color="#FFFFFF"/><stop offset="0.54" stop-color="#7F7F7F" stop-opacity="0"/><stop offset="1" stop-color="#7F7F7F" stop-opacity="0"/></radialGradient><radialGradient cx="293716" cy="278476" r="404745" gradientUnits="userSpaceOnUse" spreadMethod="pad" id="fill6" gradientTransform="matrix(0.000360892 0 0 0.000360892 2716 1489)"><stop offset="0" stop-color="#FFFFFF"/><stop offset="0.54" stop-color="#7F7F7F" stop-opacity="0"/><stop offset="1" stop-color="#7F7F7F" stop-opacity="0"/></radialGradient><radialGradient cx="72043.5" cy="77585.5" r="105876" fx="72043.5" fy="77585.5" gradientUnits="userSpaceOnUse" spreadMethod="pad" id="fill7" gradientTransform="matrix(0.000360892 0 0 0.000360892 2862 1617)"><stop offset="0" stop-color="#FFFFFF"/><stop offset="0.54" stop-color="#7F7F7F" stop-opacity="0"/><stop offset="1" stop-color="#7F7F7F" stop-opacity="0"/></radialGradient><radialGradient cx="77585.5" cy="83127.5" r="113709" gradientUnits="userSpaceOnUse" spreadMethod="pad" id="fill8" gradientTransform="matrix(0.000360892 0 0 0.000360892 2846 1535)"><stop offset="0" stop-color="#FFFFFF"/><stop offset="0.54" stop-color="#7F7F7F" stop-opacity="0"/><stop offset="1" stop-color="#7F7F7F" stop-opacity="0"/></radialGradient><clipPath id="clip9"><rect x="2478" y="1212" width="368" height="369"/></clipPath><clipPath id="clip10"><rect x="2478" y="1212" width="368" height="369"/></clipPath><clipPath id="clip11"><rect x="2478" y="1212" width="368" height="369"/></clipPath><clipPath id="clip12"><rect x="2674" y="1434" width="292" height="292"/></clipPath><clipPath id="clip13"><rect x="2674" y="1434" width="292" height="292"/></clipPath><clipPath id="clip14"><rect x="2674" y="1434" width="292" height="292"/></clipPath></defs><g clip-path="url(#clip0)" transform="translate(-2417 -1185)"><rect x="2428" y="1185" width="550" height="550" fill="url(#fill1)"/><path d="M2448 1360C2448 1273.84 2508.44 1204 2583 1204 2657.56 1204 2718 1273.84 2718 1360 2718 1446.16 2657.56 1516 2583 1516 2508.44 1516 2448 1446.16 2448 1360Z" fill="url(#fill2)" fill-rule="evenodd"/><path d="M2461.73 1191 2939.27 1191C2955.14 1191 2968 1210.86 2968 1235.37L2968 1345C2968 1306.82 2947.96 1275.88 2923.23 1275.88L2477.77 1275.88C2453.04 1275.88 2433 1306.82 2433 1345L2433 1235.37C2433 1210.86 2445.86 1191 2461.73 1191Z" fill="url(#fill3)" fill-rule="evenodd"/><path d="M2466 1350C2466 1329.57 2481.22 1313 2500 1313 2518.78 1313 2534 1329.57 2534 1350 2534 1370.43 2518.78 1387 2500 1387 2481.22 1387 2466 1370.43 2466 1350Z" fill="url(#fill4)" fill-rule="evenodd"/><path d="M2495 1402C2495 1377.7 2513.13 1358 2535.5 1358 2557.87 1358 2576 1377.7 2576 1402 2576 1426.3 2557.87 1446 2535.5 1446 2513.13 1446 2495 1426.3 2495 1402Z" fill="url(#fill5)" fill-rule="evenodd"/><path d="M2716 1589.5C2716 1534 2763.46 1489 2822 1489 2880.54 1489 2928 1534 2928 1589.5 2928 1645 2880.54 1690 2822 1690 2763.46 1690 2716 1645 2716 1589.5Z" fill="url(#fill6)" fill-rule="evenodd"/><path d="M2862 1645C2862 1629.54 2873.64 1617 2888 1617 2902.36 1617 2914 1629.54 2914 1645 2914 1660.46 2902.36 1673 2888 1673 2873.64 1673 2862 1660.46 2862 1645Z" fill="url(#fill7)" fill-rule="evenodd"/><path d="M2846 1565C2846 1548.43 2858.54 1535 2874 1535 2889.46 1535 2902 1548.43 2902 1565 2902 1581.57 2889.46 1595 2874 1595 2858.54 1595 2846 1581.57 2846 1565Z" fill="url(#fill8)" fill-rule="evenodd"/><g clip-path="url(#clip9)"><g clip-path="url(#clip10)"><g clip-path="url(#clip11)"><path d="M362.234 109.25C363.759 109.25 365.221 108.644 366.301 107.566 367.377 106.487 367.984 105.025 367.984 103.5L367.984 69C367.984 67.4749 367.377 66.0124 366.301 64.9342 365.221 63.8559 363.759 63.25 362.234 63.25 362.234 63.25 345.754 63.1181 345.681 63.0617L267.668 1.25314C266.701 0.481687 265.51 0.0432461 264.274 0.0037168 263.038-0.0358125 261.822 0.325962 260.809 1.03513 260.809 1.03513 171.756 63.1196 171.602 63.2515L103.486 63.2515C101.96 63.2515 100.498 63.8578 99.4197 64.936 98.3415 66.0139 97.7355 67.4768 97.7355 69.0018L97.7355 103.502C97.7355 105.027 98.3415 106.489 99.4197 107.568 100.498 108.645 101.96 109.252 103.486 109.252L129.361 109.252 129.361 128.784C123.132 130.641 118.183 135.393 116.074 141.54 113.965 147.689 114.956 154.477 118.734 159.767 122.511 165.056 128.611 168.195 135.111 168.195 141.61 168.195 147.71 165.056 151.487 159.767 155.265 154.477 156.256 147.689 154.147 141.54 152.038 135.393 147.09 130.642 140.861 128.784L140.861 109.252 304.737 109.252 304.737 356.5 293.237 356.5C291.188 356.506 289.299 357.607 288.278 359.379 287.256 361.158 287.256 363.342 288.278 365.117 289.299 366.893 291.188 367.991 293.237 368L362.238 368C364.286 367.991 366.175 366.893 367.196 365.117 368.217 363.342 368.217 361.158 367.196 359.379 366.175 357.607 364.286 356.506 362.238 356.5L350.738 356.5 350.738 109.252ZM109.235 97.7499 109.235 79.9884 136.105 97.7499ZM152.358 94.7179 122.163 74.75 152.358 74.75ZM163.858 97.7499 163.858 82.2657 187.285 97.7499ZM201.517 93.375 173.343 74.75 201.515 74.75ZM213.017 97.7499 213.017 80.9241 238.468 97.7499ZM252.699 93.3787 224.521 74.75 252.698 74.75ZM258.732 63.25 191.606 63.25 258.732 16.4925ZM270.232 17.9523 327.406 63.25 270.232 63.25ZM316.231 109.25 333.997 109.25 316.231 136.119ZM333.622 161.003 316.231 187.3 316.231 161.003ZM333.058 213.032 316.231 238.48 316.231 213.033ZM333.058 264.215 316.231 289.661 316.231 264.215ZM264.199 97.7499 264.199 80.9241 289.65 97.7499ZM304.734 93.9405 275.706 74.75 304.734 74.75ZM316.234 316.25 332.497 316.25 316.234 340.838ZM339.234 356.497 319.666 356.497 339.234 326.906ZM339.234 304.749 320.043 304.749 339.234 275.727ZM339.234 252.714 320.604 252.714 339.234 224.543ZM339.234 201.534 320.611 201.534 339.234 173.361ZM339.234 149.499 321.172 149.499 339.234 122.181ZM316.234 97.7493 316.234 81.4899 340.832 97.7493ZM326.885 74.7493 356.484 74.7493 356.484 94.3183Z" stroke="#FFFFFF" stroke-width="4.58567" fill="#0F1113" transform="matrix(1 0 0 1.00272 2478 1212)"/><path d="M126.5 207C128.025 207 129.487 206.394 130.566 205.316 131.644 204.237 132.25 202.775 132.25 201.25L132.25 189.75C132.25 187.696 131.154 185.798 129.375 184.77 127.596 183.744 125.404 183.744 123.625 184.77 121.846 185.798 120.75 187.696 120.75 189.75L120.75 201.25C120.75 202.775 121.356 204.237 122.434 205.316 123.512 206.394 124.975 207 126.5 207Z" stroke="#FFFFFF" stroke-width="4.58567" fill="#0F1113" transform="matrix(1 0 0 1.00272 2478 1212)"/><path d="M149.5 207C151.025 207 152.487 206.394 153.566 205.316 154.644 204.237 155.25 202.775 155.25 201.25L155.25 189.75C155.25 187.696 154.154 185.798 152.375 184.77 150.596 183.744 148.404 183.744 146.625 184.77 144.846 185.798 143.75 187.696 143.75 189.75L143.75 201.25C143.75 202.775 144.356 204.237 145.434 205.316 146.512 206.394 147.975 207 149.5 207Z" stroke="#FFFFFF" stroke-width="4.58567" fill="#0F1113" transform="matrix(1 0 0 1.00272 2478 1212)"/><path d="M120.75 235.75C120.75 237.804 121.846 239.702 123.625 240.73 125.404 241.756 127.596 241.756 129.375 240.73 131.154 239.702 132.25 237.804 132.25 235.75L132.25 224.25C132.25 222.196 131.154 220.298 129.375 219.27 127.596 218.243 125.404 218.243 123.625 219.27 121.846 220.298 120.75 222.196 120.75 224.25Z" stroke="#FFFFFF" stroke-width="4.58567" fill="#0F1113" transform="matrix(1 0 0 1.00272 2478 1212)"/><path d="M143.75 235.75C143.75 237.804 144.846 239.702 146.625 240.73 148.404 241.756 150.596 241.756 152.375 240.73 154.154 239.702 155.25 237.804 155.25 235.75L155.25 224.25C155.25 222.196 154.154 220.298 152.375 219.27 150.596 218.243 148.404 218.243 146.625 219.27 144.846 220.298 143.75 222.196 143.75 224.25Z" stroke="#FFFFFF" stroke-width="4.58567" fill="#0F1113" transform="matrix(1 0 0 1.00272 2478 1212)"/><path d="M120.75 270.25C120.75 272.304 121.846 274.202 123.625 275.229 125.404 276.256 127.596 276.256 129.375 275.229 131.154 274.202 132.25 272.304 132.25 270.25L132.25 258.75C132.25 256.695 131.154 254.798 129.375 253.77 127.596 252.743 125.404 252.743 123.625 253.77 121.846 254.798 120.75 256.695 120.75 258.75Z" stroke="#FFFFFF" stroke-width="4.58567" fill="#0F1113" transform="matrix(1 0 0 1.00272 2478 1212)"/><path d="M143.75 270.25C143.75 272.304 144.846 274.202 146.625 275.229 148.404 276.256 150.596 276.256 152.375 275.229 154.154 274.202 155.25 272.304 155.25 270.25L155.25 258.75C155.25 256.695 154.154 254.798 152.375 253.77 150.596 252.743 148.404 252.743 146.625 253.77 144.846 254.798 143.75 256.695 143.75 258.75Z" stroke="#FFFFFF" stroke-width="4.58567" fill="#0F1113" transform="matrix(1 0 0 1.00272 2478 1212)"/><path d="M120.75 304.75C120.75 306.805 121.846 308.703 123.625 309.73 125.404 310.757 127.596 310.757 129.375 309.73 131.154 308.703 132.25 306.805 132.25 304.75L132.25 293.25C132.25 291.195 131.154 289.298 129.375 288.27 127.596 287.243 125.404 287.243 123.625 288.27 121.846 289.298 120.75 291.195 120.75 293.25Z" stroke="#FFFFFF" stroke-width="4.58567" fill="#0F1113" transform="matrix(1 0 0 1.00272 2478 1212)"/><path d="M143.75 304.75C143.75 306.805 144.846 308.703 146.625 309.73 148.404 310.757 150.596 310.757 152.375 309.73 154.154 308.703 155.25 306.805 155.25 304.75L155.25 293.25C155.25 291.195 154.154 289.298 152.375 288.27 150.596 287.243 148.404 287.243 146.625 288.27 144.846 289.298 143.75 291.195 143.75 293.25Z" stroke="#FFFFFF" stroke-width="4.58567" fill="#0F1113" transform="matrix(1 0 0 1.00272 2478 1212)"/><path d="M120.75 339.234C120.75 341.289 121.846 343.187 123.625 344.215 125.404 345.242 127.596 345.242 129.375 344.215 131.154 343.187 132.25 341.289 132.25 339.234L132.25 327.734C132.25 325.68 131.154 323.782 129.375 322.754 127.596 321.727 125.404 321.727 123.625 322.754 121.846 323.782 120.75 325.68 120.75 327.734Z" stroke="#FFFFFF" stroke-width="4.58567" fill="#0F1113" transform="matrix(1 0 0 1.00272 2478 1212)"/><path d="M143.75 339.234C143.75 341.289 144.846 343.187 146.625 344.215 148.404 345.242 150.596 345.242 152.375 344.215 154.154 343.187 155.25 341.289 155.25 339.234L155.25 327.734C155.25 325.68 154.154 323.782 152.375 322.754 150.596 321.727 148.404 321.727 146.625 322.754 144.846 323.782 143.75 325.68 143.75 327.734Z" stroke="#FFFFFF" stroke-width="4.58567" fill="#0F1113" transform="matrix(1 0 0 1.00272 2478 1212)"/><path d="M270.25 356.5 264.5 356.5 264.5 172.5C264.495 170.976 263.888 169.516 262.811 168.439 261.734 167.362 260.274 166.755 258.75 166.75L178.25 166.75C176.726 166.755 175.266 167.362 174.189 168.439 173.112 169.516 172.505 170.976 172.5 172.5L172.5 356.5 103.5 356.5 103.5 120.75C98.9263 120.745 94.5419 118.926 91.3075 115.692 88.0743 112.458 86.2546 108.074 86.25 103.5L86.25 69C86.2549 64.4263 88.0746 60.0419 91.3075 56.8075 94.5419 53.5743 98.9263 51.7546 103.5 51.75L103.5 5.75C103.495 4.22623 102.888 2.76598 101.811 1.68912 100.734 0.612198 99.2738 0.00484533 97.7503 6.13333e-05L17.2502 6.13333e-05C15.7264 0.004853 14.2662 0.612198 13.1893 1.68912 12.1124 2.76604 11.505 4.22629 11.5002 5.75L11.5002 356.515 5.75024 356.515C3.69582 356.515 1.79823 357.61 0.770592 359.392-0.256036 361.17-0.256036 363.36 0.770592 365.142 1.79841 366.92 3.69591 368.015 5.75024 368.015L270.25 368.015C272.305 368.015 274.202 366.92 275.23 365.142 276.256 363.36 276.256 361.17 275.23 359.392 274.202 357.61 272.305 356.515 270.25 356.515ZM51.75 339.25C51.75 341.304 50.6539 343.203 48.875 344.23 47.096 345.257 44.9039 345.257 43.125 344.23 41.346 343.203 40.25 341.304 40.25 339.25L40.25 327.75C40.25 325.695 41.346 323.797 43.125 322.77 44.9039 321.742 47.096 321.742 48.875 322.77 50.6539 323.797 51.75 325.695 51.75 327.75ZM51.75 304.75C51.75 306.805 50.6539 308.703 48.875 309.73 47.096 310.757 44.9039 310.757 43.125 309.73 41.346 308.703 40.25 306.805 40.25 304.75L40.25 293.25C40.25 291.195 41.346 289.298 43.125 288.27 44.9039 287.243 47.096 287.243 48.875 288.27 50.6539 289.298 51.75 291.195 51.75 293.25ZM51.75 270.25C51.75 272.304 50.6539 274.202 48.875 275.229 47.096 276.256 44.9039 276.256 43.125 275.229 41.346 274.202 40.25 272.304 40.25 270.25L40.25 258.75C40.25 256.695 41.346 254.798 43.125 253.77 44.9039 252.743 47.096 252.743 48.875 253.77 50.6539 254.798 51.75 256.695 51.75 258.75ZM51.75 235.75C51.75 237.804 50.6539 239.702 48.875 240.73 47.096 241.756 44.9039 241.756 43.125 240.73 41.346 239.702 40.25 237.804 40.25 235.75L40.25 224.25C40.25 222.196 41.346 220.298 43.125 219.27 44.9039 218.243 47.096 218.243 48.875 219.27 50.6539 220.298 51.75 222.196 51.75 224.25ZM51.75 201.25C51.75 203.304 50.6539 205.202 48.875 206.23 47.096 207.256 44.9039 207.256 43.125 206.23 41.346 205.202 40.25 203.304 40.25 201.25L40.25 189.75C40.25 187.696 41.346 185.798 43.125 184.77 44.9039 183.744 47.096 183.744 48.875 184.77 50.6539 185.798 51.75 187.696 51.75 189.75ZM51.75 166.75C51.75 168.804 50.6539 170.702 48.875 171.73 47.096 172.756 44.9039 172.756 43.125 171.73 41.346 170.702 40.25 168.804 40.25 166.75L40.25 155.25C40.25 153.196 41.346 151.298 43.125 150.27 44.9039 149.244 47.096 149.244 48.875 150.27 50.6539 151.298 51.75 153.196 51.75 155.25ZM51.75 132.25C51.75 134.304 50.6539 136.202 48.875 137.23 47.096 138.256 44.9039 138.256 43.125 137.23 41.346 136.202 40.25 134.304 40.25 132.25L40.25 120.75C40.25 118.696 41.346 116.798 43.125 115.77 44.9039 114.744 47.096 114.744 48.875 115.77 50.6539 116.798 51.75 118.696 51.75 120.75ZM51.75 97.7499C51.75 99.8043 50.6539 101.702 48.875 102.73 47.096 103.756 44.9039 103.756 43.125 102.73 41.346 101.702 40.25 99.8043 40.25 97.7499L40.25 86.25C40.25 84.1956 41.346 82.2979 43.125 81.2703 44.9039 80.2436 47.096 80.2436 48.875 81.2703 50.6539 82.2982 51.75 84.1956 51.75 86.25ZM51.75 63.25C51.75 65.3043 50.6539 67.202 48.875 68.2296 47.096 69.2563 44.9039 69.2563 43.125 68.2296 41.346 67.2017 40.25 65.3043 40.25 63.25L40.25 51.75C40.25 49.6956 41.346 47.798 43.125 46.7703 44.9039 45.7436 47.096 45.7436 48.875 46.7703 50.6539 47.7983 51.75 49.6956 51.75 51.75ZM74.75 339.25C74.75 341.304 73.6539 343.203 71.875 344.23 70.096 345.257 67.9039 345.257 66.125 344.23 64.346 343.203 63.25 341.304 63.25 339.25L63.25 327.75C63.25 325.695 64.346 323.797 66.125 322.77 67.9039 321.742 70.096 321.742 71.875 322.77 73.6539 323.797 74.75 325.695 74.75 327.75ZM74.75 304.75C74.75 306.805 73.6539 308.703 71.875 309.73 70.096 310.757 67.9039 310.757 66.125 309.73 64.346 308.703 63.25 306.805 63.25 304.75L63.25 293.25C63.25 291.195 64.346 289.298 66.125 288.27 67.9039 287.243 70.096 287.243 71.875 288.27 73.6539 289.298 74.75 291.195 74.75 293.25ZM74.75 270.25C74.75 272.304 73.6539 274.202 71.875 275.229 70.096 276.256 67.9039 276.256 66.125 275.229 64.346 274.202 63.25 272.304 63.25 270.25L63.25 258.75C63.25 256.695 64.346 254.798 66.125 253.77 67.9039 252.743 70.096 252.743 71.875 253.77 73.6539 254.798 74.75 256.695 74.75 258.75ZM74.75 235.75C74.75 237.804 73.6539 239.702 71.875 240.73 70.096 241.756 67.9039 241.756 66.125 240.73 64.346 239.702 63.25 237.804 63.25 235.75L63.25 224.25C63.25 222.196 64.346 220.298 66.125 219.27 67.9039 218.243 70.096 218.243 71.875 219.27 73.6539 220.298 74.75 222.196 74.75 224.25ZM74.75 201.25C74.75 203.304 73.6539 205.202 71.875 206.23 70.096 207.256 67.9039 207.256 66.125 206.23 64.346 205.202 63.25 203.304 63.25 201.25L63.25 189.75C63.25 187.696 64.346 185.798 66.125 184.77 67.9039 183.744 70.096 183.744 71.875 184.77 73.6539 185.798 74.75 187.696 74.75 189.75ZM74.75 166.75C74.75 168.804 73.6539 170.702 71.875 171.73 70.096 172.756 67.9039 172.756 66.125 171.73 64.346 170.702 63.25 168.804 63.25 166.75L63.25 155.25C63.25 153.196 64.346 151.298 66.125 150.27 67.9039 149.244 70.096 149.244 71.875 150.27 73.6539 151.298 74.75 153.196 74.75 155.25ZM74.75 132.25C74.75 134.304 73.6539 136.202 71.875 137.23 70.096 138.256 67.9039 138.256 66.125 137.23 64.346 136.202 63.25 134.304 63.25 132.25L63.25 120.75C63.25 118.696 64.346 116.798 66.125 115.77 67.9039 114.744 70.096 114.744 71.875 115.77 73.6539 116.798 74.75 118.696 74.75 120.75ZM74.75 97.7499C74.75 99.8043 73.6539 101.702 71.875 102.73 70.096 103.756 67.9039 103.756 66.125 102.73 64.346 101.702 63.25 99.8043 63.25 97.7499L63.25 86.25C63.25 84.1956 64.346 82.2979 66.125 81.2703 67.9039 80.2436 70.096 80.2436 71.875 81.2703 73.6539 82.2982 74.75 84.1956 74.75 86.25ZM74.75 63.25C74.75 65.3043 73.6539 67.202 71.875 68.2296 70.096 69.2563 67.9039 69.2563 66.125 68.2296 64.346 67.2017 63.25 65.3043 63.25 63.25L63.25 51.75C63.25 49.6956 64.346 47.798 66.125 46.7703 67.9039 45.7436 70.096 45.7436 71.875 46.7703 73.6539 47.7983 74.75 49.6956 74.75 51.75ZM212.75 339.25C212.75 341.304 211.654 343.203 209.875 344.23 208.096 345.257 205.904 345.257 204.125 344.23 202.346 343.203 201.25 341.304 201.25 339.25L201.25 327.75C201.25 325.695 202.346 323.797 204.125 322.77 205.904 321.742 208.096 321.742 209.875 322.77 211.654 323.797 212.75 325.695 212.75 327.75ZM212.75 304.75C212.75 306.805 211.654 308.703 209.875 309.73 208.096 310.757 205.904 310.757 204.125 309.73 202.346 308.703 201.25 306.805 201.25 304.75L201.25 293.25C201.25 291.195 202.346 289.298 204.125 288.27 205.904 287.243 208.096 287.243 209.875 288.27 211.654 289.298 212.75 291.195 212.75 293.25ZM212.75 270.25C212.75 272.304 211.654 274.202 209.875 275.229 208.096 276.256 205.904 276.256 204.125 275.229 202.346 274.202 201.25 272.304 201.25 270.25L201.25 258.75C201.25 256.695 202.346 254.798 204.125 253.77 205.904 252.743 208.096 252.743 209.875 253.77 211.654 254.798 212.75 256.695 212.75 258.75ZM212.75 235.75C212.75 237.804 211.654 239.702 209.875 240.73 208.096 241.756 205.904 241.756 204.125 240.73 202.346 239.702 201.25 237.804 201.25 235.75L201.25 224.25C201.25 222.196 202.346 220.298 204.125 219.27 205.904 218.243 208.096 218.243 209.875 219.27 211.654 220.298 212.75 222.196 212.75 224.25ZM235.75 339.25C235.75 341.304 234.654 343.203 232.875 344.23 231.096 345.257 228.904 345.257 227.125 344.23 225.346 343.203 224.25 341.304 224.25 339.25L224.25 327.75C224.25 325.695 225.346 323.797 227.125 322.77 228.904 321.742 231.096 321.742 232.875 322.77 234.654 323.797 235.75 325.695 235.75 327.75ZM235.75 304.75C235.75 306.805 234.654 308.703 232.875 309.73 231.096 310.757 228.904 310.757 227.125 309.73 225.346 308.703 224.25 306.805 224.25 304.75L224.25 293.25C224.25 291.195 225.346 289.298 227.125 288.27 228.904 287.243 231.096 287.243 232.875 288.27 234.654 289.298 235.75 291.195 235.75 293.25ZM235.75 270.25C235.75 272.304 234.654 274.202 232.875 275.229 231.096 276.256 228.904 276.256 227.125 275.229 225.346 274.202 224.25 272.304 224.25 270.25L224.25 258.75C224.25 256.695 225.346 254.798 227.125 253.77 228.904 252.743 231.096 252.743 232.875 253.77 234.654 254.798 235.75 256.695 235.75 258.75ZM235.75 235.75C235.75 237.804 234.654 239.702 232.875 240.73 231.096 241.756 228.904 241.756 227.125 240.73 225.346 239.702 224.25 237.804 224.25 235.75L224.25 224.25C224.25 222.196 225.346 220.298 227.125 219.27 228.904 218.243 231.096 218.243 232.875 219.27 234.654 220.298 235.75 222.196 235.75 224.25Z" stroke="#FFFFFF" stroke-width="4.58567" fill="#0F1113" transform="matrix(1 0 0 1.00272 2478 1212)"/></g></g></g><path d="M2430.5 1736.5 2430.5 1477.5 2677.5 1736.5Z" stroke="#0F1113" stroke-width="4.58333" stroke-miterlimit="8" fill="#F2F2F2" fill-rule="evenodd"/><text fill="#0F1113" font-family="Aurebesh,Aurebesh_MSFontService,sans-serif" font-weight="700" font-size="83" transform="matrix(1 0 0 1 2467.01 1695)">A</text><g clip-path="url(#clip12)"><g clip-path="url(#clip13)"><g clip-path="url(#clip14)"><path d="M2917.7 1598.66C2914.34 1529.34 2881.34 1492.2 2844.7 1482.21 2880.61 1498.27 2902.4 1550.8 2907.3 1610.54 2902.92 1614.87 2896.47 1618.52 2896.47 1618.52 2894.02 1563.5 2875.74 1513.51 2846.13 1493.66 2833.28 1485.04 2820.14 1479.26 2803.94 1477.01 2798.97 1477.36 2789.16 1479.67 2784.43 1480.58 2788.52 1481.57 2792.58 1482.88 2796.49 1484.49 2843.53 1503.96 2852.29 1617.35 2853.63 1641.35 2847.79 1643.13 2840.46 1644.68 2840.46 1644.68 2837.66 1581.9 2821.13 1509.1 2791.41 1496.78 2779.38 1491.79 2766.41 1490.53 2754.5 1491.61 2725.85 1508.29 2705.88 1541.78 2702.84 1598.13 2699.22 1600.56 2696.62 1602.4 2695.89 1603.16 2683.95 1615.45 2683.22 1621.2 2720.13 1639.34 2757.04 1657.5 2787.06 1667.48 2805.89 1675.16 2824.7 1682.84 2851.94 1688.86 2911.07 1673.3 2976.94 1660.18 2949.44 1630.75 2917.7 1598.66Z" stroke="#FFFFFF" stroke-width="4.63491" fill="#0F1113"/></g></g></g></g></svg>