<svg width="561" height="579" xmlns="http://www.w3.org/2000/svg" xmlns:xlink="http://www.w3.org/1999/xlink" overflow="hidden"><defs><clipPath id="clip0"><rect x="1247" y="46" width="561" height="579"/></clipPath><radialGradient cx="762000" cy="762000" r="1.07763e+06" gradientUnits="userSpaceOnUse" spreadMethod="pad" id="fill1" gradientTransform="matrix(0.000360892 0 0 0.000360892 1258 46.0001)"><stop offset="0" stop-color="#D9D9D9"/><stop offset="0.17" stop-color="#D9D9D9"/><stop offset="0.33" stop-color="#7F7F7F"/><stop offset="1" stop-color="#0F1113"/></radialGradient><radialGradient cx="374072" cy="432262" r="571647" fx="374072" fy="432262" gradientUnits="userSpaceOnUse" spreadMethod="pad" id="fill2" gradientTransform="matrix(0.000360892 0 0 0.000360892 1278 65)"><stop offset="0" stop-color="#FFFFFF"/><stop offset="0.54" stop-color="#7F7F7F" stop-opacity="0"/><stop offset="1" stop-color="#7F7F7F" stop-opacity="0"/></radialGradient><linearGradient x1="1531" y1="50.9999" x2="1531" y2="206" gradientUnits="userSpaceOnUse" spreadMethod="reflect" id="fill3"><stop offset="0" stop-color="#F5FAFF" stop-opacity="0.231373"/><stop offset="0.32" stop-color="#FFFFFF" stop-opacity="0"/><stop offset="1" stop-color="#FFFFFF" stop-opacity="0"/></linearGradient><radialGradient cx="95596.5" cy="102524" r="140178" gradientUnits="userSpaceOnUse" spreadMethod="pad" id="fill4" gradientTransform="matrix(0.000360892 0 0 0.000360892 1296 174)"><stop offset="0" stop-color="#FFFFFF"/><stop offset="0.54" stop-color="#7F7F7F" stop-opacity="0"/><stop offset="1" stop-color="#7F7F7F" stop-opacity="0"/></radialGradient><radialGradient cx="112222" cy="120534" r="164688" gradientUnits="userSpaceOnUse" spreadMethod="pad" id="fill5" gradientTransform="matrix(0.000360892 0 0 0.000360892 1325 219)"><stop offset="0" stop-color="#FFFFFF"/><stop offset="0.54" stop-color="#7F7F7F" stop-opacity="0"/><stop offset="1" stop-color="#7F7F7F" stop-opacity="0"/></radialGradient><radialGradient cx="292331" cy="278477" r="403741" fx="292331" fy="278476" gradientUnits="userSpaceOnUse" spreadMethod="pad" id="fill6" gradientTransform="matrix(0.000360892 0 0 0.000360892 1547 350)"><stop offset="0" stop-color="#FFFFFF"/><stop offset="0.54" stop-color="#7F7F7F" stop-opacity="0"/><stop offset="1" stop-color="#7F7F7F" stop-opacity="0"/></radialGradient><radialGradient cx="72043.5" cy="77585" r="105876" gradientUnits="userSpaceOnUse" spreadMethod="pad" id="fill7" gradientTransform="matrix(0.000360892 0 0 0.000360892 1692 478)"><stop offset="0" stop-color="#FFFFFF"/><stop offset="0.54" stop-color="#7F7F7F" stop-opacity="0"/><stop offset="1" stop-color="#7F7F7F" stop-opacity="0"/></radialGradient><radialGradient cx="77585.5" cy="84513" r="114726" fx="77585.5" fy="84513" gradientUnits="userSpaceOnUse" spreadMethod="pad" id="fill8" gradientTransform="matrix(0.000360892 0 0 0.000360892 1676 395)"><stop offset="0" stop-color="#FFFFFF"/><stop offset="0.54" stop-color="#7F7F7F" stop-opacity="0"/><stop offset="1" stop-color="#7F7F7F" stop-opacity="0"/></radialGradient><clipPath id="clip9"><rect x="1504" y="294" width="293" height="294"/></clipPath><clipPath id="clip10"><rect x="1504" y="294" width="293" height="294"/></clipPath><clipPath id="clip11"><rect x="1504" y="294" width="293" height="294"/></clipPath><clipPath id="clip12"><rect x="1273" y="177" width="331" height="331"/></clipPath><clipPath id="clip13"><rect x="1273" y="177" width="331" height="331"/></clipPath><clipPath id="clip14"><rect x="1273" y="177" width="331" height="331"/></clipPath></defs><g clip-path="url(#clip0)" transform="translate(-1247 -46)"><rect x="1258" y="46.0001" width="550" height="550" fill="url(#fill1)"/><path d="M1278 221C1278 134.844 1338.44 65 1413 65 1487.56 65 1548 134.844 1548 221 1548 307.156 1487.56 377 1413 377 1338.44 377 1278 307.156 1278 221Z" fill="url(#fill2)" fill-rule="evenodd"/><path d="M1291.79 50.9999 1770.21 50.9999C1786.11 50.9999 1799 70.9928 1799 95.6556L1799 206C1799 167.576 1778.92 136.427 1754.15 136.427L1307.85 136.427C1283.08 136.427 1263 167.576 1263 206L1263 95.6556C1263 70.9928 1275.89 50.9999 1291.79 50.9999Z" fill="url(#fill3)" fill-rule="evenodd"/><path d="M1296 211C1296 190.565 1311.45 174 1330.5 174 1349.55 174 1365 190.565 1365 211 1365 231.434 1349.55 248 1330.5 248 1311.45 248 1296 231.434 1296 211Z" fill="url(#fill4)" fill-rule="evenodd"/><path d="M1325 262.5C1325 238.476 1343.13 219 1365.5 219 1387.87 219 1406 238.476 1406 262.5 1406 286.524 1387.87 306 1365.5 306 1343.13 306 1325 286.524 1325 262.5Z" fill="url(#fill5)" fill-rule="evenodd"/><path d="M1547 450.5C1547 394.995 1594.23 350 1652.5 350 1710.77 350 1758 394.995 1758 450.5 1758 506.005 1710.77 551 1652.5 551 1594.23 551 1547 506.005 1547 450.5Z" fill="url(#fill6)" fill-rule="evenodd"/><path d="M1692 506C1692 490.536 1703.64 478 1718 478 1732.36 478 1744 490.536 1744 506 1744 521.464 1732.36 534 1718 534 1703.64 534 1692 521.464 1692 506Z" fill="url(#fill7)" fill-rule="evenodd"/><path d="M1676 425.5C1676 408.655 1688.54 395 1704 395 1719.46 395 1732 408.655 1732 425.5 1732 442.345 1719.46 456 1704 456 1688.54 456 1676 442.345 1676 425.5Z" fill="url(#fill8)" fill-rule="evenodd"/><path d="M1260.5 597.5 1260.5 337.5 1507.5 597.5Z" stroke="#0F1113" stroke-width="4.58333" stroke-miterlimit="8" fill="#F2F2F2" fill-rule="evenodd"/><text fill="#0F1113" font-family="Aurebesh,Aurebesh_MSFontService,sans-serif" font-weight="700" font-size="83" transform="matrix(1 0 0 1 1297.16 556)">A</text><g clip-path="url(#clip9)"><g clip-path="url(#clip10)"><g clip-path="url(#clip11)"><path d="M242.864 164.095C239.517 95.0116 206.634 57.9963 170.114 48.0441 205.907 64.0491 227.615 116.4 232.504 175.939 228.139 180.246 221.708 183.883 221.708 183.883 219.264 129.059 201.047 79.2398 171.54 59.4518 158.735 50.8678 145.641 45.1055 129.49 42.8653 124.544 43.2147 114.766 45.5139 110.051 46.4157 114.126 47.4047 118.17 48.7146 122.069 50.3147 168.95 69.7241 177.68 182.72 179.018 206.64 173.198 208.415 165.894 209.957 165.894 209.957 163.1 147.392 146.629 74.846 117.006 62.5658 105.016 57.5897 92.0962 56.3384 80.2234 57.4155 51.6763 74.0317 31.7719 107.409 28.7455 163.572 25.1373 165.988 22.5474 167.821 21.8199 168.578 9.9185 180.829 9.191 186.562 45.9734 204.633 82.7558 222.733 112.671 232.685 131.44 240.339 150.181 247.993 177.331 253.987 236.258 238.476 301.908 225.409 274.496 196.077 242.864 164.096Z" stroke="#FFFFFF" stroke-width="4.61905" fill="#0F1113" transform="matrix(1 0 0 1.00344 1505 295)"/></g></g></g><path d="M1541.44 151.424C1541.26 150.496 1541.86 149.596 1542.79 149.413L1741.72 110.307C1742.65 110.124 1743.55 110.728 1743.73 111.656L1745.05 118.376C1745.24 119.304 1744.63 120.204 1743.7 120.386L1544.77 159.493C1543.84 159.675 1542.94 159.071 1542.76 158.143Z" stroke="#FFFFFF" stroke-width="4.58333" stroke-miterlimit="8" fill="#0F1113" fill-rule="evenodd"/><path d="M1549.18 190.822C1549 189.894 1549.61 188.994 1550.53 188.811L1749.47 149.704C1750.4 149.522 1751.3 150.126 1751.48 151.054L1752.8 157.774C1752.98 158.702 1752.38 159.602 1751.45 159.784L1552.52 198.891C1551.59 199.073 1550.69 198.469 1550.51 197.541Z" stroke="#FFFFFF" stroke-width="4.58333" stroke-miterlimit="8" fill="#0F1113" fill-rule="evenodd"/><path d="M0 1.71211C-3.29235e-16 0.76654 0.766539 0 1.71211 0L18.976 0C19.9216 -3.29235e-16 20.6882 0.76654 20.6882 1.71211L20.6882 8.56033C20.6882 9.5059 19.9216 10.2724 18.976 10.2724L1.71211 10.2724C0.766539 10.2724 0 9.5059 0 8.56033Z" stroke="#FFFFFF" stroke-width="4.58333" stroke-miterlimit="8" fill="#0F1113" fill-rule="evenodd" transform="matrix(-0.192891 -0.98122 -0.98122 0.192891 1739.88 126.446)"/><path d="M0 1.71211C-3.29235e-16 0.76654 0.766539 0 1.71211 0L18.976 0C19.9216 -3.29235e-16 20.6882 0.76654 20.6882 1.71211L20.6882 8.56033C20.6882 9.5059 19.9216 10.2724 18.976 10.2724L1.71211 10.2724C0.766539 10.2724 0 9.5059 0 8.56033Z" stroke="#FFFFFF" stroke-width="4.58333" stroke-miterlimit="8" fill="#0F1113" fill-rule="evenodd" transform="matrix(-0.192891 -0.98122 -0.98122 0.192891 1747.6 165.724)"/><path d="M1451.77 173.48C1451.47 171.939 1452.47 170.445 1454.01 170.142L1622.87 136.948C1624.41 136.646 1625.9 137.649 1626.2 139.19L1628.4 150.347C1628.7 151.888 1627.7 153.382 1626.16 153.685L1457.3 186.879C1455.76 187.181 1454.27 186.178 1453.97 184.637Z" stroke="#FFFFFF" stroke-width="4.58333" stroke-miterlimit="8" fill="#0F1113" fill-rule="evenodd"/><path d="M1457.19 201.059C1456.89 199.518 1457.89 198.023 1459.43 197.721L1628.29 164.527C1629.83 164.224 1631.32 165.228 1631.62 166.768L1633.82 177.926C1634.12 179.466 1633.12 180.961 1631.58 181.264L1462.72 214.457C1461.18 214.76 1459.69 213.757 1459.39 212.216Z" stroke="#FFFFFF" stroke-width="4.58333" stroke-miterlimit="8" fill="#0F1113" fill-rule="evenodd"/><path d="M1414.41 142.564 1571.32 111.717 1644.89 313.585 1422.67 359.328 1414.41 142.564Z" stroke="#FFFFFF" stroke-width="4.58333" stroke-miterlimit="8" fill="#0F1113" fill-rule="evenodd"/><path d="M1756.68 237.743C1756.77 238.987 1755.84 240.072 1754.59 240.165L1745.58 240.836C1744.33 240.929 1743.25 239.995 1743.15 238.75L1742.31 227.367 1608.55 237.33 1608.58 237.805C1608.74 239.872 1607.19 241.673 1605.12 241.827L1542.36 246.502 1543.4 260.417 1342.22 275.402 1338.59 226.579 1539.76 211.595 1540.69 224.045 1603.45 219.371C1605.51 219.217 1607.31 220.767 1607.47 222.835L1607.54 223.806 1741.3 213.843 1740.37 201.414C1740.28 200.169 1741.22 199.085 1742.46 198.992L1751.48 198.321C1752.72 198.228 1753.81 199.162 1753.9 200.407L1754.82 212.835 1766.21 211.987C1767.45 211.895 1768.54 212.829 1768.63 214.074L1769.3 223.09C1769.39 224.334 1768.46 225.419 1767.21 225.512L1755.83 226.359Z" stroke="#FFFFFF" stroke-width="4.58333" stroke-miterlimit="8" fill="#0F1113" fill-rule="evenodd"/><g clip-path="url(#clip12)"><g clip-path="url(#clip13)"><g clip-path="url(#clip14)"><path d="M1435.8 295.864 1452.28 295.864C1452.28 295.864 1454.48 300.814 1458.96 300.814L1472.13 300.814 1472.13 300.822 1482.04 300.822C1482.04 299.91 1482.75 299.169 1483.71 299.169L1490.87 299.169 1491.94 295.864 1531.58 295.864 1533.48 300.99 1572.19 297.769C1572.19 297.769 1574.3 300.845 1574.3 310.74 1574.3 320.634 1572.19 323.066 1572.19 323.066L1533.48 320.183 1531.58 325.616 1491.94 325.616 1490.29 320.657 1472.13 320.657 1472.13 325.472 1465.52 332.227 1468.83 332.227 1468.83 352.062 1472.13 352.062 1472.13 371.897 1468.83 371.897 1468.83 373.55 1468.83 378.508 1425.89 378.508 1425.89 375.203 1409.38 375.203C1400.89 375.203 1392.43 369.402 1389.48 364.2 1386.53 358.998 1384.62 355.368 1379.66 355.368 1376.49 355.368 1373.66 356.863 1371.84 359.189L1365.04 402.015C1363.62 411.002 1355.31 416.392 1346.48 414.055L1339.43 412.187C1330.61 409.849 1326.48 401.195 1330.19 392.915L1346.86 355.662C1344.65 352.851 1343.33 349.305 1343.33 345.451 1343.33 341.729 1344.56 338.295 1346.63 335.533L1343.33 335.533C1341.5 335.533 1340.03 334.053 1340.03 332.227 1340.03 330.402 1341.5 328.921 1343.33 328.921L1349.93 328.921 1349.93 305.781C1346.29 305.781 1343.33 302.821 1343.33 299.169 1343.33 295.518 1346.29 292.558 1349.93 292.558L1359.84 292.558C1361.67 292.558 1363.14 294.024 1363.14 295.826L1363.14 295.864 1363.26 295.864 1366.43 299.154 1369.75 295.909 1369.75 287.599 1358.3 287.599 1329.74 292.558 1310.31 292.558C1308.48 292.558 1307 291.082 1307 289.26L1307 266.103C1307 264.282 1308.49 262.806 1310.31 262.806L1329.74 262.806 1358.3 267.765 1370.09 267.765C1370.6 266.497 1371.63 265.36 1372.83 264.881L1371.88 265.26C1375.27 263.905 1380.76 263.907 1384.18 265.277L1383.19 264.881C1384.38 265.359 1385.42 266.487 1385.92 267.765L1409.72 267.765C1410.24 266.497 1411.27 265.36 1412.48 264.881L1411.57 265.243C1414.96 263.897 1420.48 263.925 1423.83 265.277L1422.84 264.881C1424.03 265.359 1425.05 266.487 1425.56 267.765L1435.8 267.765 1435.8 266.112 1433.32 266.112C1432.87 266.112 1432.5 265.756 1432.5 265.301L1432.5 260.311C1432.5 259.863 1432.9 259.5 1433.32 259.5L1454.79 259.5C1455.25 259.5 1455.62 259.855 1455.62 260.311L1455.62 265.301C1455.62 265.749 1455.21 266.112 1454.79 266.112L1452.31 266.112 1452.31 267.765 1501.88 267.765C1503.69 267.765 1505.15 269.255 1505.15 271.04L1505.15 284.324C1505.15 286.133 1503.7 287.599 1501.88 287.599L1449.01 287.599 1449.01 292.558 1435.8 292.558 1435.8 295.864ZM1395.44 352.367 1395.64 352.565C1395.67 352.426 1395.7 352.289 1395.73 352.152 1395.63 352.223 1395.54 352.295 1395.44 352.367ZM1391.35 357.627C1391.04 358.493 1390.87 359.397 1390.87 360.327 1390.87 366.717 1400.16 371.897 1407.46 371.897 1414.75 371.897 1420.37 366.717 1420.37 360.327 1420.37 353.936 1413.37 348.756 1406.08 348.756 1404.7 348.756 1403.3 348.941 1401.93 349.284 1403 350.035 1404.14 350.744 1405.18 351.207 1399.81 351.934 1397.98 360.014 1400.08 364.267 1401.03 366.182 1400.37 366.206 1399.42 365.741 1396.09 364.1 1395.06 360.807 1395.07 357.37L1393.08 359.36 1391.35 357.627ZM1536.53 305.781C1537.44 305.781 1538.18 305.041 1538.18 304.128 1538.18 303.215 1537.44 302.475 1536.53 302.475 1535.62 302.475 1534.88 303.215 1534.88 304.128 1534.88 305.041 1535.62 305.781 1536.53 305.781ZM1542.7 305.578C1543.61 305.578 1544.35 304.838 1544.35 303.926 1544.35 303.013 1543.61 302.273 1542.7 302.273 1541.79 302.273 1541.05 303.013 1541.05 303.926 1541.05 304.838 1541.79 305.578 1542.7 305.578ZM1549.27 305.226C1550.18 305.226 1550.92 304.486 1550.92 303.573 1550.92 302.66 1550.18 301.921 1549.27 301.921 1548.36 301.921 1547.62 302.66 1547.62 303.573 1547.62 304.486 1548.36 305.226 1549.27 305.226ZM1555.8 304.726C1556.71 304.726 1557.45 303.986 1557.45 303.074 1557.45 302.16 1556.71 301.421 1555.8 301.421 1554.89 301.421 1554.15 302.16 1554.15 303.074 1554.15 303.986 1554.89 304.726 1555.8 304.726ZM1562.44 304.172C1563.36 304.172 1564.1 303.433 1564.1 302.52 1564.1 301.607 1563.36 300.867 1562.44 300.867 1561.53 300.867 1560.79 301.607 1560.79 302.52 1560.79 303.433 1561.53 304.172 1562.44 304.172ZM1568.64 303.768C1569.55 303.768 1570.29 303.028 1570.29 302.115 1570.29 301.202 1569.55 300.462 1568.64 300.462 1567.72 300.462 1566.98 301.202 1566.98 302.115 1566.98 303.028 1567.72 303.768 1568.64 303.768ZM1536.53 312.393C1537.44 312.393 1538.18 311.653 1538.18 310.74 1538.18 309.827 1537.44 309.087 1536.53 309.087 1535.62 309.087 1534.88 309.827 1534.88 310.74 1534.88 311.653 1535.62 312.393 1536.53 312.393ZM1543.13 312.393C1544.05 312.393 1544.79 311.653 1544.79 310.74 1544.79 309.827 1544.05 309.087 1543.13 309.087 1542.22 309.087 1541.48 309.827 1541.48 310.74 1541.48 311.653 1542.22 312.393 1543.13 312.393ZM1549.74 312.393C1550.65 312.393 1551.39 311.653 1551.39 310.74 1551.39 309.827 1550.65 309.087 1549.74 309.087 1548.83 309.087 1548.09 309.827 1548.09 310.74 1548.09 311.653 1548.83 312.393 1549.74 312.393ZM1556.34 312.393C1557.26 312.393 1558 311.653 1558 310.74 1558 309.827 1557.26 309.087 1556.34 309.087 1555.43 309.087 1554.69 309.827 1554.69 310.74 1554.69 311.653 1555.43 312.393 1556.34 312.393ZM1562.95 312.393C1563.86 312.393 1564.6 311.653 1564.6 310.74 1564.6 309.827 1563.86 309.087 1562.95 309.087 1562.04 309.087 1561.3 309.827 1561.3 310.74 1561.3 311.653 1562.04 312.393 1562.95 312.393ZM1569.55 312.393C1570.47 312.393 1571.21 311.653 1571.21 310.74 1571.21 309.827 1570.47 309.087 1569.55 309.087 1568.64 309.087 1567.9 309.827 1567.9 310.74 1567.9 311.653 1568.64 312.393 1569.55 312.393ZM1536.53 319.004C1537.44 319.004 1538.18 318.264 1538.18 317.351 1538.18 316.439 1537.44 315.698 1536.53 315.698 1535.62 315.698 1534.88 316.439 1534.88 317.351 1534.88 318.264 1535.62 319.004 1536.53 319.004ZM1542.63 319.415C1543.54 319.415 1544.28 318.675 1544.28 317.762 1544.28 316.849 1543.54 316.109 1542.63 316.109 1541.72 316.109 1540.98 316.849 1540.98 317.762 1540.98 318.675 1541.72 319.415 1542.63 319.415ZM1548.83 319.897C1549.74 319.897 1550.48 319.156 1550.48 318.244 1550.48 317.331 1549.74 316.591 1548.83 316.591 1547.91 316.591 1547.18 317.331 1547.18 318.244 1547.18 319.156 1547.91 319.897 1548.83 319.897ZM1555.53 320.504C1556.44 320.504 1557.18 319.764 1557.18 318.851 1557.18 317.938 1556.44 317.198 1555.53 317.198 1554.61 317.198 1553.87 317.938 1553.87 318.851 1553.87 319.764 1554.61 320.504 1555.53 320.504ZM1562.2 321.115C1563.12 321.115 1563.86 320.375 1563.86 319.462 1563.86 318.55 1563.12 317.81 1562.2 317.81 1561.29 317.81 1560.55 318.55 1560.55 319.462 1560.55 320.375 1561.29 321.115 1562.2 321.115ZM1568.62 321.75C1569.53 321.75 1570.27 321.01 1570.27 320.097 1570.27 319.184 1569.53 318.444 1568.62 318.444 1567.71 318.444 1566.97 319.184 1566.97 320.097 1566.97 321.01 1567.71 321.75 1568.62 321.75Z" stroke="#FFFFFF" stroke-width="4.39999" fill="#0F1113" fill-rule="evenodd"/></g></g></g></g></svg>