<svg width="561" height="579" xmlns="http://www.w3.org/2000/svg" xmlns:xlink="http://www.w3.org/1999/xlink" overflow="hidden"><defs><clipPath id="clip0"><rect x="1816" y="1185" width="561" height="579"/></clipPath><radialGradient cx="762000" cy="762000" r="1.07763e+06" gradientUnits="userSpaceOnUse" spreadMethod="pad" id="fill1" gradientTransform="matrix(0.000360892 0 0 0.000360892 1827 1185)"><stop offset="0" stop-color="#D9D9D9"/><stop offset="0.17" stop-color="#D9D9D9"/><stop offset="0.33" stop-color="#7F7F7F"/><stop offset="1" stop-color="#0F1113"/></radialGradient><radialGradient cx="374073" cy="432261" r="571647" fx="374073" fy="432262" gradientUnits="userSpaceOnUse" spreadMethod="pad" id="fill2" gradientTransform="matrix(0.000360892 0 0 0.000360892 1847 1204)"><stop offset="0" stop-color="#FFFFFF"/><stop offset="0.54" stop-color="#7F7F7F" stop-opacity="0"/><stop offset="1" stop-color="#7F7F7F" stop-opacity="0"/></radialGradient><linearGradient x1="2100" y1="1191" x2="2100" y2="1345" gradientUnits="userSpaceOnUse" spreadMethod="reflect" id="fill3"><stop offset="0" stop-color="#F5FAFF" stop-opacity="0.231373"/><stop offset="0.32" stop-color="#FFFFFF" stop-opacity="0"/><stop offset="1" stop-color="#FFFFFF" stop-opacity="0"/></linearGradient><radialGradient cx="94211" cy="102524" r="139236" gradientUnits="userSpaceOnUse" spreadMethod="pad" id="fill4" gradientTransform="matrix(0.000360892 0 0 0.000360892 1866 1313)"><stop offset="0" stop-color="#FFFFFF"/><stop offset="0.54" stop-color="#7F7F7F" stop-opacity="0"/><stop offset="1" stop-color="#7F7F7F" stop-opacity="0"/></radialGradient><radialGradient cx="112221" cy="121920" r="165705" fx="112222" fy="121920" gradientUnits="userSpaceOnUse" spreadMethod="pad" id="fill5" gradientTransform="matrix(0.000360892 0 0 0.000360892 1894 1358)"><stop offset="0" stop-color="#FFFFFF"/><stop offset="0.54" stop-color="#7F7F7F" stop-opacity="0"/><stop offset="1" stop-color="#7F7F7F" stop-opacity="0"/></radialGradient><radialGradient cx="292330" cy="278476" r="403740" fx="292330" fy="278476" gradientUnits="userSpaceOnUse" spreadMethod="pad" id="fill6" gradientTransform="matrix(0.000360892 0 0 0.000360892 2116 1489)"><stop offset="0" stop-color="#FFFFFF"/><stop offset="0.54" stop-color="#7F7F7F" stop-opacity="0"/><stop offset="1" stop-color="#7F7F7F" stop-opacity="0"/></radialGradient><radialGradient cx="72044" cy="77585.5" r="105877" fx="72044" fy="77585.5" gradientUnits="userSpaceOnUse" spreadMethod="pad" id="fill7" gradientTransform="matrix(0.000360892 0 0 0.000360892 2261 1617)"><stop offset="0" stop-color="#FFFFFF"/><stop offset="0.54" stop-color="#7F7F7F" stop-opacity="0"/><stop offset="1" stop-color="#7F7F7F" stop-opacity="0"/></radialGradient><radialGradient cx="77585.5" cy="83127.5" r="113709" gradientUnits="userSpaceOnUse" spreadMethod="pad" id="fill8" gradientTransform="matrix(0.000360892 0 0 0.000360892 2245 1535)"><stop offset="0" stop-color="#FFFFFF"/><stop offset="0.54" stop-color="#7F7F7F" stop-opacity="0"/><stop offset="1" stop-color="#7F7F7F" stop-opacity="0"/></radialGradient><clipPath id="clip9"><rect x="1868" y="1204" width="381" height="382"/></clipPath><clipPath id="clip10"><rect x="1868" y="1204" width="381" height="382"/></clipPath><clipPath id="clip11"><rect x="1868" y="1204" width="381" height="382"/></clipPath><clipPath id="clip12"><rect x="2073" y="1434" width="292" height="292"/></clipPath><clipPath id="clip13"><rect x="2073" y="1434" width="292" height="292"/></clipPath><clipPath id="clip14"><rect x="2073" y="1434" width="292" height="292"/></clipPath></defs><g clip-path="url(#clip0)" transform="translate(-1816 -1185)"><rect x="1827" y="1185" width="550" height="550" fill="url(#fill1)"/><path d="M1847 1360C1847 1273.84 1907.44 1204 1982 1204 2056.56 1204 2117 1273.84 2117 1360 2117 1446.16 2056.56 1516 1982 1516 1907.44 1516 1847 1446.16 1847 1360Z" fill="url(#fill2)" fill-rule="evenodd"/><path d="M1860.79 1191 2339.21 1191C2355.11 1191 2368 1210.86 2368 1235.37L2368 1345C2368 1306.82 2347.92 1275.88 2323.15 1275.88L1876.85 1275.88C1852.08 1275.88 1832 1306.82 1832 1345L1832 1235.37C1832 1210.86 1844.89 1191 1860.79 1191Z" fill="url(#fill3)" fill-rule="evenodd"/><path d="M1866 1350C1866 1329.57 1881.22 1313 1900 1313 1918.78 1313 1934 1329.57 1934 1350 1934 1370.43 1918.78 1387 1900 1387 1881.22 1387 1866 1370.43 1866 1350Z" fill="url(#fill4)" fill-rule="evenodd"/><path d="M1894 1402C1894 1377.7 1912.13 1358 1934.5 1358 1956.87 1358 1975 1377.7 1975 1402 1975 1426.3 1956.87 1446 1934.5 1446 1912.13 1446 1894 1426.3 1894 1402Z" fill="url(#fill5)" fill-rule="evenodd"/><path d="M2116 1589.5C2116 1534 2163.23 1489 2221.5 1489 2279.77 1489 2327 1534 2327 1589.5 2327 1645 2279.77 1690 2221.5 1690 2163.23 1690 2116 1645 2116 1589.5Z" fill="url(#fill6)" fill-rule="evenodd"/><path d="M2261 1645C2261 1629.54 2272.64 1617 2287 1617 2301.36 1617 2313 1629.54 2313 1645 2313 1660.46 2301.36 1673 2287 1673 2272.64 1673 2261 1660.46 2261 1645Z" fill="url(#fill7)" fill-rule="evenodd"/><path d="M2245 1565C2245 1548.43 2257.54 1535 2273 1535 2288.46 1535 2301 1548.43 2301 1565 2301 1581.57 2288.46 1595 2273 1595 2257.54 1595 2245 1581.57 2245 1565Z" fill="url(#fill8)" fill-rule="evenodd"/><path d="M1829.5 1736.5 1829.5 1477.5 2076.5 1736.5Z" stroke="#0F1113" stroke-width="4.58333" stroke-miterlimit="8" fill="#F2F2F2" fill-rule="evenodd"/><text fill="#0F1113" font-family="Aurebesh,Aurebesh_MSFontService,sans-serif" font-weight="700" font-size="83" transform="matrix(1 0 0 1 1866.25 1695)">A</text><g clip-path="url(#clip9)"><g clip-path="url(#clip10)"><g clip-path="url(#clip11)"><path d="M35.5313 343.5 59.2188 361.266 59.2188 207.297 35.5313 207.297Z" stroke="#FFFFFF" stroke-width="4.59394" fill="#0F1113" transform="matrix(1 0 0 1.00264 1869 1205)"/><path d="M17.7656 189.541C17.7656 192.811 20.4181 195.463 23.6875 195.463L71.0625 195.463C74.332 195.463 76.9844 192.811 76.9844 189.541L76.9844 183.619 17.7656 183.619Z" stroke="#FFFFFF" stroke-width="4.59394" fill="#0F1113" transform="matrix(1 0 0 1.00264 1869 1205)"/><path d="M47.375 17.8076C31.048 17.8076 17.7656 31.09 17.7656 47.417L17.7656 171.776 41.4531 171.776 41.4531 148.089 53.2969 148.089 53.2969 171.776 76.9844 171.776 76.9844 47.417C76.9844 31.09 63.702 17.8076 47.375 17.8076ZM53.2969 136.245 41.4531 136.245 41.4531 29.6514 53.2969 29.6514Z" stroke="#FFFFFF" stroke-width="4.59394" fill="#0F1113" transform="matrix(1 0 0 1.00264 1869 1205)"/><path d="M219.109 28.2301 207.266 29.6514 207.266 71.1045 183.578 82.9483 159.891 71.1045 159.891 29.6514 148.047 28.2301C133.23 38.8428 124.359 55.4942 124.359 73.5807 124.359 92.9034 134.509 110.71 151.505 121.221 160.466 126.764 165.813 136.221 165.813 146.531L165.813 343.516C165.813 353.31 173.784 361.282 183.578 361.282 193.373 361.282 201.344 353.31 201.344 343.516L201.344 146.531C201.344 136.227 206.691 126.764 215.657 121.227 232.647 110.71 242.797 92.9021 242.797 73.5807 242.797 55.4954 233.926 38.8421 219.109 28.2301ZM183.578 349.432C180.309 349.432 177.656 346.779 177.656 343.51 177.656 340.241 180.309 337.588 183.578 337.588 186.848 337.588 189.5 340.241 189.5 343.51 189.5 346.785 186.848 349.432 183.578 349.432Z" stroke="#FFFFFF" stroke-width="4.59394" fill="#0F1113" transform="matrix(1 0 0 1.00264 1869 1205)"/><path d="M296.094 171.776 319.781 171.776 319.781 207.307 296.094 207.307Z" stroke="#FFFFFF" stroke-width="4.59394" fill="#0F1113" transform="matrix(1 0 0 1.00264 1869 1205)"/><path d="M331.625 148.088 313.86 148.088 313.86 136.244 331.625 136.244 331.625 41.4942C331.625 28.4304 321.001 17.8067 307.938 17.8067 294.874 17.8067 284.25 28.4304 284.25 41.4942L284.25 118.479 302.016 118.479 302.016 130.322 284.25 130.322 284.25 159.932 331.625 159.932ZM307.938 41.4942C304.668 41.4942 302.016 38.8418 302.016 35.5723 302.016 32.3028 304.668 29.6504 307.938 29.6504 311.207 29.6504 313.86 32.3028 313.86 35.5723 313.86 38.8466 311.207 41.4942 307.938 41.4942Z" stroke="#FFFFFF" stroke-width="4.59394" fill="#0F1113" transform="matrix(1 0 0 1.00264 1869 1205)"/><path d="M350.259 219.151 348.927 219.151C346.037 239.202 328.786 254.682 307.947 254.682 287.109 254.682 269.858 239.202 266.968 219.151L265.642 219.151C259.584 219.151 254.657 224.078 254.657 230.136L254.657 233.938C254.657 235.217 254.881 236.484 255.321 237.698L297.627 354.04C299.202 358.36 303.354 361.276 307.954 361.276 312.556 361.276 316.712 358.367 318.281 354.04L360.593 237.692C361.02 236.483 361.244 235.216 361.244 233.936L361.244 230.134C361.244 224.076 356.317 219.15 350.259 219.15Z" stroke="#FFFFFF" stroke-width="4.59394" fill="#0F1113" transform="matrix(1 0 0 1.00264 1869 1205)"/><path d="M307.938 242.838C322.232 242.838 334.196 232.646 336.947 219.151L278.927 219.151C281.681 232.652 293.643 242.838 307.938 242.838Z" stroke="#FFFFFF" stroke-width="4.59394" fill="#0F1113" transform="matrix(1 0 0 1.00264 1869 1205)"/></g></g></g><g clip-path="url(#clip12)"><g clip-path="url(#clip13)"><g clip-path="url(#clip14)"><path d="M242.864 164.095C239.517 95.0116 206.634 57.9963 170.114 48.0441 205.907 64.0491 227.615 116.4 232.504 175.939 228.139 180.246 221.708 183.883 221.708 183.883 219.264 129.059 201.047 79.2398 171.54 59.4518 158.735 50.8678 145.641 45.1055 129.49 42.8653 124.544 43.2147 114.766 45.5139 110.051 46.4157 114.126 47.4047 118.17 48.7146 122.069 50.3147 168.95 69.7241 177.68 182.72 179.018 206.64 173.198 208.415 165.894 209.957 165.894 209.957 163.1 147.392 146.629 74.846 117.006 62.5658 105.016 57.5897 92.0962 56.3384 80.2234 57.4155 51.6763 74.0317 31.7719 107.409 28.7455 163.572 25.1373 165.988 22.5474 167.821 21.8199 168.578 9.9185 180.829 9.191 186.562 45.9734 204.633 82.7558 222.733 112.671 232.685 131.44 240.339 150.181 247.993 177.331 253.987 236.258 238.476 301.908 225.409 274.496 196.077 242.864 164.096Z" stroke="#FFFFFF" stroke-width="4.61905" fill="#0F1113" transform="matrix(1 0 0 1.00344 2074 1434)"/></g></g></g></g></svg>