<svg width="560" height="580" xmlns="http://www.w3.org/2000/svg" xmlns:xlink="http://www.w3.org/1999/xlink" overflow="hidden"><defs><clipPath id="clip0"><rect x="33" y="614" width="560" height="580"/></clipPath><radialGradient cx="762000" cy="762000" r="1.07763e+06" gradientUnits="userSpaceOnUse" spreadMethod="pad" id="fill1" gradientTransform="matrix(0.000360892 0 0 0.000360892 43 614)"><stop offset="0" stop-color="#D9D9D9"/><stop offset="0.17" stop-color="#D9D9D9"/><stop offset="0.33" stop-color="#7F7F7F"/><stop offset="1" stop-color="#0F1113"/></radialGradient><radialGradient cx="374073" cy="433648" r="572696" gradientUnits="userSpaceOnUse" spreadMethod="pad" id="fill2" gradientTransform="matrix(0.000360892 0 0 0.000360892 63.9999 633)"><stop offset="0" stop-color="#FFFFFF"/><stop offset="0.54" stop-color="#7F7F7F" stop-opacity="0"/><stop offset="1" stop-color="#7F7F7F" stop-opacity="0"/></radialGradient><linearGradient x1="316.5" y1="620" x2="316.5" y2="774" gradientUnits="userSpaceOnUse" spreadMethod="reflect" id="fill3"><stop offset="0" stop-color="#F5FAFF" stop-opacity="0.231373"/><stop offset="0.32" stop-color="#FFFFFF" stop-opacity="0"/><stop offset="1" stop-color="#FFFFFF" stop-opacity="0"/></linearGradient><radialGradient cx="94210.5" cy="102524" r="139236" gradientUnits="userSpaceOnUse" spreadMethod="pad" id="fill4" gradientTransform="matrix(0.000360892 0 0 0.000360892 82.0002 742)"><stop offset="0" stop-color="#FFFFFF"/><stop offset="0.54" stop-color="#7F7F7F" stop-opacity="0"/><stop offset="1" stop-color="#7F7F7F" stop-opacity="0"/></radialGradient><radialGradient cx="112222" cy="120534" r="164689" gradientUnits="userSpaceOnUse" spreadMethod="pad" id="fill5" gradientTransform="matrix(0.000360892 0 0 0.000360892 111 788)"><stop offset="0" stop-color="#FFFFFF"/><stop offset="0.54" stop-color="#7F7F7F" stop-opacity="0"/><stop offset="1" stop-color="#7F7F7F" stop-opacity="0"/></radialGradient><radialGradient cx="293716" cy="279862" r="405699" gradientUnits="userSpaceOnUse" spreadMethod="pad" id="fill6" gradientTransform="matrix(0.000360892 0 0 0.000360892 332 918)"><stop offset="0" stop-color="#FFFFFF"/><stop offset="0.54" stop-color="#7F7F7F" stop-opacity="0"/><stop offset="1" stop-color="#7F7F7F" stop-opacity="0"/></radialGradient><radialGradient cx="72043.5" cy="77585.5" r="105876" fx="72043.5" fy="77585.5" gradientUnits="userSpaceOnUse" spreadMethod="pad" id="fill7" gradientTransform="matrix(0.000360892 0 0 0.000360892 478 1047)"><stop offset="0" stop-color="#FFFFFF"/><stop offset="0.54" stop-color="#7F7F7F" stop-opacity="0"/><stop offset="1" stop-color="#7F7F7F" stop-opacity="0"/></radialGradient><radialGradient cx="77585.5" cy="83127.5" r="113709" gradientUnits="userSpaceOnUse" spreadMethod="pad" id="fill8" gradientTransform="matrix(0.000360892 0 0 0.000360892 462 964)"><stop offset="0" stop-color="#FFFFFF"/><stop offset="0.54" stop-color="#7F7F7F" stop-opacity="0"/><stop offset="1" stop-color="#7F7F7F" stop-opacity="0"/></radialGradient><clipPath id="clip9"><rect x="64" y="636" width="365" height="365"/></clipPath><clipPath id="clip10"><rect x="64" y="636" width="366" height="365"/></clipPath><clipPath id="clip11"><rect x="64" y="636" width="366" height="365"/></clipPath><clipPath id="clip12"><rect x="290" y="863" width="292" height="292"/></clipPath><clipPath id="clip13"><rect x="290" y="863" width="292" height="292"/></clipPath><clipPath id="clip14"><rect x="290" y="863" width="292" height="292"/></clipPath></defs><g clip-path="url(#clip0)" transform="translate(-33 -614)"><rect x="43" y="614" width="550" height="550" fill="url(#fill1)"/><path d="M63.9999 789.5C63.9999 703.067 124.442 633 199 633 273.559 633 334 703.067 334 789.5 334 875.932 273.559 946 199 946 124.442 946 63.9999 875.932 63.9999 789.5Z" fill="url(#fill2)" fill-rule="evenodd"/><path d="M77.7339 620 555.266 620C571.136 620 584 639.864 584 664.368L584 774C584 735.824 563.957 704.876 539.233 704.876L93.7669 704.876C69.0429 704.876 49.0002 735.824 49.0002 774L49.0002 664.368C49.0002 639.864 61.8646 620 77.7339 620Z" fill="url(#fill3)" fill-rule="evenodd"/><path d="M82.0002 779C82.0002 758.566 97.2224 742 116 742 134.778 742 150 758.566 150 779 150 799.435 134.778 816 116 816 97.2224 816 82.0002 799.435 82.0002 779Z" fill="url(#fill4)" fill-rule="evenodd"/><path d="M111 831.5C111 807.475 129.133 788 151.5 788 173.868 788 192 807.475 192 831.5 192 855.524 173.868 875 151.5 875 129.133 875 111 855.524 111 831.5Z" fill="url(#fill5)" fill-rule="evenodd"/><path d="M332 1019C332 963.219 379.458 918 438 918 496.542 918 544 963.219 544 1019 544 1074.78 496.542 1120 438 1120 379.458 1120 332 1074.78 332 1019Z" fill="url(#fill6)" fill-rule="evenodd"/><path d="M478 1075C478 1059.54 489.641 1047 504 1047 518.359 1047 530 1059.54 530 1075 530 1090.46 518.359 1103 504 1103 489.641 1103 478 1090.46 478 1075Z" fill="url(#fill7)" fill-rule="evenodd"/><path d="M462 994C462 977.431 474.536 964 490 964 505.464 964 518 977.431 518 994 518 1010.57 505.464 1024 490 1024 474.536 1024 462 1010.57 462 994Z" fill="url(#fill8)" fill-rule="evenodd"/><path d="M46.4999 1165.5 46.4999 906.5 293.5 1165.5Z" stroke="#0F1113" stroke-width="4.58333" stroke-miterlimit="8" fill="#F2F2F2" fill-rule="evenodd"/><text fill="#0F1113" font-family="Aurebesh,Aurebesh_MSFontService,sans-serif" font-weight="700" font-size="83" transform="matrix(1 0 0 1 82.958 1125)">A</text><g clip-path="url(#clip9)"><g clip-path="url(#clip10)"><g clip-path="url(#clip11)"><path d="M125.667 889.777 156 889.777 156 930.22 125.667 930.22Z" stroke="#FFFFFF" stroke-width="4.25731" fill="#0F1113"/><path d="M327.89 950.434C325.207 950.434 322.636 949.37 320.74 947.474 318.843 945.578 317.778 943.006 317.778 940.324L317.778 879.657C317.778 876.975 318.843 874.403 320.74 872.507 322.636 870.612 325.208 869.547 327.89 869.547L368.333 869.547 368.333 788.657C368.333 787.13 367.979 785.625 367.298 784.261L348.111 745.786 348.111 667.323C348.103 664.643 347.036 662.076 345.141 660.181 343.247 658.286 340.679 657.219 338 657.212L297.557 657.212C294.878 657.219 292.31 658.286 290.415 660.181 288.521 662.076 287.453 664.643 287.445 667.323L287.445 758.323C287.445 763.686 285.314 768.829 281.523 772.622 277.73 776.415 272.586 778.545 267.223 778.545L226.777 778.545C221.414 778.545 216.27 776.415 212.477 772.622 208.686 768.829 206.555 763.686 206.555 758.323L206.555 667.323C206.547 664.643 205.479 662.076 203.585 660.181 201.69 658.286 199.122 657.219 196.443 657.212L156 657.212C153.321 657.219 150.753 658.286 148.859 660.181 146.964 662.076 145.896 664.643 145.889 667.323L145.889 745.786 126.702 784.261C126.021 785.626 125.667 787.13 125.667 788.657L125.667 869.547 166.11 869.547C168.792 869.547 171.364 870.612 173.26 872.507 175.157 874.403 176.222 876.975 176.222 879.657L176.222 940.324C176.222 943.006 175.157 945.578 173.26 947.474 171.364 949.37 168.792 950.434 166.11 950.434L125.667 950.434 125.667 970.658C125.675 973.336 126.742 975.905 128.637 977.798 130.532 979.694 133.098 980.762 135.777 980.768L358.224 980.768C360.903 980.762 363.469 979.694 365.364 977.798 367.259 975.902 368.326 973.336 368.333 970.658L368.333 950.434Z" stroke="#FFFFFF" stroke-width="4.25731" fill="#0F1113"/><path d="M338 889.777 368.333 889.777 368.333 930.22 338 930.22Z" stroke="#FFFFFF" stroke-width="4.25731" fill="#0F1113"/></g></g></g><g clip-path="url(#clip12)"><g clip-path="url(#clip13)"><g clip-path="url(#clip14)"><path d="M533.698 1027.66C530.34 958.338 497.344 921.196 460.698 911.209 496.614 927.269 518.398 979.8 523.303 1039.54 518.923 1043.87 512.47 1047.52 512.47 1047.52 510.018 992.503 491.738 942.512 462.129 922.656 449.281 914.043 436.141 908.261 419.935 906.013 414.972 906.363 405.16 908.67 400.43 909.575 404.518 910.568 408.576 911.882 412.489 913.488 459.53 932.964 468.29 1046.35 469.633 1070.35 463.793 1072.13 456.464 1073.68 456.464 1073.68 453.661 1010.9 437.133 938.103 407.408 925.781 395.377 920.788 382.413 919.532 370.499 920.613 341.854 937.286 321.881 970.779 318.844 1027.13 315.224 1029.56 312.625 1031.4 311.895 1032.16 299.953 1044.45 299.223 1050.2 336.131 1068.34 373.04 1086.5 403.058 1096.48 421.892 1104.16 440.697 1111.84 467.94 1117.86 527.07 1102.3 592.945 1089.18 565.439 1059.75 533.698 1027.66Z" stroke="#FFFFFF" stroke-width="4.63491" fill="#0F1113"/></g></g></g></g></svg>