<svg width="561" height="579" xmlns="http://www.w3.org/2000/svg" xmlns:xlink="http://www.w3.org/1999/xlink" overflow="hidden"><defs><clipPath id="clip0"><rect x="1215" y="46" width="561" height="579"/></clipPath><radialGradient cx="762000" cy="762000" r="1.07763e+06" gradientUnits="userSpaceOnUse" spreadMethod="pad" id="fill1" gradientTransform="matrix(0.000360892 0 0 0.000360892 1226 46.0001)"><stop offset="0" stop-color="#D9D9D9"/><stop offset="0.17" stop-color="#D9D9D9"/><stop offset="0.33" stop-color="#7F7F7F"/><stop offset="1" stop-color="#0F1113"/></radialGradient><radialGradient cx="374072" cy="432262" r="571647" fx="374072" fy="432262" gradientUnits="userSpaceOnUse" spreadMethod="pad" id="fill2" gradientTransform="matrix(0.000360892 0 0 0.000360892 1246 65)"><stop offset="0" stop-color="#FFFFFF"/><stop offset="0.54" stop-color="#7F7F7F" stop-opacity="0"/><stop offset="1" stop-color="#7F7F7F" stop-opacity="0"/></radialGradient><linearGradient x1="1499.5" y1="50.9999" x2="1499.5" y2="206" gradientUnits="userSpaceOnUse" spreadMethod="reflect" id="fill3"><stop offset="0" stop-color="#F5FAFF" stop-opacity="0.231373"/><stop offset="0.32" stop-color="#FFFFFF" stop-opacity="0"/><stop offset="1" stop-color="#FFFFFF" stop-opacity="0"/></linearGradient><radialGradient cx="94211" cy="102524" r="139236" gradientUnits="userSpaceOnUse" spreadMethod="pad" id="fill4" gradientTransform="matrix(0.000360892 0 0 0.000360892 1265 174)"><stop offset="0" stop-color="#FFFFFF"/><stop offset="0.54" stop-color="#7F7F7F" stop-opacity="0"/><stop offset="1" stop-color="#7F7F7F" stop-opacity="0"/></radialGradient><radialGradient cx="110836" cy="120534" r="163748" gradientUnits="userSpaceOnUse" spreadMethod="pad" id="fill5" gradientTransform="matrix(0.000360892 0 0 0.000360892 1294 219)"><stop offset="0" stop-color="#FFFFFF"/><stop offset="0.54" stop-color="#7F7F7F" stop-opacity="0"/><stop offset="1" stop-color="#7F7F7F" stop-opacity="0"/></radialGradient><radialGradient cx="292331" cy="278477" r="403741" fx="292331" fy="278476" gradientUnits="userSpaceOnUse" spreadMethod="pad" id="fill6" gradientTransform="matrix(0.000360892 0 0 0.000360892 1515 350)"><stop offset="0" stop-color="#FFFFFF"/><stop offset="0.54" stop-color="#7F7F7F" stop-opacity="0"/><stop offset="1" stop-color="#7F7F7F" stop-opacity="0"/></radialGradient><radialGradient cx="72043.5" cy="77585" r="105876" gradientUnits="userSpaceOnUse" spreadMethod="pad" id="fill7" gradientTransform="matrix(0.000360892 0 0 0.000360892 1660 478)"><stop offset="0" stop-color="#FFFFFF"/><stop offset="0.54" stop-color="#7F7F7F" stop-opacity="0"/><stop offset="1" stop-color="#7F7F7F" stop-opacity="0"/></radialGradient><radialGradient cx="77585" cy="84513" r="114725" gradientUnits="userSpaceOnUse" spreadMethod="pad" id="fill8" gradientTransform="matrix(0.000360892 0 0 0.000360892 1644 395)"><stop offset="0" stop-color="#FFFFFF"/><stop offset="0.54" stop-color="#7F7F7F" stop-opacity="0"/><stop offset="1" stop-color="#7F7F7F" stop-opacity="0"/></radialGradient><clipPath id="clip9"><rect x="1472" y="294" width="294" height="294"/></clipPath><clipPath id="clip10"><rect x="1472" y="294" width="294" height="294"/></clipPath><clipPath id="clip11"><rect x="1472" y="294" width="294" height="294"/></clipPath><clipPath id="clip12"><rect x="1261" y="86" width="440" height="440"/></clipPath><clipPath id="clip13"><rect x="1261" y="86" width="440" height="440"/></clipPath><clipPath id="clip14"><rect x="1261" y="86" width="440" height="440"/></clipPath></defs><g clip-path="url(#clip0)" transform="translate(-1215 -46)"><rect x="1226" y="46.0001" width="550" height="550" fill="url(#fill1)"/><path d="M1246 221C1246 134.844 1306.44 65 1381 65 1455.56 65 1516 134.844 1516 221 1516 307.156 1455.56 377 1381 377 1306.44 377 1246 307.156 1246 221Z" fill="url(#fill2)" fill-rule="evenodd"/><path d="M1260.73 50.9999 1738.27 50.9999C1754.14 50.9999 1767 70.9928 1767 95.6556L1767 206C1767 167.576 1746.96 136.427 1722.23 136.427L1276.77 136.427C1252.04 136.427 1232 167.576 1232 206L1232 95.6556C1232 70.9928 1244.86 50.9999 1260.73 50.9999Z" fill="url(#fill3)" fill-rule="evenodd"/><path d="M1265 211C1265 190.565 1280.22 174 1299 174 1317.78 174 1333 190.565 1333 211 1333 231.434 1317.78 248 1299 248 1280.22 248 1265 231.434 1265 211Z" fill="url(#fill4)" fill-rule="evenodd"/><path d="M1294 262.5C1294 238.476 1311.91 219 1334 219 1356.09 219 1374 238.476 1374 262.5 1374 286.524 1356.09 306 1334 306 1311.91 306 1294 286.524 1294 262.5Z" fill="url(#fill5)" fill-rule="evenodd"/><path d="M1515 450.5C1515 394.995 1562.23 350 1620.5 350 1678.77 350 1726 394.995 1726 450.5 1726 506.005 1678.77 551 1620.5 551 1562.23 551 1515 506.005 1515 450.5Z" fill="url(#fill6)" fill-rule="evenodd"/><path d="M1660 506C1660 490.536 1671.64 478 1686 478 1700.36 478 1712 490.536 1712 506 1712 521.464 1700.36 534 1686 534 1671.64 534 1660 521.464 1660 506Z" fill="url(#fill7)" fill-rule="evenodd"/><path d="M1644 425.5C1644 408.655 1656.54 395 1672 395 1687.46 395 1700 408.655 1700 425.5 1700 442.345 1687.46 456 1672 456 1656.54 456 1644 442.345 1644 425.5Z" fill="url(#fill8)" fill-rule="evenodd"/><path d="M1228.5 597.5 1228.5 337.5 1476.5 597.5Z" stroke="#0F1113" stroke-width="4.58333" stroke-miterlimit="8" fill="#F2F2F2" fill-rule="evenodd"/><text fill="#0F1113" font-family="Aurebesh,Aurebesh_MSFontService,sans-serif" font-weight="700" font-size="83" transform="matrix(1 0 0 1 1265.49 556)">A</text><g clip-path="url(#clip9)"><g clip-path="url(#clip10)"><g clip-path="url(#clip11)"><path d="M1716.7 459.659C1713.34 390.338 1680.34 353.196 1643.7 343.209 1679.61 359.269 1701.4 411.8 1706.3 471.543 1701.92 475.865 1695.47 479.515 1695.47 479.515 1693.02 424.503 1674.74 374.512 1645.13 354.656 1632.28 346.043 1619.14 340.26 1602.94 338.013 1597.97 338.363 1588.16 340.67 1583.43 341.575 1587.52 342.568 1591.58 343.882 1595.49 345.487 1642.53 364.964 1651.29 478.348 1652.63 502.35 1646.79 504.131 1639.46 505.679 1639.46 505.679 1636.66 442.899 1620.13 370.103 1590.41 357.781 1578.38 352.788 1565.41 351.532 1553.5 352.613 1524.85 369.286 1504.88 402.778 1501.84 459.134 1498.22 461.558 1495.62 463.398 1494.89 464.157 1482.95 476.45 1482.22 482.203 1519.13 500.336 1556.04 518.499 1586.06 528.485 1604.89 536.164 1623.7 543.845 1650.94 549.86 1710.07 534.296 1775.95 521.184 1748.44 491.751 1716.7 459.66Z" stroke="#FFFFFF" stroke-width="4.63492" fill="#0F1113"/></g></g></g><g clip-path="url(#clip12)"><g clip-path="url(#clip13)"><g clip-path="url(#clip14)"><path d="M310.084 165.013 272.341 168.66C262.819 156.163 249.055 158.174 248.416 158.041L248.032 158.168C234.159 158.168 221.086 174.441 224.363 189.514L204.083 187.595 194.04 156.569 191.865 163.286 160.648 161.366 159.687 154.968 156.04 130.02C277.329 118.706 235.441 122.613 244.513 121.767L252.317 144.798 302.663 126.886Z" stroke="#FFFFFF" stroke-width="4.60891" fill="#0F1113" transform="matrix(-1 0 0 1 1701 87)"/><path d="M345.738 215.633C343.975 226.581 330.85 230.838 323.031 224.353 317.262 219.856 315.614 211.562 320.426 204.759 326.326 197.101 337.444 197.29 343.076 204.759 346.933 209.858 345.671 214.993 345.738 215.633Z" stroke="#FFFFFF" stroke-width="4.60891" fill="#0F1113" transform="matrix(-1 0 0 1 1701 87)"/><path d="M333.252 307.432C332.398 313.411 326.984 318.474 320.228 318.474 312.977 318.474 306.921 312.501 306.921 305.224 306.921 298.153 312.667 291.917 320.228 291.917 334.609 291.915 333.133 306.779 333.252 307.432Z" stroke="#FFFFFF" stroke-width="4.60891" fill="#0F1113" transform="matrix(-1 0 0 1 1701 87)"/><path d="M322.431 331.145 284.882 378.678C281.235 370.296 273.175 364.667 263.899 364.349L295.181 312.466C298.891 325.324 312.261 332.808 322.433 331.145Z" stroke="#FFFFFF" stroke-width="4.60891" fill="#0F1113" transform="matrix(-1 0 0 1 1701 87)"/><path d="M318.655 189.835C306.591 196.458 301.521 211.223 306.949 223.803L263.704 208.642C276.079 201.986 280.601 187.354 276.242 176.017Z" stroke="#FFFFFF" stroke-width="4.60891" fill="#0F1113" transform="matrix(-1 0 0 1 1701 87)"/><path d="M347.571 235.191 339.574 287.775C330.52 277.677 316.081 276.92 306.565 282.978L311.682 231.162C318.972 240.53 335.57 243.714 347.571 235.192Z" stroke="#FFFFFF" stroke-width="4.60891" fill="#0F1113" transform="matrix(-1 0 0 1 1701 87)"/><path d="M298.696 424.22C298.696 426.843 296.521 429.016 293.898 429.016L213.741 429.016C211.054 429.016 208.943 426.843 208.943 424.22 208.943 421.535 211.054 419.424 213.741 419.424L220.394 419.424C227.624 410.787 234.596 403.748 241.185 398.886 245.096 407.326 253.78 412.514 262.872 412.514 269.861 412.514 276.421 409.514 280.848 404.451 283.408 408.482 285.901 413.41 288.269 419.421L293.898 419.421C296.519 419.421 298.694 421.535 298.694 424.22Z" stroke="#FFFFFF" stroke-width="4.60891" fill="#0F1113" transform="matrix(-1 0 0 1 1701 87)"/><path d="M274.192 388.405C274.192 392.711 271.814 396.446 268.303 398.371 266.718 399.219 264.849 399.731 262.867 399.731 259.809 399.731 257.091 398.542 254.996 396.618 252.843 394.522 251.542 391.632 251.542 388.405 251.542 382.574 255.959 377.705 261.735 377.138L261.792 377.138C262.132 377.079 262.472 377.079 262.868 377.079 267.964 377.079 272.268 380.474 273.684 385.12 274.022 386.141 274.192 387.275 274.192 388.405Z" stroke="#FFFFFF" stroke-width="4.60891" fill="#0F1113" transform="matrix(-1 0 0 1 1701 87)"/><path d="M119.32 146.652 119.32 139.615 96.227 139.615C93.6032 139.615 91.4298 137.44 91.4298 134.818 91.4298 132.194 93.6047 130.021 96.227 130.021L143.119 130.021 146.318 152.218Z" stroke="#FFFFFF" stroke-width="4.60891" fill="#0F1113" transform="matrix(-1 0 0 1 1701 87)"/><path d="M250.888 199.097C241.72 199.097 234.709 190.48 237.299 180.977 237.299 180.92 237.356 180.807 237.356 180.75 238.643 176.892 241.153 174.062 244.491 172.313 251.729 169.099 258.482 171.497 262.215 176.448 269.093 185.526 262.714 199.098 250.888 199.098Z" stroke="#FFFFFF" stroke-width="4.60891" fill="#0F1113" transform="matrix(-1 0 0 1 1701 87)"/><path d="M188.77 82.8978C188.77 87.3134 185.19 90.8931 180.775 90.8931 176.358 90.8931 172.778 87.3134 172.778 82.8978 172.778 78.4808 176.358 74.9011 180.775 74.9011 185.19 74.9011 188.77 78.4808 188.77 82.8978" stroke="#FFFFFF" stroke-width="4.60891" fill="#0F1113" transform="matrix(-1 0 0 1 1701 87)"/><path d="M256.347 82.104C255.334 75.1502 260.019 107.292 246.431 14.1029 246.239 12.7596 245.472 11.6078 244.383 10.8404 243.296 10.073 241.952 9.81717 240.673 10.073 233.132 11.7535 267.995 3.98367 166.914 26.5139 164.291 27.0898 162.692 29.6478 163.331 32.2714 163.851 34.4807 165.952 36.3771 169.089 35.854L185.786 31.8883 187.641 44.298C187.641 44.3624 187.641 44.4897 187.705 44.5541 187.705 44.6181 187.705 44.7454 187.769 44.8098L141.327 54.9174 141.135 54.9818 149.644 117.225C150.348 117.16 255.26 107.373 255.26 107.373L252.382 87.5421C254.938 87.0932 256.729 84.7252 256.346 82.1032ZM180.795 100.464C171.072 100.464 163.202 92.5961 163.202 82.8715 163.202 73.2113 171.07 65.2786 180.795 65.2786 190.455 65.2786 198.388 73.2113 198.388 82.8715 198.386 92.5946 190.454 100.464 180.795 100.464Z" stroke="#FFFFFF" stroke-width="4.60891" fill="#0F1113" transform="matrix(-1 0 0 1 1701 87)"/></g></g></g></g></svg>