<svg width="560" height="579" xmlns="http://www.w3.org/2000/svg" xmlns:xlink="http://www.w3.org/1999/xlink" overflow="hidden"><defs><clipPath id="clip0"><rect x="2405" y="46" width="560" height="579"/></clipPath><radialGradient cx="762000" cy="762000" r="1.07763e+06" gradientUnits="userSpaceOnUse" spreadMethod="pad" id="fill1" gradientTransform="matrix(0.000360892 0 0 0.000360892 2415 46.0001)"><stop offset="0" stop-color="#D9D9D9"/><stop offset="0.17" stop-color="#D9D9D9"/><stop offset="0.33" stop-color="#7F7F7F"/><stop offset="1" stop-color="#0F1113"/></radialGradient><radialGradient cx="372687" cy="432262" r="570742" fx="372687" fy="432262" gradientUnits="userSpaceOnUse" spreadMethod="pad" id="fill2" gradientTransform="matrix(0.000360892 0 0 0.000360892 2436 65)"><stop offset="0" stop-color="#FFFFFF"/><stop offset="0.54" stop-color="#7F7F7F" stop-opacity="0"/><stop offset="1" stop-color="#7F7F7F" stop-opacity="0"/></radialGradient><clipPath id="clip3"><rect x="2448" y="66" width="429" height="429"/></clipPath><clipPath id="clip4"><rect x="2448" y="66" width="429" height="429"/></clipPath><clipPath id="clip5"><rect x="2448" y="66" width="429" height="429"/></clipPath><linearGradient x1="2688.5" y1="50.9999" x2="2688.5" y2="206" gradientUnits="userSpaceOnUse" spreadMethod="reflect" id="fill6"><stop offset="0" stop-color="#F5FAFF" stop-opacity="0.231373"/><stop offset="0.32" stop-color="#FFFFFF" stop-opacity="0"/><stop offset="1" stop-color="#FFFFFF" stop-opacity="0"/></linearGradient><radialGradient cx="94211" cy="102524" r="139236" gradientUnits="userSpaceOnUse" spreadMethod="pad" id="fill7" gradientTransform="matrix(0.000360892 0 0 0.000360892 2454 174)"><stop offset="0" stop-color="#FFFFFF"/><stop offset="0.54" stop-color="#7F7F7F" stop-opacity="0"/><stop offset="1" stop-color="#7F7F7F" stop-opacity="0"/></radialGradient><radialGradient cx="110836" cy="120534" r="163748" gradientUnits="userSpaceOnUse" spreadMethod="pad" id="fill8" gradientTransform="matrix(0.000360892 0 0 0.000360892 2483 219)"><stop offset="0" stop-color="#FFFFFF"/><stop offset="0.54" stop-color="#7F7F7F" stop-opacity="0"/><stop offset="1" stop-color="#7F7F7F" stop-opacity="0"/></radialGradient><radialGradient cx="292331" cy="278477" r="403741" fx="292331" fy="278476" gradientUnits="userSpaceOnUse" spreadMethod="pad" id="fill9" gradientTransform="matrix(0.000360892 0 0 0.000360892 2704 350)"><stop offset="0" stop-color="#FFFFFF"/><stop offset="0.54" stop-color="#7F7F7F" stop-opacity="0"/><stop offset="1" stop-color="#7F7F7F" stop-opacity="0"/></radialGradient><radialGradient cx="70658" cy="77585" r="104938" fx="70658" fy="77585" gradientUnits="userSpaceOnUse" spreadMethod="pad" id="fill10" gradientTransform="matrix(0.000360892 0 0 0.000360892 2850 478)"><stop offset="0" stop-color="#FFFFFF"/><stop offset="0.54" stop-color="#7F7F7F" stop-opacity="0"/><stop offset="1" stop-color="#7F7F7F" stop-opacity="0"/></radialGradient><radialGradient cx="77585.5" cy="84513" r="114726" fx="77585.5" fy="84513" gradientUnits="userSpaceOnUse" spreadMethod="pad" id="fill11" gradientTransform="matrix(0.000360892 0 0 0.000360892 2833 395)"><stop offset="0" stop-color="#FFFFFF"/><stop offset="0.54" stop-color="#7F7F7F" stop-opacity="0"/><stop offset="1" stop-color="#7F7F7F" stop-opacity="0"/></radialGradient><clipPath id="clip12"><rect x="2662" y="294" width="292" height="294"/></clipPath><clipPath id="clip13"><rect x="2662" y="294" width="292" height="294"/></clipPath><clipPath id="clip14"><rect x="2662" y="294" width="292" height="294"/></clipPath></defs><g clip-path="url(#clip0)" transform="translate(-2405 -46)"><rect x="2415" y="46.0001" width="550" height="550" fill="url(#fill1)"/><path d="M2436 221C2436 134.844 2496.22 65 2570.5 65 2644.78 65 2705 134.844 2705 221 2705 307.156 2644.78 377 2570.5 377 2496.22 377 2436 307.156 2436 221Z" fill="url(#fill2)" fill-rule="evenodd"/><g clip-path="url(#clip3)"><g clip-path="url(#clip4)"><g clip-path="url(#clip5)"><path d="M178.89 271.245 128.2 271.245 128.2 288.432 33.3055 288.432 60.9251 324.345 342.938 324.345 387.208 252.455 178.893 252.455Z" stroke="#FFFFFF" stroke-width="4.60215" fill="#0F1113" transform="matrix(1 0 0 1.00234 2449 66)"/><path d="M187.114 212.463 253.989 212.463 253.989 245.766 187.114 245.766Z" stroke="#FFFFFF" stroke-width="4.60215" fill="#0F1113" transform="matrix(1 0 0 1.00234 2449 66)"/><path d="M214 110.346C214 107.956 212.725 105.749 210.656 104.554 208.587 103.36 206.038 103.36 203.969 104.554 201.9 105.75 200.625 107.956 200.625 110.346L200.625 118.705 214 118.705Z" stroke="#FFFFFF" stroke-width="4.60215" fill="#0F1113" transform="matrix(1 0 0 1.00234 2449 66)"/><path d="M200.489 152.14 213.864 152.14 213.864 205.775 200.489 205.775Z" stroke="#FFFFFF" stroke-width="4.60215" fill="#0F1113" transform="matrix(1 0 0 1.00234 2449 66)"/><path d="M165.918 125.39 248.443 125.39 248.443 145.452 165.918 145.452Z" stroke="#FFFFFF" stroke-width="4.60215" fill="#0F1113" transform="matrix(1 0 0 1.00234 2449 66)"/><path d="M46.1455 270.71 68.1476 277.397C68.7914 277.492 69.4434 277.492 70.0868 277.397L70.0868 281.41 96.8368 281.41 96.8368 261.347 70.0868 261.347 70.0868 263.688 50.0243 257.602C47.7951 257.075 45.4522 257.724 43.8133 259.323 42.1737 260.923 41.4671 263.251 41.9397 265.491 42.4134 267.733 44.0002 269.575 46.1459 270.376Z" stroke="#FFFFFF" stroke-width="4.60215" fill="#0F1113" transform="matrix(1 0 0 1.00234 2449 66)"/><path d="M108.537 253.123 130.539 259.81C131.183 259.905 131.835 259.905 132.478 259.81L132.478 264.224 159.228 264.224 159.228 244.094 132.478 244.094 132.478 246.435 112.416 240.35C110.187 239.822 107.844 240.471 106.205 242.07 104.565 243.67 103.859 245.998 104.331 248.238 104.805 250.48 106.392 252.322 108.538 253.123Z" stroke="#FFFFFF" stroke-width="4.60215" fill="#0F1113" transform="matrix(1 0 0 1.00234 2449 66)"/><path d="M300.937 241.752C301.581 241.847 302.233 241.847 302.877 241.752L324.879 235.065C327.221 234.372 329.014 232.483 329.585 230.108 330.155 227.734 329.417 225.236 327.646 223.554 325.875 221.874 323.342 221.265 321 221.957L300.937 228.043 300.937 225.702 274.187 225.702 274.187 245.765 300.937 245.765Z" stroke="#FFFFFF" stroke-width="4.60215" fill="#0F1113" transform="matrix(1 0 0 1.00234 2449 66)"/><path d="M394.545 226.441C394.035 224.735 392.865 223.303 391.295 222.462 389.73 221.622 387.889 221.44 386.184 221.96L366.122 228.046 366.122 225.705 339.373 225.705 339.373 245.767 366.122 245.767 366.122 241.755C366.767 241.85 367.42 241.85 368.062 241.755L390.065 235.067C391.83 234.563 393.318 233.351 394.163 231.72 395.012 230.086 395.151 228.178 394.545 226.441Z" stroke="#FFFFFF" stroke-width="4.60215" fill="#0F1113" transform="matrix(1 0 0 1.00234 2449 66)"/><path d="M237.272 180.027C235.499 180.027 233.798 180.733 232.544 181.986 231.29 183.24 230.585 184.941 230.585 186.715L230.585 205.775 243.96 205.775 243.96 186.715C243.96 184.942 243.255 183.24 242.001 181.986 240.747 180.733 239.046 180.027 237.272 180.027Z" stroke="#FFFFFF" stroke-width="4.60215" fill="#0F1113" transform="matrix(1 0 0 1.00234 2449 66)"/></g></g></g><path d="M2449.73 50.9999 2927.27 50.9999C2943.14 50.9999 2956 70.9928 2956 95.6556L2956 206C2956 167.576 2935.96 136.427 2911.23 136.427L2465.77 136.427C2441.04 136.427 2421 167.576 2421 206L2421 95.6556C2421 70.9928 2433.86 50.9999 2449.73 50.9999Z" fill="url(#fill6)" fill-rule="evenodd"/><path d="M2454 211C2454 190.565 2469.22 174 2488 174 2506.78 174 2522 190.565 2522 211 2522 231.434 2506.78 248 2488 248 2469.22 248 2454 231.434 2454 211Z" fill="url(#fill7)" fill-rule="evenodd"/><path d="M2483 262.5C2483 238.476 2500.91 219 2523 219 2545.09 219 2563 238.476 2563 262.5 2563 286.524 2545.09 306 2523 306 2500.91 306 2483 286.524 2483 262.5Z" fill="url(#fill8)" fill-rule="evenodd"/><path d="M2704 450.5C2704 394.995 2751.23 350 2809.5 350 2867.77 350 2915 394.995 2915 450.5 2915 506.005 2867.77 551 2809.5 551 2751.23 551 2704 506.005 2704 450.5Z" fill="url(#fill9)" fill-rule="evenodd"/><path d="M2850 506C2850 490.536 2861.42 478 2875.5 478 2889.58 478 2901 490.536 2901 506 2901 521.464 2889.58 534 2875.5 534 2861.42 534 2850 521.464 2850 506Z" fill="url(#fill10)" fill-rule="evenodd"/><path d="M2833 425.5C2833 408.655 2845.54 395 2861 395 2876.46 395 2889 408.655 2889 425.5 2889 442.345 2876.46 456 2861 456 2845.54 456 2833 442.345 2833 425.5Z" fill="url(#fill11)" fill-rule="evenodd"/><path d="M2417.5 597.5 2417.5 337.5 2665.5 597.5Z" stroke="#0F1113" stroke-width="4.58333" stroke-miterlimit="8" fill="#F2F2F2" fill-rule="evenodd"/><text fill="#0F1113" font-family="Aurebesh,Aurebesh_MSFontService,sans-serif" font-weight="700" font-size="83" transform="matrix(1 0 0 1 2454.76 556)">A</text><g clip-path="url(#clip12)"><g clip-path="url(#clip13)"><g clip-path="url(#clip14)"><path d="M2905.7 459.659C2902.34 390.338 2869.34 353.196 2832.7 343.209 2868.61 359.269 2890.4 411.8 2895.3 471.543 2890.92 475.865 2884.47 479.515 2884.47 479.515 2882.02 424.503 2863.74 374.512 2834.13 354.656 2821.28 346.043 2808.14 340.26 2791.94 338.013 2786.97 338.363 2777.16 340.67 2772.43 341.575 2776.52 342.568 2780.58 343.882 2784.49 345.487 2831.53 364.964 2840.29 478.348 2841.63 502.35 2835.79 504.131 2828.46 505.679 2828.46 505.679 2825.66 442.899 2809.13 370.103 2779.41 357.781 2767.38 352.788 2754.41 351.532 2742.5 352.613 2713.85 369.286 2693.88 402.778 2690.84 459.134 2687.22 461.558 2684.62 463.398 2683.89 464.157 2671.95 476.45 2671.22 482.203 2708.13 500.336 2745.04 518.499 2775.06 528.485 2793.89 536.164 2812.7 543.845 2839.94 549.86 2899.07 534.296 2964.94 521.184 2937.44 491.751 2905.7 459.66Z" stroke="#FFFFFF" stroke-width="4.63491" fill="#0F1113"/></g></g></g></g></svg>