<svg width="560" height="579" xmlns="http://www.w3.org/2000/svg" xmlns:xlink="http://www.w3.org/1999/xlink" overflow="hidden"><defs><clipPath id="clip0"><rect x="622" y="1185" width="560" height="579"/></clipPath><radialGradient cx="762000" cy="762000" r="1.07763e+06" gradientUnits="userSpaceOnUse" spreadMethod="pad" id="fill1" gradientTransform="matrix(0.000360892 0 0 0.000360892 632 1185)"><stop offset="0" stop-color="#D9D9D9"/><stop offset="0.17" stop-color="#D9D9D9"/><stop offset="0.33" stop-color="#7F7F7F"/><stop offset="1" stop-color="#0F1113"/></radialGradient><radialGradient cx="372687" cy="432261" r="570741" fx="372687" fy="432262" gradientUnits="userSpaceOnUse" spreadMethod="pad" id="fill2" gradientTransform="matrix(0.000360892 0 0 0.000360892 653 1204)"><stop offset="0" stop-color="#FFFFFF"/><stop offset="0.54" stop-color="#7F7F7F" stop-opacity="0"/><stop offset="1" stop-color="#7F7F7F" stop-opacity="0"/></radialGradient><linearGradient x1="905.5" y1="1191" x2="905.5" y2="1345" gradientUnits="userSpaceOnUse" spreadMethod="reflect" id="fill3"><stop offset="0" stop-color="#F5FAFF" stop-opacity="0.231373"/><stop offset="0.32" stop-color="#FFFFFF" stop-opacity="0"/><stop offset="1" stop-color="#FFFFFF" stop-opacity="0"/></linearGradient><radialGradient cx="94211" cy="102524" r="139236" gradientUnits="userSpaceOnUse" spreadMethod="pad" id="fill4" gradientTransform="matrix(0.000360892 0 0 0.000360892 671 1313)"><stop offset="0" stop-color="#FFFFFF"/><stop offset="0.54" stop-color="#7F7F7F" stop-opacity="0"/><stop offset="1" stop-color="#7F7F7F" stop-opacity="0"/></radialGradient><radialGradient cx="110836" cy="121920" r="164770" fx="110836" fy="121920" gradientUnits="userSpaceOnUse" spreadMethod="pad" id="fill5" gradientTransform="matrix(0.000360892 0 0 0.000360892 700 1358)"><stop offset="0" stop-color="#FFFFFF"/><stop offset="0.54" stop-color="#7F7F7F" stop-opacity="0"/><stop offset="1" stop-color="#7F7F7F" stop-opacity="0"/></radialGradient><radialGradient cx="292331" cy="278476" r="403740" gradientUnits="userSpaceOnUse" spreadMethod="pad" id="fill6" gradientTransform="matrix(0.000360892 0 0 0.000360892 921 1489)"><stop offset="0" stop-color="#FFFFFF"/><stop offset="0.54" stop-color="#7F7F7F" stop-opacity="0"/><stop offset="1" stop-color="#7F7F7F" stop-opacity="0"/></radialGradient><radialGradient cx="70658" cy="77585.5" r="104938" gradientUnits="userSpaceOnUse" spreadMethod="pad" id="fill7" gradientTransform="matrix(0.000360892 0 0 0.000360892 1067 1617)"><stop offset="0" stop-color="#FFFFFF"/><stop offset="0.54" stop-color="#7F7F7F" stop-opacity="0"/><stop offset="1" stop-color="#7F7F7F" stop-opacity="0"/></radialGradient><radialGradient cx="77585" cy="83127.5" r="113708" fx="77585" fy="83127.5" gradientUnits="userSpaceOnUse" spreadMethod="pad" id="fill8" gradientTransform="matrix(0.000360892 0 0 0.000360892 1050 1535)"><stop offset="0" stop-color="#FFFFFF"/><stop offset="0.54" stop-color="#7F7F7F" stop-opacity="0"/><stop offset="1" stop-color="#7F7F7F" stop-opacity="0"/></radialGradient><clipPath id="clip9"><rect x="662" y="1200" width="386" height="386"/></clipPath><clipPath id="clip10"><rect x="662" y="1200" width="386" height="386"/></clipPath><clipPath id="clip11"><rect x="662" y="1200" width="386" height="386"/></clipPath><clipPath id="clip12"><rect x="878" y="1434" width="294" height="292"/></clipPath><clipPath id="clip13"><rect x="878" y="1434" width="294" height="292"/></clipPath><clipPath id="clip14"><rect x="878" y="1434" width="294" height="292"/></clipPath></defs><g clip-path="url(#clip0)" transform="translate(-622 -1185)"><rect x="632" y="1185" width="550" height="550" fill="url(#fill1)"/><path d="M653 1360C653 1273.84 713.218 1204 787.5 1204 861.782 1204 922 1273.84 922 1360 922 1446.16 861.782 1516 787.5 1516 713.218 1516 653 1446.16 653 1360Z" fill="url(#fill2)" fill-rule="evenodd"/><path d="M666.734 1191 1144.27 1191C1160.14 1191 1173 1210.86 1173 1235.37L1173 1345C1173 1306.82 1152.96 1275.88 1128.23 1275.88L682.767 1275.88C658.043 1275.88 638 1306.82 638 1345L638 1235.37C638 1210.86 650.864 1191 666.734 1191Z" fill="url(#fill3)" fill-rule="evenodd"/><path d="M671 1350C671 1329.57 686.222 1313 705 1313 723.778 1313 739 1329.57 739 1350 739 1370.43 723.778 1387 705 1387 686.222 1387 671 1370.43 671 1350Z" fill="url(#fill4)" fill-rule="evenodd"/><path d="M700 1402C700 1377.7 717.909 1358 740 1358 762.091 1358 780 1377.7 780 1402 780 1426.3 762.091 1446 740 1446 717.909 1446 700 1426.3 700 1402Z" fill="url(#fill5)" fill-rule="evenodd"/><path d="M921 1589.5C921 1534 968.234 1489 1026.5 1489 1084.77 1489 1132 1534 1132 1589.5 1132 1645 1084.77 1690 1026.5 1690 968.234 1690 921 1645 921 1589.5Z" fill="url(#fill6)" fill-rule="evenodd"/><path d="M1067 1645C1067 1629.54 1078.42 1617 1092.5 1617 1106.58 1617 1118 1629.54 1118 1645 1118 1660.46 1106.58 1673 1092.5 1673 1078.42 1673 1067 1660.46 1067 1645Z" fill="url(#fill7)" fill-rule="evenodd"/><path d="M1050 1565C1050 1548.43 1062.54 1535 1078 1535 1093.46 1535 1106 1548.43 1106 1565 1106 1581.57 1093.46 1595 1078 1595 1062.54 1595 1050 1581.57 1050 1565Z" fill="url(#fill8)" fill-rule="evenodd"/><path d="M634.5 1736.5 634.5 1477.5 882.5 1736.5Z" stroke="#0F1113" stroke-width="4.58333" stroke-miterlimit="8" fill="#F2F2F2" fill-rule="evenodd"/><text fill="#0F1113" font-family="Aurebesh,Aurebesh_MSFontService,sans-serif" font-weight="700" font-size="83" transform="matrix(1 0 0 1 671.738 1695)">A</text><g clip-path="url(#clip9)"><g clip-path="url(#clip10)"><g clip-path="url(#clip11)"><path d="M707.244 1389.01 707.244 1297.49C707.244 1293.95 705.36 1290.69 702.301 1288.92 699.243 1287.16 695.475 1287.16 692.416 1288.92 689.358 1290.69 687.473 1293.95 687.473 1297.49L687.473 1389.01C687.473 1392.54 689.358 1395.81 692.416 1397.57 695.475 1399.34 699.243 1399.34 702.301 1397.57 705.36 1395.81 707.244 1392.54 707.244 1389.01Z" stroke="#FFFFFF" stroke-width="4.58333" fill="#0F1113"/><path d="M885.428 1386.04 959.717 1386.04 987.967 1433.74 840.127 1433.74 840.127 1339.53 885.429 1339.53Z" stroke="#FFFFFF" stroke-width="4.58333" fill="#0F1113"/><path d="M891.126 1380.33 956.329 1380.33 941.651 1355.54C935.771 1345.62 925.091 1339.53 913.553 1339.53L891.128 1339.53Z" stroke="#FFFFFF" stroke-width="4.58333" fill="#0F1113"/><path d="M1030.96 1465.57 678.042 1465.57C678.75 1458.41 682.095 1451.77 687.424 1446.95 692.752 1442.12 699.687 1439.45 706.877 1439.45L1002.13 1439.45C1009.32 1439.45 1016.25 1442.12 1021.58 1446.95 1026.91 1451.78 1030.25 1458.41 1030.96 1465.57Z" stroke="#FFFFFF" stroke-width="4.58333" fill="#0F1113"/><path d="M1030.96 1471.28 678.042 1471.28C678.75 1478.43 682.095 1485.07 687.424 1489.9 692.752 1494.72 699.687 1497.4 706.877 1497.4L1002.13 1497.4C1009.32 1497.4 1016.25 1494.72 1021.58 1489.9 1026.91 1485.07 1030.25 1478.43 1030.96 1471.28Z" stroke="#FFFFFF" stroke-width="4.58333" fill="#0F1113"/><path d="M768.064 1324.11 712.942 1328.53 712.942 1357.97 732.214 1359.52 732.214 1409.56 728.437 1409.56 728.437 1433.74 768.602 1433.74 768.602 1409.56 764.804 1409.56 764.804 1362.13 768.062 1362.37 768.063 1362.37C769.738 1362.5 771.391 1361.93 772.624 1360.79 773.857 1359.65 774.559 1358.05 774.559 1356.37L774.559 1330.11C774.559 1328.43 773.857 1326.82 772.624 1325.68 771.391 1324.54 769.738 1323.97 768.063 1324.1Z" stroke="#FFFFFF" stroke-width="4.58333" fill="#0F1113"/></g></g></g><g clip-path="url(#clip12)"><g clip-path="url(#clip13)"><g clip-path="url(#clip14)"><path d="M1122.7 1598.66C1119.34 1529.34 1086.34 1492.2 1049.7 1482.21 1085.61 1498.27 1107.4 1550.8 1112.3 1610.54 1107.92 1614.87 1101.47 1618.52 1101.47 1618.52 1099.02 1563.5 1080.74 1513.51 1051.13 1493.66 1038.28 1485.04 1025.14 1479.26 1008.94 1477.01 1003.97 1477.36 994.16 1479.67 989.43 1480.58 993.518 1481.57 997.576 1482.88 1001.49 1484.49 1048.53 1503.96 1057.29 1617.35 1058.63 1641.35 1052.79 1643.13 1045.46 1644.68 1045.46 1644.68 1042.66 1581.9 1026.13 1509.1 996.408 1496.78 984.377 1491.79 971.413 1490.53 959.499 1491.61 930.854 1508.29 910.881 1541.78 907.844 1598.13 904.224 1600.56 901.625 1602.4 900.895 1603.16 888.953 1615.45 888.223 1621.2 925.131 1639.34 962.04 1657.5 992.058 1667.48 1010.89 1675.16 1029.7 1682.84 1056.94 1688.86 1116.07 1673.3 1181.95 1660.18 1154.44 1630.75 1122.7 1598.66Z" stroke="#FFFFFF" stroke-width="4.63492" fill="#0F1113"/></g></g></g></g></svg>