<svg width="560" height="579" xmlns="http://www.w3.org/2000/svg" xmlns:xlink="http://www.w3.org/1999/xlink" overflow="hidden"><defs><clipPath id="clip0"><rect x="37" y="1185" width="560" height="579"/></clipPath><radialGradient cx="762000" cy="762000" r="1.07763e+06" gradientUnits="userSpaceOnUse" spreadMethod="pad" id="fill1" gradientTransform="matrix(0.000360892 0 0 0.000360892 47.0001 1185)"><stop offset="0" stop-color="#D9D9D9"/><stop offset="0.17" stop-color="#D9D9D9"/><stop offset="0.33" stop-color="#7F7F7F"/><stop offset="1" stop-color="#0F1113"/></radialGradient><radialGradient cx="372687" cy="432261" r="570741" fx="372687" fy="432262" gradientUnits="userSpaceOnUse" spreadMethod="pad" id="fill2" gradientTransform="matrix(0.000360892 0 0 0.000360892 68.0001 1204)"><stop offset="0" stop-color="#FFFFFF"/><stop offset="0.54" stop-color="#7F7F7F" stop-opacity="0"/><stop offset="1" stop-color="#7F7F7F" stop-opacity="0"/></radialGradient><linearGradient x1="320.5" y1="1191" x2="320.5" y2="1345" gradientUnits="userSpaceOnUse" spreadMethod="reflect" id="fill3"><stop offset="0" stop-color="#F5FAFF" stop-opacity="0.231373"/><stop offset="0.32" stop-color="#FFFFFF" stop-opacity="0"/><stop offset="1" stop-color="#FFFFFF" stop-opacity="0"/></linearGradient><radialGradient cx="94211" cy="102524" r="139236" gradientUnits="userSpaceOnUse" spreadMethod="pad" id="fill4" gradientTransform="matrix(0.000360892 0 0 0.000360892 85.9999 1313)"><stop offset="0" stop-color="#FFFFFF"/><stop offset="0.54" stop-color="#7F7F7F" stop-opacity="0"/><stop offset="1" stop-color="#7F7F7F" stop-opacity="0"/></radialGradient><radialGradient cx="110836" cy="121920" r="164770" fx="110836" fy="121920" gradientUnits="userSpaceOnUse" spreadMethod="pad" id="fill5" gradientTransform="matrix(0.000360892 0 0 0.000360892 115 1358)"><stop offset="0" stop-color="#FFFFFF"/><stop offset="0.54" stop-color="#7F7F7F" stop-opacity="0"/><stop offset="1" stop-color="#7F7F7F" stop-opacity="0"/></radialGradient><radialGradient cx="292331" cy="278476" r="403740" gradientUnits="userSpaceOnUse" spreadMethod="pad" id="fill6" gradientTransform="matrix(0.000360892 0 0 0.000360892 336 1489)"><stop offset="0" stop-color="#FFFFFF"/><stop offset="0.54" stop-color="#7F7F7F" stop-opacity="0"/><stop offset="1" stop-color="#7F7F7F" stop-opacity="0"/></radialGradient><radialGradient cx="70658.5" cy="77585.5" r="104939" fx="70658.5" fy="77585.5" gradientUnits="userSpaceOnUse" spreadMethod="pad" id="fill7" gradientTransform="matrix(0.000360892 0 0 0.000360892 482 1617)"><stop offset="0" stop-color="#FFFFFF"/><stop offset="0.54" stop-color="#7F7F7F" stop-opacity="0"/><stop offset="1" stop-color="#7F7F7F" stop-opacity="0"/></radialGradient><radialGradient cx="77585.5" cy="83127.5" r="113709" gradientUnits="userSpaceOnUse" spreadMethod="pad" id="fill8" gradientTransform="matrix(0.000360892 0 0 0.000360892 465 1535)"><stop offset="0" stop-color="#FFFFFF"/><stop offset="0.54" stop-color="#7F7F7F" stop-opacity="0"/><stop offset="1" stop-color="#7F7F7F" stop-opacity="0"/></radialGradient><clipPath id="clip9"><rect x="70" y="1197" width="477" height="480"/></clipPath><clipPath id="clip10"><rect x="70" y="1197" width="477" height="480"/></clipPath><clipPath id="clip11"><rect x="70" y="1197" width="477" height="480"/></clipPath><clipPath id="clip12"><rect x="293" y="1434" width="294" height="292"/></clipPath><clipPath id="clip13"><rect x="293" y="1434" width="294" height="292"/></clipPath><clipPath id="clip14"><rect x="293" y="1434" width="294" height="292"/></clipPath></defs><g clip-path="url(#clip0)" transform="translate(-37 -1185)"><rect x="47.0001" y="1185" width="550" height="550" fill="url(#fill1)"/><path d="M68.0001 1360C68.0001 1273.84 128.218 1204 202.5 1204 276.782 1204 337 1273.84 337 1360 337 1446.16 276.782 1516 202.5 1516 128.218 1516 68.0001 1446.16 68.0001 1360Z" fill="url(#fill2)" fill-rule="evenodd"/><path d="M81.7337 1191 559.266 1191C575.136 1191 588 1210.86 588 1235.37L588 1345C588 1306.82 567.957 1275.88 543.233 1275.88L97.7667 1275.88C73.0427 1275.88 52.9999 1306.82 52.9999 1345L52.9999 1235.37C52.9999 1210.86 65.8644 1191 81.7337 1191Z" fill="url(#fill3)" fill-rule="evenodd"/><path d="M85.9999 1350C85.9999 1329.57 101.222 1313 120 1313 138.778 1313 154 1329.57 154 1350 154 1370.43 138.778 1387 120 1387 101.222 1387 85.9999 1370.43 85.9999 1350Z" fill="url(#fill4)" fill-rule="evenodd"/><path d="M115 1402C115 1377.7 132.909 1358 155 1358 177.091 1358 195 1377.7 195 1402 195 1426.3 177.091 1446 155 1446 132.909 1446 115 1426.3 115 1402Z" fill="url(#fill5)" fill-rule="evenodd"/><path d="M336 1589.5C336 1534 383.234 1489 441.5 1489 499.766 1489 547 1534 547 1589.5 547 1645 499.766 1690 441.5 1690 383.234 1690 336 1645 336 1589.5Z" fill="url(#fill6)" fill-rule="evenodd"/><path d="M482 1645C482 1629.54 493.417 1617 507.5 1617 521.583 1617 533 1629.54 533 1645 533 1660.46 521.583 1673 507.5 1673 493.417 1673 482 1660.46 482 1645Z" fill="url(#fill7)" fill-rule="evenodd"/><path d="M465 1565C465 1548.43 477.536 1535 493 1535 508.464 1535 521 1548.43 521 1565 521 1581.57 508.464 1595 493 1595 477.536 1595 465 1581.57 465 1565Z" fill="url(#fill8)" fill-rule="evenodd"/><path d="M49.5 1736.5 49.5 1477.5 297.5 1736.5Z" stroke="#0F1113" stroke-width="4.58333" stroke-miterlimit="8" fill="#F2F2F2" fill-rule="evenodd"/><text fill="#0F1113" font-family="Aurebesh,Aurebesh_MSFontService,sans-serif" font-weight="700" font-size="83" transform="matrix(1 0 0 1 86.7416 1695)">A</text><g clip-path="url(#clip9)"><g clip-path="url(#clip10)"><g clip-path="url(#clip11)"><path d="M230.884 50.2758 242.433 50.2758 250.176 98.5799 259.21 265.403 260.996 284.077 261.926 284.683 263.119 299.257 291.318 299.257 291.974 313.189 309.573 313.189 312.307 315.357 379.846 315.978 379.846 301.084 378.808 300.325 378.808 294.263 383.817 293.39 383.817 235.952 385.05 234.329 385.05 189.256 383.817 188.954 381.34 188.031 382.662 184.542 385.05 185.499 381.712 174.72 385.441 174.72 386.154 152.861 387.172 152.861 387.96 174.72 392.144 174.72 388.483 185.499 391.371 184.542 392.144 187.724 389.755 188.954 388.483 189.257 388.483 234.329 389.755 235.952 389.755 293.391 394.784 294.263 394.784 300.325 393.913 301.084 393.913 305.471 395.121 306.387 395.83 315.978 395.83 336.439 398.112 336.439 398.112 353.055 395.121 353.055 395.121 369.715 392.522 370.057 392.522 373.346 393.338 375.665 381.712 375.665 382.662 373.346 382.662 370.057 380.249 369.715 380.249 368.02 312.304 384.853 312.304 381.498 284.342 381.498 283.209 416.771 284.342 426.354 283.209 440.116 264.792 440.116 264.087 426.354 264.792 416.771 264.792 383.417 260.992 383.417 263.115 385.799 259.206 399.006 214.647 399.006 211.704 385.425 214.647 383.417 209.386 383.417 209.386 416.771 210.184 426.354 209.386 440.116 189.822 440.116 189.011 426.354 189.822 416.771 189.37 382.532 164.573 382.532 161.825 384.853 94.4126 368.753 94.4126 370.576 91.9095 370.576 91.9095 374.524 92.6083 376.929 81.1846 376.929 81.1846 374.524 82.5202 374.524 82.5202 371.333 79.6645 370.057 79.1569 354.719 76.8077 353.964 76.8077 337.6 78.3138 337.6 79.1569 307.414 80.4162 306.727 80.4162 301.991 79.1569 301.085 79.1569 295.858 80.0978 294.264 83.8693 294.264 83.8693 236.507 85.3897 234.745 85.8679 190.054 82.5202 187.728 83.3044 184.546 85.8679 185.502 83.3044 177.436 86.2141 176.461 86.8943 153.676 88.3491 153.676 88.8738 176.461 91.9095 177.436 88.8738 185.502 91.9095 184.546 92.6083 187.728 88.8738 190.054 88.8738 234.745 90.2901 236.507 89.8986 294.264 93.934 294.264 95.3749 295.858 95.3749 301.085 93.934 301.991 93.934 306.387 94.8101 310.064 94.4126 317.073 161.825 315.979 167.315 313.19 182.014 312.786 182.014 301.413 186.325 299.257 211.04 299.257 212.099 284.683 212.932 284.078 214.647 265.403 224.446 98.5807Z" stroke="#FFFFFF" stroke-width="5.34454" fill="#0F1113" fill-rule="evenodd" transform="matrix(6.13608e-17 1.0021 -1 6.12323e-17 547 1198)"/></g></g></g><g clip-path="url(#clip12)"><g clip-path="url(#clip13)"><g clip-path="url(#clip14)"><path d="M537.698 1598.66C534.34 1529.34 501.344 1492.2 464.698 1482.21 500.614 1498.27 522.398 1550.8 527.303 1610.54 522.923 1614.87 516.47 1618.52 516.47 1618.52 514.018 1563.5 495.738 1513.51 466.129 1493.66 453.281 1485.04 440.141 1479.26 423.935 1477.01 418.972 1477.36 409.16 1479.67 404.43 1480.58 408.518 1481.57 412.576 1482.88 416.489 1484.49 463.53 1503.96 472.29 1617.35 473.633 1641.35 467.793 1643.13 460.464 1644.68 460.464 1644.68 457.661 1581.9 441.133 1509.1 411.408 1496.78 399.377 1491.79 386.413 1490.53 374.499 1491.61 345.854 1508.29 325.881 1541.78 322.844 1598.13 319.224 1600.56 316.625 1602.4 315.895 1603.16 303.952 1615.45 303.223 1621.2 340.131 1639.34 377.04 1657.5 407.058 1667.48 425.892 1675.16 444.697 1682.84 471.94 1688.86 531.07 1673.3 596.945 1660.18 569.439 1630.75 537.698 1598.66Z" stroke="#FFFFFF" stroke-width="4.63492" fill="#0F1113"/></g></g></g></g></svg>