<svg width="560" height="580" xmlns="http://www.w3.org/2000/svg" xmlns:xlink="http://www.w3.org/1999/xlink" overflow="hidden"><defs><clipPath id="clip0"><rect x="1814" y="614" width="560" height="580"/></clipPath><radialGradient cx="762000" cy="762000" r="1.07763e+06" gradientUnits="userSpaceOnUse" spreadMethod="pad" id="fill1" gradientTransform="matrix(0.000360892 0 0 0.000360892 1824 614)"><stop offset="0" stop-color="#D9D9D9"/><stop offset="0.17" stop-color="#D9D9D9"/><stop offset="0.33" stop-color="#7F7F7F"/><stop offset="1" stop-color="#0F1113"/></radialGradient><radialGradient cx="374073" cy="433648" r="572696" gradientUnits="userSpaceOnUse" spreadMethod="pad" id="fill2" gradientTransform="matrix(0.000360892 0 0 0.000360892 1845 633)"><stop offset="0" stop-color="#FFFFFF"/><stop offset="0.54" stop-color="#7F7F7F" stop-opacity="0"/><stop offset="1" stop-color="#7F7F7F" stop-opacity="0"/></radialGradient><linearGradient x1="2097.5" y1="620" x2="2097.5" y2="774" gradientUnits="userSpaceOnUse" spreadMethod="reflect" id="fill3"><stop offset="0" stop-color="#F5FAFF" stop-opacity="0.231373"/><stop offset="0.32" stop-color="#FFFFFF" stop-opacity="0"/><stop offset="1" stop-color="#FFFFFF" stop-opacity="0"/></linearGradient><radialGradient cx="94210.5" cy="102524" r="139236" gradientUnits="userSpaceOnUse" spreadMethod="pad" id="fill4" gradientTransform="matrix(0.000360892 0 0 0.000360892 1863 742)"><stop offset="0" stop-color="#FFFFFF"/><stop offset="0.54" stop-color="#7F7F7F" stop-opacity="0"/><stop offset="1" stop-color="#7F7F7F" stop-opacity="0"/></radialGradient><radialGradient cx="112222" cy="120534" r="164689" gradientUnits="userSpaceOnUse" spreadMethod="pad" id="fill5" gradientTransform="matrix(0.000360892 0 0 0.000360892 1892 788)"><stop offset="0" stop-color="#FFFFFF"/><stop offset="0.54" stop-color="#7F7F7F" stop-opacity="0"/><stop offset="1" stop-color="#7F7F7F" stop-opacity="0"/></radialGradient><radialGradient cx="293716" cy="279862" r="405699" gradientUnits="userSpaceOnUse" spreadMethod="pad" id="fill6" gradientTransform="matrix(0.000360892 0 0 0.000360892 2113 918)"><stop offset="0" stop-color="#FFFFFF"/><stop offset="0.54" stop-color="#7F7F7F" stop-opacity="0"/><stop offset="1" stop-color="#7F7F7F" stop-opacity="0"/></radialGradient><radialGradient cx="72043.5" cy="77585.5" r="105876" fx="72043.5" fy="77585.5" gradientUnits="userSpaceOnUse" spreadMethod="pad" id="fill7" gradientTransform="matrix(0.000360892 0 0 0.000360892 2259 1047)"><stop offset="0" stop-color="#FFFFFF"/><stop offset="0.54" stop-color="#7F7F7F" stop-opacity="0"/><stop offset="1" stop-color="#7F7F7F" stop-opacity="0"/></radialGradient><radialGradient cx="77585.5" cy="83127.5" r="113709" gradientUnits="userSpaceOnUse" spreadMethod="pad" id="fill8" gradientTransform="matrix(0.000360892 0 0 0.000360892 2243 964)"><stop offset="0" stop-color="#FFFFFF"/><stop offset="0.54" stop-color="#7F7F7F" stop-opacity="0"/><stop offset="1" stop-color="#7F7F7F" stop-opacity="0"/></radialGradient><clipPath id="clip9"><rect x="1844" y="632" width="383" height="384"/></clipPath><clipPath id="clip10"><rect x="1844" y="632" width="383" height="384"/></clipPath><clipPath id="clip11"><rect x="1844" y="632" width="383" height="384"/></clipPath><clipPath id="clip12"><rect x="2071" y="863" width="292" height="292"/></clipPath><clipPath id="clip13"><rect x="2071" y="863" width="292" height="292"/></clipPath><clipPath id="clip14"><rect x="2071" y="863" width="292" height="292"/></clipPath></defs><g clip-path="url(#clip0)" transform="translate(-1814 -614)"><rect x="1824" y="614" width="550" height="550" fill="url(#fill1)"/><path d="M1845 789.5C1845 703.067 1905.44 633 1980 633 2054.56 633 2115 703.067 2115 789.5 2115 875.932 2054.56 946 1980 946 1905.44 946 1845 875.932 1845 789.5Z" fill="url(#fill2)" fill-rule="evenodd"/><path d="M1858.73 620 2336.27 620C2352.14 620 2365 639.864 2365 664.368L2365 774C2365 735.824 2344.96 704.876 2320.23 704.876L1874.77 704.876C1850.04 704.876 1830 735.824 1830 774L1830 664.368C1830 639.864 1842.86 620 1858.73 620Z" fill="url(#fill3)" fill-rule="evenodd"/><path d="M1863 779C1863 758.566 1878.22 742 1897 742 1915.78 742 1931 758.566 1931 779 1931 799.435 1915.78 816 1897 816 1878.22 816 1863 799.435 1863 779Z" fill="url(#fill4)" fill-rule="evenodd"/><path d="M1892 831.5C1892 807.475 1910.13 788 1932.5 788 1954.87 788 1973 807.475 1973 831.5 1973 855.524 1954.87 875 1932.5 875 1910.13 875 1892 855.524 1892 831.5Z" fill="url(#fill5)" fill-rule="evenodd"/><path d="M2113 1019C2113 963.219 2160.46 918 2219 918 2277.54 918 2325 963.219 2325 1019 2325 1074.78 2277.54 1120 2219 1120 2160.46 1120 2113 1074.78 2113 1019Z" fill="url(#fill6)" fill-rule="evenodd"/><path d="M2259 1075C2259 1059.54 2270.64 1047 2285 1047 2299.36 1047 2311 1059.54 2311 1075 2311 1090.46 2299.36 1103 2285 1103 2270.64 1103 2259 1090.46 2259 1075Z" fill="url(#fill7)" fill-rule="evenodd"/><path d="M2243 994C2243 977.431 2255.54 964 2271 964 2286.46 964 2299 977.431 2299 994 2299 1010.57 2286.46 1024 2271 1024 2255.54 1024 2243 1010.57 2243 994Z" fill="url(#fill8)" fill-rule="evenodd"/><path d="M1827.5 1165.5 1827.5 906.5 2074.5 1165.5Z" stroke="#0F1113" stroke-width="4.58333" stroke-miterlimit="8" fill="#F2F2F2" fill-rule="evenodd"/><text fill="#0F1113" font-family="Aurebesh,Aurebesh_MSFontService,sans-serif" font-weight="700" font-size="83" transform="matrix(1 0 0 1 1863.92 1125)">A</text><g clip-path="url(#clip9)"><g clip-path="url(#clip10)"><g clip-path="url(#clip11)"><path d="M124.073 190.741 188.916 172.855 188.917 172.856C189.953 172.57 191.047 172.57 192.082 172.856L256.925 190.743 256.927 190.741C258.69 185.555 262.728 181.457 267.89 179.619L267.89 171.502 190.499 154.918 113.109 171.502 113.109 179.619C118.271 181.457 122.309 185.555 124.072 190.741Z" stroke="#FFFFFF" stroke-width="4.57658" fill="#0F1113" transform="matrix(1 0 0 1.00262 1845 633)"/><path d="M184.547 210.011 184.547 186.413 125.016 202.833 125.016 209.059C125.012 211.96 123.95 214.761 122.031 216.935 120.111 219.11 117.464 220.511 114.586 220.873L78.8667 225.337C76.4334 225.648 73.9642 225.197 71.7998 224.044 69.6354 222.89 67.8831 221.092 66.7855 218.899L23.8118 230.753 23.8118 238.711 79.9872 244.521Z" stroke="#FFFFFF" stroke-width="4.57658" fill="#0F1113" transform="matrix(1 0 0 1.00262 1845 633)"/><path d="M191.748 119.196 202.406 121.479 202.406 105.871 191.157 107.121C190.721 107.169 190.279 107.169 189.843 107.121L178.594 105.871 178.594 121.48 189.252 119.197 189.252 119.196C190.074 119.02 190.925 119.02 191.748 119.196Z" stroke="#FFFFFF" stroke-width="4.57658" fill="#0F1113" transform="matrix(1 0 0 1.00262 1845 633)"/><path d="M108.909 247.514 190.5 255.953 272.091 247.514 190.5 220.583ZM196.453 244.08 184.547 244.08 184.547 232.173 196.453 232.173Z" stroke="#FFFFFF" stroke-width="4.57658" fill="#0F1113" transform="matrix(1 0 0 1.00262 1845 633)"/><path d="M148.828 151.67 189.252 143.007 189.252 143.008C190.075 142.832 190.925 142.832 191.748 143.008L232.172 151.67 232.172 140.034 190.5 131.104 148.828 140.034Z" stroke="#FFFFFF" stroke-width="4.57658" fill="#0F1113" transform="matrix(1 0 0 1.00262 1845 633)"/><path d="M189.887 267.859 41.6719 252.526 41.6719 263.816 190.5 279.762 339.328 263.816 339.328 252.526 191.113 267.855C190.705 267.897 190.296 267.897 189.888 267.855Z" stroke="#FFFFFF" stroke-width="4.57658" fill="#0F1113" transform="matrix(1 0 0 1.00262 1845 633)"/><path d="M113.109 196.453C113.108 194.874 112.48 193.361 111.364 192.245 110.248 191.13 108.735 190.501 107.156 190.5L97.557 190.5 100.898 200.524 89.6021 204.289 85.0056 190.5 83.3438 190.5C81.7649 190.501 80.2517 191.13 79.1353 192.245 78.0206 193.361 77.3916 194.874 77.3904 196.453L77.3904 213.522 113.109 209.058Z" stroke="#FFFFFF" stroke-width="4.57658" fill="#0F1113" transform="matrix(1 0 0 1.00262 1845 633)"/><path d="M189.865 291.668 29.7656 274.514 29.7656 286.352 190.5 303.572 351.235 286.352 351.235 274.514 191.135 291.668C190.713 291.714 190.287 291.714 189.865 291.668Z" stroke="#FFFFFF" stroke-width="4.57658" fill="#0F1113" transform="matrix(1 0 0 1.00262 1845 633)"/><path d="M314.214 218.897C313.11 221.086 311.358 222.88 309.194 224.033 307.031 225.185 304.565 225.641 302.133 225.336L266.414 220.871C263.536 220.507 260.889 219.107 258.969 216.933 257.049 214.759 255.988 211.959 255.984 209.058L255.984 202.832 196.453 186.411 196.453 210.009 301.012 244.521 357.188 238.709 357.188 230.752Z" stroke="#FFFFFF" stroke-width="4.57658" fill="#0F1113" transform="matrix(1 0 0 1.00262 1845 633)"/><path d="M267.891 209.058 303.61 213.523 303.621 213.523 303.61 196.453C303.608 194.874 302.98 193.361 301.865 192.245 300.748 191.13 299.235 190.501 297.656 190.5L295.995 190.5 291.398 204.289 280.102 200.524 283.443 190.5 273.844 190.5C272.265 190.502 270.752 191.13 269.635 192.245 268.521 193.362 267.892 194.875 267.89 196.454Z" stroke="#FFFFFF" stroke-width="4.57658" fill="#0F1113" transform="matrix(1 0 0 1.00262 1845 633)"/><path d="M238.125 89.9224 238.125 76.7658 190.5 71.4737 142.875 76.7658 142.875 89.9224 190.5 95.2145Z" stroke="#FFFFFF" stroke-width="4.57658" fill="#0F1113" transform="matrix(1 0 0 1.00262 1845 633)"/><path d="M288.732 305.026 298.285 324.133 308.934 318.808 301.367 303.673Z" stroke="#FFFFFF" stroke-width="4.57658" fill="#0F1113" transform="matrix(1 0 0 1.00262 1845 633)"/><path d="M266.129 307.448 274.472 324.133 285.12 318.808 278.764 306.094Z" stroke="#FFFFFF" stroke-width="4.57658" fill="#0F1113" transform="matrix(1 0 0 1.00262 1845 633)"/><path d="M184.547 314.913 196.453 314.913 196.453 333.375 184.547 333.375Z" stroke="#FFFFFF" stroke-width="4.57658" fill="#0F1113" transform="matrix(1 0 0 1.00262 1845 633)"/><path d="M95.8787 318.802 106.527 324.126 114.87 307.442 102.235 306.088Z" stroke="#FFFFFF" stroke-width="4.57658" fill="#0F1113" transform="matrix(1 0 0 1.00262 1845 633)"/><path d="M72.0662 318.802 82.7148 324.126 92.2684 305.02 79.6329 303.667Z" stroke="#FFFFFF" stroke-width="4.57658" fill="#0F1113" transform="matrix(1 0 0 1.00262 1845 633)"/><path d="M93.5895 178.594 88.9931 164.805 77.6971 168.57 81.088 178.741Z" stroke="#FFFFFF" stroke-width="4.57658" fill="#0F1113" transform="matrix(1 0 0 1.00262 1845 633)"/><path d="M160.734 47.625 148.828 47.625 148.828 64.1252 160.734 62.8019Z" stroke="#FFFFFF" stroke-width="4.57658" fill="#0F1113" transform="matrix(1 0 0 1.00262 1845 633)"/><path d="M184.547 60.1568 196.453 60.1568 196.453 47.6254 208.36 47.6254 208.36 35.7191 172.641 35.7191 172.641 47.6254 184.547 47.6254Z" stroke="#FFFFFF" stroke-width="4.57658" fill="#0F1113" transform="matrix(1 0 0 1.00262 1845 633)"/><path d="M232.172 47.625 220.266 47.625 220.266 62.8019 232.172 64.1252Z" stroke="#FFFFFF" stroke-width="4.57658" fill="#0F1113" transform="matrix(1 0 0 1.00262 1845 633)"/><path d="M303.305 168.57 292.009 164.805 287.412 178.594 299.914 178.742Z" stroke="#FFFFFF" stroke-width="4.57658" fill="#0F1113" transform="matrix(1 0 0 1.00262 1845 633)"/></g></g></g><g clip-path="url(#clip12)"><g clip-path="url(#clip13)"><g clip-path="url(#clip14)"><path d="M2314.7 1027.66C2311.34 958.338 2278.34 921.196 2241.7 911.209 2277.61 927.269 2299.4 979.8 2304.3 1039.54 2299.92 1043.87 2293.47 1047.52 2293.47 1047.52 2291.02 992.503 2272.74 942.512 2243.13 922.656 2230.28 914.043 2217.14 908.261 2200.94 906.013 2195.97 906.363 2186.16 908.67 2181.43 909.575 2185.52 910.568 2189.58 911.882 2193.49 913.488 2240.53 932.964 2249.29 1046.35 2250.63 1070.35 2244.79 1072.13 2237.46 1073.68 2237.46 1073.68 2234.66 1010.9 2218.13 938.103 2188.41 925.781 2176.38 920.788 2163.41 919.532 2151.5 920.613 2122.85 937.286 2102.88 970.779 2099.84 1027.13 2096.22 1029.56 2093.62 1031.4 2092.89 1032.16 2080.95 1044.45 2080.22 1050.2 2117.13 1068.34 2154.04 1086.5 2184.06 1096.48 2202.89 1104.16 2221.7 1111.84 2248.94 1117.86 2308.07 1102.3 2373.94 1089.18 2346.44 1059.75 2314.7 1027.66Z" stroke="#FFFFFF" stroke-width="4.63491" fill="#0F1113"/></g></g></g></g></svg>