<svg width="561" height="579" xmlns="http://www.w3.org/2000/svg" xmlns:xlink="http://www.w3.org/1999/xlink" overflow="hidden"><defs><clipPath id="clip0"><rect x="1809" y="46" width="561" height="579"/></clipPath><radialGradient cx="762000" cy="762000" r="1.07763e+06" gradientUnits="userSpaceOnUse" spreadMethod="pad" id="fill1" gradientTransform="matrix(0.000360892 0 0 0.000360892 1820 46.0001)"><stop offset="0" stop-color="#D9D9D9"/><stop offset="0.17" stop-color="#D9D9D9"/><stop offset="0.33" stop-color="#7F7F7F"/><stop offset="1" stop-color="#0F1113"/></radialGradient><radialGradient cx="374072" cy="432262" r="571647" fx="374072" fy="432262" gradientUnits="userSpaceOnUse" spreadMethod="pad" id="fill2" gradientTransform="matrix(0.000360892 0 0 0.000360892 1840 65)"><stop offset="0" stop-color="#FFFFFF"/><stop offset="0.54" stop-color="#7F7F7F" stop-opacity="0"/><stop offset="1" stop-color="#7F7F7F" stop-opacity="0"/></radialGradient><linearGradient x1="2093" y1="50.9999" x2="2093" y2="206" gradientUnits="userSpaceOnUse" spreadMethod="reflect" id="fill3"><stop offset="0" stop-color="#F5FAFF" stop-opacity="0.231373"/><stop offset="0.32" stop-color="#FFFFFF" stop-opacity="0"/><stop offset="1" stop-color="#FFFFFF" stop-opacity="0"/></linearGradient><radialGradient cx="95596.5" cy="102524" r="140178" gradientUnits="userSpaceOnUse" spreadMethod="pad" id="fill4" gradientTransform="matrix(0.000360892 0 0 0.000360892 1858 174)"><stop offset="0" stop-color="#FFFFFF"/><stop offset="0.54" stop-color="#7F7F7F" stop-opacity="0"/><stop offset="1" stop-color="#7F7F7F" stop-opacity="0"/></radialGradient><clipPath id="clip5"><rect x="1864" y="62" width="404" height="403"/></clipPath><clipPath id="clip6"><rect x="1864" y="62" width="404" height="403"/></clipPath><clipPath id="clip7"><rect x="1864" y="62" width="404" height="403"/></clipPath><radialGradient cx="112222" cy="120534" r="164689" gradientUnits="userSpaceOnUse" spreadMethod="pad" id="fill8" gradientTransform="matrix(0.000360892 0 0 0.000360892 1887 219)"><stop offset="0" stop-color="#FFFFFF"/><stop offset="0.54" stop-color="#7F7F7F" stop-opacity="0"/><stop offset="1" stop-color="#7F7F7F" stop-opacity="0"/></radialGradient><radialGradient cx="292331" cy="278477" r="403741" fx="292331" fy="278476" gradientUnits="userSpaceOnUse" spreadMethod="pad" id="fill9" gradientTransform="matrix(0.000360892 0 0 0.000360892 2109 350)"><stop offset="0" stop-color="#FFFFFF"/><stop offset="0.54" stop-color="#7F7F7F" stop-opacity="0"/><stop offset="1" stop-color="#7F7F7F" stop-opacity="0"/></radialGradient><radialGradient cx="72043.5" cy="77585" r="105876" gradientUnits="userSpaceOnUse" spreadMethod="pad" id="fill10" gradientTransform="matrix(0.000360892 0 0 0.000360892 2254 478)"><stop offset="0" stop-color="#FFFFFF"/><stop offset="0.54" stop-color="#7F7F7F" stop-opacity="0"/><stop offset="1" stop-color="#7F7F7F" stop-opacity="0"/></radialGradient><radialGradient cx="77585" cy="84513" r="114725" gradientUnits="userSpaceOnUse" spreadMethod="pad" id="fill11" gradientTransform="matrix(0.000360892 0 0 0.000360892 2238 395)"><stop offset="0" stop-color="#FFFFFF"/><stop offset="0.54" stop-color="#7F7F7F" stop-opacity="0"/><stop offset="1" stop-color="#7F7F7F" stop-opacity="0"/></radialGradient><clipPath id="clip12"><rect x="2066" y="294" width="293" height="294"/></clipPath><clipPath id="clip13"><rect x="2066" y="294" width="293" height="294"/></clipPath><clipPath id="clip14"><rect x="2066" y="294" width="293" height="294"/></clipPath></defs><g clip-path="url(#clip0)" transform="translate(-1809 -46)"><rect x="1820" y="46.0001" width="550" height="550" fill="url(#fill1)"/><path d="M1840 221C1840 134.844 1900.44 65 1975 65 2049.56 65 2110 134.844 2110 221 2110 307.156 2049.56 377 1975 377 1900.44 377 1840 307.156 1840 221Z" fill="url(#fill2)" fill-rule="evenodd"/><path d="M1853.79 50.9999 2332.21 50.9999C2348.11 50.9999 2361 70.9928 2361 95.6556L2361 206C2361 167.576 2340.92 136.427 2316.15 136.427L1869.85 136.427C1845.08 136.427 1825 167.576 1825 206L1825 95.6556C1825 70.9928 1837.89 50.9999 1853.79 50.9999Z" fill="url(#fill3)" fill-rule="evenodd"/><path d="M1858 211C1858 190.565 1873.45 174 1892.5 174 1911.55 174 1927 190.565 1927 211 1927 231.434 1911.55 248 1892.5 248 1873.45 248 1858 231.434 1858 211Z" fill="url(#fill4)" fill-rule="evenodd"/><g clip-path="url(#clip5)"><g clip-path="url(#clip6)"><g clip-path="url(#clip7)"><path d="M235.755 252.296C233.014 252.286 230.381 253.365 228.437 255.298 226.494 257.232 225.4 259.858 225.396 262.599 225.392 265.34 226.479 267.97 228.417 269.909 230.356 271.847 232.986 272.935 235.727 272.931 238.468 272.927 241.095 271.833 243.028 269.889 244.962 267.946 246.041 265.313 246.031 262.572 246.02 259.85 244.934 257.242 243.009 255.318 241.085 253.393 238.477 252.307 235.755 252.296Z" stroke="#FFFFFF" stroke-width="4.6092" fill="#0F1113" transform="matrix(1.00249 0 0 1 1865 62.9999)"/><path d="M288.804 252.296C286.062 252.286 283.43 253.365 281.486 255.298 279.543 257.232 278.448 259.858 278.444 262.599 278.441 265.34 279.528 267.97 281.466 269.909 283.405 271.847 286.035 272.935 288.776 272.931 291.517 272.927 294.144 271.833 296.077 269.889 298.011 267.946 299.09 265.313 299.08 262.572 299.069 259.85 297.983 257.242 296.058 255.318 294.134 253.393 291.526 252.307 288.804 252.296Z" stroke="#FFFFFF" stroke-width="4.6092" fill="#0F1113" transform="matrix(1.00249 0 0 1 1865 62.9999)"/><path d="M343.457 204.844 121.363 204.844C112.421 204.876 103.61 206.994 95.6319 211.034 87.655 215.074 80.7314 220.921 75.4148 228.111 78.9325 235.481 80.7601 243.544 80.7614 251.711L80.7614 273.181C80.6819 281.336 78.7838 289.37 75.2059 296.698 80.5436 303.916 87.5009 309.78 95.5169 313.822 103.533 317.863 112.386 319.966 121.363 319.965L343.457 319.965C358.721 319.965 373.365 313.9 384.158 303.106 394.952 292.311 401.017 277.671 401.017 262.405 401.017 247.139 394.952 232.498 384.158 221.703 373.365 210.909 358.721 204.845 343.457 204.845ZM235.771 281.074C230.818 281.085 226.061 279.127 222.551 275.63 219.042 272.134 217.066 267.385 217.058 262.43 217.05 257.477 219.012 252.722 222.512 249.215 226.011 245.707 230.762 243.735 235.715 243.731 240.67 243.727 245.423 245.693 248.928 249.196 252.431 252.698 254.401 257.448 254.401 262.403 254.401 267.347 252.439 272.091 248.948 275.591 245.455 279.092 240.716 281.064 235.771 281.074ZM288.82 281.074C283.867 281.085 279.11 279.127 275.6 275.63 272.091 272.134 270.115 267.385 270.107 262.43 270.099 257.477 272.061 252.722 275.561 249.215 279.06 245.707 283.811 243.735 288.764 243.731 293.719 243.727 298.472 245.693 301.977 249.196 305.48 252.698 307.45 257.448 307.45 262.403 307.45 267.347 305.488 272.091 301.997 275.591 298.504 279.092 293.765 281.064 288.82 281.074ZM341.869 281.074C336.917 281.085 332.159 279.127 328.649 275.63 325.14 272.134 323.164 267.385 323.156 262.43 323.148 257.477 325.11 252.722 328.61 249.215 332.109 245.707 336.86 243.735 341.813 243.731 346.768 243.727 351.52 245.693 355.026 249.196 358.531 252.698 360.499 257.448 360.499 262.403 360.489 267.345 358.524 272.081 355.032 275.579 351.543 279.077 346.812 281.052 341.869 281.074Z" stroke="#FFFFFF" stroke-width="4.6092" fill="#0F1113" transform="matrix(1.00249 0 0 1 1865 62.9999)"/><path d="M341.853 252.296C339.112 252.286 336.479 253.365 334.534 255.298 332.592 257.232 331.497 259.858 331.493 262.599 331.49 265.34 332.577 267.97 334.514 269.909 336.453 271.847 339.086 272.935 341.826 272.931 344.566 272.927 347.193 271.833 349.127 269.889 351.059 267.946 352.138 265.313 352.128 262.572 352.118 259.85 351.032 257.242 349.107 255.318 347.183 253.393 344.576 252.307 341.853 252.296Z" stroke="#FFFFFF" stroke-width="4.6092" fill="#0F1113" transform="matrix(1.00249 0 0 1 1865 62.9999)"/><path d="M25.2714 204.844 4.17708 204.844C1.87057 204.844 0 206.715 0 209.021L0 224.435C0 230.439 2.38485 236.197 6.63121 240.443 10.8776 244.69 16.6355 247.075 22.6398 247.075 26.4356 247.085 30.0737 248.599 32.7587 251.283 35.4424 253.968 36.9565 257.606 36.9672 261.402L36.9672 263.407C36.9568 267.203 35.4424 270.841 32.7587 273.526 30.0736 276.21 26.4356 277.724 22.6398 277.734 16.6315 277.745 10.8735 280.14 6.62853 284.393 2.38361 288.645 0 294.408 0 300.416L0 315.788C0 316.896 0.439897 317.958 1.22312 318.742 2.00634 319.525 3.06885 319.965 4.17708 319.965L25.2714 319.965C41.7277 319.978 56.9845 311.351 65.4549 297.241 69.8435 289.982 72.1697 281.664 72.18 273.181L72.18 251.711C72.184 243.2 69.8592 234.85 65.4549 227.568 56.9664 213.476 41.7214 204.856 25.2714 204.844Z" stroke="#FFFFFF" stroke-width="4.6092" fill="#0F1113" transform="matrix(1.00249 0 0 1 1865 62.9999)"/><path d="M284.042 189.265C284.042 183.4 281.716 177.776 277.573 173.626 273.43 169.475 267.81 167.137 261.945 167.127L245.654 167.127 245.654 107.939C245.676 107.587 245.969 107.311 246.323 107.313L264.618 107.313C265.726 107.313 266.789 106.873 267.572 106.09 268.355 105.306 268.795 104.244 268.795 103.136L268.795 85.2159C268.795 84.1078 268.356 83.0451 267.572 82.2618 266.789 81.4789 265.726 81.0388 264.618 81.0388L246.197 81.0388C239.059 81.0388 232.212 83.8715 227.162 88.9151 222.11 93.959 219.266 100.8 219.255 107.939L219.255 167.127 202.965 167.127C197.1 167.137 191.48 169.475 187.337 173.626 183.194 177.776 180.868 183.4 180.868 189.265L180.868 196.492 284.042 196.492Z" stroke="#FFFFFF" stroke-width="4.6092" fill="#0F1113" transform="matrix(1.00249 0 0 1 1865 62.9999)"/></g></g></g><path d="M1887 262.5C1887 238.476 1905.13 219 1927.5 219 1949.87 219 1968 238.476 1968 262.5 1968 286.524 1949.87 306 1927.5 306 1905.13 306 1887 286.524 1887 262.5Z" fill="url(#fill8)" fill-rule="evenodd"/><path d="M2109 450.5C2109 394.995 2156.23 350 2214.5 350 2272.77 350 2320 394.995 2320 450.5 2320 506.005 2272.77 551 2214.5 551 2156.23 551 2109 506.005 2109 450.5Z" fill="url(#fill9)" fill-rule="evenodd"/><path d="M2254 506C2254 490.536 2265.64 478 2280 478 2294.36 478 2306 490.536 2306 506 2306 521.464 2294.36 534 2280 534 2265.64 534 2254 521.464 2254 506Z" fill="url(#fill10)" fill-rule="evenodd"/><path d="M2238 425.5C2238 408.655 2250.54 395 2266 395 2281.46 395 2294 408.655 2294 425.5 2294 442.345 2281.46 456 2266 456 2250.54 456 2238 442.345 2238 425.5Z" fill="url(#fill11)" fill-rule="evenodd"/><path d="M1822.5 597.5 1822.5 337.5 2069.5 597.5Z" stroke="#0F1113" stroke-width="4.58333" stroke-miterlimit="8" fill="#F2F2F2" fill-rule="evenodd"/><text fill="#0F1113" font-family="Aurebesh,Aurebesh_MSFontService,sans-serif" font-weight="700" font-size="83" transform="matrix(1 0 0 1 1859.17 556)">A</text><g clip-path="url(#clip12)"><g clip-path="url(#clip13)"><g clip-path="url(#clip14)"><path d="M242.864 164.095C239.517 95.0116 206.634 57.9963 170.114 48.0441 205.907 64.0491 227.615 116.4 232.504 175.939 228.139 180.246 221.708 183.883 221.708 183.883 219.264 129.059 201.047 79.2398 171.54 59.4518 158.735 50.8678 145.641 45.1055 129.49 42.8653 124.544 43.2147 114.766 45.5139 110.051 46.4157 114.126 47.4047 118.17 48.7146 122.069 50.3147 168.95 69.7241 177.68 182.72 179.018 206.64 173.198 208.415 165.894 209.957 165.894 209.957 163.1 147.392 146.629 74.846 117.006 62.5658 105.016 57.5897 92.0962 56.3384 80.2234 57.4155 51.6763 74.0317 31.7719 107.409 28.7455 163.572 25.1373 165.988 22.5474 167.821 21.8199 168.578 9.9185 180.829 9.191 186.562 45.9734 204.633 82.7558 222.733 112.671 232.685 131.44 240.339 150.181 247.993 177.331 253.987 236.258 238.476 301.908 225.409 274.496 196.077 242.864 164.096Z" stroke="#FFFFFF" stroke-width="4.61905" fill="#0F1113" transform="matrix(1 0 0 1.00344 2067 295)"/></g></g></g></g></svg>