<svg xmlns="http://www.w3.org/2000/svg" viewBox="0 0 512 512" style="height: 512px; width: 512px;"><defs><filter id="shadow-1" height="300%" width="300%" x="-100%" y="-100%"><feFlood flood-color="rgba(5, 5, 5, 1)" result="flood"></feFlood><feComposite in="flood" in2="SourceGraphic" operator="atop" result="composite"></feComposite><feGaussianBlur in="composite" stdDeviation="15" result="blur"></feGaussianBlur><feOffset dx="0" dy="0" result="offset"></feOffset><feComposite in="SourceGraphic" in2="offset" operator="over"></feComposite></filter><filter id="shadow-2" height="300%" width="300%" x="-100%" y="-100%"><feFlood flood-color="rgba(5, 5, 5, 1)" result="flood"></feFlood><feComposite in="flood" in2="SourceGraphic" operator="atop" result="composite"></feComposite><feGaussianBlur in="composite" stdDeviation="15" result="blur"></feGaussianBlur><feOffset dx="0" dy="0" result="offset"></feOffset><feComposite in="SourceGraphic" in2="offset" operator="over"></feComposite></filter><filter id="shadow-3" height="300%" width="300%" x="-100%" y="-100%"><feFlood flood-color="rgba(5, 5, 5, 1)" result="flood"></feFlood><feComposite in="flood" in2="SourceGraphic" operator="atop" result="composite"></feComposite><feGaussianBlur in="composite" stdDeviation="15" result="blur"></feGaussianBlur><feOffset dx="0" dy="0" result="offset"></feOffset><feComposite in="SourceGraphic" in2="offset" operator="over"></feComposite></filter><filter id="shadow-4" height="300%" width="300%" x="-100%" y="-100%"><feFlood flood-color="rgba(5, 5, 5, 1)" result="flood"></feFlood><feComposite in="flood" in2="SourceGraphic" operator="atop" result="composite"></feComposite><feGaussianBlur in="composite" stdDeviation="10" result="blur"></feGaussianBlur><feOffset dx="0" dy="0" result="offset"></feOffset><feComposite in="SourceGraphic" in2="offset" operator="over"></feComposite></filter><filter id="shadow-5" height="300%" width="300%" x="-100%" y="-100%"><feFlood flood-color="rgba(5, 5, 5, 1)" result="flood"></feFlood><feComposite in="flood" in2="SourceGraphic" operator="atop" result="composite"></feComposite><feGaussianBlur in="composite" stdDeviation="10" result="blur"></feGaussianBlur><feOffset dx="0" dy="0" result="offset"></feOffset><feComposite in="SourceGraphic" in2="offset" operator="over"></feComposite></filter><filter id="shadow-6" height="300%" width="300%" x="-100%" y="-100%"><feFlood flood-color="rgba(5, 5, 5, 1)" result="flood"></feFlood><feComposite in="flood" in2="SourceGraphic" operator="atop" result="composite"></feComposite><feGaussianBlur in="composite" stdDeviation="15" result="blur"></feGaussianBlur><feOffset dx="0" dy="0" result="offset"></feOffset><feComposite in="SourceGraphic" in2="offset" operator="over"></feComposite></filter><filter id="shadow-7" height="300%" width="300%" x="-100%" y="-100%"><feFlood flood-color="rgba(5, 5, 5, 1)" result="flood"></feFlood><feComposite in="flood" in2="SourceGraphic" operator="atop" result="composite"></feComposite><feGaussianBlur in="composite" stdDeviation="15" result="blur"></feGaussianBlur><feOffset dx="0" dy="0" result="offset"></feOffset><feComposite in="SourceGraphic" in2="offset" operator="over"></feComposite></filter><filter id="shadow-8" height="300%" width="300%" x="-100%" y="-100%"><feFlood flood-color="rgba(5, 5, 5, 1)" result="flood"></feFlood><feComposite in="flood" in2="SourceGraphic" operator="atop" result="composite"></feComposite><feGaussianBlur in="composite" stdDeviation="15" result="blur"></feGaussianBlur><feOffset dx="0" dy="0" result="offset"></feOffset><feComposite in="SourceGraphic" in2="offset" operator="over"></feComposite></filter></defs><polygon points="256,512,0,256,256,0,512,256" fill="#4b57cc" fill-opacity="1"></polygon><g class="" transform="translate(3,28)" style=""><path d="M45.906 23.625v9.344c0 102.68 10.49 205.087 41.125 288.155 30.637 83.068 82.364 147.415 163.75 169.78l2.22.626 2.22-.5C344.49 472 396.864 407.39 425.593 323.47c28.728-83.92 35.25-187.777 35.25-290.5v-9.345H45.906zM64.72 42.313H442.06c-.413 98.8-7.497 197.342-34.125 275.125-27.21 79.487-73.39 136.637-154.375 154.78-73.28-21.03-119.914-78.696-149-157.562-28.475-77.212-39.206-174.13-39.843-272.344zm18.81 18.75c.807 84.13 12.486 172.823 39.314 244.812 7.825 20.998 16.874 40.495 27.25 58.063l45.844-38.438-40.75-75.063-5.47-10.062 10.97-3.344s38.865-11.786 60.406-18.25l20.437-7.25-94.843-150.468H83.53zm160.25 0l45.782 91.5 132.407-43.157c.69-16.205 1.053-32.366 1.155-48.344H243.78zm177.157 68.343L298.031 169.47l24.908 49.78 25.875 48.72 53.28-1.845c10.245-42.834 16.03-89.664 18.844-136.72zM310.908 236.47l-30.75 10.374 67.25 145.187c17.813-23.2 31.737-51.6 42.624-83.686 2.578-7.595 4.966-15.39 7.19-23.344l-53.626 1.844-5.844.22-2.75-5.158-24.094-45.437zm-99.22 4.686c-13.133 3.972-27.346 8.262-34.625 10.47L216 323.28l3.625 6.72-5.844 4.906-53.56 44.906c24.67 35.91 55.887 61.828 94.655 73.125 30.34-6.91 55.36-21.496 76.03-42.062L211.69 241.155z" fill="#ffffff" fill-opacity="1" transform="translate(51.2, 51.2) scale(0.8, 0.8) rotate(0, 256, 256) skewX(0) skewY(0)" filter="url(#shadow-1)"></path></g><g class="" transform="translate(294,322)" style=""><g transform="translate(9.6, 9.6) scale(0.7, 0.7) rotate(0, 128, 128)"><circle cx="128" cy="128" r="128" fill="#9b9b9b" fill-opacity="1"></circle><circle stroke="#ffffff" stroke-opacity="1" fill="#9b9b9b" fill-opacity="1" stroke-width="18" cx="128" cy="128" r="101"></circle><path fill="#ffffff" fill-opacity="1" d="M150.094 59.7L139.07 78.695c-7.27-1.615-15.652-1.322-22.142.234l-10.791-19.054L80.33 74.858 91.5 94.554a48.133 48.133 0 0 0-9.938 18.63l-23.52.105-.197 29.834 25.035-.119a49.2 49.2 0 0 0 9.666 15.859L79.5 181.36l25.61 14.852 13.108-22.596a47.62 47.62 0 0 0 18.542.3l13.102 22.58 25.623-15.283c-4.08-7.22-8.161-14.44-12.244-21.66a48.554 48.554 0 0 0 10.252-16.378l24.464-.092.198-29.834-23.235-.156a48.717 48.717 0 0 0-10.387-19.304l11.172-19.24zm-19.705 44.292c12.71 1.043 22.352 12.16 21.787 25.043-.584 13.297-11.839 23.598-25.137 23.015-13.3-.582-23.855-11.836-23.018-25.121.905-14.35 13.161-24.021 26.368-22.937z"></path></g></g></svg>