<svg width="550" height="550" xmlns="http://www.w3.org/2000/svg" xmlns:xlink="http://www.w3.org/1999/xlink" overflow="hidden"><defs><clipPath id="clip0"><rect x="1836" y="29" width="550" height="550"/></clipPath><radialGradient cx="762000" cy="762000" r="1.07763e+06" gradientUnits="userSpaceOnUse" spreadMethod="pad" id="fill1" gradientTransform="matrix(0.000360892 0 0 0.000360892 1836 28.9999)"><stop offset="0" stop-color="#92D050"/><stop offset="0.17" stop-color="#92D050"/><stop offset="0.33" stop-color="#029C48"/><stop offset="1" stop-color="#0F1113"/></radialGradient><linearGradient x1="2109.5" y1="35.0001" x2="2109.5" y2="189" gradientUnits="userSpaceOnUse" spreadMethod="reflect" id="fill2"><stop offset="0" stop-color="#F5FAFF" stop-opacity="0.231373"/><stop offset="0.32" stop-color="#FFFFFF" stop-opacity="0"/><stop offset="1" stop-color="#FFFFFF" stop-opacity="0"/></linearGradient><radialGradient cx="94210.5" cy="102524" r="139236" gradientUnits="userSpaceOnUse" spreadMethod="pad" id="fill3" gradientTransform="matrix(0.000360892 0 0 0.000360892 1875 157)"><stop offset="0" stop-color="#92D050"/><stop offset="0.54" stop-color="#09522C" stop-opacity="0"/><stop offset="1" stop-color="#09522C" stop-opacity="0"/></radialGradient><radialGradient cx="110836" cy="121920" r="164770" fx="110836" fy="121920" gradientUnits="userSpaceOnUse" spreadMethod="pad" id="fill4" gradientTransform="matrix(0.000360892 0 0 0.000360892 1904 202)"><stop offset="0" stop-color="#92D050"/><stop offset="0.54" stop-color="#09522C" stop-opacity="0"/><stop offset="1" stop-color="#09522C" stop-opacity="0"/></radialGradient><radialGradient cx="292331" cy="278476" r="403740" gradientUnits="userSpaceOnUse" spreadMethod="pad" id="fill5" gradientTransform="matrix(0.000360892 0 0 0.000360892 2125 333)"><stop offset="0" stop-color="#92D050"/><stop offset="0.54" stop-color="#09522C" stop-opacity="0"/><stop offset="1" stop-color="#09522C" stop-opacity="0"/></radialGradient><radialGradient cx="374073" cy="430876" r="570600" fx="374073" fy="430876" gradientUnits="userSpaceOnUse" spreadMethod="pad" id="fill6" gradientTransform="matrix(0.000360892 0 0 0.000360892 1856 49.0002)"><stop offset="0" stop-color="#92D050"/><stop offset="0.54" stop-color="#09522C" stop-opacity="0"/><stop offset="1" stop-color="#09522C" stop-opacity="0"/></radialGradient><radialGradient cx="72043.5" cy="77585.5" r="105876" fx="72043.5" fy="77585.5" gradientUnits="userSpaceOnUse" spreadMethod="pad" id="fill7" gradientTransform="matrix(0.000360892 0 0 0.000360892 2270 461)"><stop offset="0" stop-color="#92D050"/><stop offset="0.54" stop-color="#09522C" stop-opacity="0"/><stop offset="1" stop-color="#09522C" stop-opacity="0"/></radialGradient><radialGradient cx="77585.5" cy="83127" r="113708" gradientUnits="userSpaceOnUse" spreadMethod="pad" id="fill8" gradientTransform="matrix(0.000360892 0 0 0.000360892 2254 379)"><stop offset="0" stop-color="#92D050"/><stop offset="0.54" stop-color="#09522C" stop-opacity="0"/><stop offset="1" stop-color="#09522C" stop-opacity="0"/></radialGradient><clipPath id="clip9"><rect x="1861" y="59" width="500" height="500"/></clipPath><clipPath id="clip10"><rect x="1861" y="59" width="500" height="500"/></clipPath><clipPath id="clip11"><rect x="1861" y="59" width="500" height="500"/></clipPath></defs><g clip-path="url(#clip0)" transform="translate(-1836 -29)"><rect x="1836" y="28.9999" width="550" height="550" fill="url(#fill1)"/><path d="M1870.73 35.0001 2348.27 35.0001C2364.14 35.0001 2377 54.864 2377 79.3677L2377 189C2377 150.824 2356.96 119.876 2332.23 119.876L1886.77 119.876C1862.04 119.876 1842 150.824 1842 189L1842 79.3677C1842 54.864 1854.86 35.0001 1870.73 35.0001Z" fill="url(#fill2)" fill-rule="evenodd"/><path d="M1875 194C1875 173.566 1890.22 157 1909 157 1927.78 157 1943 173.566 1943 194 1943 214.435 1927.78 231 1909 231 1890.22 231 1875 214.435 1875 194Z" fill="url(#fill3)" fill-rule="evenodd"/><path d="M1904 246C1904 221.7 1921.91 202 1944 202 1966.09 202 1984 221.7 1984 246 1984 270.301 1966.09 290 1944 290 1921.91 290 1904 270.301 1904 246Z" fill="url(#fill4)" fill-rule="evenodd"/><path d="M2125 433.5C2125 377.995 2172.23 333 2230.5 333 2288.77 333 2336 377.995 2336 433.5 2336 489.005 2288.77 534 2230.5 534 2172.23 534 2125 489.005 2125 433.5Z" fill="url(#fill5)" fill-rule="evenodd"/><path d="M1856 204.5C1856 118.62 1916.44 49.0002 1991 49.0002 2065.56 49.0002 2126 118.62 2126 204.5 2126 290.38 2065.56 360 1991 360 1916.44 360 1856 290.38 1856 204.5Z" fill="url(#fill6)" fill-rule="evenodd"/><path d="M2270 489C2270 473.536 2281.64 461 2296 461 2310.36 461 2322 473.536 2322 489 2322 504.464 2310.36 517 2296 517 2281.64 517 2270 504.464 2270 489Z" fill="url(#fill7)" fill-rule="evenodd"/><path d="M2254 409C2254 392.432 2266.54 379 2282 379 2297.46 379 2310 392.432 2310 409 2310 425.569 2297.46 439 2282 439 2266.54 439 2254 425.569 2254 409Z" fill="url(#fill8)" fill-rule="evenodd"/><g clip-path="url(#clip9)"><g clip-path="url(#clip10)"><g clip-path="url(#clip11)"><path d="M2297.5 107 2297 106.5C2296 104 2292.5 103 2290 104.5L2171.5 173C2169 154 2153 139.5 2133.5 139.5 2112 139.5 2095 157 2095 178 2095 190.5 2101 201.5 2110 208.5L2053.5 241C2044 236.5 2032 244 2031 254L1927 314C1924.5 315.5 1923.5 318.5 1925 321L1925.5 321.5C1927 324 1930 325 1932.5 323.5L2034 265C2034 265 2034 265 2034 265 2043.5 277.5 2053.5 289.5 2063 302 2070.5 311.5 2082.5 308.5 2088 301 2100.5 289.5 2113 278.5 2125.5 267L2139.5 321C2140 322 2140 323 2140.5 324 2117 381.5 2094 438 2071 494.5 2063 514 2095 522.5 2102.5 503 2125 447 2148 391.5 2170.5 335.5L2178.5 333.5C2191 345.5 2203.5 358 2216 370 2206.5 406 2197 442.5 2187.5 478.5 2182 499 2214 507.5 2219 487 2229 449 2239 411 2249 373.5 2249.5 372.5 2249.5 371 2249.5 370 2252 364.5 2251.5 358.5 2246 353 2230.5 338 2215 322.5 2199 307.5 2199 307 2199 306.5 2198.5 305.5L2183 246.5C2184 246.5 2185.5 246.5 2186.5 246 2219 234.5 2251.5 223.5 2283.5 212 2300 206.5 2285.5 177 2269 182.5 2236.5 194 2204 205 2172 216.5 2170.5 217 2169 218 2168 219 2165.5 218 2163 217 2160 217 2158.5 217 2157 217 2155.5 217.5L2133.5 224C2128.5 225.5 2124.5 228.5 2122 233.5 2122 234 2122 234 2121.5 234.5 2117.5 234 2113.5 235.5 2110 238.5 2099 248.5 2087.5 258.5 2076.5 269 2071.5 262.5 2066.5 256 2061.5 249.5L2121.5 215C2125 216 2129 217 2133.5 217 2152 217 2167.5 204 2171 186.5L2295.5 114.5C2298 113 2299 109.5 2297.5 107Z" stroke="#92D050" stroke-width="4.5977" fill="#0F1113"/></g></g></g></g></svg>