<svg width="550" height="550" xmlns="http://www.w3.org/2000/svg" xmlns:xlink="http://www.w3.org/1999/xlink" overflow="hidden"><defs><clipPath id="clip0"><rect x="1834" y="29" width="550" height="550"/></clipPath><radialGradient cx="762000" cy="762000" r="1.07763e+06" gradientUnits="userSpaceOnUse" spreadMethod="pad" id="fill1" gradientTransform="matrix(0.000360892 0 0 0.000360892 1834 28.9999)"><stop offset="0" stop-color="#92D050"/><stop offset="0.17" stop-color="#92D050"/><stop offset="0.33" stop-color="#029C48"/><stop offset="1" stop-color="#0F1113"/></radialGradient><linearGradient x1="2107.5" y1="35.0001" x2="2107.5" y2="189" gradientUnits="userSpaceOnUse" spreadMethod="reflect" id="fill2"><stop offset="0" stop-color="#F5FAFF" stop-opacity="0.231373"/><stop offset="0.32" stop-color="#FFFFFF" stop-opacity="0"/><stop offset="1" stop-color="#FFFFFF" stop-opacity="0"/></linearGradient><radialGradient cx="94211" cy="102524" r="139236" gradientUnits="userSpaceOnUse" spreadMethod="pad" id="fill3" gradientTransform="matrix(0.000360892 0 0 0.000360892 1873 157)"><stop offset="0" stop-color="#92D050"/><stop offset="0.54" stop-color="#09522C" stop-opacity="0"/><stop offset="1" stop-color="#09522C" stop-opacity="0"/></radialGradient><radialGradient cx="112222" cy="121920" r="165705" fx="112222" fy="121920" gradientUnits="userSpaceOnUse" spreadMethod="pad" id="fill4" gradientTransform="matrix(0.000360892 0 0 0.000360892 1902 202)"><stop offset="0" stop-color="#92D050"/><stop offset="0.54" stop-color="#09522C" stop-opacity="0"/><stop offset="1" stop-color="#09522C" stop-opacity="0"/></radialGradient><radialGradient cx="293716" cy="278476" r="404745" gradientUnits="userSpaceOnUse" spreadMethod="pad" id="fill5" gradientTransform="matrix(0.000360892 0 0 0.000360892 2123 333)"><stop offset="0" stop-color="#92D050"/><stop offset="0.54" stop-color="#09522C" stop-opacity="0"/><stop offset="1" stop-color="#09522C" stop-opacity="0"/></radialGradient><radialGradient cx="374073" cy="430876" r="570600" fx="374073" fy="430876" gradientUnits="userSpaceOnUse" spreadMethod="pad" id="fill6" gradientTransform="matrix(0.000360892 0 0 0.000360892 1855 49.0002)"><stop offset="0" stop-color="#92D050"/><stop offset="0.54" stop-color="#09522C" stop-opacity="0"/><stop offset="1" stop-color="#09522C" stop-opacity="0"/></radialGradient><radialGradient cx="70658" cy="77585.5" r="104938" gradientUnits="userSpaceOnUse" spreadMethod="pad" id="fill7" gradientTransform="matrix(0.000360892 0 0 0.000360892 2269 461)"><stop offset="0" stop-color="#92D050"/><stop offset="0.54" stop-color="#09522C" stop-opacity="0"/><stop offset="1" stop-color="#09522C" stop-opacity="0"/></radialGradient><radialGradient cx="77585.5" cy="83127" r="113708" gradientUnits="userSpaceOnUse" spreadMethod="pad" id="fill8" gradientTransform="matrix(0.000360892 0 0 0.000360892 2253 379)"><stop offset="0" stop-color="#92D050"/><stop offset="0.54" stop-color="#09522C" stop-opacity="0"/><stop offset="1" stop-color="#09522C" stop-opacity="0"/></radialGradient><clipPath id="clip9"><rect x="1894" y="83" width="442" height="441"/></clipPath><clipPath id="clip10"><rect x="1894" y="83" width="442" height="441"/></clipPath><clipPath id="clip11"><rect x="1894" y="83" width="442" height="441"/></clipPath></defs><g clip-path="url(#clip0)" transform="translate(-1834 -29)"><rect x="1834" y="28.9999" width="550" height="550" fill="url(#fill1)"/><path d="M1868.73 35.0001 2346.27 35.0001C2362.14 35.0001 2375 54.864 2375 79.3677L2375 189C2375 150.824 2354.96 119.876 2330.23 119.876L1884.77 119.876C1860.04 119.876 1840 150.824 1840 189L1840 79.3677C1840 54.864 1852.86 35.0001 1868.73 35.0001Z" fill="url(#fill2)" fill-rule="evenodd"/><path d="M1873 194C1873 173.566 1888.22 157 1907 157 1925.78 157 1941 173.566 1941 194 1941 214.435 1925.78 231 1907 231 1888.22 231 1873 214.435 1873 194Z" fill="url(#fill3)" fill-rule="evenodd"/><path d="M1902 246C1902 221.7 1920.13 202 1942.5 202 1964.87 202 1983 221.7 1983 246 1983 270.301 1964.87 290 1942.5 290 1920.13 290 1902 270.301 1902 246Z" fill="url(#fill4)" fill-rule="evenodd"/><path d="M2123 433.5C2123 377.995 2170.46 333 2229 333 2287.54 333 2335 377.995 2335 433.5 2335 489.005 2287.54 534 2229 534 2170.46 534 2123 489.005 2123 433.5Z" fill="url(#fill5)" fill-rule="evenodd"/><path d="M1855 204.5C1855 118.62 1915.44 49.0002 1990 49.0002 2064.56 49.0002 2125 118.62 2125 204.5 2125 290.38 2064.56 360 1990 360 1915.44 360 1855 290.38 1855 204.5Z" fill="url(#fill6)" fill-rule="evenodd"/><path d="M2269 489C2269 473.536 2280.42 461 2294.5 461 2308.58 461 2320 473.536 2320 489 2320 504.464 2308.58 517 2294.5 517 2280.42 517 2269 504.464 2269 489Z" fill="url(#fill7)" fill-rule="evenodd"/><path d="M2253 409C2253 392.432 2265.54 379 2281 379 2296.46 379 2309 392.432 2309 409 2309 425.569 2296.46 439 2281 439 2265.54 439 2253 425.569 2253 409Z" fill="url(#fill8)" fill-rule="evenodd"/><g clip-path="url(#clip9)"><g clip-path="url(#clip10)"><g clip-path="url(#clip11)"><path d="M339.24 214.28 336.16 200.64 340.12 199.32C342.32 198.44 343.64 197.12 344.52 195.36 345.4 193.6 345.4 191.4 344.96 189.2L334.4 161.04 334.84 161.04C336.6 160.16 338.36 158.4 339.24 156.64 340.12 154.44 339.68 152.24 338.8 150.48L322.08 118.8C321.2 117.04 319.44 115.72 317.24 114.84 315.04 114.4 312.84 114.4 311.08 115.72L310.2 116.16 305.36 106.48C304.92 105.16 303.6 103.84 302.28 103.4L283.36 91.96C280.72 90.2 277.2 90.64 274.56 92.4L264 100.76 263.56 100.32C262.24 98.56 260.48 97.24 258.28 96.8L236.28 92.4C234.96 91.96 233.2 92.4 231.88 92.84L198.44 106.48C197.12 106.92 195.8 108.24 194.92 109.56L161.04 165.44C160.16 166.76 160.16 168.08 159.72 169.4 159.72 176.88 159.28 195.8 158.84 203.72L147.4 216.92C146.96 216.92 146.08 216.92 145.64 216.92 145.64 216.92 145.64 216.92 145.64 216.92L128.04 216.92C125.84 216.92 123.64 217.8 122.32 219.56L113.08 230.12C112.2 229.24 110.88 228.36 109.56 228.36 107.36 227.92 105.16 228.36 103.4 229.68L77.44 248.16C74.8 249.92 73.48 253.44 74.36 256.52L75.24 259.6 58.52 265.76C56.32 266.64 55 267.96 54.12 270.16L48.4 284.68C47.52 287.32 47.52 289.96 49.28 292.16L53.68 298.32C53.24 298.76 52.36 299.64 51.92 300.08L38.28 323.84C36.52 326.92 36.96 330.44 39.16 333.08L17.16 355.08C14.08 358.16 14.08 363 17.16 366.08 18.48 367.4 20.68 368.28 22.44 368.28 24.2 368.28 26.4 367.4 27.72 366.08L50.16 344.08 77.88 369.6C79.2 370.92 81.4 371.8 83.16 371.8 84.04 371.8 85.36 371.36 86.24 370.92L107.8 361.24C109.12 360.8 110 359.92 110.88 358.6L113.52 360.36C114.84 361.24 116.16 361.68 117.48 361.68 118.8 361.68 119.68 361.24 121 360.8L132 355.08C133.76 354.2 135.08 352.88 135.52 351.12L140.36 339.68C140.8 338.8 140.8 337.92 140.8 336.6L160.6 321.2C161.92 320.32 162.8 319 163.24 317.68L175.12 311.08C178.2 309.32 179.96 305.36 178.64 301.84L183.92 303.16 183.92 312.4 99.88 410.96C97.24 414.04 97.68 418.88 100.76 421.96 102.08 423.28 103.84 423.72 105.6 423.72 107.8 423.72 110 422.84 111.32 421.08L120.56 410.08 123.2 413.6C124.08 414.92 124.96 415.36 126.28 416.24L138.16 421.08 138.6 425.04C139.04 429 142.56 431.64 146.08 431.64 146.52 431.64 146.96 431.64 147.4 431.64 151.8 431.2 154.44 427.24 154 422.84L152.68 414.48C152.24 411.84 150.48 409.64 147.84 408.32L133.76 402.6 130.24 398.2 155.76 368.28 164.56 396C165.88 399.96 170.28 402.16 174.24 400.84 178.2 399.52 180.4 395.12 179.08 391.16L167.2 354.64 197.12 319.44 197.12 319.44C197.12 319.44 197.12 319.44 197.12 319.44L197.12 319.44C197.56 319 197.56 318.56 198 318.12 198 318.12 198 317.68 198.44 317.68 198.44 317.24 198.88 317.24 198.88 316.8 198.88 316.8 198.88 316.36 198.88 316.36 198.88 315.92 198.88 315.92 198.88 315.48 198.88 315.48 198.88 315.04 198.88 315.04 198.88 315.04 198.88 314.6 198.88 314.6L198.88 296.56C198.88 293.04 196.24 289.96 192.72 289.08L163.24 282.48 163.24 270.6 198.44 255.2 233.64 278.96 242.44 321.2 220.88 380.6C220 382.36 220.44 384.56 220.88 386.32L238.04 427.24C239.36 430.32 242 432.08 245.08 432.08 245.96 432.08 247.28 432.08 248.16 431.64 252.12 429.88 253.88 425.48 252.12 421.52L236.28 383.24 257.4 324.72C257.84 323.4 257.84 322.08 257.84 320.32L249.48 281.16 274.56 277.64C276.32 277.2 277.64 276.76 278.96 275.44L312.4 243.76 322.52 241.12C324.28 240.68 325.6 239.8 326.48 238.48 326.48 238.48 326.48 238.04 326.92 238.04 326.92 238.04 327.36 237.6 327.36 237.6L337.04 220.88C339.68 218.24 339.68 216.04 339.24 214.28ZM312.4 132.88 321.2 150.04 289.96 163.68C291.28 162.36 292.16 160.16 291.72 157.96L290.84 144.76 312.4 132.88ZM280.72 107.8 293.04 115.28 296.12 121.88 282.92 128.92 273.24 113.52 280.72 107.8ZM85.8 354.2 55.44 326.04 63.8 311.08 85.8 340.56C86.24 341.44 87.12 341.88 88 342.32L97.68 348.48 85.8 354.2ZM127.16 333.08 123.64 341.88 119.24 344.08 97.68 330.44 64.68 286 67.76 278.96 80.08 274.56 82.72 283.36C83.16 284.68 83.6 285.56 84.48 286.44L127.16 333.08C127.16 332.64 127.16 333.08 127.16 333.08ZM145.64 313.28 136.84 320.32 97.24 277.2 91.52 257.4 106.04 246.84 146.08 311.96C146.08 311.96 145.64 312.84 145.64 313.28ZM154 257.84C151.36 259.16 149.16 261.8 149.16 264.88L149.16 286.88 121.88 242.88 131.56 231.88 140.8 231.88 154 257.84 154 257.84ZM166.32 298.32 158.84 302.72 154.44 295.68C154.88 295.68 154.88 296.12 155.32 296.12L166.32 298.32ZM271.92 261.8 243.76 265.76 205.04 239.36C202.84 238.04 200.2 237.6 197.56 238.48L168.52 251.24 157.08 229.24 172.04 211.64C172.92 210.32 173.8 209 173.8 207.68 174.68 201.08 174.68 179.08 175.12 171.6L206.8 119.68 235.84 107.8 253.44 110.88 275.88 146.08 276.32 153.12 260.48 159.72 242 144.76C238.92 142.56 234.96 142.56 231.88 145.2 229.24 147.84 228.36 151.8 230.56 155.32L234.08 160.6 232.32 178.2 221.76 194.48C219.56 198 220.44 202.84 223.96 205.04 227.48 207.24 232.32 206.36 234.52 202.84L238.04 197.56C238.92 198.44 239.36 198.88 240.68 199.32 241.56 199.76 242.44 199.76 243.32 199.76L253.44 221.32C254.76 223.96 257.4 225.72 260.48 225.72 261.36 225.72 262.24 225.72 263.12 225.28L267.08 223.96 273.24 242.44C274.56 245.96 278.08 248.16 282.04 247.72L289.52 246.4 271.92 261.8ZM260.92 176 248.16 181.72 247.72 179.52 248.6 169.84 254.32 174.68C256.08 176 258.28 176.88 260.92 176ZM317.24 225.72 284.68 231.44 281.6 222.64 321.64 205.92 323.4 214.72 317.24 225.72ZM264 208.56 259.16 198 321.2 170.28 327.8 187 264 208.56Z" stroke="#92D050" stroke-width="4.58335" fill="#0F1113" transform="matrix(1.00227 0 0 1 1894 83.9999)"/><path d="M420.2 167.2 380.6 145.2 409.2 90.64C410.52 88 410.52 84.92 408.76 82.28 407 79.64 403.92 78.76 401.28 79.2L343.2 87.56 352.44 17.6C352.88 14.08 351.12 11 348.04 9.68 344.96 7.92 341.44 8.8 338.8 11L291.28 55.44 261.36 14.96C259.6 12.32 256.08 11.44 253 11.88 249.92 12.76 247.72 14.96 246.84 18.48L238.04 72.6C237.16 77 240.24 80.96 244.64 81.84 249.04 82.72 253 79.64 253.88 75.24L259.6 39.6 283.8 72.16C285.12 73.92 287.32 75.24 289.52 75.24 291.72 75.24 293.92 74.8 295.68 73.04L333.52 37.4 325.6 95.48C325.16 98.12 326.04 100.32 327.8 102.08 329.56 103.84 332.2 104.72 334.4 104.28L387.64 96.8 362.56 144.32C360.36 148.28 362.12 152.68 365.64 154.88L400.4 174.24 362.12 198C359.04 199.76 357.72 203.72 359.04 207.24L374.44 249.48 340.56 242C336.16 241.12 332.2 243.76 330.88 247.72 330 252.12 332.64 256.08 336.6 257.4L384.12 268.84C384.56 268.84 385.44 268.84 385.88 268.84 388.08 268.84 390.28 267.96 391.6 266.2 393.36 264 394.24 260.92 393.36 258.28L375.32 208.12 419.76 180.84C421.96 179.52 423.72 176.88 423.72 173.8 424.16 171.16 422.4 168.52 420.2 167.2Z" stroke="#92D050" stroke-width="4.58335" fill="#0F1113" transform="matrix(1.00227 0 0 1 1894 83.9999)"/></g></g></g></g></svg>