<svg width="550" height="550" xmlns="http://www.w3.org/2000/svg" xmlns:xlink="http://www.w3.org/1999/xlink" overflow="hidden"><defs><clipPath id="clip0"><rect x="36" y="693" width="550" height="550"/></clipPath><radialGradient cx="762000" cy="762000" r="1.07763e+06" gradientUnits="userSpaceOnUse" spreadMethod="pad" id="fill1" gradientTransform="matrix(0.000360892 0 0 0.000360892 36.0001 693)"><stop offset="0" stop-color="#92D050"/><stop offset="0.17" stop-color="#92D050"/><stop offset="0.33" stop-color="#029C48"/><stop offset="1" stop-color="#0F1113"/></radialGradient><linearGradient x1="309.5" y1="699" x2="309.5" y2="853" gradientUnits="userSpaceOnUse" spreadMethod="reflect" id="fill2"><stop offset="0" stop-color="#F5FAFF" stop-opacity="0.231373"/><stop offset="0.32" stop-color="#FFFFFF" stop-opacity="0"/><stop offset="1" stop-color="#FFFFFF" stop-opacity="0"/></linearGradient><radialGradient cx="94211" cy="102524" r="139237" fx="94211" fy="102524" gradientUnits="userSpaceOnUse" spreadMethod="pad" id="fill3" gradientTransform="matrix(0.000360892 0 0 0.000360892 74.9999 822)"><stop offset="0" stop-color="#92D050"/><stop offset="0.54" stop-color="#09522C" stop-opacity="0"/><stop offset="1" stop-color="#09522C" stop-opacity="0"/></radialGradient><radialGradient cx="110836" cy="120534" r="163747" fx="110836" fy="120534" gradientUnits="userSpaceOnUse" spreadMethod="pad" id="fill4" gradientTransform="matrix(0.000360892 0 0 0.000360892 104 867)"><stop offset="0" stop-color="#92D050"/><stop offset="0.54" stop-color="#09522C" stop-opacity="0"/><stop offset="1" stop-color="#09522C" stop-opacity="0"/></radialGradient><radialGradient cx="292331" cy="278477" r="403741" fx="292331" fy="278476" gradientUnits="userSpaceOnUse" spreadMethod="pad" id="fill5" gradientTransform="matrix(0.000360892 0 0 0.000360892 325 998)"><stop offset="0" stop-color="#92D050"/><stop offset="0.54" stop-color="#09522C" stop-opacity="0"/><stop offset="1" stop-color="#09522C" stop-opacity="0"/></radialGradient><radialGradient cx="374072" cy="432262" r="571647" fx="374072" fy="432262" gradientUnits="userSpaceOnUse" spreadMethod="pad" id="fill6" gradientTransform="matrix(0.000360892 0 0 0.000360892 56 713)"><stop offset="0" stop-color="#92D050"/><stop offset="0.54" stop-color="#09522C" stop-opacity="0"/><stop offset="1" stop-color="#09522C" stop-opacity="0"/></radialGradient><radialGradient cx="72044" cy="77585.5" r="105877" fx="72044" fy="77585.5" gradientUnits="userSpaceOnUse" spreadMethod="pad" id="fill7" gradientTransform="matrix(0.000360892 0 0 0.000360892 470 1126)"><stop offset="0" stop-color="#92D050"/><stop offset="0.54" stop-color="#09522C" stop-opacity="0"/><stop offset="1" stop-color="#09522C" stop-opacity="0"/></radialGradient><radialGradient cx="77585.5" cy="84513" r="114726" fx="77585.5" fy="84513" gradientUnits="userSpaceOnUse" spreadMethod="pad" id="fill8" gradientTransform="matrix(0.000360892 0 0 0.000360892 454 1043)"><stop offset="0" stop-color="#92D050"/><stop offset="0.54" stop-color="#09522C" stop-opacity="0"/><stop offset="1" stop-color="#09522C" stop-opacity="0"/></radialGradient><clipPath id="clip9"><rect x="221" y="768" width="146" height="205"/></clipPath><clipPath id="clip10"><rect x="221" y="768" width="146" height="205"/></clipPath><clipPath id="clip11"><rect x="221" y="768" width="146" height="205"/></clipPath><clipPath id="clip12"><rect x="64" y="915" width="500" height="290"/></clipPath><clipPath id="clip13"><rect x="64" y="915" width="500" height="290"/></clipPath><clipPath id="clip14"><rect x="64" y="915" width="500" height="290"/></clipPath></defs><g clip-path="url(#clip0)" transform="translate(-36 -693)"><rect x="36.0001" y="693" width="550" height="550" fill="url(#fill1)"/><path d="M70.7337 699 548.266 699C564.136 699 577 718.864 577 743.367L577 853C577 814.824 556.957 783.876 532.233 783.876L86.7667 783.876C62.0427 783.876 41.9999 814.824 41.9999 853L41.9999 743.367C41.9999 718.864 54.8644 699 70.7337 699Z" fill="url(#fill2)" fill-rule="evenodd"/><path d="M74.9999 859C74.9999 838.565 90.2223 822 109 822 127.778 822 143 838.565 143 859 143 879.435 127.778 896 109 896 90.2223 896 74.9999 879.435 74.9999 859Z" fill="url(#fill3)" fill-rule="evenodd"/><path d="M104 910.5C104 886.476 121.909 867 144 867 166.091 867 184 886.476 184 910.5 184 934.524 166.091 954 144 954 121.909 954 104 934.524 104 910.5Z" fill="url(#fill4)" fill-rule="evenodd"/><path d="M325 1098.5C325 1043 372.234 998 430.5 998 488.766 998 536 1043 536 1098.5 536 1154 488.766 1199 430.5 1199 372.234 1199 325 1154 325 1098.5Z" fill="url(#fill5)" fill-rule="evenodd"/><path d="M56 869C56 782.844 116.442 713 191 713 265.558 713 326 782.844 326 869 326 955.156 265.558 1025 191 1025 116.442 1025 56 955.156 56 869Z" fill="url(#fill6)" fill-rule="evenodd"/><path d="M470 1154C470 1138.54 481.641 1126 496 1126 510.359 1126 522 1138.54 522 1154 522 1169.46 510.359 1182 496 1182 481.641 1182 470 1169.46 470 1154Z" fill="url(#fill7)" fill-rule="evenodd"/><path d="M454 1073.5C454 1056.66 466.536 1043 482 1043 497.464 1043 510 1056.66 510 1073.5 510 1090.34 497.464 1104 482 1104 466.536 1104 454 1090.34 454 1073.5Z" fill="url(#fill8)" fill-rule="evenodd"/><g clip-path="url(#clip9)"><g clip-path="url(#clip10)"><g clip-path="url(#clip11)"><path d="M315.907 48.8167C315.907 69.104 299.461 85.55 279.173 85.55 258.886 85.55 242.44 69.104 242.44 48.8167 242.44 28.5294 258.886 12.0833 279.173 12.0833 299.461 12.0833 315.907 28.5294 315.907 48.8167Z" stroke="#92D050" stroke-width="4.60318" transform="matrix(-1 0 0 1 535.167 756.917)"/><path d="M275.983 95.41C270.739 95.8885 265.645 97.4159 261 99.905L223.397 119.238 225.33 59.4984 233.353 58.9184C235.026 58.8459 236.432 57.652 236.785 56.0184L236.785 53.1667 235.383 53.1667 237.413 53.1667C239.197 53.1619 240.831 52.1759 241.667 50.605L241.667 40.9384C240.816 39.4352 239.182 38.5555 237.462 38.6667L235.432 38.6667 236.833 38.3767 236.833 36.0083C236.481 34.3747 235.074 33.1808 233.402 33.1083L191.98 29.9667C191.734 29.2948 191.047 28.8888 190.337 29L169.167 29 169.167 67.6667 190.337 67.6667C191.071 66.7049 191.492 65.54 191.545 64.3317L206.673 61.9634 198.94 132.723 198.94 132.482 198.94 137.025C198.737 141.477 200.506 145.793 203.773 148.818 208.94 153.226 216.04 154.604 222.478 152.443L256.312 140.94C248.381 212.021 247.681 213.187 306.627 214.503 306.627 214.503 304.345 147.122 308.173 113.632 309.865 96.3284 291.595 94.2017 275.983 95.41Z" stroke="#92D050" stroke-width="4.60318" transform="matrix(-1 0 0 1 535.167 756.917)"/></g></g></g><g clip-path="url(#clip12)"><g clip-path="url(#clip13)"><g clip-path="url(#clip14)"><path d="M69.4077 289.777 414.711 289.777C433.798 279.366 478.913 260.279 477.178 227.31 477.178 213.429 459.826 206.488 449.415 206.488L34.7038 206.488C24.2927 206.488 6.94077 213.429 6.94077 227.31 6.94077 260.279 50.3206 275.896 69.4077 289.777Z" stroke="#92D050" stroke-width="4.57931" fill-rule="evenodd" transform="matrix(1 0 0 1.00077 65 915)"/><path d="M498 235.986 491.059 235.986C491.059 232.516 492.795 229.045 492.795 227.31L492.795 227.31C492.795 209.958 473.707 194.341 451.15 194.341L244.662 194.341 38.1742 194.341C20.8223 194.341 6.94077 203.017 0 213.429L0 197.812 72.8781 149.227 291.512 149.227 498 197.812 498 235.986Z" stroke="#92D050" stroke-width="4.57931" fill-rule="evenodd" transform="matrix(1 0 0 1.00077 65 915)"/><path d="M331.422 85.0244 463.296 85.0244 463.296 105.847 331.422 105.847 317.54 121.463 267.22 121.463 255.073 138.815 91.9652 138.815 78.0836 104.112 52.0558 102.376 52.0558 60.7317 52.0558 60.7317 104.112 39.9094 107.582 39.9094 107.582 0 119.728 0 119.728 39.9094 135.345 39.9094 135.345 22.5575 149.227 22.5575 149.227 39.9094 182.195 39.9094 253.338 67.6725 317.54 67.6725Z" stroke="#92D050" stroke-width="4.57931" fill-rule="evenodd" transform="matrix(1 0 0 1.00077 65 915)"/></g></g></g></g></svg>