<svg width="550" height="550" xmlns="http://www.w3.org/2000/svg" xmlns:xlink="http://www.w3.org/1999/xlink" overflow="hidden"><defs><clipPath id="clip0"><rect x="2452" y="1188" width="550" height="550"/></clipPath><radialGradient cx="762000" cy="762000" r="1.07763e+06" gradientUnits="userSpaceOnUse" spreadMethod="pad" id="fill1" gradientTransform="matrix(0.000360892 0 0 0.000360892 2452 1188)"><stop offset="0" stop-color="#92D050"/><stop offset="0.17" stop-color="#92D050"/><stop offset="0.33" stop-color="#029C48"/><stop offset="1" stop-color="#0F1113"/></radialGradient><linearGradient x1="2725.5" y1="1193" x2="2725.5" y2="1348" gradientUnits="userSpaceOnUse" spreadMethod="reflect" id="fill2"><stop offset="0" stop-color="#F5FAFF" stop-opacity="0.231373"/><stop offset="0.32" stop-color="#FFFFFF" stop-opacity="0"/><stop offset="1" stop-color="#FFFFFF" stop-opacity="0"/></linearGradient><radialGradient cx="94210.5" cy="102524" r="139236" gradientUnits="userSpaceOnUse" spreadMethod="pad" id="fill3" gradientTransform="matrix(0.000360892 0 0 0.000360892 2491 1316)"><stop offset="0" stop-color="#92D050"/><stop offset="0.54" stop-color="#09522C" stop-opacity="0"/><stop offset="1" stop-color="#09522C" stop-opacity="0"/></radialGradient><radialGradient cx="110836" cy="120534" r="163748" gradientUnits="userSpaceOnUse" spreadMethod="pad" id="fill4" gradientTransform="matrix(0.000360892 0 0 0.000360892 2520 1361)"><stop offset="0" stop-color="#92D050"/><stop offset="0.54" stop-color="#09522C" stop-opacity="0"/><stop offset="1" stop-color="#09522C" stop-opacity="0"/></radialGradient><radialGradient cx="292331" cy="278477" r="403741" fx="292331" fy="278476" gradientUnits="userSpaceOnUse" spreadMethod="pad" id="fill5" gradientTransform="matrix(0.000360892 0 0 0.000360892 2741 1492)"><stop offset="0" stop-color="#92D050"/><stop offset="0.54" stop-color="#09522C" stop-opacity="0"/><stop offset="1" stop-color="#09522C" stop-opacity="0"/></radialGradient><radialGradient cx="374073" cy="430876" r="570601" fx="374073" fy="430876" gradientUnits="userSpaceOnUse" spreadMethod="pad" id="fill6" gradientTransform="matrix(0.000360892 0 0 0.000360892 2472 1208)"><stop offset="0" stop-color="#92D050"/><stop offset="0.54" stop-color="#09522C" stop-opacity="0"/><stop offset="1" stop-color="#09522C" stop-opacity="0"/></radialGradient><radialGradient cx="72043.5" cy="77585.5" r="105876" fx="72043.5" fy="77585.5" gradientUnits="userSpaceOnUse" spreadMethod="pad" id="fill7" gradientTransform="matrix(0.000360892 0 0 0.000360892 2886 1620)"><stop offset="0" stop-color="#92D050"/><stop offset="0.54" stop-color="#09522C" stop-opacity="0"/><stop offset="1" stop-color="#09522C" stop-opacity="0"/></radialGradient><radialGradient cx="77585.5" cy="84513" r="114726" fx="77585.5" fy="84513" gradientUnits="userSpaceOnUse" spreadMethod="pad" id="fill8" gradientTransform="matrix(0.000360892 0 0 0.000360892 2870 1537)"><stop offset="0" stop-color="#92D050"/><stop offset="0.54" stop-color="#09522C" stop-opacity="0"/><stop offset="1" stop-color="#09522C" stop-opacity="0"/></radialGradient><clipPath id="clip9"><rect x="2491" y="1222" width="483" height="482"/></clipPath><clipPath id="clip10"><rect x="2491" y="1222" width="483" height="482"/></clipPath><clipPath id="clip11"><rect x="2491" y="1222" width="483" height="482"/></clipPath></defs><g clip-path="url(#clip0)" transform="translate(-2452 -1188)"><rect x="2452" y="1188" width="550" height="550" fill="url(#fill1)"/><path d="M2486.73 1193 2964.27 1193C2980.14 1193 2993 1212.99 2993 1237.66L2993 1348C2993 1309.58 2972.96 1278.43 2948.23 1278.43L2502.77 1278.43C2478.04 1278.43 2458 1309.58 2458 1348L2458 1237.66C2458 1212.99 2470.86 1193 2486.73 1193Z" fill="url(#fill2)" fill-rule="evenodd"/><path d="M2491 1353C2491 1332.57 2506.22 1316 2525 1316 2543.78 1316 2559 1332.57 2559 1353 2559 1373.43 2543.78 1390 2525 1390 2506.22 1390 2491 1373.43 2491 1353Z" fill="url(#fill3)" fill-rule="evenodd"/><path d="M2520 1404.5C2520 1380.48 2537.91 1361 2560 1361 2582.09 1361 2600 1380.48 2600 1404.5 2600 1428.52 2582.09 1448 2560 1448 2537.91 1448 2520 1428.52 2520 1404.5Z" fill="url(#fill4)" fill-rule="evenodd"/><path d="M2741 1592.5C2741 1537 2788.23 1492 2846.5 1492 2904.77 1492 2952 1537 2952 1592.5 2952 1648 2904.77 1693 2846.5 1693 2788.23 1693 2741 1648 2741 1592.5Z" fill="url(#fill5)" fill-rule="evenodd"/><path d="M2472 1363.5C2472 1277.62 2532.44 1208 2607 1208 2681.56 1208 2742 1277.62 2742 1363.5 2742 1449.38 2681.56 1519 2607 1519 2532.44 1519 2472 1449.38 2472 1363.5Z" fill="url(#fill6)" fill-rule="evenodd"/><path d="M2886 1648C2886 1632.54 2897.64 1620 2912 1620 2926.36 1620 2938 1632.54 2938 1648 2938 1663.46 2926.36 1676 2912 1676 2897.64 1676 2886 1663.46 2886 1648Z" fill="url(#fill7)" fill-rule="evenodd"/><path d="M2870 1567.5C2870 1550.66 2882.54 1537 2898 1537 2913.46 1537 2926 1550.66 2926 1567.5 2926 1584.34 2913.46 1598 2898 1598 2882.54 1598 2870 1584.34 2870 1567.5Z" fill="url(#fill8)" fill-rule="evenodd"/><g clip-path="url(#clip9)"><g clip-path="url(#clip10)"><g clip-path="url(#clip11)"><path d="M2878.79 1549.91C2865.65 1530.92 2843.74 1519.96 2820.37 1519.96 2807.95 1519.96 2796.27 1522.88 2786.04 1528.73L2577.91 1232.22C2575.72 1229.3 2571.33 1228.57 2567.68 1230.76 2564.76 1232.95 2563.3 1237.34 2566.22 1240.99L2774.36 1537.49C2747.34 1560.86 2741.49 1602.49 2762.67 1632.43 2765.59 1636.08 2769.98 1636.81 2772.9 1634.62L2877.33 1560.86C2880.25 1557.94 2880.98 1552.83 2878.79 1549.91Z" stroke="#92D050" stroke-width="4.59047" fill="#0F1113"/><path d="M2891.21 1566.7C2887.55 1571.82 2883.9 1573.28 2878.06 1577.66 2910.19 1584.96 2921.15 1626.59 2896.32 1648.5L2857.61 1592.99 2810.87 1625.86 2852.5 1685.01C2861.26 1698.16 2879.52 1701.08 2892.67 1692.32 2902.89 1685.01 2906.54 1673.33 2903.62 1661.64 2935.75 1635.35 2929.18 1583.5 2891.21 1566.7Z" stroke="#92D050" stroke-width="4.59047" fill="#0F1113"/><path d="M2714.47 1477.61 2678.69 1528.73C2667.73 1522.88 2656.05 1519.96 2644.36 1519.96 2620.99 1519.96 2599.08 1530.92 2585.94 1549.91 2583.75 1553.56 2584.48 1557.94 2588.13 1560.13L2692.56 1633.89C2695.49 1636.08 2700.6 1635.35 2702.79 1631.7 2723.97 1601.76 2718.12 1560.86 2691.1 1536.76L2723.97 1490.02 2714.47 1477.61Z" stroke="#92D050" stroke-width="4.59047" fill="#0F1113"/><path d="M2897.78 1240.99C2899.97 1237.34 2899.24 1232.95 2895.59 1230.76 2892.67 1228.57 2888.29 1229.3 2886.09 1232.22L2740.76 1438.9 2749.53 1451.32 2897.78 1240.99Z" stroke="#92D050" stroke-width="4.59047" fill="#0F1113"/><path d="M2568.41 1647.77C2544.31 1625.86 2553.81 1584.96 2586.67 1576.93 2580.1 1571.82 2576.45 1571.08 2573.52 1565.97 2534.82 1582.77 2528.98 1634.62 2561.84 1660.91 2558.92 1671.87 2563.3 1684.28 2572.79 1691.58 2585.21 1700.35 2603.47 1697.43 2612.23 1684.28L2653.86 1625.13 2607.12 1592.26 2568.41 1647.77Z" stroke="#92D050" stroke-width="4.59047" fill="#0F1113"/></g></g></g></g></svg>