<svg width="550" height="550" xmlns="http://www.w3.org/2000/svg" xmlns:xlink="http://www.w3.org/1999/xlink" overflow="hidden"><defs><clipPath id="clip0"><rect x="642" y="29" width="550" height="550"/></clipPath><radialGradient cx="762000" cy="762000" r="1.07763e+06" gradientUnits="userSpaceOnUse" spreadMethod="pad" id="fill1" gradientTransform="matrix(0.000360892 0 0 0.000360892 642 28.9999)"><stop offset="0" stop-color="#92D050"/><stop offset="0.17" stop-color="#92D050"/><stop offset="0.33" stop-color="#029C48"/><stop offset="1" stop-color="#0F1113"/></radialGradient><linearGradient x1="915.5" y1="35.0001" x2="915.5" y2="189" gradientUnits="userSpaceOnUse" spreadMethod="reflect" id="fill2"><stop offset="0" stop-color="#F5FAFF" stop-opacity="0.231373"/><stop offset="0.32" stop-color="#FFFFFF" stop-opacity="0"/><stop offset="1" stop-color="#FFFFFF" stop-opacity="0"/></linearGradient><radialGradient cx="94211" cy="102524" r="139236" gradientUnits="userSpaceOnUse" spreadMethod="pad" id="fill3" gradientTransform="matrix(0.000360892 0 0 0.000360892 681 157)"><stop offset="0" stop-color="#92D050"/><stop offset="0.54" stop-color="#09522C" stop-opacity="0"/><stop offset="1" stop-color="#09522C" stop-opacity="0"/></radialGradient><radialGradient cx="112222" cy="121920" r="165705" fx="112222" fy="121920" gradientUnits="userSpaceOnUse" spreadMethod="pad" id="fill4" gradientTransform="matrix(0.000360892 0 0 0.000360892 710 202)"><stop offset="0" stop-color="#92D050"/><stop offset="0.54" stop-color="#09522C" stop-opacity="0"/><stop offset="1" stop-color="#09522C" stop-opacity="0"/></radialGradient><radialGradient cx="293716" cy="278476" r="404745" gradientUnits="userSpaceOnUse" spreadMethod="pad" id="fill5" gradientTransform="matrix(0.000360892 0 0 0.000360892 931 333)"><stop offset="0" stop-color="#92D050"/><stop offset="0.54" stop-color="#09522C" stop-opacity="0"/><stop offset="1" stop-color="#09522C" stop-opacity="0"/></radialGradient><radialGradient cx="374072" cy="430876" r="570600" gradientUnits="userSpaceOnUse" spreadMethod="pad" id="fill6" gradientTransform="matrix(0.000360892 0 0 0.000360892 663 49.0002)"><stop offset="0" stop-color="#92D050"/><stop offset="0.54" stop-color="#09522C" stop-opacity="0"/><stop offset="1" stop-color="#09522C" stop-opacity="0"/></radialGradient><radialGradient cx="70658" cy="77585.5" r="104938" gradientUnits="userSpaceOnUse" spreadMethod="pad" id="fill7" gradientTransform="matrix(0.000360892 0 0 0.000360892 1077 461)"><stop offset="0" stop-color="#92D050"/><stop offset="0.54" stop-color="#09522C" stop-opacity="0"/><stop offset="1" stop-color="#09522C" stop-opacity="0"/></radialGradient><radialGradient cx="77585" cy="83127" r="113708" gradientUnits="userSpaceOnUse" spreadMethod="pad" id="fill8" gradientTransform="matrix(0.000360892 0 0 0.000360892 1061 379)"><stop offset="0" stop-color="#92D050"/><stop offset="0.54" stop-color="#09522C" stop-opacity="0"/><stop offset="1" stop-color="#09522C" stop-opacity="0"/></radialGradient><clipPath id="clip9"><rect x="760" y="210" width="324" height="247"/></clipPath><clipPath id="clip10"><rect x="760" y="210" width="324" height="247"/></clipPath><clipPath id="clip11"><rect x="760" y="210" width="324" height="247"/></clipPath></defs><g clip-path="url(#clip0)" transform="translate(-642 -29)"><rect x="642" y="28.9999" width="550" height="550" fill="url(#fill1)"/><path d="M676.734 35.0001 1154.27 35.0001C1170.14 35.0001 1183 54.864 1183 79.3677L1183 189C1183 150.824 1162.96 119.876 1138.23 119.876L692.767 119.876C668.043 119.876 648 150.824 648 189L648 79.3677C648 54.864 660.864 35.0001 676.734 35.0001Z" fill="url(#fill2)" fill-rule="evenodd"/><path d="M681 194C681 173.566 696.222 157 715 157 733.778 157 749 173.566 749 194 749 214.435 733.778 231 715 231 696.222 231 681 214.435 681 194Z" fill="url(#fill3)" fill-rule="evenodd"/><path d="M710 246C710 221.7 728.132 202 750.5 202 772.867 202 791 221.7 791 246 791 270.301 772.867 290 750.5 290 728.132 290 710 270.301 710 246Z" fill="url(#fill4)" fill-rule="evenodd"/><path d="M931 433.5C931 377.995 978.458 333 1037 333 1095.54 333 1143 377.995 1143 433.5 1143 489.005 1095.54 534 1037 534 978.458 534 931 489.005 931 433.5Z" fill="url(#fill5)" fill-rule="evenodd"/><path d="M663 204.5C663 118.62 723.442 49.0002 798 49.0002 872.558 49.0002 933 118.62 933 204.5 933 290.38 872.558 360 798 360 723.442 360 663 290.38 663 204.5Z" fill="url(#fill6)" fill-rule="evenodd"/><path d="M1077 489C1077 473.536 1088.42 461 1102.5 461 1116.58 461 1128 473.536 1128 489 1128 504.464 1116.58 517 1102.5 517 1088.42 517 1077 504.464 1077 489Z" fill="url(#fill7)" fill-rule="evenodd"/><path d="M1061 409C1061 392.432 1073.54 379 1089 379 1104.46 379 1117 392.432 1117 409 1117 425.569 1104.46 439 1089 439 1073.54 439 1061 425.569 1061 409Z" fill="url(#fill8)" fill-rule="evenodd"/><g clip-path="url(#clip9)"><g clip-path="url(#clip10)"><g clip-path="url(#clip11)"><path d="M332.462 586.054C324.843 583.738 319.511 578.389 317.326 570.872L315.857 565.82 325.619 517.131C330.988 490.352 336.128 466.796 337.043 464.783 338.581 461.398 404.732 390 408.117 388.074 409.459 387.306 413.449 389.827 437.742 406.793L445.587 412.273 479.824 418.653C503.142 422.999 515.143 424.855 517.456 424.479 529.672 422.484 536.148 406.392 528.572 396.849 524.029 391.12 520.087 389.861 488.9 384.163 465.067 379.81 459.469 378.496 456.523 376.577L452.962 374.257 456.523 373.4C458.484 372.926 468.317 372.525 478.382 372.501 506.693 372.435 524.112 375.575 535.166 382.732 542.084 387.21 546.092 391.812 549.608 399.328 553.214 407.039 553.553 416.018 550.455 421.872 544.989 432.203 530.387 438.658 515.388 437.375 511.589 437.05 497.388 436.784 483.828 436.781 456.983 436.774 445.11 437.887 428.984 441.915 423.953 443.17 418.397 444.218 416.633 444.239 413.653 444.277 412.114 445.691 394.678 464.389L375.927 484.499 367.156 528.157C361.399 556.82 357.71 573.133 356.413 575.65 352.26 583.727 340.953 588.637 332.462 586.054ZM457.339 586.054C453.277 585.065 449.411 582.828 446.707 579.9 442.849 575.726 389.685 502.544 388.465 499.729 387.026 496.41 387.102 488.219 388.641 481.051 389.823 475.54 390.238 474.966 402.06 462.46 414.87 448.906 416.125 447.859 419.545 447.855 420.71 447.855 425.675 446.884 430.581 445.698 435.488 444.508 439.502 443.585 439.498 443.64 439.498 443.696 437.642 453.349 435.377 465.091 433.112 476.833 431.511 486.846 431.816 487.341 432.12 487.832 443.395 503.287 456.866 521.681 470.703 540.573 481.809 556.613 482.389 558.546 484.073 564.168 483.631 569.645 481.082 574.762 478.268 580.411 473.673 584.111 467.487 585.715 462.47 587.019 461.44 587.053 457.339 586.054ZM590.214 444.173C581.314 441.939 571.854 434.986 566.816 426.975 562.318 419.821 560.911 414.044 561.333 404.445 561.647 397.216 562.128 395.12 564.624 390.048 568.351 382.48 575.381 375.447 582.949 371.723 588.025 369.223 590.12 368.746 597.347 368.428 610.226 367.864 619.558 371.616 627.96 380.733 646.029 400.338 638.333 432.804 613.317 442.503 607.647 444.702 595.749 445.559 590.214 444.173ZM479.143 414.5C462.453 411.35 448.173 408.532 447.406 408.238 444.145 406.987 382.545 363.266 381.242 361.278 379.012 357.872 378.662 351.676 380.488 347.828 383.181 342.158 390.888 338.73 396.528 340.695 398.101 341.243 412.63 350.908 428.821 362.17L458.256 382.649 488.859 388.299C515.067 393.139 519.894 394.28 522.466 396.241 525.982 398.924 526.937 400.497 527.784 405.013 528.652 409.639 525.796 415.852 521.615 418.438 516.982 421.298 513.442 420.969 479.143 414.5ZM430.356 358.36 412.827 346.13 414.901 343.919C417.916 340.71 423.096 339.364 427.424 340.661 429.336 341.234 439.401 347.61 449.791 354.833L468.68 367.961 458.283 369.275 447.886 370.589Z" stroke="#92D050" stroke-width="4.36224" fill="#0F1113" transform="matrix(1.00306 0 0 1 443.176 -130.137)"/></g></g></g></g></svg>