<svg width="550" height="550" xmlns="http://www.w3.org/2000/svg" xmlns:xlink="http://www.w3.org/1999/xlink" overflow="hidden"><defs><clipPath id="clip0"><rect x="1215" y="23" width="550" height="550"/></clipPath><radialGradient cx="762000" cy="762000" r="1.07763e+06" gradientUnits="userSpaceOnUse" spreadMethod="pad" id="fill1" gradientTransform="matrix(0.000360892 0 0 0.000360892 1215 23)"><stop offset="0" stop-color="#92D050"/><stop offset="0.17" stop-color="#92D050"/><stop offset="0.33" stop-color="#029C48"/><stop offset="1" stop-color="#0F1113"/></radialGradient><linearGradient x1="1488.5" y1="27.9998" x2="1488.5" y2="183" gradientUnits="userSpaceOnUse" spreadMethod="reflect" id="fill2"><stop offset="0" stop-color="#F5FAFF" stop-opacity="0.231373"/><stop offset="0.32" stop-color="#FFFFFF" stop-opacity="0"/><stop offset="1" stop-color="#FFFFFF" stop-opacity="0"/></linearGradient><radialGradient cx="94211" cy="102524" r="139237" fx="94211" fy="102524" gradientUnits="userSpaceOnUse" spreadMethod="pad" id="fill3" gradientTransform="matrix(0.000360892 0 0 0.000360892 1254 151)"><stop offset="0" stop-color="#92D050"/><stop offset="0.54" stop-color="#09522C" stop-opacity="0"/><stop offset="1" stop-color="#09522C" stop-opacity="0"/></radialGradient><radialGradient cx="110836" cy="120534" r="163748" gradientUnits="userSpaceOnUse" spreadMethod="pad" id="fill4" gradientTransform="matrix(0.000360892 0 0 0.000360892 1283 196)"><stop offset="0" stop-color="#92D050"/><stop offset="0.54" stop-color="#09522C" stop-opacity="0"/><stop offset="1" stop-color="#09522C" stop-opacity="0"/></radialGradient><radialGradient cx="292331" cy="278477" r="403741" fx="292331" fy="278476" gradientUnits="userSpaceOnUse" spreadMethod="pad" id="fill5" gradientTransform="matrix(0.000360892 0 0 0.000360892 1504 327)"><stop offset="0" stop-color="#92D050"/><stop offset="0.54" stop-color="#09522C" stop-opacity="0"/><stop offset="1" stop-color="#09522C" stop-opacity="0"/></radialGradient><radialGradient cx="374073" cy="451659" r="586452" fx="374072" fy="451658" gradientUnits="userSpaceOnUse" spreadMethod="pad" id="fill6" gradientTransform="matrix(0.000360892 0 0 0.000360892 1235 27.9998)"><stop offset="0" stop-color="#92D050"/><stop offset="0.54" stop-color="#09522C" stop-opacity="0"/><stop offset="1" stop-color="#09522C" stop-opacity="0"/></radialGradient><radialGradient cx="72043.5" cy="77585.5" r="105876" fx="72043.5" fy="77585.5" gradientUnits="userSpaceOnUse" spreadMethod="pad" id="fill7" gradientTransform="matrix(0.000360892 0 0 0.000360892 1649 455)"><stop offset="0" stop-color="#92D050"/><stop offset="0.54" stop-color="#09522C" stop-opacity="0"/><stop offset="1" stop-color="#09522C" stop-opacity="0"/></radialGradient><radialGradient cx="77585" cy="84513" r="114725" gradientUnits="userSpaceOnUse" spreadMethod="pad" id="fill8" gradientTransform="matrix(0.000360892 0 0 0.000360892 1633 372)"><stop offset="0" stop-color="#92D050"/><stop offset="0.54" stop-color="#09522C" stop-opacity="0"/><stop offset="1" stop-color="#09522C" stop-opacity="0"/></radialGradient><clipPath id="clip9"><rect x="1221" y="28" width="536" height="537"/></clipPath><clipPath id="clip10"><rect x="1221" y="28" width="536" height="537"/></clipPath><clipPath id="clip11"><rect x="1221" y="28" width="536" height="537"/></clipPath></defs><g clip-path="url(#clip0)" transform="translate(-1215 -23)"><rect x="1215" y="23" width="550" height="550" fill="url(#fill1)"/><path d="M1249.73 27.9998 1727.27 27.9998C1743.14 27.9998 1756 47.9928 1756 72.6556L1756 183C1756 144.576 1735.96 113.427 1711.23 113.427L1265.77 113.427C1241.04 113.427 1221 144.576 1221 183L1221 72.6556C1221 47.9928 1233.86 27.9998 1249.73 27.9998Z" fill="url(#fill2)" fill-rule="evenodd"/><path d="M1254 188C1254 167.565 1269.22 151 1288 151 1306.78 151 1322 167.565 1322 188 1322 208.435 1306.78 225 1288 225 1269.22 225 1254 208.435 1254 188Z" fill="url(#fill3)" fill-rule="evenodd"/><path d="M1283 239.5C1283 215.476 1300.91 196 1323 196 1345.09 196 1363 215.476 1363 239.5 1363 263.524 1345.09 283 1323 283 1300.91 283 1283 263.524 1283 239.5Z" fill="url(#fill4)" fill-rule="evenodd"/><path d="M1504 427.5C1504 371.995 1551.23 327 1609.5 327 1667.77 327 1715 371.995 1715 427.5 1715 483.005 1667.77 528 1609.5 528 1551.23 528 1504 483.005 1504 427.5Z" fill="url(#fill5)" fill-rule="evenodd"/><path d="M1235 191C1235 100.977 1295.44 27.9998 1370 27.9998 1444.56 27.9998 1505 100.977 1505 191 1505 281.022 1444.56 354 1370 354 1295.44 354 1235 281.022 1235 191Z" fill="url(#fill6)" fill-rule="evenodd"/><path d="M1649 483C1649 467.536 1660.64 455 1675 455 1689.36 455 1701 467.536 1701 483 1701 498.464 1689.36 511 1675 511 1660.64 511 1649 498.464 1649 483Z" fill="url(#fill7)" fill-rule="evenodd"/><path d="M1633 402.5C1633 385.655 1645.54 372 1661 372 1676.46 372 1689 385.655 1689 402.5 1689 419.345 1676.46 433 1661 433 1645.54 433 1633 419.345 1633 402.5Z" fill="url(#fill8)" fill-rule="evenodd"/><g clip-path="url(#clip9)"><g clip-path="url(#clip10)"><g clip-path="url(#clip11)"><path d="M306.872 285.365 267.325 315.293 306.872 339.631 259.208 393.889 285.578 393.889 358.449 329.484Z" stroke="#92D050" stroke-width="4.60216" fill="#0F1113" fill-rule="evenodd" transform="matrix(1.00187 0 0 1 1221 28.9999)"/><path d="M409.574 215.391 369.979 250.605 338.067 219.163C338.302 218.569 338.542 217.97 338.532 217.263 338.403 201.936 344.941 206.687 355.439 207.382 365.929 208.089 378.524 188.491 384.115 173.8 389.71 159.108 387.624 141.615 361.736 135.317 335.848 129.02 328.854 157.706 326.757 167.502 324.638 177.299 318.347 180.128 318.347 180.128L300.847 180.128C300.558 180.722 300.441 181.246 300.178 181.83L246.165 128.598 197.926 211.696 214.164 206.535 246.168 170.567 271.341 194.567 99.0883 409.173 122.954 409.173 326.963 247.541 373.976 292.32 431.253 207.589Z" stroke="#92D050" stroke-width="4.60216" fill="#0F1113" fill-rule="evenodd" transform="matrix(1.00187 0 0 1 1221 28.9999)"/></g></g></g></g></svg>