<svg width="550" height="550" xmlns="http://www.w3.org/2000/svg" xmlns:xlink="http://www.w3.org/1999/xlink" overflow="hidden"><defs><clipPath id="clip0"><rect x="2448" y="24" width="550" height="550"/></clipPath><radialGradient cx="762000" cy="762000" r="1.07763e+06" gradientUnits="userSpaceOnUse" spreadMethod="pad" id="fill1" gradientTransform="matrix(0.000360892 0 0 0.000360892 2448 24.0001)"><stop offset="0" stop-color="#92D050"/><stop offset="0.17" stop-color="#92D050"/><stop offset="0.33" stop-color="#029C48"/><stop offset="1" stop-color="#0F1113"/></radialGradient><linearGradient x1="2721" y1="29.9999" x2="2721" y2="184" gradientUnits="userSpaceOnUse" spreadMethod="reflect" id="fill2"><stop offset="0" stop-color="#F5FAFF" stop-opacity="0.231373"/><stop offset="0.32" stop-color="#FFFFFF" stop-opacity="0"/><stop offset="1" stop-color="#FFFFFF" stop-opacity="0"/></linearGradient><radialGradient cx="94211" cy="102524" r="139236" gradientUnits="userSpaceOnUse" spreadMethod="pad" id="fill3" gradientTransform="matrix(0.000360892 0 0 0.000360892 2487 152)"><stop offset="0" stop-color="#92D050"/><stop offset="0.54" stop-color="#09522C" stop-opacity="0"/><stop offset="1" stop-color="#09522C" stop-opacity="0"/></radialGradient><radialGradient cx="110836" cy="121920" r="164770" fx="110836" fy="121920" gradientUnits="userSpaceOnUse" spreadMethod="pad" id="fill4" gradientTransform="matrix(0.000360892 0 0 0.000360892 2516 197)"><stop offset="0" stop-color="#92D050"/><stop offset="0.54" stop-color="#09522C" stop-opacity="0"/><stop offset="1" stop-color="#09522C" stop-opacity="0"/></radialGradient><radialGradient cx="292331" cy="278477" r="403741" fx="292331" fy="278476" gradientUnits="userSpaceOnUse" spreadMethod="pad" id="fill5" gradientTransform="matrix(0.000360892 0 0 0.000360892 2737 328)"><stop offset="0" stop-color="#92D050"/><stop offset="0.54" stop-color="#09522C" stop-opacity="0"/><stop offset="1" stop-color="#09522C" stop-opacity="0"/></radialGradient><radialGradient cx="374072" cy="430876" r="570600" gradientUnits="userSpaceOnUse" spreadMethod="pad" id="fill6" gradientTransform="matrix(0.000360892 0 0 0.000360892 2468 44)"><stop offset="0" stop-color="#92D050"/><stop offset="0.54" stop-color="#09522C" stop-opacity="0"/><stop offset="1" stop-color="#09522C" stop-opacity="0"/></radialGradient><radialGradient cx="72043.5" cy="77585" r="105876" gradientUnits="userSpaceOnUse" spreadMethod="pad" id="fill7" gradientTransform="matrix(0.000360892 0 0 0.000360892 2882 456)"><stop offset="0" stop-color="#92D050"/><stop offset="0.54" stop-color="#09522C" stop-opacity="0"/><stop offset="1" stop-color="#09522C" stop-opacity="0"/></radialGradient><radialGradient cx="77585.5" cy="83127.5" r="113709" gradientUnits="userSpaceOnUse" spreadMethod="pad" id="fill8" gradientTransform="matrix(0.000360892 0 0 0.000360892 2866 374)"><stop offset="0" stop-color="#92D050"/><stop offset="0.54" stop-color="#09522C" stop-opacity="0"/><stop offset="1" stop-color="#09522C" stop-opacity="0"/></radialGradient><clipPath id="clip9"><rect x="2480" y="56" width="494" height="493"/></clipPath><clipPath id="clip10"><rect x="2480" y="56" width="494" height="493"/></clipPath><clipPath id="clip11"><rect x="2480" y="56" width="494" height="493"/></clipPath></defs><g clip-path="url(#clip0)" transform="translate(-2448 -24)"><rect x="2448" y="24.0001" width="550" height="550" fill="url(#fill1)"/><path d="M2481.79 29.9999 2960.21 29.9999C2976.11 29.9999 2989 49.8638 2989 74.3676L2989 184C2989 145.824 2968.92 114.876 2944.15 114.876L2497.85 114.876C2473.08 114.876 2453 145.824 2453 184L2453 74.3676C2453 49.8638 2465.89 29.9999 2481.79 29.9999Z" fill="url(#fill2)" fill-rule="evenodd"/><path d="M2487 189C2487 168.565 2502.22 152 2521 152 2539.78 152 2555 168.565 2555 189 2555 209.434 2539.78 226 2521 226 2502.22 226 2487 209.434 2487 189Z" fill="url(#fill3)" fill-rule="evenodd"/><path d="M2516 241C2516 216.699 2533.91 197 2556 197 2578.09 197 2596 216.699 2596 241 2596 265.301 2578.09 285 2556 285 2533.91 285 2516 265.301 2516 241Z" fill="url(#fill4)" fill-rule="evenodd"/><path d="M2737 428.5C2737 372.995 2784.23 328 2842.5 328 2900.77 328 2948 372.995 2948 428.5 2948 484.005 2900.77 529 2842.5 529 2784.23 529 2737 484.005 2737 428.5Z" fill="url(#fill5)" fill-rule="evenodd"/><path d="M2468 199.5C2468 113.62 2528.44 44 2603 44 2677.56 44 2738 113.62 2738 199.5 2738 285.38 2677.56 355 2603 355 2528.44 355 2468 285.38 2468 199.5Z" fill="url(#fill6)" fill-rule="evenodd"/><path d="M2882 484C2882 468.536 2893.64 456 2908 456 2922.36 456 2934 468.536 2934 484 2934 499.464 2922.36 512 2908 512 2893.64 512 2882 499.464 2882 484Z" fill="url(#fill7)" fill-rule="evenodd"/><path d="M2866 404C2866 387.431 2878.54 374 2894 374 2909.46 374 2922 387.431 2922 404 2922 420.569 2909.46 434 2894 434 2878.54 434 2866 420.569 2866 404Z" fill="url(#fill8)" fill-rule="evenodd"/><g clip-path="url(#clip9)"><g clip-path="url(#clip10)"><g clip-path="url(#clip11)"><path d="M2672.35 291.947 2759.85 204.439 2772.33 216.918 2847.36 141.89 2820.79 115.314 2658.25 277.85 2672.35 291.947Z" stroke="#92D050" stroke-width="4.59674" fill="#0F1113"/><path d="M2636.45 277.85 2641.84 272.458 2641.84 272.458 2655.02 259.285 2655.02 259.285 2656.94 257.36 2637.91 248.578 2620.74 265.679 2635.14 279.391 2636.68 277.773Z" stroke="#92D050" stroke-width="4.59674" fill="#0F1113"/><path d="M2676.04 451.478C2656.96 409.808 2665.78 360.668 2698.15 328.228L2753.69 272.689 2733.28 252.353 2672.58 313.747 2667.11 308.277 2667.11 308.277 2647.7 288.865C2602.16 338.702 2592.71 411.716 2624.05 471.507L2625.05 473.432C2628.85 480.846 2635.49 486.404 2643.46 488.839 2650.48 490.948 2658.05 490.084 2664.41 486.451 2675.89 479.908 2681.23 466.221 2677.2 453.635Z" stroke="#92D050" stroke-width="4.59674" fill="#0F1113"/><path d="M2710.25 350.645C2710.66 350.443 2710.93 350.027 2710.94 349.566 2710.94 348.95 2710.94 348.796 2710.94 348.719 2708.89 347.289 2707.03 345.607 2705.39 343.712 2702.44 347.023 2699.73 350.551 2697.31 354.265 2701.79 353.78 2706.16 352.556 2710.25 350.645Z" stroke="#92D050" stroke-width="4.59674" fill="#0F1113"/><path d="M2759.85 226.239 2744.45 241.645 2764.78 261.982 2773.34 253.431C2775.23 251.561 2776.28 249.005 2776.26 246.344 2776.29 243.705 2775.23 241.171 2773.34 239.334Z" stroke="#92D050" stroke-width="4.59674" fill="#0F1113"/><path d="M2667.73 401.177 2665.88 401.177 2666.57 385.771C2686.94 385.819 2706.59 378.296 2721.72 364.664L2740.44 345.869C2747.78 338.529 2747.78 326.632 2740.44 319.293L2721.72 300.574 2732.59 289.636 2751.3 308.431C2764.62 321.806 2764.62 343.432 2751.3 356.807L2732.59 375.526C2714.99 391.979 2691.81 401.146 2667.73 401.177Z" stroke="#92D050" stroke-width="4.59674" fill="#0F1113"/></g></g></g></g></svg>