<svg width="550" height="550" xmlns="http://www.w3.org/2000/svg" xmlns:xlink="http://www.w3.org/1999/xlink" overflow="hidden"><defs><clipPath id="clip0"><rect x="31" y="29" width="550" height="550"/></clipPath><radialGradient cx="762000" cy="762000" r="1.07763e+06" gradientUnits="userSpaceOnUse" spreadMethod="pad" id="fill1" gradientTransform="matrix(0.000360892 0 0 0.000360892 30.9999 28.9999)"><stop offset="0" stop-color="#92D050"/><stop offset="0.17" stop-color="#92D050"/><stop offset="0.33" stop-color="#029C48"/><stop offset="1" stop-color="#0F1113"/></radialGradient><linearGradient x1="304.5" y1="35.0001" x2="304.5" y2="189" gradientUnits="userSpaceOnUse" spreadMethod="reflect" id="fill2"><stop offset="0" stop-color="#F5FAFF" stop-opacity="0.231373"/><stop offset="0.32" stop-color="#FFFFFF" stop-opacity="0"/><stop offset="1" stop-color="#FFFFFF" stop-opacity="0"/></linearGradient><radialGradient cx="94210.5" cy="102524" r="139236" gradientUnits="userSpaceOnUse" spreadMethod="pad" id="fill3" gradientTransform="matrix(0.000360892 0 0 0.000360892 70.0001 157)"><stop offset="0" stop-color="#92D050"/><stop offset="0.54" stop-color="#09522C" stop-opacity="0"/><stop offset="1" stop-color="#09522C" stop-opacity="0"/></radialGradient><radialGradient cx="112222" cy="121920" r="165705" fx="112222" fy="121920" gradientUnits="userSpaceOnUse" spreadMethod="pad" id="fill4" gradientTransform="matrix(0.000360892 0 0 0.000360892 99 202)"><stop offset="0" stop-color="#92D050"/><stop offset="0.54" stop-color="#09522C" stop-opacity="0"/><stop offset="1" stop-color="#09522C" stop-opacity="0"/></radialGradient><radialGradient cx="292331" cy="278476" r="403740" gradientUnits="userSpaceOnUse" spreadMethod="pad" id="fill5" gradientTransform="matrix(0.000360892 0 0 0.000360892 320 333)"><stop offset="0" stop-color="#92D050"/><stop offset="0.54" stop-color="#09522C" stop-opacity="0"/><stop offset="1" stop-color="#09522C" stop-opacity="0"/></radialGradient><radialGradient cx="374073" cy="430876" r="570600" fx="374073" fy="430876" gradientUnits="userSpaceOnUse" spreadMethod="pad" id="fill6" gradientTransform="matrix(0.000360892 0 0 0.000360892 51.9999 49.0002)"><stop offset="0" stop-color="#92D050"/><stop offset="0.54" stop-color="#09522C" stop-opacity="0"/><stop offset="1" stop-color="#09522C" stop-opacity="0"/></radialGradient><radialGradient cx="70658" cy="77585.5" r="104938" gradientUnits="userSpaceOnUse" spreadMethod="pad" id="fill7" gradientTransform="matrix(0.000360892 0 0 0.000360892 466 461)"><stop offset="0" stop-color="#92D050"/><stop offset="0.54" stop-color="#09522C" stop-opacity="0"/><stop offset="1" stop-color="#09522C" stop-opacity="0"/></radialGradient><radialGradient cx="78971" cy="83127" r="114658" fx="78971" fy="83127" gradientUnits="userSpaceOnUse" spreadMethod="pad" id="fill8" gradientTransform="matrix(0.000360892 0 0 0.000360892 449 379)"><stop offset="0" stop-color="#92D050"/><stop offset="0.54" stop-color="#09522C" stop-opacity="0"/><stop offset="1" stop-color="#09522C" stop-opacity="0"/></radialGradient><clipPath id="clip9"><rect x="49" y="49" width="511" height="510"/></clipPath><clipPath id="clip10"><rect x="49" y="49" width="511" height="510"/></clipPath><clipPath id="clip11"><rect x="49" y="49" width="511" height="510"/></clipPath><clipPath id="clip12"><rect x="143" y="143" width="321" height="320"/></clipPath></defs><g clip-path="url(#clip0)" transform="translate(-31 -29)"><rect x="30.9999" y="28.9999" width="550" height="550" fill="url(#fill1)"/><path d="M65.7338 35.0001 543.266 35.0001C559.136 35.0001 572 54.864 572 79.3677L572 189C572 150.824 551.957 119.876 527.233 119.876L81.7669 119.876C57.0429 119.876 37.0001 150.824 37.0001 189L37.0001 79.3677C37.0001 54.864 49.8646 35.0001 65.7338 35.0001Z" fill="url(#fill2)" fill-rule="evenodd"/><path d="M70.0001 194C70.0001 173.566 85.2224 157 104 157 122.778 157 138 173.566 138 194 138 214.435 122.778 231 104 231 85.2224 231 70.0001 214.435 70.0001 194Z" fill="url(#fill3)" fill-rule="evenodd"/><path d="M99 246C99 221.7 117.132 202 139.5 202 161.868 202 180 221.7 180 246 180 270.301 161.868 290 139.5 290 117.132 290 99 270.301 99 246Z" fill="url(#fill4)" fill-rule="evenodd"/><path d="M320 433.5C320 377.995 367.234 333 425.5 333 483.766 333 531 377.995 531 433.5 531 489.005 483.766 534 425.5 534 367.234 534 320 489.005 320 433.5Z" fill="url(#fill5)" fill-rule="evenodd"/><path d="M51.9999 204.5C51.9999 118.62 112.441 49.0002 187 49.0002 261.558 49.0002 322 118.62 322 204.5 322 290.38 261.558 360 187 360 112.441 360 51.9999 290.38 51.9999 204.5Z" fill="url(#fill6)" fill-rule="evenodd"/><path d="M466 489C466 473.536 477.417 461 491.5 461 505.583 461 517 473.536 517 489 517 504.464 505.583 517 491.5 517 477.417 517 466 504.464 466 489Z" fill="url(#fill7)" fill-rule="evenodd"/><path d="M449 409C449 392.432 461.76 379 477.5 379 493.24 379 506 392.432 506 409 506 425.569 493.24 439 477.5 439 461.76 439 449 425.569 449 409Z" fill="url(#fill8)" fill-rule="evenodd"/><g clip-path="url(#clip9)"><g clip-path="url(#clip10)"><g clip-path="url(#clip11)"><g clip-path="url(#clip12)"><path d="M343.701 214.369C350.016 220.685 351.195 229.84 346.27 234.765L340.061 241.349 326.089 227.376 341.345 212.173ZM410.237 105.547 402.155 97.4642C400.205 95.5063 397.556 94.4042 394.795 94.4042 392.032 94.4042 389.382 95.5063 387.433 97.4642L384.434 100.89 384.437 100.89C378.913 99.3611 373.082 99.3184 367.538 100.765 361.99 102.214 356.925 105.099 352.853 109.134L345.2 116.787C341.21 120.801 338.354 125.794 336.916 131.265 335.477 136.736 335.509 142.487 337.009 147.942L333.742 151.209 329.943 147.087C327.951 145.187 325.307 144.13 322.555 144.13 319.804 144.13 317.161 145.187 315.168 147.087L230.537 231.447C230.306 231.701 230.091 231.969 229.895 232.249 228.102 231.699 226.192 231.648 224.372 232.101 222.552 232.554 220.891 233.492 219.564 234.819L158.004 296.378C156.049 298.318 154.95 300.956 154.95 303.711 154.95 306.464 156.049 309.105 158.004 311.044L159.61 312.649 98.6388 357.346C96.2048 359.179 94.668 361.964 94.411 365.002 94.1621 368.025 95.2587 371.002 97.41 373.137L134.559 410.234C136.522 412.154 139.147 413.246 141.892 413.286L142.588 413.286C145.632 413.066 148.422 411.495 150.189 409.002L194.566 347.872 196.492 349.745C198.439 351.687 201.075 352.778 203.824 352.778 206.574 352.778 209.212 351.687 211.16 349.745L226.737 334.168 276.573 384.004 276.57 384.004C278.515 385.993 281.177 387.114 283.959 387.114 286.739 387.114 289.403 385.993 291.346 384.004L299.428 375.921C301.399 373.99 302.498 371.344 302.48 368.589 302.491 365.818 301.392 363.158 299.428 361.2L269.988 331.654 264.634 304.301 264.634 304.298C264.25 302.383 263.32 300.616 261.958 299.215L273.04 288.133C274.974 286.183 276.052 283.544 276.036 280.8 276.039 279.78 275.877 278.768 275.557 277.801L276.36 277.213 303.124 250.449 349.159 296.483C351.109 298.441 353.755 299.543 356.519 299.543 359.282 299.543 361.931 298.441 363.881 296.483L371.963 288.401C373.921 286.451 375.021 283.801 375.021 281.041 375.021 278.277 373.921 275.628 371.963 273.679L347.286 248.949 353.71 242.577C362.916 233.266 361.737 217.526 351.353 206.821L349.05 204.519 360.773 192.797 360.775 192.797C362.672 190.804 363.732 188.161 363.732 185.408 363.732 182.658 362.672 180.014 360.775 178.022L356.706 173.953 359.491 170.741C365.014 172.27 370.842 172.313 376.39 170.866 381.935 169.417 387 166.532 391.071 162.497L398.725 154.844 398.728 154.844C402.715 150.841 405.576 145.861 407.025 140.4 408.47 134.938 408.452 129.195 406.972 123.743L410.235 120.317C412.135 118.325 413.191 115.681 413.191 112.928 413.191 110.178 412.135 107.532 410.235 105.542ZM173.474 311.364 232.357 252.481 232.357 252.484C234.445 250.406 237.817 250.406 239.905 252.484 241.982 254.571 241.982 257.944 239.905 260.031L181.021 318.915 181.024 318.912C178.934 320.989 175.564 320.989 173.474 318.912 171.399 316.824 171.399 313.455 173.474 311.364ZM188.783 334.221C186.709 332.134 186.709 328.761 188.783 326.674L247.667 267.791 247.667 267.793C249.754 265.716 253.127 265.716 255.214 267.793 256.229 268.797 256.798 270.164 256.798 271.592 256.798 273.02 256.229 274.387 255.214 275.394L196.331 334.277C195.319 335.281 193.946 335.843 192.522 335.832 191.093 335.821 189.729 335.244 188.73 334.221Z" stroke="#92D050" stroke-width="4.59459" fill="#0F1113" transform="matrix(1.00196 0 0 1 49.0002 49.0002)"/></g></g></g></g></g></svg>