<svg width="550" height="550" xmlns="http://www.w3.org/2000/svg" xmlns:xlink="http://www.w3.org/1999/xlink" overflow="hidden"><defs><clipPath id="clip0"><rect x="1843" y="1188" width="550" height="550"/></clipPath><radialGradient cx="762000" cy="762000" r="1.07763e+06" gradientUnits="userSpaceOnUse" spreadMethod="pad" id="fill1" gradientTransform="matrix(0.000360892 0 0 0.000360892 1843 1188)"><stop offset="0" stop-color="#92D050"/><stop offset="0.17" stop-color="#92D050"/><stop offset="0.33" stop-color="#029C48"/><stop offset="1" stop-color="#0F1113"/></radialGradient><linearGradient x1="2116.5" y1="1193" x2="2116.5" y2="1348" gradientUnits="userSpaceOnUse" spreadMethod="reflect" id="fill2"><stop offset="0" stop-color="#F5FAFF" stop-opacity="0.231373"/><stop offset="0.32" stop-color="#FFFFFF" stop-opacity="0"/><stop offset="1" stop-color="#FFFFFF" stop-opacity="0"/></linearGradient><radialGradient cx="94211" cy="102524" r="139237" fx="94211" fy="102524" gradientUnits="userSpaceOnUse" spreadMethod="pad" id="fill3" gradientTransform="matrix(0.000360892 0 0 0.000360892 1882 1316)"><stop offset="0" stop-color="#92D050"/><stop offset="0.54" stop-color="#09522C" stop-opacity="0"/><stop offset="1" stop-color="#09522C" stop-opacity="0"/></radialGradient><radialGradient cx="110836" cy="120534" r="163748" gradientUnits="userSpaceOnUse" spreadMethod="pad" id="fill4" gradientTransform="matrix(0.000360892 0 0 0.000360892 1911 1361)"><stop offset="0" stop-color="#92D050"/><stop offset="0.54" stop-color="#09522C" stop-opacity="0"/><stop offset="1" stop-color="#09522C" stop-opacity="0"/></radialGradient><radialGradient cx="292331" cy="278477" r="403741" fx="292331" fy="278476" gradientUnits="userSpaceOnUse" spreadMethod="pad" id="fill5" gradientTransform="matrix(0.000360892 0 0 0.000360892 2132 1492)"><stop offset="0" stop-color="#92D050"/><stop offset="0.54" stop-color="#09522C" stop-opacity="0"/><stop offset="1" stop-color="#09522C" stop-opacity="0"/></radialGradient><radialGradient cx="374072" cy="430876" r="570600" gradientUnits="userSpaceOnUse" spreadMethod="pad" id="fill6" gradientTransform="matrix(0.000360892 0 0 0.000360892 1863 1208)"><stop offset="0" stop-color="#92D050"/><stop offset="0.54" stop-color="#09522C" stop-opacity="0"/><stop offset="1" stop-color="#09522C" stop-opacity="0"/></radialGradient><radialGradient cx="72043.5" cy="77585.5" r="105876" fx="72043.5" fy="77585.5" gradientUnits="userSpaceOnUse" spreadMethod="pad" id="fill7" gradientTransform="matrix(0.000360892 0 0 0.000360892 2277 1620)"><stop offset="0" stop-color="#92D050"/><stop offset="0.54" stop-color="#09522C" stop-opacity="0"/><stop offset="1" stop-color="#09522C" stop-opacity="0"/></radialGradient><radialGradient cx="77585.5" cy="84513" r="114726" fx="77585.5" fy="84513" gradientUnits="userSpaceOnUse" spreadMethod="pad" id="fill8" gradientTransform="matrix(0.000360892 0 0 0.000360892 2261 1537)"><stop offset="0" stop-color="#92D050"/><stop offset="0.54" stop-color="#09522C" stop-opacity="0"/><stop offset="1" stop-color="#09522C" stop-opacity="0"/></radialGradient><clipPath id="clip9"><rect x="1917" y="1258" width="435" height="435"/></clipPath><clipPath id="clip10"><rect x="1917" y="1258" width="435" height="435"/></clipPath><clipPath id="clip11"><rect x="1917" y="1258" width="435" height="435"/></clipPath></defs><g clip-path="url(#clip0)" transform="translate(-1843 -1188)"><rect x="1843" y="1188" width="550" height="550" fill="url(#fill1)"/><path d="M1877.73 1193 2355.27 1193C2371.14 1193 2384 1212.99 2384 1237.66L2384 1348C2384 1309.58 2363.96 1278.43 2339.23 1278.43L1893.77 1278.43C1869.04 1278.43 1849 1309.58 1849 1348L1849 1237.66C1849 1212.99 1861.86 1193 1877.73 1193Z" fill="url(#fill2)" fill-rule="evenodd"/><path d="M1882 1353C1882 1332.57 1897.22 1316 1916 1316 1934.78 1316 1950 1332.57 1950 1353 1950 1373.43 1934.78 1390 1916 1390 1897.22 1390 1882 1373.43 1882 1353Z" fill="url(#fill3)" fill-rule="evenodd"/><path d="M1911 1404.5C1911 1380.48 1928.91 1361 1951 1361 1973.09 1361 1991 1380.48 1991 1404.5 1991 1428.52 1973.09 1448 1951 1448 1928.91 1448 1911 1428.52 1911 1404.5Z" fill="url(#fill4)" fill-rule="evenodd"/><path d="M2132 1592.5C2132 1537 2179.23 1492 2237.5 1492 2295.77 1492 2343 1537 2343 1592.5 2343 1648 2295.77 1693 2237.5 1693 2179.23 1693 2132 1648 2132 1592.5Z" fill="url(#fill5)" fill-rule="evenodd"/><path d="M1863 1363.5C1863 1277.62 1923.44 1208 1998 1208 2072.56 1208 2133 1277.62 2133 1363.5 2133 1449.38 2072.56 1519 1998 1519 1923.44 1519 1863 1449.38 1863 1363.5Z" fill="url(#fill6)" fill-rule="evenodd"/><path d="M2277 1648C2277 1632.54 2288.64 1620 2303 1620 2317.36 1620 2329 1632.54 2329 1648 2329 1663.46 2317.36 1676 2303 1676 2288.64 1676 2277 1663.46 2277 1648Z" fill="url(#fill7)" fill-rule="evenodd"/><path d="M2261 1567.5C2261 1550.66 2273.54 1537 2289 1537 2304.46 1537 2317 1550.66 2317 1567.5 2317 1584.34 2304.46 1598 2289 1598 2273.54 1598 2261 1584.34 2261 1567.5Z" fill="url(#fill8)" fill-rule="evenodd"/><g clip-path="url(#clip9)"><g clip-path="url(#clip10)"><g clip-path="url(#clip11)"><path d="M2343.5 1266.36C2341.86 1264.78 2339.55 1264.05 2337.37 1264.58L2253.67 1283.3C2252.42 1283.56 2251.3 1284.15 2250.44 1285.08L2057 1478.52C2059.37 1478.26 2061.74 1478.12 2064.18 1478.12 2082.17 1478.12 2099.18 1485.18 2111.9 1497.9 2126.86 1512.86 2133.32 1533.29 2131.21 1552.86L2324.72 1359.36C2325.64 1358.5 2326.24 1357.38 2326.5 1356.13L2345.22 1272.49C2345.75 1270.25 2345.09 1267.94 2343.5 1266.36Z" stroke="#92D050" stroke-width="4.60318" fill="#0F1113"/><path d="M1998.4 1530.19C2004.05 1506.04 2023.23 1485.87 2048.76 1479.9L2034.32 1465.53C2031.89 1463.03 2027.47 1463.03 2025.03 1465.53L1984.04 1506.46C1981.47 1509.03 1981.47 1513.19 1984.04 1515.82L1998.4 1530.19Z" stroke="#92D050" stroke-width="4.60318" fill="#0F1113"/><path d="M2129.83 1561.04C2124.07 1586.29 2104.02 1605.77 2079.54 1611.33L2093.97 1625.76C2096.67 1628.33 2100.63 1628.33 2103.33 1625.76L2144.26 1584.76C2145.51 1583.51 2146.24 1581.86 2146.24 1580.08 2146.24 1578.37 2145.51 1576.66 2144.26 1575.47L2129.83 1561.04Z" stroke="#92D050" stroke-width="4.60318" fill="#0F1113"/><path d="M2102.58 1507.23C2123.79 1528.44 2123.79 1562.83 2102.58 1584.04 2081.37 1605.25 2046.98 1605.25 2025.77 1584.04 2004.56 1562.83 2004.56 1528.44 2025.77 1507.23 2046.98 1486.02 2081.37 1486.02 2102.58 1507.23Z" stroke="#92D050" stroke-width="4.60313" fill="#0F1113"/><path d="M2000.78 1568.81 1973.82 1595.77C1983.57 1597.81 1992.54 1602.76 1999.79 1610.07 2007.3 1617.59 2012.25 1626.42 2014.42 1635.65L2040.98 1609.08C2031.89 1605.72 2023.52 1600.45 2016.46 1593.33 2009.35 1586.28 2004.07 1577.91 2000.78 1568.81Z" stroke="#92D050" stroke-width="4.60318" fill="#0F1113"/><path d="M1923.6 1647.05C1923.6 1657.53 1927.68 1667.35 1935.07 1674.73 1970.93 1710.91 2027.29 1656.16 1990.5 1619.37 1965.8 1594.66 1923.6 1612.42 1923.6 1647.05Z" stroke="#92D050" stroke-width="4.60318" fill="#0F1113"/></g></g></g></g></svg>