<svg width="550" height="550" xmlns="http://www.w3.org/2000/svg" xmlns:xlink="http://www.w3.org/1999/xlink" overflow="hidden"><defs><clipPath id="clip0"><rect x="1244" y="29" width="550" height="550"/></clipPath><radialGradient cx="762000" cy="762000" r="1.07763e+06" gradientUnits="userSpaceOnUse" spreadMethod="pad" id="fill1" gradientTransform="matrix(0.000360892 0 0 0.000360892 1244 28.9999)"><stop offset="0" stop-color="#92D050"/><stop offset="0.17" stop-color="#92D050"/><stop offset="0.33" stop-color="#029C48"/><stop offset="1" stop-color="#0F1113"/></radialGradient><linearGradient x1="1516.5" y1="35.0001" x2="1516.5" y2="189" gradientUnits="userSpaceOnUse" spreadMethod="reflect" id="fill2"><stop offset="0" stop-color="#F5FAFF" stop-opacity="0.231373"/><stop offset="0.32" stop-color="#FFFFFF" stop-opacity="0"/><stop offset="1" stop-color="#FFFFFF" stop-opacity="0"/></linearGradient><radialGradient cx="95596.5" cy="102524" r="140178" gradientUnits="userSpaceOnUse" spreadMethod="pad" id="fill3" gradientTransform="matrix(0.000360892 0 0 0.000360892 1282 157)"><stop offset="0" stop-color="#92D050"/><stop offset="0.54" stop-color="#09522C" stop-opacity="0"/><stop offset="1" stop-color="#09522C" stop-opacity="0"/></radialGradient><radialGradient cx="112221" cy="121920" r="165705" fx="112222" fy="121920" gradientUnits="userSpaceOnUse" spreadMethod="pad" id="fill4" gradientTransform="matrix(0.000360892 0 0 0.000360892 1311 202)"><stop offset="0" stop-color="#92D050"/><stop offset="0.54" stop-color="#09522C" stop-opacity="0"/><stop offset="1" stop-color="#09522C" stop-opacity="0"/></radialGradient><radialGradient cx="292330" cy="278476" r="403740" fx="292330" fy="278476" gradientUnits="userSpaceOnUse" spreadMethod="pad" id="fill5" gradientTransform="matrix(0.000360892 0 0 0.000360892 1533 333)"><stop offset="0" stop-color="#92D050"/><stop offset="0.54" stop-color="#09522C" stop-opacity="0"/><stop offset="1" stop-color="#09522C" stop-opacity="0"/></radialGradient><radialGradient cx="374073" cy="430876" r="570600" fx="374073" fy="430876" gradientUnits="userSpaceOnUse" spreadMethod="pad" id="fill6" gradientTransform="matrix(0.000360892 0 0 0.000360892 1264 49.0002)"><stop offset="0" stop-color="#92D050"/><stop offset="0.54" stop-color="#09522C" stop-opacity="0"/><stop offset="1" stop-color="#09522C" stop-opacity="0"/></radialGradient><radialGradient cx="72044" cy="77585.5" r="105877" fx="72044" fy="77585.5" gradientUnits="userSpaceOnUse" spreadMethod="pad" id="fill7" gradientTransform="matrix(0.000360892 0 0 0.000360892 1678 461)"><stop offset="0" stop-color="#92D050"/><stop offset="0.54" stop-color="#09522C" stop-opacity="0"/><stop offset="1" stop-color="#09522C" stop-opacity="0"/></radialGradient><radialGradient cx="77585.5" cy="83127" r="113708" gradientUnits="userSpaceOnUse" spreadMethod="pad" id="fill8" gradientTransform="matrix(0.000360892 0 0 0.000360892 1662 379)"><stop offset="0" stop-color="#92D050"/><stop offset="0.54" stop-color="#09522C" stop-opacity="0"/><stop offset="1" stop-color="#09522C" stop-opacity="0"/></radialGradient><clipPath id="clip9"><rect x="1281" y="189" width="484" height="297"/></clipPath><clipPath id="clip10"><rect x="1281" y="189" width="484" height="297"/></clipPath><clipPath id="clip11"><rect x="1281" y="189" width="484" height="297"/></clipPath></defs><g clip-path="url(#clip0)" transform="translate(-1244 -29)"><rect x="1244" y="28.9999" width="550" height="550" fill="url(#fill1)"/><path d="M1277.73 35.0001 1755.27 35.0001C1771.14 35.0001 1784 54.864 1784 79.3677L1784 189C1784 150.824 1763.96 119.876 1739.23 119.876L1293.77 119.876C1269.04 119.876 1249 150.824 1249 189L1249 79.3677C1249 54.864 1261.86 35.0001 1277.73 35.0001Z" fill="url(#fill2)" fill-rule="evenodd"/><path d="M1282 194C1282 173.566 1297.45 157 1316.5 157 1335.55 157 1351 173.566 1351 194 1351 214.435 1335.55 231 1316.5 231 1297.45 231 1282 214.435 1282 194Z" fill="url(#fill3)" fill-rule="evenodd"/><path d="M1311 246C1311 221.7 1329.13 202 1351.5 202 1373.87 202 1392 221.7 1392 246 1392 270.301 1373.87 290 1351.5 290 1329.13 290 1311 270.301 1311 246Z" fill="url(#fill4)" fill-rule="evenodd"/><path d="M1533 433.5C1533 377.995 1580.23 333 1638.5 333 1696.77 333 1744 377.995 1744 433.5 1744 489.005 1696.77 534 1638.5 534 1580.23 534 1533 489.005 1533 433.5Z" fill="url(#fill5)" fill-rule="evenodd"/><path d="M1264 204.5C1264 118.62 1324.44 49.0002 1399 49.0002 1473.56 49.0002 1534 118.62 1534 204.5 1534 290.38 1473.56 360 1399 360 1324.44 360 1264 290.38 1264 204.5Z" fill="url(#fill6)" fill-rule="evenodd"/><path d="M1678 489C1678 473.536 1689.64 461 1704 461 1718.36 461 1730 473.536 1730 489 1730 504.464 1718.36 517 1704 517 1689.64 517 1678 504.464 1678 489Z" fill="url(#fill7)" fill-rule="evenodd"/><path d="M1662 409C1662 392.432 1674.54 379 1690 379 1705.46 379 1718 392.432 1718 409 1718 425.569 1705.46 439 1690 439 1674.54 439 1662 425.569 1662 409Z" fill="url(#fill8)" fill-rule="evenodd"/><g clip-path="url(#clip9)"><g clip-path="url(#clip10)"><g clip-path="url(#clip11)"><path d="M274.021 288.851C257.224 286.314 243.418 273.913 239.369 257.726 239.045 256.431 238.679 254.695 238.556 253.868 238.432 253.041 238.104 251.642 237.826 250.759 236.921 247.88 236.99 243.34 237.978 240.739 238.189 240.184 238.361 239.639 238.36 239.529 238.358 239.304 237.823 239.005 232.446 236.224 225.486 232.626 217.737 229.618 208.882 227.078 200.886 224.784 194.29 223.484 177.898 220.976 162.446 218.611 143.492 214.951 131.172 211.952 128.855 211.388 125.332 210.532 123.343 210.048 120.074 209.254 117.427 208.549 107.909 205.939 104.947 205.127 92.6016 201.357 89.86 200.427 83.2575 198.189 75.5979 195.429 71.5106 193.813 68.8082 192.746 66.0107 191.641 65.2938 191.358 59.1662 188.941 45.398 182.431 39.8426 179.324 38.3439 178.485 36.7114 177.577 36.2151 177.307 35.7188 177.036 34.6201 176.414 33.7736 175.924L32.2346 175.034 22.2425 178.169C16.7468 179.894 11.393 181.583 10.3452 181.923 8.8138 182.421 8.04667 182.551 6.43463 182.587 4.59165 182.628 4.1368 182.728 0.819447 183.814L-2.79031 184.995-2.91215 186.122C-3.09671 187.828-4.0561 189.163-5.54406 189.785-7.12496 190.446-8.44536 190.084-9.9151 188.586-10.3992 188.092-10.9484 187.689-11.1356 187.689-11.3229 187.689-14.2144 188.546-17.5614 189.592-20.9083 190.639-23.933 191.496-24.283 191.498-24.9969 191.499-25.4861 191.144-27.7578 188.972-28.585 188.181-31.1085 185.813-33.3655 183.709-35.6225 181.605-37.5339 179.709-37.613 179.495-37.7453 179.138-38.9705 169.548-40.3582 158.008-40.9627 152.982-40.9591 153.596-40.4316 145.475-40.3385 144.041-40.2823 142.84-40.3069 142.805-40.3314 142.77-40.7216 142.837-41.1739 142.955-41.6262 143.072-42.3347 143.256-42.7483 143.364L-43.5004 143.559-43.5121 146.823C-43.5224 149.697-43.5766 150.221-43.9654 151.207-44.2082 151.824-44.6264 152.534-44.8946 152.785-45.2529 153.122-46.8896 153.663-51.0593 154.823-54.1815 155.691-57.062 156.402-57.4602 156.403-59.0769 156.406-60.877 154.576-63.0661 150.703-63.5695 149.813-64.0658 149.098-64.169 149.115-64.4713 149.163-80.2712 153.393-81.7219 153.813-82.9748 154.176-83.0551 154.237-83.278 154.98-83.7312 156.492-83.7426 156.498-90.026 158.194-93.2246 159.057-99.0669 160.636-103.008 161.701-109.837 163.546-110.202 163.623-110.759 163.335-112.557 162.405-114.732 158.027-116.082 152.622-117.256 147.924-117.307 144.474-116.217 143.488-115.821 143.129-91.0053 136.751-90.0071 136.751-89.4075 136.751-88.2176 137.416-87.9454 137.903-87.7893 138.182-86.6819 137.946-78.8697 135.969-73.9759 134.731-69.638 133.631-69.2298 133.525L-68.4878 133.332-68.5586 129.276C-68.5996 126.926-68.7627 124.377-68.9464 123.215-69.1207 122.112-69.5746 119.224-69.9549 116.797-70.3352 114.371-70.9795 110.265-71.3865 107.673-72.067 103.34-72.1051 102.879-71.8598 101.957-71.2329 99.6005-71.7385 96.3784-73.0714 94.2365-73.5182 93.5179-73.7199 92.7759-74.0585 90.6036-74.2926 89.1021-74.4841 87.5164-74.4841 87.0791-74.4841 85.7292-74.1675 85.5822-68.7988 84.4316-64.1995 83.4462-63.9901 83.4197-63.3432 83.7267-62.9733 83.9018-62.5678 84.1693-62.4423 84.3209-62.3167 84.4717-61.9879 86.0506-61.7115 87.8295-61.2301 90.9272-61.2219 91.1273-61.5175 92.5947-61.6871 93.4376-61.7844 94.1683-61.7337 94.219-61.683 94.2698-59.4385 93.8272-56.7459 93.236L-51.8501 92.1604-51.1387 92.647C-50.7475 92.9146-50.3431 93.3588-50.2402 93.6347-50.1372 93.9106-49.9111 95.4894-49.7377 97.144-49.4615 99.7786-49.4581 100.271-49.71 101.103-50.463 103.592-50.2584 106.042-49.1079 108.31-48.5121 109.484-48.3897 110.002-48.1116 112.521-46.7072 125.244-46.4415 127.559-46.379 127.618-46.34 127.655-43.5555 126.983-40.1914 126.125-36.8273 125.267-30.83 123.739-26.8642 122.729-22.8983 121.719-19.6098 120.849-19.5565 120.796-19.5032 120.742-19.6529 120.092-19.8892 119.35-20.3564 117.882-21.4525 112.934-21.6315 111.483-21.6928 110.987-22.1583 106.79-22.6662 102.158-23.5001 94.5503-23.5791 93.424-23.4819 90.5263-23.3728 87.2724-22.9724 84.7431-22.1402 82.0486-21.6523 80.469-21.6477 80.3182-22.0925 80.4963-22.2855 80.5736-23.3007 80.8586-24.3486 81.1299-32.3422 83.1976-40.9608 80.8419-46.8139 74.9889-49.363 72.4398-51.2228 69.4927-52.3219 66.2607-52.622 65.3783-53.1377 64.1014-53.4679 63.4232-54.1211 62.0816-54.1117 62.3608-53.6482 58.0385-53.0816 52.7563-51.5591 48.8411-48.7445 45.4284-45.84 41.9067-41.9046 39.3486-37.6459 38.2139-34.3329 37.3313-32.8726 37.1871-29.9216 37.4512-26.0601 37.7969-23.7522 38.4489-20.6227 40.0783-14.8577 43.0798-10.4792 48.4385-8.81562 54.529-8.61984 55.2459-8.29437 56.1578-8.09238 56.5555-7.5321 57.6583-7.39381 59.1506-7.78222 59.9018-7.95958 60.2447-8.10481 60.9133-8.10496 61.3876-8.10557 63.4757-8.96243 66.9038-10.1421 69.5381-10.4554 70.2378-10.7117 70.8381-10.7117 70.8721-10.7117 70.9062-8.74892 72.1264-6.34994 73.5838-3.95095 75.0412-1.44668 76.5746-0.784892 76.9907-0.123104 77.4069 2.99031 79.3033 6.13381 81.205 9.27729 83.1067 12.3907 84.9985 13.0525 85.4093 13.7143 85.8209 15.5643 86.9495 17.1637 87.9174 18.7629 88.8853 21.0642 90.2875 22.2774 91.0326 24.687 92.5121 38.5972 100.992 42.1229 103.131 43.3317 103.864 44.4868 104.464 44.6897 104.464 44.8926 104.464 46.9719 103.973 49.3103 103.374 51.6488 102.775 58.3901 101.06 64.291 99.5641 70.192 98.0679 78.3588 95.9949 82.4404 94.9565 90.6385 92.8714 101.545 90.1011 111.819 87.4937 115.515 86.5554 120.974 85.1683 123.952 84.4096 141.867 79.8482 157.329 75.9205 161.978 74.7511L163.705 74.3164 163.833 72.0934C163.904 70.8708 163.968 68.0439 163.974 65.8114 163.983 62.4701 164.039 61.6989 164.288 61.4496 164.454 61.2831 164.657 61.1468 164.736 61.1468 164.816 61.1468 169.57 60.0176 175.3 58.6375 181.031 57.2573 186.983 55.8239 188.527 55.4519 190.071 55.08 194.584 53.9966 198.554 53.0444 202.525 52.0921 205.888 51.2715 206.029 51.2209 206.206 51.1568 206.095 50.8682 205.662 50.272 204.512 48.6883 203.445 45.8244 203.147 43.5203L203.007 42.4384 200.079 42.573C198.468 42.6471 194.681 42.8873 191.665 43.1071 185.79 43.5348 185.468 43.514 184.046 42.6164 181.263 40.8593 179.615 37.8572 179.606 34.5249 179.603 33.9458 179.513 33.472 179.404 33.472 179.295 33.472 178.099 33.7087 176.747 33.9979 174.544 34.469 174.205 34.5999 173.486 35.2575 173.045 35.6611 172.413 36.0987 172.082 36.23 171.198 36.581 167.018 37.4829 166.275 37.4829 163.377 37.4829 160.366 34.1314 159.107 29.5019 158.486 27.2203 158.495 23.2462 159.126 21.4503 159.693 19.8327 160.726 18.2725 161.632 17.6637 162.427 17.1293 166.43 16.2359 168.172 16.2041 168.831 16.192 169.56 16.3198 169.984 16.5221 170.679 16.8538 170.803 16.8386 176.348 15.7367L182.003 14.6131 189.677 14.2078 197.351 13.8024 206.576 11.9821C215.51 10.2191 215.815 10.1439 216.26 9.59131 217.15 8.4878 217.82 8.1903 220.768 7.59069 222.338 7.27133 224.163 6.95466 224.825 6.88702 225.487 6.81941 226.389 6.64025 226.831 6.48898 227.272 6.33771 228.848 5.9753 230.334 5.68363 233.203 5.1206 234.176 5.12815 235.424 5.72312 236.13 6.06005 236.232 6.04475 245.522 4.19688L254.906 2.3303 256.155 1.27384C258.073-0.348908 259.246-0.63374 262.978-0.382425 263.282-0.36196 265.65-1.00856 268.242-1.81923 270.835-2.6299 274.163-3.55051 275.64-3.86503 277.84-4.33365 278.442-4.54044 278.977-5.01063 279.838-5.76567 280.939-6.16208 283.423-6.61101 285.84-7.04754 286.996-6.93229 288.52-6.10318 290.738-4.89614 292.492-1.93103 292.886 1.27412 292.996 2.16257 293.091 2.32118 293.735 2.68262 297.32 4.6938 299.565 9.71099 298.918 14.2683 298.808 15.0467 298.743 15.7093 298.775 15.7407 298.806 15.772 299.48 15.6555 300.272 15.4817 301.545 15.2024 301.864 15.0313 303.015 14.0097 304.942 12.299 307.798 11.4306 309.755 11.9602 310.376 12.1284 311.051 11.9467 315.646 10.3743 318.502 9.3975 321.837 8.37259 323.06 8.09662 324.636 7.74084 325.43 7.45766 325.791 7.12312 326.912 6.0831 327.408 5.87842 330.511 5.1779 334.146 4.35689 336.135 4.77473 338.32 6.81891 340.494 8.85306 341.641 11.6025 341.641 14.7847 341.641 17.613 340.86 19.8504 339.23 21.6997 338.147 22.9279 336.876 23.5684 334.121 24.2746 331.72 24.8898 330.659 24.9676 329.308 24.6276 328.56 24.439 328.112 24.4818 326.262 24.919 325.069 25.2009 321.717 25.7513 318.813 26.1421 313.783 26.8189 313.491 26.8817 312.684 27.4621 310.817 28.8021 307.841 29.2125 305.644 28.4327L304.44 28.0057 299.427 29.2218C284.495 32.8434 285.969 32.4288 285.405 33.1676 285.125 33.5348 284.585 34.0276 284.204 34.2628 283.35 34.7908 277.682 36.2741 276.507 36.2773 276.033 36.2785 275.312 36.447 274.902 36.6516 274.493 36.8562 272.736 37.3647 270.998 37.7816 267.641 38.5869 266.665 38.6204 265.413 37.9731 264.74 37.6248 263.347 37.7319 263.085 38.1521 263.006 38.2804 262.835 39.6036 262.707 41.0926 262.415 44.4853 262.42 44.4967 264.681 45.197 268.16 46.2748 267.804 46.0056 270.88 49.8827 273.656 53.383 273.677 53.4168 273.543 54.2204 273.468 54.6659 273.33 55.0799 273.234 55.1406 273.07 55.2453 272.461 61.225 272.457 62.7853L272.454 63.5214 274.509 62.9584C297.721 56.6016 309.514 53.4287 310.742 53.2096 312.774 52.8471 316.573 52.8547 318.51 53.2252 319.375 53.3906 320.939 53.791 321.987 54.115 326.07 55.3769 329.69 56.152 334.422 56.7763 337.263 57.1514 346.134 57.0879 349.294 56.6699 355.022 55.912 357.768 56.4841 361.377 59.1869 363.087 60.4679 363.556 61.1687 363.425 62.2498 363.224 63.8972 362.865 65.7389 362.214 68.4666 361.844 70.0108 361.336 72.2669 361.084 73.4802 360.832 74.6935 360.505 76.0357 360.358 76.4632 360.211 76.8907 360.091 77.4682 360.091 77.7464 360.091 78.0246 359.735 79.7505 359.301 81.5817 358.866 83.4129 358.282 85.949 358.002 87.2171 357.723 88.4859 357.405 89.8843 357.297 90.3254 357.188 90.7666 356.909 92.0755 356.674 93.2337 356.441 94.3919 356.126 95.7903 355.976 96.3421 355.825 96.8939 355.5 98.3825 355.255 99.6513 355.009 100.919 354.689 102.307 354.542 102.735 354.395 103.162 354.275 103.794 354.275 104.138 354.272 105.002 353.593 106.039 352.816 106.359 352.461 106.506 350.048 107.131 347.457 107.749 344.865 108.365 342.48 108.944 342.158 109.034 341.632 109.18 341.546 109.326 341.317 110.442 341.027 111.866 340.475 112.754 339.594 113.209 339.01 113.511 338.903 113.496 337.253 112.877 335.686 112.289 334.791 111.688 334.591 111.089 334.543 110.944 333.104 111.212 330.408 111.868 328.149 112.418 322.735 113.724 318.378 114.772 314.021 115.82 308.2 117.224 305.443 117.892 302.685 118.56 298.399 119.597 295.918 120.196 293.436 120.794 289.329 121.787 286.793 122.401 284.256 123.014 280.33 123.962 278.069 124.505 275.808 125.05 272.424 125.867 270.549 126.321 268.674 126.776 266.553 127.283 265.836 127.449 265.119 127.614 264.194 127.837 263.78 127.946L263.028 128.144 263.028 129.495C263.028 130.445 262.926 130.993 262.684 131.342 262.496 131.615 259.974 134.512 257.081 137.78 253.045 142.341 251.621 143.82 250.958 144.139 249.743 144.724 243.616 146.19 242.335 146.202 239.466 146.23 232.781 143.153 231.268 141.108 230.719 140.366 230.799 140.183 233.438 136.161 235.998 132.258 236.368 131.477 236.508 129.674L236.612 128.312 234.88 126.656C232.865 124.729 232.901 124.881 233.653 121.607 234.219 119.147 234.456 117.101 234.212 116.797 234.123 116.687 233.69 116.416 233.251 116.196 232.811 115.975 231.881 115.366 231.184 114.842 230.488 114.318 229.871 113.889 229.814 113.889 229.757 113.889 229.288 114.246 228.772 114.681 226.446 116.642 223.759 117.098 221.305 115.95 220.583 115.611 219.711 115.098 219.369 114.81L218.746 114.287 218.636 115.242C218.575 115.766 218.468 116.827 218.399 117.6 218.227 119.523 217.435 123.378 216.679 125.971 215.972 128.394 215.465 129.13 214.503 129.13 213.891 129.13 210.833 127.724 210.591 127.333 210.521 127.22 210.644 126.292 210.864 125.271 211.581 121.948 212.286 115.427 211.949 115.239 211.862 115.191 210.256 115.63 208.381 116.217 205.241 117.198 204.921 117.343 204.328 118.042 202.979 119.636 202.132 122.073 201.652 125.749 201.513 126.809 201.454 127.819 201.522 127.994 201.629 128.273 202.019 128.3 204.611 128.203 208.545 128.059 210.157 128.35 213.04 129.727 214.226 130.293 215.401 130.949 215.649 131.182 216.253 131.749 216.219 132.403 215.55 133.14 215.026 133.717 214.549 133.853 206.074 135.861 201.166 137.024 194.668 138.566 191.635 139.289 188.603 140.012 184.857 140.904 183.313 141.27 181.769 141.635 177.618 142.622 174.088 143.462 165.315 145.55 164.716 145.647 160.551 145.649 157.78 145.651 156.515 145.556 154.536 145.199 153.157 144.95 150.843 144.695 149.393 144.632 146.851 144.521 146.75 144.532 146.529 144.944 146.225 145.514 145.471 145.868 143.945 146.16 143.248 146.294 139.007 147.578 134.519 149.015 130.031 150.452 125.773 151.809 125.056 152.03 124.339 152.25 123.688 152.491 123.609 152.565 123.531 152.638 124.658 153.416 126.116 154.293 127.574 155.17 128.991 156.041 129.267 156.229 129.543 156.417 133.152 158.622 137.288 161.129 144.342 165.404 150.432 169.11 161.153 175.652 167.775 179.693 178.144 186.012 180.906 187.691 182.23 188.495 185.794 190.66 188.828 192.502 191.861 194.345 196.012 196.87 198.053 198.116 200.093 199.36 203.703 201.554 206.074 202.99 208.446 204.426 210.747 205.845 211.188 206.145 211.629 206.446 213.66 207.254 215.7 207.942 226.006 211.418 235.215 215.718 244.529 221.406 245.77 222.164 246.841 222.784 246.91 222.784 246.979 222.784 247.903 221.9 248.965 220.819 254.548 215.139 260.956 211.547 268.509 209.864 271.678 209.158 273.806 208.935 277.367 208.935 280.944 208.935 283.055 209.158 286.282 209.877 296.82 212.225 305.997 218.464 312.107 227.434 315.818 232.883 318.268 239.661 318.965 246.403 319.071 247.427 319.354 249.051 319.596 250.013 319.975 251.523 320.019 252.104 319.918 254.269 319.762 257.645 319.086 259.965 317.628 262.135 317.311 262.606 316.923 263.398 316.767 263.895 316.288 265.409 313.872 270.103 312.561 272.064 310.604 274.99 307.775 278.107 305.076 280.311 299.989 284.464 294.19 287.176 287.394 288.579 284.703 289.135 276.947 289.293 274.021 288.851ZM202.359 203.862C202.141 203.712 201.241 203.167 200.359 202.648 199.476 202.131 197.627 201.008 196.248 200.155 194.869 199.301 189.364 195.909 184.015 192.616 178.665 189.323 172.529 185.545 170.378 184.219 168.227 182.894 165.565 181.253 164.462 180.574 163.359 179.894 161.644 178.838 160.651 178.225 159.659 177.614 153.883 174.068 147.817 170.346 141.75 166.626 135.885 163.015 134.782 162.323 131.946 160.545 121.438 154.115 120.882 153.818 120.49 153.608 119.98 153.68 117.573 154.285 113.361 155.343 111.34 155.575 102.521 156.014 98.1157 156.233 93.6453 156.545 92.5872 156.706 89.4485 157.182 86.3333 158.032 77.1256 160.925 72.3277 162.433 67.3443 163.993 66.0514 164.393 64.7586 164.792 63.7659 165.183 63.8455 165.261 64.0765 165.486 70.5777 168.293 75.9228 170.475 83.5622 173.594 94.0606 177.473 101.091 179.772 117.672 185.197 132.033 189.243 148.418 193.104 158.561 195.495 173.544 198.586 183.915 200.428 194.001 202.22 198.997 203.205 201.261 203.849 202.495 204.2 202.857 204.204 202.359 203.862ZM49.3506 151.009C53.4317 149.795 58.9366 148.163 61.5837 147.383 64.2309 146.603 67.1638 145.731 68.1013 145.446 76.3101 142.949 78.1724 142.676 89.7304 142.265 97.598 141.985 100.829 141.712 100.455 141.359 100.364 141.273 98.2188 139.924 95.6902 138.362L91.0917 135.522 85.6064 137.14C82.5897 138.029 79.9551 138.756 79.752 138.756 79.5488 138.756 78.7174 138.322 77.9033 137.792 74.9687 135.876 74.684 135.749 73.3588 135.749 72.1298 135.749 71.1188 136.022 54.4849 140.848L49.9931 142.151 49.3844 141.718C48.9153 141.384 48.8041 141.358 48.8991 141.605 49.1635 142.295 48.4991 142.589 43.334 144.077 40.4664 144.902 37.5337 145.768 36.8167 146.001 35.3987 146.461 33.9476 147.293 33.2299 148.057L32.7745 148.542 33.6805 149.165C34.179 149.509 36.0005 150.638 37.7284 151.675 40.4504 153.309 40.941 153.538 41.4004 153.389 41.692 153.294 45.2696 152.223 49.3506 151.009ZM110.499 138.955C113.799 137.964 116.518 137.13 116.541 137.102 116.564 137.075 116.913 136.22 117.317 135.204 118.73 131.647 119.316 127.378 118.845 124.062 118.709 123.099 118.552 122.312 118.497 122.312 118.443 122.312 114.639 123.403 110.045 124.734 105.159 126.152 101.317 127.373 100.79 127.68 99.3906 128.49 98.002 129.919 96.3694 132.229 95.547 133.393 94.7155 134.397 94.523 134.459 94.3297 134.521 94.1743 134.634 94.1781 134.709 94.188 134.927 103.841 140.762 104.187 140.76 104.359 140.758 107.2 139.946 110.499 138.955ZM0.85207 115.677C4.80486 114.675 11.1975 113.05 15.0579 112.066 18.9184 111.081 26.4086 109.184 31.703 107.849 36.9973 106.512 41.4022 105.353 41.4917 105.271 41.6433 105.131 37.1483 102.323 16.4617 89.6319 14.366 88.3464 9.80876 85.5503 6.33435 83.4189 2.85997 81.2876-2.28394 78.1269-5.09654 76.3957-7.90918 74.6646-10.555 73.041-10.9762 72.7878-11.7318 72.3336-11.7457 72.3326-12.0172 72.7202-12.1685 72.9363-12.6135 73.4975-13.0061 73.9673-13.3987 74.4372-13.7199 75.0047-13.7199 75.2283-13.7199 75.452-13.5748 77.0908-13.3975 78.8689-13.0027 82.8308-13.093 84.1928-13.9047 86.5152-15.385 90.7522-16.1215 93.3883-16.651 96.3466L-17.2144 99.4959-16.6532 101.128C-15.8698 103.405-13.7767 107.58-12.1652 110.079-10.0261 113.396-6.88989 117.499-6.49349 117.499-6.40623 117.499-3.10073 116.679 0.85207 115.677ZM267.58 113.8C270.757 113.089 276.199 111.866 279.673 111.08 285.98 109.656 292.966 108.084 304.139 105.572 307.393 104.841 311.048 104.014 312.261 103.735 313.475 103.455 315.234 103.061 316.172 102.856 317.109 102.652 321.306 101.711 325.497 100.765 329.688 99.8196 333.975 98.8562 335.023 98.6258 336.712 98.2536 337.023 98.1142 337.765 97.3979 339.226 95.9866 339.504 95.052 340.923 86.7903 343.926 69.3062 344.311 66.9591 344.201 66.849 344.137 66.7853 342.745 66.6094 341.108 66.4582 336.232 66.0077 332.296 65.2892 327.373 63.9508 325.086 63.3289 324.079 63.1523 322.82 63.1523 320.924 63.1523 321.474 63.0166 310.357 66.227 289.454 72.2629 275.799 76.1903 273.657 76.7831 271.979 77.2469 271.242 77.5501 270.95 77.8973 270.659 78.2421 269.208 78.8447 265.7 80.0756 263.034 81.0117 260.551 81.9318 260.185 82.1206 259.165 82.6451 257.186 84.778 256.476 86.1173 255.259 88.4131 254.372 91.3873 254.354 93.2337 254.345 94.1251 254.504 94.6784 255.185 96.1208 256.243 98.3658 258.43 103.864 259.239 106.312 259.921 108.379 261.424 114.17 261.424 114.732 261.424 114.931 261.509 115.092 261.614 115.092 261.719 115.092 264.403 114.511 267.58 113.8Z" stroke="#92D050" stroke-width="4.35505" fill="#0F1113" transform="matrix(-1.00313 0 0 1 1646.63 195.861)"/></g></g></g></g></svg>