<svg width="550" height="550" xmlns="http://www.w3.org/2000/svg" xmlns:xlink="http://www.w3.org/1999/xlink" overflow="hidden"><defs><clipPath id="clip0"><rect x="29" y="612" width="550" height="550"/></clipPath><radialGradient cx="762000" cy="762000" r="1.07763e+06" gradientUnits="userSpaceOnUse" spreadMethod="pad" id="fill1" gradientTransform="matrix(0.000360892 0 0 0.000360892 28.9999 612)"><stop offset="0" stop-color="#92D050"/><stop offset="0.17" stop-color="#92D050"/><stop offset="0.33" stop-color="#029C48"/><stop offset="1" stop-color="#0F1113"/></radialGradient><linearGradient x1="302.5" y1="617" x2="302.5" y2="772" gradientUnits="userSpaceOnUse" spreadMethod="reflect" id="fill2"><stop offset="0" stop-color="#F5FAFF" stop-opacity="0.231373"/><stop offset="0.32" stop-color="#FFFFFF" stop-opacity="0"/><stop offset="1" stop-color="#FFFFFF" stop-opacity="0"/></linearGradient><radialGradient cx="94211" cy="102524" r="139236" gradientUnits="userSpaceOnUse" spreadMethod="pad" id="fill3" gradientTransform="matrix(0.000360892 0 0 0.000360892 68.0001 740)"><stop offset="0" stop-color="#92D050"/><stop offset="0.54" stop-color="#09522C" stop-opacity="0"/><stop offset="1" stop-color="#09522C" stop-opacity="0"/></radialGradient><radialGradient cx="112222" cy="120534" r="164689" gradientUnits="userSpaceOnUse" spreadMethod="pad" id="fill4" gradientTransform="matrix(0.000360892 0 0 0.000360892 96.9999 785)"><stop offset="0" stop-color="#92D050"/><stop offset="0.54" stop-color="#09522C" stop-opacity="0"/><stop offset="1" stop-color="#09522C" stop-opacity="0"/></radialGradient><radialGradient cx="293716" cy="278476" r="404745" gradientUnits="userSpaceOnUse" spreadMethod="pad" id="fill5" gradientTransform="matrix(0.000360892 0 0 0.000360892 318 916)"><stop offset="0" stop-color="#92D050"/><stop offset="0.54" stop-color="#09522C" stop-opacity="0"/><stop offset="1" stop-color="#09522C" stop-opacity="0"/></radialGradient><radialGradient cx="374073" cy="430876" r="570600" fx="374073" fy="430876" gradientUnits="userSpaceOnUse" spreadMethod="pad" id="fill6" gradientTransform="matrix(0.000360892 0 0 0.000360892 49.9998 632)"><stop offset="0" stop-color="#92D050"/><stop offset="0.54" stop-color="#09522C" stop-opacity="0"/><stop offset="1" stop-color="#09522C" stop-opacity="0"/></radialGradient><radialGradient cx="70658" cy="77585.5" r="104938" gradientUnits="userSpaceOnUse" spreadMethod="pad" id="fill7" gradientTransform="matrix(0.000360892 0 0 0.000360892 464 1044)"><stop offset="0" stop-color="#92D050"/><stop offset="0.54" stop-color="#09522C" stop-opacity="0"/><stop offset="1" stop-color="#09522C" stop-opacity="0"/></radialGradient><radialGradient cx="77585.5" cy="84512.5" r="114725" gradientUnits="userSpaceOnUse" spreadMethod="pad" id="fill8" gradientTransform="matrix(0.000360892 0 0 0.000360892 448 961)"><stop offset="0" stop-color="#92D050"/><stop offset="0.54" stop-color="#09522C" stop-opacity="0"/><stop offset="1" stop-color="#09522C" stop-opacity="0"/></radialGradient><clipPath id="clip9"><rect x="91" y="707" width="402" height="402"/></clipPath><clipPath id="clip10"><rect x="91" y="707" width="402" height="402"/></clipPath><clipPath id="clip11"><rect x="91" y="707" width="402" height="402"/></clipPath></defs><g clip-path="url(#clip0)" transform="translate(-29 -612)"><rect x="28.9999" y="612" width="550" height="550" fill="url(#fill1)"/><path d="M63.7338 617 541.266 617C557.135 617 570 636.993 570 661.656L570 772C570 733.576 549.957 702.427 525.233 702.427L79.7668 702.427C55.0428 702.427 35.0001 733.576 35.0001 772L35.0001 661.656C35.0001 636.993 47.8645 617 63.7338 617Z" fill="url(#fill2)" fill-rule="evenodd"/><path d="M68.0001 777C68.0001 756.566 83.2224 740 102 740 120.778 740 136 756.566 136 777 136 797.435 120.778 814 102 814 83.2224 814 68.0001 797.435 68.0001 777Z" fill="url(#fill3)" fill-rule="evenodd"/><path d="M96.9999 828.5C96.9999 804.476 115.132 785 137.5 785 159.868 785 178 804.476 178 828.5 178 852.524 159.868 872 137.5 872 115.132 872 96.9999 852.524 96.9999 828.5Z" fill="url(#fill4)" fill-rule="evenodd"/><path d="M318 1016.5C318 960.995 365.458 916 424 916 482.542 916 530 960.995 530 1016.5 530 1072 482.542 1117 424 1117 365.458 1117 318 1072 318 1016.5Z" fill="url(#fill5)" fill-rule="evenodd"/><path d="M49.9998 787.5C49.9998 701.62 110.441 632 185 632 259.558 632 320 701.62 320 787.5 320 873.38 259.558 943 185 943 110.441 943 49.9998 873.38 49.9998 787.5Z" fill="url(#fill6)" fill-rule="evenodd"/><path d="M464 1072C464 1056.54 475.417 1044 489.5 1044 503.583 1044 515 1056.54 515 1072 515 1087.46 503.583 1100 489.5 1100 475.417 1100 464 1087.46 464 1072Z" fill="url(#fill7)" fill-rule="evenodd"/><path d="M448 991.5C448 974.655 460.536 961 476 961 491.464 961 504 974.655 504 991.5 504 1008.34 491.464 1022 476 1022 460.536 1022 448 1008.34 448 991.5Z" fill="url(#fill8)" fill-rule="evenodd"/><g clip-path="url(#clip9)"><g clip-path="url(#clip10)"><g clip-path="url(#clip11)"><path d="M317.716 958.131C304.716 941.992 284.782 931.647 262.441 931.647 233.941 931.647 209.371 948.436 198.092 972.674L181.409 956.003C174.48 949.086 174.48 937.854 181.409 930.938L204.34 908 156.538 860.174C151.921 855.562 151.921 848.114 156.538 843.502 161.155 838.833 168.639 838.833 173.256 843.502L221.059 891.27 279.461 832.861C286.384 825.944 297.616 825.944 304.539 832.861L309.735 838.064 377.585 770.196C373.789 760.087 375.977 748.205 384.141 740.047L413.699 710.488C418.317 705.817 425.801 705.817 430.418 710.488L454.065 734.135C458.682 738.746 458.682 746.195 454.065 750.806L424.506 780.365C416.342 788.583 404.46 790.71 394.309 786.927L326.454 854.794 361.209 889.555C368.138 896.472 368.138 907.704 361.209 914.621L317.716 958.131ZM193.735 1020.32C201.609 1050.95 229.388 1073.53 262.441 1073.53 295.494 1073.53 323.273 1050.95 331.148 1020.32L374.765 1020.32C377.171 1020.32 379.518 1021.03 381.492 1022.45L455.312 1073.53 481.177 1073.53C487.709 1073.53 493 1078.85 493 1085.35L493 1097.18C493 1103.68 487.709 1109 481.177 1109L102.823 1109C96.2913 1109 91 1103.68 91 1097.18L91 1085.35C91 1078.85 96.2913 1073.53 102.823 1073.53L126.601 1073.53 164.43 1024.88C166.671 1021.98 170.117 1020.32 173.765 1020.32L193.735 1020.32ZM262.441 1049.88C236.323 1049.88 215.147 1028.72 215.147 1002.59 215.147 976.458 236.323 955.294 262.441 955.294 288.56 955.294 309.735 976.458 309.735 1002.59 309.735 1028.72 288.56 1049.88 262.441 1049.88ZM262.441 1026.23C275.5 1026.23 286.088 1015.65 286.088 1002.59 286.088 989.523 275.5 978.941 262.441 978.941 249.382 978.941 238.794 989.523 238.794 1002.59 238.794 1015.65 249.382 1026.23 262.441 1026.23Z" stroke="#92D050" stroke-width="4.5812" fill="#0F1113"/></g></g></g></g></svg>