<svg width="550" height="550" xmlns="http://www.w3.org/2000/svg" xmlns:xlink="http://www.w3.org/1999/xlink" overflow="hidden"><defs><clipPath id="clip0"><rect x="649" y="612" width="550" height="550"/></clipPath><radialGradient cx="762000" cy="762000" r="1.07763e+06" gradientUnits="userSpaceOnUse" spreadMethod="pad" id="fill1" gradientTransform="matrix(0.000360892 0 0 0.000360892 649 612)"><stop offset="0" stop-color="#92D050"/><stop offset="0.17" stop-color="#92D050"/><stop offset="0.33" stop-color="#029C48"/><stop offset="1" stop-color="#0F1113"/></radialGradient><linearGradient x1="922.5" y1="617" x2="922.5" y2="772" gradientUnits="userSpaceOnUse" spreadMethod="reflect" id="fill2"><stop offset="0" stop-color="#F5FAFF" stop-opacity="0.231373"/><stop offset="0.32" stop-color="#FFFFFF" stop-opacity="0"/><stop offset="1" stop-color="#FFFFFF" stop-opacity="0"/></linearGradient><radialGradient cx="94211" cy="102524" r="139236" gradientUnits="userSpaceOnUse" spreadMethod="pad" id="fill3" gradientTransform="matrix(0.000360892 0 0 0.000360892 688 740)"><stop offset="0" stop-color="#92D050"/><stop offset="0.54" stop-color="#09522C" stop-opacity="0"/><stop offset="1" stop-color="#09522C" stop-opacity="0"/></radialGradient><radialGradient cx="112222" cy="120534" r="164688" gradientUnits="userSpaceOnUse" spreadMethod="pad" id="fill4" gradientTransform="matrix(0.000360892 0 0 0.000360892 717 785)"><stop offset="0" stop-color="#92D050"/><stop offset="0.54" stop-color="#09522C" stop-opacity="0"/><stop offset="1" stop-color="#09522C" stop-opacity="0"/></radialGradient><radialGradient cx="293716" cy="278476" r="404744" fx="293716" fy="278476" gradientUnits="userSpaceOnUse" spreadMethod="pad" id="fill5" gradientTransform="matrix(0.000360892 0 0 0.000360892 938 916)"><stop offset="0" stop-color="#92D050"/><stop offset="0.54" stop-color="#09522C" stop-opacity="0"/><stop offset="1" stop-color="#09522C" stop-opacity="0"/></radialGradient><radialGradient cx="374073" cy="430876" r="570600" fx="374073" fy="430876" gradientUnits="userSpaceOnUse" spreadMethod="pad" id="fill6" gradientTransform="matrix(0.000360892 0 0 0.000360892 670 632)"><stop offset="0" stop-color="#92D050"/><stop offset="0.54" stop-color="#09522C" stop-opacity="0"/><stop offset="1" stop-color="#09522C" stop-opacity="0"/></radialGradient><radialGradient cx="70658.5" cy="77585.5" r="104939" fx="70658.5" fy="77585.5" gradientUnits="userSpaceOnUse" spreadMethod="pad" id="fill7" gradientTransform="matrix(0.000360892 0 0 0.000360892 1084 1044)"><stop offset="0" stop-color="#92D050"/><stop offset="0.54" stop-color="#09522C" stop-opacity="0"/><stop offset="1" stop-color="#09522C" stop-opacity="0"/></radialGradient><radialGradient cx="77585.5" cy="84512.5" r="114725" gradientUnits="userSpaceOnUse" spreadMethod="pad" id="fill8" gradientTransform="matrix(0.000360892 0 0 0.000360892 1068 961)"><stop offset="0" stop-color="#92D050"/><stop offset="0.54" stop-color="#09522C" stop-opacity="0"/><stop offset="1" stop-color="#09522C" stop-opacity="0"/></radialGradient><clipPath id="clip9"><rect x="684" y="700" width="487" height="388"/></clipPath><clipPath id="clip10"><rect x="684" y="700" width="487" height="388"/></clipPath><clipPath id="clip11"><rect x="684" y="700" width="487" height="388"/></clipPath></defs><g clip-path="url(#clip0)" transform="translate(-649 -612)"><rect x="649" y="612" width="550" height="550" fill="url(#fill1)"/><path d="M683.734 617 1161.27 617C1177.14 617 1190 636.993 1190 661.656L1190 772C1190 733.576 1169.96 702.427 1145.23 702.427L699.767 702.427C675.043 702.427 655 733.576 655 772L655 661.656C655 636.993 667.864 617 683.734 617Z" fill="url(#fill2)" fill-rule="evenodd"/><path d="M688 777C688 756.566 703.222 740 722 740 740.778 740 756 756.566 756 777 756 797.435 740.778 814 722 814 703.222 814 688 797.435 688 777Z" fill="url(#fill3)" fill-rule="evenodd"/><path d="M717 828.5C717 804.476 735.132 785 757.5 785 779.867 785 798 804.476 798 828.5 798 852.524 779.867 872 757.5 872 735.132 872 717 852.524 717 828.5Z" fill="url(#fill4)" fill-rule="evenodd"/><path d="M938 1016.5C938 960.995 985.458 916 1044 916 1102.54 916 1150 960.995 1150 1016.5 1150 1072 1102.54 1117 1044 1117 985.458 1117 938 1072 938 1016.5Z" fill="url(#fill5)" fill-rule="evenodd"/><path d="M670 787.5C670 701.62 730.442 632 805 632 879.559 632 940 701.62 940 787.5 940 873.38 879.559 943 805 943 730.442 943 670 873.38 670 787.5Z" fill="url(#fill6)" fill-rule="evenodd"/><path d="M1084 1072C1084 1056.54 1095.42 1044 1109.5 1044 1123.58 1044 1135 1056.54 1135 1072 1135 1087.46 1123.58 1100 1109.5 1100 1095.42 1100 1084 1087.46 1084 1072Z" fill="url(#fill7)" fill-rule="evenodd"/><path d="M1068 991.5C1068 974.655 1080.54 961 1096 961 1111.46 961 1124 974.655 1124 991.5 1124 1008.34 1111.46 1022 1096 1022 1080.54 1022 1068 1008.34 1068 991.5Z" fill="url(#fill8)" fill-rule="evenodd"/><g clip-path="url(#clip9)"><g clip-path="url(#clip10)"><g clip-path="url(#clip11)"><path d="M300.065 836.048C298.358 835.523 293.143 833.966 288.476 832.592 283.81 831.219 277.849 829.462 275.231 828.688L270.47 827.282 270.347 824.957C270.233 822.804 270.323 822.532 271.589 821.268 272.872 819.985 273.231 819.87 277.507 819.363 284.029 818.59 283.922 818.629 283.922 817.03 283.922 816.204 283.68 815.579 283.303 815.433 282.787 815.234 282.682 814.074 282.682 808.545 282.682 802.956 282.568 801.715 281.967 800.772 281.574 800.152 281.13 799.555 280.981 799.441 280.402 798.996 276.058 791.514 276.058 790.96 276.058 790.638 276.262 789.929 276.509 789.388 276.905 788.515 276.582 787.794 273.715 783.132 271.93 780.233 270.172 777.363 269.806 776.751 265.439 769.475 255.452 753.093 253.158 749.442L250.218 744.768 249.065 748.408C248.43 750.41 248.003 752.447 248.116 752.934 248.294 753.71 248.588 753.811 250.497 753.761L252.673 753.703 252.788 759.61C252.885 764.599 252.804 765.555 252.271 765.76 251.859 765.918 251.639 766.545 251.639 767.56L251.639 769.119 255.881 769.4C262.847 769.862 262.814 769.851 262.814 771.861L262.814 773.575 255.881 776.158 248.948 778.742 240.463 777.929C235.796 777.482 231.931 777.109 231.874 777.103 231.516 777.058 231.87 773.514 232.348 772.371 232.855 771.155 233.34 770.841 236.384 769.743 239.494 768.621 239.856 768.382 239.979 767.345 240.067 766.612 239.879 766.059 239.463 765.826 238.917 765.521 238.808 764.555 238.808 760.086 238.808 755.117 238.726 754.551 237.731 752.586 236.912 750.969 236.713 750.097 236.899 748.934 237.115 747.579 236.46 745.986 231.095 734.826 227.77 727.909 223.866 719.78 222.423 716.764 220.852 713.487 219.216 710.699 218.354 709.837 217.464 708.947 216.799 707.799 216.619 706.84 216.459 705.986 215.801 704.432 215.158 703.387 214.113 701.688 213.856 701.505 212.734 701.671 210.951 701.932 207.789 701.047 206.208 699.841 204.77 698.746 203.212 696.11 203.212 694.774 203.212 693.516 195.073 677.2 193.892 676.089 193.311 675.546 192.554 674.124 192.208 672.932 191.437 670.282 191.897 668.105 193.779 665.484 194.896 663.928 195.076 662.459 194.075 663.078 193.457 663.46 191.257 661.672 190.109 659.853 189.203 658.417 189.016 657.517 188.762 653.379 188.557 650.031 187.98 646.562 186.86 641.95 185.976 638.308 185.214 635.269 185.169 635.198 185.061 635.029 180.249 635.843 178.378 636.345 177.58 636.558 175.204 637.046 173.095 637.427 169.525 638.075 169.245 638.197 169.036 639.209 168.91 639.805 168.551 641.226 168.233 642.365 167.915 643.502 167.355 645.737 166.989 647.331 166.622 648.924 166.159 650.601 165.958 651.056 165.76 651.511 165.53 653.572 165.447 655.635 165.325 658.72 165.132 659.621 164.361 660.704 162.986 662.634 160.259 664.094 158.029 664.094 156.577 664.094 155.956 664.322 155.187 665.14 154.646 665.717 153.974 666.099 153.694 665.993 153.413 665.885 152.4 666.492 151.442 667.341 149.815 668.785 149.739 668.946 150.277 669.828 150.794 670.673 150.762 670.845 149.967 671.498 149.095 672.213 149.094 672.239 149.86 673.229 150.583 674.165 150.684 675.858 150.075 676.845 149.944 677.056 150.193 677.55 150.628 677.943 151.539 678.767 151.315 679.822 150.229 679.822 149.821 679.822 147.828 681.359 145.799 683.237 143.771 685.115 141.284 687.395 140.273 688.304 136.721 691.496 133.008 694.908 128.141 699.45 125.438 701.971 123.063 704.097 122.864 704.174 122.664 704.249 122.5 704.657 122.5 705.08 122.5 706.2 121.806 706.452 120.753 705.715 120.247 705.36 119.171 705.07 118.361 705.07 117.552 705.07 116.459 704.769 115.932 704.399 115.129 703.838 114.816 703.814 113.992 704.255 113.194 704.682 112.887 704.681 112.362 704.244 111.726 703.716 110.888 704.199 109.06 706.145 108.826 706.394 103.978 710.86 98.287 716.069 92.5958 721.279 87.0081 726.401 85.8699 727.452 83.0426 730.061 73.0494 739.172 70.7624 741.226 69.738 742.144 66.4785 745.135 63.519 747.871 60.5597 750.606 57.2012 753.691 56.0559 754.723 54.9105 755.756 51.7442 758.672 49.0196 761.201 46.2948 763.731 43.5531 766.267 42.9266 766.836 42.0313 767.651 41.8348 768.128 42.008 769.067 42.2046 770.132 41.9154 770.536 39.3148 772.832 37.7125 774.248 36.1691 775.317 35.8851 775.207 35.601 775.098 34.6713 775.584 33.819 776.286 32.3031 777.536 32.2693 777.626 32.2693 780.407 32.2693 781.97 32.4555 783.365 32.6833 783.504 33.314 783.896 33.1765 786.057 32.4763 786.757 32.1348 787.099 31.8554 787.95 31.8554 788.65L31.8554 789.921 35.0631 789.935C37.8768 789.948 38.4744 790.089 39.9266 791.09 41.4816 792.163 41.5895 792.371 41.704 794.518 41.7886 796.105 41.5731 797.393 40.9975 798.735L40.1692 800.669 18.6283 800.778C6.78071 800.839-2.92595 800.797-2.94213 800.683-3.36012 797.742-3.29561 797.185-2.3503 795.572-0.623594 792.625-0.563852 792.603 9.09068 791.298L17.9897 790.097 18.1239 788.939C18.2054 788.237 18.0021 787.591 17.6075 787.3 16.8857 786.765 16.4418 784.237 17.0082 783.886 17.2064 783.764 17.3688 781.439 17.3688 778.721 17.3688 775.701 17.5298 773.779 17.7827 773.779 18.0103 773.779 18.1965 773.519 18.1965 773.202 18.1965 772.357 19.1442 772.124 22.5584 772.124 25.5398 772.124 25.6523 772.085 27.3865 770.484L29.1621 768.845 27.4528 767.069C25.4104 764.948 24.8191 763.88 24.8191 762.312 24.8191 760.615 28.413 755.566 29.6228 755.566 29.9131 755.566 32.0236 752.744 34.3129 749.295 37.7872 744.061 38.3932 742.915 37.9791 742.363 37.5686 741.816 37.5804 741.788 38.0473 742.202 38.5032 742.607 38.8312 742.41 39.7543 741.171 40.5972 740.042 40.7815 739.5 40.4567 739.108 40.126 738.711 40.1694 738.637 40.6309 738.814 41.0542 738.976 41.6838 738.326 42.6555 736.721 43.4311 735.439 44.278 734.16 44.5377 733.878 44.8778 733.509 44.8862 733.141 44.5679 732.567 44.1727 731.852 44.1993 731.827 44.8201 732.336 45.4097 732.818 45.5142 732.816 45.5142 732.325 45.5142 732.006 45.9049 731.411 46.3824 731.001 46.8993 730.559 47.1694 729.948 47.0501 729.492 46.9183 728.988 47.0305 728.796 47.3767 728.929 47.8649 729.115 49.6533 727.087 49.6533 726.346 49.6533 726.166 50.102 725.543 50.6504 724.961 51.1989 724.379 52.1768 723.026 52.8235 721.955 53.4702 720.883 56.3818 716.454 59.2937 712.113 62.2058 707.772 64.4756 704.038 64.3378 703.814 64.2002 703.592 64.4846 702.852 64.9697 702.172 65.4549 701.49 65.7461 700.933 65.6167 700.933 65.4875 700.933 65.7508 700.563 66.2021 700.111 66.8651 699.448 66.9445 699.087 66.6159 698.222 65.8556 696.222 66.1594 694.752 67.8464 692.268 68.7467 690.943 69.3676 689.741 69.226 689.6 69.0846 689.458 69.1642 689.342 69.4031 689.342 69.642 689.342 70.6508 688.091 71.6451 686.559 72.6393 685.028 74.0281 683.212 74.7313 682.523 75.4345 681.835 76.9938 679.737 78.1965 677.862 80.0853 674.916 80.5105 674.484 81.3179 674.686 82.1561 674.897 83.0119 673.774 89.6016 663.817 93.6436 657.709 97.4835 651.967 98.1349 651.056 98.7862 650.146 100.168 648.065 101.206 646.432 102.813 643.904 103.02 643.345 102.601 642.674 102.174 641.991 102.573 641.185 105.578 636.659 108.555 632.176 109.192 631.445 110.061 631.519 110.923 631.591 111.52 630.927 114.084 627.051 115.74 624.547 117.246 622.311 117.431 622.083 117.615 621.856 121.437 616.14 125.924 609.38 131.188 601.45 133.994 596.86 133.833 596.441 133.69 596.067 134.043 595.19 134.665 594.375 135.259 593.596 135.745 592.76 135.745 592.516 135.745 592.274 135.897 592.075 136.083 592.075 136.269 592.075 136.861 591.283 137.4 590.317 139.123 587.219 141.528 584.231 143.172 583.143 149.146 579.189 156.359 580.768 160.619 586.96 161.658 588.469 161.796 588.917 161.378 589.42 160.96 589.924 161.057 590.24 161.915 591.158 163.407 592.76 163.89 593.866 163.889 595.67 163.887 597.341 162.65 599.806 161.613 600.205 160.58 600.601 160.913 602.311 162.436 604.429 163.574 606.013 164.133 606.442 165.092 606.47 168.512 606.567 172.551 611.251 172.577 615.151 172.58 615.713 172.837 616.082 173.223 616.082 173.768 616.082 173.854 615.367 173.796 611.29 173.732 606.594 173.752 606.475 174.861 605.317L175.992 604.138 175.883 597.796C175.822 594.307 175.798 590.104 175.833 588.453L175.894 585.453 177.55 585.453C178.461 585.453 179.205 585.359 179.205 585.245 179.205 585.129 178.833 584.341 178.378 583.491 177.633 582.104 177.55 581.156 177.55 574.169L177.55 566.393 176.412 565.958C175.786 565.72 174.203 565.584 172.893 565.659 170.285 565.805 170.39 565.925 170.492 562.895 170.54 561.467 170.393 561.168 169.414 560.722 167.695 559.938 157.708 560.021 156.177 560.833 155.2 561.349 153.125 561.453 144.337 561.415 138.477 561.39 133.355 561.279 132.954 561.166 132.06 560.916 128.682 556.514 126.996 553.401L125.748 551.097 78.8873 551.103C35.1359 551.107 31.9588 551.156 31.0096 551.824 29.928 552.586 29.0906 553.068 25.452 555.014 24.1933 555.688 23.1635 556.459 23.1635 556.728 23.1635 556.997 22.6513 557.343 22.0253 557.495 20.388 557.892 14.877 561.099 15.1295 561.507 15.2465 561.697 15.0548 561.74 14.7034 561.606 14.3436 561.468 13.9649 561.62 13.8363 561.956 13.7108 562.283 13.3821 562.551 13.1061 562.551 12.83 562.551 11.8392 563.034 10.9043 563.624 9.51659 564.5 9.11458 565.054 8.71501 566.64 8.42992 567.773 7.70655 569.104 6.98255 569.827 5.90434 570.906 5.5219 571.041 4.09802 570.85 2.09726 570.582 1.05815 569.442 0.242224 566.621-0.378317 564.475-1.44948 557.249-1.92069 552.03L-2.19164 549.03-41.1618 549.03-80.1318 549.03-80.6588 550.788C-81.6115 553.969-81.9263 554.169-85.9731 554.147-89.3463 554.13-89.6076 554.064-90.4342 553.029-91.0013 552.317-91.7142 551.927-92.4478 551.927-93.0755 551.927-93.6901 551.649-93.8217 551.306-94.0239 550.779-95.5029 550.685-103.61 550.685-109.723 550.685-113.629 550.516-114.465 550.213-115.249 549.93-116.202 549.06-116.85 548.035-117.696 546.698-118.93 545.759-122.55 543.694-128.078 540.542-128.473 539.935-128.507 534.542-128.539 529.646-128.125 528.878-124.165 526.484-122.355 525.391-120.875 524.324-120.875 524.114-120.875 523.905-120.68 523.853-120.441 524-119.962 524.297-117.152 521.525-117.147 520.751-117.145 520.484-116.633 519.986-116.009 519.647-115.126 519.168-112.622 518.983-104.767 518.819-96.6478 518.65-94.6226 518.495-94.469 518.032-94.3384 517.64-94.4584 517.563-94.849 517.788-95.1631 517.971-95.2862 517.971-95.1226 517.79-94.959 517.61-94.166 517.402-93.3605 517.33-92.4572 517.248-91.5399 516.81-90.9675 516.185-90.457 515.628-89.4806 515.054-88.7976 514.911-87.9115 514.725-87.7313 514.767-88.1687 515.057-88.587 515.334-88.0331 515.385-86.4232 515.219-83.3728 514.905-82.2829 515.584-81.3553 518.376L-80.6654 520.454-41.6263 520.466-2.58711 520.479-2.32047 516.646C-1.38426 503.19 0.165616 498.534 3.70998 498.534 5.63169 498.534 6.76194 499.69 7.7812 502.698 8.53758 504.931 8.58386 504.973 13.2668 507.743 15.8644 509.28 18.8279 510.939 19.8522 511.432 20.8767 511.927 22.2014 512.666 22.7964 513.076 23.3911 513.488 24.0263 513.69 24.2079 513.525 24.3893 513.361 24.4122 513.447 24.2586 513.715 23.9979 514.17 25.4278 514.952 26.1643 514.758 26.3349 514.713 26.4746 514.853 26.4746 515.069 26.4746 515.287 27.6614 516.127 29.1115 516.939L31.7484 518.412 77.021 518.365C101.921 518.339 122.679 518.331 123.149 518.348 123.844 518.373 124.107 517.973 124.545 516.218 125.619 511.916 128.839 503.579 131.774 497.5 134.834 491.161 140.132 482.255 140.71 482.476 140.887 482.543 142.077 483.515 143.355 484.636L145.679 486.673 145.679 490.947 145.679 495.222 146.921 495.222C148.093 495.222 148.162 495.131 148.162 493.567L148.162 491.912 151.991 491.842C154.097 491.804 172.598 491.757 193.103 491.738 229.551 491.706 230.421 491.687 231.923 490.878 233.26 490.157 233.508 490.13 233.85 490.672 234.127 491.11 234.244 490.684 234.248 489.215 234.254 487.289 234.382 487.028 236.014 485.619 239.494 482.61 239.765 482.391 240.012 482.391 240.15 482.391 240.812 483.277 241.483 484.358 248.677 495.951 253.015 505.58 256.396 517.471 256.577 518.109 256.978 518.401 257.668 518.401L258.675 518.401 258.724 513.125C258.75 510.221 258.745 507.693 258.713 507.506 258.68 507.318 258.814 507.263 259.01 507.385 259.207 507.506 259.74 507.344 260.197 507.024 260.951 506.497 261.05 505.815 261.288 499.512L261.547 492.58 263.881 490.223 266.215 487.863 264.897 482.748C262.702 474.227 262.372 473.284 261.076 471.808L259.83 470.388 246.917 470.388C237.628 470.388 233.871 470.253 233.522 469.906 233.154 469.537 232.976 469.587 232.774 470.113 232.45 470.956 228.8 471.092 228.131 470.285 227.698 469.762 227.532 467.384 227.596 462.627 227.637 459.711 228.448 458.438 230.154 458.622 230.701 458.682 231.569 458.746 232.081 458.765 232.65 458.785 233.012 459.06 233.012 459.47 233.012 459.982 233.143 460.034 233.561 459.688 233.905 459.401 237.018 459.19 241.938 459.118L249.768 459.006 249.979 457.972C250.415 455.824 250.982 455.433 255.196 454.364 259.193 453.352 259.754 453.321 277.713 453.124L296.132 452.92 296.96 451.943C297.564 451.231 298.35 450.91 299.857 450.765 301.589 450.597 322.442 449.9 325.711 449.9 326.506 449.9 326.816 450.197 327.116 451.245 327.366 452.116 327.762 452.59 328.239 452.59 328.646 452.59 329.381 453.103 329.874 453.729 330.972 455.126 331.351 455.154 333.143 453.973 333.943 453.446 334.791 453.172 335.096 453.343 336.028 453.864 342.697 464.31 342.697 465.247 342.697 465.792 342.17 466.504 341.352 467.064L340.006 467.985 340.131 476.988 340.257 485.991 338.32 487.25 336.382 488.511 344.787 488.818C355.811 489.221 355.113 488.624 355.113 497.663 355.113 501.636 355.279 504.382 355.528 504.536 355.756 504.677 355.861 505.456 355.761 506.267 355.628 507.34 355.823 508.075 356.484 508.967 357.278 510.041 357.389 510.713 357.382 514.4 357.377 516.993 357.145 519.245 356.778 520.265 356 522.43 355.999 522.569 356.751 523.764 357.701 525.274 357.624 533.017 356.64 534.854 356.244 535.594 355.739 536.199 355.517 536.199 355.281 536.199 355.113 538.05 355.113 540.687 355.113 544.586 355.01 545.271 354.32 545.895 352.99 547.1 347.504 548.617 344.482 548.617 341.941 548.617 337.37 549.811 336.302 550.752 336.086 550.943 334.362 551.1 332.474 551.1 329.314 551.1 329.039 551.034 329.039 550.272 329.039 549.274 329.096 549.276 315.587 549.853 280.34 551.358 275.511 551.505 275.007 551.087 274.643 550.784 274.552 549.904 274.708 548.185L274.932 545.718 268.881 545.718 262.828 545.718 262.589 546.857C262.458 547.483 262.084 548.601 261.76 549.341 261.176 550.673 261.141 550.687 258.164 550.741 256.51 550.773 254.417 550.784 253.513 550.766 251.593 550.729 250.972 551.153 250.187 553.033 249.869 553.79 249.433 554.411 249.217 554.411 248.999 554.411 248.438 555.062 247.967 555.86 247.166 557.219 246.978 557.31 244.926 557.327 242.886 557.345 242.656 557.454 241.497 558.948 240.219 560.597 239.408 561.018 237.497 561.027 236.507 561.032 236.345 561.249 235.943 563.123 235.386 565.72 235.377 566.537 235.909 566.208 236.183 566.038 236.183 566.316 235.909 567.039 235.682 567.635 235.474 569.462 235.447 571.097 235.421 572.733 235.282 575.277 235.136 576.751L234.875 579.43 232.838 580.184C231.582 580.649 229.994 580.891 228.699 580.816L226.596 580.694 226.232 573.14 225.866 565.586 210.399 565.586C200.698 565.586 194.934 565.736 194.934 565.988 194.934 566.208 194.672 566.288 194.355 566.166 194.036 566.044 193.671 566.113 193.543 566.319 193.416 566.526 193.288 570.093 193.26 574.248 193.211 581.087 193.125 581.938 192.351 583.254 191.437 584.799 191.734 585.433 193.38 585.447 194.147 585.453 195.813 584.036 195.519 583.626 195.425 583.493 195.469 583.474 195.617 583.585 195.766 583.696 196.482 583.419 197.21 582.97 197.937 582.521 198.654 582.276 198.802 582.424 198.951 582.573 199.958 582.058 201.039 581.281 202.829 579.992 203.243 579.871 205.695 579.928 209.676 580.018 211.527 580.208 211.086 580.48 210.87 580.615 211.403 581.412 212.271 582.254 213.365 583.316 214.329 584.963 215.408 587.621 216.265 589.73 217.418 592.471 217.969 593.711 218.618 595.174 218.884 596.357 218.726 597.076 218.549 597.874 219.202 599.977 221.041 604.548 222.451 608.046 223.967 611.841 224.412 612.978 224.857 614.117 225.374 615.234 225.564 615.462 225.752 615.689 225.927 616.061 225.952 616.29 226.133 617.928 227.134 619.52 228.284 620.002 229.409 620.471 229.8 621.116 231.347 625.038 232.322 627.511 233.318 629.784 233.561 630.087 233.858 630.463 234.476 630.557 235.472 630.382 239.704 629.638 239.831 629.643 240.677 630.579 241.796 631.813 241.791 634.71 240.669 635.949 239.915 636.783 239.593 636.839 237.048 636.589 235.145 636.401 234.254 636.458 234.254 636.763 234.254 637.011 236.192 642.005 238.56 647.86 240.929 653.717 244.66 662.978 246.852 668.441 251.657 680.422 251.474 680.048 252.566 680.131 253.628 680.211 253.929 680.696 255.676 685.166 256.426 687.08 257.359 688.909 257.752 689.233 258.199 689.599 258.236 689.705 257.846 689.514 257.469 689.33 257.564 689.6 258.09 690.207 259.096 691.37 264.49 704.468 264.466 705.693 264.457 706.148 264.086 706.987 263.642 707.555 262.608 708.877 262.611 709.911 263.651 712.338 264.111 713.413 264.38 714.633 264.247 715.049 264.003 715.821 266.814 723.375 267.44 723.628 267.626 723.705 267.78 724.176 267.78 724.675 267.78 725.174 268.066 725.991 268.415 726.488 268.762 726.986 269.297 728.098 269.602 728.96 269.907 729.822 270.647 731.539 271.245 732.777 271.844 734.016 272.333 735.172 272.333 735.349 272.333 736.106 274.078 740.248 274.331 740.092 274.484 739.998 274.65 740.478 274.699 741.16 274.749 741.844 275.26 743.246 275.838 744.276 276.413 745.309 276.887 746.362 276.889 746.618 276.89 746.873 277.735 749.132 278.763 751.637 280.734 756.438 281.945 759.465 285.798 769.227 289.527 778.678 289.344 778.333 290.622 778.333 291.24 778.333 291.894 778.566 292.076 778.85 292.259 779.135 293.083 779.711 293.911 780.132 295.533 780.955 296.192 782.026 296.583 784.473 296.883 786.348 296.231 787.952 293.825 791.25L292.101 793.612 293.19 795.47C294.522 797.745 294.411 797.674 298.482 798.763L301.801 799.649 301.773 807.666C301.748 814.704 301.659 815.746 301.043 816.196 300.195 816.814 299.918 818.261 300.453 819.263 300.695 819.715 302.086 820.334 304.084 820.882 305.866 821.37 310.859 823.443 315.18 825.487L323.036 829.204 323.16 831.707C323.227 833.084 323.135 834.212 322.953 834.215 322.772 834.218 318.432 834.87 313.309 835.663 308.187 836.457 303.81 837.084 303.583 837.057 303.355 837.029 301.772 836.577 300.065 836.05ZM37.9162 761.017C38.0052 759.355 38.0276 759.291 38.5285 759.291 38.867 759.291 38.8641 759.448 38.518 759.864 38.1509 760.307 38.1912 760.494 38.6959 760.687 39.0549 760.826 39.2448 760.77 39.1178 760.565 38.9906 760.358 39.1208 760.094 39.4067 759.973 39.7819 759.818 39.7138 759.585 39.1621 759.139 38.1859 758.349 37.5073 758.619 36.9124 760.031 36.5274 760.946 36.4834 760.971 36.6754 760.172 36.8501 759.443 36.7744 759.272 36.3825 759.515 36.0151 759.742 35.9285 759.646 36.0989 759.204 36.2336 758.852 36.1255 758.345 35.8588 758.076 35.4868 757.702 35.5426 757.652 36.098 757.863 36.4964 758.015 36.8224 758.326 36.8224 758.556 36.8224 758.786 37.2435 758.697 37.7584 758.36 38.6233 757.793 38.7522 757.824 39.4546 758.755 39.8728 759.308 40.3197 759.657 40.4477 759.529 40.5756 759.402 40.3258 758.877 39.8926 758.364L39.1048 757.43 40.17 758.367 41.2353 759.305 42.0064 758.453C42.7603 757.619 42.7595 757.608 41.9729 757.902 41.2525 758.174 41.2294 758.13 41.752 757.487 42.073 757.093 42.5679 756.86 42.8513 756.968 43.1349 757.078 43.6928 756.807 44.0909 756.366 44.489 755.926 44.6855 755.566 44.5277 755.566 44.0304 755.566 45.8108 753.855 46.4009 753.766 47.3769 753.619 48.0217 753.043 47.7337 752.577 47.5809 752.33 47.6425 752.242 47.8704 752.383 48.0985 752.525 48.8258 752.064 49.4866 751.358 50.2847 750.507 50.5143 750.015 50.1708 749.889 49.8862 749.788 49.6533 749.503 49.6533 749.259 49.6533 749.015 49.9992 749.129 50.4219 749.511 51.0656 750.094 51.2665 750.115 51.6599 749.641 51.9184 749.329 51.9916 748.923 51.8228 748.736 51.654 748.55 51.7284 748.519 51.9883 748.668 52.2494 748.816 53.1282 748.198 53.9533 747.285 54.7743 746.376 55.6098 745.633 55.8102 745.633 56.6022 745.633 57.0986 744.553 56.5764 743.967 56.1586 743.497 56.1795 743.479 56.695 743.864 57.1998 744.239 57.7206 743.948 59.3854 742.36 60.5206 741.278 61.4962 740.22 61.5531 740.01 61.61 739.802 61.8894 739.622 62.174 739.613 62.4586 739.602 62.6292 739.322 62.5534 738.992 62.4775 738.66 62.5535 738.527 62.7223 738.696 63.1524 739.127 64.1895 738.183 63.8646 737.658 63.718 737.421 63.7922 737.346 64.0292 737.493 64.5656 737.825 65.4875 736.783 65.0678 736.319 64.899 736.132 64.9844 736.109 65.2575 736.265 65.8113 736.583 66.6102 735.352 66.3386 734.599 66.2437 734.335 66.3408 734.011 66.5548 733.88 66.7688 733.747 66.9184 733.905 66.8871 734.23 66.856 734.557 67.0166 734.815 67.2443 734.806 67.472 734.796 67.6117 734.621 67.5548 734.416 67.4978 734.211 67.6842 734.091 67.9687 734.147 68.2533 734.204 68.4349 734.003 68.3723 733.703 68.3097 733.401 68.4235 733.256 68.625 733.381 68.8264 733.506 69.6474 732.877 70.4492 731.984 71.2511 731.09 71.993 730.446 72.0982 730.551 72.2033 730.656 73.2534 729.722 74.4317 728.476 75.61 727.231 76.8219 726.064 77.1249 725.884 78.4517 725.099 83.939 719.782 83.7458 719.469 83.6281 719.278 83.7126 719.173 83.9335 719.236 84.2819 719.334 104.983 700.725 106.33 699.104 106.688 698.672 106.708 698.273 106.4 697.699 106.064 697.07 106.143 696.74 106.765 696.177 107.498 695.514 107.51 695.384 106.913 694.473 106.501 693.845 106.335 692.923 106.454 691.931 106.57 690.968 106.407 690.015 106.024 689.424 105.381 688.432 105.631 687.877 106.834 687.623 107.21 687.543 109.445 685.694 111.801 683.51 114.157 681.328 120.089 675.862 124.984 671.365 129.878 666.866 133.981 662.798 134.101 662.326 134.401 661.145 135.046 661.023 135.915 661.983 136.471 662.598 136.983 662.734 138.074 662.557 139.199 662.374 139.72 662.528 140.522 663.282L141.54 664.237 142.492 663.344C143.387 662.504 143.486 662.492 144.145 663.152 144.804 663.81 144.946 663.756 146.505 662.234 147.416 661.343 148.163 660.405 148.163 660.15 148.163 659.895 148.641 659.236 149.225 658.687 150.228 657.744 150.278 657.506 150.115 654.373 149.97 651.579 148.154 643.252 147.559 642.657 147.367 642.465 136.648 644.472 129.977 645.949 127.156 646.573 125.881 646.693 125.384 646.383 124.665 645.934 120.16 646.599 117.824 647.5 116.942 647.84 116.333 647.807 115.264 647.36 113.925 646.801 113.831 646.82 113.188 647.802 112.717 648.52 112.211 648.793 111.511 648.702 110.614 648.586 109.414 650.208 99.9721 664.294 90.6928 678.138 89.5048 680.092 90.021 680.663 90.5354 681.231 90.279 681.802 87.9282 685.317 86.4548 687.521 85.2491 689.586 85.2491 689.909 85.2491 690.541 78.6943 700.537 77.2753 702.07 76.6702 702.722 75.9401 703.001 74.8288 703.001 73.413 703.001 73.0943 703.21 71.8317 704.967 71.0547 706.048 69.8306 707.368 69.1113 707.899 68.3054 708.495 67.893 709.099 68.0366 709.473 68.1674 709.814 68.09 709.968 67.8605 709.828 67.4922 709.599 67.2726 710.147 67.4023 710.968 67.4292 711.139 67.2766 711.232 67.0634 711.176 66.85 711.118 63.4005 715.962 59.3977 721.937 55.395 727.913 52.2081 732.802 52.3157 732.802 52.4232 732.802 52.0477 733.302 51.4813 733.913 50.9148 734.524 50.5491 735.28 50.6684 735.59 50.7879 735.901 50.7243 736.056 50.527 735.934 50.0206 735.621 47.9056 738.94 48.2532 739.502 48.4154 739.765 48.3543 739.851 48.1123 739.702 47.8771 739.557 47.1938 740.179 46.5937 741.087 45.9936 741.994 45.645 742.742 45.8189 742.748 45.9929 742.754 45.8169 742.947 45.4281 743.174 45.0269 743.407 44.8249 743.857 44.9615 744.212 45.1129 744.607 44.9917 744.794 44.6339 744.719 44.3093 744.65 44.09 744.907 44.1224 745.318 44.1536 745.714 44.0343 745.949 43.8572 745.839 43.6803 745.73 43.216 746.127 42.8257 746.723 42.2376 747.621 42.2121 747.876 42.6769 748.208 43.111 748.517 43.0811 748.558 42.5447 748.388 41.6128 748.09 40.397 749.869 41.0712 750.543 41.4215 750.894 41.4146 751.139 41.0442 751.51 40.6579 751.896 40.5445 751.828 40.5343 751.2 40.5217 750.42 40.5018 750.418 39.9419 751.158 39.6233 751.577 39.4753 752.216 39.6131 752.574 39.7872 753.028 39.6807 753.157 39.2631 752.996 38.868 752.844 38.1961 753.472 37.296 754.831 36.5443 755.969 36.1767 756.754 36.4792 756.579 36.7817 756.403 36.5171 756.746 35.8912 757.342 34.7817 758.396 34.2957 759.623 35.2111 759.058 35.5217 758.866 35.5764 759.068 35.3807 759.684 35.0739 760.651 36.2064 762.364 36.8776 761.948 37.0749 761.826 37.2364 761.954 37.2364 762.234 37.2364 763.218 37.8579 762.105 37.9162 761.017ZM37.2362 757.453C37.2362 757.098 37.4225 756.809 37.6501 756.809 37.8777 756.809 38.0641 756.984 38.0641 757.198 38.0641 757.412 37.8777 757.702 37.6501 757.843 37.4225 757.983 37.2362 757.808 37.2362 757.453ZM40.1335 757.267C40.1335 757.064 40.4034 756.793 40.7333 756.666 41.1341 756.513 41.2568 756.635 41.103 757.037 40.8517 757.691 40.1335 757.861 40.1335 757.267ZM43.1343 755.327C43.1343 754.119 43.2814 754.074 43.8365 755.111 44.1485 755.695 44.112 755.953 43.6959 756.114 43.3184 756.258 43.1343 756 43.1343 755.327ZM38.258 754.719C38.1058 754.471 38.0928 754.159 38.2296 754.021 38.3661 753.885 38.4808 754.037 38.4842 754.359 38.4894 754.842 38.5615 754.836 38.8918 754.324 39.1328 753.952 39.2955 753.9 39.2994 754.198 39.3083 754.894 38.5892 755.254 38.258 754.719ZM43.8586 753.886C43.8586 753.645 43.6482 753.578 43.391 753.738 42.5394 754.263 43.2552 752.965 44.141 752.377 44.8733 751.892 45.032 751.895 45.2255 752.399 45.3871 752.819 45.2235 752.929 44.6555 752.78 44.2172 752.666 43.8586 752.78 43.8586 753.035 43.8586 753.289 44.0449 753.497 44.2725 753.497 44.5002 753.497 44.6865 753.683 44.6865 753.911 44.6865 754.138 44.5002 754.324 44.2725 754.324 44.0449 754.324 43.8586 754.127 43.8586 753.886ZM46.1617 752.377C45.9372 751.787 45.9847 751.74 46.3935 752.145 46.6763 752.425 46.8035 752.76 46.676 752.887 46.5487 753.015 46.3172 752.785 46.1617 752.377ZM42.8197 751.835C42.6767 751.604 42.3884 751.519 42.1791 751.649 41.9698 751.779 41.9127 751.587 42.0519 751.224 42.1913 750.861 42.3351 750.618 42.3714 750.686 42.4077 750.753 42.6867 751.133 42.9916 751.53 43.2967 751.929 43.4412 752.255 43.313 752.255 43.1847 752.255 42.9627 752.065 42.8197 751.835ZM42.4366 749.48C42.212 748.89 42.2595 748.841 42.6683 749.248 42.9511 749.528 43.0783 749.863 42.951 749.99 42.8235 750.118 42.5921 749.888 42.4366 749.48ZM50.3529 748.763C49.9408 748.452 49.7639 748.097 49.9596 747.976 50.1553 747.856 50.5406 748.117 50.8156 748.557 51.4034 749.498 51.3517 749.522 50.3529 748.763ZM53.0761 746.847C53.0046 745.896 53.1997 745.811 53.5231 746.654 53.6512 746.989 53.6168 747.349 53.4463 747.454 53.2759 747.559 53.1093 747.286 53.0761 746.847ZM53.9993 746.047C53.8586 745.819 53.9408 745.633 54.1818 745.633 54.4229 745.633 54.6202 745.819 54.6202 746.047 54.6202 746.274 54.538 746.46 54.4376 746.46 54.3373 746.46 54.1401 746.274 53.9993 746.047ZM59.8594 739.652C59.7057 739.252 59.8281 739.13 60.2265 739.281 60.5552 739.408 60.7209 739.677 60.5949 739.882 60.2777 740.395 60.1261 740.348 59.8594 739.652ZM274.197 762.188C274.987 761.849 274.982 761.832 274.093 761.804 273.58 761.788 273.161 761.611 273.161 761.409 273.161 761.209 272.765 760.94 272.28 760.813 271.691 760.66 271.481 760.369 271.647 759.937 271.783 759.582 271.714 759.291 271.493 759.291 271.273 759.291 271.091 759.477 271.091 759.706 271.091 759.933 270.905 760.12 270.678 760.12 270.45 760.12 270.264 759.84 270.264 759.499 270.264 759.157 270.078 758.878 269.851 758.878 269.367 758.878 269.349 758.996 269.688 759.879 269.826 760.239 270.212 760.533 270.545 760.533 270.879 760.533 271.431 760.813 271.772 761.154 272.324 761.707 272.309 761.775 271.639 761.782 271.001 761.786 270.98 761.849 271.506 762.188 272.249 762.67 273.078 762.67 274.197 762.188ZM274.951 759.349C274.492 758.184 274.158 757.779 273.942 758.127 273.754 758.432 273.896 758.96 274.281 759.385 274.898 760.067 274.88 760.12 274.029 760.12 273.474 760.12 273.222 760.297 273.391 760.569 273.544 760.816 274.02 760.928 274.45 760.815 274.88 760.702 275.231 760.81 275.231 761.056 275.231 761.3 275.323 761.408 275.434 761.297 275.545 761.186 275.328 760.31 274.951 759.349ZM271.537 757.556C271.7 756.946 271.719 756.331 271.578 756.191 271.439 756.05 271.525 755.806 271.772 755.648 272.398 755.247 272.901 753.497 272.391 753.497 272.166 753.497 271.885 753.824 271.769 754.221 271.651 754.62 271.57 754.201 271.589 753.29 271.637 750.855 271.559 750.518 271.021 750.85 270.696 751.052 270.624 750.923 270.802 750.46 271.143 749.57 270.739 748.53 270.051 748.53 269.712 748.53 269.586 748.871 269.713 749.462 269.907 750.373 269.898 750.374 269.256 749.584 268.654 748.841 268.66 748.743 269.328 748.384 269.729 748.17 270.1 747.964 270.151 747.926 270.28 747.834 267.426 740.588 267.157 740.319 267.04 740.201 266.652 740.464 266.294 740.904 265.694 741.639 265.663 741.642 265.885 740.943 266.017 740.525 266.125 740.003 266.125 739.781 266.125 739.557 266.344 739.51 266.61 739.674 266.919 739.867 267.01 739.763 266.863 739.389 265.019 734.718 264.329 733.254 264.052 733.426 263.869 733.539 263.823 733.229 263.952 732.738 264.111 732.131 264.035 731.938 263.712 732.137 263.424 732.315 263.317 732.218 263.44 731.891 263.731 731.119 261.281 725.122 260.731 725.259 260.477 725.321 260.393 725.172 260.543 724.928 260.947 724.276 258.209 717.571 257.455 717.366 257.101 717.269 256.379 716.046 255.847 714.647 254.932 712.237 254.799 712.093 253.269 711.847 252.38 711.705 251.443 711.336 251.185 711.024 250.928 710.715 250.583 710.543 250.418 710.644 250.256 710.746 250.121 710.585 250.121 710.288 250.121 709.99 248.967 706.869 247.557 703.353 246.148 699.836 244.934 696.316 244.86 695.531 244.787 694.744 243.929 692.149 242.953 689.763 241.295 685.704 241.22 685.355 241.792 684.355 242.37 683.351 242.273 682.957 240.175 677.727 238.947 674.667 237.76 671.699 237.536 671.13 237.312 670.561 234.288 663.017 230.818 654.366 225.317 640.652 224.391 638.621 223.577 638.505 223.064 638.432 222.349 637.919 221.986 637.366 221.374 636.431 219.353 635.91 219.353 636.686 219.353 636.864 220.101 639.799 221.013 643.206 221.925 646.613 223.438 652.287 224.376 655.815 227.87 668.962 228.089 669.625 229.296 670.716 230.141 671.479 230.637 672.568 231.185 674.855 231.593 676.563 232.151 678.239 232.427 678.581 232.702 678.922 233.62 681.808 234.47 684.997 236.076 691.032 236.657 692.351 238.271 693.621 241.311 696.014 241.092 699.958 237.691 704.108L236.239 705.879 236.865 707.713C237.207 708.722 238.692 711.473 240.162 713.828 241.631 716.182 243.061 718.543 243.338 719.075 243.615 719.607 243.947 719.937 244.073 719.81 244.202 719.682 244.047 719.247 243.729 718.843 243.202 718.17 243.216 718.158 243.897 718.691 244.305 719.014 244.544 719.524 244.428 719.826 244.145 720.562 246.669 724.575 247.205 724.243 247.437 724.099 247.504 724.182 247.352 724.428 246.974 725.039 248.715 727.901 249.259 727.563 249.517 727.405 249.575 727.491 249.4 727.774 249.053 728.336 253.129 735.285 253.805 735.285 254.055 735.285 254.138 735.407 253.99 735.555 253.843 735.704 254.045 736.089 254.439 736.414 254.833 736.738 254.908 736.875 254.606 736.719 253.858 736.336 256.067 739.812 257.312 740.979 257.86 741.492 258.193 742.097 258.052 742.324 257.913 742.549 257.965 742.736 258.168 742.736 258.37 742.736 258.537 742.973 258.537 743.266 258.537 744.162 259.981 746.055 260.446 745.769 260.72 745.598 260.785 745.756 260.621 746.187 260.476 746.565 260.521 746.875 260.723 746.875 260.925 746.875 261.183 746.642 261.298 746.357 261.449 745.985 261.516 745.977 261.539 746.332 261.558 746.604 261.397 746.934 261.181 747.067 260.967 747.2 261.441 748.399 262.234 749.73 263.52 751.889 263.809 752.141 264.901 752.047 265.715 751.978 266.125 752.134 266.125 752.513 266.125 752.827 266.331 753.084 266.583 753.084 266.835 753.084 266.935 752.804 266.803 752.463 266.672 752.12 266.746 751.842 266.966 751.842 267.187 751.842 267.37 752.075 267.373 752.36 267.378 752.702 267.512 752.668 267.772 752.255 268.23 751.53 269.098 751.422 269.533 752.034 269.701 752.27 269.84 753.719 269.845 755.257 269.851 757.777 269.77 758.051 269.022 758.051 268.567 758.051 268.194 758.198 268.194 758.378 268.194 758.557 268.879 758.697 269.718 758.686 271.013 758.67 271.285 758.501 271.537 757.556ZM263.485 750.789C263.379 750.512 263.509 750.071 263.773 749.805 264.141 749.439 264.108 749.221 263.639 748.896 263.093 748.517 263.093 748.488 263.642 748.647 263.989 748.749 264.219 749.217 264.164 749.714 264.11 750.201 264.249 750.6 264.474 750.6 264.699 750.6 264.882 750.755 264.882 750.945 264.882 751.482 263.7 751.351 263.484 750.789ZM268.593 746.393C268.119 745.469 268.132 745.458 268.847 746.141 269.258 746.534 269.48 746.969 269.342 747.108 269.203 747.246 268.867 746.925 268.593 746.393ZM258.882 742.321C258.741 742.094 258.824 741.908 259.065 741.908 259.306 741.908 259.503 742.094 259.503 742.321 259.503 742.549 259.421 742.736 259.32 742.736 259.219 742.736 259.022 742.549 258.882 742.321ZM260.433 740.461C259.747 739.68 259.781 739.152 260.537 738.861 261.003 738.682 261.158 738.929 261.158 739.851 261.158 741.248 261.141 741.263 260.433 740.461ZM257.666 739.96C257.442 739.369 257.489 739.322 257.899 739.727 258.181 740.009 258.309 740.342 258.181 740.47 258.054 740.597 257.822 740.367 257.666 739.96ZM262.4 734.872C262.4 734.643 262.586 734.457 262.814 734.457 263.041 734.457 263.227 734.643 263.227 734.872 263.227 735.098 263.041 735.286 262.814 735.286 262.586 735.286 262.4 735.098 262.4 734.872ZM262.658 732.993C262.259 731.952 262.376 731.683 262.864 732.522 263.105 732.938 263.216 733.365 263.11 733.471 263.004 733.578 262.8 733.364 262.658 732.993ZM252.881 732.843C252.881 732.412 253.668 731.791 253.901 732.037 253.976 732.117 253.777 732.422 253.459 732.714 253.14 733.008 252.881 733.066 252.881 732.843ZM273.629 757.533C274.079 756.688 274.061 756.654 273.436 757.17 273.058 757.481 272.748 757.901 272.748 758.101 272.748 758.733 273.116 758.497 273.629 757.533ZM240.283 738.726C240.136 738.341 238.895 733.949 237.525 728.963 235.169 720.384 234.891 719.658 232.316 715.383 229.741 711.107 229.243 710.625 227.632 710.855 226.715 710.985 226.707 710.934 228.048 713.698 228.73 715.107 229.287 716.324 229.287 716.406 229.287 716.487 230.665 719.417 232.348 722.918 235.74 729.972 238.586 736.024 239.477 738.08 240.069 739.443 240.777 740.01 240.283 738.726ZM217.698 662.856C217.698 662.473 215.109 653.048 213.205 646.502 212.132 642.814 211.968 642.499 211.697 643.605 211.531 644.289 211.057 646.244 210.644 647.951 210.231 649.659 209.818 653.059 209.725 655.505L209.556 659.953 210.918 660.757C211.666 661.198 212.511 661.93 212.794 662.384 213.202 663.038 213.759 663.207 215.503 663.207 216.711 663.207 217.698 663.049 217.698 662.856ZM120.923 640.032C122.126 639.774 123.3 639.314 123.53 639.009 123.769 638.695 127.685 637.732 132.641 636.772 144.14 634.544 145.681 634.206 145.667 633.917 145.66 633.782 145.3 632.373 144.867 630.784 144.304 628.722 144.204 627.746 144.515 627.369 144.839 626.979 144.778 626.843 144.281 626.843 143.336 626.843 143.378 624.536 144.334 623.979 144.953 623.617 144.893 623.555 143.92 623.544 142.897 623.533 142.782 623.384 142.782 622.083 142.782 620.642 142.771 620.634 140.927 620.634 139.315 620.634 139.04 620.504 138.823 619.641 138.686 619.095 138.636 618.211 138.712 617.676 138.831 616.836 139.134 616.673 140.916 616.495 142.577 616.329 143.007 616.126 143.11 615.461 143.181 615.005 143.446 614.214 143.7 613.702 143.955 613.189 144.046 612.654 143.903 612.51 143.438 612.047 144.788 609.992 146.543 608.488 147.596 607.587 148.996 606.865 150.176 606.614 151.231 606.389 152.281 605.888 152.509 605.5 152.736 605.112 153.341 604.28 153.854 603.653 155.021 602.22 155.036 601.119 153.9 600.106 152.439 598.805 151.829 596.851 152.144 594.479 152.355 592.89 152.302 592.44 151.931 592.668 151.66 592.837 151.19 592.768 150.887 592.518 150.585 592.266 150.081 592.159 149.767 592.281 149.454 592.404 147.746 594.727 145.973 597.444 143.87 600.667 142.555 602.309 142.191 602.17 141.818 602.026 137.762 607.744 129.933 619.448 123.451 629.139 118.446 637.011 118.711 637.1 119.384 637.324 119.305 638.496 118.545 639.582 117.804 640.639 117.956 640.669 120.923 640.032ZM204.12 516.167C207.661 514.72 212.512 512.659 215.422 511.363 216.332 510.958 218.468 510.038 220.167 509.32 221.866 508.602 223.339 507.93 223.442 507.826 223.546 507.723 208.559 507.643 190.139 507.65L156.647 507.66 159.338 508.818C160.818 509.455 165.758 511.592 170.318 513.566 174.878 515.542 178.849 517.158 179.143 517.158 179.439 517.158 180.457 516.707 181.408 516.155 186.015 513.485 192.138 513.137 196.894 515.277 198.313 515.916 199.686 516.693 199.946 517.004 200.537 517.718 200.116 517.802 204.12 516.167ZM272.981 735.821C272.756 735.231 272.804 735.183 273.213 735.59 273.496 735.87 273.623 736.204 273.496 736.331 273.368 736.458 273.136 736.229 272.981 735.821ZM50.4812 723.1C50.4812 722.745 50.6673 722.454 50.895 722.454 51.1227 722.454 51.3089 722.629 51.3089 722.843 51.3089 723.057 51.1227 723.348 50.895 723.489 50.6673 723.63 50.4812 723.455 50.4812 723.1ZM69.7543 686.153C69.5296 685.563 69.5772 685.514 69.986 685.921 70.2688 686.201 70.396 686.536 70.2686 686.663 70.1411 686.789 69.9098 686.561 69.7543 686.153ZM169.305 565.758C169.323 565.274 169.422 565.177 169.555 565.507 169.674 565.806 169.66 566.163 169.522 566.301 169.384 566.438 169.286 566.193 169.305 565.758Z" stroke="#92D050" stroke-width="4.34175" transform="matrix(-1.00016 0 0 1 1041.47 251.099)"/></g></g></g></g></svg>