<svg width="550" height="550" xmlns="http://www.w3.org/2000/svg" xmlns:xlink="http://www.w3.org/1999/xlink" overflow="hidden"><defs><clipPath id="clip0"><rect x="2448" y="613" width="550" height="550"/></clipPath><radialGradient cx="762000" cy="762000" r="1.07763e+06" gradientUnits="userSpaceOnUse" spreadMethod="pad" id="fill1" gradientTransform="matrix(0.000360892 0 0 0.000360892 2448 613)"><stop offset="0" stop-color="#92D050"/><stop offset="0.17" stop-color="#92D050"/><stop offset="0.33" stop-color="#029C48"/><stop offset="1" stop-color="#0F1113"/></radialGradient><linearGradient x1="2721" y1="618" x2="2721" y2="773" gradientUnits="userSpaceOnUse" spreadMethod="reflect" id="fill2"><stop offset="0" stop-color="#F5FAFF" stop-opacity="0.231373"/><stop offset="0.32" stop-color="#FFFFFF" stop-opacity="0"/><stop offset="1" stop-color="#FFFFFF" stop-opacity="0"/></linearGradient><radialGradient cx="94211" cy="102524" r="139236" gradientUnits="userSpaceOnUse" spreadMethod="pad" id="fill3" gradientTransform="matrix(0.000360892 0 0 0.000360892 2487 741)"><stop offset="0" stop-color="#92D050"/><stop offset="0.54" stop-color="#09522C" stop-opacity="0"/><stop offset="1" stop-color="#09522C" stop-opacity="0"/></radialGradient><radialGradient cx="110836" cy="120534" r="163748" gradientUnits="userSpaceOnUse" spreadMethod="pad" id="fill4" gradientTransform="matrix(0.000360892 0 0 0.000360892 2516 786)"><stop offset="0" stop-color="#92D050"/><stop offset="0.54" stop-color="#09522C" stop-opacity="0"/><stop offset="1" stop-color="#09522C" stop-opacity="0"/></radialGradient><radialGradient cx="292331" cy="278476" r="403740" gradientUnits="userSpaceOnUse" spreadMethod="pad" id="fill5" gradientTransform="matrix(0.000360892 0 0 0.000360892 2737 917)"><stop offset="0" stop-color="#92D050"/><stop offset="0.54" stop-color="#09522C" stop-opacity="0"/><stop offset="1" stop-color="#09522C" stop-opacity="0"/></radialGradient><radialGradient cx="374072" cy="432261" r="571647" fx="374072" fy="432262" gradientUnits="userSpaceOnUse" spreadMethod="pad" id="fill6" gradientTransform="matrix(0.000360892 0 0 0.000360892 2468 632)"><stop offset="0" stop-color="#92D050"/><stop offset="0.54" stop-color="#09522C" stop-opacity="0"/><stop offset="1" stop-color="#09522C" stop-opacity="0"/></radialGradient><radialGradient cx="72043.5" cy="77585.5" r="105876" fx="72043.5" fy="77585.5" gradientUnits="userSpaceOnUse" spreadMethod="pad" id="fill7" gradientTransform="matrix(0.000360892 0 0 0.000360892 2882 1045)"><stop offset="0" stop-color="#92D050"/><stop offset="0.54" stop-color="#09522C" stop-opacity="0"/><stop offset="1" stop-color="#09522C" stop-opacity="0"/></radialGradient><radialGradient cx="77585.5" cy="84512.5" r="114725" gradientUnits="userSpaceOnUse" spreadMethod="pad" id="fill8" gradientTransform="matrix(0.000360892 0 0 0.000360892 2866 962)"><stop offset="0" stop-color="#92D050"/><stop offset="0.54" stop-color="#09522C" stop-opacity="0"/><stop offset="1" stop-color="#09522C" stop-opacity="0"/></radialGradient><clipPath id="clip9"><rect x="2469" y="632" width="510" height="510"/></clipPath><clipPath id="clip10"><rect x="2469" y="632" width="510" height="510"/></clipPath><clipPath id="clip11"><rect x="2469" y="632" width="510" height="510"/></clipPath></defs><g clip-path="url(#clip0)" transform="translate(-2448 -613)"><rect x="2448" y="613" width="550" height="550" fill="url(#fill1)"/><path d="M2481.79 618 2960.21 618C2976.11 618 2989 637.993 2989 662.656L2989 773C2989 734.576 2968.92 703.427 2944.15 703.427L2497.85 703.427C2473.08 703.427 2453 734.576 2453 773L2453 662.656C2453 637.993 2465.89 618 2481.79 618Z" fill="url(#fill2)" fill-rule="evenodd"/><path d="M2487 778C2487 757.566 2502.22 741 2521 741 2539.78 741 2555 757.566 2555 778 2555 798.435 2539.78 815 2521 815 2502.22 815 2487 798.435 2487 778Z" fill="url(#fill3)" fill-rule="evenodd"/><path d="M2516 829.5C2516 805.476 2533.91 786 2556 786 2578.09 786 2596 805.476 2596 829.5 2596 853.525 2578.09 873 2556 873 2533.91 873 2516 853.525 2516 829.5Z" fill="url(#fill4)" fill-rule="evenodd"/><path d="M2737 1017.5C2737 961.995 2784.23 917 2842.5 917 2900.77 917 2948 961.995 2948 1017.5 2948 1073 2900.77 1118 2842.5 1118 2784.23 1118 2737 1073 2737 1017.5Z" fill="url(#fill5)" fill-rule="evenodd"/><path d="M2468 788C2468 701.844 2528.44 632 2603 632 2677.56 632 2738 701.844 2738 788 2738 874.156 2677.56 944 2603 944 2528.44 944 2468 874.156 2468 788Z" fill="url(#fill6)" fill-rule="evenodd"/><path d="M2882 1073C2882 1057.54 2893.64 1045 2908 1045 2922.36 1045 2934 1057.54 2934 1073 2934 1088.46 2922.36 1101 2908 1101 2893.64 1101 2882 1088.46 2882 1073Z" fill="url(#fill7)" fill-rule="evenodd"/><path d="M2866 992.5C2866 975.655 2878.54 962 2894 962 2909.46 962 2922 975.655 2922 992.5 2922 1009.34 2909.46 1023 2894 1023 2878.54 1023 2866 1009.34 2866 992.5Z" fill="url(#fill8)" fill-rule="evenodd"/><g clip-path="url(#clip9)"><g clip-path="url(#clip10)"><g clip-path="url(#clip11)"><path d="M124.523 181.871 124.523 189.76 146.222 189.76Z" stroke="#92D050" stroke-width="4.59459" transform="matrix(-1 0 0 1 2979 632)"/><path d="M386.583 209.832 335.3 209.832C332.526 209.832 330.28 207.586 330.28 204.815L330.28 189.76 280.096 189.76 280.096 219.87 389.088 219.87ZM300.167 209.832 290.132 209.832 290.132 199.797 300.17 199.797ZM320.241 209.832 310.205 209.832 310.205 199.797 320.243 199.797Z" stroke="#92D050" stroke-width="4.59459" transform="matrix(-1 0 0 1 2979 632)"/><path d="M270.056 199.802 255.001 199.802 255.001 204.819C255.001 206.152 254.474 207.426 253.533 208.37 252.59 209.309 251.313 209.837 249.983 209.837L209.835 209.837C207.064 209.837 204.817 207.59 204.817 204.82L204.817 199.802 179.727 199.802 179.727 209.84 169.689 209.837 169.689 199.802 154.634 199.802 154.634 209.84 144.596 209.837 144.596 199.802 114.485 199.802 114.485 219.875 270.056 219.875Z" stroke="#92D050" stroke-width="4.59459" transform="matrix(-1 0 0 1 2979 632)"/><path d="M340.316 169.69 360.389 169.69 360.389 179.728 340.316 179.728Z" stroke="#92D050" stroke-width="4.59459" transform="matrix(-1 0 0 1 2979 632)"/><path d="M381.557 189.758 340.312 189.758 340.312 199.796 384.066 199.796Z" stroke="#92D050" stroke-width="4.59459" transform="matrix(-1 0 0 1 2979 632)"/><path d="M370.523 245.966C370.221 244.488 370.6 242.955 371.553 241.786 372.505 240.62 373.932 239.942 375.44 239.942L394.104 239.942 391.595 229.904 124.523 229.907 124.523 239.945 305.187 239.942C307.571 239.942 309.627 241.622 310.104 243.958L325.36 320.241 385.38 320.241ZM364.215 308.445C363.256 309.562 361.858 310.207 360.385 310.201L340.312 310.201C337.859 310.201 335.768 308.428 335.363 306.01L325.325 245.789C325.083 244.335 325.492 242.845 326.445 241.72 327.399 240.594 328.798 239.945 330.274 239.942L350.349 239.942C352.8 239.945 354.893 241.714 355.296 244.133L365.333 304.355C365.577 305.809 365.167 307.297 364.215 308.424Z" stroke="#92D050" stroke-width="4.59459" transform="matrix(-1 0 0 1 2979 632)"/><path d="M327.37 330.279 329.375 340.317 389.395 340.317 387.39 330.279Z" stroke="#92D050" stroke-width="4.59459" transform="matrix(-1 0 0 1 2979 632)"/><path d="M336.2 249.981 344.56 300.165 354.458 300.165 346.097 249.981Z" stroke="#92D050" stroke-width="4.59459" transform="matrix(-1 0 0 1 2979 632)"/><path d="M291.683 249.981C293.183 257.084 291.9 264.491 288.099 270.677 287 272.285 285.717 273.761 284.276 275.074L306.092 275.074 301.075 249.981Z" stroke="#92D050" stroke-width="4.59459" transform="matrix(-1 0 0 1 2979 632)"/></g></g></g></g></svg>