<svg width="550" height="550" xmlns="http://www.w3.org/2000/svg" xmlns:xlink="http://www.w3.org/1999/xlink" overflow="hidden"><defs><clipPath id="clip0"><rect x="626" y="29" width="550" height="550"/></clipPath><radialGradient cx="762000" cy="762000" r="1.07763e+06" gradientUnits="userSpaceOnUse" spreadMethod="pad" id="fill1" gradientTransform="matrix(0.000360892 0 0 0.000360892 626 28.9999)"><stop offset="0" stop-color="#92D050"/><stop offset="0.17" stop-color="#92D050"/><stop offset="0.33" stop-color="#029C48"/><stop offset="1" stop-color="#0F1113"/></radialGradient><linearGradient x1="899.5" y1="35.0001" x2="899.5" y2="189" gradientUnits="userSpaceOnUse" spreadMethod="reflect" id="fill2"><stop offset="0" stop-color="#F5FAFF" stop-opacity="0.231373"/><stop offset="0.32" stop-color="#FFFFFF" stop-opacity="0"/><stop offset="1" stop-color="#FFFFFF" stop-opacity="0"/></linearGradient><radialGradient cx="94210.5" cy="102524" r="139236" gradientUnits="userSpaceOnUse" spreadMethod="pad" id="fill3" gradientTransform="matrix(0.000360892 0 0 0.000360892 665 157)"><stop offset="0" stop-color="#92D050"/><stop offset="0.54" stop-color="#09522C" stop-opacity="0"/><stop offset="1" stop-color="#09522C" stop-opacity="0"/></radialGradient><radialGradient cx="112222" cy="121920" r="165705" fx="112222" fy="121920" gradientUnits="userSpaceOnUse" spreadMethod="pad" id="fill4" gradientTransform="matrix(0.000360892 0 0 0.000360892 694 202)"><stop offset="0" stop-color="#92D050"/><stop offset="0.54" stop-color="#09522C" stop-opacity="0"/><stop offset="1" stop-color="#09522C" stop-opacity="0"/></radialGradient><radialGradient cx="293716" cy="278476" r="404745" gradientUnits="userSpaceOnUse" spreadMethod="pad" id="fill5" gradientTransform="matrix(0.000360892 0 0 0.000360892 915 333)"><stop offset="0" stop-color="#92D050"/><stop offset="0.54" stop-color="#09522C" stop-opacity="0"/><stop offset="1" stop-color="#09522C" stop-opacity="0"/></radialGradient><radialGradient cx="374073" cy="430876" r="570600" fx="374073" fy="430876" gradientUnits="userSpaceOnUse" spreadMethod="pad" id="fill6" gradientTransform="matrix(0.000360892 0 0 0.000360892 647 49.0002)"><stop offset="0" stop-color="#92D050"/><stop offset="0.54" stop-color="#09522C" stop-opacity="0"/><stop offset="1" stop-color="#09522C" stop-opacity="0"/></radialGradient><radialGradient cx="70658" cy="77585.5" r="104938" gradientUnits="userSpaceOnUse" spreadMethod="pad" id="fill7" gradientTransform="matrix(0.000360892 0 0 0.000360892 1061 461)"><stop offset="0" stop-color="#92D050"/><stop offset="0.54" stop-color="#09522C" stop-opacity="0"/><stop offset="1" stop-color="#09522C" stop-opacity="0"/></radialGradient><radialGradient cx="77585.5" cy="83127" r="113708" gradientUnits="userSpaceOnUse" spreadMethod="pad" id="fill8" gradientTransform="matrix(0.000360892 0 0 0.000360892 1045 379)"><stop offset="0" stop-color="#92D050"/><stop offset="0.54" stop-color="#09522C" stop-opacity="0"/><stop offset="1" stop-color="#09522C" stop-opacity="0"/></radialGradient><clipPath id="clip9"><rect x="651" y="55" width="500" height="501"/></clipPath><clipPath id="clip10"><rect x="651" y="55" width="500" height="501"/></clipPath><clipPath id="clip11"><rect x="651" y="55" width="500" height="501"/></clipPath></defs><g clip-path="url(#clip0)" transform="translate(-626 -29)"><rect x="626" y="28.9999" width="550" height="550" fill="url(#fill1)"/><path d="M660.734 35.0001 1138.27 35.0001C1154.14 35.0001 1167 54.864 1167 79.3677L1167 189C1167 150.824 1146.96 119.876 1122.23 119.876L676.767 119.876C652.043 119.876 632 150.824 632 189L632 79.3677C632 54.864 644.865 35.0001 660.734 35.0001Z" fill="url(#fill2)" fill-rule="evenodd"/><path d="M665 194C665 173.566 680.222 157 699 157 717.778 157 733 173.566 733 194 733 214.435 717.778 231 699 231 680.222 231 665 214.435 665 194Z" fill="url(#fill3)" fill-rule="evenodd"/><path d="M694 246C694 221.7 712.133 202 734.5 202 756.868 202 775 221.7 775 246 775 270.301 756.868 290 734.5 290 712.133 290 694 270.301 694 246Z" fill="url(#fill4)" fill-rule="evenodd"/><path d="M915 433.5C915 377.995 962.458 333 1021 333 1079.54 333 1127 377.995 1127 433.5 1127 489.005 1079.54 534 1021 534 962.458 534 915 489.005 915 433.5Z" fill="url(#fill5)" fill-rule="evenodd"/><path d="M647 204.5C647 118.62 707.442 49.0002 782 49.0002 856.559 49.0002 917 118.62 917 204.5 917 290.38 856.559 360 782 360 707.442 360 647 290.38 647 204.5Z" fill="url(#fill6)" fill-rule="evenodd"/><path d="M1061 489C1061 473.536 1072.42 461 1086.5 461 1100.58 461 1112 473.536 1112 489 1112 504.464 1100.58 517 1086.5 517 1072.42 517 1061 504.464 1061 489Z" fill="url(#fill7)" fill-rule="evenodd"/><path d="M1045 409C1045 392.432 1057.54 379 1073 379 1088.46 379 1101 392.432 1101 409 1101 425.569 1088.46 439 1073 439 1057.54 439 1045 425.569 1045 409Z" fill="url(#fill8)" fill-rule="evenodd"/><g clip-path="url(#clip9)"><g clip-path="url(#clip10)"><g clip-path="url(#clip11)"><path d="M94.6515 232.566C93.1034 232.91 91.4943 232.654 90.146 231.811L64.8428 216.053 74.0827 201.216C75.7418 198.552 74.9261 195.045 72.2627 193.381 69.6049 191.739 66.0982 192.549 64.4391 195.201L55.1943 210.047 36.9344 198.675C35.5806 197.842 34.6428 196.522 34.2821 194.968 33.9159 193.415 34.1823 191.817 35.0257 190.462L108.662 72.21C109.5 70.8672 110.82 69.924 112.368 69.5577 112.823 69.4578 113.278 69.4024 113.727 69.4024 114.832 69.4024 115.914 69.713 116.868 70.3012 116.868 70.3012 116.868 70.3124 116.874 70.3124L170.091 103.449C171.444 104.281 172.383 105.602 172.743 107.155 173.109 108.709 172.843 110.307 172 111.661L98.3691 229.902C97.5257 231.257 96.2051 232.2 94.6515 232.566Z" stroke="#92D050" stroke-width="4.5977" fill="#0F1113" transform="matrix(1 0 0 1 651 55)"/><path d="M464.158 367.287C462.057 366.668 459.994 365.769 457.936 364.884 451.711 337.667 445.488 310.448 439.001 283.292 437.136 275.524 432.575 268.62 426.138 263.871 405.065 248.346 383.092 233.609 360.82 220.092 358.145 218.494 354.644 219.327 353.014 222.001 351.382 224.686 352.236 228.183 354.921 229.814 376.911 243.152 398.595 257.69 419.392 273.016 423.665 276.178 426.704 280.761 427.948 285.933 436.67 322.399 445.137 358.919 453.383 396.129 453.194 396.861 452.484 397.361 451.707 397.138 430.756 391.878 414.698 375.533 409.826 354.492L406.641 340.809C398.717 306.662 370.065 280.395 335.341 275.435 325.02 273.97 314.567 273.936 304.246 275.368 294.153 276.756 285.209 281.993 279.056 290.106 272.902 298.228 270.277 308.25 271.67 318.348 273.268 329.978 279.993 340.054 290.119 346.014 310.943 358.254 328.771 374.311 343.109 393.743 343.769 394.642 344.374 395.585 344.918 396.551 351.443 408.225 348.142 422.774 337.732 430.598 286.429 392.623 233.578 355.424 180.877 320.212 149.364 295.895 126.585 263.024 114.749 225.1L176.691 125.628C223.603 140.302 270.66 156.451 316.625 173.773 316.777 173.832 316.933 173.812 317.086 173.857 317.219 173.894 317.319 173.987 317.458 174.017 352.281 181.352 387.432 189.831 421.944 199.185 421.949 199.186 421.953 199.186 421.959 199.187 423.211 199.531 424.242 200.418 424.762 201.616 428.165 209.407 430.673 217.519 432.763 225.741 419.026 217.437 404.702 210.016 390.017 203.602 387.176 202.37 383.802 203.658 382.537 206.532 381.284 209.406 382.593 212.758 385.467 214.011 404.344 222.257 422.61 232.221 439.756 243.629 442.085 245.173 443.728 247.636 444.261 250.389 451.751 288.818 459.031 327.626 465.878 366.356 465.701 366.976 464.768 367.442 464.158 367.287Z" stroke="#92D050" stroke-width="4.5977" fill="#0F1113" transform="matrix(1 0 0 1 651 55)"/></g></g></g></g></svg>