<svg width="550" height="550" xmlns="http://www.w3.org/2000/svg" xmlns:xlink="http://www.w3.org/1999/xlink" overflow="hidden"><defs><clipPath id="clip0"><rect x="645" y="1188" width="550" height="550"/></clipPath><radialGradient cx="762000" cy="762000" r="1.07763e+06" gradientUnits="userSpaceOnUse" spreadMethod="pad" id="fill1" gradientTransform="matrix(0.000360892 0 0 0.000360892 645 1188)"><stop offset="0" stop-color="#92D050"/><stop offset="0.17" stop-color="#92D050"/><stop offset="0.33" stop-color="#029C48"/><stop offset="1" stop-color="#0F1113"/></radialGradient><linearGradient x1="918.5" y1="1193" x2="918.5" y2="1348" gradientUnits="userSpaceOnUse" spreadMethod="reflect" id="fill2"><stop offset="0" stop-color="#F5FAFF" stop-opacity="0.231373"/><stop offset="0.32" stop-color="#FFFFFF" stop-opacity="0"/><stop offset="1" stop-color="#FFFFFF" stop-opacity="0"/></linearGradient><radialGradient cx="94211" cy="102524" r="139237" fx="94211" fy="102524" gradientUnits="userSpaceOnUse" spreadMethod="pad" id="fill3" gradientTransform="matrix(0.000360892 0 0 0.000360892 684 1316)"><stop offset="0" stop-color="#92D050"/><stop offset="0.54" stop-color="#09522C" stop-opacity="0"/><stop offset="1" stop-color="#09522C" stop-opacity="0"/></radialGradient><radialGradient cx="110836" cy="120534" r="163748" gradientUnits="userSpaceOnUse" spreadMethod="pad" id="fill4" gradientTransform="matrix(0.000360892 0 0 0.000360892 713 1361)"><stop offset="0" stop-color="#92D050"/><stop offset="0.54" stop-color="#09522C" stop-opacity="0"/><stop offset="1" stop-color="#09522C" stop-opacity="0"/></radialGradient><radialGradient cx="292331" cy="278477" r="403741" fx="292331" fy="278476" gradientUnits="userSpaceOnUse" spreadMethod="pad" id="fill5" gradientTransform="matrix(0.000360892 0 0 0.000360892 934 1492)"><stop offset="0" stop-color="#92D050"/><stop offset="0.54" stop-color="#09522C" stop-opacity="0"/><stop offset="1" stop-color="#09522C" stop-opacity="0"/></radialGradient><radialGradient cx="374072" cy="430876" r="570600" gradientUnits="userSpaceOnUse" spreadMethod="pad" id="fill6" gradientTransform="matrix(0.000360892 0 0 0.000360892 665 1208)"><stop offset="0" stop-color="#92D050"/><stop offset="0.54" stop-color="#09522C" stop-opacity="0"/><stop offset="1" stop-color="#09522C" stop-opacity="0"/></radialGradient><radialGradient cx="72043.5" cy="77585.5" r="105876" fx="72043.5" fy="77585.5" gradientUnits="userSpaceOnUse" spreadMethod="pad" id="fill7" gradientTransform="matrix(0.000360892 0 0 0.000360892 1079 1620)"><stop offset="0" stop-color="#92D050"/><stop offset="0.54" stop-color="#09522C" stop-opacity="0"/><stop offset="1" stop-color="#09522C" stop-opacity="0"/></radialGradient><radialGradient cx="77585.5" cy="84513" r="114726" fx="77585.5" fy="84513" gradientUnits="userSpaceOnUse" spreadMethod="pad" id="fill8" gradientTransform="matrix(0.000360892 0 0 0.000360892 1063 1537)"><stop offset="0" stop-color="#92D050"/><stop offset="0.54" stop-color="#09522C" stop-opacity="0"/><stop offset="1" stop-color="#09522C" stop-opacity="0"/></radialGradient><clipPath id="clip9"><path d="M659.385 1283.48 1095 1208.89 1169.58 1644.5 733.97 1719.09Z" fill-rule="evenodd" clip-rule="evenodd"/></clipPath><clipPath id="clip10"><path d="M659.385 1283.48 1095 1208.89 1169.58 1644.5 733.97 1719.09Z" fill-rule="evenodd" clip-rule="evenodd"/></clipPath><clipPath id="clip11"><path d="M659.385 1283.48 1095 1208.89 1169.58 1644.5 733.97 1719.09Z" fill-rule="evenodd" clip-rule="evenodd"/></clipPath></defs><g clip-path="url(#clip0)" transform="translate(-645 -1188)"><rect x="645" y="1188" width="550" height="550" fill="url(#fill1)"/><path d="M679.734 1193 1157.27 1193C1173.14 1193 1186 1212.99 1186 1237.66L1186 1348C1186 1309.58 1165.96 1278.43 1141.23 1278.43L695.767 1278.43C671.043 1278.43 651 1309.58 651 1348L651 1237.66C651 1212.99 663.865 1193 679.734 1193Z" fill="url(#fill2)" fill-rule="evenodd"/><path d="M684 1353C684 1332.57 699.222 1316 718 1316 736.778 1316 752 1332.57 752 1353 752 1373.43 736.778 1390 718 1390 699.222 1390 684 1373.43 684 1353Z" fill="url(#fill3)" fill-rule="evenodd"/><path d="M713 1404.5C713 1380.48 730.909 1361 753 1361 775.091 1361 793 1380.48 793 1404.5 793 1428.52 775.091 1448 753 1448 730.909 1448 713 1428.52 713 1404.5Z" fill="url(#fill4)" fill-rule="evenodd"/><path d="M934 1592.5C934 1537 981.234 1492 1039.5 1492 1097.77 1492 1145 1537 1145 1592.5 1145 1648 1097.77 1693 1039.5 1693 981.234 1693 934 1648 934 1592.5Z" fill="url(#fill5)" fill-rule="evenodd"/><path d="M665 1363.5C665 1277.62 725.442 1208 800 1208 874.558 1208 935 1277.62 935 1363.5 935 1449.38 874.558 1519 800 1519 725.442 1519 665 1449.38 665 1363.5Z" fill="url(#fill6)" fill-rule="evenodd"/><path d="M1079 1648C1079 1632.54 1090.64 1620 1105 1620 1119.36 1620 1131 1632.54 1131 1648 1131 1663.46 1119.36 1676 1105 1676 1090.64 1676 1079 1663.46 1079 1648Z" fill="url(#fill7)" fill-rule="evenodd"/><path d="M1063 1567.5C1063 1550.66 1075.54 1537 1091 1537 1106.46 1537 1119 1550.66 1119 1567.5 1119 1584.34 1106.46 1598 1091 1598 1075.54 1598 1063 1584.34 1063 1567.5Z" fill="url(#fill8)" fill-rule="evenodd"/><g clip-path="url(#clip9)"><g clip-path="url(#clip10)"><g clip-path="url(#clip11)"><path d="M1105.92 1521.22C1118 1591.78 1070.59 1658.78 1000.03 1670.86 929.469 1682.94 862.473 1635.53 850.391 1564.97 838.309 1494.41 885.717 1427.41 956.281 1415.33 1026.84 1403.25 1093.84 1450.66 1105.92 1521.22Z" stroke="#92D050" stroke-width="4.60365" fill="#0F1113"/><path d="M910.44 1396.1 993.112 1381.95 999.707 1420.47 917.035 1434.62Z" stroke="#92D050" stroke-width="4.60365" fill="#0F1113"/><path d="M849.448 1316.62 964.061 1296.99C971.868 1295.66 979.229 1300.86 980.566 1308.67L993.756 1385.71C995.092 1393.51 989.884 1400.87 982.077 1402.21L867.464 1421.83C859.657 1423.17 852.296 1417.96 850.959 1410.16L837.769 1333.12C836.432 1325.31 841.641 1317.95 849.448 1316.62Z" stroke="#92D050" stroke-width="4.60365" fill="#0F1113"/><path d="M999.725 1301.04C1001.36 1310.58 994.95 1319.64 985.411 1321.27 975.873 1322.9 966.815 1316.49 965.182 1306.95 963.549 1297.42 969.958 1288.36 979.497 1286.73 989.036 1285.09 998.092 1291.5 999.725 1301.04Z" stroke="#92D050" stroke-width="4.60365" fill="#0F1113"/><path d="M848.083 1395.72 820.918 1540.54 820.796 1541.34 820.856 1542.19 827.979 1659.92 828.063 1659.9 853.622 1667.52 856.091 1659.76 841.358 1655.38 834.479 1542.11 861.465 1398.26 848.083 1395.72Z" stroke="#92D050" stroke-width="4.60365" fill="#0F1113"/><path d="M820.768 1262.14C792.095 1267.05 772.77 1294.36 777.679 1323.03 782.588 1351.71 809.899 1371.03 838.572 1366.12 867.245 1361.21 886.57 1333.9 881.661 1305.23 876.752 1276.56 849.441 1257.23 820.768 1262.14ZM822.147 1270.19C846.469 1266.03 869.446 1282.29 873.611 1306.61 877.775 1330.93 861.516 1353.91 837.194 1358.07 812.871 1362.24 789.894 1345.98 785.73 1321.66 781.565 1297.33 797.824 1274.36 822.147 1270.19Z" stroke="#92D050" stroke-width="4.60365" fill="#0F1113"/></g></g></g></g></svg>