<svg width="550" height="550" xmlns="http://www.w3.org/2000/svg" xmlns:xlink="http://www.w3.org/1999/xlink" overflow="hidden"><defs><clipPath id="clip0"><rect x="1244" y="1188" width="550" height="550"/></clipPath><radialGradient cx="762000" cy="762000" r="1.07763e+06" gradientUnits="userSpaceOnUse" spreadMethod="pad" id="fill1" gradientTransform="matrix(0.000360892 0 0 0.000360892 1244 1188)"><stop offset="0" stop-color="#92D050"/><stop offset="0.17" stop-color="#92D050"/><stop offset="0.33" stop-color="#029C48"/><stop offset="1" stop-color="#0F1113"/></radialGradient><linearGradient x1="1517.5" y1="1193" x2="1517.5" y2="1348" gradientUnits="userSpaceOnUse" spreadMethod="reflect" id="fill2"><stop offset="0" stop-color="#F5FAFF" stop-opacity="0.231373"/><stop offset="0.32" stop-color="#FFFFFF" stop-opacity="0"/><stop offset="1" stop-color="#FFFFFF" stop-opacity="0"/></linearGradient><radialGradient cx="94211" cy="102524" r="139237" fx="94211" fy="102524" gradientUnits="userSpaceOnUse" spreadMethod="pad" id="fill3" gradientTransform="matrix(0.000360892 0 0 0.000360892 1283 1316)"><stop offset="0" stop-color="#92D050"/><stop offset="0.54" stop-color="#09522C" stop-opacity="0"/><stop offset="1" stop-color="#09522C" stop-opacity="0"/></radialGradient><radialGradient cx="112222" cy="120534" r="164688" gradientUnits="userSpaceOnUse" spreadMethod="pad" id="fill4" gradientTransform="matrix(0.000360892 0 0 0.000360892 1312 1361)"><stop offset="0" stop-color="#92D050"/><stop offset="0.54" stop-color="#09522C" stop-opacity="0"/><stop offset="1" stop-color="#09522C" stop-opacity="0"/></radialGradient><radialGradient cx="293716" cy="278476" r="404745" gradientUnits="userSpaceOnUse" spreadMethod="pad" id="fill5" gradientTransform="matrix(0.000360892 0 0 0.000360892 1533 1492)"><stop offset="0" stop-color="#92D050"/><stop offset="0.54" stop-color="#09522C" stop-opacity="0"/><stop offset="1" stop-color="#09522C" stop-opacity="0"/></radialGradient><radialGradient cx="374072" cy="430876" r="570600" gradientUnits="userSpaceOnUse" spreadMethod="pad" id="fill6" gradientTransform="matrix(0.000360892 0 0 0.000360892 1265 1208)"><stop offset="0" stop-color="#92D050"/><stop offset="0.54" stop-color="#09522C" stop-opacity="0"/><stop offset="1" stop-color="#09522C" stop-opacity="0"/></radialGradient><radialGradient cx="70658.5" cy="77585.5" r="104939" fx="70658.5" fy="77585.5" gradientUnits="userSpaceOnUse" spreadMethod="pad" id="fill7" gradientTransform="matrix(0.000360892 0 0 0.000360892 1679 1620)"><stop offset="0" stop-color="#92D050"/><stop offset="0.54" stop-color="#09522C" stop-opacity="0"/><stop offset="1" stop-color="#09522C" stop-opacity="0"/></radialGradient><radialGradient cx="77585.5" cy="84513" r="114726" fx="77585.5" fy="84513" gradientUnits="userSpaceOnUse" spreadMethod="pad" id="fill8" gradientTransform="matrix(0.000360892 0 0 0.000360892 1663 1537)"><stop offset="0" stop-color="#92D050"/><stop offset="0.54" stop-color="#09522C" stop-opacity="0"/><stop offset="1" stop-color="#09522C" stop-opacity="0"/></radialGradient><clipPath id="clip9"><path d="M1501.77 1205.06 1775.67 1439.15 1541.58 1713.05 1267.68 1478.96Z" fill-rule="evenodd" clip-rule="evenodd"/></clipPath><clipPath id="clip10"><path d="M1501.77 1205.06 1775.67 1439.15 1541.58 1713.05 1267.68 1478.96Z" fill-rule="evenodd" clip-rule="evenodd"/></clipPath><clipPath id="clip11"><path d="M1501.77 1205.06 1775.67 1439.15 1541.58 1713.05 1267.68 1478.96Z" fill-rule="evenodd" clip-rule="evenodd"/></clipPath></defs><g clip-path="url(#clip0)" transform="translate(-1244 -1188)"><rect x="1244" y="1188" width="550" height="550" fill="url(#fill1)"/><path d="M1278.73 1193 1756.27 1193C1772.14 1193 1785 1212.99 1785 1237.66L1785 1348C1785 1309.58 1764.96 1278.43 1740.23 1278.43L1294.77 1278.43C1270.04 1278.43 1250 1309.58 1250 1348L1250 1237.66C1250 1212.99 1262.86 1193 1278.73 1193Z" fill="url(#fill2)" fill-rule="evenodd"/><path d="M1283 1353C1283 1332.57 1298.22 1316 1317 1316 1335.78 1316 1351 1332.57 1351 1353 1351 1373.43 1335.78 1390 1317 1390 1298.22 1390 1283 1373.43 1283 1353Z" fill="url(#fill3)" fill-rule="evenodd"/><path d="M1312 1404.5C1312 1380.48 1330.13 1361 1352.5 1361 1374.87 1361 1393 1380.48 1393 1404.5 1393 1428.52 1374.87 1448 1352.5 1448 1330.13 1448 1312 1428.52 1312 1404.5Z" fill="url(#fill4)" fill-rule="evenodd"/><path d="M1533 1592.5C1533 1537 1580.46 1492 1639 1492 1697.54 1492 1745 1537 1745 1592.5 1745 1648 1697.54 1693 1639 1693 1580.46 1693 1533 1648 1533 1592.5Z" fill="url(#fill5)" fill-rule="evenodd"/><path d="M1265 1363.5C1265 1277.62 1325.44 1208 1400 1208 1474.56 1208 1535 1277.62 1535 1363.5 1535 1449.38 1474.56 1519 1400 1519 1325.44 1519 1265 1449.38 1265 1363.5Z" fill="url(#fill6)" fill-rule="evenodd"/><path d="M1679 1648C1679 1632.54 1690.42 1620 1704.5 1620 1718.58 1620 1730 1632.54 1730 1648 1730 1663.46 1718.58 1676 1704.5 1676 1690.42 1676 1679 1663.46 1679 1648Z" fill="url(#fill7)" fill-rule="evenodd"/><path d="M1663 1567.5C1663 1550.66 1675.54 1537 1691 1537 1706.46 1537 1719 1550.66 1719 1567.5 1719 1584.34 1706.46 1598 1691 1598 1675.54 1598 1663 1584.34 1663 1567.5Z" fill="url(#fill8)" fill-rule="evenodd"/><g clip-path="url(#clip9)"><g clip-path="url(#clip10)"><g clip-path="url(#clip11)"><path d="M1456.51 1582.99 1448.55 1592.3 1440.31 1591.42 1437.03 1595.25C1437.03 1595.25 1433.44 1598.34 1419.19 1586.17 1404.95 1574 1407.45 1569.97 1407.45 1569.97L1410.49 1566.41 1408.56 1558.13 1416.52 1548.81 1424.54 1549.98 1430.15 1543.4 1429.13 1540.16 1454.88 1510.03 1457.35 1512.14 1494.34 1468.86 1492.14 1466.99 1492.61 1466.44 1494.96 1467.02 1497.3 1464.28 1502.38 1463.89 1501 1459.39 1503.81 1456.11 1508.7 1456.49 1507.09 1452.27 1509.67 1449.26 1514.28 1449.41 1512.94 1445.43 1515.52 1442.41 1520.4 1442.8 1519.03 1438.3 1521.37 1435.56 1525.98 1435.71 1524.88 1431.46 1527.46 1428.44 1531.83 1428.87 1531.32 1425.58 1534.13 1422.3 1538.78 1422.96 1537.64 1418.19 1539.75 1415.72 1544.4 1416.38 1543.22 1411.11 1545.56 1408.37 1550.72 1408.99 1549.03 1403.75 1550.91 1401.56C1553.48 1398.55 1562.63 1404.48 1562.63 1404.48L1570.83 1394.89C1570.83 1394.89 1569.46 1393.72 1568.91 1393.25 1568.36 1392.78 1568.79 1391.73 1568.79 1391.73L1569.96 1390.36 1566.05 1386.06C1566.05 1386.06 1565.69 1384.81 1566.63 1383.72 1567.57 1382.62 1568.35 1382.82 1568.35 1382.82L1570.19 1383.44C1570.19 1383.44 1574.4 1378.51 1575.57 1377.14 1576.74 1375.77 1578.62 1376.9 1578.62 1376.9L1584.02 1380.57 1594.78 1367.97C1594.78 1367.97 1594.51 1367.73 1593.41 1366.8 1592.32 1365.86 1593.26 1364.76 1593.26 1364.76L1595.13 1362.57C1595.13 1362.57 1594.03 1361.64 1592.39 1360.23 1590.75 1358.83 1591.6 1356.72 1591.6 1356.72L1599.33 1347.68C1598.19 1346.23 1598.42 1342.64 1598.42 1342.64L1601 1339.62C1598.76 1333.92 1600.52 1333.53 1600.52 1333.53 1600.52 1333.53 1601.73 1332.67 1604.58 1333.21 1607.44 1333.75 1617.18 1340.66 1617.18 1340.66L1621.62 1335.45C1623.15 1335.33 1627.18 1337.83 1629.33 1339.19L1629.33 1339.19C1629.33 1339.19 1629.6 1339.43 1629.88 1339.66 1630.15 1339.9 1630.42 1340.13 1630.42 1340.13L1630.42 1340.13C1632.11 1342.04 1635.2 1345.63 1635.32 1347.16L1631.11 1352.09C1631.11 1352.09 1639.68 1360.36 1640.42 1363.37 1641.4 1366.1 1640.74 1367.43 1640.74 1367.43 1640.74 1367.43 1640.39 1369.5 1634.65 1367.91L1632.07 1370.92C1632.07 1370.92 1628.56 1371.71 1626.95 1370.81L1619.23 1379.85C1619.23 1379.85 1617.27 1381.03 1615.63 1379.62 1613.99 1378.22 1612.89 1377.28 1612.89 1377.28L1611.02 1379.47C1611.02 1379.47 1610.08 1380.57 1608.99 1379.63 1607.89 1378.7 1607.62 1378.46 1607.62 1378.46L1596.85 1391.06 1601.31 1395.82C1601.31 1395.82 1602.72 1397.5 1601.55 1398.87 1600.38 1400.24 1596.17 1405.17 1596.17 1405.17L1597.07 1406.89C1597.07 1406.89 1597.38 1407.63 1596.44 1408.73 1595.51 1409.82 1594.22 1409.67 1594.22 1409.67L1589.37 1406.47 1588.2 1407.84C1588.2 1407.84 1587.5 1408.66 1586.67 1407.96 1585.85 1407.26 1584.76 1406.32 1584.76 1406.32L1576.56 1415.91C1576.56 1415.91 1584.08 1423.75 1581.27 1427.04L1579.4 1429.23 1573.96 1428.38 1575.38 1433.38 1573.04 1436.12 1568.15 1435.73 1569.52 1440.22 1567.42 1442.69 1562.3 1442.58 1563.67 1447.07 1560.86 1450.36 1556.76 1450.17 1557.86 1454.43 1555.28 1457.44 1550.91 1457.02 1551.77 1461.55 1549.43 1464.29 1544.78 1463.63 1545.92 1468.4 1543.35 1471.41 1539.2 1470.71 1540.07 1475.24 1537.49 1478.26 1533.08 1477.33 1534.22 1482.09 1531.41 1485.38 1526.76 1484.72 1527.15 1489.8 1524.81 1492.54 1525.75 1494.77 1463.33 1568.91 1459.97 1568.41 1454.35 1574.98 1456.51 1582.99ZM1444.24 1498.09 1443.97 1501.18 1446.43 1503.28 1462.12 1484.93 1465.16 1484.69 1483.66 1463.05 1479.08 1456.77 1443.96 1497.85ZM1485.03 1464.22 1467.24 1485.04 1471.07 1488.32 1454.45 1507.76 1457.19 1510.11 1491.6 1469.84 1485.03 1464.22ZM1447.8 1504.45 1452.18 1508.2 1468.57 1489.02 1465.56 1486.45 1462.78 1486.92 1447.8 1504.45Z" stroke="#92D050" stroke-width="4.6193" fill="#0F1113"/></g></g></g></g></svg>