<svg width="550" height="550" xmlns="http://www.w3.org/2000/svg" xmlns:xlink="http://www.w3.org/1999/xlink" overflow="hidden"><defs><clipPath id="clip0"><rect x="31" y="1188" width="550" height="550"/></clipPath><radialGradient cx="762000" cy="762000" r="1.07763e+06" gradientUnits="userSpaceOnUse" spreadMethod="pad" id="fill1" gradientTransform="matrix(0.000360892 0 0 0.000360892 30.9999 1188)"><stop offset="0" stop-color="#92D050"/><stop offset="0.17" stop-color="#92D050"/><stop offset="0.33" stop-color="#029C48"/><stop offset="1" stop-color="#0F1113"/></radialGradient><linearGradient x1="304.5" y1="1193" x2="304.5" y2="1348" gradientUnits="userSpaceOnUse" spreadMethod="reflect" id="fill2"><stop offset="0" stop-color="#F5FAFF" stop-opacity="0.231373"/><stop offset="0.32" stop-color="#FFFFFF" stop-opacity="0"/><stop offset="1" stop-color="#FFFFFF" stop-opacity="0"/></linearGradient><radialGradient cx="94210.5" cy="102524" r="139236" gradientUnits="userSpaceOnUse" spreadMethod="pad" id="fill3" gradientTransform="matrix(0.000360892 0 0 0.000360892 70.0001 1316)"><stop offset="0" stop-color="#92D050"/><stop offset="0.54" stop-color="#09522C" stop-opacity="0"/><stop offset="1" stop-color="#09522C" stop-opacity="0"/></radialGradient><radialGradient cx="112222" cy="120534" r="164689" gradientUnits="userSpaceOnUse" spreadMethod="pad" id="fill4" gradientTransform="matrix(0.000360892 0 0 0.000360892 99 1361)"><stop offset="0" stop-color="#92D050"/><stop offset="0.54" stop-color="#09522C" stop-opacity="0"/><stop offset="1" stop-color="#09522C" stop-opacity="0"/></radialGradient><radialGradient cx="293717" cy="278477" r="404745" fx="293716" fy="278476" gradientUnits="userSpaceOnUse" spreadMethod="pad" id="fill5" gradientTransform="matrix(0.000360892 0 0 0.000360892 320 1492)"><stop offset="0" stop-color="#92D050"/><stop offset="0.54" stop-color="#09522C" stop-opacity="0"/><stop offset="1" stop-color="#09522C" stop-opacity="0"/></radialGradient><radialGradient cx="374073" cy="430876" r="570601" fx="374073" fy="430876" gradientUnits="userSpaceOnUse" spreadMethod="pad" id="fill6" gradientTransform="matrix(0.000360892 0 0 0.000360892 51.9999 1208)"><stop offset="0" stop-color="#92D050"/><stop offset="0.54" stop-color="#09522C" stop-opacity="0"/><stop offset="1" stop-color="#09522C" stop-opacity="0"/></radialGradient><radialGradient cx="72043.5" cy="77585.5" r="105876" fx="72043.5" fy="77585.5" gradientUnits="userSpaceOnUse" spreadMethod="pad" id="fill7" gradientTransform="matrix(0.000360892 0 0 0.000360892 466 1620)"><stop offset="0" stop-color="#92D050"/><stop offset="0.54" stop-color="#09522C" stop-opacity="0"/><stop offset="1" stop-color="#09522C" stop-opacity="0"/></radialGradient><radialGradient cx="77585.5" cy="84513" r="114726" fx="77585.5" fy="84513" gradientUnits="userSpaceOnUse" spreadMethod="pad" id="fill8" gradientTransform="matrix(0.000360892 0 0 0.000360892 450 1537)"><stop offset="0" stop-color="#92D050"/><stop offset="0.54" stop-color="#09522C" stop-opacity="0"/><stop offset="1" stop-color="#09522C" stop-opacity="0"/></radialGradient><clipPath id="clip9"><rect x="94" y="1254" width="447" height="445"/></clipPath><clipPath id="clip10"><rect x="94" y="1254" width="447" height="445"/></clipPath><clipPath id="clip11"><rect x="94" y="1254" width="447" height="445"/></clipPath></defs><g clip-path="url(#clip0)" transform="translate(-31 -1188)"><rect x="30.9999" y="1188" width="550" height="550" fill="url(#fill1)"/><path d="M65.7338 1193 543.266 1193C559.136 1193 572 1212.99 572 1237.66L572 1348C572 1309.58 551.957 1278.43 527.233 1278.43L81.7669 1278.43C57.0429 1278.43 37.0001 1309.58 37.0001 1348L37.0001 1237.66C37.0001 1212.99 49.8646 1193 65.7338 1193Z" fill="url(#fill2)" fill-rule="evenodd"/><path d="M70.0001 1353C70.0001 1332.57 85.2224 1316 104 1316 122.778 1316 138 1332.57 138 1353 138 1373.43 122.778 1390 104 1390 85.2224 1390 70.0001 1373.43 70.0001 1353Z" fill="url(#fill3)" fill-rule="evenodd"/><path d="M99 1404.5C99 1380.48 117.132 1361 139.5 1361 161.868 1361 180 1380.48 180 1404.5 180 1428.52 161.868 1448 139.5 1448 117.132 1448 99 1428.52 99 1404.5Z" fill="url(#fill4)" fill-rule="evenodd"/><path d="M320 1592.5C320 1537 367.458 1492 426 1492 484.542 1492 532 1537 532 1592.5 532 1648 484.542 1693 426 1693 367.458 1693 320 1648 320 1592.5Z" fill="url(#fill5)" fill-rule="evenodd"/><path d="M51.9999 1363.5C51.9999 1277.62 112.441 1208 187 1208 261.558 1208 322 1277.62 322 1363.5 322 1449.38 261.558 1519 187 1519 112.441 1519 51.9999 1449.38 51.9999 1363.5Z" fill="url(#fill6)" fill-rule="evenodd"/><path d="M466 1648C466 1632.54 477.641 1620 492 1620 506.359 1620 518 1632.54 518 1648 518 1663.46 506.359 1676 492 1676 477.641 1676 466 1663.46 466 1648Z" fill="url(#fill7)" fill-rule="evenodd"/><path d="M450 1567.5C450 1550.66 462.536 1537 478 1537 493.464 1537 506 1550.66 506 1567.5 506 1584.34 493.464 1598 478 1598 462.536 1598 450 1584.34 450 1567.5Z" fill="url(#fill8)" fill-rule="evenodd"/><g clip-path="url(#clip9)"><g clip-path="url(#clip10)"><g clip-path="url(#clip11)"><path d="M64.824 225.108 82.14 221.112C84.36 220.668 86.136 218.892 87.024 216.672L127.428 87.024C128.316 84.36 130.536 82.584 133.2 82.584L190.92 79.92 190.92 94.572 190.032 94.572C185.592 94.572 182.04 98.124 182.04 102.564L182.04 114.552C160.284 115.44 142.524 133.2 142.524 154.956L142.524 383.172 117.216 402.708C115.884 403.596 114.996 405.372 114.996 407.148L114.996 424.02 142.524 424.02 145.188 424.02 266.4 424.02 269.064 424.02 296.592 424.02 296.592 407.148C296.592 405.372 295.704 404.04 294.372 402.708L269.064 383.172 269.064 154.956C269.064 132.756 251.748 114.996 229.548 114.552L229.548 102.12C229.548 97.68 225.996 94.128 221.556 94.128L220.668 94.128 220.668 49.728 253.524 49.728 253.524 52.392C253.524 57.72 257.52 61.716 262.848 61.716L335.22 61.716 335.22 19.98 263.292 19.98C257.964 19.98 253.968 23.976 253.968 29.304L253.968 31.524 221.112 31.524 221.112 25.752C221.112 22.644 218.448 19.98 215.34 19.98L196.692 19.98C193.584 19.98 190.92 22.644 190.92 25.752L190.92 34.188 109.224 48.84C106.56 49.284 104.784 51.06 103.896 53.724L56.388 216.228C55.056 221.556 59.496 225.996 64.824 225.108ZM316.128 31.524C316.128 27.972 318.792 25.308 322.344 25.308 325.896 25.308 328.56 27.972 328.56 31.524 328.56 35.076 325.896 37.74 322.344 37.74 318.792 37.74 316.128 35.076 316.128 31.524ZM301.476 46.62C301.476 43.068 304.14 40.404 307.692 40.404 311.244 40.404 313.908 43.068 313.908 46.62 313.908 50.172 311.244 52.836 307.692 52.836 304.14 52.836 301.476 49.728 301.476 46.62ZM289.044 31.524C289.044 27.972 291.708 25.308 295.26 25.308 298.812 25.308 301.476 27.972 301.476 31.524 301.476 35.076 298.812 37.74 295.26 37.74 291.708 37.74 289.044 35.076 289.044 31.524ZM274.392 46.62C274.392 43.068 277.056 40.404 280.608 40.404 284.16 40.404 286.824 43.068 286.824 46.62 286.824 50.172 284.16 52.836 280.608 52.836 277.056 52.836 274.392 49.728 274.392 46.62Z" stroke="#92D050" stroke-width="4.58914" fill="#0F1113" transform="matrix(1.00225 0 0 1 94.9999 1254)"/><path d="M343.212 51.948C364.08 75.48 420.024 41.292 420.024 41.292 420.024 41.292 364.08 7.104 343.212 30.636 337.884 36.852 337.884 46.176 343.212 51.948ZM340.992 45.732C338.772 43.068 338.772 39.072 340.992 36.408 349.872 26.196 374.292 40.848 374.292 40.848 374.292 40.848 349.872 56.388 340.992 45.732Z" stroke="#92D050" stroke-width="4.58914" fill="#0F1113" transform="matrix(1.00225 0 0 1 94.9999 1254)"/></g></g></g></g></svg>