<svg width="550" height="550" xmlns="http://www.w3.org/2000/svg" xmlns:xlink="http://www.w3.org/1999/xlink" overflow="hidden"><defs><clipPath id="clip0"><rect x="1248" y="612" width="550" height="550"/></clipPath><radialGradient cx="762000" cy="762000" r="1.07763e+06" gradientUnits="userSpaceOnUse" spreadMethod="pad" id="fill1" gradientTransform="matrix(0.000360892 0 0 0.000360892 1248 612)"><stop offset="0" stop-color="#92D050"/><stop offset="0.17" stop-color="#92D050"/><stop offset="0.33" stop-color="#029C48"/><stop offset="1" stop-color="#0F1113"/></radialGradient><linearGradient x1="1521.5" y1="617" x2="1521.5" y2="772" gradientUnits="userSpaceOnUse" spreadMethod="reflect" id="fill2"><stop offset="0" stop-color="#F5FAFF" stop-opacity="0.231373"/><stop offset="0.32" stop-color="#FFFFFF" stop-opacity="0"/><stop offset="1" stop-color="#FFFFFF" stop-opacity="0"/></linearGradient><radialGradient cx="94211" cy="102524" r="139236" gradientUnits="userSpaceOnUse" spreadMethod="pad" id="fill3" gradientTransform="matrix(0.000360892 0 0 0.000360892 1287 740)"><stop offset="0" stop-color="#92D050"/><stop offset="0.54" stop-color="#09522C" stop-opacity="0"/><stop offset="1" stop-color="#09522C" stop-opacity="0"/></radialGradient><radialGradient cx="110836" cy="120534" r="163748" gradientUnits="userSpaceOnUse" spreadMethod="pad" id="fill4" gradientTransform="matrix(0.000360892 0 0 0.000360892 1316 785)"><stop offset="0" stop-color="#92D050"/><stop offset="0.54" stop-color="#09522C" stop-opacity="0"/><stop offset="1" stop-color="#09522C" stop-opacity="0"/></radialGradient><radialGradient cx="292331" cy="278476" r="403740" gradientUnits="userSpaceOnUse" spreadMethod="pad" id="fill5" gradientTransform="matrix(0.000360892 0 0 0.000360892 1537 916)"><stop offset="0" stop-color="#92D050"/><stop offset="0.54" stop-color="#09522C" stop-opacity="0"/><stop offset="1" stop-color="#09522C" stop-opacity="0"/></radialGradient><radialGradient cx="374072" cy="430876" r="570600" gradientUnits="userSpaceOnUse" spreadMethod="pad" id="fill6" gradientTransform="matrix(0.000360892 0 0 0.000360892 1268 632)"><stop offset="0" stop-color="#92D050"/><stop offset="0.54" stop-color="#09522C" stop-opacity="0"/><stop offset="1" stop-color="#09522C" stop-opacity="0"/></radialGradient><radialGradient cx="72043.5" cy="77585.5" r="105876" fx="72043.5" fy="77585.5" gradientUnits="userSpaceOnUse" spreadMethod="pad" id="fill7" gradientTransform="matrix(0.000360892 0 0 0.000360892 1682 1044)"><stop offset="0" stop-color="#92D050"/><stop offset="0.54" stop-color="#09522C" stop-opacity="0"/><stop offset="1" stop-color="#09522C" stop-opacity="0"/></radialGradient><radialGradient cx="77585" cy="84512.5" r="114725" fx="77585" fy="84512.5" gradientUnits="userSpaceOnUse" spreadMethod="pad" id="fill8" gradientTransform="matrix(0.000360892 0 0 0.000360892 1666 961)"><stop offset="0" stop-color="#92D050"/><stop offset="0.54" stop-color="#09522C" stop-opacity="0"/><stop offset="1" stop-color="#09522C" stop-opacity="0"/></radialGradient><clipPath id="clip9"><rect x="1294" y="654" width="480" height="481"/></clipPath><clipPath id="clip10"><rect x="1294" y="654" width="480" height="481"/></clipPath><clipPath id="clip11"><rect x="1294" y="654" width="480" height="481"/></clipPath></defs><g clip-path="url(#clip0)" transform="translate(-1248 -612)"><rect x="1248" y="612" width="550" height="550" fill="url(#fill1)"/><path d="M1282.73 617 1760.27 617C1776.14 617 1789 636.993 1789 661.656L1789 772C1789 733.576 1768.96 702.427 1744.23 702.427L1298.77 702.427C1274.04 702.427 1254 733.576 1254 772L1254 661.656C1254 636.993 1266.86 617 1282.73 617Z" fill="url(#fill2)" fill-rule="evenodd"/><path d="M1287 777C1287 756.566 1302.22 740 1321 740 1339.78 740 1355 756.566 1355 777 1355 797.435 1339.78 814 1321 814 1302.22 814 1287 797.435 1287 777Z" fill="url(#fill3)" fill-rule="evenodd"/><path d="M1316 828.5C1316 804.476 1333.91 785 1356 785 1378.09 785 1396 804.476 1396 828.5 1396 852.524 1378.09 872 1356 872 1333.91 872 1316 852.524 1316 828.5Z" fill="url(#fill4)" fill-rule="evenodd"/><path d="M1537 1016.5C1537 960.995 1584.23 916 1642.5 916 1700.77 916 1748 960.995 1748 1016.5 1748 1072 1700.77 1117 1642.5 1117 1584.23 1117 1537 1072 1537 1016.5Z" fill="url(#fill5)" fill-rule="evenodd"/><path d="M1268 787.5C1268 701.62 1328.44 632 1403 632 1477.56 632 1538 701.62 1538 787.5 1538 873.38 1477.56 943 1403 943 1328.44 943 1268 873.38 1268 787.5Z" fill="url(#fill6)" fill-rule="evenodd"/><path d="M1682 1072C1682 1056.54 1693.64 1044 1708 1044 1722.36 1044 1734 1056.54 1734 1072 1734 1087.46 1722.36 1100 1708 1100 1693.64 1100 1682 1087.46 1682 1072Z" fill="url(#fill7)" fill-rule="evenodd"/><path d="M1666 991.5C1666 974.655 1678.54 961 1694 961 1709.46 961 1722 974.655 1722 991.5 1722 1008.34 1709.46 1022 1694 1022 1678.54 1022 1666 1008.34 1666 991.5Z" fill="url(#fill8)" fill-rule="evenodd"/><g clip-path="url(#clip9)"><g clip-path="url(#clip10)"><g clip-path="url(#clip11)"><path d="M234.366 172.172 258.243 172.172C258.243 172.172 261.42 179.343 267.907 179.343L286.987 179.343 286.987 179.355 301.338 179.355C301.338 178.033 302.367 176.96 303.761 176.96L314.138 176.96 315.689 172.172 373.094 172.172 375.852 179.598 431.923 174.933C431.923 174.933 434.98 179.388 434.98 193.72 434.98 208.052 431.923 211.574 431.923 211.574L375.852 207.399 373.094 215.268 315.689 215.268 313.292 208.085 286.987 208.085 286.987 215.059 277.419 224.845 282.203 224.845 282.203 253.575 286.987 253.575 286.987 282.305 282.203 282.305 282.203 284.699 282.203 291.882 220.014 291.882 220.014 287.094 196.096 287.094C183.803 287.094 171.541 278.691 167.27 271.156 162.999 263.621 160.238 258.363 153.042 258.363 148.452 258.363 144.356 260.529 141.727 263.898L131.876 325.931C129.81 338.948 117.772 346.756 104.992 343.37L94.7803 340.665C81.9995 337.279 76.0192 324.744 81.3862 312.749L105.531 258.79C102.33 254.718 100.421 249.581 100.421 243.998 100.421 238.608 102.2 233.634 105.203 229.633L100.421 229.633C97.7792 229.633 95.6373 227.489 95.6373 224.845 95.6373 222.2 97.7792 220.056 100.421 220.056L109.989 220.056 109.989 186.537C104.704 186.537 100.421 182.25 100.421 176.96 100.421 171.671 104.704 167.384 109.989 167.384L124.345 167.384C126.984 167.384 129.124 169.507 129.124 172.118L129.124 172.172 129.285 172.172 133.88 176.939 138.691 172.238 138.691 160.201 122.102 160.201 80.7376 167.384 52.5896 167.384C49.9443 167.384 47.8 165.247 47.8 162.607L47.8 129.065C47.8 126.427 49.9611 124.289 52.5896 124.289L80.7376 124.289 122.102 131.471 139.187 131.471C139.925 129.636 141.415 127.988 143.152 127.294L141.776 127.844C146.69 125.88 154.647 125.883 159.598 127.868L158.165 127.294C159.89 127.986 161.385 129.621 162.122 131.471L196.595 131.471C197.338 129.636 198.837 127.988 200.585 127.294L199.263 127.819C204.172 125.869 212.168 125.91 217.021 127.868L215.597 127.294C217.311 127.986 218.798 129.621 219.53 131.471L234.366 131.471 234.366 129.077 230.774 129.077C230.115 129.077 229.582 128.562 229.582 127.902L229.582 120.674C229.582 120.026 230.163 119.5 230.774 119.5L261.876 119.5C262.534 119.5 263.068 120.015 263.068 120.674L263.068 127.902C263.068 128.551 262.487 129.077 261.876 129.077L258.285 129.077 258.285 131.471 330.083 131.471C332.701 131.471 334.824 133.63 334.824 136.215L334.824 155.457C334.824 158.077 332.719 160.201 330.083 160.201L253.501 160.201 253.501 167.384 234.366 167.384 234.366 172.172ZM175.905 254.017 176.191 254.303C176.234 254.102 176.278 253.903 176.323 253.706 176.182 253.808 176.042 253.912 175.905 254.017ZM169.979 261.635C169.532 262.89 169.289 264.199 169.289 265.546 169.289 274.802 182.745 282.305 193.313 282.305 203.881 282.305 212.022 274.802 212.022 265.546 212.022 256.29 201.88 248.786 191.312 248.786 189.315 248.786 187.286 249.054 185.309 249.551 186.855 250.638 188.504 251.666 190.007 252.336 182.239 253.389 179.585 265.094 182.625 271.254 183.994 274.027 183.045 274.061 181.675 273.388 176.841 271.012 175.361 266.242 175.372 261.264L172.49 264.146 169.979 261.635ZM380.27 186.537C381.591 186.537 382.662 185.465 382.662 184.143 382.662 182.821 381.591 181.749 380.27 181.749 378.949 181.749 377.878 182.821 377.878 184.143 377.878 185.465 378.949 186.537 380.27 186.537ZM389.204 186.244C390.525 186.244 391.596 185.172 391.596 183.85 391.596 182.527 390.525 181.456 389.204 181.456 387.883 181.456 386.813 182.527 386.813 183.85 386.813 185.172 387.883 186.244 389.204 186.244ZM398.726 185.734C400.047 185.734 401.118 184.662 401.118 183.339 401.118 182.017 400.047 180.946 398.726 180.946 397.405 180.946 396.334 182.017 396.334 183.339 396.334 184.662 397.405 185.734 398.726 185.734ZM408.186 185.009C409.508 185.009 410.578 183.938 410.578 182.616 410.578 181.293 409.508 180.221 408.186 180.221 406.865 180.221 405.794 181.293 405.794 182.616 405.794 183.938 406.865 185.009 408.186 185.009ZM417.808 184.207C419.13 184.207 420.2 183.136 420.2 181.814 420.2 180.491 419.13 179.419 417.808 179.419 416.488 179.419 415.417 180.491 415.417 181.814 415.417 183.136 416.488 184.207 417.808 184.207ZM426.775 183.622C428.096 183.622 429.167 182.55 429.167 181.228 429.167 179.905 428.096 178.833 426.775 178.833 425.454 178.833 424.383 179.905 424.383 181.228 424.383 182.55 425.454 183.622 426.775 183.622ZM380.27 196.114C381.591 196.114 382.662 195.042 382.662 193.72 382.662 192.397 381.591 191.326 380.27 191.326 378.949 191.326 377.878 192.397 377.878 193.72 377.878 195.042 378.949 196.114 380.27 196.114ZM389.837 196.114C391.158 196.114 392.229 195.042 392.229 193.72 392.229 192.397 391.158 191.326 389.837 191.326 388.516 191.326 387.445 192.397 387.445 193.72 387.445 195.042 388.516 196.114 389.837 196.114ZM399.405 196.114C400.726 196.114 401.796 195.042 401.796 193.72 401.796 192.397 400.726 191.326 399.405 191.326 398.084 191.326 397.013 192.397 397.013 193.72 397.013 195.042 398.084 196.114 399.405 196.114ZM408.972 196.114C410.293 196.114 411.364 195.042 411.364 193.72 411.364 192.397 410.293 191.326 408.972 191.326 407.651 191.326 406.58 192.397 406.58 193.72 406.58 195.042 407.651 196.114 408.972 196.114ZM418.54 196.114C419.861 196.114 420.932 195.042 420.932 193.72 420.932 192.397 419.861 191.326 418.54 191.326 417.219 191.326 416.148 192.397 416.148 193.72 416.148 195.042 417.219 196.114 418.54 196.114ZM428.107 196.114C429.428 196.114 430.499 195.042 430.499 193.72 430.499 192.397 429.428 191.326 428.107 191.326 426.786 191.326 425.715 192.397 425.715 193.72 425.715 195.042 426.786 196.114 428.107 196.114ZM380.27 205.691C381.591 205.691 382.662 204.619 382.662 203.297 382.662 201.975 381.591 200.903 380.27 200.903 378.949 200.903 377.878 201.975 377.878 203.297 377.878 204.619 378.949 205.691 380.27 205.691ZM389.106 206.286C390.427 206.286 391.498 205.215 391.498 203.892 391.498 202.57 390.427 201.498 389.106 201.498 387.785 201.498 386.714 202.57 386.714 203.892 386.714 205.215 387.785 206.286 389.106 206.286ZM398.083 206.984C399.404 206.984 400.475 205.911 400.475 204.589 400.475 203.267 399.404 202.195 398.083 202.195 396.762 202.195 395.691 203.267 395.691 204.589 395.691 205.911 396.762 206.984 398.083 206.984ZM407.787 207.864C409.107 207.864 410.179 206.791 410.179 205.469 410.179 204.147 409.107 203.075 407.787 203.075 406.466 203.075 405.395 204.147 405.395 205.469 405.395 206.791 406.466 207.864 407.787 207.864ZM417.46 208.749C418.781 208.749 419.851 207.677 419.851 206.355 419.851 205.032 418.781 203.961 417.46 203.961 416.139 203.961 415.068 205.032 415.068 206.355 415.068 207.677 416.139 208.749 417.46 208.749ZM426.75 209.668C428.071 209.668 429.141 208.596 429.141 207.273 429.141 205.951 428.071 204.879 426.75 204.879 425.429 204.879 424.358 205.951 424.358 207.273 424.358 208.596 425.429 209.668 426.75 209.668Z" stroke="#92D050" stroke-width="4.58514" fill="#0F1113" fill-rule="evenodd" transform="matrix(1 0 0 1.00209 1295 655)"/></g></g></g></g></svg>