<svg width="550" height="550" xmlns="http://www.w3.org/2000/svg" xmlns:xlink="http://www.w3.org/1999/xlink" overflow="hidden"><defs><clipPath id="clip0"><rect x="1837" y="612" width="550" height="550"/></clipPath><radialGradient cx="762000" cy="762000" r="1.07763e+06" gradientUnits="userSpaceOnUse" spreadMethod="pad" id="fill1" gradientTransform="matrix(0.000360892 0 0 0.000360892 1837 612)"><stop offset="0" stop-color="#92D050"/><stop offset="0.17" stop-color="#92D050"/><stop offset="0.33" stop-color="#029C48"/><stop offset="1" stop-color="#0F1113"/></radialGradient><linearGradient x1="2110.5" y1="617" x2="2110.5" y2="772" gradientUnits="userSpaceOnUse" spreadMethod="reflect" id="fill2"><stop offset="0" stop-color="#F5FAFF" stop-opacity="0.231373"/><stop offset="0.32" stop-color="#FFFFFF" stop-opacity="0"/><stop offset="1" stop-color="#FFFFFF" stop-opacity="0"/></linearGradient><radialGradient cx="94211" cy="102524" r="139236" gradientUnits="userSpaceOnUse" spreadMethod="pad" id="fill3" gradientTransform="matrix(0.000360892 0 0 0.000360892 1876 740)"><stop offset="0" stop-color="#92D050"/><stop offset="0.54" stop-color="#09522C" stop-opacity="0"/><stop offset="1" stop-color="#09522C" stop-opacity="0"/></radialGradient><radialGradient cx="110836" cy="120534" r="163748" gradientUnits="userSpaceOnUse" spreadMethod="pad" id="fill4" gradientTransform="matrix(0.000360892 0 0 0.000360892 1905 785)"><stop offset="0" stop-color="#92D050"/><stop offset="0.54" stop-color="#09522C" stop-opacity="0"/><stop offset="1" stop-color="#09522C" stop-opacity="0"/></radialGradient><radialGradient cx="292331" cy="278476" r="403740" gradientUnits="userSpaceOnUse" spreadMethod="pad" id="fill5" gradientTransform="matrix(0.000360892 0 0 0.000360892 2126 916)"><stop offset="0" stop-color="#92D050"/><stop offset="0.54" stop-color="#09522C" stop-opacity="0"/><stop offset="1" stop-color="#09522C" stop-opacity="0"/></radialGradient><radialGradient cx="374073" cy="430876" r="570600" fx="374073" fy="430876" gradientUnits="userSpaceOnUse" spreadMethod="pad" id="fill6" gradientTransform="matrix(0.000360892 0 0 0.000360892 1857 632)"><stop offset="0" stop-color="#92D050"/><stop offset="0.54" stop-color="#09522C" stop-opacity="0"/><stop offset="1" stop-color="#09522C" stop-opacity="0"/></radialGradient><radialGradient cx="72043.5" cy="77585.5" r="105876" fx="72043.5" fy="77585.5" gradientUnits="userSpaceOnUse" spreadMethod="pad" id="fill7" gradientTransform="matrix(0.000360892 0 0 0.000360892 2271 1044)"><stop offset="0" stop-color="#92D050"/><stop offset="0.54" stop-color="#09522C" stop-opacity="0"/><stop offset="1" stop-color="#09522C" stop-opacity="0"/></radialGradient><radialGradient cx="77585.5" cy="84512.5" r="114725" gradientUnits="userSpaceOnUse" spreadMethod="pad" id="fill8" gradientTransform="matrix(0.000360892 0 0 0.000360892 2255 961)"><stop offset="0" stop-color="#92D050"/><stop offset="0.54" stop-color="#09522C" stop-opacity="0"/><stop offset="1" stop-color="#09522C" stop-opacity="0"/></radialGradient><clipPath id="clip9"><rect x="1886" y="667" width="445" height="446"/></clipPath><clipPath id="clip10"><rect x="1886" y="667" width="445" height="446"/></clipPath><clipPath id="clip11"><rect x="1886" y="667" width="445" height="446"/></clipPath></defs><g clip-path="url(#clip0)" transform="translate(-1837 -612)"><rect x="1837" y="612" width="550" height="550" fill="url(#fill1)"/><path d="M1871.73 617 2349.27 617C2365.14 617 2378 636.993 2378 661.656L2378 772C2378 733.576 2357.96 702.427 2333.23 702.427L1887.77 702.427C1863.04 702.427 1843 733.576 1843 772L1843 661.656C1843 636.993 1855.86 617 1871.73 617Z" fill="url(#fill2)" fill-rule="evenodd"/><path d="M1876 777C1876 756.566 1891.22 740 1910 740 1928.78 740 1944 756.566 1944 777 1944 797.435 1928.78 814 1910 814 1891.22 814 1876 797.435 1876 777Z" fill="url(#fill3)" fill-rule="evenodd"/><path d="M1905 828.5C1905 804.476 1922.91 785 1945 785 1967.09 785 1985 804.476 1985 828.5 1985 852.524 1967.09 872 1945 872 1922.91 872 1905 852.524 1905 828.5Z" fill="url(#fill4)" fill-rule="evenodd"/><path d="M2126 1016.5C2126 960.995 2173.23 916 2231.5 916 2289.77 916 2337 960.995 2337 1016.5 2337 1072 2289.77 1117 2231.5 1117 2173.23 1117 2126 1072 2126 1016.5Z" fill="url(#fill5)" fill-rule="evenodd"/><path d="M1857 787.5C1857 701.62 1917.44 632 1992 632 2066.56 632 2127 701.62 2127 787.5 2127 873.38 2066.56 943 1992 943 1917.44 943 1857 873.38 1857 787.5Z" fill="url(#fill6)" fill-rule="evenodd"/><path d="M2271 1072C2271 1056.54 2282.64 1044 2297 1044 2311.36 1044 2323 1056.54 2323 1072 2323 1087.46 2311.36 1100 2297 1100 2282.64 1100 2271 1087.46 2271 1072Z" fill="url(#fill7)" fill-rule="evenodd"/><path d="M2255 991.5C2255 974.655 2267.54 961 2283 961 2298.46 961 2311 974.655 2311 991.5 2311 1008.34 2298.46 1022 2283 1022 2267.54 1022 2255 1008.34 2255 991.5Z" fill="url(#fill8)" fill-rule="evenodd"/><g clip-path="url(#clip9)"><g clip-path="url(#clip10)"><g clip-path="url(#clip11)"><path d="M2107.93 816.375C2107.93 844.478 2085.15 867.26 2057.05 867.26 2028.94 867.26 2006.16 844.478 2006.16 816.375 2006.16 788.272 2028.94 765.49 2057.05 765.49 2085.15 765.49 2107.93 788.272 2107.93 816.375Z" stroke="#92D050" stroke-width="4.62502" fill="#0F1113"/><path d="M2307.67 891.19C2307.94 885.346 2306.12 879.948 2302.99 875.878 2303.52 874.733 2303.86 873.486 2303.86 872.141 2303.86 771.893 2251.71 690.334 2187.6 690.334L2184.14 690.334 2103.86 763.006C2100.56 765.997 2099.54 771.026 2101.96 774.77 2105.05 779.554 2111.51 780.287 2115.56 776.616L2190.95 708.371C2242.89 711.288 2284.66 781.697 2285.81 868.503 2291.17 868.152 2233.38 867.342 2100.09 865.383 2088.01 865.206 2076 867.272 2064.68 871.49 2046.89 878.122 2022.94 887.408 2022.94 887.408L2005.46 879.4C2007.7 875.668 2008.99 871.148 2008.79 866.278 2008.31 854.313 1999.36 844.869 1988.9 845.29L1926.35 845.746C1915.89 846.167 1907.72 856.3 1908.2 868.264 1908.22 868.66 1908.32 869.027 1908.35 869.417 1907.71 876.858 1910.39 883.547 1915.94 886.265L1997.53 926.153 2038.9 950.234 2105.45 1066.71 2196.99 991.509 2128.94 909.385 2285.73 912.032C2283.7 999.318 2240.64 1069.36 2187.8 1069.54 2183.26 1069.55 2179.19 1072.96 2178.68 1077.48 2178.08 1082.89 2182.3 1087.48 2187.6 1087.48 2251.71 1087.48 2303.86 1005.92 2303.86 905.674 2303.86 904.966 2303.62 904.339 2303.46 903.679 2305.89 900.205 2307.46 895.915 2307.67 891.19Z" stroke="#92D050" stroke-width="4.62502" fill="#0F1113"/></g></g></g></g></svg>