<svg width="550" height="550" xmlns="http://www.w3.org/2000/svg" xmlns:xlink="http://www.w3.org/1999/xlink" overflow="hidden"><defs><clipPath id="clip0"><rect x="31" y="29" width="550" height="550"/></clipPath><radialGradient cx="762000" cy="762000" r="1.07763e+06" gradientUnits="userSpaceOnUse" spreadMethod="pad" id="fill1" gradientTransform="matrix(0.000360892 0 0 0.000360892 30.9999 28.9999)"><stop offset="0" stop-color="#92D050"/><stop offset="0.17" stop-color="#92D050"/><stop offset="0.33" stop-color="#029C48"/><stop offset="1" stop-color="#0F1113"/></radialGradient><linearGradient x1="304.5" y1="35.0001" x2="304.5" y2="189" gradientUnits="userSpaceOnUse" spreadMethod="reflect" id="fill2"><stop offset="0" stop-color="#F5FAFF" stop-opacity="0.231373"/><stop offset="0.32" stop-color="#FFFFFF" stop-opacity="0"/><stop offset="1" stop-color="#FFFFFF" stop-opacity="0"/></linearGradient><radialGradient cx="94210.5" cy="102524" r="139236" gradientUnits="userSpaceOnUse" spreadMethod="pad" id="fill3" gradientTransform="matrix(0.000360892 0 0 0.000360892 70.0001 157)"><stop offset="0" stop-color="#92D050"/><stop offset="0.54" stop-color="#09522C" stop-opacity="0"/><stop offset="1" stop-color="#09522C" stop-opacity="0"/></radialGradient><radialGradient cx="112222" cy="121920" r="165705" fx="112222" fy="121920" gradientUnits="userSpaceOnUse" spreadMethod="pad" id="fill4" gradientTransform="matrix(0.000360892 0 0 0.000360892 99 202)"><stop offset="0" stop-color="#92D050"/><stop offset="0.54" stop-color="#09522C" stop-opacity="0"/><stop offset="1" stop-color="#09522C" stop-opacity="0"/></radialGradient><radialGradient cx="292331" cy="278476" r="403740" gradientUnits="userSpaceOnUse" spreadMethod="pad" id="fill5" gradientTransform="matrix(0.000360892 0 0 0.000360892 320 333)"><stop offset="0" stop-color="#92D050"/><stop offset="0.54" stop-color="#09522C" stop-opacity="0"/><stop offset="1" stop-color="#09522C" stop-opacity="0"/></radialGradient><radialGradient cx="374073" cy="430876" r="570600" fx="374073" fy="430876" gradientUnits="userSpaceOnUse" spreadMethod="pad" id="fill6" gradientTransform="matrix(0.000360892 0 0 0.000360892 51.9999 49.0002)"><stop offset="0" stop-color="#92D050"/><stop offset="0.54" stop-color="#09522C" stop-opacity="0"/><stop offset="1" stop-color="#09522C" stop-opacity="0"/></radialGradient><radialGradient cx="70658" cy="77585.5" r="104938" gradientUnits="userSpaceOnUse" spreadMethod="pad" id="fill7" gradientTransform="matrix(0.000360892 0 0 0.000360892 466 461)"><stop offset="0" stop-color="#92D050"/><stop offset="0.54" stop-color="#09522C" stop-opacity="0"/><stop offset="1" stop-color="#09522C" stop-opacity="0"/></radialGradient><radialGradient cx="78971" cy="83127" r="114658" fx="78971" fy="83127" gradientUnits="userSpaceOnUse" spreadMethod="pad" id="fill8" gradientTransform="matrix(0.000360892 0 0 0.000360892 449 379)"><stop offset="0" stop-color="#92D050"/><stop offset="0.54" stop-color="#09522C" stop-opacity="0"/><stop offset="1" stop-color="#09522C" stop-opacity="0"/></radialGradient><clipPath id="clip9"><rect x="92" y="115" width="399" height="398"/></clipPath><clipPath id="clip10"><rect x="92" y="115" width="399" height="398"/></clipPath><clipPath id="clip11"><rect x="92" y="115" width="399" height="398"/></clipPath></defs><g clip-path="url(#clip0)" transform="translate(-31 -29)"><rect x="30.9999" y="28.9999" width="550" height="550" fill="url(#fill1)"/><path d="M65.7338 35.0001 543.266 35.0001C559.136 35.0001 572 54.864 572 79.3677L572 189C572 150.824 551.957 119.876 527.233 119.876L81.7669 119.876C57.0429 119.876 37.0001 150.824 37.0001 189L37.0001 79.3677C37.0001 54.864 49.8646 35.0001 65.7338 35.0001Z" fill="url(#fill2)" fill-rule="evenodd"/><path d="M70.0001 194C70.0001 173.566 85.2224 157 104 157 122.778 157 138 173.566 138 194 138 214.435 122.778 231 104 231 85.2224 231 70.0001 214.435 70.0001 194Z" fill="url(#fill3)" fill-rule="evenodd"/><path d="M99 246C99 221.7 117.132 202 139.5 202 161.868 202 180 221.7 180 246 180 270.301 161.868 290 139.5 290 117.132 290 99 270.301 99 246Z" fill="url(#fill4)" fill-rule="evenodd"/><path d="M320 433.5C320 377.995 367.234 333 425.5 333 483.766 333 531 377.995 531 433.5 531 489.005 483.766 534 425.5 534 367.234 534 320 489.005 320 433.5Z" fill="url(#fill5)" fill-rule="evenodd"/><path d="M51.9999 204.5C51.9999 118.62 112.441 49.0002 187 49.0002 261.558 49.0002 322 118.62 322 204.5 322 290.38 261.558 360 187 360 112.441 360 51.9999 290.38 51.9999 204.5Z" fill="url(#fill6)" fill-rule="evenodd"/><path d="M466 489C466 473.536 477.417 461 491.5 461 505.583 461 517 473.536 517 489 517 504.464 505.583 517 491.5 517 477.417 517 466 504.464 466 489Z" fill="url(#fill7)" fill-rule="evenodd"/><path d="M449 409C449 392.432 461.76 379 477.5 379 493.24 379 506 392.432 506 409 506 425.569 493.24 439 477.5 439 461.76 439 449 425.569 449 409Z" fill="url(#fill8)" fill-rule="evenodd"/><g clip-path="url(#clip9)"><g clip-path="url(#clip10)"><g clip-path="url(#clip11)"><path d="M307.902 81.2914 316.758 109.698C311.434 110.842 306.012 111.439 300.689 112.285 295.365 113.131 289.993 113.878 284.72 114.673L268.649 117.21 252.53 119.399C247.157 120.245 241.834 121.091 236.461 122.235 239.495 122.882 242.531 123.479 245.516 124.225 259.126 127.279 272.216 132.308 284.37 139.15 289.463 142.021 294.107 145.625 298.152 149.847 300.2 152.07 301.879 154.605 303.127 157.358 305.396 162.075 305.396 167.567 303.127 172.283 302.156 174.274 301.007 176.173 299.694 177.955 295.932 182.683 291.348 186.694 286.162 189.795L284.521 189.049C270.64 181.487 256.761 174.124 242.979 166.313 239.049 164.123 235.317 161.338 231.537 159.05L204.274 141.389 204.273 141.389C200.66 139.168 197.664 136.071 195.567 132.384 193.268 128.205 192.545 123.34 193.531 118.675 194.519 114.009 197.147 109.852 200.941 106.962 203.881 104.723 207.277 103.161 210.891 102.385L255.317 91.5396C269.247 88.2229 283.243 85.3039 297.306 82.7843L306.013 81.1919Z" stroke="#92D050" stroke-width="4.61447" fill="#0F1113" transform="matrix(1.00251 0 0 1 92.0001 115)"/><path d="M235.666 166.264 286.759 195.417 238.8 259.943C225.18 253.429 209.284 253.724 195.915 260.738L181.488 196.76C182.101 196.721 182.716 196.721 183.329 196.76 190.637 196.961 197.584 193.581 201.936 187.705 203.13 186.212 204.075 184.521 205.219 182.979 205.653 182.313 206.231 181.752 206.911 181.337L234.722 166.81Z" stroke="#92D050" stroke-width="4.61447" fill="#0F1113" transform="matrix(1.00251 0 0 1 92.0001 115)"/><path d="M232.332 389.741C235.574 389.559 238.817 390.086 241.834 391.283L241.834 393.721 196.561 396.955C196.537 396.524 196.537 396.093 196.561 395.661L196.561 393.821C203.415 391.111 210.489 388.995 217.705 387.502 212.233 347.105 206.794 306.692 201.387 266.262 211.337 265.565 221.287 265.864 231.237 265.466L231.237 268.003C231.237 280.043 231.32 292.083 231.486 304.122 231.486 319.047 231.784 334.22 231.935 349.294 231.935 361.997 232.067 374.684 232.332 387.353Z" stroke="#92D050" stroke-width="4.61447" fill="#0F1113" transform="matrix(1.00251 0 0 1 92.0001 115)"/><path d="M174.921 47.5112 202.93 103.132 201.089 104.575 201.09 104.575C198.222 106.696 195.733 109.286 193.727 112.236 191.846 114.945 190.72 118.106 190.468 121.393 190.214 124.681 190.841 127.977 192.284 130.943 194.953 136.586 199.161 141.363 204.424 144.724 206.116 145.918 207.956 146.863 209.697 147.957L211.389 148.903 211.389 148.902C206.756 151.792 200.981 152.167 196.015 149.897 192.579 148.303 189.487 146.057 186.911 143.28 182.653 138.759 178.946 133.749 175.866 128.355 169.558 117.174 164.103 105.533 159.549 93.5303 154.922 81.7392 150.394 69.899 145.768 58.0585 145.27 56.7657 144.724 55.4712 144.126 54.0785Z" stroke="#92D050" stroke-width="4.61447" fill="#0F1113" transform="matrix(1.00251 0 0 1 92.0001 115)"/><path d="M199.249 177.806 179.349 193.129C178.929 192.419 178.547 191.688 178.205 190.939 171.637 177.556 164.772 164.372 157.061 151.587 149.224 138.752 140.704 126.347 131.54 114.424 125.47 106.513 119.351 98.7036 113.281 90.7927 112.295 89.5012 111.382 88.1549 110.545 86.7636 110.033 85.897 109.762 84.9086 109.762 83.903 109.762 82.8964 110.033 81.908 110.545 81.0424 111.091 79.9916 111.707 78.9774 112.386 78.007 114.525 74.7732 116.763 71.5395 118.953 68.3057L118.952 68.3057C119.638 66.8533 121.196 66.0242 122.783 66.2666 124.345 66.5515 125.581 67.7488 125.917 69.3007 126.69 71.559 126.69 74.0087 125.917 76.2657 124.862 79.9568 124.293 83.771 124.226 87.6084 124.226 90.0959 123.977 92.5834 123.828 95.2198L129.35 99.4989C139.051 107.359 148.703 115.219 157.756 123.876 165.741 131.659 173.002 140.151 179.448 149.249 185.916 158.253 192.183 167.359 198.502 176.462Z" stroke="#92D050" stroke-width="4.61447" fill="#0F1113" transform="matrix(1.00251 0 0 1 92.0001 115)"/><path d="M182.881 218.9 189.846 246.809 179.498 248.75C179.301 249.343 179.068 249.925 178.802 250.491 177.896 252.548 176.188 254.148 174.076 254.919 167.447 257.46 160.375 258.644 153.28 258.402 148.999 258.308 144.77 257.45 140.793 255.864 138.591 255.005 136.541 253.795 134.723 252.281 130.597 248.87 128.559 243.548 129.351 238.253 129.862 232.955 132.803 228.195 137.311 225.367 141.452 222.628 146.079 220.703 150.943 219.695 154.077 218.998 157.261 218.451 160.495 217.954L160.494 217.954C164.387 217.358 168.369 217.929 171.936 219.596 172.856 220.068 173.899 220.242 174.921 220.094L179.896 219.397C180.742 219.248 181.688 219.197 182.881 218.9Z" stroke="#92D050" stroke-width="4.61447" fill="#0F1113" transform="matrix(1.00251 0 0 1 92.0001 115)"/><path d="M321.036 106.564C319.693 102.385 318.251 98.2558 316.957 94.0271 314.993 87.7722 313.546 81.3654 312.629 74.8734 311.597 68.9657 311.869 62.9035 313.425 57.1123 314.169 54.2321 315.723 51.6255 317.902 49.6007L320.141 47.8595 343.275 99.0024C336.015 101.951 328.59 104.475 321.036 106.565Z" stroke="#92D050" stroke-width="4.61447" fill="#0F1113" transform="matrix(1.00251 0 0 1 92.0001 115)"/><path d="M162.682 19.4516 171.686 40.2467 169.497 40.993 169.498 40.9943C162.231 43.119 154.836 44.7813 147.359 45.9693 141.919 47.0369 136.344 47.2389 130.842 46.5653 128.938 46.2671 127.069 45.7673 125.27 45.0728 123.395 44.3809 121.789 43.1127 120.681 41.4503 119.572 39.7867 119.02 37.8163 119.102 35.8196 120.643 35.1225 122.236 34.3762 124.077 33.7298L146.862 25.3214C151.937 23.6307 157.11 21.5915 162.682 19.4512Z" stroke="#92D050" stroke-width="4.61447" fill="#0F1113" transform="matrix(1.00251 0 0 1 92.0001 115)"/></g></g></g></g></svg>