<svg width="550" height="550" xmlns="http://www.w3.org/2000/svg" xmlns:xlink="http://www.w3.org/1999/xlink" overflow="hidden"><defs><clipPath id="clip0"><rect x="2522" y="644" width="550" height="550"/></clipPath><radialGradient cx="762000" cy="762000" r="1.07763e+06" gradientUnits="userSpaceOnUse" spreadMethod="pad" id="fill1" gradientTransform="matrix(0.000360892 0 0 0.000360892 2522 644)"><stop offset="0" stop-color="#FFE300"/><stop offset="0.17" stop-color="#FFE300"/><stop offset="0.33" stop-color="#E0AA00"/><stop offset="1" stop-color="#0F1113"/></radialGradient><linearGradient x1="2795.5" y1="650" x2="2795.5" y2="804" gradientUnits="userSpaceOnUse" spreadMethod="reflect" id="fill2"><stop offset="0" stop-color="#F5FAFF" stop-opacity="0.231373"/><stop offset="0.32" stop-color="#FFFFFF" stop-opacity="0"/><stop offset="1" stop-color="#FFFFFF" stop-opacity="0"/></linearGradient><radialGradient cx="94211" cy="102524" r="139236" gradientUnits="userSpaceOnUse" spreadMethod="pad" id="fill3" gradientTransform="matrix(0.000360892 0 0 0.000360892 2561 772)"><stop offset="0" stop-color="#FFE300"/><stop offset="0.54" stop-color="#E0AA00" stop-opacity="0"/><stop offset="1" stop-color="#E0AA00" stop-opacity="0"/></radialGradient><radialGradient cx="110836" cy="121920" r="164770" fx="110836" fy="121920" gradientUnits="userSpaceOnUse" spreadMethod="pad" id="fill4" gradientTransform="matrix(0.000360892 0 0 0.000360892 2590 817)"><stop offset="0" stop-color="#FFE300"/><stop offset="0.54" stop-color="#E0AA00" stop-opacity="0"/><stop offset="1" stop-color="#E0AA00" stop-opacity="0"/></radialGradient><radialGradient cx="292331" cy="278477" r="403741" fx="292331" fy="278476" gradientUnits="userSpaceOnUse" spreadMethod="pad" id="fill5" gradientTransform="matrix(0.000360892 0 0 0.000360892 2811 948)"><stop offset="0" stop-color="#FFE300"/><stop offset="0.54" stop-color="#E0AA00" stop-opacity="0"/><stop offset="1" stop-color="#E0AA00" stop-opacity="0"/></radialGradient><radialGradient cx="374072" cy="436418" r="574796" fx="374072" fy="436418" gradientUnits="userSpaceOnUse" spreadMethod="pad" id="fill6" gradientTransform="matrix(0.000360892 0 0 0.000360892 2542 660)"><stop offset="0" stop-color="#FFE300"/><stop offset="0.54" stop-color="#E0AA00" stop-opacity="0"/><stop offset="1" stop-color="#E0AA00" stop-opacity="0"/></radialGradient><radialGradient cx="70658.5" cy="77585.5" r="104939" fx="70658.5" fy="77585.5" gradientUnits="userSpaceOnUse" spreadMethod="pad" id="fill7" gradientTransform="matrix(0.000360892 0 0 0.000360892 2957 1076)"><stop offset="0" stop-color="#FFE300"/><stop offset="0.54" stop-color="#E0AA00" stop-opacity="0"/><stop offset="1" stop-color="#E0AA00" stop-opacity="0"/></radialGradient><radialGradient cx="77585.5" cy="83127" r="113708" gradientUnits="userSpaceOnUse" spreadMethod="pad" id="fill8" gradientTransform="matrix(0.000360892 0 0 0.000360892 2940 994)"><stop offset="0" stop-color="#FFE300"/><stop offset="0.54" stop-color="#E0AA00" stop-opacity="0"/><stop offset="1" stop-color="#E0AA00" stop-opacity="0"/></radialGradient><clipPath id="clip9"><rect x="2549" y="672" width="500" height="499"/></clipPath><clipPath id="clip10"><rect x="2549" y="672" width="500" height="499"/></clipPath></defs><g clip-path="url(#clip0)" transform="translate(-2522 -644)"><rect x="2522" y="644" width="550" height="550" fill="url(#fill1)"/><path d="M2556.73 650 3034.27 650C3050.14 650 3063 669.864 3063 694.368L3063 804C3063 765.824 3042.96 734.876 3018.23 734.876L2572.77 734.876C2548.04 734.876 2528 765.824 2528 804L2528 694.368C2528 669.864 2540.86 650 2556.73 650Z" fill="url(#fill2)" fill-rule="evenodd"/><path d="M2561 809C2561 788.565 2576.22 772 2595 772 2613.78 772 2629 788.565 2629 809 2629 829.435 2613.78 846 2595 846 2576.22 846 2561 829.435 2561 809Z" fill="url(#fill3)" fill-rule="evenodd"/><path d="M2590 861C2590 836.7 2607.91 817 2630 817 2652.09 817 2670 836.7 2670 861 2670 885.301 2652.09 905 2630 905 2607.91 905 2590 885.301 2590 861Z" fill="url(#fill4)" fill-rule="evenodd"/><path d="M2811 1048.5C2811 992.995 2858.23 948 2916.5 948 2974.77 948 3022 992.995 3022 1048.5 3022 1104 2974.77 1149 2916.5 1149 2858.23 1149 2811 1104 2811 1048.5Z" fill="url(#fill5)" fill-rule="evenodd"/><path d="M2542 817.5C2542 730.515 2602.44 660 2677 660 2751.56 660 2812 730.515 2812 817.5 2812 904.485 2751.56 975 2677 975 2602.44 975 2542 904.485 2542 817.5Z" fill="url(#fill6)" fill-rule="evenodd"/><path d="M2957 1104C2957 1088.54 2968.42 1076 2982.5 1076 2996.58 1076 3008 1088.54 3008 1104 3008 1119.46 2996.58 1132 2982.5 1132 2968.42 1132 2957 1119.46 2957 1104Z" fill="url(#fill7)" fill-rule="evenodd"/><path d="M2940 1024C2940 1007.43 2952.54 994 2968 994 2983.46 994 2996 1007.43 2996 1024 2996 1040.57 2983.46 1054 2968 1054 2952.54 1054 2940 1040.57 2940 1024Z" fill="url(#fill8)" fill-rule="evenodd"/><g clip-path="url(#clip9)"><g clip-path="url(#clip10)"><path d="M88.0941 187.149C145.229 192.332 200.85 192.404 254.877 187.149 257.129 173.864 259.406 159.78 254.877 147.294 242.505 113.202 200.777 98.2305 185.09 63.8114 129.361 90.9473 81.1844 122.596 88.0941 187.149ZM301.44 268.956C345.057 272.92 387.517 272.971 428.768 268.956 430.485 258.815 432.223 248.061 428.768 238.532 419.321 212.506 387.465 201.073 375.487 174.798 332.944 195.512 296.165 219.675 301.44 268.956ZM116.594 223.732 164.968 223.732C164.968 210.395 154.131 199.548 140.784 199.548 127.441 199.548 116.594 210.395 116.594 223.732ZM180.753 223.732 229.132 223.732C229.132 210.395 218.285 199.548 204.937 199.548 191.595 199.548 180.753 210.395 180.753 223.732ZM44.1612 234.615 43.3519 245.67 81.4178 248.466C81.5527 251.008 81.8069 253.534 82.1596 256.024 87.7829 295.553 120.309 327.253 161.741 330.304L166.197 330.631C213.99 334.148 255.63 298.214 259.147 250.432L44.1612 234.615ZM322.533 296.886 359.463 296.886C359.463 286.703 351.189 278.418 341 278.418 330.812 278.418 322.533 286.703 322.533 296.886ZM371.518 296.886 408.443 296.886C408.443 286.703 400.159 278.418 389.981 278.418 379.787 278.418 371.518 286.703 371.518 296.886ZM463.742 305.196 299.615 317.273C302.296 353.746 334.091 381.183 370.574 378.496L373.983 378.247C405.611 375.923 430.443 351.718 434.739 321.542 435.008 319.643 435.2 317.708 435.304 315.774L464.364 313.636 463.742 305.196ZM191.974 363.094 225.044 363.094C225.044 353.979 217.631 346.561 208.512 346.561 199.392 346.561 191.974 353.979 191.974 363.094ZM235.834 363.094 268.899 363.094C268.899 353.979 261.481 346.561 252.372 346.561 243.242 346.561 235.834 353.979 235.834 363.094ZM140.467 368.219 139.912 375.777 165.933 377.686C166.026 379.424 166.197 381.152 166.441 382.853 170.285 409.875 192.519 431.543 220.837 433.628L223.887 433.846C256.558 436.258 285.022 411.69 287.424 379.03L140.467 368.219Z" stroke="#FFE300" stroke-width="4.57931" stroke-linecap="round" stroke-miterlimit="79.8403" fill="#0F1113" fill-rule="evenodd" transform="matrix(1 0 0 -1 2550 1170)"/></g></g></g></svg>