<svg width="550" height="550" xmlns="http://www.w3.org/2000/svg" xmlns:xlink="http://www.w3.org/1999/xlink" overflow="hidden"><defs><clipPath id="clip0"><rect x="659" y="55" width="550" height="550"/></clipPath><radialGradient cx="762000" cy="762000" r="1.07763e+06" gradientUnits="userSpaceOnUse" spreadMethod="pad" id="fill1" gradientTransform="matrix(0.000360892 0 0 0.000360892 659 55)"><stop offset="0" stop-color="#FFE300"/><stop offset="0.17" stop-color="#FFE300"/><stop offset="0.33" stop-color="#E0AA00"/><stop offset="1" stop-color="#0F1113"/></radialGradient><linearGradient x1="932.5" y1="60.9998" x2="932.5" y2="215" gradientUnits="userSpaceOnUse" spreadMethod="reflect" id="fill2"><stop offset="0" stop-color="#F5FAFF" stop-opacity="0.231373"/><stop offset="0.32" stop-color="#FFFFFF" stop-opacity="0"/><stop offset="1" stop-color="#FFFFFF" stop-opacity="0"/></linearGradient><radialGradient cx="94210.5" cy="101138" r="138219" fx="94210.5" fy="101138" gradientUnits="userSpaceOnUse" spreadMethod="pad" id="fill3" gradientTransform="matrix(0.000360892 0 0 0.000360892 698 184)"><stop offset="0" stop-color="#FFE300"/><stop offset="0.54" stop-color="#E0AA00" stop-opacity="0"/><stop offset="1" stop-color="#E0AA00" stop-opacity="0"/></radialGradient><radialGradient cx="110836" cy="120534" r="163748" gradientUnits="userSpaceOnUse" spreadMethod="pad" id="fill4" gradientTransform="matrix(0.000360892 0 0 0.000360892 727 229)"><stop offset="0" stop-color="#FFE300"/><stop offset="0.54" stop-color="#E0AA00" stop-opacity="0"/><stop offset="1" stop-color="#E0AA00" stop-opacity="0"/></radialGradient><radialGradient cx="292331" cy="278477" r="403741" fx="292331" fy="278476" gradientUnits="userSpaceOnUse" spreadMethod="pad" id="fill5" gradientTransform="matrix(0.000360892 0 0 0.000360892 948 360)"><stop offset="0" stop-color="#FFE300"/><stop offset="0.54" stop-color="#E0AA00" stop-opacity="0"/><stop offset="1" stop-color="#E0AA00" stop-opacity="0"/></radialGradient><radialGradient cx="374073" cy="437804" r="575849" gradientUnits="userSpaceOnUse" spreadMethod="pad" id="fill6" gradientTransform="matrix(0.000360892 0 0 0.000360892 680 71.0002)"><stop offset="0" stop-color="#FFE300"/><stop offset="0.54" stop-color="#E0AA00" stop-opacity="0"/><stop offset="1" stop-color="#E0AA00" stop-opacity="0"/></radialGradient><radialGradient cx="70658" cy="77585.5" r="104938" gradientUnits="userSpaceOnUse" spreadMethod="pad" id="fill7" gradientTransform="matrix(0.000360892 0 0 0.000360892 1094 488)"><stop offset="0" stop-color="#FFE300"/><stop offset="0.54" stop-color="#E0AA00" stop-opacity="0"/><stop offset="1" stop-color="#E0AA00" stop-opacity="0"/></radialGradient><radialGradient cx="77585.5" cy="84513" r="114726" fx="77585.5" fy="84513" gradientUnits="userSpaceOnUse" spreadMethod="pad" id="fill8" gradientTransform="matrix(0.000360892 0 0 0.000360892 1077 405)"><stop offset="0" stop-color="#FFE300"/><stop offset="0.54" stop-color="#E0AA00" stop-opacity="0"/><stop offset="1" stop-color="#E0AA00" stop-opacity="0"/></radialGradient><clipPath id="clip9"><rect x="695" y="89" width="479" height="479"/></clipPath><clipPath id="clip10"><rect x="695" y="89" width="479" height="479"/></clipPath><clipPath id="clip11"><rect x="695" y="89" width="479" height="479"/></clipPath></defs><g clip-path="url(#clip0)" transform="translate(-659 -55)"><rect x="659" y="55" width="550" height="550" fill="url(#fill1)"/><path d="M693.734 60.9998 1171.27 60.9998C1187.14 60.9998 1200 80.8638 1200 105.367L1200 215C1200 176.824 1179.96 145.876 1155.23 145.876L709.767 145.876C685.043 145.876 665 176.824 665 215L665 105.367C665 80.8638 677.865 60.9998 693.734 60.9998Z" fill="url(#fill2)" fill-rule="evenodd"/><path d="M698 220.5C698 200.342 713.222 184 732 184 750.778 184 766 200.342 766 220.5 766 240.658 750.778 257 732 257 713.222 257 698 240.658 698 220.5Z" fill="url(#fill3)" fill-rule="evenodd"/><path d="M727 272.5C727 248.476 744.909 229 767 229 789.092 229 807 248.476 807 272.5 807 296.524 789.092 316 767 316 744.909 316 727 296.524 727 272.5Z" fill="url(#fill4)" fill-rule="evenodd"/><path d="M948 460.5C948 404.995 995.234 360 1053.5 360 1111.77 360 1159 404.995 1159 460.5 1159 516.005 1111.77 561 1053.5 561 995.234 561 948 516.005 948 460.5Z" fill="url(#fill5)" fill-rule="evenodd"/><path d="M680 229C680 141.739 740.442 71.0002 815 71.0002 889.559 71.0002 950 141.739 950 229 950 316.261 889.559 387 815 387 740.442 387 680 316.261 680 229Z" fill="url(#fill6)" fill-rule="evenodd"/><path d="M1094 516C1094 500.536 1105.42 488 1119.5 488 1133.58 488 1145 500.536 1145 516 1145 531.464 1133.58 544 1119.5 544 1105.42 544 1094 531.464 1094 516Z" fill="url(#fill7)" fill-rule="evenodd"/><path d="M1077 435.5C1077 418.655 1089.54 405 1105 405 1120.46 405 1133 418.655 1133 435.5 1133 452.345 1120.46 466 1105 466 1089.54 466 1077 452.345 1077 435.5Z" fill="url(#fill8)" fill-rule="evenodd"/><g clip-path="url(#clip9)"><g clip-path="url(#clip10)"><g clip-path="url(#clip11)"><path d="M1122.38 471.456 1122.38 484.826 745.165 484.826 745.165 471.456C745.184 464.322 750.963 458.543 758.097 458.523L769.303 458.523C769.261 458.094 769.245 457.657 769.245 457.21L769.245 445.154C769.264 438.019 775.042 432.241 782.177 432.221L793.349 432.221 793.349 333.739 784.963 333.739C776.631 333.754 769.864 327.011 769.849 318.678 769.834 310.345 776.577 303.579 784.91 303.564 784.927 303.564 784.946 303.564 784.963 303.564L1083.48 303.564C1091.81 303.579 1098.55 310.345 1098.54 318.678 1098.52 326.99 1091.79 333.724 1083.48 333.739L1075.53 333.739 1075.53 432.221 1085.37 432.221C1092.5 432.241 1098.28 438.019 1098.3 445.154L1098.3 457.21C1098.3 457.657 1098.28 458.094 1098.24 458.523L1109.45 458.523C1116.58 458.543 1122.36 464.322 1122.38 471.456ZM1075.53 279.669C1075.63 201.747 1012.54 138.497 934.622 138.395 856.701 138.294 793.451 201.38 793.349 279.301 793.349 279.424 793.349 279.546 793.349 279.669ZM825.394 432.221 855.569 432.221 855.569 348.843C855.569 340.51 848.814 333.756 840.481 333.756 832.149 333.756 825.394 340.51 825.394 348.843ZM887.849 349.079 887.849 432.221 918.025 432.221 918.025 349.079C918.025 340.746 911.27 333.991 902.937 333.991 894.605 333.991 887.849 340.746 887.849 349.079ZM950.313 349.306 950.313 432.221 980.489 432.221 980.489 349.306C980.504 340.974 973.761 334.206 965.428 334.191 957.095 334.177 950.328 340.919 950.313 349.253 950.313 349.27 950.313 349.288 950.313 349.306ZM1012.77 349.533 1012.77 432.221 1042.94 432.221 1042.94 349.533C1042.96 341.201 1036.22 334.434 1027.88 334.419 1019.55 334.404 1012.78 341.147 1012.77 349.48 1012.77 349.498 1012.77 349.516 1012.77 349.533Z" stroke="#FFE300" stroke-width="4.79009" fill="#0F1113"/></g></g></g></g></svg>