<svg width="550" height="550" xmlns="http://www.w3.org/2000/svg" xmlns:xlink="http://www.w3.org/1999/xlink" overflow="hidden"><defs><clipPath id="clip0"><rect x="1901" y="1216" width="550" height="550"/></clipPath><radialGradient cx="762000" cy="762000" r="1.07763e+06" gradientUnits="userSpaceOnUse" spreadMethod="pad" id="fill1" gradientTransform="matrix(0.000360892 0 0 0.000360892 1901 1216)"><stop offset="0" stop-color="#FFE300"/><stop offset="0.17" stop-color="#FFE300"/><stop offset="0.33" stop-color="#E0AA00"/><stop offset="1" stop-color="#0F1113"/></radialGradient><linearGradient x1="2174.5" y1="1221" x2="2174.5" y2="1376" gradientUnits="userSpaceOnUse" spreadMethod="reflect" id="fill2"><stop offset="0" stop-color="#F5FAFF" stop-opacity="0.231373"/><stop offset="0.32" stop-color="#FFFFFF" stop-opacity="0"/><stop offset="1" stop-color="#FFFFFF" stop-opacity="0"/></linearGradient><radialGradient cx="94210.5" cy="102524" r="139236" gradientUnits="userSpaceOnUse" spreadMethod="pad" id="fill3" gradientTransform="matrix(0.000360892 0 0 0.000360892 1940 1344)"><stop offset="0" stop-color="#FFE300"/><stop offset="0.54" stop-color="#E0AA00" stop-opacity="0"/><stop offset="1" stop-color="#E0AA00" stop-opacity="0"/></radialGradient><radialGradient cx="110836" cy="120534" r="163748" gradientUnits="userSpaceOnUse" spreadMethod="pad" id="fill4" gradientTransform="matrix(0.000360892 0 0 0.000360892 1969 1389)"><stop offset="0" stop-color="#FFE300"/><stop offset="0.54" stop-color="#E0AA00" stop-opacity="0"/><stop offset="1" stop-color="#E0AA00" stop-opacity="0"/></radialGradient><radialGradient cx="292331" cy="278477" r="403741" fx="292331" fy="278476" gradientUnits="userSpaceOnUse" spreadMethod="pad" id="fill5" gradientTransform="matrix(0.000360892 0 0 0.000360892 2190 1520)"><stop offset="0" stop-color="#FFE300"/><stop offset="0.54" stop-color="#E0AA00" stop-opacity="0"/><stop offset="1" stop-color="#E0AA00" stop-opacity="0"/></radialGradient><radialGradient cx="374073" cy="436418" r="574797" fx="374073" fy="436418" gradientUnits="userSpaceOnUse" spreadMethod="pad" id="fill6" gradientTransform="matrix(0.000360892 0 0 0.000360892 1922 1232)"><stop offset="0" stop-color="#FFE300"/><stop offset="0.54" stop-color="#E0AA00" stop-opacity="0"/><stop offset="1" stop-color="#E0AA00" stop-opacity="0"/></radialGradient><radialGradient cx="70658" cy="77585.5" r="104938" gradientUnits="userSpaceOnUse" spreadMethod="pad" id="fill7" gradientTransform="matrix(0.000360892 0 0 0.000360892 2336 1648)"><stop offset="0" stop-color="#FFE300"/><stop offset="0.54" stop-color="#E0AA00" stop-opacity="0"/><stop offset="1" stop-color="#E0AA00" stop-opacity="0"/></radialGradient><radialGradient cx="77585.5" cy="84512.5" r="114725" gradientUnits="userSpaceOnUse" spreadMethod="pad" id="fill8" gradientTransform="matrix(0.000360892 0 0 0.000360892 2319 1565)"><stop offset="0" stop-color="#FFE300"/><stop offset="0.54" stop-color="#E0AA00" stop-opacity="0"/><stop offset="1" stop-color="#E0AA00" stop-opacity="0"/></radialGradient><clipPath id="clip9"><rect x="1931" y="1245" width="498" height="498"/></clipPath><clipPath id="clip10"><rect x="1931" y="1245" width="498" height="498"/></clipPath><clipPath id="clip11"><rect x="1931" y="1245" width="498" height="498"/></clipPath></defs><g clip-path="url(#clip0)" transform="translate(-1901 -1216)"><rect x="1901" y="1216" width="550" height="550" fill="url(#fill1)"/><path d="M1935.73 1221 2413.27 1221C2429.14 1221 2442 1240.99 2442 1265.66L2442 1376C2442 1337.58 2421.96 1306.43 2397.23 1306.43L1951.77 1306.43C1927.04 1306.43 1907 1337.58 1907 1376L1907 1265.66C1907 1240.99 1919.86 1221 1935.73 1221Z" fill="url(#fill2)" fill-rule="evenodd"/><path d="M1940 1381C1940 1360.57 1955.22 1344 1974 1344 1992.78 1344 2008 1360.57 2008 1381 2008 1401.43 1992.78 1418 1974 1418 1955.22 1418 1940 1401.43 1940 1381Z" fill="url(#fill3)" fill-rule="evenodd"/><path d="M1969 1432.5C1969 1408.48 1986.91 1389 2009 1389 2031.09 1389 2049 1408.48 2049 1432.5 2049 1456.52 2031.09 1476 2009 1476 1986.91 1476 1969 1456.52 1969 1432.5Z" fill="url(#fill4)" fill-rule="evenodd"/><path d="M2190 1620.5C2190 1565 2237.23 1520 2295.5 1520 2353.77 1520 2401 1565 2401 1620.5 2401 1676 2353.77 1721 2295.5 1721 2237.23 1721 2190 1676 2190 1620.5Z" fill="url(#fill5)" fill-rule="evenodd"/><path d="M1922 1389.5C1922 1302.52 1982.44 1232 2057 1232 2131.56 1232 2192 1302.52 2192 1389.5 2192 1476.48 2131.56 1547 2057 1547 1982.44 1547 1922 1476.48 1922 1389.5Z" fill="url(#fill6)" fill-rule="evenodd"/><path d="M2336 1676C2336 1660.54 2347.42 1648 2361.5 1648 2375.58 1648 2387 1660.54 2387 1676 2387 1691.46 2375.58 1704 2361.5 1704 2347.42 1704 2336 1691.46 2336 1676Z" fill="url(#fill7)" fill-rule="evenodd"/><path d="M2319 1595.5C2319 1578.66 2331.54 1565 2347 1565 2362.46 1565 2375 1578.66 2375 1595.5 2375 1612.34 2362.46 1626 2347 1626 2331.54 1626 2319 1612.34 2319 1595.5Z" fill="url(#fill8)" fill-rule="evenodd"/><g clip-path="url(#clip9)"><g clip-path="url(#clip10)"><g clip-path="url(#clip11)"><path d="M2230.64 1417.54C2228.58 1419.72 2226.53 1421.75 2224.52 1423.56 2212.51 1434.7 2197.92 1442.67 2182.05 1446.75 2181.05 1446.96 2180.01 1446.96 2179.01 1446.75 2160.51 1441.66 2143.79 1431.54 2130.7 1417.52 2062.82 1422.18 2035.24 1434.37 2032.98 1439.44L2032.98 1439.58C2036.67 1447.35 2088.9 1462.44 2180.53 1462.44 2272.45 1462.44 2324.7 1447.26 2328.13 1438.77 2326.07 1434.48 2298.62 1422.22 2230.64 1417.54Z" stroke="#FFE300" stroke-width="4.60185" fill="#0F1113"/><path d="M2032.95 1457.48 2032.95 1563.39C2032.95 1644.88 2099.01 1710.94 2180.5 1710.94 2261.99 1710.94 2328.05 1644.88 2328.05 1563.39L2328.05 1457.48C2288.37 1477.67 2185.87 1477.97 2180.5 1477.97 2175.13 1477.97 2072.63 1477.67 2032.95 1457.48ZM2149.2 1534.21C2148.83 1535.72 2139.64 1571.16 2110.61 1571.16 2081.58 1571.16 2072.39 1535.72 2072.01 1534.21 2070.97 1530.05 2073.5 1525.83 2077.66 1524.78 2081.82 1523.74 2086.03 1526.27 2087.08 1530.43 2087.14 1530.67 2093.71 1555.63 2110.61 1555.63 2127.51 1555.63 2134.08 1530.67 2134.14 1530.43 2135.18 1526.27 2139.4 1523.74 2143.56 1524.78 2147.72 1525.83 2150.25 1530.05 2149.2 1534.21ZM2217.45 1524.8C2221.6 1523.76 2225.81 1526.28 2226.86 1530.43 2226.92 1530.67 2233.49 1555.63 2250.39 1555.63 2267.29 1555.63 2273.86 1530.67 2273.92 1530.43 2274.96 1526.27 2279.18 1523.74 2283.34 1524.78 2287.5 1525.83 2290.03 1530.05 2288.99 1534.21 2288.61 1535.72 2279.42 1571.16 2250.39 1571.16 2221.36 1571.16 2212.17 1535.72 2211.8 1534.21 2210.76 1530.05 2213.29 1525.83 2217.45 1524.8ZM2188.03 1549.74 2175.61 1599.31 2194.12 1594.66C2198.26 1593.52 2202.53 1595.95 2203.66 1600.09 2204.8 1604.23 2202.36 1608.5 2198.23 1609.63 2198.11 1609.67 2198 1609.69 2197.88 1609.72L2166.82 1617.49C2162.66 1618.52 2158.44 1615.99 2157.41 1611.83 2157.1 1610.59 2157.1 1609.31 2157.41 1608.07L2172.94 1545.95C2173.88 1541.77 2178.03 1539.14 2182.22 1540.08 2186.4 1541.02 2189.03 1545.17 2188.09 1549.36 2188.06 1549.48 2188.03 1549.59 2188 1549.71Z" stroke="#FFE300" stroke-width="4.60185" fill="#0F1113"/><path d="M2188.27 1314.89C2188.27 1310.6 2184.79 1307.13 2180.5 1307.13 2176.21 1307.13 2172.73 1310.6 2172.73 1314.89L2172.73 1322.66 2188.27 1322.66Z" stroke="#FFE300" stroke-width="4.60185" fill="#0F1113"/><path d="M2343.58 1503.18 2343.58 1561.48C2353.8 1555.44 2359.8 1544.19 2359.11 1532.33 2359.8 1520.47 2353.8 1509.22 2343.58 1503.18Z" stroke="#FFE300" stroke-width="4.60185" fill="#0F1113"/><path d="M2203.8 1338.19 2157.2 1338.19 2157.2 1369.25 2203.8 1369.25ZM2180.5 1361.48C2176.21 1361.48 2172.73 1358.01 2172.73 1353.72 2172.73 1349.43 2176.21 1345.95 2180.5 1345.95 2184.79 1345.95 2188.27 1349.43 2188.27 1353.72 2188.27 1358.01 2184.79 1361.48 2180.5 1361.48Z" stroke="#FFE300" stroke-width="4.60185" fill="#0F1113"/><path d="M2001.89 1532.33C2001.2 1544.19 2007.19 1555.44 2017.42 1561.48L2017.42 1503.18C2007.19 1509.22 2001.2 1520.47 2001.89 1532.33Z" stroke="#FFE300" stroke-width="4.60185" fill="#0F1113"/><path d="M2180.5 1431.16C2190.98 1428.39 2248.84 1408.99 2250.39 1318.62 2242.62 1312.24 2224.34 1295.43 2220.17 1276.06L2140.83 1276.06C2136.66 1295.43 2118.38 1312.24 2110.61 1318.62 2112.16 1408.94 2169.96 1428.36 2180.5 1431.16ZM2141.67 1330.42C2141.67 1326.13 2145.15 1322.66 2149.44 1322.66L2157.2 1322.66 2157.2 1314.89C2157.2 1302.02 2167.63 1291.59 2180.5 1291.59 2193.37 1291.59 2203.8 1302.02 2203.8 1314.89L2203.8 1322.66 2211.56 1322.66C2215.85 1322.66 2219.33 1326.13 2219.33 1330.42L2219.33 1377.02C2219.33 1381.3 2215.85 1384.78 2211.56 1384.78L2149.44 1384.78C2145.15 1384.78 2141.67 1381.3 2141.67 1377.02Z" stroke="#FFE300" stroke-width="4.60185" fill="#0F1113"/></g></g></g></g></svg>