<svg width="550" height="550" xmlns="http://www.w3.org/2000/svg" xmlns:xlink="http://www.w3.org/1999/xlink" overflow="hidden"><defs><clipPath id="clip0"><rect x="53" y="1216" width="550" height="550"/></clipPath><radialGradient cx="762000" cy="762000" r="1.07763e+06" gradientUnits="userSpaceOnUse" spreadMethod="pad" id="fill1" gradientTransform="matrix(0.000360892 0 0 0.000360892 52.9999 1216)"><stop offset="0" stop-color="#FFE300"/><stop offset="0.17" stop-color="#FFE300"/><stop offset="0.33" stop-color="#E0AA00"/><stop offset="1" stop-color="#0F1113"/></radialGradient><linearGradient x1="326" y1="1221" x2="326" y2="1376" gradientUnits="userSpaceOnUse" spreadMethod="reflect" id="fill2"><stop offset="0" stop-color="#F5FAFF" stop-opacity="0.231373"/><stop offset="0.32" stop-color="#FFFFFF" stop-opacity="0"/><stop offset="1" stop-color="#FFFFFF" stop-opacity="0"/></linearGradient><radialGradient cx="94210.5" cy="102524" r="139236" gradientUnits="userSpaceOnUse" spreadMethod="pad" id="fill3" gradientTransform="matrix(0.000360892 0 0 0.000360892 92.0001 1344)"><stop offset="0" stop-color="#FFE300"/><stop offset="0.54" stop-color="#E0AA00" stop-opacity="0"/><stop offset="1" stop-color="#E0AA00" stop-opacity="0"/></radialGradient><radialGradient cx="110836" cy="120534" r="163748" gradientUnits="userSpaceOnUse" spreadMethod="pad" id="fill4" gradientTransform="matrix(0.000360892 0 0 0.000360892 121 1389)"><stop offset="0" stop-color="#FFE300"/><stop offset="0.54" stop-color="#E0AA00" stop-opacity="0"/><stop offset="1" stop-color="#E0AA00" stop-opacity="0"/></radialGradient><radialGradient cx="292331" cy="278477" r="403741" fx="292331" fy="278476" gradientUnits="userSpaceOnUse" spreadMethod="pad" id="fill5" gradientTransform="matrix(0.000360892 0 0 0.000360892 342 1520)"><stop offset="0" stop-color="#FFE300"/><stop offset="0.54" stop-color="#E0AA00" stop-opacity="0"/><stop offset="1" stop-color="#E0AA00" stop-opacity="0"/></radialGradient><radialGradient cx="374073" cy="436418" r="574797" fx="374073" fy="436418" gradientUnits="userSpaceOnUse" spreadMethod="pad" id="fill6" gradientTransform="matrix(0.000360892 0 0 0.000360892 72.9999 1232)"><stop offset="0" stop-color="#FFE300"/><stop offset="0.54" stop-color="#E0AA00" stop-opacity="0"/><stop offset="1" stop-color="#E0AA00" stop-opacity="0"/></radialGradient><radialGradient cx="72043.5" cy="77585.5" r="105876" fx="72043.5" fy="77585.5" gradientUnits="userSpaceOnUse" spreadMethod="pad" id="fill7" gradientTransform="matrix(0.000360892 0 0 0.000360892 487 1648)"><stop offset="0" stop-color="#FFE300"/><stop offset="0.54" stop-color="#E0AA00" stop-opacity="0"/><stop offset="1" stop-color="#E0AA00" stop-opacity="0"/></radialGradient><radialGradient cx="77585.5" cy="84512.5" r="114725" gradientUnits="userSpaceOnUse" spreadMethod="pad" id="fill8" gradientTransform="matrix(0.000360892 0 0 0.000360892 471 1565)"><stop offset="0" stop-color="#FFE300"/><stop offset="0.54" stop-color="#E0AA00" stop-opacity="0"/><stop offset="1" stop-color="#E0AA00" stop-opacity="0"/></radialGradient><clipPath id="clip9"><rect x="107" y="1270" width="441" height="441"/></clipPath><clipPath id="clip10"><rect x="107" y="1270" width="441" height="441"/></clipPath><clipPath id="clip11"><rect x="107" y="1270" width="441" height="441"/></clipPath></defs><g clip-path="url(#clip0)" transform="translate(-53 -1216)"><rect x="52.9999" y="1216" width="550" height="550" fill="url(#fill1)"/><path d="M86.7875 1221 565.213 1221C581.112 1221 594 1240.99 594 1265.66L594 1376C594 1337.58 573.92 1306.43 549.15 1306.43L102.851 1306.43C78.0803 1306.43 58.0001 1337.58 58.0001 1376L58.0001 1265.66C58.0001 1240.99 70.8886 1221 86.7875 1221Z" fill="url(#fill2)" fill-rule="evenodd"/><path d="M92.0001 1381C92.0001 1360.57 107.222 1344 126 1344 144.778 1344 160 1360.57 160 1381 160 1401.43 144.778 1418 126 1418 107.222 1418 92.0001 1401.43 92.0001 1381Z" fill="url(#fill3)" fill-rule="evenodd"/><path d="M121 1432.5C121 1408.48 138.909 1389 161 1389 183.091 1389 201 1408.48 201 1432.5 201 1456.52 183.091 1476 161 1476 138.909 1476 121 1456.52 121 1432.5Z" fill="url(#fill4)" fill-rule="evenodd"/><path d="M342 1620.5C342 1565 389.234 1520 447.5 1520 505.766 1520 553 1565 553 1620.5 553 1676 505.766 1721 447.5 1721 389.234 1721 342 1676 342 1620.5Z" fill="url(#fill5)" fill-rule="evenodd"/><path d="M72.9999 1389.5C72.9999 1302.52 133.441 1232 208 1232 282.558 1232 343 1302.52 343 1389.5 343 1476.48 282.558 1547 208 1547 133.441 1547 72.9999 1476.48 72.9999 1389.5Z" fill="url(#fill6)" fill-rule="evenodd"/><path d="M487 1676C487 1660.54 498.641 1648 513 1648 527.359 1648 539 1660.54 539 1676 539 1691.46 527.359 1704 513 1704 498.641 1704 487 1691.46 487 1676Z" fill="url(#fill7)" fill-rule="evenodd"/><path d="M471 1595.5C471 1578.66 483.536 1565 499 1565 514.464 1565 527 1578.66 527 1595.5 527 1612.34 514.464 1626 499 1626 483.536 1626 471 1612.34 471 1595.5Z" fill="url(#fill8)" fill-rule="evenodd"/><g clip-path="url(#clip9)"><g clip-path="url(#clip10)"><g clip-path="url(#clip11)"><path d="M272.093 1523.26C271.188 1523.77 270.169 1524.03 269.133 1524.03 266.494 1524.03 263.614 1521.59 259.136 1517.63 257.659 1516.32 256.118 1514.96 254.473 1513.61 251.532 1511.21 247.201 1511.65 244.8 1514.59 244.06 1515.49 243.564 1516.57 243.358 1517.72 242.513 1523.08 242.086 1528.49 242.083 1533.91 241.102 1560.15 252.606 1585.31 273.097 1601.74 269.056 1593.49 266.97 1584.42 267.001 1575.24 259.231 1562.89 255.342 1548.49 255.836 1533.91 255.843 1533.53 255.849 1533.16 255.86 1532.8 259.608 1535.89 264.278 1537.64 269.133 1537.78 280.362 1537.78 289.966 1527.04 290.097 1516.12 290.179 1512.47 289.517 1508.84 288.153 1505.45 279.704 1487.04 281.785 1475.43 285.746 1468.52 289.912 1475.15 296.173 1477.17 303.662 1477.17 311.63 1477.68 319.342 1474.26 324.317 1468.02 333.623 1455.74 328.567 1436.41 327.95 1434.21 325.144 1423.97 327.323 1413.01 333.831 1404.63 334.279 1410.61 335.528 1416.52 337.547 1422.17 339.723 1427.89 342.48 1433.37 345.775 1438.53 349.076 1443.51 351.673 1448.93 353.492 1454.62 355.535 1461.54 355.815 1468.87 354.308 1475.93L353.915 1477.84C352.297 1485.6 350.085 1496.22 356.295 1505.14 359.105 1509.89 364.157 1512.86 369.673 1513.01 378.938 1513.01 386.444 1504.1 390.982 1496.94 402.211 1512.36 402.151 1535.21 396.374 1552.95 393.598 1561.34 389.276 1569.15 383.631 1575.95 383.277 1580.42 382.445 1584.84 381.15 1589.13 379.787 1593.56 377.902 1597.81 375.534 1601.8 391.435 1591.07 403.354 1575.4 409.446 1557.21 417.529 1532.38 415.857 1498.86 393.839 1479.88 390.86 1477.45 386.48 1477.9 384.057 1480.88 383.375 1481.72 382.898 1482.71 382.664 1483.76 380.243 1489.26 376.657 1494.17 372.153 1498.15 370.958 1499.23 369.112 1499.14 368.03 1497.94 367.851 1497.75 367.7 1497.52 367.581 1497.28 364.755 1493.23 366.087 1486.83 367.376 1480.65L367.786 1478.65C369.693 1469.53 369.354 1460.1 366.799 1451.14 364.684 1444.2 361.585 1437.59 357.598 1431.52 354.79 1427.14 352.424 1422.5 350.535 1417.66 347.598 1409.21 345.281 1397.22 350.935 1388.08 352.932 1384.85 351.934 1380.61 348.706 1378.62 346.479 1377.24 343.662 1377.25 341.441 1378.64 339.927 1379.58 304.468 1402.24 314.716 1437.95 315.764 1441.76 317.764 1453.93 313.347 1459.73 310.665 1463.24 299.184 1466.27 297.089 1460.62 296.77 1459.26 297.003 1457.83 297.737 1456.64 299.389 1453.22 297.956 1449.11 294.536 1447.46 292.661 1446.55 290.477 1446.55 288.596 1447.44 288.25 1447.6 254.211 1464.43 275.655 1511.19 277.52 1515.55 276.024 1520.61 272.093 1523.26Z" stroke="#FFE300" stroke-width="4.58333" fill="#0F1113"/><path d="M294.692 1564.15C293.94 1563.5 293.155 1562.83 292.319 1562.17 289.34 1559.82 285.017 1560.33 282.664 1563.31 281.941 1564.22 281.462 1565.31 281.274 1566.46 280.877 1569.24 280.695 1572.05 280.731 1574.86 280.616 1594.88 292.641 1611.67 310.644 1616.63 314.494 1617.69 318.469 1618.22 322.461 1618.21 343.23 1618.28 361.651 1604.89 367.994 1585.11 372.033 1571.89 370.777 1554.1 358.877 1544.17L358.877 1544.17 358.857 1544.15C355.935 1541.73 351.608 1542.14 349.185 1545.05 348.47 1546.22 347.851 1547.44 347.336 1548.7 347.363 1548.54 347.604 1547.28 347.604 1547.28 348.559 1542.33 348.309 1537.24 346.876 1532.41 345.734 1528.76 344.073 1525.3 341.944 1522.13 340.698 1520.25 339.638 1518.25 338.779 1516.16 337.152 1512.58 337.046 1508.49 338.487 1504.83 340.416 1501.56 339.33 1497.35 336.06 1495.42 333.791 1494.08 330.956 1494.15 328.762 1495.61 327.952 1496.15 309.063 1508.97 314.948 1528.52 315.763 1530.97 315.769 1533.61 314.965 1536.06 314.762 1536.25 314.507 1536.36 314.236 1536.39 314.739 1532.62 312.094 1529.16 308.329 1528.66 306.945 1528.48 305.537 1528.72 304.293 1529.35 297.556 1532.8 287.354 1544.67 296.965 1564.94 297.03 1565.28 297.011 1565.63 296.908 1565.96 296.277 1565.51 295.391 1564.75 294.692 1564.15ZM302.93 1578.61C309.854 1574.79 312.675 1566.29 309.409 1559.09 307.795 1556.02 306.904 1552.62 306.804 1549.16 308.725 1550.01 310.821 1550.38 312.917 1550.26 317.987 1550.54 322.872 1548.31 325.979 1544.3 329.256 1539.05 330.223 1532.68 328.651 1526.69 329.175 1527.6 329.705 1528.47 330.212 1529.3 331.64 1531.39 332.784 1533.66 333.616 1536.05 334.498 1538.87 334.658 1541.87 334.083 1544.78L333.911 1545.67C332.27 1551.01 332.975 1556.8 335.852 1561.59 337.877 1564.74 341.338 1566.67 345.08 1566.74 348.886 1566.55 352.437 1564.77 354.862 1561.83 356.834 1568.1 356.827 1574.83 354.842 1581.1 350.176 1595.02 337.149 1604.42 322.461 1604.46 319.704 1604.47 316.959 1604.1 314.3 1603.38 303.567 1600.27 295.829 1590.91 294.796 1579.78 297.563 1580.25 300.408 1579.84 302.93 1578.61Z" stroke="#FFE300" stroke-width="4.58333" fill="#0F1113"/><path d="M243.65 1701.07C247.666 1709.59 257.761 1713.33 266.363 1709.49L328 1681.78C328 1681.78 389.495 1709.43 389.563 1709.46 398.189 1713.42 408.396 1709.65 412.361 1701.02 416.327 1692.4 412.549 1682.19 403.924 1678.22L369.911 1662.93 404.004 1647.6C412.612 1643.59 416.343 1633.37 412.338 1624.76 408.357 1616.21 398.225 1612.46 389.636 1616.37L327.996 1644.08C327.996 1644.08 266.501 1616.42 266.44 1616.4 258.136 1612.31 248.089 1615.73 243.999 1624.03 243.878 1624.28 243.763 1624.53 243.654 1624.78 239.68 1633.42 243.448 1643.64 252.076 1647.63L286.089 1662.93 252.002 1678.26C243.414 1682.27 239.681 1692.46 243.65 1701.07ZM353.147 1670.47 398.21 1690.73C399.931 1691.54 400.67 1693.6 399.862 1695.32 399.305 1696.52 398.101 1697.3 396.773 1697.3L396.612 1697.3C396.148 1697.27 395.694 1697.16 395.276 1696.95L344.765 1674.24ZM257.796 1635.13C256.074 1634.33 255.326 1632.28 256.126 1630.56 256.926 1628.84 258.971 1628.09 260.694 1628.89 260.704 1628.9 260.714 1628.9 260.724 1628.91L311.235 1651.62 302.853 1655.39Z" stroke="#FFE300" stroke-width="4.58333" fill="#0F1113"/><path d="M539.911 1513.96C500.384 1489.81 463.864 1461.04 431.128 1428.27L431.128 1408.5C431.128 1404.7 428.05 1401.62 424.253 1401.62 420.456 1401.62 417.378 1404.7 417.378 1408.5L417.378 1414.11C385.511 1380.71 357.808 1343.58 334.875 1303.52L334.875 1277.87C334.875 1274.08 331.797 1271 328 1271 324.203 1271 321.125 1274.08 321.125 1277.87L321.125 1303.52C308.882 1325.83 243.654 1436.49 116.09 1513.96 110.254 1517.71 107.181 1524.56 108.252 1531.42L117.839 1581.9C120.189 1592.87 129.775 1600.78 140.989 1601L181.908 1601 173.527 1568.33C172.591 1564.65 174.815 1560.91 178.495 1559.97 182.165 1559.04 185.899 1561.25 186.848 1564.92L196.105 1601 252.3 1601C236.09 1582.38 227.529 1558.31 228.336 1533.64 228.36 1527.5 228.857 1521.37 229.823 1515.3 231.83 1504.09 242.544 1496.63 253.754 1498.64 254.854 1498.83 255.937 1499.12 256.991 1499.49 247.769 1461.6 271.295 1440.44 282.688 1435.02 285.458 1433.71 288.483 1433.03 291.547 1433.03 294.425 1433.02 297.272 1433.62 299.906 1434.78 294.34 1401.9 318.198 1376.95 334.15 1366.98 343.806 1360.94 356.532 1363.87 362.573 1373.52 366.742 1380.19 366.762 1388.64 362.623 1395.32 360.468 1398.8 360.797 1405.3 363.523 1413.15 365.128 1417.11 367.103 1420.91 369.421 1424.5 374.086 1431.66 377.684 1439.47 380.103 1447.67 381.695 1453.54 382.581 1459.59 382.741 1465.68 384.93 1464.93 387.23 1464.54 389.546 1464.54 394.417 1464.54 399.127 1466.29 402.819 1469.46 429.604 1492.55 432.015 1532.31 422.521 1561.47 417.541 1576.41 409.091 1589.95 397.864 1601L459.165 1601 469.185 1564.79C470.202 1561.13 473.994 1558.99 477.652 1560.01 481.302 1561.03 483.444 1564.8 482.44 1568.46L473.43 1601 515.01 1601C526.227 1600.78 535.814 1592.86 538.162 1581.9L547.749 1531.42C548.815 1524.56 545.745 1517.72 539.911 1513.96Z" stroke="#FFE300" stroke-width="4.58333" fill="#0F1113"/></g></g></g></g></svg>