<svg width="550" height="550" xmlns="http://www.w3.org/2000/svg" xmlns:xlink="http://www.w3.org/1999/xlink" overflow="hidden"><defs><clipPath id="clip0"><rect x="53" y="55" width="550" height="550"/></clipPath><radialGradient cx="762000" cy="762000" r="1.07763e+06" gradientUnits="userSpaceOnUse" spreadMethod="pad" id="fill1" gradientTransform="matrix(0.000360892 0 0 0.000360892 52.9999 55)"><stop offset="0" stop-color="#FFE300"/><stop offset="0.17" stop-color="#FFE300"/><stop offset="0.33" stop-color="#E0AA00"/><stop offset="1" stop-color="#0F1113"/></radialGradient><linearGradient x1="326.5" y1="60.9998" x2="326.5" y2="215" gradientUnits="userSpaceOnUse" spreadMethod="reflect" id="fill2"><stop offset="0" stop-color="#F5FAFF" stop-opacity="0.231373"/><stop offset="0.32" stop-color="#FFFFFF" stop-opacity="0"/><stop offset="1" stop-color="#FFFFFF" stop-opacity="0"/></linearGradient><radialGradient cx="94210.5" cy="101138" r="138219" fx="94210.5" fy="101138" gradientUnits="userSpaceOnUse" spreadMethod="pad" id="fill3" gradientTransform="matrix(0.000360892 0 0 0.000360892 92.0001 184)"><stop offset="0" stop-color="#FFE300"/><stop offset="0.54" stop-color="#E0AA00" stop-opacity="0"/><stop offset="1" stop-color="#E0AA00" stop-opacity="0"/></radialGradient><radialGradient cx="110836" cy="120534" r="163748" gradientUnits="userSpaceOnUse" spreadMethod="pad" id="fill4" gradientTransform="matrix(0.000360892 0 0 0.000360892 121 229)"><stop offset="0" stop-color="#FFE300"/><stop offset="0.54" stop-color="#E0AA00" stop-opacity="0"/><stop offset="1" stop-color="#E0AA00" stop-opacity="0"/></radialGradient><radialGradient cx="292331" cy="278477" r="403741" fx="292331" fy="278476" gradientUnits="userSpaceOnUse" spreadMethod="pad" id="fill5" gradientTransform="matrix(0.000360892 0 0 0.000360892 342 360)"><stop offset="0" stop-color="#FFE300"/><stop offset="0.54" stop-color="#E0AA00" stop-opacity="0"/><stop offset="1" stop-color="#E0AA00" stop-opacity="0"/></radialGradient><radialGradient cx="374073" cy="437804" r="575849" gradientUnits="userSpaceOnUse" spreadMethod="pad" id="fill6" gradientTransform="matrix(0.000360892 0 0 0.000360892 72.9999 71.0002)"><stop offset="0" stop-color="#FFE300"/><stop offset="0.54" stop-color="#E0AA00" stop-opacity="0"/><stop offset="1" stop-color="#E0AA00" stop-opacity="0"/></radialGradient><radialGradient cx="70658" cy="77585.5" r="104938" gradientUnits="userSpaceOnUse" spreadMethod="pad" id="fill7" gradientTransform="matrix(0.000360892 0 0 0.000360892 488 488)"><stop offset="0" stop-color="#FFE300"/><stop offset="0.54" stop-color="#E0AA00" stop-opacity="0"/><stop offset="1" stop-color="#E0AA00" stop-opacity="0"/></radialGradient><radialGradient cx="77585.5" cy="84513" r="114726" fx="77585.5" fy="84513" gradientUnits="userSpaceOnUse" spreadMethod="pad" id="fill8" gradientTransform="matrix(0.000360892 0 0 0.000360892 471 405)"><stop offset="0" stop-color="#FFE300"/><stop offset="0.54" stop-color="#E0AA00" stop-opacity="0"/><stop offset="1" stop-color="#E0AA00" stop-opacity="0"/></radialGradient><clipPath id="clip9"><rect x="83" y="97" width="492" height="492"/></clipPath><clipPath id="clip10"><rect x="83" y="97" width="492" height="492"/></clipPath><clipPath id="clip11"><rect x="83" y="97" width="492" height="492"/></clipPath><clipPath id="clip12"><rect x="84" y="97" width="491" height="492"/></clipPath><clipPath id="clip13"><rect x="84" y="97" width="491" height="492"/></clipPath><clipPath id="clip14"><rect x="84" y="97" width="491" height="492"/></clipPath></defs><g clip-path="url(#clip0)" transform="translate(-53 -55)"><rect x="52.9999" y="55" width="550" height="550" fill="url(#fill1)"/><path d="M87.7338 60.9998 565.266 60.9998C581.136 60.9998 594 80.8638 594 105.367L594 215C594 176.824 573.957 145.876 549.233 145.876L103.767 145.876C79.0428 145.876 59.0001 176.824 59.0001 215L59.0001 105.367C59.0001 80.8638 71.8646 60.9998 87.7338 60.9998Z" fill="url(#fill2)" fill-rule="evenodd"/><path d="M92.0001 220.5C92.0001 200.342 107.222 184 126 184 144.778 184 160 200.342 160 220.5 160 240.658 144.778 257 126 257 107.222 257 92.0001 240.658 92.0001 220.5Z" fill="url(#fill3)" fill-rule="evenodd"/><path d="M121 272.5C121 248.476 138.909 229 161 229 183.091 229 201 248.476 201 272.5 201 296.524 183.091 316 161 316 138.909 316 121 296.524 121 272.5Z" fill="url(#fill4)" fill-rule="evenodd"/><path d="M342 460.5C342 404.995 389.234 360 447.5 360 505.766 360 553 404.995 553 460.5 553 516.005 505.766 561 447.5 561 389.234 561 342 516.005 342 460.5Z" fill="url(#fill5)" fill-rule="evenodd"/><path d="M72.9999 229C72.9999 141.739 133.441 71.0002 208 71.0002 282.558 71.0002 343 141.739 343 229 343 316.261 282.558 387 208 387 133.441 387 72.9999 316.261 72.9999 229Z" fill="url(#fill6)" fill-rule="evenodd"/><path d="M488 516C488 500.536 499.417 488 513.5 488 527.583 488 539 500.536 539 516 539 531.464 527.583 544 513.5 544 499.417 544 488 531.464 488 516Z" fill="url(#fill7)" fill-rule="evenodd"/><path d="M471 435.5C471 418.655 483.536 405 499 405 514.464 405 527 418.655 527 435.5 527 452.345 514.464 466 499 466 483.536 466 471 452.345 471 435.5Z" fill="url(#fill8)" fill-rule="evenodd"/><g clip-path="url(#clip9)"><g clip-path="url(#clip10)"><g clip-path="url(#clip11)"><path d="M200.183 405.667C205.461 437.276 275.141 440.688 304.855 440.688 317.713 440.688 326.577 440.09 326.659 440.085 327.208 439.953 331.789 440.281 339.38 440.281 365.693 440.281 452.01 437.571 457.841 402.699 463.099 371.206 469.704 312.682 454.798 274.519 443.068 244.487 394.855 201.59 387.983 195.584L326.916 187.44 265.85 195.584C258.975 201.596 210.766 244.486 199.034 274.519 186.148 307.524 192.881 361.943 200.186 405.667ZM359.388 274.927 379.728 268.577C391.498 270.327 400.558 280.387 400.558 292.646 400.558 302.162 395.06 310.316 387.118 314.353 381.296 312.672 372.716 311.605 363.127 311.605 362.382 311.605 361.661 311.619 360.932 311.634 355.346 307.155 351.7 300.358 351.7 292.646 351.7 285.652 354.673 279.385 359.388 274.926ZM356.281 361.873 356.281 376.883C341.581 382.033 331.59 376.883 331.59 376.883L331.59 359.586 347.779 359.586C350.934 360.227 353.796 360.996 356.281 361.874ZM313.733 323.581C313.733 318.475 319.607 314.344 326.855 314.344 334.102 314.344 339.973 318.48 339.973 323.581L342.29 332.818 311.533 332.818ZM321.944 359.581 321.944 376.878C307.239 382.028 297.252 376.878 297.252 376.878L297.252 361.972C299.811 361.057 302.77 360.248 306.043 359.581ZM276.517 268.588 296.925 274.964C301.62 279.412 304.585 285.674 304.585 292.653 304.585 300.365 300.934 307.161 295.353 311.64 294.627 311.626 293.898 311.611 293.158 311.611 283.564 311.611 274.989 312.68 269.167 314.36 261.219 310.327 255.72 302.173 255.72 292.653 255.716 280.401 264.761 270.351 276.517 268.588ZM166.152 213.112C166.152 190.949 184.968 172.976 208.182 172.976 218.34 172.976 227.64 176.431 234.907 182.158 218.796 197.49 195.473 221.462 181.395 243.853 172.133 236.499 166.155 225.509 166.155 213.11ZM366.358 293.635C366.358 288.653 370.395 284.614 375.385 284.614 380.368 284.614 384.406 288.651 384.406 293.635 384.406 298.623 380.369 302.662 375.385 302.662 370.395 302.66 366.358 298.618 366.358 293.635ZM272.307 293.635C272.307 288.653 276.344 284.614 281.329 284.614 286.312 284.614 290.35 288.651 290.35 293.635 290.35 298.623 286.313 302.662 281.329 302.662 276.344 302.66 272.307 298.618 272.307 293.635ZM418.923 182.156C426.19 176.429 435.496 172.978 445.648 172.978 468.855 172.978 487.678 190.951 487.678 213.115 487.678 225.511 481.7 236.498 472.439 243.853 458.356 221.453 435.036 197.486 418.927 182.158ZM179.427 263.435C165.168 299.944 143.417 413.232 152.267 466.201 159.092 507.089 283.652 523.067 331.366 525.807 376.605 523.063 494.73 507.077 501.554 466.205 510.406 413.244 488.653 299.952 474.399 263.443 460.797 228.609 404.791 178.898 397.343 172.401L326.909 163.008 256.476 172.401C249.041 178.904 193.025 228.621 179.427 263.435ZM261.874 189.298 262.702 188.588 326.912 180.023 327.397 180.091 391.125 188.588 391.954 189.298C394.252 191.268 448.406 237.939 461.648 271.855 477.19 311.653 470.483 371.676 465.093 403.922 458.498 443.382 374.978 447.638 339.383 447.638 331.563 447.638 326.755 447.428 326.755 447.428 326.8 447.447 317.989 448.045 304.857 448.045 265.622 448.045 198.915 442.698 192.929 406.889 185.465 362.234 178.635 306.533 192.184 271.853 205.426 237.939 259.575 191.265 261.874 189.296Z" stroke="#FFE300" stroke-width="13.1986" fill="#0F1113"/></g></g></g><g clip-path="url(#clip12)"><g clip-path="url(#clip13)"><g clip-path="url(#clip14)"><path d="M115.946 307.039C121.213 338.584 190.751 341.989 220.405 341.989 233.236 341.989 242.082 341.392 242.164 341.387 242.712 341.255 247.283 341.583 254.859 341.583 281.118 341.583 367.26 338.878 373.079 304.077 378.325 272.649 384.917 214.244 370.042 176.159 358.335 146.188 310.22 103.379 303.362 97.3848L242.421 89.2572 181.479 97.3848C174.618 103.384 126.507 146.187 114.8 176.159 101.939 209.096 108.659 263.404 115.949 307.04ZM274.826 176.566 295.125 170.229C306.87 171.975 315.912 182.014 315.912 194.249 315.912 203.746 310.425 211.883 302.5 215.911 296.689 214.234 288.127 213.169 278.557 213.169 277.814 213.169 277.094 213.183 276.367 213.198 270.792 208.728 267.154 201.945 267.154 194.249 267.154 187.269 270.121 181.014 274.826 176.565ZM271.726 263.335 271.726 278.314C257.056 283.453 247.084 278.314 247.084 278.314L247.084 261.052 263.241 261.052C266.389 261.692 269.245 262.459 271.725 263.335ZM229.264 225.121C229.264 220.025 235.127 215.903 242.36 215.903 249.591 215.903 255.451 220.03 255.451 225.121L257.763 234.339 227.069 234.339ZM237.458 261.047 237.458 278.309C222.784 283.449 212.817 278.309 212.817 278.309L212.817 263.433C215.37 262.52 218.324 261.712 221.59 261.047ZM192.124 170.24 212.491 176.602C217.176 181.042 220.135 187.291 220.135 194.255 220.135 201.952 216.491 208.734 210.922 213.204 210.197 213.19 209.47 213.176 208.731 213.176 199.157 213.176 190.599 214.242 184.789 215.918 176.857 211.894 171.37 203.757 171.37 194.255 171.365 182.029 180.393 171.999 192.124 170.24ZM81.985 114.877C81.985 92.7593 100.762 74.8227 123.929 74.8227 134.066 74.8227 143.347 78.2706 150.599 83.9866 134.521 99.287 111.245 123.21 97.1965 145.556 87.9528 138.216 81.987 127.248 81.987 114.876ZM281.782 195.236C281.782 190.263 285.811 186.233 290.79 186.233 295.763 186.233 299.793 190.262 299.793 195.236 299.793 200.214 295.764 204.244 290.79 204.244 285.811 204.242 281.782 200.209 281.782 195.236ZM187.923 195.236C187.923 190.263 191.951 186.233 196.926 186.233 201.899 186.233 205.929 190.262 205.929 195.236 205.929 200.214 201.9 204.244 196.926 204.244 191.952 204.242 187.923 200.209 187.923 195.236ZM334.24 83.9846C341.492 78.2686 350.779 74.8252 360.91 74.8252 384.069 74.8252 402.854 92.7617 402.854 114.88 402.854 127.251 396.888 138.215 387.646 145.555 373.592 123.202 350.32 99.2833 334.243 83.9858ZM95.2328 165.097C81.0021 201.532 59.2962 314.589 68.1275 367.45 74.9389 408.254 199.245 424.199 246.861 426.934 292.008 424.195 409.892 408.242 416.702 367.454 425.536 314.601 403.827 201.54 389.603 165.106 376.028 130.342 320.136 80.7327 312.703 74.2494L242.414 64.8752 172.124 74.2494C164.705 80.7392 108.803 130.354 95.2328 165.097ZM177.511 91.1117 178.337 90.4035 242.417 81.8554 242.9 81.9238 306.499 90.4035 307.325 91.1117C309.619 93.0775 363.662 139.653 376.877 173.5 392.388 213.217 385.694 273.118 380.315 305.298 373.733 344.677 290.384 348.925 254.862 348.925 247.058 348.925 242.26 348.715 242.26 348.715 242.305 348.734 233.511 349.331 220.406 349.331 181.251 349.331 114.68 343.995 108.706 308.259 101.258 263.695 94.4422 208.107 107.963 173.498 121.178 139.654 175.217 93.0743 177.511 91.1101Z" fill="#0F1113" transform="matrix(1 0 0 1.00205 84.9999 98)"/></g></g></g></g></svg>