<svg width="550" height="550" xmlns="http://www.w3.org/2000/svg" xmlns:xlink="http://www.w3.org/1999/xlink" overflow="hidden"><defs><clipPath id="clip0"><rect x="664" y="644" width="550" height="550"/></clipPath><radialGradient cx="762000" cy="762000" r="1.07763e+06" gradientUnits="userSpaceOnUse" spreadMethod="pad" id="fill1" gradientTransform="matrix(0.000360892 0 0 0.000360892 664 644)"><stop offset="0" stop-color="#FFE300"/><stop offset="0.17" stop-color="#FFE300"/><stop offset="0.33" stop-color="#E0AA00"/><stop offset="1" stop-color="#0F1113"/></radialGradient><linearGradient x1="936.5" y1="650" x2="936.5" y2="804" gradientUnits="userSpaceOnUse" spreadMethod="reflect" id="fill2"><stop offset="0" stop-color="#F5FAFF" stop-opacity="0.231373"/><stop offset="0.32" stop-color="#FFFFFF" stop-opacity="0"/><stop offset="1" stop-color="#FFFFFF" stop-opacity="0"/></linearGradient><radialGradient cx="95596.5" cy="102524" r="140178" gradientUnits="userSpaceOnUse" spreadMethod="pad" id="fill3" gradientTransform="matrix(0.000360892 0 0 0.000360892 702 772)"><stop offset="0" stop-color="#FFE300"/><stop offset="0.54" stop-color="#E0AA00" stop-opacity="0"/><stop offset="1" stop-color="#E0AA00" stop-opacity="0"/></radialGradient><radialGradient cx="112221" cy="121920" r="165705" fx="112222" fy="121920" gradientUnits="userSpaceOnUse" spreadMethod="pad" id="fill4" gradientTransform="matrix(0.000360892 0 0 0.000360892 731 817)"><stop offset="0" stop-color="#FFE300"/><stop offset="0.54" stop-color="#E0AA00" stop-opacity="0"/><stop offset="1" stop-color="#E0AA00" stop-opacity="0"/></radialGradient><radialGradient cx="292331" cy="278477" r="403741" fx="292331" fy="278476" gradientUnits="userSpaceOnUse" spreadMethod="pad" id="fill5" gradientTransform="matrix(0.000360892 0 0 0.000360892 953 948)"><stop offset="0" stop-color="#FFE300"/><stop offset="0.54" stop-color="#E0AA00" stop-opacity="0"/><stop offset="1" stop-color="#E0AA00" stop-opacity="0"/></radialGradient><radialGradient cx="374072" cy="436418" r="574796" fx="374072" fy="436418" gradientUnits="userSpaceOnUse" spreadMethod="pad" id="fill6" gradientTransform="matrix(0.000360892 0 0 0.000360892 684 660)"><stop offset="0" stop-color="#FFE300"/><stop offset="0.54" stop-color="#E0AA00" stop-opacity="0"/><stop offset="1" stop-color="#E0AA00" stop-opacity="0"/></radialGradient><radialGradient cx="72043.5" cy="77585.5" r="105876" fx="72043.5" fy="77585.5" gradientUnits="userSpaceOnUse" spreadMethod="pad" id="fill7" gradientTransform="matrix(0.000360892 0 0 0.000360892 1098 1076)"><stop offset="0" stop-color="#FFE300"/><stop offset="0.54" stop-color="#E0AA00" stop-opacity="0"/><stop offset="1" stop-color="#E0AA00" stop-opacity="0"/></radialGradient><radialGradient cx="77585.5" cy="83127" r="113708" gradientUnits="userSpaceOnUse" spreadMethod="pad" id="fill8" gradientTransform="matrix(0.000360892 0 0 0.000360892 1082 994)"><stop offset="0" stop-color="#FFE300"/><stop offset="0.54" stop-color="#E0AA00" stop-opacity="0"/><stop offset="1" stop-color="#E0AA00" stop-opacity="0"/></radialGradient><clipPath id="clip9"><rect x="710" y="695" width="464" height="464"/></clipPath><clipPath id="clip10"><rect x="710" y="695" width="464" height="464"/></clipPath><clipPath id="clip11"><rect x="710" y="695" width="464" height="464"/></clipPath></defs><g clip-path="url(#clip0)" transform="translate(-664 -644)"><rect x="664" y="644" width="550" height="550" fill="url(#fill1)"/><path d="M697.734 650 1175.27 650C1191.14 650 1204 669.864 1204 694.368L1204 804C1204 765.824 1183.96 734.876 1159.23 734.876L713.767 734.876C689.043 734.876 669 765.824 669 804L669 694.368C669 669.864 681.864 650 697.734 650Z" fill="url(#fill2)" fill-rule="evenodd"/><path d="M702 809C702 788.565 717.446 772 736.5 772 755.554 772 771 788.565 771 809 771 829.435 755.554 846 736.5 846 717.446 846 702 829.435 702 809Z" fill="url(#fill3)" fill-rule="evenodd"/><path d="M731 861C731 836.7 749.133 817 771.5 817 793.868 817 812 836.7 812 861 812 885.301 793.868 905 771.5 905 749.133 905 731 885.301 731 861Z" fill="url(#fill4)" fill-rule="evenodd"/><path d="M953 1048.5C953 992.995 1000.23 948 1058.5 948 1116.77 948 1164 992.995 1164 1048.5 1164 1104 1116.77 1149 1058.5 1149 1000.23 1149 953 1104 953 1048.5Z" fill="url(#fill5)" fill-rule="evenodd"/><path d="M684 817.5C684 730.515 744.442 660 819 660 893.558 660 954 730.515 954 817.5 954 904.485 893.558 975 819 975 744.442 975 684 904.485 684 817.5Z" fill="url(#fill6)" fill-rule="evenodd"/><path d="M1098 1104C1098 1088.54 1109.64 1076 1124 1076 1138.36 1076 1150 1088.54 1150 1104 1150 1119.46 1138.36 1132 1124 1132 1109.64 1132 1098 1119.46 1098 1104Z" fill="url(#fill7)" fill-rule="evenodd"/><path d="M1082 1024C1082 1007.43 1094.54 994 1110 994 1125.46 994 1138 1007.43 1138 1024 1138 1040.57 1125.46 1054 1110 1054 1094.54 1054 1082 1040.57 1082 1024Z" fill="url(#fill8)" fill-rule="evenodd"/><g clip-path="url(#clip9)"><g clip-path="url(#clip10)"><g clip-path="url(#clip11)"><path d="M1158.32 1116.76C1159.02 1100.65 1150.78 1088.87 1140.35 1077.71 1086.38 1019.96 1032.65 962.006 978.831 904.124 977.16 902.323 975.561 900.456 974.476 899.234 983.309 885.807 991.94 872.756 1000.49 859.647 1004.97 852.782 1003.92 847.24 998.161 840.874 973.311 813.391 948.844 785.546 924.703 757.433 919.646 751.544 914.481 749.873 908.151 752.991 894.29 759.827 879.669 765.788 867.226 774.708 839.598 794.509 814.35 816.993 798.456 848.123 794.542 855.784 794.911 861.152 800.988 867.858 825.636 895.045 849.842 922.651 873.701 950.54 878.975 956.704 884.27 958.375 891.02 955.3 905.084 948.898 918.938 942.032 934.209 934.726 949.423 953.079 965.831 972.793 982.159 992.564 1018.11 1036.12 1054.02 1079.72 1089.97 1123.28 1092.22 1126 1094.57 1128.63 1097.03 1131.15 1115.61 1150.17 1139.51 1147.54 1153.93 1124.96 1154.86 1123.5 1156.04 1122.2 1157.11 1120.83 1157.52 1119.47 1157.92 1118.12 1158.32 1116.76Z" stroke="#FFE300" stroke-width="4.60697" fill="#0F1113"/><path d="M937.602 752.752 1004.8 828.547C1014.4 839.369 1030.96 840.368 1041.78 830.768 1052.61 821.168 1053.61 804.608 1044.01 793.785L976.812 717.991C967.213 707.168 950.653 706.17 939.83 715.77 929.001 725.363 928.002 741.922 937.602 752.752Z" stroke="#FFE300" stroke-width="4.60697" fill="#0F1113"/><path d="M754.905 914.737 822.105 990.532C831.705 1001.35 848.265 1002.35 859.088 992.753 869.91 983.152 870.909 966.593 861.308 955.77L794.108 879.976C784.508 869.153 767.949 868.155 757.126 877.755 746.296 887.348 745.305 903.907 754.905 914.737Z" stroke="#FFE300" stroke-width="4.60697" fill="#0F1113"/><path d="M842.383 1142.5C813.084 1142.5 783.785 1142.5 754.486 1142.5 734.468 1142.5 723.957 1130.35 727.227 1110.38 727.986 1105.72 729.759 1100.92 732.226 1096.9 736.371 1090.14 743.323 1088.13 750.984 1088.14 778.504 1088.17 806.023 1088.16 833.543 1088.15 865.808 1088.13 898.066 1088.09 930.332 1088.09 950.581 1088.09 961.143 1100.71 957.851 1120.87 956.18 1131.09 951.702 1139.1 940.887 1141.8 938.282 1142.45 935.475 1142.47 932.762 1142.48 902.646 1142.52 872.515 1142.5 842.383 1142.5Z" stroke="#FFE300" stroke-width="4.60697" fill="#0F1113"/><path d="M842.087 1078.25C820.63 1078.25 799.172 1078.26 777.715 1078.24 768.282 1078.23 763.377 1074.27 761.85 1064.97 760.903 1059.19 760.997 1053.39 763.565 1047.89 765.836 1043.01 769.649 1040.46 774.981 1040.19 776.876 1040.09 778.771 1040.16 780.667 1040.16 822.634 1040.15 864.6 1040.14 906.574 1040.14 917.266 1040.14 922.613 1044.88 923.358 1055.53 923.618 1059.27 923.437 1063.16 922.663 1066.8 921.007 1074.59 916.232 1078.22 908.238 1078.24 886.188 1078.28 864.137 1078.26 842.087 1078.25Z" stroke="#FFE300" stroke-width="4.60697" fill="#0F1113"/></g></g></g></g></svg>