<svg width="550" height="550" xmlns="http://www.w3.org/2000/svg" xmlns:xlink="http://www.w3.org/1999/xlink" overflow="hidden"><defs><clipPath id="clip0"><rect x="53" y="644" width="550" height="550"/></clipPath><radialGradient cx="762000" cy="762000" r="1.07763e+06" gradientUnits="userSpaceOnUse" spreadMethod="pad" id="fill1" gradientTransform="matrix(0.000360892 0 0 0.000360892 52.9999 644)"><stop offset="0" stop-color="#FFE300"/><stop offset="0.17" stop-color="#FFE300"/><stop offset="0.33" stop-color="#E0AA00"/><stop offset="1" stop-color="#0F1113"/></radialGradient><linearGradient x1="326" y1="650" x2="326" y2="804" gradientUnits="userSpaceOnUse" spreadMethod="reflect" id="fill2"><stop offset="0" stop-color="#F5FAFF" stop-opacity="0.231373"/><stop offset="0.32" stop-color="#FFFFFF" stop-opacity="0"/><stop offset="1" stop-color="#FFFFFF" stop-opacity="0"/></linearGradient><radialGradient cx="94210.5" cy="102524" r="139236" gradientUnits="userSpaceOnUse" spreadMethod="pad" id="fill3" gradientTransform="matrix(0.000360892 0 0 0.000360892 92.0001 772)"><stop offset="0" stop-color="#FFE300"/><stop offset="0.54" stop-color="#E0AA00" stop-opacity="0"/><stop offset="1" stop-color="#E0AA00" stop-opacity="0"/></radialGradient><radialGradient cx="110836" cy="121920" r="164770" fx="110836" fy="121920" gradientUnits="userSpaceOnUse" spreadMethod="pad" id="fill4" gradientTransform="matrix(0.000360892 0 0 0.000360892 121 817)"><stop offset="0" stop-color="#FFE300"/><stop offset="0.54" stop-color="#E0AA00" stop-opacity="0"/><stop offset="1" stop-color="#E0AA00" stop-opacity="0"/></radialGradient><radialGradient cx="292331" cy="278477" r="403741" fx="292331" fy="278476" gradientUnits="userSpaceOnUse" spreadMethod="pad" id="fill5" gradientTransform="matrix(0.000360892 0 0 0.000360892 342 948)"><stop offset="0" stop-color="#FFE300"/><stop offset="0.54" stop-color="#E0AA00" stop-opacity="0"/><stop offset="1" stop-color="#E0AA00" stop-opacity="0"/></radialGradient><radialGradient cx="374073" cy="436418" r="574797" fx="374073" fy="436418" gradientUnits="userSpaceOnUse" spreadMethod="pad" id="fill6" gradientTransform="matrix(0.000360892 0 0 0.000360892 72.9999 660)"><stop offset="0" stop-color="#FFE300"/><stop offset="0.54" stop-color="#E0AA00" stop-opacity="0"/><stop offset="1" stop-color="#E0AA00" stop-opacity="0"/></radialGradient><radialGradient cx="72043.5" cy="77585.5" r="105876" fx="72043.5" fy="77585.5" gradientUnits="userSpaceOnUse" spreadMethod="pad" id="fill7" gradientTransform="matrix(0.000360892 0 0 0.000360892 487 1076)"><stop offset="0" stop-color="#FFE300"/><stop offset="0.54" stop-color="#E0AA00" stop-opacity="0"/><stop offset="1" stop-color="#E0AA00" stop-opacity="0"/></radialGradient><radialGradient cx="77585.5" cy="83127" r="113708" gradientUnits="userSpaceOnUse" spreadMethod="pad" id="fill8" gradientTransform="matrix(0.000360892 0 0 0.000360892 471 994)"><stop offset="0" stop-color="#FFE300"/><stop offset="0.54" stop-color="#E0AA00" stop-opacity="0"/><stop offset="1" stop-color="#E0AA00" stop-opacity="0"/></radialGradient><clipPath id="clip9"><rect x="262" y="660" width="331" height="330"/></clipPath><clipPath id="clip10"><rect x="262" y="660" width="331" height="330"/></clipPath><clipPath id="clip11"><rect x="262" y="660" width="331" height="330"/></clipPath></defs><g clip-path="url(#clip0)" transform="translate(-53 -644)"><rect x="52.9999" y="644" width="550" height="550" fill="url(#fill1)"/><path d="M86.7875 650 565.213 650C581.112 650 594 669.864 594 694.368L594 804C594 765.824 573.92 734.876 549.15 734.876L102.851 734.876C78.0803 734.876 58.0001 765.824 58.0001 804L58.0001 694.368C58.0001 669.864 70.8886 650 86.7875 650Z" fill="url(#fill2)" fill-rule="evenodd"/><path d="M92.0001 809C92.0001 788.565 107.222 772 126 772 144.778 772 160 788.565 160 809 160 829.435 144.778 846 126 846 107.222 846 92.0001 829.435 92.0001 809Z" fill="url(#fill3)" fill-rule="evenodd"/><path d="M121 861C121 836.7 138.909 817 161 817 183.091 817 201 836.7 201 861 201 885.301 183.091 905 161 905 138.909 905 121 885.301 121 861Z" fill="url(#fill4)" fill-rule="evenodd"/><path d="M342 1048.5C342 992.995 389.234 948 447.5 948 505.766 948 553 992.995 553 1048.5 553 1104 505.766 1149 447.5 1149 389.234 1149 342 1104 342 1048.5Z" fill="url(#fill5)" fill-rule="evenodd"/><path d="M72.9999 817.5C72.9999 730.515 133.441 660 208 660 282.558 660 343 730.515 343 817.5 343 904.485 282.558 975 208 975 133.441 975 72.9999 904.485 72.9999 817.5Z" fill="url(#fill6)" fill-rule="evenodd"/><path d="M487 1104C487 1088.54 498.641 1076 513 1076 527.359 1076 539 1088.54 539 1104 539 1119.46 527.359 1132 513 1132 498.641 1132 487 1119.46 487 1104Z" fill="url(#fill7)" fill-rule="evenodd"/><path d="M471 1024C471 1007.43 483.536 994 499 994 514.464 994 527 1007.43 527 1024 527 1040.57 514.464 1054 499 1054 483.536 1054 471 1040.57 471 1024Z" fill="url(#fill8)" fill-rule="evenodd"/><g clip-path="url(#clip9)"><g clip-path="url(#clip10)"><g clip-path="url(#clip11)"><path d="M446.906 933.281C469.25 905.781 494 871.062 496.406 831.875L537.656 831.875C534.562 883.094 496.406 924.688 446.906 933.281ZM318.344 831.875 359.594 831.875C362.344 871.062 386.75 905.781 409.094 933.281 359.594 924.688 321.437 883.094 318.344 831.875ZM409.094 716.719C386.75 744.219 362 778.938 359.594 818.125L318.344 818.125C321.437 766.906 359.594 725.312 409.094 716.719ZM434.875 831.875 482.656 831.875C479.906 867.281 456.875 899.25 434.875 926.406L434.875 831.875ZM421.125 831.875 421.125 926.406C399.125 899.25 376.094 867.281 373.344 831.875L421.125 831.875ZM434.875 723.594C456.875 750.75 479.906 782.375 482.656 818.125L434.875 818.125 434.875 723.594ZM421.125 818.125 373.344 818.125C376.094 782.719 399.125 750.75 421.125 723.594L421.125 818.125ZM537.656 818.125 496.406 818.125C494 778.938 469.25 744.219 446.906 716.719 496.406 725.312 534.562 766.906 537.656 818.125ZM428 694.375C355.812 694.375 297.375 752.812 297.375 825 297.375 897.188 355.812 955.625 428 955.625 500.187 955.625 558.625 897.188 558.625 825 558.625 752.812 500.187 694.375 428 694.375Z" stroke="#FFE300" stroke-width="4.58332" fill="#0F1113"/></g></g></g><path d="M92.5 956.001C92.5 940.26 105.26 927.5 121.001 927.5L166 927.5 166 927.5 276.25 927.5 504.999 927.5C520.74 927.5 533.5 940.26 533.5 956.001L533.5 1027.25 533.5 1027.25 533.5 1070 533.5 1070C533.5 1085.74 520.74 1098.5 504.999 1098.5L276.25 1098.5 166.464 1154.83 166 1098.5 121.001 1098.5C105.26 1098.5 92.5 1085.74 92.5 1070L92.5 1070 92.5 1027.25 92.5 1027.25Z" stroke="#FFE300" stroke-width="4.58333" stroke-miterlimit="8" fill="#0F1113" fill-rule="evenodd"/><text fill="#FFE300" font-family="Aurebesh,Aurebesh_MSFontService,sans-serif" font-weight="400" font-size="83" transform="matrix(1 0 0 1 143.626 1041)">hell<tspan font-size="83" x="257.813" y="0">o</tspan></text></g></svg>