<svg width="550" height="550" xmlns="http://www.w3.org/2000/svg" xmlns:xlink="http://www.w3.org/1999/xlink" overflow="hidden"><defs><clipPath id="clip0"><rect x="664" y="1216" width="550" height="550"/></clipPath><radialGradient cx="762000" cy="762000" r="1.07763e+06" gradientUnits="userSpaceOnUse" spreadMethod="pad" id="fill1" gradientTransform="matrix(0.000360892 0 0 0.000360892 664 1216)"><stop offset="0" stop-color="#FFE300"/><stop offset="0.17" stop-color="#FFE300"/><stop offset="0.33" stop-color="#E0AA00"/><stop offset="1" stop-color="#0F1113"/></radialGradient><linearGradient x1="937.5" y1="1221" x2="937.5" y2="1376" gradientUnits="userSpaceOnUse" spreadMethod="reflect" id="fill2"><stop offset="0" stop-color="#F5FAFF" stop-opacity="0.231373"/><stop offset="0.32" stop-color="#FFFFFF" stop-opacity="0"/><stop offset="1" stop-color="#FFFFFF" stop-opacity="0"/></linearGradient><radialGradient cx="94211" cy="102524" r="139236" gradientUnits="userSpaceOnUse" spreadMethod="pad" id="fill3" gradientTransform="matrix(0.000360892 0 0 0.000360892 703 1344)"><stop offset="0" stop-color="#FFE300"/><stop offset="0.54" stop-color="#E0AA00" stop-opacity="0"/><stop offset="1" stop-color="#E0AA00" stop-opacity="0"/></radialGradient><radialGradient cx="112222" cy="120534" r="164689" gradientUnits="userSpaceOnUse" spreadMethod="pad" id="fill4" gradientTransform="matrix(0.000360892 0 0 0.000360892 732 1389)"><stop offset="0" stop-color="#FFE300"/><stop offset="0.54" stop-color="#E0AA00" stop-opacity="0"/><stop offset="1" stop-color="#E0AA00" stop-opacity="0"/></radialGradient><radialGradient cx="293717" cy="278477" r="404745" fx="293716" fy="278476" gradientUnits="userSpaceOnUse" spreadMethod="pad" id="fill5" gradientTransform="matrix(0.000360892 0 0 0.000360892 953 1520)"><stop offset="0" stop-color="#FFE300"/><stop offset="0.54" stop-color="#E0AA00" stop-opacity="0"/><stop offset="1" stop-color="#E0AA00" stop-opacity="0"/></radialGradient><radialGradient cx="374072" cy="436418" r="574796" fx="374072" fy="436418" gradientUnits="userSpaceOnUse" spreadMethod="pad" id="fill6" gradientTransform="matrix(0.000360892 0 0 0.000360892 685 1232)"><stop offset="0" stop-color="#FFE300"/><stop offset="0.54" stop-color="#E0AA00" stop-opacity="0"/><stop offset="1" stop-color="#E0AA00" stop-opacity="0"/></radialGradient><radialGradient cx="72043.5" cy="77585.5" r="105876" fx="72043.5" fy="77585.5" gradientUnits="userSpaceOnUse" spreadMethod="pad" id="fill7" gradientTransform="matrix(0.000360892 0 0 0.000360892 1099 1648)"><stop offset="0" stop-color="#FFE300"/><stop offset="0.54" stop-color="#E0AA00" stop-opacity="0"/><stop offset="1" stop-color="#E0AA00" stop-opacity="0"/></radialGradient><radialGradient cx="77585" cy="84512.5" r="114725" fx="77585" fy="84512.5" gradientUnits="userSpaceOnUse" spreadMethod="pad" id="fill8" gradientTransform="matrix(0.000360892 0 0 0.000360892 1083 1565)"><stop offset="0" stop-color="#FFE300"/><stop offset="0.54" stop-color="#E0AA00" stop-opacity="0"/><stop offset="1" stop-color="#E0AA00" stop-opacity="0"/></radialGradient><clipPath id="clip9"><rect x="697" y="1259" width="486" height="487"/></clipPath><clipPath id="clip10"><rect x="697" y="1259" width="486" height="487"/></clipPath><clipPath id="clip11"><rect x="697" y="1259" width="486" height="487"/></clipPath></defs><g clip-path="url(#clip0)" transform="translate(-664 -1216)"><rect x="664" y="1216" width="550" height="550" fill="url(#fill1)"/><path d="M698.734 1221 1176.27 1221C1192.14 1221 1205 1240.99 1205 1265.66L1205 1376C1205 1337.58 1184.96 1306.43 1160.23 1306.43L714.767 1306.43C690.043 1306.43 670 1337.58 670 1376L670 1265.66C670 1240.99 682.864 1221 698.734 1221Z" fill="url(#fill2)" fill-rule="evenodd"/><path d="M703 1381C703 1360.57 718.222 1344 737 1344 755.778 1344 771 1360.57 771 1381 771 1401.43 755.778 1418 737 1418 718.222 1418 703 1401.43 703 1381Z" fill="url(#fill3)" fill-rule="evenodd"/><path d="M732 1432.5C732 1408.48 750.132 1389 772.5 1389 794.867 1389 813 1408.48 813 1432.5 813 1456.52 794.867 1476 772.5 1476 750.132 1476 732 1456.52 732 1432.5Z" fill="url(#fill4)" fill-rule="evenodd"/><path d="M953 1620.5C953 1565 1000.46 1520 1059 1520 1117.54 1520 1165 1565 1165 1620.5 1165 1676 1117.54 1721 1059 1721 1000.46 1721 953 1676 953 1620.5Z" fill="url(#fill5)" fill-rule="evenodd"/><path d="M685 1389.5C685 1302.52 745.442 1232 820 1232 894.558 1232 955 1302.52 955 1389.5 955 1476.48 894.558 1547 820 1547 745.442 1547 685 1476.48 685 1389.5Z" fill="url(#fill6)" fill-rule="evenodd"/><path d="M1099 1676C1099 1660.54 1110.64 1648 1125 1648 1139.36 1648 1151 1660.54 1151 1676 1151 1691.46 1139.36 1704 1125 1704 1110.64 1704 1099 1691.46 1099 1676Z" fill="url(#fill7)" fill-rule="evenodd"/><path d="M1083 1595.5C1083 1578.66 1095.54 1565 1111 1565 1126.46 1565 1139 1578.66 1139 1595.5 1139 1612.34 1126.46 1626 1111 1626 1095.54 1626 1083 1612.34 1083 1595.5Z" fill="url(#fill8)" fill-rule="evenodd"/><g clip-path="url(#clip9)"><g clip-path="url(#clip10)"><g clip-path="url(#clip11)"><path d="M243 106.312 293.195 106.312 243 256.972 192.805 106.312ZM202.449 91.1249 243 55.6622 283.55 91.1249 202.449 91.1249ZM309.217 106.312 392.749 106.312 261.453 249.606ZM322.051 91.1249 356.906 56.2696 391.761 91.1249ZM303.75 88.3153 263.199 53.1562 338.605 53.1562ZM183.009 88.3153 147.395 53.1562 222.8 53.1562ZM163.949 91.1249 94.2384 91.1249 129.094 56.2696ZM176.782 106.312 224.547 249.606 93.1753 106.312ZM68.3437 432.843 68.3437 334.125 97.9593 334.125 98.7187 432.843ZM221.965 432.843 113.906 432.843 113.906 330.328C122.515 317.96 136.815 310.81 151.875 311.344L235.406 311.344C240.918 311.591 246.153 313.831 250.138 317.646 254.446 322.132 257.121 327.936 257.732 334.125L197.437 334.125 197.437 349.312 265.25 349.312 391.078 349.844C399.47 349.59 407.723 352.039 414.618 356.83 416.648 358.825 417.75 361.579 417.656 364.424 417.656 401.557 328.05 432.843 221.965 432.843Z" stroke="#FFE300" stroke-width="4.59574" fill="#0F1113" transform="matrix(1 0 0 1 697 1260)"/></g></g></g></g></svg>