<svg width="550" height="550" xmlns="http://www.w3.org/2000/svg" xmlns:xlink="http://www.w3.org/1999/xlink" overflow="hidden"><defs><clipPath id="clip0"><rect x="2527" y="55" width="550" height="550"/></clipPath><radialGradient cx="762000" cy="762000" r="1.07763e+06" gradientUnits="userSpaceOnUse" spreadMethod="pad" id="fill1" gradientTransform="matrix(0.000360892 0 0 0.000360892 2527 55)"><stop offset="0" stop-color="#FFE300"/><stop offset="0.17" stop-color="#FFE300"/><stop offset="0.33" stop-color="#E0AA00"/><stop offset="1" stop-color="#0F1113"/></radialGradient><linearGradient x1="2800.5" y1="60.9998" x2="2800.5" y2="215" gradientUnits="userSpaceOnUse" spreadMethod="reflect" id="fill2"><stop offset="0" stop-color="#F5FAFF" stop-opacity="0.231373"/><stop offset="0.32" stop-color="#FFFFFF" stop-opacity="0"/><stop offset="1" stop-color="#FFFFFF" stop-opacity="0"/></linearGradient><radialGradient cx="94211" cy="101138" r="138220" gradientUnits="userSpaceOnUse" spreadMethod="pad" id="fill3" gradientTransform="matrix(0.000360892 0 0 0.000360892 2566 184)"><stop offset="0" stop-color="#FFE300"/><stop offset="0.54" stop-color="#E0AA00" stop-opacity="0"/><stop offset="1" stop-color="#E0AA00" stop-opacity="0"/></radialGradient><radialGradient cx="112222" cy="120534" r="164689" gradientUnits="userSpaceOnUse" spreadMethod="pad" id="fill4" gradientTransform="matrix(0.000360892 0 0 0.000360892 2595 229)"><stop offset="0" stop-color="#FFE300"/><stop offset="0.54" stop-color="#E0AA00" stop-opacity="0"/><stop offset="1" stop-color="#E0AA00" stop-opacity="0"/></radialGradient><radialGradient cx="293717" cy="278477" r="404745" fx="293716" fy="278476" gradientUnits="userSpaceOnUse" spreadMethod="pad" id="fill5" gradientTransform="matrix(0.000360892 0 0 0.000360892 2816 360)"><stop offset="0" stop-color="#FFE300"/><stop offset="0.54" stop-color="#E0AA00" stop-opacity="0"/><stop offset="1" stop-color="#E0AA00" stop-opacity="0"/></radialGradient><radialGradient cx="374073" cy="437804" r="575849" gradientUnits="userSpaceOnUse" spreadMethod="pad" id="fill6" gradientTransform="matrix(0.000360892 0 0 0.000360892 2548 71.0002)"><stop offset="0" stop-color="#FFE300"/><stop offset="0.54" stop-color="#E0AA00" stop-opacity="0"/><stop offset="1" stop-color="#E0AA00" stop-opacity="0"/></radialGradient><radialGradient cx="72043.5" cy="77585.5" r="105876" fx="72043.5" fy="77585.5" gradientUnits="userSpaceOnUse" spreadMethod="pad" id="fill7" gradientTransform="matrix(0.000360892 0 0 0.000360892 2962 488)"><stop offset="0" stop-color="#FFE300"/><stop offset="0.54" stop-color="#E0AA00" stop-opacity="0"/><stop offset="1" stop-color="#E0AA00" stop-opacity="0"/></radialGradient><radialGradient cx="77585.5" cy="84513" r="114726" fx="77585.5" fy="84513" gradientUnits="userSpaceOnUse" spreadMethod="pad" id="fill8" gradientTransform="matrix(0.000360892 0 0 0.000360892 2946 405)"><stop offset="0" stop-color="#FFE300"/><stop offset="0.54" stop-color="#E0AA00" stop-opacity="0"/><stop offset="1" stop-color="#E0AA00" stop-opacity="0"/></radialGradient><clipPath id="clip9"><rect x="2559" y="90" width="485" height="485"/></clipPath><clipPath id="clip10"><rect x="2559" y="90" width="485" height="485"/></clipPath><clipPath id="clip11"><rect x="2559" y="90" width="485" height="485"/></clipPath></defs><g clip-path="url(#clip0)" transform="translate(-2527 -55)"><rect x="2527" y="55" width="550" height="550" fill="url(#fill1)"/><path d="M2561.73 60.9998 3039.27 60.9998C3055.14 60.9998 3068 80.8638 3068 105.367L3068 215C3068 176.824 3047.96 145.876 3023.23 145.876L2577.77 145.876C2553.04 145.876 2533 176.824 2533 215L2533 105.367C2533 80.8638 2545.86 60.9998 2561.73 60.9998Z" fill="url(#fill2)" fill-rule="evenodd"/><path d="M2566 220.5C2566 200.342 2581.22 184 2600 184 2618.78 184 2634 200.342 2634 220.5 2634 240.658 2618.78 257 2600 257 2581.22 257 2566 240.658 2566 220.5Z" fill="url(#fill3)" fill-rule="evenodd"/><path d="M2595 272.5C2595 248.476 2613.13 229 2635.5 229 2657.87 229 2676 248.476 2676 272.5 2676 296.524 2657.87 316 2635.5 316 2613.13 316 2595 296.524 2595 272.5Z" fill="url(#fill4)" fill-rule="evenodd"/><path d="M2816 460.5C2816 404.995 2863.46 360 2922 360 2980.54 360 3028 404.995 3028 460.5 3028 516.005 2980.54 561 2922 561 2863.46 561 2816 516.005 2816 460.5Z" fill="url(#fill5)" fill-rule="evenodd"/><path d="M2548 229C2548 141.739 2608.44 71.0002 2683 71.0002 2757.56 71.0002 2818 141.739 2818 229 2818 316.261 2757.56 387 2683 387 2608.44 387 2548 316.261 2548 229Z" fill="url(#fill6)" fill-rule="evenodd"/><path d="M2962 516C2962 500.536 2973.64 488 2988 488 3002.36 488 3014 500.536 3014 516 3014 531.464 3002.36 544 2988 544 2973.64 544 2962 531.464 2962 516Z" fill="url(#fill7)" fill-rule="evenodd"/><path d="M2946 435.5C2946 418.655 2958.54 405 2974 405 2989.46 405 3002 418.655 3002 435.5 3002 452.345 2989.46 466 2974 466 2958.54 466 2946 452.345 2946 435.5Z" fill="url(#fill8)" fill-rule="evenodd"/><g clip-path="url(#clip9)"><g clip-path="url(#clip10)"><g clip-path="url(#clip11)"><path d="M2982.45 382.413 2973.42 382.413C2962.28 382.414 2953.25 391.443 2953.25 402.58L2953.25 500.779 2907.83 449.678C2900.43 441.354 2887.68 440.605 2879.35 448.005 2877.66 449.514 2876.23 451.297 2875.12 453.282L2824.71 544.032C2819.23 553.733 2822.66 566.033 2832.36 571.506 2842.06 576.978 2854.36 573.551 2859.84 563.851 2859.88 563.776 2859.92 563.702 2859.96 563.628L2896.57 497.731 2958.34 567.232C2958.48 567.387 2958.65 567.493 2958.79 567.643 2959.27 568.133 2959.78 568.6 2960.31 569.039 2960.8 569.46 2961.27 569.896 2961.79 570.26 2962.31 570.634 2962.88 570.934 2963.44 571.257 2964.01 571.585 2964.57 571.931 2965.17 572.2 2965.75 572.461 2966.36 572.642 2966.97 572.847 2967.6 573.077 2968.23 573.274 2968.87 573.438 2969.48 573.578 2970.1 573.643 2970.72 573.726 2971.42 573.832 2972.12 573.903 2972.82 573.938 2973.02 573.942 2973.21 573.997 2973.42 573.997L3023.83 573.997C3034.97 573.997 3044 564.968 3044 553.83L3044 443.965C3044 409.971 3016.44 382.414 2982.45 382.413 2982.45 382.413 2982.45 382.413 2982.45 382.413Z" stroke="#FFE300" stroke-width="5.2043" fill="#0F1113"/><path d="M2953.25 347.122C2953.25 366.613 2937.45 382.413 2917.96 382.413 2898.47 382.413 2882.67 366.613 2882.67 347.122 2882.67 327.63 2898.47 311.83 2917.96 311.83 2937.45 311.83 2953.25 327.63 2953.25 347.122Z" stroke="#FFE300" stroke-width="5.2043" fill="#0F1113"/><path d="M2691.08 190.83C2615.13 190.83 2560 241.719 2560 311.83 2560 322.968 2569.03 331.997 2580.17 331.997 2591.3 331.997 2600.33 322.968 2600.33 311.83 2599.77 283.192 2615.37 256.673 2640.67 243.246L2640.67 383.465C2640.67 383.757 2640.74 384.029 2640.75 384.314 2640.74 384.602 2640.67 384.873 2640.67 385.163L2640.67 553.83C2640.67 564.968 2649.7 573.997 2660.83 573.997 2671.97 573.997 2681 564.968 2681 553.83L2681 402.58 2701.17 402.58 2701.17 553.83C2701.17 564.968 2710.2 573.997 2721.33 573.997 2732.47 573.997 2741.5 564.968 2741.5 553.83L2741.5 385.163C2741.5 384.873 2741.43 384.601 2741.41 384.314 2741.43 384.029 2741.5 383.757 2741.5 383.464L2741.5 243.245C2766.8 256.673 2782.4 283.192 2781.83 311.83 2781.83 322.968 2790.86 331.997 2802 331.997 2813.14 331.997 2822.17 322.968 2822.17 311.83 2822.17 241.719 2767.03 190.83 2691.08 190.83Z" stroke="#FFE300" stroke-width="5.2043" fill="#0F1113"/><path d="M2791.92 140.413C2791.92 162.689 2773.86 180.747 2751.58 180.747 2729.31 180.747 2711.25 162.689 2711.25 140.413 2711.25 118.138 2729.31 100.08 2751.58 100.08 2773.86 100.08 2791.92 118.138 2791.92 140.413Z" stroke="#FFE300" stroke-width="5.2043" fill="#0F1113"/><path d="M2892.75 175.705C2892.75 184.057 2899.52 190.828 2907.88 190.83L2948.21 190.83C2956.56 190.83 2963.33 184.058 2963.33 175.705 2963.33 167.352 2956.56 160.58 2948.21 160.58L2907.88 160.58C2899.52 160.582 2892.75 167.353 2892.75 175.705Z" stroke="#FFE300" stroke-width="5.2043" fill="#0F1113"/><path d="M2860.78 158.985C2868.25 162.718 2877.33 159.69 2881.07 152.22L2901.24 111.887C2904.99 104.42 2901.97 95.3292 2894.51 91.5809 2887.04 87.8326 2877.95 90.8465 2874.2 98.3127 2874.19 98.3274 2874.19 98.3421 2874.18 98.3568L2854.01 138.69C2850.28 146.163 2853.31 155.247 2860.78 158.985Z" stroke="#FFE300" stroke-width="5.2043" fill="#0F1113"/><path d="M2874.18 253.053C2877.9 260.532 2886.98 263.575 2894.46 259.851 2901.94 256.128 2904.98 247.046 2901.26 239.568 2901.25 239.553 2901.25 239.538 2901.24 239.523L2881.07 199.19C2877.35 191.712 2868.27 188.668 2860.79 192.392 2853.31 196.117 2850.27 205.198 2853.99 212.675 2854 212.691 2854 212.706 2854.01 212.72Z" stroke="#FFE300" stroke-width="5.2043" fill="#0F1113"/></g></g></g></g></svg>