<svg width="550" height="550" xmlns="http://www.w3.org/2000/svg" xmlns:xlink="http://www.w3.org/1999/xlink" overflow="hidden"><defs><clipPath id="clip0"><rect x="1286" y="644" width="550" height="550"/></clipPath><radialGradient cx="762000" cy="762000" r="1.07763e+06" gradientUnits="userSpaceOnUse" spreadMethod="pad" id="fill1" gradientTransform="matrix(0.000360892 0 0 0.000360892 1286 644)"><stop offset="0" stop-color="#FFE300"/><stop offset="0.17" stop-color="#FFE300"/><stop offset="0.33" stop-color="#E0AA00"/><stop offset="1" stop-color="#0F1113"/></radialGradient><linearGradient x1="1559.5" y1="650" x2="1559.5" y2="804" gradientUnits="userSpaceOnUse" spreadMethod="reflect" id="fill2"><stop offset="0" stop-color="#F5FAFF" stop-opacity="0.231373"/><stop offset="0.32" stop-color="#FFFFFF" stop-opacity="0"/><stop offset="1" stop-color="#FFFFFF" stop-opacity="0"/></linearGradient><radialGradient cx="94210.5" cy="102524" r="139236" gradientUnits="userSpaceOnUse" spreadMethod="pad" id="fill3" gradientTransform="matrix(0.000360892 0 0 0.000360892 1325 772)"><stop offset="0" stop-color="#FFE300"/><stop offset="0.54" stop-color="#E0AA00" stop-opacity="0"/><stop offset="1" stop-color="#E0AA00" stop-opacity="0"/></radialGradient><radialGradient cx="112222" cy="121920" r="165705" fx="112222" fy="121920" gradientUnits="userSpaceOnUse" spreadMethod="pad" id="fill4" gradientTransform="matrix(0.000360892 0 0 0.000360892 1354 817)"><stop offset="0" stop-color="#FFE300"/><stop offset="0.54" stop-color="#E0AA00" stop-opacity="0"/><stop offset="1" stop-color="#E0AA00" stop-opacity="0"/></radialGradient><radialGradient cx="293717" cy="278477" r="404745" fx="293716" fy="278476" gradientUnits="userSpaceOnUse" spreadMethod="pad" id="fill5" gradientTransform="matrix(0.000360892 0 0 0.000360892 1575 948)"><stop offset="0" stop-color="#FFE300"/><stop offset="0.54" stop-color="#E0AA00" stop-opacity="0"/><stop offset="1" stop-color="#E0AA00" stop-opacity="0"/></radialGradient><radialGradient cx="374073" cy="436418" r="574797" fx="374073" fy="436418" gradientUnits="userSpaceOnUse" spreadMethod="pad" id="fill6" gradientTransform="matrix(0.000360892 0 0 0.000360892 1307 660)"><stop offset="0" stop-color="#FFE300"/><stop offset="0.54" stop-color="#E0AA00" stop-opacity="0"/><stop offset="1" stop-color="#E0AA00" stop-opacity="0"/></radialGradient><radialGradient cx="70658" cy="77585.5" r="104938" gradientUnits="userSpaceOnUse" spreadMethod="pad" id="fill7" gradientTransform="matrix(0.000360892 0 0 0.000360892 1721 1076)"><stop offset="0" stop-color="#FFE300"/><stop offset="0.54" stop-color="#E0AA00" stop-opacity="0"/><stop offset="1" stop-color="#E0AA00" stop-opacity="0"/></radialGradient><radialGradient cx="77585.5" cy="83127" r="113708" gradientUnits="userSpaceOnUse" spreadMethod="pad" id="fill8" gradientTransform="matrix(0.000360892 0 0 0.000360892 1705 994)"><stop offset="0" stop-color="#FFE300"/><stop offset="0.54" stop-color="#E0AA00" stop-opacity="0"/><stop offset="1" stop-color="#E0AA00" stop-opacity="0"/></radialGradient><clipPath id="clip9"><rect x="1314" y="665" width="476" height="477"/></clipPath><clipPath id="clip10"><rect x="1314" y="665" width="476" height="477"/></clipPath><clipPath id="clip11"><rect x="1314" y="665" width="476" height="477"/></clipPath></defs><g clip-path="url(#clip0)" transform="translate(-1286 -644)"><rect x="1286" y="644" width="550" height="550" fill="url(#fill1)"/><path d="M1320.73 650 1798.27 650C1814.14 650 1827 669.864 1827 694.368L1827 804C1827 765.824 1806.96 734.876 1782.23 734.876L1336.77 734.876C1312.04 734.876 1292 765.824 1292 804L1292 694.368C1292 669.864 1304.86 650 1320.73 650Z" fill="url(#fill2)" fill-rule="evenodd"/><path d="M1325 809C1325 788.565 1340.22 772 1359 772 1377.78 772 1393 788.565 1393 809 1393 829.435 1377.78 846 1359 846 1340.22 846 1325 829.435 1325 809Z" fill="url(#fill3)" fill-rule="evenodd"/><path d="M1354 861C1354 836.7 1372.13 817 1394.5 817 1416.87 817 1435 836.7 1435 861 1435 885.301 1416.87 905 1394.5 905 1372.13 905 1354 885.301 1354 861Z" fill="url(#fill4)" fill-rule="evenodd"/><path d="M1575 1048.5C1575 992.995 1622.46 948 1681 948 1739.54 948 1787 992.995 1787 1048.5 1787 1104 1739.54 1149 1681 1149 1622.46 1149 1575 1104 1575 1048.5Z" fill="url(#fill5)" fill-rule="evenodd"/><path d="M1307 817.5C1307 730.515 1367.44 660 1442 660 1516.56 660 1577 730.515 1577 817.5 1577 904.485 1516.56 975 1442 975 1367.44 975 1307 904.485 1307 817.5Z" fill="url(#fill6)" fill-rule="evenodd"/><path d="M1721 1104C1721 1088.54 1732.42 1076 1746.5 1076 1760.58 1076 1772 1088.54 1772 1104 1772 1119.46 1760.58 1132 1746.5 1132 1732.42 1132 1721 1119.46 1721 1104Z" fill="url(#fill7)" fill-rule="evenodd"/><path d="M1705 1024C1705 1007.43 1717.54 994 1733 994 1748.46 994 1761 1007.43 1761 1024 1761 1040.57 1748.46 1054 1733 1054 1717.54 1054 1705 1040.57 1705 1024Z" fill="url(#fill8)" fill-rule="evenodd"/><g clip-path="url(#clip9)"><g clip-path="url(#clip10)"><g clip-path="url(#clip11)"><path d="M420.022 136.898C420.022 152.066 407.726 164.363 392.557 164.363 377.388 164.363 365.092 152.066 365.092 136.898 365.092 121.729 377.388 109.432 392.557 109.432 407.726 109.432 420.022 121.729 420.022 136.898Z" stroke="#FFE300" stroke-width="4.59903" fill="#0F1113" transform="matrix(1 0 0 1 1314 666)"/><path d="M393.271 269.416C382.515 261.066 371.244 253.403 359.523 246.473 347.123 184.61 286.922 144.512 225.06 156.911 207.157 160.5 190.375 168.327 176.12 179.737 161.277 177.281 146.275 175.913 131.233 175.644 128.722 162.42 115.967 153.736 102.743 156.247 91.3039 158.419 82.9991 168.38 82.9192 180.023 82.9658 180.9 83.0615 181.774 83.2048 182.641 73.9789 185.621 66.4743 192.415 62.594 201.3 56.0728 219.198 69.972 242.807 101.721 267.94 112.447 276.271 123.687 283.918 135.374 290.836 147.481 352.756 207.492 393.138 269.413 381.032 287.792 377.438 305.005 369.382 319.539 357.571 335.066 360.188 350.774 361.588 366.52 361.76 401.839 361.76 426.353 353.239 432.589 336.008 438.824 318.777 425.02 294.406 393.271 269.416ZM107.338 162.364C117.091 162.364 124.998 170.27 124.998 180.023 124.998 189.776 117.091 197.683 107.338 197.683 97.5847 197.683 89.6784 189.776 89.6784 180.023 89.6784 170.27 97.5847 162.364 107.338 162.364ZM423.64 332.629C414.12 359.047 333.2 361.617 227.766 323.109 180.166 305.735 137.326 283.363 107.814 260.086 79.7776 238.381 66.64 218.103 71.4 204.68 74.1712 198.559 79.3339 193.844 85.68 191.637 91.9498 203.488 106.639 208.013 118.49 201.743 124.947 198.327 129.522 192.185 130.948 185.021 142.945 185.256 154.916 186.242 166.79 187.972 145.734 208.946 133.708 237.319 133.28 267.036 164.588 286.958 198.039 303.292 233.002 315.731 266.368 327.911 300.977 336.371 336.199 340.959 352.768 320.618 361.798 295.176 361.76 268.94 361.76 265.513 361.76 262.085 361.284 258.706 370.309 264.302 379.032 270.372 387.416 276.889 415.262 298.785 428.4 318.92 423.64 332.629Z" stroke="#FFE300" stroke-width="4.59903" fill="#0F1113" transform="matrix(1 0 0 1 1314 666)"/></g></g></g></g></svg>