<svg width="550" height="550" xmlns="http://www.w3.org/2000/svg" xmlns:xlink="http://www.w3.org/1999/xlink" overflow="hidden"><defs><clipPath id="clip0"><rect x="1284" y="55" width="550" height="550"/></clipPath><radialGradient cx="762000" cy="762000" r="1.07763e+06" gradientUnits="userSpaceOnUse" spreadMethod="pad" id="fill1" gradientTransform="matrix(0.000360892 0 0 0.000360892 1284 55)"><stop offset="0" stop-color="#FFE300"/><stop offset="0.17" stop-color="#FFE300"/><stop offset="0.33" stop-color="#E0AA00"/><stop offset="1" stop-color="#0F1113"/></radialGradient><linearGradient x1="1557.5" y1="60.9998" x2="1557.5" y2="215" gradientUnits="userSpaceOnUse" spreadMethod="reflect" id="fill2"><stop offset="0" stop-color="#F5FAFF" stop-opacity="0.231373"/><stop offset="0.32" stop-color="#FFFFFF" stop-opacity="0"/><stop offset="1" stop-color="#FFFFFF" stop-opacity="0"/></linearGradient><radialGradient cx="94211" cy="101138" r="138220" gradientUnits="userSpaceOnUse" spreadMethod="pad" id="fill3" gradientTransform="matrix(0.000360892 0 0 0.000360892 1323 184)"><stop offset="0" stop-color="#FFE300"/><stop offset="0.54" stop-color="#E0AA00" stop-opacity="0"/><stop offset="1" stop-color="#E0AA00" stop-opacity="0"/></radialGradient><radialGradient cx="110836" cy="120534" r="163748" gradientUnits="userSpaceOnUse" spreadMethod="pad" id="fill4" gradientTransform="matrix(0.000360892 0 0 0.000360892 1352 229)"><stop offset="0" stop-color="#FFE300"/><stop offset="0.54" stop-color="#E0AA00" stop-opacity="0"/><stop offset="1" stop-color="#E0AA00" stop-opacity="0"/></radialGradient><radialGradient cx="292331" cy="278477" r="403741" fx="292331" fy="278476" gradientUnits="userSpaceOnUse" spreadMethod="pad" id="fill5" gradientTransform="matrix(0.000360892 0 0 0.000360892 1573 360)"><stop offset="0" stop-color="#FFE300"/><stop offset="0.54" stop-color="#E0AA00" stop-opacity="0"/><stop offset="1" stop-color="#E0AA00" stop-opacity="0"/></radialGradient><radialGradient cx="374073" cy="437804" r="575849" gradientUnits="userSpaceOnUse" spreadMethod="pad" id="fill6" gradientTransform="matrix(0.000360892 0 0 0.000360892 1304 71.0002)"><stop offset="0" stop-color="#FFE300"/><stop offset="0.54" stop-color="#E0AA00" stop-opacity="0"/><stop offset="1" stop-color="#E0AA00" stop-opacity="0"/></radialGradient><radialGradient cx="70658" cy="77585.5" r="104938" gradientUnits="userSpaceOnUse" spreadMethod="pad" id="fill7" gradientTransform="matrix(0.000360892 0 0 0.000360892 1719 488)"><stop offset="0" stop-color="#FFE300"/><stop offset="0.54" stop-color="#E0AA00" stop-opacity="0"/><stop offset="1" stop-color="#E0AA00" stop-opacity="0"/></radialGradient><radialGradient cx="77585.5" cy="84513" r="114726" fx="77585.5" fy="84513" gradientUnits="userSpaceOnUse" spreadMethod="pad" id="fill8" gradientTransform="matrix(0.000360892 0 0 0.000360892 1702 405)"><stop offset="0" stop-color="#FFE300"/><stop offset="0.54" stop-color="#E0AA00" stop-opacity="0"/><stop offset="1" stop-color="#E0AA00" stop-opacity="0"/></radialGradient><clipPath id="clip9"><rect x="1380" y="95" width="344" height="345"/></clipPath><clipPath id="clip10"><rect x="1380" y="95" width="344" height="345"/></clipPath><clipPath id="clip11"><rect x="1380" y="95" width="344" height="345"/></clipPath><clipPath id="clip12"><rect x="1345" y="140" width="425" height="427"/></clipPath><clipPath id="clip13"><rect x="1345" y="140" width="425" height="427"/></clipPath><clipPath id="clip14"><rect x="1345" y="140" width="425" height="427"/></clipPath></defs><g clip-path="url(#clip0)" transform="translate(-1284 -55)"><rect x="1284" y="55" width="550" height="550" fill="url(#fill1)"/><path d="M1318.73 60.9998 1796.27 60.9998C1812.14 60.9998 1825 80.8638 1825 105.367L1825 215C1825 176.824 1804.96 145.876 1780.23 145.876L1334.77 145.876C1310.04 145.876 1290 176.824 1290 215L1290 105.367C1290 80.8638 1302.86 60.9998 1318.73 60.9998Z" fill="url(#fill2)" fill-rule="evenodd"/><path d="M1323 220.5C1323 200.342 1338.22 184 1357 184 1375.78 184 1391 200.342 1391 220.5 1391 240.658 1375.78 257 1357 257 1338.22 257 1323 240.658 1323 220.5Z" fill="url(#fill3)" fill-rule="evenodd"/><path d="M1352 272.5C1352 248.476 1369.91 229 1392 229 1414.09 229 1432 248.476 1432 272.5 1432 296.524 1414.09 316 1392 316 1369.91 316 1352 296.524 1352 272.5Z" fill="url(#fill4)" fill-rule="evenodd"/><path d="M1573 460.5C1573 404.995 1620.23 360 1678.5 360 1736.77 360 1784 404.995 1784 460.5 1784 516.005 1736.77 561 1678.5 561 1620.23 561 1573 516.005 1573 460.5Z" fill="url(#fill5)" fill-rule="evenodd"/><path d="M1304 229C1304 141.739 1364.44 71.0002 1439 71.0002 1513.56 71.0002 1574 141.739 1574 229 1574 316.261 1513.56 387 1439 387 1364.44 387 1304 316.261 1304 229Z" fill="url(#fill6)" fill-rule="evenodd"/><path d="M1719 516C1719 500.536 1730.42 488 1744.5 488 1758.58 488 1770 500.536 1770 516 1770 531.464 1758.58 544 1744.5 544 1730.42 544 1719 531.464 1719 516Z" fill="url(#fill7)" fill-rule="evenodd"/><path d="M1702 435.5C1702 418.655 1714.54 405 1730 405 1745.46 405 1758 418.655 1758 435.5 1758 452.345 1745.46 466 1730 466 1714.54 466 1702 452.345 1702 435.5Z" fill="url(#fill8)" fill-rule="evenodd"/><g clip-path="url(#clip9)"><g clip-path="url(#clip10)"><g clip-path="url(#clip11)"><path d="M270.16 136.637C269.231 86.7223 228.364 46.3712 178.243 46.3712 136.275 46.3712 100.844 74.6135 89.8355 113.073L83.3339 113.073 83.3339 49.8112 76.4539 49.8112 76.4539 113.073 63.9668 113.073 63.9668 236.19 77.7267 236.19 76.4195 251.292 152.237 297.629 204.215 297.629 280.033 251.292 270.16 136.637ZM225.303 109.805C224.615 110.458 223.755 110.802 222.86 110.802 221.966 110.802 221.106 110.458 220.418 109.805L202.908 92.2951C201.567 90.9191 201.567 88.7519 202.908 87.4103 204.25 86.0687 206.451 86.0687 207.793 87.4103L225.303 104.92C226.644 106.262 226.644 108.463 225.303 109.805ZM187.875 92.3295C189.217 90.9879 191.384 90.9879 192.726 92.3295L204.525 104.129C205.867 105.47 205.867 107.638 204.525 108.979 203.837 109.667 202.943 110.011 202.083 110.011 201.188 110.011 200.328 109.667 199.64 108.979L187.875 97.2143C186.534 95.8727 186.534 93.6711 187.875 92.3295ZM206.383 288.237 206.383 192.743 257.157 171.243 257.157 148.298 178.243 148.298 177.934 148.298 98.9859 148.298 98.9859 171.243 149.76 192.743 149.76 288.031 140.541 282.389C144.6 256.211 136.998 230.136 118.388 206.778 106.623 192.089 94.0667 182.767 89.5259 179.637L92.2779 147.713 92.7939 141.556 263.659 141.556 266.961 179.843C262.179 183.18 249.899 192.399 238.409 206.778 219.833 230.067 212.231 256.108 216.221 282.217L206.383 288.237Z" stroke="#FFE300" stroke-width="4.58665" fill="#0F1113" transform="matrix(1 0 0 1 1380 95.9999)"/></g></g></g><g clip-path="url(#clip12)"><g clip-path="url(#clip13)"><g clip-path="url(#clip14)"><path d="M386.453 287.019 284.754 248.534C284.754 247.337 257.835 296.79 236.498 336.074 235.845 313.241 230.339 290.809 220.345 270.269L200.405 270.269C190.177 290.672 184.528 313.061 183.854 335.875 162.118 295.994 134.799 248.136 134.799 248.733L35.0945 286.82C35.0945 286.82 19.1417 286.82 15.1535 312.943 13.5582 327.699 12.7606 343.053 12.3618 352.824 12.5739 361.922 18.4805 369.905 27.118 372.765 50.2496 380.741 103.292 392.708 209.777 393.902 316.26 395.099 369.305 380.741 392.436 372.765 401.074 369.902 406.981 361.922 407.193 352.824 407.193 342.057 406.195 326.701 404.4 312.943 402.606 286.222 386.453 287.019 386.453 287.019Z" stroke="#FFE300" stroke-width="4.59326" fill="#0F1113" transform="matrix(1 0 0 1 1347.86 141)"/></g></g></g></g></svg>