<svg width="550" height="550" xmlns="http://www.w3.org/2000/svg" xmlns:xlink="http://www.w3.org/1999/xlink" overflow="hidden"><defs><clipPath id="clip0"><rect x="1899" y="55" width="550" height="550"/></clipPath><radialGradient cx="762000" cy="762000" r="1.07763e+06" gradientUnits="userSpaceOnUse" spreadMethod="pad" id="fill1" gradientTransform="matrix(0.000360892 0 0 0.000360892 1899 55)"><stop offset="0" stop-color="#FFE300"/><stop offset="0.17" stop-color="#FFE300"/><stop offset="0.33" stop-color="#E0AA00"/><stop offset="1" stop-color="#0F1113"/></radialGradient><linearGradient x1="2172" y1="60.9998" x2="2172" y2="215" gradientUnits="userSpaceOnUse" spreadMethod="reflect" id="fill2"><stop offset="0" stop-color="#F5FAFF" stop-opacity="0.231373"/><stop offset="0.32" stop-color="#FFFFFF" stop-opacity="0"/><stop offset="1" stop-color="#FFFFFF" stop-opacity="0"/></linearGradient><radialGradient cx="94211" cy="101138" r="138220" gradientUnits="userSpaceOnUse" spreadMethod="pad" id="fill3" gradientTransform="matrix(0.000360892 0 0 0.000360892 1938 184)"><stop offset="0" stop-color="#FFE300"/><stop offset="0.54" stop-color="#E0AA00" stop-opacity="0"/><stop offset="1" stop-color="#E0AA00" stop-opacity="0"/></radialGradient><radialGradient cx="110836" cy="120534" r="163748" gradientUnits="userSpaceOnUse" spreadMethod="pad" id="fill4" gradientTransform="matrix(0.000360892 0 0 0.000360892 1967 229)"><stop offset="0" stop-color="#FFE300"/><stop offset="0.54" stop-color="#E0AA00" stop-opacity="0"/><stop offset="1" stop-color="#E0AA00" stop-opacity="0"/></radialGradient><radialGradient cx="292331" cy="278477" r="403741" fx="292331" fy="278476" gradientUnits="userSpaceOnUse" spreadMethod="pad" id="fill5" gradientTransform="matrix(0.000360892 0 0 0.000360892 2188 360)"><stop offset="0" stop-color="#FFE300"/><stop offset="0.54" stop-color="#E0AA00" stop-opacity="0"/><stop offset="1" stop-color="#E0AA00" stop-opacity="0"/></radialGradient><radialGradient cx="374072" cy="437804" r="575849" gradientUnits="userSpaceOnUse" spreadMethod="pad" id="fill6" gradientTransform="matrix(0.000360892 0 0 0.000360892 1919 71.0002)"><stop offset="0" stop-color="#FFE300"/><stop offset="0.54" stop-color="#E0AA00" stop-opacity="0"/><stop offset="1" stop-color="#E0AA00" stop-opacity="0"/></radialGradient><radialGradient cx="72043.5" cy="77585.5" r="105876" fx="72043.5" fy="77585.5" gradientUnits="userSpaceOnUse" spreadMethod="pad" id="fill7" gradientTransform="matrix(0.000360892 0 0 0.000360892 2333 488)"><stop offset="0" stop-color="#FFE300"/><stop offset="0.54" stop-color="#E0AA00" stop-opacity="0"/><stop offset="1" stop-color="#E0AA00" stop-opacity="0"/></radialGradient><radialGradient cx="77585.5" cy="84513" r="114726" fx="77585.5" fy="84513" gradientUnits="userSpaceOnUse" spreadMethod="pad" id="fill8" gradientTransform="matrix(0.000360892 0 0 0.000360892 2317 405)"><stop offset="0" stop-color="#FFE300"/><stop offset="0.54" stop-color="#E0AA00" stop-opacity="0"/><stop offset="1" stop-color="#E0AA00" stop-opacity="0"/></radialGradient><clipPath id="clip9"><rect x="1943" y="100" width="460" height="458"/></clipPath><clipPath id="clip10"><rect x="1943" y="100" width="460" height="458"/></clipPath><clipPath id="clip11"><rect x="1943" y="100" width="460" height="458"/></clipPath></defs><g clip-path="url(#clip0)" transform="translate(-1899 -55)"><rect x="1899" y="55" width="550" height="550" fill="url(#fill1)"/><path d="M1932.79 60.9998 2411.21 60.9998C2427.11 60.9998 2440 80.8638 2440 105.367L2440 215C2440 176.824 2419.92 145.876 2395.15 145.876L1948.85 145.876C1924.08 145.876 1904 176.824 1904 215L1904 105.367C1904 80.8638 1916.89 60.9998 1932.79 60.9998Z" fill="url(#fill2)" fill-rule="evenodd"/><path d="M1938 220.5C1938 200.342 1953.22 184 1972 184 1990.78 184 2006 200.342 2006 220.5 2006 240.658 1990.78 257 1972 257 1953.22 257 1938 240.658 1938 220.5Z" fill="url(#fill3)" fill-rule="evenodd"/><path d="M1967 272.5C1967 248.476 1984.91 229 2007 229 2029.09 229 2047 248.476 2047 272.5 2047 296.524 2029.09 316 2007 316 1984.91 316 1967 296.524 1967 272.5Z" fill="url(#fill4)" fill-rule="evenodd"/><path d="M2188 460.5C2188 404.995 2235.23 360 2293.5 360 2351.77 360 2399 404.995 2399 460.5 2399 516.005 2351.77 561 2293.5 561 2235.23 561 2188 516.005 2188 460.5Z" fill="url(#fill5)" fill-rule="evenodd"/><path d="M1919 229C1919 141.739 1979.44 71.0002 2054 71.0002 2128.56 71.0002 2189 141.739 2189 229 2189 316.261 2128.56 387 2054 387 1979.44 387 1919 316.261 1919 229Z" fill="url(#fill6)" fill-rule="evenodd"/><path d="M2333 516C2333 500.536 2344.64 488 2359 488 2373.36 488 2385 500.536 2385 516 2385 531.464 2373.36 544 2359 544 2344.64 544 2333 531.464 2333 516Z" fill="url(#fill7)" fill-rule="evenodd"/><path d="M2317 435.5C2317 418.655 2329.54 405 2345 405 2360.46 405 2373 418.655 2373 435.5 2373 452.345 2360.46 466 2345 466 2329.54 466 2317 452.345 2317 435.5Z" fill="url(#fill8)" fill-rule="evenodd"/><g clip-path="url(#clip9)"><g clip-path="url(#clip10)"><g clip-path="url(#clip11)"><path d="M145.232 129.706 165.659 129.706 165.659 103.645 145.232 103.645Z" stroke="#FFE300" stroke-width="4.57991" fill="#0F1113" transform="matrix(1 0 0 1 1944 100)"/><path d="M111.065 129.568 111.065 103.645 74.8372 103.645C80.8022 118.629 94.9576 128.758 111.065 129.568Z" stroke="#FFE300" stroke-width="4.57991" fill="#0F1113" transform="matrix(1 0 0 1 1944 100)"/><path d="M187.78 103.645 172.529 103.645 172.529 129.706 187.78 129.706Z" stroke="#FFE300" stroke-width="4.57991" fill="#0F1113" transform="matrix(1 0 0 1 1944 100)"/><path d="M117.935 129.706 138.362 129.706 138.362 103.645 117.935 103.645Z" stroke="#FFE300" stroke-width="4.57991" fill="#0F1113" transform="matrix(1 0 0 1 1944 100)"/><path d="M187.78 80.15 68.7 80.15C69.1809 85.8873 70.3497 91.5459 72.1808 97.0044 72.5522 96.8844 72.9365 96.8074 73.3258 96.7754L187.78 96.7754Z" stroke="#FFE300" stroke-width="4.57991" fill="#0F1113" transform="matrix(1 0 0 1 1944 100)"/><path d="M292.341 129.706 312.768 129.706 312.768 103.645 292.341 103.645Z" stroke="#FFE300" stroke-width="4.57991" fill="#0F1113" transform="matrix(1 0 0 1 1944 100)"/><path d="M285.471 129.706 285.471 103.645 270.22 103.645 270.22 129.706Z" stroke="#FFE300" stroke-width="4.57991" fill="#0F1113" transform="matrix(1 0 0 1 1944 100)"/><path d="M346.935 129.568C363.042 128.758 377.198 118.629 383.163 103.645L346.935 103.645Z" stroke="#FFE300" stroke-width="4.57991" fill="#0F1113" transform="matrix(1 0 0 1 1944 100)"/><path d="M319.638 129.706 340.065 129.706 340.065 103.645 319.638 103.645Z" stroke="#FFE300" stroke-width="4.57991" fill="#0F1113" transform="matrix(1 0 0 1 1944 100)"/><path d="M385.819 97.0044C387.65 91.5459 388.819 85.8873 389.3 80.15L270.22 80.15 270.22 96.7754 384.72 96.7754C385.094 96.8111 385.462 96.8876 385.819 97.0044Z" stroke="#FFE300" stroke-width="4.57991" fill="#0F1113" transform="matrix(1 0 0 1 1944 100)"/><path d="M194.65 281.67 263.35 281.67 263.35 310.799 194.65 310.799Z" stroke="#FFE300" stroke-width="4.57991" fill="#0F1113" transform="matrix(1 0 0 1 1944 100)"/><path d="M263.35 129.706 263.35 80.15C263.35 61.1792 247.971 45.8 229 45.8 210.029 45.8 194.65 61.1792 194.65 80.15L194.65 176.33 263.35 176.33ZM246.908 112.485 232.114 143.262C231.256 144.983 229.165 145.681 227.445 144.822 226.77 144.485 226.223 143.938 225.886 143.262L211.092 112.485C210.455 111.129 210.77 109.516 211.871 108.5L226.664 94.7602C227.976 93.6143 229.932 93.6143 231.244 94.7602L246.038 108.5C247.17 109.494 247.523 111.109 246.908 112.485Z" stroke="#FFE300" stroke-width="4.57991" fill="#0F1113" transform="matrix(1 0 0 1 1944 100)"/><path d="M218.42 111.798 229 133.873 239.58 111.798 229 102.088 218.42 111.798Z" stroke="#FFE300" stroke-width="4.57991" fill="#0F1113" transform="matrix(1 0 0 1 1944 100)"/><path d="M251.9 239.213 231.29 257.9C229.978 259.046 228.022 259.046 226.71 257.9L206.1 239.213 185.49 257.9C184.86 258.457 184.04 258.752 183.2 258.724L183.2 269.716C183.2 272.524 185.476 274.8 188.284 274.8L269.716 274.8C272.524 274.8 274.8 272.524 274.8 269.716L274.8 258.77C273.954 258.78 273.136 258.469 272.51 257.9Z" stroke="#FFE300" stroke-width="4.57991" fill="#0F1113" transform="matrix(1 0 0 1 1944 100)"/><path d="M251.9 207.291 231.29 225.977C229.994 227.165 228.006 227.165 226.71 225.977L206.1 207.291 185.49 225.977C184.864 226.546 184.046 226.857 183.2 226.847L183.2 250.709 203.81 232.023C205.106 230.835 207.094 230.835 208.39 232.023L229 250.709 249.61 232.023C250.906 230.835 252.894 230.835 254.19 232.023L274.8 250.709 274.8 226.893C273.948 226.886 273.131 226.559 272.51 225.977Z" stroke="#FFE300" stroke-width="4.57991" fill="#0F1113" transform="matrix(1 0 0 1 1944 100)"/><path d="M183.2 188.284 183.2 218.787 203.81 200.1C205.122 198.954 207.078 198.954 208.39 200.1L229 218.787 249.61 200.1C250.922 198.954 252.878 198.954 254.19 200.1L274.8 218.787 274.8 188.284C274.8 185.476 272.524 183.2 269.716 183.2L188.284 183.2C185.476 183.2 183.2 185.476 183.2 188.284Z" stroke="#FFE300" stroke-width="4.57991" fill="#0F1113" transform="matrix(1 0 0 1 1944 100)"/><path d="M279.701 388.933 263.9 376.522C258.915 372.6 251.893 372.6 246.908 376.522L241.732 380.598C234.271 386.502 223.729 386.502 216.268 380.598L211.092 376.522C206.107 372.6 199.085 372.6 194.1 376.522L178.299 388.933C177.683 389.405 176.922 389.648 176.147 389.62L176.147 410.734 281.853 410.734 281.853 389.712 281.853 389.712C281.068 389.706 280.308 389.431 279.701 388.933Z" stroke="#FFE300" stroke-width="4.57991" fill="#0F1113" transform="matrix(1 0 0 1 1944 100)"/><path d="M279.701 357.24 263.9 344.828C258.915 340.906 251.893 340.906 246.908 344.828L241.732 348.904C234.271 354.809 223.729 354.809 216.268 348.904L211.092 344.828C206.107 340.906 199.085 340.906 194.1 344.828L178.299 357.24C177.683 357.712 176.922 357.955 176.147 357.927L176.147 382.063 189.887 371.3C197.256 365.35 207.742 365.217 215.26 370.98L220.481 375.056C225.457 378.954 232.451 378.954 237.427 375.056L242.74 370.98C250.201 365.075 260.743 365.075 268.205 370.98L281.945 381.743 281.945 357.789 281.945 357.789C281.156 357.875 280.361 357.68 279.701 357.24Z" stroke="#FFE300" stroke-width="4.57991" fill="#0F1113" transform="matrix(1 0 0 1 1944 100)"/><path d="M194.65 317.669 176.33 317.669 176.33 350.003 190.07 339.24C197.531 333.336 208.073 333.336 215.535 339.24L220.756 343.317C225.732 347.215 232.726 347.215 237.702 343.317L242.74 339.24C250.201 333.336 260.743 333.336 268.205 339.24L281.945 350.003 281.945 317.669 194.925 317.669Z" stroke="#FFE300" stroke-width="4.57991" fill="#0F1113" transform="matrix(1 0 0 1 1944 100)"/></g></g></g></g></svg>