<svg width="550" height="550" xmlns="http://www.w3.org/2000/svg" xmlns:xlink="http://www.w3.org/1999/xlink" overflow="hidden"><defs><clipPath id="clip0"><rect x="1904" y="644" width="550" height="550"/></clipPath><radialGradient cx="762000" cy="762000" r="1.07763e+06" gradientUnits="userSpaceOnUse" spreadMethod="pad" id="fill1" gradientTransform="matrix(0.000360892 0 0 0.000360892 1904 644)"><stop offset="0" stop-color="#FFE300"/><stop offset="0.17" stop-color="#FFE300"/><stop offset="0.33" stop-color="#E0AA00"/><stop offset="1" stop-color="#0F1113"/></radialGradient><linearGradient x1="2176.5" y1="650" x2="2176.5" y2="804" gradientUnits="userSpaceOnUse" spreadMethod="reflect" id="fill2"><stop offset="0" stop-color="#F5FAFF" stop-opacity="0.231373"/><stop offset="0.32" stop-color="#FFFFFF" stop-opacity="0"/><stop offset="1" stop-color="#FFFFFF" stop-opacity="0"/></linearGradient><radialGradient cx="94211" cy="102524" r="139236" gradientUnits="userSpaceOnUse" spreadMethod="pad" id="fill3" gradientTransform="matrix(0.000360892 0 0 0.000360892 1942 772)"><stop offset="0" stop-color="#FFE300"/><stop offset="0.54" stop-color="#E0AA00" stop-opacity="0"/><stop offset="1" stop-color="#E0AA00" stop-opacity="0"/></radialGradient><radialGradient cx="112221" cy="121920" r="165705" fx="112222" fy="121920" gradientUnits="userSpaceOnUse" spreadMethod="pad" id="fill4" gradientTransform="matrix(0.000360892 0 0 0.000360892 1971 817)"><stop offset="0" stop-color="#FFE300"/><stop offset="0.54" stop-color="#E0AA00" stop-opacity="0"/><stop offset="1" stop-color="#E0AA00" stop-opacity="0"/></radialGradient><radialGradient cx="292330" cy="278476" r="403740" gradientUnits="userSpaceOnUse" spreadMethod="pad" id="fill5" gradientTransform="matrix(0.000360892 0 0 0.000360892 2193 948)"><stop offset="0" stop-color="#FFE300"/><stop offset="0.54" stop-color="#E0AA00" stop-opacity="0"/><stop offset="1" stop-color="#E0AA00" stop-opacity="0"/></radialGradient><radialGradient cx="374073" cy="436418" r="574797" fx="374073" fy="436418" gradientUnits="userSpaceOnUse" spreadMethod="pad" id="fill6" gradientTransform="matrix(0.000360892 0 0 0.000360892 1924 660)"><stop offset="0" stop-color="#FFE300"/><stop offset="0.54" stop-color="#E0AA00" stop-opacity="0"/><stop offset="1" stop-color="#E0AA00" stop-opacity="0"/></radialGradient><radialGradient cx="72044" cy="77585.5" r="105877" fx="72044" fy="77585.5" gradientUnits="userSpaceOnUse" spreadMethod="pad" id="fill7" gradientTransform="matrix(0.000360892 0 0 0.000360892 2338 1076)"><stop offset="0" stop-color="#FFE300"/><stop offset="0.54" stop-color="#E0AA00" stop-opacity="0"/><stop offset="1" stop-color="#E0AA00" stop-opacity="0"/></radialGradient><radialGradient cx="77585.5" cy="83127" r="113708" gradientUnits="userSpaceOnUse" spreadMethod="pad" id="fill8" gradientTransform="matrix(0.000360892 0 0 0.000360892 2322 994)"><stop offset="0" stop-color="#FFE300"/><stop offset="0.54" stop-color="#E0AA00" stop-opacity="0"/><stop offset="1" stop-color="#E0AA00" stop-opacity="0"/></radialGradient><clipPath id="clip9"><rect x="1948" y="680" width="460" height="462"/></clipPath><clipPath id="clip10"><rect x="1948" y="680" width="460" height="462"/></clipPath><clipPath id="clip11"><rect x="1948" y="680" width="460" height="462"/></clipPath></defs><g clip-path="url(#clip0)" transform="translate(-1904 -644)"><rect x="1904" y="644" width="550" height="550" fill="url(#fill1)"/><path d="M1937.73 650 2415.27 650C2431.14 650 2444 669.864 2444 694.368L2444 804C2444 765.824 2423.96 734.876 2399.23 734.876L1953.77 734.876C1929.04 734.876 1909 765.824 1909 804L1909 694.368C1909 669.864 1921.86 650 1937.73 650Z" fill="url(#fill2)" fill-rule="evenodd"/><path d="M1942 809C1942 788.565 1957.22 772 1976 772 1994.78 772 2010 788.565 2010 809 2010 829.435 1994.78 846 1976 846 1957.22 846 1942 829.435 1942 809Z" fill="url(#fill3)" fill-rule="evenodd"/><path d="M1971 861C1971 836.7 1989.13 817 2011.5 817 2033.87 817 2052 836.7 2052 861 2052 885.301 2033.87 905 2011.5 905 1989.13 905 1971 885.301 1971 861Z" fill="url(#fill4)" fill-rule="evenodd"/><path d="M2193 1048.5C2193 992.995 2240.23 948 2298.5 948 2356.77 948 2404 992.995 2404 1048.5 2404 1104 2356.77 1149 2298.5 1149 2240.23 1149 2193 1104 2193 1048.5Z" fill="url(#fill5)" fill-rule="evenodd"/><path d="M1924 817.5C1924 730.515 1984.44 660 2059 660 2133.56 660 2194 730.515 2194 817.5 2194 904.485 2133.56 975 2059 975 1984.44 975 1924 904.485 1924 817.5Z" fill="url(#fill6)" fill-rule="evenodd"/><path d="M2338 1104C2338 1088.54 2349.64 1076 2364 1076 2378.36 1076 2390 1088.54 2390 1104 2390 1119.46 2378.36 1132 2364 1132 2349.64 1132 2338 1119.46 2338 1104Z" fill="url(#fill7)" fill-rule="evenodd"/><path d="M2322 1024C2322 1007.43 2334.54 994 2350 994 2365.46 994 2378 1007.43 2378 1024 2378 1040.57 2365.46 1054 2350 1054 2334.54 1054 2322 1040.57 2322 1024Z" fill="url(#fill8)" fill-rule="evenodd"/><g clip-path="url(#clip9)"><g clip-path="url(#clip10)"><g clip-path="url(#clip11)"><path d="M355.71 88.4963 236.658 193.671 236.658 362.668C255.523 343.509 295.496 306.851 349.65 277.917 391.287 255.629 427.164 246.154 443.877 242.635L355.714 88.4967ZM85.6481 197.378 15.1762 373.309 222.977 373.309 222.977 197.378ZM422.663 262.38C399.594 269.418 377.307 278.696 356.097 290.036 329.317 304.502 304.098 321.605 280.734 341.061 301.945 329.723 326.485 318.778 348.281 313.99 375.941 308.029 404.19 305.194 432.438 305.292L432.733 305.292C436.739 305.292 440.35 305.383 443.382 305.48ZM427.65 319.071C401.94 319.269 376.329 321.997 351.213 327.374 317.881 334.707 276.44 358.65 252.785 373.309L445.238 373.309Z" stroke="#FFE300" stroke-width="4.61154" fill="#0F1113" transform="matrix(1 0 0 1.00217 1948 681)"/></g></g></g></g></svg>