<svg width="550" height="550" xmlns="http://www.w3.org/2000/svg" xmlns:xlink="http://www.w3.org/1999/xlink" overflow="hidden"><defs><clipPath id="clip0"><rect x="1292" y="1216" width="550" height="550"/></clipPath><radialGradient cx="762000" cy="762000" r="1.07763e+06" gradientUnits="userSpaceOnUse" spreadMethod="pad" id="fill1" gradientTransform="matrix(0.000360892 0 0 0.000360892 1292 1216)"><stop offset="0" stop-color="#FFE300"/><stop offset="0.17" stop-color="#FFE300"/><stop offset="0.33" stop-color="#E0AA00"/><stop offset="1" stop-color="#0F1113"/></radialGradient><linearGradient x1="1564.5" y1="1221" x2="1564.5" y2="1376" gradientUnits="userSpaceOnUse" spreadMethod="reflect" id="fill2"><stop offset="0" stop-color="#F5FAFF" stop-opacity="0.231373"/><stop offset="0.32" stop-color="#FFFFFF" stop-opacity="0"/><stop offset="1" stop-color="#FFFFFF" stop-opacity="0"/></linearGradient><radialGradient cx="94211" cy="102524" r="139236" gradientUnits="userSpaceOnUse" spreadMethod="pad" id="fill3" gradientTransform="matrix(0.000360892 0 0 0.000360892 1330 1344)"><stop offset="0" stop-color="#FFE300"/><stop offset="0.54" stop-color="#E0AA00" stop-opacity="0"/><stop offset="1" stop-color="#E0AA00" stop-opacity="0"/></radialGradient><radialGradient cx="112222" cy="120534" r="164689" gradientUnits="userSpaceOnUse" spreadMethod="pad" id="fill4" gradientTransform="matrix(0.000360892 0 0 0.000360892 1359 1389)"><stop offset="0" stop-color="#FFE300"/><stop offset="0.54" stop-color="#E0AA00" stop-opacity="0"/><stop offset="1" stop-color="#E0AA00" stop-opacity="0"/></radialGradient><radialGradient cx="292331" cy="278477" r="403741" fx="292331" fy="278476" gradientUnits="userSpaceOnUse" spreadMethod="pad" id="fill5" gradientTransform="matrix(0.000360892 0 0 0.000360892 1581 1520)"><stop offset="0" stop-color="#FFE300"/><stop offset="0.54" stop-color="#E0AA00" stop-opacity="0"/><stop offset="1" stop-color="#E0AA00" stop-opacity="0"/></radialGradient><radialGradient cx="374072" cy="436418" r="574796" fx="374072" fy="436418" gradientUnits="userSpaceOnUse" spreadMethod="pad" id="fill6" gradientTransform="matrix(0.000360892 0 0 0.000360892 1312 1232)"><stop offset="0" stop-color="#FFE300"/><stop offset="0.54" stop-color="#E0AA00" stop-opacity="0"/><stop offset="1" stop-color="#E0AA00" stop-opacity="0"/></radialGradient><radialGradient cx="72043.5" cy="77585.5" r="105876" fx="72043.5" fy="77585.5" gradientUnits="userSpaceOnUse" spreadMethod="pad" id="fill7" gradientTransform="matrix(0.000360892 0 0 0.000360892 1726 1648)"><stop offset="0" stop-color="#FFE300"/><stop offset="0.54" stop-color="#E0AA00" stop-opacity="0"/><stop offset="1" stop-color="#E0AA00" stop-opacity="0"/></radialGradient><radialGradient cx="77585" cy="84512.5" r="114725" fx="77585" fy="84512.5" gradientUnits="userSpaceOnUse" spreadMethod="pad" id="fill8" gradientTransform="matrix(0.000360892 0 0 0.000360892 1710 1565)"><stop offset="0" stop-color="#FFE300"/><stop offset="0.54" stop-color="#E0AA00" stop-opacity="0"/><stop offset="1" stop-color="#E0AA00" stop-opacity="0"/></radialGradient><clipPath id="clip9"><rect x="1343" y="1270" width="450" height="452"/></clipPath><clipPath id="clip10"><rect x="1343" y="1270" width="450" height="452"/></clipPath><clipPath id="clip11"><rect x="1343" y="1270" width="450" height="452"/></clipPath></defs><g clip-path="url(#clip0)" transform="translate(-1292 -1216)"><rect x="1292" y="1216" width="550" height="550" fill="url(#fill1)"/><path d="M1325.73 1221 1803.27 1221C1819.14 1221 1832 1240.99 1832 1265.66L1832 1376C1832 1337.58 1811.96 1306.43 1787.23 1306.43L1341.77 1306.43C1317.04 1306.43 1297 1337.58 1297 1376L1297 1265.66C1297 1240.99 1309.86 1221 1325.73 1221Z" fill="url(#fill2)" fill-rule="evenodd"/><path d="M1330 1381C1330 1360.57 1345.22 1344 1364 1344 1382.78 1344 1398 1360.57 1398 1381 1398 1401.43 1382.78 1418 1364 1418 1345.22 1418 1330 1401.43 1330 1381Z" fill="url(#fill3)" fill-rule="evenodd"/><path d="M1359 1432.5C1359 1408.48 1377.13 1389 1399.5 1389 1421.87 1389 1440 1408.48 1440 1432.5 1440 1456.52 1421.87 1476 1399.5 1476 1377.13 1476 1359 1456.52 1359 1432.5Z" fill="url(#fill4)" fill-rule="evenodd"/><path d="M1581 1620.5C1581 1565 1628.23 1520 1686.5 1520 1744.77 1520 1792 1565 1792 1620.5 1792 1676 1744.77 1721 1686.5 1721 1628.23 1721 1581 1676 1581 1620.5Z" fill="url(#fill5)" fill-rule="evenodd"/><path d="M1312 1389.5C1312 1302.52 1372.44 1232 1447 1232 1521.56 1232 1582 1302.52 1582 1389.5 1582 1476.48 1521.56 1547 1447 1547 1372.44 1547 1312 1476.48 1312 1389.5Z" fill="url(#fill6)" fill-rule="evenodd"/><path d="M1726 1676C1726 1660.54 1737.64 1648 1752 1648 1766.36 1648 1778 1660.54 1778 1676 1778 1691.46 1766.36 1704 1752 1704 1737.64 1704 1726 1691.46 1726 1676Z" fill="url(#fill7)" fill-rule="evenodd"/><path d="M1710 1595.5C1710 1578.66 1722.54 1565 1738 1565 1753.46 1565 1766 1578.66 1766 1595.5 1766 1612.34 1753.46 1626 1738 1626 1722.54 1626 1710 1612.34 1710 1595.5Z" fill="url(#fill8)" fill-rule="evenodd"/><g clip-path="url(#clip9)"><g clip-path="url(#clip10)"><g clip-path="url(#clip11)"><path d="M111.006 332.685C85.32 332.685 64.494 353.484 64.494 379.197 64.494 404.865 85.32 425.709 111.006 425.709 136.692 425.709 157.518 404.865 157.518 379.197 157.518 353.475 136.692 332.685 111.006 332.685Z" stroke="#FFE300" stroke-width="4.61539" fill="#0F1113" transform="matrix(1 0 0 1 1343 1271)"/><path d="M228.978 70.812C228.978 96.5048 208.15 117.333 182.457 117.333 156.764 117.333 135.936 96.5048 135.936 70.812 135.936 45.1192 156.764 24.291 182.457 24.291 208.15 24.291 228.978 45.1192 228.978 70.812Z" stroke="#FFE300" stroke-width="4.61539" fill="#0F1113" transform="matrix(1 0 0 1 1343 1271)"/><path d="M394.488 143.595C368.793 143.595 347.976 164.421 347.976 190.107 347.976 215.82 368.793 236.619 394.488 236.619 420.183 236.619 441 215.82 441 190.107 441 164.43 420.192 143.595 394.488 143.595Z" stroke="#FFE300" stroke-width="4.61539" fill="#0F1113" transform="matrix(1 0 0 1 1343 1271)"/><path d="M231.363 243.369 256.707 268.695 231.363 294.039C227.637 297.783 227.637 303.795 231.363 307.503 233.208 309.384 235.638 310.284 238.077 310.284 240.507 310.284 242.946 309.384 244.791 307.503L270.153 282.177 295.497 307.503C297.36 309.384 299.808 310.284 302.229 310.284 304.65 310.284 307.098 309.384 308.943 307.503 312.669 303.795 312.669 297.783 308.943 294.039L283.599 268.695 308.943 243.369C312.669 239.625 312.669 233.613 308.943 229.923 305.235 226.179 299.205 226.179 295.497 229.923L270.153 255.267 244.791 229.923C241.083 226.179 235.071 226.179 231.363 229.923 227.637 233.613 227.637 239.625 231.363 243.369Z" stroke="#FFE300" stroke-width="4.61539" fill="#0F1113" transform="matrix(1 0 0 1 1343 1271)"/><path d="M71.208 165.744C67.5 162.054 61.488 162.054 57.762 165.744 54.054 169.452 54.054 175.5 57.762 179.19L83.106 204.552 57.762 229.914C54.054 233.604 54.054 239.616 57.762 243.36 59.625 245.205 62.055 246.159 64.494 246.159 66.933 246.159 69.363 245.214 71.208 243.36L96.57 217.998 121.914 243.36C123.777 245.205 126.207 246.159 128.646 246.159 131.076 246.159 133.515 245.214 135.378 243.36 139.086 239.616 139.086 233.604 135.378 229.914L110.016 204.552 135.378 179.19C139.086 175.5 139.086 169.452 135.378 165.744 131.652 162.054 125.622 162.054 121.914 165.744L96.57 191.106 71.208 165.744Z" stroke="#FFE300" stroke-width="4.61539" fill="#0F1113" transform="matrix(1 0 0 1 1343 1271)"/><path d="M137.043 315.72C134.406 318.024 134.127 321.993 136.395 324.666 137.664 326.106 139.437 326.844 141.192 326.844 142.668 326.844 144.144 326.349 145.341 325.314 147.78 323.208 204.507 272.898 210.609 164.214L223.245 164.358 204.615 131.31 185.301 163.953 197.919 164.079C191.88 266.733 137.601 315.243 137.043 315.72Z" stroke="#FFE300" stroke-width="4.61539" fill="#0F1113" transform="matrix(1 0 0 1 1343 1271)"/><path d="M24.543 182.727C32.013 145.395 54.567 113.913 91.287 89.001L97.74 99.918 116.334 66.852 78.399 67.257 84.798 78.066C44.829 104.994 20.268 139.329 12.096 180.297-4.203 261.873 49.095 339.885 51.363 343.197 52.596 344.934 54.558 345.906 56.583 345.906 57.834 345.906 59.076 345.555 60.183 344.781 63.063 342.774 63.765 338.823 61.785 335.97 61.263 335.178 9.279 258.975 24.543 182.727Z" stroke="#FFE300" stroke-width="4.61539" fill="#0F1113" transform="matrix(1 0 0 1 1343 1271)"/><path d="M390.654 254.97 363.411 281.358 375.345 284.769C332.892 381.852 179.028 375.579 177.435 375.471 173.601 375.264 170.964 378 170.793 381.519 170.631 385.02 173.304 387.972 176.823 388.161 177.687 388.197 181.044 388.341 186.336 388.341 222.444 388.341 348.336 381.33 387.504 288.252L399.915 291.789 390.654 254.97Z" stroke="#FFE300" stroke-width="4.61539" fill="#0F1113" transform="matrix(1 0 0 1 1343 1271)"/></g></g></g></g></svg>