<svg width="550" height="550" xmlns="http://www.w3.org/2000/svg" xmlns:xlink="http://www.w3.org/1999/xlink" overflow="hidden"><defs><clipPath id="clip0"><rect x="2524" y="1231" width="550" height="550"/></clipPath><radialGradient cx="762000" cy="762000" r="1.07763e+06" gradientUnits="userSpaceOnUse" spreadMethod="pad" id="fill1" gradientTransform="matrix(0.000360892 0 0 0.000360892 2524 1231)"><stop offset="0" stop-color="#FFE300"/><stop offset="0.17" stop-color="#FFE300"/><stop offset="0.33" stop-color="#E0AA00"/><stop offset="1" stop-color="#0F1113"/></radialGradient><linearGradient x1="2797.5" y1="1236" x2="2797.5" y2="1391" gradientUnits="userSpaceOnUse" spreadMethod="reflect" id="fill2"><stop offset="0" stop-color="#F5FAFF" stop-opacity="0.231373"/><stop offset="0.32" stop-color="#FFFFFF" stop-opacity="0"/><stop offset="1" stop-color="#FFFFFF" stop-opacity="0"/></linearGradient><radialGradient cx="94211" cy="102524" r="139237" fx="94211" fy="102524" gradientUnits="userSpaceOnUse" spreadMethod="pad" id="fill3" gradientTransform="matrix(0.000360892 0 0 0.000360892 2563 1359)"><stop offset="0" stop-color="#FFE300"/><stop offset="0.54" stop-color="#E0AA00" stop-opacity="0"/><stop offset="1" stop-color="#E0AA00" stop-opacity="0"/></radialGradient><radialGradient cx="110836" cy="120534" r="163748" gradientUnits="userSpaceOnUse" spreadMethod="pad" id="fill4" gradientTransform="matrix(0.000360892 0 0 0.000360892 2592 1404)"><stop offset="0" stop-color="#FFE300"/><stop offset="0.54" stop-color="#E0AA00" stop-opacity="0"/><stop offset="1" stop-color="#E0AA00" stop-opacity="0"/></radialGradient><radialGradient cx="292331" cy="278477" r="403741" fx="292331" fy="278476" gradientUnits="userSpaceOnUse" spreadMethod="pad" id="fill5" gradientTransform="matrix(0.000360892 0 0 0.000360892 2813 1535)"><stop offset="0" stop-color="#FFE300"/><stop offset="0.54" stop-color="#E0AA00" stop-opacity="0"/><stop offset="1" stop-color="#E0AA00" stop-opacity="0"/></radialGradient><radialGradient cx="374072" cy="436418" r="574796" fx="374072" fy="436418" gradientUnits="userSpaceOnUse" spreadMethod="pad" id="fill6" gradientTransform="matrix(0.000360892 0 0 0.000360892 2544 1247)"><stop offset="0" stop-color="#FFE300"/><stop offset="0.54" stop-color="#E0AA00" stop-opacity="0"/><stop offset="1" stop-color="#E0AA00" stop-opacity="0"/></radialGradient><radialGradient cx="72043.5" cy="77585.5" r="105876" fx="72043.5" fy="77585.5" gradientUnits="userSpaceOnUse" spreadMethod="pad" id="fill7" gradientTransform="matrix(0.000360892 0 0 0.000360892 2958 1663)"><stop offset="0" stop-color="#FFE300"/><stop offset="0.54" stop-color="#E0AA00" stop-opacity="0"/><stop offset="1" stop-color="#E0AA00" stop-opacity="0"/></radialGradient><radialGradient cx="77585" cy="84513" r="114725" gradientUnits="userSpaceOnUse" spreadMethod="pad" id="fill8" gradientTransform="matrix(0.000360892 0 0 0.000360892 2942 1580)"><stop offset="0" stop-color="#FFE300"/><stop offset="0.54" stop-color="#E0AA00" stop-opacity="0"/><stop offset="1" stop-color="#E0AA00" stop-opacity="0"/></radialGradient><clipPath id="clip9"><rect x="2558" y="1270" width="471" height="471"/></clipPath><clipPath id="clip10"><rect x="2558" y="1270" width="471" height="471"/></clipPath><clipPath id="clip11"><rect x="2558" y="1270" width="471" height="471"/></clipPath></defs><g clip-path="url(#clip0)" transform="translate(-2524 -1231)"><rect x="2524" y="1231" width="550" height="550" fill="url(#fill1)"/><path d="M2558.73 1236 3036.27 1236C3052.14 1236 3065 1255.99 3065 1280.66L3065 1391C3065 1352.58 3044.96 1321.43 3020.23 1321.43L2574.77 1321.43C2550.04 1321.43 2530 1352.58 2530 1391L2530 1280.66C2530 1255.99 2542.86 1236 2558.73 1236Z" fill="url(#fill2)" fill-rule="evenodd"/><path d="M2563 1396C2563 1375.57 2578.22 1359 2597 1359 2615.78 1359 2631 1375.57 2631 1396 2631 1416.43 2615.78 1433 2597 1433 2578.22 1433 2563 1416.43 2563 1396Z" fill="url(#fill3)" fill-rule="evenodd"/><path d="M2592 1447.5C2592 1423.48 2609.91 1404 2632 1404 2654.09 1404 2672 1423.48 2672 1447.5 2672 1471.52 2654.09 1491 2632 1491 2609.91 1491 2592 1471.52 2592 1447.5Z" fill="url(#fill4)" fill-rule="evenodd"/><path d="M2813 1635.5C2813 1580 2860.23 1535 2918.5 1535 2976.77 1535 3024 1580 3024 1635.5 3024 1691 2976.77 1736 2918.5 1736 2860.23 1736 2813 1691 2813 1635.5Z" fill="url(#fill5)" fill-rule="evenodd"/><path d="M2544 1404.5C2544 1317.52 2604.44 1247 2679 1247 2753.56 1247 2814 1317.52 2814 1404.5 2814 1491.48 2753.56 1562 2679 1562 2604.44 1562 2544 1491.48 2544 1404.5Z" fill="url(#fill6)" fill-rule="evenodd"/><path d="M2958 1691C2958 1675.54 2969.64 1663 2984 1663 2998.36 1663 3010 1675.54 3010 1691 3010 1706.46 2998.36 1719 2984 1719 2969.64 1719 2958 1706.46 2958 1691Z" fill="url(#fill7)" fill-rule="evenodd"/><path d="M2942 1610.5C2942 1593.66 2954.54 1580 2970 1580 2985.46 1580 2998 1593.66 2998 1610.5 2998 1627.34 2985.46 1641 2970 1641 2954.54 1641 2942 1627.34 2942 1610.5Z" fill="url(#fill8)" fill-rule="evenodd"/><g clip-path="url(#clip9)"><g clip-path="url(#clip10)"><g clip-path="url(#clip11)"><path d="M2861.04 1532.7 2967.97 1532.7 2983.91 1474.08C2986.73 1462.82 2980.63 1451.56 2969.84 1448.28L2939.83 1439.37C2934.67 1437.96 2931.39 1433.27 2931.39 1428.11L2931.39 1428.11C2931.39 1426.24 2932.32 1424.83 2933.73 1423.42 2944.52 1414.04 2953.43 1397.63 2953.43 1381.68 2953.43 1356.36 2936.08 1340.88 2914.97 1340.88 2893.87 1340.88 2876.51 1356.36 2876.51 1381.68 2876.51 1397.63 2885.42 1414.04 2896.21 1423.42 2897.62 1424.83 2898.56 1426.24 2898.56 1428.11L2898.56 1428.11C2898.56 1433.27 2895.27 1437.96 2890.11 1439.37L2859.16 1448.28C2848.37 1451.56 2841.81 1462.82 2845.09 1474.08L2861.04 1532.7Z" stroke="#FFE300" stroke-width="4.69" fill="#0F1113"/><path d="M3007.83 1624.63 2989.54 1624.63 2989.54 1558.03C2989.54 1553.34 2985.79 1549.59 2981.1 1549.59L2847.43 1549.59C2842.74 1549.59 2838.99 1553.34 2838.99 1558.03L2838.99 1624.16 2820.7 1624.16C2816.01 1624.16 2812.26 1627.91 2812.26 1632.6L2812.26 1662.15C2812.26 1666.84 2816.01 1670.59 2820.7 1670.59L3007.83 1670.59C3012.52 1670.59 3016.27 1666.84 3016.27 1662.15L3016.27 1632.6C3016.27 1628.38 3012.52 1624.63 3007.83 1624.63Z" stroke="#FFE300" stroke-width="4.69" fill="#0F1113"/><path d="M2723.62 1457.19C2747.07 1459.54 2768.17 1442.65 2770.52 1419.2 2772.86 1395.75 2755.98 1374.65 2732.53 1372.3 2709.08 1369.96 2687.97 1386.84 2685.63 1410.29 2683.28 1433.74 2700.17 1454.85 2723.62 1457.19Z" stroke="#FFE300" stroke-width="4.69" fill="#0F1113"/><path d="M2817.89 1532.23 2817.42 1517.22C2824.45 1513 2829.14 1505.03 2827.74 1496.59 2826.8 1489.55 2822.11 1484.4 2816.48 1481.58L2816.01 1464.23 2821.64 1464.23C2824.92 1464.23 2827.74 1461.41 2827.74 1458.13L2827.74 1445.94C2827.74 1442.65 2824.92 1439.84 2821.64 1439.84L2795.84 1439.84C2792.56 1439.84 2789.75 1442.65 2789.75 1445.94L2789.75 1458.13C2789.75 1461.41 2792.56 1464.23 2795.84 1464.23L2801.47 1464.23 2801 1480.17 2760.67 1486.27C2760.67 1486.27 2703.45 1460.94 2694.07 1457.19 2684.69 1453.44 2673.9 1453.44 2664.52 1457.66 2655.14 1461.88 2648.11 1470.32 2645.3 1480.17L2623.72 1551.46C2620.44 1562.72 2622.31 1574.44 2629.35 1583.82 2633.1 1588.51 2637.32 1592.27 2642.48 1594.61L2633.1 1626.97 2592.77 1626.97C2580.57 1626.97 2570.72 1636.82 2570.72 1649.01 2570.72 1661.21 2580.57 1671.06 2592.77 1671.06L2649.99 1671.06C2659.83 1671.06 2668.28 1664.49 2671.09 1655.11L2687.51 1598.36 2718.46 1598.36 2712.83 1646.2C2711.42 1658.39 2719.87 1669.18 2732.06 1670.59 2733 1670.59 2733.94 1670.59 2734.87 1670.59 2745.66 1670.59 2755.51 1662.62 2756.45 1651.36L2764.89 1578.66C2765.83 1572.57 2763.48 1566 2759.73 1561.31 2755.51 1556.62 2749.41 1553.81 2743.32 1553.81L2699.23 1553.81 2717.52 1510.66 2750.35 1525.2C2753.17 1526.14 2755.98 1527.07 2758.79 1527.07 2759.73 1527.07 2760.67 1527.07 2762.08 1526.6L2801.47 1520.51 2801 1531.76C2801 1534.11 2802.88 1536.45 2805.22 1536.45L2814.14 1536.45C2816.01 1536.92 2817.89 1534.58 2817.89 1532.23Z" stroke="#FFE300" stroke-width="4.69" fill="#0F1113"/></g></g></g></g></svg>