<svg width="550" height="550" xmlns="http://www.w3.org/2000/svg" xmlns:xlink="http://www.w3.org/1999/xlink" overflow="hidden"><defs><clipPath id="clip0"><rect x="680" y="1265" width="550" height="550"/></clipPath><radialGradient cx="762000" cy="762000" r="1.07763e+06" gradientUnits="userSpaceOnUse" spreadMethod="pad" id="fill1" gradientTransform="matrix(0.000360892 0 0 0.000360892 680 1265)"><stop offset="0" stop-color="#5D6CFF"/><stop offset="0.17" stop-color="#5D6CFF"/><stop offset="0.33" stop-color="#4B57CC"/><stop offset="1" stop-color="#0F1113"/></radialGradient><radialGradient cx="374073" cy="419793" r="562278" gradientUnits="userSpaceOnUse" spreadMethod="pad" id="fill2" gradientTransform="matrix(0.000360892 0 0 0.000360892 700 1293)"><stop offset="0" stop-color="#5D6CFF"/><stop offset="0.54" stop-color="#4B57CC" stop-opacity="0"/><stop offset="1" stop-color="#4B57CC" stop-opacity="0"/></radialGradient><linearGradient x1="952.5" y1="1271" x2="952.5" y2="1425" gradientUnits="userSpaceOnUse" spreadMethod="reflect" id="fill3"><stop offset="0" stop-color="#F5FAFF" stop-opacity="0.231373"/><stop offset="0.32" stop-color="#FFFFFF" stop-opacity="0"/><stop offset="1" stop-color="#FFFFFF" stop-opacity="0"/></linearGradient><radialGradient cx="94211" cy="102524" r="139237" fx="94211" fy="102524" gradientUnits="userSpaceOnUse" spreadMethod="pad" id="fill4" gradientTransform="matrix(0.000360892 0 0 0.000360892 718 1393)"><stop offset="0" stop-color="#5D6CFF"/><stop offset="0.54" stop-color="#4B57CC" stop-opacity="0"/><stop offset="1" stop-color="#4B57CC" stop-opacity="0"/></radialGradient><radialGradient cx="112222" cy="120534" r="164689" gradientUnits="userSpaceOnUse" spreadMethod="pad" id="fill5" gradientTransform="matrix(0.000360892 0 0 0.000360892 747 1438)"><stop offset="0" stop-color="#5D6CFF"/><stop offset="0.54" stop-color="#4B57CC" stop-opacity="0"/><stop offset="1" stop-color="#4B57CC" stop-opacity="0"/></radialGradient><radialGradient cx="293717" cy="278477" r="404745" fx="293716" fy="278476" gradientUnits="userSpaceOnUse" spreadMethod="pad" id="fill6" gradientTransform="matrix(0.000360892 0 0 0.000360892 968 1569)"><stop offset="0" stop-color="#5D6CFF"/><stop offset="0.54" stop-color="#4B57CC" stop-opacity="0"/><stop offset="1" stop-color="#4B57CC" stop-opacity="0"/></radialGradient><radialGradient cx="72043.5" cy="77585.5" r="105876" fx="72043.5" fy="77585.5" gradientUnits="userSpaceOnUse" spreadMethod="pad" id="fill7" gradientTransform="matrix(0.000360892 0 0 0.000360892 1114 1697)"><stop offset="0" stop-color="#5D6CFF"/><stop offset="0.54" stop-color="#4B57CC" stop-opacity="0"/><stop offset="1" stop-color="#4B57CC" stop-opacity="0"/></radialGradient><radialGradient cx="77585.5" cy="84513" r="114726" fx="77585.5" fy="84513" gradientUnits="userSpaceOnUse" spreadMethod="pad" id="fill8" gradientTransform="matrix(0.000360892 0 0 0.000360892 1098 1614)"><stop offset="0" stop-color="#5D6CFF"/><stop offset="0.54" stop-color="#4B57CC" stop-opacity="0"/><stop offset="1" stop-color="#4B57CC" stop-opacity="0"/></radialGradient><clipPath id="clip9"><rect x="698" y="1311" width="499" height="457"/></clipPath><clipPath id="clip10"><rect x="698" y="1311" width="499" height="457"/></clipPath><clipPath id="clip11"><rect x="698" y="1311" width="499" height="457"/></clipPath></defs><g clip-path="url(#clip0)" transform="translate(-680 -1265)"><rect x="680" y="1265" width="550" height="550" fill="url(#fill1)"/><path d="M700 1444.5C700 1360.83 760.441 1293 835 1293 909.558 1293 970 1360.83 970 1444.5 970 1528.17 909.558 1596 835 1596 760.441 1596 700 1528.17 700 1444.5Z" fill="url(#fill2)" fill-rule="evenodd"/><path d="M713.734 1271 1191.27 1271C1207.14 1271 1220 1290.86 1220 1315.37L1220 1425C1220 1386.82 1199.96 1355.88 1175.23 1355.88L729.767 1355.88C705.043 1355.88 685 1386.82 685 1425L685 1315.37C685 1290.86 697.865 1271 713.734 1271Z" fill="url(#fill3)" fill-rule="evenodd"/><path d="M718 1430C718 1409.57 733.222 1393 752 1393 770.778 1393 786 1409.57 786 1430 786 1450.43 770.778 1467 752 1467 733.222 1467 718 1450.43 718 1430Z" fill="url(#fill4)" fill-rule="evenodd"/><path d="M747 1481.5C747 1457.48 765.132 1438 787.5 1438 809.868 1438 828 1457.48 828 1481.5 828 1505.52 809.868 1525 787.5 1525 765.132 1525 747 1505.52 747 1481.5Z" fill="url(#fill5)" fill-rule="evenodd"/><path d="M968 1669.5C968 1614 1015.46 1569 1074 1569 1132.54 1569 1180 1614 1180 1669.5 1180 1725 1132.54 1770 1074 1770 1015.46 1770 968 1725 968 1669.5Z" fill="url(#fill6)" fill-rule="evenodd"/><path d="M1114 1725C1114 1709.54 1125.64 1697 1140 1697 1154.36 1697 1166 1709.54 1166 1725 1166 1740.46 1154.36 1753 1140 1753 1125.64 1753 1114 1740.46 1114 1725Z" fill="url(#fill7)" fill-rule="evenodd"/><path d="M1098 1644.5C1098 1627.66 1110.54 1614 1126 1614 1141.46 1614 1154 1627.66 1154 1644.5 1154 1661.34 1141.46 1675 1126 1675 1110.54 1675 1098 1661.34 1098 1644.5Z" fill="url(#fill8)" fill-rule="evenodd"/><g clip-path="url(#clip9)"><g clip-path="url(#clip10)"><g clip-path="url(#clip11)"><path d="M71.4062 57.125 85.6875 57.125 85.6875 157.094 71.4062 157.094Z" stroke="#33A3FF" stroke-width="4.23148" fill="#0F1113" transform="matrix(1.08972 0 0 1 699 1311)"/><path d="M390.392 352.747C386.614 343.985 378.721 337.679 369.343 335.926 359.964 334.174 350.328 337.203 343.64 344.009 336.952 350.814 334.091 360.502 336.007 369.849 337.923 379.196 344.366 386.976 353.191 390.602 362.017 394.223 372.069 393.218 380.001 387.917 387.936 382.616 392.708 373.714 392.734 364.172 392.73 360.245 391.931 356.359 390.392 352.747ZM364.171 378.453C360.384 378.453 356.751 376.949 354.073 374.27 351.394 371.592 349.89 367.96 349.89 364.172 349.89 360.384 351.394 356.752 354.073 354.074 356.75 351.394 360.383 349.891 364.171 349.891 367.959 349.891 371.591 351.394 374.269 354.074 376.948 356.751 378.452 360.384 378.452 364.172 378.452 367.96 376.948 371.592 374.269 374.27 371.592 376.949 367.959 378.453 364.171 378.453Z" stroke="#33A3FF" stroke-width="4.23148" fill="#0F1113" transform="matrix(1.08972 0 0 1 699 1311)"/><path d="M190.455 352.747C186.676 343.985 178.784 337.679 169.406 335.926 160.026 334.174 150.391 337.203 143.703 344.009 137.015 350.814 134.154 360.502 136.07 369.849 137.986 379.196 144.429 386.976 153.253 390.602 162.08 394.223 172.131 393.218 180.063 387.917 187.997 382.616 192.769 373.714 192.796 364.172 192.791 360.245 191.994 356.359 190.455 352.747ZM164.234 378.453C160.446 378.453 156.813 376.949 154.135 374.27 151.456 371.592 149.952 367.96 149.952 364.172 149.952 360.384 151.456 356.752 154.135 354.074 156.813 351.394 160.446 349.891 164.234 349.891 168.021 349.891 171.654 351.394 174.332 354.074 177.011 356.751 178.515 360.384 178.515 364.172 178.515 367.96 177.011 371.592 174.332 374.27 171.654 376.949 168.021 378.453 164.234 378.453Z" stroke="#33A3FF" stroke-width="4.23148" fill="#0F1113" transform="matrix(1.08972 0 0 1 699 1311)"/><path d="M90.486 352.747C86.7073 343.985 78.8153 337.679 69.4373 335.926 60.0578 334.174 50.4223 337.203 43.7341 344.009 37.0459 350.814 34.1851 360.502 36.1011 369.849 38.0171 379.196 44.46 386.976 53.2847 390.602 62.1108 394.223 72.1626 393.218 80.0946 387.917 88.0281 382.616 92.8003 373.714 92.8273 364.172 92.8228 360.245 92.0257 356.359 90.486 352.747ZM64.2648 378.453C60.4775 378.453 56.8447 376.949 54.1667 374.27 51.4875 371.592 49.9836 367.96 49.9836 364.172 49.9836 360.384 51.4875 356.752 54.1667 354.074 56.8443 351.394 60.4771 349.891 64.2648 349.891 68.0526 349.891 71.685 351.394 74.363 354.074 77.0422 356.751 78.5461 360.384 78.5461 364.172 78.5461 367.96 77.0422 371.592 74.363 374.27 71.6854 376.949 68.0526 378.453 64.2648 378.453Z" stroke="#33A3FF" stroke-width="4.23148" fill="#0F1113" transform="matrix(1.08972 0 0 1 699 1311)"/><path d="M28.5625 285.625 428.437 285.625 428.437 299.906 28.5625 299.906Z" stroke="#33A3FF" stroke-width="4.23148" fill="#0F1113" transform="matrix(1.08972 0 0 1 699 1311)"/><path d="M395.724 335.316C396.287 335.93 396.847 336.545 397.373 337.187 398.089 338.095 398.801 339.052 399.464 340.044 399.928 340.715 400.408 341.372 400.838 342.079 400.979 342.314 401.158 342.528 401.299 342.793L403.192 342.793 422.237 314.23 28.5706 314.23 28.5706 340.508C29.493 339.136 30.4942 337.821 31.5697 336.566L31.6337 336.479 31.6337 336.481C32.9324 334.972 34.3293 333.552 35.8183 332.232 36.1039 331.982 36.4104 331.775 36.696 331.518 37.8682 330.524 39.091 329.593 40.3599 328.726 40.8748 328.384 41.4103 328.076 41.9385 327.747 43.0452 327.033 44.1668 326.433 45.3302 325.862 45.9521 325.548 46.5797 325.263 47.2226 324.984 48.3651 324.485 49.5224 324.049 50.7064 323.648 51.3774 323.427 52.0348 323.199 52.7134 323.006 53.9835 322.649 55.284 322.378 56.5975 322.134 57.2042 322.02 57.7964 321.877 58.4107 321.792 60.3522 321.501 62.3112 321.346 64.2736 321.328 66.2806 321.335 68.2857 321.483 70.2717 321.771 70.9218 321.863 71.5422 322.036 72.185 322.156 73.4909 322.406 74.7987 322.664 76.0768 323.028 76.7908 323.242 77.5049 323.52 78.219 323.742 79.3615 324.135 80.4891 324.543 81.5897 325.027 82.3038 325.356 83.0178 325.741 83.7319 326.099 84.7598 326.627 85.7747 327.17 86.7591 327.777 87.4732 328.213 88.1309 328.677 88.8092 329.148 89.7376 329.806 90.6452 330.484 91.5226 331.212 92.1654 331.74 92.7931 332.283 93.4001 332.854 94.236 333.632 95.0274 334.446 95.807 335.289 96.371 335.904 96.9289 336.518 97.4567 337.161 98.1708 338.068 98.8849 339.025 99.5483 340.017 100.013 340.688 100.492 341.345 100.92 342.052 101.063 342.287 101.241 342.501 101.384 342.766L127.091 342.766C127.241 342.501 127.433 342.274 127.59 342.052 127.947 341.466 128.348 340.925 128.733 340.359 129.483 339.252 130.253 338.174 131.096 337.146 131.546 336.603 132.017 336.089 132.525 335.575 133.389 334.618 134.282 333.704 135.217 332.833 135.753 332.341 136.303 331.869 136.86 331.405 137.812 330.611 138.795 329.861 139.808 329.156 140.43 328.727 141.043 328.306 141.679 327.906 142.715 327.264 143.779 326.685 144.865 326.136 145.535 325.794 146.206 325.422 146.9 325.121 148.027 324.621 149.185 324.208 150.356 323.8 151.07 323.565 151.733 323.293 152.447 323.086 153.732 322.714 155.054 322.451 156.382 322.201 157.01 322.087 157.617 321.916 158.253 321.823L158.252 321.82C162.231 321.23 166.276 321.23 170.256 321.82 170.906 321.913 171.526 322.085 172.169 322.205 173.475 322.456 174.783 322.713 176.061 323.077 176.775 323.292 177.489 323.57 178.203 323.791 179.345 324.184 180.473 324.592 181.574 325.077 182.288 325.406 183.002 325.791 183.716 326.148 184.744 326.676 185.758 327.219 186.743 327.826 187.457 328.262 188.115 328.726 188.793 329.198 189.722 329.855 190.629 330.534 191.507 331.261 192.149 331.789 192.777 332.332 193.384 332.903 194.22 333.681 195.011 334.495 195.791 335.339 196.355 335.953 196.912 336.567 197.441 337.21 198.155 338.117 198.869 339.074 199.532 340.066 199.996 340.737 200.476 341.395 200.904 342.101 201.047 342.336 201.225 342.55 201.368 342.815L227.074 342.815C227.225 342.55 227.416 342.323 227.574 342.101 227.931 341.515 228.332 340.974 228.717 340.408 229.431 339.301 230.237 338.223 231.08 337.195 231.53 336.652 232.001 336.139 232.509 335.624 233.373 334.667 234.266 333.753 235.201 332.883 235.737 332.39 236.287 331.918 236.844 331.454 237.796 330.66 238.779 329.91 239.792 329.205 240.414 328.776 241.027 328.356 241.663 327.955 242.699 327.313 243.763 326.734 244.849 326.185 245.519 325.843 246.19 325.471 246.883 325.171 248.011 324.671 249.168 324.257 250.34 323.85 251.054 323.615 251.717 323.342 252.431 323.135 253.716 322.763 255.038 322.5 256.366 322.25 256.993 322.136 257.601 321.965 258.237 321.873L258.234 321.871C262.214 321.28 266.258 321.28 270.238 321.871 270.888 321.963 271.509 322.136 272.151 322.256 273.457 322.506 274.765 322.763 276.043 323.128 276.757 323.342 277.471 323.62 278.185 323.842 279.328 324.235 280.455 324.642 281.556 325.127 282.27 325.456 282.984 325.841 283.698 326.198 284.726 326.727 285.741 327.269 286.726 327.876 287.44 328.312 288.097 328.776 288.776 329.248 289.704 329.906 290.611 330.584 291.489 331.312 292.132 331.839 292.759 332.382 293.366 332.954 294.202 333.732 294.994 334.546 295.773 335.389 296.337 336.003 296.895 336.618 297.423 337.261 298.137 338.168 298.851 339.124 299.515 340.117 299.979 340.788 300.458 341.445 300.886 342.152 301.029 342.387 301.208 342.601 301.351 342.866L327.057 342.866C327.207 342.601 327.399 342.374 327.557 342.152 327.914 341.566 328.314 341.024 328.699 340.459 329.413 339.352 330.219 338.274 331.063 337.246 331.512 336.703 331.984 336.189 332.491 335.675 333.355 334.718 334.248 333.803 335.184 332.933 335.719 332.441 336.27 331.969 336.826 331.505 337.778 330.711 338.761 329.961 339.774 329.255 340.396 328.827 341.009 328.406 341.646 328.006 342.681 327.363 343.745 326.785 344.831 326.236 345.502 325.893 346.173 325.522 346.866 325.221 347.994 324.721 349.151 324.308 350.322 323.9 351.036 323.665 351.699 323.393 352.414 323.186 353.699 322.814 355.02 322.551 356.348 322.301 356.976 322.186 357.583 322.015 358.22 321.923L358.218 321.92C362.198 321.331 366.242 321.331 370.222 321.92 370.872 322.012 371.493 322.185 372.135 322.305 373.441 322.555 374.749 322.812 376.027 323.177 376.741 323.391 377.455 323.669 378.169 323.891 379.311 324.284 380.439 324.692 381.542 325.177 382.254 325.505 382.97 325.891 383.682 326.248 384.71 326.776 385.723 327.319 386.709 327.926 387.425 328.362 388.08 328.826 388.758 329.297 389.688 329.955 390.594 330.633 391.474 331.361 392.117 331.889 392.742 332.432 393.351 333.003 394.17 333.661 394.958 334.474 395.735 335.316Z" stroke="#33A3FF" stroke-width="4.23148" fill="#0F1113" transform="matrix(1.08972 0 0 1 699 1311)"/><path d="M290.423 352.747C286.645 343.985 278.753 337.679 269.375 335.926 259.995 334.174 250.36 337.203 243.672 344.009 236.983 350.814 234.123 360.502 236.039 369.849 237.954 379.196 244.397 386.976 253.222 390.602 262.048 394.223 272.1 393.218 280.032 387.917 287.966 382.616 292.738 373.714 292.765 364.172 292.76 360.245 291.963 356.359 290.423 352.747ZM264.202 378.453C260.415 378.453 256.782 376.949 254.104 374.27 251.425 371.592 249.921 367.96 249.921 364.172 249.921 360.384 251.425 356.752 254.104 354.074 256.782 351.394 260.415 349.891 264.202 349.891 267.99 349.891 271.622 351.394 274.3 354.074 276.98 356.751 278.484 360.384 278.484 364.172 278.484 367.96 276.98 371.592 274.3 374.27 271.623 376.949 267.99 378.453 264.202 378.453Z" stroke="#33A3FF" stroke-width="4.23148" fill="#0F1113" transform="matrix(1.08972 0 0 1 699 1311)"/><path d="M28.5625 210.033 28.5625 271.344 418.345 271.344 346.939 199.937 38.6622 199.937ZM264.203 214.218C264.203 212.324 264.956 210.508 266.295 209.169 267.634 207.83 269.45 207.077 271.344 207.077L335.609 207.077C337.503 207.077 339.319 207.83 340.658 209.169L383.503 252.013C384.84 253.353 385.594 255.168 385.594 257.062 385.594 258.956 384.84 260.772 383.499 262.111 382.162 263.45 380.347 264.202 378.453 264.202L271.344 264.202C269.45 264.202 267.634 263.45 266.295 262.111 264.956 260.772 264.203 258.956 264.203 257.062ZM57.125 228.499C57.125 226.605 57.8779 224.789 59.2165 223.45L73.4978 209.169C74.8368 207.83 76.653 207.077 78.5469 207.077L192.797 207.077C194.691 207.077 196.507 207.83 197.846 209.169L212.127 223.45C213.466 224.789 214.219 226.605 214.219 228.499L214.219 242.78C214.219 244.674 213.466 246.49 212.127 247.829L197.846 262.111C196.507 263.45 194.691 264.202 192.797 264.202L78.5469 264.202C76.653 264.202 74.8368 263.45 73.4978 262.111L59.2165 247.829C57.8779 246.49 57.125 244.674 57.125 242.78Z" stroke="#33A3FF" stroke-width="4.23148" fill="#0F1113" transform="matrix(1.08972 0 0 1 699 1311)"/><path d="M189.842 249.922 199.938 239.825 199.938 231.456 189.842 221.359 81.5021 221.359 71.4055 231.456 71.4055 239.825 81.5021 249.922Z" stroke="#33A3FF" stroke-width="4.23148" fill="#0F1113" transform="matrix(1.08972 0 0 1 699 1311)"/><path d="M64.2656 171.375 92.8281 171.375 92.8281 185.656 64.2656 185.656Z" stroke="#33A3FF" stroke-width="4.23148" fill="#0F1113" transform="matrix(1.08972 0 0 1 699 1311)"/><path d="M332.654 221.359 278.484 221.359 278.484 249.922 361.216 249.922Z" stroke="#33A3FF" stroke-width="4.23148" fill="#0F1113" transform="matrix(1.08972 0 0 1 699 1311)"/></g></g></g></g></svg>