<svg width="550" height="550" xmlns="http://www.w3.org/2000/svg" xmlns:xlink="http://www.w3.org/1999/xlink" overflow="hidden"><defs><clipPath id="clip0"><rect x="49" y="688" width="550" height="550"/></clipPath><radialGradient cx="762000" cy="762000" r="1.07763e+06" gradientUnits="userSpaceOnUse" spreadMethod="pad" id="fill1" gradientTransform="matrix(0.000360892 0 0 0.000360892 49.0002 688)"><stop offset="0" stop-color="#5D6CFF"/><stop offset="0.17" stop-color="#5D6CFF"/><stop offset="0.33" stop-color="#4B57CC"/><stop offset="1" stop-color="#0F1113"/></radialGradient><radialGradient cx="374072" cy="419792" r="562278" gradientUnits="userSpaceOnUse" spreadMethod="pad" id="fill2" gradientTransform="matrix(0.000360892 0 0 0.000360892 69.0001 716)"><stop offset="0" stop-color="#5D6CFF"/><stop offset="0.54" stop-color="#4B57CC" stop-opacity="0"/><stop offset="1" stop-color="#4B57CC" stop-opacity="0"/></radialGradient><linearGradient x1="322" y1="694" x2="322" y2="848" gradientUnits="userSpaceOnUse" spreadMethod="reflect" id="fill3"><stop offset="0" stop-color="#F5FAFF" stop-opacity="0.231373"/><stop offset="0.32" stop-color="#FFFFFF" stop-opacity="0"/><stop offset="1" stop-color="#FFFFFF" stop-opacity="0"/></linearGradient><radialGradient cx="95596.5" cy="102524" r="140178" gradientUnits="userSpaceOnUse" spreadMethod="pad" id="fill4" gradientTransform="matrix(0.000360892 0 0 0.000360892 87 816)"><stop offset="0" stop-color="#5D6CFF"/><stop offset="0.54" stop-color="#4B57CC" stop-opacity="0"/><stop offset="1" stop-color="#4B57CC" stop-opacity="0"/></radialGradient><radialGradient cx="112222" cy="121920" r="165705" fx="112222" fy="121920" gradientUnits="userSpaceOnUse" spreadMethod="pad" id="fill5" gradientTransform="matrix(0.000360892 0 0 0.000360892 116 861)"><stop offset="0" stop-color="#5D6CFF"/><stop offset="0.54" stop-color="#4B57CC" stop-opacity="0"/><stop offset="1" stop-color="#4B57CC" stop-opacity="0"/></radialGradient><radialGradient cx="292331" cy="278477" r="403741" fx="292331" fy="278476" gradientUnits="userSpaceOnUse" spreadMethod="pad" id="fill6" gradientTransform="matrix(0.000360892 0 0 0.000360892 338 992)"><stop offset="0" stop-color="#5D6CFF"/><stop offset="0.54" stop-color="#4B57CC" stop-opacity="0"/><stop offset="1" stop-color="#4B57CC" stop-opacity="0"/></radialGradient><radialGradient cx="72043.5" cy="77585.5" r="105876" fx="72043.5" fy="77585.5" gradientUnits="userSpaceOnUse" spreadMethod="pad" id="fill7" gradientTransform="matrix(0.000360892 0 0 0.000360892 483 1120)"><stop offset="0" stop-color="#5D6CFF"/><stop offset="0.54" stop-color="#4B57CC" stop-opacity="0"/><stop offset="1" stop-color="#4B57CC" stop-opacity="0"/></radialGradient><radialGradient cx="77585" cy="83127" r="113708" gradientUnits="userSpaceOnUse" spreadMethod="pad" id="fill8" gradientTransform="matrix(0.000360892 0 0 0.000360892 467 1038)"><stop offset="0" stop-color="#5D6CFF"/><stop offset="0.54" stop-color="#4B57CC" stop-opacity="0"/><stop offset="1" stop-color="#4B57CC" stop-opacity="0"/></radialGradient><clipPath id="clip9"><rect x="63" y="786" width="504" height="379"/></clipPath><clipPath id="clip10"><rect x="63" y="786" width="504" height="379"/></clipPath><clipPath id="clip11"><rect x="63" y="786" width="504" height="379"/></clipPath></defs><g clip-path="url(#clip0)" transform="translate(-49 -688)"><rect x="49.0002" y="688" width="550" height="550" fill="url(#fill1)"/><path d="M69.0001 867.5C69.0001 783.829 129.442 716 204 716 278.558 716 339 783.829 339 867.5 339 951.171 278.558 1019 204 1019 129.442 1019 69.0001 951.171 69.0001 867.5Z" fill="url(#fill2)" fill-rule="evenodd"/><path d="M82.7874 694 561.212 694C577.111 694 590 713.864 590 738.368L590 848C590 809.824 569.92 778.876 545.149 778.876L98.8504 778.876C74.0802 778.876 54 809.824 54 848L54 738.368C54 713.864 66.8884 694 82.7874 694Z" fill="url(#fill3)" fill-rule="evenodd"/><path d="M87 853C87 832.565 102.446 816 121.5 816 140.554 816 156 832.565 156 853 156 873.435 140.554 890 121.5 890 102.446 890 87 873.435 87 853Z" fill="url(#fill4)" fill-rule="evenodd"/><path d="M116 905C116 880.7 134.132 861 156.5 861 178.867 861 197 880.7 197 905 197 929.301 178.867 949 156.5 949 134.132 949 116 929.301 116 905Z" fill="url(#fill5)" fill-rule="evenodd"/><path d="M338 1092.5C338 1037 385.234 992 443.5 992 501.766 992 549 1037 549 1092.5 549 1148 501.766 1193 443.5 1193 385.234 1193 338 1148 338 1092.5Z" fill="url(#fill6)" fill-rule="evenodd"/><path d="M483 1148C483 1132.54 494.641 1120 509 1120 523.359 1120 535 1132.54 535 1148 535 1163.46 523.359 1176 509 1176 494.641 1176 483 1163.46 483 1148Z" fill="url(#fill7)" fill-rule="evenodd"/><path d="M467 1068C467 1051.43 479.536 1038 495 1038 510.464 1038 523 1051.43 523 1068 523 1084.57 510.464 1098 495 1098 479.536 1098 467 1084.57 467 1068Z" fill="url(#fill8)" fill-rule="evenodd"/><g clip-path="url(#clip9)"><g clip-path="url(#clip10)"><g clip-path="url(#clip11)"><path d="M-6.82006 474.61C-14.4433 474.233-22.6575 472.732-29.0672 470.542-33.4492 469.047-43.3135 463.947-49.6488 459.903-55.9989 455.847-65.5084 450.399-75.301 445.202-88.0127 438.458-96.4085 433.342-99.1438 430.675-100.719 429.14-101.623 427.664-102.238 425.624-103.388 421.81-103.925 421.254-108.864 418.769-112.687 416.845-113.374 416.669-116.453 416.814-123.18 417.131-129.845 416.083-135.64 413.795-137.455 413.079-140.574 412.356-142.571 412.188-148.297 411.706-148.518 411.391-148.954 403.123-149.186 398.717-149.905 393.41-150.955 388.35-152.383 381.476-152.599 379.372-152.626 372.1-152.683 356.564-150.133 325.746-148.641 323.94-147.832 322.963-145.385 323.154-144.373 324.276-142.958 325.843-141.414 334.765-141.028 343.605L-140.676 351.653-137.811 347.085C-136.235 344.574-134.1 341.188-133.066 339.559-131.057 336.395-116.792 313.598-103.448 292.225-98.9669 285.047-92.4088 274.476-88.8751 268.734-85.3413 262.989-81.3979 256.665-80.1122 254.675-75.975 248.275-71.3321 243.975-64.6222 240.328-58.3929 236.943-57.5572 235.609-48.7266 214.924-45.5484 207.478-42.4972 200.929-41.9464 200.37-41.2789 199.691-40.2935 199.37-38.9911 199.409-37.3233 199.455-36.7302 199.832-34.9419 201.979-26.9594 211.559-16.2271 222.039-15.3546 221.107-15.1475 220.885-13.0439 217.061-10.68 212.611-8.31603 208.16-6.06682 204.259-5.68174 203.942-5.11506 203.474-5.50245 202.579-7.71441 199.25-10.1316 195.612-10.4472 194.825-10.4472 192.432-10.4472 190.217-10.1378 189.286-8.74382 187.304-7.04143 184.883-7.04087 184.88-7.8322 182.545-8.87915 179.454-8.85463 172.337-7.78464 168.722-6.66553 164.942-4.79197 161.319-2.17908 157.881-0.99654 156.325 0.266331 154.651 0.627287 154.162 0.988263 153.673 1.95831 150.017 2.78296 146.037L4.28235 138.801 3.2234 137.365C2.32744 136.151 2.21813 135.472 2.51323 132.956 2.82274 130.317 4.1387 127.023 4.90175 126.977 6.41226 126.887 7.18388 124.854 9.32321 115.326 12.7508 100.061 14.7163 96.3916 19.3564 96.5941 22.295 96.7224 23.8069 97.9865 25.0567 101.361 25.5458 102.681 26.255 104.225 26.6326 104.792 27.0101 105.358 27.3172 106.533 27.3151 107.402 27.3132 108.271 27.9381 113.568 28.704 119.173 29.4832 124.876 29.9375 129.999 29.7356 130.805 29.3025 132.534 26.6391 134.297 24.454 134.301 23.0371 134.303 22.8789 134.477 22.7594 136.154 22.6869 137.171 22.1954 138.639 21.667 139.416 21.1388 140.193 20.0801 141.828 19.3145 143.051 18.1301 144.942 15.3466 147.444 12.8537 148.859 12.4902 149.065 11.2528 153.685 10.104 159.127 8.95522 164.568 7.89198 169.421 7.74124 169.912 7.50985 170.666 7.81628 170.61 9.7096 169.55 16.9264 165.511 28.121 162.512 36.024 162.501 48.8815 162.481 66.0991 169.51 80.1917 180.53 84.4942 183.894 95.4766 194.25 103.555 202.561L108.166 207.305 113.487 203.041C116.414 200.695 124.77 193.986 132.057 188.129L145.306 177.481 146.475 174.033C147.788 170.159 148.317 169.011 150.377 165.568 151.169 164.244 151.817 162.813 151.817 162.386 151.817 161.471 153.442 159.883 154.379 159.883 154.74 159.883 156.245 158.808 157.724 157.495 160.517 155.014 169.394 150.397 175.053 148.483 176.802 147.892 179.849 147.119 181.825 146.766 184.951 146.207 185.99 145.697 189.844 142.831 195.482 138.639 201.292 135.583 205.53 134.582 209.381 133.672 215.231 133.565 218.233 134.35 219.38 134.649 221.138 135.071 222.142 135.288 223.146 135.504 225.43 136.759 227.215 138.077 229.478 139.747 230.791 140.387 231.547 140.189 232.317 139.986 233.185 140.439 234.549 141.753 235.603 142.77 240.43 146.887 245.277 150.903L254.089 158.203 258.299 159.083C264.498 160.378 278.056 163.907 282.734 165.443 287.303 166.943 289.384 168.656 291.739 172.854 293.18 175.423 293.223 175.45 297.646 176.596 304.402 178.346 306.055 179.494 307.947 183.742 310.527 189.531 311.221 191.986 310.744 193.639 310.509 194.455 307.241 201.281 303.481 208.808L296.646 222.494 298.592 222.993C299.663 223.267 303.586 224.128 307.311 224.906 321.278 227.82 321.849 229.015 319.161 249.754L317.695 261.053 322.92 262.374C335.529 265.558 344.938 268.103 346.468 268.739 349.669 270.074 349.847 271.745 348.446 287.266 348.019 292.004 347.555 296.389 347.415 297.012 347.234 297.824 346.414 298.393 344.526 299.021 342.371 299.739 341.921 300.096 342.052 300.98 342.163 301.731 342.89 302.29 344.425 302.8 346.563 303.512 346.638 303.613 346.622 305.711 346.613 306.908 346.398 309.531 346.143 311.542 345.888 313.552 345.522 317.31 345.331 319.896 344.71 328.237 343.843 330.657 340.225 334.163 338.24 336.084 338.639 335.925 314.343 344.518 305.03 347.812 297.041 350.903 296.586 351.384 296.132 351.868 293.109 356.96 289.867 362.704 286.624 368.447 283.104 374.554 282.042 376.278 280.98 377.999 279.516 380.587 278.789 382.024 278.062 383.463 277.019 385.196 276.47 385.873L275.474 387.107 265.07 383.606 254.669 380.107 252.729 377.105C250.54 373.717 250.333 372.578 251.82 372.104 252.721 371.818 260.688 362.913 260.688 362.194 260.688 362.043 260.417 361.921 260.084 361.921 259.752 361.921 250.435 358.979 239.378 355.382 216.914 348.077 216.949 348.094 216.91 343.75L216.889 341.3 215.479 342.88C214.701 343.748 213.129 345.153 211.982 345.998 208.485 348.576 206.427 351.084 205.42 353.999 198.569 373.808 182.2 391.669 167.355 395.529 162.896 396.69 128.486 397.794 123.671 396.932 116.493 395.645 109.545 391.211 104.842 384.913L102.153 381.312 96.6419 379.361C91.6044 377.579 77.0242 371.628 63.2939 365.75 56.5712 362.873 52.1559 362.229 46.2092 363.261 42.4566 363.913 42.0231 364.124 40.196 366.205 35.9014 371.094 34.7686 372.709 34.1731 374.8 33.2662 377.983 29.7569 381.561 26.2773 382.852 24.7014 383.436 20.9508 384.805 17.9426 385.894 9.60617 388.913 9.01929 389.234 6.22201 392.286-6.22303 405.863-14.3858 415.212-15.8986 417.624-17.6421 420.404-17.6697 420.527-16.7091 421.231-13.9762 423.233-0.161292 427.6 7.78474 428.975 13.205 429.911 22.8971 430.041 26.9028 429.229 33.8478 427.823 42.6006 424.14 50.0865 419.479 62.4351 411.787 66.8361 410.284 69.0379 413.01 71.4694 416.019 70.0925 418.672 61.0886 428.331 56.9838 432.735 51.3982 438.791 48.6765 441.789 38.0709 453.47 25.9299 466.04 23.4083 467.947 16.3857 473.262 7.13092 475.3-6.82008 474.61ZM160.574 233.102C163.764 230.876 169.604 226.832 173.551 224.113 186.881 214.932 186.564 215.216 189.169 210.135 191.753 205.093 195.707 198.536 200.287 191.702 203.263 187.255 206.112 184.263 207.911 183.688 208.536 183.489 209.359 181.922 210.334 179.074 212.367 173.135 214.634 168.054 216.974 164.19L218.951 160.927 217.647 160.927C215.388 160.927 212.243 158.709 212.243 157.116 212.243 156.295 205.834 153.18 200.811 151.559L197.453 150.476 195.602 151.967C194.583 152.787 191.625 155.08 189.027 157.062 186.429 159.044 180.985 163.248 176.929 166.403L169.556 172.14 169.855 174.018C170.131 175.745 169.98 176.034 167.969 177.631 165.797 179.355 165.773 179.36 164.246 178.456 163.235 177.857 162.493 177.715 162.081 178.039 150.817 186.898 147.849 189.357 147.555 190.077 147.359 190.555 146.702 192.562 146.094 194.537 144.039 201.213 138.814 210.472 133.464 216.916 132.042 218.631 131.623 219.465 132.106 219.624 141.18 222.61 146.824 225.399 149.245 228.099 150.233 229.199 151.743 231.681 152.601 233.611 153.46 235.541 154.299 237.127 154.468 237.135 154.636 237.142 157.384 235.328 160.574 233.102ZM129.805 215.351C133.724 210.781 137.504 204.923 140.151 199.324 141.466 196.542 142.44 194.163 142.315 194.04 142.096 193.819 127.625 205.099 119.722 211.649 117.589 213.419 115.924 215.111 116.024 215.409 116.123 215.709 117.947 216.336 120.076 216.804 122.206 217.272 124.3 217.794 124.73 217.962 126.49 218.658 127.35 218.216 129.805 215.351ZM-2.13609 171.41C-1.11057 166.42-0.356672 162.252-0.460744 162.148-0.871561 161.736-3.96891 169.271-4.52066 172.025-5.02308 174.532-4.76285 181.247-4.18572 180.668-4.08399 180.566-3.16159 176.4-2.13609 171.41ZM154.539 170.714C155.781 169.672 155.918 169.27 155.631 167.497 155.324 165.606 155.253 165.537 154.56 166.462 153.738 167.56 151.296 172.207 151.296 172.675 151.296 173.078 152.817 172.159 154.539 170.714ZM170.515 158.206C174.639 154.992 177.738 152.271 177.401 152.159 175.845 151.639 162.838 158.105 160.022 160.797 158.374 162.373 158.195 163.02 159.501 162.681 160.002 162.55 160.881 162.8 161.454 163.235 162.027 163.67 162.613 164.031 162.757 164.037 162.9 164.043 166.391 161.419 170.515 158.206ZM215.077 148.911C216.423 146.304 216.777 145.188 216.299 145.041 212.864 143.981 208.603 144.483 204.259 146.459L201.643 147.649 207.334 150.067C210.464 151.397 213.061 152.506 213.106 152.53 213.148 152.554 214.036 150.926 215.077 148.911ZM17.4217 138.669C17.4217 137.913 17.1995 137.97 15.9891 139.035 13.7762 140.982 13.2533 141.722 13.2674 142.886 13.279 143.787 13.6147 143.605 15.351 141.762 16.4899 140.553 17.4217 139.161 17.4217 138.669ZM18.4205 127.41C17.7062 121.825 17.7133 121.827 16.6931 126.832 16.5648 127.462 16.7956 128.256 17.2059 128.597 17.6162 128.938 18.0982 130.134 18.2771 131.255 18.456 132.376 18.7161 133.179 18.8552 133.04 18.9943 132.9 18.7987 130.367 18.4205 127.41Z" stroke="#33A3FF" stroke-width="5.40548" fill="#0F1113" transform="matrix(1 0 0 1.00221 216.626 689.2)"/></g></g></g></g></svg>