<svg width="550" height="550" xmlns="http://www.w3.org/2000/svg" xmlns:xlink="http://www.w3.org/1999/xlink" overflow="hidden"><defs><clipPath id="clip0"><rect x="2519" y="76" width="550" height="550"/></clipPath><radialGradient cx="762000" cy="762000" r="1.07763e+06" gradientUnits="userSpaceOnUse" spreadMethod="pad" id="fill1" gradientTransform="matrix(0.000360892 0 0 0.000360892 2519 76)"><stop offset="0" stop-color="#5D6CFF"/><stop offset="0.17" stop-color="#5D6CFF"/><stop offset="0.33" stop-color="#4B57CC"/><stop offset="1" stop-color="#0F1113"/></radialGradient><radialGradient cx="374073" cy="419793" r="562278" gradientUnits="userSpaceOnUse" spreadMethod="pad" id="fill2" gradientTransform="matrix(0.000360892 0 0 0.000360892 2539 105)"><stop offset="0" stop-color="#5D6CFF"/><stop offset="0.54" stop-color="#4B57CC" stop-opacity="0"/><stop offset="1" stop-color="#4B57CC" stop-opacity="0"/></radialGradient><radialGradient cx="94210.5" cy="102524" r="139236" gradientUnits="userSpaceOnUse" spreadMethod="pad" id="fill3" gradientTransform="matrix(0.000360892 0 0 0.000360892 2557 205)"><stop offset="0" stop-color="#5D6CFF"/><stop offset="0.54" stop-color="#4B57CC" stop-opacity="0"/><stop offset="1" stop-color="#4B57CC" stop-opacity="0"/></radialGradient><radialGradient cx="112222" cy="120534" r="164689" gradientUnits="userSpaceOnUse" spreadMethod="pad" id="fill4" gradientTransform="matrix(0.000360892 0 0 0.000360892 2586 250)"><stop offset="0" stop-color="#5D6CFF"/><stop offset="0.54" stop-color="#4B57CC" stop-opacity="0"/><stop offset="1" stop-color="#4B57CC" stop-opacity="0"/></radialGradient><radialGradient cx="292331" cy="278477" r="403741" fx="292331" fy="278476" gradientUnits="userSpaceOnUse" spreadMethod="pad" id="fill5" gradientTransform="matrix(0.000360892 0 0 0.000360892 2808 381)"><stop offset="0" stop-color="#5D6CFF"/><stop offset="0.54" stop-color="#4B57CC" stop-opacity="0"/><stop offset="1" stop-color="#4B57CC" stop-opacity="0"/></radialGradient><radialGradient cx="72043.5" cy="77585.5" r="105876" fx="72043.5" fy="77585.5" gradientUnits="userSpaceOnUse" spreadMethod="pad" id="fill6" gradientTransform="matrix(0.000360892 0 0 0.000360892 2953 509)"><stop offset="0" stop-color="#5D6CFF"/><stop offset="0.54" stop-color="#4B57CC" stop-opacity="0"/><stop offset="1" stop-color="#4B57CC" stop-opacity="0"/></radialGradient><radialGradient cx="77585.5" cy="84513" r="114726" fx="77585.5" fy="84513" gradientUnits="userSpaceOnUse" spreadMethod="pad" id="fill7" gradientTransform="matrix(0.000360892 0 0 0.000360892 2937 426)"><stop offset="0" stop-color="#5D6CFF"/><stop offset="0.54" stop-color="#4B57CC" stop-opacity="0"/><stop offset="1" stop-color="#4B57CC" stop-opacity="0"/></radialGradient><clipPath id="clip8"><rect x="2546" y="113" width="492" height="491"/></clipPath><clipPath id="clip9"><rect x="2546" y="113" width="492" height="491"/></clipPath><clipPath id="clip10"><rect x="2546" y="113" width="492" height="491"/></clipPath><linearGradient x1="2791.5" y1="82.0002" x2="2791.5" y2="236" gradientUnits="userSpaceOnUse" spreadMethod="reflect" id="fill11"><stop offset="0" stop-color="#F5FAFF" stop-opacity="0.231373"/><stop offset="0.32" stop-color="#FFFFFF" stop-opacity="0"/><stop offset="1" stop-color="#FFFFFF" stop-opacity="0"/></linearGradient></defs><g clip-path="url(#clip0)" transform="translate(-2519 -76)"><rect x="2519" y="76" width="550" height="550" fill="url(#fill1)"/><path d="M2539 256.5C2539 172.829 2599.44 105 2674 105 2748.56 105 2809 172.829 2809 256.5 2809 340.171 2748.56 408 2674 408 2599.44 408 2539 340.171 2539 256.5Z" fill="url(#fill2)" fill-rule="evenodd"/><path d="M2557 242C2557 221.565 2572.22 205 2591 205 2609.78 205 2625 221.565 2625 242 2625 262.435 2609.78 279 2591 279 2572.22 279 2557 262.435 2557 242Z" fill="url(#fill3)" fill-rule="evenodd"/><path d="M2586 293.5C2586 269.476 2604.13 250 2626.5 250 2648.87 250 2667 269.476 2667 293.5 2667 317.524 2648.87 337 2626.5 337 2604.13 337 2586 317.524 2586 293.5Z" fill="url(#fill4)" fill-rule="evenodd"/><path d="M2808 481.5C2808 425.995 2855.23 381 2913.5 381 2971.77 381 3019 425.995 3019 481.5 3019 537.005 2971.77 582 2913.5 582 2855.23 582 2808 537.005 2808 481.5Z" fill="url(#fill5)" fill-rule="evenodd"/><path d="M2953 537C2953 521.536 2964.64 509 2979 509 2993.36 509 3005 521.536 3005 537 3005 552.464 2993.36 565 2979 565 2964.64 565 2953 552.464 2953 537Z" fill="url(#fill6)" fill-rule="evenodd"/><path d="M2937 456.5C2937 439.655 2949.54 426 2965 426 2980.46 426 2993 439.655 2993 456.5 2993 473.345 2980.46 487 2965 487 2949.54 487 2937 473.345 2937 456.5Z" fill="url(#fill7)" fill-rule="evenodd"/><g clip-path="url(#clip8)"><g clip-path="url(#clip9)"><g clip-path="url(#clip10)"><path d="M346.814 184.559 304.6 188.638C293.951 174.661 278.556 176.909 277.841 176.761L277.411 176.903C261.895 176.903 247.274 195.104 250.939 211.962L228.257 209.815 217.024 175.114 214.591 182.628 179.676 180.48 178.602 173.324 174.523 145.421C310.178 132.767 263.329 137.137 273.476 136.191L282.205 161.949 338.514 141.916Z" stroke="#33A3FF" stroke-width="5.15485" fill="#0F1113" transform="matrix(-1 0 0 1 3037 113)"/><path d="M386.691 241.175C384.719 253.42 370.04 258.181 361.294 250.928 354.841 245.898 352.999 236.621 358.38 229.013 364.98 220.448 377.415 220.659 383.714 229.013 388.027 234.716 386.616 240.459 386.691 241.175Z" stroke="#33A3FF" stroke-width="5.15485" fill="#0F1113" transform="matrix(-1 0 0 1 3037 113)"/><path d="M372.726 343.847C371.77 350.535 365.716 356.197 358.159 356.197 350.049 356.197 343.276 349.517 343.276 341.378 343.276 333.47 349.702 326.494 358.159 326.494 374.244 326.493 372.593 343.117 372.726 343.847Z" stroke="#33A3FF" stroke-width="5.15485" fill="#0F1113" transform="matrix(-1 0 0 1 3037 113)"/><path d="M360.623 370.369 318.626 423.532C314.547 414.158 305.533 407.863 295.158 407.506L330.145 349.478C334.295 363.858 349.249 372.23 360.625 370.37Z" stroke="#33A3FF" stroke-width="5.15485" fill="#0F1113" transform="matrix(-1 0 0 1 3037 113)"/><path d="M356.4 212.321C342.907 219.729 337.237 236.243 343.307 250.313L294.94 233.356C308.781 225.911 313.838 209.546 308.963 196.867Z" stroke="#33A3FF" stroke-width="5.15485" fill="#0F1113" transform="matrix(-1 0 0 1 3037 113)"/><path d="M388.741 263.049 379.797 321.863C369.67 310.568 353.521 309.722 342.878 316.497L348.601 258.543C356.754 269.021 375.319 272.582 388.741 263.05Z" stroke="#33A3FF" stroke-width="5.15485" fill="#0F1113" transform="matrix(-1 0 0 1 3037 113)"/><path d="M334.076 474.47C334.076 477.403 331.644 479.834 328.711 479.834L239.058 479.834C236.054 479.834 233.693 477.403 233.693 474.47 233.693 471.466 236.054 469.105 239.058 469.105L246.5 469.105C254.586 459.445 262.384 451.573 269.754 446.135 274.127 455.574 283.84 461.376 294.01 461.376 301.826 461.376 309.163 458.021 314.115 452.358 316.978 456.867 319.767 462.379 322.415 469.101L328.711 469.101C331.642 469.101 334.075 471.466 334.075 474.47Z" stroke="#33A3FF" stroke-width="5.15485" fill="#0F1113" transform="matrix(-1 0 0 1 3037 113)"/><path d="M306.67 434.412C306.67 439.228 304.011 443.406 300.084 445.558 298.311 446.507 296.221 447.08 294.004 447.08 290.584 447.08 287.543 445.75 285.2 443.598 282.793 441.253 281.337 438.021 281.337 434.412 281.337 427.89 286.277 422.444 292.738 421.81L292.802 421.81C293.182 421.744 293.562 421.744 294.005 421.744 299.705 421.744 304.519 425.541 306.102 430.738 306.48 431.879 306.67 433.148 306.67 434.412Z" stroke="#33A3FF" stroke-width="5.15485" fill="#0F1113" transform="matrix(-1 0 0 1 3037 113)"/><path d="M133.454 164.023 133.454 156.153 107.625 156.153C104.691 156.153 102.26 153.72 102.26 150.787 102.26 147.853 104.692 145.422 107.625 145.422L160.072 145.422 163.649 170.248Z" stroke="#33A3FF" stroke-width="5.15485" fill="#0F1113" transform="matrix(-1 0 0 1 3037 113)"/><path d="M280.606 222.681C270.352 222.681 262.51 213.043 265.407 202.414 265.407 202.35 265.471 202.224 265.471 202.16 266.911 197.845 269.717 194.68 273.451 192.724 281.546 189.129 289.1 191.811 293.275 197.348 300.967 207.502 293.833 222.681 280.606 222.681Z" stroke="#33A3FF" stroke-width="5.15485" fill="#0F1113" transform="matrix(-1 0 0 1 3037 113)"/><path d="M211.13 92.7171C211.13 97.6558 207.126 101.659 202.188 101.659 197.247 101.659 193.244 97.6558 193.244 92.7171 193.244 87.7769 197.247 83.7732 202.188 83.7732 207.126 83.7732 211.13 87.7769 211.13 92.7171" stroke="#33A3FF" stroke-width="5.15485" fill="#0F1113" transform="matrix(-1 0 0 1 3037 113)"/><path d="M286.711 91.8292C285.578 84.0518 290.819 120.001 275.621 15.7734 275.407 14.271 274.548 12.9827 273.33 12.1244 272.114 11.2661 270.612 10.98 269.181 11.2661 260.747 13.1457 299.739 4.45554 186.685 29.6545 183.752 30.2986 181.963 33.1596 182.678 36.0939 183.26 38.5649 185.609 40.686 189.117 40.1009L207.792 35.6655 209.867 49.5452C209.867 49.6172 209.867 49.7596 209.938 49.8316 209.938 49.9032 209.938 50.0456 210.01 50.1176L158.067 61.4224 157.853 61.4945 167.369 131.11C168.157 131.038 285.496 120.091 285.496 120.091L282.277 97.9115C285.136 97.4095 287.139 94.7609 286.71 91.8284ZM202.21 112.365C191.335 112.365 182.533 103.564 182.533 92.6877 182.533 81.8832 191.334 73.0109 202.21 73.0109 213.015 73.0109 221.887 81.8832 221.887 92.6877 221.885 103.563 213.013 112.365 202.21 112.365Z" stroke="#33A3FF" stroke-width="5.15485" fill="#0F1113" transform="matrix(-1 0 0 1 3037 113)"/></g></g></g><path d="M2552.73 82.0002 3030.27 82.0002C3046.14 82.0002 3059 101.864 3059 126.368L3059 236C3059 197.824 3038.96 166.876 3014.23 166.876L2568.77 166.876C2544.04 166.876 2524 197.824 2524 236L2524 126.368C2524 101.864 2536.86 82.0002 2552.73 82.0002Z" fill="url(#fill11)" fill-rule="evenodd"/></g></svg>