<svg width="550" height="550" xmlns="http://www.w3.org/2000/svg" xmlns:xlink="http://www.w3.org/1999/xlink" overflow="hidden"><defs><clipPath id="clip0"><rect x="54" y="76" width="550" height="550"/></clipPath><radialGradient cx="762000" cy="762000" r="1.07763e+06" gradientUnits="userSpaceOnUse" spreadMethod="pad" id="fill1" gradientTransform="matrix(0.000360892 0 0 0.000360892 54 76)"><stop offset="0" stop-color="#5D6CFF"/><stop offset="0.17" stop-color="#5D6CFF"/><stop offset="0.33" stop-color="#4B57CC"/><stop offset="1" stop-color="#0F1113"/></radialGradient><radialGradient cx="374073" cy="419793" r="562278" gradientUnits="userSpaceOnUse" spreadMethod="pad" id="fill2" gradientTransform="matrix(0.000360892 0 0 0.000360892 73.9999 105)"><stop offset="0" stop-color="#5D6CFF"/><stop offset="0.54" stop-color="#4B57CC" stop-opacity="0"/><stop offset="1" stop-color="#4B57CC" stop-opacity="0"/></radialGradient><linearGradient x1="326.5" y1="82.0002" x2="326.5" y2="236" gradientUnits="userSpaceOnUse" spreadMethod="reflect" id="fill3"><stop offset="0" stop-color="#F5FAFF" stop-opacity="0.231373"/><stop offset="0.32" stop-color="#FFFFFF" stop-opacity="0"/><stop offset="1" stop-color="#FFFFFF" stop-opacity="0"/></linearGradient><radialGradient cx="94210.5" cy="102524" r="139236" gradientUnits="userSpaceOnUse" spreadMethod="pad" id="fill4" gradientTransform="matrix(0.000360892 0 0 0.000360892 92.0001 205)"><stop offset="0" stop-color="#5D6CFF"/><stop offset="0.54" stop-color="#4B57CC" stop-opacity="0"/><stop offset="1" stop-color="#4B57CC" stop-opacity="0"/></radialGradient><radialGradient cx="112222" cy="120534" r="164689" gradientUnits="userSpaceOnUse" spreadMethod="pad" id="fill5" gradientTransform="matrix(0.000360892 0 0 0.000360892 121 250)"><stop offset="0" stop-color="#5D6CFF"/><stop offset="0.54" stop-color="#4B57CC" stop-opacity="0"/><stop offset="1" stop-color="#4B57CC" stop-opacity="0"/></radialGradient><radialGradient cx="292331" cy="278477" r="403741" fx="292331" fy="278476" gradientUnits="userSpaceOnUse" spreadMethod="pad" id="fill6" gradientTransform="matrix(0.000360892 0 0 0.000360892 343 381)"><stop offset="0" stop-color="#5D6CFF"/><stop offset="0.54" stop-color="#4B57CC" stop-opacity="0"/><stop offset="1" stop-color="#4B57CC" stop-opacity="0"/></radialGradient><radialGradient cx="72043.5" cy="77585.5" r="105876" fx="72043.5" fy="77585.5" gradientUnits="userSpaceOnUse" spreadMethod="pad" id="fill7" gradientTransform="matrix(0.000360892 0 0 0.000360892 488 509)"><stop offset="0" stop-color="#5D6CFF"/><stop offset="0.54" stop-color="#4B57CC" stop-opacity="0"/><stop offset="1" stop-color="#4B57CC" stop-opacity="0"/></radialGradient><radialGradient cx="77585.5" cy="84513" r="114726" fx="77585.5" fy="84513" gradientUnits="userSpaceOnUse" spreadMethod="pad" id="fill8" gradientTransform="matrix(0.000360892 0 0 0.000360892 472 426)"><stop offset="0" stop-color="#5D6CFF"/><stop offset="0.54" stop-color="#4B57CC" stop-opacity="0"/><stop offset="1" stop-color="#4B57CC" stop-opacity="0"/></radialGradient><clipPath id="clip9"><rect x="93" y="117" width="477" height="479"/></clipPath><clipPath id="clip10"><rect x="93" y="117" width="477" height="479"/></clipPath><clipPath id="clip11"><rect x="93" y="117" width="477" height="479"/></clipPath></defs><g clip-path="url(#clip0)" transform="translate(-54 -76)"><rect x="54" y="76" width="550" height="550" fill="url(#fill1)"/><path d="M73.9999 256.5C73.9999 172.829 134.441 105 209 105 283.558 105 344 172.829 344 256.5 344 340.171 283.558 408 209 408 134.441 408 73.9999 340.171 73.9999 256.5Z" fill="url(#fill2)" fill-rule="evenodd"/><path d="M87.7338 82.0002 565.266 82.0002C581.136 82.0002 594 101.864 594 126.368L594 236C594 197.824 573.957 166.876 549.233 166.876L103.767 166.876C79.0428 166.876 59.0001 197.824 59.0001 236L59.0001 126.368C59.0001 101.864 71.8646 82.0002 87.7338 82.0002Z" fill="url(#fill3)" fill-rule="evenodd"/><path d="M92.0001 242C92.0001 221.565 107.222 205 126 205 144.778 205 160 221.565 160 242 160 262.435 144.778 279 126 279 107.222 279 92.0001 262.435 92.0001 242Z" fill="url(#fill4)" fill-rule="evenodd"/><path d="M121 293.5C121 269.476 139.132 250 161.5 250 183.868 250 202 269.476 202 293.5 202 317.524 183.868 337 161.5 337 139.132 337 121 317.524 121 293.5Z" fill="url(#fill5)" fill-rule="evenodd"/><path d="M343 481.5C343 425.995 390.234 381 448.5 381 506.766 381 554 425.995 554 481.5 554 537.005 506.766 582 448.5 582 390.234 582 343 537.005 343 481.5Z" fill="url(#fill6)" fill-rule="evenodd"/><path d="M488 537C488 521.536 499.641 509 514 509 528.359 509 540 521.536 540 537 540 552.464 528.359 565 514 565 499.641 565 488 552.464 488 537Z" fill="url(#fill7)" fill-rule="evenodd"/><path d="M472 456.5C472 439.655 484.536 426 500 426 515.464 426 528 439.655 528 456.5 528 473.345 515.464 487 500 487 484.536 487 472 473.345 472 456.5Z" fill="url(#fill8)" fill-rule="evenodd"/><g clip-path="url(#clip9)"><g clip-path="url(#clip10)"><g clip-path="url(#clip11)"><path d="M149.056 352.179 149.056 238.78C149.056 234.405 146.722 230.361 142.932 228.173 139.143 225.986 134.474 225.986 130.684 228.173 126.895 230.361 124.56 234.405 124.56 238.78L124.56 352.179C124.56 356.555 126.895 360.598 130.684 362.786 134.474 364.974 139.143 364.974 142.932 362.786 146.722 360.598 149.056 356.555 149.056 352.179Z" stroke="#33A3FF" stroke-width="5.38982" fill="#0F1113"/><path d="M369.819 348.498 461.86 348.498 496.86 407.591 313.692 407.591 313.692 290.873 369.819 290.873Z" stroke="#33A3FF" stroke-width="5.38982" fill="#0F1113"/><path d="M376.879 341.423 457.663 341.423 439.477 310.713C432.192 298.415 418.959 290.874 404.665 290.872L376.88 290.872Z" stroke="#33A3FF" stroke-width="5.38982" fill="#0F1113"/><path d="M550.125 447.027 112.875 447.027C113.752 438.162 117.897 429.939 124.499 423.958 131.101 417.977 139.692 414.665 148.6 414.665L514.406 414.665C523.314 414.666 531.904 417.978 538.502 423.959 545.104 429.94 549.25 438.162 550.125 447.027Z" stroke="#33A3FF" stroke-width="5.38982" fill="#0F1113"/><path d="M550.125 454.102 112.875 454.102C113.752 462.967 117.897 471.19 124.499 477.171 131.101 483.152 139.692 486.464 148.6 486.464L514.406 486.464C523.314 486.463 531.904 483.151 538.502 477.169 545.104 471.188 549.25 462.967 550.125 454.102Z" stroke="#33A3FF" stroke-width="5.38982" fill="#0F1113"/><path d="M224.41 271.773 156.115 277.243 156.115 313.72 179.993 315.636 179.993 377.642 175.313 377.642 175.313 407.595 225.076 407.595 225.076 377.642 220.37 377.642 220.37 318.872 224.407 319.173 224.408 319.173C226.483 319.336 228.531 318.625 230.059 317.212 231.587 315.801 232.456 313.815 232.456 311.733L232.456 279.195C232.456 277.114 231.587 275.129 230.059 273.716 228.531 272.302 226.483 271.592 224.408 271.755Z" stroke="#33A3FF" stroke-width="5.38982" fill="#0F1113"/></g></g></g></g></svg>