<svg width="550" height="550" xmlns="http://www.w3.org/2000/svg" xmlns:xlink="http://www.w3.org/1999/xlink" overflow="hidden"><defs><clipPath id="clip0"><rect x="54" y="675" width="550" height="550"/></clipPath><radialGradient cx="762000" cy="762000" r="1.07763e+06" gradientUnits="userSpaceOnUse" spreadMethod="pad" id="fill1" gradientTransform="matrix(0.000360892 0 0 0.000360892 54 675)"><stop offset="0" stop-color="#5D6CFF"/><stop offset="0.17" stop-color="#5D6CFF"/><stop offset="0.33" stop-color="#4B57CC"/><stop offset="1" stop-color="#0F1113"/></radialGradient><radialGradient cx="374073" cy="421178" r="563313" fx="374073" fy="421178" gradientUnits="userSpaceOnUse" spreadMethod="pad" id="fill2" gradientTransform="matrix(0.000360892 0 0 0.000360892 73.9999 703)"><stop offset="0" stop-color="#5D6CFF"/><stop offset="0.54" stop-color="#4B57CC" stop-opacity="0"/><stop offset="1" stop-color="#4B57CC" stop-opacity="0"/></radialGradient><linearGradient x1="326.5" y1="681" x2="326.5" y2="835" gradientUnits="userSpaceOnUse" spreadMethod="reflect" id="fill3"><stop offset="0" stop-color="#F5FAFF" stop-opacity="0.231373"/><stop offset="0.32" stop-color="#FFFFFF" stop-opacity="0"/><stop offset="1" stop-color="#FFFFFF" stop-opacity="0"/></linearGradient><radialGradient cx="94210.5" cy="102524" r="139236" gradientUnits="userSpaceOnUse" spreadMethod="pad" id="fill4" gradientTransform="matrix(0.000360892 0 0 0.000360892 92.0001 803)"><stop offset="0" stop-color="#5D6CFF"/><stop offset="0.54" stop-color="#4B57CC" stop-opacity="0"/><stop offset="1" stop-color="#4B57CC" stop-opacity="0"/></radialGradient><radialGradient cx="112222" cy="120534" r="164689" gradientUnits="userSpaceOnUse" spreadMethod="pad" id="fill5" gradientTransform="matrix(0.000360892 0 0 0.000360892 121 849)"><stop offset="0" stop-color="#5D6CFF"/><stop offset="0.54" stop-color="#4B57CC" stop-opacity="0"/><stop offset="1" stop-color="#4B57CC" stop-opacity="0"/></radialGradient><radialGradient cx="292331" cy="279862" r="404698" fx="292331" fy="279862" gradientUnits="userSpaceOnUse" spreadMethod="pad" id="fill6" gradientTransform="matrix(0.000360892 0 0 0.000360892 343 979)"><stop offset="0" stop-color="#5D6CFF"/><stop offset="0.54" stop-color="#4B57CC" stop-opacity="0"/><stop offset="1" stop-color="#4B57CC" stop-opacity="0"/></radialGradient><radialGradient cx="72043.5" cy="77585.5" r="105876" fx="72043.5" fy="77585.5" gradientUnits="userSpaceOnUse" spreadMethod="pad" id="fill7" gradientTransform="matrix(0.000360892 0 0 0.000360892 488 1108)"><stop offset="0" stop-color="#5D6CFF"/><stop offset="0.54" stop-color="#4B57CC" stop-opacity="0"/><stop offset="1" stop-color="#4B57CC" stop-opacity="0"/></radialGradient><radialGradient cx="77585.5" cy="83127" r="113708" gradientUnits="userSpaceOnUse" spreadMethod="pad" id="fill8" gradientTransform="matrix(0.000360892 0 0 0.000360892 472 1025)"><stop offset="0" stop-color="#5D6CFF"/><stop offset="0.54" stop-color="#4B57CC" stop-opacity="0"/><stop offset="1" stop-color="#4B57CC" stop-opacity="0"/></radialGradient><clipPath id="clip9"><rect x="77" y="701" width="509" height="509"/></clipPath><clipPath id="clip10"><rect x="77" y="701" width="509" height="509"/></clipPath><clipPath id="clip11"><rect x="77" y="701" width="509" height="509"/></clipPath></defs><g clip-path="url(#clip0)" transform="translate(-54 -675)"><rect x="54" y="675" width="550" height="550" fill="url(#fill1)"/><path d="M73.9999 855C73.9999 771.053 134.441 703 209 703 283.558 703 344 771.053 344 855 344 938.947 283.558 1007 209 1007 134.441 1007 73.9999 938.947 73.9999 855Z" fill="url(#fill2)" fill-rule="evenodd"/><path d="M87.7338 681 565.266 681C581.136 681 594 700.864 594 725.368L594 835C594 796.824 573.957 765.876 549.233 765.876L103.767 765.876C79.0428 765.876 59.0001 796.824 59.0001 835L59.0001 725.368C59.0001 700.864 71.8646 681 87.7338 681Z" fill="url(#fill3)" fill-rule="evenodd"/><path d="M92.0001 840C92.0001 819.565 107.222 803 126 803 144.778 803 160 819.565 160 840 160 860.434 144.778 877 126 877 107.222 877 92.0001 860.434 92.0001 840Z" fill="url(#fill4)" fill-rule="evenodd"/><path d="M121 892.5C121 868.476 139.132 849 161.5 849 183.868 849 202 868.476 202 892.5 202 916.524 183.868 936 161.5 936 139.132 936 121 916.524 121 892.5Z" fill="url(#fill5)" fill-rule="evenodd"/><path d="M343 1080C343 1024.22 390.234 979 448.5 979 506.766 979 554 1024.22 554 1080 554 1135.78 506.766 1181 448.5 1181 390.234 1181 343 1135.78 343 1080Z" fill="url(#fill6)" fill-rule="evenodd"/><path d="M488 1136C488 1120.54 499.641 1108 514 1108 528.359 1108 540 1120.54 540 1136 540 1151.46 528.359 1164 514 1164 499.641 1164 488 1151.46 488 1136Z" fill="url(#fill7)" fill-rule="evenodd"/><path d="M472 1055C472 1038.43 484.536 1025 500 1025 515.464 1025 528 1038.43 528 1055 528 1071.57 515.464 1085 500 1085 484.536 1085 472 1071.57 472 1055Z" fill="url(#fill8)" fill-rule="evenodd"/><g clip-path="url(#clip9)"><g clip-path="url(#clip10)"><g clip-path="url(#clip11)"><path d="M242.43 956.322 328.888 932.473 328.889 932.474C330.27 932.093 331.729 932.093 333.109 932.474L419.567 956.323 419.569 956.322C421.92 949.406 427.304 943.943 434.187 941.492L434.187 930.669 330.999 908.557 227.812 930.669 227.812 941.492C234.694 943.943 240.079 949.406 242.43 956.322Z" stroke="#33A3FF" stroke-width="6.1021" fill="#0F1113"/><path d="M323.063 982.014 323.063 950.55 243.688 972.444 243.688 980.745C243.682 984.614 242.267 988.347 239.707 991.246 237.147 994.147 233.619 996.014 229.781 996.496L182.156 1002.45C178.911 1002.86 175.619 1002.26 172.733 1000.72 169.847 999.187 167.511 996.789 166.047 993.865L108.749 1009.67 108.749 1020.28 183.65 1028.03Z" stroke="#33A3FF" stroke-width="6.1021" fill="#0F1113"/><path d="M332.664 860.928 346.875 863.972 346.875 843.161 331.876 844.828C331.294 844.892 330.705 844.892 330.123 844.828L315.125 843.161 315.125 863.974 329.336 860.929 329.336 860.928C330.432 860.693 331.567 860.693 332.663 860.928Z" stroke="#33A3FF" stroke-width="6.1021" fill="#0F1113"/><path d="M222.212 1032.02 331 1043.27 439.788 1032.02 331 996.111ZM338.938 1027.44 323.063 1027.44 323.063 1011.56 338.938 1011.56Z" stroke="#33A3FF" stroke-width="6.1021" fill="#0F1113"/><path d="M275.438 904.226 329.336 892.676 329.336 892.677C330.433 892.442 331.567 892.442 332.663 892.677L386.562 904.226 386.562 888.712 331 876.806 275.437 888.712Z" stroke="#33A3FF" stroke-width="6.1021" fill="#0F1113"/><path d="M330.183 1059.15 132.562 1038.7 132.562 1053.75 331 1075.02 529.438 1053.75 529.438 1038.7 331.817 1059.14C331.273 1059.2 330.727 1059.2 330.183 1059.14Z" stroke="#33A3FF" stroke-width="6.1021" fill="#0F1113"/><path d="M227.813 963.938C227.811 961.832 226.973 959.815 225.486 958.327 223.997 956.84 221.98 956.002 219.875 956L207.076 956 211.531 969.365 196.469 974.385 190.341 956 188.125 956C186.02 956.001 184.002 956.839 182.514 958.326 181.027 959.815 180.189 961.832 180.187 963.937L180.187 986.696 227.812 980.743Z" stroke="#33A3FF" stroke-width="6.1021" fill="#0F1113"/><path d="M330.153 1090.89 116.688 1068.02 116.688 1083.8 331 1106.76 545.313 1083.8 545.313 1068.02 331.847 1090.89C331.284 1090.95 330.716 1090.95 330.153 1090.89Z" stroke="#33A3FF" stroke-width="6.1021" fill="#0F1113"/><path d="M495.952 993.863C494.48 996.781 492.144 999.173 489.258 1000.71 486.374 1002.25 483.087 1002.85 479.844 1002.45L432.219 996.494C428.381 996.01 424.852 994.143 422.292 991.244 419.732 988.345 418.317 984.611 418.312 980.743L418.312 972.442 338.937 950.548 338.937 982.012 478.349 1028.03 553.25 1020.28 553.25 1009.67Z" stroke="#33A3FF" stroke-width="6.1021" fill="#0F1113"/><path d="M434.188 980.744 481.813 986.697 481.827 986.697 481.813 963.938C481.811 961.832 480.973 959.815 479.486 958.327 477.997 956.84 475.98 956.002 473.875 956L471.659 956 465.531 974.385 450.469 969.365 454.924 956 442.125 956C440.02 956.002 438.002 956.84 436.514 958.327 435.027 959.815 434.189 961.833 434.187 963.938Z" stroke="#33A3FF" stroke-width="6.1021" fill="#0F1113"/><path d="M394.5 821.896 394.5 804.354 331 797.298 267.5 804.354 267.5 821.896 331 828.953Z" stroke="#33A3FF" stroke-width="6.1021" fill="#0F1113"/><path d="M461.975 1108.7 474.713 1134.18 488.911 1127.08 478.823 1106.9Z" stroke="#33A3FF" stroke-width="6.1021" fill="#0F1113"/><path d="M431.838 1111.93 442.962 1134.18 457.16 1127.08 448.685 1110.12Z" stroke="#33A3FF" stroke-width="6.1021" fill="#0F1113"/><path d="M323.063 1121.88 338.938 1121.88 338.938 1146.5 323.063 1146.5Z" stroke="#33A3FF" stroke-width="6.1021" fill="#0F1113"/><path d="M204.838 1127.07 219.036 1134.17 230.16 1111.92 213.313 1110.12Z" stroke="#33A3FF" stroke-width="6.1021" fill="#0F1113"/><path d="M173.088 1127.07 187.286 1134.17 200.024 1108.69 183.177 1106.89Z" stroke="#33A3FF" stroke-width="6.1021" fill="#0F1113"/><path d="M201.786 940.125 195.657 921.74 180.596 926.76 185.117 940.321Z" stroke="#33A3FF" stroke-width="6.1021" fill="#0F1113"/><path d="M291.312 765.5 275.438 765.5 275.438 787.5 291.312 785.736Z" stroke="#33A3FF" stroke-width="6.1021" fill="#0F1113"/><path d="M323.063 782.209 338.938 782.209 338.938 765.5 354.813 765.5 354.813 749.625 307.188 749.625 307.188 765.5 323.063 765.5Z" stroke="#33A3FF" stroke-width="6.1021" fill="#0F1113"/><path d="M386.563 765.5 370.688 765.5 370.688 785.736 386.563 787.5Z" stroke="#33A3FF" stroke-width="6.1021" fill="#0F1113"/><path d="M481.406 926.76 466.345 921.74 460.216 940.125 476.885 940.322Z" stroke="#33A3FF" stroke-width="6.1021" fill="#0F1113"/></g></g></g></g></svg>