<svg width="550" height="550" xmlns="http://www.w3.org/2000/svg" xmlns:xlink="http://www.w3.org/1999/xlink" overflow="hidden"><defs><clipPath id="clip0"><rect x="2466" y="76" width="550" height="550"/></clipPath><radialGradient cx="762000" cy="762000" r="1.07763e+06" gradientUnits="userSpaceOnUse" spreadMethod="pad" id="fill1" gradientTransform="matrix(0.000360892 0 0 0.000360892 2466 76)"><stop offset="0" stop-color="#5D6CFF"/><stop offset="0.17" stop-color="#5D6CFF"/><stop offset="0.33" stop-color="#4B57CC"/><stop offset="1" stop-color="#0F1113"/></radialGradient><radialGradient cx="374072" cy="419793" r="562278" gradientUnits="userSpaceOnUse" spreadMethod="pad" id="fill2" gradientTransform="matrix(0.000360892 0 0 0.000360892 2487 105)"><stop offset="0" stop-color="#5D6CFF"/><stop offset="0.54" stop-color="#4B57CC" stop-opacity="0"/><stop offset="1" stop-color="#4B57CC" stop-opacity="0"/></radialGradient><linearGradient x1="2739.5" y1="82.0002" x2="2739.5" y2="236" gradientUnits="userSpaceOnUse" spreadMethod="reflect" id="fill3"><stop offset="0" stop-color="#F5FAFF" stop-opacity="0.231373"/><stop offset="0.32" stop-color="#FFFFFF" stop-opacity="0"/><stop offset="1" stop-color="#FFFFFF" stop-opacity="0"/></linearGradient><radialGradient cx="94211" cy="102524" r="139237" fx="94211" fy="102524" gradientUnits="userSpaceOnUse" spreadMethod="pad" id="fill4" gradientTransform="matrix(0.000360892 0 0 0.000360892 2505 205)"><stop offset="0" stop-color="#5D6CFF"/><stop offset="0.54" stop-color="#4B57CC" stop-opacity="0"/><stop offset="1" stop-color="#4B57CC" stop-opacity="0"/></radialGradient><radialGradient cx="112222" cy="120534" r="164688" gradientUnits="userSpaceOnUse" spreadMethod="pad" id="fill5" gradientTransform="matrix(0.000360892 0 0 0.000360892 2534 250)"><stop offset="0" stop-color="#5D6CFF"/><stop offset="0.54" stop-color="#4B57CC" stop-opacity="0"/><stop offset="1" stop-color="#4B57CC" stop-opacity="0"/></radialGradient><radialGradient cx="293716" cy="278476" r="404745" gradientUnits="userSpaceOnUse" spreadMethod="pad" id="fill6" gradientTransform="matrix(0.000360892 0 0 0.000360892 2755 381)"><stop offset="0" stop-color="#5D6CFF"/><stop offset="0.54" stop-color="#4B57CC" stop-opacity="0"/><stop offset="1" stop-color="#4B57CC" stop-opacity="0"/></radialGradient><radialGradient cx="72044" cy="77585.5" r="105877" fx="72044" fy="77585.5" gradientUnits="userSpaceOnUse" spreadMethod="pad" id="fill7" gradientTransform="matrix(0.000360892 0 0 0.000360892 2901 509)"><stop offset="0" stop-color="#5D6CFF"/><stop offset="0.54" stop-color="#4B57CC" stop-opacity="0"/><stop offset="1" stop-color="#4B57CC" stop-opacity="0"/></radialGradient><radialGradient cx="77585.5" cy="84513" r="114726" fx="77585.5" fy="84513" gradientUnits="userSpaceOnUse" spreadMethod="pad" id="fill8" gradientTransform="matrix(0.000360892 0 0 0.000360892 2885 426)"><stop offset="0" stop-color="#5D6CFF"/><stop offset="0.54" stop-color="#4B57CC" stop-opacity="0"/><stop offset="1" stop-color="#4B57CC" stop-opacity="0"/></radialGradient><linearGradient x1="2910.72" y1="320.341" x2="3013.84" y2="297.033" gradientUnits="userSpaceOnUse" spreadMethod="reflect" id="fill9"><stop offset="0" stop-color="#33A3FF"/><stop offset="0.76" stop-color="#20A0FB" stop-opacity="0"/><stop offset="1" stop-color="#20A0FB" stop-opacity="0"/></linearGradient><linearGradient x1="2901.6" y1="278.414" x2="3004.72" y2="255.105" gradientUnits="userSpaceOnUse" spreadMethod="reflect" id="fill10"><stop offset="0" stop-color="#33A3FF"/><stop offset="0.76" stop-color="#20A0FB" stop-opacity="0"/><stop offset="1" stop-color="#20A0FB" stop-opacity="0"/></linearGradient></defs><g clip-path="url(#clip0)" transform="translate(-2466 -76)"><rect x="2466" y="76" width="550" height="550" fill="url(#fill1)"/><path d="M2487 256.5C2487 172.829 2547.44 105 2622 105 2696.56 105 2757 172.829 2757 256.5 2757 340.171 2696.56 408 2622 408 2547.44 408 2487 340.171 2487 256.5Z" fill="url(#fill2)" fill-rule="evenodd"/><path d="M2500.73 82.0002 2978.27 82.0002C2994.14 82.0002 3007 101.864 3007 126.368L3007 236C3007 197.824 2986.96 166.876 2962.23 166.876L2516.77 166.876C2492.04 166.876 2472 197.824 2472 236L2472 126.368C2472 101.864 2484.86 82.0002 2500.73 82.0002Z" fill="url(#fill3)" fill-rule="evenodd"/><path d="M2505 242C2505 221.565 2520.22 205 2539 205 2557.78 205 2573 221.565 2573 242 2573 262.435 2557.78 279 2539 279 2520.22 279 2505 262.435 2505 242Z" fill="url(#fill4)" fill-rule="evenodd"/><path d="M2534 293.5C2534 269.476 2552.13 250 2574.5 250 2596.87 250 2615 269.476 2615 293.5 2615 317.524 2596.87 337 2574.5 337 2552.13 337 2534 317.524 2534 293.5Z" fill="url(#fill5)" fill-rule="evenodd"/><path d="M2755 481.5C2755 425.995 2802.46 381 2861 381 2919.54 381 2967 425.995 2967 481.5 2967 537.005 2919.54 582 2861 582 2802.46 582 2755 537.005 2755 481.5Z" fill="url(#fill6)" fill-rule="evenodd"/><path d="M2901 537C2901 521.536 2912.64 509 2927 509 2941.36 509 2953 521.536 2953 537 2953 552.464 2941.36 565 2927 565 2912.64 565 2901 552.464 2901 537Z" fill="url(#fill7)" fill-rule="evenodd"/><path d="M2885 456.5C2885 439.655 2897.54 426 2913 426 2928.46 426 2941 439.655 2941 456.5 2941 473.345 2928.46 487 2913 487 2897.54 487 2885 473.345 2885 456.5Z" fill="url(#fill8)" fill-rule="evenodd"/><path d="M2693.33 319.052C2693.15 318.125 2693.75 317.225 2694.68 317.042L2893.61 277.935C2894.54 277.753 2895.44 278.357 2895.62 279.285L2896.95 286.005C2897.13 286.932 2896.52 287.832 2895.6 288.015L2696.66 327.122C2695.73 327.304 2694.83 326.7 2694.65 325.772Z" stroke="#33A3FF" stroke-width="4.58333" stroke-miterlimit="8" fill="#0F1113" fill-rule="evenodd"/><path d="M2701.08 358.45C2700.89 357.523 2701.5 356.622 2702.43 356.44L2901.36 317.333C2902.29 317.151 2903.19 317.755 2903.37 318.683L2904.69 325.402C2904.87 326.33 2904.27 327.23 2903.34 327.413L2704.41 366.52C2703.48 366.702 2702.58 366.098 2702.4 365.17Z" stroke="#33A3FF" stroke-width="4.58333" stroke-miterlimit="8" fill="#0F1113" fill-rule="evenodd"/><path d="M0 1.71211C-3.29235e-16 0.76654 0.766539 0 1.71211 0L18.976 0C19.9216 -3.29235e-16 20.6882 0.76654 20.6882 1.71211L20.6882 8.56033C20.6882 9.5059 19.9216 10.2724 18.976 10.2724L1.71211 10.2724C0.766539 10.2724 0 9.5059 0 8.56033Z" stroke="#33A3FF" stroke-width="4.58333" stroke-miterlimit="8" fill="#0F1113" fill-rule="evenodd" transform="matrix(-0.192891 -0.98122 -0.98122 0.192891 2891.77 294.074)"/><path d="M0 1.71211C-3.29235e-16 0.76654 0.766539 0 1.71211 0L18.976 0C19.9216 -3.29235e-16 20.6882 0.76654 20.6882 1.71211L20.6882 8.56033C20.6882 9.5059 19.9216 10.2724 18.976 10.2724L1.71211 10.2724C0.766539 10.2724 0 9.5059 0 8.56033Z" stroke="#33A3FF" stroke-width="4.58333" stroke-miterlimit="8" fill="#0F1113" fill-rule="evenodd" transform="matrix(-0.192891 -0.98122 -0.98122 0.192891 2899.49 333.353)"/><path d="M2603.66 341.109C2603.36 339.568 2604.36 338.074 2605.91 337.771L2774.76 304.577C2776.3 304.274 2777.79 305.278 2778.1 306.818L2780.29 317.976C2780.59 319.516 2779.59 321.011 2778.05 321.314L2609.2 354.507C2607.65 354.81 2606.16 353.807 2605.86 352.266Z" stroke="#33A3FF" stroke-width="4.58333" stroke-miterlimit="8" fill="#0F1113" fill-rule="evenodd"/><path d="M2609.08 368.687C2608.78 367.147 2609.79 365.652 2611.33 365.349L2780.18 332.156C2781.72 331.853 2783.21 332.856 2783.52 334.397L2785.71 345.555C2786.01 347.095 2785.01 348.59 2783.47 348.892L2614.62 382.086C2613.08 382.389 2611.58 381.385 2611.28 379.845Z" stroke="#33A3FF" stroke-width="4.58333" stroke-miterlimit="8" fill="#0F1113" fill-rule="evenodd"/><path d="M2566.3 310.193 2723.22 279.346 2796.78 481.214 2574.56 526.956 2566.3 310.193Z" stroke="#33A3FF" stroke-width="4.58333" stroke-miterlimit="8" fill="#0F1113" fill-rule="evenodd"/><path d="M3015.66 305.079 2912.54 328.388 2908.9 312.294 3012.02 288.986Z" fill="url(#fill9)" fill-rule="evenodd"/><path d="M3006.54 263.152 2903.42 286.46 2899.78 270.367 3002.9 247.058Z" fill="url(#fill10)" fill-rule="evenodd"/></g></svg>