<svg width="550" height="550" xmlns="http://www.w3.org/2000/svg" xmlns:xlink="http://www.w3.org/1999/xlink" overflow="hidden"><defs><clipPath id="clip0"><rect x="1854" y="675" width="550" height="550"/></clipPath><radialGradient cx="762000" cy="762000" r="1.07763e+06" gradientUnits="userSpaceOnUse" spreadMethod="pad" id="fill1" gradientTransform="matrix(0.000360892 0 0 0.000360892 1854 675)"><stop offset="0" stop-color="#5D6CFF"/><stop offset="0.17" stop-color="#5D6CFF"/><stop offset="0.33" stop-color="#4B57CC"/><stop offset="1" stop-color="#0F1113"/></radialGradient><radialGradient cx="374072" cy="421178" r="563313" fx="374072" fy="421178" gradientUnits="userSpaceOnUse" spreadMethod="pad" id="fill2" gradientTransform="matrix(0.000360892 0 0 0.000360892 1874 703)"><stop offset="0" stop-color="#5D6CFF"/><stop offset="0.54" stop-color="#4B57CC" stop-opacity="0"/><stop offset="1" stop-color="#4B57CC" stop-opacity="0"/></radialGradient><linearGradient x1="2127" y1="681" x2="2127" y2="835" gradientUnits="userSpaceOnUse" spreadMethod="reflect" id="fill3"><stop offset="0" stop-color="#F5FAFF" stop-opacity="0.231373"/><stop offset="0.32" stop-color="#FFFFFF" stop-opacity="0"/><stop offset="1" stop-color="#FFFFFF" stop-opacity="0"/></linearGradient><radialGradient cx="94211" cy="102524" r="139236" gradientUnits="userSpaceOnUse" spreadMethod="pad" id="fill4" gradientTransform="matrix(0.000360892 0 0 0.000360892 1893 803)"><stop offset="0" stop-color="#5D6CFF"/><stop offset="0.54" stop-color="#4B57CC" stop-opacity="0"/><stop offset="1" stop-color="#4B57CC" stop-opacity="0"/></radialGradient><radialGradient cx="112222" cy="120534" r="164689" gradientUnits="userSpaceOnUse" spreadMethod="pad" id="fill5" gradientTransform="matrix(0.000360892 0 0 0.000360892 1921 849)"><stop offset="0" stop-color="#5D6CFF"/><stop offset="0.54" stop-color="#4B57CC" stop-opacity="0"/><stop offset="1" stop-color="#4B57CC" stop-opacity="0"/></radialGradient><radialGradient cx="292331" cy="279862" r="404698" fx="292331" fy="279862" gradientUnits="userSpaceOnUse" spreadMethod="pad" id="fill6" gradientTransform="matrix(0.000360892 0 0 0.000360892 2143 979)"><stop offset="0" stop-color="#5D6CFF"/><stop offset="0.54" stop-color="#4B57CC" stop-opacity="0"/><stop offset="1" stop-color="#4B57CC" stop-opacity="0"/></radialGradient><radialGradient cx="72043.5" cy="77585.5" r="105876" fx="72043.5" fy="77585.5" gradientUnits="userSpaceOnUse" spreadMethod="pad" id="fill7" gradientTransform="matrix(0.000360892 0 0 0.000360892 2288 1108)"><stop offset="0" stop-color="#5D6CFF"/><stop offset="0.54" stop-color="#4B57CC" stop-opacity="0"/><stop offset="1" stop-color="#4B57CC" stop-opacity="0"/></radialGradient><radialGradient cx="77585.5" cy="83127" r="113708" gradientUnits="userSpaceOnUse" spreadMethod="pad" id="fill8" gradientTransform="matrix(0.000360892 0 0 0.000360892 2272 1025)"><stop offset="0" stop-color="#5D6CFF"/><stop offset="0.54" stop-color="#4B57CC" stop-opacity="0"/><stop offset="1" stop-color="#4B57CC" stop-opacity="0"/></radialGradient><linearGradient x1="1973" y1="978.5" x2="1867" y2="978.5" gradientUnits="userSpaceOnUse" spreadMethod="reflect" id="fill9"><stop offset="0" stop-color="#33A3FF"/><stop offset="0.76" stop-color="#20A0FB" stop-opacity="0"/><stop offset="1" stop-color="#20A0FB" stop-opacity="0"/></linearGradient><clipPath id="clip10"><rect x="1934" y="780" width="400" height="401"/></clipPath><clipPath id="clip11"><rect x="1934" y="780" width="400" height="401"/></clipPath><clipPath id="clip12"><rect x="1934" y="780" width="400" height="401"/></clipPath></defs><g clip-path="url(#clip0)" transform="translate(-1854 -675)"><rect x="1854" y="675" width="550" height="550" fill="url(#fill1)"/><path d="M1874 855C1874 771.053 1934.44 703 2009 703 2083.56 703 2144 771.053 2144 855 2144 938.947 2083.56 1007 2009 1007 1934.44 1007 1874 938.947 1874 855Z" fill="url(#fill2)" fill-rule="evenodd"/><path d="M1887.79 681 2366.21 681C2382.11 681 2395 700.864 2395 725.368L2395 835C2395 796.824 2374.92 765.876 2350.15 765.876L1903.85 765.876C1879.08 765.876 1859 796.824 1859 835L1859 725.368C1859 700.864 1871.89 681 1887.79 681Z" fill="url(#fill3)" fill-rule="evenodd"/><path d="M1893 840C1893 819.565 1908.22 803 1927 803 1945.78 803 1961 819.565 1961 840 1961 860.434 1945.78 877 1927 877 1908.22 877 1893 860.434 1893 840Z" fill="url(#fill4)" fill-rule="evenodd"/><path d="M1921 892.5C1921 868.476 1939.13 849 1961.5 849 1983.87 849 2002 868.476 2002 892.5 2002 916.524 1983.87 936 1961.5 936 1939.13 936 1921 916.524 1921 892.5Z" fill="url(#fill5)" fill-rule="evenodd"/><path d="M2143 1080C2143 1024.22 2190.23 979 2248.5 979 2306.77 979 2354 1024.22 2354 1080 2354 1135.78 2306.77 1181 2248.5 1181 2190.23 1181 2143 1135.78 2143 1080Z" fill="url(#fill6)" fill-rule="evenodd"/><path d="M2288 1136C2288 1120.54 2299.64 1108 2314 1108 2328.36 1108 2340 1120.54 2340 1136 2340 1151.46 2328.36 1164 2314 1164 2299.64 1164 2288 1151.46 2288 1136Z" fill="url(#fill7)" fill-rule="evenodd"/><path d="M2272 1055C2272 1038.43 2284.54 1025 2300 1025 2315.46 1025 2328 1038.43 2328 1055 2328 1071.57 2315.46 1085 2300 1085 2284.54 1085 2272 1071.57 2272 1055Z" fill="url(#fill8)" fill-rule="evenodd"/><rect x="1867" y="891" width="106" height="175" fill="url(#fill9)"/><g clip-path="url(#clip10)"><g clip-path="url(#clip11)"><g clip-path="url(#clip12)"><path d="M139.035 259.397 65.8151 259.397C69.6076 277.744 77.3448 295.14 88.5511 310.256Z" stroke="#33A3FF" stroke-width="4.58621" fill="#0F1113" transform="matrix(6.13858e-17 1.00251 -1 6.12323e-17 2333 781)"/><path d="M150.327 111.125C114.762 123.355 86.849 150.473 72.8873 184.208L148.012 211.786Z" stroke="#33A3FF" stroke-width="4.58621" fill="#0F1113" transform="matrix(6.13858e-17 1.00251 -1 6.12323e-17 2333 781)"/><path d="M143.906 236.817C143.906 232.312 144.672 227.817 145.956 223.394L63.449 223.394C63.1933 226.681 63.0347 229.987 63.0347 233.321 63.0347 238.856 63.5088 244.348 64.2141 249.803L145.693 249.803C144.528 245.586 143.906 241.244 143.906 236.816Z" stroke="#33A3FF" stroke-width="4.58621" fill="#0F1113" transform="matrix(6.13858e-17 1.00251 -1 6.12323e-17 2333 781)"/><path d="M150.559 100.944 151.426 63.2448C151.488 60.6367 153.618 58.5549 156.222 58.5549L160.688 58.5549 160.688 6.04651 134.132 6.04651 86.7609 143.382C103.317 123.902 125.211 108.939 150.561 100.942Z" stroke="#33A3FF" stroke-width="4.58621" fill="#0F1113" transform="matrix(6.13858e-17 1.00251 -1 6.12323e-17 2333 781)"/><path d="M277.997 136.581C265.25 125.292 250.339 116.558 234.313 111.043L235.77 174.321Z" stroke="#33A3FF" stroke-width="4.58621" fill="#0F1113" transform="matrix(6.13858e-17 1.00251 -1 6.12323e-17 2333 781)"/><path d="M233.209 63.2448 234.076 100.9C252.913 106.843 270.439 116.875 285.192 130.149L291.396 124.604 250.505 6.04784 223.949 6.04784 223.949 58.5563 228.415 58.5563C231.019 58.5549 233.149 60.6384 233.212 63.2452Z" stroke="#33A3FF" stroke-width="4.58621" fill="#0F1113" transform="matrix(6.13858e-17 1.00251 -1 6.12323e-17 2333 781)"/><path d="M153.499 236.817C153.499 258.708 171.312 275.593 192.355 275.596 214.052 275.596 231.137 258.007 231.137 236.817 231.137 215.386 213.618 198.04 192.361 198.04 170.174 198.04 153.502 216.259 153.502 236.817Z" stroke="#33A3FF" stroke-width="4.58621" fill="#0F1113" transform="matrix(6.13858e-17 1.00251 -1 6.12323e-17 2333 781)"/><path d="M192.358 188.448C200.072 188.448 207.466 190.328 214.1 193.685L226.364 182.725 223.724 68.1489 160.914 68.1489 157.808 203.074C166.799 193.833 179.121 188.449 192.358 188.449Z" stroke="#33A3FF" stroke-width="4.58621" fill="#0F1113" transform="matrix(6.13858e-17 1.00251 -1 6.12323e-17 2333 781)"/><path d="M69.5291 193.189C67.3289 199.868 65.6741 206.757 64.5871 213.804L125.667 213.804Z" stroke="#33A3FF" stroke-width="4.58621" fill="#0F1113" transform="matrix(6.13858e-17 1.00251 -1 6.12323e-17 2333 781)"/><path d="M238.695 223.397C239.954 227.784 240.729 232.36 240.729 236.819 240.729 241.24 240.106 245.586 238.939 249.806L320.505 249.806C321.158 244.396 321.601 238.921 321.601 233.324 321.601 229.998 321.466 226.687 321.215 223.397Z" stroke="#33A3FF" stroke-width="4.58621" fill="#0F1113" transform="matrix(6.13858e-17 1.00251 -1 6.12323e-17 2333 781)"/><path d="M255.686 204.797 311.872 184.188C309.206 177.71 305.99 171.452 302.266 165.438Z" stroke="#33A3FF" stroke-width="4.58621" fill="#0F1113" transform="matrix(6.13858e-17 1.00251 -1 6.12323e-17 2333 781)"/><path d="M315.187 193.189 258.994 213.803 320.131 213.803C319.069 206.781 317.38 199.904 315.189 193.189Z" stroke="#33A3FF" stroke-width="4.58621" fill="#0F1113" transform="matrix(6.13858e-17 1.00251 -1 6.12323e-17 2333 781)"/><path d="M322.808 92.6312C316.881 94.2169 312.934 100.888 312.934 106.327 312.699 114.647 313.716 117.383 311.407 119.556 311.377 119.584 311.366 119.623 311.335 119.652 236.898 186.478 243.219 180.529 222.451 199.089 226.49 202.333 230.093 206.184 232.986 210.697 233.089 210.85 233.164 211.027 233.264 211.183L335.968 124.4 335.968 106.305C335.968 98.9367 330.108 92.9102 322.807 92.6322Z" stroke="#33A3FF" stroke-width="4.58621" fill="#0F1113" transform="matrix(6.13858e-17 1.00251 -1 6.12323e-17 2333 781)"/><path d="M192.401 285.189C192.387 285.189 192.373 285.191 192.358 285.191L192.357 285.191 192.352 285.191C175.237 285.191 159.118 275.87 150.557 261.406L73.0975 339.453C103.882 373.926 147.338 392.955 192.285 392.955 235.996 392.955 279.839 374.811 311.154 339.828L233.771 261.875C225.101 276.281 208.799 285.176 192.399 285.193ZM143.095 352.556 142.383 352.556C139.735 352.556 137.586 350.409 137.586 347.759 137.586 345.112 139.734 342.964 142.383 342.964L143.095 342.964C145.743 342.964 147.891 345.112 147.891 347.759 147.891 350.409 145.743 352.556 143.095 352.556ZM157.84 322.925 157.129 322.925C154.481 322.925 152.332 320.777 152.332 318.128 152.332 315.48 154.48 313.332 157.129 313.332L157.84 313.332C160.489 313.332 162.637 315.48 162.637 318.128 162.637 320.777 160.489 322.925 157.84 322.925ZM196.713 313.333 197.418 313.333C200.067 313.333 202.215 315.481 202.215 318.13 202.215 320.778 200.067 322.926 197.418 322.926L196.713 322.926C194.065 322.926 191.916 320.778 191.916 318.13 191.916 315.481 194.065 313.333 196.713 313.333ZM197.774 352.553 197.062 352.553C194.414 352.553 192.266 350.405 192.266 347.759 192.266 345.108 194.414 342.961 197.062 342.961L197.774 342.961C200.422 342.961 202.571 345.108 202.571 347.759 202.571 350.405 200.422 352.553 197.774 352.553ZM251.749 342.964 252.461 342.964C255.109 342.964 257.257 345.112 257.257 347.759 257.257 350.409 255.109 352.556 252.461 352.556L251.749 352.556C249.101 352.556 246.952 350.409 246.952 347.759 246.952 345.112 249.1 342.964 251.749 342.964ZM237.003 313.331C239.651 313.331 241.8 315.48 241.8 318.128 241.8 320.776 239.651 322.925 237.003 322.925L236.292 322.925C233.643 322.925 231.495 320.776 231.495 318.128 231.495 315.48 233.643 313.331 236.292 313.331Z" stroke="#33A3FF" stroke-width="4.58621" fill="#0F1113" transform="matrix(6.13858e-17 1.00251 -1 6.12323e-17 2333 781)"/><path d="M295.895 310.841C307.486 295.693 315.292 278.285 319.003 259.4L244.835 259.4Z" stroke="#33A3FF" stroke-width="4.58621" fill="#0F1113" transform="matrix(6.13858e-17 1.00251 -1 6.12323e-17 2333 781)"/></g></g></g></g></svg>