<svg width="550" height="550" xmlns="http://www.w3.org/2000/svg" xmlns:xlink="http://www.w3.org/1999/xlink" overflow="hidden"><defs><clipPath id="clip0"><rect x="1853" y="76" width="550" height="550"/></clipPath><radialGradient cx="762000" cy="762000" r="1.07763e+06" gradientUnits="userSpaceOnUse" spreadMethod="pad" id="fill1" gradientTransform="matrix(0.000360892 0 0 0.000360892 1853 76)"><stop offset="0" stop-color="#5D6CFF"/><stop offset="0.17" stop-color="#5D6CFF"/><stop offset="0.33" stop-color="#4B57CC"/><stop offset="1" stop-color="#0F1113"/></radialGradient><radialGradient cx="374072" cy="419793" r="562278" gradientUnits="userSpaceOnUse" spreadMethod="pad" id="fill2" gradientTransform="matrix(0.000360892 0 0 0.000360892 1873 105)"><stop offset="0" stop-color="#5D6CFF"/><stop offset="0.54" stop-color="#4B57CC" stop-opacity="0"/><stop offset="1" stop-color="#4B57CC" stop-opacity="0"/></radialGradient><linearGradient x1="2126" y1="82.0002" x2="2126" y2="236" gradientUnits="userSpaceOnUse" spreadMethod="reflect" id="fill3"><stop offset="0" stop-color="#F5FAFF" stop-opacity="0.231373"/><stop offset="0.32" stop-color="#FFFFFF" stop-opacity="0"/><stop offset="1" stop-color="#FFFFFF" stop-opacity="0"/></linearGradient><radialGradient cx="95596.5" cy="102524" r="140178" fx="95596.5" fy="102524" gradientUnits="userSpaceOnUse" spreadMethod="pad" id="fill4" gradientTransform="matrix(0.000360892 0 0 0.000360892 1891 205)"><stop offset="0" stop-color="#5D6CFF"/><stop offset="0.54" stop-color="#4B57CC" stop-opacity="0"/><stop offset="1" stop-color="#4B57CC" stop-opacity="0"/></radialGradient><radialGradient cx="112222" cy="120534" r="164689" gradientUnits="userSpaceOnUse" spreadMethod="pad" id="fill5" gradientTransform="matrix(0.000360892 0 0 0.000360892 1920 250)"><stop offset="0" stop-color="#5D6CFF"/><stop offset="0.54" stop-color="#4B57CC" stop-opacity="0"/><stop offset="1" stop-color="#4B57CC" stop-opacity="0"/></radialGradient><radialGradient cx="292331" cy="278477" r="403741" fx="292331" fy="278476" gradientUnits="userSpaceOnUse" spreadMethod="pad" id="fill6" gradientTransform="matrix(0.000360892 0 0 0.000360892 2142 381)"><stop offset="0" stop-color="#5D6CFF"/><stop offset="0.54" stop-color="#4B57CC" stop-opacity="0"/><stop offset="1" stop-color="#4B57CC" stop-opacity="0"/></radialGradient><radialGradient cx="72043.5" cy="77585.5" r="105876" fx="72043.5" fy="77585.5" gradientUnits="userSpaceOnUse" spreadMethod="pad" id="fill7" gradientTransform="matrix(0.000360892 0 0 0.000360892 2287 509)"><stop offset="0" stop-color="#5D6CFF"/><stop offset="0.54" stop-color="#4B57CC" stop-opacity="0"/><stop offset="1" stop-color="#4B57CC" stop-opacity="0"/></radialGradient><radialGradient cx="77585" cy="84513" r="114725" gradientUnits="userSpaceOnUse" spreadMethod="pad" id="fill8" gradientTransform="matrix(0.000360892 0 0 0.000360892 2271 426)"><stop offset="0" stop-color="#5D6CFF"/><stop offset="0.54" stop-color="#4B57CC" stop-opacity="0"/><stop offset="1" stop-color="#4B57CC" stop-opacity="0"/></radialGradient><clipPath id="clip9"><rect x="1886" y="116" width="472" height="472"/></clipPath><clipPath id="clip10"><rect x="1886" y="116" width="472" height="472"/></clipPath><clipPath id="clip11"><rect x="1886" y="116" width="472" height="472"/></clipPath><clipPath id="clip12"><rect x="1938" y="169" width="372" height="373"/></clipPath><clipPath id="clip13"><rect x="1938" y="169" width="372" height="373"/></clipPath><clipPath id="clip14"><rect x="1938" y="169" width="372" height="373"/></clipPath></defs><g clip-path="url(#clip0)" transform="translate(-1853 -76)"><rect x="1853" y="76" width="550" height="550" fill="url(#fill1)"/><path d="M1873 256.5C1873 172.829 1933.44 105 2008 105 2082.56 105 2143 172.829 2143 256.5 2143 340.171 2082.56 408 2008 408 1933.44 408 1873 340.171 1873 256.5Z" fill="url(#fill2)" fill-rule="evenodd"/><path d="M1886.79 82.0002 2365.21 82.0002C2381.11 82.0002 2394 101.864 2394 126.368L2394 236C2394 197.824 2373.92 166.876 2349.15 166.876L1902.85 166.876C1878.08 166.876 1858 197.824 1858 236L1858 126.368C1858 101.864 1870.89 82.0002 1886.79 82.0002Z" fill="url(#fill3)" fill-rule="evenodd"/><path d="M1891 242C1891 221.565 1906.45 205 1925.5 205 1944.55 205 1960 221.565 1960 242 1960 262.435 1944.55 279 1925.5 279 1906.45 279 1891 262.435 1891 242Z" fill="url(#fill4)" fill-rule="evenodd"/><path d="M1920 293.5C1920 269.476 1938.13 250 1960.5 250 1982.87 250 2001 269.476 2001 293.5 2001 317.524 1982.87 337 1960.5 337 1938.13 337 1920 317.524 1920 293.5Z" fill="url(#fill5)" fill-rule="evenodd"/><path d="M2142 481.5C2142 425.995 2189.23 381 2247.5 381 2305.77 381 2353 425.995 2353 481.5 2353 537.005 2305.77 582 2247.5 582 2189.23 582 2142 537.005 2142 481.5Z" fill="url(#fill6)" fill-rule="evenodd"/><path d="M2287 537C2287 521.536 2298.64 509 2313 509 2327.36 509 2339 521.536 2339 537 2339 552.464 2327.36 565 2313 565 2298.64 565 2287 552.464 2287 537Z" fill="url(#fill7)" fill-rule="evenodd"/><path d="M2271 456.5C2271 439.655 2283.54 426 2299 426 2314.46 426 2327 439.655 2327 456.5 2327 473.345 2314.46 487 2299 487 2283.54 487 2271 473.345 2271 456.5Z" fill="url(#fill8)" fill-rule="evenodd"/><g clip-path="url(#clip9)"><g clip-path="url(#clip10)"><g clip-path="url(#clip11)"><path d="M1976.16 328.119C1975.96 335.686 1970.13 341.51 1962.57 341.716 1959.54 341.801 1959.54 346.501 1962.57 346.416 1972.72 346.144 1980.59 338.276 1980.86 328.119 1980.94 325.088 1976.24 325.092 1976.16 328.119L1976.16 328.119Z" fill="#33A3FF"/><path d="M1994.45 341.951C1986.89 341.749 1981.07 335.931 1980.86 328.364 1980.77 325.337 1976.07 325.332 1976.16 328.364 1976.43 338.516 1984.3 346.379 1994.45 346.651 1997.48 346.736 1997.48 342.036 1994.45 341.951L1994.45 341.951Z" fill="#33A3FF"/><path d="M1980.86 360.371C1981.07 352.808 1986.88 346.976 1994.45 346.769 1997.48 346.684 1997.48 341.984 1994.45 342.069 1984.29 342.341 1976.44 350.214 1976.16 360.371 1976.08 363.402 1980.78 363.393 1980.86 360.371L1980.86 360.371Z" fill="#33A3FF"/><path d="M1962.45 346.534C1970.01 346.736 1975.83 352.555 1976.04 360.126 1976.13 363.148 1980.83 363.158 1980.74 360.126 1980.47 349.97 1972.61 342.111 1962.45 341.834 1959.42 341.749 1959.42 346.449 1962.45 346.534L1962.45 346.534Z" fill="#33A3FF"/><path d="M2261.7 165.814C2261.5 173.381 2255.68 179.204 2248.11 179.411 2245.08 179.496 2245.07 184.196 2248.11 184.111 2258.26 183.839 2266.13 175.971 2266.4 165.814 2266.48 162.783 2261.78 162.792 2261.7 165.814L2261.7 165.814Z" fill="#33A3FF"/><path d="M2279.99 179.651C2272.43 179.449 2266.6 173.626 2266.4 166.063 2266.31 163.036 2261.61 163.032 2261.7 166.063 2261.98 176.215 2269.84 184.078 2279.99 184.351 2283.03 184.431 2283.02 179.731 2279.99 179.651L2279.99 179.651Z" fill="#33A3FF"/><path d="M2266.4 198.066C2266.6 190.503 2272.42 184.675 2279.99 184.468 2283.02 184.384 2283.03 179.684 2279.99 179.768 2269.84 180.041 2261.98 187.914 2261.7 198.066 2261.62 201.097 2266.32 201.088 2266.4 198.066L2266.4 198.066Z" fill="#33A3FF"/><path d="M2247.99 184.229C2255.55 184.431 2261.38 190.249 2261.58 197.816 2261.67 200.843 2266.37 200.848 2266.28 197.816 2266 187.664 2258.15 179.801 2247.99 179.529 2244.95 179.449 2244.96 184.149 2247.99 184.229L2247.99 184.229Z" fill="#33A3FF"/><path d="M2023.63 170.227C2023.04 192.181 2006.12 209.096 1984.17 209.689 1981.15 209.773 1981.14 214.473 1984.17 214.389 2008.71 213.726 2027.68 194.761 2028.33 170.227 2028.41 167.196 2023.71 167.205 2023.63 170.227L2023.63 170.227Z" fill="#33A3FF"/><path d="M2067.79 210.323C2045.84 209.731 2028.92 192.816 2028.33 170.862 2028.24 167.835 2023.54 167.83 2023.63 170.862 2024.29 195.396 2043.25 214.36 2067.79 215.023 2070.82 215.108 2070.82 210.408 2067.79 210.323L2067.79 210.323Z" fill="#33A3FF"/><path d="M2028.33 254.804C2028.93 232.86 2045.83 215.935 2067.78 215.343 2070.81 215.258 2070.81 210.558 2067.78 210.643 2043.25 211.305 2024.3 230.279 2023.63 254.804 2023.55 257.835 2028.25 257.826 2028.33 254.804L2028.33 254.804Z" fill="#33A3FF"/><path d="M1983.85 214.704C2005.79 215.296 2022.72 232.206 2023.31 254.155 2023.39 257.182 2028.09 257.187 2028.01 254.155 2027.35 229.626 2008.37 210.666 1983.85 210.004 1980.82 209.924 1980.82 214.624 1983.85 214.704L1983.85 214.704Z" fill="#33A3FF"/><path d="M2212.06 463.221C2211.69 476.658 2201.34 487.003 2187.9 487.365 2184.88 487.449 2184.87 492.149 2187.9 492.065 2203.93 491.632 2216.32 479.243 2216.76 463.221 2216.84 460.189 2212.14 460.199 2212.06 463.221L2212.06 463.221Z" fill="#33A3FF"/><path d="M2240.9 487.769C2227.47 487.407 2217.12 477.062 2216.76 463.625 2216.67 460.598 2211.97 460.589 2212.06 463.625 2212.49 479.647 2224.88 492.037 2240.9 492.469 2243.93 492.549 2243.92 487.849 2240.9 487.769L2240.9 487.769Z" fill="#33A3FF"/><path d="M2216.76 516.81C2217.12 503.387 2227.45 493.028 2240.89 492.666 2243.92 492.582 2243.93 487.882 2240.89 487.966 2224.87 488.399 2212.49 500.793 2212.06 516.81 2211.98 519.846 2216.68 519.837 2216.76 516.81L2216.76 516.81Z" fill="#33A3FF"/><path d="M2187.7 492.267C2201.13 492.629 2211.49 502.969 2211.85 516.406 2211.94 519.433 2216.64 519.442 2216.55 516.406 2216.12 500.388 2203.72 487.999 2187.7 487.567 2184.67 487.482 2184.68 492.182 2187.7 492.267L2187.7 492.267Z" fill="#33A3FF"/><path d="M2172.92 283.85C2172.92 291.637 2166.61 297.95 2158.82 297.95 2151.03 297.95 2144.72 291.637 2144.72 283.85 2144.72 276.063 2151.03 269.75 2158.82 269.75 2166.61 269.75 2172.92 276.063 2172.92 283.85Z" fill="#33A3FF"/><path d="M2224.62 278.76C2224.62 283.302 2220.93 286.985 2216.39 286.985 2211.85 286.985 2208.17 283.302 2208.17 278.76 2208.17 274.217 2211.85 270.535 2216.39 270.535 2220.93 270.535 2224.62 274.217 2224.62 278.76Z" fill="#33A3FF"/><path d="M2281.8 319.49C2281.8 324.897 2277.42 329.28 2272.01 329.28 2266.6 329.28 2262.22 324.897 2262.22 319.49 2262.22 314.083 2266.6 309.7 2272.01 309.7 2277.42 309.7 2281.8 314.083 2281.8 319.49Z" fill="#33A3FF"/><path d="M2098.5 476.94C2098.5 481.483 2094.82 485.165 2090.27 485.165 2085.73 485.165 2082.05 481.483 2082.05 476.94 2082.05 472.398 2085.73 468.715 2090.27 468.715 2094.82 468.715 2098.5 472.398 2098.5 476.94Z" fill="#33A3FF"/><path d="M2044.45 541.96C2044.45 550.83 2037.26 558.02 2028.39 558.02 2019.52 558.02 2012.33 550.83 2012.33 541.96 2012.33 533.09 2019.52 525.9 2028.39 525.9 2037.26 525.9 2044.45 533.09 2044.45 541.96Z" fill="#33A3FF"/><path d="M2051.5 418.19C2051.5 423.166 2047.47 427.2 2042.49 427.2 2037.51 427.2 2033.48 423.166 2033.48 418.19 2033.48 413.214 2037.51 409.18 2042.49 409.18 2047.47 409.18 2051.5 413.214 2051.5 418.19Z" fill="#33A3FF"/><path d="M2135.32 247.425C2135.32 251.967 2131.63 255.65 2127.09 255.65 2122.55 255.65 2118.87 251.967 2118.87 247.425 2118.87 242.882 2122.55 239.2 2127.09 239.2 2131.63 239.2 2135.32 242.882 2135.32 247.425Z" fill="#33A3FF"/><path d="M2143.15 159.3C2143.15 164.925 2138.59 169.485 2132.97 169.485 2127.34 169.485 2122.78 164.925 2122.78 159.3 2122.78 153.675 2127.34 149.115 2132.97 149.115 2138.59 149.115 2143.15 153.675 2143.15 159.3Z" fill="#33A3FF"/><path d="M2190.15 151.86C2190.15 155.538 2187.17 158.52 2183.49 158.52 2179.82 158.52 2176.83 155.538 2176.83 151.86 2176.83 148.182 2179.82 145.2 2183.49 145.2 2187.17 145.2 2190.15 148.182 2190.15 151.86Z" fill="#33A3FF"/><path d="M2143.94 156.95 2176.83 151.86"/><path d="M2131.4 170.265 2127.09 239.2"/><path d="M2132.97 254.085 2150.2 272.885"/><path d="M2173.7 281.5 2208.17 278.76"/><path d="M2223.83 283.065 2265.35 313.615"/><path d="M2265.35 327.715 2097.72 471.85"/><path d="M2084.4 482.815 2040.53 531.385"/><path d="M2028.39 525.9 2039.75 426.415"/><path d="M2046.8 409.185 2149.42 293.25"/></g></g></g><g clip-path="url(#clip12)"><g clip-path="url(#clip13)"><g clip-path="url(#clip14)"><path d="M2294.42 502.563 2166.35 280.747C2185.68 258.192 2183.95 224.442 2162.41 203.98 2140.88 183.518 2107.08 183.518 2085.55 203.98 2064.01 224.442 2062.28 258.192 2081.61 280.747L1953.5 502.563 1985.72 521.163 2005.35 487.177C2080.28 523.42 2167.67 523.42 2242.6 487.177L2262.23 521.163 2294.42 502.563ZM2123.96 225.919C2134.23 225.919 2142.56 234.246 2142.56 244.519 2142.56 254.791 2134.23 263.119 2123.96 263.119 2113.69 263.119 2105.36 254.791 2105.36 244.519 2105.36 239.586 2107.32 234.855 2110.81 231.367 2114.29 227.878 2119.03 225.919 2123.96 225.919L2123.96 225.919ZM2105.36 313.938 2105.36 476.419C2077.16 474.191 2049.6 466.889 2023.99 454.864L2105.36 313.938ZM2142.56 476.419 2142.56 313.938 2223.92 454.864C2198.32 466.889 2170.76 474.191 2142.56 476.419L2142.56 476.419Z" stroke="#33A3FF" stroke-width="4.95999" fill="#0F1113"/></g></g></g></g></svg>