<svg width="550" height="550" xmlns="http://www.w3.org/2000/svg" xmlns:xlink="http://www.w3.org/1999/xlink" overflow="hidden"><defs><clipPath id="clip0"><rect x="1306" y="76" width="550" height="550"/></clipPath><radialGradient cx="762000" cy="762000" r="1.07763e+06" gradientUnits="userSpaceOnUse" spreadMethod="pad" id="fill1" gradientTransform="matrix(0.000360892 0 0 0.000360892 1306 76)"><stop offset="0" stop-color="#5D6CFF"/><stop offset="0.17" stop-color="#5D6CFF"/><stop offset="0.33" stop-color="#4B57CC"/><stop offset="1" stop-color="#0F1113"/></radialGradient><radialGradient cx="374073" cy="419793" r="562278" gradientUnits="userSpaceOnUse" spreadMethod="pad" id="fill2" gradientTransform="matrix(0.000360892 0 0 0.000360892 1326 105)"><stop offset="0" stop-color="#5D6CFF"/><stop offset="0.54" stop-color="#4B57CC" stop-opacity="0"/><stop offset="1" stop-color="#4B57CC" stop-opacity="0"/></radialGradient><linearGradient x1="1578.5" y1="82.0002" x2="1578.5" y2="236" gradientUnits="userSpaceOnUse" spreadMethod="reflect" id="fill3"><stop offset="0" stop-color="#F5FAFF" stop-opacity="0.231373"/><stop offset="0.32" stop-color="#FFFFFF" stop-opacity="0"/><stop offset="1" stop-color="#FFFFFF" stop-opacity="0"/></linearGradient><radialGradient cx="95596.5" cy="102524" r="140178" fx="95596.5" fy="102524" gradientUnits="userSpaceOnUse" spreadMethod="pad" id="fill4" gradientTransform="matrix(0.000360892 0 0 0.000360892 1344 205)"><stop offset="0" stop-color="#5D6CFF"/><stop offset="0.54" stop-color="#4B57CC" stop-opacity="0"/><stop offset="1" stop-color="#4B57CC" stop-opacity="0"/></radialGradient><radialGradient cx="112222" cy="120534" r="164689" gradientUnits="userSpaceOnUse" spreadMethod="pad" id="fill5" gradientTransform="matrix(0.000360892 0 0 0.000360892 1373 250)"><stop offset="0" stop-color="#5D6CFF"/><stop offset="0.54" stop-color="#4B57CC" stop-opacity="0"/><stop offset="1" stop-color="#4B57CC" stop-opacity="0"/></radialGradient><radialGradient cx="292331" cy="278477" r="403741" fx="292331" fy="278476" gradientUnits="userSpaceOnUse" spreadMethod="pad" id="fill6" gradientTransform="matrix(0.000360892 0 0 0.000360892 1595 381)"><stop offset="0" stop-color="#5D6CFF"/><stop offset="0.54" stop-color="#4B57CC" stop-opacity="0"/><stop offset="1" stop-color="#4B57CC" stop-opacity="0"/></radialGradient><radialGradient cx="72043.5" cy="77585.5" r="105876" fx="72043.5" fy="77585.5" gradientUnits="userSpaceOnUse" spreadMethod="pad" id="fill7" gradientTransform="matrix(0.000360892 0 0 0.000360892 1740 509)"><stop offset="0" stop-color="#5D6CFF"/><stop offset="0.54" stop-color="#4B57CC" stop-opacity="0"/><stop offset="1" stop-color="#4B57CC" stop-opacity="0"/></radialGradient><radialGradient cx="77585.5" cy="84513" r="114726" fx="77585.5" fy="84513" gradientUnits="userSpaceOnUse" spreadMethod="pad" id="fill8" gradientTransform="matrix(0.000360892 0 0 0.000360892 1724 426)"><stop offset="0" stop-color="#5D6CFF"/><stop offset="0.54" stop-color="#4B57CC" stop-opacity="0"/><stop offset="1" stop-color="#4B57CC" stop-opacity="0"/></radialGradient><clipPath id="clip9"><rect x="1329" y="106" width="499" height="498"/></clipPath><clipPath id="clip10"><rect x="1329" y="106" width="499" height="498"/></clipPath><clipPath id="clip11"><rect x="1329" y="106" width="499" height="498"/></clipPath><clipPath id="clip12"><rect x="1329" y="106" width="499" height="498"/></clipPath><clipPath id="clip13"><rect x="1329" y="106" width="499" height="498"/></clipPath><clipPath id="clip14"><rect x="1329" y="106" width="499" height="498"/></clipPath></defs><g clip-path="url(#clip0)" transform="translate(-1306 -76)"><rect x="1306" y="76" width="550" height="550" fill="url(#fill1)"/><path d="M1326 256.5C1326 172.829 1386.44 105 1461 105 1535.56 105 1596 172.829 1596 256.5 1596 340.171 1535.56 408 1461 408 1386.44 408 1326 340.171 1326 256.5Z" fill="url(#fill2)" fill-rule="evenodd"/><path d="M1339.73 82.0002 1817.27 82.0002C1833.14 82.0002 1846 101.864 1846 126.368L1846 236C1846 197.824 1825.96 166.876 1801.23 166.876L1355.77 166.876C1331.04 166.876 1311 197.824 1311 236L1311 126.368C1311 101.864 1323.86 82.0002 1339.73 82.0002Z" fill="url(#fill3)" fill-rule="evenodd"/><path d="M1344 242C1344 221.565 1359.45 205 1378.5 205 1397.55 205 1413 221.565 1413 242 1413 262.435 1397.55 279 1378.5 279 1359.45 279 1344 262.435 1344 242Z" fill="url(#fill4)" fill-rule="evenodd"/><path d="M1373 293.5C1373 269.476 1391.13 250 1413.5 250 1435.87 250 1454 269.476 1454 293.5 1454 317.524 1435.87 337 1413.5 337 1391.13 337 1373 317.524 1373 293.5Z" fill="url(#fill5)" fill-rule="evenodd"/><path d="M1595 481.5C1595 425.995 1642.23 381 1700.5 381 1758.77 381 1806 425.995 1806 481.5 1806 537.005 1758.77 582 1700.5 582 1642.23 582 1595 537.005 1595 481.5Z" fill="url(#fill6)" fill-rule="evenodd"/><path d="M1740 537C1740 521.536 1751.64 509 1766 509 1780.36 509 1792 521.536 1792 537 1792 552.464 1780.36 565 1766 565 1751.64 565 1740 552.464 1740 537Z" fill="url(#fill7)" fill-rule="evenodd"/><path d="M1724 456.5C1724 439.655 1736.54 426 1752 426 1767.46 426 1780 439.655 1780 456.5 1780 473.345 1767.46 487 1752 487 1736.54 487 1724 473.345 1724 456.5Z" fill="url(#fill8)" fill-rule="evenodd"/><g clip-path="url(#clip9)"><g clip-path="url(#clip10)"><g clip-path="url(#clip11)"><path d="M1753.69 139.638C1752.94 139.201 1751.99 139.196 1751.21 139.638L1587.2 234.068C1586.43 234.51 1585.96 235.33 1585.96 236.22L1585.96 282.346C1584.34 281.735 1582.67 281.397 1580.98 281.184L1580.98 141.79C1580.98 140.836 1580.44 139.966 1579.58 139.553 1578.72 139.141 1577.7 139.255 1576.95 139.847L1458.28 234.277C1457.68 234.749 1457.34 235.464 1457.34 236.22L1457.34 474.78C1457.34 475.535 1457.68 476.256 1458.28 476.728L1511.28 518.904 1511.28 519.51 1512.05 519.51 1576.95 571.158C1577.4 571.511 1577.95 571.695 1578.5 571.695 1578.87 571.695 1579.24 571.61 1579.58 571.446 1580.44 571.034 1580.98 570.164 1580.98 569.21L1580.98 424.846C1582.67 424.638 1584.34 424.295 1585.96 423.683L1585.96 474.78C1585.96 475.67 1586.43 476.49 1587.2 476.937L1660.51 519.137 1660.51 519.51 1661.15 519.51 1751.21 571.367C1751.6 571.586 1752.02 571.695 1752.45 571.695 1752.88 571.695 1753.31 571.586 1753.69 571.362 1754.46 570.92 1754.94 570.1 1754.94 569.21L1754.94 141.79C1754.94 140.9 1754.46 140.08 1753.69 139.638ZM1471.72 481.072 1462.31 473.582 1462.31 429.106 1471.72 433.837 1471.72 481.072ZM1471.72 428.281 1462.31 423.549 1462.31 381.16 1471.72 382.507 1471.72 428.281ZM1471.72 377.487 1462.31 376.14 1462.31 334.865 1471.72 333.518 1471.72 377.487ZM1471.72 328.493 1462.31 329.84 1462.31 287.451 1471.72 282.719 1471.72 328.493ZM1471.72 277.158 1462.31 281.889 1462.31 237.418 1471.72 229.928 1471.72 277.158ZM1489.71 495.381 1476.69 485.028 1476.69 436.337 1489.71 442.878 1489.71 495.381ZM1489.71 437.316 1476.69 430.776 1476.69 383.218 1489.71 385.076 1489.71 437.316ZM1489.71 380.057 1476.69 378.198 1476.69 332.807 1489.71 330.948 1489.71 380.057ZM1489.71 325.923 1476.69 327.782 1476.69 280.224 1489.71 273.684 1489.71 325.923ZM1489.71 268.122 1476.69 274.663 1476.69 225.977 1489.71 215.624 1489.71 268.122ZM1511.28 512.547 1494.68 499.332 1494.68 445.372 1511.28 453.717 1511.28 512.547ZM1511.28 448.161 1494.68 439.816 1494.68 385.787 1511.28 388.163 1511.28 448.161ZM1511.28 383.138 1494.68 380.762 1494.68 330.237 1511.28 327.862 1511.28 383.138ZM1511.28 322.837 1494.68 325.213 1494.68 271.189 1511.28 262.844 1511.28 322.837ZM1511.28 257.278 1494.68 265.622 1494.68 211.663 1511.28 198.448 1511.28 257.278ZM1545.02 385.042C1545.28 386.056 1545.52 387.089 1545.8 388.073L1545.02 387.964 1545.02 385.042ZM1540.05 535.439 1516.25 516.498 1516.25 456.212 1540.05 468.175 1540.05 535.439ZM1540.05 462.618 1516.25 450.656 1516.25 388.874 1540.05 392.278 1540.05 462.618ZM1540.05 387.253 1516.25 383.849 1516.25 327.151 1540.05 323.747 1540.05 387.253ZM1540.05 318.727 1516.25 322.131 1516.25 260.344 1540.05 248.382 1540.05 318.727ZM1540.05 242.82 1516.25 254.783 1516.25 194.497 1540.05 175.556 1540.05 242.82ZM1576.02 564.056 1545.02 539.39 1545.02 539.39 1545.02 470.675 1576.02 486.251 1576.02 564.056ZM1576.02 480.694 1545.02 465.118 1545.02 392.984 1547.43 393.327C1553.63 411.368 1563.96 423.37 1576.02 424.841L1576.02 480.694ZM1576.02 419.837C1566.89 418.311 1558.7 408.525 1553.23 394.157L1576.02 397.417 1576.02 419.837ZM1576.02 392.392 1551.4 388.874C1548.13 378.422 1546.2 366.096 1546.2 353.015 1546.2 342.036 1547.56 331.594 1549.92 322.335L1576.02 318.603 1576.02 392.392ZM1576.02 313.583 1551.41 317.102C1556.8 299.91 1565.82 287.898 1576.02 286.193L1576.02 313.583ZM1576.02 281.184C1562.84 282.794 1551.73 297.008 1545.81 317.902L1545.02 318.016 1545.02 245.887 1576.02 230.311 1576.02 281.184ZM1576.02 224.749 1545.02 240.325 1545.02 171.605 1576.02 146.944 1576.02 224.749ZM1635.66 211.902 1660.51 197.593 1660.51 257.069 1653.45 259.634 1638.14 251.13 1644.65 262.839 1635.66 266.109 1635.66 211.902ZM1660.51 263.555 1659.2 262.829 1660.51 262.357 1660.51 263.555ZM1590.93 237.656 1605.84 229.073 1605.84 276.954 1590.93 282.376 1590.93 237.656ZM1605.84 282.237 1605.84 303.658C1602.38 296.481 1598.17 290.681 1593.4 286.76L1605.84 282.237ZM1580.98 419.837 1580.98 286.193C1597.39 288.937 1610.81 318.384 1610.81 353.015 1610.81 387.646 1597.39 417.098 1580.98 419.837ZM1605.84 481.927 1590.93 473.344 1590.93 428.629 1605.84 434.051 1605.84 481.927ZM1605.84 428.763 1590.93 423.34 1590.93 421.044C1596.71 417.207 1601.79 410.761 1605.84 402.372L1605.84 428.763ZM1630.69 496.235 1610.81 484.79 1610.81 435.855 1630.69 443.086 1630.69 496.235ZM1630.69 437.798 1610.81 430.567 1610.81 389.356C1611.39 387.387 1611.92 385.355 1612.41 383.272L1630.69 385.161 1630.69 437.798ZM1630.69 380.166 1613.44 378.382C1614.93 370.514 1615.78 362.001 1615.78 353.015 1615.78 345.863 1615.24 339.009 1614.28 332.534L1630.69 330.839 1630.69 380.166ZM1630.69 325.839 1613.43 327.623C1612.71 323.801 1611.84 320.143 1610.81 316.674L1610.81 280.433 1630.69 273.202 1630.69 325.839ZM1630.69 267.914 1610.81 275.145 1610.81 226.21 1630.69 214.764 1630.69 267.914ZM1660.51 513.402 1635.66 499.093 1635.66 444.89 1660.51 453.926 1660.51 513.402ZM1660.51 448.643 1635.66 439.607 1635.66 385.673 1660.51 388.242 1660.51 448.643ZM1660.51 383.252 1635.66 380.683 1635.66 330.322 1660.51 327.752 1660.51 383.252ZM1635.66 325.322 1635.66 271.393 1647.09 267.233 1660.51 291.382 1660.51 322.748 1635.66 325.322ZM1700.27 536.294 1665.48 516.265 1665.48 455.735 1700.27 468.384 1700.27 536.294ZM1700.27 463.1 1665.48 450.452 1665.48 388.759 1700.27 392.357 1700.27 463.1ZM1700.27 387.363 1665.48 383.764 1665.48 327.236 1700.27 323.637 1700.27 387.363ZM1700.27 318.637 1665.48 322.236 1665.48 300.333 1668.51 305.8 1674.59 287.575 1692.81 281.502 1665.48 266.313 1665.48 260.548 1700.27 247.899 1700.27 318.637ZM1700.27 242.611 1665.48 255.26 1665.48 194.735 1700.27 174.706 1700.27 242.611ZM1749.97 564.911 1705.24 539.156 1705.24 470.193 1749.97 486.459 1749.97 564.911ZM1749.97 481.171 1705.24 464.905 1705.24 392.874 1749.97 397.501 1749.97 481.171ZM1749.97 392.507 1705.24 387.879 1705.24 323.125 1749.97 318.498 1749.97 392.507ZM1749.97 313.498 1705.24 318.126 1705.24 246.09 1749.97 229.824 1749.97 313.498ZM1749.97 224.54 1705.24 240.807 1705.24 171.844 1749.97 146.089 1749.97 224.54Z" stroke="#33A3FF" stroke-width="4.60185" fill="#0F1113"/><path d="M1394.61 519.51 1449.28 489.138 1431.06 483.065 1424.98 464.84Z" stroke="#33A3FF" stroke-width="4.60185" fill="#0F1113"/></g></g></g><g clip-path="url(#clip12)"><g clip-path="url(#clip13)"><g clip-path="url(#clip14)"><path d="M1753.69 139.638C1752.94 139.201 1751.99 139.196 1751.21 139.638L1587.2 234.068C1586.43 234.51 1585.96 235.33 1585.96 236.22L1585.96 282.346C1584.34 281.735 1582.67 281.397 1580.98 281.184L1580.98 141.79C1580.98 140.836 1580.44 139.966 1579.58 139.553 1578.72 139.141 1577.7 139.255 1576.95 139.847L1458.28 234.277C1457.68 234.749 1457.34 235.464 1457.34 236.22L1457.34 474.78C1457.34 475.535 1457.68 476.256 1458.28 476.728L1511.28 518.904 1511.28 519.51 1512.05 519.51 1576.95 571.158C1577.4 571.511 1577.95 571.695 1578.5 571.695 1578.87 571.695 1579.24 571.61 1579.58 571.446 1580.44 571.034 1580.98 570.164 1580.98 569.21L1580.98 424.846C1582.67 424.638 1584.34 424.295 1585.96 423.683L1585.96 474.78C1585.96 475.67 1586.43 476.49 1587.2 476.937L1660.51 519.137 1660.51 519.51 1661.15 519.51 1751.21 571.367C1751.6 571.586 1752.02 571.695 1752.45 571.695 1752.88 571.695 1753.31 571.586 1753.69 571.362 1754.46 570.92 1754.94 570.1 1754.94 569.21L1754.94 141.79C1754.94 140.9 1754.46 140.08 1753.69 139.638ZM1471.72 481.072 1462.31 473.582 1462.31 429.106 1471.72 433.837 1471.72 481.072ZM1471.72 428.281 1462.31 423.549 1462.31 381.16 1471.72 382.507 1471.72 428.281ZM1471.72 377.487 1462.31 376.14 1462.31 334.865 1471.72 333.518 1471.72 377.487ZM1471.72 328.493 1462.31 329.84 1462.31 287.451 1471.72 282.719 1471.72 328.493ZM1471.72 277.158 1462.31 281.889 1462.31 237.418 1471.72 229.928 1471.72 277.158ZM1489.71 495.381 1476.69 485.028 1476.69 436.337 1489.71 442.878 1489.71 495.381ZM1489.71 437.316 1476.69 430.776 1476.69 383.218 1489.71 385.076 1489.71 437.316ZM1489.71 380.057 1476.69 378.198 1476.69 332.807 1489.71 330.948 1489.71 380.057ZM1489.71 325.923 1476.69 327.782 1476.69 280.224 1489.71 273.684 1489.71 325.923ZM1489.71 268.122 1476.69 274.663 1476.69 225.977 1489.71 215.624 1489.71 268.122ZM1511.28 512.547 1494.68 499.332 1494.68 445.372 1511.28 453.717 1511.28 512.547ZM1511.28 448.161 1494.68 439.816 1494.68 385.787 1511.28 388.163 1511.28 448.161ZM1511.28 383.138 1494.68 380.762 1494.68 330.237 1511.28 327.862 1511.28 383.138ZM1511.28 322.837 1494.68 325.213 1494.68 271.189 1511.28 262.844 1511.28 322.837ZM1511.28 257.278 1494.68 265.622 1494.68 211.663 1511.28 198.448 1511.28 257.278ZM1545.02 385.042C1545.28 386.056 1545.52 387.089 1545.8 388.073L1545.02 387.964 1545.02 385.042ZM1540.05 535.439 1516.25 516.498 1516.25 456.212 1540.05 468.175 1540.05 535.439ZM1540.05 462.618 1516.25 450.656 1516.25 388.874 1540.05 392.278 1540.05 462.618ZM1540.05 387.253 1516.25 383.849 1516.25 327.151 1540.05 323.747 1540.05 387.253ZM1540.05 318.727 1516.25 322.131 1516.25 260.344 1540.05 248.382 1540.05 318.727ZM1540.05 242.82 1516.25 254.783 1516.25 194.497 1540.05 175.556 1540.05 242.82ZM1576.02 564.056 1545.02 539.39 1545.02 539.39 1545.02 470.675 1576.02 486.251 1576.02 564.056ZM1576.02 480.694 1545.02 465.118 1545.02 392.984 1547.43 393.327C1553.63 411.368 1563.96 423.37 1576.02 424.841L1576.02 480.694ZM1576.02 419.837C1566.89 418.311 1558.7 408.525 1553.23 394.157L1576.02 397.417 1576.02 419.837ZM1576.02 392.392 1551.4 388.874C1548.13 378.422 1546.2 366.096 1546.2 353.015 1546.2 342.036 1547.56 331.594 1549.92 322.335L1576.02 318.603 1576.02 392.392ZM1576.02 313.583 1551.41 317.102C1556.8 299.91 1565.82 287.898 1576.02 286.193L1576.02 313.583ZM1576.02 281.184C1562.84 282.794 1551.73 297.008 1545.81 317.902L1545.02 318.016 1545.02 245.887 1576.02 230.311 1576.02 281.184ZM1576.02 224.749 1545.02 240.325 1545.02 171.605 1576.02 146.944 1576.02 224.749ZM1635.66 211.902 1660.51 197.593 1660.51 257.069 1653.45 259.634 1638.14 251.13 1644.65 262.839 1635.66 266.109 1635.66 211.902ZM1660.51 263.555 1659.2 262.829 1660.51 262.357 1660.51 263.555ZM1590.93 237.656 1605.84 229.073 1605.84 276.954 1590.93 282.376 1590.93 237.656ZM1605.84 282.237 1605.84 303.658C1602.38 296.481 1598.17 290.681 1593.4 286.76L1605.84 282.237ZM1580.98 419.837 1580.98 286.193C1597.39 288.937 1610.81 318.384 1610.81 353.015 1610.81 387.646 1597.39 417.098 1580.98 419.837ZM1605.84 481.927 1590.93 473.344 1590.93 428.629 1605.84 434.051 1605.84 481.927ZM1605.84 428.763 1590.93 423.34 1590.93 421.044C1596.71 417.207 1601.79 410.761 1605.84 402.372L1605.84 428.763ZM1630.69 496.235 1610.81 484.79 1610.81 435.855 1630.69 443.086 1630.69 496.235ZM1630.69 437.798 1610.81 430.567 1610.81 389.356C1611.39 387.387 1611.92 385.355 1612.41 383.272L1630.69 385.161 1630.69 437.798ZM1630.69 380.166 1613.44 378.382C1614.93 370.514 1615.78 362.001 1615.78 353.015 1615.78 345.863 1615.24 339.009 1614.28 332.534L1630.69 330.839 1630.69 380.166ZM1630.69 325.839 1613.43 327.623C1612.71 323.801 1611.84 320.143 1610.81 316.674L1610.81 280.433 1630.69 273.202 1630.69 325.839ZM1630.69 267.914 1610.81 275.145 1610.81 226.21 1630.69 214.764 1630.69 267.914ZM1660.51 513.402 1635.66 499.093 1635.66 444.89 1660.51 453.926 1660.51 513.402ZM1660.51 448.643 1635.66 439.607 1635.66 385.673 1660.51 388.242 1660.51 448.643ZM1660.51 383.252 1635.66 380.683 1635.66 330.322 1660.51 327.752 1660.51 383.252ZM1635.66 325.322 1635.66 271.393 1647.09 267.233 1660.51 291.382 1660.51 322.748 1635.66 325.322ZM1700.27 536.294 1665.48 516.265 1665.48 455.735 1700.27 468.384 1700.27 536.294ZM1700.27 463.1 1665.48 450.452 1665.48 388.759 1700.27 392.357 1700.27 463.1ZM1700.27 387.363 1665.48 383.764 1665.48 327.236 1700.27 323.637 1700.27 387.363ZM1700.27 318.637 1665.48 322.236 1665.48 300.333 1668.51 305.8 1674.59 287.575 1692.81 281.502 1665.48 266.313 1665.48 260.548 1700.27 247.899 1700.27 318.637ZM1700.27 242.611 1665.48 255.26 1665.48 194.735 1700.27 174.706 1700.27 242.611ZM1749.97 564.911 1705.24 539.156 1705.24 470.193 1749.97 486.459 1749.97 564.911ZM1749.97 481.171 1705.24 464.905 1705.24 392.874 1749.97 397.501 1749.97 481.171ZM1749.97 392.507 1705.24 387.879 1705.24 323.125 1749.97 318.498 1749.97 392.507ZM1749.97 313.498 1705.24 318.126 1705.24 246.09 1749.97 229.824 1749.97 313.498ZM1749.97 224.54 1705.24 240.807 1705.24 171.844 1749.97 146.089 1749.97 224.54Z" fill="#0F1113"/><path d="M1394.61 519.51 1449.28 489.138 1431.06 483.065 1424.98 464.84Z" fill="#0F1113"/></g></g></g></g></svg>