<svg width="550" height="550" xmlns="http://www.w3.org/2000/svg" xmlns:xlink="http://www.w3.org/1999/xlink" overflow="hidden"><defs><clipPath id="clip0"><rect x="54" y="76" width="550" height="550"/></clipPath><radialGradient cx="762000" cy="762000" r="1.07763e+06" gradientUnits="userSpaceOnUse" spreadMethod="pad" id="fill1" gradientTransform="matrix(0.000360892 0 0 0.000360892 54 76)"><stop offset="0" stop-color="#5D6CFF"/><stop offset="0.17" stop-color="#5D6CFF"/><stop offset="0.33" stop-color="#4B57CC"/><stop offset="1" stop-color="#0F1113"/></radialGradient><radialGradient cx="374073" cy="419793" r="562278" gradientUnits="userSpaceOnUse" spreadMethod="pad" id="fill2" gradientTransform="matrix(0.000360892 0 0 0.000360892 73.9999 105)"><stop offset="0" stop-color="#5D6CFF"/><stop offset="0.54" stop-color="#4B57CC" stop-opacity="0"/><stop offset="1" stop-color="#4B57CC" stop-opacity="0"/></radialGradient><linearGradient x1="326.5" y1="82.0002" x2="326.5" y2="236" gradientUnits="userSpaceOnUse" spreadMethod="reflect" id="fill3"><stop offset="0" stop-color="#F5FAFF" stop-opacity="0.231373"/><stop offset="0.32" stop-color="#FFFFFF" stop-opacity="0"/><stop offset="1" stop-color="#FFFFFF" stop-opacity="0"/></linearGradient><radialGradient cx="94210.5" cy="102524" r="139236" gradientUnits="userSpaceOnUse" spreadMethod="pad" id="fill4" gradientTransform="matrix(0.000360892 0 0 0.000360892 92.0001 205)"><stop offset="0" stop-color="#5D6CFF"/><stop offset="0.54" stop-color="#4B57CC" stop-opacity="0"/><stop offset="1" stop-color="#4B57CC" stop-opacity="0"/></radialGradient><radialGradient cx="112222" cy="120534" r="164689" gradientUnits="userSpaceOnUse" spreadMethod="pad" id="fill5" gradientTransform="matrix(0.000360892 0 0 0.000360892 121 250)"><stop offset="0" stop-color="#5D6CFF"/><stop offset="0.54" stop-color="#4B57CC" stop-opacity="0"/><stop offset="1" stop-color="#4B57CC" stop-opacity="0"/></radialGradient><radialGradient cx="292331" cy="278477" r="403741" fx="292331" fy="278476" gradientUnits="userSpaceOnUse" spreadMethod="pad" id="fill6" gradientTransform="matrix(0.000360892 0 0 0.000360892 343 381)"><stop offset="0" stop-color="#5D6CFF"/><stop offset="0.54" stop-color="#4B57CC" stop-opacity="0"/><stop offset="1" stop-color="#4B57CC" stop-opacity="0"/></radialGradient><radialGradient cx="72043.5" cy="77585.5" r="105876" fx="72043.5" fy="77585.5" gradientUnits="userSpaceOnUse" spreadMethod="pad" id="fill7" gradientTransform="matrix(0.000360892 0 0 0.000360892 488 509)"><stop offset="0" stop-color="#5D6CFF"/><stop offset="0.54" stop-color="#4B57CC" stop-opacity="0"/><stop offset="1" stop-color="#4B57CC" stop-opacity="0"/></radialGradient><radialGradient cx="77585.5" cy="84513" r="114726" fx="77585.5" fy="84513" gradientUnits="userSpaceOnUse" spreadMethod="pad" id="fill8" gradientTransform="matrix(0.000360892 0 0 0.000360892 472 426)"><stop offset="0" stop-color="#5D6CFF"/><stop offset="0.54" stop-color="#4B57CC" stop-opacity="0"/><stop offset="1" stop-color="#4B57CC" stop-opacity="0"/></radialGradient><clipPath id="clip9"><rect x="94" y="126" width="469" height="467"/></clipPath><clipPath id="clip10"><rect x="94" y="126" width="469" height="467"/></clipPath><clipPath id="clip11"><rect x="94" y="126" width="469" height="467"/></clipPath><linearGradient x1="153.569" y1="536.673" x2="79.9171" y2="612.509" gradientUnits="userSpaceOnUse" spreadMethod="reflect" id="fill12"><stop offset="0" stop-color="#33A3FF"/><stop offset="0.76" stop-color="#20A0FB" stop-opacity="0"/><stop offset="1" stop-color="#20A0FB" stop-opacity="0"/></linearGradient><linearGradient x1="109.162" y1="349.571" x2="73.1621" y2="386.639" gradientUnits="userSpaceOnUse" spreadMethod="reflect" id="fill13"><stop offset="0" stop-color="#33A3FF"/><stop offset="0.76" stop-color="#20A0FB" stop-opacity="0"/><stop offset="1" stop-color="#20A0FB" stop-opacity="0"/></linearGradient><linearGradient x1="344.766" y1="578.612" x2="308.766" y2="615.68" gradientUnits="userSpaceOnUse" spreadMethod="reflect" id="fill14"><stop offset="0" stop-color="#33A3FF"/><stop offset="0.76" stop-color="#20A0FB" stop-opacity="0"/><stop offset="1" stop-color="#20A0FB" stop-opacity="0"/></linearGradient></defs><g clip-path="url(#clip0)" transform="translate(-54 -76)"><rect x="54" y="76" width="550" height="550" fill="url(#fill1)"/><path d="M73.9999 256.5C73.9999 172.829 134.441 105 209 105 283.558 105 344 172.829 344 256.5 344 340.171 283.558 408 209 408 134.441 408 73.9999 340.171 73.9999 256.5Z" fill="url(#fill2)" fill-rule="evenodd"/><path d="M87.7338 82.0002 565.266 82.0002C581.136 82.0002 594 101.864 594 126.368L594 236C594 197.824 573.957 166.876 549.233 166.876L103.767 166.876C79.0428 166.876 59.0001 197.824 59.0001 236L59.0001 126.368C59.0001 101.864 71.8646 82.0002 87.7338 82.0002Z" fill="url(#fill3)" fill-rule="evenodd"/><path d="M92.0001 242C92.0001 221.565 107.222 205 126 205 144.778 205 160 221.565 160 242 160 262.435 144.778 279 126 279 107.222 279 92.0001 262.435 92.0001 242Z" fill="url(#fill4)" fill-rule="evenodd"/><path d="M121 293.5C121 269.476 139.132 250 161.5 250 183.868 250 202 269.476 202 293.5 202 317.524 183.868 337 161.5 337 139.132 337 121 317.524 121 293.5Z" fill="url(#fill5)" fill-rule="evenodd"/><path d="M343 481.5C343 425.995 390.234 381 448.5 381 506.766 381 554 425.995 554 481.5 554 537.005 506.766 582 448.5 582 390.234 582 343 537.005 343 481.5Z" fill="url(#fill6)" fill-rule="evenodd"/><path d="M488 537C488 521.536 499.641 509 514 509 528.359 509 540 521.536 540 537 540 552.464 528.359 565 514 565 499.641 565 488 552.464 488 537Z" fill="url(#fill7)" fill-rule="evenodd"/><path d="M472 456.5C472 439.655 484.536 426 500 426 515.464 426 528 439.655 528 456.5 528 473.345 515.464 487 500 487 484.536 487 472 473.345 472 456.5Z" fill="url(#fill8)" fill-rule="evenodd"/><g clip-path="url(#clip9)"><g clip-path="url(#clip10)"><g clip-path="url(#clip11)"><path d="M198.322 157.221 319.311 36.2315C332.513 23.022 350.408 15.5799 369.084 15.5329 387.757 15.4844 405.692 22.8356 418.957 35.9768L374.357 80.5807C362.013 69.6923 345.98 63.9205 329.528 64.442 313.076 64.9655 297.442 71.743 285.813 83.3946L253.234 115.974 253.037 116.153 214.907 154.283C201.352 167.772 185.212 178.391 167.457 185.498 149.701 192.606 130.694 196.057 111.572 195.648L78.3039 194.909 123.564 153.952 126.839 157.227 126.838 157.225C136.326 166.689 149.179 172.003 162.58 172.003 175.98 172.003 188.833 166.689 198.32 157.225ZM251.054 386.959C244.877 384.209 238.363 382.291 231.682 381.254L180.349 329.912C185.527 324.492 190.257 318.661 194.493 312.477 197.868 307.427 199.389 301.362 198.798 295.317 198.206 289.272 195.539 283.617 191.249 279.317L186.566 274.629C182.249 270.366 176.595 267.715 170.555 267.125 164.515 266.535 158.456 268.041 153.396 271.391 148.593 274.619 143.998 278.143 139.635 281.943 139.599 281.977 139.549 281.988 139.511 282.024 139.478 282.056 139.47 282.102 139.438 282.134 138.216 283.2 137.148 284.424 135.963 285.531L84.1515 233.716 84.1499 233.716C82.903 225.59 80.347 217.717 76.5852 210.407L111.226 211.176 111.224 211.176C138.749 211.689 165.933 205.025 190.099 191.839 185.827 207.245 187.107 223.664 193.715 238.221 200.325 252.779 211.841 264.551 226.25 271.475 240.659 278.402 257.047 280.04 272.543 276.107 259.599 298.744 252.506 324.252 251.907 350.325ZM97.3863 384.994C95.2504 386.927 92.9841 388.718 90.7877 390.586L75.2924 375.09C77.1615 372.897 78.9529 370.629 80.8809 368.497L139.255 303.999C141.035 302.033 143.04 300.287 144.942 298.438L167.443 320.939C165.594 322.844 163.848 324.849 161.879 326.63ZM181.596 303.832C180.365 305.67 178.904 307.335 177.575 309.102L156.786 288.314C158.553 286.987 160.215 285.526 162.054 284.296L162.052 284.295C164.118 282.934 166.59 282.321 169.051 282.562 171.515 282.802 173.82 283.879 175.583 285.614L180.273 290.309 180.275 290.309C182.024 292.063 183.112 294.37 183.351 296.835 183.592 299.3 182.972 301.773 181.594 303.833ZM343.928 111.013C330.026 99.9563 312.365 94.7471 294.687 96.4888L296.801 94.3743 296.803 94.3743C305.525 85.6415 317.21 80.505 329.543 79.9846 341.874 79.4627 353.952 83.595 363.38 91.5616ZM226.092 165.085 264.222 126.954C274.13 117.164 287.498 111.678 301.427 111.688 315.354 111.699 328.715 117.203 338.608 127.006 338.661 127.06 338.676 127.136 338.732 127.192 338.784 127.244 338.857 127.259 338.91 127.311L338.908 127.311C348.747 137.23 354.254 150.644 354.223 164.616 354.193 178.588 348.628 191.977 338.748 201.856L293.375 247.229C283.475 257.187 270.02 262.797 255.979 262.818 241.939 262.838 228.465 257.269 218.537 247.341 208.609 237.413 203.042 223.939 203.063 209.899 203.086 195.858 208.695 182.403 218.653 172.505L225.895 165.263C225.958 165.201 226.029 165.15 226.089 165.087ZM354.906 121.999 374.362 102.543 374.364 102.543C382.315 111.974 386.437 124.047 385.91 136.372 385.385 148.697 380.251 160.376 371.525 169.095L369.432 171.189C369.646 168.977 369.758 166.743 369.758 164.491 369.788 149.051 364.55 134.06 354.906 122ZM134.608 94.3941 139.291 99.0813C141.04 100.837 142.129 103.144 142.37 105.61 142.613 108.077 141.994 110.551 140.618 112.612 139.382 114.457 137.915 116.128 136.582 117.902L115.787 97.1074C117.559 95.7743 119.229 94.3087 121.072 93.0738 123.14 91.7147 125.611 91.105 128.073 91.3446 130.534 91.5842 132.84 92.6614 134.608 94.3938ZM98.2806 112.787C100.057 110.824 102.055 109.084 103.954 107.238L126.451 129.738C124.608 131.636 122.867 133.637 120.906 135.411L56.4074 193.782C54.2746 195.712 52.0099 197.501 49.8146 199.372L34.3162 183.875C36.1851 181.68 37.9766 179.412 39.9063 177.278ZM27.1379 217.023 16.6634 206.557C19.1481 202.974 21.8317 199.503 24.4906 196.02L37.6726 209.199C34.1867 211.86 30.7098 214.546 27.1375 217.023ZM66.4411 296.01C76.1631 284.643 82.3811 270.699 84.341 255.868L106.427 277.956 61.9555 322.424 52.2064 312.672ZM72.9395 333.409 117.411 288.941 125.036 296.565 82.781 343.25ZM68.1141 408.239 57.6427 397.766C60.1288 394.182 62.8122 390.714 65.4699 387.231L78.6492 400.414C75.1604 403.075 71.6821 405.762 68.1125 408.239ZM169.318 340.845 177.005 348.533 132.534 393.005 122.631 383.101ZM169.202 399.009 152.733 413.21 143.513 403.987 187.985 359.515 209.514 381.044 209.514 381.043C194.619 383 180.615 389.242 169.201 399.009ZM260.103 449.993 249.629 439.527C252.114 435.943 254.797 432.475 257.456 428.992L270.637 442.172C267.152 444.832 263.677 447.519 260.105 449.993ZM289.369 426.755C287.237 428.685 284.972 430.475 282.777 432.343L267.278 416.849C269.147 414.655 270.939 412.387 272.868 410.251L331.243 345.76C333.02 343.795 335.021 342.053 336.92 340.207L359.444 362.68C357.59 364.59 355.84 366.602 353.868 368.385ZM367.572 327.365 372.255 332.052 372.256 332.052C374.005 333.807 375.095 336.114 375.336 338.581 375.579 341.047 374.958 343.521 373.584 345.583 372.355 347.415 370.899 349.073 369.576 350.836L348.764 330.07C350.533 328.74 352.2 327.278 354.038 326.044 356.104 324.684 358.575 324.072 361.039 324.312 363.502 324.552 365.808 325.629 367.572 327.364ZM308.103 338.476 312.709 343.089 266.416 394.232 267.43 350.689C268.215 314.179 283.101 279.391 308.966 253.613L382.501 180.078C394.143 168.452 400.919 152.827 401.447 136.379 401.976 119.934 396.217 103.906 385.34 91.5578L429.912 46.981C442.77 60.307 449.884 78.1432 449.733 96.6605 449.577 115.176 442.168 132.894 429.097 146.006L308.104 266.995C298.626 276.473 293.3 289.329 293.299 302.732 293.299 316.138 298.623 328.993 308.101 338.473Z" stroke="#33A3FF" stroke-width="5.40301" fill="#0F1113" transform="matrix(1.00215 0 0 1 94.9999 127)"/></g></g></g><path d="M73.8345 606.602 147.486 530.765 159.651 542.58 85.9996 618.417Z" fill="url(#fill12)" fill-rule="evenodd"/><path d="M67.2439 380.891 103.244 343.823 115.08 355.319 79.0802 392.387Z" fill="url(#fill13)" fill-rule="evenodd"/><path d="M302.848 609.932 338.848 572.864 350.684 584.36 314.684 621.428Z" fill="url(#fill14)" fill-rule="evenodd"/></g></svg>