<svg width="550" height="550" xmlns="http://www.w3.org/2000/svg" xmlns:xlink="http://www.w3.org/1999/xlink" overflow="hidden"><defs><clipPath id="clip0"><rect x="662" y="76" width="550" height="550"/></clipPath><radialGradient cx="762000" cy="762000" r="1.07763e+06" gradientUnits="userSpaceOnUse" spreadMethod="pad" id="fill1" gradientTransform="matrix(0.000360892 0 0 0.000360892 662 76)"><stop offset="0" stop-color="#5D6CFF"/><stop offset="0.17" stop-color="#5D6CFF"/><stop offset="0.33" stop-color="#4B57CC"/><stop offset="1" stop-color="#0F1113"/></radialGradient><radialGradient cx="374072" cy="419793" r="562278" gradientUnits="userSpaceOnUse" spreadMethod="pad" id="fill2" gradientTransform="matrix(0.000360892 0 0 0.000360892 682 105)"><stop offset="0" stop-color="#5D6CFF"/><stop offset="0.54" stop-color="#4B57CC" stop-opacity="0"/><stop offset="1" stop-color="#4B57CC" stop-opacity="0"/></radialGradient><linearGradient x1="935.5" y1="82.0002" x2="935.5" y2="236" gradientUnits="userSpaceOnUse" spreadMethod="reflect" id="fill3"><stop offset="0" stop-color="#F5FAFF" stop-opacity="0.231373"/><stop offset="0.32" stop-color="#FFFFFF" stop-opacity="0"/><stop offset="1" stop-color="#FFFFFF" stop-opacity="0"/></linearGradient><radialGradient cx="94211" cy="102524" r="139237" fx="94211" fy="102524" gradientUnits="userSpaceOnUse" spreadMethod="pad" id="fill4" gradientTransform="matrix(0.000360892 0 0 0.000360892 701 205)"><stop offset="0" stop-color="#5D6CFF"/><stop offset="0.54" stop-color="#4B57CC" stop-opacity="0"/><stop offset="1" stop-color="#4B57CC" stop-opacity="0"/></radialGradient><radialGradient cx="110836" cy="120534" r="163747" fx="110836" fy="120534" gradientUnits="userSpaceOnUse" spreadMethod="pad" id="fill5" gradientTransform="matrix(0.000360892 0 0 0.000360892 730 250)"><stop offset="0" stop-color="#5D6CFF"/><stop offset="0.54" stop-color="#4B57CC" stop-opacity="0"/><stop offset="1" stop-color="#4B57CC" stop-opacity="0"/></radialGradient><radialGradient cx="292330" cy="278476" r="403740" gradientUnits="userSpaceOnUse" spreadMethod="pad" id="fill6" gradientTransform="matrix(0.000360892 0 0 0.000360892 951 381)"><stop offset="0" stop-color="#5D6CFF"/><stop offset="0.54" stop-color="#4B57CC" stop-opacity="0"/><stop offset="1" stop-color="#4B57CC" stop-opacity="0"/></radialGradient><radialGradient cx="70658.5" cy="77585.5" r="104939" fx="70658.5" fy="77585.5" gradientUnits="userSpaceOnUse" spreadMethod="pad" id="fill7" gradientTransform="matrix(0.000360892 0 0 0.000360892 1097 509)"><stop offset="0" stop-color="#5D6CFF"/><stop offset="0.54" stop-color="#4B57CC" stop-opacity="0"/><stop offset="1" stop-color="#4B57CC" stop-opacity="0"/></radialGradient><radialGradient cx="77585.5" cy="84513" r="114726" fx="77585.5" fy="84513" gradientUnits="userSpaceOnUse" spreadMethod="pad" id="fill8" gradientTransform="matrix(0.000360892 0 0 0.000360892 1080 426)"><stop offset="0" stop-color="#5D6CFF"/><stop offset="0.54" stop-color="#4B57CC" stop-opacity="0"/><stop offset="1" stop-color="#4B57CC" stop-opacity="0"/></radialGradient><clipPath id="clip9"><rect x="693" y="107" width="498" height="498"/></clipPath><clipPath id="clip10"><rect x="693" y="107" width="498" height="498"/></clipPath><clipPath id="clip11"><rect x="693" y="107" width="498" height="498"/></clipPath></defs><g clip-path="url(#clip0)" transform="translate(-662 -76)"><rect x="662" y="76" width="550" height="550" fill="url(#fill1)"/><path d="M682 256.5C682 172.829 742.442 105 817 105 891.558 105 952 172.829 952 256.5 952 340.171 891.558 408 817 408 742.442 408 682 340.171 682 256.5Z" fill="url(#fill2)" fill-rule="evenodd"/><path d="M696.734 82.0002 1174.27 82.0002C1190.14 82.0002 1203 101.864 1203 126.368L1203 236C1203 197.824 1182.96 166.876 1158.23 166.876L712.767 166.876C688.043 166.876 668 197.824 668 236L668 126.368C668 101.864 680.864 82.0002 696.734 82.0002Z" fill="url(#fill3)" fill-rule="evenodd"/><path d="M701 242C701 221.565 716.222 205 735 205 753.778 205 769 221.565 769 242 769 262.435 753.778 279 735 279 716.222 279 701 262.435 701 242Z" fill="url(#fill4)" fill-rule="evenodd"/><path d="M730 293.5C730 269.476 747.909 250 770 250 792.091 250 810 269.476 810 293.5 810 317.524 792.091 337 770 337 747.909 337 730 317.524 730 293.5Z" fill="url(#fill5)" fill-rule="evenodd"/><path d="M951 481.5C951 425.995 998.234 381 1056.5 381 1114.77 381 1162 425.995 1162 481.5 1162 537.005 1114.77 582 1056.5 582 998.234 582 951 537.005 951 481.5Z" fill="url(#fill6)" fill-rule="evenodd"/><path d="M1097 537C1097 521.536 1108.42 509 1122.5 509 1136.58 509 1148 521.536 1148 537 1148 552.464 1136.58 565 1122.5 565 1108.42 565 1097 552.464 1097 537Z" fill="url(#fill7)" fill-rule="evenodd"/><path d="M1080 456.5C1080 439.655 1092.54 426 1108 426 1123.46 426 1136 439.655 1136 456.5 1136 473.345 1123.46 487 1108 487 1092.54 487 1080 473.345 1080 456.5Z" fill="url(#fill8)" fill-rule="evenodd"/><g clip-path="url(#clip9)"><g clip-path="url(#clip10)"><g clip-path="url(#clip11)"><path d="M900.729 422.974 841.868 422.974 841.868 442.932 731.675 442.932 763.747 484.634 1091.22 484.634 1142.63 401.155 900.733 401.155Z" stroke="#33A3FF" stroke-width="5.25925" fill="#0F1113"/><path d="M910.28 354.715 987.936 354.715 987.936 393.388 910.28 393.388Z" stroke="#33A3FF" stroke-width="5.25925" fill="#0F1113"/><path d="M941.5 236.135C941.5 233.36 940.02 230.797 937.617 229.41 935.215 228.023 932.254 228.023 929.852 229.41 927.449 230.798 925.969 233.36 925.969 236.135L925.969 245.842 941.5 245.842Z" stroke="#33A3FF" stroke-width="5.25925" fill="#0F1113"/><path d="M925.811 284.667 941.343 284.667 941.343 346.949 925.811 346.949Z" stroke="#33A3FF" stroke-width="5.25925" fill="#0F1113"/><path d="M885.666 253.604 981.496 253.604 981.496 276.901 885.666 276.901Z" stroke="#33A3FF" stroke-width="5.25925" fill="#0F1113"/><path d="M746.585 422.352 772.134 430.118C772.882 430.228 773.639 430.228 774.386 430.118L774.386 434.777 805.448 434.777 805.448 411.481 774.386 411.481 774.386 414.198 751.089 407.132C748.5 406.519 745.78 407.273 743.877 409.13 741.973 410.987 741.152 413.691 741.701 416.292 742.251 418.895 744.094 421.034 746.585 421.964Z" stroke="#33A3FF" stroke-width="5.25925" fill="#0F1113"/><path d="M819.035 401.93 844.584 409.696C845.332 409.806 846.089 409.806 846.836 409.696L846.836 414.821 877.898 414.821 877.898 391.446 846.836 391.446 846.836 394.164 823.539 387.098C820.951 386.484 818.23 387.238 816.327 389.096 814.423 390.953 813.602 393.657 814.151 396.258 814.701 398.861 816.544 401 819.036 401.93Z" stroke="#33A3FF" stroke-width="5.25925" fill="#0F1113"/><path d="M1042.45 388.726C1043.2 388.836 1043.96 388.836 1044.71 388.726L1070.25 380.961C1072.97 380.157 1075.06 377.963 1075.72 375.205 1076.38 372.448 1075.52 369.547 1073.47 367.594 1071.41 365.643 1068.47 364.936 1065.75 365.74L1042.45 372.807 1042.45 370.089 1011.39 370.089 1011.39 393.386 1042.45 393.386Z" stroke="#33A3FF" stroke-width="5.25925" fill="#0F1113"/><path d="M1151.15 370.946C1150.56 368.966 1149.2 367.303 1147.38 366.326 1145.56 365.35 1143.42 365.14 1141.44 365.743L1118.15 372.81 1118.15 370.092 1087.08 370.092 1087.08 393.389 1118.15 393.389 1118.15 388.729C1118.9 388.839 1119.65 388.839 1120.4 388.729L1145.95 380.964C1148 380.378 1149.73 378.971 1150.71 377.076 1151.69 375.18 1151.86 372.964 1151.15 370.946Z" stroke="#33A3FF" stroke-width="5.25925" fill="#0F1113"/><path d="M968.524 317.051C966.465 317.051 964.49 317.869 963.033 319.325 961.577 320.781 960.759 322.757 960.759 324.816L960.759 346.948 976.29 346.948 976.29 324.816C976.29 322.757 975.471 320.781 974.015 319.325 972.559 317.869 970.584 317.051 968.524 317.051Z" stroke="#33A3FF" stroke-width="5.25925" fill="#0F1113"/></g></g></g></g></svg>