<svg width="550" height="550" xmlns="http://www.w3.org/2000/svg" xmlns:xlink="http://www.w3.org/1999/xlink" overflow="hidden"><defs><clipPath id="clip0"><rect x="705" y="688" width="550" height="550"/></clipPath><radialGradient cx="762000" cy="762000" r="1.07763e+06" gradientUnits="userSpaceOnUse" spreadMethod="pad" id="fill1" gradientTransform="matrix(0.000360892 0 0 0.000360892 705 688)"><stop offset="0" stop-color="#5D6CFF"/><stop offset="0.17" stop-color="#5D6CFF"/><stop offset="0.33" stop-color="#4B57CC"/><stop offset="1" stop-color="#0F1113"/></radialGradient><radialGradient cx="374073" cy="419792" r="562278" gradientUnits="userSpaceOnUse" spreadMethod="pad" id="fill2" gradientTransform="matrix(0.000360892 0 0 0.000360892 725 716)"><stop offset="0" stop-color="#5D6CFF"/><stop offset="0.54" stop-color="#4B57CC" stop-opacity="0"/><stop offset="1" stop-color="#4B57CC" stop-opacity="0"/></radialGradient><linearGradient x1="978" y1="694" x2="978" y2="848" gradientUnits="userSpaceOnUse" spreadMethod="reflect" id="fill3"><stop offset="0" stop-color="#F5FAFF" stop-opacity="0.231373"/><stop offset="0.32" stop-color="#FFFFFF" stop-opacity="0"/><stop offset="1" stop-color="#FFFFFF" stop-opacity="0"/></linearGradient><radialGradient cx="95596.5" cy="102524" r="140178" gradientUnits="userSpaceOnUse" spreadMethod="pad" id="fill4" gradientTransform="matrix(0.000360892 0 0 0.000360892 743 816)"><stop offset="0" stop-color="#5D6CFF"/><stop offset="0.54" stop-color="#4B57CC" stop-opacity="0"/><stop offset="1" stop-color="#4B57CC" stop-opacity="0"/></radialGradient><radialGradient cx="112221" cy="121920" r="165705" fx="112222" fy="121920" gradientUnits="userSpaceOnUse" spreadMethod="pad" id="fill5" gradientTransform="matrix(0.000360892 0 0 0.000360892 772 861)"><stop offset="0" stop-color="#5D6CFF"/><stop offset="0.54" stop-color="#4B57CC" stop-opacity="0"/><stop offset="1" stop-color="#4B57CC" stop-opacity="0"/></radialGradient><radialGradient cx="292330" cy="278476" r="403740" gradientUnits="userSpaceOnUse" spreadMethod="pad" id="fill6" gradientTransform="matrix(0.000360892 0 0 0.000360892 994 992)"><stop offset="0" stop-color="#5D6CFF"/><stop offset="0.54" stop-color="#4B57CC" stop-opacity="0"/><stop offset="1" stop-color="#4B57CC" stop-opacity="0"/></radialGradient><radialGradient cx="72044" cy="77585.5" r="105877" fx="72044" fy="77585.5" gradientUnits="userSpaceOnUse" spreadMethod="pad" id="fill7" gradientTransform="matrix(0.000360892 0 0 0.000360892 1139 1120)"><stop offset="0" stop-color="#5D6CFF"/><stop offset="0.54" stop-color="#4B57CC" stop-opacity="0"/><stop offset="1" stop-color="#4B57CC" stop-opacity="0"/></radialGradient><radialGradient cx="77585.5" cy="83127" r="113708" gradientUnits="userSpaceOnUse" spreadMethod="pad" id="fill8" gradientTransform="matrix(0.000360892 0 0 0.000360892 1123 1038)"><stop offset="0" stop-color="#5D6CFF"/><stop offset="0.54" stop-color="#4B57CC" stop-opacity="0"/><stop offset="1" stop-color="#4B57CC" stop-opacity="0"/></radialGradient><clipPath id="clip9"><rect x="742" y="721" width="474" height="473"/></clipPath><clipPath id="clip10"><rect x="742" y="721" width="474" height="473"/></clipPath><clipPath id="clip11"><rect x="742" y="721" width="474" height="473"/></clipPath></defs><g clip-path="url(#clip0)" transform="translate(-705 -688)"><rect x="705" y="688" width="550" height="550" fill="url(#fill1)"/><path d="M725 867.5C725 783.829 785.442 716 860 716 934.559 716 995 783.829 995 867.5 995 951.171 934.559 1019 860 1019 785.442 1019 725 951.171 725 867.5Z" fill="url(#fill2)" fill-rule="evenodd"/><path d="M738.787 694 1217.21 694C1233.11 694 1246 713.864 1246 738.368L1246 848C1246 809.824 1225.92 778.876 1201.15 778.876L754.85 778.876C730.08 778.876 710 809.824 710 848L710 738.368C710 713.864 722.888 694 738.787 694Z" fill="url(#fill3)" fill-rule="evenodd"/><path d="M743 853C743 832.565 758.446 816 777.5 816 796.554 816 812 832.565 812 853 812 873.435 796.554 890 777.5 890 758.446 890 743 873.435 743 853Z" fill="url(#fill4)" fill-rule="evenodd"/><path d="M772 905C772 880.7 790.132 861 812.5 861 834.867 861 853 880.7 853 905 853 929.301 834.867 949 812.5 949 790.132 949 772 929.301 772 905Z" fill="url(#fill5)" fill-rule="evenodd"/><path d="M994 1092.5C994 1037 1041.23 992 1099.5 992 1157.77 992 1205 1037 1205 1092.5 1205 1148 1157.77 1193 1099.5 1193 1041.23 1193 994 1148 994 1092.5Z" fill="url(#fill6)" fill-rule="evenodd"/><path d="M1139 1148C1139 1132.54 1150.64 1120 1165 1120 1179.36 1120 1191 1132.54 1191 1148 1191 1163.46 1179.36 1176 1165 1176 1150.64 1176 1139 1163.46 1139 1148Z" fill="url(#fill7)" fill-rule="evenodd"/><path d="M1123 1068C1123 1051.43 1135.54 1038 1151 1038 1166.46 1038 1179 1051.43 1179 1068 1179 1084.57 1166.46 1098 1151 1098 1135.54 1098 1123 1084.57 1123 1068Z" fill="url(#fill8)" fill-rule="evenodd"/><g clip-path="url(#clip9)"><g clip-path="url(#clip10)"><g clip-path="url(#clip11)"><path d="M348.467 219.402C359.506 219.402 371.465 217.378 384.436 213.422M408.446 190.056C382.504 169.358 378.824 159.423 367.417 151.051 356.102 143.048 350.122 145.072 349.755 141.76 349.755 141.76 352.054 124.741 346.719 121.798 344.051 120.51 334.76 138.816 334.76 138.816 334.76 138.816 300.447 130.169 280.76 161.814 280.392 162.458 280.116 163.102 279.748 163.47 278.737 161.446 278.093 159.423 277.449 157.491 278.093 155.467 278.461 153.167 277.817 151.143 276.529 145.808 271.193 142.496 265.858 143.784L239.18 150.775 207.81 141.116C204.131 139.736 200.175 139.46 195.851 140.104 183.157 142.772 174.877 155.099 177.545 168.07L183.893 199.715C168.898 197.047 151.235 197.047 125.293 207.718 119.59 210.754 116.278 209.374 110.299 209.374 104.595 209.374 72.9499 216.366 72.6739 244.055 72.3059 271.745 70.65 281.036 58.967 290.695 69.9141 292.351 104.963 300.355 105.975 241.756 105.975 233.384 111.955 224.461 119.314 223.449 103.675 242.4 114.346 271.101 112.691 276.805 111.403 282.14 99.7196 292.167 97.6958 305.782 95.396 319.397 105.055 394.095 105.055 394.095L122.074 394.095C122.074 394.095 120.418 305.782 128.053 305.138 135.689 304.494 152.431 394.095 152.431 394.095L173.405 394.095C173.405 394.095 159.055 320.777 160.71 312.13 162.366 303.482 170.37 296.123 177.361 294.467 184.72 292.811 242.308 291.431 247.367 295.111 252.335 298.791 257.026 310.75 257.026 324.457 256.658 338.164 248.747 394.095 248.747 394.095L266.778 394.095C266.778 394.095 275.149 301.827 285.82 301.459 296.491 301.459 297.135 394.095 297.135 394.095L312.774 394.095C312.774 394.095 309.094 315.809 313.142 281.496 316.177 258.13 326.48 232.832 333.104 218.206 337.796 218.85 342.763 219.493 347.823 219.493L348.467 219.493 348.467 219.493C351.134 219.493 353.434 219.126 356.102 219.126 364.749 218.114 374.408 216.458 384.436 213.422L384.436 213.422 384.436 213.422C390.139 211.766 396.119 209.374 402.098 207.075 404.398 206.431 406.79 205.419 408.078 203.763 411.389 199.807 411.757 198.427 411.757 198.427 411.757 198.427 413.781 194.472 408.446 190.056L408.446 190.056ZM335.128 213.79C341.475 214.802 348.467 215.17 355.826 214.434 357.114 214.066 358.494 214.066 359.782 214.066 362.817 213.422 365.761 213.054 368.797 212.41 376.156 211.122 383.792 209.098 391.795 206.063 382.136 204.039 364.841 206.063 359.782 205.419 345.799 203.119 344.143 197.415 339.083 205.787 338.439 206.799 337.152 209.374 335.128 213.79L335.128 213.79ZM276.805 168.806C275.793 166.506 274.781 163.838 273.769 161.17L260.43 165.862 241.388 170.83C240.376 171.198 239.732 171.198 238.72 171.198 237.708 171.198 236.696 171.198 235.684 170.83L225.013 167.518 233.384 208.546 225.381 208.546C249.667 209.834 266.686 211.858 268.341 199.255 270.089 186.744 273.125 176.809 276.805 168.806L276.805 168.806ZM206.799 129.433C218.758 120.786 221.793 104.135 213.514 92.0842 204.867 79.7573 188.216 77.0895 176.165 85.4608 163.838 93.8321 161.17 110.759 169.45 122.81 177.821 134.769 194.84 137.804 206.799 129.433L206.799 129.433ZM255.094 207.718 254.451 208.362 255.462 208.362 255.094 207.718ZM351.41 152.431C355.09 152.431 357.758 155.467 357.758 158.779 357.758 162.458 355.09 165.494 351.41 165.494 347.731 165.494 344.695 162.458 344.695 158.779 344.787 155.467 347.823 152.431 351.41 152.431L351.41 152.431Z" stroke="#33A3FF" stroke-width="4.58395" fill="#0F1113" fill-rule="evenodd" transform="matrix(1.00212 0 0 1 743 722)"/></g></g></g></g></svg>