<svg width="550" height="550" xmlns="http://www.w3.org/2000/svg" xmlns:xlink="http://www.w3.org/1999/xlink" overflow="hidden"><defs><clipPath id="clip0"><rect x="2482" y="1265" width="550" height="550"/></clipPath><radialGradient cx="762000" cy="762000" r="1.07763e+06" gradientUnits="userSpaceOnUse" spreadMethod="pad" id="fill1" gradientTransform="matrix(0.000360892 0 0 0.000360892 2482 1265)"><stop offset="0" stop-color="#5D6CFF"/><stop offset="0.17" stop-color="#5D6CFF"/><stop offset="0.33" stop-color="#4B57CC"/><stop offset="1" stop-color="#0F1113"/></radialGradient><radialGradient cx="374072" cy="419793" r="562278" gradientUnits="userSpaceOnUse" spreadMethod="pad" id="fill2" gradientTransform="matrix(0.000360892 0 0 0.000360892 2502 1293)"><stop offset="0" stop-color="#5D6CFF"/><stop offset="0.54" stop-color="#4B57CC" stop-opacity="0"/><stop offset="1" stop-color="#4B57CC" stop-opacity="0"/></radialGradient><radialGradient cx="95596.5" cy="102524" r="140178" fx="95596.5" fy="102524" gradientUnits="userSpaceOnUse" spreadMethod="pad" id="fill3" gradientTransform="matrix(0.000360892 0 0 0.000360892 2520 1393)"><stop offset="0" stop-color="#5D6CFF"/><stop offset="0.54" stop-color="#4B57CC" stop-opacity="0"/><stop offset="1" stop-color="#4B57CC" stop-opacity="0"/></radialGradient><radialGradient cx="112222" cy="120534" r="164689" gradientUnits="userSpaceOnUse" spreadMethod="pad" id="fill4" gradientTransform="matrix(0.000360892 0 0 0.000360892 2549 1438)"><stop offset="0" stop-color="#5D6CFF"/><stop offset="0.54" stop-color="#4B57CC" stop-opacity="0"/><stop offset="1" stop-color="#4B57CC" stop-opacity="0"/></radialGradient><radialGradient cx="292331" cy="278477" r="403741" fx="292331" fy="278476" gradientUnits="userSpaceOnUse" spreadMethod="pad" id="fill5" gradientTransform="matrix(0.000360892 0 0 0.000360892 2771 1569)"><stop offset="0" stop-color="#5D6CFF"/><stop offset="0.54" stop-color="#4B57CC" stop-opacity="0"/><stop offset="1" stop-color="#4B57CC" stop-opacity="0"/></radialGradient><radialGradient cx="72043.5" cy="77585.5" r="105876" fx="72043.5" fy="77585.5" gradientUnits="userSpaceOnUse" spreadMethod="pad" id="fill6" gradientTransform="matrix(0.000360892 0 0 0.000360892 2916 1697)"><stop offset="0" stop-color="#5D6CFF"/><stop offset="0.54" stop-color="#4B57CC" stop-opacity="0"/><stop offset="1" stop-color="#4B57CC" stop-opacity="0"/></radialGradient><radialGradient cx="77585.5" cy="84513" r="114726" fx="77585.5" fy="84513" gradientUnits="userSpaceOnUse" spreadMethod="pad" id="fill7" gradientTransform="matrix(0.000360892 0 0 0.000360892 2900 1614)"><stop offset="0" stop-color="#5D6CFF"/><stop offset="0.54" stop-color="#4B57CC" stop-opacity="0"/><stop offset="1" stop-color="#4B57CC" stop-opacity="0"/></radialGradient><linearGradient x1="2755" y1="1271" x2="2755" y2="1425" gradientUnits="userSpaceOnUse" spreadMethod="reflect" id="fill8"><stop offset="0" stop-color="#F5FAFF" stop-opacity="0.231373"/><stop offset="0.32" stop-color="#FFFFFF" stop-opacity="0"/><stop offset="1" stop-color="#FFFFFF" stop-opacity="0"/></linearGradient><clipPath id="clip9"><rect x="2509" y="1288" width="504" height="503"/></clipPath><clipPath id="clip10"><rect x="2509" y="1288" width="504" height="503"/></clipPath><clipPath id="clip11"><rect x="2509" y="1288" width="504" height="503"/></clipPath></defs><g clip-path="url(#clip0)" transform="translate(-2482 -1265)"><rect x="2482" y="1265" width="550" height="550" fill="url(#fill1)"/><path d="M2502 1444.5C2502 1360.83 2562.44 1293 2637 1293 2711.56 1293 2772 1360.83 2772 1444.5 2772 1528.17 2711.56 1596 2637 1596 2562.44 1596 2502 1528.17 2502 1444.5Z" fill="url(#fill2)" fill-rule="evenodd"/><path d="M2520 1430C2520 1409.57 2535.45 1393 2554.5 1393 2573.55 1393 2589 1409.57 2589 1430 2589 1450.43 2573.55 1467 2554.5 1467 2535.45 1467 2520 1450.43 2520 1430Z" fill="url(#fill3)" fill-rule="evenodd"/><path d="M2549 1481.5C2549 1457.48 2567.13 1438 2589.5 1438 2611.87 1438 2630 1457.48 2630 1481.5 2630 1505.52 2611.87 1525 2589.5 1525 2567.13 1525 2549 1505.52 2549 1481.5Z" fill="url(#fill4)" fill-rule="evenodd"/><path d="M2771 1669.5C2771 1614 2818.23 1569 2876.5 1569 2934.77 1569 2982 1614 2982 1669.5 2982 1725 2934.77 1770 2876.5 1770 2818.23 1770 2771 1725 2771 1669.5Z" fill="url(#fill5)" fill-rule="evenodd"/><path d="M2916 1725C2916 1709.54 2927.64 1697 2942 1697 2956.36 1697 2968 1709.54 2968 1725 2968 1740.46 2956.36 1753 2942 1753 2927.64 1753 2916 1740.46 2916 1725Z" fill="url(#fill6)" fill-rule="evenodd"/><path d="M2900 1644.5C2900 1627.66 2912.54 1614 2928 1614 2943.46 1614 2956 1627.66 2956 1644.5 2956 1661.34 2943.46 1675 2928 1675 2912.54 1675 2900 1661.34 2900 1644.5Z" fill="url(#fill7)" fill-rule="evenodd"/><path d="M2515.79 1271 2994.21 1271C3010.11 1271 3023 1290.86 3023 1315.37L3023 1425C3023 1386.82 3002.92 1355.88 2978.15 1355.88L2531.85 1355.88C2507.08 1355.88 2487 1386.82 2487 1425L2487 1315.37C2487 1290.86 2499.89 1271 2515.79 1271Z" fill="url(#fill8)" fill-rule="evenodd"/><g clip-path="url(#clip9)"><g clip-path="url(#clip10)"><g clip-path="url(#clip11)"><path d="M243.641 270.383 243.641 235.781 259.359 235.781 259.359 270.383 283.208 283.224 345.812 254.33 345.812 206.2 337.123 223.578C335.999 225.826 333.866 227.402 331.386 227.816L284.229 235.675C280.826 236.24 277.453 234.522 275.908 231.437L264.477 208.574 253.812 211.855C252.306 212.318 250.694 212.318 249.188 211.855L238.523 208.574 227.092 231.437C225.547 234.522 222.174 236.24 218.771 235.675L171.614 227.816C169.134 227.402 167.001 225.826 165.877 223.578L157.187 206.2 157.187 254.33 219.792 283.224Z" stroke="#33A3FF" stroke-width="4.59361" fill="#0F1113" transform="matrix(1.00199 0 0 1 2509 1288)"/><path d="M392.969 220.062 408.687 220.062 408.687 188.625C408.682 184.287 405.166 180.771 400.828 180.766L392.969 180.766Z" stroke="#33A3FF" stroke-width="4.59361" fill="#0F1113" transform="matrix(1.00199 0 0 1 2509 1288)"/><path d="M324.854 212.967 338.428 185.82 279.707 203.888 287.371 219.216 324.854 212.967Z" stroke="#33A3FF" stroke-width="4.59361" fill="#0F1113" transform="matrix(1.00199 0 0 1 2509 1288)"/><path d="M215.629 219.216 223.293 203.888 164.572 185.82 178.145 212.967 215.629 219.216Z" stroke="#33A3FF" stroke-width="4.59361" fill="#0F1113" transform="matrix(1.00199 0 0 1 2509 1288)"/><path d="M317.245 68.3874C316.073 56.318 305.91 47.1218 293.784 47.1562L209.216 47.1562C197.09 47.1218 186.927 56.318 185.755 68.3874L181.591 110.031 321.409 110.031ZM291.201 96.798 285.132 78.5937 217.868 78.5937 211.799 96.798 196.888 91.827 204.747 68.2488C205.817 65.0398 208.821 62.8752 212.203 62.875L290.797 62.875C294.179 62.8752 297.183 65.0398 298.252 68.2488L306.112 91.827Z" stroke="#33A3FF" stroke-width="4.59361" fill="#0F1113" transform="matrix(1.00199 0 0 1 2509 1288)"/><path d="M408.687 267.219 392.969 267.219 392.969 277.917 408.687 290.311 408.687 267.219Z" stroke="#33A3FF" stroke-width="4.59361" fill="#0F1113" transform="matrix(1.00199 0 0 1 2509 1288)"/><path d="M372.157 318.347 354.57 304.48 342.941 309.847 360.528 323.714 372.157 318.347Z" stroke="#33A3FF" stroke-width="4.59361" fill="#0F1113" transform="matrix(1.00199 0 0 1 2509 1288)"/><path d="M322.234 325.79C322.235 331.302 326.704 335.77 332.217 335.77 333.661 335.77 335.087 335.457 336.398 334.852L344.515 331.105 327.002 317.298C324.049 319.111 322.245 322.325 322.234 325.79Z" stroke="#33A3FF" stroke-width="4.59361" fill="#0F1113" transform="matrix(1.00199 0 0 1 2509 1288)"/><path d="M401.615 304.751 384.028 290.884 370.583 297.089 388.172 310.956 401.615 304.751Z" stroke="#33A3FF" stroke-width="4.59361" fill="#0F1113" transform="matrix(1.00199 0 0 1 2509 1288)"/><path d="M392.969 235.781 408.687 235.781 408.687 251.5 392.969 251.5Z" stroke="#33A3FF" stroke-width="4.59361" fill="#0F1113" transform="matrix(1.00199 0 0 1 2509 1288)"/><path d="M110.031 267.219 94.3125 267.219 94.3125 290.311 110.031 277.917 110.031 267.219Z" stroke="#33A3FF" stroke-width="4.59361" fill="#0F1113" transform="matrix(1.00199 0 0 1 2509 1288)"/><path d="M101.385 304.751 114.828 310.956 132.417 297.089 118.972 290.884 101.385 304.751Z" stroke="#33A3FF" stroke-width="4.59361" fill="#0F1113" transform="matrix(1.00199 0 0 1 2509 1288)"/><path d="M176.164 334.196C179.055 332.385 180.798 329.202 180.766 325.79 180.755 322.325 178.951 319.111 175.998 317.298L158.485 331.105 166.602 334.852C169.687 336.309 173.307 336.062 176.164 334.196Z" stroke="#33A3FF" stroke-width="4.59361" fill="#0F1113" transform="matrix(1.00199 0 0 1 2509 1288)"/><path d="M110.031 180.766 102.172 180.766C97.8333 180.771 94.3174 184.287 94.3125 188.625L94.3125 220.062 110.031 220.062Z" stroke="#33A3FF" stroke-width="4.59361" fill="#0F1113" transform="matrix(1.00199 0 0 1 2509 1288)"/><path d="M94.3125 235.781 110.031 235.781 110.031 251.5 94.3125 251.5Z" stroke="#33A3FF" stroke-width="4.59361" fill="#0F1113" transform="matrix(1.00199 0 0 1 2509 1288)"/><path d="M447.847 393.839C446.757 385.308 439.007 379.24 430.464 380.231L252.401 400.776C251.803 400.846 251.197 400.846 250.599 400.776L72.5361 380.231C63.9927 379.24 56.2427 385.308 55.1532 393.839L251.5 416.495Z" stroke="#33A3FF" stroke-width="4.59361" fill="#0F1113" transform="matrix(1.00199 0 0 1 2509 1288)"/><path d="M125.75 172.906 125.75 276.699 181.552 302.455C194.491 308.289 200.251 323.507 194.418 336.446 188.585 349.385 173.367 355.145 160.428 349.312 160.289 349.25 160.15 349.185 160.012 349.12L112.773 327.317 121.32 370.034 251.5 385.057 381.681 370.037 390.228 327.32 342.985 349.123C330.029 354.919 314.827 349.114 309.031 336.157 303.332 323.417 308.843 308.457 321.444 302.458L377.25 276.699 377.25 172.906C377.25 168.566 380.769 165.047 385.109 165.047L392.969 165.047 392.969 147.363C392.967 111.641 368.287 80.6583 333.47 72.6688L337.914 117.105C338.348 121.423 335.198 125.276 330.88 125.711 330.618 125.737 330.356 125.75 330.094 125.75L172.906 125.75C168.566 125.75 165.047 122.231 165.047 117.891 165.047 117.628 165.06 117.366 165.086 117.105L169.53 72.6648C134.712 80.6547 110.031 111.64 110.031 147.363L110.031 165.047 117.891 165.047C122.231 165.047 125.75 168.566 125.75 172.906ZM259.359 353.672 243.641 353.672 243.641 337.953 259.359 337.953ZM259.359 322.234 243.641 322.234 243.641 306.516 259.359 306.516ZM141.469 172.906C141.469 168.566 144.988 165.047 149.328 165.047 150.112 165.047 150.891 165.164 151.64 165.395L251.5 196.121 351.36 165.395C355.509 164.117 359.907 166.446 361.183 170.595 361.414 171.343 361.531 172.122 361.531 172.906L361.531 259.359C361.531 262.424 359.749 265.211 356.966 266.496L290.797 297.035 290.797 361.531 275.078 361.531 275.078 296.7 251.5 284.004 227.922 296.7 227.922 361.531 212.203 361.531 212.203 297.035 146.034 266.496C143.251 265.211 141.469 262.424 141.469 259.359Z" stroke="#33A3FF" stroke-width="4.59361" fill="#0F1113" transform="matrix(1.00199 0 0 1 2509 1288)"/><path d="M252.401 432.213C251.803 432.283 251.197 432.283 250.599 432.213L55.0156 409.646 55.0156 455.844 447.984 455.844 447.984 409.646Z" stroke="#33A3FF" stroke-width="4.59361" fill="#0F1113" transform="matrix(1.00199 0 0 1 2509 1288)"/><path d="M130.843 318.347 142.472 323.714 160.059 309.847 148.43 304.48 130.843 318.347Z" stroke="#33A3FF" stroke-width="4.59361" fill="#0F1113" transform="matrix(1.00199 0 0 1 2509 1288)"/></g></g></g></g></svg>