<svg width="550" height="550" xmlns="http://www.w3.org/2000/svg" xmlns:xlink="http://www.w3.org/1999/xlink" overflow="hidden"><defs><clipPath id="clip0"><rect x="699" y="76" width="550" height="550"/></clipPath><radialGradient cx="762000" cy="762000" r="1.07763e+06" gradientUnits="userSpaceOnUse" spreadMethod="pad" id="fill1" gradientTransform="matrix(0.000360892 0 0 0.000360892 699 76)"><stop offset="0" stop-color="#5D6CFF"/><stop offset="0.17" stop-color="#5D6CFF"/><stop offset="0.33" stop-color="#4B57CC"/><stop offset="1" stop-color="#0F1113"/></radialGradient><radialGradient cx="374072" cy="419793" r="562278" gradientUnits="userSpaceOnUse" spreadMethod="pad" id="fill2" gradientTransform="matrix(0.000360892 0 0 0.000360892 719 105)"><stop offset="0" stop-color="#5D6CFF"/><stop offset="0.54" stop-color="#4B57CC" stop-opacity="0"/><stop offset="1" stop-color="#4B57CC" stop-opacity="0"/></radialGradient><linearGradient x1="972.5" y1="82.0002" x2="972.5" y2="236" gradientUnits="userSpaceOnUse" spreadMethod="reflect" id="fill3"><stop offset="0" stop-color="#F5FAFF" stop-opacity="0.231373"/><stop offset="0.32" stop-color="#FFFFFF" stop-opacity="0"/><stop offset="1" stop-color="#FFFFFF" stop-opacity="0"/></linearGradient><radialGradient cx="94211" cy="102524" r="139237" fx="94211" fy="102524" gradientUnits="userSpaceOnUse" spreadMethod="pad" id="fill4" gradientTransform="matrix(0.000360892 0 0 0.000360892 738 205)"><stop offset="0" stop-color="#5D6CFF"/><stop offset="0.54" stop-color="#4B57CC" stop-opacity="0"/><stop offset="1" stop-color="#4B57CC" stop-opacity="0"/></radialGradient><radialGradient cx="110836" cy="120534" r="163748" gradientUnits="userSpaceOnUse" spreadMethod="pad" id="fill5" gradientTransform="matrix(0.000360892 0 0 0.000360892 767 250)"><stop offset="0" stop-color="#5D6CFF"/><stop offset="0.54" stop-color="#4B57CC" stop-opacity="0"/><stop offset="1" stop-color="#4B57CC" stop-opacity="0"/></radialGradient><radialGradient cx="292331" cy="278477" r="403741" fx="292331" fy="278476" gradientUnits="userSpaceOnUse" spreadMethod="pad" id="fill6" gradientTransform="matrix(0.000360892 0 0 0.000360892 988 381)"><stop offset="0" stop-color="#5D6CFF"/><stop offset="0.54" stop-color="#4B57CC" stop-opacity="0"/><stop offset="1" stop-color="#4B57CC" stop-opacity="0"/></radialGradient><radialGradient cx="72043.5" cy="77585.5" r="105876" fx="72043.5" fy="77585.5" gradientUnits="userSpaceOnUse" spreadMethod="pad" id="fill7" gradientTransform="matrix(0.000360892 0 0 0.000360892 1133 509)"><stop offset="0" stop-color="#5D6CFF"/><stop offset="0.54" stop-color="#4B57CC" stop-opacity="0"/><stop offset="1" stop-color="#4B57CC" stop-opacity="0"/></radialGradient><radialGradient cx="77585.5" cy="84513" r="114726" fx="77585.5" fy="84513" gradientUnits="userSpaceOnUse" spreadMethod="pad" id="fill8" gradientTransform="matrix(0.000360892 0 0 0.000360892 1117 426)"><stop offset="0" stop-color="#5D6CFF"/><stop offset="0.54" stop-color="#4B57CC" stop-opacity="0"/><stop offset="1" stop-color="#4B57CC" stop-opacity="0"/></radialGradient><linearGradient x1="798" y1="326" x2="710" y2="326" gradientUnits="userSpaceOnUse" spreadMethod="reflect" id="fill9"><stop offset="0" stop-color="#33A3FF"/><stop offset="0.76" stop-color="#20A0FB" stop-opacity="0"/><stop offset="1" stop-color="#20A0FB" stop-opacity="0"/></linearGradient><clipPath id="clip10"><rect x="763" y="126" width="478" height="478"/></clipPath><clipPath id="clip11"><rect x="763" y="126" width="478" height="478"/></clipPath><clipPath id="clip12"><rect x="763" y="126" width="478" height="478"/></clipPath><linearGradient x1="798" y1="400" x2="710" y2="400" gradientUnits="userSpaceOnUse" spreadMethod="reflect" id="fill13"><stop offset="0" stop-color="#33A3FF"/><stop offset="0.76" stop-color="#20A0FB" stop-opacity="0"/><stop offset="1" stop-color="#20A0FB" stop-opacity="0"/></linearGradient></defs><g clip-path="url(#clip0)" transform="translate(-699 -76)"><rect x="699" y="76" width="550" height="550" fill="url(#fill1)"/><path d="M719 256.5C719 172.829 779.442 105 854 105 928.558 105 989 172.829 989 256.5 989 340.171 928.558 408 854 408 779.442 408 719 340.171 719 256.5Z" fill="url(#fill2)" fill-rule="evenodd"/><path d="M733.734 82.0002 1211.27 82.0002C1227.14 82.0002 1240 101.864 1240 126.368L1240 236C1240 197.824 1219.96 166.876 1195.23 166.876L749.767 166.876C725.043 166.876 705 197.824 705 236L705 126.368C705 101.864 717.865 82.0002 733.734 82.0002Z" fill="url(#fill3)" fill-rule="evenodd"/><path d="M738 242C738 221.565 753.222 205 772 205 790.778 205 806 221.565 806 242 806 262.435 790.778 279 772 279 753.222 279 738 262.435 738 242Z" fill="url(#fill4)" fill-rule="evenodd"/><path d="M767 293.5C767 269.476 784.909 250 807 250 829.091 250 847 269.476 847 293.5 847 317.524 829.091 337 807 337 784.909 337 767 317.524 767 293.5Z" fill="url(#fill5)" fill-rule="evenodd"/><path d="M988 481.5C988 425.995 1035.23 381 1093.5 381 1151.77 381 1199 425.995 1199 481.5 1199 537.005 1151.77 582 1093.5 582 1035.23 582 988 537.005 988 481.5Z" fill="url(#fill6)" fill-rule="evenodd"/><path d="M1133 537C1133 521.536 1144.64 509 1159 509 1173.36 509 1185 521.536 1185 537 1185 552.464 1173.36 565 1159 565 1144.64 565 1133 552.464 1133 537Z" fill="url(#fill7)" fill-rule="evenodd"/><path d="M1117 456.5C1117 439.655 1129.54 426 1145 426 1160.46 426 1173 439.655 1173 456.5 1173 473.345 1160.46 487 1145 487 1129.54 487 1117 473.345 1117 456.5Z" fill="url(#fill8)" fill-rule="evenodd"/><rect x="710" y="315" width="88" height="22" fill="url(#fill9)"/><g clip-path="url(#clip10)"><g clip-path="url(#clip11)"><g clip-path="url(#clip12)"><path d="M1189.72 357.884 1189.72 369.433 1141.42 377.176 974.597 386.21 955.923 387.996 955.318 388.926 940.744 390.118 940.744 418.318 926.811 418.974 926.811 436.573 924.643 439.307 924.022 506.846 938.916 506.846 939.675 505.808 945.737 505.808 946.61 510.817 1004.05 510.817 1005.67 512.05 1050.74 512.05 1051.05 510.817 1051.97 508.34 1055.46 509.662 1054.5 512.05 1065.28 508.711 1065.28 512.441 1087.14 513.154 1087.14 514.172 1065.28 514.96 1065.28 519.144 1054.5 515.483 1055.46 518.371 1052.28 519.144 1051.05 516.754 1050.74 515.483 1005.67 515.483 1004.05 516.754 946.609 516.754 945.737 521.784 939.675 521.784 938.916 520.913 934.529 520.913 933.613 522.121 924.022 522.83 903.561 522.83 903.561 525.112 886.946 525.112 886.946 522.121 870.285 522.121 869.943 519.521 866.654 519.521 864.335 520.338 864.335 508.711 866.654 509.661 869.943 509.661 870.285 507.249 871.98 507.249 855.147 439.304 858.502 439.304 858.502 411.342 823.23 410.209 813.646 411.342 799.884 410.209 799.884 391.792 813.646 391.087 823.23 391.792 856.583 391.792 856.583 387.992 854.202 390.115 840.994 386.206 840.994 341.647 854.576 338.704 856.583 341.647 856.583 336.386 823.23 336.386 813.646 337.184 799.884 336.386 799.884 316.821 813.646 316.011 823.23 316.821 857.469 316.37 857.469 291.573 855.147 288.824 871.247 221.412 869.425 221.412 869.425 218.909 865.476 218.909 863.071 219.608 863.071 208.184 865.476 208.184 865.476 209.52 868.667 209.52 869.943 206.664 885.281 206.157 886.036 203.807 902.4 203.807 902.4 205.314 932.587 206.157 933.273 207.416 938.009 207.416 938.916 206.157 944.142 206.157 945.737 207.098 945.737 210.869 1003.49 210.869 1005.26 212.389 1049.95 212.868 1052.27 209.52 1055.45 210.304 1054.5 212.868 1062.56 210.304 1063.54 213.214 1086.32 213.894 1086.32 215.349 1063.54 215.874 1062.56 218.909 1054.5 215.874 1055.45 218.909 1052.27 219.608 1049.95 215.874 1005.26 215.874 1003.49 217.29 945.737 216.898 945.737 220.934 944.142 222.375 938.916 222.375 938.009 220.934 933.613 220.934 929.936 221.81 922.927 221.412 924.022 288.824 926.81 294.315 927.214 309.014 938.588 309.014 940.743 313.325 940.743 338.04 955.317 339.099 955.922 339.932 974.597 341.647 1141.42 351.446Z" stroke="#33A3FF" stroke-width="5.34464" fill="#0F1113" fill-rule="evenodd"/></g></g></g><rect x="710" y="389" width="88" height="22" fill="url(#fill13)"/></g></svg>