<svg width="550" height="550" xmlns="http://www.w3.org/2000/svg" xmlns:xlink="http://www.w3.org/1999/xlink" overflow="hidden"><defs><clipPath id="clip0"><rect x="1257" y="1265" width="550" height="550"/></clipPath><radialGradient cx="762000" cy="762000" r="1.07763e+06" gradientUnits="userSpaceOnUse" spreadMethod="pad" id="fill1" gradientTransform="matrix(0.000360892 0 0 0.000360892 1257 1265)"><stop offset="0" stop-color="#5D6CFF"/><stop offset="0.17" stop-color="#5D6CFF"/><stop offset="0.33" stop-color="#4B57CC"/><stop offset="1" stop-color="#0F1113"/></radialGradient><radialGradient cx="374072" cy="419793" r="562278" gradientUnits="userSpaceOnUse" spreadMethod="pad" id="fill2" gradientTransform="matrix(0.000360892 0 0 0.000360892 1278 1293)"><stop offset="0" stop-color="#5D6CFF"/><stop offset="0.54" stop-color="#4B57CC" stop-opacity="0"/><stop offset="1" stop-color="#4B57CC" stop-opacity="0"/></radialGradient><radialGradient cx="94211" cy="102524" r="139237" fx="94211" fy="102524" gradientUnits="userSpaceOnUse" spreadMethod="pad" id="fill3" gradientTransform="matrix(0.000360892 0 0 0.000360892 1296 1393)"><stop offset="0" stop-color="#5D6CFF"/><stop offset="0.54" stop-color="#4B57CC" stop-opacity="0"/><stop offset="1" stop-color="#4B57CC" stop-opacity="0"/></radialGradient><radialGradient cx="112222" cy="120534" r="164688" gradientUnits="userSpaceOnUse" spreadMethod="pad" id="fill4" gradientTransform="matrix(0.000360892 0 0 0.000360892 1325 1438)"><stop offset="0" stop-color="#5D6CFF"/><stop offset="0.54" stop-color="#4B57CC" stop-opacity="0"/><stop offset="1" stop-color="#4B57CC" stop-opacity="0"/></radialGradient><radialGradient cx="293717" cy="278477" r="404745" fx="293716" fy="278476" gradientUnits="userSpaceOnUse" spreadMethod="pad" id="fill5" gradientTransform="matrix(0.000360892 0 0 0.000360892 1546 1569)"><stop offset="0" stop-color="#5D6CFF"/><stop offset="0.54" stop-color="#4B57CC" stop-opacity="0"/><stop offset="1" stop-color="#4B57CC" stop-opacity="0"/></radialGradient><radialGradient cx="70658.5" cy="77585.5" r="104939" fx="70658.5" fy="77585.5" gradientUnits="userSpaceOnUse" spreadMethod="pad" id="fill6" gradientTransform="matrix(0.000360892 0 0 0.000360892 1692 1697)"><stop offset="0" stop-color="#5D6CFF"/><stop offset="0.54" stop-color="#4B57CC" stop-opacity="0"/><stop offset="1" stop-color="#4B57CC" stop-opacity="0"/></radialGradient><radialGradient cx="77585.5" cy="84513" r="114726" fx="77585.5" fy="84513" gradientUnits="userSpaceOnUse" spreadMethod="pad" id="fill7" gradientTransform="matrix(0.000360892 0 0 0.000360892 1676 1614)"><stop offset="0" stop-color="#5D6CFF"/><stop offset="0.54" stop-color="#4B57CC" stop-opacity="0"/><stop offset="1" stop-color="#4B57CC" stop-opacity="0"/></radialGradient><linearGradient x1="1530.5" y1="1271" x2="1530.5" y2="1425" gradientUnits="userSpaceOnUse" spreadMethod="reflect" id="fill8"><stop offset="0" stop-color="#F5FAFF" stop-opacity="0.231373"/><stop offset="0.32" stop-color="#FFFFFF" stop-opacity="0"/><stop offset="1" stop-color="#FFFFFF" stop-opacity="0"/></linearGradient><clipPath id="clip9"><rect x="1281" y="1310" width="471" height="470"/></clipPath><clipPath id="clip10"><rect x="1281" y="1310" width="471" height="470"/></clipPath><clipPath id="clip11"><rect x="1281" y="1310" width="471" height="470"/></clipPath><clipPath id="clip12"><rect x="1303" y="1303" width="463" height="463"/></clipPath><clipPath id="clip13"><rect x="1303" y="1303" width="463" height="463"/></clipPath><clipPath id="clip14"><rect x="1303" y="1303" width="463" height="463"/></clipPath></defs><g clip-path="url(#clip0)" transform="translate(-1257 -1265)"><rect x="1257" y="1265" width="550" height="550" fill="url(#fill1)"/><path d="M1278 1444.5C1278 1360.83 1338.44 1293 1413 1293 1487.56 1293 1548 1360.83 1548 1444.5 1548 1528.17 1487.56 1596 1413 1596 1338.44 1596 1278 1528.17 1278 1444.5Z" fill="url(#fill2)" fill-rule="evenodd"/><path d="M1296 1430C1296 1409.57 1311.22 1393 1330 1393 1348.78 1393 1364 1409.57 1364 1430 1364 1450.43 1348.78 1467 1330 1467 1311.22 1467 1296 1450.43 1296 1430Z" fill="url(#fill3)" fill-rule="evenodd"/><path d="M1325 1481.5C1325 1457.48 1343.13 1438 1365.5 1438 1387.87 1438 1406 1457.48 1406 1481.5 1406 1505.52 1387.87 1525 1365.5 1525 1343.13 1525 1325 1505.52 1325 1481.5Z" fill="url(#fill4)" fill-rule="evenodd"/><path d="M1546 1669.5C1546 1614 1593.46 1569 1652 1569 1710.54 1569 1758 1614 1758 1669.5 1758 1725 1710.54 1770 1652 1770 1593.46 1770 1546 1725 1546 1669.5Z" fill="url(#fill5)" fill-rule="evenodd"/><path d="M1692 1725C1692 1709.54 1703.42 1697 1717.5 1697 1731.58 1697 1743 1709.54 1743 1725 1743 1740.46 1731.58 1753 1717.5 1753 1703.42 1753 1692 1740.46 1692 1725Z" fill="url(#fill6)" fill-rule="evenodd"/><path d="M1676 1644.5C1676 1627.66 1688.54 1614 1704 1614 1719.46 1614 1732 1627.66 1732 1644.5 1732 1661.34 1719.46 1675 1704 1675 1688.54 1675 1676 1661.34 1676 1644.5Z" fill="url(#fill7)" fill-rule="evenodd"/><path d="M1291.73 1271 1769.27 1271C1785.14 1271 1798 1290.86 1798 1315.37L1798 1425C1798 1386.82 1777.96 1355.88 1753.23 1355.88L1307.77 1355.88C1283.04 1355.88 1263 1386.82 1263 1425L1263 1315.37C1263 1290.86 1275.86 1271 1291.73 1271Z" fill="url(#fill8)" fill-rule="evenodd"/><g clip-path="url(#clip9)"><g clip-path="url(#clip10)"><g clip-path="url(#clip11)"><path d="M1370.16 1521.12C1369.96 1528.69 1364.13 1534.51 1356.57 1534.72 1353.54 1534.8 1353.54 1539.5 1356.57 1539.42 1366.72 1539.14 1374.59 1531.28 1374.86 1521.12 1374.94 1518.09 1370.24 1518.09 1370.16 1521.12L1370.16 1521.12Z" fill="#33A3FF"/><path d="M1388.45 1534.95C1380.89 1534.75 1375.07 1528.93 1374.86 1521.36 1374.77 1518.34 1370.07 1518.33 1370.16 1521.36 1370.43 1531.52 1378.3 1539.38 1388.45 1539.65 1391.48 1539.74 1391.48 1535.04 1388.45 1534.95L1388.45 1534.95Z" fill="#33A3FF"/><path d="M1374.86 1553.37C1375.07 1545.81 1380.88 1539.98 1388.45 1539.77 1391.48 1539.68 1391.48 1534.98 1388.45 1535.07 1378.29 1535.34 1370.44 1543.21 1370.16 1553.37 1370.08 1556.4 1374.78 1556.39 1374.86 1553.37L1374.86 1553.37Z" fill="#33A3FF"/><path d="M1356.45 1539.53C1364.01 1539.74 1369.83 1545.55 1370.04 1553.13 1370.13 1556.15 1374.83 1556.16 1374.74 1553.13 1374.47 1542.97 1366.61 1535.11 1356.45 1534.83 1353.42 1534.75 1353.42 1539.45 1356.45 1539.53L1356.45 1539.53Z" fill="#33A3FF"/><path d="M1655.7 1358.81C1655.5 1366.38 1649.68 1372.2 1642.11 1372.41 1639.08 1372.5 1639.07 1377.2 1642.11 1377.11 1652.26 1376.84 1660.13 1368.97 1660.4 1358.81 1660.48 1355.78 1655.78 1355.79 1655.7 1358.81L1655.7 1358.81Z" fill="#33A3FF"/><path d="M1673.99 1372.65C1666.43 1372.45 1660.6 1366.63 1660.4 1359.06 1660.31 1356.04 1655.61 1356.03 1655.7 1359.06 1655.98 1369.22 1663.84 1377.08 1673.99 1377.35 1677.03 1377.43 1677.02 1372.73 1673.99 1372.65L1673.99 1372.65Z" fill="#33A3FF"/><path d="M1660.4 1391.07C1660.6 1383.5 1666.42 1377.68 1673.99 1377.47 1677.02 1377.38 1677.03 1372.68 1673.99 1372.77 1663.84 1373.04 1655.98 1380.91 1655.7 1391.07 1655.62 1394.1 1660.32 1394.09 1660.4 1391.07L1660.4 1391.07Z" fill="#33A3FF"/><path d="M1641.99 1377.23C1649.55 1377.43 1655.38 1383.25 1655.58 1390.82 1655.67 1393.84 1660.37 1393.85 1660.28 1390.82 1660 1380.66 1652.15 1372.8 1641.99 1372.53 1638.95 1372.45 1638.96 1377.15 1641.99 1377.23L1641.99 1377.23Z" fill="#33A3FF"/><path d="M1417.63 1363.23C1417.04 1385.18 1400.12 1402.1 1378.17 1402.69 1375.15 1402.77 1375.14 1407.47 1378.17 1407.39 1402.71 1406.73 1421.68 1387.76 1422.33 1363.23 1422.41 1360.2 1417.71 1360.21 1417.63 1363.23L1417.63 1363.23Z" fill="#33A3FF"/><path d="M1461.79 1403.32C1439.84 1402.73 1422.92 1385.82 1422.33 1363.86 1422.24 1360.84 1417.54 1360.83 1417.63 1363.86 1418.29 1388.4 1437.25 1407.36 1461.79 1408.02 1464.82 1408.11 1464.82 1403.41 1461.79 1403.32L1461.79 1403.32Z" fill="#33A3FF"/><path d="M1422.33 1447.8C1422.93 1425.86 1439.83 1408.93 1461.78 1408.34 1464.81 1408.26 1464.81 1403.56 1461.78 1403.64 1437.25 1404.31 1418.3 1423.28 1417.63 1447.8 1417.55 1450.84 1422.25 1450.83 1422.33 1447.8L1422.33 1447.8Z" fill="#33A3FF"/><path d="M1377.85 1407.7C1399.79 1408.3 1416.72 1425.21 1417.31 1447.16 1417.39 1450.18 1422.09 1450.19 1422.01 1447.16 1421.35 1422.63 1402.37 1403.67 1377.85 1403 1374.82 1402.92 1374.82 1407.62 1377.85 1407.7L1377.85 1407.7Z" fill="#33A3FF"/><path d="M1606.06 1656.22C1605.69 1669.66 1595.34 1680 1581.9 1680.36 1578.88 1680.45 1578.87 1685.15 1581.9 1685.06 1597.93 1684.63 1610.32 1672.24 1610.76 1656.22 1610.84 1653.19 1606.14 1653.2 1606.06 1656.22L1606.06 1656.22Z" fill="#33A3FF"/><path d="M1634.9 1680.77C1621.47 1680.41 1611.12 1670.06 1610.76 1656.62 1610.67 1653.6 1605.97 1653.59 1606.06 1656.62 1606.49 1672.65 1618.88 1685.04 1634.9 1685.47 1637.93 1685.55 1637.92 1680.85 1634.9 1680.77L1634.9 1680.77Z" fill="#33A3FF"/><path d="M1610.76 1709.81C1611.12 1696.39 1621.45 1686.03 1634.89 1685.67 1637.92 1685.58 1637.93 1680.88 1634.89 1680.97 1618.87 1681.4 1606.49 1693.79 1606.06 1709.81 1605.98 1712.85 1610.68 1712.84 1610.76 1709.81L1610.76 1709.81Z" fill="#33A3FF"/><path d="M1581.7 1685.27C1595.13 1685.63 1605.49 1695.97 1605.85 1709.41 1605.94 1712.43 1610.64 1712.44 1610.55 1709.41 1610.12 1693.39 1597.72 1681 1581.7 1680.57 1578.67 1680.48 1578.68 1685.18 1581.7 1685.27L1581.7 1685.27Z" fill="#33A3FF"/><path d="M1566.92 1476.85C1566.92 1484.64 1560.61 1490.95 1552.82 1490.95 1545.03 1490.95 1538.72 1484.64 1538.72 1476.85 1538.72 1469.06 1545.03 1462.75 1552.82 1462.75 1560.61 1462.75 1566.92 1469.06 1566.92 1476.85Z" fill="#33A3FF"/><path d="M1618.62 1471.76C1618.62 1476.3 1614.93 1479.98 1610.39 1479.98 1605.85 1479.98 1602.17 1476.3 1602.17 1471.76 1602.17 1467.22 1605.85 1463.53 1610.39 1463.53 1614.93 1463.53 1618.62 1467.22 1618.62 1471.76Z" fill="#33A3FF"/><path d="M1675.8 1512.49C1675.8 1517.9 1671.42 1522.28 1666.01 1522.28 1660.6 1522.28 1656.22 1517.9 1656.22 1512.49 1656.22 1507.08 1660.6 1502.7 1666.01 1502.7 1671.42 1502.7 1675.8 1507.08 1675.8 1512.49Z" fill="#33A3FF"/><path d="M1492.5 1669.94C1492.5 1674.48 1488.82 1678.17 1484.28 1678.17 1479.73 1678.17 1476.05 1674.48 1476.05 1669.94 1476.05 1665.4 1479.73 1661.72 1484.28 1661.72 1488.82 1661.72 1492.5 1665.4 1492.5 1669.94Z" fill="#33A3FF"/><path d="M1438.45 1734.96C1438.45 1743.83 1431.26 1751.02 1422.39 1751.02 1413.52 1751.02 1406.33 1743.83 1406.33 1734.96 1406.33 1726.09 1413.52 1718.9 1422.39 1718.9 1431.26 1718.9 1438.45 1726.09 1438.45 1734.96Z" fill="#33A3FF"/><path d="M1445.5 1611.19C1445.5 1616.17 1441.47 1620.2 1436.49 1620.2 1431.51 1620.2 1427.48 1616.17 1427.48 1611.19 1427.48 1606.21 1431.51 1602.18 1436.49 1602.18 1441.47 1602.18 1445.5 1606.21 1445.5 1611.19Z" fill="#33A3FF"/><path d="M1529.32 1440.42C1529.32 1444.97 1525.63 1448.65 1521.09 1448.65 1516.55 1448.65 1512.87 1444.97 1512.87 1440.42 1512.87 1435.88 1516.55 1432.2 1521.09 1432.2 1525.63 1432.2 1529.32 1435.88 1529.32 1440.42Z" fill="#33A3FF"/><path d="M1537.15 1352.3C1537.15 1357.92 1532.59 1362.48 1526.97 1362.48 1521.34 1362.48 1516.78 1357.92 1516.78 1352.3 1516.78 1346.68 1521.34 1342.12 1526.97 1342.12 1532.59 1342.12 1537.15 1346.68 1537.15 1352.3Z" fill="#33A3FF"/><path d="M1584.15 1344.86C1584.15 1348.54 1581.17 1351.52 1577.49 1351.52 1573.82 1351.52 1570.83 1348.54 1570.83 1344.86 1570.83 1341.18 1573.82 1338.2 1577.49 1338.2 1581.17 1338.2 1584.15 1341.18 1584.15 1344.86Z" fill="#33A3FF"/><path d="M1537.93 1349.95 1570.83 1344.86"/><path d="M1525.4 1363.27 1521.09 1432.2"/><path d="M1526.97 1447.08 1544.2 1465.88"/><path d="M1567.7 1474.5 1602.17 1471.76"/><path d="M1617.83 1476.07 1659.35 1506.61"/><path d="M1659.35 1520.72 1491.72 1664.85"/><path d="M1478.4 1675.81 1434.54 1724.38"/><path d="M1422.39 1718.9 1433.75 1619.42"/><path d="M1440.8 1602.18 1543.42 1486.25"/></g></g></g><g clip-path="url(#clip12)"><g clip-path="url(#clip13)"><g clip-path="url(#clip14)"><path d="M307.254 56.6541C307.254 80.2869 288.096 99.4451 264.463 99.4451 240.83 99.4451 221.672 80.2869 221.672 56.6541 221.672 33.0213 240.83 13.8632 264.463 13.8632 288.096 13.8632 307.254 33.0213 307.254 56.6541Z" stroke="#33A3FF" stroke-width="4.59806" fill="#0F1113" transform="matrix(0.325371 -0.945586 0.947632 0.324669 1428.24 1591.33)"/><path d="M339.385 252.76 339.385 252.76 292.169 226.842C286.3 223.629 282.217 217.913 281.081 211.319L267.96 134.488 267.96 134.488C266.513 117.275 251.386 104.494 234.173 105.941 222.06 106.959 211.634 114.903 207.438 126.311L207.438 126.311 207.438 126.958 207.438 127.42C207.074 128.465 206.766 129.529 206.514 130.607L167.937 257.888C163.498 270.853 167.92 285.2 178.886 293.416L178.886 293.416 233.864 339.616 202.864 430.815C200.717 437.709 204.565 445.039 211.459 447.186 218.07 449.245 225.139 445.794 227.581 439.316L274.844 336.475 274.613 336.475C278.874 328.577 277.467 318.822 271.148 312.451L271.148 312.451 224.948 252.391 224.948 252.391 240.841 211.827 248.556 235.435C248.724 236.046 248.925 236.647 249.157 237.237L249.526 238.346 249.526 238.346C251.007 241.813 253.546 244.724 256.78 246.662L256.78 246.662 324.925 280.711 324.925 280.711C325.434 280.987 325.959 281.234 326.495 281.45 334.418 285.01 343.726 281.473 347.285 273.55 350.845 265.628 347.308 256.319 339.385 252.76Z" stroke="#33A3FF" stroke-width="4.59702" fill="#0F1113" transform="matrix(1.00216 0 0 1 1303 1303)"/><path d="M173.943 110.187 173.943 110.187C161.33 106.491 142.989 131.3 139.293 143.913L114.622 228.274 160.314 241.626 184.8 157.08C188.635 144.606 186.556 113.883 173.943 110.187Z" stroke="#33A3FF" stroke-width="4.59702" fill="#0F1113" transform="matrix(1.00216 0 0 1 1303 1303)"/><path d="M137.122 240.24C127.786 237.438 117.947 242.733 115.144 252.069 115.139 252.083 115.135 252.099 115.13 252.113 112.358 261.353 117.949 304.412 117.949 304.412 117.949 304.412 146.177 271.564 148.995 262.231 151.798 252.896 146.502 243.056 137.166 240.253 137.152 240.249 137.137 240.245 137.122 240.24Z" stroke="#33A3FF" stroke-width="4.59702" fill="#0F1113" transform="matrix(1.00216 0 0 1 1303 1303)"/></g></g></g></g></svg>