<svg width="559" height="558" xmlns="http://www.w3.org/2000/svg" xmlns:xlink="http://www.w3.org/1999/xlink" overflow="hidden"><defs><clipPath id="clip0"><rect x="1842" y="1257" width="559" height="558"/></clipPath><radialGradient cx="762000" cy="762000" r="1.07763e+06" gradientUnits="userSpaceOnUse" spreadMethod="pad" id="fill1" gradientTransform="matrix(0.000360892 0 0 0.000360892 1851 1265)"><stop offset="0" stop-color="#5D6CFF"/><stop offset="0.17" stop-color="#5D6CFF"/><stop offset="0.33" stop-color="#4B57CC"/><stop offset="1" stop-color="#0F1113"/></radialGradient><radialGradient cx="374072" cy="419793" r="562278" gradientUnits="userSpaceOnUse" spreadMethod="pad" id="fill2" gradientTransform="matrix(0.000360892 0 0 0.000360892 1872 1293)"><stop offset="0" stop-color="#5D6CFF"/><stop offset="0.54" stop-color="#4B57CC" stop-opacity="0"/><stop offset="1" stop-color="#4B57CC" stop-opacity="0"/></radialGradient><radialGradient cx="94211" cy="102524" r="139237" fx="94211" fy="102524" gradientUnits="userSpaceOnUse" spreadMethod="pad" id="fill3" gradientTransform="matrix(0.000360892 0 0 0.000360892 1890 1393)"><stop offset="0" stop-color="#5D6CFF"/><stop offset="0.54" stop-color="#4B57CC" stop-opacity="0"/><stop offset="1" stop-color="#4B57CC" stop-opacity="0"/></radialGradient><radialGradient cx="112222" cy="120534" r="164688" gradientUnits="userSpaceOnUse" spreadMethod="pad" id="fill4" gradientTransform="matrix(0.000360892 0 0 0.000360892 1919 1438)"><stop offset="0" stop-color="#5D6CFF"/><stop offset="0.54" stop-color="#4B57CC" stop-opacity="0"/><stop offset="1" stop-color="#4B57CC" stop-opacity="0"/></radialGradient><radialGradient cx="293717" cy="278477" r="404745" fx="293716" fy="278476" gradientUnits="userSpaceOnUse" spreadMethod="pad" id="fill5" gradientTransform="matrix(0.000360892 0 0 0.000360892 2140 1569)"><stop offset="0" stop-color="#5D6CFF"/><stop offset="0.54" stop-color="#4B57CC" stop-opacity="0"/><stop offset="1" stop-color="#4B57CC" stop-opacity="0"/></radialGradient><radialGradient cx="72043.5" cy="77585.5" r="105876" fx="72043.5" fy="77585.5" gradientUnits="userSpaceOnUse" spreadMethod="pad" id="fill6" gradientTransform="matrix(0.000360892 0 0 0.000360892 2286 1697)"><stop offset="0" stop-color="#5D6CFF"/><stop offset="0.54" stop-color="#4B57CC" stop-opacity="0"/><stop offset="1" stop-color="#4B57CC" stop-opacity="0"/></radialGradient><radialGradient cx="77585.5" cy="84513" r="114726" fx="77585.5" fy="84513" gradientUnits="userSpaceOnUse" spreadMethod="pad" id="fill7" gradientTransform="matrix(0.000360892 0 0 0.000360892 2270 1614)"><stop offset="0" stop-color="#5D6CFF"/><stop offset="0.54" stop-color="#4B57CC" stop-opacity="0"/><stop offset="1" stop-color="#4B57CC" stop-opacity="0"/></radialGradient><clipPath id="clip8"><rect x="1842" y="1257" width="536" height="536"/></clipPath><clipPath id="clip9"><rect x="1842" y="1257" width="536" height="536"/></clipPath><clipPath id="clip10"><rect x="1842" y="1257" width="536" height="536"/></clipPath><clipPath id="clip11"><rect x="1983" y="1292" width="332" height="503"/></clipPath><clipPath id="clip12"><rect x="1983" y="1292" width="332" height="503"/></clipPath><clipPath id="clip13"><rect x="1983" y="1292" width="332" height="503"/></clipPath><linearGradient x1="2124.5" y1="1271" x2="2124.5" y2="1425" gradientUnits="userSpaceOnUse" spreadMethod="reflect" id="fill14"><stop offset="0" stop-color="#F5FAFF" stop-opacity="0.231373"/><stop offset="0.32" stop-color="#FFFFFF" stop-opacity="0"/><stop offset="1" stop-color="#FFFFFF" stop-opacity="0"/></linearGradient></defs><g clip-path="url(#clip0)" transform="translate(-1842 -1257)"><rect x="1851" y="1265" width="550" height="550" fill="url(#fill1)"/><path d="M1872 1444.5C1872 1360.83 1932.44 1293 2007 1293 2081.56 1293 2142 1360.83 2142 1444.5 2142 1528.17 2081.56 1596 2007 1596 1932.44 1596 1872 1528.17 1872 1444.5Z" fill="url(#fill2)" fill-rule="evenodd"/><path d="M1890 1430C1890 1409.57 1905.22 1393 1924 1393 1942.78 1393 1958 1409.57 1958 1430 1958 1450.43 1942.78 1467 1924 1467 1905.22 1467 1890 1450.43 1890 1430Z" fill="url(#fill3)" fill-rule="evenodd"/><path d="M1919 1481.5C1919 1457.48 1937.13 1438 1959.5 1438 1981.87 1438 2000 1457.48 2000 1481.5 2000 1505.52 1981.87 1525 1959.5 1525 1937.13 1525 1919 1505.52 1919 1481.5Z" fill="url(#fill4)" fill-rule="evenodd"/><path d="M2140 1669.5C2140 1614 2187.46 1569 2246 1569 2304.54 1569 2352 1614 2352 1669.5 2352 1725 2304.54 1770 2246 1770 2187.46 1770 2140 1725 2140 1669.5Z" fill="url(#fill5)" fill-rule="evenodd"/><path d="M2286 1725C2286 1709.54 2297.64 1697 2312 1697 2326.36 1697 2338 1709.54 2338 1725 2338 1740.46 2326.36 1753 2312 1753 2297.64 1753 2286 1740.46 2286 1725Z" fill="url(#fill6)" fill-rule="evenodd"/><path d="M2270 1644.5C2270 1627.66 2282.54 1614 2298 1614 2313.46 1614 2326 1627.66 2326 1644.5 2326 1661.34 2313.46 1675 2298 1675 2282.54 1675 2270 1661.34 2270 1644.5Z" fill="url(#fill7)" fill-rule="evenodd"/><g clip-path="url(#clip8)"><g clip-path="url(#clip9)"><g clip-path="url(#clip10)"><path d="M287.98 135.84C282.547 112.016 260.812 96.5508 239.078 99.0586 221.105 101.148 205.641 115.359 201.461 134.586 187.668 132.914 175.129 142.109 172.621 154.648 169.695 168.441 179.309 182.652 194.355 185.16 229.047 185.16 263.738 185.16 298.43 185.16 308.879 183.488 317.238 175.965 319.328 166.352 321.836 155.902 316.82 146.289 309.715 140.855 300.519 133.332 289.234 135.422 287.98 135.84Z" fill="#33A3FF" transform="matrix(1 0 0 1.00187 1842 1257)"/><path d="M170.949 326.016C167.187 309.297 152.141 298.43 136.676 300.519 124.137 302.191 113.27 311.805 110.344 325.18 100.73 323.926 91.9531 330.195 90.2812 338.973 88.1914 348.586 94.8789 358.617 105.328 360.289 129.57 360.289 153.812 360.289 178.473 360.289 185.578 359.453 191.43 354.019 193.102 346.914 194.773 339.809 191.43 332.703 186.414 328.941 179.727 323.926 171.785 325.598 170.949 326.016Z" fill="#33A3FF" transform="matrix(1 0 0 1.00187 1842 1257)"/><path d="M472.723 285.891C476.484 270.844 468.543 256.633 457.676 248.691 442.629 237.824 424.656 240.75 422.148 241.586 413.789 206.894 378.68 184.742 343.988 188.504 315.148 191.43 290.488 212.328 283.383 240.332 261.648 237.824 241.168 251.199 236.988 269.172 232.391 289.234 247.855 310.133 271.68 313.477 327.687 313.477 383.277 313.477 439.285 313.477 455.168 311.387 468.961 300.519 472.723 285.891Z" fill="#33A3FF" transform="matrix(1 0 0 1.00187 1842 1257)"/><path d="M335.629 135.84C334.375 142.527 338.973 149.633 346.078 150.469 362.797 150.469 379.934 150.469 396.652 150.469 401.668 149.633 405.848 146.289 406.684 141.273 407.937 136.258 405.43 131.66 402.086 128.734 397.488 124.973 392.055 126.227 391.219 126.227 388.711 114.523 378.262 107.418 367.394 108.672 358.617 109.508 351.094 116.613 349.004 125.809 343.152 124.973 336.883 129.57 335.629 135.84Z" fill="#33A3FF" transform="matrix(1 0 0 1.00187 1842 1257)"/><path d="M126.645 183.07C109.926 183.07 95.2969 200.207 97.3867 215.672 99.0586 226.957 108.254 233.644 110.344 235.316L87.7734 225.703C76.4883 226.957 66.875 234.062 63.1133 244.094 58.5156 256.633 64.3672 272.098 77.7422 279.621L196.863 279.621C208.148 276.277 216.09 267.082 216.508 256.215 217.344 243.258 206.894 230.301 191.848 228.211 192.684 216.508 186.414 205.223 176.383 200.625 165.098 195.191 153.812 200.625 152.559 201.461 147.961 190.594 137.93 183.07 126.645 183.07Z" fill="#33A3FF" transform="matrix(1 0 0 1.00187 1842 1257)"/><path d="M375.754 371.992C380.769 371.156 384.949 367.812 385.785 362.797 387.039 357.781 384.531 353.184 381.187 350.258 376.59 346.496 371.156 347.75 370.32 347.75 367.812 336.047 357.363 328.941 346.496 330.195 337.719 331.031 330.195 338.137 328.105 347.332 321.418 346.496 315.566 351.094 314.312 356.945 313.059 363.633 317.656 370.738 324.762 371.574 342.316 371.992 359.035 371.992 375.754 371.992Z" fill="#33A3FF" transform="matrix(1 0 0 1.00187 1842 1257)"/><path d="M319.328 417.133C321.836 406.684 316.82 397.07 309.715 391.637 300.102 384.113 289.234 386.203 287.562 386.621 282.129 362.797 260.394 347.332 238.66 349.84 220.687 351.93 205.223 366.141 201.043 385.367 187.25 383.695 174.711 392.891 172.203 405.43 169.277 419.223 178.891 433.433 193.937 435.941 228.629 435.941 263.32 435.941 298.012 435.941 308.879 434.687 317.238 427.164 319.328 417.133Z" fill="#33A3FF" transform="matrix(1 0 0 1.00187 1842 1257)"/></g></g></g><g clip-path="url(#clip11)"><g clip-path="url(#clip12)"><g clip-path="url(#clip13)"><path d="M212.638 34.7216C212.703 30.4033 212.172 26.0099 211.05 21.5363 207.458 7.37916 200.044-3.45162 188.842-10.971 177.626-18.4554 164.29-20.3841 151.506-17.1479 141.316-14.5679 132.048-7.8701 125.636 1.29749 119.199 10.4751 117.18 22.8438 118.067 34.2958L156.355 24.6022C161.114 23.3999 165.728 22.8939 168.774 27.2523L176.629 37.3767C179.484 40.9736 183.081 42.201 187.475 41.0938L212.638 34.7216Z" stroke="#33A3FF" stroke-width="4.59214" fill="#0F1113" transform="matrix(1 0 0 1.00097 1868.3 1310.95)"/><path d="M160.343 33.1336 130.871 40.5979 131.402 42.6669C133.782 52.0599 139.312 59.3238 148.009 64.5088 156.711 69.6687 165.748 71.0814 175.091 68.7018 187.234 65.6409 195.5 58.2117 199.889 46.374L188.877 49.1593C180.837 51.1982 174.38 49.1894 169.48 43.1027L162.166 33.895C161.65 33.2087 161.029 32.9632 160.343 33.1336Z" stroke="#33A3FF" stroke-width="4.59214" fill="#0F1113" transform="matrix(1 0 0 1.00097 1868.3 1310.95)"/><path d="M251.347 301.794 279.561 221.224C282.647 208.209 280.218 194.754 277.838 188.787L243.798 95.7788C237.09 77.4736 215.408 63.8224 195.575 71.2517 155.649 86.2204 175.712 131.187 175.712 131.187L185.927 151.2 133.286 151.2C123.021 151.2 114.7 159.521 114.7 169.791 114.7 180.055 123.026 188.381 133.286 188.381L163.965 188.381 163.965 188.311 210.449 188.311C218.038 188.311 224.21 182.144 224.21 174.555L224.21 139.743 233.864 139.743 233.864 174.555C233.864 187.47 223.369 197.98 210.449 197.98L209.808 197.98 217.567 213.179 202.078 293.122C201.446 296.704 201.937 306.303 202.789 309.769L233.062 411.189C236.003 421.724 243.387 427.079 255.155 427.325 262.168 427.47 268.084 425.281 272.969 420.792 277.838 416.314 280.333 410.558 280.458 403.569 280.503 401.35 280.072 398.484 279.201 395.013L251.347 301.794Z" stroke="#33A3FF" stroke-width="4.59214" fill="#0F1113" transform="matrix(1 0 0 1.00097 1868.3 1310.95)"/><path d="M327.363 164.641 287.872 56.5986C287.817 56.4433 287.762 56.3231 287.707 56.1778 287.697 56.1427 287.687 56.1026 287.662 56.0626 286.875 53.8283 286.049 52.3504 284.496 50.4969 280.714 45.9682 275.669 42.9023 268.701 43.2129 257.334 43.7239 248.101 52.7462 248.101 64.128 248.101 64.8244 248.236 65.4906 248.306 66.177 248.311 66.192 248.311 66.207 248.311 66.2271 248.537 68.4964 249.088 70.6606 249.995 72.6594L288.814 178.843C290.958 185.511 295.387 187.605 302.12 185.105L321.131 177.936C327.819 175.797 329.863 171.384 327.363 164.641Z" stroke="#33A3FF" stroke-width="4.59214" fill="#0F1113" transform="matrix(1 0 0 1.00097 1868.3 1310.95)"/><path d="M288.519 351.269 287.998 351.199C283.609 350.893 280.338 347.111 280.633 342.798 281.004 338.705 284.436 335.499 288.514 335.499 291.189 335.644 293.127 336.616 294.47 338.254 295.873 339.812 296.554 341.901 296.389 343.99 296.033 348.073 292.606 351.269 288.519 351.269L288.519 351.269ZM290.382 327.699C290.302 327.699 289.791 327.699 289.716 327.624 287.622 327.473 285.698 326.511 284.351 324.948 283.018 323.31 282.362 321.306 282.492 319.207 282.803 315.125 286.209 311.933 290.312 311.933 295.302 312.304 298.498 316.096 298.182 320.41 297.897 324.498 294.4 327.699 290.382 327.699L290.382 327.699ZM292.166 304.118C292.08 304.118 291.574 304.118 291.489 304.118 289.41 303.983 287.552 303.011 286.134 301.373 284.811 299.81 284.135 297.726 284.275 295.637 284.576 291.544 287.998 288.348 292.09 288.348 294.846 288.574 296.769 289.546 298.117 291.103 299.53 292.752 300.126 294.755 299.976 296.845 299.675 300.927 296.258 304.118 292.166 304.118L292.166 304.118ZM293.944 280.553 293.433 280.553C289.035 280.183 285.768 276.4 286.069 272.072 286.435 267.994 289.851 264.783 293.934 264.783 296.619 265.008 298.548 265.975 299.885 267.528 301.303 269.171 301.969 271.175 301.829 273.264 301.463 277.352 298.027 280.553 293.944 280.553L293.944 280.553ZM295.737 256.978C295.647 256.978 295.206 256.978 295.131 256.978 290.833 256.677 287.552 252.815 287.927 248.492 288.228 244.489 291.645 241.288 295.742 241.288 298.402 241.428 300.346 242.395 301.689 243.958 303.112 245.596 303.768 247.605 303.623 249.694 303.322 253.777 299.82 256.978 295.737 256.978L295.737 256.978ZM297.526 233.473C297.526 233.473 297.005 233.403 296.925 233.403 292.611 233.097 289.415 229.315 289.721 225.007 290.016 220.919 293.503 217.713 297.596 217.713 302.5 218.088 305.772 221.886 305.401 226.194 305.105 230.282 301.684 233.473 297.526 233.473L297.526 233.473ZM299.379 209.898 298.853 209.898C296.699 209.682 294.766 208.7 293.438 207.147 292.015 205.509 291.344 203.51 291.494 201.426 291.865 197.339 295.297 194.142 299.379 194.142 304.359 194.503 307.565 198.305 307.259 202.619 306.964 206.707 303.472 209.898 299.379 209.898L299.379 209.898Z" stroke="#33A3FF" stroke-width="4.59214" fill="#0F1113" transform="matrix(1 0 0 1.00097 1868.3 1310.95)"/><path d="M329.718 434.489C325.545 434.489 322.058 431.292 321.827 427.124 321.692 425.045 322.424 422.961 323.771 421.393 325.179 419.83 327.118 418.869 329.192 418.788 329.192 418.788 329.192 418.788 329.272 418.788 333.886 418.788 337.307 421.99 337.543 426.148 337.673 428.232 337.007 430.235 335.599 431.798 334.186 433.361 332.323 434.333 330.168 434.479L329.718 434.489 329.718 434.489ZM328.155 410.913C324.067 410.913 320.565 407.637 320.34 403.554 320.199 401.395 320.931 399.386 322.273 397.818 323.696 396.255 325.625 395.293 327.704 395.213 327.779 395.213 327.779 395.213 327.779 395.213 332.393 395.213 335.814 398.409 336.11 402.572 336.185 404.671 335.514 406.66 334.101 408.223 332.773 409.786 330.83 410.758 328.666 410.903 328.666 410.913 328.235 410.913 328.155 410.913L328.155 410.913ZM326.747 387.338C322.574 387.338 319.162 384.067 318.867 379.914 318.631 375.596 321.913 371.878 326.231 371.573 326.306 371.573 326.306 371.573 326.306 371.573 330.925 371.573 334.341 374.859 334.647 378.942 334.772 381.096 334.041 383.105 332.628 384.673 331.296 386.236 329.357 387.198 327.278 387.343 327.193 387.338 326.747 387.338 326.747 387.338L326.747 387.338ZM325.334 363.768C321.156 363.768 317.674 360.497 317.439 356.409 317.304 354.24 317.965 352.241 319.373 350.673 320.795 349.11 322.714 348.133 324.808 347.993L324.808 347.993C329.497 347.993 332.914 351.264 333.134 355.357 333.44 359.675 330.083 363.462 325.77 363.763L325.334 363.768 325.334 363.768ZM323.846 340.198C319.673 340.198 316.252 336.921 315.956 332.763 315.821 330.679 316.557 328.676 317.905 327.103 319.303 325.469 321.236 324.578 323.32 324.432 327.939 324.292 331.436 327.704 331.726 331.802 331.807 333.881 331.13 335.96 329.728 337.518 328.305 339.091 326.371 340.052 324.297 340.128L323.846 340.198 323.846 340.198ZM322.363 316.542C318.195 316.542 314.764 313.346 314.478 309.173 314.393 307.089 315.064 305.08 316.487 303.522 317.825 301.889 319.763 300.992 321.827 300.842 326.672 300.772 329.933 304.053 330.234 308.216 330.319 310.295 329.647 312.379 328.235 313.937 326.897 315.5 324.968 316.462 322.884 316.547 322.809 316.542 322.363 316.542 322.363 316.542L322.363 316.542ZM320.871 292.967C316.708 292.967 313.276 289.761 313.066 285.598 312.905 283.514 313.587 281.51 314.989 279.877 316.397 278.314 318.336 277.342 320.415 277.267L320.415 277.267C325.104 277.267 328.52 280.458 328.756 284.631 328.886 286.705 328.225 288.719 326.802 290.282 325.399 291.915 323.461 292.807 321.387 292.957 321.316 292.967 320.936 292.967 320.871 292.967L320.871 292.967ZM319.463 269.382C315.29 269.382 311.863 266.196 311.573 262.013 311.272 257.714 314.629 253.917 318.942 253.697 318.942 253.697 318.942 253.697 319.007 253.697 323.631 253.697 327.042 256.893 327.268 261.061 327.408 263.15 326.747 265.159 325.339 266.797 323.926 268.36 321.998 269.252 319.899 269.392L319.463 269.382 319.463 269.382ZM317.97 245.822C313.797 245.822 310.375 242.625 310.085 238.452 309.87 234.059 313.141 230.342 317.454 230.051 317.534 230.051 317.534 230.051 317.534 230.051 322.143 230.051 325.565 233.323 325.865 237.481 326.086 241.804 322.814 245.516 318.486 245.822 318.411 245.822 317.97 245.822 317.97 245.822L317.97 245.822Z" stroke="#33A3FF" stroke-width="4.59214" fill="#0F1113" transform="matrix(1 0 0 1.00097 1868.3 1310.95)"/><path d="M428.477 378.872C425.807 378.872 423.347 377.524 421.859 375.295 420.662 373.507 420.291 371.433 420.742 369.344 421.178 367.34 422.375 365.551 424.164 364.439 427.736 362.135 432.78 363.242 435.105 366.734 436.217 368.522 436.588 370.611 436.142 372.69 435.776 374.694 434.504 376.482 432.78 377.589 431.528 378.486 430.04 378.872 428.477 378.872L428.477 378.872ZM415.612 359.084C412.932 359.084 410.407 357.736 408.995 355.512 406.61 351.86 407.657 346.966 411.294 344.576 414.871 342.262 419.931 343.384 422.16 346.886 423.347 348.674 423.723 350.753 423.277 352.842 422.816 354.911 421.639 356.629 419.855 357.816 418.588 358.633 417.1 359.084 415.612 359.084L415.612 359.084ZM402.743 339.296C399.997 339.296 397.553 337.958 396.135 335.719 393.75 332.007 394.787 327.188 398.434 324.798 401.931 322.499 406.986 323.606 409.295 327.098 411.68 330.75 410.638 335.649 406.986 338.039 405.718 338.845 404.221 339.296 402.743 339.296L402.743 339.296ZM389.808 319.443C387.123 319.443 384.678 318.1 383.185 315.871 382.073 314.083 381.697 312.009 382.148 309.99 382.519 307.921 383.781 306.127 385.495 304.935 389.051 302.631 394.116 303.738 396.421 307.32 397.553 309.028 397.989 311.182 397.553 313.201 397.092 315.275 395.91 317.063 394.116 318.18 392.859 318.992 391.371 319.443 389.808 319.443L389.808 319.443ZM376.943 299.66C374.268 299.66 371.823 298.322 370.325 296.083 369.208 294.32 368.762 292.221 369.208 290.142 369.659 288.058 370.831 286.344 372.625 285.152 376.127 282.853 381.256 283.97 383.566 287.462 384.683 289.245 385.049 291.329 384.683 293.423 384.237 295.492 382.97 297.21 381.256 298.397 379.919 299.214 378.426 299.66 376.943 299.66L376.943 299.66ZM364.079 279.887C361.403 279.887 358.874 278.469 357.461 276.235 356.263 274.522 355.898 272.373 356.344 270.354 356.79 268.28 357.982 266.491 359.77 265.374 363.337 263.075 368.397 264.197 370.626 267.689 371.823 269.387 372.194 271.551 371.743 273.56 371.297 275.634 370.1 277.422 368.307 278.544 367.044 279.441 365.561 279.887 364.079 279.887L364.079 279.887ZM351.209 260.029C348.529 260.029 345.994 258.691 344.581 256.457 343.394 254.674 343.028 252.59 343.479 250.506 343.925 248.432 345.107 246.718 346.901 245.521 350.387 243.297 355.452 244.334 357.756 247.911 358.944 249.609 359.309 251.698 358.863 253.782 358.418 255.866 357.24 257.649 355.452 258.761 354.185 259.578 352.687 260.029 351.209 260.029L351.209 260.029ZM338.259 240.241C335.594 240.241 333.139 238.903 331.656 236.674 330.524 234.891 330.163 232.807 330.609 230.723 330.985 228.644 332.242 226.93 333.951 225.733 337.533 223.434 342.577 224.556 344.897 228.043 345.999 229.831 346.46 231.905 345.999 233.994 345.563 236.083 344.366 237.781 342.577 238.973 341.32 239.8 339.837 240.241 338.259 240.241L338.259 240.241ZM325.404 220.458C322.719 220.458 320.269 219.055 318.782 216.826 316.477 213.179 317.439 208.34 321.096 205.97 324.658 203.661 329.723 204.783 332.027 208.265 333.144 209.968 333.59 212.132 333.144 214.146 332.693 216.23 331.436 218.008 329.723 219.13 328.38 220.017 326.897 220.458 325.404 220.458L325.404 220.458Z" stroke="#33A3FF" stroke-width="4.59214" fill="#0F1113" transform="matrix(1 0 0 1.00097 1868.3 1310.95)"/><path d="M437.775 327.393C435.395 327.393 433.166 326.356 431.683 324.498 430.331 322.94 429.744 320.851 429.96 318.777 430.185 316.683 431.222 314.759 432.79 313.411 436.062 310.806 441.267 311.337 443.867 314.538 445.209 316.172 445.875 318.256 445.66 320.34 445.43 322.414 444.463 324.352 442.83 325.615 441.407 326.817 439.633 327.393 437.775 327.393L437.775 327.393ZM422.811 309.108C420.442 309.108 418.288 308.066 416.724 306.212 413.974 302.856 414.495 297.876 417.842 295.121 421.113 292.526 426.313 293.042 428.913 296.243 431.683 299.665 431.222 304.579 427.881 307.325 426.468 308.517 424.685 309.108 422.811 309.108L422.811 309.108ZM407.878 290.813C405.493 290.813 403.344 289.776 401.781 287.922 399.016 284.576 399.552 279.586 402.888 276.836 406.169 274.231 411.364 274.757 413.979 277.953 415.317 279.586 415.973 281.675 415.763 283.759 415.537 285.833 414.495 287.762 412.862 289.105 411.449 290.212 409.731 290.813 407.878 290.813L407.878 290.813ZM392.934 272.518C390.619 272.518 388.395 271.481 386.827 269.692 385.495 267.994 384.898 265.975 385.124 263.821 385.349 261.742 386.386 259.884 387.959 258.531 391.231 255.926 396.421 256.452 399.026 259.658 401.786 263.08 401.345 267.989 397.923 270.734 396.501 271.922 394.787 272.518 392.934 272.518L392.934 272.518ZM377.98 254.228C375.601 254.228 373.371 253.186 371.883 251.327 369.133 247.976 369.659 242.991 372.986 240.241 376.272 237.646 381.477 238.157 384.082 241.363 385.424 242.991 386.006 245.08 385.865 247.164 385.63 249.238 384.593 251.102 382.96 252.449 381.552 253.627 379.844 254.228 377.98 254.228L377.98 254.228ZM363.036 235.923C360.657 235.923 358.418 234.886 356.945 233.027 355.587 231.389 354.996 229.375 355.216 227.296 355.462 225.217 356.414 223.278 358.052 221.941 361.323 219.341 366.528 219.857 369.138 223.063 371.888 226.485 371.443 231.394 368.021 234.129 366.598 235.331 364.885 235.923 363.036 235.923L363.036 235.923ZM348.088 217.633C345.708 217.633 343.479 216.596 341.991 214.732 340.644 213.094 340.052 211.085 340.278 209.001 340.418 206.922 341.47 204.983 343.108 203.651 346.37 201.041 351.509 201.567 354.19 204.768 355.527 206.406 356.118 208.495 355.963 210.564 355.748 212.648 354.695 214.507 353.062 215.844 351.66 217.036 349.876 217.633 348.088 217.633L348.088 217.633ZM333.139 199.342C330.76 199.342 328.53 198.3 327.037 196.437 324.287 193.09 324.813 188.106 328.155 185.361 331.431 182.68 336.626 183.277 339.236 186.478 340.583 188.111 341.175 190.195 341.024 192.279 340.789 194.363 339.762 196.221 338.124 197.559 336.701 198.751 334.928 199.342 333.139 199.342L333.139 199.342Z" stroke="#33A3FF" stroke-width="4.59214" fill="#0F1113" transform="matrix(1 0 0 1.00097 1868.3 1310.95)"/><path d="M412.491 482.305C409.145 482.305 406.169 480.151 405.047 477.02 403.569 472.937 405.723 468.389 409.826 466.986 413.824 465.498 418.513 467.802 419.855 471.735 421.338 475.833 419.184 480.372 415.096 481.794 414.19 482.16 413.298 482.305 412.491 482.305L412.491 482.305ZM404.606 459.998C401.26 459.998 398.284 457.838 397.172 454.707 395.699 450.62 397.843 446.156 401.931 444.668 405.954 443.26 410.563 445.5 411.975 449.512 413.458 453.6 411.304 458.059 407.211 459.557 406.315 459.857 405.498 459.998 404.606 459.998L404.606 459.998ZM396.721 437.69C393.375 437.69 390.399 435.606 389.277 432.485 387.799 428.387 389.948 423.858 394.036 422.435 398.139 420.963 402.673 423.267 404.085 427.205 405.573 431.292 403.424 435.831 399.316 437.239 398.429 437.539 397.628 437.69 396.721 437.69L396.721 437.69ZM388.841 415.457C385.495 415.457 382.519 413.373 381.407 410.167 379.919 406.079 382.078 401.616 386.166 400.123 390.249 398.72 394.863 400.939 396.2 404.892 397.688 409.05 395.534 413.508 391.446 414.996 390.554 415.297 389.658 415.457 388.841 415.457L388.841 415.457ZM380.951 393.149C377.609 393.149 374.639 391.055 373.527 387.939 372.78 385.925 372.92 383.761 373.822 381.903 374.719 379.979 376.352 378.566 378.281 377.895 382.298 376.412 386.912 378.641 388.34 382.654 389.818 386.742 387.659 391.276 383.571 392.698 382.669 392.999 381.767 393.149 380.951 393.149L380.951 393.149ZM373.086 370.917C369.729 370.917 366.754 368.752 365.641 365.621 364.89 363.613 365.06 361.534 365.942 359.6 366.824 357.736 368.472 356.263 370.406 355.577 374.418 354.094 379.092 356.409 380.445 360.416 381.928 364.444 379.774 368.978 375.686 370.456 374.779 370.761 373.897 370.917 373.086 370.917L373.086 370.917ZM365.191 348.594C361.844 348.594 358.868 346.515 357.756 343.389 356.263 339.301 358.428 334.767 362.516 333.279 366.533 331.862 371.227 334.086 372.555 338.119 374.043 342.207 371.888 346.745 367.801 348.148 366.979 348.439 366.087 348.594 365.191 348.594L365.191 348.594ZM357.31 326.356C353.954 326.356 350.988 324.197 349.876 321.081 348.383 316.993 350.533 312.449 354.63 311.037 358.638 309.614 363.257 311.838 364.675 315.791 366.152 319.874 363.993 324.422 359.911 325.91 359.099 326.216 358.192 326.356 357.31 326.356L357.31 326.356ZM349.43 304.053C346.084 304.053 343.108 301.959 341.996 298.758 340.508 294.68 342.657 290.212 346.745 288.724 350.838 287.306 355.382 289.54 356.845 293.553 358.272 297.641 356.123 302.115 352.035 303.602 351.209 303.913 350.317 304.053 349.43 304.053L349.43 304.053ZM341.54 281.811C338.189 281.811 335.218 279.657 334.106 276.531 332.623 272.448 334.772 267.899 338.86 266.491 342.948 265.008 347.572 267.308 348.99 271.255 350.387 275.338 348.228 279.887 344.135 281.36 343.329 281.665 342.432 281.811 341.54 281.811L341.54 281.811Z" stroke="#33A3FF" stroke-width="4.59214" fill="#0F1113" transform="matrix(1 0 0 1.00097 1868.3 1310.95)"/></g></g></g><path d="M1885.73 1271 2363.27 1271C2379.14 1271 2392 1290.86 2392 1315.37L2392 1425C2392 1386.82 2371.96 1355.88 2347.23 1355.88L1901.77 1355.88C1877.04 1355.88 1857 1386.82 1857 1425L1857 1315.37C1857 1290.86 1869.86 1271 1885.73 1271Z" fill="url(#fill14)" fill-rule="evenodd"/></g></svg>