<svg width="550" height="550" xmlns="http://www.w3.org/2000/svg" xmlns:xlink="http://www.w3.org/1999/xlink" overflow="hidden"><defs><clipPath id="clip0"><rect x="2461" y="675" width="550" height="550"/></clipPath><radialGradient cx="762000" cy="762000" r="1.07763e+06" gradientUnits="userSpaceOnUse" spreadMethod="pad" id="fill1" gradientTransform="matrix(0.000360892 0 0 0.000360892 2461 675)"><stop offset="0" stop-color="#5D6CFF"/><stop offset="0.17" stop-color="#5D6CFF"/><stop offset="0.33" stop-color="#4B57CC"/><stop offset="1" stop-color="#0F1113"/></radialGradient><radialGradient cx="374073" cy="421178" r="563313" fx="374073" fy="421178" gradientUnits="userSpaceOnUse" spreadMethod="pad" id="fill2" gradientTransform="matrix(0.000360892 0 0 0.000360892 2482 703)"><stop offset="0" stop-color="#5D6CFF"/><stop offset="0.54" stop-color="#4B57CC" stop-opacity="0"/><stop offset="1" stop-color="#4B57CC" stop-opacity="0"/></radialGradient><linearGradient x1="2734.5" y1="681" x2="2734.5" y2="835" gradientUnits="userSpaceOnUse" spreadMethod="reflect" id="fill3"><stop offset="0" stop-color="#F5FAFF" stop-opacity="0.231373"/><stop offset="0.32" stop-color="#FFFFFF" stop-opacity="0"/><stop offset="1" stop-color="#FFFFFF" stop-opacity="0"/></linearGradient><radialGradient cx="94211" cy="102524" r="139236" gradientUnits="userSpaceOnUse" spreadMethod="pad" id="fill4" gradientTransform="matrix(0.000360892 0 0 0.000360892 2500 803)"><stop offset="0" stop-color="#5D6CFF"/><stop offset="0.54" stop-color="#4B57CC" stop-opacity="0"/><stop offset="1" stop-color="#4B57CC" stop-opacity="0"/></radialGradient><radialGradient cx="110836" cy="120534" r="163748" gradientUnits="userSpaceOnUse" spreadMethod="pad" id="fill5" gradientTransform="matrix(0.000360892 0 0 0.000360892 2529 849)"><stop offset="0" stop-color="#5D6CFF"/><stop offset="0.54" stop-color="#4B57CC" stop-opacity="0"/><stop offset="1" stop-color="#4B57CC" stop-opacity="0"/></radialGradient><radialGradient cx="292331" cy="279862" r="404698" fx="292331" fy="279862" gradientUnits="userSpaceOnUse" spreadMethod="pad" id="fill6" gradientTransform="matrix(0.000360892 0 0 0.000360892 2750 979)"><stop offset="0" stop-color="#5D6CFF"/><stop offset="0.54" stop-color="#4B57CC" stop-opacity="0"/><stop offset="1" stop-color="#4B57CC" stop-opacity="0"/></radialGradient><radialGradient cx="70658" cy="77585.5" r="104938" gradientUnits="userSpaceOnUse" spreadMethod="pad" id="fill7" gradientTransform="matrix(0.000360892 0 0 0.000360892 2896 1108)"><stop offset="0" stop-color="#5D6CFF"/><stop offset="0.54" stop-color="#4B57CC" stop-opacity="0"/><stop offset="1" stop-color="#4B57CC" stop-opacity="0"/></radialGradient><radialGradient cx="77585.5" cy="83127" r="113708" gradientUnits="userSpaceOnUse" spreadMethod="pad" id="fill8" gradientTransform="matrix(0.000360892 0 0 0.000360892 2879 1025)"><stop offset="0" stop-color="#5D6CFF"/><stop offset="0.54" stop-color="#4B57CC" stop-opacity="0"/><stop offset="1" stop-color="#4B57CC" stop-opacity="0"/></radialGradient><clipPath id="clip9"><rect x="2492" y="715" width="484" height="482"/></clipPath><clipPath id="clip10"><rect x="2492" y="715" width="484" height="482"/></clipPath><clipPath id="clip11"><rect x="2492" y="715" width="484" height="482"/></clipPath></defs><g clip-path="url(#clip0)" transform="translate(-2461 -675)"><rect x="2461" y="675" width="550" height="550" fill="url(#fill1)"/><path d="M2482 855C2482 771.053 2542.44 703 2617 703 2691.56 703 2752 771.053 2752 855 2752 938.947 2691.56 1007 2617 1007 2542.44 1007 2482 938.947 2482 855Z" fill="url(#fill2)" fill-rule="evenodd"/><path d="M2495.73 681 2973.27 681C2989.14 681 3002 700.864 3002 725.368L3002 835C3002 796.824 2981.96 765.876 2957.23 765.876L2511.77 765.876C2487.04 765.876 2467 796.824 2467 835L2467 725.368C2467 700.864 2479.86 681 2495.73 681Z" fill="url(#fill3)" fill-rule="evenodd"/><path d="M2500 840C2500 819.565 2515.22 803 2534 803 2552.78 803 2568 819.565 2568 840 2568 860.434 2552.78 877 2534 877 2515.22 877 2500 860.434 2500 840Z" fill="url(#fill4)" fill-rule="evenodd"/><path d="M2529 892.5C2529 868.476 2546.91 849 2569 849 2591.09 849 2609 868.476 2609 892.5 2609 916.524 2591.09 936 2569 936 2546.91 936 2529 916.524 2529 892.5Z" fill="url(#fill5)" fill-rule="evenodd"/><path d="M2750 1080C2750 1024.22 2797.23 979 2855.5 979 2913.77 979 2961 1024.22 2961 1080 2961 1135.78 2913.77 1181 2855.5 1181 2797.23 1181 2750 1135.78 2750 1080Z" fill="url(#fill6)" fill-rule="evenodd"/><path d="M2896 1136C2896 1120.54 2907.42 1108 2921.5 1108 2935.58 1108 2947 1120.54 2947 1136 2947 1151.46 2935.58 1164 2921.5 1164 2907.42 1164 2896 1151.46 2896 1136Z" fill="url(#fill7)" fill-rule="evenodd"/><path d="M2879 1055C2879 1038.43 2891.54 1025 2907 1025 2922.46 1025 2935 1038.43 2935 1055 2935 1071.57 2922.46 1085 2907 1085 2891.54 1085 2879 1071.57 2879 1055Z" fill="url(#fill8)" fill-rule="evenodd"/><g clip-path="url(#clip9)"><g clip-path="url(#clip10)"><g clip-path="url(#clip11)"><path d="M385.79 387.668 370.728 352.522C369.149 348.83 365.516 346.437 361.5 346.437L120.5 346.437C116.484 346.437 112.851 348.83 111.272 352.522L96.2097 387.668C94.8762 390.772 95.195 394.336 97.0532 397.151 98.9114 399.97 102.064 401.667 105.437 401.667L376.562 401.667C379.936 401.667 383.089 399.97 384.947 397.151 386.805 394.336 387.124 390.772 385.79 387.668Z" stroke="#33A3FF" stroke-width="4.59048" fill="#0F1113" transform="matrix(1 0 0 1 2493 715)"/><path d="M371.208 260.711 288.287 177.788 303.357 162.718C307.288 164.601 311.67 165.687 316.312 165.687 332.924 165.687 346.437 152.174 346.437 135.562 346.437 118.951 332.924 105.437 316.312 105.437 299.701 105.437 286.187 118.951 286.187 135.562 286.187 140.205 287.273 144.587 289.157 148.518L274.087 163.588 193.675 83.1746C191.792 81.2918 189.238 80.2329 186.575 80.2329 186.575 80.2329 186.575 80.2329 186.57 80.2329 183.908 80.2329 181.353 81.2918 179.47 83.1771 131.13 131.571 126.398 208.639 168.443 262.417 171.821 266.771 175.533 270.973 179.475 274.91 205.109 300.549 240.024 314.543 275.641 314.543 286.688 314.543 297.813 313.194 308.737 310.429 332.355 304.447 353.959 292.165 371.208 274.911 375.13 270.988 375.13 264.633 371.208 260.711Z" stroke="#33A3FF" stroke-width="4.59048" fill="#0F1113" transform="matrix(1 0 0 1 2493 715)"/><path d="M275.641 324.584C241.372 324.584 207.866 312.316 181.843 290.617L170.398 336.396 310.731 336.396 306.191 321.266C296.173 323.426 285.931 324.584 275.641 324.584Z" stroke="#33A3FF" stroke-width="4.59048" fill="#0F1113" transform="matrix(1 0 0 1 2493 715)"/></g></g></g></g></svg>