<svg width="550" height="550" xmlns="http://www.w3.org/2000/svg" xmlns:xlink="http://www.w3.org/1999/xlink" overflow="hidden"><defs><clipPath id="clip0"><rect x="1363" y="671" width="550" height="550"/></clipPath><radialGradient cx="762000" cy="762000" r="1.07763e+06" gradientUnits="userSpaceOnUse" spreadMethod="pad" id="fill1" gradientTransform="matrix(0.000360892 0 0 0.000360892 1363 671)"><stop offset="0" stop-color="#5D6CFF"/><stop offset="0.17" stop-color="#5D6CFF"/><stop offset="0.33" stop-color="#4B57CC"/><stop offset="1" stop-color="#0F1113"/></radialGradient><radialGradient cx="374073" cy="419793" r="562278" gradientUnits="userSpaceOnUse" spreadMethod="pad" id="fill2" gradientTransform="matrix(0.000360892 0 0 0.000360892 1383 699)"><stop offset="0" stop-color="#5D6CFF"/><stop offset="0.54" stop-color="#4B57CC" stop-opacity="0"/><stop offset="1" stop-color="#4B57CC" stop-opacity="0"/></radialGradient><linearGradient x1="1636.5" y1="677" x2="1636.5" y2="831" gradientUnits="userSpaceOnUse" spreadMethod="reflect" id="fill3"><stop offset="0" stop-color="#F5FAFF" stop-opacity="0.231373"/><stop offset="0.32" stop-color="#FFFFFF" stop-opacity="0"/><stop offset="1" stop-color="#FFFFFF" stop-opacity="0"/></linearGradient><radialGradient cx="94210.5" cy="102524" r="139236" gradientUnits="userSpaceOnUse" spreadMethod="pad" id="fill4" gradientTransform="matrix(0.000360892 0 0 0.000360892 1402 799)"><stop offset="0" stop-color="#5D6CFF"/><stop offset="0.54" stop-color="#4B57CC" stop-opacity="0"/><stop offset="1" stop-color="#4B57CC" stop-opacity="0"/></radialGradient><radialGradient cx="110836" cy="120534" r="163748" gradientUnits="userSpaceOnUse" spreadMethod="pad" id="fill5" gradientTransform="matrix(0.000360892 0 0 0.000360892 1431 844)"><stop offset="0" stop-color="#5D6CFF"/><stop offset="0.54" stop-color="#4B57CC" stop-opacity="0"/><stop offset="1" stop-color="#4B57CC" stop-opacity="0"/></radialGradient><radialGradient cx="292331" cy="278477" r="403741" fx="292331" fy="278476" gradientUnits="userSpaceOnUse" spreadMethod="pad" id="fill6" gradientTransform="matrix(0.000360892 0 0 0.000360892 1652 975)"><stop offset="0" stop-color="#5D6CFF"/><stop offset="0.54" stop-color="#4B57CC" stop-opacity="0"/><stop offset="1" stop-color="#4B57CC" stop-opacity="0"/></radialGradient><radialGradient cx="72043.5" cy="77585.5" r="105876" fx="72043.5" fy="77585.5" gradientUnits="userSpaceOnUse" spreadMethod="pad" id="fill7" gradientTransform="matrix(0.000360892 0 0 0.000360892 1797 1103)"><stop offset="0" stop-color="#5D6CFF"/><stop offset="0.54" stop-color="#4B57CC" stop-opacity="0"/><stop offset="1" stop-color="#4B57CC" stop-opacity="0"/></radialGradient><radialGradient cx="77585.5" cy="84513" r="114726" fx="77585.5" fy="84513" gradientUnits="userSpaceOnUse" spreadMethod="pad" id="fill8" gradientTransform="matrix(0.000360892 0 0 0.000360892 1781 1020)"><stop offset="0" stop-color="#5D6CFF"/><stop offset="0.54" stop-color="#4B57CC" stop-opacity="0"/><stop offset="1" stop-color="#4B57CC" stop-opacity="0"/></radialGradient><clipPath id="clip9"><rect x="1430" y="756" width="413" height="414"/></clipPath><clipPath id="clip10"><rect x="1430" y="756" width="413" height="414"/></clipPath><clipPath id="clip11"><rect x="1430" y="756" width="413" height="414"/></clipPath></defs><g clip-path="url(#clip0)" transform="translate(-1363 -671)"><rect x="1363" y="671" width="550" height="550" fill="url(#fill1)"/><path d="M1383 850.5C1383 766.829 1443.44 699 1518 699 1592.56 699 1653 766.829 1653 850.5 1653 934.171 1592.56 1002 1518 1002 1443.44 1002 1383 934.171 1383 850.5Z" fill="url(#fill2)" fill-rule="evenodd"/><path d="M1397.73 677 1875.27 677C1891.14 677 1904 696.864 1904 721.367L1904 831C1904 792.824 1883.96 761.876 1859.23 761.876L1413.77 761.876C1389.04 761.876 1369 792.824 1369 831L1369 721.367C1369 696.864 1381.86 677 1397.73 677Z" fill="url(#fill3)" fill-rule="evenodd"/><path d="M1402 836C1402 815.565 1417.22 799 1436 799 1454.78 799 1470 815.565 1470 836 1470 856.435 1454.78 873 1436 873 1417.22 873 1402 856.435 1402 836Z" fill="url(#fill4)" fill-rule="evenodd"/><path d="M1431 887.5C1431 863.475 1448.91 844 1471 844 1493.09 844 1511 863.475 1511 887.5 1511 911.524 1493.09 931 1471 931 1448.91 931 1431 911.524 1431 887.5Z" fill="url(#fill5)" fill-rule="evenodd"/><path d="M1652 1075.5C1652 1020 1699.23 975 1757.5 975 1815.77 975 1863 1020 1863 1075.5 1863 1131 1815.77 1176 1757.5 1176 1699.23 1176 1652 1131 1652 1075.5Z" fill="url(#fill6)" fill-rule="evenodd"/><path d="M1797 1131C1797 1115.54 1808.64 1103 1823 1103 1837.36 1103 1849 1115.54 1849 1131 1849 1146.46 1837.36 1159 1823 1159 1808.64 1159 1797 1146.46 1797 1131Z" fill="url(#fill7)" fill-rule="evenodd"/><path d="M1781 1050.5C1781 1033.66 1793.54 1020 1809 1020 1824.46 1020 1837 1033.66 1837 1050.5 1837 1067.34 1824.46 1081 1809 1081 1793.54 1081 1781 1067.34 1781 1050.5Z" fill="url(#fill8)" fill-rule="evenodd"/><g clip-path="url(#clip9)"><g clip-path="url(#clip10)"><g clip-path="url(#clip11)"><path d="M1796.34 790.526C1784.82 788.037 1751.09 781.171 1699.69 774.218L1756.17 830.696 1796.34 790.526Z" stroke="#33A3FF" stroke-width="6.86667" fill="#0F1113"/><path d="M1824.75 899.277C1817.81 847.966 1810.96 814.199 1808.47 802.68L1768.3 842.833 1824.75 899.277Z" stroke="#33A3FF" stroke-width="6.86667" fill="#0F1113"/><path d="M1744.03 842.833 1671.9 770.699C1638.85 766.768 1600.26 763.111 1557.27 760.553L1691.77 895.054 1744.03 842.833Z" stroke="#33A3FF" stroke-width="6.86667" fill="#0F1113"/><path d="M1703.93 907.208 1838.43 1041.71C1835.87 998.758 1832.22 960.15 1828.27 927.07L1756.17 854.97 1703.93 907.208Z" stroke="#33A3FF" stroke-width="6.86667" fill="#0F1113"/><path d="M1839.75 1067.3 1691.79 919.345 1615.52 995.617C1622.22 991.823 1670.01 966.399 1709.15 987.703 1711.24 988.836 1713.27 990.364 1715.33 991.703L1601.44 1105.59C1596.04 1102.32 1589.79 1100.33 1583.02 1100.33 1576.16 1100.33 1569.69 1103.01 1564.81 1107.87L1552.67 1120.01C1549.33 1123.35 1549.33 1128.8 1552.67 1132.14L1587.01 1166.48C1588.69 1168.16 1590.89 1169 1593.08 1169 1595.28 1169 1597.48 1168.16 1599.16 1166.49L1611.3 1154.36C1616.09 1149.55 1618.83 1142.91 1618.83 1136.14 1618.83 1129.38 1616.84 1123.13 1613.58 1117.74L1729.09 1002.21C1784.42 1051.01 1824.89 1162.06 1825.33 1163.32 1826.58 1166.77 1829.85 1169 1833.42 1169 1833.9 1169 1834.4 1168.97 1834.89 1168.86 1839 1168.16 1842 1164.59 1842 1160.42 1842 1127.68 1841.12 1096.69 1839.75 1067.3ZM1599.16 1142.2 1593.08 1148.28 1570.89 1126.08 1576.96 1120.01C1578.56 1118.43 1580.77 1117.5 1583.02 1117.5 1588.16 1117.5 1592.79 1119.59 1596.17 1122.94 1596.19 1122.96 1596.19 1122.96 1596.19 1122.96 1596.21 1122.98 1596.22 1122.98 1596.22 1122.99 1599.59 1126.38 1601.67 1131.01 1601.67 1136.14 1601.67 1138.41 1600.76 1140.62 1599.16 1142.2Z" stroke="#33A3FF" stroke-width="6.86667" fill="#0F1113"/><path d="M1607.3 883.673C1608.64 885.733 1610.16 887.758 1611.3 889.853 1632.53 928.873 1607.11 976.854 1603.37 983.514L1679.65 907.226 1531.7 759.249C1502.32 757.875 1471.34 757 1438.58 757 1434.41 757 1430.84 760.004 1430.12 764.124 1429.4 768.227 1431.75 772.261 1435.68 773.669 1436.94 774.115 1548 814.56 1596.81 869.905L1481.28 985.437C1475.89 982.158 1469.62 980.167 1462.86 980.167 1455.99 980.167 1449.52 982.845 1444.64 987.703L1432.51 999.84C1429.16 1003.19 1429.16 1008.63 1432.51 1011.98L1466.84 1046.31C1468.52 1047.99 1470.72 1048.83 1472.92 1048.83 1475.11 1048.83 1477.31 1047.99 1478.99 1046.33L1491.13 1034.19C1495.92 1029.38 1498.67 1022.74 1498.67 1015.98 1498.67 1009.21 1496.68 1002.96 1493.41 997.574L1607.3 883.673ZM1478.99 1022.04 1472.92 1028.11 1450.72 1005.92 1456.8 999.84C1458.39 998.26 1460.61 997.333 1462.86 997.333 1467.99 997.333 1472.62 999.428 1476.01 1002.78 1476.02 1002.79 1476.02 1002.79 1476.02 1002.79 1476.04 1002.81 1476.06 1002.81 1476.06 1002.83 1479.42 1006.21 1481.5 1010.84 1481.5 1015.98 1481.5 1018.24 1480.59 1020.46 1478.99 1022.04Z" stroke="#33A3FF" stroke-width="6.86667" fill="#0F1113"/></g></g></g></g></svg>