<svg width="550" height="550" xmlns="http://www.w3.org/2000/svg" xmlns:xlink="http://www.w3.org/1999/xlink" overflow="hidden"><defs><clipPath id="clip0"><rect x="1260" y="76" width="550" height="550"/></clipPath><radialGradient cx="762000" cy="762000" r="1.07763e+06" gradientUnits="userSpaceOnUse" spreadMethod="pad" id="fill1" gradientTransform="matrix(0.000360892 0 0 0.000360892 1260 76)"><stop offset="0" stop-color="#5D6CFF"/><stop offset="0.17" stop-color="#5D6CFF"/><stop offset="0.33" stop-color="#4B57CC"/><stop offset="1" stop-color="#0F1113"/></radialGradient><radialGradient cx="374072" cy="419793" r="562278" gradientUnits="userSpaceOnUse" spreadMethod="pad" id="fill2" gradientTransform="matrix(0.000360892 0 0 0.000360892 1280 105)"><stop offset="0" stop-color="#5D6CFF"/><stop offset="0.54" stop-color="#4B57CC" stop-opacity="0"/><stop offset="1" stop-color="#4B57CC" stop-opacity="0"/></radialGradient><linearGradient x1="1532.5" y1="82.0002" x2="1532.5" y2="236" gradientUnits="userSpaceOnUse" spreadMethod="reflect" id="fill3"><stop offset="0" stop-color="#F5FAFF" stop-opacity="0.231373"/><stop offset="0.32" stop-color="#FFFFFF" stop-opacity="0"/><stop offset="1" stop-color="#FFFFFF" stop-opacity="0"/></linearGradient><radialGradient cx="95596.5" cy="102524" r="140178" fx="95596.5" fy="102524" gradientUnits="userSpaceOnUse" spreadMethod="pad" id="fill4" gradientTransform="matrix(0.000360892 0 0 0.000360892 1298 205)"><stop offset="0" stop-color="#5D6CFF"/><stop offset="0.54" stop-color="#4B57CC" stop-opacity="0"/><stop offset="1" stop-color="#4B57CC" stop-opacity="0"/></radialGradient><radialGradient cx="112222" cy="120534" r="164689" gradientUnits="userSpaceOnUse" spreadMethod="pad" id="fill5" gradientTransform="matrix(0.000360892 0 0 0.000360892 1327 250)"><stop offset="0" stop-color="#5D6CFF"/><stop offset="0.54" stop-color="#4B57CC" stop-opacity="0"/><stop offset="1" stop-color="#4B57CC" stop-opacity="0"/></radialGradient><radialGradient cx="292331" cy="278477" r="403741" fx="292331" fy="278476" gradientUnits="userSpaceOnUse" spreadMethod="pad" id="fill6" gradientTransform="matrix(0.000360892 0 0 0.000360892 1549 381)"><stop offset="0" stop-color="#5D6CFF"/><stop offset="0.54" stop-color="#4B57CC" stop-opacity="0"/><stop offset="1" stop-color="#4B57CC" stop-opacity="0"/></radialGradient><radialGradient cx="72043.5" cy="77585.5" r="105876" fx="72043.5" fy="77585.5" gradientUnits="userSpaceOnUse" spreadMethod="pad" id="fill7" gradientTransform="matrix(0.000360892 0 0 0.000360892 1694 509)"><stop offset="0" stop-color="#5D6CFF"/><stop offset="0.54" stop-color="#4B57CC" stop-opacity="0"/><stop offset="1" stop-color="#4B57CC" stop-opacity="0"/></radialGradient><radialGradient cx="77585.5" cy="84513" r="114726" fx="77585.5" fy="84513" gradientUnits="userSpaceOnUse" spreadMethod="pad" id="fill8" gradientTransform="matrix(0.000360892 0 0 0.000360892 1678 426)"><stop offset="0" stop-color="#5D6CFF"/><stop offset="0.54" stop-color="#4B57CC" stop-opacity="0"/><stop offset="1" stop-color="#4B57CC" stop-opacity="0"/></radialGradient><clipPath id="clip9"><rect x="1281" y="112" width="491" height="491"/></clipPath><clipPath id="clip10"><rect x="1281" y="112" width="491" height="491"/></clipPath><clipPath id="clip11"><rect x="1281" y="112" width="491" height="491"/></clipPath></defs><g clip-path="url(#clip0)" transform="translate(-1260 -76)"><rect x="1260" y="76" width="550" height="550" fill="url(#fill1)"/><path d="M1280 256.5C1280 172.829 1340.44 105 1415 105 1489.56 105 1550 172.829 1550 256.5 1550 340.171 1489.56 408 1415 408 1340.44 408 1280 340.171 1280 256.5Z" fill="url(#fill2)" fill-rule="evenodd"/><path d="M1293.73 82.0002 1771.27 82.0002C1787.14 82.0002 1800 101.864 1800 126.368L1800 236C1800 197.824 1779.96 166.876 1755.23 166.876L1309.77 166.876C1285.04 166.876 1265 197.824 1265 236L1265 126.368C1265 101.864 1277.86 82.0002 1293.73 82.0002Z" fill="url(#fill3)" fill-rule="evenodd"/><path d="M1298 242C1298 221.565 1313.45 205 1332.5 205 1351.55 205 1367 221.565 1367 242 1367 262.435 1351.55 279 1332.5 279 1313.45 279 1298 262.435 1298 242Z" fill="url(#fill4)" fill-rule="evenodd"/><path d="M1327 293.5C1327 269.476 1345.13 250 1367.5 250 1389.87 250 1408 269.476 1408 293.5 1408 317.524 1389.87 337 1367.5 337 1345.13 337 1327 317.524 1327 293.5Z" fill="url(#fill5)" fill-rule="evenodd"/><path d="M1549 481.5C1549 425.995 1596.23 381 1654.5 381 1712.77 381 1760 425.995 1760 481.5 1760 537.005 1712.77 582 1654.5 582 1596.23 582 1549 537.005 1549 481.5Z" fill="url(#fill6)" fill-rule="evenodd"/><path d="M1694 537C1694 521.536 1705.64 509 1720 509 1734.36 509 1746 521.536 1746 537 1746 552.464 1734.36 565 1720 565 1705.64 565 1694 552.464 1694 537Z" fill="url(#fill7)" fill-rule="evenodd"/><path d="M1678 456.5C1678 439.655 1690.54 426 1706 426 1721.46 426 1734 439.655 1734 456.5 1734 473.345 1721.46 487 1706 487 1690.54 487 1678 473.345 1678 456.5Z" fill="url(#fill8)" fill-rule="evenodd"/><g clip-path="url(#clip9)"><g clip-path="url(#clip10)"><g clip-path="url(#clip11)"><path d="M245 4691.07C237.438 4703.05 230.715 4714.8 224.635 4726.29 233.501 4730.67 239.953 4732.72 245 4732.72 250.085 4732.72 256.543 4730.73 265.519 4726.29 259.434 4714.79 252.568 4703.06 245 4691.07ZM215.753 4743.9C199.839 4777.84 191.1 4809.57 191.1 4839.15 190.69 4875.9 204.025 4925.87 217.59 4972.37 224.514 4975.21 233.751 4976.78 239.947 4977.42 240.225 4983.98 240.747 4990.5 241.172 4997.17 234.201 4996.72 224.693 4995.16 216.365 4992.71L210.7 5006.97C211.364 5008.29 213.071 5009.37 215.447 5010.35 201.133 5058.81 215.755 5083.36 245 5132.06 274.245 5083.36 288.867 5058.81 274.553 5010.35 276.929 5009.37 278.636 5008.29 279.3 5006.97L273.635 4992.71C265.307 4995.16 255.799 4996.72 248.828 4997.17 249.253 4990.5 249.775 4983.98 250.053 4977.42 256.248 4976.78 265.486 4975.21 272.41 4972.37 286.069 4925.72 298.9 4876.01 298.9 4839.15 298.905 4809.63 290.258 4777.92 274.4 4744.06 264.196 4749.1 254.374 4752.32 245 4752.32 235.662 4752.32 225.911 4748.93 215.753 4743.9ZM245 4789.07C253.118 4789.07 259.7 4795.65 259.7 4803.77 259.7 4811.89 253.118 4818.47 245 4818.47 236.882 4818.47 230.3 4811.89 230.3 4803.77 230.3 4795.65 236.882 4789.07 245 4789.07ZM245 4838.07C253.118 4838.07 259.7 4844.65 259.7 4852.77 259.7 4860.89 253.118 4867.47 245 4867.47 236.882 4867.47 230.3 4860.89 230.3 4852.77 230.3 4844.65 236.882 4838.07 245 4838.07ZM196 4911.56C186.2 4926.26 171.5 4950.76 171.5 4955.66 176.4 4983.45 181.3 5038.96 186.2 5038.96 191.1 5038.96 189.467 4993.25 191.1 4970.36L205.8 4955.66 196 4911.56ZM294 4911.56 284.2 4955.66 298.9 4970.36C300.533 4993.25 298.9 5038.96 303.8 5038.96 308.7 5038.96 313.6 4983.45 318.5 4955.66 318.5 4950.76 303.8 4926.26 294 4911.56ZM231.985 5013.73C235.263 5014.02 238.747 5014.27 242.244 5014.32 243.089 5024.95 244.046 5035.29 245 5043.86 245.953 5035.29 246.911 5024.95 247.756 5014.32 251.253 5014.27 254.737 5014.02 258.015 5013.73 263.502 5036.07 257.225 5047.93 245 5070.81 232.775 5047.93 226.498 5036.07 231.985 5013.73Z" stroke="#33A3FF" stroke-width="6.73519" fill="#0F1113" transform="matrix(6.12323e-17 1 -1 6.12324e-17 6438.58 112)"/></g></g></g></g></svg>