<svg width="550" height="550" xmlns="http://www.w3.org/2000/svg" xmlns:xlink="http://www.w3.org/1999/xlink" overflow="hidden"><defs><clipPath id="clip0"><rect x="55" y="1265" width="550" height="550"/></clipPath><radialGradient cx="762000" cy="762000" r="1.07763e+06" gradientUnits="userSpaceOnUse" spreadMethod="pad" id="fill1" gradientTransform="matrix(0.000360892 0 0 0.000360892 55 1265)"><stop offset="0" stop-color="#5D6CFF"/><stop offset="0.17" stop-color="#5D6CFF"/><stop offset="0.33" stop-color="#4B57CC"/><stop offset="1" stop-color="#0F1113"/></radialGradient><radialGradient cx="374073" cy="419793" r="562278" gradientUnits="userSpaceOnUse" spreadMethod="pad" id="fill2" gradientTransform="matrix(0.000360892 0 0 0.000360892 76 1293)"><stop offset="0" stop-color="#5D6CFF"/><stop offset="0.54" stop-color="#4B57CC" stop-opacity="0"/><stop offset="1" stop-color="#4B57CC" stop-opacity="0"/></radialGradient><linearGradient x1="328.5" y1="1271" x2="328.5" y2="1425" gradientUnits="userSpaceOnUse" spreadMethod="reflect" id="fill3"><stop offset="0" stop-color="#F5FAFF" stop-opacity="0.231373"/><stop offset="0.32" stop-color="#FFFFFF" stop-opacity="0"/><stop offset="1" stop-color="#FFFFFF" stop-opacity="0"/></linearGradient><radialGradient cx="94211" cy="102524" r="139237" fx="94211" fy="102524" gradientUnits="userSpaceOnUse" spreadMethod="pad" id="fill4" gradientTransform="matrix(0.000360892 0 0 0.000360892 93.9998 1393)"><stop offset="0" stop-color="#5D6CFF"/><stop offset="0.54" stop-color="#4B57CC" stop-opacity="0"/><stop offset="1" stop-color="#4B57CC" stop-opacity="0"/></radialGradient><radialGradient cx="112222" cy="120534" r="164688" gradientUnits="userSpaceOnUse" spreadMethod="pad" id="fill5" gradientTransform="matrix(0.000360892 0 0 0.000360892 123 1438)"><stop offset="0" stop-color="#5D6CFF"/><stop offset="0.54" stop-color="#4B57CC" stop-opacity="0"/><stop offset="1" stop-color="#4B57CC" stop-opacity="0"/></radialGradient><radialGradient cx="293716" cy="278476" r="404745" gradientUnits="userSpaceOnUse" spreadMethod="pad" id="fill6" gradientTransform="matrix(0.000360892 0 0 0.000360892 344 1569)"><stop offset="0" stop-color="#5D6CFF"/><stop offset="0.54" stop-color="#4B57CC" stop-opacity="0"/><stop offset="1" stop-color="#4B57CC" stop-opacity="0"/></radialGradient><radialGradient cx="70658.5" cy="77585.5" r="104939" fx="70658.5" fy="77585.5" gradientUnits="userSpaceOnUse" spreadMethod="pad" id="fill7" gradientTransform="matrix(0.000360892 0 0 0.000360892 490 1697)"><stop offset="0" stop-color="#5D6CFF"/><stop offset="0.54" stop-color="#4B57CC" stop-opacity="0"/><stop offset="1" stop-color="#4B57CC" stop-opacity="0"/></radialGradient><radialGradient cx="77585.5" cy="84513" r="114726" fx="77585.5" fy="84513" gradientUnits="userSpaceOnUse" spreadMethod="pad" id="fill8" gradientTransform="matrix(0.000360892 0 0 0.000360892 474 1614)"><stop offset="0" stop-color="#5D6CFF"/><stop offset="0.54" stop-color="#4B57CC" stop-opacity="0"/><stop offset="1" stop-color="#4B57CC" stop-opacity="0"/></radialGradient><clipPath id="clip9"><rect x="90" y="1309" width="480" height="480"/></clipPath><clipPath id="clip10"><rect x="90" y="1309" width="480" height="480"/></clipPath><clipPath id="clip11"><rect x="90" y="1309" width="480" height="480"/></clipPath></defs><g clip-path="url(#clip0)" transform="translate(-55 -1265)"><rect x="55" y="1265" width="550" height="550" fill="url(#fill1)"/><path d="M76 1444.5C76 1360.83 136.442 1293 211 1293 285.559 1293 346 1360.83 346 1444.5 346 1528.17 285.559 1596 211 1596 136.442 1596 76 1528.17 76 1444.5Z" fill="url(#fill2)" fill-rule="evenodd"/><path d="M89.7336 1271 567.266 1271C583.136 1271 596 1290.86 596 1315.37L596 1425C596 1386.82 575.957 1355.88 551.233 1355.88L105.767 1355.88C81.0426 1355.88 60.9998 1386.82 60.9998 1425L60.9998 1315.37C60.9998 1290.86 73.8643 1271 89.7336 1271Z" fill="url(#fill3)" fill-rule="evenodd"/><path d="M93.9998 1430C93.9998 1409.57 109.222 1393 128 1393 146.778 1393 162 1409.57 162 1430 162 1450.43 146.778 1467 128 1467 109.222 1467 93.9998 1450.43 93.9998 1430Z" fill="url(#fill4)" fill-rule="evenodd"/><path d="M123 1481.5C123 1457.48 141.132 1438 163.5 1438 185.867 1438 204 1457.48 204 1481.5 204 1505.52 185.867 1525 163.5 1525 141.132 1525 123 1505.52 123 1481.5Z" fill="url(#fill5)" fill-rule="evenodd"/><path d="M344 1669.5C344 1614 391.458 1569 450 1569 508.542 1569 556 1614 556 1669.5 556 1725 508.542 1770 450 1770 391.458 1770 344 1725 344 1669.5Z" fill="url(#fill6)" fill-rule="evenodd"/><path d="M490 1725C490 1709.54 501.417 1697 515.5 1697 529.583 1697 541 1709.54 541 1725 541 1740.46 529.583 1753 515.5 1753 501.417 1753 490 1740.46 490 1725Z" fill="url(#fill7)" fill-rule="evenodd"/><path d="M474 1644.5C474 1627.66 486.536 1614 502 1614 517.464 1614 530 1627.66 530 1644.5 530 1661.34 517.464 1675 502 1675 486.536 1675 474 1661.34 474 1644.5Z" fill="url(#fill8)" fill-rule="evenodd"/><g clip-path="url(#clip9)"><g clip-path="url(#clip10)"><g clip-path="url(#clip11)"><path d="M417.36 1404.52C394.32 1381.48 364.08 1369 331.92 1369 299.76 1369 269.04 1381.48 246.48 1404.52L260.88 1418.92C280.08 1399.72 305.52 1389.16 332.4 1389.16 359.28 1389.16 384.72 1399.72 403.92 1418.92L417.36 1404.52Z" stroke="#33A3FF" stroke-width="4.88549" fill="#0F1113"/><path d="M331.92 1327.24C288.24 1327.24 247.44 1344.04 216.72 1374.76L231.12 1389.16C258 1362.28 294 1347.4 331.92 1347.4 369.84 1347.4 405.84 1362.28 432.72 1389.16L447.12 1374.76C416.4 1344.04 375.12 1327.24 331.92 1327.24Z" stroke="#33A3FF" stroke-width="4.88549" fill="#0F1113"/><path d="M273.36 1431.4 287.76 1445.8C299.76 1433.8 315.12 1427.56 331.92 1427.56 348.72 1427.56 364.56 1434.28 376.08 1445.8L390.48 1431.4C374.64 1415.56 354 1407.4 331.92 1407.4 309.84 1407.4 289.2 1416.04 273.36 1431.4Z" stroke="#33A3FF" stroke-width="4.88549" fill="#0F1113"/><path d="M399.12 1572.52 342 1572.52 342 1522.12C355.44 1517.8 365.52 1505.32 365.52 1489.96 365.52 1471.24 350.64 1456.36 331.92 1456.36 313.2 1456.36 298.32 1471.24 298.32 1489.96 298.32 1504.84 308.4 1517.8 321.84 1522.12L321.84 1573 264.72 1573C246.96 1573 232.56 1587.4 232.56 1605.16L232.56 1739.08C232.56 1756.84 246.96 1771.24 264.72 1771.24L398.64 1771.24C416.4 1771.24 430.8 1756.84 430.8 1739.08L430.8 1605.16C431.28 1586.92 416.88 1572.52 399.12 1572.52ZM331.92 1720.84C305.04 1720.84 282.96 1698.76 282.96 1671.88 282.96 1645 305.04 1622.92 331.92 1622.92 358.8 1622.92 380.4 1645 380.4 1671.88 380.4 1698.76 358.8 1720.84 331.92 1720.84Z" stroke="#33A3FF" stroke-width="4.88549" fill="#0F1113"/></g></g></g></g></svg>