<svg width="550" height="550" xmlns="http://www.w3.org/2000/svg" xmlns:xlink="http://www.w3.org/1999/xlink" overflow="hidden"><defs><clipPath id="clip0"><rect x="1901" y="76" width="550" height="550"/></clipPath><radialGradient cx="762000" cy="762000" r="1.07763e+06" gradientUnits="userSpaceOnUse" spreadMethod="pad" id="fill1" gradientTransform="matrix(0.000360892 0 0 0.000360892 1901 76)"><stop offset="0" stop-color="#5D6CFF"/><stop offset="0.17" stop-color="#5D6CFF"/><stop offset="0.33" stop-color="#4B57CC"/><stop offset="1" stop-color="#0F1113"/></radialGradient><radialGradient cx="374073" cy="419793" r="562278" gradientUnits="userSpaceOnUse" spreadMethod="pad" id="fill2" gradientTransform="matrix(0.000360892 0 0 0.000360892 1921 105)"><stop offset="0" stop-color="#5D6CFF"/><stop offset="0.54" stop-color="#4B57CC" stop-opacity="0"/><stop offset="1" stop-color="#4B57CC" stop-opacity="0"/></radialGradient><linearGradient x1="2173.5" y1="82.0002" x2="2173.5" y2="236" gradientUnits="userSpaceOnUse" spreadMethod="reflect" id="fill3"><stop offset="0" stop-color="#F5FAFF" stop-opacity="0.231373"/><stop offset="0.32" stop-color="#FFFFFF" stop-opacity="0"/><stop offset="1" stop-color="#FFFFFF" stop-opacity="0"/></linearGradient><radialGradient cx="95596" cy="102524" r="140178" gradientUnits="userSpaceOnUse" spreadMethod="pad" id="fill4" gradientTransform="matrix(0.000360892 0 0 0.000360892 1939 205)"><stop offset="0" stop-color="#5D6CFF"/><stop offset="0.54" stop-color="#4B57CC" stop-opacity="0"/><stop offset="1" stop-color="#4B57CC" stop-opacity="0"/></radialGradient><radialGradient cx="112222" cy="120534" r="164689" gradientUnits="userSpaceOnUse" spreadMethod="pad" id="fill5" gradientTransform="matrix(0.000360892 0 0 0.000360892 1968 250)"><stop offset="0" stop-color="#5D6CFF"/><stop offset="0.54" stop-color="#4B57CC" stop-opacity="0"/><stop offset="1" stop-color="#4B57CC" stop-opacity="0"/></radialGradient><radialGradient cx="292331" cy="278477" r="403741" fx="292331" fy="278476" gradientUnits="userSpaceOnUse" spreadMethod="pad" id="fill6" gradientTransform="matrix(0.000360892 0 0 0.000360892 2190 381)"><stop offset="0" stop-color="#5D6CFF"/><stop offset="0.54" stop-color="#4B57CC" stop-opacity="0"/><stop offset="1" stop-color="#4B57CC" stop-opacity="0"/></radialGradient><radialGradient cx="72043.5" cy="77585.5" r="105876" fx="72043.5" fy="77585.5" gradientUnits="userSpaceOnUse" spreadMethod="pad" id="fill7" gradientTransform="matrix(0.000360892 0 0 0.000360892 2335 509)"><stop offset="0" stop-color="#5D6CFF"/><stop offset="0.54" stop-color="#4B57CC" stop-opacity="0"/><stop offset="1" stop-color="#4B57CC" stop-opacity="0"/></radialGradient><radialGradient cx="77585.5" cy="84513" r="114726" fx="77585.5" fy="84513" gradientUnits="userSpaceOnUse" spreadMethod="pad" id="fill8" gradientTransform="matrix(0.000360892 0 0 0.000360892 2319 426)"><stop offset="0" stop-color="#5D6CFF"/><stop offset="0.54" stop-color="#4B57CC" stop-opacity="0"/><stop offset="1" stop-color="#4B57CC" stop-opacity="0"/></radialGradient><clipPath id="clip9"><rect x="1943" y="114" width="470" height="468"/></clipPath><clipPath id="clip10"><rect x="1943" y="114" width="470" height="468"/></clipPath><clipPath id="clip11"><rect x="1943" y="114" width="470" height="468"/></clipPath></defs><g clip-path="url(#clip0)" transform="translate(-1901 -76)"><rect x="1901" y="76" width="550" height="550" fill="url(#fill1)"/><path d="M1921 256.5C1921 172.829 1981.44 105 2056 105 2130.56 105 2191 172.829 2191 256.5 2191 340.171 2130.56 408 2056 408 1981.44 408 1921 340.171 1921 256.5Z" fill="url(#fill2)" fill-rule="evenodd"/><path d="M1934.73 82.0002 2412.27 82.0002C2428.14 82.0002 2441 101.864 2441 126.368L2441 236C2441 197.824 2420.96 166.876 2396.23 166.876L1950.77 166.876C1926.04 166.876 1906 197.824 1906 236L1906 126.368C1906 101.864 1918.86 82.0002 1934.73 82.0002Z" fill="url(#fill3)" fill-rule="evenodd"/><path d="M1939 242C1939 221.565 1954.45 205 1973.5 205 1992.55 205 2008 221.565 2008 242 2008 262.435 1992.55 279 1973.5 279 1954.45 279 1939 262.435 1939 242Z" fill="url(#fill4)" fill-rule="evenodd"/><path d="M1968 293.5C1968 269.476 1986.13 250 2008.5 250 2030.87 250 2049 269.476 2049 293.5 2049 317.524 2030.87 337 2008.5 337 1986.13 337 1968 317.524 1968 293.5Z" fill="url(#fill5)" fill-rule="evenodd"/><path d="M2190 481.5C2190 425.995 2237.23 381 2295.5 381 2353.77 381 2401 425.995 2401 481.5 2401 537.005 2353.77 582 2295.5 582 2237.23 582 2190 537.005 2190 481.5Z" fill="url(#fill6)" fill-rule="evenodd"/><path d="M2335 537C2335 521.536 2346.64 509 2361 509 2375.36 509 2387 521.536 2387 537 2387 552.464 2375.36 565 2361 565 2346.64 565 2335 552.464 2335 537Z" fill="url(#fill7)" fill-rule="evenodd"/><path d="M2319 456.5C2319 439.655 2331.54 426 2347 426 2362.46 426 2375 439.655 2375 456.5 2375 473.345 2362.46 487 2347 487 2331.54 487 2319 473.345 2319 456.5Z" fill="url(#fill8)" fill-rule="evenodd"/><g clip-path="url(#clip9)"><g clip-path="url(#clip10)"><g clip-path="url(#clip11)"><path d="M2219.15 408.45C2215.95 408.438 2212.87 409.698 2210.6 411.954 2208.34 414.21 2207.06 417.275 2207.05 420.474 2207.05 423.674 2208.32 426.743 2210.58 429.006 2212.84 431.268 2215.91 432.537 2219.11 432.533 2222.31 432.528 2225.38 431.251 2227.63 428.983 2229.89 426.714 2231.15 423.642 2231.14 420.443 2231.13 417.266 2229.86 414.223 2227.61 411.977 2225.37 409.73 2222.32 408.462 2219.15 408.45Z" stroke="#33A3FF" stroke-width="4.58823" fill="#0F1113"/><path d="M2281.06 408.45C2277.86 408.438 2274.79 409.698 2272.52 411.954 2270.25 414.21 2268.97 417.275 2268.97 420.474 2268.96 423.674 2270.23 426.743 2272.49 429.006 2274.76 431.268 2277.83 432.537 2281.03 432.533 2284.22 432.528 2287.29 431.251 2289.55 428.983 2291.8 426.714 2293.06 423.642 2293.05 420.443 2293.04 417.266 2291.77 414.223 2289.52 411.977 2287.28 409.73 2284.23 408.462 2281.06 408.45Z" stroke="#33A3FF" stroke-width="4.58823" fill="#0F1113"/><path d="M2344.84 353.07 2085.64 353.07C2075.2 353.107 2064.92 355.579 2055.61 360.294 2046.3 365.009 2038.22 371.833 2032.02 380.224 2036.12 388.825 2038.25 398.236 2038.26 407.768L2038.26 432.825C2038.16 442.342 2035.95 451.719 2031.77 460.271 2038 468.694 2046.12 475.539 2055.48 480.256 2064.83 484.972 2075.16 487.427 2085.64 487.425L2344.84 487.425C2362.66 487.425 2379.75 480.347 2392.34 467.75 2404.94 455.151 2412.02 438.064 2412.02 420.248 2412.02 402.432 2404.94 385.344 2392.34 372.746 2379.75 360.149 2362.66 353.071 2344.84 353.071ZM2219.16 442.037C2213.38 442.049 2207.83 439.764 2203.74 435.683 2199.64 431.603 2197.33 426.06 2197.32 420.278 2197.32 414.496 2199.61 408.948 2203.69 404.854 2207.77 400.761 2213.32 398.459 2219.1 398.454 2224.88 398.45 2230.43 400.744 2234.52 404.832 2238.61 408.919 2240.91 414.463 2240.91 420.246 2240.91 426.016 2238.62 431.552 2234.54 435.637 2230.47 439.723 2224.94 442.025 2219.16 442.037ZM2281.08 442.037C2275.3 442.049 2269.74 439.764 2265.65 435.683 2261.55 431.603 2259.25 426.06 2259.24 420.278 2259.23 414.496 2261.52 408.948 2265.6 404.854 2269.69 400.761 2275.23 398.459 2281.01 398.454 2286.79 398.45 2292.34 400.744 2296.43 404.832 2300.52 408.919 2302.82 414.463 2302.82 420.246 2302.82 426.016 2300.53 431.552 2296.45 435.637 2292.38 439.723 2286.85 442.025 2281.08 442.037ZM2342.99 442.037C2337.21 442.049 2331.66 439.764 2327.56 435.683 2323.47 431.603 2321.16 426.06 2321.15 420.278 2321.14 414.496 2323.43 408.948 2327.51 404.854 2331.6 400.761 2337.14 398.459 2342.92 398.454 2348.71 398.45 2354.25 400.744 2358.34 404.832 2362.44 408.919 2364.73 414.463 2364.73 420.246 2364.72 426.013 2362.43 431.54 2358.35 435.623 2354.28 439.706 2348.76 442.011 2342.99 442.037Z" stroke="#33A3FF" stroke-width="4.58823" fill="#0F1113"/><path d="M2342.97 408.45C2339.77 408.438 2336.7 409.698 2334.43 411.954 2332.16 414.21 2330.88 417.275 2330.88 420.474 2330.88 423.674 2332.14 426.743 2334.41 429.006 2336.67 431.268 2339.74 432.537 2342.94 432.533 2346.14 432.528 2349.2 431.251 2351.46 428.983 2353.71 426.714 2354.97 423.642 2354.96 420.443 2354.95 417.266 2353.68 414.223 2351.44 411.977 2349.19 409.73 2346.15 408.462 2342.97 408.45Z" stroke="#33A3FF" stroke-width="4.58823" fill="#0F1113"/><path d="M1973.49 353.07 1948.87 353.07C1946.18 353.07 1944 355.253 1944 357.945L1944 375.934C1944 382.942 1946.78 389.661 1951.74 394.617 1956.69 399.573 1963.41 402.356 1970.42 402.356 1974.85 402.368 1979.1 404.136 1982.23 407.268 1985.36 410.402 1987.13 414.647 1987.14 419.078L1987.14 421.418C1987.13 425.848 1985.36 430.093 1982.23 433.227 1979.1 436.359 1974.85 438.126 1970.42 438.139 1963.41 438.151 1956.69 440.946 1951.74 445.91 1946.78 450.872 1944 457.598 1944 464.61L1944 482.55C1944 483.843 1944.51 485.083 1945.43 485.998 1946.34 486.911 1947.58 487.425 1948.87 487.425L1973.49 487.425C1992.7 487.44 2010.51 477.372 2020.39 460.905 2025.51 452.433 2028.23 442.724 2028.24 432.825L2028.24 407.768C2028.24 397.835 2025.53 388.089 2020.39 379.59 2010.48 363.145 1992.69 353.084 1973.49 353.07Z" stroke="#33A3FF" stroke-width="4.58823" fill="#0F1113"/><path d="M2275.5 334.888C2275.5 328.043 2272.79 321.479 2267.95 316.636 2263.11 311.791 2256.56 309.063 2249.71 309.051L2230.7 309.051 2230.7 239.974C2230.72 239.563 2231.07 239.241 2231.48 239.243L2252.83 239.243C2254.12 239.243 2255.36 238.729 2256.28 237.815 2257.19 236.901 2257.71 235.661 2257.71 234.368L2257.71 213.454C2257.71 212.161 2257.19 210.921 2256.28 210.006 2255.36 209.093 2254.12 208.579 2252.83 208.579L2231.33 208.579C2223 208.579 2215.01 211.885 2209.12 217.771 2203.22 223.658 2199.9 231.642 2199.89 239.974L2199.89 309.051 2180.88 309.051C2174.03 309.063 2167.47 311.791 2162.64 316.636 2157.8 321.479 2155.09 328.043 2155.09 334.888L2155.09 343.322 2275.5 343.322Z" stroke="#33A3FF" stroke-width="4.58823" fill="#0F1113"/></g></g></g></g></svg>