<svg width="550" height="550" xmlns="http://www.w3.org/2000/svg" xmlns:xlink="http://www.w3.org/1999/xlink" overflow="hidden"><defs><clipPath id="clip0"><rect x="846" y="745" width="550" height="550"/></clipPath><radialGradient cx="762000" cy="762000" r="1.07763e+06" gradientUnits="userSpaceOnUse" spreadMethod="pad" id="fill1" gradientTransform="matrix(0.000360892 0 0 0.000360892 846 745)"><stop offset="0" stop-color="#92D050"/><stop offset="0.17" stop-color="#92D050"/><stop offset="0.33" stop-color="#029C48"/><stop offset="1" stop-color="#0F1113"/></radialGradient><linearGradient x1="1119.5" y1="750" x2="1119.5" y2="905" gradientUnits="userSpaceOnUse" spreadMethod="reflect" id="fill2"><stop offset="0" stop-color="#F5FAFF" stop-opacity="0.231373"/><stop offset="0.32" stop-color="#FFFFFF" stop-opacity="0"/><stop offset="1" stop-color="#FFFFFF" stop-opacity="0"/></linearGradient><radialGradient cx="94210.5" cy="102524" r="139236" gradientUnits="userSpaceOnUse" spreadMethod="pad" id="fill3" gradientTransform="matrix(0.000360892 0 0 0.000360892 885 873)"><stop offset="0" stop-color="#92D050"/><stop offset="0.54" stop-color="#09522C" stop-opacity="0"/><stop offset="1" stop-color="#09522C" stop-opacity="0"/></radialGradient><radialGradient cx="110836" cy="120534" r="163748" gradientUnits="userSpaceOnUse" spreadMethod="pad" id="fill4" gradientTransform="matrix(0.000360892 0 0 0.000360892 914 918)"><stop offset="0" stop-color="#92D050"/><stop offset="0.54" stop-color="#09522C" stop-opacity="0"/><stop offset="1" stop-color="#09522C" stop-opacity="0"/></radialGradient><radialGradient cx="292331" cy="278476" r="403740" gradientUnits="userSpaceOnUse" spreadMethod="pad" id="fill5" gradientTransform="matrix(0.000360892 0 0 0.000360892 1135 1049)"><stop offset="0" stop-color="#92D050"/><stop offset="0.54" stop-color="#09522C" stop-opacity="0"/><stop offset="1" stop-color="#09522C" stop-opacity="0"/></radialGradient><radialGradient cx="374073" cy="432261" r="571647" fx="374073" fy="432262" gradientUnits="userSpaceOnUse" spreadMethod="pad" id="fill6" gradientTransform="matrix(0.000360892 0 0 0.000360892 867 764)"><stop offset="0" stop-color="#92D050"/><stop offset="0.54" stop-color="#09522C" stop-opacity="0"/><stop offset="1" stop-color="#09522C" stop-opacity="0"/></radialGradient><radialGradient cx="70658" cy="77585.5" r="104938" gradientUnits="userSpaceOnUse" spreadMethod="pad" id="fill7" gradientTransform="matrix(0.000360892 0 0 0.000360892 1281 1177)"><stop offset="0" stop-color="#92D050"/><stop offset="0.54" stop-color="#09522C" stop-opacity="0"/><stop offset="1" stop-color="#09522C" stop-opacity="0"/></radialGradient><radialGradient cx="77585.5" cy="84512.5" r="114725" gradientUnits="userSpaceOnUse" spreadMethod="pad" id="fill8" gradientTransform="matrix(0.000360892 0 0 0.000360892 1264 1094)"><stop offset="0" stop-color="#92D050"/><stop offset="0.54" stop-color="#09522C" stop-opacity="0"/><stop offset="1" stop-color="#09522C" stop-opacity="0"/></radialGradient><clipPath id="clip9"><rect x="896" y="788" width="472" height="473"/></clipPath><clipPath id="clip10"><rect x="896" y="788" width="472" height="473"/></clipPath><clipPath id="clip11"><rect x="896" y="788" width="472" height="473"/></clipPath></defs><g clip-path="url(#clip0)" transform="translate(-846 -745)"><rect x="846" y="745" width="550" height="550" fill="url(#fill1)"/><path d="M880.734 750 1358.27 750C1374.14 750 1387 769.993 1387 794.656L1387 905C1387 866.576 1366.96 835.427 1342.23 835.427L896.767 835.427C872.043 835.427 852 866.576 852 905L852 794.656C852 769.993 864.865 750 880.734 750Z" fill="url(#fill2)" fill-rule="evenodd"/><path d="M885 910C885 889.566 900.222 873 919 873 937.778 873 953 889.566 953 910 953 930.435 937.778 947 919 947 900.222 947 885 930.435 885 910Z" fill="url(#fill3)" fill-rule="evenodd"/><path d="M914 961.5C914 937.476 931.909 918 954 918 976.092 918 994 937.476 994 961.5 994 985.525 976.092 1005 954 1005 931.909 1005 914 985.525 914 961.5Z" fill="url(#fill4)" fill-rule="evenodd"/><path d="M1135 1149.5C1135 1094 1182.23 1049 1240.5 1049 1298.77 1049 1346 1094 1346 1149.5 1346 1205 1298.77 1250 1240.5 1250 1182.23 1250 1135 1205 1135 1149.5Z" fill="url(#fill5)" fill-rule="evenodd"/><path d="M867 920C867 833.844 927.442 764 1002 764 1076.56 764 1137 833.844 1137 920 1137 1006.16 1076.56 1076 1002 1076 927.442 1076 867 1006.16 867 920Z" fill="url(#fill6)" fill-rule="evenodd"/><path d="M1281 1205C1281 1189.54 1292.42 1177 1306.5 1177 1320.58 1177 1332 1189.54 1332 1205 1332 1220.46 1320.58 1233 1306.5 1233 1292.42 1233 1281 1220.46 1281 1205Z" fill="url(#fill7)" fill-rule="evenodd"/><path d="M1264 1124.5C1264 1107.66 1276.54 1094 1292 1094 1307.46 1094 1320 1107.66 1320 1124.5 1320 1141.34 1307.46 1155 1292 1155 1276.54 1155 1264 1141.34 1264 1124.5Z" fill="url(#fill8)" fill-rule="evenodd"/><g clip-path="url(#clip9)"><g clip-path="url(#clip10)"><g clip-path="url(#clip11)"><path d="M402.422 294.867C398.037 301.623 391.793 307.385 384.106 311.383 376.418 315.366 367.804 317.983 359.216 317.381 347.797 316.596 346.195 315.607 335.321 312.419 322.944 308.824 307.212 308.877 292.062 316.946 275.299 325.885 264.524 342.077 261.316 354.124 260.63 356.683 260.929 358.703 262.268 360.503 265.131 364.266 272.133 366.721 276.168 366.721L358.97 366.522C385.137 366.496 400.899 350.12 403.401 320.463 404.029 312.665 403.621 304.083 402.422 294.867Z" stroke="#92D050" stroke-width="5.14737" fill="#0F1113" transform="matrix(1 0 0 1.00212 896 789)"/><path d="M346.384 103.824C340.392 103.824 334.363 105.19 328.999 107.911 318.642 113.118 312.236 122.711 312.236 132.937 312.236 136.203 309.651 138.846 306.433 138.846 303.214 138.846 300.597 136.203 300.597 132.937 300.597 122.711 294.197 113.145 283.866 107.911 273.101 102.484 259.746 102.484 249.033 107.911 238.677 113.145 232.35 122.711 232.24 132.937 232.187 138.113 225.646 141.546 221.642 136.255 218.455 132.063 214.446 128.19 209.344 125.631 198.61 120.183 185.281 120.157 174.568 125.631 164.206 130.839 157.989 140.431 157.775 150.626 157.665 155.205 151.149 159.622 147.062 153.813 144.252 149.836 140.573 146.266 135.779 143.89 126.375 139.228 114.652 139.228 105.248 143.89 95.4351 148.71 87.7473 157.874 85.1097 167.823L67.9287 255.423C68.0909 265.403 74.4075 274.724 84.4974 279.873 95.1263 285.274 108.293 285.274 118.87 279.873 123.878 277.314 127.965 273.693 130.891 269.407L130.891 218.518C130.891 215.252 133.476 212.609 136.695 212.609 139.903 212.609 142.519 215.252 142.519 218.518L142.519 271.291C142.519 283.364 149.825 294.673 161.574 300.807 173.679 307.129 188.704 307.129 200.803 300.807 212.578 294.673 219.878 283.364 219.878 271.291L219.878 218.518C219.878 215.252 222.474 212.609 225.682 212.609 228.901 212.609 231.517 215.252 231.517 218.518L231.517 271.291C231.517 283.364 238.823 294.673 250.598 300.807 262.703 307.129 277.717 307.129 289.785 300.807 301.56 294.673 308.866 283.364 308.866 271.291L308.866 218.518C308.866 215.252 311.451 212.609 314.67 212.609 317.888 212.609 320.505 215.252 320.505 218.518L320.505 271.291C320.505 283.364 327.805 294.699 339.581 300.807 351.664 307.129 366.71 307.129 378.81 300.807 390.501 294.731 397.78 283.563 397.864 271.563 397.864 271.563 380.008 128.52 380.008 128.379 379.977 122.905 374.12 113.118 363.785 107.911 358.431 105.19 352.413 103.824 346.384 103.824Z" stroke="#92D050" stroke-width="5.14737" fill="#0F1113" transform="matrix(1 0 0 1.00212 896 789)"/></g></g></g></g></svg>