<svg xmlns="http://www.w3.org/2000/svg" viewBox="0 0 512 512" style="height: 512px; width: 512px;"><defs><filter id="shadow-1" height="300%" width="300%" x="-100%" y="-100%"><feFlood flood-color="rgba(5, 5, 5, 1)" result="flood"></feFlood><feComposite in="flood" in2="SourceGraphic" operator="atop" result="composite"></feComposite><feGaussianBlur in="composite" stdDeviation="15" result="blur"></feGaussianBlur><feOffset dx="0" dy="0" result="offset"></feOffset><feComposite in="SourceGraphic" in2="offset" operator="over"></feComposite></filter><filter id="shadow-2" height="300%" width="300%" x="-100%" y="-100%"><feFlood flood-color="rgba(5, 5, 5, 1)" result="flood"></feFlood><feComposite in="flood" in2="SourceGraphic" operator="atop" result="composite"></feComposite><feGaussianBlur in="composite" stdDeviation="15" result="blur"></feGaussianBlur><feOffset dx="0" dy="0" result="offset"></feOffset><feComposite in="SourceGraphic" in2="offset" operator="over"></feComposite></filter><filter id="shadow-3" height="300%" width="300%" x="-100%" y="-100%"><feFlood flood-color="rgba(5, 5, 5, 1)" result="flood"></feFlood><feComposite in="flood" in2="SourceGraphic" operator="atop" result="composite"></feComposite><feGaussianBlur in="composite" stdDeviation="15" result="blur"></feGaussianBlur><feOffset dx="0" dy="0" result="offset"></feOffset><feComposite in="SourceGraphic" in2="offset" operator="over"></feComposite></filter><filter id="shadow-4" height="300%" width="300%" x="-100%" y="-100%"><feFlood flood-color="rgba(5, 5, 5, 1)" result="flood"></feFlood><feComposite in="flood" in2="SourceGraphic" operator="atop" result="composite"></feComposite><feGaussianBlur in="composite" stdDeviation="10" result="blur"></feGaussianBlur><feOffset dx="0" dy="0" result="offset"></feOffset><feComposite in="SourceGraphic" in2="offset" operator="over"></feComposite></filter><filter id="shadow-5" height="300%" width="300%" x="-100%" y="-100%"><feFlood flood-color="rgba(5, 5, 5, 1)" result="flood"></feFlood><feComposite in="flood" in2="SourceGraphic" operator="atop" result="composite"></feComposite><feGaussianBlur in="composite" stdDeviation="10" result="blur"></feGaussianBlur><feOffset dx="0" dy="0" result="offset"></feOffset><feComposite in="SourceGraphic" in2="offset" operator="over"></feComposite></filter><filter id="shadow-6" height="300%" width="300%" x="-100%" y="-100%"><feFlood flood-color="rgba(5, 5, 5, 1)" result="flood"></feFlood><feComposite in="flood" in2="SourceGraphic" operator="atop" result="composite"></feComposite><feGaussianBlur in="composite" stdDeviation="15" result="blur"></feGaussianBlur><feOffset dx="0" dy="0" result="offset"></feOffset><feComposite in="SourceGraphic" in2="offset" operator="over"></feComposite></filter><filter id="shadow-7" height="300%" width="300%" x="-100%" y="-100%"><feFlood flood-color="rgba(5, 5, 5, 1)" result="flood"></feFlood><feComposite in="flood" in2="SourceGraphic" operator="atop" result="composite"></feComposite><feGaussianBlur in="composite" stdDeviation="15" result="blur"></feGaussianBlur><feOffset dx="0" dy="0" result="offset"></feOffset><feComposite in="SourceGraphic" in2="offset" operator="over"></feComposite></filter><filter id="shadow-8" height="300%" width="300%" x="-100%" y="-100%"><feFlood flood-color="rgba(5, 5, 5, 1)" result="flood"></feFlood><feComposite in="flood" in2="SourceGraphic" operator="atop" result="composite"></feComposite><feGaussianBlur in="composite" stdDeviation="15" result="blur"></feGaussianBlur><feOffset dx="0" dy="0" result="offset"></feOffset><feComposite in="SourceGraphic" in2="offset" operator="over"></feComposite></filter></defs><polygon points="256,512,0,256,256,0,512,256" fill="#ffd23d" fill-opacity="1"></polygon><g class="" transform="translate(2,13)" style=""><g transform="translate(76.8, 76.8) scale(0.7, 0.7) rotate(0, 256, 256) skewX(0) skewY(0)"><path d="M16.375 17.22L16.375 111.5L36.845 125.75L43.219 93.687L93.687 126.907L71.844 37.03L101.374 51.062L91.22 17.22L16.374 17.22Z" class="" fill="#417505" fill-opacity="1" filter="url(#shadow-2)"></path><path d="M136.095 17.22L155.938 59.25L113.906 105.97L155 105.97L159.656 145.688L180.686 120L191.094 181.938L229.844 125.218L255.064 157.875L279.25 66.719L313.03 87.843L313.625 37.063L361.281 61.499L358.251 128.999L386.689 87.186L399.469 109.312L459.626 45.062L460.814 89.249L494.689 46.624L494.689 17.22L136.094 17.22Z" class="" fill="#7ed321" fill-opacity="1" filter="url(#shadow-3)"></path><path d="M85.468 186.03C68.838 186.068 51.361 187.646 33.123 190.406L25.217 191.594L25.153 199.564C24.803 239.804 29.993 266.874 41.278 285.5C52.565 304.127 70.448 312.813 89.904 315.438C96.841 316.373 104.074 316.704 111.56 316.656L111.56 224.186C92.89 228.471 78.967 245.182 78.967 265.156C78.967 277.916 84.647 289.351 93.622 297.062C93.215 297.014 92.805 296.96 92.402 296.906C76.372 294.744 65.58 289.566 57.247 275.812C49.527 263.072 44.395 241.525 43.934 207.844C58.467 205.926 72.374 204.771 85.404 204.75C111.124 204.708 133.807 208.644 152.997 217.53C180.765 230.39 202.142 253.617 216.403 293.156C192.836 291.843 170.565 293.449 150.497 295.126C158.245 287.498 163.06 276.888 163.06 265.156C163.06 245.116 149.016 228.371 130.247 224.156L130.247 315.906C160.227 313.902 193.597 308.882 228.685 312.719L242.653 314.249L238.653 300.779C223.51 249.523 196.587 217.116 160.841 200.562C138.499 190.215 113.181 185.968 85.466 186.03Z" class="" fill="#000000" fill-opacity="1" filter="url(#shadow-4)"></path><path d="M433.092 186.03C405.376 185.97 380.058 190.216 357.717 200.562C321.969 217.117 295.047 249.524 279.903 300.782L275.933 314.25L289.873 312.72C325.443 308.83 359.259 314.055 389.56 316L389.56 223.875C370.163 227.61 355.497 244.67 355.497 265.155C355.497 276.881 360.319 287.499 368.06 295.125C347.997 293.443 325.733 291.815 302.185 293.125C316.445 253.603 337.83 230.388 365.591 217.531C384.781 208.645 407.461 204.709 433.185 204.751C446.223 204.773 460.109 205.924 474.653 207.845C474.193 241.525 469.029 263.073 461.309 275.815C452.976 289.568 442.216 294.745 426.184 296.907C425.774 296.963 425.352 297.014 424.934 297.063C433.918 289.353 439.622 277.926 439.622 265.157C439.622 245.632 426.29 229.23 408.247 224.501L408.247 316.657C415.287 316.661 422.107 316.322 428.653 315.437C448.111 312.814 466.023 304.127 477.309 285.501C488.596 266.874 493.752 239.806 493.403 199.563L493.341 191.595L485.466 190.407C467.226 187.647 449.719 186.069 433.09 186.032Z" class="selected" fill="#000000" fill-opacity="1" filter="url(#shadow-5)"></path><path d="M471.029 325.22L468.312 360.344L387.905 356.281L466.28 422.531L426.406 431.971L494.686 459.001L494.688 353.595L471.031 325.22Z" class="" fill="#417505" fill-opacity="1" filter="url(#shadow-6)"></path><path d="M339.905 337.25L274.5 422.53L262.22 380.47L233.03 477.406L182.812 409.686L168.219 495.531L425.749 495.531L419.343 461.064L366.187 480.939L356.843 427.782L339.905 441.222L339.905 337.25Z" class="" fill="#b8e986" fill-opacity="1" filter="url(#shadow-7)"></path><path d="M39.125 352.438L16.375 372.281L16.375 495.531L146.435 495.531L130.249 419.031L116.374 435.751L91.686 381.626L58.406 435.97L39.124 352.437Z" class="" fill="#7ed321" fill-opacity="1" filter="url(#shadow-8)"></path></g></g></svg>