<svg width="550" height="550" xmlns="http://www.w3.org/2000/svg" xmlns:xlink="http://www.w3.org/1999/xlink" overflow="hidden"><defs><clipPath id="clip0"><rect x="1849" y="637" width="550" height="550"/></clipPath><radialGradient cx="762000" cy="762000" r="1.07763e+06" gradientUnits="userSpaceOnUse" spreadMethod="pad" id="fill1" gradientTransform="matrix(0.000360892 0 0 0.000360892 1849 637)"><stop offset="0" stop-color="#FFC000"/><stop offset="0.17" stop-color="#FFC000"/><stop offset="0.33" stop-color="#F68D00"/><stop offset="1" stop-color="#0F1113"/></radialGradient><radialGradient cx="374073" cy="432262" r="571648" fx="374073" fy="432262" gradientUnits="userSpaceOnUse" spreadMethod="pad" id="fill2" gradientTransform="matrix(0.000360892 0 0 0.000360892 1869 657)"><stop offset="0" stop-color="#FFFF00"/><stop offset="0.54" stop-color="#F68D00" stop-opacity="0"/><stop offset="1" stop-color="#F68D00" stop-opacity="0"/></radialGradient><radialGradient cx="94211" cy="101138" r="138220" gradientUnits="userSpaceOnUse" spreadMethod="pad" id="fill3" gradientTransform="matrix(0.000360892 0 0 0.000360892 1888 766)"><stop offset="0" stop-color="#FFFF00"/><stop offset="0.54" stop-color="#F68D00" stop-opacity="0"/><stop offset="1" stop-color="#F68D00" stop-opacity="0"/></radialGradient><radialGradient cx="112222" cy="120534" r="164688" gradientUnits="userSpaceOnUse" spreadMethod="pad" id="fill4" gradientTransform="matrix(0.000360892 0 0 0.000360892 1916 811)"><stop offset="0" stop-color="#FFFF00"/><stop offset="0.54" stop-color="#F68D00" stop-opacity="0"/><stop offset="1" stop-color="#F68D00" stop-opacity="0"/></radialGradient><radialGradient cx="292330" cy="278476" r="403740" gradientUnits="userSpaceOnUse" spreadMethod="pad" id="fill5" gradientTransform="matrix(0.000360892 0 0 0.000360892 2138 942)"><stop offset="0" stop-color="#FFFF00"/><stop offset="0.54" stop-color="#F68D00" stop-opacity="0"/><stop offset="1" stop-color="#F68D00" stop-opacity="0"/></radialGradient><radialGradient cx="72044" cy="77585.5" r="105877" fx="72044" fy="77585.5" gradientUnits="userSpaceOnUse" spreadMethod="pad" id="fill6" gradientTransform="matrix(0.000360892 0 0 0.000360892 2283 1070)"><stop offset="0" stop-color="#FFFF00"/><stop offset="0.54" stop-color="#F68D00" stop-opacity="0"/><stop offset="1" stop-color="#F68D00" stop-opacity="0"/></radialGradient><radialGradient cx="77585.5" cy="84513" r="114726" fx="77585.5" fy="84513" gradientUnits="userSpaceOnUse" spreadMethod="pad" id="fill7" gradientTransform="matrix(0.000360892 0 0 0.000360892 2267 987)"><stop offset="0" stop-color="#FFFF00"/><stop offset="0.54" stop-color="#F68D00" stop-opacity="0"/><stop offset="1" stop-color="#F68D00" stop-opacity="0"/></radialGradient><linearGradient x1="2122" y1="643" x2="2122" y2="797" gradientUnits="userSpaceOnUse" spreadMethod="reflect" id="fill8"><stop offset="0" stop-color="#F5FAFF" stop-opacity="0.231373"/><stop offset="0.32" stop-color="#FFFFFF" stop-opacity="0"/><stop offset="1" stop-color="#FFFFFF" stop-opacity="0"/></linearGradient><clipPath id="clip9"><rect x="1881" y="683" width="483" height="485"/></clipPath><clipPath id="clip10"><rect x="1881" y="683" width="483" height="485"/></clipPath><clipPath id="clip11"><rect x="1881" y="683" width="483" height="485"/></clipPath></defs><g clip-path="url(#clip0)" transform="translate(-1849 -637)"><rect x="1849" y="637" width="550" height="550" fill="url(#fill1)"/><path d="M1869 813C1869 726.844 1929.44 657 2004 657 2078.56 657 2139 726.844 2139 813 2139 899.156 2078.56 969 2004 969 1929.44 969 1869 899.156 1869 813Z" fill="url(#fill2)" fill-rule="evenodd"/><path d="M1888 802.5C1888 782.342 1903.22 766 1922 766 1940.78 766 1956 782.342 1956 802.5 1956 822.658 1940.78 839 1922 839 1903.22 839 1888 822.658 1888 802.5Z" fill="url(#fill3)" fill-rule="evenodd"/><path d="M1916 854.5C1916 830.475 1934.13 811 1956.5 811 1978.87 811 1997 830.475 1997 854.5 1997 878.524 1978.87 898 1956.5 898 1934.13 898 1916 878.524 1916 854.5Z" fill="url(#fill4)" fill-rule="evenodd"/><path d="M2138 1042.5C2138 986.995 2185.23 942 2243.5 942 2301.77 942 2349 986.995 2349 1042.5 2349 1098 2301.77 1143 2243.5 1143 2185.23 1143 2138 1098 2138 1042.5Z" fill="url(#fill5)" fill-rule="evenodd"/><path d="M2283 1098C2283 1082.54 2294.64 1070 2309 1070 2323.36 1070 2335 1082.54 2335 1098 2335 1113.46 2323.36 1126 2309 1126 2294.64 1126 2283 1113.46 2283 1098Z" fill="url(#fill6)" fill-rule="evenodd"/><path d="M2267 1017.5C2267 1000.66 2279.54 987 2295 987 2310.46 987 2323 1000.66 2323 1017.5 2323 1034.34 2310.46 1048 2295 1048 2279.54 1048 2267 1034.34 2267 1017.5Z" fill="url(#fill7)" fill-rule="evenodd"/><path d="M1882.79 643 2361.21 643C2377.11 643 2390 662.864 2390 687.368L2390 797C2390 758.824 2369.92 727.876 2345.15 727.876L1898.85 727.876C1874.08 727.876 1854 758.824 1854 797L1854 687.368C1854 662.864 1866.89 643 1882.79 643Z" fill="url(#fill8)" fill-rule="evenodd"/><g clip-path="url(#clip9)"><g clip-path="url(#clip10)"><g clip-path="url(#clip11)"><path d="M220.958 45.6242C220.958 68.4529 202.452 86.9593 179.623 86.9593 156.794 86.9593 138.288 68.4529 138.288 45.6242 138.288 22.7954 156.794 4.28904 179.623 4.28904 202.452 4.28904 220.958 22.7954 220.958 45.6242Z" stroke="#FFC000" stroke-width="4.6" fill="#0F1113" transform="matrix(1 0 0 1.00207 1881 683)"/><path d="M70.8899 140.77 72.2906 129.951C74.7298 121.228 80.6706 107.163 98.1069 96.7304L71.8414 96.6096C59.6263 96.5662 49.6814 106.415 49.6234 118.634 49.5703 130.584 59.0467 140.316 70.8899 140.77Z" stroke="#FFC000" stroke-width="4.6" fill="#0F1113" transform="matrix(1 0 0 1.00207 1881 683)"/><path d="M265.099 92.282C243.524 87.9591 229.493 66.7216 233.859 44.8948 238.24 23.0439 259.347 8.90169 280.942 13.2197 302.566 17.557 316.539 38.7124 312.168 60.5875 307.797 82.3853 286.723 96.6096 265.099 92.282" stroke="#FFC000" stroke-width="4.6" fill="#0F1113" transform="matrix(1 0 0 1.00207 1881 683)"/><path d="M418.631 206.507C423.05 214.182 424.446 219.765 424.692 230.69L424.683 446.857C424.562 469.882 407.816 479.643 393.515 479.3 384.825 479.088 363.863 471.973 363.583 444.534L363.742 262.791 298.634 152.092C298.634 152.092 274.914 116.239 305.14 92.5621 326.073 76.1691 348.982 85.6939 357.275 97.7399L418.631 206.507Z" stroke="#FFC000" stroke-width="4.6" fill="#0F1113" transform="matrix(1 0 0 1.00207 1881 683)"/><path d="M229.604 96.6096 133.892 96.6096C105.574 96.6096 82.1197 119.697 82.1197 148.532L82.1197 282.434C82.1197 306.304 115.664 306.304 115.664 282.434L115.664 151.802 129.328 151.802 129.425 456.503C129.425 468.877 139.466 478.928 151.831 478.928 164.239 478.928 174.271 468.882 174.271 456.503L174.199 286.81 189.293 286.81 189.225 456.503C189.225 468.877 199.257 478.928 211.66 478.928 224.035 478.928 234.071 468.882 234.071 456.503L234.168 151.802 247.813 151.802 247.813 282.429C247.813 306.299 281.372 306.299 281.372 282.429L281.372 148.532C281.376 119.697 257.927 96.6096 229.604 96.6096Z" stroke="#FFC000" stroke-width="4.6" fill="#0F1113" transform="matrix(1 0 0 1.00207 1881 683)"/></g></g></g></g></svg>