<svg width="550" height="550" xmlns="http://www.w3.org/2000/svg" xmlns:xlink="http://www.w3.org/1999/xlink" overflow="hidden"><defs><clipPath id="clip0"><rect x="658" y="40" width="550" height="550"/></clipPath><radialGradient cx="762000" cy="762000" r="1.07763e+06" gradientUnits="userSpaceOnUse" spreadMethod="pad" id="fill1" gradientTransform="matrix(0.000360892 0 0 0.000360892 658 39.9999)"><stop offset="0" stop-color="#FFC000"/><stop offset="0.17" stop-color="#FFC000"/><stop offset="0.33" stop-color="#F68D00"/><stop offset="1" stop-color="#0F1113"/></radialGradient><radialGradient cx="374073" cy="432261" r="571647" fx="374073" fy="432262" gradientUnits="userSpaceOnUse" spreadMethod="pad" id="fill2" gradientTransform="matrix(0.000360892 0 0 0.000360892 678 60.0002)"><stop offset="0" stop-color="#FFFF00"/><stop offset="0.54" stop-color="#F68D00" stop-opacity="0"/><stop offset="1" stop-color="#F68D00" stop-opacity="0"/></radialGradient><linearGradient x1="931.5" y1="46.0001" x2="931.5" y2="200" gradientUnits="userSpaceOnUse" spreadMethod="reflect" id="fill3"><stop offset="0" stop-color="#F5FAFF" stop-opacity="0.231373"/><stop offset="0.32" stop-color="#FFFFFF" stop-opacity="0"/><stop offset="1" stop-color="#FFFFFF" stop-opacity="0"/></linearGradient><radialGradient cx="94210.5" cy="102524" r="139236" gradientUnits="userSpaceOnUse" spreadMethod="pad" id="fill4" gradientTransform="matrix(0.000360892 0 0 0.000360892 697 168)"><stop offset="0" stop-color="#FFFF00"/><stop offset="0.54" stop-color="#F68D00" stop-opacity="0"/><stop offset="1" stop-color="#F68D00" stop-opacity="0"/></radialGradient><radialGradient cx="110836" cy="120534" r="163748" gradientUnits="userSpaceOnUse" spreadMethod="pad" id="fill5" gradientTransform="matrix(0.000360892 0 0 0.000360892 726 214)"><stop offset="0" stop-color="#FFFF00"/><stop offset="0.54" stop-color="#F68D00" stop-opacity="0"/><stop offset="1" stop-color="#F68D00" stop-opacity="0"/></radialGradient><radialGradient cx="292331" cy="278476" r="403740" gradientUnits="userSpaceOnUse" spreadMethod="pad" id="fill6" gradientTransform="matrix(0.000360892 0 0 0.000360892 947 345)"><stop offset="0" stop-color="#FFFF00"/><stop offset="0.54" stop-color="#F68D00" stop-opacity="0"/><stop offset="1" stop-color="#F68D00" stop-opacity="0"/></radialGradient><radialGradient cx="72043.5" cy="77585.5" r="105876" fx="72043.5" fy="77585.5" gradientUnits="userSpaceOnUse" spreadMethod="pad" id="fill7" gradientTransform="matrix(0.000360892 0 0 0.000360892 1092 473)"><stop offset="0" stop-color="#FFFF00"/><stop offset="0.54" stop-color="#F68D00" stop-opacity="0"/><stop offset="1" stop-color="#F68D00" stop-opacity="0"/></radialGradient><radialGradient cx="77585.5" cy="83127" r="113708" gradientUnits="userSpaceOnUse" spreadMethod="pad" id="fill8" gradientTransform="matrix(0.000360892 0 0 0.000360892 1076 390)"><stop offset="0" stop-color="#FFFF00"/><stop offset="0.54" stop-color="#F68D00" stop-opacity="0"/><stop offset="1" stop-color="#F68D00" stop-opacity="0"/></radialGradient><clipPath id="clip9"><rect x="691" y="80" width="485" height="484"/></clipPath><clipPath id="clip10"><rect x="691" y="80" width="485" height="484"/></clipPath><clipPath id="clip11"><rect x="691" y="80" width="485" height="484"/></clipPath></defs><g clip-path="url(#clip0)" transform="translate(-658 -40)"><rect x="658" y="39.9999" width="550" height="550" fill="url(#fill1)"/><path d="M678 216C678 129.844 738.441 60.0002 813 60.0002 887.558 60.0002 948 129.844 948 216 948 302.156 887.558 372 813 372 738.441 372 678 302.156 678 216Z" fill="url(#fill2)" fill-rule="evenodd"/><path d="M692.734 46.0001 1170.27 46.0001C1186.14 46.0001 1199 65.864 1199 90.3677L1199 200C1199 161.824 1178.96 130.876 1154.23 130.876L708.767 130.876C684.043 130.876 664 161.824 664 200L664 90.3677C664 65.864 676.865 46.0001 692.734 46.0001Z" fill="url(#fill3)" fill-rule="evenodd"/><path d="M697 205C697 184.566 712.222 168 731 168 749.778 168 765 184.566 765 205 765 225.435 749.778 242 731 242 712.222 242 697 225.435 697 205Z" fill="url(#fill4)" fill-rule="evenodd"/><path d="M726 257.5C726 233.476 743.909 214 766 214 788.091 214 806 233.476 806 257.5 806 281.525 788.091 301 766 301 743.909 301 726 281.525 726 257.5Z" fill="url(#fill5)" fill-rule="evenodd"/><path d="M947 445.5C947 389.995 994.234 345 1052.5 345 1110.77 345 1158 389.995 1158 445.5 1158 501.005 1110.77 546 1052.5 546 994.234 546 947 501.005 947 445.5Z" fill="url(#fill6)" fill-rule="evenodd"/><path d="M1092 501C1092 485.536 1103.64 473 1118 473 1132.36 473 1144 485.536 1144 501 1144 516.464 1132.36 529 1118 529 1103.64 529 1092 516.464 1092 501Z" fill="url(#fill7)" fill-rule="evenodd"/><path d="M1076 420C1076 403.432 1088.54 390 1104 390 1119.46 390 1132 403.432 1132 420 1132 436.569 1119.46 450 1104 450 1088.54 450 1076 436.569 1076 420Z" fill="url(#fill8)" fill-rule="evenodd"/><g clip-path="url(#clip9)"><g clip-path="url(#clip10)"><g clip-path="url(#clip11)"><path d="M217.017 67.5073C235.999 73.6843 256.988 86.6502 273.872 105.299 293.551 127.045 307.666 156.755 306.941 194.88 306.941 195.803 307.134 196.694 307.553 197.504L332.932 250.167C334.467 253.35 334.467 255.695 334.021 257.181 333.57 258.663 332.733 259.5 331.113 260.117L307.274 269.262C304.87 270.174 303.362 272.562 303.528 275.128L304.338 290.53C304.811 300.308 302.438 301.156 293.911 301.907L266.772 304.285C263.75 304.537 261.459 307.081 261.459 310.102 261.459 319.021 265.682 323.594 272.949 329.331 277.339 332.776 283.43 334.644 290.058 335.503 295.843 336.291 296.514 338.669 295.676 344.561L293.696 358.477C292.859 364.268 287.879 365.835 283.467 367.257 277.178 369.296 267.115 370.998 256.215 367.815L179.601 345.313C165.792 341.379 162.326 335.143 153.578 323.154 147.342 314.621 141.889 321.952 144.465 327.656 151.147 342.468 158.945 353.932 175.742 358.729L230.81 374.475C237.604 376.402 244.087 382.16 241.597 393.645L238.527 407.824C236.681 416.373 233.691 422.807 218.681 422.807L111.922 422.807C100.239 422.807 93.7503 416.346 95.5964 405.639L100.63 376.826C106.083 345.409 101.049 317.513 76.3945 292.355 31.9853 246.99 24.0695 181.442 54.7937 128.086 77.822 88.0885 118.829 63.4072 162.964 60.4179 181.297 59.146 201.873 62.5646 217.017 67.5073Z" stroke="#FFC000" stroke-width="4.6" fill="#0F1113" fill-rule="evenodd" transform="matrix(1.00207 0 0 1 692 80.0001)"/><path d="M346.44 275.407C339.087 275.659 334.724 282.931 338.502 288.63 349.595 306.013 349.595 327.399 338.502 344.781 335.76 348.946 337.354 354.34 341.996 356.744 346.633 359.175 352.59 357.726 355.246 353.502 369.806 330.748 369.806 302.632 355.246 279.877 353.481 277.033 350.068 275.294 346.44 275.407Z" stroke="#FFC000" stroke-width="4.6" fill="#0F1113" fill-rule="evenodd" transform="matrix(1.00207 0 0 1 692 80.0001)"/><path d="M362.368 237.62C353.674 237.647 349.397 247.178 355.628 252.625 374.47 269.621 384.978 292.655 384.978 316.671 384.978 340.708 374.47 363.769 355.628 380.76 351.49 384.108 351.297 389.926 355.241 393.473 359.153 397.026 365.609 396.86 369.296 393.114 391.745 372.849 404.346 345.34 404.346 316.671 404.346 288.018 391.74 260.573 369.296 240.309 367.488 238.591 364.971 237.62 362.368 237.62Z" stroke="#FFC000" stroke-width="4.6" fill="#0F1113" fill-rule="evenodd" transform="matrix(1.00207 0 0 1 692 80.0001)"/><path d="M392.276 210.62C383.615 210.62 379.337 220.151 385.568 225.604 412.348 249.781 427.358 282.512 427.358 316.676 427.358 350.857 412.348 383.647 385.568 407.797 381.71 411.183 381.656 416.77 385.455 420.231 389.255 423.677 395.459 423.645 399.232 420.172 429.618 392.722 446.694 355.461 446.694 316.676 446.694 277.881 429.618 240.668 399.232 213.25 397.391 211.538 394.906 210.588 392.276 210.62Z" stroke="#FFC000" stroke-width="4.6" fill="#0F1113" fill-rule="evenodd" transform="matrix(1.00207 0 0 1 692 80.0001)"/></g></g></g></g></svg>