<svg width="550" height="550" xmlns="http://www.w3.org/2000/svg" xmlns:xlink="http://www.w3.org/1999/xlink" overflow="hidden"><defs><clipPath id="clip0"><rect x="2446" y="637" width="550" height="550"/></clipPath><radialGradient cx="762000" cy="762000" r="1.07763e+06" gradientUnits="userSpaceOnUse" spreadMethod="pad" id="fill1" gradientTransform="matrix(0.000360892 0 0 0.000360892 2446 637)"><stop offset="0" stop-color="#FFC000"/><stop offset="0.17" stop-color="#FFC000"/><stop offset="0.33" stop-color="#F68D00"/><stop offset="1" stop-color="#0F1113"/></radialGradient><radialGradient cx="374072" cy="432262" r="571647" fx="374072" fy="432262" gradientUnits="userSpaceOnUse" spreadMethod="pad" id="fill2" gradientTransform="matrix(0.000360892 0 0 0.000360892 2466 657)"><stop offset="0" stop-color="#FFFF00"/><stop offset="0.54" stop-color="#F68D00" stop-opacity="0"/><stop offset="1" stop-color="#F68D00" stop-opacity="0"/></radialGradient><radialGradient cx="94211" cy="101138" r="138220" gradientUnits="userSpaceOnUse" spreadMethod="pad" id="fill3" gradientTransform="matrix(0.000360892 0 0 0.000360892 2485 766)"><stop offset="0" stop-color="#FFFF00"/><stop offset="0.54" stop-color="#F68D00" stop-opacity="0"/><stop offset="1" stop-color="#F68D00" stop-opacity="0"/></radialGradient><radialGradient cx="110836" cy="120534" r="163748" gradientUnits="userSpaceOnUse" spreadMethod="pad" id="fill4" gradientTransform="matrix(0.000360892 0 0 0.000360892 2514 811)"><stop offset="0" stop-color="#FFFF00"/><stop offset="0.54" stop-color="#F68D00" stop-opacity="0"/><stop offset="1" stop-color="#F68D00" stop-opacity="0"/></radialGradient><radialGradient cx="292331" cy="278477" r="403741" fx="292331" fy="278476" gradientUnits="userSpaceOnUse" spreadMethod="pad" id="fill5" gradientTransform="matrix(0.000360892 0 0 0.000360892 2735 942)"><stop offset="0" stop-color="#FFFF00"/><stop offset="0.54" stop-color="#F68D00" stop-opacity="0"/><stop offset="1" stop-color="#F68D00" stop-opacity="0"/></radialGradient><radialGradient cx="72043.5" cy="77585.5" r="105876" fx="72043.5" fy="77585.5" gradientUnits="userSpaceOnUse" spreadMethod="pad" id="fill6" gradientTransform="matrix(0.000360892 0 0 0.000360892 2880 1070)"><stop offset="0" stop-color="#FFFF00"/><stop offset="0.54" stop-color="#F68D00" stop-opacity="0"/><stop offset="1" stop-color="#F68D00" stop-opacity="0"/></radialGradient><radialGradient cx="77585.5" cy="84513" r="114726" fx="77585.5" fy="84513" gradientUnits="userSpaceOnUse" spreadMethod="pad" id="fill7" gradientTransform="matrix(0.000360892 0 0 0.000360892 2864 987)"><stop offset="0" stop-color="#FFFF00"/><stop offset="0.54" stop-color="#F68D00" stop-opacity="0"/><stop offset="1" stop-color="#F68D00" stop-opacity="0"/></radialGradient><linearGradient x1="2719" y1="643" x2="2719" y2="797" gradientUnits="userSpaceOnUse" spreadMethod="reflect" id="fill8"><stop offset="0" stop-color="#F5FAFF" stop-opacity="0.231373"/><stop offset="0.32" stop-color="#FFFFFF" stop-opacity="0"/><stop offset="1" stop-color="#FFFFFF" stop-opacity="0"/></linearGradient><clipPath id="clip9"><rect x="2483" y="685" width="483" height="484"/></clipPath><clipPath id="clip10"><rect x="2483" y="685" width="483" height="484"/></clipPath><clipPath id="clip11"><rect x="2483" y="685" width="483" height="484"/></clipPath></defs><g clip-path="url(#clip0)" transform="translate(-2446 -637)"><rect x="2446" y="637" width="550" height="550" fill="url(#fill1)"/><path d="M2466 813C2466 726.844 2526.44 657 2601 657 2675.56 657 2736 726.844 2736 813 2736 899.156 2675.56 969 2601 969 2526.44 969 2466 899.156 2466 813Z" fill="url(#fill2)" fill-rule="evenodd"/><path d="M2485 802.5C2485 782.342 2500.22 766 2519 766 2537.78 766 2553 782.342 2553 802.5 2553 822.658 2537.78 839 2519 839 2500.22 839 2485 822.658 2485 802.5Z" fill="url(#fill3)" fill-rule="evenodd"/><path d="M2514 854.5C2514 830.475 2531.91 811 2554 811 2576.09 811 2594 830.475 2594 854.5 2594 878.524 2576.09 898 2554 898 2531.91 898 2514 878.524 2514 854.5Z" fill="url(#fill4)" fill-rule="evenodd"/><path d="M2735 1042.5C2735 986.995 2782.23 942 2840.5 942 2898.77 942 2946 986.995 2946 1042.5 2946 1098 2898.77 1143 2840.5 1143 2782.23 1143 2735 1098 2735 1042.5Z" fill="url(#fill5)" fill-rule="evenodd"/><path d="M2880 1098C2880 1082.54 2891.64 1070 2906 1070 2920.36 1070 2932 1082.54 2932 1098 2932 1113.46 2920.36 1126 2906 1126 2891.64 1126 2880 1113.46 2880 1098Z" fill="url(#fill6)" fill-rule="evenodd"/><path d="M2864 1017.5C2864 1000.66 2876.54 987 2892 987 2907.46 987 2920 1000.66 2920 1017.5 2920 1034.34 2907.46 1048 2892 1048 2876.54 1048 2864 1034.34 2864 1017.5Z" fill="url(#fill7)" fill-rule="evenodd"/><path d="M2479.79 643 2958.21 643C2974.11 643 2987 662.864 2987 687.368L2987 797C2987 758.824 2966.92 727.876 2942.15 727.876L2495.85 727.876C2471.08 727.876 2451 758.824 2451 797L2451 687.368C2451 662.864 2463.89 643 2479.79 643Z" fill="url(#fill8)" fill-rule="evenodd"/><g clip-path="url(#clip9)"><g clip-path="url(#clip10)"><g clip-path="url(#clip11)"><path d="M440.206 108.407C435.034 105.833 428.556 104.536 428.556 104.536 426.266 104.035 421.085 103.278 417.359 103.278 390.131 103.278 361.413 127.436 345.893 163.398 336.937 184.158 333.693 206.026 336.754 224.988 339.868 244.249 349.146 259.422 362.893 266.406L348.597 298.112C345.594 298.989 342.644 300.17 339.897 301.987L284.934 338.374C284.934 338.374 206.127 219.729 205.93 219.459 196.651 202.826 167.1 186.303 138.705 194.275 71.8614 214.683 12.9272 339.945 5.87076 413.956L208.542 414.014 212.278 364.556 153.449 274.822C151.748 272.229 152.471 268.754 155.064 267.052 157.653 265.346 161.123 266.083 162.829 268.667L250.794 401.626C256.978 409.748 266.392 414.168 276.027 414.168 282.052 414.168 288.135 412.457 293.533 408.876L374.972 354.964C389.601 345.281 393.611 325.567 383.918 310.938 380.1 305.169 374.697 301.125 368.691 298.845L379.715 274.407C384.723 276.027 389.861 276.846 395.052 276.846 406.152 276.846 417.446 273.154 428.122 265.9 443.531 255.421 457.167 237.718 466.518 216.052 486.155 170.532 473.729 125.113 440.206 108.407ZM438.408 203.317C425.789 232.575 401.896 253.802 381.599 253.802 377.955 253.802 374.504 253.108 371.318 251.734 361.558 247.531 354.872 237.125 352.491 222.433 349.908 206.436 352.766 187.715 360.526 169.707 373.155 140.455 397.052 119.218 417.359 119.218 420.988 119.218 424.444 119.912 427.606 121.271 448.713 130.386 453.658 167.958 438.408 203.317Z" stroke="#FFC000" stroke-width="4.59048" fill="#0F1113" transform="matrix(1 0 0 1.00207 2484 685)"/><path d="M214.692 203.467C246.683 222.424 288.024 211.824 306.966 179.844 325.938 147.82 315.344 106.488 283.358 87.536 251.31 68.5548 210.007 79.154 191.036 111.178 172.079 143.164 182.644 184.49 214.692 203.467Z" stroke="#FFC000" stroke-width="4.59048" fill="#0F1113" transform="matrix(1 0 0 1.00207 2484 685)"/><path d="M398.556 156.226C404.422 150.533 410.437 148.114 415.05 149.589 417.745 150.437 420.02 152.577 421.803 155.946 423.104 158.376 426.107 159.311 428.551 158.009 430.99 156.717 431.906 153.695 430.619 151.261 427.601 145.578 423.259 141.713 418.063 140.069 409.71 137.413 400.315 140.609 391.606 149.058 383.696 156.737 377.078 168.069 372.976 180.972 370.46 188.93 369.019 197.157 368.812 204.763 368.735 207.52 370.913 209.81 373.67 209.887 373.714 209.887 373.762 209.887 373.801 209.887 376.5 209.887 378.712 207.742 378.784 205.028 378.968 198.343 380.245 191.07 382.496 183.989 386.101 172.633 391.803 162.776 398.556 156.226Z" stroke="#FFC000" stroke-width="4.59048" fill="#0F1113" transform="matrix(1 0 0 1.00207 2484 685)"/></g></g></g></g></svg>