<svg width="550" height="550" xmlns="http://www.w3.org/2000/svg" xmlns:xlink="http://www.w3.org/1999/xlink" overflow="hidden"><defs><clipPath id="clip0"><rect x="1253" y="40" width="550" height="550"/></clipPath><radialGradient cx="762000" cy="762000" r="1.07763e+06" gradientUnits="userSpaceOnUse" spreadMethod="pad" id="fill1" gradientTransform="matrix(0.000360892 0 0 0.000360892 1253 39.9999)"><stop offset="0" stop-color="#FFC000"/><stop offset="0.17" stop-color="#FFC000"/><stop offset="0.33" stop-color="#F68D00"/><stop offset="1" stop-color="#0F1113"/></radialGradient><radialGradient cx="374073" cy="432261" r="571647" fx="374073" fy="432262" gradientUnits="userSpaceOnUse" spreadMethod="pad" id="fill2" gradientTransform="matrix(0.000360892 0 0 0.000360892 1273 60.0002)"><stop offset="0" stop-color="#FFFF00"/><stop offset="0.54" stop-color="#F68D00" stop-opacity="0"/><stop offset="1" stop-color="#F68D00" stop-opacity="0"/></radialGradient><linearGradient x1="1526.5" y1="46.0001" x2="1526.5" y2="200" gradientUnits="userSpaceOnUse" spreadMethod="reflect" id="fill3"><stop offset="0" stop-color="#F5FAFF" stop-opacity="0.231373"/><stop offset="0.32" stop-color="#FFFFFF" stop-opacity="0"/><stop offset="1" stop-color="#FFFFFF" stop-opacity="0"/></linearGradient><radialGradient cx="94210.5" cy="102524" r="139236" gradientUnits="userSpaceOnUse" spreadMethod="pad" id="fill4" gradientTransform="matrix(0.000360892 0 0 0.000360892 1292 168)"><stop offset="0" stop-color="#FFFF00"/><stop offset="0.54" stop-color="#F68D00" stop-opacity="0"/><stop offset="1" stop-color="#F68D00" stop-opacity="0"/></radialGradient><radialGradient cx="110836" cy="120534" r="163748" gradientUnits="userSpaceOnUse" spreadMethod="pad" id="fill5" gradientTransform="matrix(0.000360892 0 0 0.000360892 1321 214)"><stop offset="0" stop-color="#FFFF00"/><stop offset="0.54" stop-color="#F68D00" stop-opacity="0"/><stop offset="1" stop-color="#F68D00" stop-opacity="0"/></radialGradient><radialGradient cx="292331" cy="278476" r="403740" gradientUnits="userSpaceOnUse" spreadMethod="pad" id="fill6" gradientTransform="matrix(0.000360892 0 0 0.000360892 1542 345)"><stop offset="0" stop-color="#FFFF00"/><stop offset="0.54" stop-color="#F68D00" stop-opacity="0"/><stop offset="1" stop-color="#F68D00" stop-opacity="0"/></radialGradient><radialGradient cx="72043.5" cy="77585.5" r="105876" fx="72043.5" fy="77585.5" gradientUnits="userSpaceOnUse" spreadMethod="pad" id="fill7" gradientTransform="matrix(0.000360892 0 0 0.000360892 1687 473)"><stop offset="0" stop-color="#FFFF00"/><stop offset="0.54" stop-color="#F68D00" stop-opacity="0"/><stop offset="1" stop-color="#F68D00" stop-opacity="0"/></radialGradient><radialGradient cx="77585.5" cy="83127" r="113708" gradientUnits="userSpaceOnUse" spreadMethod="pad" id="fill8" gradientTransform="matrix(0.000360892 0 0 0.000360892 1671 390)"><stop offset="0" stop-color="#FFFF00"/><stop offset="0.54" stop-color="#F68D00" stop-opacity="0"/><stop offset="1" stop-color="#F68D00" stop-opacity="0"/></radialGradient><clipPath id="clip9"><rect x="1287" y="84" width="487" height="487"/></clipPath><clipPath id="clip10"><rect x="1287" y="84" width="487" height="487"/></clipPath><clipPath id="clip11"><rect x="1287" y="84" width="487" height="487"/></clipPath></defs><g clip-path="url(#clip0)" transform="translate(-1253 -40)"><rect x="1253" y="39.9999" width="550" height="550" fill="url(#fill1)"/><path d="M1273 216C1273 129.844 1333.44 60.0002 1408 60.0002 1482.56 60.0002 1543 129.844 1543 216 1543 302.156 1482.56 372 1408 372 1333.44 372 1273 302.156 1273 216Z" fill="url(#fill2)" fill-rule="evenodd"/><path d="M1287.73 46.0001 1765.27 46.0001C1781.14 46.0001 1794 65.864 1794 90.3677L1794 200C1794 161.824 1773.96 130.876 1749.23 130.876L1303.77 130.876C1279.04 130.876 1259 161.824 1259 200L1259 90.3677C1259 65.864 1271.86 46.0001 1287.73 46.0001Z" fill="url(#fill3)" fill-rule="evenodd"/><path d="M1292 205C1292 184.566 1307.22 168 1326 168 1344.78 168 1360 184.566 1360 205 1360 225.435 1344.78 242 1326 242 1307.22 242 1292 225.435 1292 205Z" fill="url(#fill4)" fill-rule="evenodd"/><path d="M1321 257.5C1321 233.476 1338.91 214 1361 214 1383.09 214 1401 233.476 1401 257.5 1401 281.525 1383.09 301 1361 301 1338.91 301 1321 281.525 1321 257.5Z" fill="url(#fill5)" fill-rule="evenodd"/><path d="M1542 445.5C1542 389.995 1589.23 345 1647.5 345 1705.77 345 1753 389.995 1753 445.5 1753 501.005 1705.77 546 1647.5 546 1589.23 546 1542 501.005 1542 445.5Z" fill="url(#fill6)" fill-rule="evenodd"/><path d="M1687 501C1687 485.536 1698.64 473 1713 473 1727.36 473 1739 485.536 1739 501 1739 516.464 1727.36 529 1713 529 1698.64 529 1687 516.464 1687 501Z" fill="url(#fill7)" fill-rule="evenodd"/><path d="M1671 420C1671 403.432 1683.54 390 1699 390 1714.46 390 1727 403.432 1727 420 1727 436.569 1714.46 450 1699 450 1683.54 450 1671 436.569 1671 420Z" fill="url(#fill8)" fill-rule="evenodd"/><g clip-path="url(#clip9)"><g clip-path="url(#clip10)"><g clip-path="url(#clip11)"><path d="M1494.87 410.412 1504.38 431.587C1504.77 432.366 1505.37 433.018 1506.12 433.462L1506.81 433.809 1506.81 433.809C1507.75 434.154 1508.79 434.154 1509.73 433.809L1523.61 426.241 1494.45 403.747 1490.22 400.414Z" stroke="#FFC000" stroke-width="4.59575" fill="#0F1113"/><path d="M1609.57 292.175 1609.57 280.302 1600.75 280.302C1599.11 297.864 1583.54 310.769 1565.97 309.126 1550.69 307.696 1538.58 295.59 1537.15 280.302L1519.79 280.302C1517.96 297.845 1502.25 310.578 1484.71 308.741 1469.7 307.17 1457.84 295.309 1456.27 280.302L1447.38 280.302 1447.38 292.8C1447.49 314.123 1456.02 334.539 1471.12 349.592 1474.91 353.289 1478.99 356.657 1483.34 359.659L1484.8 360.493C1486.26 361.465 1487.72 362.298 1489.25 363.2L1492.23 364.728 1495.49 366.255 1498.69 367.644 1502.65 369.032 1506.81 370.351 1511.53 371.532 1514.31 372.018 1518.96 372.712 1521.32 372.712C1523.75 372.712 1526.11 373.059 1528.26 373.059 1530.42 373.059 1533.19 373.059 1535.62 372.712L1537.71 372.712C1539.65 372.712 1541.46 372.226 1543.33 371.879L1545.14 371.879C1547.5 371.393 1549.86 370.768 1552.08 370.074L1552.91 370.074C1554.92 369.379 1556.94 368.685 1558.95 367.852L1560.55 367.158C1562.42 366.325 1564.23 365.491 1566.03 364.519L1567.07 363.964C1593.39 349.701 1609.72 322.109 1609.57 292.175Z" stroke="#FFC000" stroke-width="4.59575" fill="#0F1113"/><path d="M1616.58 251.629 1616.58 290.995C1627.45 289.05 1634.68 278.661 1632.74 267.791 1631.27 259.552 1624.82 253.102 1616.58 251.629Z" stroke="#FFC000" stroke-width="4.59575" fill="#0F1113"/><path d="M1550.06 433.531 1550.06 433.531C1550.66 433.84 1551.34 433.983 1552.01 433.948 1552.42 434.017 1552.84 434.017 1553.26 433.948 1553.79 433.754 1554.28 433.473 1554.72 433.115 1555.12 432.736 1555.44 432.289 1555.69 431.796L1559.78 420.895 1567.63 400.067 1558.33 407.704 1536.18 425.894Z" stroke="#FFC000" stroke-width="4.59575" fill="#0F1113"/><path d="M1447.94 183.519C1418.01 190.462 1407.18 199.696 1407.18 205.736 1407.18 213.234 1421.07 221.219 1444.46 227.051L1444.46 227.051C1453.62 229.294 1462.89 231.055 1472.24 232.327L1473.69 232.327 1482.44 233.369 1485.08 233.369 1493.2 234.133 1497.23 234.133 1504.59 234.618 1510.49 234.618 1516.39 234.618 1528.82 234.618 1541.11 234.618 1546.39 234.618 1552.91 234.618 1559.23 234.202 1564.3 233.855 1570.89 233.23 1575.13 232.813C1577.42 232.813 1579.71 232.327 1582.07 231.98L1585.54 231.564 1592.49 230.453 1594.78 230.106 1602.83 228.578 1603.25 228.578C1606.23 227.953 1609.08 227.328 1611.79 226.634L1611.79 226.634C1636.02 220.733 1650.39 212.748 1650.39 204.973 1650.39 198.863 1639.42 189.559 1608.73 182.547L1609.43 184.63C1612.08 191.986 1608.56 200.14 1601.37 203.237 1592.16 207.189 1582.67 210.461 1572.98 213.026 1558.36 216.874 1543.31 218.834 1528.19 218.858 1502.83 218.706 1477.76 213.366 1454.53 203.167 1453.78 202.831 1453.06 202.436 1452.38 201.987 1446.51 198.33 1444.01 191.05 1446.41 184.56Z" stroke="#FFC000" stroke-width="4.59575" fill="#0F1113"/><path d="M1543.12 437.628 1530 430.685 1517.02 437.628 1524.58 446.792C1525.13 447.452 1525.41 448.297 1525.35 449.153L1520.84 546.7 1539.79 546.7 1540.97 544.825 1535.62 448.528C1535.57 447.684 1535.81 446.846 1536.32 446.167Z" stroke="#FFC000" stroke-width="4.59575" fill="#0F1113"/><path d="M1571.66 368.824 1570.89 368.824C1567.92 370.513 1564.84 371.998 1561.66 373.267L1560.9 373.267C1557.57 374.586 1554.16 375.699 1550.69 376.6L1550.69 376.6C1528.65 382.525 1505.16 379.558 1485.29 368.338L1484.66 368.338 1484.66 386.806 1529.72 421.52 1550.13 404.649 1571.66 387.292Z" stroke="#FFC000" stroke-width="4.59575" fill="#0F1113"/><path d="M1604.43 236.215 1598.11 237.465 1596.37 237.465C1578.01 240.498 1559.44 242.215 1540.83 242.603L1540.83 242.603 1529.1 242.603C1509.99 242.641 1490.9 241.412 1471.96 238.923L1470.57 238.923 1462.79 237.743 1458.35 236.979 1454.53 236.285 1447.59 234.757 1447.59 273.221 1456.48 273.221C1458.31 255.678 1474.02 242.946 1491.56 244.782 1506.57 246.353 1518.43 258.214 1520 273.221L1536.94 273.221C1538.59 255.659 1554.15 242.754 1571.72 244.398 1587 245.828 1599.11 257.933 1600.54 273.221L1609.36 273.221 1609.36 235.035 1609.15 235.035Z" stroke="#FFC000" stroke-width="4.59575" fill="#0F1113"/><path d="M1458.07 197.544C1494.11 213.604 1534.54 216.909 1572.7 206.916 1581.82 204.467 1590.76 201.358 1599.43 197.613 1603.2 195.904 1605.04 191.592 1603.66 187.685L1602.62 184.769 1600.82 179.77 1600.82 179.77 1577.21 114.507C1576.46 112.369 1574.81 110.667 1572.7 109.855 1570.65 108.92 1568.29 108.92 1566.24 109.855L1535.69 126.657C1531.36 128.977 1526.15 128.977 1521.81 126.657L1491.26 110.411C1490.11 109.843 1488.86 109.534 1487.58 109.508 1486.63 109.525 1485.69 109.713 1484.8 110.064 1482.66 110.85 1480.97 112.557 1480.22 114.715L1456.54 180.186 1456.54 180.186 1453.63 187.685C1452.25 191.63 1454.2 195.966 1458.07 197.544Z" stroke="#FFC000" stroke-width="4.59575" fill="#0F1113"/><path d="M1440.44 291.272 1440.44 251.976C1429.59 253.806 1422.27 264.087 1424.1 274.939 1425.52 283.305 1432.07 289.861 1440.44 291.272Z" stroke="#FFC000" stroke-width="4.59575" fill="#0F1113"/><path d="M1574.23 546.7C1580.79 540.903 1586.6 534.302 1591.51 527.052L1591.51 526.635C1592.35 525.385 1593.18 524.066 1594.01 522.678 1594.24 522.378 1594.42 522.052 1594.57 521.706L1596.79 517.887 1597.42 516.637C1598.11 515.318 1598.73 513.999 1599.36 512.611L1600.05 511.222C1600.68 509.833 1601.23 508.375 1601.79 506.917 1602 506.443 1602.19 505.957 1602.34 505.459 1602.98 503.845 1603.54 502.2 1604.01 500.53 1604.05 500.161 1604.05 499.788 1604.01 499.419 1605.31 495.01 1606.26 490.507 1606.86 485.95L1604.01 479.007 1597.55 464.011C1596.85 462.302 1597.57 460.336 1599.22 459.498L1599.22 459.498 1621.37 448.597 1621.37 397.845C1609.75 394.314 1597.68 392.49 1585.54 392.43L1579.22 392.43C1579.13 419.444 1576.81 446.404 1572.28 473.036 1572.28 473.661 1572.28 474.355 1572.28 475.05 1571.66 478.382 1571.03 481.993 1570.34 485.047L1569.71 487.894C1569.02 490.949 1568.32 493.934 1567.56 496.989 1567.56 498.1 1567.01 499.28 1566.66 500.461 1566.31 501.641 1565.69 504.14 1565.13 506.015 1564.58 507.889 1563.81 510.458 1563.12 512.958L1561.45 518.026C1560.76 519.901 1560.13 521.775 1559.44 523.58 1558.74 525.385 1557.98 527.329 1557.15 529.204L1555.06 534.133 1552.49 539.549C1551.59 541.215 1550.76 542.951 1549.79 544.617 1548.82 546.283 1549.02 546.145 1548.61 546.839L1548.61 546.839Z" stroke="#FFC000" stroke-width="4.59575" fill="#0F1113"/><path d="M1571.66 409.093 1565.41 425.547 1562.15 434.295C1561.82 435.026 1561.42 435.723 1560.97 436.378L1559.65 437.836 1559.65 437.836C1558.53 438.873 1557.2 439.655 1555.76 440.127L1555.41 440.127C1554.46 440.392 1553.48 440.555 1552.49 440.613L1552.49 440.613 1551.04 440.613 1550 440.613 1543.05 449.361 1547.7 532.675C1565.62 493.518 1570.34 438.391 1571.66 409.093Z" stroke="#FFC000" stroke-width="4.59575" fill="#0F1113"/><path d="M1710.51 517.957C1710.82 465.297 1678.09 418.095 1628.66 399.928L1628.66 450.75C1628.64 452.072 1627.9 453.278 1626.71 453.874L1605.89 464.288 1611.23 476.647 1614.29 483.589C1614.46 484.179 1614.46 484.805 1614.29 485.395 1613.87 488.781 1613.27 492.142 1612.48 495.462L1612.06 497.336C1611.3 500.252 1610.47 503.099 1609.57 505.807L1609.57 506.431C1608.52 509.417 1607.34 512.194 1606.09 514.902L1605.47 516.221C1604.36 518.512 1603.25 520.734 1602.07 523.164 1602.07 523.164 1601.72 523.789 1601.51 524.136 1600.12 526.496 1598.73 528.718 1597.28 531.079L1597.28 531.079C1595.96 533.092 1594.57 534.897 1593.25 536.633L1592.76 537.258C1590.25 540.44 1587.57 543.476 1584.71 546.353L1710.51 546.353Z" stroke="#FFC000" stroke-width="4.59575" fill="#0F1113"/><path d="M1510.49 534.689C1511.53 536.702 1512.5 538.716 1513.61 540.66 1513.61 541.007 1513.61 541.285 1514.1 541.632L1518.34 450.125 1510.56 440.683 1509.59 440.683 1508.06 440.683 1508.06 440.683C1507.07 440.685 1506.09 440.545 1505.14 440.266L1504.73 440.266C1504.13 440.031 1503.55 439.752 1502.99 439.433L1502.99 439.433C1501.35 438.473 1500.01 437.08 1499.1 435.406L1498.55 434.503 1485.15 405.76 1485.15 405.76C1485.15 407.496 1485.15 409.37 1485.15 411.314L1485.15 412.147C1485.15 413.814 1485.15 415.619 1485.15 417.493 1485.15 417.979 1485.15 418.465 1485.15 418.951 1485.15 421.173 1485.15 423.395 1485.57 425.894L1485.57 425.894C1485.57 428.116 1485.91 430.338 1486.12 432.837 1486.09 433.461 1486.09 434.088 1486.12 434.712L1486.75 441.655C1486.75 441.655 1486.75 442.279 1486.75 442.627 1486.75 445.195 1487.3 447.834 1487.65 450.472L1487.65 452.347C1487.65 454.568 1488.27 456.859 1488.62 459.289L1488.62 460.886C1489.04 463.663 1489.45 466.441 1489.94 469.218 1489.91 469.75 1489.91 470.283 1489.94 470.815 1490.36 473.175 1490.77 475.605 1491.26 477.757 1491.23 478.405 1491.23 479.054 1491.26 479.701 1491.81 482.548 1492.44 485.464 1493.06 488.311L1493.06 489.005C1493.62 491.643 1494.24 494.212 1494.94 496.85L1495.42 498.794C1496.95 504.487 1498.62 510.042 1500.49 515.457L1501.12 517.332C1501.95 519.692 1502.85 521.983 1503.76 524.275L1504.17 525.385C1505.21 527.954 1506.32 530.523 1507.51 532.953Z" stroke="#FFC000" stroke-width="4.59575" fill="#0F1113"/><path d="M1569.02 251.629C1555.1 251.59 1543.79 262.843 1543.75 276.762 1543.71 290.681 1554.96 301.995 1568.88 302.034 1582.8 302.072 1594.11 290.82 1594.15 276.901 1594.15 276.878 1594.15 276.854 1594.15 276.831 1594.11 262.955 1582.89 251.705 1569.02 251.629Z" stroke="#FFC000" stroke-width="4.59575" fill="#0F1113"/><path d="M1488.34 251.629C1474.42 251.59 1463.11 262.843 1463.07 276.762 1463.03 290.681 1474.29 301.995 1488.2 302.034 1502.12 302.072 1513.44 290.82 1513.48 276.901 1513.48 276.878 1513.48 276.854 1513.48 276.831 1513.44 262.955 1502.22 251.705 1488.34 251.629Z" stroke="#FFC000" stroke-width="4.59575" fill="#0F1113"/><path d="M1482.65 546.7 1509.17 546.7 1509.17 546.7C1507.57 543.923 1506.12 541.007 1504.66 538.091 1504.66 537.605 1504.17 537.119 1503.96 536.563 1502.58 533.647 1501.26 530.662 1500.01 527.538 1500.01 526.913 1499.52 526.288 1499.24 525.594 1498.06 522.539 1496.88 519.415 1495.84 516.221L1495.22 514.346C1494.17 511.014 1493.13 507.403 1492.16 504.279 1492.16 504.279 1492.16 503.793 1492.16 503.585 1491.19 500.252 1490.36 496.642 1489.59 493.587L1488.34 491.643C1487.58 488.241 1486.88 484.7 1486.19 481.507L1485.77 479.493C1485.15 476.161 1484.52 472.55 1483.97 469.565 1484.01 468.964 1484.01 468.361 1483.97 467.76 1483.41 464.358 1482.93 460.817 1482.44 457.693 1482.44 457.693 1482.44 457.207 1482.44 456.929 1482.02 453.666 1481.61 450.472 1481.26 447.348 1481.27 446.905 1481.32 446.463 1481.4 446.029 1481.05 442.904 1480.71 439.849 1480.43 436.864 1480.46 436.309 1480.46 435.752 1480.43 435.198 1480.43 432.282 1479.94 429.435 1479.73 426.727 1479.73 426.241 1479.73 425.755 1479.73 425.339 1479.73 422.492 1479.39 419.785 1479.25 417.285L1479.25 417.285C1479.25 414.647 1479.25 412.147 1478.9 409.856L1478.9 409.37C1478.9 407.079 1478.9 404.996 1478.9 403.052L1478.9 402.219C1478.9 400.345 1478.9 398.609 1478.9 397.081L1478.9 397.081C1478.9 395.485 1478.9 394.096 1478.9 392.985L1474.46 392.985C1461.25 392.97 1448.13 395.055 1435.58 399.164L1434.67 399.164 1434.67 449.153 1437.66 450.611 1457.1 459.914C1458.31 460.502 1459.05 461.762 1458.97 463.108 1459.07 463.542 1459.07 463.993 1458.97 464.427L1449.67 486.019C1449.67 486.922 1449.67 487.686 1450.09 488.519 1450.5 489.352 1450.5 491.296 1450.78 492.615 1451.06 493.934 1451.41 495.045 1451.68 496.295 1451.96 497.545 1452.1 498.031 1452.38 498.864 1452.66 499.697 1453.14 501.502 1453.56 502.752 1453.98 504.001 1453.98 504.071 1454.25 504.765 1454.53 505.459 1455.23 507.403 1455.78 508.653L1456.41 510.25C1456.96 511.569 1457.59 512.888 1458.21 514.207L1458.7 515.249C1459.39 516.637 1460.09 517.957 1460.85 519.276L1460.85 519.762C1466.56 529.895 1473.93 539.001 1482.65 546.7Z" stroke="#FFC000" stroke-width="4.59575" fill="#0F1113"/><path d="M1349.49 546.7 1472.44 546.7 1471.82 546.006C1471 545.245 1470.24 544.434 1469.53 543.576L1468 541.909C1466.98 540.752 1465.94 539.502 1464.88 538.16L1463.35 536.286 1460.57 532.606 1459.18 530.662C1457.93 528.787 1456.75 526.843 1455.5 524.761L1454.39 522.4C1453.49 520.803 1452.66 519.206 1451.82 517.471L1450.57 514.832C1449.46 512.402 1448.42 509.903 1447.52 507.265 1447.52 506.57 1447.03 505.807 1446.76 505.043 1446.06 502.891 1445.44 500.669 1444.81 498.1 1444.81 497.128 1444.33 496.087 1444.05 495.045 1443.39 492.135 1442.88 489.192 1442.52 486.228 1442.49 485.997 1442.49 485.764 1442.52 485.533 1442.35 484.944 1442.35 484.318 1442.52 483.728L1450.92 464.288 1438.77 458.248 1429.75 453.874C1428.58 453.271 1427.85 452.062 1427.87 450.75L1427.87 401.455C1380.48 420.739 1349.5 466.797 1349.49 517.957Z" stroke="#FFC000" stroke-width="4.59575" fill="#0F1113"/></g></g></g></g></svg>