<svg width="550" height="550" xmlns="http://www.w3.org/2000/svg" xmlns:xlink="http://www.w3.org/1999/xlink" overflow="hidden"><defs><clipPath id="clip0"><rect x="43" y="40" width="550" height="550"/></clipPath><radialGradient cx="762000" cy="762000" r="1.07763e+06" gradientUnits="userSpaceOnUse" spreadMethod="pad" id="fill1" gradientTransform="matrix(0.000360892 0 0 0.000360892 43 39.9999)"><stop offset="0" stop-color="#FFC000"/><stop offset="0.17" stop-color="#FFC000"/><stop offset="0.33" stop-color="#F68D00"/><stop offset="1" stop-color="#0F1113"/></radialGradient><radialGradient cx="374073" cy="432261" r="571647" fx="374073" fy="432262" gradientUnits="userSpaceOnUse" spreadMethod="pad" id="fill2" gradientTransform="matrix(0.000360892 0 0 0.000360892 62.9999 60.0002)"><stop offset="0" stop-color="#FFFF00"/><stop offset="0.54" stop-color="#F68D00" stop-opacity="0"/><stop offset="1" stop-color="#F68D00" stop-opacity="0"/></radialGradient><linearGradient x1="316" y1="46.0001" x2="316" y2="200" gradientUnits="userSpaceOnUse" spreadMethod="reflect" id="fill3"><stop offset="0" stop-color="#F5FAFF" stop-opacity="0.231373"/><stop offset="0.32" stop-color="#FFFFFF" stop-opacity="0"/><stop offset="1" stop-color="#FFFFFF" stop-opacity="0"/></linearGradient><radialGradient cx="94210.5" cy="102524" r="139236" gradientUnits="userSpaceOnUse" spreadMethod="pad" id="fill4" gradientTransform="matrix(0.000360892 0 0 0.000360892 82.0002 168)"><stop offset="0" stop-color="#FFFF00"/><stop offset="0.54" stop-color="#F68D00" stop-opacity="0"/><stop offset="1" stop-color="#F68D00" stop-opacity="0"/></radialGradient><radialGradient cx="110836" cy="120534" r="163748" gradientUnits="userSpaceOnUse" spreadMethod="pad" id="fill5" gradientTransform="matrix(0.000360892 0 0 0.000360892 111 214)"><stop offset="0" stop-color="#FFFF00"/><stop offset="0.54" stop-color="#F68D00" stop-opacity="0"/><stop offset="1" stop-color="#F68D00" stop-opacity="0"/></radialGradient><radialGradient cx="292331" cy="278476" r="403740" gradientUnits="userSpaceOnUse" spreadMethod="pad" id="fill6" gradientTransform="matrix(0.000360892 0 0 0.000360892 332 345)"><stop offset="0" stop-color="#FFFF00"/><stop offset="0.54" stop-color="#F68D00" stop-opacity="0"/><stop offset="1" stop-color="#F68D00" stop-opacity="0"/></radialGradient><radialGradient cx="72043.5" cy="77585.5" r="105876" fx="72043.5" fy="77585.5" gradientUnits="userSpaceOnUse" spreadMethod="pad" id="fill7" gradientTransform="matrix(0.000360892 0 0 0.000360892 477 473)"><stop offset="0" stop-color="#FFFF00"/><stop offset="0.54" stop-color="#F68D00" stop-opacity="0"/><stop offset="1" stop-color="#F68D00" stop-opacity="0"/></radialGradient><radialGradient cx="77585.5" cy="83127" r="113708" gradientUnits="userSpaceOnUse" spreadMethod="pad" id="fill8" gradientTransform="matrix(0.000360892 0 0 0.000360892 461 390)"><stop offset="0" stop-color="#FFFF00"/><stop offset="0.54" stop-color="#F68D00" stop-opacity="0"/><stop offset="1" stop-color="#F68D00" stop-opacity="0"/></radialGradient></defs><g clip-path="url(#clip0)" transform="translate(-43 -40)"><rect x="43" y="39.9999" width="550" height="550" fill="url(#fill1)"/><path d="M62.9999 216C62.9999 129.844 123.441 60.0002 198 60.0002 272.558 60.0002 333 129.844 333 216 333 302.156 272.558 372 198 372 123.441 372 62.9999 302.156 62.9999 216Z" fill="url(#fill2)" fill-rule="evenodd"/><path d="M76.7875 46.0001 555.213 46.0001C571.112 46.0001 584 65.864 584 90.3677L584 200C584 161.824 563.92 130.876 539.15 130.876L92.8505 130.876C68.0803 130.876 48.0001 161.824 48.0001 200L48.0001 90.3677C48.0001 65.864 60.8886 46.0001 76.7875 46.0001Z" fill="url(#fill3)" fill-rule="evenodd"/><path d="M82.0002 205C82.0002 184.566 97.2224 168 116 168 134.778 168 150 184.566 150 205 150 225.435 134.778 242 116 242 97.2224 242 82.0002 225.435 82.0002 205Z" fill="url(#fill4)" fill-rule="evenodd"/><path d="M111 257.5C111 233.476 128.909 214 151 214 173.091 214 191 233.476 191 257.5 191 281.525 173.091 301 151 301 128.909 301 111 281.525 111 257.5Z" fill="url(#fill5)" fill-rule="evenodd"/><path d="M332 445.5C332 389.995 379.234 345 437.5 345 495.766 345 543 389.995 543 445.5 543 501.005 495.766 546 437.5 546 379.234 546 332 501.005 332 445.5Z" fill="url(#fill6)" fill-rule="evenodd"/><path d="M477 501C477 485.536 488.641 473 503 473 517.359 473 529 485.536 529 501 529 516.464 517.359 529 503 529 488.641 529 477 516.464 477 501Z" fill="url(#fill7)" fill-rule="evenodd"/><path d="M461 420C461 403.432 473.536 390 489 390 504.464 390 517 403.432 517 420 517 436.569 504.464 450 489 450 473.536 450 461 436.569 461 420Z" fill="url(#fill8)" fill-rule="evenodd"/><path d="M108.5 281.501C108.5 262.723 123.723 247.5 142.501 247.5L142.5 247.5 142.5 247.5 193.5 247.5 278.499 247.5C297.277 247.5 312.5 262.723 312.5 281.501L312.5 379.917 312.5 379.917 312.5 436.667 312.5 440.499C312.5 459.277 297.277 474.5 278.499 474.5L193.5 474.5 143.49 521.119 142.5 474.5 142.501 474.5C123.723 474.5 108.5 459.277 108.5 440.499L108.5 436.667 108.5 379.917 108.5 379.917Z" stroke="#FFC000" stroke-width="4.58333" stroke-miterlimit="8" fill="#0F1113" fill-rule="evenodd"/><text fill="#FFC000" font-family="Aurebesh,Aurebesh_MSFontService,sans-serif" font-weight="400" font-size="165" transform="matrix(1 0 0 1 154.146 416)">$</text><path d="M326.5 159.334C326.5 140.648 341.648 125.5 360.334 125.5L444.917 125.5 444.917 125.5 495.667 125.5 495.666 125.5C514.352 125.5 529.5 140.648 529.5 159.334L529.5 257.917 529.5 257.917 529.5 314.667 529.5 318.666C529.5 337.352 514.352 352.5 495.666 352.5L495.667 352.5 492.741 394.411 444.917 352.5 360.334 352.5C341.648 352.5 326.5 337.352 326.5 318.666L326.5 314.667 326.5 257.917 326.5 257.917Z" stroke="#FFC000" stroke-width="4.58333" stroke-miterlimit="8" fill="#0F1113" fill-rule="evenodd"/><path d="M438.813 170.5 438.813 256.292 418.188 256.292 418.188 170.5ZM480.063 245.979 428.501 307.855 376.938 245.98Z" fill="#FFC000"/></g></svg>