<svg width="550" height="550" xmlns="http://www.w3.org/2000/svg" xmlns:xlink="http://www.w3.org/1999/xlink" overflow="hidden"><defs><clipPath id="clip0"><rect x="1252" y="637" width="550" height="550"/></clipPath><radialGradient cx="762000" cy="762000" r="1.07763e+06" gradientUnits="userSpaceOnUse" spreadMethod="pad" id="fill1" gradientTransform="matrix(0.000360892 0 0 0.000360892 1252 637)"><stop offset="0" stop-color="#FFC000"/><stop offset="0.17" stop-color="#FFC000"/><stop offset="0.33" stop-color="#F68D00"/><stop offset="1" stop-color="#0F1113"/></radialGradient><radialGradient cx="374073" cy="432262" r="571648" fx="374073" fy="432262" gradientUnits="userSpaceOnUse" spreadMethod="pad" id="fill2" gradientTransform="matrix(0.000360892 0 0 0.000360892 1272 657)"><stop offset="0" stop-color="#FFFF00"/><stop offset="0.54" stop-color="#F68D00" stop-opacity="0"/><stop offset="1" stop-color="#F68D00" stop-opacity="0"/></radialGradient><radialGradient cx="95596" cy="101139" r="139168" fx="95596" fy="101138" gradientUnits="userSpaceOnUse" spreadMethod="pad" id="fill3" gradientTransform="matrix(0.000360892 0 0 0.000360892 1290 766)"><stop offset="0" stop-color="#FFFF00"/><stop offset="0.54" stop-color="#F68D00" stop-opacity="0"/><stop offset="1" stop-color="#F68D00" stop-opacity="0"/></radialGradient><radialGradient cx="112222" cy="120534" r="164689" gradientUnits="userSpaceOnUse" spreadMethod="pad" id="fill4" gradientTransform="matrix(0.000360892 0 0 0.000360892 1319 811)"><stop offset="0" stop-color="#FFFF00"/><stop offset="0.54" stop-color="#F68D00" stop-opacity="0"/><stop offset="1" stop-color="#F68D00" stop-opacity="0"/></radialGradient><radialGradient cx="292331" cy="278477" r="403741" fx="292331" fy="278476" gradientUnits="userSpaceOnUse" spreadMethod="pad" id="fill5" gradientTransform="matrix(0.000360892 0 0 0.000360892 1541 942)"><stop offset="0" stop-color="#FFFF00"/><stop offset="0.54" stop-color="#F68D00" stop-opacity="0"/><stop offset="1" stop-color="#F68D00" stop-opacity="0"/></radialGradient><radialGradient cx="72043.5" cy="77585.5" r="105876" fx="72043.5" fy="77585.5" gradientUnits="userSpaceOnUse" spreadMethod="pad" id="fill6" gradientTransform="matrix(0.000360892 0 0 0.000360892 1686 1070)"><stop offset="0" stop-color="#FFFF00"/><stop offset="0.54" stop-color="#F68D00" stop-opacity="0"/><stop offset="1" stop-color="#F68D00" stop-opacity="0"/></radialGradient><radialGradient cx="77585.5" cy="84513" r="114726" fx="77585.5" fy="84513" gradientUnits="userSpaceOnUse" spreadMethod="pad" id="fill7" gradientTransform="matrix(0.000360892 0 0 0.000360892 1670 987)"><stop offset="0" stop-color="#FFFF00"/><stop offset="0.54" stop-color="#F68D00" stop-opacity="0"/><stop offset="1" stop-color="#F68D00" stop-opacity="0"/></radialGradient><linearGradient x1="1524.5" y1="643" x2="1524.5" y2="797" gradientUnits="userSpaceOnUse" spreadMethod="reflect" id="fill8"><stop offset="0" stop-color="#F5FAFF" stop-opacity="0.231373"/><stop offset="0.32" stop-color="#FFFFFF" stop-opacity="0"/><stop offset="1" stop-color="#FFFFFF" stop-opacity="0"/></linearGradient><clipPath id="clip9"><rect x="1271" y="660" width="514" height="513"/></clipPath><clipPath id="clip10"><rect x="1271" y="660" width="514" height="513"/></clipPath><clipPath id="clip11"><rect x="1271" y="660" width="514" height="513"/></clipPath></defs><g clip-path="url(#clip0)" transform="translate(-1252 -637)"><rect x="1252" y="637" width="550" height="550" fill="url(#fill1)"/><path d="M1272 813C1272 726.844 1332.44 657 1407 657 1481.56 657 1542 726.844 1542 813 1542 899.156 1481.56 969 1407 969 1332.44 969 1272 899.156 1272 813Z" fill="url(#fill2)" fill-rule="evenodd"/><path d="M1290 802.5C1290 782.342 1305.45 766 1324.5 766 1343.55 766 1359 782.342 1359 802.5 1359 822.658 1343.55 839 1324.5 839 1305.45 839 1290 822.658 1290 802.5Z" fill="url(#fill3)" fill-rule="evenodd"/><path d="M1319 854.5C1319 830.475 1337.13 811 1359.5 811 1381.87 811 1400 830.475 1400 854.5 1400 878.524 1381.87 898 1359.5 898 1337.13 898 1319 878.524 1319 854.5Z" fill="url(#fill4)" fill-rule="evenodd"/><path d="M1541 1042.5C1541 986.995 1588.23 942 1646.5 942 1704.77 942 1752 986.995 1752 1042.5 1752 1098 1704.77 1143 1646.5 1143 1588.23 1143 1541 1098 1541 1042.5Z" fill="url(#fill5)" fill-rule="evenodd"/><path d="M1686 1098C1686 1082.54 1697.64 1070 1712 1070 1726.36 1070 1738 1082.54 1738 1098 1738 1113.46 1726.36 1126 1712 1126 1697.64 1126 1686 1113.46 1686 1098Z" fill="url(#fill6)" fill-rule="evenodd"/><path d="M1670 1017.5C1670 1000.66 1682.54 987 1698 987 1713.46 987 1726 1000.66 1726 1017.5 1726 1034.34 1713.46 1048 1698 1048 1682.54 1048 1670 1034.34 1670 1017.5Z" fill="url(#fill7)" fill-rule="evenodd"/><path d="M1285.73 643 1763.27 643C1779.14 643 1792 662.864 1792 687.368L1792 797C1792 758.824 1771.96 727.876 1747.23 727.876L1301.77 727.876C1277.04 727.876 1257 758.824 1257 797L1257 687.368C1257 662.864 1269.86 643 1285.73 643Z" fill="url(#fill8)" fill-rule="evenodd"/><g clip-path="url(#clip9)"><g clip-path="url(#clip10)"><g clip-path="url(#clip11)"><path d="M446.925 187.136C446.362 190.874 443.546 193.946 439.757 194.765 439.296 194.867 413.287 200.499 373.197 205.67L373.197 217.856C381.645 225.485 384.922 239.309 381.389 254.413 377.498 270.797 367.309 282.419 354.304 286.055 348.57 343.45 282.112 379.443 253.286 379.443 224.461 379.443 158.003 343.45 152.166 286.055 139.162 282.419 128.973 270.797 125.082 254.413 121.549 239.309 124.826 225.485 133.274 217.856L133.274 205.67C93.184 200.499 67.1744 194.867 66.7136 194.765 62.976 193.946 60.16 190.925 59.5456 187.136 59.0848 183.245 60.8256 179.507 64.256 177.664L144.742 133.018 189.645 43.264C190.822 40.9088 192.922 39.168 195.482 38.4512 198.042 37.7344 200.755 38.1952 202.957 39.7312L253.235 73.2672 303.36 39.7312C305.562 38.3488 308.378 37.8368 310.835 38.4512 313.395 39.168 315.546 40.9088 316.672 43.264L361.575 133.018 442.061 177.664C445.645 179.558 447.539 183.296 446.925 187.136Z" stroke="#FFC000" stroke-width="4.58166" fill="#0F1113" transform="matrix(1 0 0 1.00195 1272 660)"/><path d="M474.727 411.648 474.727 471.655C474.727 476.826 470.631 480.922 465.459 480.922L41.1648 480.922C36.1472 480.922 32 476.826 32 471.655L32 411.648C32 366.746 65.28 348.621 85.1968 338.79 86.3744 319.949 87.296 301.312 87.296 287.232 87.296 282.215 91.392 277.965 96.5632 277.965L124.211 277.965C129.229 277.965 133.376 282.163 133.376 287.232 133.376 348.519 204.134 404.531 260.966 436.019 285.696 433.203 364.647 355.175 373.351 286.055 373.914 281.498 377.805 277.965 382.515 277.965L410.163 277.965C415.181 277.965 419.431 282.163 419.431 287.232 419.431 301.312 420.25 319.693 421.427 338.432 441.088 348.263 474.727 366.336 474.727 411.648Z" stroke="#FFC000" stroke-width="4.58166" fill="#0F1113" transform="matrix(1 0 0 1.00195 1272 660)"/></g></g></g></g></svg>