<svg width="550" height="550" xmlns="http://www.w3.org/2000/svg" xmlns:xlink="http://www.w3.org/1999/xlink" overflow="hidden"><defs><clipPath id="clip0"><rect x="1859" y="1218" width="550" height="550"/></clipPath><radialGradient cx="762000" cy="762000" r="1.07763e+06" gradientUnits="userSpaceOnUse" spreadMethod="pad" id="fill1" gradientTransform="matrix(0.000360892 0 0 0.000360892 1859 1218)"><stop offset="0" stop-color="#FFC000"/><stop offset="0.17" stop-color="#FFC000"/><stop offset="0.33" stop-color="#F68D00"/><stop offset="1" stop-color="#0F1113"/></radialGradient><radialGradient cx="374073" cy="432261" r="571647" fx="374073" fy="432262" gradientUnits="userSpaceOnUse" spreadMethod="pad" id="fill2" gradientTransform="matrix(0.000360892 0 0 0.000360892 1879 1237)"><stop offset="0" stop-color="#FFFF00"/><stop offset="0.54" stop-color="#F68D00" stop-opacity="0"/><stop offset="1" stop-color="#F68D00" stop-opacity="0"/></radialGradient><radialGradient cx="94211" cy="102524" r="139236" gradientUnits="userSpaceOnUse" spreadMethod="pad" id="fill3" gradientTransform="matrix(0.000360892 0 0 0.000360892 1898 1346)"><stop offset="0" stop-color="#FFFF00"/><stop offset="0.54" stop-color="#F68D00" stop-opacity="0"/><stop offset="1" stop-color="#F68D00" stop-opacity="0"/></radialGradient><radialGradient cx="110837" cy="120535" r="163748" fx="110836" fy="120535" gradientUnits="userSpaceOnUse" spreadMethod="pad" id="fill4" gradientTransform="matrix(0.000360892 0 0 0.000360892 1927 1392)"><stop offset="0" stop-color="#FFFF00"/><stop offset="0.54" stop-color="#F68D00" stop-opacity="0"/><stop offset="1" stop-color="#F68D00" stop-opacity="0"/></radialGradient><radialGradient cx="292331" cy="279862" r="404697" gradientUnits="userSpaceOnUse" spreadMethod="pad" id="fill5" gradientTransform="matrix(0.000360892 0 0 0.000360892 2148 1522)"><stop offset="0" stop-color="#FFFF00"/><stop offset="0.54" stop-color="#F68D00" stop-opacity="0"/><stop offset="1" stop-color="#F68D00" stop-opacity="0"/></radialGradient><radialGradient cx="72043.5" cy="77585.5" r="105876" fx="72043.5" fy="77585.5" gradientUnits="userSpaceOnUse" spreadMethod="pad" id="fill6" gradientTransform="matrix(0.000360892 0 0 0.000360892 2293 1651)"><stop offset="0" stop-color="#FFFF00"/><stop offset="0.54" stop-color="#F68D00" stop-opacity="0"/><stop offset="1" stop-color="#F68D00" stop-opacity="0"/></radialGradient><radialGradient cx="77585.5" cy="83127.5" r="113709" gradientUnits="userSpaceOnUse" spreadMethod="pad" id="fill7" gradientTransform="matrix(0.000360892 0 0 0.000360892 2277 1568)"><stop offset="0" stop-color="#FFFF00"/><stop offset="0.54" stop-color="#F68D00" stop-opacity="0"/><stop offset="1" stop-color="#F68D00" stop-opacity="0"/></radialGradient><linearGradient x1="2132.5" y1="1224" x2="2132.5" y2="1378" gradientUnits="userSpaceOnUse" spreadMethod="reflect" id="fill8"><stop offset="0" stop-color="#F5FAFF" stop-opacity="0.231373"/><stop offset="0.32" stop-color="#FFFFFF" stop-opacity="0"/><stop offset="1" stop-color="#FFFFFF" stop-opacity="0"/></linearGradient><clipPath id="clip9"><rect x="1897" y="1270" width="471" height="471"/></clipPath><clipPath id="clip10"><rect x="1897" y="1270" width="471" height="471"/></clipPath><clipPath id="clip11"><rect x="1897" y="1270" width="471" height="471"/></clipPath></defs><g clip-path="url(#clip0)" transform="translate(-1859 -1218)"><rect x="1859" y="1218" width="550" height="550" fill="url(#fill1)"/><path d="M1879 1393C1879 1306.84 1939.44 1237 2014 1237 2088.56 1237 2149 1306.84 2149 1393 2149 1479.16 2088.56 1549 2014 1549 1939.44 1549 1879 1479.16 1879 1393Z" fill="url(#fill2)" fill-rule="evenodd"/><path d="M1898 1383C1898 1362.57 1913.22 1346 1932 1346 1950.78 1346 1966 1362.57 1966 1383 1966 1403.43 1950.78 1420 1932 1420 1913.22 1420 1898 1403.43 1898 1383Z" fill="url(#fill3)" fill-rule="evenodd"/><path d="M1927 1435.5C1927 1411.48 1944.91 1392 1967 1392 1989.09 1392 2007 1411.48 2007 1435.5 2007 1459.52 1989.09 1479 1967 1479 1944.91 1479 1927 1459.52 1927 1435.5Z" fill="url(#fill4)" fill-rule="evenodd"/><path d="M2148 1623C2148 1567.22 2195.23 1522 2253.5 1522 2311.77 1522 2359 1567.22 2359 1623 2359 1678.78 2311.77 1724 2253.5 1724 2195.23 1724 2148 1678.78 2148 1623Z" fill="url(#fill5)" fill-rule="evenodd"/><path d="M2293 1679C2293 1663.54 2304.64 1651 2319 1651 2333.36 1651 2345 1663.54 2345 1679 2345 1694.46 2333.36 1707 2319 1707 2304.64 1707 2293 1694.46 2293 1679Z" fill="url(#fill6)" fill-rule="evenodd"/><path d="M2277 1598C2277 1581.43 2289.54 1568 2305 1568 2320.46 1568 2333 1581.43 2333 1598 2333 1614.57 2320.46 1628 2305 1628 2289.54 1628 2277 1614.57 2277 1598Z" fill="url(#fill7)" fill-rule="evenodd"/><path d="M1893.73 1224 2371.27 1224C2387.14 1224 2400 1243.86 2400 1268.37L2400 1378C2400 1339.82 2379.96 1308.88 2355.23 1308.88L1909.77 1308.88C1885.04 1308.88 1865 1339.82 1865 1378L1865 1268.37C1865 1243.86 1877.86 1224 1893.73 1224Z" fill="url(#fill8)" fill-rule="evenodd"/><g clip-path="url(#clip9)"><g clip-path="url(#clip10)"><g clip-path="url(#clip11)"><path d="M2200.04 1532.7 2306.97 1532.7 2322.91 1474.08C2325.73 1462.82 2319.63 1451.56 2308.84 1448.28L2278.83 1439.37C2273.67 1437.96 2270.39 1433.27 2270.39 1428.11L2270.39 1428.11C2270.39 1426.24 2271.32 1424.83 2272.73 1423.42 2283.52 1414.04 2292.43 1397.63 2292.43 1381.68 2292.43 1356.36 2275.08 1340.88 2253.97 1340.88 2232.87 1340.88 2215.51 1356.36 2215.51 1381.68 2215.51 1397.63 2224.42 1414.04 2235.21 1423.42 2236.62 1424.83 2237.56 1426.24 2237.56 1428.11L2237.56 1428.11C2237.56 1433.27 2234.27 1437.96 2229.11 1439.37L2198.16 1448.28C2187.37 1451.56 2180.81 1462.82 2184.09 1474.08L2200.04 1532.7Z" stroke="#FFC000" stroke-width="4.69" fill="#0F1113"/><path d="M2346.83 1624.63 2328.54 1624.63 2328.54 1558.03C2328.54 1553.34 2324.79 1549.59 2320.1 1549.59L2186.44 1549.59C2181.75 1549.59 2177.99 1553.34 2177.99 1558.03L2177.99 1624.16 2159.7 1624.16C2155.01 1624.16 2151.26 1627.91 2151.26 1632.6L2151.26 1662.15C2151.26 1666.84 2155.01 1670.59 2159.7 1670.59L2346.83 1670.59C2351.52 1670.59 2355.28 1666.84 2355.28 1662.15L2355.28 1632.6C2355.28 1628.38 2351.52 1624.63 2346.83 1624.63Z" stroke="#FFC000" stroke-width="4.69" fill="#0F1113"/><path d="M2062.62 1457.19C2086.07 1459.54 2107.17 1442.65 2109.52 1419.2 2111.86 1395.75 2094.98 1374.65 2071.53 1372.3 2048.08 1369.96 2026.97 1386.84 2024.63 1410.29 2022.28 1433.74 2039.17 1454.85 2062.62 1457.19Z" stroke="#FFC000" stroke-width="4.69" fill="#0F1113"/><path d="M2156.89 1532.23 2156.42 1517.22C2163.45 1513 2168.14 1505.03 2166.74 1496.59 2165.8 1489.55 2161.11 1484.4 2155.48 1481.58L2155.01 1464.23 2160.64 1464.23C2163.92 1464.23 2166.74 1461.41 2166.74 1458.13L2166.74 1445.94C2166.74 1442.65 2163.92 1439.84 2160.64 1439.84L2134.84 1439.84C2131.56 1439.84 2128.75 1442.65 2128.75 1445.94L2128.75 1458.13C2128.75 1461.41 2131.56 1464.23 2134.84 1464.23L2140.47 1464.23 2140 1480.17 2099.67 1486.27C2099.67 1486.27 2042.45 1460.94 2033.07 1457.19 2023.69 1453.44 2012.9 1453.44 2003.52 1457.66 1994.14 1461.88 1987.11 1470.32 1984.3 1480.17L1962.72 1551.46C1959.44 1562.72 1961.31 1574.44 1968.35 1583.82 1972.1 1588.51 1976.32 1592.27 1981.48 1594.61L1972.1 1626.97 1931.77 1626.97C1919.57 1626.97 1909.72 1636.82 1909.72 1649.01 1909.72 1661.21 1919.57 1671.06 1931.77 1671.06L1988.99 1671.06C1998.83 1671.06 2007.28 1664.49 2010.09 1655.11L2026.51 1598.36 2057.46 1598.36 2051.83 1646.2C2050.43 1658.39 2058.87 1669.18 2071.06 1670.59 2072 1670.59 2072.94 1670.59 2073.88 1670.59 2084.66 1670.59 2094.51 1662.62 2095.45 1651.36L2103.89 1578.66C2104.83 1572.57 2102.48 1566 2098.73 1561.31 2094.51 1556.62 2088.41 1553.81 2082.32 1553.81L2038.23 1553.81 2056.52 1510.66 2089.35 1525.2C2092.17 1526.14 2094.98 1527.07 2097.79 1527.07 2098.73 1527.07 2099.67 1527.07 2101.08 1526.6L2140.47 1520.51 2140 1531.76C2140 1534.11 2141.88 1536.45 2144.23 1536.45L2153.14 1536.45C2155.01 1536.92 2156.89 1534.58 2156.89 1532.23Z" stroke="#FFC000" stroke-width="4.69" fill="#0F1113"/></g></g></g></g></svg>