<svg width="550" height="550" xmlns="http://www.w3.org/2000/svg" xmlns:xlink="http://www.w3.org/1999/xlink" overflow="hidden"><defs><clipPath id="clip0"><rect x="648" y="637" width="550" height="550"/></clipPath><radialGradient cx="762000" cy="762000" r="1.07763e+06" gradientUnits="userSpaceOnUse" spreadMethod="pad" id="fill1" gradientTransform="matrix(0.000360892 0 0 0.000360892 648 637)"><stop offset="0" stop-color="#FFC000"/><stop offset="0.17" stop-color="#FFC000"/><stop offset="0.33" stop-color="#F68D00"/><stop offset="1" stop-color="#0F1113"/></radialGradient><radialGradient cx="374073" cy="432262" r="571648" fx="374073" fy="432262" gradientUnits="userSpaceOnUse" spreadMethod="pad" id="fill2" gradientTransform="matrix(0.000360892 0 0 0.000360892 668 657)"><stop offset="0" stop-color="#FFFF00"/><stop offset="0.54" stop-color="#F68D00" stop-opacity="0"/><stop offset="1" stop-color="#F68D00" stop-opacity="0"/></radialGradient><radialGradient cx="94210.5" cy="101138" r="138219" fx="94210.5" fy="101138" gradientUnits="userSpaceOnUse" spreadMethod="pad" id="fill3" gradientTransform="matrix(0.000360892 0 0 0.000360892 687 766)"><stop offset="0" stop-color="#FFFF00"/><stop offset="0.54" stop-color="#F68D00" stop-opacity="0"/><stop offset="1" stop-color="#F68D00" stop-opacity="0"/></radialGradient><radialGradient cx="110836" cy="120534" r="163748" gradientUnits="userSpaceOnUse" spreadMethod="pad" id="fill4" gradientTransform="matrix(0.000360892 0 0 0.000360892 716 811)"><stop offset="0" stop-color="#FFFF00"/><stop offset="0.54" stop-color="#F68D00" stop-opacity="0"/><stop offset="1" stop-color="#F68D00" stop-opacity="0"/></radialGradient><radialGradient cx="292331" cy="278477" r="403741" fx="292331" fy="278476" gradientUnits="userSpaceOnUse" spreadMethod="pad" id="fill5" gradientTransform="matrix(0.000360892 0 0 0.000360892 937 942)"><stop offset="0" stop-color="#FFFF00"/><stop offset="0.54" stop-color="#F68D00" stop-opacity="0"/><stop offset="1" stop-color="#F68D00" stop-opacity="0"/></radialGradient><radialGradient cx="70658" cy="77585.5" r="104938" gradientUnits="userSpaceOnUse" spreadMethod="pad" id="fill6" gradientTransform="matrix(0.000360892 0 0 0.000360892 1083 1070)"><stop offset="0" stop-color="#FFFF00"/><stop offset="0.54" stop-color="#F68D00" stop-opacity="0"/><stop offset="1" stop-color="#F68D00" stop-opacity="0"/></radialGradient><radialGradient cx="77585.5" cy="84513" r="114726" fx="77585.5" fy="84513" gradientUnits="userSpaceOnUse" spreadMethod="pad" id="fill7" gradientTransform="matrix(0.000360892 0 0 0.000360892 1066 987)"><stop offset="0" stop-color="#FFFF00"/><stop offset="0.54" stop-color="#F68D00" stop-opacity="0"/><stop offset="1" stop-color="#F68D00" stop-opacity="0"/></radialGradient><linearGradient x1="921.5" y1="643" x2="921.5" y2="797" gradientUnits="userSpaceOnUse" spreadMethod="reflect" id="fill8"><stop offset="0" stop-color="#F5FAFF" stop-opacity="0.231373"/><stop offset="0.32" stop-color="#FFFFFF" stop-opacity="0"/><stop offset="1" stop-color="#FFFFFF" stop-opacity="0"/></linearGradient><clipPath id="clip9"><rect x="666" y="662" width="513" height="511"/></clipPath><clipPath id="clip10"><rect x="666" y="662" width="513" height="511"/></clipPath><clipPath id="clip11"><rect x="666" y="662" width="513" height="511"/></clipPath></defs><g clip-path="url(#clip0)" transform="translate(-648 -637)"><rect x="648" y="637" width="550" height="550" fill="url(#fill1)"/><path d="M668 813C668 726.844 728.441 657 803 657 877.558 657 938 726.844 938 813 938 899.156 877.558 969 803 969 728.441 969 668 899.156 668 813Z" fill="url(#fill2)" fill-rule="evenodd"/><path d="M687 802.5C687 782.342 702.222 766 721 766 739.778 766 755 782.342 755 802.5 755 822.658 739.778 839 721 839 702.222 839 687 822.658 687 802.5Z" fill="url(#fill3)" fill-rule="evenodd"/><path d="M716 854.5C716 830.475 733.909 811 756 811 778.092 811 796 830.475 796 854.5 796 878.524 778.092 898 756 898 733.909 898 716 878.524 716 854.5Z" fill="url(#fill4)" fill-rule="evenodd"/><path d="M937 1042.5C937 986.995 984.234 942 1042.5 942 1100.77 942 1148 986.995 1148 1042.5 1148 1098 1100.77 1143 1042.5 1143 984.234 1143 937 1098 937 1042.5Z" fill="url(#fill5)" fill-rule="evenodd"/><path d="M1083 1098C1083 1082.54 1094.42 1070 1108.5 1070 1122.58 1070 1134 1082.54 1134 1098 1134 1113.46 1122.58 1126 1108.5 1126 1094.42 1126 1083 1113.46 1083 1098Z" fill="url(#fill6)" fill-rule="evenodd"/><path d="M1066 1017.5C1066 1000.66 1078.54 987 1094 987 1109.46 987 1122 1000.66 1122 1017.5 1122 1034.34 1109.46 1048 1094 1048 1078.54 1048 1066 1034.34 1066 1017.5Z" fill="url(#fill7)" fill-rule="evenodd"/><path d="M682.734 643 1160.27 643C1176.14 643 1189 662.864 1189 687.368L1189 797C1189 758.824 1168.96 727.876 1144.23 727.876L698.767 727.876C674.043 727.876 654 758.824 654 797L654 687.368C654 662.864 666.865 643 682.734 643Z" fill="url(#fill8)" fill-rule="evenodd"/><g clip-path="url(#clip9)"><g clip-path="url(#clip10)"><g clip-path="url(#clip11)"><path d="M303.585 121.646C293.626 144.681 266.952 155.247 243.883 145.334 220.905 135.432 210.345 108.69 220.258 85.7458 230.217 62.7053 256.891 52.1277 279.875 62.0581 302.932 71.9715 313.493 98.6741 303.585 121.646Z" stroke="#FFC000" stroke-width="4.6036" fill="#0F1113" fill-rule="evenodd" transform="matrix(1 0 0 1 667 662)"/><path d="M211.202 161.686C199.489 161.686 193.811 171.395 190.739 182.722L164.769 277.944C161.107 291.4 170.01 307.162 183.937 307.162L268.485 307.162 268.485 370.424C268.485 401.203 314.64 401.203 314.64 370.424L314.64 284.031C314.64 271.284 304.295 260.962 291.525 260.962L230.421 260.962 242.873 216.039 261.354 236.008C267.838 242.958 278.359 244.286 286.376 239.171L315.355 220.599 327.454 220.599C355.009 221.922 355.009 179.934 327.454 181.263L309.558 181.263C305.799 181.235 302.109 182.33 298.912 184.346L279.04 197.115 252.105 167.983C248.369 163.963 243.111 161.686 237.638 161.686L211.202 161.686Z" stroke="#FFC000" stroke-width="4.6036" fill="#0F1113" transform="matrix(1 0 0 1 667 662)"/><path d="M189.002 320.613 204.02 361.243 167.92 415.71C148.9 441.708 189.768 468.825 206.336 441.203L248.999 376.942C253.058 370.815 253.944 363.099 251.366 356.218L238.211 320.613 189.002 320.613Z" stroke="#FFC000" stroke-width="4.6036" fill="#0F1113" transform="matrix(1 0 0 1 667 662)"/></g></g></g></g></svg>