<svg width="550" height="550" xmlns="http://www.w3.org/2000/svg" xmlns:xlink="http://www.w3.org/1999/xlink" overflow="hidden"><defs><clipPath id="clip0"><rect x="1848" y="40" width="550" height="550"/></clipPath><radialGradient cx="762000" cy="762000" r="1.07763e+06" gradientUnits="userSpaceOnUse" spreadMethod="pad" id="fill1" gradientTransform="matrix(0.000360892 0 0 0.000360892 1848 39.9999)"><stop offset="0" stop-color="#FFC000"/><stop offset="0.17" stop-color="#FFC000"/><stop offset="0.33" stop-color="#F68D00"/><stop offset="1" stop-color="#0F1113"/></radialGradient><radialGradient cx="374073" cy="432261" r="571647" fx="374073" fy="432262" gradientUnits="userSpaceOnUse" spreadMethod="pad" id="fill2" gradientTransform="matrix(0.000360892 0 0 0.000360892 1868 60.0002)"><stop offset="0" stop-color="#FFFF00"/><stop offset="0.54" stop-color="#F68D00" stop-opacity="0"/><stop offset="1" stop-color="#F68D00" stop-opacity="0"/></radialGradient><linearGradient x1="2120.5" y1="46.0001" x2="2120.5" y2="200" gradientUnits="userSpaceOnUse" spreadMethod="reflect" id="fill3"><stop offset="0" stop-color="#F5FAFF" stop-opacity="0.231373"/><stop offset="0.32" stop-color="#FFFFFF" stop-opacity="0"/><stop offset="1" stop-color="#FFFFFF" stop-opacity="0"/></linearGradient><radialGradient cx="94210.5" cy="102524" r="139236" gradientUnits="userSpaceOnUse" spreadMethod="pad" id="fill4" gradientTransform="matrix(0.000360892 0 0 0.000360892 1886 168)"><stop offset="0" stop-color="#FFFF00"/><stop offset="0.54" stop-color="#F68D00" stop-opacity="0"/><stop offset="1" stop-color="#F68D00" stop-opacity="0"/></radialGradient><radialGradient cx="112222" cy="120534" r="164689" gradientUnits="userSpaceOnUse" spreadMethod="pad" id="fill5" gradientTransform="matrix(0.000360892 0 0 0.000360892 1915 214)"><stop offset="0" stop-color="#FFFF00"/><stop offset="0.54" stop-color="#F68D00" stop-opacity="0"/><stop offset="1" stop-color="#F68D00" stop-opacity="0"/></radialGradient><radialGradient cx="292331" cy="278476" r="403740" gradientUnits="userSpaceOnUse" spreadMethod="pad" id="fill6" gradientTransform="matrix(0.000360892 0 0 0.000360892 2137 345)"><stop offset="0" stop-color="#FFFF00"/><stop offset="0.54" stop-color="#F68D00" stop-opacity="0"/><stop offset="1" stop-color="#F68D00" stop-opacity="0"/></radialGradient><radialGradient cx="72043.5" cy="77585.5" r="105876" fx="72043.5" fy="77585.5" gradientUnits="userSpaceOnUse" spreadMethod="pad" id="fill7" gradientTransform="matrix(0.000360892 0 0 0.000360892 2282 473)"><stop offset="0" stop-color="#FFFF00"/><stop offset="0.54" stop-color="#F68D00" stop-opacity="0"/><stop offset="1" stop-color="#F68D00" stop-opacity="0"/></radialGradient><radialGradient cx="77585.5" cy="83127" r="113708" gradientUnits="userSpaceOnUse" spreadMethod="pad" id="fill8" gradientTransform="matrix(0.000360892 0 0 0.000360892 2266 390)"><stop offset="0" stop-color="#FFFF00"/><stop offset="0.54" stop-color="#F68D00" stop-opacity="0"/><stop offset="1" stop-color="#F68D00" stop-opacity="0"/></radialGradient><clipPath id="clip9"><rect x="1907" y="84" width="443" height="446"/></clipPath><clipPath id="clip10"><rect x="1907" y="84" width="443" height="446"/></clipPath><clipPath id="clip11"><rect x="1907" y="84" width="443" height="446"/></clipPath></defs><g clip-path="url(#clip0)" transform="translate(-1848 -40)"><rect x="1848" y="39.9999" width="550" height="550" fill="url(#fill1)"/><path d="M1868 216C1868 129.844 1928.44 60.0002 2003 60.0002 2077.56 60.0002 2138 129.844 2138 216 2138 302.156 2077.56 372 2003 372 1928.44 372 1868 302.156 1868 216Z" fill="url(#fill2)" fill-rule="evenodd"/><path d="M1881.73 46.0001 2359.27 46.0001C2375.14 46.0001 2388 65.864 2388 90.3677L2388 200C2388 161.824 2367.96 130.876 2343.23 130.876L1897.77 130.876C1873.04 130.876 1853 161.824 1853 200L1853 90.3677C1853 65.864 1865.86 46.0001 1881.73 46.0001Z" fill="url(#fill3)" fill-rule="evenodd"/><path d="M1886 205C1886 184.566 1901.22 168 1920 168 1938.78 168 1954 184.566 1954 205 1954 225.435 1938.78 242 1920 242 1901.22 242 1886 225.435 1886 205Z" fill="url(#fill4)" fill-rule="evenodd"/><path d="M1915 257.5C1915 233.476 1933.13 214 1955.5 214 1977.87 214 1996 233.476 1996 257.5 1996 281.525 1977.87 301 1955.5 301 1933.13 301 1915 281.525 1915 257.5Z" fill="url(#fill5)" fill-rule="evenodd"/><path d="M2137 445.5C2137 389.995 2184.23 345 2242.5 345 2300.77 345 2348 389.995 2348 445.5 2348 501.005 2300.77 546 2242.5 546 2184.23 546 2137 501.005 2137 445.5Z" fill="url(#fill6)" fill-rule="evenodd"/><path d="M2282 501C2282 485.536 2293.64 473 2308 473 2322.36 473 2334 485.536 2334 501 2334 516.464 2322.36 529 2308 529 2293.64 529 2282 516.464 2282 501Z" fill="url(#fill7)" fill-rule="evenodd"/><path d="M2266 420C2266 403.432 2278.54 390 2294 390 2309.46 390 2322 403.432 2322 420 2322 436.569 2309.46 450 2294 450 2278.54 450 2266 436.569 2266 420Z" fill="url(#fill8)" fill-rule="evenodd"/><g clip-path="url(#clip9)"><g clip-path="url(#clip10)"><g clip-path="url(#clip11)"><path d="M272.888 419.964 77.525 419.964C46.958 419.964 22.15 395.156 22.15 364.589L22.15 78.411C22.15 47.844 46.958 23.036 77.525 23.036L194.034 23.036C209.096 23.036 223.715 29.238 234.347 40.313L312.758 124.04C322.504 134.229 327.82 147.962 327.82 162.138L327.82 191.376C327.82 200.236 320.289 207.767 311.429 207.767 302.569 207.767 295.038 200.236 295.038 191.376L295.038 162.138C295.038 156.379 292.823 151.063 288.836 146.633L209.982 62.906C205.552 58.476 199.793 55.818 193.591 55.818L77.525 55.818C65.121 55.818 54.932 66.007 54.932 78.411L54.932 364.589C54.932 376.993 65.121 387.182 77.525 387.182L272.888 387.182C285.292 387.182 295.481 376.993 295.481 364.589L295.481 360.602C295.481 351.742 303.012 344.211 311.872 344.211 320.732 344.211 328.263 351.742 328.263 360.602L328.263 364.589C327.82 395.156 303.012 419.964 272.888 419.964Z" stroke="#FFC000" stroke-width="4.6146" fill="#0F1113" transform="matrix(1 0 0 1.00226 1907 84.9999)"/><path d="M117.838 279.09C121.382 276.432 126.255 275.989 130.242 278.647 134.229 281.305 139.988 283.52 147.962 283.963 164.796 284.406 194.477 275.103 238.334 225.93 242.321 221.5 248.966 221.057 253.839 225.044 257.826 228.588 258.712 234.79 255.611 239.22 246.751 253.839 238.334 269.787 233.904 280.419 233.904 280.419 234.347 279.976 234.347 279.976 234.79 279.976 234.79 279.533 235.233 279.533 252.953 269.344 279.976 251.181 285.735 243.65 288.393 240.106 293.266 238.334 297.696 239.663 304.784 241.878 307.442 249.852 303.898 255.611 295.481 269.787 288.836 287.507 289.279 293.709 290.165 293.709 291.494 293.709 293.709 292.823 305.67 289.722 311.429 285.735 316.745 282.191 322.061 278.204 328.263 274.217 338.452 275.546 345.983 276.432 354.843 280.862 369.905 291.051 370.348 291.051 370.348 291.051 370.348 291.494 372.12 292.823 386.739 302.569 404.016 290.608 409.332 287.064 416.42 288.393 419.521 293.709 422.622 298.582 420.85 305.227 415.977 308.771 405.788 315.859 395.599 318.074 386.296 318.074 373.449 318.074 362.817 313.201 357.058 309.214 352.628 306.113 340.224 298.139 334.908 297.253 334.022 297.253 333.579 297.253 328.706 300.354 323.39 304.784 314.53 310.986 298.582 314.53 283.077 318.517 275.103 313.201 271.559 307.885 267.572 302.126 266.243 294.595 268.458 284.406 259.155 290.608 250.295 295.924 246.751 297.696 239.22 303.012 223.715 313.644 213.526 303.898 208.21 299.025 207.324 292.38 210.425 281.305 187.389 298.139 166.125 306.113 146.633 305.227 134.229 304.784 124.926 300.354 118.724 296.367 112.079 292.823 112.079 283.52 117.838 279.09L117.838 279.09Z" stroke="#FFC000" stroke-width="4.6146" fill="#0F1113" transform="matrix(1 0 0 1.00226 1907 84.9999)"/></g></g></g></g></svg>