<svg width="550" height="550" xmlns="http://www.w3.org/2000/svg" xmlns:xlink="http://www.w3.org/1999/xlink" overflow="hidden"><defs><clipPath id="clip0"><rect x="2451" y="40" width="550" height="550"/></clipPath><radialGradient cx="762000" cy="762000" r="1.07763e+06" gradientUnits="userSpaceOnUse" spreadMethod="pad" id="fill1" gradientTransform="matrix(0.000360892 0 0 0.000360892 2451 39.9999)"><stop offset="0" stop-color="#FFC000"/><stop offset="0.17" stop-color="#FFC000"/><stop offset="0.33" stop-color="#F68D00"/><stop offset="1" stop-color="#0F1113"/></radialGradient><radialGradient cx="374073" cy="432261" r="571647" fx="374073" fy="432262" gradientUnits="userSpaceOnUse" spreadMethod="pad" id="fill2" gradientTransform="matrix(0.000360892 0 0 0.000360892 2471 60.0002)"><stop offset="0" stop-color="#FFFF00"/><stop offset="0.54" stop-color="#F68D00" stop-opacity="0"/><stop offset="1" stop-color="#F68D00" stop-opacity="0"/></radialGradient><radialGradient cx="94210.5" cy="102524" r="139236" gradientUnits="userSpaceOnUse" spreadMethod="pad" id="fill3" gradientTransform="matrix(0.000360892 0 0 0.000360892 2490 168)"><stop offset="0" stop-color="#FFFF00"/><stop offset="0.54" stop-color="#F68D00" stop-opacity="0"/><stop offset="1" stop-color="#F68D00" stop-opacity="0"/></radialGradient><radialGradient cx="110836" cy="120534" r="163748" gradientUnits="userSpaceOnUse" spreadMethod="pad" id="fill4" gradientTransform="matrix(0.000360892 0 0 0.000360892 2519 214)"><stop offset="0" stop-color="#FFFF00"/><stop offset="0.54" stop-color="#F68D00" stop-opacity="0"/><stop offset="1" stop-color="#F68D00" stop-opacity="0"/></radialGradient><radialGradient cx="292331" cy="278476" r="403740" gradientUnits="userSpaceOnUse" spreadMethod="pad" id="fill5" gradientTransform="matrix(0.000360892 0 0 0.000360892 2740 345)"><stop offset="0" stop-color="#FFFF00"/><stop offset="0.54" stop-color="#F68D00" stop-opacity="0"/><stop offset="1" stop-color="#F68D00" stop-opacity="0"/></radialGradient><radialGradient cx="72043.5" cy="77585.5" r="105876" fx="72043.5" fy="77585.5" gradientUnits="userSpaceOnUse" spreadMethod="pad" id="fill6" gradientTransform="matrix(0.000360892 0 0 0.000360892 2885 473)"><stop offset="0" stop-color="#FFFF00"/><stop offset="0.54" stop-color="#F68D00" stop-opacity="0"/><stop offset="1" stop-color="#F68D00" stop-opacity="0"/></radialGradient><radialGradient cx="77585.5" cy="83127" r="113708" gradientUnits="userSpaceOnUse" spreadMethod="pad" id="fill7" gradientTransform="matrix(0.000360892 0 0 0.000360892 2869 390)"><stop offset="0" stop-color="#FFFF00"/><stop offset="0.54" stop-color="#F68D00" stop-opacity="0"/><stop offset="1" stop-color="#F68D00" stop-opacity="0"/></radialGradient><clipPath id="clip8"><rect x="2516" y="71" width="341" height="342"/></clipPath><clipPath id="clip9"><rect x="2516" y="71" width="341" height="342"/></clipPath><clipPath id="clip10"><rect x="2516" y="71" width="341" height="342"/></clipPath><clipPath id="clip11"><rect x="2644" y="240" width="344" height="346"/></clipPath><clipPath id="clip12"><rect x="2644" y="240" width="344" height="346"/></clipPath><clipPath id="clip13"><rect x="2644" y="240" width="344" height="346"/></clipPath><linearGradient x1="2724" y1="46.0001" x2="2724" y2="200" gradientUnits="userSpaceOnUse" spreadMethod="reflect" id="fill14"><stop offset="0" stop-color="#F5FAFF" stop-opacity="0.231373"/><stop offset="0.32" stop-color="#FFFFFF" stop-opacity="0"/><stop offset="1" stop-color="#FFFFFF" stop-opacity="0"/></linearGradient></defs><g clip-path="url(#clip0)" transform="translate(-2451 -40)"><rect x="2451" y="39.9999" width="550" height="550" fill="url(#fill1)"/><path d="M2471 216C2471 129.844 2531.44 60.0002 2606 60.0002 2680.56 60.0002 2741 129.844 2741 216 2741 302.156 2680.56 372 2606 372 2531.44 372 2471 302.156 2471 216Z" fill="url(#fill2)" fill-rule="evenodd"/><path d="M2490 205C2490 184.566 2505.22 168 2524 168 2542.78 168 2558 184.566 2558 205 2558 225.435 2542.78 242 2524 242 2505.22 242 2490 225.435 2490 205Z" fill="url(#fill3)" fill-rule="evenodd"/><path d="M2519 257.5C2519 233.476 2536.91 214 2559 214 2581.09 214 2599 233.476 2599 257.5 2599 281.525 2581.09 301 2559 301 2536.91 301 2519 281.525 2519 257.5Z" fill="url(#fill4)" fill-rule="evenodd"/><path d="M2740 445.5C2740 389.995 2787.23 345 2845.5 345 2903.77 345 2951 389.995 2951 445.5 2951 501.005 2903.77 546 2845.5 546 2787.23 546 2740 501.005 2740 445.5Z" fill="url(#fill5)" fill-rule="evenodd"/><path d="M2885 501C2885 485.536 2896.64 473 2911 473 2925.36 473 2937 485.536 2937 501 2937 516.464 2925.36 529 2911 529 2896.64 529 2885 516.464 2885 501Z" fill="url(#fill6)" fill-rule="evenodd"/><path d="M2869 420C2869 403.432 2881.54 390 2897 390 2912.46 390 2925 403.432 2925 420 2925 436.569 2912.46 450 2897 450 2881.54 450 2869 436.569 2869 420Z" fill="url(#fill7)" fill-rule="evenodd"/><g clip-path="url(#clip8)"><g clip-path="url(#clip9)"><g clip-path="url(#clip10)"><path d="M170.039 74.7558C117.543 74.7558 74.8388 117.459 74.8388 169.956 74.8388 222.452 117.543 265.156 170.039 265.156 222.535 265.156 265.239 222.452 265.239 169.956 265.239 117.459 222.534 74.7558 170.039 74.7558ZM186.698 229.048 188.126 234.08C188.806 236.595 188.33 239.316 186.766 241.424 185.134 243.531 182.618 244.756 180.034 244.756L159.974 244.756C157.39 244.756 154.874 243.531 153.31 241.492 151.678 239.383 151.202 236.595 151.882 234.08L153.31 229.048C149.774 229.931 146.17 230.339 142.43 230.339 101.835 230.339 81.5347 180.87 110.13 152.275L170.039 92.3664 229.879 152.275C262.513 184.91 231.233 240.171 186.698 229.048Z" stroke="#FFC000" stroke-width="3.40852" fill="#0F1113" transform="matrix(1 0 0 1 2517 71.9998)"/><path d="M291.214 189.063 291.214 150.983C291.214 139.695 300.394 130.583 311.614 130.583L328.41 130.583C324.466 114.603 318.21 99.5758 309.914 85.8391L298.014 97.7391C294.206 101.616 289.039 103.723 283.598 103.723 278.158 103.723 273.058 101.616 269.182 97.7391L242.254 70.8111C234.298 62.8551 234.298 49.9344 242.254 41.9791L254.086 30.1471C240.418 21.7824 225.39 15.5264 209.41 11.5824L209.41 28.3791C209.41 39.5984 200.298 48.7791 189.01 48.7791L150.93 48.7791C139.71 48.7791 130.53 39.5984 130.53 28.3791L130.53 11.6511C114.618 15.5264 99.5901 21.8511 85.9221 30.1478L97.7547 41.9798C105.711 49.9351 105.711 62.8551 97.7547 70.8118L70.8268 97.7398C66.9508 101.616 61.8508 103.724 56.4108 103.724 50.9708 103.724 45.8028 101.616 41.9948 97.7398L30.0948 85.9078C21.8668 99.6438 15.5428 114.604 11.5988 130.583L28.3948 130.583C39.6148 130.583 48.7948 139.695 48.7948 150.983L48.7948 189.063C48.7948 200.283 39.6148 209.463 28.3948 209.463L11.6668 209.463C15.6108 225.376 21.8668 240.403 30.1628 254.072L41.9948 242.24C45.8028 238.363 50.9708 236.256 56.4108 236.256 61.8508 236.256 66.9508 238.363 70.8268 242.24L97.7547 269.168C105.711 277.124 105.711 290.044 97.7547 298.068L85.9908 309.832C99.6587 318.128 114.619 324.384 130.531 328.26L130.531 311.6C130.531 300.38 139.711 291.2 150.931 291.2L189.011 291.2C200.299 291.2 209.411 300.38 209.411 311.6L209.411 328.328C225.323 324.384 240.351 318.128 254.019 309.832L242.255 298.068C234.299 290.112 234.299 277.124 242.255 269.168L269.183 242.24C273.059 238.363 278.159 236.256 283.599 236.256 289.039 236.256 294.207 238.363 298.015 242.24L309.847 254.072C318.143 240.404 324.467 225.376 328.343 209.463L311.615 209.463C300.395 209.463 291.214 200.283 291.214 189.063ZM170.039 278.756C109.995 278.756 61.2388 230 61.2388 169.956 61.2388 109.98 109.995 61.1558 170.039 61.1558 230.014 61.1558 278.839 109.98 278.839 169.956 278.839 229.999 230.014 278.756 170.039 278.756Z" stroke="#FFC000" stroke-width="3.40852" fill="#0F1113" transform="matrix(1 0 0 1 2517 71.9998)"/><path d="M150.96 41.971 189.04 41.971C196.587 41.971 202.64 35.9196 202.64 28.371L202.64 10.079C192.1 7.90228 181.151 6.81496 170 6.81496 158.848 6.81496 147.9 7.97028 137.36 10.079L137.36 28.3703C137.36 35.9196 143.48 41.971 150.96 41.971Z" stroke="#FFC000" stroke-width="3.40852" fill="#0F1113" transform="matrix(1 0 0 1 2517 71.9998)"/><path d="M189.04 298.029 150.96 298.029C143.48 298.029 137.36 304.08 137.36 311.629L137.36 329.92C147.9 332.029 158.848 333.184 170 333.184 181.151 333.184 192.1 332.097 202.64 329.92L202.64 311.629C202.64 304.08 196.587 298.029 189.04 298.029Z" stroke="#FFC000" stroke-width="3.40852" fill="#0F1113" transform="matrix(1 0 0 1 2517 71.9998)"/><path d="M66.0062 92.9336 92.9329 66.0056C98.2695 60.6696 98.2709 52.1098 92.9329 46.7724L79.9993 33.8382C71.007 39.7528 62.4961 46.7262 54.6108 54.6115 46.7248 62.4974 39.8011 71.0552 33.8388 79.9993L46.7731 92.9336C52.1104 98.2709 60.7172 98.2226 66.0062 92.9336Z" stroke="#FFC000" stroke-width="3.40852" fill="#0F1113" transform="matrix(1 0 0 1 2517 71.9998)"/><path d="M273.994 247.067 247.067 273.994C241.778 279.282 241.729 287.89 247.067 293.228L260.001 306.161C268.945 300.199 277.503 293.274 285.389 285.388 293.274 277.505 300.247 268.993 306.161 260.001L293.227 247.067C287.89 241.729 279.33 241.73 273.994 247.067Z" stroke="#FFC000" stroke-width="3.40852" fill="#0F1113" transform="matrix(1 0 0 1 2517 71.9998)"/><path d="M41.971 189.04 41.971 150.959C41.971 143.412 35.9196 137.359 28.371 137.359L10.079 137.359C7.90228 147.899 6.81496 158.849 6.81496 169.999 6.81496 181.152 7.97028 192.099 10.079 202.639L28.3703 202.639C35.9196 202.64 41.971 196.521 41.971 189.04Z" stroke="#FFC000" stroke-width="3.40852" fill="#0F1113" transform="matrix(1 0 0 1 2517 71.9998)"/><path d="M329.921 137.359 311.63 137.359C304.081 137.359 298.03 143.412 298.03 150.959L298.03 189.04C298.03 196.521 304.081 202.64 311.63 202.64L329.921 202.64C332.03 192.1 333.185 181.153 333.185 170 333.184 158.848 332.097 147.899 329.921 137.359Z" stroke="#FFC000" stroke-width="3.40852" fill="#0F1113" transform="matrix(1 0 0 1 2517 71.9998)"/><path d="M92.9329 273.994 66.0062 247.068C60.6696 241.73 52.1104 241.73 46.7731 247.068L33.8388 260.002C39.7535 268.994 46.7262 277.505 54.6108 285.389 62.4967 293.275 71.0552 300.2 79.9993 306.162L92.9329 293.228C98.2709 287.89 98.2226 279.283 92.9329 273.994Z" stroke="#FFC000" stroke-width="3.40852" fill="#0F1113" transform="matrix(1 0 0 1 2517 71.9998)"/><path d="M247.067 66.0056 273.994 92.9336C279.283 98.2226 287.89 98.2709 293.227 92.9336L306.161 79.9993C300.199 71.0552 293.274 62.4967 285.389 54.6115 277.504 46.7269 268.993 39.7528 260.001 33.8388L247.067 46.7731C241.729 52.1104 241.73 60.6703 247.067 66.0056Z" stroke="#FFC000" stroke-width="3.40852" fill="#0F1113" transform="matrix(1 0 0 1 2517 71.9998)"/><path d="M170.021 101.984 114.917 157.059C99.7322 172.273 99.7322 196.92 114.917 212.133 128.186 225.403 148.647 227.091 163.757 217.215L158.442 235.937C158.154 236.961 158.922 237.984 159.977 237.984L180.035 237.984C181.091 237.984 181.859 236.961 181.57 235.937L176.251 217.202C191.343 227.095 211.819 225.41 225.096 212.133 240.281 196.92 240.281 172.273 225.096 157.059L170.021 101.984Z" stroke="#FFC000" stroke-width="3.40852" fill="#0F1113" transform="matrix(1 0 0 1 2517 71.9998)"/></g></g></g><g clip-path="url(#clip11)"><g clip-path="url(#clip12)"><g clip-path="url(#clip13)"><path d="M323.924 99.8941C303.139 106.554 292.751 111.287 267.133 118.934 263.321 120.07 258.925 124.425 257.432 128.594 247.387 156.627 242.214 167.363 228.55 204.436 226.514 209.953 227.219 213.896 230.384 212.592 251.656 203.827 265.523 194.463 288.148 184.759 291.516 183.314 296.215 177.153 298.378 171.855 312.919 136.265 312.438 141.422 325.671 107.978 327.639 103 327.02 98.9034 323.924 99.8941ZM285.516 148.928C283.783 152.787 279.417 157.304 275.795 158.842 272.176 160.38 270.752 158.123 272.575 153.991 274.402 149.857 278.757 145.539 282.283 144.27 285.812 142.994 287.254 145.065 285.516 148.928Z" stroke="#FFC000" stroke-width="4.58665" fill="#0F1113" transform="matrix(1 0 0 1 2644 241)"/><path d="M181.838 58.4937C209.678 81.3972 224.357 90.5304 250.559 111.191 254.46 114.27 262.788 115.181 268.285 113.437 305.224 101.741 305.056 100.297 324.096 94.827 326.93 94.0151 325.596 90.7093 321.165 87.6649 291.419 67.2382 284.378 61.5278 258.093 43.6536 254.181 40.9944 247.415 39.3157 243.59 39.9521 217.862 44.204 213.153 44.3416 182.912 50.4613 178.412 51.3729 177.693 55.0847 181.838 58.4937ZM287.181 77.9263C290.037 77.0284 295.812 78.5627 300.126 81.4763 304.44 84.3969 305.812 87.6133 303.091 88.5215 300.37 89.4296 294.443 87.7131 289.992 84.7822 285.54 81.8582 284.319 78.8207 287.181 77.9263ZM272.358 82.8145C275.413 81.7791 281.247 83.3167 285.743 86.2648 290.236 89.206 291.798 92.4843 288.791 93.5645 285.788 94.6481 279.3 93.1242 274.759 90.1314 270.215 87.142 269.311 83.8465 272.358 82.8145ZM270.277 100.07C265.919 101.552 258.196 100.362 253.782 97.2418 249.369 94.1218 249.775 90.3378 254.006 88.9549 258.244 87.5686 264.825 88.9927 269.355 92.013 273.889 95.0334 274.636 98.5869 270.277 100.07ZM244.625 49.5463C248.158 48.8824 254.594 50.6024 258.633 53.3337 262.675 56.0616 263.026 58.8618 259.723 59.6255 256.417 60.3926 250.432 58.7724 246.159 55.9378 241.887 53.1067 241.089 50.2102 244.625 49.5463ZM226.895 52.9622C230.366 52.2742 236.727 54.1524 241.085 57.0352 245.444 59.9179 246.335 62.8316 243.008 63.6606 239.685 64.4931 233.208 62.8419 228.708 59.8147 224.209 56.784 223.428 53.6502 226.895 52.9622ZM207.508 57.0008C211.697 56.0857 218.485 58.0293 223.012 61.1219 227.542 64.2144 228.175 67.4411 223.961 68.5454 219.75 69.6428 212.241 68.0741 207.728 64.7924 203.221 61.514 203.321 57.9158 207.508 57.0008Z" stroke="#FFC000" stroke-width="4.58665" fill="#0F1113" transform="matrix(1 0 0 1 2644 241)"/><path d="M199.399 133.087C198.127 127.538 192.867 125.914 188.113 128.996 156.166 149.678 152.898 154.122 117.118 176.881 111.79 180.27 108.288 188.054 110.025 193.882 121.693 233.098 128.339 251.089 140.324 294.443 142.11 300.903 149.499 301.43 155.877 296.153 198.722 260.69 202.117 255.991 219.671 240.714 222.286 238.44 223.607 232.878 222.413 227.907 214.398 194.559 207.962 170.407 199.399 133.087ZM144.838 204.085C139.853 207.604 133.585 205.973 131.532 200.063 129.478 194.153 132.268 186.403 137.122 183.059 141.979 179.709 147.242 181.842 149.423 187.573 151.601 193.307 149.826 200.559 144.838 204.085ZM167.163 265.437C161.835 269.655 155.147 268.437 153.07 262.217 150.995 255.998 154.181 247.467 159.403 243.583 164.631 239.692 170.08 241.687 172.261 247.573 174.446 253.466 172.502 261.22 167.163 265.437ZM178.835 217.621C175.003 220.459 169.778 218.278 167.531 212.496 165.282 206.699 166.857 199.565 170.751 196.73 174.638 193.899 179.403 196.407 181.591 202.2 183.778 207.982 182.664 214.787 178.835 217.621ZM186.978 173.83C183.101 176.537 178.367 173.999 176.307 168.25 174.246 162.502 175.811 155.65 179.97 152.774 184.126 149.901 189.159 152.158 190.937 158.078 192.712 163.995 190.848 171.123 186.978 173.83ZM207.164 233.338C204.102 235.753 199.933 233.404 197.903 227.786 195.873 222.169 196.923 215.488 200.28 213.06 203.634 210.631 207.872 213.404 209.602 219.032 211.336 224.663 210.218 230.927 207.164 233.338Z" stroke="#FFC000" stroke-width="4.58665" fill="#0F1113" transform="matrix(1 0 0 1 2644 241)"/><path d="M22.8003 167.648C49.7905 171.315 57.8436 172.942 91.2769 177.641 96.2511 178.34 104.903 176.21 109.949 173.039 143.864 151.752 157.039 145.433 185.474 124.69 189.706 121.607 188.189 118.814 182.925 118.639 147.545 117.452 148.305 116.912 113.565 114.934 108.398 114.641 99.8528 116.681 95.5975 119.275 67.0146 136.688 60.0176 139.255 25.1773 160.583 19.9933 163.758 18.7824 167.101 22.8003 167.648ZM140.758 131.318C145.189 128.508 152.161 126.334 156.771 126.613 161.377 126.891 162.02 129.605 157.597 132.55 153.176 135.488 145.371 137.452 140.751 137.046 136.131 136.64 136.331 134.129 140.758 131.318ZM97.1627 142.746C101.71 140.194 108.487 138.522 112.405 138.969 116.324 139.416 115.99 141.907 111.439 144.559 106.894 147.211 99.8115 148.955 95.8934 148.408 91.9718 147.865 92.6219 145.292 97.1627 142.746ZM51.7513 153.575C56.76 150.706 64.1009 149.041 68.2186 149.616 72.3397 150.187 71.6345 152.818 66.5399 155.715 61.4452 158.611 53.8566 160.693 49.8146 160.094 45.7795 159.495 46.7427 156.448 51.7513 153.575Z" stroke="#FFC000" stroke-width="4.58665" fill="#0F1113" transform="matrix(1 0 0 1 2644 241)"/><path d="M246.177 114.242C218.846 94.1218 209.874 84.8475 178.811 63.0001 174.188 59.7493 168.849 62.3706 167.445 67.9399 161.611 91.0739 159.709 98.6213 156.413 109.846 162.97 110.193 170.854 110.524 183.18 110.936 192.021 111.236 194.535 116.344 195.21 118.529 195.309 118.855 195.423 119.378 195.505 119.994 201.092 121.023 205.523 125.329 206.906 131.367 212.165 154.301 216.531 171.866 221.151 190.469 222.103 194.315 223.07 198.195 224.037 202.117 224.209 201.746 224.394 201.384 224.522 200.975 236.084 163.479 237.714 165.557 250.16 129.998 252.014 124.703 250.246 117.235 246.177 114.242ZM219.406 139.719C215.182 140.008 210.311 136.145 208.615 131.212 206.916 126.279 209 121.879 213.228 121.17 217.456 120.458 222.165 124.125 223.868 129.478 225.564 134.834 223.631 139.43 219.406 139.719Z" stroke="#FFC000" stroke-width="4.58665" fill="#0F1113" transform="matrix(1 0 0 1 2644 241)"/><path d="M104.363 199.093C102.299 192.017 95.4978 184.835 90.2724 184.095 55.1672 179.121 57.4927 179.007 23.8495 174.095 18.8443 173.366 15.8171 177.992 17.8261 184.036 31.3074 224.677 35.432 234.825 46.9112 270.429 48.6209 275.73 54.0802 281.351 58.7036 282.644 89.7599 291.34 97.9023 295.355 128.57 303.972 133.135 305.255 135.56 300.515 133.764 294.12 121.714 251.151 118.226 246.665 104.363 199.093ZM49.5291 215.664C45.1947 214.735 39.8214 209.51 37.9466 203.686 36.0718 197.855 38.4317 193.476 42.7248 194.291 47.0248 195.103 51.7685 200.951 53.6777 206.895 55.58 212.833 53.8669 216.599 49.5291 215.664ZM66.9767 270.398C62.5426 269.225 57.3035 263.727 55.6316 258.406 53.9632 253.084 56.4985 249.792 60.8914 250.838 65.2843 251.88 69.9592 256.93 71.6655 262.375 73.3751 267.818 71.4109 271.567 66.9767 270.398ZM90.441 224.821C86.024 223.889 81.1908 218.567 79.1027 212.392 77.0215 206.211 78.4044 201.309 82.8179 202.127 87.2383 202.943 93.1311 209.317 95.2157 215.612 97.2934 221.9 94.8614 225.757 90.441 224.821ZM110.18 282.276C105.759 281.11 100.785 275.21 98.893 269.513 96.9976 263.82 98.8208 260.281 103.231 261.319 107.648 262.358 113.049 267.652 114.944 273.466 116.843 279.283 114.597 283.439 110.18 282.276Z" stroke="#FFC000" stroke-width="4.58665" fill="#0F1113" transform="matrix(1 0 0 1 2644 241)"/></g></g></g><path d="M2484.79 46.0001 2963.21 46.0001C2979.11 46.0001 2992 65.864 2992 90.3677L2992 200C2992 161.824 2971.92 130.876 2947.15 130.876L2500.85 130.876C2476.08 130.876 2456 161.824 2456 200L2456 90.3677C2456 65.864 2468.89 46.0001 2484.79 46.0001Z" fill="url(#fill14)" fill-rule="evenodd"/></g></svg>