<svg width="550" height="550" xmlns="http://www.w3.org/2000/svg" xmlns:xlink="http://www.w3.org/1999/xlink" overflow="hidden"><defs><clipPath id="clip0"><rect x="45" y="637" width="550" height="550"/></clipPath><radialGradient cx="762000" cy="762000" r="1.07763e+06" gradientUnits="userSpaceOnUse" spreadMethod="pad" id="fill1" gradientTransform="matrix(0.000360892 0 0 0.000360892 45 637)"><stop offset="0" stop-color="#FFC000"/><stop offset="0.17" stop-color="#FFC000"/><stop offset="0.33" stop-color="#F68D00"/><stop offset="1" stop-color="#0F1113"/></radialGradient><radialGradient cx="374073" cy="432262" r="571648" fx="374073" fy="432262" gradientUnits="userSpaceOnUse" spreadMethod="pad" id="fill2" gradientTransform="matrix(0.000360892 0 0 0.000360892 65 657)"><stop offset="0" stop-color="#FFFF00"/><stop offset="0.54" stop-color="#F68D00" stop-opacity="0"/><stop offset="1" stop-color="#F68D00" stop-opacity="0"/></radialGradient><radialGradient cx="94211" cy="101138" r="138220" gradientUnits="userSpaceOnUse" spreadMethod="pad" id="fill3" gradientTransform="matrix(0.000360892 0 0 0.000360892 83.9999 766)"><stop offset="0" stop-color="#FFFF00"/><stop offset="0.54" stop-color="#F68D00" stop-opacity="0"/><stop offset="1" stop-color="#F68D00" stop-opacity="0"/></radialGradient><radialGradient cx="110836" cy="120534" r="163747" fx="110836" fy="120534" gradientUnits="userSpaceOnUse" spreadMethod="pad" id="fill4" gradientTransform="matrix(0.000360892 0 0 0.000360892 113 811)"><stop offset="0" stop-color="#FFFF00"/><stop offset="0.54" stop-color="#F68D00" stop-opacity="0"/><stop offset="1" stop-color="#F68D00" stop-opacity="0"/></radialGradient><radialGradient cx="292330" cy="278476" r="403740" gradientUnits="userSpaceOnUse" spreadMethod="pad" id="fill5" gradientTransform="matrix(0.000360892 0 0 0.000360892 334 942)"><stop offset="0" stop-color="#FFFF00"/><stop offset="0.54" stop-color="#F68D00" stop-opacity="0"/><stop offset="1" stop-color="#F68D00" stop-opacity="0"/></radialGradient><radialGradient cx="72044" cy="77585.5" r="105877" fx="72044" fy="77585.5" gradientUnits="userSpaceOnUse" spreadMethod="pad" id="fill6" gradientTransform="matrix(0.000360892 0 0 0.000360892 479 1070)"><stop offset="0" stop-color="#FFFF00"/><stop offset="0.54" stop-color="#F68D00" stop-opacity="0"/><stop offset="1" stop-color="#F68D00" stop-opacity="0"/></radialGradient><radialGradient cx="77585.5" cy="84513" r="114726" fx="77585.5" fy="84513" gradientUnits="userSpaceOnUse" spreadMethod="pad" id="fill7" gradientTransform="matrix(0.000360892 0 0 0.000360892 463 987)"><stop offset="0" stop-color="#FFFF00"/><stop offset="0.54" stop-color="#F68D00" stop-opacity="0"/><stop offset="1" stop-color="#F68D00" stop-opacity="0"/></radialGradient><clipPath id="clip8"><rect x="92" y="697" width="468" height="468"/></clipPath><clipPath id="clip9"><rect x="92" y="697" width="468" height="468"/></clipPath><clipPath id="clip10"><rect x="92" y="697" width="468" height="468"/></clipPath><linearGradient x1="318" y1="643" x2="318" y2="797" gradientUnits="userSpaceOnUse" spreadMethod="reflect" id="fill11"><stop offset="0" stop-color="#F5FAFF" stop-opacity="0.231373"/><stop offset="0.32" stop-color="#FFFFFF" stop-opacity="0"/><stop offset="1" stop-color="#FFFFFF" stop-opacity="0"/></linearGradient></defs><g clip-path="url(#clip0)" transform="translate(-45 -637)"><rect x="45" y="637" width="550" height="550" fill="url(#fill1)"/><path d="M65 813C65 726.844 125.442 657 200 657 274.559 657 335 726.844 335 813 335 899.156 274.559 969 200 969 125.442 969 65 899.156 65 813Z" fill="url(#fill2)" fill-rule="evenodd"/><path d="M83.9999 802.5C83.9999 782.342 99.2222 766 118 766 136.778 766 152 782.342 152 802.5 152 822.658 136.778 839 118 839 99.2222 839 83.9999 822.658 83.9999 802.5Z" fill="url(#fill3)" fill-rule="evenodd"/><path d="M113 854.5C113 830.475 130.909 811 153 811 175.091 811 193 830.475 193 854.5 193 878.524 175.091 898 153 898 130.909 898 113 878.524 113 854.5Z" fill="url(#fill4)" fill-rule="evenodd"/><path d="M334 1042.5C334 986.995 381.234 942 439.5 942 497.766 942 545 986.995 545 1042.5 545 1098 497.766 1143 439.5 1143 381.234 1143 334 1098 334 1042.5Z" fill="url(#fill5)" fill-rule="evenodd"/><path d="M479 1098C479 1082.54 490.641 1070 505 1070 519.359 1070 531 1082.54 531 1098 531 1113.46 519.359 1126 505 1126 490.641 1126 479 1113.46 479 1098Z" fill="url(#fill6)" fill-rule="evenodd"/><path d="M463 1017.5C463 1000.66 475.536 987 491 987 506.464 987 519 1000.66 519 1017.5 519 1034.34 506.464 1048 491 1048 475.536 1048 463 1034.34 463 1017.5Z" fill="url(#fill7)" fill-rule="evenodd"/><g clip-path="url(#clip8)"><g clip-path="url(#clip9)"><g clip-path="url(#clip10)"><path d="M321.463 865.57 344.84 865.57C344.84 865.57 347.951 872.591 354.302 872.591L372.983 872.591 372.983 872.603 387.034 872.603C387.034 871.308 388.041 870.258 389.407 870.258L399.566 870.258 401.085 865.57 457.289 865.57 459.988 872.84 514.887 868.273C514.887 868.273 517.88 872.635 517.88 886.667 517.88 900.699 514.887 904.148 514.887 904.148L459.988 900.06 457.289 907.764 401.085 907.764 398.738 900.732 372.983 900.732 372.983 907.56 363.616 917.141 368.299 917.141 368.299 945.27 372.983 945.27 372.983 973.399 368.299 973.399 368.299 975.743 368.299 982.775 307.412 982.775 307.412 978.087 283.993 978.087C271.958 978.087 259.952 969.86 255.771 962.483 251.589 955.106 248.886 949.958 241.841 949.958 237.346 949.958 233.336 952.079 230.762 955.377L221.118 1016.11C219.094 1028.86 207.308 1036.5 194.795 1033.19L184.797 1030.54C172.284 1027.22 166.429 1014.95 171.684 1003.21L195.323 950.376C192.19 946.389 190.32 941.36 190.32 935.893 190.32 930.616 192.062 925.746 195.002 921.829L190.32 921.829C187.734 921.829 185.637 919.73 185.637 917.141 185.637 914.551 187.734 912.452 190.32 912.452L199.688 912.452 199.688 879.635C194.514 879.635 190.32 875.437 190.32 870.258 190.32 865.08 194.514 860.882 199.688 860.882L213.743 860.882C216.327 860.882 218.422 862.961 218.422 865.518L218.422 865.57 218.581 865.57 223.079 870.237 227.79 865.635 227.79 853.85 211.547 853.85 171.049 860.882 143.489 860.882C140.9 860.882 138.8 858.79 138.8 856.205L138.8 823.365C138.8 820.782 140.916 818.688 143.489 818.688L171.049 818.688 211.547 825.721 228.275 825.721C228.998 823.924 230.457 822.31 232.158 821.631L230.81 822.169C235.621 820.247 243.412 820.249 248.259 822.193L246.856 821.631C248.545 822.308 250.009 823.909 250.73 825.721L284.482 825.721C285.21 823.924 286.677 822.31 288.389 821.631L287.095 822.145C291.901 820.236 299.729 820.276 304.481 822.193L303.087 821.631C304.765 822.308 306.221 823.909 306.937 825.721L321.463 825.721 321.463 823.376 317.946 823.376C317.301 823.376 316.779 822.872 316.779 822.227L316.779 815.15C316.779 814.515 317.348 814 317.946 814L348.398 814C349.042 814 349.565 814.504 349.565 815.15L349.565 822.227C349.565 822.862 348.996 823.376 348.398 823.376L344.881 823.376 344.881 825.721 415.177 825.721C417.741 825.721 419.819 827.835 419.819 830.366L419.819 849.205C419.819 851.77 417.758 853.85 415.177 853.85L340.197 853.85 340.197 860.882 321.463 860.882 321.463 865.57ZM264.225 945.703 264.505 945.983C264.547 945.786 264.59 945.591 264.634 945.398 264.496 945.498 264.359 945.6 264.225 945.703ZM258.423 953.161C257.985 954.39 257.748 955.672 257.748 956.99 257.748 966.053 270.922 973.399 281.269 973.399 291.616 973.399 299.586 966.053 299.586 956.99 299.586 947.928 289.657 940.581 279.31 940.581 277.354 940.581 275.368 940.844 273.432 941.331 274.945 942.394 276.561 943.401 278.032 944.057 270.426 945.088 267.828 956.548 270.805 962.579 272.145 965.295 271.216 965.328 269.875 964.668 265.141 962.342 263.692 957.672 263.703 952.798L260.881 955.62 258.423 953.161ZM464.314 879.635C465.608 879.635 466.656 878.585 466.656 877.291 466.656 875.996 465.608 874.947 464.314 874.947 463.021 874.947 461.972 875.996 461.972 877.291 461.972 878.585 463.021 879.635 464.314 879.635ZM473.061 879.347C474.355 879.347 475.403 878.298 475.403 877.004 475.403 875.709 474.355 874.659 473.061 874.659 471.768 874.659 470.72 875.709 470.72 877.004 470.72 878.298 471.768 879.347 473.061 879.347ZM482.384 878.848C483.678 878.848 484.726 877.799 484.726 876.504 484.726 875.209 483.678 874.16 482.384 874.16 481.091 874.16 480.042 875.209 480.042 876.504 480.042 877.799 481.091 878.848 482.384 878.848ZM491.647 878.139C492.94 878.139 493.989 877.09 493.989 875.795 493.989 874.5 492.94 873.451 491.647 873.451 490.353 873.451 489.305 874.5 489.305 875.795 489.305 877.09 490.353 878.139 491.647 878.139ZM501.068 877.354C502.361 877.354 503.409 876.304 503.409 875.01 503.409 873.715 502.361 872.666 501.068 872.666 499.774 872.666 498.726 873.715 498.726 875.01 498.726 876.304 499.774 877.354 501.068 877.354ZM509.846 876.78C511.139 876.78 512.188 875.731 512.188 874.436 512.188 873.142 511.139 872.092 509.846 872.092 508.553 872.092 507.504 873.142 507.504 874.436 507.504 875.731 508.553 876.78 509.846 876.78ZM464.314 889.012C465.608 889.012 466.656 887.962 466.656 886.667 466.656 885.372 465.608 884.323 464.314 884.323 463.021 884.323 461.972 885.372 461.972 886.667 461.972 887.962 463.021 889.012 464.314 889.012ZM473.682 889.012C474.975 889.012 476.023 887.962 476.023 886.667 476.023 885.372 474.975 884.323 473.682 884.323 472.388 884.323 471.34 885.372 471.34 886.667 471.34 887.962 472.388 889.012 473.682 889.012ZM483.049 889.012C484.342 889.012 485.391 887.962 485.391 886.667 485.391 885.372 484.342 884.323 483.049 884.323 481.756 884.323 480.707 885.372 480.707 886.667 480.707 887.962 481.756 889.012 483.049 889.012ZM492.416 889.012C493.71 889.012 494.758 887.962 494.758 886.667 494.758 885.372 493.71 884.323 492.416 884.323 491.123 884.323 490.074 885.372 490.074 886.667 490.074 887.962 491.123 889.012 492.416 889.012ZM501.784 889.012C503.077 889.012 504.125 887.962 504.125 886.667 504.125 885.372 503.077 884.323 501.784 884.323 500.49 884.323 499.442 885.372 499.442 886.667 499.442 887.962 500.49 889.012 501.784 889.012ZM511.151 889.012C512.444 889.012 513.492 887.962 513.492 886.667 513.492 885.372 512.444 884.323 511.151 884.323 509.858 884.323 508.809 885.372 508.809 886.667 508.809 887.962 509.858 889.012 511.151 889.012ZM464.314 898.388C465.608 898.388 466.656 897.338 466.656 896.044 466.656 894.749 465.608 893.7 464.314 893.7 463.021 893.7 461.972 894.749 461.972 896.044 461.972 897.338 463.021 898.388 464.314 898.388ZM472.966 898.971C474.259 898.971 475.307 897.921 475.307 896.626 475.307 895.332 474.259 894.282 472.966 894.282 471.672 894.282 470.624 895.332 470.624 896.626 470.624 897.921 471.672 898.971 472.966 898.971ZM481.755 899.653C483.048 899.653 484.096 898.604 484.096 897.309 484.096 896.015 483.048 894.965 481.755 894.965 480.461 894.965 479.413 896.015 479.413 897.309 479.413 898.604 480.461 899.653 481.755 899.653ZM491.255 900.515C492.549 900.515 493.597 899.465 493.597 898.171 493.597 896.876 492.549 895.827 491.255 895.827 489.962 895.827 488.914 896.876 488.914 898.171 488.914 899.465 489.962 900.515 491.255 900.515ZM500.726 901.382C502.019 901.382 503.068 900.333 503.068 899.038 503.068 897.743 502.019 896.694 500.726 896.694 499.433 896.694 498.384 897.743 498.384 899.038 498.384 900.333 499.433 901.382 500.726 901.382ZM509.822 902.281C511.115 902.281 512.163 901.232 512.163 899.937 512.163 898.643 511.115 897.593 509.822 897.593 508.528 897.593 507.48 898.643 507.48 899.937 507.48 901.232 508.528 902.281 509.822 902.281Z" stroke="#0F1113" stroke-width="4.58823" stroke-dasharray="18.3529 13.7647" fill="#FFC000" fill-rule="evenodd"/></g></g></g><path d="M78.7873 643 557.213 643C573.112 643 586 662.864 586 687.368L586 797C586 758.824 565.92 727.876 541.15 727.876L94.8503 727.876C70.08 727.876 49.9998 758.824 49.9998 797L49.9998 687.368C49.9998 662.864 62.8883 643 78.7873 643Z" fill="url(#fill11)" fill-rule="evenodd"/></g></svg>