<svg width="550" height="550" xmlns="http://www.w3.org/2000/svg" xmlns:xlink="http://www.w3.org/1999/xlink" overflow="hidden"><defs><clipPath id="clip0"><rect x="626" y="46" width="550" height="550"/></clipPath><radialGradient cx="762000" cy="762000" r="1.07763e+06" gradientUnits="userSpaceOnUse" spreadMethod="pad" id="fill1" gradientTransform="matrix(0.000360892 0 0 0.000360892 626 46.0001)"><stop offset="0" stop-color="#F08730"/><stop offset="0.17" stop-color="#F08730"/><stop offset="0.38" stop-color="#9D0101"/><stop offset="1" stop-color="#0F1113"/></radialGradient><radialGradient cx="374073" cy="447502" r="583257" gradientUnits="userSpaceOnUse" spreadMethod="pad" id="fill2" gradientTransform="matrix(0.000360892 0 0 0.000360892 646 54)"><stop offset="0" stop-color="#F08730"/><stop offset="0.54" stop-color="#540808" stop-opacity="0"/><stop offset="1" stop-color="#540808" stop-opacity="0"/></radialGradient><linearGradient x1="899.5" y1="50.9999" x2="899.5" y2="206" gradientUnits="userSpaceOnUse" spreadMethod="reflect" id="fill3"><stop offset="0" stop-color="#F5FAFF" stop-opacity="0.231373"/><stop offset="0.32" stop-color="#FFFFFF" stop-opacity="0"/><stop offset="1" stop-color="#FFFFFF" stop-opacity="0"/></linearGradient><radialGradient cx="94210.5" cy="102524" r="139236" gradientUnits="userSpaceOnUse" spreadMethod="pad" id="fill4" gradientTransform="matrix(0.000360892 0 0 0.000360892 665 174)"><stop offset="0" stop-color="#F08730"/><stop offset="0.54" stop-color="#540808" stop-opacity="0"/><stop offset="1" stop-color="#540808" stop-opacity="0"/></radialGradient><radialGradient cx="110836" cy="120534" r="163748" gradientUnits="userSpaceOnUse" spreadMethod="pad" id="fill5" gradientTransform="matrix(0.000360892 0 0 0.000360892 694 219)"><stop offset="0" stop-color="#F08730"/><stop offset="0.54" stop-color="#540808" stop-opacity="0"/><stop offset="1" stop-color="#540808" stop-opacity="0"/></radialGradient><radialGradient cx="292331" cy="278477" r="403741" fx="292331" fy="278476" gradientUnits="userSpaceOnUse" spreadMethod="pad" id="fill6" gradientTransform="matrix(0.000360892 0 0 0.000360892 915 350)"><stop offset="0" stop-color="#F08730"/><stop offset="0.54" stop-color="#540808" stop-opacity="0"/><stop offset="1" stop-color="#540808" stop-opacity="0"/></radialGradient><radialGradient cx="72043.5" cy="77585" r="105876" gradientUnits="userSpaceOnUse" spreadMethod="pad" id="fill7" gradientTransform="matrix(0.000360892 0 0 0.000360892 1060 478)"><stop offset="0" stop-color="#F08730"/><stop offset="0.54" stop-color="#540808" stop-opacity="0"/><stop offset="1" stop-color="#540808" stop-opacity="0"/></radialGradient><radialGradient cx="77585.5" cy="84513" r="114726" fx="77585.5" fy="84513" gradientUnits="userSpaceOnUse" spreadMethod="pad" id="fill8" gradientTransform="matrix(0.000360892 0 0 0.000360892 1044 395)"><stop offset="0" stop-color="#F08730"/><stop offset="0.54" stop-color="#540808" stop-opacity="0"/><stop offset="1" stop-color="#540808" stop-opacity="0"/></radialGradient><clipPath id="clip9"><rect x="656" y="106" width="484" height="446"/></clipPath><clipPath id="clip10"><rect x="656" y="106" width="484" height="446"/></clipPath><clipPath id="clip11"><rect x="656" y="106" width="484" height="446"/></clipPath></defs><g clip-path="url(#clip0)" transform="translate(-626 -46)"><rect x="626" y="46.0001" width="550" height="550" fill="url(#fill1)"/><path d="M646 215.5C646 126.306 706.441 54 781 54 855.558 54 916 126.306 916 215.5 916 304.694 855.558 377 781 377 706.441 377 646 304.694 646 215.5Z" fill="url(#fill2)" fill-rule="evenodd"/><path d="M660.734 50.9999 1138.27 50.9999C1154.14 50.9999 1167 70.9928 1167 95.6556L1167 206C1167 167.576 1146.96 136.427 1122.23 136.427L676.767 136.427C652.043 136.427 632 167.576 632 206L632 95.6556C632 70.9928 644.865 50.9999 660.734 50.9999Z" fill="url(#fill3)" fill-rule="evenodd"/><path d="M665 211C665 190.565 680.222 174 699 174 717.778 174 733 190.565 733 211 733 231.434 717.778 248 699 248 680.222 248 665 231.434 665 211Z" fill="url(#fill4)" fill-rule="evenodd"/><path d="M694 262.5C694 238.476 711.909 219 734 219 756.092 219 774 238.476 774 262.5 774 286.524 756.092 306 734 306 711.909 306 694 286.524 694 262.5Z" fill="url(#fill5)" fill-rule="evenodd"/><path d="M915 450.5C915 394.995 962.234 350 1020.5 350 1078.77 350 1126 394.995 1126 450.5 1126 506.005 1078.77 551 1020.5 551 962.234 551 915 506.005 915 450.5Z" fill="url(#fill6)" fill-rule="evenodd"/><path d="M1060 506C1060 490.536 1071.64 478 1086 478 1100.36 478 1112 490.536 1112 506 1112 521.464 1100.36 534 1086 534 1071.64 534 1060 521.464 1060 506Z" fill="url(#fill7)" fill-rule="evenodd"/><path d="M1044 425.5C1044 408.655 1056.54 395 1072 395 1087.46 395 1100 408.655 1100 425.5 1100 442.345 1087.46 456 1072 456 1056.54 456 1044 442.345 1044 425.5Z" fill="url(#fill8)" fill-rule="evenodd"/><g clip-path="url(#clip9)"><g clip-path="url(#clip10)"><g clip-path="url(#clip11)"><path d="M376.885 267.095C370.029 257.732 365.151 248.908 361.81 241.875 368.123 235.045 371.611 225.215 367.478 210.029 355.275 175.707 343.689 157.571 319.226 132.989 306.614 120.459 292.251 117.827 281.038 120.603L267.486 114.097C269.997 113.737 272.507 113.115 274.983 112.203 293.969 105.208 303.689 84.139 296.693 65.1529 289.694 46.1685 268.627 36.4458 249.64 43.4451 230.654 50.441 220.931 71.5055 227.93 90.4932 228.71 92.6074 229.673 94.5995 230.779 96.4744L171.034 67.7933C165.414 65.0943 158.829 66.7899 155.141 71.5055L296.724 129.693C300.747 131.347 303.884 134.468 305.56 138.483 307.236 142.496 307.251 146.924 305.598 150.945 303.081 157.083 297.165 161.049 290.527 161.049 288.407 161.049 286.327 160.639 284.348 159.826L263.254 151.157C264.798 157.347 267.971 163.487 272.468 168.431 286.545 186.914 308.092 212.754 317.093 239.533 317.111 239.575 317.128 239.616 317.148 239.66 319.347 246.69 326.731 267.466 344.024 291.143 364.52 319.293 399.844 351.559 455.611 366.696 457.405 367.187 459.208 367.42 460.98 367.42 469.932 367.42 478.138 361.465 480.609 352.411 483.566 341.565 477.171 330.373 466.324 327.411 420.561 314.859 393.442 289.576 376.885 267.095Z" stroke="#FBA671" stroke-width="4.59185" fill="#0F1113" transform="matrix(-1 0 0 1.00037 1139.17 107)"/><path d="M290.524 157.793C295.652 157.793 300.514 154.747 302.583 149.712 305.318 143.055 302.14 135.44 295.482 132.705L152.711 74.0303C146.057 71.2954 138.444 74.4733 135.706 81.1305 132.971 87.7876 136.149 95.4009 142.806 98.1358L285.577 156.812C287.198 157.479 288.876 157.793 290.524 157.793Z" stroke="#FBA671" stroke-width="4.59185" fill="#0F1113" transform="matrix(-1 0 0 1.00037 1139.17 107)"/><path d="M0 0 84.8817 0 84.8817 443.838 9.9418e-08 443.838Z" stroke="#FBA671" stroke-width="4.59185" fill="#0F1113" transform="matrix(-1 0 0 1.00037 1139.17 107)"/></g></g></g></g></svg>