<svg width="550" height="550" xmlns="http://www.w3.org/2000/svg" xmlns:xlink="http://www.w3.org/1999/xlink" overflow="hidden"><defs><clipPath id="clip0"><rect x="1851" y="46" width="550" height="550"/></clipPath><radialGradient cx="762000" cy="762000" r="1.07763e+06" gradientUnits="userSpaceOnUse" spreadMethod="pad" id="fill1" gradientTransform="matrix(0.000360892 0 0 0.000360892 1851 46.0001)"><stop offset="0" stop-color="#F08730"/><stop offset="0.17" stop-color="#F08730"/><stop offset="0.38" stop-color="#9D0101"/><stop offset="1" stop-color="#0F1113"/></radialGradient><radialGradient cx="372687" cy="447502" r="582369" gradientUnits="userSpaceOnUse" spreadMethod="pad" id="fill2" gradientTransform="matrix(0.000360892 0 0 0.000360892 1872 54)"><stop offset="0" stop-color="#F08730"/><stop offset="0.54" stop-color="#540808" stop-opacity="0"/><stop offset="1" stop-color="#540808" stop-opacity="0"/></radialGradient><linearGradient x1="2124.5" y1="50.9999" x2="2124.5" y2="206" gradientUnits="userSpaceOnUse" spreadMethod="reflect" id="fill3"><stop offset="0" stop-color="#F5FAFF" stop-opacity="0.231373"/><stop offset="0.32" stop-color="#FFFFFF" stop-opacity="0"/><stop offset="1" stop-color="#FFFFFF" stop-opacity="0"/></linearGradient><radialGradient cx="94211" cy="102524" r="139236" gradientUnits="userSpaceOnUse" spreadMethod="pad" id="fill4" gradientTransform="matrix(0.000360892 0 0 0.000360892 1890 174)"><stop offset="0" stop-color="#F08730"/><stop offset="0.54" stop-color="#540808" stop-opacity="0"/><stop offset="1" stop-color="#540808" stop-opacity="0"/></radialGradient><radialGradient cx="110836" cy="120534" r="163747" fx="110836" fy="120534" gradientUnits="userSpaceOnUse" spreadMethod="pad" id="fill5" gradientTransform="matrix(0.000360892 0 0 0.000360892 1919 219)"><stop offset="0" stop-color="#F08730"/><stop offset="0.54" stop-color="#540808" stop-opacity="0"/><stop offset="1" stop-color="#540808" stop-opacity="0"/></radialGradient><radialGradient cx="292331" cy="278477" r="403741" fx="292331" fy="278476" gradientUnits="userSpaceOnUse" spreadMethod="pad" id="fill6" gradientTransform="matrix(0.000360892 0 0 0.000360892 2140 350)"><stop offset="0" stop-color="#F08730"/><stop offset="0.54" stop-color="#540808" stop-opacity="0"/><stop offset="1" stop-color="#540808" stop-opacity="0"/></radialGradient><radialGradient cx="70658.5" cy="77585" r="104938" gradientUnits="userSpaceOnUse" spreadMethod="pad" id="fill7" gradientTransform="matrix(0.000360892 0 0 0.000360892 2286 478)"><stop offset="0" stop-color="#F08730"/><stop offset="0.54" stop-color="#540808" stop-opacity="0"/><stop offset="1" stop-color="#540808" stop-opacity="0"/></radialGradient><radialGradient cx="77585.5" cy="84513" r="114726" fx="77585.5" fy="84513" gradientUnits="userSpaceOnUse" spreadMethod="pad" id="fill8" gradientTransform="matrix(0.000360892 0 0 0.000360892 2269 395)"><stop offset="0" stop-color="#F08730"/><stop offset="0.54" stop-color="#540808" stop-opacity="0"/><stop offset="1" stop-color="#540808" stop-opacity="0"/></radialGradient><clipPath id="clip9"><rect x="1889" y="82" width="482" height="481"/></clipPath><clipPath id="clip10"><rect x="1889" y="82" width="482" height="481"/></clipPath><clipPath id="clip11"><rect x="1889" y="82" width="482" height="481"/></clipPath></defs><g clip-path="url(#clip0)" transform="translate(-1851 -46)"><rect x="1851" y="46.0001" width="550" height="550" fill="url(#fill1)"/><path d="M1872 215.5C1872 126.306 1932.22 54 2006.5 54 2080.78 54 2141 126.306 2141 215.5 2141 304.694 2080.78 377 2006.5 377 1932.22 377 1872 304.694 1872 215.5Z" fill="url(#fill2)" fill-rule="evenodd"/><path d="M1885.73 50.9999 2363.27 50.9999C2379.14 50.9999 2392 70.9928 2392 95.6556L2392 206C2392 167.576 2371.96 136.427 2347.23 136.427L1901.77 136.427C1877.04 136.427 1857 167.576 1857 206L1857 95.6556C1857 70.9928 1869.86 50.9999 1885.73 50.9999Z" fill="url(#fill3)" fill-rule="evenodd"/><path d="M1890 211C1890 190.565 1905.22 174 1924 174 1942.78 174 1958 190.565 1958 211 1958 231.434 1942.78 248 1924 248 1905.22 248 1890 231.434 1890 211Z" fill="url(#fill4)" fill-rule="evenodd"/><path d="M1919 262.5C1919 238.476 1936.91 219 1959 219 1981.09 219 1999 238.476 1999 262.5 1999 286.524 1981.09 306 1959 306 1936.91 306 1919 286.524 1919 262.5Z" fill="url(#fill5)" fill-rule="evenodd"/><path d="M2140 450.5C2140 394.995 2187.23 350 2245.5 350 2303.77 350 2351 394.995 2351 450.5 2351 506.005 2303.77 551 2245.5 551 2187.23 551 2140 506.005 2140 450.5Z" fill="url(#fill6)" fill-rule="evenodd"/><path d="M2286 506C2286 490.536 2297.42 478 2311.5 478 2325.58 478 2337 490.536 2337 506 2337 521.464 2325.58 534 2311.5 534 2297.42 534 2286 521.464 2286 506Z" fill="url(#fill7)" fill-rule="evenodd"/><path d="M2269 425.5C2269 408.655 2281.54 395 2297 395 2312.46 395 2325 408.655 2325 425.5 2325 442.345 2312.46 456 2297 456 2281.54 456 2269 442.345 2269 425.5Z" fill="url(#fill8)" fill-rule="evenodd"/><g clip-path="url(#clip9)"><g clip-path="url(#clip10)"><g clip-path="url(#clip11)"><path d="M127.948 137.733C134.637 136.594 140.334 136.237 145.031 136.664 148.734 137.095 151.296 138.014 152.719 139.444 153.433 140.011 153.788 140.723 153.788 141.581 153.788 141.863 153.788 142.149 153.788 142.434 153.928 142.72 154.073 143.076 154.214 143.503 154.357 144.215 154.287 144.928 154.003 145.641 156.991 175.566 167.67 201.281 186.037 222.797 177.066 226.927 169.306 231.698 162.757 237.112L162.544 237.112C145.884 251.076 134.993 267.82 129.867 287.339 121.753 270.384 120.33 247.162 125.597 217.664 125.74 216.811 125.67 215.953 125.384 215.105 116.271 194.156 109.866 174.347 106.163 155.686 105.736 155.4 105.452 155.044 105.307 154.617 104.883 154.19 104.597 153.478 104.454 152.48 103.458 149.344 106.092 146.283 112.357 143.288L111.93 143.288C116.201 140.723 121.54 138.872 127.948 137.733ZM229.39 56.5171C233.66 54.947 238.073 53.7374 242.632 52.8845 242.915 52.8845 243.272 52.8845 243.698 52.8845 244.694 52.8845 245.62 52.5283 246.476 51.8155 247.327 51.1032 247.826 50.2502 247.971 49.2513L249.89 36 267.19 36.6422 268.683 48.8251C268.828 49.8187 269.327 50.6765 270.18 51.3893 271.033 52.1016 271.959 52.4577 272.955 52.4577 273.811 52.4577 274.737 52.5984 275.733 52.8845 276.016 52.8845 276.302 52.8845 276.586 52.8845 276.729 52.8845 276.872 52.9545 277.015 53.1L277.226 53.1C285.911 54.8064 293.172 58.2283 299.011 63.3561L299.011 63.5717C307.125 70.2657 311.184 78.9561 311.184 89.6438 311.184 89.9299 311.114 90.3561 310.971 90.9235 301.003 92.2123 291.75 94.1299 283.207 96.6984 281.355 95.4187 279.576 94.4904 277.868 93.9187 274.877 92.7797 270.537 92.2123 264.841 92.2123 253.451 92.2123 243.555 95.7 235.155 102.68 226.045 109.805 221.487 118.856 221.487 129.825 221.487 131.681 221.557 133.172 221.7 134.315 209.03 149.273 200.63 167.939 196.5 190.308 192.799 183.188 189.951 177.131 187.957 172.139 181.835 157.467 178.774 144 178.774 131.751 178.774 124.627 179.7 117.642 181.551 110.803 181.692 109.95 181.622 109.163 181.338 108.455 181.052 107.597 180.623 106.955 180.056 106.528L166.816 95.6299 176.212 80.8829 187.957 86.2267C188.67 86.508 189.452 86.5781 190.308 86.4374 191.018 86.2968 191.73 86.0107 192.443 85.5845 193.012 85.0123 193.439 84.3701 193.725 83.6625 193.866 83.0904 194.081 82.6641 194.365 82.3781 194.506 82.2326 194.651 82.092 194.791 81.9513 197.212 78.5299 199.845 75.539 202.694 72.9749 203.264 72.2625 203.69 71.5497 203.974 70.8374 204.117 69.9845 204.045 69.1968 203.761 68.4845L198.635 53.5267 214.652 46.4719 221.06 56.0904C221.487 56.8032 222.199 57.3 223.195 57.5861 224.191 57.8717 225.117 57.8717 225.97 57.5861 226.969 57.1593 227.965 56.8733 228.961 56.7326 229.104 56.5877 229.247 56.5171 229.39 56.5171ZM230.03 129.825C230.03 121.42 233.519 114.581 240.494 109.308 247.327 103.608 255.445 100.758 264.841 100.758 269.111 100.758 272.456 101.184 274.877 102.042L275.09 102.042C276.515 102.61 277.941 103.537 279.363 104.817 279.93 105.249 280.572 105.53 281.285 105.675 281.995 105.815 282.71 105.745 283.42 105.459 292.959 102.61 303.424 100.472 314.815 99.047L315.028 99.047C323.288 98.0529 331.971 97.4813 341.084 97.3358 352.615 108.31 353.327 120.778 343.219 134.737 329.266 134.597 317.02 135.951 306.485 138.802 273.311 147.206 255.799 169.008 253.95 204.197 234.016 207.051 216.576 211.041 201.626 216.169 201.91 212.325 202.338 208.547 202.908 204.844 203.049 204.558 203.121 204.272 203.121 203.986 205.969 177.056 214.652 155.189 229.174 138.375 229.603 137.944 229.889 137.447 230.03 136.875 230.172 136.167 230.243 135.525 230.243 134.958 230.1 134.1 230.03 132.389 230.03 129.825ZM348.345 223.65C348.914 223.078 349.554 222.581 350.266 222.154 358.666 229.992 364.505 236.761 367.779 242.456 372.049 250.149 374.684 261.478 375.68 276.441 376.392 290.976 371.623 305.433 361.371 319.828L361.371 319.612C339.588 349.247 327.911 365.78 326.346 369.197L326.133 369.408C314.315 396.197 305.276 414.22 299.011 423.483 289.472 437.161 274.591 444 254.376 444 227.751 443.719 200.7 427.045 173.222 393.989 147.736 363.497 134.923 337.42 134.782 315.764 134.782 310.495 135.136 305.503 135.849 300.806 135.991 300.52 136.062 300.234 136.062 299.949L136.062 299.737C139.336 277.51 150.014 258.844 168.096 243.741 175.359 237.755 184.256 232.627 194.791 228.351 194.791 228.211 194.862 228.141 195.005 228.141L195.22 228.141C196.5 227.423 197.71 226.856 198.851 226.425 198.991 226.284 199.205 226.144 199.49 226.003 215.721 219.872 235.369 215.245 258.433 212.11L258.649 212.11C259.073 212.11 259.5 212.11 259.929 212.11 287.123 238.181 316.237 242.175 347.276 224.076 347.559 223.936 347.918 223.795 348.345 223.65ZM302.215 148.847C296.519 185.034 307.554 209.044 335.315 220.87 310.115 231.984 286.411 226.5 264.199 204.417 263.772 203.986 263.273 203.63 262.704 203.349L262.493 203.349C264.199 175.566 277.441 157.397 302.215 148.847ZM129.867 150.769C135.422 149.344 140.121 147.778 143.965 146.067 145.245 145.069 146.313 144.286 147.169 143.719 146.454 143.433 145.53 143.217 144.391 143.076 140.121 142.65 134.993 143.006 129.014 144.145 123.605 144.998 119.049 146.564 115.345 148.847 115.205 148.847 115.132 148.917 115.132 149.063 112.711 150.202 111.361 150.914 111.075 151.2 111.645 151.481 112.856 151.767 114.706 152.053 119.119 152.053 124.174 151.622 129.867 150.769Z" stroke="#FBA671" stroke-width="4.60432" fill="#0F1113" fill-rule="evenodd" transform="matrix(1 0 0 1 1890 82.0002)"/></g></g></g></g></svg>