<svg width="550" height="550" xmlns="http://www.w3.org/2000/svg" xmlns:xlink="http://www.w3.org/1999/xlink" overflow="hidden"><defs><clipPath id="clip0"><rect x="1245" y="46" width="550" height="550"/></clipPath><radialGradient cx="762000" cy="762000" r="1.07763e+06" gradientUnits="userSpaceOnUse" spreadMethod="pad" id="fill1" gradientTransform="matrix(0.000360892 0 0 0.000360892 1245 46.0001)"><stop offset="0" stop-color="#F08730"/><stop offset="0.17" stop-color="#F08730"/><stop offset="0.38" stop-color="#9D0101"/><stop offset="1" stop-color="#0F1113"/></radialGradient><radialGradient cx="374072" cy="447502" r="583257" gradientUnits="userSpaceOnUse" spreadMethod="pad" id="fill2" gradientTransform="matrix(0.000360892 0 0 0.000360892 1265 54)"><stop offset="0" stop-color="#F08730"/><stop offset="0.54" stop-color="#540808" stop-opacity="0"/><stop offset="1" stop-color="#540808" stop-opacity="0"/></radialGradient><linearGradient x1="1518.5" y1="50.9999" x2="1518.5" y2="206" gradientUnits="userSpaceOnUse" spreadMethod="reflect" id="fill3"><stop offset="0" stop-color="#F5FAFF" stop-opacity="0.231373"/><stop offset="0.32" stop-color="#FFFFFF" stop-opacity="0"/><stop offset="1" stop-color="#FFFFFF" stop-opacity="0"/></linearGradient><radialGradient cx="94211" cy="102524" r="139236" gradientUnits="userSpaceOnUse" spreadMethod="pad" id="fill4" gradientTransform="matrix(0.000360892 0 0 0.000360892 1284 174)"><stop offset="0" stop-color="#F08730"/><stop offset="0.54" stop-color="#540808" stop-opacity="0"/><stop offset="1" stop-color="#540808" stop-opacity="0"/></radialGradient><radialGradient cx="110836" cy="120534" r="163747" fx="110836" fy="120534" gradientUnits="userSpaceOnUse" spreadMethod="pad" id="fill5" gradientTransform="matrix(0.000360892 0 0 0.000360892 1313 219)"><stop offset="0" stop-color="#F08730"/><stop offset="0.54" stop-color="#540808" stop-opacity="0"/><stop offset="1" stop-color="#540808" stop-opacity="0"/></radialGradient><radialGradient cx="292330" cy="278476" r="403740" gradientUnits="userSpaceOnUse" spreadMethod="pad" id="fill6" gradientTransform="matrix(0.000360892 0 0 0.000360892 1534 350)"><stop offset="0" stop-color="#F08730"/><stop offset="0.54" stop-color="#540808" stop-opacity="0"/><stop offset="1" stop-color="#540808" stop-opacity="0"/></radialGradient><radialGradient cx="70658.5" cy="77585" r="104938" gradientUnits="userSpaceOnUse" spreadMethod="pad" id="fill7" gradientTransform="matrix(0.000360892 0 0 0.000360892 1680 478)"><stop offset="0" stop-color="#F08730"/><stop offset="0.54" stop-color="#540808" stop-opacity="0"/><stop offset="1" stop-color="#540808" stop-opacity="0"/></radialGradient><radialGradient cx="77585.5" cy="84513" r="114726" fx="77585.5" fy="84513" gradientUnits="userSpaceOnUse" spreadMethod="pad" id="fill8" gradientTransform="matrix(0.000360892 0 0 0.000360892 1663 395)"><stop offset="0" stop-color="#F08730"/><stop offset="0.54" stop-color="#540808" stop-opacity="0"/><stop offset="1" stop-color="#540808" stop-opacity="0"/></radialGradient><clipPath id="clip9"><rect x="1303" y="107" width="445" height="446"/></clipPath><clipPath id="clip10"><rect x="1303" y="107" width="445" height="446"/></clipPath><clipPath id="clip11"><rect x="1303" y="107" width="445" height="446"/></clipPath></defs><g clip-path="url(#clip0)" transform="translate(-1245 -46)"><rect x="1245" y="46.0001" width="550" height="550" fill="url(#fill1)"/><path d="M1265 215.5C1265 126.306 1325.44 54 1400 54 1474.56 54 1535 126.306 1535 215.5 1535 304.694 1474.56 377 1400 377 1325.44 377 1265 304.694 1265 215.5Z" fill="url(#fill2)" fill-rule="evenodd"/><path d="M1279.73 50.9999 1757.27 50.9999C1773.14 50.9999 1786 70.9928 1786 95.6556L1786 206C1786 167.576 1765.96 136.427 1741.23 136.427L1295.77 136.427C1271.04 136.427 1251 167.576 1251 206L1251 95.6556C1251 70.9928 1263.86 50.9999 1279.73 50.9999Z" fill="url(#fill3)" fill-rule="evenodd"/><path d="M1284 211C1284 190.565 1299.22 174 1318 174 1336.78 174 1352 190.565 1352 211 1352 231.434 1336.78 248 1318 248 1299.22 248 1284 231.434 1284 211Z" fill="url(#fill4)" fill-rule="evenodd"/><path d="M1313 262.5C1313 238.476 1330.91 219 1353 219 1375.09 219 1393 238.476 1393 262.5 1393 286.524 1375.09 306 1353 306 1330.91 306 1313 286.524 1313 262.5Z" fill="url(#fill5)" fill-rule="evenodd"/><path d="M1534 450.5C1534 394.995 1581.23 350 1639.5 350 1697.77 350 1745 394.995 1745 450.5 1745 506.005 1697.77 551 1639.5 551 1581.23 551 1534 506.005 1534 450.5Z" fill="url(#fill6)" fill-rule="evenodd"/><path d="M1680 506C1680 490.536 1691.42 478 1705.5 478 1719.58 478 1731 490.536 1731 506 1731 521.464 1719.58 534 1705.5 534 1691.42 534 1680 521.464 1680 506Z" fill="url(#fill7)" fill-rule="evenodd"/><path d="M1663 425.5C1663 408.655 1675.54 395 1691 395 1706.46 395 1719 408.655 1719 425.5 1719 442.345 1706.46 456 1691 456 1675.54 456 1663 442.345 1663 425.5Z" fill="url(#fill8)" fill-rule="evenodd"/><g clip-path="url(#clip9)"><g clip-path="url(#clip10)"><g clip-path="url(#clip11)"><path d="M198.468 400.488C194.028 412.92 200.688 427.128 213.12 431.124 215.784 432.012 218.448 432.456 221.112 432.456 231.324 432.456 240.648 426.24 244.2 416.028L269.064 344.544 230.88 307.692 198.468 400.488Z" stroke="#FBA671" stroke-width="4.58914" fill="#0F1113" transform="matrix(1.00225 0 0 1 1303 108)"/><path d="M337.884 314.352C336.996 309.468 334.776 305.028 331.224 301.476L299.7 270.396C304.584 252.636 317.016 209.124 322.344 187.812 324.12 180.708 329.004 161.616 307.692 148.296 300.588 143.856 285.936 136.308 277.5 131.868 260.184 122.544 240.648 134.532 229.104 147.408 222.888 154.512 175.38 210.456 170.052 216.672 162.948 225.108 163.836 237.984 172.716 245.088 181.152 252.192 194.028 251.304 201.132 242.424 209.568 233.1 226.44 213.12 239.76 197.58L229.992 255.744C228.66 263.736 231.324 271.728 237.096 277.056L292.152 331.224 308.136 413.364C310.356 424.908 320.568 432.9 332.112 432.9 333.444 432.9 335.22 432.9 336.552 432.456 349.872 429.792 358.308 417.36 355.644 404.04L337.884 314.352Z" stroke="#FBA671" stroke-width="4.58914" fill="#0F1113" transform="matrix(1.00225 0 0 1 1303 108)"/><path d="M366.87 95.4927C366.87 119.041 347.78 138.131 324.231 138.131 300.682 138.131 281.592 119.041 281.592 95.4927 281.592 71.9441 300.682 52.8541 324.231 52.8541 347.78 52.8541 366.87 71.9441 366.87 95.4927Z" stroke="#FBA671" stroke-width="4.59071" fill="#0F1113" transform="matrix(0.933578 -0.362976 0.363793 0.931481 1290.39 232.282)"/><path d="M257.964 68.376C257.52 63.048 254.856 58.164 250.86 54.612L204.684 15.984C196.248 8.88 183.372 9.768 176.268 18.648L81.696 130.98C78.144 134.976 76.368 140.304 77.256 145.632 77.7 150.96 80.364 155.844 84.36 159.396L130.536 198.024C134.532 201.132 138.972 202.908 143.412 202.908 149.184 202.908 154.956 200.244 158.952 195.804L253.524 83.472C256.632 78.588 258.408 73.704 257.964 68.376Z" stroke="#FBA671" stroke-width="4.58914" fill="#0F1113" transform="matrix(1.00225 0 0 1 1303 108)"/></g></g></g></g></svg>