<svg width="550" height="550" xmlns="http://www.w3.org/2000/svg" xmlns:xlink="http://www.w3.org/1999/xlink" overflow="hidden"><defs><clipPath id="clip0"><rect x="2466" y="54" width="550" height="550"/></clipPath><radialGradient cx="762000" cy="762000" r="1.07763e+06" gradientUnits="userSpaceOnUse" spreadMethod="pad" id="fill1" gradientTransform="matrix(0.000360892 0 0 0.000360892 2466 54)"><stop offset="0" stop-color="#F08730"/><stop offset="0.17" stop-color="#F08730"/><stop offset="0.38" stop-color="#9D0101"/><stop offset="1" stop-color="#0F1113"/></radialGradient><radialGradient cx="374072" cy="447502" r="583257" gradientUnits="userSpaceOnUse" spreadMethod="pad" id="fill2" gradientTransform="matrix(0.000360892 0 0 0.000360892 2487 62.9999)"><stop offset="0" stop-color="#F08730"/><stop offset="0.54" stop-color="#540808" stop-opacity="0"/><stop offset="1" stop-color="#540808" stop-opacity="0"/></radialGradient><linearGradient x1="2739.5" y1="60.0002" x2="2739.5" y2="214" gradientUnits="userSpaceOnUse" spreadMethod="reflect" id="fill3"><stop offset="0" stop-color="#F5FAFF" stop-opacity="0.231373"/><stop offset="0.32" stop-color="#FFFFFF" stop-opacity="0"/><stop offset="1" stop-color="#FFFFFF" stop-opacity="0"/></linearGradient><radialGradient cx="94211" cy="102524" r="139237" fx="94211" fy="102524" gradientUnits="userSpaceOnUse" spreadMethod="pad" id="fill4" gradientTransform="matrix(0.000360892 0 0 0.000360892 2505 183)"><stop offset="0" stop-color="#F08730"/><stop offset="0.54" stop-color="#540808" stop-opacity="0"/><stop offset="1" stop-color="#540808" stop-opacity="0"/></radialGradient><radialGradient cx="112222" cy="120534" r="164688" gradientUnits="userSpaceOnUse" spreadMethod="pad" id="fill5" gradientTransform="matrix(0.000360892 0 0 0.000360892 2534 228)"><stop offset="0" stop-color="#F08730"/><stop offset="0.54" stop-color="#540808" stop-opacity="0"/><stop offset="1" stop-color="#540808" stop-opacity="0"/></radialGradient><radialGradient cx="293716" cy="278476" r="404745" gradientUnits="userSpaceOnUse" spreadMethod="pad" id="fill6" gradientTransform="matrix(0.000360892 0 0 0.000360892 2755 359)"><stop offset="0" stop-color="#F08730"/><stop offset="0.54" stop-color="#540808" stop-opacity="0"/><stop offset="1" stop-color="#540808" stop-opacity="0"/></radialGradient><radialGradient cx="70658.5" cy="77585.5" r="104939" fx="70658.5" fy="77585.5" gradientUnits="userSpaceOnUse" spreadMethod="pad" id="fill7" gradientTransform="matrix(0.000360892 0 0 0.000360892 2901 487)"><stop offset="0" stop-color="#F08730"/><stop offset="0.54" stop-color="#540808" stop-opacity="0"/><stop offset="1" stop-color="#540808" stop-opacity="0"/></radialGradient><radialGradient cx="77585.5" cy="84513" r="114726" fx="77585.5" fy="84513" gradientUnits="userSpaceOnUse" spreadMethod="pad" id="fill8" gradientTransform="matrix(0.000360892 0 0 0.000360892 2885 404)"><stop offset="0" stop-color="#F08730"/><stop offset="0.54" stop-color="#540808" stop-opacity="0"/><stop offset="1" stop-color="#540808" stop-opacity="0"/></radialGradient><clipPath id="clip9"><rect x="2497" y="96" width="482" height="483"/></clipPath><clipPath id="clip10"><rect x="2497" y="96" width="482" height="483"/></clipPath><clipPath id="clip11"><rect x="2497" y="96" width="482" height="483"/></clipPath></defs><g clip-path="url(#clip0)" transform="translate(-2466 -54)"><rect x="2466" y="54" width="550" height="550" fill="url(#fill1)"/><path d="M2487 224.5C2487 135.306 2547.44 62.9999 2622 62.9999 2696.56 62.9999 2757 135.306 2757 224.5 2757 313.694 2696.56 386 2622 386 2547.44 386 2487 313.694 2487 224.5Z" fill="url(#fill2)" fill-rule="evenodd"/><path d="M2500.73 60.0002 2978.27 60.0002C2994.14 60.0002 3007 79.8641 3007 104.368L3007 214C3007 175.824 2986.96 144.876 2962.23 144.876L2516.77 144.876C2492.04 144.876 2472 175.824 2472 214L2472 104.368C2472 79.8641 2484.86 60.0002 2500.73 60.0002Z" fill="url(#fill3)" fill-rule="evenodd"/><path d="M2505 220C2505 199.565 2520.22 183 2539 183 2557.78 183 2573 199.565 2573 220 2573 240.435 2557.78 257 2539 257 2520.22 257 2505 240.435 2505 220Z" fill="url(#fill4)" fill-rule="evenodd"/><path d="M2534 271.5C2534 247.476 2552.13 228 2574.5 228 2596.87 228 2615 247.476 2615 271.5 2615 295.524 2596.87 315 2574.5 315 2552.13 315 2534 295.524 2534 271.5Z" fill="url(#fill5)" fill-rule="evenodd"/><path d="M2755 459.5C2755 403.995 2802.46 359 2861 359 2919.54 359 2967 403.995 2967 459.5 2967 515.005 2919.54 560 2861 560 2802.46 560 2755 515.005 2755 459.5Z" fill="url(#fill6)" fill-rule="evenodd"/><path d="M2901 515C2901 499.536 2912.42 487 2926.5 487 2940.58 487 2952 499.536 2952 515 2952 530.464 2940.58 543 2926.5 543 2912.42 543 2901 530.464 2901 515Z" fill="url(#fill7)" fill-rule="evenodd"/><path d="M2885 434.5C2885 417.655 2897.54 404 2913 404 2928.46 404 2941 417.655 2941 434.5 2941 451.345 2928.46 465 2913 465 2897.54 465 2885 451.345 2885 434.5Z" fill="url(#fill8)" fill-rule="evenodd"/><g clip-path="url(#clip9)"><g clip-path="url(#clip10)"><g clip-path="url(#clip11)"><path d="M2626.66 415.602C2635.82 418.976 2644.97 422.832 2661.36 425.724 2661.84 425.724 2661.84 425.724 2662.33 425.724 2665.7 425.724 2672.93 422.35 2680.64 418.976 2695.58 412.228 2713.9 403.552 2738 403.552 2763.55 403.552 2782.34 412.71 2795.84 419.458 2803.07 423.314 2809.34 426.206 2813.19 426.206 2813.67 426.206 2814.64 426.206 2815.6 426.206 2828.13 423.796 2836.81 421.386 2845.49 418.012 2837.29 401.624 2828.13 383.308 2826.21 379.452 2811.26 374.632 2798.73 364.992 2789.57 351.978 2788.61 350.532 2787.65 349.086 2786.68 347.64 2779.45 335.108 2776.08 321.612 2776.56 308.116 2771.74 302.332 2741.86 259.916 2741.86 259.916 2741.86 259.916 2810.78 223.766 2821.39 218.464 2831.99 212.68 2835.85 200.63 2829.58 189.544 2823.8 179.422 2809.82 177.012 2797.77 182.796 2786.2 189.062 2695.1 233.888 2685.46 240.636 2676.79 246.902 2678.71 257.024 2683.05 264.254 2683.05 264.254 2683.05 264.254 2683.05 264.254 2683.05 264.254 2683.05 264.254 2683.05 264.254 2683.53 264.736 2684.02 265.7 2684.02 265.7 2684.02 265.7 2684.02 266.182 2684.5 266.182 2688.84 272.448 2722.58 324.022 2725.47 327.396L2624.73 415.12C2625.69 415.12 2626.18 415.602 2626.66 415.602Z" stroke="#FBA671" stroke-width="4.59048" fill="#0F1113"/><path d="M2903.81 310.526C2903.81 340.873 2879.21 365.474 2848.86 365.474 2818.51 365.474 2793.91 340.873 2793.91 310.526 2793.91 280.179 2818.51 255.578 2848.86 255.578 2879.21 255.578 2903.81 280.179 2903.81 310.526Z" stroke="#FBA671" stroke-width="4.59048" fill="#0F1113"/><path d="M2965.99 464.284C2964.06 458.018 2959.72 452.716 2953.94 449.824 2926.94 435.846 2908.15 430.062 2890.31 430.062 2876.82 430.062 2865.25 433.436 2852.72 437.774 2843.08 440.666 2833.44 444.04 2819.46 446.45 2817.53 446.932 2815.6 446.932 2813.67 446.932 2805 446.932 2797.29 443.076 2787.16 438.256 2774.63 431.99 2758.73 424.278 2738.48 424.278 2719.2 424.278 2703.78 431.508 2689.8 437.774 2679.2 442.594 2671 446.45 2662.81 446.45 2661.36 446.45 2659.43 446.45 2657.99 445.968 2640.15 442.594 2629.55 438.256 2619.91 434.882 2608.82 430.544 2599.18 427.17 2587.62 427.17 2571.71 427.17 2554.84 432.954 2523.51 449.342 2517.73 452.233 2513.39 457.536 2511.46 463.802 2509.53 470.068 2510.01 476.816 2512.91 482.6 2517.24 490.793 2525.44 496.096 2535.08 496.096 2538.93 496.096 2542.79 495.132 2546.16 493.204 2569.3 481.154 2580.87 476.816 2587.62 476.816 2591.47 476.816 2595.33 478.262 2602.56 481.154 2612.68 485.01 2626.66 490.312 2648.83 494.65 2653.65 495.614 2658.47 496.096 2663.29 496.096 2682.57 496.096 2698.48 488.384 2711.49 482.6 2721.61 477.78 2730.77 473.442 2738.96 473.442 2748.12 473.442 2755.83 477.298 2765.96 482.118 2778.49 488.384 2793.91 496.096 2814.16 496.096 2818.98 496.096 2823.8 495.614 2828.62 494.65 2845.97 491.758 2858.5 487.42 2868.62 484.046 2878.26 481.154 2884.05 478.744 2890.79 478.744 2899.95 478.744 2912.48 483.082 2931.76 493.204 2935.14 495.132 2938.99 496.096 2943.33 496.096 2952.49 496.096 2961.17 490.793 2965.5 482.6 2967.43 477.298 2967.91 471.032 2965.99 464.284Z" stroke="#FBA671" stroke-width="4.59048" fill="#0F1113"/></g></g></g></g></svg>