<svg width="550" height="550" xmlns="http://www.w3.org/2000/svg" xmlns:xlink="http://www.w3.org/1999/xlink" overflow="hidden"><defs><clipPath id="clip0"><rect x="28" y="46" width="550" height="550"/></clipPath><radialGradient cx="762000" cy="762000" r="1.07763e+06" gradientUnits="userSpaceOnUse" spreadMethod="pad" id="fill1" gradientTransform="matrix(0.000360892 0 0 0.000360892 27.9998 46.0001)"><stop offset="0" stop-color="#F08730"/><stop offset="0.17" stop-color="#F08730"/><stop offset="0.38" stop-color="#9D0101"/><stop offset="1" stop-color="#0F1113"/></radialGradient><radialGradient cx="374072" cy="447502" r="583257" gradientUnits="userSpaceOnUse" spreadMethod="pad" id="fill2" gradientTransform="matrix(0.000360892 0 0 0.000360892 48.0001 54)"><stop offset="0" stop-color="#F08730"/><stop offset="0.54" stop-color="#540808" stop-opacity="0"/><stop offset="1" stop-color="#540808" stop-opacity="0"/></radialGradient><linearGradient x1="301" y1="50.9999" x2="301" y2="206" gradientUnits="userSpaceOnUse" spreadMethod="reflect" id="fill3"><stop offset="0" stop-color="#F5FAFF" stop-opacity="0.231373"/><stop offset="0.32" stop-color="#FFFFFF" stop-opacity="0"/><stop offset="1" stop-color="#FFFFFF" stop-opacity="0"/></linearGradient><radialGradient cx="94211" cy="102524" r="139236" gradientUnits="userSpaceOnUse" spreadMethod="pad" id="fill4" gradientTransform="matrix(0.000360892 0 0 0.000360892 67 174)"><stop offset="0" stop-color="#F08730"/><stop offset="0.54" stop-color="#540808" stop-opacity="0"/><stop offset="1" stop-color="#540808" stop-opacity="0"/></radialGradient><radialGradient cx="110836" cy="120534" r="163748" gradientUnits="userSpaceOnUse" spreadMethod="pad" id="fill5" gradientTransform="matrix(0.000360892 0 0 0.000360892 95.9999 219)"><stop offset="0" stop-color="#F08730"/><stop offset="0.54" stop-color="#540808" stop-opacity="0"/><stop offset="1" stop-color="#540808" stop-opacity="0"/></radialGradient><radialGradient cx="292331" cy="278477" r="403741" fx="292331" fy="278476" gradientUnits="userSpaceOnUse" spreadMethod="pad" id="fill6" gradientTransform="matrix(0.000360892 0 0 0.000360892 317 350)"><stop offset="0" stop-color="#F08730"/><stop offset="0.54" stop-color="#540808" stop-opacity="0"/><stop offset="1" stop-color="#540808" stop-opacity="0"/></radialGradient><radialGradient cx="72043.5" cy="77585" r="105876" gradientUnits="userSpaceOnUse" spreadMethod="pad" id="fill7" gradientTransform="matrix(0.000360892 0 0 0.000360892 462 478)"><stop offset="0" stop-color="#F08730"/><stop offset="0.54" stop-color="#540808" stop-opacity="0"/><stop offset="1" stop-color="#540808" stop-opacity="0"/></radialGradient><radialGradient cx="77585.5" cy="84513" r="114726" fx="77585.5" fy="84513" gradientUnits="userSpaceOnUse" spreadMethod="pad" id="fill8" gradientTransform="matrix(0.000360892 0 0 0.000360892 446 395)"><stop offset="0" stop-color="#F08730"/><stop offset="0.54" stop-color="#540808" stop-opacity="0"/><stop offset="1" stop-color="#540808" stop-opacity="0"/></radialGradient><clipPath id="clip9"><rect x="59" y="80" width="473" height="472"/></clipPath><clipPath id="clip10"><rect x="59" y="80" width="473" height="472"/></clipPath><clipPath id="clip11"><rect x="59" y="80" width="473" height="472"/></clipPath></defs><g clip-path="url(#clip0)" transform="translate(-28 -46)"><rect x="27.9998" y="46.0001" width="550" height="550" fill="url(#fill1)"/><path d="M48.0001 215.5C48.0001 126.306 108.442 54 183 54 257.558 54 318 126.306 318 215.5 318 304.694 257.558 377 183 377 108.442 377 48.0001 304.694 48.0001 215.5Z" fill="url(#fill2)" fill-rule="evenodd"/><path d="M61.7874 50.9999 540.212 50.9999C556.111 50.9999 569 70.9928 569 95.6556L569 206C569 167.576 548.92 136.427 524.15 136.427L77.8504 136.427C53.0802 136.427 33 167.576 33 206L33 95.6556C33 70.9928 45.8885 50.9999 61.7874 50.9999Z" fill="url(#fill3)" fill-rule="evenodd"/><path d="M67 211C67 190.565 82.2224 174 101 174 119.778 174 135 190.565 135 211 135 231.434 119.778 248 101 248 82.2224 248 67 231.434 67 211Z" fill="url(#fill4)" fill-rule="evenodd"/><path d="M95.9999 262.5C95.9999 238.476 113.909 219 136 219 158.091 219 176 238.476 176 262.5 176 286.524 158.091 306 136 306 113.909 306 95.9999 286.524 95.9999 262.5Z" fill="url(#fill5)" fill-rule="evenodd"/><path d="M317 450.5C317 394.995 364.234 350 422.5 350 480.766 350 528 394.995 528 450.5 528 506.005 480.766 551 422.5 551 364.234 551 317 506.005 317 450.5Z" fill="url(#fill6)" fill-rule="evenodd"/><path d="M462 506C462 490.536 473.641 478 488 478 502.359 478 514 490.536 514 506 514 521.464 502.359 534 488 534 473.641 534 462 521.464 462 506Z" fill="url(#fill7)" fill-rule="evenodd"/><path d="M446 425.5C446 408.655 458.536 395 474 395 489.464 395 502 408.655 502 425.5 502 442.345 489.464 456 474 456 458.536 456 446 442.345 446 425.5Z" fill="url(#fill8)" fill-rule="evenodd"/><g clip-path="url(#clip9)"><g clip-path="url(#clip10)"><g clip-path="url(#clip11)"><path d="M402.422 294.867C398.037 301.623 391.793 307.385 384.106 311.383 376.418 315.366 367.804 317.983 359.216 317.381 347.797 316.596 346.195 315.607 335.321 312.419 322.944 308.824 307.212 308.877 292.062 316.946 275.299 325.885 264.524 342.077 261.316 354.124 260.63 356.683 260.929 358.703 262.268 360.503 265.131 364.266 272.133 366.721 276.168 366.721L358.97 366.522C385.137 366.496 400.899 350.12 403.401 320.463 404.029 312.665 403.621 304.083 402.422 294.867Z" stroke="#FBA671" stroke-width="5.14754" fill="#0F1113" transform="matrix(1.00212 0 0 1 59.0001 80.0001)"/><path d="M346.384 103.824C340.392 103.824 334.363 105.19 328.999 107.911 318.642 113.118 312.236 122.711 312.236 132.937 312.236 136.203 309.651 138.846 306.433 138.846 303.214 138.846 300.597 136.203 300.597 132.937 300.597 122.711 294.197 113.145 283.866 107.911 273.101 102.484 259.746 102.484 249.033 107.911 238.677 113.145 232.35 122.711 232.24 132.937 232.187 138.113 225.646 141.546 221.642 136.255 218.455 132.063 214.446 128.19 209.344 125.631 198.61 120.183 185.281 120.157 174.568 125.631 164.206 130.839 157.989 140.431 157.775 150.626 157.665 155.205 151.149 159.622 147.062 153.813 144.252 149.836 140.573 146.266 135.779 143.89 126.375 139.228 114.652 139.228 105.248 143.89 95.4351 148.71 87.7473 157.874 85.1097 167.823L67.9287 255.423C68.0909 265.403 74.4075 274.724 84.4974 279.873 95.1263 285.274 108.293 285.274 118.87 279.873 123.878 277.314 127.965 273.693 130.891 269.407L130.891 218.518C130.891 215.252 133.476 212.609 136.695 212.609 139.903 212.609 142.519 215.252 142.519 218.518L142.519 271.291C142.519 283.364 149.825 294.673 161.574 300.807 173.679 307.129 188.704 307.129 200.803 300.807 212.578 294.673 219.878 283.364 219.878 271.291L219.878 218.518C219.878 215.252 222.474 212.609 225.682 212.609 228.901 212.609 231.517 215.252 231.517 218.518L231.517 271.291C231.517 283.364 238.823 294.673 250.598 300.807 262.703 307.129 277.717 307.129 289.785 300.807 301.56 294.673 308.866 283.364 308.866 271.291L308.866 218.518C308.866 215.252 311.451 212.609 314.67 212.609 317.888 212.609 320.505 215.252 320.505 218.518L320.505 271.291C320.505 283.364 327.805 294.699 339.581 300.807 351.664 307.129 366.71 307.129 378.81 300.807 390.501 294.731 397.78 283.563 397.864 271.563 397.864 271.563 380.008 128.52 380.008 128.379 379.977 122.905 374.12 113.118 363.785 107.911 358.431 105.19 352.413 103.824 346.384 103.824Z" stroke="#FBA671" stroke-width="5.14754" fill="#0F1113" transform="matrix(1.00212 0 0 1 59.0001 80.0001)"/></g></g></g></g></svg>