<svg xmlns="http://www.w3.org/2000/svg" viewBox="0 0 512 512" style="height: 512px; width: 512px;"><defs><filter id="shadow-1" height="300%" width="300%" x="-100%" y="-100%"><feFlood flood-color="rgba(5, 5, 5, 1)" result="flood"></feFlood><feComposite in="flood" in2="SourceGraphic" operator="atop" result="composite"></feComposite><feGaussianBlur in="composite" stdDeviation="15" result="blur"></feGaussianBlur><feOffset dx="0" dy="0" result="offset"></feOffset><feComposite in="SourceGraphic" in2="offset" operator="over"></feComposite></filter><filter id="shadow-2" height="300%" width="300%" x="-100%" y="-100%"><feFlood flood-color="rgba(5, 5, 5, 1)" result="flood"></feFlood><feComposite in="flood" in2="SourceGraphic" operator="atop" result="composite"></feComposite><feGaussianBlur in="composite" stdDeviation="15" result="blur"></feGaussianBlur><feOffset dx="0" dy="0" result="offset"></feOffset><feComposite in="SourceGraphic" in2="offset" operator="over"></feComposite></filter><filter id="shadow-3" height="300%" width="300%" x="-100%" y="-100%"><feFlood flood-color="rgba(5, 5, 5, 1)" result="flood"></feFlood><feComposite in="flood" in2="SourceGraphic" operator="atop" result="composite"></feComposite><feGaussianBlur in="composite" stdDeviation="15" result="blur"></feGaussianBlur><feOffset dx="0" dy="0" result="offset"></feOffset><feComposite in="SourceGraphic" in2="offset" operator="over"></feComposite></filter><filter id="shadow-4" height="300%" width="300%" x="-100%" y="-100%"><feFlood flood-color="rgba(5, 5, 5, 1)" result="flood"></feFlood><feComposite in="flood" in2="SourceGraphic" operator="atop" result="composite"></feComposite><feGaussianBlur in="composite" stdDeviation="10" result="blur"></feGaussianBlur><feOffset dx="0" dy="0" result="offset"></feOffset><feComposite in="SourceGraphic" in2="offset" operator="over"></feComposite></filter><filter id="shadow-5" height="300%" width="300%" x="-100%" y="-100%"><feFlood flood-color="rgba(5, 5, 5, 1)" result="flood"></feFlood><feComposite in="flood" in2="SourceGraphic" operator="atop" result="composite"></feComposite><feGaussianBlur in="composite" stdDeviation="10" result="blur"></feGaussianBlur><feOffset dx="0" dy="0" result="offset"></feOffset><feComposite in="SourceGraphic" in2="offset" operator="over"></feComposite></filter><filter id="shadow-6" height="300%" width="300%" x="-100%" y="-100%"><feFlood flood-color="rgba(5, 5, 5, 1)" result="flood"></feFlood><feComposite in="flood" in2="SourceGraphic" operator="atop" result="composite"></feComposite><feGaussianBlur in="composite" stdDeviation="15" result="blur"></feGaussianBlur><feOffset dx="0" dy="0" result="offset"></feOffset><feComposite in="SourceGraphic" in2="offset" operator="over"></feComposite></filter><filter id="shadow-7" height="300%" width="300%" x="-100%" y="-100%"><feFlood flood-color="rgba(5, 5, 5, 1)" result="flood"></feFlood><feComposite in="flood" in2="SourceGraphic" operator="atop" result="composite"></feComposite><feGaussianBlur in="composite" stdDeviation="15" result="blur"></feGaussianBlur><feOffset dx="0" dy="0" result="offset"></feOffset><feComposite in="SourceGraphic" in2="offset" operator="over"></feComposite></filter><filter id="shadow-8" height="300%" width="300%" x="-100%" y="-100%"><feFlood flood-color="rgba(5, 5, 5, 1)" result="flood"></feFlood><feComposite in="flood" in2="SourceGraphic" operator="atop" result="composite"></feComposite><feGaussianBlur in="composite" stdDeviation="15" result="blur"></feGaussianBlur><feOffset dx="0" dy="0" result="offset"></feOffset><feComposite in="SourceGraphic" in2="offset" operator="over"></feComposite></filter></defs><polygon points="256,512,0,256,256,0,512,256" fill="#eb82ff" fill-opacity="1"></polygon><g class="" transform="translate(2,13)" style=""><path d="M98.05 18.54c-11.46-.08-23.59 1.28-36.08 3.99L130.1 261.1c-14.2-5.1-31.18-6.2-48.09-3.2-39.17 6.9-67.15 33.8-62.52 59.8 4.64 26.1 40.14 41.7 79.33 34.7 39.08-6.9 67.08-33.7 62.38-59.8-22.1-80.8-44.4-163-66.39-244.21 50.69 3.59 72.59 31.58 90.59 60.31-.5-62.33-37.7-89.81-87.35-90.16zm310.65 30.7c-13.9.1-28.8 2.59-44.1 7.22l87.1 232.44c-14.6-3.9-31.6-3.7-48.3.7-38.4 10-64.2 39-57.5 64.6 6.7 25.7 43.4 38.3 81.8 28.2 38.5-10 64.2-39 57.5-64.6-28.6-78.8-57.3-158.9-85.8-238.2 50.8-.5 74.9 25.7 95.2 52.9-5.2-58.55-40.4-83.61-85.9-83.26zM258.4 163.5l1.8 248.1c-12.3-8.6-28.4-14.3-45.6-15.9-39.4-3.8-73.7 14.5-76.2 41-2.5 26.3 27.7 50.8 67.1 54.5 39.7 3.9 73.7-14.5 76.3-40.9.2-83.8.8-168.9 1.3-253.1 47.9 17 61.6 49.8 71.2 82.4 19.9-74.1-27.9-112.3-95.9-116.1z" fill="#ffffff" fill-opacity="1" transform="translate(76.8, 76.8) scale(0.7, 0.7) rotate(0, 256, 256) skewX(0) skewY(0)" filter="url(#shadow-1)"></path></g></svg>