<svg width="550" height="550" xmlns="http://www.w3.org/2000/svg" xmlns:xlink="http://www.w3.org/1999/xlink" overflow="hidden"><defs><clipPath id="clip0"><rect x="2403" y="1197" width="550" height="550"/></clipPath><radialGradient cx="762000" cy="762000" r="1.07763e+06" gradientUnits="userSpaceOnUse" spreadMethod="pad" id="fill1" gradientTransform="matrix(0.000360892 0 0 0.000360892 2403 1197)"><stop offset="0" stop-color="#D9D9D9"/><stop offset="0.17" stop-color="#D9D9D9"/><stop offset="0.33" stop-color="#7F7F7F"/><stop offset="1" stop-color="#0F1113"/></radialGradient><radialGradient cx="374072" cy="432262" r="571647" fx="374072" fy="432262" gradientUnits="userSpaceOnUse" spreadMethod="pad" id="fill2" gradientTransform="matrix(0.000360892 0 0 0.000360892 2423 1217)"><stop offset="0" stop-color="#FFFFFF"/><stop offset="0.54" stop-color="#7F7F7F" stop-opacity="0"/><stop offset="1" stop-color="#7F7F7F" stop-opacity="0"/></radialGradient><linearGradient x1="2676" y1="1203" x2="2676" y2="1357" gradientUnits="userSpaceOnUse" spreadMethod="reflect" id="fill3"><stop offset="0" stop-color="#F5FAFF" stop-opacity="0.231373"/><stop offset="0.32" stop-color="#FFFFFF" stop-opacity="0"/><stop offset="1" stop-color="#FFFFFF" stop-opacity="0"/></linearGradient><radialGradient cx="94211" cy="101138" r="138220" gradientUnits="userSpaceOnUse" spreadMethod="pad" id="fill4" gradientTransform="matrix(0.000360892 0 0 0.000360892 2442 1326)"><stop offset="0" stop-color="#FFFFFF"/><stop offset="0.54" stop-color="#7F7F7F" stop-opacity="0"/><stop offset="1" stop-color="#7F7F7F" stop-opacity="0"/></radialGradient><radialGradient cx="110836" cy="120534" r="163748" gradientUnits="userSpaceOnUse" spreadMethod="pad" id="fill5" gradientTransform="matrix(0.000360892 0 0 0.000360892 2471 1371)"><stop offset="0" stop-color="#FFFFFF"/><stop offset="0.54" stop-color="#7F7F7F" stop-opacity="0"/><stop offset="1" stop-color="#7F7F7F" stop-opacity="0"/></radialGradient><radialGradient cx="292331" cy="278477" r="403741" fx="292331" fy="278476" gradientUnits="userSpaceOnUse" spreadMethod="pad" id="fill6" gradientTransform="matrix(0.000360892 0 0 0.000360892 2692 1502)"><stop offset="0" stop-color="#FFFFFF"/><stop offset="0.54" stop-color="#7F7F7F" stop-opacity="0"/><stop offset="1" stop-color="#7F7F7F" stop-opacity="0"/></radialGradient><radialGradient cx="72043.5" cy="77585.5" r="105876" fx="72043.5" fy="77585.5" gradientUnits="userSpaceOnUse" spreadMethod="pad" id="fill7" gradientTransform="matrix(0.000360892 0 0 0.000360892 2837 1630)"><stop offset="0" stop-color="#FFFFFF"/><stop offset="0.54" stop-color="#7F7F7F" stop-opacity="0"/><stop offset="1" stop-color="#7F7F7F" stop-opacity="0"/></radialGradient><radialGradient cx="77585" cy="84513" r="114725" gradientUnits="userSpaceOnUse" spreadMethod="pad" id="fill8" gradientTransform="matrix(0.000360892 0 0 0.000360892 2821 1547)"><stop offset="0" stop-color="#FFFFFF"/><stop offset="0.54" stop-color="#7F7F7F" stop-opacity="0"/><stop offset="1" stop-color="#7F7F7F" stop-opacity="0"/></radialGradient><clipPath id="clip9"><rect x="2462" y="1254" width="398" height="398"/></clipPath><clipPath id="clip10"><rect x="2462" y="1254" width="398" height="398"/></clipPath><clipPath id="clip11"><rect x="2462" y="1254" width="398" height="398"/></clipPath><clipPath id="clip12"><rect x="2601" y="1390" width="343" height="343"/></clipPath><clipPath id="clip13"><rect x="2601" y="1390" width="343" height="343"/></clipPath><clipPath id="clip14"><rect x="2601" y="1390" width="343" height="343"/></clipPath></defs><g clip-path="url(#clip0)" transform="translate(-2403 -1197)"><rect x="2403" y="1197" width="550" height="550" fill="url(#fill1)"/><path d="M2423 1373C2423 1286.84 2483.44 1217 2558 1217 2632.56 1217 2693 1286.84 2693 1373 2693 1459.16 2632.56 1529 2558 1529 2483.44 1529 2423 1459.16 2423 1373Z" fill="url(#fill2)" fill-rule="evenodd"/><path d="M2436.79 1203 2915.21 1203C2931.11 1203 2944 1222.86 2944 1247.37L2944 1357C2944 1318.82 2923.92 1287.88 2899.15 1287.88L2452.85 1287.88C2428.08 1287.88 2408 1318.82 2408 1357L2408 1247.37C2408 1222.86 2420.89 1203 2436.79 1203Z" fill="url(#fill3)" fill-rule="evenodd"/><path d="M2442 1362.5C2442 1342.34 2457.22 1326 2476 1326 2494.78 1326 2510 1342.34 2510 1362.5 2510 1382.66 2494.78 1399 2476 1399 2457.22 1399 2442 1382.66 2442 1362.5Z" fill="url(#fill4)" fill-rule="evenodd"/><path d="M2471 1414.5C2471 1390.48 2488.91 1371 2511 1371 2533.09 1371 2551 1390.48 2551 1414.5 2551 1438.52 2533.09 1458 2511 1458 2488.91 1458 2471 1438.52 2471 1414.5Z" fill="url(#fill5)" fill-rule="evenodd"/><path d="M2692 1602.5C2692 1547 2739.23 1502 2797.5 1502 2855.77 1502 2903 1547 2903 1602.5 2903 1658 2855.77 1703 2797.5 1703 2739.23 1703 2692 1658 2692 1602.5Z" fill="url(#fill6)" fill-rule="evenodd"/><path d="M2837 1658C2837 1642.54 2848.64 1630 2863 1630 2877.36 1630 2889 1642.54 2889 1658 2889 1673.46 2877.36 1686 2863 1686 2848.64 1686 2837 1673.46 2837 1658Z" fill="url(#fill7)" fill-rule="evenodd"/><path d="M2821 1577.5C2821 1560.66 2833.54 1547 2849 1547 2864.46 1547 2877 1560.66 2877 1577.5 2877 1594.34 2864.46 1608 2849 1608 2833.54 1608 2821 1594.34 2821 1577.5Z" fill="url(#fill8)" fill-rule="evenodd"/><g clip-path="url(#clip9)"><g clip-path="url(#clip10)"><g clip-path="url(#clip11)"><path d="M2631.96 1387.94 2735.03 1284.87C2746.28 1273.61 2761.52 1267.27 2777.43 1267.23 2793.34 1267.19 2808.62 1273.45 2819.92 1284.65L2781.93 1322.65C2771.41 1313.37 2757.75 1308.46 2743.74 1308.9 2729.72 1309.35 2716.4 1315.12 2706.49 1325.05L2678.74 1352.8 2678.57 1352.95 2646.09 1385.44C2634.54 1396.93 2620.79 1405.98 2605.66 1412.03 2590.53 1418.09 2574.34 1421.03 2558.05 1420.68L2529.71 1420.05 2568.27 1385.16 2571.06 1387.95 2571.06 1387.94C2579.14 1396.01 2590.09 1400.53 2601.51 1400.53 2612.92 1400.53 2623.87 1396.01 2631.96 1387.94ZM2676.88 1583.66C2671.62 1581.32 2666.07 1579.69 2660.38 1578.8L2616.64 1535.06C2621.06 1530.45 2625.09 1525.48 2628.69 1520.21 2631.57 1515.91 2632.87 1510.74 2632.36 1505.59 2631.86 1500.44 2629.59 1495.62 2625.93 1491.96L2621.94 1487.97C2618.26 1484.33 2613.45 1482.07 2608.3 1481.57 2603.16 1481.07 2597.99 1482.35 2593.68 1485.21 2589.59 1487.96 2585.68 1490.96 2581.96 1494.2 2581.93 1494.23 2581.89 1494.23 2581.85 1494.27 2581.83 1494.29 2581.82 1494.33 2581.79 1494.36 2580.75 1495.27 2579.84 1496.31 2578.83 1497.25L2534.69 1453.11 2534.69 1453.11C2533.63 1446.19 2531.45 1439.48 2528.25 1433.25L2557.76 1433.91 2557.76 1433.91C2581.2 1434.34 2604.36 1428.67 2624.95 1417.43 2621.31 1430.56 2622.4 1444.55 2628.03 1456.95 2633.66 1469.35 2643.47 1479.38 2655.75 1485.28 2668.03 1491.18 2681.99 1492.57 2695.19 1489.22 2684.16 1508.51 2678.12 1530.24 2677.61 1552.45ZM2545.97 1581.99C2544.15 1583.64 2542.22 1585.16 2540.34 1586.75L2527.14 1573.55C2528.74 1571.68 2530.26 1569.75 2531.91 1567.93L2581.64 1512.99C2583.15 1511.31 2584.86 1509.82 2586.48 1508.25L2605.65 1527.42C2604.07 1529.04 2602.59 1530.75 2600.91 1532.27ZM2617.71 1512.84C2616.66 1514.41 2615.41 1515.83 2614.28 1517.33L2596.57 1499.62C2598.08 1498.49 2599.49 1497.25 2601.06 1496.2L2601.06 1496.2C2602.82 1495.04 2604.92 1494.52 2607.02 1494.72 2609.12 1494.93 2611.08 1495.85 2612.58 1497.32L2616.58 1501.32 2616.58 1501.32C2618.07 1502.82 2619 1504.78 2619.2 1506.88 2619.41 1508.98 2618.88 1511.09 2617.71 1512.84ZM2756 1348.58C2744.16 1339.16 2729.11 1334.72 2714.05 1336.2L2715.85 1334.4 2715.86 1334.4C2723.29 1326.96 2733.24 1322.58 2743.75 1322.14 2754.25 1321.7 2764.54 1325.22 2772.57 1332ZM2655.61 1394.64 2688.1 1362.16C2696.54 1353.82 2707.93 1349.14 2719.79 1349.15 2731.66 1349.16 2743.04 1353.85 2751.47 1362.2 2751.52 1362.25 2751.53 1362.31 2751.58 1362.36 2751.62 1362.4 2751.68 1362.42 2751.73 1362.46L2751.73 1362.46C2760.11 1370.91 2764.8 1382.34 2764.77 1394.24 2764.75 1406.14 2760.01 1417.55 2751.59 1425.97L2712.94 1464.62C2704.5 1473.11 2693.04 1477.88 2681.08 1477.9 2669.12 1477.92 2657.64 1473.18 2649.18 1464.72 2640.72 1456.26 2635.98 1444.78 2636 1432.82 2636.01 1420.86 2640.79 1409.39 2649.28 1400.96L2655.45 1394.79C2655.5 1394.74 2655.56 1394.7 2655.61 1394.64ZM2765.36 1357.93 2781.93 1341.36 2781.93 1341.36C2788.71 1349.39 2792.22 1359.68 2791.77 1370.18 2791.32 1380.68 2786.95 1390.63 2779.51 1398.06L2777.73 1399.84C2777.91 1397.96 2778.01 1396.05 2778.01 1394.14 2778.03 1380.98 2773.57 1368.21 2765.36 1357.94ZM2577.68 1334.42 2581.67 1338.41C2583.16 1339.91 2584.08 1341.87 2584.29 1343.97 2584.5 1346.07 2583.97 1348.18 2582.8 1349.94 2581.74 1351.51 2580.49 1352.93 2579.36 1354.44L2561.64 1336.73C2563.15 1335.59 2564.58 1334.34 2566.15 1333.29 2567.91 1332.13 2570.01 1331.62 2572.11 1331.82 2574.21 1332.02 2576.17 1332.94 2577.68 1334.42ZM2546.73 1350.09C2548.24 1348.41 2549.94 1346.93 2551.56 1345.36L2570.73 1364.53C2569.16 1366.14 2567.67 1367.85 2566 1369.36L2511.06 1419.09C2509.24 1420.73 2507.31 1422.26 2505.44 1423.85L2492.24 1410.65C2493.83 1408.78 2495.35 1406.85 2497 1405.03ZM2486.12 1438.89 2477.2 1429.97C2479.31 1426.92 2481.6 1423.96 2483.86 1421L2495.09 1432.22C2492.12 1434.49 2489.16 1436.78 2486.12 1438.89ZM2519.6 1506.18C2527.89 1496.5 2533.18 1484.62 2534.85 1471.98L2553.67 1490.8 2515.78 1528.68 2507.48 1520.38ZM2525.14 1538.04 2563.03 1500.16 2569.52 1506.65 2533.52 1546.43ZM2521.03 1601.79 2512.11 1592.87C2514.23 1589.82 2516.51 1586.86 2518.78 1583.89L2530 1595.13C2527.03 1597.39 2524.07 1599.68 2521.03 1601.79ZM2607.25 1544.38 2613.8 1550.93 2575.91 1588.81 2567.47 1580.38ZM2607.15 1593.93 2593.12 1606.03 2585.26 1598.17 2623.15 1560.28 2641.49 1578.62 2641.49 1578.62C2628.8 1580.29 2616.87 1585.61 2607.15 1593.93ZM2684.59 1637.36 2675.67 1628.45C2677.78 1625.39 2680.07 1622.44 2682.33 1619.47L2693.56 1630.7C2690.6 1632.97 2687.63 1635.26 2684.59 1637.36ZM2709.52 1617.57C2707.71 1619.21 2705.78 1620.74 2703.91 1622.33L2690.7 1609.13C2692.29 1607.26 2693.82 1605.33 2695.47 1603.51L2745.2 1548.56C2746.71 1546.89 2748.42 1545.41 2750.03 1543.83L2769.22 1562.98C2767.64 1564.61 2766.15 1566.32 2764.47 1567.84ZM2776.15 1532.89 2780.14 1536.89 2780.14 1536.89C2781.63 1538.38 2782.55 1540.35 2782.76 1542.45 2782.97 1544.55 2782.44 1546.66 2781.27 1548.41 2780.22 1549.97 2778.98 1551.39 2777.85 1552.89L2760.12 1535.2C2761.63 1534.06 2763.05 1532.82 2764.62 1531.77 2766.38 1530.61 2768.48 1530.09 2770.58 1530.29 2772.68 1530.5 2774.64 1531.41 2776.15 1532.89ZM2725.48 1542.36 2729.41 1546.29 2689.97 1589.86 2690.83 1552.76C2691.5 1521.66 2704.18 1492.02 2726.22 1470.06L2788.86 1407.41C2798.78 1397.51 2804.56 1384.2 2805.01 1370.19 2805.46 1356.18 2800.55 1342.52 2791.28 1332L2829.26 1294.02C2840.21 1305.38 2846.27 1320.57 2846.14 1336.35 2846.01 1352.12 2839.7 1367.22 2828.56 1378.39L2725.48 1481.46C2717.41 1489.54 2712.87 1500.49 2712.87 1511.91 2712.87 1523.33 2717.41 1534.28 2725.48 1542.36Z" stroke="#FFFFFF" stroke-width="4.60288" fill="#0F1113"/></g></g></g><g clip-path="url(#clip12)"><g clip-path="url(#clip13)"><g clip-path="url(#clip14)"><path d="M311.135 93.9218 273.458 115.676 243.686 98.3091 243.533 63.8411 281.213 42.0865C283.474 40.7795 283.5 37.5143 281.267 36.1628 259.174 22.8214 230.665 21.6378 206.802 35.6874 179.251 51.9079 166.156 84.5079 172.97 114.615L36.9166 250.669C21.893 265.692 21.893 290.053 36.9166 305.081 51.9404 320.103 76.3008 320.103 91.3288 305.081L227.308 169.102C244.616 173.109 263.423 170.836 280.025 161.25 303.773 147.539 316.8 122.447 316.296 96.8396 316.242 94.2301 313.397 92.6159 311.135 93.9218Z" stroke="#FFFFFF" stroke-width="4.42719" fill="#0F1113" transform="matrix(1.00292 0 0 1 2601 1390)"/></g></g></g></g></svg>