<svg width="550" height="550" xmlns="http://www.w3.org/2000/svg" xmlns:xlink="http://www.w3.org/1999/xlink" overflow="hidden"><defs><clipPath id="clip0"><rect x="1220" y="625" width="550" height="550"/></clipPath><radialGradient cx="762000" cy="762000" r="1.07763e+06" gradientUnits="userSpaceOnUse" spreadMethod="pad" id="fill1" gradientTransform="matrix(0.000360892 0 0 0.000360892 1220 625)"><stop offset="0" stop-color="#D9D9D9"/><stop offset="0.17" stop-color="#D9D9D9"/><stop offset="0.33" stop-color="#7F7F7F"/><stop offset="1" stop-color="#0F1113"/></radialGradient><radialGradient cx="374073" cy="432262" r="571648" fx="374073" fy="432262" gradientUnits="userSpaceOnUse" spreadMethod="pad" id="fill2" gradientTransform="matrix(0.000360892 0 0 0.000360892 1241 645)"><stop offset="0" stop-color="#FFFFFF"/><stop offset="0.54" stop-color="#7F7F7F" stop-opacity="0"/><stop offset="1" stop-color="#7F7F7F" stop-opacity="0"/></radialGradient><linearGradient x1="1493.5" y1="631" x2="1493.5" y2="785" gradientUnits="userSpaceOnUse" spreadMethod="reflect" id="fill3"><stop offset="0" stop-color="#F5FAFF" stop-opacity="0.231373"/><stop offset="0.32" stop-color="#FFFFFF" stop-opacity="0"/><stop offset="1" stop-color="#FFFFFF" stop-opacity="0"/></linearGradient><radialGradient cx="94210.5" cy="102524" r="139236" gradientUnits="userSpaceOnUse" spreadMethod="pad" id="fill4" gradientTransform="matrix(0.000360892 0 0 0.000360892 1259 754)"><stop offset="0" stop-color="#FFFFFF"/><stop offset="0.54" stop-color="#7F7F7F" stop-opacity="0"/><stop offset="1" stop-color="#7F7F7F" stop-opacity="0"/></radialGradient><radialGradient cx="110836" cy="120534" r="163748" gradientUnits="userSpaceOnUse" spreadMethod="pad" id="fill5" gradientTransform="matrix(0.000360892 0 0 0.000360892 1288 799)"><stop offset="0" stop-color="#FFFFFF"/><stop offset="0.54" stop-color="#7F7F7F" stop-opacity="0"/><stop offset="1" stop-color="#7F7F7F" stop-opacity="0"/></radialGradient><radialGradient cx="292331" cy="278477" r="403741" fx="292331" fy="278476" gradientUnits="userSpaceOnUse" spreadMethod="pad" id="fill6" gradientTransform="matrix(0.000360892 0 0 0.000360892 1509 930)"><stop offset="0" stop-color="#FFFFFF"/><stop offset="0.54" stop-color="#7F7F7F" stop-opacity="0"/><stop offset="1" stop-color="#7F7F7F" stop-opacity="0"/></radialGradient><radialGradient cx="70658" cy="77585.5" r="104938" gradientUnits="userSpaceOnUse" spreadMethod="pad" id="fill7" gradientTransform="matrix(0.000360892 0 0 0.000360892 1655 1058)"><stop offset="0" stop-color="#FFFFFF"/><stop offset="0.54" stop-color="#7F7F7F" stop-opacity="0"/><stop offset="1" stop-color="#7F7F7F" stop-opacity="0"/></radialGradient><radialGradient cx="77585.5" cy="84513" r="114726" fx="77585.5" fy="84513" gradientUnits="userSpaceOnUse" spreadMethod="pad" id="fill8" gradientTransform="matrix(0.000360892 0 0 0.000360892 1638 975)"><stop offset="0" stop-color="#FFFFFF"/><stop offset="0.54" stop-color="#7F7F7F" stop-opacity="0"/><stop offset="1" stop-color="#7F7F7F" stop-opacity="0"/></radialGradient><clipPath id="clip9"><rect x="1268" y="673" width="475" height="464"/></clipPath><clipPath id="clip10"><rect x="1268" y="673" width="475" height="464"/></clipPath><clipPath id="clip11"><rect x="1268" y="673" width="475" height="464"/></clipPath></defs><g clip-path="url(#clip0)" transform="translate(-1220 -625)"><rect x="1220" y="625" width="550" height="550" fill="url(#fill1)"/><path d="M1241 801C1241 714.844 1301.44 645 1376 645 1450.56 645 1511 714.844 1511 801 1511 887.156 1450.56 957 1376 957 1301.44 957 1241 887.156 1241 801Z" fill="url(#fill2)" fill-rule="evenodd"/><path d="M1254.73 631 1732.27 631C1748.14 631 1761 650.864 1761 675.368L1761 785C1761 746.824 1740.96 715.876 1716.23 715.876L1270.77 715.876C1246.04 715.876 1226 746.824 1226 785L1226 675.368C1226 650.864 1238.86 631 1254.73 631Z" fill="url(#fill3)" fill-rule="evenodd"/><path d="M1259 791C1259 770.565 1274.22 754 1293 754 1311.78 754 1327 770.565 1327 791 1327 811.435 1311.78 828 1293 828 1274.22 828 1259 811.435 1259 791Z" fill="url(#fill4)" fill-rule="evenodd"/><path d="M1288 842.5C1288 818.475 1305.91 799 1328 799 1350.09 799 1368 818.475 1368 842.5 1368 866.524 1350.09 886 1328 886 1305.91 886 1288 866.524 1288 842.5Z" fill="url(#fill5)" fill-rule="evenodd"/><path d="M1509 1030.5C1509 974.995 1556.23 930 1614.5 930 1672.77 930 1720 974.995 1720 1030.5 1720 1086 1672.77 1131 1614.5 1131 1556.23 1131 1509 1086 1509 1030.5Z" fill="url(#fill6)" fill-rule="evenodd"/><path d="M1655 1086C1655 1070.54 1666.42 1058 1680.5 1058 1694.58 1058 1706 1070.54 1706 1086 1706 1101.46 1694.58 1114 1680.5 1114 1666.42 1114 1655 1101.46 1655 1086Z" fill="url(#fill7)" fill-rule="evenodd"/><path d="M1638 1005.5C1638 988.655 1650.54 975 1666 975 1681.46 975 1694 988.655 1694 1005.5 1694 1022.34 1681.46 1036 1666 1036 1650.54 1036 1638 1022.34 1638 1005.5Z" fill="url(#fill8)" fill-rule="evenodd"/><g clip-path="url(#clip9)"><g clip-path="url(#clip10)"><g clip-path="url(#clip11)"><path d="M414.454 335.008C410.887 331.335 408.808 326.478 408.587 321.327L408.194 312.228C400.609 322.106 388.412 335.421 378.722 333.803 369.951 332.342 362.84 318.214 358.407 306.578 355.953 316.765 351.65 329.019 344.588 333.303 337.114 337.835 328.736 336.573 322.979 334.68 323.567 340.544 323.212 348.873 318.485 356.236 311.263 367.494 268.938 367.269 250.237 366.613 251.183 378.413 247.822 390.537 240.211 402.814 251.336 400.243 267.325 398.465 273.44 407.362 279.064 415.549 275.012 424.175 272.052 430.478 270.522 433.736 268.79 437.425 269.484 439.024 270.201 440.66 273.982 441.145 279.113 440.267 280.132 440.092 281.162 440.008 282.192 440.008 286.042 440.008 289.876 441.21 293.046 443.468 307.074 453.456 344.306 474.023 386.955 449.176 445.578 415.027 427.246 353.657 427.044 353.046 425.404 348.087 420.932 341.681 414.454 335.008ZM367.849 440.592C350.963 447.703 329.164 426.903 329.164 426.903 348.27 423.5 364.377 416.011 377.017 403.791 377.013 403.787 384.735 433.48 367.849 440.592Z" stroke="#FFFFFF" stroke-width="5.0868" fill="#0F1113" transform="matrix(1 0 0 1.00101 1268.47 673)"/><path d="M216.546 412.776C215.989 410.742 213.871 409.563 211.857 410.101L166.602 422.481C164.569 423.038 163.371 425.137 163.928 427.17 164.393 428.864 165.927 429.978 167.605 429.978 167.941 429.978 168.281 429.932 168.616 429.844L213.871 417.464C215.905 416.904 217.099 414.809 216.546 412.776Z" stroke="#FFFFFF" stroke-width="5.0868" fill="#0F1113" transform="matrix(1 0 0 1.00101 1268.47 673)"/><path d="M5.49757 375.513C4.00968 375.513 2.66295 376.276 2.06397 377.501-0.721055 383.148-0.682904 388.645 2.17843 394.295 2.81937 395.562 4.16228 396.275 5.82949 396.321L162.875 390.633 5.91723 375.533C5.77607 375.521 5.63873 375.513 5.49757 375.513Z" stroke="#FFFFFF" stroke-width="5.0868" fill="#0F1113" transform="matrix(1 0 0 1.00101 1268.47 673)"/><path d="M19.9759 188.184C17.6144 186.814 14.5775 187.15 12.5784 189.016 8.22537 193.079 5.61202 197.97 4.57813 203.967 4.10506 206.729 5.60439 209.469 8.22537 210.64L221.822 305.777 19.9759 188.184Z" stroke="#FFFFFF" stroke-width="5.0868" fill="#0F1113" transform="matrix(1 0 0 1.00101 1268.47 673)"/><path d="M263.41 248.741 142.01 10.5106C140.9 8.3322 138.645 7.00454 136.15 7.00454 135.94 7.00454 135.73 7.01217 135.52 7.03124 127.348 7.75611 121.172 11.1172 116.639 17.3053 115.075 19.4418 115.018 22.3909 116.498 24.6456L263.41 248.741Z" stroke="#FFFFFF" stroke-width="5.0868" fill="#0F1113" transform="matrix(1 0 0 1.00101 1268.47 673)"/><path d="M315.342 232.329 291.551 4.86808C291.303 2.50653 289.498 0.629493 287.163 0.297578 285.752 0.0991928 284.363 0 282.993 0 278.598 0 274.375 1.02626 270.186 3.09787 268.301 4.03257 267.279 6.35597 267.763 8.61833L315.342 232.329Z" stroke="#FFFFFF" stroke-width="5.0868" fill="#0F1113" transform="matrix(1 0 0 1.00101 1268.47 673)"/><path d="M413.592 4.30344C410.788 3.62435 407.95 3.39545 405.184 3.62435 402.883 3.81511 401.098 5.72266 401.029 8.06514L395.36 200.53 417.159 9.30886C417.419 7.00835 415.889 4.85663 413.592 4.30344Z" stroke="#FFFFFF" stroke-width="5.0868" fill="#0F1113" transform="matrix(1 0 0 1.00101 1268.47 673)"/><path d="M437.715 189.771 413.848 285.027C413.333 287.072 414.576 289.143 416.621 289.654 416.934 289.735 417.243 289.769 417.552 289.769 419.258 289.769 420.814 288.613 421.249 286.881L445.116 191.625C445.631 189.58 444.388 187.509 442.343 186.998 440.29 186.498 438.222 187.726 437.715 189.771Z" stroke="#FFFFFF" stroke-width="5.0868" fill="#0F1113" transform="matrix(1 0 0 1.00101 1268.47 673)"/><path d="M367.776 277.927C367.803 277.927 367.83 277.927 367.853 277.927 369.928 277.927 371.626 276.263 371.668 274.188L374.911 105.301C374.953 103.195 373.274 101.455 371.172 101.413 371.145 101.413 371.118 101.413 371.096 101.413 369.02 101.413 367.322 103.073 367.28 105.156L364.038 274.039C363.992 276.145 365.671 277.885 367.776 277.927Z" stroke="#FFFFFF" stroke-width="5.0868" fill="#0F1113" transform="matrix(1 0 0 1.00101 1268.47 673)"/><path d="M338.751 194.513C338.808 194.513 338.862 194.513 338.919 194.509 341.025 194.422 342.654 192.64 342.566 190.534L337.175 63.8725C337.092 61.7666 335.291 60.191 333.2 60.2215 331.094 60.3092 329.465 62.0909 329.553 64.1968L334.944 190.858C335.031 192.907 336.721 194.513 338.751 194.513Z" stroke="#FFFFFF" stroke-width="5.0868" fill="#0F1113" transform="matrix(1 0 0 1.00101 1268.47 673)"/><path d="M237.891 113.812C239.253 114.446 240.447 114.587 241.42 114.228 245.079 112.885 246.563 104.229 243.072 94.6528 240.76 88.3121 236.708 83.0282 232.76 81.197 231.882 80.7925 231.081 80.5865 230.36 80.5865 229.959 80.5865 229.582 80.6514 229.231 80.7811 225.568 82.124 224.088 90.7843 227.583 100.356 229.895 106.693 233.939 111.977 237.891 113.812Z" stroke="#FFFFFF" stroke-width="5.0868" fill="#0F1113" transform="matrix(1 0 0 1.00101 1268.47 673)"/><path d="M242.851 128.737 294.999 264.154C295.583 265.669 297.029 266.6 298.563 266.6 299.021 266.6 299.482 266.52 299.932 266.348 301.901 265.589 302.878 263.384 302.122 261.415L249.977 125.994C249.218 124.025 247.002 123.056 245.044 123.804 243.076 124.563 242.095 126.772 242.851 128.737Z" stroke="#FFFFFF" stroke-width="5.0868" fill="#0F1113" transform="matrix(1 0 0 1.00101 1268.47 673)"/><path d="M257.138 284.405C257.89 285.229 258.924 285.649 259.958 285.649 260.873 285.649 261.793 285.321 262.529 284.653 264.086 283.234 264.2 280.819 262.777 279.262L109.562 111.149C108.147 109.597 105.736 109.486 104.172 110.901 102.615 112.321 102.501 114.736 103.924 116.292L257.138 284.405Z" stroke="#FFFFFF" stroke-width="5.0868" fill="#0F1113" transform="matrix(1 0 0 1.00101 1268.47 673)"/><path d="M254.418 301.68C255.09 302.157 255.86 302.385 256.623 302.385 257.817 302.385 258.992 301.828 259.736 300.779 260.953 299.063 260.553 296.682 258.836 295.457L6.29111 116.021C4.57432 114.797 2.19369 115.201 0.969038 116.922-0.247982 118.638 0.152604 121.019 1.8694 122.24L254.418 301.68Z" stroke="#FFFFFF" stroke-width="5.0868" fill="#0F1113" transform="matrix(1 0 0 1.00101 1268.47 673)"/><path d="M213.768 354.008 192.602 336.298 196.188 362.996Z" stroke="#FFFFFF" stroke-width="5.0868" fill="#0F1113" transform="matrix(1 0 0 1.00101 1268.47 673)"/><path d="M118.448 320.809C116.429 320.225 114.308 321.373 113.713 323.399 113.122 325.417 114.278 327.538 116.304 328.134L172.336 344.581C172.695 344.684 173.053 344.733 173.408 344.733 175.06 344.733 176.582 343.657 177.071 341.99 177.662 339.972 176.506 337.851 174.48 337.256L118.448 320.809Z" stroke="#FFFFFF" stroke-width="5.0868" fill="#0F1113" transform="matrix(1 0 0 1.00101 1268.47 673)"/><path d="M231.878 353.775C229.845 353.237 227.754 354.458 227.22 356.495 226.682 358.532 227.903 360.619 229.94 361.153L232.084 361.714C232.409 361.798 232.737 361.84 233.057 361.84 234.747 361.84 236.296 360.707 236.743 358.994 237.281 356.957 236.06 354.87 234.023 354.336L231.878 353.775Z" stroke="#FFFFFF" stroke-width="5.0868" fill="#0F1113" transform="matrix(1 0 0 1.00101 1268.47 673)"/><path d="M18.034 335.894C15.9815 335.436 13.948 336.763 13.5055 338.827 13.0629 340.888 14.3791 342.913 16.4393 343.356L87.2286 358.513C87.4957 358.574 87.7666 358.597 88.0298 358.597 89.7924 358.597 91.3718 357.373 91.7572 355.58 92.1997 353.519 90.8835 351.494 88.8233 351.051L18.034 335.894Z" stroke="#FFFFFF" stroke-width="5.0868" fill="#0F1113" transform="matrix(1 0 0 1.00101 1268.47 673)"/><path d="M103.851 306.849C104.481 306.506 104.671 306.235 104.687 306.182 104.687 306.178 104.687 306.178 104.687 306.178 105.194 304.469 97.8881 296.903 81.1397 291.917 74.0055 289.792 67.5846 288.903 62.6822 288.903 58.9549 288.903 56.1126 289.418 54.4988 290.288 53.8655 290.631 53.6748 290.906 53.6595 290.963 53.1521 292.672 60.4618 300.234 77.2102 305.224 89.7581 308.963 100.112 308.871 103.851 306.849Z" stroke="#FFFFFF" stroke-width="5.0868" fill="#0F1113" transform="matrix(1 0 0 1.00101 1268.47 673)"/><path d="M146.29 433.423C145.211 432.866 143.501 432.504 141.361 432.504 139.229 432.504 136.672 432.862 133.891 433.747 126.097 436.223 122.858 440.637 123.259 441.893 123.339 442.144 123.693 442.457 124.208 442.728 126.36 443.842 131.03 444.182 136.608 442.404 144.402 439.928 147.641 435.514 147.24 434.259 147.156 434.007 146.805 433.694 146.29 433.423Z" stroke="#FFFFFF" stroke-width="5.0868" fill="#0F1113" transform="matrix(1 0 0 1.00101 1268.47 673)"/><path d="M26.0305 442.442C24.9928 441.847 23.234 441.362 20.9602 441.362 19.5143 441.362 17.8623 441.561 16.054 442.053 10.0375 443.693 6.75656 447.421 7.23345 449.164 7.38605 449.721 7.96976 450.156 8.43902 450.423 10.1329 451.392 13.7611 452.079 18.4155 450.812 24.432 449.172 27.7129 445.448 27.2399 443.705 27.0873 443.14 26.4959 442.709 26.0305 442.442Z" stroke="#FFFFFF" stroke-width="5.0868" fill="#0F1113" transform="matrix(1 0 0 1.00101 1268.47 673)"/><path d="M76.1572 121.969C78.0647 121.969 79.4954 121.5 80.4148 120.58 84.2147 116.765 80.2661 104.271 69.29 93.2565 61.6903 85.6339 52.679 80.7048 46.3345 80.7086 44.4308 80.7086 43.0001 81.1741 42.0806 82.0973 38.277 85.9124 42.2256 98.4069 53.2055 109.421 60.809 117.044 69.8165 121.969 76.1572 121.969Z" stroke="#FFFFFF" stroke-width="5.0868" fill="#0F1113" transform="matrix(1 0 0 1.00101 1268.47 673)"/><path d="M355.465 52.5684C357.109 52.5684 361.119 46.3955 361.119 34.9502 361.119 23.5049 357.106 17.332 355.465 17.332 353.825 17.332 349.811 23.5049 349.811 34.9502 349.811 46.3955 353.821 52.5684 355.465 52.5684Z" stroke="#FFFFFF" stroke-width="5.0868" fill="#0F1113" transform="matrix(1 0 0 1.00101 1268.47 673)"/><path d="M438.535 150.846C441.11 149.987 445.029 146.47 447.981 140.549 451.854 132.777 451.278 126.295 449.687 125.498 449.549 125.429 449.382 125.403 449.202 125.403 448.84 125.403 448.439 125.513 448.18 125.597 445.601 126.459 441.687 129.973 438.737 135.894 434.861 143.666 435.437 150.147 437.032 150.945 437.337 151.097 437.883 151.063 438.535 150.846Z" stroke="#FFFFFF" stroke-width="5.0868" fill="#0F1113" transform="matrix(1 0 0 1.00101 1268.47 673)"/><path d="M455.749 45.1861C456.359 45.3998 457.073 45.1594 457.565 44.9229 459.099 44.1828 461.178 42.1417 462.406 38.628 464.093 33.779 462.86 29.8799 461.266 29.3229 461.102 29.2657 460.926 29.239 460.751 29.239 460.285 29.239 459.812 29.4107 459.453 29.5823 457.92 30.3225 455.841 32.3674 454.612 35.8773 452.926 40.7225 454.158 44.6291 455.749 45.1861Z" stroke="#FFFFFF" stroke-width="5.0868" fill="#0F1113" transform="matrix(1 0 0 1.00101 1268.47 673)"/><path d="M443.083 279.956 440.676 300.89 459.27 292.035Z" stroke="#FFFFFF" stroke-width="5.0868" fill="#0F1113" transform="matrix(1 0 0 1.00101 1268.47 673)"/><path d="M472.154 312.938C470.781 311.332 468.373 311.156 466.775 312.522L445.914 330.388C444.311 331.758 444.124 334.169 445.498 335.768 446.253 336.649 447.325 337.103 448.397 337.103 449.275 337.103 450.16 336.802 450.877 336.187L471.738 318.321C473.337 316.948 473.524 314.537 472.154 312.938Z" stroke="#FFFFFF" stroke-width="5.0868" fill="#0F1113" transform="matrix(1 0 0 1.00101 1268.47 673)"/><path d="M340.868 245.788 349.575 235.102 337.607 232.641Z" stroke="#FFFFFF" stroke-width="5.0868" fill="#0F1113" transform="matrix(1 0 0 1.00101 1268.47 673)"/><path d="M208.599 445.536 220.567 462.532C225.542 456.928 233.328 454.242 244.129 454.536L231.882 435.17C219.327 440.794 212.437 443.857 208.599 445.536Z" stroke="#FFFFFF" stroke-width="5.0868" fill="#0F1113" transform="matrix(1 0 0 1.00101 1268.47 673)"/></g></g></g></g></svg>