<svg width="550" height="550" xmlns="http://www.w3.org/2000/svg" xmlns:xlink="http://www.w3.org/1999/xlink" overflow="hidden"><defs><clipPath id="clip0"><rect x="36" y="44" width="550" height="550"/></clipPath><radialGradient cx="762000" cy="762000" r="1.07763e+06" gradientUnits="userSpaceOnUse" spreadMethod="pad" id="fill1" gradientTransform="matrix(0.000360892 0 0 0.000360892 36.0001 44)"><stop offset="0" stop-color="#D9D9D9"/><stop offset="0.17" stop-color="#D9D9D9"/><stop offset="0.33" stop-color="#7F7F7F"/><stop offset="1" stop-color="#0F1113"/></radialGradient><radialGradient cx="374072" cy="432262" r="571647" fx="374072" fy="432262" gradientUnits="userSpaceOnUse" spreadMethod="pad" id="fill2" gradientTransform="matrix(0.000360892 0 0 0.000360892 56 63.9999)"><stop offset="0" stop-color="#FFFFFF"/><stop offset="0.54" stop-color="#7F7F7F" stop-opacity="0"/><stop offset="1" stop-color="#7F7F7F" stop-opacity="0"/></radialGradient><linearGradient x1="309" y1="49.9998" x2="309" y2="204" gradientUnits="userSpaceOnUse" spreadMethod="reflect" id="fill3"><stop offset="0" stop-color="#F5FAFF" stop-opacity="0.231373"/><stop offset="0.32" stop-color="#FFFFFF" stop-opacity="0"/><stop offset="1" stop-color="#FFFFFF" stop-opacity="0"/></linearGradient><radialGradient cx="94211" cy="101138" r="138220" gradientUnits="userSpaceOnUse" spreadMethod="pad" id="fill4" gradientTransform="matrix(0.000360892 0 0 0.000360892 74.9999 173)"><stop offset="0" stop-color="#FFFFFF"/><stop offset="0.54" stop-color="#7F7F7F" stop-opacity="0"/><stop offset="1" stop-color="#7F7F7F" stop-opacity="0"/></radialGradient><radialGradient cx="110836" cy="120534" r="163747" fx="110836" fy="120534" gradientUnits="userSpaceOnUse" spreadMethod="pad" id="fill5" gradientTransform="matrix(0.000360892 0 0 0.000360892 104 218)"><stop offset="0" stop-color="#FFFFFF"/><stop offset="0.54" stop-color="#7F7F7F" stop-opacity="0"/><stop offset="1" stop-color="#7F7F7F" stop-opacity="0"/></radialGradient><radialGradient cx="292331" cy="278477" r="403741" fx="292331" fy="278476" gradientUnits="userSpaceOnUse" spreadMethod="pad" id="fill6" gradientTransform="matrix(0.000360892 0 0 0.000360892 325 349)"><stop offset="0" stop-color="#FFFFFF"/><stop offset="0.54" stop-color="#7F7F7F" stop-opacity="0"/><stop offset="1" stop-color="#7F7F7F" stop-opacity="0"/></radialGradient><radialGradient cx="72044" cy="77585.5" r="105877" fx="72044" fy="77585.5" gradientUnits="userSpaceOnUse" spreadMethod="pad" id="fill7" gradientTransform="matrix(0.000360892 0 0 0.000360892 470 477)"><stop offset="0" stop-color="#FFFFFF"/><stop offset="0.54" stop-color="#7F7F7F" stop-opacity="0"/><stop offset="1" stop-color="#7F7F7F" stop-opacity="0"/></radialGradient><radialGradient cx="77585.5" cy="84513" r="114726" fx="77585.5" fy="84513" gradientUnits="userSpaceOnUse" spreadMethod="pad" id="fill8" gradientTransform="matrix(0.000360892 0 0 0.000360892 454 394)"><stop offset="0" stop-color="#FFFFFF"/><stop offset="0.54" stop-color="#7F7F7F" stop-opacity="0"/><stop offset="1" stop-color="#7F7F7F" stop-opacity="0"/></radialGradient><clipPath id="clip9"><rect x="40" y="74" width="365" height="365"/></clipPath><clipPath id="clip10"><rect x="40" y="74" width="365" height="365"/></clipPath><clipPath id="clip11"><rect x="40" y="74" width="365" height="365"/></clipPath><clipPath id="clip12"><rect x="234" y="236" width="344" height="343"/></clipPath><clipPath id="clip13"><rect x="234" y="236" width="344" height="343"/></clipPath><clipPath id="clip14"><rect x="234" y="236" width="344" height="343"/></clipPath></defs><g clip-path="url(#clip0)" transform="translate(-36 -44)"><rect x="36.0001" y="44" width="550" height="550" fill="url(#fill1)"/><path d="M56 220C56 133.844 116.442 63.9999 191 63.9999 265.558 63.9999 326 133.844 326 220 326 306.156 265.558 376 191 376 116.442 376 56 306.156 56 220Z" fill="url(#fill2)" fill-rule="evenodd"/><path d="M69.7873 49.9998 548.213 49.9998C564.112 49.9998 577 69.8638 577 94.3675L577 204C577 165.824 556.92 134.876 532.15 134.876L85.8503 134.876C61.0801 134.876 40.9999 165.824 40.9999 204L40.9999 94.3675C40.9999 69.8638 53.8884 49.9998 69.7873 49.9998Z" fill="url(#fill3)" fill-rule="evenodd"/><path d="M74.9999 209.5C74.9999 189.342 90.2223 173 109 173 127.778 173 143 189.342 143 209.5 143 229.658 127.778 246 109 246 90.2223 246 74.9999 229.658 74.9999 209.5Z" fill="url(#fill4)" fill-rule="evenodd"/><path d="M104 261.5C104 237.476 121.909 218 144 218 166.091 218 184 237.476 184 261.5 184 285.524 166.091 305 144 305 121.909 305 104 285.524 104 261.5Z" fill="url(#fill5)" fill-rule="evenodd"/><path d="M325 449.5C325 393.995 372.234 349 430.5 349 488.766 349 536 393.995 536 449.5 536 505.005 488.766 550 430.5 550 372.234 550 325 505.005 325 449.5Z" fill="url(#fill6)" fill-rule="evenodd"/><path d="M470 505C470 489.536 481.641 477 496 477 510.359 477 522 489.536 522 505 522 520.464 510.359 533 496 533 481.641 533 470 520.464 470 505Z" fill="url(#fill7)" fill-rule="evenodd"/><path d="M454 424.5C454 407.655 466.536 394 482 394 497.464 394 510 407.655 510 424.5 510 441.345 497.464 455 482 455 466.536 455 454 441.345 454 424.5Z" fill="url(#fill8)" fill-rule="evenodd"/><g clip-path="url(#clip9)"><g clip-path="url(#clip10)"><g clip-path="url(#clip11)"><path d="M101.667 327.777 132 327.777 132 368.22 101.667 368.22Z" stroke="#FFFFFF" stroke-width="4.25731" fill="#0F1113"/><path d="M303.89 388.434C301.207 388.434 298.636 387.37 296.74 385.474 294.843 383.578 293.778 381.006 293.778 378.324L293.778 317.657C293.778 314.975 294.843 312.403 296.74 310.507 298.636 308.612 301.207 307.547 303.89 307.547L344.333 307.547 344.333 226.657C344.333 225.13 343.979 223.625 343.298 222.261L324.111 183.786 324.111 105.323C324.103 102.643 323.036 100.076 321.141 98.1812 319.247 96.2865 316.679 95.2189 314 95.2118L273.556 95.2118C270.877 95.2189 268.31 96.2865 266.415 98.1812 264.521 100.076 263.453 102.643 263.445 105.323L263.445 196.323C263.445 201.686 261.314 206.829 257.523 210.622 253.73 214.415 248.586 216.545 243.223 216.545L202.777 216.545C197.414 216.545 192.27 214.415 188.477 210.622 184.686 206.829 182.555 201.686 182.555 196.323L182.555 105.323C182.547 102.643 181.479 100.076 179.585 98.1812 177.69 96.2865 175.122 95.2189 172.443 95.2118L132 95.2118C129.321 95.2189 126.753 96.2865 124.859 98.1812 122.964 100.076 121.896 102.643 121.889 105.323L121.889 183.786 102.702 222.261C102.021 223.626 101.667 225.13 101.667 226.657L101.667 307.547 142.11 307.547C144.792 307.547 147.364 308.612 149.26 310.507 151.157 312.403 152.222 314.975 152.222 317.657L152.222 378.324C152.222 381.006 151.157 383.578 149.26 385.474 147.364 387.37 144.792 388.434 142.11 388.434L101.667 388.434 101.667 408.658C101.675 411.336 102.742 413.905 104.637 415.798 106.532 417.694 109.098 418.762 111.777 418.768L334.224 418.768C336.903 418.762 339.469 417.694 341.364 415.798 343.259 413.902 344.326 411.336 344.333 408.658L344.333 388.434Z" stroke="#FFFFFF" stroke-width="4.25731" fill="#0F1113"/><path d="M314 327.777 344.333 327.777 344.333 368.22 314 368.22Z" stroke="#FFFFFF" stroke-width="4.25731" fill="#0F1113"/></g></g></g><g clip-path="url(#clip12)"><g clip-path="url(#clip13)"><g clip-path="url(#clip14)"><path d="M546.044 330.196 508.257 352.015 478.399 334.597 478.245 300.028 516.035 278.21C518.303 276.899 518.329 273.624 516.09 272.269 493.932 258.888 465.34 257.701 441.407 271.792 413.775 288.06 400.642 320.755 407.476 350.951L271.025 487.402C255.957 502.469 255.957 526.901 271.025 541.973 286.092 557.039 310.524 557.039 325.596 541.973L461.973 405.596C479.331 409.615 498.194 407.336 514.843 397.721 538.661 383.97 551.727 358.805 551.221 333.123 551.167 330.506 548.314 328.887 546.044 330.196Z" stroke="#FFFFFF" stroke-width="4.44014" fill="#0F1113"/></g></g></g></g></svg>