<svg width="550" height="550" xmlns="http://www.w3.org/2000/svg" xmlns:xlink="http://www.w3.org/1999/xlink" overflow="hidden"><defs><clipPath id="clip0"><rect x="1249" y="44" width="550" height="550"/></clipPath><radialGradient cx="762000" cy="762000" r="1.07763e+06" gradientUnits="userSpaceOnUse" spreadMethod="pad" id="fill1" gradientTransform="matrix(0.000360892 0 0 0.000360892 1249 44)"><stop offset="0" stop-color="#D9D9D9"/><stop offset="0.17" stop-color="#D9D9D9"/><stop offset="0.33" stop-color="#7F7F7F"/><stop offset="1" stop-color="#0F1113"/></radialGradient><radialGradient cx="374072" cy="432262" r="571647" fx="374072" fy="432262" gradientUnits="userSpaceOnUse" spreadMethod="pad" id="fill2" gradientTransform="matrix(0.000360892 0 0 0.000360892 1270 63.9999)"><stop offset="0" stop-color="#FFFFFF"/><stop offset="0.54" stop-color="#7F7F7F" stop-opacity="0"/><stop offset="1" stop-color="#7F7F7F" stop-opacity="0"/></radialGradient><linearGradient x1="1522.5" y1="49.9998" x2="1522.5" y2="204" gradientUnits="userSpaceOnUse" spreadMethod="reflect" id="fill3"><stop offset="0" stop-color="#F5FAFF" stop-opacity="0.231373"/><stop offset="0.32" stop-color="#FFFFFF" stop-opacity="0"/><stop offset="1" stop-color="#FFFFFF" stop-opacity="0"/></linearGradient><radialGradient cx="94211" cy="101138" r="138220" gradientUnits="userSpaceOnUse" spreadMethod="pad" id="fill4" gradientTransform="matrix(0.000360892 0 0 0.000360892 1288 173)"><stop offset="0" stop-color="#FFFFFF"/><stop offset="0.54" stop-color="#7F7F7F" stop-opacity="0"/><stop offset="1" stop-color="#7F7F7F" stop-opacity="0"/></radialGradient><radialGradient cx="112222" cy="120534" r="164689" gradientUnits="userSpaceOnUse" spreadMethod="pad" id="fill5" gradientTransform="matrix(0.000360892 0 0 0.000360892 1317 218)"><stop offset="0" stop-color="#FFFFFF"/><stop offset="0.54" stop-color="#7F7F7F" stop-opacity="0"/><stop offset="1" stop-color="#7F7F7F" stop-opacity="0"/></radialGradient><radialGradient cx="293717" cy="278477" r="404745" fx="293716" fy="278476" gradientUnits="userSpaceOnUse" spreadMethod="pad" id="fill6" gradientTransform="matrix(0.000360892 0 0 0.000360892 1538 349)"><stop offset="0" stop-color="#FFFFFF"/><stop offset="0.54" stop-color="#7F7F7F" stop-opacity="0"/><stop offset="1" stop-color="#7F7F7F" stop-opacity="0"/></radialGradient><radialGradient cx="72043.5" cy="77585.5" r="105876" fx="72043.5" fy="77585.5" gradientUnits="userSpaceOnUse" spreadMethod="pad" id="fill7" gradientTransform="matrix(0.000360892 0 0 0.000360892 1684 477)"><stop offset="0" stop-color="#FFFFFF"/><stop offset="0.54" stop-color="#7F7F7F" stop-opacity="0"/><stop offset="1" stop-color="#7F7F7F" stop-opacity="0"/></radialGradient><radialGradient cx="77585.5" cy="84513" r="114726" fx="77585.5" fy="84513" gradientUnits="userSpaceOnUse" spreadMethod="pad" id="fill8" gradientTransform="matrix(0.000360892 0 0 0.000360892 1668 394)"><stop offset="0" stop-color="#FFFFFF"/><stop offset="0.54" stop-color="#7F7F7F" stop-opacity="0"/><stop offset="1" stop-color="#7F7F7F" stop-opacity="0"/></radialGradient><clipPath id="clip9"><rect x="1281" y="74" width="430" height="429"/></clipPath><clipPath id="clip10"><rect x="1281" y="74" width="430" height="429"/></clipPath><clipPath id="clip11"><rect x="1281" y="74" width="430" height="429"/></clipPath><clipPath id="clip12"><rect x="1447" y="236" width="343" height="343"/></clipPath><clipPath id="clip13"><rect x="1447" y="236" width="343" height="343"/></clipPath><clipPath id="clip14"><rect x="1447" y="236" width="343" height="343"/></clipPath></defs><g clip-path="url(#clip0)" transform="translate(-1249 -44)"><rect x="1249" y="44" width="550" height="550" fill="url(#fill1)"/><path d="M1270 220C1270 133.844 1330.44 63.9999 1405 63.9999 1479.56 63.9999 1540 133.844 1540 220 1540 306.156 1479.56 376 1405 376 1330.44 376 1270 306.156 1270 220Z" fill="url(#fill2)" fill-rule="evenodd"/><path d="M1283.73 49.9998 1761.27 49.9998C1777.14 49.9998 1790 69.8638 1790 94.3675L1790 204C1790 165.824 1769.96 134.876 1745.23 134.876L1299.77 134.876C1275.04 134.876 1255 165.824 1255 204L1255 94.3675C1255 69.8638 1267.86 49.9998 1283.73 49.9998Z" fill="url(#fill3)" fill-rule="evenodd"/><path d="M1288 209.5C1288 189.342 1303.22 173 1322 173 1340.78 173 1356 189.342 1356 209.5 1356 229.658 1340.78 246 1322 246 1303.22 246 1288 229.658 1288 209.5Z" fill="url(#fill4)" fill-rule="evenodd"/><path d="M1317 261.5C1317 237.476 1335.13 218 1357.5 218 1379.87 218 1398 237.476 1398 261.5 1398 285.524 1379.87 305 1357.5 305 1335.13 305 1317 285.524 1317 261.5Z" fill="url(#fill5)" fill-rule="evenodd"/><path d="M1538 449.5C1538 393.995 1585.46 349 1644 349 1702.54 349 1750 393.995 1750 449.5 1750 505.005 1702.54 550 1644 550 1585.46 550 1538 505.005 1538 449.5Z" fill="url(#fill6)" fill-rule="evenodd"/><path d="M1684 505C1684 489.536 1695.64 477 1710 477 1724.36 477 1736 489.536 1736 505 1736 520.464 1724.36 533 1710 533 1695.64 533 1684 520.464 1684 505Z" fill="url(#fill7)" fill-rule="evenodd"/><path d="M1668 424.5C1668 407.655 1680.54 394 1696 394 1711.46 394 1724 407.655 1724 424.5 1724 441.345 1711.46 455 1696 455 1680.54 455 1668 441.345 1668 424.5Z" fill="url(#fill8)" fill-rule="evenodd"/><g clip-path="url(#clip9)"><g clip-path="url(#clip10)"><g clip-path="url(#clip11)"><path d="M178.89 271.245 128.2 271.245 128.2 288.432 33.3055 288.432 60.9251 324.345 342.938 324.345 387.208 252.455 178.893 252.455Z" stroke="#FFFFFF" stroke-width="4.60214" fill="#0F1113" transform="matrix(1.00234 0 0 1 1281 74.9999)"/><path d="M187.114 212.463 253.989 212.463 253.989 245.766 187.114 245.766Z" stroke="#FFFFFF" stroke-width="4.60214" fill="#0F1113" transform="matrix(1.00234 0 0 1 1281 74.9999)"/><path d="M214 110.346C214 107.956 212.725 105.749 210.656 104.554 208.587 103.36 206.038 103.36 203.969 104.554 201.9 105.75 200.625 107.956 200.625 110.346L200.625 118.705 214 118.705Z" stroke="#FFFFFF" stroke-width="4.60214" fill="#0F1113" transform="matrix(1.00234 0 0 1 1281 74.9999)"/><path d="M200.489 152.14 213.864 152.14 213.864 205.775 200.489 205.775Z" stroke="#FFFFFF" stroke-width="4.60214" fill="#0F1113" transform="matrix(1.00234 0 0 1 1281 74.9999)"/><path d="M165.918 125.39 248.443 125.39 248.443 145.452 165.918 145.452Z" stroke="#FFFFFF" stroke-width="4.60214" fill="#0F1113" transform="matrix(1.00234 0 0 1 1281 74.9999)"/><path d="M46.1455 270.71 68.1476 277.397C68.7914 277.492 69.4434 277.492 70.0868 277.397L70.0868 281.41 96.8368 281.41 96.8368 261.347 70.0868 261.347 70.0868 263.688 50.0243 257.602C47.7951 257.075 45.4522 257.724 43.8133 259.323 42.1737 260.923 41.4671 263.251 41.9397 265.491 42.4134 267.733 44.0002 269.575 46.1459 270.376Z" stroke="#FFFFFF" stroke-width="4.60214" fill="#0F1113" transform="matrix(1.00234 0 0 1 1281 74.9999)"/><path d="M108.537 253.123 130.539 259.81C131.183 259.905 131.835 259.905 132.478 259.81L132.478 264.224 159.228 264.224 159.228 244.094 132.478 244.094 132.478 246.435 112.416 240.35C110.187 239.822 107.844 240.471 106.205 242.07 104.565 243.67 103.859 245.998 104.331 248.238 104.805 250.48 106.392 252.322 108.538 253.123Z" stroke="#FFFFFF" stroke-width="4.60214" fill="#0F1113" transform="matrix(1.00234 0 0 1 1281 74.9999)"/><path d="M300.937 241.752C301.581 241.847 302.233 241.847 302.877 241.752L324.879 235.065C327.221 234.372 329.014 232.483 329.585 230.108 330.155 227.734 329.417 225.236 327.646 223.554 325.875 221.874 323.342 221.265 321 221.957L300.937 228.043 300.937 225.702 274.187 225.702 274.187 245.765 300.937 245.765Z" stroke="#FFFFFF" stroke-width="4.60214" fill="#0F1113" transform="matrix(1.00234 0 0 1 1281 74.9999)"/><path d="M394.545 226.441C394.035 224.735 392.865 223.303 391.295 222.462 389.73 221.622 387.889 221.44 386.184 221.96L366.122 228.046 366.122 225.705 339.373 225.705 339.373 245.767 366.122 245.767 366.122 241.755C366.767 241.85 367.42 241.85 368.062 241.755L390.065 235.067C391.83 234.563 393.318 233.351 394.163 231.72 395.012 230.086 395.151 228.178 394.545 226.441Z" stroke="#FFFFFF" stroke-width="4.60214" fill="#0F1113" transform="matrix(1.00234 0 0 1 1281 74.9999)"/><path d="M237.272 180.027C235.499 180.027 233.798 180.733 232.544 181.986 231.29 183.24 230.585 184.941 230.585 186.715L230.585 205.775 243.96 205.775 243.96 186.715C243.96 184.942 243.255 183.24 242.001 181.986 240.747 180.733 239.046 180.027 237.272 180.027Z" stroke="#FFFFFF" stroke-width="4.60214" fill="#0F1113" transform="matrix(1.00234 0 0 1 1281 74.9999)"/></g></g></g><g clip-path="url(#clip12)"><g clip-path="url(#clip13)"><g clip-path="url(#clip14)"><path d="M311.135 93.9218 273.458 115.676 243.686 98.3091 243.533 63.8411 281.213 42.0865C283.474 40.7795 283.5 37.5143 281.267 36.1628 259.174 22.8214 230.665 21.6378 206.802 35.6874 179.251 51.9079 166.156 84.5079 172.97 114.615L36.9166 250.669C21.893 265.692 21.893 290.053 36.9166 305.081 51.9404 320.103 76.3008 320.103 91.3288 305.081L227.308 169.102C244.616 173.109 263.423 170.836 280.025 161.25 303.773 147.539 316.8 122.447 316.296 96.8396 316.242 94.2301 313.397 92.6159 311.135 93.9218Z" stroke="#FFFFFF" stroke-width="4.42719" fill="#0F1113" transform="matrix(1 0 0 1.00292 1448 236)"/></g></g></g></g></svg>