<svg width="550" height="550" xmlns="http://www.w3.org/2000/svg" xmlns:xlink="http://www.w3.org/1999/xlink" overflow="hidden"><defs><clipPath id="clip0"><rect x="1806" y="625" width="550" height="550"/></clipPath><radialGradient cx="762000" cy="762000" r="1.07763e+06" gradientUnits="userSpaceOnUse" spreadMethod="pad" id="fill1" gradientTransform="matrix(0.000360892 0 0 0.000360892 1806 625)"><stop offset="0" stop-color="#D9D9D9"/><stop offset="0.17" stop-color="#D9D9D9"/><stop offset="0.33" stop-color="#7F7F7F"/><stop offset="1" stop-color="#0F1113"/></radialGradient><radialGradient cx="374072" cy="432262" r="571647" fx="374072" fy="432262" gradientUnits="userSpaceOnUse" spreadMethod="pad" id="fill2" gradientTransform="matrix(0.000360892 0 0 0.000360892 1826 645)"><stop offset="0" stop-color="#FFFFFF"/><stop offset="0.54" stop-color="#7F7F7F" stop-opacity="0"/><stop offset="1" stop-color="#7F7F7F" stop-opacity="0"/></radialGradient><linearGradient x1="2079.5" y1="631" x2="2079.5" y2="785" gradientUnits="userSpaceOnUse" spreadMethod="reflect" id="fill3"><stop offset="0" stop-color="#F5FAFF" stop-opacity="0.231373"/><stop offset="0.32" stop-color="#FFFFFF" stop-opacity="0"/><stop offset="1" stop-color="#FFFFFF" stop-opacity="0"/></linearGradient><radialGradient cx="94211" cy="102524" r="139237" fx="94211" fy="102524" gradientUnits="userSpaceOnUse" spreadMethod="pad" id="fill4" gradientTransform="matrix(0.000360892 0 0 0.000360892 1845 754)"><stop offset="0" stop-color="#FFFFFF"/><stop offset="0.54" stop-color="#7F7F7F" stop-opacity="0"/><stop offset="1" stop-color="#7F7F7F" stop-opacity="0"/></radialGradient><radialGradient cx="110836" cy="120534" r="163747" fx="110836" fy="120534" gradientUnits="userSpaceOnUse" spreadMethod="pad" id="fill5" gradientTransform="matrix(0.000360892 0 0 0.000360892 1874 799)"><stop offset="0" stop-color="#FFFFFF"/><stop offset="0.54" stop-color="#7F7F7F" stop-opacity="0"/><stop offset="1" stop-color="#7F7F7F" stop-opacity="0"/></radialGradient><radialGradient cx="292330" cy="278476" r="403740" gradientUnits="userSpaceOnUse" spreadMethod="pad" id="fill6" gradientTransform="matrix(0.000360892 0 0 0.000360892 2095 930)"><stop offset="0" stop-color="#FFFFFF"/><stop offset="0.54" stop-color="#7F7F7F" stop-opacity="0"/><stop offset="1" stop-color="#7F7F7F" stop-opacity="0"/></radialGradient><radialGradient cx="72044" cy="77585.5" r="105877" fx="72044" fy="77585.5" gradientUnits="userSpaceOnUse" spreadMethod="pad" id="fill7" gradientTransform="matrix(0.000360892 0 0 0.000360892 2240 1058)"><stop offset="0" stop-color="#FFFFFF"/><stop offset="0.54" stop-color="#7F7F7F" stop-opacity="0"/><stop offset="1" stop-color="#7F7F7F" stop-opacity="0"/></radialGradient><radialGradient cx="77585.5" cy="84513" r="114726" fx="77585.5" fy="84513" gradientUnits="userSpaceOnUse" spreadMethod="pad" id="fill8" gradientTransform="matrix(0.000360892 0 0 0.000360892 2224 975)"><stop offset="0" stop-color="#FFFFFF"/><stop offset="0.54" stop-color="#7F7F7F" stop-opacity="0"/><stop offset="1" stop-color="#7F7F7F" stop-opacity="0"/></radialGradient><clipPath id="clip9"><rect x="1854" y="674" width="375" height="375"/></clipPath><clipPath id="clip10"><rect x="1854" y="674" width="375" height="375"/></clipPath><clipPath id="clip11"><rect x="1854" y="674" width="375" height="375"/></clipPath></defs><g clip-path="url(#clip0)" transform="translate(-1806 -625)"><rect x="1806" y="625" width="550" height="550" fill="url(#fill1)"/><path d="M1826 801C1826 714.844 1886.44 645 1961 645 2035.56 645 2096 714.844 2096 801 2096 887.156 2035.56 957 1961 957 1886.44 957 1826 887.156 1826 801Z" fill="url(#fill2)" fill-rule="evenodd"/><path d="M1840.73 631 2318.27 631C2334.14 631 2347 650.864 2347 675.368L2347 785C2347 746.824 2326.96 715.876 2302.23 715.876L1856.77 715.876C1832.04 715.876 1812 746.824 1812 785L1812 675.368C1812 650.864 1824.86 631 1840.73 631Z" fill="url(#fill3)" fill-rule="evenodd"/><path d="M1845 791C1845 770.565 1860.22 754 1879 754 1897.78 754 1913 770.565 1913 791 1913 811.435 1897.78 828 1879 828 1860.22 828 1845 811.435 1845 791Z" fill="url(#fill4)" fill-rule="evenodd"/><path d="M1874 842.5C1874 818.475 1891.91 799 1914 799 1936.09 799 1954 818.475 1954 842.5 1954 866.524 1936.09 886 1914 886 1891.91 886 1874 866.524 1874 842.5Z" fill="url(#fill5)" fill-rule="evenodd"/><path d="M2095 1030.5C2095 974.995 2142.23 930 2200.5 930 2258.77 930 2306 974.995 2306 1030.5 2306 1086 2258.77 1131 2200.5 1131 2142.23 1131 2095 1086 2095 1030.5Z" fill="url(#fill6)" fill-rule="evenodd"/><path d="M2240 1086C2240 1070.54 2251.64 1058 2266 1058 2280.36 1058 2292 1070.54 2292 1086 2292 1101.46 2280.36 1114 2266 1114 2251.64 1114 2240 1101.46 2240 1086Z" fill="url(#fill7)" fill-rule="evenodd"/><path d="M2224 1005.5C2224 988.655 2236.54 975 2252 975 2267.46 975 2280 988.655 2280 1005.5 2280 1022.34 2267.46 1036 2252 1036 2236.54 1036 2224 1022.34 2224 1005.5Z" fill="url(#fill8)" fill-rule="evenodd"/><g clip-path="url(#clip9)"><g clip-path="url(#clip10)"><g clip-path="url(#clip11)"><path d="M2191.69 996.949C2190.57 992.318 2187.79 988.294 2183 988.294L2182.31 988.294 2182.31 791.884C2182.31 787.875 2179.05 784.646 2175.06 784.646L2151.45 784.646C2147.46 784.646 2144.22 787.876 2144.22 791.884L2144.3 1039.33C2144.3 1044.09 2148.19 1048.01 2152.98 1048.01L2193.23 1048.01C2199.77 1048.01 2201.93 1044.09 2201.93 1039.33Z" stroke="#FFFFFF" stroke-width="4.61728" fill="#0F1113"/><path d="M1892.31 996.949C1893.43 992.318 1896.21 988.294 1901.01 988.294L1901.7 988.294 1901.7 791.884C1901.7 787.875 1904.95 784.646 1908.94 784.646L1932.56 784.646C1936.53 784.646 1939.79 787.876 1939.79 791.884L1939.7 1039.33C1939.7 1044.09 1935.82 1048.01 1931.03 1048.01L1890.78 1048.01C1884.24 1048 1882.08 1044.09 1882.08 1039.32Z" stroke="#FFFFFF" stroke-width="4.61728" fill="#0F1113"/><path d="M2134.55 791.882C2134.55 787.873 2131.31 784.644 2127.32 784.644L1955.58 784.643C1951.57 784.643 1948.34 787.873 1948.34 791.881L1948.37 978.148 1956.21 995.921C1958.52 999.932 1961.9 1003.15 1967.63 1003.15L2019.28 1003.15C2018.96 1003.89 2009.96 1040.75 2009.96 1040.75 2009.96 1044.75 2011.26 1048 2017.21 1048L2065.69 1048C2071.44 1048 2072.93 1044.75 2072.93 1040.75 2072.93 1040.75 2063.96 1003.89 2063.65 1003.15L2115.3 1003.15C2121.03 1003.15 2124.4 999.932 2126.72 995.921L2134.56 978.148 2134.56 791.881ZM2088.72 847.742C2088.72 849.833 2087.03 851.53 2084.93 851.53L1997.96 851.529C1995.86 851.529 1994.17 849.836 1994.17 847.741L1994.17 844.731C1994.17 842.64 1995.86 840.947 1997.96 840.947L2084.93 840.947C2087.02 840.947 2088.72 842.636 2088.72 844.731ZM2088.72 825.26C2088.72 827.347 2087.03 829.044 2084.93 829.044L1997.96 829.044C1995.86 829.044 1994.17 827.351 1994.17 825.26L1994.17 822.251C1994.17 820.159 1995.86 818.462 1997.96 818.462L2084.93 818.462C2087.02 818.462 2088.72 820.156 2088.72 822.251ZM2088.72 802.775C2088.72 804.862 2087.03 806.559 2084.93 806.559L1997.96 806.559C1995.86 806.559 1994.17 804.866 1994.17 802.775L1994.17 799.761C1994.17 797.669 1995.86 795.972 1997.96 795.972L2084.93 795.972C2087.02 795.972 2088.72 797.666 2088.72 799.761Z" stroke="#FFFFFF" stroke-width="4.61728" fill="#0F1113"/><path d="M2041.44 719.619C2035.08 719.619 2029.94 724.775 2029.94 731.124 2029.94 737.473 2035.08 742.625 2041.44 742.625 2047.79 742.625 2052.95 737.474 2052.95 731.124 2052.95 724.775 2047.79 719.619 2041.44 719.619ZM2041.44 674C1990.02 674 1948.34 715.686 1948.34 767.107 1948.34 769.579 1948.52 772.009 1948.71 774.439L2134.18 774.439C2134.36 772.009 2134.55 769.58 2134.55 767.107 2134.55 715.686 2092.85 674 2041.44 674ZM2059.76 745.874C2059.76 747.863 2058.15 749.476 2056.16 749.476L2026.75 749.476C2024.76 749.476 2023.15 747.863 2023.15 745.874L2023.15 716.464C2023.15 714.474 2024.76 712.861 2026.75 712.861L2056.16 712.861C2058.15 712.861 2059.76 714.474 2059.76 716.464ZM2096.47 759.554C2090.11 759.554 2084.97 754.403 2084.97 748.053 2084.97 741.704 2090.11 736.548 2096.47 736.548 2102.82 736.548 2107.98 741.704 2107.98 748.053 2107.98 754.403 2102.82 759.554 2096.47 759.554Z" stroke="#FFFFFF" stroke-width="4.61728" fill="#0F1113"/></g></g></g><path d="M1987.74 954.827 2037.53 954.827 2111.98 1045.71 2111.98 1082.12 1991.13 1082.12 1991.13 1043.45 2060.25 1043.45ZM2160.35 842.034 2200.64 842.034 2200.64 926.306 2168.41 998.816 2168.41 1082.12 2128.13 1082.12 2128.13 997.849 2160.35 925.339Z" stroke="#FFFFFF" stroke-width="5" stroke-linejoin="round" stroke-miterlimit="10" fill="#0F1113" fill-rule="evenodd"/><text fill="#000000" fill-opacity="0" font-family="Arial,Arial_MSFontService,sans-serif" font-size="240.088" x="1987.74" y="1052.11">:/</text><path d="M2249.08 842.034 2289.37 842.034 2289.37 926.306 2257.14 998.816 2257.14 1082.12 2216.86 1082.12 2216.86 997.849 2249.08 925.339Z" stroke="#FFFFFF" stroke-width="5" stroke-linejoin="round" stroke-miterlimit="10" fill="#0F1113" fill-rule="evenodd"/><text fill="#000000" fill-opacity="0" font-family="Arial,Arial_MSFontService,sans-serif" font-size="240.088" x="2216.86" y="1052.11">/</text></g></svg>