<svg width="550" height="550" xmlns="http://www.w3.org/2000/svg" xmlns:xlink="http://www.w3.org/1999/xlink" overflow="hidden"><defs><clipPath id="clip0"><rect x="635" y="625" width="550" height="550"/></clipPath><radialGradient cx="762000" cy="762000" r="1.07763e+06" gradientUnits="userSpaceOnUse" spreadMethod="pad" id="fill1" gradientTransform="matrix(0.000360892 0 0 0.000360892 635 625)"><stop offset="0" stop-color="#D9D9D9"/><stop offset="0.17" stop-color="#D9D9D9"/><stop offset="0.33" stop-color="#7F7F7F"/><stop offset="1" stop-color="#0F1113"/></radialGradient><radialGradient cx="374073" cy="432262" r="571648" fx="374073" fy="432262" gradientUnits="userSpaceOnUse" spreadMethod="pad" id="fill2" gradientTransform="matrix(0.000360892 0 0 0.000360892 655 645)"><stop offset="0" stop-color="#FFFFFF"/><stop offset="0.54" stop-color="#7F7F7F" stop-opacity="0"/><stop offset="1" stop-color="#7F7F7F" stop-opacity="0"/></radialGradient><linearGradient x1="907.5" y1="631" x2="907.5" y2="785" gradientUnits="userSpaceOnUse" spreadMethod="reflect" id="fill3"><stop offset="0" stop-color="#F5FAFF" stop-opacity="0.231373"/><stop offset="0.32" stop-color="#FFFFFF" stop-opacity="0"/><stop offset="1" stop-color="#FFFFFF" stop-opacity="0"/></linearGradient><radialGradient cx="94211" cy="102524" r="139237" fx="94211" fy="102524" gradientUnits="userSpaceOnUse" spreadMethod="pad" id="fill4" gradientTransform="matrix(0.000360892 0 0 0.000360892 673 754)"><stop offset="0" stop-color="#FFFFFF"/><stop offset="0.54" stop-color="#7F7F7F" stop-opacity="0"/><stop offset="1" stop-color="#7F7F7F" stop-opacity="0"/></radialGradient><radialGradient cx="112222" cy="120534" r="164689" gradientUnits="userSpaceOnUse" spreadMethod="pad" id="fill5" gradientTransform="matrix(0.000360892 0 0 0.000360892 702 799)"><stop offset="0" stop-color="#FFFFFF"/><stop offset="0.54" stop-color="#7F7F7F" stop-opacity="0"/><stop offset="1" stop-color="#7F7F7F" stop-opacity="0"/></radialGradient><radialGradient cx="292331" cy="278477" r="403741" fx="292331" fy="278476" gradientUnits="userSpaceOnUse" spreadMethod="pad" id="fill6" gradientTransform="matrix(0.000360892 0 0 0.000360892 924 930)"><stop offset="0" stop-color="#FFFFFF"/><stop offset="0.54" stop-color="#7F7F7F" stop-opacity="0"/><stop offset="1" stop-color="#7F7F7F" stop-opacity="0"/></radialGradient><radialGradient cx="72043.5" cy="77585.5" r="105876" fx="72043.5" fy="77585.5" gradientUnits="userSpaceOnUse" spreadMethod="pad" id="fill7" gradientTransform="matrix(0.000360892 0 0 0.000360892 1069 1058)"><stop offset="0" stop-color="#FFFFFF"/><stop offset="0.54" stop-color="#7F7F7F" stop-opacity="0"/><stop offset="1" stop-color="#7F7F7F" stop-opacity="0"/></radialGradient><radialGradient cx="77585.5" cy="84513" r="114726" fx="77585.5" fy="84513" gradientUnits="userSpaceOnUse" spreadMethod="pad" id="fill8" gradientTransform="matrix(0.000360892 0 0 0.000360892 1053 975)"><stop offset="0" stop-color="#FFFFFF"/><stop offset="0.54" stop-color="#7F7F7F" stop-opacity="0"/><stop offset="1" stop-color="#7F7F7F" stop-opacity="0"/></radialGradient><clipPath id="clip9"><rect x="832" y="818" width="343" height="343"/></clipPath><clipPath id="clip10"><rect x="832" y="818" width="343" height="343"/></clipPath><clipPath id="clip11"><rect x="832" y="818" width="343" height="343"/></clipPath><clipPath id="clip12"><rect x="647" y="640" width="382" height="381"/></clipPath><clipPath id="clip13"><rect x="647" y="640" width="382" height="381"/></clipPath><clipPath id="clip14"><rect x="647" y="640" width="382" height="381"/></clipPath></defs><g clip-path="url(#clip0)" transform="translate(-635 -625)"><rect x="635" y="625" width="550" height="550" fill="url(#fill1)"/><path d="M655 801C655 714.844 715.441 645 790 645 864.558 645 925 714.844 925 801 925 887.156 864.558 957 790 957 715.441 957 655 887.156 655 801Z" fill="url(#fill2)" fill-rule="evenodd"/><path d="M668.734 631 1146.27 631C1162.14 631 1175 650.864 1175 675.368L1175 785C1175 746.824 1154.96 715.876 1130.23 715.876L684.767 715.876C660.043 715.876 640 746.824 640 785L640 675.368C640 650.864 652.865 631 668.734 631Z" fill="url(#fill3)" fill-rule="evenodd"/><path d="M673 791C673 770.565 688.222 754 707 754 725.778 754 741 770.565 741 791 741 811.435 725.778 828 707 828 688.222 828 673 811.435 673 791Z" fill="url(#fill4)" fill-rule="evenodd"/><path d="M702 842.5C702 818.475 720.132 799 742.5 799 764.868 799 783 818.475 783 842.5 783 866.524 764.868 886 742.5 886 720.132 886 702 866.524 702 842.5Z" fill="url(#fill5)" fill-rule="evenodd"/><path d="M924 1030.5C924 974.995 971.234 930 1029.5 930 1087.77 930 1135 974.995 1135 1030.5 1135 1086 1087.77 1131 1029.5 1131 971.234 1131 924 1086 924 1030.5Z" fill="url(#fill6)" fill-rule="evenodd"/><path d="M1069 1086C1069 1070.54 1080.64 1058 1095 1058 1109.36 1058 1121 1070.54 1121 1086 1121 1101.46 1109.36 1114 1095 1114 1080.64 1114 1069 1101.46 1069 1086Z" fill="url(#fill7)" fill-rule="evenodd"/><path d="M1053 1005.5C1053 988.655 1065.54 975 1081 975 1096.46 975 1109 988.655 1109 1005.5 1109 1022.34 1096.46 1036 1081 1036 1065.54 1036 1053 1022.34 1053 1005.5Z" fill="url(#fill8)" fill-rule="evenodd"/><g clip-path="url(#clip9)"><g clip-path="url(#clip10)"><g clip-path="url(#clip11)"><path d="M1144.13 911.922 1106.46 933.677 1076.69 916.309 1076.53 881.841 1114.21 860.087C1116.47 858.78 1116.5 855.514 1114.27 854.163 1092.17 840.821 1063.67 839.638 1039.8 853.688 1012.25 869.908 999.155 902.508 1005.97 932.615L869.917 1068.67C854.893 1083.69 854.893 1108.05 869.917 1123.08 884.94 1138.1 909.301 1138.1 924.329 1123.08L1060.31 987.102C1077.62 991.109 1096.42 988.836 1113.02 979.25 1136.77 965.539 1149.8 940.447 1149.3 914.84 1149.24 912.23 1146.4 910.616 1144.13 911.922Z" stroke="#FFFFFF" stroke-width="4.42719" fill="#0F1113"/></g></g></g><g clip-path="url(#clip12)"><g clip-path="url(#clip13)"><g clip-path="url(#clip14)"><path d="M772.073 830.741 836.916 812.855 836.917 812.856C837.953 812.57 839.046 812.57 840.082 812.856L904.925 830.743 904.926 830.741C906.69 825.555 910.728 821.457 915.89 819.619L915.89 811.502 838.499 794.917 761.109 811.502 761.109 819.619C766.271 821.457 770.309 825.555 772.072 830.741Z" stroke="#FFFFFF" stroke-width="4.57657" fill="#0F1113"/><path d="M832.547 850.01 832.547 826.412 773.016 842.833 773.016 849.059C773.012 851.96 771.95 854.76 770.03 856.935 768.11 859.11 765.464 860.51 762.585 860.872L726.867 865.337C724.433 865.648 721.964 865.197 719.8 864.044 717.635 862.89 715.883 861.092 714.785 858.899L671.812 870.753 671.812 878.71 727.987 884.521Z" stroke="#FFFFFF" stroke-width="4.57657" fill="#0F1113"/><path d="M839.748 759.196 850.406 761.479 850.406 745.871 839.157 747.121C838.721 747.169 838.279 747.169 837.842 747.121L826.593 745.871 826.593 761.48 837.252 759.197 837.252 759.196C838.074 759.02 838.925 759.02 839.747 759.196Z" stroke="#FFFFFF" stroke-width="4.57657" fill="#0F1113"/><path d="M756.909 887.513 838.5 895.953 920.091 887.513 838.5 860.583ZM844.453 884.079 832.547 884.079 832.547 872.173 844.453 872.173Z" stroke="#FFFFFF" stroke-width="4.57657" fill="#0F1113"/><path d="M796.828 791.67 837.252 783.007 837.252 783.008C838.074 782.832 838.925 782.832 839.747 783.008L880.171 791.67 880.171 780.034 838.5 771.104 796.828 780.034Z" stroke="#FFFFFF" stroke-width="4.57657" fill="#0F1113"/><path d="M837.887 907.859 689.672 892.526 689.672 903.816 838.5 919.762 987.328 903.816 987.328 892.526 839.113 907.855C838.705 907.897 838.295 907.897 837.887 907.855Z" stroke="#FFFFFF" stroke-width="4.57657" fill="#0F1113"/><path d="M761.109 836.453C761.108 834.874 760.479 833.361 759.364 832.245 758.248 831.13 756.735 830.501 755.156 830.5L745.557 830.5 748.898 840.523 737.602 844.289 733.005 830.5 731.344 830.5C729.765 830.501 728.252 831.13 727.135 832.245 726.02 833.361 725.391 834.874 725.39 836.453L725.39 853.522 761.109 849.057Z" stroke="#FFFFFF" stroke-width="4.57657" fill="#0F1113"/><path d="M837.865 931.668 677.766 914.513 677.766 926.351 838.5 943.572 999.234 926.351 999.234 914.513 839.135 931.668C838.713 931.714 838.286 931.714 837.865 931.668Z" stroke="#FFFFFF" stroke-width="4.57657" fill="#0F1113"/><path d="M962.214 858.897C961.11 861.086 959.357 862.88 957.193 864.033 955.031 865.185 952.565 865.641 950.133 865.335L914.414 860.871C911.536 860.507 908.889 859.107 906.969 856.933 905.049 854.759 903.987 851.958 903.984 849.057L903.984 842.832 844.453 826.411 844.453 850.009 949.012 884.521 1005.19 878.709 1005.19 870.752Z" stroke="#FFFFFF" stroke-width="4.57657" fill="#0F1113"/><path d="M915.891 849.058 951.609 853.523 951.62 853.523 951.609 836.453C951.608 834.874 950.979 833.361 949.864 832.245 948.748 831.13 947.235 830.501 945.656 830.5L943.994 830.5 939.398 844.289 928.102 840.524 931.443 830.5 921.844 830.5C920.265 830.502 918.751 831.13 917.635 832.245 916.52 833.362 915.891 834.875 915.89 836.453Z" stroke="#FFFFFF" stroke-width="4.57657" fill="#0F1113"/><path d="M886.125 729.922 886.125 716.766 838.5 711.474 790.875 716.766 790.875 729.922 838.5 735.214Z" stroke="#FFFFFF" stroke-width="4.57657" fill="#0F1113"/><path d="M936.731 945.025 946.285 964.133 956.933 958.808 949.367 943.672Z" stroke="#FFFFFF" stroke-width="4.57657" fill="#0F1113"/><path d="M914.128 947.448 922.471 964.133 933.12 958.808 926.764 946.094Z" stroke="#FFFFFF" stroke-width="4.57657" fill="#0F1113"/><path d="M832.547 954.912 844.453 954.912 844.453 973.375 832.547 973.375Z" stroke="#FFFFFF" stroke-width="4.57657" fill="#0F1113"/><path d="M743.879 958.802 754.527 964.126 762.87 947.442 750.235 946.088Z" stroke="#FFFFFF" stroke-width="4.57657" fill="#0F1113"/><path d="M720.066 958.802 730.715 964.126 740.268 945.02 727.633 943.667Z" stroke="#FFFFFF" stroke-width="4.57657" fill="#0F1113"/><path d="M741.589 818.594 736.993 804.805 725.697 808.57 729.088 818.741Z" stroke="#FFFFFF" stroke-width="4.57657" fill="#0F1113"/><path d="M808.734 687.625 796.828 687.625 796.828 704.125 808.734 702.802Z" stroke="#FFFFFF" stroke-width="4.57657" fill="#0F1113"/><path d="M832.547 700.157 844.453 700.157 844.453 687.625 856.359 687.625 856.359 675.719 820.641 675.719 820.641 687.625 832.547 687.625Z" stroke="#FFFFFF" stroke-width="4.57657" fill="#0F1113"/><path d="M880.172 687.625 868.266 687.625 868.266 702.802 880.172 704.125Z" stroke="#FFFFFF" stroke-width="4.57657" fill="#0F1113"/><path d="M951.304 808.57 940.008 804.805 935.412 818.594 947.913 818.742Z" stroke="#FFFFFF" stroke-width="4.57657" fill="#0F1113"/></g></g></g></g></svg>