<svg width="550" height="550" xmlns="http://www.w3.org/2000/svg" xmlns:xlink="http://www.w3.org/1999/xlink" overflow="hidden"><defs><clipPath id="clip0"><rect x="37" y="1197" width="550" height="550"/></clipPath><radialGradient cx="762000" cy="762000" r="1.07763e+06" gradientUnits="userSpaceOnUse" spreadMethod="pad" id="fill1" gradientTransform="matrix(0.000360892 0 0 0.000360892 37.0001 1197)"><stop offset="0" stop-color="#D9D9D9"/><stop offset="0.17" stop-color="#D9D9D9"/><stop offset="0.33" stop-color="#7F7F7F"/><stop offset="1" stop-color="#0F1113"/></radialGradient><radialGradient cx="374072" cy="432262" r="571647" fx="374072" fy="432262" gradientUnits="userSpaceOnUse" spreadMethod="pad" id="fill2" gradientTransform="matrix(0.000360892 0 0 0.000360892 57.0001 1217)"><stop offset="0" stop-color="#FFFFFF"/><stop offset="0.54" stop-color="#7F7F7F" stop-opacity="0"/><stop offset="1" stop-color="#7F7F7F" stop-opacity="0"/></radialGradient><linearGradient x1="310" y1="1203" x2="310" y2="1357" gradientUnits="userSpaceOnUse" spreadMethod="reflect" id="fill3"><stop offset="0" stop-color="#F5FAFF" stop-opacity="0.231373"/><stop offset="0.32" stop-color="#FFFFFF" stop-opacity="0"/><stop offset="1" stop-color="#FFFFFF" stop-opacity="0"/></linearGradient><radialGradient cx="94211" cy="101138" r="138220" gradientUnits="userSpaceOnUse" spreadMethod="pad" id="fill4" gradientTransform="matrix(0.000360892 0 0 0.000360892 76 1326)"><stop offset="0" stop-color="#FFFFFF"/><stop offset="0.54" stop-color="#7F7F7F" stop-opacity="0"/><stop offset="1" stop-color="#7F7F7F" stop-opacity="0"/></radialGradient><radialGradient cx="110836" cy="120534" r="163748" gradientUnits="userSpaceOnUse" spreadMethod="pad" id="fill5" gradientTransform="matrix(0.000360892 0 0 0.000360892 105 1371)"><stop offset="0" stop-color="#FFFFFF"/><stop offset="0.54" stop-color="#7F7F7F" stop-opacity="0"/><stop offset="1" stop-color="#7F7F7F" stop-opacity="0"/></radialGradient><radialGradient cx="292331" cy="278477" r="403741" fx="292331" fy="278476" gradientUnits="userSpaceOnUse" spreadMethod="pad" id="fill6" gradientTransform="matrix(0.000360892 0 0 0.000360892 326 1502)"><stop offset="0" stop-color="#FFFFFF"/><stop offset="0.54" stop-color="#7F7F7F" stop-opacity="0"/><stop offset="1" stop-color="#7F7F7F" stop-opacity="0"/></radialGradient><radialGradient cx="72043.5" cy="77585.5" r="105876" fx="72043.5" fy="77585.5" gradientUnits="userSpaceOnUse" spreadMethod="pad" id="fill7" gradientTransform="matrix(0.000360892 0 0 0.000360892 471 1630)"><stop offset="0" stop-color="#FFFFFF"/><stop offset="0.54" stop-color="#7F7F7F" stop-opacity="0"/><stop offset="1" stop-color="#7F7F7F" stop-opacity="0"/></radialGradient><radialGradient cx="77585.5" cy="84513" r="114726" fx="77585.5" fy="84513" gradientUnits="userSpaceOnUse" spreadMethod="pad" id="fill8" gradientTransform="matrix(0.000360892 0 0 0.000360892 455 1547)"><stop offset="0" stop-color="#FFFFFF"/><stop offset="0.54" stop-color="#7F7F7F" stop-opacity="0"/><stop offset="1" stop-color="#7F7F7F" stop-opacity="0"/></radialGradient><clipPath id="clip9"><rect x="94" y="1229" width="381" height="382"/></clipPath><clipPath id="clip10"><rect x="94" y="1229" width="381" height="382"/></clipPath><clipPath id="clip11"><rect x="94" y="1229" width="381" height="382"/></clipPath><clipPath id="clip12"><rect x="235" y="1390" width="343" height="343"/></clipPath><clipPath id="clip13"><rect x="235" y="1390" width="343" height="343"/></clipPath><clipPath id="clip14"><rect x="235" y="1390" width="343" height="343"/></clipPath></defs><g clip-path="url(#clip0)" transform="translate(-37 -1197)"><rect x="37.0001" y="1197" width="550" height="550" fill="url(#fill1)"/><path d="M57.0001 1373C57.0001 1286.84 117.442 1217 192 1217 266.558 1217 327 1286.84 327 1373 327 1459.16 266.558 1529 192 1529 117.442 1529 57.0001 1459.16 57.0001 1373Z" fill="url(#fill2)" fill-rule="evenodd"/><path d="M70.7874 1203 549.212 1203C565.111 1203 578 1222.86 578 1247.37L578 1357C578 1318.82 557.92 1287.88 533.149 1287.88L86.8503 1287.88C62.0801 1287.88 41.9999 1318.82 41.9999 1357L41.9999 1247.37C41.9999 1222.86 54.8884 1203 70.7874 1203Z" fill="url(#fill3)" fill-rule="evenodd"/><path d="M76 1362.5C76 1342.34 91.2223 1326 110 1326 128.778 1326 144 1342.34 144 1362.5 144 1382.66 128.778 1399 110 1399 91.2223 1399 76 1382.66 76 1362.5Z" fill="url(#fill4)" fill-rule="evenodd"/><path d="M105 1414.5C105 1390.48 122.908 1371 145 1371 167.091 1371 185 1390.48 185 1414.5 185 1438.52 167.091 1458 145 1458 122.908 1458 105 1438.52 105 1414.5Z" fill="url(#fill5)" fill-rule="evenodd"/><path d="M326 1602.5C326 1547 373.234 1502 431.5 1502 489.766 1502 537 1547 537 1602.5 537 1658 489.766 1703 431.5 1703 373.234 1703 326 1658 326 1602.5Z" fill="url(#fill6)" fill-rule="evenodd"/><path d="M471 1658C471 1642.54 482.641 1630 497 1630 511.359 1630 523 1642.54 523 1658 523 1673.46 511.359 1686 497 1686 482.641 1686 471 1673.46 471 1658Z" fill="url(#fill7)" fill-rule="evenodd"/><path d="M455 1577.5C455 1560.66 467.536 1547 483 1547 498.464 1547 511 1560.66 511 1577.5 511 1594.34 498.464 1608 483 1608 467.536 1608 455 1594.34 455 1577.5Z" fill="url(#fill8)" fill-rule="evenodd"/><g clip-path="url(#clip9)"><g clip-path="url(#clip10)"><g clip-path="url(#clip11)"><path d="M35.5313 343.5 59.2188 361.266 59.2188 207.297 35.5313 207.297Z" stroke="#FFFFFF" stroke-width="4.59396" fill="#0F1113" transform="matrix(1 0 0 1.00264 94.9999 1230)"/><path d="M17.7656 189.541C17.7656 192.811 20.4181 195.463 23.6875 195.463L71.0625 195.463C74.332 195.463 76.9844 192.811 76.9844 189.541L76.9844 183.619 17.7656 183.619Z" stroke="#FFFFFF" stroke-width="4.59396" fill="#0F1113" transform="matrix(1 0 0 1.00264 94.9999 1230)"/><path d="M47.375 17.8076C31.048 17.8076 17.7656 31.09 17.7656 47.417L17.7656 171.776 41.4531 171.776 41.4531 148.089 53.2969 148.089 53.2969 171.776 76.9844 171.776 76.9844 47.417C76.9844 31.09 63.702 17.8076 47.375 17.8076ZM53.2969 136.245 41.4531 136.245 41.4531 29.6514 53.2969 29.6514Z" stroke="#FFFFFF" stroke-width="4.59396" fill="#0F1113" transform="matrix(1 0 0 1.00264 94.9999 1230)"/><path d="M219.109 28.2301 207.266 29.6514 207.266 71.1045 183.578 82.9483 159.891 71.1045 159.891 29.6514 148.047 28.2301C133.23 38.8428 124.359 55.4942 124.359 73.5807 124.359 92.9034 134.509 110.71 151.505 121.221 160.466 126.764 165.813 136.221 165.813 146.531L165.813 343.516C165.813 353.31 173.784 361.282 183.578 361.282 193.373 361.282 201.344 353.31 201.344 343.516L201.344 146.531C201.344 136.227 206.691 126.764 215.657 121.227 232.647 110.71 242.797 92.9021 242.797 73.5807 242.797 55.4954 233.926 38.8421 219.109 28.2301ZM183.578 349.432C180.309 349.432 177.656 346.779 177.656 343.51 177.656 340.241 180.309 337.588 183.578 337.588 186.848 337.588 189.5 340.241 189.5 343.51 189.5 346.785 186.848 349.432 183.578 349.432Z" stroke="#FFFFFF" stroke-width="4.59396" fill="#0F1113" transform="matrix(1 0 0 1.00264 94.9999 1230)"/><path d="M296.094 171.776 319.781 171.776 319.781 207.307 296.094 207.307Z" stroke="#FFFFFF" stroke-width="4.59396" fill="#0F1113" transform="matrix(1 0 0 1.00264 94.9999 1230)"/><path d="M331.625 148.088 313.86 148.088 313.86 136.244 331.625 136.244 331.625 41.4942C331.625 28.4304 321.001 17.8067 307.938 17.8067 294.874 17.8067 284.25 28.4304 284.25 41.4942L284.25 118.479 302.016 118.479 302.016 130.322 284.25 130.322 284.25 159.932 331.625 159.932ZM307.938 41.4942C304.668 41.4942 302.016 38.8418 302.016 35.5723 302.016 32.3028 304.668 29.6504 307.938 29.6504 311.207 29.6504 313.86 32.3028 313.86 35.5723 313.86 38.8466 311.207 41.4942 307.938 41.4942Z" stroke="#FFFFFF" stroke-width="4.59396" fill="#0F1113" transform="matrix(1 0 0 1.00264 94.9999 1230)"/><path d="M350.259 219.151 348.927 219.151C346.037 239.202 328.786 254.682 307.947 254.682 287.109 254.682 269.858 239.202 266.968 219.151L265.642 219.151C259.584 219.151 254.657 224.078 254.657 230.136L254.657 233.938C254.657 235.217 254.881 236.484 255.321 237.698L297.627 354.04C299.202 358.36 303.354 361.276 307.954 361.276 312.556 361.276 316.712 358.367 318.281 354.04L360.593 237.692C361.02 236.483 361.244 235.216 361.244 233.936L361.244 230.134C361.244 224.076 356.317 219.15 350.259 219.15Z" stroke="#FFFFFF" stroke-width="4.59396" fill="#0F1113" transform="matrix(1 0 0 1.00264 94.9999 1230)"/><path d="M307.938 242.838C322.232 242.838 334.196 232.646 336.947 219.151L278.927 219.151C281.681 232.652 293.643 242.838 307.938 242.838Z" stroke="#FFFFFF" stroke-width="4.59396" fill="#0F1113" transform="matrix(1 0 0 1.00264 94.9999 1230)"/></g></g></g><g clip-path="url(#clip12)"><g clip-path="url(#clip13)"><g clip-path="url(#clip14)"><path d="M311.135 93.9218 273.458 115.676 243.686 98.3091 243.533 63.8411 281.213 42.0865C283.474 40.7795 283.5 37.5143 281.267 36.1628 259.174 22.8214 230.665 21.6378 206.802 35.6874 179.251 51.9079 166.156 84.5079 172.97 114.615L36.9166 250.669C21.893 265.692 21.893 290.053 36.9166 305.081 51.9404 320.103 76.3008 320.103 91.3288 305.081L227.308 169.102C244.616 173.109 263.423 170.836 280.025 161.25 303.773 147.539 316.8 122.447 316.296 96.8396 316.242 94.2301 313.397 92.6159 311.135 93.9218Z" stroke="#FFFFFF" stroke-width="4.42719" fill="#0F1113" transform="matrix(1.00292 0 0 1 235 1390)"/></g></g></g></g></svg>