<svg width="550" height="550" xmlns="http://www.w3.org/2000/svg" xmlns:xlink="http://www.w3.org/1999/xlink" overflow="hidden"><defs><clipPath id="clip0"><rect x="2027" y="145" width="550" height="550"/></clipPath><radialGradient cx="762000" cy="762000" r="1.07763e+06" gradientUnits="userSpaceOnUse" spreadMethod="pad" id="fill1" gradientTransform="matrix(0.000360892 0 0 0.000360892 2027 145)"><stop offset="0" stop-color="#D9D9D9"/><stop offset="0.17" stop-color="#D9D9D9"/><stop offset="0.33" stop-color="#7F7F7F"/><stop offset="1" stop-color="#0F1113"/></radialGradient><radialGradient cx="374072" cy="432262" r="571647" fx="374072" fy="432262" gradientUnits="userSpaceOnUse" spreadMethod="pad" id="fill2" gradientTransform="matrix(0.000360892 0 0 0.000360892 2047 165)"><stop offset="0" stop-color="#FFFFFF"/><stop offset="0.54" stop-color="#7F7F7F" stop-opacity="0"/><stop offset="1" stop-color="#7F7F7F" stop-opacity="0"/></radialGradient><linearGradient x1="2300.5" y1="151" x2="2300.5" y2="305" gradientUnits="userSpaceOnUse" spreadMethod="reflect" id="fill3"><stop offset="0" stop-color="#F5FAFF" stop-opacity="0.231373"/><stop offset="0.32" stop-color="#FFFFFF" stop-opacity="0"/><stop offset="1" stop-color="#FFFFFF" stop-opacity="0"/></linearGradient><radialGradient cx="94211" cy="102524" r="139236" gradientUnits="userSpaceOnUse" spreadMethod="pad" id="fill4" gradientTransform="matrix(0.000360892 0 0 0.000360892 2066 274)"><stop offset="0" stop-color="#FFFFFF"/><stop offset="0.54" stop-color="#7F7F7F" stop-opacity="0"/><stop offset="1" stop-color="#7F7F7F" stop-opacity="0"/></radialGradient><radialGradient cx="110836" cy="120534" r="163747" fx="110836" fy="120534" gradientUnits="userSpaceOnUse" spreadMethod="pad" id="fill5" gradientTransform="matrix(0.000360892 0 0 0.000360892 2095 319)"><stop offset="0" stop-color="#FFFFFF"/><stop offset="0.54" stop-color="#7F7F7F" stop-opacity="0"/><stop offset="1" stop-color="#7F7F7F" stop-opacity="0"/></radialGradient><radialGradient cx="292331" cy="278477" r="403741" fx="292331" fy="278476" gradientUnits="userSpaceOnUse" spreadMethod="pad" id="fill6" gradientTransform="matrix(0.000360892 0 0 0.000360892 2316 450)"><stop offset="0" stop-color="#FFFFFF"/><stop offset="0.54" stop-color="#7F7F7F" stop-opacity="0"/><stop offset="1" stop-color="#7F7F7F" stop-opacity="0"/></radialGradient><radialGradient cx="72044" cy="77585.5" r="105877" fx="72044" fy="77585.5" gradientUnits="userSpaceOnUse" spreadMethod="pad" id="fill7" gradientTransform="matrix(0.000360892 0 0 0.000360892 2461 578)"><stop offset="0" stop-color="#FFFFFF"/><stop offset="0.54" stop-color="#7F7F7F" stop-opacity="0"/><stop offset="1" stop-color="#7F7F7F" stop-opacity="0"/></radialGradient><radialGradient cx="77585.5" cy="84512.5" r="114725" gradientUnits="userSpaceOnUse" spreadMethod="pad" id="fill8" gradientTransform="matrix(0.000360892 0 0 0.000360892 2445 495)"><stop offset="0" stop-color="#FFFFFF"/><stop offset="0.54" stop-color="#7F7F7F" stop-opacity="0"/><stop offset="1" stop-color="#7F7F7F" stop-opacity="0"/></radialGradient><clipPath id="clip9"><rect x="2060" y="183" width="486" height="486"/></clipPath><clipPath id="clip10"><rect x="2060" y="183" width="486" height="486"/></clipPath><clipPath id="clip11"><rect x="2060" y="183" width="486" height="486"/></clipPath></defs><g clip-path="url(#clip0)" transform="translate(-2027 -145)"><rect x="2027" y="145" width="550" height="550" fill="url(#fill1)"/><path d="M2047 321C2047 234.844 2107.44 165 2182 165 2256.56 165 2317 234.844 2317 321 2317 407.156 2256.56 477 2182 477 2107.44 477 2047 407.156 2047 321Z" fill="url(#fill2)" fill-rule="evenodd"/><path d="M2061.73 151 2539.27 151C2555.14 151 2568 170.864 2568 195.368L2568 305C2568 266.824 2547.96 235.876 2523.23 235.876L2077.77 235.876C2053.04 235.876 2033 266.824 2033 305L2033 195.368C2033 170.864 2045.86 151 2061.73 151Z" fill="url(#fill3)" fill-rule="evenodd"/><path d="M2066 311C2066 290.565 2081.22 274 2100 274 2118.78 274 2134 290.565 2134 311 2134 331.434 2118.78 348 2100 348 2081.22 348 2066 331.434 2066 311Z" fill="url(#fill4)" fill-rule="evenodd"/><path d="M2095 362.5C2095 338.476 2112.91 319 2135 319 2157.09 319 2175 338.476 2175 362.5 2175 386.524 2157.09 406 2135 406 2112.91 406 2095 386.524 2095 362.5Z" fill="url(#fill5)" fill-rule="evenodd"/><path d="M2316 550.5C2316 494.995 2363.23 450 2421.5 450 2479.77 450 2527 494.995 2527 550.5 2527 606.005 2479.77 651 2421.5 651 2363.23 651 2316 606.005 2316 550.5Z" fill="url(#fill6)" fill-rule="evenodd"/><path d="M2461 606C2461 590.536 2472.64 578 2487 578 2501.36 578 2513 590.536 2513 606 2513 621.464 2501.36 634 2487 634 2472.64 634 2461 621.464 2461 606Z" fill="url(#fill7)" fill-rule="evenodd"/><path d="M2445 525.5C2445 508.655 2457.54 495 2473 495 2488.46 495 2501 508.655 2501 525.5 2501 542.345 2488.46 556 2473 556 2457.54 556 2445 542.345 2445 525.5Z" fill="url(#fill8)" fill-rule="evenodd"/><g clip-path="url(#clip9)"><g clip-path="url(#clip10)"><g clip-path="url(#clip11)"><path d="M2464.77 457.491C2459.2 342.352 2404.39 280.66 2343.52 264.073 2403.18 290.748 2439.36 378 2447.51 477.231 2440.23 484.41 2429.51 490.472 2429.51 490.472 2425.44 399.098 2395.08 316.066 2345.9 283.086 2324.56 268.78 2302.73 259.176 2275.82 255.442 2267.57 256.024 2251.28 259.856 2243.42 261.359 2250.21 263.008 2256.95 265.191 2263.45 267.858 2341.58 300.207 2356.13 488.533 2358.36 528.4 2348.66 531.358 2336.49 533.929 2336.49 533.929 2331.83 429.654 2304.38 308.743 2255.01 288.276 2235.03 279.983 2213.49 277.897 2193.71 279.692 2146.13 307.386 2112.95 363.015 2107.91 456.62 2101.9 460.646 2097.58 463.701 2096.37 464.963 2076.53 485.381 2075.32 494.936 2136.62 525.054 2197.93 555.222 2247.78 571.808 2279.07 584.564 2310.3 597.321 2355.55 607.312 2453.76 581.46 2563.18 559.682 2517.49 510.795 2464.77 457.494Z" stroke="#FFFFFF" stroke-width="7.69841" fill="#0F1113"/></g></g></g></g></svg>