<svg width="550" height="550" xmlns="http://www.w3.org/2000/svg" xmlns:xlink="http://www.w3.org/1999/xlink" overflow="hidden"><defs><clipPath id="clip0"><rect x="635" y="1197" width="550" height="550"/></clipPath><radialGradient cx="762000" cy="762000" r="1.07763e+06" gradientUnits="userSpaceOnUse" spreadMethod="pad" id="fill1" gradientTransform="matrix(0.000360892 0 0 0.000360892 635 1197)"><stop offset="0" stop-color="#D9D9D9"/><stop offset="0.17" stop-color="#D9D9D9"/><stop offset="0.33" stop-color="#7F7F7F"/><stop offset="1" stop-color="#0F1113"/></radialGradient><radialGradient cx="374073" cy="432262" r="571648" fx="374073" fy="432262" gradientUnits="userSpaceOnUse" spreadMethod="pad" id="fill2" gradientTransform="matrix(0.000360892 0 0 0.000360892 655 1217)"><stop offset="0" stop-color="#FFFFFF"/><stop offset="0.54" stop-color="#7F7F7F" stop-opacity="0"/><stop offset="1" stop-color="#7F7F7F" stop-opacity="0"/></radialGradient><linearGradient x1="907.5" y1="1203" x2="907.5" y2="1357" gradientUnits="userSpaceOnUse" spreadMethod="reflect" id="fill3"><stop offset="0" stop-color="#F5FAFF" stop-opacity="0.231373"/><stop offset="0.32" stop-color="#FFFFFF" stop-opacity="0"/><stop offset="1" stop-color="#FFFFFF" stop-opacity="0"/></linearGradient><radialGradient cx="95596.5" cy="101139" r="139168" fx="95596.5" fy="101138" gradientUnits="userSpaceOnUse" spreadMethod="pad" id="fill4" gradientTransform="matrix(0.000360892 0 0 0.000360892 673 1326)"><stop offset="0" stop-color="#FFFFFF"/><stop offset="0.54" stop-color="#7F7F7F" stop-opacity="0"/><stop offset="1" stop-color="#7F7F7F" stop-opacity="0"/></radialGradient><radialGradient cx="112222" cy="120534" r="164689" gradientUnits="userSpaceOnUse" spreadMethod="pad" id="fill5" gradientTransform="matrix(0.000360892 0 0 0.000360892 702 1371)"><stop offset="0" stop-color="#FFFFFF"/><stop offset="0.54" stop-color="#7F7F7F" stop-opacity="0"/><stop offset="1" stop-color="#7F7F7F" stop-opacity="0"/></radialGradient><radialGradient cx="292331" cy="278477" r="403741" fx="292331" fy="278476" gradientUnits="userSpaceOnUse" spreadMethod="pad" id="fill6" gradientTransform="matrix(0.000360892 0 0 0.000360892 924 1502)"><stop offset="0" stop-color="#FFFFFF"/><stop offset="0.54" stop-color="#7F7F7F" stop-opacity="0"/><stop offset="1" stop-color="#7F7F7F" stop-opacity="0"/></radialGradient><radialGradient cx="72043.5" cy="77585.5" r="105876" fx="72043.5" fy="77585.5" gradientUnits="userSpaceOnUse" spreadMethod="pad" id="fill7" gradientTransform="matrix(0.000360892 0 0 0.000360892 1069 1630)"><stop offset="0" stop-color="#FFFFFF"/><stop offset="0.54" stop-color="#7F7F7F" stop-opacity="0"/><stop offset="1" stop-color="#7F7F7F" stop-opacity="0"/></radialGradient><radialGradient cx="77585.5" cy="84513" r="114726" fx="77585.5" fy="84513" gradientUnits="userSpaceOnUse" spreadMethod="pad" id="fill8" gradientTransform="matrix(0.000360892 0 0 0.000360892 1053 1547)"><stop offset="0" stop-color="#FFFFFF"/><stop offset="0.54" stop-color="#7F7F7F" stop-opacity="0"/><stop offset="1" stop-color="#7F7F7F" stop-opacity="0"/></radialGradient><clipPath id="clip9"><rect x="675" y="1236" width="475" height="475"/></clipPath><clipPath id="clip10"><rect x="675" y="1236" width="475" height="475"/></clipPath><clipPath id="clip11"><rect x="675" y="1236" width="475" height="475"/></clipPath></defs><g clip-path="url(#clip0)" transform="translate(-635 -1197)"><rect x="635" y="1197" width="550" height="550" fill="url(#fill1)"/><path d="M655 1373C655 1286.84 715.441 1217 790 1217 864.558 1217 925 1286.84 925 1373 925 1459.16 864.558 1529 790 1529 715.441 1529 655 1459.16 655 1373Z" fill="url(#fill2)" fill-rule="evenodd"/><path d="M668.734 1203 1146.27 1203C1162.14 1203 1175 1222.86 1175 1247.37L1175 1357C1175 1318.82 1154.96 1287.88 1130.23 1287.88L684.767 1287.88C660.043 1287.88 640 1318.82 640 1357L640 1247.37C640 1222.86 652.865 1203 668.734 1203Z" fill="url(#fill3)" fill-rule="evenodd"/><path d="M673 1362.5C673 1342.34 688.446 1326 707.5 1326 726.554 1326 742 1342.34 742 1362.5 742 1382.66 726.554 1399 707.5 1399 688.446 1399 673 1382.66 673 1362.5Z" fill="url(#fill4)" fill-rule="evenodd"/><path d="M702 1414.5C702 1390.48 720.132 1371 742.5 1371 764.868 1371 783 1390.48 783 1414.5 783 1438.52 764.868 1458 742.5 1458 720.132 1458 702 1438.52 702 1414.5Z" fill="url(#fill5)" fill-rule="evenodd"/><path d="M924 1602.5C924 1547 971.234 1502 1029.5 1502 1087.77 1502 1135 1547 1135 1602.5 1135 1658 1087.77 1703 1029.5 1703 971.234 1703 924 1658 924 1602.5Z" fill="url(#fill6)" fill-rule="evenodd"/><path d="M1069 1658C1069 1642.54 1080.64 1630 1095 1630 1109.36 1630 1121 1642.54 1121 1658 1121 1673.46 1109.36 1686 1095 1686 1080.64 1686 1069 1673.46 1069 1658Z" fill="url(#fill7)" fill-rule="evenodd"/><path d="M1053 1577.5C1053 1560.66 1065.54 1547 1081 1547 1096.46 1547 1109 1560.66 1109 1577.5 1109 1594.34 1096.46 1608 1081 1608 1065.54 1608 1053 1594.34 1053 1577.5Z" fill="url(#fill8)" fill-rule="evenodd"/><g clip-path="url(#clip9)"><g clip-path="url(#clip10)"><g clip-path="url(#clip11)"><path d="M860.25 1321.5C852.52 1321.5 846 1328.02 846 1335.75L846 1369 865 1369 865 1340.5 960 1340.5 960 1369 979 1369 979 1335.75C979 1328.02 972.48 1321.5 964.75 1321.5L860.25 1321.5ZM746.25 1378.5C740.987 1378.5 736.75 1382.74 736.75 1388L736.75 1615.99C736.75 1621.26 740.987 1625.49 746.25 1625.49L1078.75 1625.49C1084.01 1625.49 1088.25 1621.26 1088.25 1615.99L1088.25 1388C1088.25 1382.74 1084.01 1378.5 1078.75 1378.5L746.25 1378.5ZM893.5 1435.5 931.5 1435.5 931.5 1482.99 979 1482.99 979 1520.99 931.5 1520.99 931.5 1568.49 893.5 1568.49 893.5 1520.99 846 1520.99 846 1482.99 893.5 1482.99 893.5 1435.5Z" stroke="#FFFFFF" stroke-width="6.33331" fill="#0F1113"/></g></g></g></g></svg>