<svg width="550" height="550" xmlns="http://www.w3.org/2000/svg" xmlns:xlink="http://www.w3.org/1999/xlink" overflow="hidden"><defs><clipPath id="clip0"><rect x="639" y="44" width="550" height="550"/></clipPath><radialGradient cx="762000" cy="762000" r="1.07763e+06" gradientUnits="userSpaceOnUse" spreadMethod="pad" id="fill1" gradientTransform="matrix(0.000360892 0 0 0.000360892 639 44)"><stop offset="0" stop-color="#D9D9D9"/><stop offset="0.17" stop-color="#D9D9D9"/><stop offset="0.33" stop-color="#7F7F7F"/><stop offset="1" stop-color="#0F1113"/></radialGradient><radialGradient cx="372688" cy="432262" r="570742" fx="372688" fy="432262" gradientUnits="userSpaceOnUse" spreadMethod="pad" id="fill2" gradientTransform="matrix(0.000360892 0 0 0.000360892 660 63.9999)"><stop offset="0" stop-color="#FFFFFF"/><stop offset="0.54" stop-color="#7F7F7F" stop-opacity="0"/><stop offset="1" stop-color="#7F7F7F" stop-opacity="0"/></radialGradient><linearGradient x1="912.5" y1="49.9998" x2="912.5" y2="204" gradientUnits="userSpaceOnUse" spreadMethod="reflect" id="fill3"><stop offset="0" stop-color="#F5FAFF" stop-opacity="0.231373"/><stop offset="0.32" stop-color="#FFFFFF" stop-opacity="0"/><stop offset="1" stop-color="#FFFFFF" stop-opacity="0"/></linearGradient><radialGradient cx="94211" cy="101138" r="138220" gradientUnits="userSpaceOnUse" spreadMethod="pad" id="fill4" gradientTransform="matrix(0.000360892 0 0 0.000360892 678 173)"><stop offset="0" stop-color="#FFFFFF"/><stop offset="0.54" stop-color="#7F7F7F" stop-opacity="0"/><stop offset="1" stop-color="#7F7F7F" stop-opacity="0"/></radialGradient><radialGradient cx="110836" cy="120534" r="163747" fx="110836" fy="120534" gradientUnits="userSpaceOnUse" spreadMethod="pad" id="fill5" gradientTransform="matrix(0.000360892 0 0 0.000360892 707 218)"><stop offset="0" stop-color="#FFFFFF"/><stop offset="0.54" stop-color="#7F7F7F" stop-opacity="0"/><stop offset="1" stop-color="#7F7F7F" stop-opacity="0"/></radialGradient><radialGradient cx="292330" cy="278476" r="403740" gradientUnits="userSpaceOnUse" spreadMethod="pad" id="fill6" gradientTransform="matrix(0.000360892 0 0 0.000360892 928 349)"><stop offset="0" stop-color="#FFFFFF"/><stop offset="0.54" stop-color="#7F7F7F" stop-opacity="0"/><stop offset="1" stop-color="#7F7F7F" stop-opacity="0"/></radialGradient><radialGradient cx="70658.5" cy="77585.5" r="104939" fx="70658.5" fy="77585.5" gradientUnits="userSpaceOnUse" spreadMethod="pad" id="fill7" gradientTransform="matrix(0.000360892 0 0 0.000360892 1074 477)"><stop offset="0" stop-color="#FFFFFF"/><stop offset="0.54" stop-color="#7F7F7F" stop-opacity="0"/><stop offset="1" stop-color="#7F7F7F" stop-opacity="0"/></radialGradient><radialGradient cx="77585.5" cy="84513" r="114726" fx="77585.5" fy="84513" gradientUnits="userSpaceOnUse" spreadMethod="pad" id="fill8" gradientTransform="matrix(0.000360892 0 0 0.000360892 1057 394)"><stop offset="0" stop-color="#FFFFFF"/><stop offset="0.54" stop-color="#7F7F7F" stop-opacity="0"/><stop offset="1" stop-color="#7F7F7F" stop-opacity="0"/></radialGradient><clipPath id="clip9"><rect x="675" y="60" width="401" height="402"/></clipPath><clipPath id="clip10"><rect x="675" y="60" width="401" height="402"/></clipPath><clipPath id="clip11"><rect x="675" y="60" width="401" height="402"/></clipPath><clipPath id="clip12"><rect x="838" y="236" width="343" height="343"/></clipPath><clipPath id="clip13"><rect x="838" y="236" width="343" height="343"/></clipPath><clipPath id="clip14"><rect x="838" y="236" width="343" height="343"/></clipPath></defs><g clip-path="url(#clip0)" transform="translate(-639 -44)"><rect x="639" y="44" width="550" height="550" fill="url(#fill1)"/><path d="M660 220C660 133.844 720.218 63.9999 794.5 63.9999 868.782 63.9999 929 133.844 929 220 929 306.156 868.782 376 794.5 376 720.218 376 660 306.156 660 220Z" fill="url(#fill2)" fill-rule="evenodd"/><path d="M673.734 49.9998 1151.27 49.9998C1167.14 49.9998 1180 69.8638 1180 94.3675L1180 204C1180 165.824 1159.96 134.876 1135.23 134.876L689.767 134.876C665.043 134.876 645 165.824 645 204L645 94.3675C645 69.8638 657.864 49.9998 673.734 49.9998Z" fill="url(#fill3)" fill-rule="evenodd"/><path d="M678 209.5C678 189.342 693.222 173 712 173 730.778 173 746 189.342 746 209.5 746 229.658 730.778 246 712 246 693.222 246 678 229.658 678 209.5Z" fill="url(#fill4)" fill-rule="evenodd"/><path d="M707 261.5C707 237.476 724.909 218 747 218 769.091 218 787 237.476 787 261.5 787 285.524 769.091 305 747 305 724.909 305 707 285.524 707 261.5Z" fill="url(#fill5)" fill-rule="evenodd"/><path d="M928 449.5C928 393.995 975.234 349 1033.5 349 1091.77 349 1139 393.995 1139 449.5 1139 505.005 1091.77 550 1033.5 550 975.234 550 928 505.005 928 449.5Z" fill="url(#fill6)" fill-rule="evenodd"/><path d="M1074 505C1074 489.536 1085.42 477 1099.5 477 1113.58 477 1125 489.536 1125 505 1125 520.464 1113.58 533 1099.5 533 1085.42 533 1074 520.464 1074 505Z" fill="url(#fill7)" fill-rule="evenodd"/><path d="M1057 424.5C1057 407.655 1069.54 394 1085 394 1100.46 394 1113 407.655 1113 424.5 1113 441.345 1100.46 455 1085 455 1069.54 455 1057 441.345 1057 424.5Z" fill="url(#fill8)" fill-rule="evenodd"/><g clip-path="url(#clip9)"><g clip-path="url(#clip10)"><g clip-path="url(#clip11)"><path d="M910.755 313.296C908.013 313.285 905.38 314.365 903.437 316.298 901.494 318.231 900.399 320.858 900.395 323.599 900.392 326.34 901.479 328.97 903.417 330.909 905.356 332.847 907.986 333.935 910.727 333.931 913.468 333.927 916.095 332.833 918.028 330.889 919.962 328.945 921.041 326.313 921.031 323.572 921.02 320.85 919.934 318.242 918.009 316.318 916.085 314.392 913.477 313.306 910.755 313.296Z" stroke="#FFFFFF" stroke-width="4.60919" fill="#0F1113"/><path d="M963.804 313.296C961.062 313.285 958.429 314.365 956.486 316.298 954.542 318.231 953.448 320.858 953.444 323.599 953.441 326.34 954.528 328.97 956.466 330.909 958.405 332.847 961.035 333.935 963.776 333.931 966.517 333.927 969.143 332.833 971.077 330.889 973.01 328.945 974.09 326.313 974.079 323.572 974.069 320.85 972.983 318.242 971.058 316.318 969.133 314.392 966.526 313.306 963.804 313.296Z" stroke="#FFFFFF" stroke-width="4.60919" fill="#0F1113"/><path d="M1018.46 265.844 796.363 265.844C787.421 265.875 778.61 267.994 770.632 272.034 762.655 276.074 755.731 281.921 750.415 289.11 753.933 296.48 755.76 304.544 755.761 312.711L755.761 334.181C755.682 342.336 753.784 350.37 750.206 357.698 755.544 364.916 762.501 370.78 770.517 374.822 778.533 378.863 787.386 380.966 796.363 380.965L1018.46 380.965C1033.72 380.965 1048.36 374.9 1059.16 364.106 1069.95 353.311 1076.02 338.67 1076.02 323.405 1076.02 308.139 1069.95 293.498 1059.16 282.703 1048.36 271.909 1033.72 265.845 1018.46 265.845ZM910.771 342.074C905.818 342.085 901.061 340.127 897.551 336.63 894.042 333.134 892.066 328.385 892.058 323.43 892.05 318.476 894.012 313.722 897.512 310.215 901.011 306.707 905.761 304.735 910.715 304.731 915.67 304.727 920.423 306.693 923.928 310.195 927.431 313.697 929.401 318.448 929.401 323.403 929.401 328.347 927.439 333.091 923.948 336.591 920.454 340.092 915.716 342.064 910.771 342.074ZM963.82 342.074C958.867 342.085 954.11 340.127 950.6 336.63 947.091 333.134 945.115 328.385 945.107 323.43 945.099 318.476 947.061 313.722 950.56 310.215 954.06 306.707 958.81 304.735 963.764 304.731 968.719 304.727 973.472 306.693 976.977 310.195 980.48 313.697 982.45 318.448 982.45 323.403 982.45 328.347 980.488 333.091 976.996 336.591 973.503 340.092 968.765 342.064 963.82 342.074ZM1016.87 342.074C1011.92 342.085 1007.16 340.127 1003.65 336.63 1000.14 333.134 998.164 328.385 998.156 323.43 998.148 318.476 1000.11 313.722 1003.61 310.215 1007.11 306.707 1011.86 304.735 1016.81 304.731 1021.77 304.727 1026.52 306.693 1030.03 310.195 1033.53 313.697 1035.5 318.448 1035.5 323.403 1035.49 328.345 1033.52 333.08 1030.03 336.579 1026.54 340.077 1021.81 342.052 1016.87 342.074Z" stroke="#FFFFFF" stroke-width="4.60919" fill="#0F1113"/><path d="M1016.85 313.296C1014.11 313.285 1011.48 314.365 1009.53 316.298 1007.59 318.231 1006.5 320.858 1006.49 323.599 1006.49 326.34 1007.58 328.97 1009.51 330.909 1011.45 332.847 1014.09 333.935 1016.83 333.931 1019.57 333.927 1022.19 332.833 1024.13 330.889 1026.06 328.945 1027.14 326.313 1027.13 323.572 1027.12 320.85 1026.03 318.242 1024.11 316.318 1022.18 314.392 1019.58 313.306 1016.85 313.296Z" stroke="#FFFFFF" stroke-width="4.60919" fill="#0F1113"/><path d="M700.271 265.844 679.177 265.844C676.871 265.844 675 267.715 675 270.021L675 285.435C675 291.439 677.385 297.197 681.631 301.443 685.878 305.689 691.636 308.074 697.64 308.074 701.436 308.085 705.074 309.599 707.759 312.283 710.443 314.968 711.957 318.606 711.967 322.402L711.967 324.407C711.957 328.203 710.443 331.841 707.759 334.526 705.074 337.209 701.436 338.724 697.64 338.734 691.632 338.745 685.874 341.14 681.629 345.393 677.384 349.644 675 355.407 675 361.416L675 376.787C675 377.896 675.44 378.958 676.223 379.742 677.006 380.524 678.069 380.965 679.177 380.965L700.271 380.965C716.728 380.978 731.985 372.351 740.455 358.241 744.844 350.982 747.17 342.663 747.18 334.181L747.18 312.711C747.184 304.2 744.859 295.85 740.455 288.567 731.966 274.476 716.721 265.856 700.271 265.844Z" stroke="#FFFFFF" stroke-width="4.60919" fill="#0F1113"/><path d="M959.042 250.265C959.042 244.4 956.716 238.776 952.573 234.626 948.43 230.475 942.81 228.137 936.945 228.127L920.654 228.127 920.654 168.939C920.676 168.587 920.969 168.311 921.323 168.312L939.618 168.312C940.726 168.312 941.789 167.873 942.572 167.089 943.355 166.306 943.795 165.243 943.795 164.135L943.795 146.216C943.795 145.108 943.356 144.045 942.572 143.262 941.789 142.479 940.726 142.039 939.618 142.039L921.197 142.039C914.058 142.039 907.212 144.871 902.161 149.915 897.11 154.959 894.266 161.8 894.255 168.939L894.255 228.127 877.964 228.127C872.1 228.137 866.48 230.475 862.337 234.626 858.194 238.776 855.868 244.4 855.868 250.265L855.868 257.492 959.042 257.492Z" stroke="#FFFFFF" stroke-width="4.60919" fill="#0F1113"/></g></g></g><g clip-path="url(#clip12)"><g clip-path="url(#clip13)"><g clip-path="url(#clip14)"><path d="M311.135 93.9218 273.458 115.676 243.686 98.3091 243.533 63.8411 281.213 42.0865C283.474 40.7795 283.5 37.5143 281.267 36.1628 259.174 22.8214 230.665 21.6378 206.802 35.6874 179.251 51.9079 166.156 84.5079 172.97 114.615L36.9166 250.669C21.893 265.692 21.893 290.053 36.9166 305.081 51.9404 320.103 76.3008 320.103 91.3288 305.081L227.308 169.102C244.616 173.109 263.423 170.836 280.025 161.25 303.773 147.539 316.8 122.447 316.296 96.8396 316.242 94.2301 313.397 92.6159 311.135 93.9218Z" stroke="#FFFFFF" stroke-width="4.42719" fill="#0F1113" transform="matrix(1 0 0 1.00292 838 236)"/></g></g></g></g></svg>