<svg width="550" height="550" xmlns="http://www.w3.org/2000/svg" xmlns:xlink="http://www.w3.org/1999/xlink" overflow="hidden"><defs><clipPath id="clip0"><rect x="2467" y="44" width="550" height="550"/></clipPath><radialGradient cx="762000" cy="762000" r="1.07763e+06" gradientUnits="userSpaceOnUse" spreadMethod="pad" id="fill1" gradientTransform="matrix(0.000360892 0 0 0.000360892 2467 44)"><stop offset="0" stop-color="#D9D9D9"/><stop offset="0.17" stop-color="#D9D9D9"/><stop offset="0.33" stop-color="#7F7F7F"/><stop offset="1" stop-color="#0F1113"/></radialGradient><radialGradient cx="372687" cy="432262" r="570742" fx="372687" fy="432262" gradientUnits="userSpaceOnUse" spreadMethod="pad" id="fill2" gradientTransform="matrix(0.000360892 0 0 0.000360892 2488 63.9999)"><stop offset="0" stop-color="#FFFFFF"/><stop offset="0.54" stop-color="#7F7F7F" stop-opacity="0"/><stop offset="1" stop-color="#7F7F7F" stop-opacity="0"/></radialGradient><linearGradient x1="2740.5" y1="49.9998" x2="2740.5" y2="204" gradientUnits="userSpaceOnUse" spreadMethod="reflect" id="fill3"><stop offset="0" stop-color="#F5FAFF" stop-opacity="0.231373"/><stop offset="0.32" stop-color="#FFFFFF" stop-opacity="0"/><stop offset="1" stop-color="#FFFFFF" stop-opacity="0"/></linearGradient><radialGradient cx="94211" cy="101138" r="138220" gradientUnits="userSpaceOnUse" spreadMethod="pad" id="fill4" gradientTransform="matrix(0.000360892 0 0 0.000360892 2506 173)"><stop offset="0" stop-color="#FFFFFF"/><stop offset="0.54" stop-color="#7F7F7F" stop-opacity="0"/><stop offset="1" stop-color="#7F7F7F" stop-opacity="0"/></radialGradient><radialGradient cx="110836" cy="120534" r="163747" fx="110836" fy="120534" gradientUnits="userSpaceOnUse" spreadMethod="pad" id="fill5" gradientTransform="matrix(0.000360892 0 0 0.000360892 2535 218)"><stop offset="0" stop-color="#FFFFFF"/><stop offset="0.54" stop-color="#7F7F7F" stop-opacity="0"/><stop offset="1" stop-color="#7F7F7F" stop-opacity="0"/></radialGradient><radialGradient cx="292331" cy="278477" r="403741" fx="292331" fy="278476" gradientUnits="userSpaceOnUse" spreadMethod="pad" id="fill6" gradientTransform="matrix(0.000360892 0 0 0.000360892 2756 349)"><stop offset="0" stop-color="#FFFFFF"/><stop offset="0.54" stop-color="#7F7F7F" stop-opacity="0"/><stop offset="1" stop-color="#7F7F7F" stop-opacity="0"/></radialGradient><radialGradient cx="70658.5" cy="77585.5" r="104939" fx="70658.5" fy="77585.5" gradientUnits="userSpaceOnUse" spreadMethod="pad" id="fill7" gradientTransform="matrix(0.000360892 0 0 0.000360892 2902 477)"><stop offset="0" stop-color="#FFFFFF"/><stop offset="0.54" stop-color="#7F7F7F" stop-opacity="0"/><stop offset="1" stop-color="#7F7F7F" stop-opacity="0"/></radialGradient><radialGradient cx="77585.5" cy="84513" r="114726" fx="77585.5" fy="84513" gradientUnits="userSpaceOnUse" spreadMethod="pad" id="fill8" gradientTransform="matrix(0.000360892 0 0 0.000360892 2885 394)"><stop offset="0" stop-color="#FFFFFF"/><stop offset="0.54" stop-color="#7F7F7F" stop-opacity="0"/><stop offset="1" stop-color="#7F7F7F" stop-opacity="0"/></radialGradient><clipPath id="clip9"><rect x="2515" y="104" width="452" height="452"/></clipPath><clipPath id="clip10"><rect x="2515" y="104" width="452" height="452"/></clipPath><clipPath id="clip11"><rect x="2515" y="104" width="452" height="452"/></clipPath></defs><g clip-path="url(#clip0)" transform="translate(-2467 -44)"><rect x="2467" y="44" width="550" height="550" fill="url(#fill1)"/><path d="M2488 220C2488 133.844 2548.22 63.9999 2622.5 63.9999 2696.78 63.9999 2757 133.844 2757 220 2757 306.156 2696.78 376 2622.5 376 2548.22 376 2488 306.156 2488 220Z" fill="url(#fill2)" fill-rule="evenodd"/><path d="M2501.73 49.9998 2979.27 49.9998C2995.14 49.9998 3008 69.8638 3008 94.3675L3008 204C3008 165.824 2987.96 134.876 2963.23 134.876L2517.77 134.876C2493.04 134.876 2473 165.824 2473 204L2473 94.3675C2473 69.8638 2485.86 49.9998 2501.73 49.9998Z" fill="url(#fill3)" fill-rule="evenodd"/><path d="M2506 209.5C2506 189.342 2521.22 173 2540 173 2558.78 173 2574 189.342 2574 209.5 2574 229.658 2558.78 246 2540 246 2521.22 246 2506 229.658 2506 209.5Z" fill="url(#fill4)" fill-rule="evenodd"/><path d="M2535 261.5C2535 237.476 2552.91 218 2575 218 2597.09 218 2615 237.476 2615 261.5 2615 285.524 2597.09 305 2575 305 2552.91 305 2535 285.524 2535 261.5Z" fill="url(#fill5)" fill-rule="evenodd"/><path d="M2756 449.5C2756 393.995 2803.23 349 2861.5 349 2919.77 349 2967 393.995 2967 449.5 2967 505.005 2919.77 550 2861.5 550 2803.23 550 2756 505.005 2756 449.5Z" fill="url(#fill6)" fill-rule="evenodd"/><path d="M2902 505C2902 489.536 2913.42 477 2927.5 477 2941.58 477 2953 489.536 2953 505 2953 520.464 2941.58 533 2927.5 533 2913.42 533 2902 520.464 2902 505Z" fill="url(#fill7)" fill-rule="evenodd"/><path d="M2885 424.5C2885 407.655 2897.54 394 2913 394 2928.46 394 2941 407.655 2941 424.5 2941 441.345 2928.46 455 2913 455 2897.54 455 2885 441.345 2885 424.5Z" fill="url(#fill8)" fill-rule="evenodd"/><g clip-path="url(#clip9)"><g clip-path="url(#clip10)"><g clip-path="url(#clip11)"><path d="M233.017 195.433C233.017 199.585 229.651 202.95 225.5 202.95 221.349 202.95 217.983 199.585 217.983 195.433 217.983 191.282 221.349 187.917 225.5 187.917 229.651 187.917 233.017 191.282 233.017 195.433Z" stroke="#FFFFFF" stroke-width="5.5679" fill="#0F1113" transform="matrix(1 0 0 1.00222 2516 104)"/><path d="M255.034 328.531 313.498 270.064C316.433 267.13 316.434 262.373 313.501 259.438 313.499 259.437 313.498 259.436 313.498 259.436L313.494 259.435C310.565 256.502 305.813 256.499 302.88 259.427 302.877 259.43 302.875 259.432 302.872 259.435L244.401 317.902C241.488 320.86 241.524 325.62 244.481 328.533 247.408 331.417 252.108 331.416 255.034 328.531Z" stroke="#FFFFFF" stroke-width="5.5679" fill="#0F1113" transform="matrix(1 0 0 1.00222 2516 104)"/><path d="M225.5 233.017C246.257 233.016 263.083 216.188 263.082 195.432 263.08 177.574 250.514 162.182 233.017 158.61L233.017 174.269C244.758 178.419 250.912 191.304 246.76 203.045 242.609 214.787 229.725 220.94 217.983 216.789 206.242 212.637 200.088 199.754 204.24 188.012 206.51 181.59 211.562 176.539 217.983 174.269L217.983 158.61C197.646 162.762 184.526 182.614 188.678 202.952 192.251 220.449 207.642 233.016 225.5 233.017Z" stroke="#FFFFFF" stroke-width="5.5679" fill="#0F1113" transform="matrix(1 0 0 1.00222 2516 104)"/><path d="M105.233 375.833 345.767 375.833 345.767 45.1 105.233 45.1ZM324.127 248.806 324.131 248.806C332.936 257.614 332.933 271.892 324.126 280.698 324.125 280.699 324.124 280.699 324.123 280.701L265.663 339.16C256.858 347.967 242.581 347.968 233.774 339.162 224.968 330.357 224.967 316.08 233.773 307.273L292.24 248.806C301.164 240.291 315.203 240.291 324.127 248.806ZM217.983 143.417 217.983 142.817C217.983 138.665 221.349 135.3 225.5 135.3 229.651 135.3 233.017 138.665 233.017 142.817L233.017 143.417C261.778 147.568 281.728 174.249 277.577 203.01 273.426 231.772 246.744 251.722 217.983 247.57 189.222 243.42 169.272 216.739 173.423 187.977 176.756 164.888 194.894 146.749 217.983 143.417ZM122.469 77.3691 137.502 62.3357C140.464 59.4273 145.223 59.4704 148.131 62.432 151.002 65.3557 151.002 70.0406 148.131 72.9643L133.098 87.9976C130.136 90.9058 125.377 90.863 122.469 87.9014 119.598 84.9774 119.598 80.293 122.469 77.3691ZM122.469 114.952 175.086 62.3357C178.047 59.4273 182.806 59.4704 185.714 62.432 188.586 65.3557 188.586 70.0406 185.714 72.9643L133.098 125.581C130.136 128.489 125.377 128.446 122.469 125.485 119.598 122.561 119.598 117.876 122.469 114.952Z" stroke="#FFFFFF" stroke-width="5.5679" fill="#0F1113" transform="matrix(1 0 0 1.00222 2516 104)"/><path d="M368.317 0 82.6833 0C70.2349 0.013588 60.1469 10.1016 60.1333 22.55L60.1333 398.383C60.1469 410.832 70.2349 420.92 82.6833 420.933L82.6833 428.45C82.6969 440.898 92.785 450.986 105.233 451L112.75 451C125.198 450.986 135.286 440.898 135.3 428.45L135.3 420.933 323.217 420.933 323.217 428.45C323.23 440.898 333.318 450.986 345.767 451L353.283 451C365.732 450.986 375.82 440.898 375.833 428.45L375.833 419.548C384.817 416.384 390.837 407.908 390.867 398.383L390.867 22.55C390.853 10.1016 380.765 0.013588 368.317 0ZM120.267 428.45C120.262 432.6 116.9 435.962 112.75 435.967L105.233 435.967C101.083 435.962 97.7212 432.6 97.7167 428.45L97.7167 420.933 120.267 420.933ZM360.8 428.45C360.796 432.6 357.433 435.962 353.283 435.967L345.767 435.967C341.617 435.962 338.255 432.6 338.25 428.45L338.25 420.933 360.8 420.933ZM360.8 383.35C360.801 387.5 357.438 390.866 353.287 390.867 353.286 390.867 353.285 390.867 353.283 390.867L97.7167 390.867C93.5667 390.867 90.2008 387.504 90.2 383.354 90.2 383.352 90.2 383.352 90.2 383.35L90.2 37.5833C90.1992 33.4331 93.5622 30.0677 97.7129 30.0667 97.7144 30.0667 97.7152 30.0667 97.7167 30.0667L353.283 30.0667C357.433 30.0656 360.799 33.4292 360.8 37.5794 360.8 37.5807 360.8 37.5821 360.8 37.5833Z" stroke="#FFFFFF" stroke-width="5.5679" fill="#0F1113" transform="matrix(1 0 0 1.00222 2516 104)"/></g></g></g></g></svg>