<svg width="550" height="550" xmlns="http://www.w3.org/2000/svg" xmlns:xlink="http://www.w3.org/1999/xlink" overflow="hidden"><defs><clipPath id="clip0"><rect x="36" y="625" width="550" height="550"/></clipPath><radialGradient cx="762000" cy="762000" r="1.07763e+06" gradientUnits="userSpaceOnUse" spreadMethod="pad" id="fill1" gradientTransform="matrix(0.000360892 0 0 0.000360892 36.0001 625)"><stop offset="0" stop-color="#D9D9D9"/><stop offset="0.17" stop-color="#D9D9D9"/><stop offset="0.33" stop-color="#7F7F7F"/><stop offset="1" stop-color="#0F1113"/></radialGradient><radialGradient cx="374072" cy="432262" r="571647" fx="374072" fy="432262" gradientUnits="userSpaceOnUse" spreadMethod="pad" id="fill2" gradientTransform="matrix(0.000360892 0 0 0.000360892 56 645)"><stop offset="0" stop-color="#FFFFFF"/><stop offset="0.54" stop-color="#7F7F7F" stop-opacity="0"/><stop offset="1" stop-color="#7F7F7F" stop-opacity="0"/></radialGradient><linearGradient x1="309" y1="631" x2="309" y2="785" gradientUnits="userSpaceOnUse" spreadMethod="reflect" id="fill3"><stop offset="0" stop-color="#F5FAFF" stop-opacity="0.231373"/><stop offset="0.32" stop-color="#FFFFFF" stop-opacity="0"/><stop offset="1" stop-color="#FFFFFF" stop-opacity="0"/></linearGradient><radialGradient cx="94211" cy="102524" r="139237" fx="94211" fy="102524" gradientUnits="userSpaceOnUse" spreadMethod="pad" id="fill4" gradientTransform="matrix(0.000360892 0 0 0.000360892 74.9999 754)"><stop offset="0" stop-color="#FFFFFF"/><stop offset="0.54" stop-color="#7F7F7F" stop-opacity="0"/><stop offset="1" stop-color="#7F7F7F" stop-opacity="0"/></radialGradient><radialGradient cx="110836" cy="120534" r="163747" fx="110836" fy="120534" gradientUnits="userSpaceOnUse" spreadMethod="pad" id="fill5" gradientTransform="matrix(0.000360892 0 0 0.000360892 104 799)"><stop offset="0" stop-color="#FFFFFF"/><stop offset="0.54" stop-color="#7F7F7F" stop-opacity="0"/><stop offset="1" stop-color="#7F7F7F" stop-opacity="0"/></radialGradient><radialGradient cx="292331" cy="278477" r="403741" fx="292331" fy="278476" gradientUnits="userSpaceOnUse" spreadMethod="pad" id="fill6" gradientTransform="matrix(0.000360892 0 0 0.000360892 325 930)"><stop offset="0" stop-color="#FFFFFF"/><stop offset="0.54" stop-color="#7F7F7F" stop-opacity="0"/><stop offset="1" stop-color="#7F7F7F" stop-opacity="0"/></radialGradient><radialGradient cx="72044" cy="77585.5" r="105877" fx="72044" fy="77585.5" gradientUnits="userSpaceOnUse" spreadMethod="pad" id="fill7" gradientTransform="matrix(0.000360892 0 0 0.000360892 470 1058)"><stop offset="0" stop-color="#FFFFFF"/><stop offset="0.54" stop-color="#7F7F7F" stop-opacity="0"/><stop offset="1" stop-color="#7F7F7F" stop-opacity="0"/></radialGradient><radialGradient cx="77585.5" cy="84513" r="114726" fx="77585.5" fy="84513" gradientUnits="userSpaceOnUse" spreadMethod="pad" id="fill8" gradientTransform="matrix(0.000360892 0 0 0.000360892 454 975)"><stop offset="0" stop-color="#FFFFFF"/><stop offset="0.54" stop-color="#7F7F7F" stop-opacity="0"/><stop offset="1" stop-color="#7F7F7F" stop-opacity="0"/></radialGradient><clipPath id="clip9"><rect x="60" y="644" width="386" height="386"/></clipPath><clipPath id="clip10"><rect x="60" y="644" width="386" height="386"/></clipPath><clipPath id="clip11"><rect x="60" y="644" width="386" height="386"/></clipPath><clipPath id="clip12"><rect x="234" y="818" width="344" height="343"/></clipPath><clipPath id="clip13"><rect x="234" y="818" width="344" height="343"/></clipPath><clipPath id="clip14"><rect x="234" y="818" width="344" height="343"/></clipPath></defs><g clip-path="url(#clip0)" transform="translate(-36 -625)"><rect x="36.0001" y="625" width="550" height="550" fill="url(#fill1)"/><path d="M56 801C56 714.844 116.442 645 191 645 265.558 645 326 714.844 326 801 326 887.156 265.558 957 191 957 116.442 957 56 887.156 56 801Z" fill="url(#fill2)" fill-rule="evenodd"/><path d="M69.7873 631 548.213 631C564.112 631 577 650.864 577 675.368L577 785C577 746.824 556.92 715.876 532.15 715.876L85.8503 715.876C61.0801 715.876 40.9999 746.824 40.9999 785L40.9999 675.368C40.9999 650.864 53.8884 631 69.7873 631Z" fill="url(#fill3)" fill-rule="evenodd"/><path d="M74.9999 791C74.9999 770.565 90.2223 754 109 754 127.778 754 143 770.565 143 791 143 811.435 127.778 828 109 828 90.2223 828 74.9999 811.435 74.9999 791Z" fill="url(#fill4)" fill-rule="evenodd"/><path d="M104 842.5C104 818.475 121.909 799 144 799 166.091 799 184 818.475 184 842.5 184 866.524 166.091 886 144 886 121.909 886 104 866.524 104 842.5Z" fill="url(#fill5)" fill-rule="evenodd"/><path d="M325 1030.5C325 974.995 372.234 930 430.5 930 488.766 930 536 974.995 536 1030.5 536 1086 488.766 1131 430.5 1131 372.234 1131 325 1086 325 1030.5Z" fill="url(#fill6)" fill-rule="evenodd"/><path d="M470 1086C470 1070.54 481.641 1058 496 1058 510.359 1058 522 1070.54 522 1086 522 1101.46 510.359 1114 496 1114 481.641 1114 470 1101.46 470 1086Z" fill="url(#fill7)" fill-rule="evenodd"/><path d="M454 1005.5C454 988.655 466.536 975 482 975 497.464 975 510 988.655 510 1005.5 510 1022.34 497.464 1036 482 1036 466.536 1036 454 1022.34 454 1005.5Z" fill="url(#fill8)" fill-rule="evenodd"/><g clip-path="url(#clip9)"><g clip-path="url(#clip10)"><g clip-path="url(#clip11)"><path d="M61.2682 885.151 88.1189 885.151 88.1189 912.025 61.2682 912.025Z" stroke="#FFFFFF" stroke-width="5.6837" fill="#0F1113"/><path d="M105.299 885.151 132.149 885.151 132.149 912.025 105.299 912.025Z" stroke="#FFFFFF" stroke-width="5.6837" fill="#0F1113"/><path d="M150.399 885.151 177.257 885.151 177.257 912.025 150.399 912.025Z" stroke="#FFFFFF" stroke-width="5.6837" fill="#0F1113"/><path d="M194.437 885.151 221.28 885.151 221.28 912.025 194.437 912.025Z" stroke="#FFFFFF" stroke-width="5.6837" fill="#0F1113"/><path d="M239.529 885.151 266.38 885.151 266.38 912.025 239.529 912.025Z" stroke="#FFFFFF" stroke-width="5.6837" fill="#0F1113"/><path d="M283.568 885.151 310.418 885.151 310.418 912.025 283.568 912.025Z" stroke="#FFFFFF" stroke-width="5.6837" fill="#0F1113"/><path d="M328.66 885.151 355.526 885.151 355.526 912.025 328.66 912.025Z" stroke="#FFFFFF" stroke-width="5.6837" fill="#0F1113"/><path d="M372.713 885.151 399.564 885.151 399.564 912.025 372.713 912.025Z" stroke="#FFFFFF" stroke-width="5.6837" fill="#0F1113"/><path d="M61.2682 929.694 88.1189 929.694 88.1189 956.537 61.2682 956.537Z" stroke="#FFFFFF" stroke-width="5.6837" fill="#0F1113"/><path d="M105.299 929.694 132.149 929.694 132.149 956.537 105.299 956.537Z" stroke="#FFFFFF" stroke-width="5.6837" fill="#0F1113"/><path d="M150.399 929.694 177.257 929.694 177.257 956.537 150.399 956.537Z" stroke="#FFFFFF" stroke-width="5.6837" fill="#0F1113"/><path d="M194.437 929.694 221.28 929.694 221.28 956.537 194.437 956.537Z" stroke="#FFFFFF" stroke-width="5.6837" fill="#0F1113"/><path d="M239.529 929.694 266.38 929.694 266.38 956.537 239.529 956.537Z" stroke="#FFFFFF" stroke-width="5.6837" fill="#0F1113"/><path d="M283.568 929.694 310.418 929.694 310.418 956.537 283.568 956.537Z" stroke="#FFFFFF" stroke-width="5.6837" fill="#0F1113"/><path d="M328.66 929.694 355.526 929.694 355.526 956.537 328.66 956.537Z" stroke="#FFFFFF" stroke-width="5.6837" fill="#0F1113"/><path d="M372.713 929.694 399.564 929.694 399.564 956.537 372.713 956.537Z" stroke="#FFFFFF" stroke-width="5.6837" fill="#0F1113"/><path d="M61.2682 974.648 88.1189 974.648 88.1189 1001.49 61.2682 1001.49Z" stroke="#FFFFFF" stroke-width="5.6837" fill="#0F1113"/><path d="M105.299 974.648 132.149 974.648 132.149 1001.49 105.299 1001.49Z" stroke="#FFFFFF" stroke-width="5.6837" fill="#0F1113"/><path d="M150.399 974.648 355.526 974.648 355.526 1001.49 150.399 1001.49Z" stroke="#FFFFFF" stroke-width="5.6837" fill="#0F1113"/><path d="M372.713 974.648 399.564 974.648 399.564 1001.49 372.713 1001.49Z" stroke="#FFFFFF" stroke-width="5.6837" fill="#0F1113"/><path d="M418.165 885.151 445.008 885.151 445.008 912.025 418.165 912.025Z" stroke="#FFFFFF" stroke-width="5.6837" fill="#0F1113"/><path d="M418.165 929.694 445.008 929.694 445.008 956.537 418.165 956.537Z" stroke="#FFFFFF" stroke-width="5.6837" fill="#0F1113"/><path d="M418.165 974.648 445.008 974.648 445.008 1001.49 418.165 1001.49Z" stroke="#FFFFFF" stroke-width="5.6837" fill="#0F1113"/><path d="M105.833 675.8 400.091 675.8 400.091 859.592 105.833 859.592Z" stroke="#FFFFFF" stroke-width="5.6837" fill="#0F1113"/></g></g></g><g clip-path="url(#clip12)"><g clip-path="url(#clip13)"><g clip-path="url(#clip14)"><path d="M311.135 93.9218 273.458 115.676 243.686 98.3091 243.533 63.8411 281.213 42.0865C283.474 40.7795 283.5 37.5143 281.267 36.1628 259.174 22.8214 230.665 21.6378 206.802 35.6874 179.251 51.9079 166.156 84.5079 172.97 114.615L36.9166 250.669C21.893 265.692 21.893 290.053 36.9166 305.081 51.9404 320.103 76.3008 320.103 91.3288 305.081L227.308 169.102C244.616 173.109 263.423 170.836 280.025 161.25 303.773 147.539 316.8 122.447 316.296 96.8396 316.242 94.2301 313.397 92.6159 311.135 93.9218Z" stroke="#FFFFFF" stroke-width="4.42719" fill="#0F1113" transform="matrix(1.00292 0 0 1 234 818)"/></g></g></g><path d="M74.9731 943.517 124.763 943.517 199.207 1034.4 199.207 1070.81 78.3569 1070.81 78.3569 1032.14 147.483 1032.14ZM247.583 830.724 287.867 830.724 287.867 914.996 255.64 987.506 255.64 1070.81 215.357 1070.81 215.357 986.539 247.583 914.03Z" stroke="#FFFFFF" stroke-width="5" stroke-linejoin="round" stroke-miterlimit="10" fill="#0F1113" fill-rule="evenodd"/><text fill="#000000" fill-opacity="0" font-family="Arial,Arial_MSFontService,sans-serif" font-size="240.088" x="74.9731" y="1040.8">:/</text><path d="M336.313 830.724 376.596 830.724 376.596 914.996 344.369 987.506 344.369 1070.81 304.086 1070.81 304.086 986.539 336.313 914.03Z" stroke="#FFFFFF" stroke-width="5" stroke-linejoin="round" stroke-miterlimit="10" fill="#0F1113" fill-rule="evenodd"/><text fill="#000000" fill-opacity="0" font-family="Arial,Arial_MSFontService,sans-serif" font-size="240.088" x="304.086" y="1040.8">/</text></g></svg>