<svg width="550" height="550" xmlns="http://www.w3.org/2000/svg" xmlns:xlink="http://www.w3.org/1999/xlink" overflow="hidden"><defs><clipPath id="clip0"><rect x="639" y="44" width="550" height="550"/></clipPath><radialGradient cx="762000" cy="762000" r="1.07763e+06" gradientUnits="userSpaceOnUse" spreadMethod="pad" id="fill1" gradientTransform="matrix(0.000360892 0 0 0.000360892 639 44)"><stop offset="0" stop-color="#D9D9D9"/><stop offset="0.17" stop-color="#D9D9D9"/><stop offset="0.33" stop-color="#7F7F7F"/><stop offset="1" stop-color="#0F1113"/></radialGradient><radialGradient cx="372688" cy="432262" r="570742" fx="372688" fy="432262" gradientUnits="userSpaceOnUse" spreadMethod="pad" id="fill2" gradientTransform="matrix(0.000360892 0 0 0.000360892 660 63.9999)"><stop offset="0" stop-color="#FFFFFF"/><stop offset="0.54" stop-color="#7F7F7F" stop-opacity="0"/><stop offset="1" stop-color="#7F7F7F" stop-opacity="0"/></radialGradient><linearGradient x1="912.5" y1="49.9998" x2="912.5" y2="204" gradientUnits="userSpaceOnUse" spreadMethod="reflect" id="fill3"><stop offset="0" stop-color="#F5FAFF" stop-opacity="0.231373"/><stop offset="0.32" stop-color="#FFFFFF" stop-opacity="0"/><stop offset="1" stop-color="#FFFFFF" stop-opacity="0"/></linearGradient><radialGradient cx="94211" cy="101138" r="138220" gradientUnits="userSpaceOnUse" spreadMethod="pad" id="fill4" gradientTransform="matrix(0.000360892 0 0 0.000360892 678 173)"><stop offset="0" stop-color="#FFFFFF"/><stop offset="0.54" stop-color="#7F7F7F" stop-opacity="0"/><stop offset="1" stop-color="#7F7F7F" stop-opacity="0"/></radialGradient><radialGradient cx="110836" cy="120534" r="163747" fx="110836" fy="120534" gradientUnits="userSpaceOnUse" spreadMethod="pad" id="fill5" gradientTransform="matrix(0.000360892 0 0 0.000360892 707 218)"><stop offset="0" stop-color="#FFFFFF"/><stop offset="0.54" stop-color="#7F7F7F" stop-opacity="0"/><stop offset="1" stop-color="#7F7F7F" stop-opacity="0"/></radialGradient><radialGradient cx="292330" cy="278476" r="403740" gradientUnits="userSpaceOnUse" spreadMethod="pad" id="fill6" gradientTransform="matrix(0.000360892 0 0 0.000360892 928 349)"><stop offset="0" stop-color="#FFFFFF"/><stop offset="0.54" stop-color="#7F7F7F" stop-opacity="0"/><stop offset="1" stop-color="#7F7F7F" stop-opacity="0"/></radialGradient><radialGradient cx="70658.5" cy="77585.5" r="104939" fx="70658.5" fy="77585.5" gradientUnits="userSpaceOnUse" spreadMethod="pad" id="fill7" gradientTransform="matrix(0.000360892 0 0 0.000360892 1074 477)"><stop offset="0" stop-color="#FFFFFF"/><stop offset="0.54" stop-color="#7F7F7F" stop-opacity="0"/><stop offset="1" stop-color="#7F7F7F" stop-opacity="0"/></radialGradient><radialGradient cx="77585.5" cy="84513" r="114726" fx="77585.5" fy="84513" gradientUnits="userSpaceOnUse" spreadMethod="pad" id="fill8" gradientTransform="matrix(0.000360892 0 0 0.000360892 1057 394)"><stop offset="0" stop-color="#FFFFFF"/><stop offset="0.54" stop-color="#7F7F7F" stop-opacity="0"/><stop offset="1" stop-color="#7F7F7F" stop-opacity="0"/></radialGradient><clipPath id="clip9"><rect x="838" y="236" width="343" height="343"/></clipPath><clipPath id="clip10"><rect x="838" y="236" width="343" height="343"/></clipPath><clipPath id="clip11"><rect x="838" y="236" width="343" height="343"/></clipPath><clipPath id="clip12"><rect x="660" y="49" width="409" height="410"/></clipPath><clipPath id="clip13"><rect x="660" y="49" width="409" height="410"/></clipPath><clipPath id="clip14"><rect x="660" y="49" width="409" height="410"/></clipPath></defs><g clip-path="url(#clip0)" transform="translate(-639 -44)"><rect x="639" y="44" width="550" height="550" fill="url(#fill1)"/><path d="M660 220C660 133.844 720.218 63.9999 794.5 63.9999 868.782 63.9999 929 133.844 929 220 929 306.156 868.782 376 794.5 376 720.218 376 660 306.156 660 220Z" fill="url(#fill2)" fill-rule="evenodd"/><path d="M673.734 49.9998 1151.27 49.9998C1167.14 49.9998 1180 69.8638 1180 94.3675L1180 204C1180 165.824 1159.96 134.876 1135.23 134.876L689.767 134.876C665.043 134.876 645 165.824 645 204L645 94.3675C645 69.8638 657.864 49.9998 673.734 49.9998Z" fill="url(#fill3)" fill-rule="evenodd"/><path d="M678 209.5C678 189.342 693.222 173 712 173 730.778 173 746 189.342 746 209.5 746 229.658 730.778 246 712 246 693.222 246 678 229.658 678 209.5Z" fill="url(#fill4)" fill-rule="evenodd"/><path d="M707 261.5C707 237.476 724.909 218 747 218 769.091 218 787 237.476 787 261.5 787 285.524 769.091 305 747 305 724.909 305 707 285.524 707 261.5Z" fill="url(#fill5)" fill-rule="evenodd"/><path d="M928 449.5C928 393.995 975.234 349 1033.5 349 1091.77 349 1139 393.995 1139 449.5 1139 505.005 1091.77 550 1033.5 550 975.234 550 928 505.005 928 449.5Z" fill="url(#fill6)" fill-rule="evenodd"/><path d="M1074 505C1074 489.536 1085.42 477 1099.5 477 1113.58 477 1125 489.536 1125 505 1125 520.464 1113.58 533 1099.5 533 1085.42 533 1074 520.464 1074 505Z" fill="url(#fill7)" fill-rule="evenodd"/><path d="M1057 424.5C1057 407.655 1069.54 394 1085 394 1100.46 394 1113 407.655 1113 424.5 1113 441.345 1100.46 455 1085 455 1069.54 455 1057 441.345 1057 424.5Z" fill="url(#fill8)" fill-rule="evenodd"/><g clip-path="url(#clip9)"><g clip-path="url(#clip10)"><g clip-path="url(#clip11)"><path d="M311.135 93.9218 273.458 115.676 243.686 98.3091 243.533 63.8411 281.213 42.0865C283.474 40.7795 283.5 37.5143 281.267 36.1628 259.174 22.8214 230.665 21.6378 206.802 35.6874 179.251 51.9079 166.156 84.5079 172.97 114.615L36.9166 250.669C21.893 265.692 21.893 290.053 36.9166 305.081 51.9404 320.103 76.3008 320.103 91.3288 305.081L227.308 169.102C244.616 173.109 263.423 170.836 280.025 161.25 303.773 147.539 316.8 122.447 316.296 96.8396 316.242 94.2301 313.397 92.6159 311.135 93.9218Z" stroke="#FFFFFF" stroke-width="4.42719" fill="#0F1113" transform="matrix(1 0 0 1.00292 838 236)"/></g></g></g><g clip-path="url(#clip12)"><g clip-path="url(#clip13)"><g clip-path="url(#clip14)"><path d="M200.044 146.959 220.425 146.959C220.425 146.959 223.136 153.079 228.673 153.079L244.96 153.079 244.96 153.089 257.209 153.089C257.209 151.961 258.087 151.046 259.277 151.046L268.134 151.046 269.459 146.959 318.457 146.959 320.81 153.297 368.671 149.315C368.671 149.315 371.28 153.118 371.28 165.351 371.28 177.584 368.671 180.59 368.671 180.59L320.81 177.026 318.457 183.743 269.459 183.743 267.412 177.612 244.96 177.612 244.96 183.565 236.793 191.918 240.876 191.918 240.876 216.44 244.96 216.44 244.96 240.963 240.876 240.963 240.876 243.007 240.876 249.137 187.795 249.137 187.795 245.051 167.379 245.051C156.887 245.051 146.42 237.878 142.774 231.447 139.129 225.016 136.772 220.527 130.63 220.527 126.712 220.527 123.216 222.376 120.972 225.252L112.564 278.2C110.8 289.311 100.525 295.975 89.6164 293.086L80.9003 290.777C69.9912 287.886 64.8867 277.187 69.4677 266.949L90.0766 220.892C87.3447 217.416 85.7151 213.032 85.7151 208.266 85.7151 203.665 87.2337 199.42 89.7967 196.004L85.7151 196.004C83.4601 196.004 81.6318 194.175 81.6318 191.918 81.6318 189.66 83.4601 187.83 85.7151 187.83L93.8816 187.83 93.8816 159.22C89.3712 159.22 85.7151 155.56 85.7151 151.046 85.7151 146.531 89.3712 142.871 93.8816 142.871L106.135 142.871C108.388 142.871 110.214 144.684 110.214 146.913L110.214 146.959 110.352 146.959 114.274 151.027 118.381 147.015 118.381 136.741 104.221 136.741 68.9141 142.871 44.8882 142.871C42.6303 142.871 40.8 141.047 40.8 138.794L40.8 110.164C40.8 107.913 42.6446 106.087 44.8882 106.087L68.9141 106.087 104.221 112.218 118.804 112.218C119.434 110.651 120.706 109.245 122.189 108.652L121.014 109.122C125.208 107.446 132 107.448 136.225 109.143L135.002 108.652C136.475 109.243 137.751 110.639 138.38 112.218L167.805 112.218C168.439 110.651 169.719 109.245 171.211 108.652L170.083 109.1C174.272 107.436 181.097 107.471 185.24 109.143L184.024 108.652C185.487 109.243 186.756 110.639 187.381 112.218L200.044 112.218 200.044 110.174 196.978 110.174C196.417 110.174 195.961 109.735 195.961 109.172L195.961 103.002C195.961 102.449 196.457 102 196.978 102L223.526 102C224.088 102 224.544 102.439 224.544 103.002L224.544 109.172C224.544 109.725 224.048 110.174 223.526 110.174L220.46 110.174 220.46 112.218 281.744 112.218C283.979 112.218 285.791 114.061 285.791 116.267L285.791 132.691C285.791 134.928 283.994 136.741 281.744 136.741L216.377 136.741 216.377 142.871 200.044 142.871 200.044 146.959ZM150.144 216.818 150.389 217.062C150.426 216.891 150.463 216.721 150.502 216.552 150.381 216.639 150.262 216.728 150.144 216.818ZM145.086 223.32C144.705 224.391 144.498 225.509 144.498 226.658 144.498 234.559 155.983 240.963 165.004 240.963 174.024 240.963 180.972 234.559 180.972 226.658 180.972 218.758 172.316 212.353 163.295 212.353 161.591 212.353 159.859 212.582 158.172 213.006 159.491 213.934 160.899 214.811 162.182 215.383 155.551 216.282 153.286 226.272 155.881 231.53 157.049 233.898 156.24 233.927 155.07 233.352 150.944 231.324 149.68 227.253 149.69 223.003L147.23 225.464 145.086 223.32ZM324.582 159.22C325.709 159.22 326.623 158.305 326.623 157.177 326.623 156.048 325.709 155.133 324.582 155.133 323.454 155.133 322.54 156.048 322.54 157.177 322.54 158.305 323.454 159.22 324.582 159.22ZM332.208 158.969C333.335 158.969 334.249 158.055 334.249 156.926 334.249 155.797 333.335 154.883 332.208 154.883 331.08 154.883 330.166 155.797 330.166 156.926 330.166 158.055 331.08 158.969 332.208 158.969ZM340.335 158.534C341.463 158.534 342.376 157.619 342.376 156.49 342.376 155.362 341.463 154.447 340.335 154.447 339.208 154.447 338.293 155.362 338.293 156.49 338.293 157.619 339.208 158.534 340.335 158.534ZM348.41 157.916C349.538 157.916 350.452 157.001 350.452 155.873 350.452 154.744 349.538 153.829 348.41 153.829 347.282 153.829 346.368 154.744 346.368 155.873 346.368 157.001 347.282 157.916 348.41 157.916ZM356.623 157.231C357.751 157.231 358.665 156.317 358.665 155.188 358.665 154.059 357.751 153.144 356.623 153.144 355.496 153.144 354.581 154.059 354.581 155.188 354.581 156.317 355.496 157.231 356.623 157.231ZM364.276 156.732C365.404 156.732 366.318 155.816 366.318 154.688 366.318 153.559 365.404 152.644 364.276 152.644 363.149 152.644 362.235 153.559 362.235 154.688 362.235 155.816 363.149 156.732 364.276 156.732ZM324.582 167.395C325.709 167.395 326.623 166.48 326.623 165.351 326.623 164.222 325.709 163.307 324.582 163.307 323.454 163.307 322.54 164.222 322.54 165.351 322.54 166.48 323.454 167.395 324.582 167.395ZM332.748 167.395C333.875 167.395 334.79 166.48 334.79 165.351 334.79 164.222 333.875 163.307 332.748 163.307 331.62 163.307 330.706 164.222 330.706 165.351 330.706 166.48 331.62 167.395 332.748 167.395ZM340.914 167.395C342.042 167.395 342.956 166.48 342.956 165.351 342.956 164.222 342.042 163.307 340.914 163.307 339.787 163.307 338.873 164.222 338.873 165.351 338.873 166.48 339.787 167.395 340.914 167.395ZM349.081 167.395C350.208 167.395 351.122 166.48 351.122 165.351 351.122 164.222 350.208 163.307 349.081 163.307 347.953 163.307 347.039 164.222 347.039 165.351 347.039 166.48 347.953 167.395 349.081 167.395ZM357.247 167.395C358.375 167.395 359.289 166.48 359.289 165.351 359.289 164.222 358.375 163.307 357.247 163.307 356.12 163.307 355.206 164.222 355.206 165.351 355.206 166.48 356.12 167.395 357.247 167.395ZM365.413 167.395C366.541 167.395 367.455 166.48 367.455 165.351 367.455 164.222 366.541 163.307 365.413 163.307 364.286 163.307 363.372 164.222 363.372 165.351 363.372 166.48 364.286 167.395 365.413 167.395ZM324.582 175.569C325.709 175.569 326.623 174.654 326.623 173.525 326.623 172.397 325.709 171.482 324.582 171.482 323.454 171.482 322.54 172.397 322.54 173.525 322.54 174.654 323.454 175.569 324.582 175.569ZM332.124 176.077C333.252 176.077 334.165 175.162 334.165 174.033 334.165 172.905 333.252 171.99 332.124 171.99 330.997 171.99 330.082 172.905 330.082 174.033 330.082 175.162 330.997 176.077 332.124 176.077ZM339.786 176.672C340.913 176.672 341.828 175.757 341.828 174.629 341.828 173.5 340.913 172.585 339.786 172.585 338.658 172.585 337.744 173.5 337.744 174.629 337.744 175.757 338.658 176.672 339.786 176.672ZM348.069 177.423C349.196 177.423 350.111 176.508 350.111 175.38 350.111 174.251 349.196 173.336 348.069 173.336 346.941 173.336 346.027 174.251 346.027 175.38 346.027 176.508 346.941 177.423 348.069 177.423ZM356.325 178.179C357.453 178.179 358.367 177.264 358.367 176.135 358.367 175.007 357.453 174.092 356.325 174.092 355.198 174.092 354.284 175.007 354.284 176.135 354.284 177.264 355.198 178.179 356.325 178.179ZM364.255 178.963C365.382 178.963 366.296 178.048 366.296 176.919 366.296 175.791 365.382 174.876 364.255 174.876 363.127 174.876 362.213 175.791 362.213 176.919 362.213 178.048 363.127 178.963 364.255 178.963Z" stroke="#FFFFFF" stroke-width="5.43999" fill="#0F1113" fill-rule="evenodd" transform="matrix(1 0 0 1.00245 660 49.9998)"/></g></g></g></g></svg>