<svg width="550" height="550" xmlns="http://www.w3.org/2000/svg" xmlns:xlink="http://www.w3.org/1999/xlink" overflow="hidden"><defs><clipPath id="clip0"><rect x="1805" y="44" width="550" height="550"/></clipPath><radialGradient cx="762000" cy="762000" r="1.07763e+06" gradientUnits="userSpaceOnUse" spreadMethod="pad" id="fill1" gradientTransform="matrix(0.000360892 0 0 0.000360892 1805 44)"><stop offset="0" stop-color="#D9D9D9"/><stop offset="0.17" stop-color="#D9D9D9"/><stop offset="0.33" stop-color="#7F7F7F"/><stop offset="1" stop-color="#0F1113"/></radialGradient><radialGradient cx="374072" cy="432262" r="571647" fx="374072" fy="432262" gradientUnits="userSpaceOnUse" spreadMethod="pad" id="fill2" gradientTransform="matrix(0.000360892 0 0 0.000360892 1826 63.9999)"><stop offset="0" stop-color="#FFFFFF"/><stop offset="0.54" stop-color="#7F7F7F" stop-opacity="0"/><stop offset="1" stop-color="#7F7F7F" stop-opacity="0"/></radialGradient><linearGradient x1="2078.5" y1="49.9998" x2="2078.5" y2="204" gradientUnits="userSpaceOnUse" spreadMethod="reflect" id="fill3"><stop offset="0" stop-color="#F5FAFF" stop-opacity="0.231373"/><stop offset="0.32" stop-color="#FFFFFF" stop-opacity="0"/><stop offset="1" stop-color="#FFFFFF" stop-opacity="0"/></linearGradient><radialGradient cx="94211" cy="101138" r="138220" gradientUnits="userSpaceOnUse" spreadMethod="pad" id="fill4" gradientTransform="matrix(0.000360892 0 0 0.000360892 1844 173)"><stop offset="0" stop-color="#FFFFFF"/><stop offset="0.54" stop-color="#7F7F7F" stop-opacity="0"/><stop offset="1" stop-color="#7F7F7F" stop-opacity="0"/></radialGradient><radialGradient cx="112222" cy="120534" r="164688" gradientUnits="userSpaceOnUse" spreadMethod="pad" id="fill5" gradientTransform="matrix(0.000360892 0 0 0.000360892 1873 218)"><stop offset="0" stop-color="#FFFFFF"/><stop offset="0.54" stop-color="#7F7F7F" stop-opacity="0"/><stop offset="1" stop-color="#7F7F7F" stop-opacity="0"/></radialGradient><radialGradient cx="293716" cy="278476" r="404745" gradientUnits="userSpaceOnUse" spreadMethod="pad" id="fill6" gradientTransform="matrix(0.000360892 0 0 0.000360892 2094 349)"><stop offset="0" stop-color="#FFFFFF"/><stop offset="0.54" stop-color="#7F7F7F" stop-opacity="0"/><stop offset="1" stop-color="#7F7F7F" stop-opacity="0"/></radialGradient><radialGradient cx="72044" cy="77585.5" r="105877" fx="72044" fy="77585.5" gradientUnits="userSpaceOnUse" spreadMethod="pad" id="fill7" gradientTransform="matrix(0.000360892 0 0 0.000360892 2240 477)"><stop offset="0" stop-color="#FFFFFF"/><stop offset="0.54" stop-color="#7F7F7F" stop-opacity="0"/><stop offset="1" stop-color="#7F7F7F" stop-opacity="0"/></radialGradient><radialGradient cx="77585.5" cy="84513" r="114726" fx="77585.5" fy="84513" gradientUnits="userSpaceOnUse" spreadMethod="pad" id="fill8" gradientTransform="matrix(0.000360892 0 0 0.000360892 2224 394)"><stop offset="0" stop-color="#FFFFFF"/><stop offset="0.54" stop-color="#7F7F7F" stop-opacity="0"/><stop offset="1" stop-color="#7F7F7F" stop-opacity="0"/></radialGradient><clipPath id="clip9"><rect x="2004" y="236" width="343" height="343"/></clipPath><clipPath id="clip10"><rect x="2004" y="236" width="343" height="343"/></clipPath><clipPath id="clip11"><rect x="2004" y="236" width="343" height="343"/></clipPath></defs><g clip-path="url(#clip0)" transform="translate(-1805 -44)"><rect x="1805" y="44" width="550" height="550" fill="url(#fill1)"/><path d="M1826 220C1826 133.844 1886.44 63.9999 1961 63.9999 2035.56 63.9999 2096 133.844 2096 220 2096 306.156 2035.56 376 1961 376 1886.44 376 1826 306.156 1826 220Z" fill="url(#fill2)" fill-rule="evenodd"/><path d="M1839.73 49.9998 2317.27 49.9998C2333.14 49.9998 2346 69.8638 2346 94.3675L2346 204C2346 165.824 2325.96 134.876 2301.23 134.876L1855.77 134.876C1831.04 134.876 1811 165.824 1811 204L1811 94.3675C1811 69.8638 1823.86 49.9998 1839.73 49.9998Z" fill="url(#fill3)" fill-rule="evenodd"/><path d="M1844 209.5C1844 189.342 1859.22 173 1878 173 1896.78 173 1912 189.342 1912 209.5 1912 229.658 1896.78 246 1878 246 1859.22 246 1844 229.658 1844 209.5Z" fill="url(#fill4)" fill-rule="evenodd"/><path d="M1873 261.5C1873 237.476 1891.13 218 1913.5 218 1935.87 218 1954 237.476 1954 261.5 1954 285.524 1935.87 305 1913.5 305 1891.13 305 1873 285.524 1873 261.5Z" fill="url(#fill5)" fill-rule="evenodd"/><path d="M2094 449.5C2094 393.995 2141.46 349 2200 349 2258.54 349 2306 393.995 2306 449.5 2306 505.005 2258.54 550 2200 550 2141.46 550 2094 505.005 2094 449.5Z" fill="url(#fill6)" fill-rule="evenodd"/><path d="M2240 505C2240 489.536 2251.64 477 2266 477 2280.36 477 2292 489.536 2292 505 2292 520.464 2280.36 533 2266 533 2251.64 533 2240 520.464 2240 505Z" fill="url(#fill7)" fill-rule="evenodd"/><path d="M2224 424.5C2224 407.655 2236.54 394 2252 394 2267.46 394 2280 407.655 2280 424.5 2280 441.345 2267.46 455 2252 455 2236.54 455 2224 441.345 2224 424.5Z" fill="url(#fill8)" fill-rule="evenodd"/><g clip-path="url(#clip9)"><g clip-path="url(#clip10)"><g clip-path="url(#clip11)"><path d="M311.135 93.9218 273.458 115.676 243.686 98.3091 243.533 63.8411 281.213 42.0865C283.474 40.7795 283.5 37.5143 281.267 36.1628 259.174 22.8214 230.665 21.6378 206.802 35.6874 179.251 51.9079 166.156 84.5079 172.97 114.615L36.9166 250.669C21.893 265.692 21.893 290.053 36.9166 305.081 51.9404 320.103 76.3008 320.103 91.3288 305.081L227.308 169.102C244.616 173.109 263.423 170.836 280.025 161.25 303.773 147.539 316.8 122.447 316.296 96.8396 316.242 94.2301 313.397 92.6159 311.135 93.9218Z" stroke="#FFFFFF" stroke-width="4.42719" fill="#0F1113" transform="matrix(1 0 0 1.00292 2004 236)"/></g></g></g><path d="M2230.44 141.368C2231.1 142.432 2230.76 143.824 2229.7 144.477L2222 149.207C2220.93 149.86 2219.54 149.527 2218.89 148.464L2212.92 138.736 2098.61 208.91 2098.86 209.316C2099.94 211.082 2099.39 213.394 2097.62 214.478L2043.99 247.402 2051.29 259.294 1879.37 364.837 1853.76 323.115 2025.68 217.572 2032.21 228.212 2085.84 195.287C2087.61 194.203 2089.92 194.756 2091 196.522L2091.51 197.352 2205.82 127.178 2199.3 116.557C2198.65 115.493 2198.98 114.101 2200.04 113.448L2207.75 108.718C2208.81 108.065 2210.2 108.398 2210.86 109.462L2217.38 120.083 2227.1 114.111C2228.17 113.458 2229.56 113.791 2230.21 114.855L2234.94 122.56C2235.6 123.623 2235.26 125.015 2234.2 125.669L2224.47 131.641Z" stroke="#FFFFFF" stroke-width="4.58333" stroke-miterlimit="8" fill="#0F1113" fill-rule="evenodd"/></g></svg>