<svg width="550" height="550" xmlns="http://www.w3.org/2000/svg" xmlns:xlink="http://www.w3.org/1999/xlink" overflow="hidden"><defs><clipPath id="clip0"><rect x="36" y="44" width="550" height="550"/></clipPath><radialGradient cx="762000" cy="762000" r="1.07763e+06" gradientUnits="userSpaceOnUse" spreadMethod="pad" id="fill1" gradientTransform="matrix(0.000360892 0 0 0.000360892 36.0001 44)"><stop offset="0" stop-color="#D9D9D9"/><stop offset="0.17" stop-color="#D9D9D9"/><stop offset="0.33" stop-color="#7F7F7F"/><stop offset="1" stop-color="#0F1113"/></radialGradient><radialGradient cx="374072" cy="432262" r="571647" fx="374072" fy="432262" gradientUnits="userSpaceOnUse" spreadMethod="pad" id="fill2" gradientTransform="matrix(0.000360892 0 0 0.000360892 56 63.9999)"><stop offset="0" stop-color="#FFFFFF"/><stop offset="0.54" stop-color="#7F7F7F" stop-opacity="0"/><stop offset="1" stop-color="#7F7F7F" stop-opacity="0"/></radialGradient><linearGradient x1="309" y1="49.9998" x2="309" y2="204" gradientUnits="userSpaceOnUse" spreadMethod="reflect" id="fill3"><stop offset="0" stop-color="#F5FAFF" stop-opacity="0.231373"/><stop offset="0.32" stop-color="#FFFFFF" stop-opacity="0"/><stop offset="1" stop-color="#FFFFFF" stop-opacity="0"/></linearGradient><radialGradient cx="94211" cy="101138" r="138220" gradientUnits="userSpaceOnUse" spreadMethod="pad" id="fill4" gradientTransform="matrix(0.000360892 0 0 0.000360892 74.9999 173)"><stop offset="0" stop-color="#FFFFFF"/><stop offset="0.54" stop-color="#7F7F7F" stop-opacity="0"/><stop offset="1" stop-color="#7F7F7F" stop-opacity="0"/></radialGradient><radialGradient cx="110836" cy="120534" r="163747" fx="110836" fy="120534" gradientUnits="userSpaceOnUse" spreadMethod="pad" id="fill5" gradientTransform="matrix(0.000360892 0 0 0.000360892 104 218)"><stop offset="0" stop-color="#FFFFFF"/><stop offset="0.54" stop-color="#7F7F7F" stop-opacity="0"/><stop offset="1" stop-color="#7F7F7F" stop-opacity="0"/></radialGradient><radialGradient cx="292331" cy="278477" r="403741" fx="292331" fy="278476" gradientUnits="userSpaceOnUse" spreadMethod="pad" id="fill6" gradientTransform="matrix(0.000360892 0 0 0.000360892 325 349)"><stop offset="0" stop-color="#FFFFFF"/><stop offset="0.54" stop-color="#7F7F7F" stop-opacity="0"/><stop offset="1" stop-color="#7F7F7F" stop-opacity="0"/></radialGradient><radialGradient cx="72044" cy="77585.5" r="105877" fx="72044" fy="77585.5" gradientUnits="userSpaceOnUse" spreadMethod="pad" id="fill7" gradientTransform="matrix(0.000360892 0 0 0.000360892 470 477)"><stop offset="0" stop-color="#FFFFFF"/><stop offset="0.54" stop-color="#7F7F7F" stop-opacity="0"/><stop offset="1" stop-color="#7F7F7F" stop-opacity="0"/></radialGradient><radialGradient cx="77585.5" cy="84513" r="114726" fx="77585.5" fy="84513" gradientUnits="userSpaceOnUse" spreadMethod="pad" id="fill8" gradientTransform="matrix(0.000360892 0 0 0.000360892 454 394)"><stop offset="0" stop-color="#FFFFFF"/><stop offset="0.54" stop-color="#7F7F7F" stop-opacity="0"/><stop offset="1" stop-color="#7F7F7F" stop-opacity="0"/></radialGradient><clipPath id="clip9"><rect x="56" y="60" width="478" height="478"/></clipPath><clipPath id="clip10"><rect x="56" y="60" width="478" height="478"/></clipPath><clipPath id="clip11"><rect x="56" y="60" width="478" height="478"/></clipPath><clipPath id="clip12"><rect x="234" y="236" width="344" height="343"/></clipPath><clipPath id="clip13"><rect x="234" y="236" width="344" height="343"/></clipPath><clipPath id="clip14"><rect x="234" y="236" width="344" height="343"/></clipPath></defs><g clip-path="url(#clip0)" transform="translate(-36 -44)"><rect x="36.0001" y="44" width="550" height="550" fill="url(#fill1)"/><path d="M56 220C56 133.844 116.442 63.9999 191 63.9999 265.558 63.9999 326 133.844 326 220 326 306.156 265.558 376 191 376 116.442 376 56 306.156 56 220Z" fill="url(#fill2)" fill-rule="evenodd"/><path d="M69.7873 49.9998 548.213 49.9998C564.112 49.9998 577 69.8638 577 94.3675L577 204C577 165.824 556.92 134.876 532.15 134.876L85.8503 134.876C61.0801 134.876 40.9999 165.824 40.9999 204L40.9999 94.3675C40.9999 69.8638 53.8884 49.9998 69.7873 49.9998Z" fill="url(#fill3)" fill-rule="evenodd"/><path d="M74.9999 209.5C74.9999 189.342 90.2223 173 109 173 127.778 173 143 189.342 143 209.5 143 229.658 127.778 246 109 246 90.2223 246 74.9999 229.658 74.9999 209.5Z" fill="url(#fill4)" fill-rule="evenodd"/><path d="M104 261.5C104 237.476 121.909 218 144 218 166.091 218 184 237.476 184 261.5 184 285.524 166.091 305 144 305 121.909 305 104 285.524 104 261.5Z" fill="url(#fill5)" fill-rule="evenodd"/><path d="M325 449.5C325 393.995 372.234 349 430.5 349 488.766 349 536 393.995 536 449.5 536 505.005 488.766 550 430.5 550 372.234 550 325 505.005 325 449.5Z" fill="url(#fill6)" fill-rule="evenodd"/><path d="M470 505C470 489.536 481.641 477 496 477 510.359 477 522 489.536 522 505 522 520.464 510.359 533 496 533 481.641 533 470 520.464 470 505Z" fill="url(#fill7)" fill-rule="evenodd"/><path d="M454 424.5C454 407.655 466.536 394 482 394 497.464 394 510 407.655 510 424.5 510 441.345 497.464 455 482 455 466.536 455 454 441.345 454 424.5Z" fill="url(#fill8)" fill-rule="evenodd"/><g clip-path="url(#clip9)"><g clip-path="url(#clip10)"><g clip-path="url(#clip11)"><path d="M230.884 50.2758 242.433 50.2758 250.177 98.58 259.211 265.403 260.996 284.077 261.926 284.683 263.119 299.257 291.318 299.257 291.975 313.19 309.573 313.19 312.307 315.357 379.847 315.978 379.847 301.084 378.808 300.325 378.808 294.263 383.817 293.39 383.817 235.952 385.05 234.329 385.05 189.257 383.817 188.954 381.341 188.031 382.662 184.543 385.05 185.499 381.712 174.72 385.442 174.72 386.154 152.861 387.173 152.861 387.96 174.72 392.145 174.72 388.483 185.499 391.371 184.543 392.145 187.724 389.755 188.954 388.483 189.257 388.483 234.329 389.755 235.952 389.755 293.391 394.784 294.263 394.784 300.325 393.913 301.084 393.913 305.471 395.121 306.387 395.831 315.978 395.831 336.439 398.112 336.439 398.112 353.055 395.121 353.055 395.121 369.716 392.522 370.057 392.522 373.346 393.339 375.665 381.712 375.665 382.662 373.346 382.662 370.057 380.249 369.716 380.249 368.02 312.304 384.853 312.304 381.498 284.343 381.498 283.209 416.771 284.343 426.355 283.209 440.116 264.792 440.116 264.087 426.355 264.792 416.771 264.792 383.417 260.993 383.417 263.115 385.799 259.207 399.007 214.647 399.007 211.705 385.425 214.647 383.417 209.386 383.417 209.386 416.771 210.185 426.355 209.386 440.116 189.822 440.116 189.011 426.355 189.822 416.771 189.37 382.532 164.573 382.532 161.825 384.853 94.4126 368.753 94.4126 370.576 91.9096 370.576 91.9096 374.525 92.6084 376.929 81.1846 376.929 81.1846 374.525 82.5202 374.525 82.5202 371.333 79.6646 370.057 79.157 354.719 76.8078 353.965 76.8078 337.6 78.3139 337.6 79.157 307.414 80.4163 306.727 80.4163 301.992 79.157 301.085 79.157 295.859 80.0979 294.264 83.8693 294.264 83.8693 236.507 85.3898 234.745 85.868 190.054 82.5202 187.728 83.3045 184.546 85.868 185.503 83.3045 177.436 86.2142 176.461 86.8943 153.676 88.3492 153.676 88.8739 176.461 91.9096 177.436 88.8739 185.503 91.9096 184.546 92.6084 187.728 88.8739 190.054 88.8739 234.745 90.2902 236.507 89.8986 294.264 93.934 294.264 95.375 295.859 95.375 301.085 93.934 301.992 93.934 306.388 94.8101 310.064 94.4126 317.074 161.825 315.979 167.315 313.19 182.015 312.786 182.015 301.413 186.325 299.258 211.04 299.258 212.099 284.684 212.932 284.078 214.647 265.404 224.446 98.5808Z" stroke="#FFFFFF" stroke-width="5.34455" fill="#0F1113" fill-rule="evenodd" transform="matrix(6.12323e-17 1 -1.0021 6.13607e-17 534 60.9998)"/></g></g></g><g clip-path="url(#clip12)"><g clip-path="url(#clip13)"><g clip-path="url(#clip14)"><path d="M546.044 330.196 508.257 352.015 478.399 334.597 478.245 300.028 516.035 278.21C518.303 276.899 518.329 273.624 516.09 272.269 493.932 258.888 465.34 257.701 441.407 271.792 413.775 288.06 400.642 320.755 407.476 350.951L271.025 487.402C255.957 502.469 255.957 526.901 271.025 541.973 286.092 557.039 310.524 557.039 325.596 541.973L461.973 405.596C479.331 409.615 498.194 407.336 514.843 397.721 538.661 383.97 551.727 358.805 551.221 333.123 551.167 330.506 548.314 328.887 546.044 330.196Z" stroke="#FFFFFF" stroke-width="4.44014" fill="#0F1113"/></g></g></g></g></svg>