<svg width="550" height="550" xmlns="http://www.w3.org/2000/svg" xmlns:xlink="http://www.w3.org/1999/xlink" overflow="hidden"><defs><clipPath id="clip0"><rect x="1853" y="44" width="550" height="550"/></clipPath><radialGradient cx="762000" cy="762000" r="1.07763e+06" gradientUnits="userSpaceOnUse" spreadMethod="pad" id="fill1" gradientTransform="matrix(0.000360892 0 0 0.000360892 1853 44)"><stop offset="0" stop-color="#D9D9D9"/><stop offset="0.17" stop-color="#D9D9D9"/><stop offset="0.33" stop-color="#7F7F7F"/><stop offset="1" stop-color="#0F1113"/></radialGradient><radialGradient cx="374072" cy="432262" r="571647" fx="374072" fy="432262" gradientUnits="userSpaceOnUse" spreadMethod="pad" id="fill2" gradientTransform="matrix(0.000360892 0 0 0.000360892 1873 63.9999)"><stop offset="0" stop-color="#FFFFFF"/><stop offset="0.54" stop-color="#7F7F7F" stop-opacity="0"/><stop offset="1" stop-color="#7F7F7F" stop-opacity="0"/></radialGradient><linearGradient x1="2126" y1="49.9998" x2="2126" y2="204" gradientUnits="userSpaceOnUse" spreadMethod="reflect" id="fill3"><stop offset="0" stop-color="#F5FAFF" stop-opacity="0.231373"/><stop offset="0.32" stop-color="#FFFFFF" stop-opacity="0"/><stop offset="1" stop-color="#FFFFFF" stop-opacity="0"/></linearGradient><radialGradient cx="94211" cy="101138" r="138220" gradientUnits="userSpaceOnUse" spreadMethod="pad" id="fill4" gradientTransform="matrix(0.000360892 0 0 0.000360892 1892 173)"><stop offset="0" stop-color="#FFFFFF"/><stop offset="0.54" stop-color="#7F7F7F" stop-opacity="0"/><stop offset="1" stop-color="#7F7F7F" stop-opacity="0"/></radialGradient><radialGradient cx="110836" cy="120534" r="163748" gradientUnits="userSpaceOnUse" spreadMethod="pad" id="fill5" gradientTransform="matrix(0.000360892 0 0 0.000360892 1921 218)"><stop offset="0" stop-color="#FFFFFF"/><stop offset="0.54" stop-color="#7F7F7F" stop-opacity="0"/><stop offset="1" stop-color="#7F7F7F" stop-opacity="0"/></radialGradient><radialGradient cx="292331" cy="278477" r="403741" fx="292331" fy="278476" gradientUnits="userSpaceOnUse" spreadMethod="pad" id="fill6" gradientTransform="matrix(0.000360892 0 0 0.000360892 2142 349)"><stop offset="0" stop-color="#FFFFFF"/><stop offset="0.54" stop-color="#7F7F7F" stop-opacity="0"/><stop offset="1" stop-color="#7F7F7F" stop-opacity="0"/></radialGradient><radialGradient cx="72043.5" cy="77585.5" r="105876" fx="72043.5" fy="77585.5" gradientUnits="userSpaceOnUse" spreadMethod="pad" id="fill7" gradientTransform="matrix(0.000360892 0 0 0.000360892 2287 477)"><stop offset="0" stop-color="#FFFFFF"/><stop offset="0.54" stop-color="#7F7F7F" stop-opacity="0"/><stop offset="1" stop-color="#7F7F7F" stop-opacity="0"/></radialGradient><radialGradient cx="77585" cy="84513" r="114725" gradientUnits="userSpaceOnUse" spreadMethod="pad" id="fill8" gradientTransform="matrix(0.000360892 0 0 0.000360892 2271 394)"><stop offset="0" stop-color="#FFFFFF"/><stop offset="0.54" stop-color="#7F7F7F" stop-opacity="0"/><stop offset="1" stop-color="#7F7F7F" stop-opacity="0"/></radialGradient><clipPath id="clip9"><rect x="1875" y="70" width="441" height="440"/></clipPath><clipPath id="clip10"><rect x="1875" y="70" width="441" height="440"/></clipPath><clipPath id="clip11"><rect x="1875" y="70" width="441" height="440"/></clipPath><clipPath id="clip12"><rect x="2051" y="236" width="343" height="343"/></clipPath><clipPath id="clip13"><rect x="2051" y="236" width="343" height="343"/></clipPath><clipPath id="clip14"><rect x="2051" y="236" width="343" height="343"/></clipPath></defs><g clip-path="url(#clip0)" transform="translate(-1853 -44)"><rect x="1853" y="44" width="550" height="550" fill="url(#fill1)"/><path d="M1873 220C1873 133.844 1933.44 63.9999 2008 63.9999 2082.56 63.9999 2143 133.844 2143 220 2143 306.156 2082.56 376 2008 376 1933.44 376 1873 306.156 1873 220Z" fill="url(#fill2)" fill-rule="evenodd"/><path d="M1886.79 49.9998 2365.21 49.9998C2381.11 49.9998 2394 69.8638 2394 94.3675L2394 204C2394 165.824 2373.92 134.876 2349.15 134.876L1902.85 134.876C1878.08 134.876 1858 165.824 1858 204L1858 94.3675C1858 69.8638 1870.89 49.9998 1886.79 49.9998Z" fill="url(#fill3)" fill-rule="evenodd"/><path d="M1892 209.5C1892 189.342 1907.22 173 1926 173 1944.78 173 1960 189.342 1960 209.5 1960 229.658 1944.78 246 1926 246 1907.22 246 1892 229.658 1892 209.5Z" fill="url(#fill4)" fill-rule="evenodd"/><path d="M1921 261.5C1921 237.476 1938.91 218 1961 218 1983.09 218 2001 237.476 2001 261.5 2001 285.524 1983.09 305 1961 305 1938.91 305 1921 285.524 1921 261.5Z" fill="url(#fill5)" fill-rule="evenodd"/><path d="M2142 449.5C2142 393.995 2189.23 349 2247.5 349 2305.77 349 2353 393.995 2353 449.5 2353 505.005 2305.77 550 2247.5 550 2189.23 550 2142 505.005 2142 449.5Z" fill="url(#fill6)" fill-rule="evenodd"/><path d="M2287 505C2287 489.536 2298.64 477 2313 477 2327.36 477 2339 489.536 2339 505 2339 520.464 2327.36 533 2313 533 2298.64 533 2287 520.464 2287 505Z" fill="url(#fill7)" fill-rule="evenodd"/><path d="M2271 424.5C2271 407.655 2283.54 394 2299 394 2314.46 394 2327 407.655 2327 424.5 2327 441.345 2314.46 455 2299 455 2283.54 455 2271 441.345 2271 424.5Z" fill="url(#fill8)" fill-rule="evenodd"/><g clip-path="url(#clip9)"><g clip-path="url(#clip10)"><g clip-path="url(#clip11)"><path d="M310.084 165.013 272.341 168.66C262.819 156.163 249.055 158.174 248.416 158.041L248.032 158.168C234.159 158.168 221.086 174.441 224.363 189.514L204.083 187.595 194.04 156.569 191.865 163.286 160.648 161.366 159.687 154.968 156.04 130.02C277.329 118.706 235.441 122.613 244.513 121.767L252.317 144.798 302.663 126.886Z" stroke="#FFFFFF" stroke-width="4.60891" fill="#0F1113" transform="matrix(-1 0 0 1 2315 70.0001)"/><path d="M345.738 215.633C343.975 226.581 330.85 230.838 323.031 224.353 317.262 219.856 315.614 211.562 320.426 204.759 326.326 197.101 337.444 197.29 343.076 204.759 346.933 209.858 345.671 214.993 345.738 215.633Z" stroke="#FFFFFF" stroke-width="4.60891" fill="#0F1113" transform="matrix(-1 0 0 1 2315 70.0001)"/><path d="M333.252 307.432C332.398 313.411 326.984 318.474 320.228 318.474 312.977 318.474 306.921 312.501 306.921 305.224 306.921 298.153 312.667 291.917 320.228 291.917 334.609 291.915 333.133 306.779 333.252 307.432Z" stroke="#FFFFFF" stroke-width="4.60891" fill="#0F1113" transform="matrix(-1 0 0 1 2315 70.0001)"/><path d="M322.431 331.145 284.882 378.678C281.235 370.296 273.175 364.667 263.899 364.349L295.181 312.466C298.891 325.324 312.261 332.808 322.433 331.145Z" stroke="#FFFFFF" stroke-width="4.60891" fill="#0F1113" transform="matrix(-1 0 0 1 2315 70.0001)"/><path d="M318.655 189.835C306.591 196.458 301.521 211.223 306.949 223.803L263.704 208.642C276.079 201.986 280.601 187.354 276.242 176.017Z" stroke="#FFFFFF" stroke-width="4.60891" fill="#0F1113" transform="matrix(-1 0 0 1 2315 70.0001)"/><path d="M347.571 235.191 339.574 287.775C330.52 277.677 316.081 276.92 306.565 282.978L311.682 231.162C318.972 240.53 335.57 243.714 347.571 235.192Z" stroke="#FFFFFF" stroke-width="4.60891" fill="#0F1113" transform="matrix(-1 0 0 1 2315 70.0001)"/><path d="M298.696 424.22C298.696 426.843 296.521 429.016 293.898 429.016L213.741 429.016C211.054 429.016 208.943 426.843 208.943 424.22 208.943 421.535 211.054 419.424 213.741 419.424L220.394 419.424C227.624 410.787 234.596 403.748 241.185 398.886 245.096 407.326 253.78 412.514 262.872 412.514 269.861 412.514 276.421 409.514 280.848 404.451 283.408 408.482 285.901 413.41 288.269 419.421L293.898 419.421C296.519 419.421 298.694 421.535 298.694 424.22Z" stroke="#FFFFFF" stroke-width="4.60891" fill="#0F1113" transform="matrix(-1 0 0 1 2315 70.0001)"/><path d="M274.192 388.405C274.192 392.711 271.814 396.446 268.303 398.371 266.718 399.219 264.849 399.731 262.867 399.731 259.809 399.731 257.091 398.542 254.996 396.618 252.843 394.522 251.542 391.632 251.542 388.405 251.542 382.574 255.959 377.705 261.735 377.138L261.792 377.138C262.132 377.079 262.472 377.079 262.868 377.079 267.964 377.079 272.268 380.474 273.684 385.12 274.022 386.141 274.192 387.275 274.192 388.405Z" stroke="#FFFFFF" stroke-width="4.60891" fill="#0F1113" transform="matrix(-1 0 0 1 2315 70.0001)"/><path d="M119.32 146.652 119.32 139.615 96.227 139.615C93.6032 139.615 91.4298 137.44 91.4298 134.818 91.4298 132.194 93.6047 130.021 96.227 130.021L143.119 130.021 146.318 152.218Z" stroke="#FFFFFF" stroke-width="4.60891" fill="#0F1113" transform="matrix(-1 0 0 1 2315 70.0001)"/><path d="M250.888 199.097C241.72 199.097 234.709 190.48 237.299 180.977 237.299 180.92 237.356 180.807 237.356 180.75 238.643 176.892 241.153 174.062 244.491 172.313 251.729 169.099 258.482 171.497 262.215 176.448 269.093 185.526 262.714 199.098 250.888 199.098Z" stroke="#FFFFFF" stroke-width="4.60891" fill="#0F1113" transform="matrix(-1 0 0 1 2315 70.0001)"/><path d="M188.77 82.8978C188.77 87.3134 185.19 90.8931 180.775 90.8931 176.358 90.8931 172.778 87.3134 172.778 82.8978 172.778 78.4808 176.358 74.9011 180.775 74.9011 185.19 74.9011 188.77 78.4808 188.77 82.8978" stroke="#FFFFFF" stroke-width="4.60891" fill="#0F1113" transform="matrix(-1 0 0 1 2315 70.0001)"/><path d="M256.347 82.104C255.334 75.1502 260.019 107.292 246.431 14.1029 246.239 12.7596 245.472 11.6078 244.383 10.8404 243.296 10.073 241.952 9.81717 240.673 10.073 233.132 11.7535 267.995 3.98367 166.914 26.5139 164.291 27.0898 162.692 29.6478 163.331 32.2714 163.851 34.4807 165.952 36.3771 169.089 35.854L185.786 31.8883 187.641 44.298C187.641 44.3624 187.641 44.4897 187.705 44.5541 187.705 44.6181 187.705 44.7454 187.769 44.8098L141.327 54.9174 141.135 54.9818 149.644 117.225C150.348 117.16 255.26 107.373 255.26 107.373L252.382 87.5421C254.938 87.0932 256.729 84.7252 256.346 82.1032ZM180.795 100.464C171.072 100.464 163.202 92.5961 163.202 82.8715 163.202 73.2113 171.07 65.2786 180.795 65.2786 190.455 65.2786 198.388 73.2113 198.388 82.8715 198.386 92.5946 190.454 100.464 180.795 100.464Z" stroke="#FFFFFF" stroke-width="4.60891" fill="#0F1113" transform="matrix(-1 0 0 1 2315 70.0001)"/></g></g></g><g clip-path="url(#clip12)"><g clip-path="url(#clip13)"><g clip-path="url(#clip14)"><path d="M2363.04 330.196 2325.26 352.015 2295.4 334.597 2295.24 300.028 2333.03 278.21C2335.3 276.899 2335.33 273.624 2333.09 272.269 2310.93 258.888 2282.34 257.701 2258.41 271.792 2230.77 288.06 2217.64 320.755 2224.48 350.951L2088.02 487.402C2072.96 502.469 2072.96 526.901 2088.02 541.973 2103.09 557.039 2127.52 557.039 2142.6 541.973L2278.97 405.596C2296.33 409.615 2315.19 407.336 2331.84 397.721 2355.66 383.97 2368.73 358.805 2368.22 333.123 2368.17 330.506 2365.31 328.887 2363.04 330.196Z" stroke="#FFFFFF" stroke-width="4.44013" fill="#0F1113"/></g></g></g></g></svg>