<svg width="550" height="550" xmlns="http://www.w3.org/2000/svg" xmlns:xlink="http://www.w3.org/1999/xlink" overflow="hidden"><defs><clipPath id="clip0"><rect x="1222" y="44" width="550" height="550"/></clipPath><radialGradient cx="762000" cy="762000" r="1.07763e+06" gradientUnits="userSpaceOnUse" spreadMethod="pad" id="fill1" gradientTransform="matrix(0.000360892 0 0 0.000360892 1222 44)"><stop offset="0" stop-color="#D9D9D9"/><stop offset="0.17" stop-color="#D9D9D9"/><stop offset="0.33" stop-color="#7F7F7F"/><stop offset="1" stop-color="#0F1113"/></radialGradient><radialGradient cx="374072" cy="432262" r="571647" fx="374072" fy="432262" gradientUnits="userSpaceOnUse" spreadMethod="pad" id="fill2" gradientTransform="matrix(0.000360892 0 0 0.000360892 1243 63.9999)"><stop offset="0" stop-color="#FFFFFF"/><stop offset="0.54" stop-color="#7F7F7F" stop-opacity="0"/><stop offset="1" stop-color="#7F7F7F" stop-opacity="0"/></radialGradient><linearGradient x1="1495.5" y1="49.9998" x2="1495.5" y2="204" gradientUnits="userSpaceOnUse" spreadMethod="reflect" id="fill3"><stop offset="0" stop-color="#F5FAFF" stop-opacity="0.231373"/><stop offset="0.32" stop-color="#FFFFFF" stop-opacity="0"/><stop offset="1" stop-color="#FFFFFF" stop-opacity="0"/></linearGradient><radialGradient cx="94211" cy="101138" r="138220" gradientUnits="userSpaceOnUse" spreadMethod="pad" id="fill4" gradientTransform="matrix(0.000360892 0 0 0.000360892 1261 173)"><stop offset="0" stop-color="#FFFFFF"/><stop offset="0.54" stop-color="#7F7F7F" stop-opacity="0"/><stop offset="1" stop-color="#7F7F7F" stop-opacity="0"/></radialGradient><radialGradient cx="112222" cy="120534" r="164688" gradientUnits="userSpaceOnUse" spreadMethod="pad" id="fill5" gradientTransform="matrix(0.000360892 0 0 0.000360892 1290 218)"><stop offset="0" stop-color="#FFFFFF"/><stop offset="0.54" stop-color="#7F7F7F" stop-opacity="0"/><stop offset="1" stop-color="#7F7F7F" stop-opacity="0"/></radialGradient><radialGradient cx="293716" cy="278476" r="404745" gradientUnits="userSpaceOnUse" spreadMethod="pad" id="fill6" gradientTransform="matrix(0.000360892 0 0 0.000360892 1511 349)"><stop offset="0" stop-color="#FFFFFF"/><stop offset="0.54" stop-color="#7F7F7F" stop-opacity="0"/><stop offset="1" stop-color="#7F7F7F" stop-opacity="0"/></radialGradient><radialGradient cx="70658.5" cy="77585.5" r="104939" fx="70658.5" fy="77585.5" gradientUnits="userSpaceOnUse" spreadMethod="pad" id="fill7" gradientTransform="matrix(0.000360892 0 0 0.000360892 1657 477)"><stop offset="0" stop-color="#FFFFFF"/><stop offset="0.54" stop-color="#7F7F7F" stop-opacity="0"/><stop offset="1" stop-color="#7F7F7F" stop-opacity="0"/></radialGradient><radialGradient cx="77585.5" cy="84513" r="114726" fx="77585.5" fy="84513" gradientUnits="userSpaceOnUse" spreadMethod="pad" id="fill8" gradientTransform="matrix(0.000360892 0 0 0.000360892 1641 394)"><stop offset="0" stop-color="#FFFFFF"/><stop offset="0.54" stop-color="#7F7F7F" stop-opacity="0"/><stop offset="1" stop-color="#7F7F7F" stop-opacity="0"/></radialGradient><clipPath id="clip9"><rect x="1421" y="236" width="343" height="343"/></clipPath><clipPath id="clip10"><rect x="1421" y="236" width="343" height="343"/></clipPath><clipPath id="clip11"><rect x="1421" y="236" width="343" height="343"/></clipPath></defs><g clip-path="url(#clip0)" transform="translate(-1222 -44)"><rect x="1222" y="44" width="550" height="550" fill="url(#fill1)"/><path d="M1243 220C1243 133.844 1303.44 63.9999 1378 63.9999 1452.56 63.9999 1513 133.844 1513 220 1513 306.156 1452.56 376 1378 376 1303.44 376 1243 306.156 1243 220Z" fill="url(#fill2)" fill-rule="evenodd"/><path d="M1256.73 49.9998 1734.27 49.9998C1750.14 49.9998 1763 69.8638 1763 94.3675L1763 204C1763 165.824 1742.96 134.876 1718.23 134.876L1272.77 134.876C1248.04 134.876 1228 165.824 1228 204L1228 94.3675C1228 69.8638 1240.86 49.9998 1256.73 49.9998Z" fill="url(#fill3)" fill-rule="evenodd"/><path d="M1261 209.5C1261 189.342 1276.22 173 1295 173 1313.78 173 1329 189.342 1329 209.5 1329 229.658 1313.78 246 1295 246 1276.22 246 1261 229.658 1261 209.5Z" fill="url(#fill4)" fill-rule="evenodd"/><path d="M1290 261.5C1290 237.476 1308.13 218 1330.5 218 1352.87 218 1371 237.476 1371 261.5 1371 285.524 1352.87 305 1330.5 305 1308.13 305 1290 285.524 1290 261.5Z" fill="url(#fill5)" fill-rule="evenodd"/><path d="M1511 449.5C1511 393.995 1558.46 349 1617 349 1675.54 349 1723 393.995 1723 449.5 1723 505.005 1675.54 550 1617 550 1558.46 550 1511 505.005 1511 449.5Z" fill="url(#fill6)" fill-rule="evenodd"/><path d="M1657 505C1657 489.536 1668.42 477 1682.5 477 1696.58 477 1708 489.536 1708 505 1708 520.464 1696.58 533 1682.5 533 1668.42 533 1657 520.464 1657 505Z" fill="url(#fill7)" fill-rule="evenodd"/><path d="M1641 424.5C1641 407.655 1653.54 394 1669 394 1684.46 394 1697 407.655 1697 424.5 1697 441.345 1684.46 455 1669 455 1653.54 455 1641 441.345 1641 424.5Z" fill="url(#fill8)" fill-rule="evenodd"/><g clip-path="url(#clip9)"><g clip-path="url(#clip10)"><g clip-path="url(#clip11)"><path d="M311.135 93.9218 273.458 115.676 243.686 98.3091 243.533 63.8411 281.213 42.0865C283.474 40.7795 283.5 37.5143 281.267 36.1628 259.174 22.8214 230.665 21.6378 206.802 35.6874 179.251 51.9079 166.156 84.5079 172.97 114.615L36.9166 250.669C21.893 265.692 21.893 290.053 36.9166 305.081 51.9404 320.103 76.3008 320.103 91.3288 305.081L227.308 169.102C244.616 173.109 263.423 170.836 280.025 161.25 303.773 147.539 316.8 122.447 316.296 96.8396 316.242 94.2301 313.397 92.6159 311.135 93.9218Z" stroke="#FFFFFF" stroke-width="4.42719" fill="#0F1113" transform="matrix(1 0 0 1.00292 1421 236)"/></g></g></g><path d="M1421.86 178.61C1421.67 177.682 1422.28 176.782 1423.21 176.6L1622.14 137.493C1623.07 137.311 1623.97 137.915 1624.15 138.843L1625.47 145.562C1625.65 146.49 1625.05 147.39 1624.12 147.572L1425.19 186.679C1424.26 186.862 1423.36 186.257 1423.18 185.33Z" stroke="#FFFFFF" stroke-width="4.58333" stroke-miterlimit="8" fill="#0F1113" fill-rule="evenodd"/><path d="M1429.6 218.008C1429.42 217.08 1430.02 216.18 1430.95 215.998L1629.88 176.891C1630.81 176.708 1631.71 177.313 1631.9 178.241L1633.22 184.96C1633.4 185.888 1632.79 186.788 1631.87 186.97L1432.93 226.077C1432.01 226.26 1431.1 225.655 1430.92 224.727Z" stroke="#FFFFFF" stroke-width="4.58333" stroke-miterlimit="8" fill="#0F1113" fill-rule="evenodd"/><path d="M0 1.71211C-3.29235e-16 0.76654 0.766539 0 1.71211 0L18.976 0C19.9216 -3.29235e-16 20.6882 0.76654 20.6882 1.71211L20.6882 8.56033C20.6882 9.5059 19.9216 10.2724 18.976 10.2724L1.71211 10.2724C0.766539 10.2724 0 9.5059 0 8.56033Z" stroke="#FFFFFF" stroke-width="4.58333" stroke-miterlimit="8" fill="#0F1113" fill-rule="evenodd" transform="matrix(-0.192891 -0.98122 -0.98122 0.192891 1620.3 153.632)"/><path d="M0 1.71211C-3.29235e-16 0.76654 0.766539 0 1.71211 0L18.976 0C19.9216 -3.29235e-16 20.6882 0.76654 20.6882 1.71211L20.6882 8.56033C20.6882 9.5059 19.9216 10.2724 18.976 10.2724L1.71211 10.2724C0.766539 10.2724 0 9.5059 0 8.56033Z" stroke="#FFFFFF" stroke-width="4.58333" stroke-miterlimit="8" fill="#0F1113" fill-rule="evenodd" transform="matrix(-0.192891 -0.98122 -0.98122 0.192891 1628.02 192.911)"/><path d="M1332.19 200.666C1331.89 199.126 1332.89 197.631 1334.43 197.328L1503.28 164.135C1504.82 163.832 1506.32 164.835 1506.62 166.376L1508.81 177.533C1509.12 179.074 1508.11 180.568 1506.57 180.871L1337.72 214.065C1336.18 214.368 1334.68 213.364 1334.38 211.824Z" stroke="#FFFFFF" stroke-width="4.58333" stroke-miterlimit="8" fill="#0F1113" fill-rule="evenodd"/><path d="M1337.61 228.245C1337.31 226.704 1338.31 225.21 1339.85 224.907L1508.7 191.714C1510.24 191.411 1511.74 192.414 1512.04 193.955L1514.23 205.112C1514.54 206.653 1513.53 208.147 1511.99 208.45L1343.14 241.644C1341.6 241.946 1340.11 240.943 1339.8 239.402Z" stroke="#FFFFFF" stroke-width="4.58333" stroke-miterlimit="8" fill="#0F1113" fill-rule="evenodd"/><path d="M1294.83 169.75 1451.74 138.904 1525.31 340.772 1303.08 386.514 1294.83 169.75Z" stroke="#FFFFFF" stroke-width="4.58333" stroke-miterlimit="8" fill="#0F1113" fill-rule="evenodd"/></g></svg>