<svg width="550" height="550" xmlns="http://www.w3.org/2000/svg" xmlns:xlink="http://www.w3.org/1999/xlink" overflow="hidden"><defs><clipPath id="clip0"><rect x="1814" y="1197" width="550" height="550"/></clipPath><radialGradient cx="762000" cy="762000" r="1.07763e+06" gradientUnits="userSpaceOnUse" spreadMethod="pad" id="fill1" gradientTransform="matrix(0.000360892 0 0 0.000360892 1814 1197)"><stop offset="0" stop-color="#D9D9D9"/><stop offset="0.17" stop-color="#D9D9D9"/><stop offset="0.33" stop-color="#7F7F7F"/><stop offset="1" stop-color="#0F1113"/></radialGradient><radialGradient cx="374073" cy="432262" r="571648" fx="374073" fy="432262" gradientUnits="userSpaceOnUse" spreadMethod="pad" id="fill2" gradientTransform="matrix(0.000360892 0 0 0.000360892 1834 1217)"><stop offset="0" stop-color="#FFFFFF"/><stop offset="0.54" stop-color="#7F7F7F" stop-opacity="0"/><stop offset="1" stop-color="#7F7F7F" stop-opacity="0"/></radialGradient><linearGradient x1="2087" y1="1203" x2="2087" y2="1357" gradientUnits="userSpaceOnUse" spreadMethod="reflect" id="fill3"><stop offset="0" stop-color="#F5FAFF" stop-opacity="0.231373"/><stop offset="0.32" stop-color="#FFFFFF" stop-opacity="0"/><stop offset="1" stop-color="#FFFFFF" stop-opacity="0"/></linearGradient><radialGradient cx="95596" cy="101139" r="139168" fx="95596" fy="101138" gradientUnits="userSpaceOnUse" spreadMethod="pad" id="fill4" gradientTransform="matrix(0.000360892 0 0 0.000360892 1852 1326)"><stop offset="0" stop-color="#FFFFFF"/><stop offset="0.54" stop-color="#7F7F7F" stop-opacity="0"/><stop offset="1" stop-color="#7F7F7F" stop-opacity="0"/></radialGradient><radialGradient cx="112222" cy="120534" r="164689" gradientUnits="userSpaceOnUse" spreadMethod="pad" id="fill5" gradientTransform="matrix(0.000360892 0 0 0.000360892 1881 1371)"><stop offset="0" stop-color="#FFFFFF"/><stop offset="0.54" stop-color="#7F7F7F" stop-opacity="0"/><stop offset="1" stop-color="#7F7F7F" stop-opacity="0"/></radialGradient><radialGradient cx="292331" cy="278477" r="403741" fx="292331" fy="278476" gradientUnits="userSpaceOnUse" spreadMethod="pad" id="fill6" gradientTransform="matrix(0.000360892 0 0 0.000360892 2103 1502)"><stop offset="0" stop-color="#FFFFFF"/><stop offset="0.54" stop-color="#7F7F7F" stop-opacity="0"/><stop offset="1" stop-color="#7F7F7F" stop-opacity="0"/></radialGradient><radialGradient cx="72043.5" cy="77585.5" r="105876" fx="72043.5" fy="77585.5" gradientUnits="userSpaceOnUse" spreadMethod="pad" id="fill7" gradientTransform="matrix(0.000360892 0 0 0.000360892 2248 1630)"><stop offset="0" stop-color="#FFFFFF"/><stop offset="0.54" stop-color="#7F7F7F" stop-opacity="0"/><stop offset="1" stop-color="#7F7F7F" stop-opacity="0"/></radialGradient><radialGradient cx="77585.5" cy="84513" r="114726" fx="77585.5" fy="84513" gradientUnits="userSpaceOnUse" spreadMethod="pad" id="fill8" gradientTransform="matrix(0.000360892 0 0 0.000360892 2232 1547)"><stop offset="0" stop-color="#FFFFFF"/><stop offset="0.54" stop-color="#7F7F7F" stop-opacity="0"/><stop offset="1" stop-color="#7F7F7F" stop-opacity="0"/></radialGradient><clipPath id="clip9"><rect x="1834" y="1221" width="505" height="504"/></clipPath><clipPath id="clip10"><rect x="1834" y="1221" width="505" height="504"/></clipPath><clipPath id="clip11"><rect x="1834" y="1221" width="505" height="504"/></clipPath><clipPath id="clip12"><rect x="2011" y="1390" width="345" height="343"/></clipPath><clipPath id="clip13"><rect x="2011" y="1390" width="345" height="343"/></clipPath><clipPath id="clip14"><rect x="2011" y="1390" width="345" height="343"/></clipPath></defs><g clip-path="url(#clip0)" transform="translate(-1814 -1197)"><rect x="1814" y="1197" width="550" height="550" fill="url(#fill1)"/><path d="M1834 1373C1834 1286.84 1894.44 1217 1969 1217 2043.56 1217 2104 1286.84 2104 1373 2104 1459.16 2043.56 1529 1969 1529 1894.44 1529 1834 1459.16 1834 1373Z" fill="url(#fill2)" fill-rule="evenodd"/><path d="M1847.79 1203 2326.21 1203C2342.11 1203 2355 1222.86 2355 1247.37L2355 1357C2355 1318.82 2334.92 1287.88 2310.15 1287.88L1863.85 1287.88C1839.08 1287.88 1819 1318.82 1819 1357L1819 1247.37C1819 1222.86 1831.89 1203 1847.79 1203Z" fill="url(#fill3)" fill-rule="evenodd"/><path d="M1852 1362.5C1852 1342.34 1867.45 1326 1886.5 1326 1905.55 1326 1921 1342.34 1921 1362.5 1921 1382.66 1905.55 1399 1886.5 1399 1867.45 1399 1852 1382.66 1852 1362.5Z" fill="url(#fill4)" fill-rule="evenodd"/><path d="M1881 1414.5C1881 1390.48 1899.13 1371 1921.5 1371 1943.87 1371 1962 1390.48 1962 1414.5 1962 1438.52 1943.87 1458 1921.5 1458 1899.13 1458 1881 1438.52 1881 1414.5Z" fill="url(#fill5)" fill-rule="evenodd"/><path d="M2103 1602.5C2103 1547 2150.23 1502 2208.5 1502 2266.77 1502 2314 1547 2314 1602.5 2314 1658 2266.77 1703 2208.5 1703 2150.23 1703 2103 1658 2103 1602.5Z" fill="url(#fill6)" fill-rule="evenodd"/><path d="M2248 1658C2248 1642.54 2259.64 1630 2274 1630 2288.36 1630 2300 1642.54 2300 1658 2300 1673.46 2288.36 1686 2274 1686 2259.64 1686 2248 1673.46 2248 1658Z" fill="url(#fill7)" fill-rule="evenodd"/><path d="M2232 1577.5C2232 1560.66 2244.54 1547 2260 1547 2275.46 1547 2288 1560.66 2288 1577.5 2288 1594.34 2275.46 1608 2260 1608 2244.54 1608 2232 1594.34 2232 1577.5Z" fill="url(#fill8)" fill-rule="evenodd"/><g clip-path="url(#clip9)"><g clip-path="url(#clip10)"><g clip-path="url(#clip11)"><path d="M2130.34 1664.02 2130.34 1681.15 2120.77 1687.7 2120.77 1694.76C2120.77 1694.76 2119.76 1701.31 2093.55 1701.31 2067.34 1701.31 2066.34 1694.76 2066.34 1694.76L2066.34 1688.21 2056.76 1681.15 2056.76 1664.02 2066.34 1657.97 2066.34 1645.87 2062.3 1643.35 2062.3 1587.91 2066.84 1587.91 2066.84 1508.28 2062.81 1508.28 2062.81 1507.27 2065.83 1505.76 2065.83 1500.72 2070.87 1495.68 2065.33 1492.15 2065.33 1486.1 2070.87 1482.07 2065.33 1479.05 2065.33 1473.5 2070.37 1469.47 2065.33 1466.45 2065.33 1460.9 2070.87 1456.87 2065.33 1453.34 2065.33 1448.3 2070.37 1444.27 2065.33 1440.74 2065.33 1435.2 2070.37 1431.67 2066.84 1428.65 2066.84 1422.6 2072.38 1419.07 2066.84 1415.04 2066.84 1410.5 2072.38 1406.98 2066.34 1402.44 2066.34 1397.4 2072.38 1393.37 2065.83 1389.34 2065.83 1385.3C2065.83 1379.76 2080.95 1377.74 2080.95 1377.74L2080.95 1360.1C2080.95 1360.1 2078.43 1360.1 2077.42 1360.1 2076.42 1360.1 2075.91 1358.59 2075.91 1358.59L2075.91 1356.07 2067.85 1355.06C2067.85 1355.06 2066.34 1354.06 2066.34 1352.04 2066.34 1350.02 2067.34 1349.52 2067.34 1349.52L2069.86 1348.51C2069.86 1348.51 2069.86 1339.44 2069.86 1336.92 2069.86 1334.4 2072.89 1333.9 2072.89 1333.9L2081.96 1332.89 2081.96 1309.7C2081.96 1309.7 2081.46 1309.7 2079.44 1309.7 2077.42 1309.7 2077.42 1307.69 2077.42 1307.69L2077.42 1303.66C2077.42 1303.66 2075.41 1303.66 2072.38 1303.66 2069.36 1303.66 2068.35 1300.63 2068.35 1300.63L2068.35 1284C2065.83 1283.5 2062.81 1279.46 2062.81 1279.46L2062.81 1273.92C2055.25 1269.89 2056.76 1267.87 2056.76 1267.87 2056.76 1267.87 2057.26 1265.86 2060.79 1263.84 2064.32 1261.82 2080.95 1260.31 2080.95 1260.31L2080.95 1250.74C2082.46 1249.22 2089.02 1248.22 2092.54 1247.71L2092.54 1247.71C2092.54 1247.71 2093.05 1247.71 2093.55 1247.71 2094.06 1247.71 2094.56 1247.71 2094.56 1247.71L2094.56 1247.71C2098.09 1248.22 2104.64 1249.22 2106.15 1250.74L2106.15 1259.81C2106.15 1259.81 2122.78 1260.82 2126.31 1263.34 2129.84 1265.35 2130.34 1267.37 2130.34 1267.37 2130.34 1267.37 2131.86 1269.89 2124.3 1273.42L2124.3 1278.96C2124.3 1278.96 2121.27 1282.99 2118.75 1283.5L2118.75 1300.13C2118.75 1300.13 2117.74 1303.15 2114.72 1303.15 2111.7 1303.15 2109.68 1303.15 2109.68 1303.15L2109.68 1307.18C2109.68 1307.18 2109.68 1309.2 2107.66 1309.2 2105.65 1309.2 2105.14 1309.2 2105.14 1309.2L2105.14 1332.38 2114.22 1333.39C2114.22 1333.39 2117.24 1333.9 2117.24 1336.42 2117.24 1338.94 2117.24 1348.01 2117.24 1348.01L2119.76 1349.02C2119.76 1349.02 2120.77 1349.52 2120.77 1351.54 2120.77 1353.55 2119.26 1354.56 2119.26 1354.56L2111.19 1355.57 2111.19 1358.09C2111.19 1358.09 2111.19 1359.6 2109.68 1359.6 2108.17 1359.6 2106.15 1359.6 2106.15 1359.6L2106.15 1377.24C2106.15 1377.24 2121.27 1378.75 2121.27 1384.8L2121.27 1388.83 2114.72 1392.86 2120.77 1396.9 2120.77 1401.94 2115.22 1405.97 2120.77 1409.5 2120.77 1414.03 2115.22 1418.57 2120.77 1422.1 2120.77 1428.14 2116.23 1431.67 2121.27 1435.2 2121.27 1440.74 2116.23 1444.27 2121.27 1448.3 2121.27 1453.34 2115.73 1456.87 2121.27 1460.9 2121.27 1466.45 2116.23 1469.47 2121.27 1473.5 2121.27 1479.05 2115.73 1482.07 2121.27 1486.1 2121.27 1492.15 2115.73 1495.68 2120.77 1500.72 2120.77 1505.76 2123.79 1507.27 2124.8 1642.85 2120.77 1645.37 2120.77 1657.46 2130.34 1664.02ZM2040.13 1584.89 2042.65 1588.42 2047.18 1588.42 2047.18 1554.65 2050.21 1551.62 2050.21 1511.81 2039.62 1509.29 2039.62 1584.89ZM2052.73 1511.81 2052.73 1550.11 2059.78 1550.11 2059.78 1585.9 2064.82 1585.9 2064.82 1511.81 2052.73 1511.81ZM2049.7 1588.42 2057.77 1588.42 2057.77 1553.14 2052.22 1553.14 2049.7 1556.16 2049.7 1588.42Z" stroke="#FFFFFF" stroke-width="4.60274" fill="#0F1113"/></g></g></g><g clip-path="url(#clip12)"><g clip-path="url(#clip13)"><g clip-path="url(#clip14)"><path d="M311.135 93.9218 273.458 115.676 243.686 98.3091 243.533 63.8411 281.213 42.0865C283.474 40.7795 283.5 37.5143 281.267 36.1628 259.174 22.8214 230.665 21.6378 206.802 35.6874 179.251 51.9079 166.156 84.5079 172.97 114.615L36.9166 250.669C21.893 265.692 21.893 290.053 36.9166 305.081 51.9404 320.103 76.3008 320.103 91.3288 305.081L227.308 169.102C244.616 173.109 263.423 170.836 280.025 161.25 303.773 147.539 316.8 122.447 316.296 96.8396 316.242 94.2301 313.397 92.6159 311.135 93.9218Z" stroke="#FFFFFF" stroke-width="4.42719" fill="#0F1113" transform="matrix(1.00292 0 0 1 2012 1390)"/></g></g></g></g></svg>