<svg width="550" height="550" xmlns="http://www.w3.org/2000/svg" xmlns:xlink="http://www.w3.org/1999/xlink" overflow="hidden"><defs><clipPath id="clip0"><rect x="36" y="639" width="550" height="550"/></clipPath><radialGradient cx="762000" cy="762000" r="1.07763e+06" gradientUnits="userSpaceOnUse" spreadMethod="pad" id="fill1" gradientTransform="matrix(0.000360892 0 0 0.000360892 36.0001 639)"><stop offset="0" stop-color="#D9D9D9"/><stop offset="0.17" stop-color="#D9D9D9"/><stop offset="0.33" stop-color="#7F7F7F"/><stop offset="1" stop-color="#0F1113"/></radialGradient><radialGradient cx="374072" cy="432262" r="571647" fx="374072" fy="432262" gradientUnits="userSpaceOnUse" spreadMethod="pad" id="fill2" gradientTransform="matrix(0.000360892 0 0 0.000360892 56 659)"><stop offset="0" stop-color="#FFFFFF"/><stop offset="0.54" stop-color="#7F7F7F" stop-opacity="0"/><stop offset="1" stop-color="#7F7F7F" stop-opacity="0"/></radialGradient><linearGradient x1="309" y1="645" x2="309" y2="799" gradientUnits="userSpaceOnUse" spreadMethod="reflect" id="fill3"><stop offset="0" stop-color="#F5FAFF" stop-opacity="0.231373"/><stop offset="0.32" stop-color="#FFFFFF" stop-opacity="0"/><stop offset="1" stop-color="#FFFFFF" stop-opacity="0"/></linearGradient><radialGradient cx="94211" cy="102524" r="139236" gradientUnits="userSpaceOnUse" spreadMethod="pad" id="fill4" gradientTransform="matrix(0.000360892 0 0 0.000360892 74.9999 768)"><stop offset="0" stop-color="#FFFFFF"/><stop offset="0.54" stop-color="#7F7F7F" stop-opacity="0"/><stop offset="1" stop-color="#7F7F7F" stop-opacity="0"/></radialGradient><radialGradient cx="110836" cy="120534" r="163747" fx="110836" fy="120534" gradientUnits="userSpaceOnUse" spreadMethod="pad" id="fill5" gradientTransform="matrix(0.000360892 0 0 0.000360892 104 813)"><stop offset="0" stop-color="#FFFFFF"/><stop offset="0.54" stop-color="#7F7F7F" stop-opacity="0"/><stop offset="1" stop-color="#7F7F7F" stop-opacity="0"/></radialGradient><radialGradient cx="292331" cy="278477" r="403741" fx="292331" fy="278476" gradientUnits="userSpaceOnUse" spreadMethod="pad" id="fill6" gradientTransform="matrix(0.000360892 0 0 0.000360892 325 944)"><stop offset="0" stop-color="#FFFFFF"/><stop offset="0.54" stop-color="#7F7F7F" stop-opacity="0"/><stop offset="1" stop-color="#7F7F7F" stop-opacity="0"/></radialGradient><radialGradient cx="72044" cy="77585" r="105876" gradientUnits="userSpaceOnUse" spreadMethod="pad" id="fill7" gradientTransform="matrix(0.000360892 0 0 0.000360892 470 1072)"><stop offset="0" stop-color="#FFFFFF"/><stop offset="0.54" stop-color="#7F7F7F" stop-opacity="0"/><stop offset="1" stop-color="#7F7F7F" stop-opacity="0"/></radialGradient><radialGradient cx="77585.5" cy="84513" r="114726" fx="77585.5" fy="84513" gradientUnits="userSpaceOnUse" spreadMethod="pad" id="fill8" gradientTransform="matrix(0.000360892 0 0 0.000360892 454 989)"><stop offset="0" stop-color="#FFFFFF"/><stop offset="0.54" stop-color="#7F7F7F" stop-opacity="0"/><stop offset="1" stop-color="#7F7F7F" stop-opacity="0"/></radialGradient><clipPath id="clip9"><rect x="56" y="654" width="386" height="386"/></clipPath><clipPath id="clip10"><rect x="56" y="654" width="386" height="386"/></clipPath><clipPath id="clip11"><rect x="56" y="654" width="386" height="386"/></clipPath><clipPath id="clip12"><rect x="234" y="831" width="344" height="343"/></clipPath><clipPath id="clip13"><rect x="234" y="831" width="344" height="343"/></clipPath><clipPath id="clip14"><rect x="234" y="831" width="344" height="343"/></clipPath></defs><g clip-path="url(#clip0)" transform="translate(-36 -639)"><rect x="36.0001" y="639" width="550" height="550" fill="url(#fill1)"/><path d="M56 815C56 728.844 116.442 659 191 659 265.558 659 326 728.844 326 815 326 901.156 265.558 971 191 971 116.442 971 56 901.156 56 815Z" fill="url(#fill2)" fill-rule="evenodd"/><path d="M69.7873 645 548.213 645C564.112 645 577 664.864 577 689.368L577 799C577 760.824 556.92 729.876 532.15 729.876L85.8503 729.876C61.0801 729.876 40.9999 760.824 40.9999 799L40.9999 689.368C40.9999 664.864 53.8884 645 69.7873 645Z" fill="url(#fill3)" fill-rule="evenodd"/><path d="M74.9999 805C74.9999 784.565 90.2223 768 109 768 127.778 768 143 784.565 143 805 143 825.434 127.778 842 109 842 90.2223 842 74.9999 825.434 74.9999 805Z" fill="url(#fill4)" fill-rule="evenodd"/><path d="M104 856.5C104 832.476 121.909 813 144 813 166.091 813 184 832.476 184 856.5 184 880.524 166.091 900 144 900 121.909 900 104 880.524 104 856.5Z" fill="url(#fill5)" fill-rule="evenodd"/><path d="M325 1044.5C325 988.995 372.234 944 430.5 944 488.766 944 536 988.995 536 1044.5 536 1100 488.766 1145 430.5 1145 372.234 1145 325 1100 325 1044.5Z" fill="url(#fill6)" fill-rule="evenodd"/><path d="M470 1100C470 1084.54 481.641 1072 496 1072 510.359 1072 522 1084.54 522 1100 522 1115.46 510.359 1128 496 1128 481.641 1128 470 1115.46 470 1100Z" fill="url(#fill7)" fill-rule="evenodd"/><path d="M454 1019.5C454 1002.66 466.536 989 482 989 497.464 989 510 1002.66 510 1019.5 510 1036.34 497.464 1050 482 1050 466.536 1050 454 1036.34 454 1019.5Z" fill="url(#fill8)" fill-rule="evenodd"/><g clip-path="url(#clip9)"><g clip-path="url(#clip10)"><g clip-path="url(#clip11)"><path d="M101.244 843.013 101.244 751.485C101.244 747.954 99.3603 744.69 96.3012 742.924 93.2433 741.158 89.4748 741.158 86.4157 742.924 83.3577 744.69 81.4729 747.954 81.4729 751.485L81.4729 843.013C81.4729 846.544 83.3578 849.808 86.4157 851.574 89.4748 853.34 93.2433 853.34 96.3012 851.574 99.3603 849.808 101.244 846.544 101.244 843.013Z" stroke="#FFFFFF" stroke-width="4.58333" fill="#0F1113"/><path d="M279.428 840.042 353.717 840.042 381.967 887.737 234.127 887.737 234.127 793.531 279.429 793.531Z" stroke="#FFFFFF" stroke-width="4.58333" fill="#0F1113"/><path d="M285.126 834.331 350.329 834.331 335.651 809.544C329.771 799.618 319.091 793.531 307.553 793.53L285.128 793.53Z" stroke="#FFFFFF" stroke-width="4.58333" fill="#0F1113"/><path d="M424.958 919.567 72.0417 919.567C72.7498 912.412 76.0948 905.775 81.4235 900.947 86.7522 896.12 93.6867 893.446 100.877 893.446L396.128 893.446C403.318 893.448 410.251 896.121 415.577 900.948 420.906 905.776 424.253 912.412 424.958 919.567Z" stroke="#FFFFFF" stroke-width="4.58333" fill="#0F1113"/><path d="M424.958 925.278 72.0417 925.278C72.7498 932.432 76.0948 939.07 81.4235 943.897 86.7522 948.725 93.6867 951.398 100.877 951.398L396.128 951.398C403.318 951.397 410.251 948.723 415.577 943.896 420.906 939.068 424.253 932.432 424.958 925.278Z" stroke="#FFFFFF" stroke-width="4.58333" fill="#0F1113"/><path d="M162.064 778.115 106.942 782.53 106.942 811.971 126.214 813.518 126.214 863.565 122.437 863.565 122.437 887.74 162.602 887.74 162.602 863.565 158.804 863.565 158.804 816.129 162.062 816.373 162.063 816.373C163.738 816.504 165.391 815.93 166.624 814.79 167.857 813.651 168.559 812.048 168.559 810.367L168.559 784.105C168.559 782.426 167.857 780.823 166.624 779.683 165.391 778.542 163.738 777.968 162.063 778.1Z" stroke="#FFFFFF" stroke-width="4.58333" fill="#0F1113"/></g></g></g><g clip-path="url(#clip12)"><g clip-path="url(#clip13)"><g clip-path="url(#clip14)"><path d="M311.135 93.9218 273.458 115.676 243.686 98.3091 243.533 63.8411 281.213 42.0865C283.474 40.7795 283.5 37.5143 281.267 36.1628 259.174 22.8214 230.665 21.6378 206.802 35.6874 179.251 51.9079 166.156 84.5079 172.97 114.615L36.9166 250.669C21.893 265.692 21.893 290.053 36.9166 305.081 51.9404 320.103 76.3008 320.103 91.3288 305.081L227.308 169.102C244.616 173.109 263.423 170.836 280.025 161.25 303.773 147.539 316.8 122.447 316.296 96.8396 316.242 94.2301 313.397 92.6159 311.135 93.9218Z" stroke="#FFFFFF" stroke-width="4.42719" fill="#0F1113" transform="matrix(1.00292 0 0 1 234 832)"/></g></g></g></g></svg>