<svg width="550" height="550" xmlns="http://www.w3.org/2000/svg" xmlns:xlink="http://www.w3.org/1999/xlink" overflow="hidden"><defs><clipPath id="clip0"><rect x="2399" y="625" width="550" height="550"/></clipPath><radialGradient cx="762000" cy="762000" r="1.07763e+06" gradientUnits="userSpaceOnUse" spreadMethod="pad" id="fill1" gradientTransform="matrix(0.000360892 0 0 0.000360892 2399 625)"><stop offset="0" stop-color="#D9D9D9"/><stop offset="0.17" stop-color="#D9D9D9"/><stop offset="0.33" stop-color="#7F7F7F"/><stop offset="1" stop-color="#0F1113"/></radialGradient><radialGradient cx="372688" cy="432262" r="570742" fx="372688" fy="432262" gradientUnits="userSpaceOnUse" spreadMethod="pad" id="fill2" gradientTransform="matrix(0.000360892 0 0 0.000360892 2420 645)"><stop offset="0" stop-color="#FFFFFF"/><stop offset="0.54" stop-color="#7F7F7F" stop-opacity="0"/><stop offset="1" stop-color="#7F7F7F" stop-opacity="0"/></radialGradient><linearGradient x1="2672.5" y1="631" x2="2672.5" y2="785" gradientUnits="userSpaceOnUse" spreadMethod="reflect" id="fill3"><stop offset="0" stop-color="#F5FAFF" stop-opacity="0.231373"/><stop offset="0.32" stop-color="#FFFFFF" stop-opacity="0"/><stop offset="1" stop-color="#FFFFFF" stop-opacity="0"/></linearGradient><radialGradient cx="94211" cy="102524" r="139237" fx="94211" fy="102524" gradientUnits="userSpaceOnUse" spreadMethod="pad" id="fill4" gradientTransform="matrix(0.000360892 0 0 0.000360892 2438 754)"><stop offset="0" stop-color="#FFFFFF"/><stop offset="0.54" stop-color="#7F7F7F" stop-opacity="0"/><stop offset="1" stop-color="#7F7F7F" stop-opacity="0"/></radialGradient><radialGradient cx="110836" cy="120534" r="163747" fx="110836" fy="120534" gradientUnits="userSpaceOnUse" spreadMethod="pad" id="fill5" gradientTransform="matrix(0.000360892 0 0 0.000360892 2467 799)"><stop offset="0" stop-color="#FFFFFF"/><stop offset="0.54" stop-color="#7F7F7F" stop-opacity="0"/><stop offset="1" stop-color="#7F7F7F" stop-opacity="0"/></radialGradient><radialGradient cx="292330" cy="278476" r="403740" gradientUnits="userSpaceOnUse" spreadMethod="pad" id="fill6" gradientTransform="matrix(0.000360892 0 0 0.000360892 2688 930)"><stop offset="0" stop-color="#FFFFFF"/><stop offset="0.54" stop-color="#7F7F7F" stop-opacity="0"/><stop offset="1" stop-color="#7F7F7F" stop-opacity="0"/></radialGradient><radialGradient cx="70658.5" cy="77585.5" r="104939" fx="70658.5" fy="77585.5" gradientUnits="userSpaceOnUse" spreadMethod="pad" id="fill7" gradientTransform="matrix(0.000360892 0 0 0.000360892 2834 1058)"><stop offset="0" stop-color="#FFFFFF"/><stop offset="0.54" stop-color="#7F7F7F" stop-opacity="0"/><stop offset="1" stop-color="#7F7F7F" stop-opacity="0"/></radialGradient><radialGradient cx="77585.5" cy="84513" r="114726" fx="77585.5" fy="84513" gradientUnits="userSpaceOnUse" spreadMethod="pad" id="fill8" gradientTransform="matrix(0.000360892 0 0 0.000360892 2817 975)"><stop offset="0" stop-color="#FFFFFF"/><stop offset="0.54" stop-color="#7F7F7F" stop-opacity="0"/><stop offset="1" stop-color="#7F7F7F" stop-opacity="0"/></radialGradient><clipPath id="clip9"><rect x="2462" y="677" width="375" height="375"/></clipPath><clipPath id="clip10"><rect x="2462" y="677" width="375" height="375"/></clipPath><clipPath id="clip11"><rect x="2462" y="677" width="375" height="375"/></clipPath><clipPath id="clip12"><rect x="2598" y="818" width="343" height="343"/></clipPath><clipPath id="clip13"><rect x="2598" y="818" width="343" height="343"/></clipPath><clipPath id="clip14"><rect x="2598" y="818" width="343" height="343"/></clipPath></defs><g clip-path="url(#clip0)" transform="translate(-2399 -625)"><rect x="2399" y="625" width="550" height="550" fill="url(#fill1)"/><path d="M2420 801C2420 714.844 2480.22 645 2554.5 645 2628.78 645 2689 714.844 2689 801 2689 887.156 2628.78 957 2554.5 957 2480.22 957 2420 887.156 2420 801Z" fill="url(#fill2)" fill-rule="evenodd"/><path d="M2433.73 631 2911.27 631C2927.14 631 2940 650.864 2940 675.368L2940 785C2940 746.824 2919.96 715.876 2895.23 715.876L2449.77 715.876C2425.04 715.876 2405 746.824 2405 785L2405 675.368C2405 650.864 2417.86 631 2433.73 631Z" fill="url(#fill3)" fill-rule="evenodd"/><path d="M2438 791C2438 770.565 2453.22 754 2472 754 2490.78 754 2506 770.565 2506 791 2506 811.435 2490.78 828 2472 828 2453.22 828 2438 811.435 2438 791Z" fill="url(#fill4)" fill-rule="evenodd"/><path d="M2467 842.5C2467 818.475 2484.91 799 2507 799 2529.09 799 2547 818.475 2547 842.5 2547 866.524 2529.09 886 2507 886 2484.91 886 2467 866.524 2467 842.5Z" fill="url(#fill5)" fill-rule="evenodd"/><path d="M2688 1030.5C2688 974.995 2735.23 930 2793.5 930 2851.77 930 2899 974.995 2899 1030.5 2899 1086 2851.77 1131 2793.5 1131 2735.23 1131 2688 1086 2688 1030.5Z" fill="url(#fill6)" fill-rule="evenodd"/><path d="M2834 1086C2834 1070.54 2845.42 1058 2859.5 1058 2873.58 1058 2885 1070.54 2885 1086 2885 1101.46 2873.58 1114 2859.5 1114 2845.42 1114 2834 1101.46 2834 1086Z" fill="url(#fill7)" fill-rule="evenodd"/><path d="M2817 1005.5C2817 988.655 2829.54 975 2845 975 2860.46 975 2873 988.655 2873 1005.5 2873 1022.34 2860.46 1036 2845 1036 2829.54 1036 2817 1022.34 2817 1005.5Z" fill="url(#fill8)" fill-rule="evenodd"/><g clip-path="url(#clip9)"><g clip-path="url(#clip10)"><g clip-path="url(#clip11)"><path d="M2799.69 1000.95C2798.57 996.318 2795.79 992.294 2791 992.294L2790.31 992.294 2790.31 795.884C2790.31 791.875 2787.05 788.646 2783.06 788.646L2759.45 788.646C2755.46 788.646 2752.22 791.876 2752.22 795.884L2752.3 1043.33C2752.3 1048.09 2756.19 1052.01 2760.98 1052.01L2801.23 1052.01C2807.77 1052.01 2809.93 1048.09 2809.93 1043.33Z" stroke="#FFFFFF" stroke-width="4.61728" fill="#0F1113"/><path d="M2500.31 1000.95C2501.43 996.318 2504.21 992.294 2509.01 992.294L2509.7 992.294 2509.7 795.884C2509.7 791.875 2512.95 788.646 2516.94 788.646L2540.56 788.646C2544.53 788.646 2547.79 791.876 2547.79 795.884L2547.7 1043.33C2547.7 1048.09 2543.82 1052.01 2539.03 1052.01L2498.78 1052.01C2492.24 1052 2490.08 1048.09 2490.08 1043.32Z" stroke="#FFFFFF" stroke-width="4.61728" fill="#0F1113"/><path d="M2742.55 795.882C2742.55 791.873 2739.31 788.644 2735.32 788.644L2563.58 788.642C2559.57 788.642 2556.34 791.872 2556.34 795.88L2556.37 982.148 2564.21 999.92C2566.52 1003.93 2569.9 1007.15 2575.63 1007.15L2627.28 1007.15C2626.96 1007.89 2617.96 1044.75 2617.96 1044.75 2617.96 1048.75 2619.26 1052 2625.21 1052L2673.69 1052C2679.44 1052 2680.93 1048.75 2680.93 1044.75 2680.93 1044.75 2671.96 1007.89 2671.65 1007.15L2723.3 1007.15C2729.03 1007.15 2732.4 1003.93 2734.72 999.92L2742.56 982.148 2742.56 795.88ZM2696.72 851.742C2696.72 853.833 2695.03 855.53 2692.93 855.53L2605.96 855.529C2603.86 855.529 2602.17 853.835 2602.17 851.74L2602.17 848.731C2602.17 846.639 2603.86 844.947 2605.96 844.947L2692.93 844.947C2695.02 844.947 2696.72 846.636 2696.72 848.731ZM2696.72 829.26C2696.72 831.347 2695.03 833.044 2692.93 833.044L2605.96 833.044C2603.86 833.044 2602.17 831.35 2602.17 829.26L2602.17 826.251C2602.17 824.159 2603.86 822.462 2605.96 822.462L2692.93 822.462C2695.02 822.462 2696.72 824.155 2696.72 826.251ZM2696.72 806.775C2696.72 808.862 2695.03 810.559 2692.93 810.559L2605.96 810.559C2603.86 810.559 2602.17 808.865 2602.17 806.775L2602.17 803.76C2602.17 801.669 2603.86 799.972 2605.96 799.972L2692.93 799.972C2695.02 799.972 2696.72 801.665 2696.72 803.76Z" stroke="#FFFFFF" stroke-width="4.61728" fill="#0F1113"/><path d="M2649.44 723.619C2643.08 723.619 2637.94 728.774 2637.94 735.123 2637.94 741.472 2643.08 746.625 2649.44 746.625 2655.79 746.625 2660.95 741.474 2660.95 735.123 2660.95 728.774 2655.79 723.619 2649.44 723.619ZM2649.44 678C2598.02 678 2556.34 719.685 2556.34 771.107 2556.34 773.579 2556.52 776.009 2556.71 778.439L2742.18 778.439C2742.36 776.008 2742.55 773.58 2742.55 771.107 2742.55 719.685 2700.85 678 2649.44 678ZM2667.76 749.873C2667.76 751.863 2666.15 753.476 2664.16 753.476L2634.75 753.476C2632.76 753.476 2631.15 751.863 2631.15 749.873L2631.15 720.464C2631.15 718.474 2632.76 716.861 2634.75 716.861L2664.16 716.861C2666.15 716.861 2667.76 718.474 2667.76 720.464ZM2704.47 763.554C2698.11 763.554 2692.97 758.403 2692.97 752.053 2692.97 745.704 2698.11 740.548 2704.47 740.548 2710.82 740.548 2715.98 745.704 2715.98 752.053 2715.98 758.403 2710.82 763.554 2704.47 763.554Z" stroke="#FFFFFF" stroke-width="4.61728" fill="#0F1113"/></g></g></g><g clip-path="url(#clip12)"><g clip-path="url(#clip13)"><g clip-path="url(#clip14)"><path d="M2909.13 911.922 2871.46 933.677 2841.69 916.309 2841.53 881.841 2879.21 860.087C2881.47 858.78 2881.5 855.514 2879.27 854.163 2857.17 840.821 2828.67 839.638 2804.8 853.688 2777.25 869.908 2764.16 902.508 2770.97 932.615L2634.92 1068.67C2619.89 1083.69 2619.89 1108.05 2634.92 1123.08 2649.94 1138.1 2674.3 1138.1 2689.33 1123.08L2825.31 987.102C2842.62 991.109 2861.42 988.836 2878.02 979.25 2901.77 965.539 2914.8 940.447 2914.3 914.84 2914.24 912.23 2911.4 910.616 2909.13 911.922Z" stroke="#FFFFFF" stroke-width="4.42719" fill="#0F1113"/></g></g></g></g></svg>