<svg width="550" height="550" xmlns="http://www.w3.org/2000/svg" xmlns:xlink="http://www.w3.org/1999/xlink" overflow="hidden"><defs><clipPath id="clip0"><rect x="1225" y="1197" width="550" height="550"/></clipPath><radialGradient cx="762000" cy="762000" r="1.07763e+06" gradientUnits="userSpaceOnUse" spreadMethod="pad" id="fill1" gradientTransform="matrix(0.000360892 0 0 0.000360892 1225 1197)"><stop offset="0" stop-color="#D9D9D9"/><stop offset="0.17" stop-color="#D9D9D9"/><stop offset="0.33" stop-color="#7F7F7F"/><stop offset="1" stop-color="#0F1113"/></radialGradient><radialGradient cx="374072" cy="432262" r="571647" fx="374072" fy="432262" gradientUnits="userSpaceOnUse" spreadMethod="pad" id="fill2" gradientTransform="matrix(0.000360892 0 0 0.000360892 1245 1217)"><stop offset="0" stop-color="#FFFFFF"/><stop offset="0.54" stop-color="#7F7F7F" stop-opacity="0"/><stop offset="1" stop-color="#7F7F7F" stop-opacity="0"/></radialGradient><linearGradient x1="1497.5" y1="1203" x2="1497.5" y2="1357" gradientUnits="userSpaceOnUse" spreadMethod="reflect" id="fill3"><stop offset="0" stop-color="#F5FAFF" stop-opacity="0.231373"/><stop offset="0.32" stop-color="#FFFFFF" stop-opacity="0"/><stop offset="1" stop-color="#FFFFFF" stop-opacity="0"/></linearGradient><radialGradient cx="95596.5" cy="101139" r="139168" fx="95596.5" fy="101138" gradientUnits="userSpaceOnUse" spreadMethod="pad" id="fill4" gradientTransform="matrix(0.000360892 0 0 0.000360892 1263 1326)"><stop offset="0" stop-color="#FFFFFF"/><stop offset="0.54" stop-color="#7F7F7F" stop-opacity="0"/><stop offset="1" stop-color="#7F7F7F" stop-opacity="0"/></radialGradient><radialGradient cx="112222" cy="120534" r="164688" gradientUnits="userSpaceOnUse" spreadMethod="pad" id="fill5" gradientTransform="matrix(0.000360892 0 0 0.000360892 1292 1371)"><stop offset="0" stop-color="#FFFFFF"/><stop offset="0.54" stop-color="#7F7F7F" stop-opacity="0"/><stop offset="1" stop-color="#7F7F7F" stop-opacity="0"/></radialGradient><radialGradient cx="292331" cy="278477" r="403741" fx="292331" fy="278476" gradientUnits="userSpaceOnUse" spreadMethod="pad" id="fill6" gradientTransform="matrix(0.000360892 0 0 0.000360892 1514 1502)"><stop offset="0" stop-color="#FFFFFF"/><stop offset="0.54" stop-color="#7F7F7F" stop-opacity="0"/><stop offset="1" stop-color="#7F7F7F" stop-opacity="0"/></radialGradient><radialGradient cx="72043.5" cy="77585.5" r="105876" fx="72043.5" fy="77585.5" gradientUnits="userSpaceOnUse" spreadMethod="pad" id="fill7" gradientTransform="matrix(0.000360892 0 0 0.000360892 1659 1630)"><stop offset="0" stop-color="#FFFFFF"/><stop offset="0.54" stop-color="#7F7F7F" stop-opacity="0"/><stop offset="1" stop-color="#7F7F7F" stop-opacity="0"/></radialGradient><radialGradient cx="77585.5" cy="84513" r="114726" fx="77585.5" fy="84513" gradientUnits="userSpaceOnUse" spreadMethod="pad" id="fill8" gradientTransform="matrix(0.000360892 0 0 0.000360892 1643 1547)"><stop offset="0" stop-color="#FFFFFF"/><stop offset="0.54" stop-color="#7F7F7F" stop-opacity="0"/><stop offset="1" stop-color="#7F7F7F" stop-opacity="0"/></radialGradient><clipPath id="clip9"><rect x="1248" y="1221" width="409" height="374"/></clipPath><clipPath id="clip10"><rect x="1248" y="1221" width="409" height="374"/></clipPath><clipPath id="clip11"><rect x="1248" y="1221" width="409" height="374"/></clipPath><clipPath id="clip12"><rect x="1423" y="1390" width="343" height="343"/></clipPath><clipPath id="clip13"><rect x="1423" y="1390" width="343" height="343"/></clipPath><clipPath id="clip14"><rect x="1423" y="1390" width="343" height="343"/></clipPath></defs><g clip-path="url(#clip0)" transform="translate(-1225 -1197)"><rect x="1225" y="1197" width="550" height="550" fill="url(#fill1)"/><path d="M1245 1373C1245 1286.84 1305.44 1217 1380 1217 1454.56 1217 1515 1286.84 1515 1373 1515 1459.16 1454.56 1529 1380 1529 1305.44 1529 1245 1459.16 1245 1373Z" fill="url(#fill2)" fill-rule="evenodd"/><path d="M1258.73 1203 1736.27 1203C1752.14 1203 1765 1222.86 1765 1247.37L1765 1357C1765 1318.82 1744.96 1287.88 1720.23 1287.88L1274.77 1287.88C1250.04 1287.88 1230 1318.82 1230 1357L1230 1247.37C1230 1222.86 1242.86 1203 1258.73 1203Z" fill="url(#fill3)" fill-rule="evenodd"/><path d="M1263 1362.5C1263 1342.34 1278.45 1326 1297.5 1326 1316.55 1326 1332 1342.34 1332 1362.5 1332 1382.66 1316.55 1399 1297.5 1399 1278.45 1399 1263 1382.66 1263 1362.5Z" fill="url(#fill4)" fill-rule="evenodd"/><path d="M1292 1414.5C1292 1390.48 1310.13 1371 1332.5 1371 1354.87 1371 1373 1390.48 1373 1414.5 1373 1438.52 1354.87 1458 1332.5 1458 1310.13 1458 1292 1438.52 1292 1414.5Z" fill="url(#fill5)" fill-rule="evenodd"/><path d="M1514 1602.5C1514 1547 1561.23 1502 1619.5 1502 1677.77 1502 1725 1547 1725 1602.5 1725 1658 1677.77 1703 1619.5 1703 1561.23 1703 1514 1658 1514 1602.5Z" fill="url(#fill6)" fill-rule="evenodd"/><path d="M1659 1658C1659 1642.54 1670.64 1630 1685 1630 1699.36 1630 1711 1642.54 1711 1658 1711 1673.46 1699.36 1686 1685 1686 1670.64 1686 1659 1673.46 1659 1658Z" fill="url(#fill7)" fill-rule="evenodd"/><path d="M1643 1577.5C1643 1560.66 1655.54 1547 1671 1547 1686.46 1547 1699 1560.66 1699 1577.5 1699 1594.34 1686.46 1608 1671 1608 1655.54 1608 1643 1594.34 1643 1577.5Z" fill="url(#fill8)" fill-rule="evenodd"/><g clip-path="url(#clip9)"><g clip-path="url(#clip10)"><g clip-path="url(#clip11)"><path d="M58.4375 46.75 70.125 46.75 70.125 128.562 58.4375 128.562Z" stroke="#FFFFFF" stroke-width="4.22598" fill="#0F1113" transform="matrix(1.09091 0 0 1 1249 1221)"/><path d="M319.49 288.681C316.398 281.51 309.938 276.35 302.264 274.916 294.588 273.481 286.702 275.96 281.229 281.53 275.755 287.1 273.414 295.028 274.982 302.677 276.55 310.327 281.823 316.694 289.045 319.661 296.268 322.625 304.494 321.802 310.985 317.464 317.479 313.125 321.384 305.84 321.406 298.031 321.403 294.817 320.749 291.637 319.49 288.681ZM298.031 309.719C294.931 309.719 291.958 308.488 289.766 306.295 287.574 304.104 286.343 301.131 286.343 298.031 286.343 294.931 287.574 291.959 289.766 289.767 291.958 287.575 294.931 286.344 298.031 286.344 301.13 286.344 304.103 287.575 306.295 289.767 308.487 291.958 309.718 294.931 309.718 298.031 309.718 301.131 308.487 304.104 306.295 306.295 304.103 308.488 301.13 309.719 298.031 309.719Z" stroke="#FFFFFF" stroke-width="4.22598" fill="#0F1113" transform="matrix(1.09091 0 0 1 1249 1221)"/><path d="M155.865 288.681C152.772 281.51 146.313 276.35 138.639 274.916 130.963 273.481 123.077 275.96 117.604 281.53 112.13 287.1 109.789 295.028 111.357 302.677 112.925 310.327 118.198 316.694 125.42 319.661 132.643 322.625 140.869 321.802 147.36 317.464 153.853 313.125 157.758 305.84 157.781 298.031 157.777 294.817 157.124 291.637 155.865 288.681ZM134.406 309.719C131.306 309.719 128.333 308.488 126.141 306.295 123.949 304.104 122.718 301.131 122.718 298.031 122.718 294.931 123.949 291.959 126.141 289.767 128.333 287.575 131.306 286.344 134.406 286.344 137.505 286.344 140.478 287.575 142.67 289.767 144.862 291.958 146.093 294.931 146.093 298.031 146.093 301.131 144.862 304.104 142.67 306.295 140.478 308.488 137.505 309.719 134.406 309.719Z" stroke="#FFFFFF" stroke-width="4.22598" fill="#0F1113" transform="matrix(1.09091 0 0 1 1249 1221)"/><path d="M74.052 288.681C70.9596 281.51 64.501 276.35 56.8262 274.916 49.1501 273.481 41.2647 275.96 35.7912 281.53 30.3177 287.1 27.9764 295.028 29.5444 302.677 31.1124 310.327 36.3852 316.694 43.6072 319.661 50.8303 322.625 59.0565 321.802 65.5479 317.464 72.0405 313.125 75.946 305.84 75.9681 298.031 75.9644 294.817 75.3121 291.637 74.052 288.681ZM52.5931 309.719C49.4936 309.719 46.5206 308.488 44.329 306.295 42.1364 304.104 40.9056 301.131 40.9056 298.031 40.9056 294.931 42.1364 291.959 44.329 289.767 46.5203 287.575 49.4933 286.344 52.5931 286.344 55.693 286.344 58.6656 287.575 60.8573 289.767 63.0499 291.958 64.2806 294.931 64.2806 298.031 64.2806 301.131 63.0499 304.104 60.8573 306.295 58.666 308.488 55.693 309.719 52.5931 309.719Z" stroke="#FFFFFF" stroke-width="4.22598" fill="#0F1113" transform="matrix(1.09091 0 0 1 1249 1221)"/><path d="M23.375 233.75 350.625 233.75 350.625 245.438 23.375 245.438Z" stroke="#FFFFFF" stroke-width="4.22598" fill="#0F1113" transform="matrix(1.09091 0 0 1 1249 1221)"/><path d="M323.853 274.416C324.314 274.919 324.772 275.422 325.202 275.948 325.788 276.69 326.371 277.473 326.913 278.285 327.294 278.834 327.686 279.372 328.039 279.951 328.154 280.143 328.3 280.319 328.416 280.535L329.965 280.535 345.551 257.16 23.3817 257.16 23.3817 278.665C24.1365 277.543 24.9558 276.466 25.836 275.439L25.8884 275.368 25.8884 275.369C26.9513 274.135 28.0944 272.972 29.313 271.892 29.5467 271.688 29.7975 271.519 30.0313 271.308 30.9906 270.495 31.9913 269.733 33.0298 269.023 33.4512 268.743 33.8894 268.491 34.3217 268.222 35.2274 267.638 36.1452 267.147 37.0974 266.679 37.6063 266.423 38.1199 266.189 38.646 265.961 39.581 265.552 40.5282 265.195 41.4972 264.868 42.0463 264.686 42.5843 264.5 43.1397 264.342 44.1791 264.05 45.2434 263.828 46.3183 263.629 46.8148 263.535 47.2995 263.418 47.8022 263.348 49.3911 263.11 50.9943 262.983 52.6003 262.968 54.2428 262.975 55.8837 263.095 57.509 263.332 58.0411 263.407 58.5488 263.548 59.0749 263.647 60.1436 263.851 61.2138 264.062 62.2598 264.36 62.8442 264.535 63.4285 264.763 64.0129 264.944 64.9479 265.266 65.8708 265.6 66.7715 265.996 67.3558 266.266 67.9402 266.581 68.5246 266.873 69.3658 267.305 70.1964 267.749 71.002 268.246 71.5864 268.603 72.1247 268.983 72.6797 269.369 73.4396 269.907 74.1823 270.462 74.9004 271.057 75.4264 271.489 75.9401 271.934 76.4369 272.401 77.121 273.038 77.7686 273.704 78.4066 274.394 78.8682 274.897 79.3248 275.4 79.7568 275.926 80.3411 276.668 80.9255 277.451 81.4684 278.263 81.8483 278.812 82.2404 279.351 82.591 279.929 82.7079 280.121 82.8541 280.296 82.971 280.513L104.008 280.513C104.131 280.296 104.288 280.11 104.417 279.929 104.71 279.449 105.037 279.006 105.352 278.543 105.966 277.638 106.597 276.755 107.287 275.914 107.655 275.469 108.04 275.049 108.456 274.628 109.163 273.845 109.894 273.097 110.659 272.385 111.098 271.981 111.548 271.595 112.003 271.216 112.783 270.566 113.587 269.952 114.416 269.375 114.925 269.024 115.427 268.68 115.948 268.352 116.795 267.826 117.666 267.353 118.555 266.904 119.103 266.623 119.653 266.319 120.22 266.073 121.143 265.664 122.09 265.326 123.048 264.992 123.633 264.8 124.175 264.577 124.76 264.408 125.812 264.103 126.893 263.888 127.98 263.683 128.494 263.59 128.99 263.45 129.512 263.374L129.51 263.372C132.767 262.888 136.077 262.888 139.334 263.372 139.866 263.447 140.374 263.588 140.9 263.687 141.969 263.892 143.039 264.102 144.085 264.4 144.669 264.576 145.253 264.803 145.838 264.985 146.773 265.306 147.695 265.64 148.596 266.036 149.181 266.306 149.765 266.621 150.35 266.913 151.191 267.345 152.021 267.79 152.827 268.286 153.411 268.643 153.95 269.023 154.505 269.409 155.265 269.947 156.007 270.502 156.725 271.098 157.251 271.53 157.765 271.974 158.262 272.442 158.946 273.078 159.594 273.744 160.232 274.435 160.693 274.937 161.149 275.44 161.582 275.966 162.166 276.709 162.75 277.491 163.293 278.304 163.673 278.853 164.065 279.391 164.416 279.969 164.533 280.162 164.679 280.337 164.796 280.554L185.833 280.554C185.956 280.337 186.113 280.151 186.242 279.969 186.535 279.49 186.862 279.046 187.177 278.584 187.762 277.678 188.422 276.795 189.112 275.954 189.48 275.51 189.865 275.089 190.281 274.668 190.988 273.885 191.719 273.137 192.484 272.425 192.923 272.022 193.373 271.636 193.828 271.256 194.607 270.606 195.412 269.992 196.241 269.415 196.75 269.064 197.252 268.72 197.773 268.392 198.62 267.867 199.491 267.393 200.38 266.944 200.928 266.664 201.478 266.359 202.045 266.113 202.968 265.704 203.915 265.366 204.873 265.032 205.458 264.84 206 264.617 206.585 264.448 207.637 264.143 208.718 263.928 209.805 263.724 210.319 263.63 210.815 263.49 211.337 263.414L211.334 263.413C214.591 262.93 217.901 262.93 221.158 263.413 221.69 263.489 222.197 263.63 222.724 263.728 223.792 263.933 224.863 264.143 225.908 264.442 226.493 264.617 227.077 264.845 227.662 265.026 228.597 265.348 229.519 265.681 230.42 266.078 231.005 266.347 231.589 266.662 232.173 266.955 233.014 267.387 233.845 267.831 234.651 268.328 235.235 268.685 235.773 269.064 236.328 269.45 237.088 269.988 237.831 270.544 238.549 271.139 239.075 271.571 239.589 272.016 240.086 272.483 240.77 273.12 241.417 273.786 242.055 274.476 242.517 274.979 242.973 275.482 243.405 276.008 243.99 276.75 244.574 277.533 245.117 278.345 245.497 278.894 245.889 279.432 246.24 280.011 246.357 280.203 246.503 280.378 246.62 280.595L267.657 280.595C267.78 280.378 267.937 280.192 268.066 280.011 268.358 279.531 268.686 279.088 269.001 278.625 269.585 277.719 270.245 276.837 270.936 275.995 271.303 275.551 271.689 275.131 272.104 274.71 272.812 273.927 273.542 273.178 274.308 272.466 274.746 272.063 275.197 271.677 275.652 271.297 276.431 270.647 277.236 270.034 278.065 269.456 278.574 269.106 279.075 268.761 279.596 268.434 280.444 267.908 281.314 267.434 282.203 266.985 282.752 266.705 283.301 266.401 283.868 266.155 284.791 265.746 285.738 265.407 286.697 265.074 287.281 264.881 287.824 264.659 288.409 264.489 289.46 264.185 290.542 263.97 291.629 263.765 292.142 263.671 292.639 263.531 293.16 263.456L293.159 263.453C296.416 262.971 299.726 262.971 302.983 263.453 303.515 263.529 304.022 263.67 304.548 263.768 305.617 263.973 306.687 264.184 307.733 264.482 308.318 264.657 308.902 264.885 309.486 265.067 310.421 265.388 311.344 265.721 312.246 266.118 312.829 266.387 313.415 266.703 313.998 266.995 314.839 267.427 315.668 267.872 316.476 268.368 317.062 268.725 317.598 269.105 318.152 269.491 318.913 270.029 319.655 270.584 320.375 271.179 320.901 271.612 321.412 272.056 321.911 272.523 322.581 273.061 323.226 273.727 323.862 274.417Z" stroke="#FFFFFF" stroke-width="4.22598" fill="#0F1113" transform="matrix(1.09091 0 0 1 1249 1221)"/><path d="M237.677 288.681C234.585 281.51 228.126 276.35 220.451 274.916 212.775 273.481 204.89 275.96 199.416 281.53 193.943 287.1 191.601 295.028 193.169 302.677 194.737 310.327 200.01 316.694 207.232 319.661 214.455 322.625 222.681 321.802 229.173 317.464 235.665 313.125 239.571 305.84 239.593 298.031 239.589 294.817 238.937 291.637 237.677 288.681ZM216.218 309.719C213.119 309.719 210.146 308.488 207.954 306.295 205.761 304.104 204.531 301.131 204.531 298.031 204.531 294.931 205.761 291.959 207.954 289.767 210.145 287.575 213.118 286.344 216.218 286.344 219.318 286.344 222.291 287.575 224.482 289.767 226.675 291.958 227.906 294.931 227.906 298.031 227.906 301.131 226.675 304.104 224.482 306.295 222.291 308.488 219.318 309.719 216.218 309.719Z" stroke="#FFFFFF" stroke-width="4.22598" fill="#0F1113" transform="matrix(1.09091 0 0 1 1249 1221)"/><path d="M23.375 171.887 23.375 222.062 342.366 222.062 283.928 163.625 31.6404 163.625ZM216.219 175.312C216.219 173.762 216.835 172.276 217.93 171.18 219.026 170.084 220.513 169.468 222.062 169.468L274.656 169.468C276.206 169.468 277.693 170.084 278.788 171.18L313.851 206.242C314.945 207.339 315.562 208.824 315.562 210.374 315.562 211.924 314.945 213.411 313.848 214.506 312.754 215.602 311.269 216.218 309.719 216.218L222.062 216.218C220.513 216.218 219.026 215.602 217.93 214.506 216.835 213.411 216.219 211.924 216.219 210.374ZM46.75 186.999C46.75 185.449 47.3662 183.963 48.4617 182.867L60.1492 171.18C61.245 170.084 62.7313 169.468 64.2812 169.468L157.781 169.468C159.331 169.468 160.818 170.084 161.913 171.18L173.601 182.867C174.697 183.963 175.312 185.449 175.312 186.999L175.312 198.687C175.312 200.237 174.697 201.723 173.601 202.819L161.913 214.506C160.818 215.602 159.331 216.218 157.781 216.218L64.2812 216.218C62.7313 216.218 61.245 215.602 60.1492 214.506L48.4617 202.819C47.3662 201.723 46.75 200.237 46.75 198.687Z" stroke="#FFFFFF" stroke-width="4.22598" fill="#0F1113" transform="matrix(1.09091 0 0 1 1249 1221)"/><path d="M155.363 204.531 163.626 196.268 163.626 189.419 155.363 181.156 66.6998 181.156 58.4369 189.419 58.4369 196.268 66.6998 204.531Z" stroke="#FFFFFF" stroke-width="4.22598" fill="#0F1113" transform="matrix(1.09091 0 0 1 1249 1221)"/><path d="M52.5938 140.25 75.9688 140.25 75.9688 151.938 52.5938 151.938Z" stroke="#FFFFFF" stroke-width="4.22598" fill="#0F1113" transform="matrix(1.09091 0 0 1 1249 1221)"/><path d="M272.238 181.156 227.906 181.156 227.906 204.531 295.613 204.531Z" stroke="#FFFFFF" stroke-width="4.22598" fill="#0F1113" transform="matrix(1.09091 0 0 1 1249 1221)"/></g></g></g><g clip-path="url(#clip12)"><g clip-path="url(#clip13)"><g clip-path="url(#clip14)"><path d="M1734.13 1483.92 1696.46 1505.68 1666.69 1488.31 1666.53 1453.84 1704.21 1432.09C1706.47 1430.78 1706.5 1427.51 1704.27 1426.16 1682.17 1412.82 1653.67 1411.64 1629.8 1425.69 1602.25 1441.91 1589.16 1474.51 1595.97 1504.62L1459.92 1640.67C1444.89 1655.69 1444.89 1680.05 1459.92 1695.08 1474.94 1710.1 1499.3 1710.1 1514.33 1695.08L1650.31 1559.1C1667.62 1563.11 1686.42 1560.84 1703.02 1551.25 1726.77 1537.54 1739.8 1512.45 1739.3 1486.84 1739.24 1484.23 1736.4 1482.62 1734.13 1483.92Z" stroke="#FFFFFF" stroke-width="4.42719" fill="#0F1113"/></g></g></g></g></svg>