<svg width="550" height="550" xmlns="http://www.w3.org/2000/svg" xmlns:xlink="http://www.w3.org/1999/xlink" overflow="hidden"><defs><clipPath id="clip0"><rect x="234" y="156" width="550" height="550"/></clipPath><radialGradient cx="762000" cy="762000" r="1.07763e+06" gradientUnits="userSpaceOnUse" spreadMethod="pad" id="fill1" gradientTransform="matrix(0.000360892 0 0 0.000360892 234 156)"><stop offset="0" stop-color="#FFFFCC"/><stop offset="0.17" stop-color="#FFFFCC"/><stop offset="0.33" stop-color="#00B050"/><stop offset="1" stop-color="#0F1113"/></radialGradient><linearGradient x1="507.5" y1="162" x2="507.5" y2="316" gradientUnits="userSpaceOnUse" spreadMethod="reflect" id="fill2"><stop offset="0" stop-color="#F5FAFF" stop-opacity="0.231373"/><stop offset="0.32" stop-color="#FFFFFF" stop-opacity="0"/><stop offset="1" stop-color="#FFFFFF" stop-opacity="0"/></linearGradient><radialGradient cx="94211" cy="101138" r="138219" gradientUnits="userSpaceOnUse" spreadMethod="pad" id="fill3" gradientTransform="matrix(0.000360892 0 0 0.000360892 238 203)"><stop offset="0" stop-color="#FFFFCC"/><stop offset="0.54" stop-color="#92D050" stop-opacity="0"/><stop offset="1" stop-color="#92D050" stop-opacity="0"/></radialGradient><radialGradient cx="112222" cy="120535" r="164689" fx="112222" fy="120535" gradientUnits="userSpaceOnUse" spreadMethod="pad" id="fill4" gradientTransform="matrix(0.000360892 0 0 0.000360892 267 248)"><stop offset="0" stop-color="#FFFFCC"/><stop offset="0.54" stop-color="#92D050" stop-opacity="0"/><stop offset="1" stop-color="#92D050" stop-opacity="0"/></radialGradient><radialGradient cx="292331" cy="278476" r="403740" gradientUnits="userSpaceOnUse" spreadMethod="pad" id="fill5" gradientTransform="matrix(0.000360892 0 0 0.000360892 571 488)"><stop offset="0" stop-color="#FFFFCC"/><stop offset="0.54" stop-color="#92D050" stop-opacity="0"/><stop offset="1" stop-color="#92D050" stop-opacity="0"/></radialGradient><radialGradient cx="243840" cy="282633" r="373282" gradientUnits="userSpaceOnUse" spreadMethod="pad" id="fill6" gradientTransform="matrix(0.000360892 0 0 0.000360892 267 163)"><stop offset="0" stop-color="#FFFFCC"/><stop offset="0.54" stop-color="#92D050" stop-opacity="0"/><stop offset="1" stop-color="#92D050" stop-opacity="0"/></radialGradient><radialGradient cx="70658" cy="77585.5" r="104938" gradientUnits="userSpaceOnUse" spreadMethod="pad" id="fill7" gradientTransform="matrix(0.000360892 0 0 0.000360892 717 616)"><stop offset="0" stop-color="#FFFFCC"/><stop offset="0.54" stop-color="#92D050" stop-opacity="0"/><stop offset="1" stop-color="#92D050" stop-opacity="0"/></radialGradient><radialGradient cx="77585.5" cy="83127" r="113708" gradientUnits="userSpaceOnUse" spreadMethod="pad" id="fill8" gradientTransform="matrix(0.000360892 0 0 0.000360892 700 533)"><stop offset="0" stop-color="#FFFFCC"/><stop offset="0.54" stop-color="#92D050" stop-opacity="0"/><stop offset="1" stop-color="#92D050" stop-opacity="0"/></radialGradient><clipPath id="clip9"><rect x="279" y="204" width="452" height="452"/></clipPath><clipPath id="clip10"><rect x="279" y="204" width="452" height="452"/></clipPath><clipPath id="clip11"><rect x="279" y="204" width="452" height="452"/></clipPath></defs><g clip-path="url(#clip0)" transform="translate(-234 -156)"><rect x="234" y="156" width="550" height="550" fill="url(#fill1)"/><path d="M268.734 162 746.266 162C762.136 162 775 181.864 775 206.368L775 316C775 277.824 754.957 246.876 730.233 246.876L284.767 246.876C260.043 246.876 240 277.824 240 316L240 206.368C240 181.864 252.864 162 268.734 162Z" fill="url(#fill2)" fill-rule="evenodd"/><path d="M238 239.5C238 219.342 253.222 203 272 203 290.778 203 306 219.342 306 239.5 306 259.658 290.778 276 272 276 253.222 276 238 259.658 238 239.5Z" fill="url(#fill3)" fill-rule="evenodd"/><path d="M267 291.5C267 267.476 285.133 248 307.5 248 329.867 248 348 267.476 348 291.5 348 315.524 329.867 335 307.5 335 285.133 335 267 315.524 267 291.5Z" fill="url(#fill4)" fill-rule="evenodd"/><path d="M571 588.5C571 532.995 618.234 488 676.5 488 734.766 488 782 532.995 782 588.5 782 644.005 734.766 689 676.5 689 618.234 689 571 644.005 571 588.5Z" fill="url(#fill5)" fill-rule="evenodd"/><path d="M267 265C267 208.667 306.399 163 355 163 403.601 163 443 208.667 443 265 443 321.333 403.601 367 355 367 306.399 367 267 321.333 267 265Z" fill="url(#fill6)" fill-rule="evenodd"/><path d="M717 644C717 628.536 728.417 616 742.5 616 756.583 616 768 628.536 768 644 768 659.464 756.583 672 742.5 672 728.417 672 717 659.464 717 644Z" fill="url(#fill7)" fill-rule="evenodd"/><path d="M700 563C700 546.432 712.536 533 728 533 743.464 533 756 546.432 756 563 756 579.569 743.464 593 728 593 712.536 593 700 579.569 700 563Z" fill="url(#fill8)" fill-rule="evenodd"/><g clip-path="url(#clip9)"><g clip-path="url(#clip10)"><g clip-path="url(#clip11)"><path d="M279.15 543.248C278.951 481.238 278.951 379.763 279.15 317.75L279.512 205 504.966 205 730.42 205 730.42 430.5 730.42 655.999 504.966 655.999 279.512 655.999ZM399.411 629.056C358.052 607.189 326.371 575.582 303.93 533.787L298.466 523.612 298.445 580.308 298.424 636.999 356.383 636.975 414.341 636.951 399.411 629.056ZM554.327 631.129C590.305 622.333 620.777 605.474 647.901 579.355 681.59 546.921 702.62 506.528 709.572 460.904L710.444 455.204 700.479 464.681C694.997 469.894 672.823 491.273 651.195 512.188 629.568 533.107 597.358 564.172 579.618 581.227 529.616 629.3 523.923 634.873 523.923 635.75 523.923 637.076 540.011 634.629 554.327 631.129ZM711.377 578.407 711.334 519.815 704.727 532.508C682.467 575.276 646.125 611.148 604.459 631.479L593.149 636.999 652.282 636.999 711.42 636.999 711.377 578.407ZM470.669 624.646C464.751 618.551 452.781 606.149 444.069 597.09 435.358 588.031 411.996 563.803 392.153 543.248 372.31 522.697 348.117 497.613 338.389 487.51 297.457 444.996 299.712 447.086 299.701 451.656 299.695 453.885 300.866 461.797 302.301 469.238 318.193 551.584 381.579 615.821 464.114 633.226 482.979 637.205 482.927 637.272 470.669 624.646ZM526.456 607.686C542.783 591.766 548.936 585.044 546.728 585.518 517.234 591.91 485.929 591.541 462.62 584.526 459.408 583.564 456.779 583.047 456.779 583.387 456.779 584.244 501.605 630.622 502.386 630.574 502.735 630.554 513.566 620.255 526.456 607.686ZM528.242 560.38C533.753 559.398 538.943 557.852 539.776 556.937 542.161 554.342 547.552 539.662 551.014 526.341 556.779 504.163 561.926 467.04 561.931 447.614L561.931 440.023 534.083 467.846 506.24 495.669 478.541 468.152C463.305 453.018 450.382 440.635 449.817 440.635 448.443 440.635 450.032 469.021 452.431 487.342 456.156 515.788 467.002 554.74 472.067 557.871 478.464 561.826 511.78 563.31 528.242 560.38ZM460.811 546.916C453.461 530.502 447.27 507.328 443.241 481.174 440.375 462.565 440.007 401.925 442.653 384.26 446.834 356.354 452.762 333.487 460.643 314.9 462.64 310.196 463.865 306.357 463.377 306.367 462.884 306.377 456.779 309.14 449.812 312.508 410.205 331.654 383.247 367.009 375.689 409.721 373.191 423.841 374.668 451.182 378.693 465.339 387.607 496.679 410.386 527.093 436.872 543.009 444.025 547.308 463.334 556.123 464.043 555.41 464.263 555.194 462.807 551.373 460.811 546.916ZM564.033 548.357C597.885 531.259 621.049 503.507 632.479 466.351 635.663 455.991 635.912 453.548 635.974 431.767 636.055 403.683 634.169 394.832 623.429 372.858 610.439 346.279 590.698 326.553 563.53 312.997 555.701 309.09 548.979 306.21 548.591 306.597 548.203 306.984 549.324 310.544 551.076 314.509 559.178 332.834 566.527 362.743 569.764 390.594 571.804 408.143 571.765 454.967 569.697 471.673 565.708 503.904 559.072 529.305 548.433 553.068 547.116 556.008 551.502 554.682 564.033 548.357ZM690.798 449.097 705.019 435.249 683.314 412.594C671.377 400.133 661.341 390.207 661.016 390.534 660.685 390.862 661.025 393.575 661.768 396.563 664.32 406.834 666.024 428.546 665.182 440.002 664.449 449.908 661.428 467.299 658.689 477.374 657.755 480.814 662.725 476.439 690.798 449.097ZM529.625 454.57 552.402 431.767 529.625 408.963 506.848 386.16 483.712 409.267 460.581 432.375 483.056 454.874C495.414 467.249 505.824 477.374 506.188 477.374 506.551 477.374 517.1 467.112 529.625 454.57ZM351.136 470.723C345.631 450.898 345.202 413.661 350.256 394.502 351.711 388.987 352.691 384.264 352.433 384.005 351.574 383.146 307.193 427.035 307.621 428.32 308.238 430.172 349.535 473.303 350.829 473.449 351.433 473.517 351.571 472.291 351.136 470.723ZM477.928 397.319 506.063 369.206 531.78 394.409C545.924 408.27 557.952 420.351 558.507 421.255 559.067 422.159 560.154 422.899 560.92 422.899 562.754 422.899 561.442 394.408 558.703 374.613 555.108 348.643 547.672 319.495 541.581 307.49 539.379 303.147 538.799 302.848 529.381 301.185 511.186 297.972 474.409 299.936 470.856 304.309 468.993 306.6 462.06 327.227 458.732 340.373 454.543 356.934 450.588 385.525 449.463 407.38 448.955 417.309 448.821 425.433 449.166 425.433 449.511 425.433 462.453 412.782 477.928 397.319ZM709.869 403.579C706.575 375.802 694.403 342.832 678.43 318.383 647.379 270.863 597.176 237.54 541.284 227.352 535.855 226.362 531.579 226.015 531.785 226.58 531.991 227.146 534.71 230.361 537.827 233.724 547.667 244.343 710.314 412.764 710.726 412.764 710.855 412.764 710.468 408.631 709.869 403.579ZM316.056 392.155C324.126 384.304 362.368 347.367 401.039 310.073 439.71 272.778 475.342 238.401 480.217 233.679L489.084 225.095 480.849 225.892C424.36 231.366 366.998 266.178 334.435 314.749 318.981 337.799 305.917 369.376 302.269 392.494 301.444 397.72 300.488 402.994 300.145 404.213 299.801 405.432 299.94 406.43 300.452 406.43 300.965 406.43 307.986 400.006 316.056 392.155ZM711.42 282.278 711.42 224.003 652.828 224.037 594.236 224.072 608.802 231.678C649.917 253.144 683.616 287.019 704.195 327.562 707.82 334.701 710.927 340.544 711.1 340.547 711.277 340.551 711.42 314.329 711.42 282.278ZM303.978 326.935C323.763 287.759 361.645 250.206 401.502 230.258 407.125 227.443 411.981 224.885 412.294 224.572 412.607 224.259 387.114 224.003 355.643 224.003L298.424 224.003 298.424 279.744C298.424 310.402 298.702 335.486 299.041 335.486 299.381 335.486 301.602 331.638 303.978 326.935ZM539.364 263.592C532.369 256.102 522.649 246.029 517.756 241.209L508.864 232.445 490.104 250.274C469.645 269.723 463.487 275.944 464.694 275.944 465.129 275.944 469.443 275.111 474.279 274.093 494.035 269.938 525.033 270.457 542.295 275.232 545.776 276.195 549.405 277.035 550.353 277.097 551.301 277.16 546.355 271.082 539.364 263.592Z" fill="#FFFFFF"/></g></g></g></g></svg>