<svg width="550" height="550" xmlns="http://www.w3.org/2000/svg" xmlns:xlink="http://www.w3.org/1999/xlink" overflow="hidden"><defs><clipPath id="clip0"><rect x="1665" y="156" width="550" height="550"/></clipPath><radialGradient cx="762000" cy="762000" r="1.07763e+06" gradientUnits="userSpaceOnUse" spreadMethod="pad" id="fill1" gradientTransform="matrix(0.000360892 0 0 0.000360892 1665 156)"><stop offset="0" stop-color="#FFFFFF"/><stop offset="0.26" stop-color="#FFFFFF"/><stop offset="0.5" stop-color="#20A0FB"/><stop offset="1" stop-color="#0F1113"/></radialGradient><radialGradient cx="374073" cy="421179" r="563313" fx="374073" fy="421178" gradientUnits="userSpaceOnUse" spreadMethod="pad" id="fill2" gradientTransform="matrix(0.000360892 0 0 0.000360892 1671 163)"><stop offset="0" stop-color="#FFFFFF"/><stop offset="0.54" stop-color="#20A0FB" stop-opacity="0"/><stop offset="1" stop-color="#20A0FB" stop-opacity="0"/></radialGradient><linearGradient x1="1938.5" y1="162" x2="1938.5" y2="316" gradientUnits="userSpaceOnUse" spreadMethod="reflect" id="fill3"><stop offset="0" stop-color="#F5FAFF" stop-opacity="0.231373"/><stop offset="0.32" stop-color="#FFFFFF" stop-opacity="0"/><stop offset="1" stop-color="#FFFFFF" stop-opacity="0"/></linearGradient><radialGradient cx="95596.5" cy="102524" r="140178" gradientUnits="userSpaceOnUse" spreadMethod="pad" id="fill4" gradientTransform="matrix(0.000360892 0 0 0.000360892 1667 202)"><stop offset="0" stop-color="#FFFFFF"/><stop offset="0.54" stop-color="#20A0FB" stop-opacity="0"/><stop offset="1" stop-color="#20A0FB" stop-opacity="0"/></radialGradient><radialGradient cx="112222" cy="120534" r="164688" gradientUnits="userSpaceOnUse" spreadMethod="pad" id="fill5" gradientTransform="matrix(0.000360892 0 0 0.000360892 1687 249)"><stop offset="0" stop-color="#FFFFFF"/><stop offset="0.54" stop-color="#20A0FB" stop-opacity="0"/><stop offset="1" stop-color="#20A0FB" stop-opacity="0"/></radialGradient><radialGradient cx="292331" cy="279862" r="404697" gradientUnits="userSpaceOnUse" spreadMethod="pad" id="fill6" gradientTransform="matrix(0.000360892 0 0 0.000360892 1998 477)"><stop offset="0" stop-color="#FFFFFF"/><stop offset="0.54" stop-color="#20A0FB" stop-opacity="0"/><stop offset="1" stop-color="#20A0FB" stop-opacity="0"/></radialGradient><radialGradient cx="70658" cy="77585.5" r="104938" gradientUnits="userSpaceOnUse" spreadMethod="pad" id="fill7" gradientTransform="matrix(0.000360892 0 0 0.000360892 2159 606)"><stop offset="0" stop-color="#FFFFFF"/><stop offset="0.54" stop-color="#20A0FB" stop-opacity="0"/><stop offset="1" stop-color="#20A0FB" stop-opacity="0"/></radialGradient><radialGradient cx="77585.5" cy="84512.5" r="114725" gradientUnits="userSpaceOnUse" spreadMethod="pad" id="fill8" gradientTransform="matrix(0.000360892 0 0 0.000360892 2154 550)"><stop offset="0" stop-color="#FFFFFF"/><stop offset="0.54" stop-color="#20A0FB" stop-opacity="0"/><stop offset="1" stop-color="#20A0FB" stop-opacity="0"/></radialGradient><clipPath id="clip9"><rect x="1712" y="207" width="452" height="452"/></clipPath><clipPath id="clip10"><rect x="1712" y="207" width="452" height="452"/></clipPath><clipPath id="clip11"><rect x="1712" y="207" width="452" height="452"/></clipPath></defs><g clip-path="url(#clip0)" transform="translate(-1665 -156)"><rect x="1665" y="156" width="550" height="550" fill="url(#fill1)"/><path d="M1671 315C1671 231.053 1731.44 163 1806 163 1880.56 163 1941 231.053 1941 315 1941 398.947 1880.56 467 1806 467 1731.44 467 1671 398.947 1671 315Z" fill="url(#fill2)" fill-rule="evenodd"/><path d="M1699.73 162 2177.27 162C2193.14 162 2206 181.864 2206 206.368L2206 316C2206 277.824 2185.96 246.876 2161.23 246.876L1715.77 246.876C1691.04 246.876 1671 277.824 1671 316L1671 206.368C1671 181.864 1683.86 162 1699.73 162Z" fill="url(#fill3)" fill-rule="evenodd"/><path d="M1667 239C1667 218.566 1682.45 202 1701.5 202 1720.55 202 1736 218.566 1736 239 1736 259.435 1720.55 276 1701.5 276 1682.45 276 1667 259.435 1667 239Z" fill="url(#fill4)" fill-rule="evenodd"/><path d="M1687 292.5C1687 268.475 1705.13 249 1727.5 249 1749.87 249 1768 268.475 1768 292.5 1768 316.524 1749.87 336 1727.5 336 1705.13 336 1687 316.524 1687 292.5Z" fill="url(#fill5)" fill-rule="evenodd"/><path d="M1998 578C1998 522.219 2045.23 477 2103.5 477 2161.77 477 2209 522.219 2209 578 2209 633.781 2161.77 679 2103.5 679 2045.23 679 1998 633.781 1998 578Z" fill="url(#fill6)" fill-rule="evenodd"/><path d="M2159 634C2159 618.536 2170.42 606 2184.5 606 2198.58 606 2210 618.536 2210 634 2210 649.464 2198.58 662 2184.5 662 2170.42 662 2159 649.464 2159 634Z" fill="url(#fill7)" fill-rule="evenodd"/><path d="M2154 580.5C2154 563.655 2166.54 550 2182 550 2197.46 550 2210 563.655 2210 580.5 2210 597.345 2197.46 611 2182 611 2166.54 611 2154 597.345 2154 580.5Z" fill="url(#fill8)" fill-rule="evenodd"/><g clip-path="url(#clip9)"><g clip-path="url(#clip10)"><g clip-path="url(#clip11)"><path d="M1713.15 546.248C1712.95 484.238 1712.95 382.763 1713.15 320.75L1713.51 208 1938.97 208 2164.42 208 2164.42 433.5 2164.42 658.999 1938.97 658.999 1713.51 658.999ZM1833.41 632.056C1792.05 610.189 1760.37 578.582 1737.93 536.787L1732.47 526.612 1732.44 583.308 1732.42 639.999 1790.38 639.975 1848.34 639.952 1833.41 632.056ZM1988.33 634.129C2024.3 625.333 2054.78 608.474 2081.9 582.355 2115.59 549.921 2136.62 509.528 2143.57 463.905L2144.44 458.204 2134.48 467.681C2129 472.894 2106.82 494.273 2085.2 515.188 2063.57 536.107 2031.36 567.172 2013.62 584.227 1963.62 632.3 1957.92 637.874 1957.92 638.75 1957.92 640.076 1974.01 637.629 1988.33 634.129ZM2145.38 581.407 2145.33 522.815 2138.73 535.508C2116.47 578.276 2080.12 614.148 2038.46 634.479L2027.15 639.999 2086.28 639.999 2145.42 639.999 2145.38 581.407ZM1904.67 627.646C1898.75 621.551 1886.78 609.15 1878.07 600.091 1869.36 591.031 1846 566.804 1826.15 546.248 1806.31 525.698 1782.12 500.613 1772.39 490.51 1731.46 447.996 1733.71 450.086 1733.7 454.656 1733.7 456.885 1734.87 464.797 1736.3 472.238 1752.19 554.584 1815.58 618.822 1898.11 636.226 1916.98 640.205 1916.93 640.272 1904.67 627.646ZM1960.46 610.687C1976.78 594.766 1982.94 588.044 1980.73 588.518 1951.23 594.91 1919.93 594.541 1896.62 587.526 1893.41 586.564 1890.78 586.047 1890.78 586.387 1890.78 587.244 1935.6 633.622 1936.39 633.574 1936.74 633.555 1947.57 623.255 1960.46 610.687ZM1962.24 563.38C1967.75 562.398 1972.94 560.852 1973.78 559.937 1976.16 557.342 1981.55 542.662 1985.01 529.341 1990.78 507.163 1995.93 470.041 1995.93 450.614L1995.93 443.023 1968.08 470.846 1940.24 498.669 1912.54 471.152C1897.3 456.018 1884.38 443.635 1883.82 443.635 1882.44 443.635 1884.03 472.021 1886.43 490.342 1890.16 518.788 1901 557.74 1906.07 560.871 1912.46 564.826 1945.78 566.31 1962.24 563.38ZM1894.81 549.916C1887.46 533.502 1881.27 510.328 1877.24 484.175 1874.37 465.566 1874.01 404.925 1876.65 387.26 1880.83 359.354 1886.76 336.487 1894.64 317.9 1896.64 313.196 1897.87 309.357 1897.38 309.367 1896.88 309.377 1890.78 312.141 1883.81 315.509 1844.21 334.654 1817.25 370.009 1809.69 412.722 1807.19 426.841 1808.67 454.182 1812.69 468.339 1821.61 499.679 1844.39 530.093 1870.87 546.009 1878.03 550.308 1897.33 559.123 1898.04 558.41 1898.26 558.195 1896.81 554.374 1894.81 549.916ZM1998.03 551.357C2031.88 534.259 2055.05 506.507 2066.48 469.352 2069.66 458.992 2069.91 456.548 2069.97 434.767 2070.06 406.683 2068.17 397.832 2057.43 375.858 2044.44 349.28 2024.7 329.554 1997.53 315.997 1989.7 312.09 1982.98 309.21 1982.59 309.597 1982.2 309.984 1983.32 313.544 1985.08 317.509 1993.18 335.834 2000.53 365.743 2003.76 393.595 2005.8 411.143 2005.77 457.967 2003.7 474.673 1999.71 506.904 1993.07 532.305 1982.43 556.069 1981.12 559.008 1985.5 557.682 1998.03 551.357ZM2124.8 452.097 2139.02 438.249 2117.31 415.594C2105.38 403.133 2095.34 393.207 2095.02 393.534 2094.69 393.862 2095.03 396.576 2095.77 399.563 2098.32 409.834 2100.02 431.547 2099.18 443.002 2098.45 452.908 2095.43 470.3 2092.69 480.374 2091.75 483.814 2096.73 479.439 2124.8 452.097ZM1963.62 457.57 1986.4 434.767 1963.62 411.963 1940.85 389.16 1917.71 412.267 1894.58 435.375 1917.06 457.874C1929.41 470.249 1939.82 480.374 1940.19 480.374 1940.55 480.374 1951.1 470.112 1963.62 457.57ZM1785.14 473.723C1779.63 453.898 1779.2 416.661 1784.26 397.502 1785.71 391.987 1786.69 387.264 1786.43 387.006 1785.57 386.146 1741.19 430.035 1741.62 431.321 1742.24 433.172 1783.53 476.303 1784.83 476.449 1785.43 476.517 1785.57 475.291 1785.14 473.723ZM1911.93 400.319 1940.06 372.206 1965.78 397.409C1979.92 411.27 1991.95 423.351 1992.51 424.255 1993.07 425.159 1994.15 425.899 1994.92 425.899 1996.75 425.899 1995.44 397.408 1992.7 377.613 1989.11 351.643 1981.67 322.495 1975.58 310.49 1973.38 306.147 1972.8 305.848 1963.38 304.185 1945.19 300.972 1908.41 302.936 1904.86 307.309 1902.99 309.6 1896.06 330.227 1892.73 343.373 1888.54 359.935 1884.59 388.525 1883.46 410.38 1882.95 420.309 1882.82 428.433 1883.17 428.433 1883.51 428.433 1896.45 415.782 1911.93 400.319ZM2143.87 406.579C2140.57 378.803 2128.4 345.832 2112.43 321.384 2081.38 273.863 2031.18 240.54 1975.28 230.352 1969.85 229.362 1965.58 229.015 1965.78 229.581 1965.99 230.146 1968.71 233.361 1971.83 236.724 1981.67 247.343 2144.31 415.764 2144.73 415.764 2144.86 415.764 2144.47 411.631 2143.87 406.579ZM1750.06 395.155C1758.13 387.304 1796.37 350.367 1835.04 313.073 1873.71 275.778 1909.34 241.401 1914.22 236.679L1923.08 228.095 1914.85 228.893C1858.36 234.366 1801 269.178 1768.43 317.749 1752.98 340.799 1739.92 372.376 1736.27 395.494 1735.44 400.72 1734.49 405.994 1734.14 407.213 1733.8 408.432 1733.94 409.43 1734.45 409.43 1734.96 409.43 1741.99 403.007 1750.06 395.155ZM2145.42 285.278 2145.42 227.003 2086.83 227.037 2028.24 227.072 2042.8 234.678C2083.92 256.144 2117.62 290.02 2138.19 330.562 2141.82 337.701 2144.93 343.544 2145.1 343.547 2145.28 343.551 2145.42 317.329 2145.42 285.278ZM1737.98 329.935C1757.76 290.759 1795.64 253.207 1835.5 233.258 1841.12 230.443 1845.98 227.885 1846.29 227.572 1846.61 227.259 1821.11 227.003 1789.64 227.003L1732.42 227.003 1732.42 282.744C1732.42 313.402 1732.7 338.486 1733.04 338.486 1733.38 338.486 1735.6 334.638 1737.98 329.935ZM1973.36 266.592C1966.37 259.102 1956.65 249.029 1951.76 244.209L1942.86 235.445 1924.1 253.274C1903.64 272.723 1897.49 278.944 1898.69 278.944 1899.13 278.944 1903.44 278.111 1908.28 277.094 1928.04 272.938 1959.03 273.457 1976.29 278.232 1979.78 279.196 1983.4 280.035 1984.35 280.098 1985.3 280.16 1980.35 274.082 1973.36 266.592Z" fill="#FFFFFF"/></g></g></g></g></svg>