<svg width="550" height="554" xmlns="http://www.w3.org/2000/svg" xmlns:xlink="http://www.w3.org/1999/xlink" overflow="hidden"><defs><clipPath id="clip0"><rect x="637" y="49" width="550" height="554"/></clipPath><radialGradient cx="762000" cy="762000" r="1.07763e+06" gradientUnits="userSpaceOnUse" spreadMethod="pad" id="fill1" gradientTransform="matrix(0.000360892 0 0 0.000360892 637 52.9999)"><stop offset="0" stop-color="#FFFFFF"/><stop offset="0.15" stop-color="#FFFFFF"/><stop offset="0.45" stop-color="#FF0000"/><stop offset="1" stop-color="#0F1113"/></radialGradient><radialGradient cx="274320" cy="328352" r="427863" fx="274320" fy="328352" gradientUnits="userSpaceOnUse" spreadMethod="pad" id="fill2" gradientTransform="matrix(0.000360892 0 0 0.000360892 640 49.0002)"><stop offset="0" stop-color="#FFFFFF"/><stop offset="0.54" stop-color="#FF0000" stop-opacity="0"/><stop offset="1" stop-color="#FF0000" stop-opacity="0"/></radialGradient><linearGradient x1="910.5" y1="58.0001" x2="910.5" y2="213" gradientUnits="userSpaceOnUse" spreadMethod="reflect" id="fill3"><stop offset="0" stop-color="#F5FAFF" stop-opacity="0.231373"/><stop offset="0.32" stop-color="#FFFFFF" stop-opacity="0"/><stop offset="1" stop-color="#FFFFFF" stop-opacity="0"/></linearGradient><radialGradient cx="94210.5" cy="102524" r="139236" gradientUnits="userSpaceOnUse" spreadMethod="pad" id="fill4" gradientTransform="matrix(0.000360892 0 0 0.000360892 642 130)"><stop offset="0" stop-color="#FFFFFF"/><stop offset="0.54" stop-color="#FF0000" stop-opacity="0"/><stop offset="1" stop-color="#FF0000" stop-opacity="0"/></radialGradient><radialGradient cx="112222" cy="120534" r="164689" gradientUnits="userSpaceOnUse" spreadMethod="pad" id="fill5" gradientTransform="matrix(0.000360892 0 0 0.000360892 671 175)"><stop offset="0" stop-color="#FFFFFF"/><stop offset="0.54" stop-color="#FF0000" stop-opacity="0"/><stop offset="1" stop-color="#FF0000" stop-opacity="0"/></radialGradient><radialGradient cx="241069" cy="254923" r="350856" fx="241069" fy="254924" gradientUnits="userSpaceOnUse" spreadMethod="pad" id="fill6" gradientTransform="matrix(0.000360892 0 0 0.000360892 999 410)"><stop offset="0" stop-color="#FFFFFF"/><stop offset="0.54" stop-color="#FF0000" stop-opacity="0"/><stop offset="1" stop-color="#FF0000" stop-opacity="0"/></radialGradient><radialGradient cx="72043.5" cy="77585.5" r="105876" fx="72043.5" fy="77585.5" gradientUnits="userSpaceOnUse" spreadMethod="pad" id="fill7" gradientTransform="matrix(0.000360892 0 0 0.000360892 1133 519)"><stop offset="0" stop-color="#FFFFFF"/><stop offset="0.54" stop-color="#FF0000" stop-opacity="0"/><stop offset="1" stop-color="#FF0000" stop-opacity="0"/></radialGradient><radialGradient cx="77585.5" cy="83127.5" r="113709" gradientUnits="userSpaceOnUse" spreadMethod="pad" id="fill8" gradientTransform="matrix(0.000360892 0 0 0.000360892 1117 436)"><stop offset="0" stop-color="#FFFFFF"/><stop offset="0.54" stop-color="#FF0000" stop-opacity="0"/><stop offset="1" stop-color="#FF0000" stop-opacity="0"/></radialGradient><clipPath id="clip9"><rect x="649" y="69" width="525" height="525"/></clipPath><clipPath id="clip10"><rect x="649" y="69" width="525" height="525"/></clipPath><clipPath id="clip11"><rect x="649" y="69" width="525" height="525"/></clipPath><clipPath id="clip12"><rect x="651" y="469" width="123" height="124"/></clipPath><clipPath id="clip13"><rect x="651" y="469" width="123" height="124"/></clipPath><clipPath id="clip14"><rect x="651" y="469" width="123" height="124"/></clipPath><clipPath id="clip15"><rect x="722" y="140" width="363" height="363"/></clipPath><clipPath id="clip16"><rect x="722" y="140" width="363" height="363"/></clipPath><clipPath id="clip17"><rect x="722" y="140" width="363" height="363"/></clipPath></defs><g clip-path="url(#clip0)" transform="translate(-637 -49)"><rect x="637" y="52.9999" width="550" height="550" fill="url(#fill1)"/><path d="M640 167.5C640 102.054 684.324 49.0002 739 49.0002 793.676 49.0002 838 102.054 838 167.5 838 232.946 793.676 286 739 286 684.324 286 640 232.946 640 167.5Z" fill="url(#fill2)" fill-rule="evenodd"/><path d="M671.734 58.0001 1149.27 58.0001C1165.14 58.0001 1178 77.993 1178 102.656L1178 213C1178 174.576 1157.96 143.427 1133.23 143.427L687.767 143.427C663.043 143.427 643 174.576 643 213L643 102.656C643 77.993 655.865 58.0001 671.734 58.0001Z" fill="url(#fill3)" fill-rule="evenodd"/><path d="M642 167C642 146.565 657.222 130 676 130 694.778 130 710 146.565 710 167 710 187.434 694.778 204 676 204 657.222 204 642 187.434 642 167Z" fill="url(#fill4)" fill-rule="evenodd"/><path d="M671 218.5C671 194.476 689.133 175 711.5 175 733.868 175 752 194.476 752 218.5 752 242.524 733.868 262 711.5 262 689.133 262 671 242.524 671 218.5Z" fill="url(#fill5)" fill-rule="evenodd"/><path d="M999 502C999 451.19 1037.95 410 1086 410 1134.05 410 1173 451.19 1173 502 1173 552.81 1134.05 594 1086 594 1037.95 594 999 552.81 999 502Z" fill="url(#fill6)" fill-rule="evenodd"/><path d="M1133 547C1133 531.536 1144.64 519 1159 519 1173.36 519 1185 531.536 1185 547 1185 562.464 1173.36 575 1159 575 1144.64 575 1133 562.464 1133 547Z" fill="url(#fill7)" fill-rule="evenodd"/><path d="M1117 466C1117 449.431 1129.54 436 1145 436 1160.46 436 1173 449.431 1173 466 1173 482.569 1160.46 496 1145 496 1129.54 496 1117 482.569 1117 466Z" fill="url(#fill8)" fill-rule="evenodd"/><g clip-path="url(#clip9)"><g clip-path="url(#clip10)"><g clip-path="url(#clip11)"><path d="M847.157 315.339 817.967 522.075C817.296 526.874 813.589 530.676 808.81 531.472 804.032 532.269 799.286 529.884 797.092 525.571L722.94 380.147C720.903 376.146 719.874 371.704 719.938 367.221L722.92 168.885C722.972 165.148 725.355 161.851 728.884 160.612 732.412 159.373 736.328 160.486 738.702 163.384L838.955 285.993C845.663 294.205 848.645 304.84 847.155 315.34ZM844.005 278.842C851.125 287.546 862.37 291.767 873.448 289.899L1122.64 247.993C1125.97 247.436 1128.62 244.906 1129.34 241.62 1130.06 238.323 1128.69 234.931 1125.91 233.041L976.988 132.219C973.335 129.741 968.977 128.502 964.557 128.692L749.18 137.827C745.421 137.984 742.071 140.262 740.528 143.685 738.995 147.118 739.532 151.13 741.914 154.048ZM1137.69 259.689C1135.39 256.834 1131.74 255.437 1128.11 256.046L885.145 296.911C869.301 299.579 857.015 312.199 854.758 328.096L825.819 532.741C825.021 538.381 827.236 544.029 831.657 547.629 836.078 551.221 842.074 552.228 847.428 550.298L1049.39 477.345C1053.72 475.781 1057.19 472.441 1058.92 468.157L1139.18 269.834C1140.55 266.421 1139.98 262.547 1137.69 259.691Z" fill="#FFFFFF"/></g></g></g><path d="M640.5 600.5 640.5 341.5 888.5 600.5Z" stroke="#0F1113" stroke-width="4.58333" stroke-miterlimit="8" fill="#FF0000" fill-rule="evenodd"/><g clip-path="url(#clip12)"><g clip-path="url(#clip13)"><g clip-path="url(#clip14)"><path d="M115.446 28.2566C114.723 27.5134 113.396 26.5825 111.516 26.0976 110.582 25.8379 109.549 25.7149 108.444 25.6454 107.888 25.6012 107.316 25.6292 106.718 25.6245 106.13 25.6631 105.515 25.698 104.895 25.7798 102.414 26.1054 99.7571 26.9088 97.2371 28.0997 94.6962 29.2718 92.2722 30.7812 89.9949 32.3872 85.4544 35.6233 81.4838 39.2064 77.7932 41.6475 75.9583 42.8824 74.2054 43.856 72.6372 44.5255 71.0714 45.1913 69.7059 45.5941 68.7324 45.8037 68.2321 45.9258 68.2445 46.2908 68.7764 46.3357 69.886 46.4655 71.5431 46.4888 73.5365 46.2019 75.5238 45.9128 77.8326 45.2802 80.1407 44.3068 80.5753 44.1266 81.0091 43.9278 81.4428 43.7298 81.1157 45.1248 81.0423 46.604 81.2797 48.1072 82.2633 54.3287 88.1044 58.5753 94.3258 57.5917 100.547 56.6081 104.794 50.7671 103.81 44.5456 103.068 39.8467 99.5529 36.2782 95.1972 35.2351 96.3804 34.3822 97.5904 33.5123 98.8269 32.681 100.815 31.3704 102.867 30.1495 104.936 29.3267 106.988 28.4956 109.092 28.0107 110.889 27.8963 112.683 27.7756 114.171 28.1916 115.121 28.6803 115.567 28.9153 115.824 28.651 115.446 28.2566M92.7654 71.7605C89.2155 77.0503 81.1421 78.2681 75.3118 79.0282 70.7111 79.6283 66.0191 79.9353 61.3271 79.8973 54.7206 79.844 48.1124 79.1079 41.7563 77.5468 35.7027 76.0598 30.6287 73.6899 27.9224 72.2887 27.2094 71.9454 26.4246 72.6776 26.8073 73.3899 27.2048 74.1321 27.7074 75.0499 28.3151 76.1185 28.9801 77.1254 29.7448 78.2945 30.6596 79.5316 31.149 80.1278 31.6571 80.7479 32.1829 81.3882 39.1243 89.849 50.2047 95.3344 61.1578 95.4426 69.6286 95.5262 77.5117 92.5136 84.3348 87.6275 87.5693 85.2884 90.4001 82.5272 92.1128 79.6144 92.5606 78.9216 92.8953 78.1638 93.2101 77.4919 93.4814 76.7712 93.7482 76.1286 93.8866 75.4682 93.9647 75.1458 94.0467 74.8428 94.1031 74.5458 94.1411 74.2442 94.1782 73.9535 94.2129 73.6751 94.298 73.133 94.281 72.6243 94.2748 72.1828 94.2648 71.3276 93.2016 71.1582 92.7654 71.7605M40.4264 48.1072C40.656 46.6535 40.5903 45.2246 40.2903 43.8699 40.9715 44.183 41.6497 44.4784 42.3232 44.7351 44.5841 45.6151 46.7492 46.1493 48.5894 46.3589 50.4337 46.5669 51.9291 46.5028 52.9467 46.3705 53.4732 46.3163 53.4616 45.9498 52.9545 45.8361 51.8866 45.6367 50.3648 45.1952 48.6629 44.4529 46.9579 43.7043 45.0813 42.6373 43.1962 41.3003 39.4127 38.659 35.5117 35.0743 31.712 32.3872 29.816 31.0479 27.6192 29.6871 25.2314 28.5257 22.8337 27.3844 20.2379 26.4425 17.6746 26.0281 15.1082 25.6021 12.6811 25.6639 10.6536 26.0869 8.60139 26.506 7.0928 27.4803 6.29559 28.2728 5.90742 28.6626 6.14481 28.9417 6.5902 28.7182 7.46782 28.2906 8.79857 27.914 10.4293 27.9774 11.2412 27.9906 12.1382 28.1367 13.0885 28.3239 13.5618 28.4081 14.0427 28.5605 14.5337 28.6733 15.0209 28.8303 15.5196 28.9757 16.0198 29.1613 19.3965 30.3629 22.8809 32.678 26.4973 35.2374 22.147 36.2844 18.6372 39.8506 17.8957 44.5456 16.9121 50.7671 21.1588 56.6081 27.3803 57.5917 33.6017 58.5753 39.4429 54.3287 40.4264 48.1072" fill-rule="evenodd" transform="matrix(1 0 0 1.0082 651 470)"/></g></g></g><g clip-path="url(#clip15)"><g clip-path="url(#clip16)"><g clip-path="url(#clip17)"><path d="M920.014 433.859C921.598 433.492 923.165 433.06 924.716 432.565 925.93 432.196 926.615 430.912 926.246 429.698 926.027 428.98 925.472 428.414 924.758 428.182 922.491 427.458 920.286 426.547 918.169 425.46 912.493 422.411 909.112 416.336 909.515 409.905 910.165 397.659 909.515 373.359 895.183 366.069 892.382 364.687 888.99 365.837 887.608 368.639 887.267 369.331 887.07 370.085 887.031 370.856L885.695 400.431C885.532 403.866 886.498 407.261 888.445 410.096 893.631 417.437 899.603 424.189 906.255 430.232 909.958 433.646 915.11 435.004 920.014 433.859Z" fill="#C00000"/><path d="M851.34 407.621C852.131 409.314 853.173 410.878 854.43 412.26 858.983 417.251 870.805 429.037 883.68 432.311 885.256 432.714 886.84 433.138 888.424 433.534 889.69 433.864 890.983 433.104 891.313 431.839 891.516 431.056 891.307 430.224 890.757 429.631 884.177 422.644 878.515 414.847 873.909 406.427 871.793 402.449 870.133 398.247 868.959 393.898 866.746 385.675 859.372 365.864 840.049 368.028 837.138 368.352 835.041 370.973 835.365 373.884 835.44 374.556 835.642 375.209 835.962 375.805 839.045 381.553 848.144 400.855 851.34 407.621Z" fill="#C00000"/><path d="M805.206 389.514C814.164 390.137 827.761 395.574 844.199 416.48 853.567 428.394 866.032 437.628 880.442 442.301 888.961 445.04 897.883 446.314 906.828 446.07 921.619 445.735 935.984 441.048 948.126 432.594 957.925 425.743 968.63 415.257 972.37 400.678 972.933 398.392 973.307 396.062 973.487 393.714 974.017 387.655 976.661 368.261 989.176 360.37 991.686 358.773 995.016 359.511 996.614 362.021 997.256 363.03 997.544 364.222 997.434 365.412 996.953 370.651 996.96 377.643 999.081 384.205 1000.27 387.736 1000.21 391.567 998.933 395.065 996.129 402.449 994.075 410.098 992.803 417.895 990.519 433.029 994.578 448.435 1004.02 460.479 1008.55 466.298 1014.25 474.429 1017.93 482.666 1019.05 485.159 1017.94 488.089 1015.45 489.209 1014.82 489.493 1014.13 489.641 1013.44 489.644L949.653 489.644C945.738 489.646 941.946 488.272 938.941 485.762L938.941 485.762C933.912 481.574 927.642 479.161 921.103 478.897L890.566 477.674C886.844 477.527 883.237 476.336 880.159 474.238 872.311 468.9 855.547 458.308 839.858 453.699 835.327 452.333 831.691 448.935 830.023 444.507 826.135 434.347 817.353 415.519 800.971 398.812 798.862 396.636 798.916 393.163 801.091 391.054 802.189 389.99 803.681 389.432 805.206 389.514Z" fill="#C00000"/><path d="M789.107 302.564C780.743 291.866 767.189 275.463 754.555 264.25 743.099 254.042 738.266 238.312 742.012 223.433 744.133 214.835 747.951 206.061 754.512 199.577 760.796 193.436 770.477 192.417 777.901 197.117 782.766 200.158 787.17 203.879 790.981 208.168 796.629 214.654 797.209 224.126 792.395 231.252 791.455 232.667 790.479 234.158 789.517 235.749 785.514 242.417 784.67 250.516 787.212 257.865 790.677 267.898 795.548 284.103 797.026 299.424 797.275 301.856 795.505 304.029 793.073 304.278 791.543 304.434 790.042 303.785 789.107 302.564Z" fill="#C00000"/><path d="M1045.3 210.324C1036.47 212.127 1024.09 218.102 1021.78 236.994 1021.29 241.217 1021.7 245.494 1022.97 249.55 1025.69 258.438 1030.23 279.486 1021.4 301.404L1010.52 329.381C1009.11 332.994 1013.95 335.745 1016.31 332.648 1029.75 315.198 1049.75 286.818 1060.98 259.824 1060.98 259.824 1068.92 240.31 1066.9 225.412 1065.5 215.118 1055.48 208.239 1045.3 210.324Z" fill="#C00000"/><path d="M997.448 283.212C991.728 281.628 986.136 284.626 982.834 289.257 981.832 290.363 980.917 291.545 980.098 292.792 978.493 295.239 977.22 298.102 977.199 301.065 977.199 306.516 982.063 310.581 987.295 310.468 993.164 310.348 998.516 306.855 1001.75 302.104 1005.88 296.066 1005.95 285.56 997.448 283.212Z" fill="#C00000"/><path d="M833.954 302.451C833.309 301.414 832.576 300.435 831.763 299.523 830.185 297.613 827.956 296.354 825.505 295.988 821.61 295.493 817.927 297.885 816.795 301.645 816.045 304.374 816.745 307.591 817.919 310.482 818.272 311.387 818.626 312.257 819.022 313.056 820.138 315.626 821.759 317.946 823.787 319.879 824.781 320.766 826.007 321.353 827.322 321.569 828.615 322.118 829.979 322.484 831.374 322.657 836.521 323.308 839.589 317.348 838.635 313.12 837.769 309.297 836.181 305.676 833.954 302.451Z" fill="#C00000"/><path d="M971.026 169.67C970.489 169.253 969.945 168.836 969.393 168.433 956.66 159.177 941.298 154.244 925.557 154.356L905.138 154.356C887.283 154.311 870.002 160.661 856.424 172.258 841.131 185.394 824.247 206.047 820.104 235.297 817.82 251.375 823.497 267.714 835.708 278.426L836.372 278.998C840.575 282.566 844.136 286.827 846.9 291.598 852.627 301.538 860.92 318.931 863.056 339.188 863.284 341.414 864.834 343.282 866.98 343.918L869.355 344.625C872.292 345.49 875.374 343.81 876.238 340.873 876.371 340.422 876.446 339.955 876.461 339.485L876.744 330.18C876.853 327.121 879.421 324.729 882.481 324.838 885.117 324.932 887.322 326.871 887.752 329.473L889.732 341.931C890.988 349.984 898.533 355.493 906.585 354.237 911.735 353.434 916.079 349.974 918.013 345.134L918.72 343.366C919.9 340.419 923.246 338.986 926.193 340.166 927.359 340.633 928.34 341.469 928.986 342.546 932.069 347.736 935.145 357.288 936.106 374.886 936.335 379.312 939.982 382.788 944.414 382.805L944.661 382.805C949.094 382.81 952.804 379.441 953.223 375.027 953.93 367.066 955.224 355.987 956.052 341.09 958.01 306.268 957.409 291.089 979.836 264.384 980.14 264.016 981.144 262.694 982.523 260.849 1003.87 232.306 999.089 191.616 971.026 169.67ZM873.732 267.276C869.923 272.067 863.032 273.042 858.043 269.496 847.748 262.298 845.606 251.431 845.168 247.493 845.065 246.657 845.065 245.812 845.168 244.976 846.674 233.084 855.568 227.399 861.43 224.925 865.137 223.325 869.416 223.824 872.657 226.233 878.243 230.39 880.534 236.838 881.347 239.963 881.612 240.968 881.739 242.006 881.721 243.046 881.431 254.768 877.514 262.503 873.732 267.276ZM906.63 288.161C903.277 290.779 899.53 292.85 895.53 294.298 891.509 295.809 887.025 293.772 885.515 289.752 885.085 288.607 884.931 287.376 885.066 286.161 885.68 280.909 887.403 275.848 890.121 271.313 892.33 267.629 897.106 266.432 900.79 268.641 901.673 269.17 902.442 269.869 903.052 270.698L908.002 277.33C910.582 280.709 909.971 285.533 906.63 288.161ZM946.754 242.706C945.143 247.183 942.674 251.301 939.486 254.832 931.871 262.963 919.392 262.39 912.187 253.899 906.071 246.68 902.155 237.305 900.168 231.613 898.422 226.759 897.936 221.541 898.754 216.447 899.812 210.197 902.919 204.477 907.585 200.186 919.222 189.219 938.227 191.107 946.514 204.788 956.37 221.121 946.754 242.706 946.754 242.706Z" fill="#C00000"/></g></g></g></g></svg>