<svg width="550" height="554" xmlns="http://www.w3.org/2000/svg" xmlns:xlink="http://www.w3.org/1999/xlink" overflow="hidden"><defs><clipPath id="clip0"><rect x="1843" y="49" width="550" height="554"/></clipPath><radialGradient cx="762000" cy="762000" r="1.07763e+06" gradientUnits="userSpaceOnUse" spreadMethod="pad" id="fill1" gradientTransform="matrix(0.000360892 0 0 0.000360892 1843 52.9999)"><stop offset="0" stop-color="#FFFFFF"/><stop offset="0.15" stop-color="#FFFFFF"/><stop offset="0.45" stop-color="#FF0000"/><stop offset="1" stop-color="#0F1113"/></radialGradient><radialGradient cx="274320" cy="328352" r="427863" fx="274320" fy="328352" gradientUnits="userSpaceOnUse" spreadMethod="pad" id="fill2" gradientTransform="matrix(0.000360892 0 0 0.000360892 1847 49.0002)"><stop offset="0" stop-color="#FFFFFF"/><stop offset="0.54" stop-color="#FF0000" stop-opacity="0"/><stop offset="1" stop-color="#FF0000" stop-opacity="0"/></radialGradient><linearGradient x1="2116.5" y1="58.0001" x2="2116.5" y2="213" gradientUnits="userSpaceOnUse" spreadMethod="reflect" id="fill3"><stop offset="0" stop-color="#F5FAFF" stop-opacity="0.231373"/><stop offset="0.32" stop-color="#FFFFFF" stop-opacity="0"/><stop offset="1" stop-color="#FFFFFF" stop-opacity="0"/></linearGradient><radialGradient cx="94211" cy="102524" r="139236" gradientUnits="userSpaceOnUse" spreadMethod="pad" id="fill4" gradientTransform="matrix(0.000360892 0 0 0.000360892 1849 130)"><stop offset="0" stop-color="#FFFFFF"/><stop offset="0.54" stop-color="#FF0000" stop-opacity="0"/><stop offset="1" stop-color="#FF0000" stop-opacity="0"/></radialGradient><radialGradient cx="110836" cy="120534" r="163748" gradientUnits="userSpaceOnUse" spreadMethod="pad" id="fill5" gradientTransform="matrix(0.000360892 0 0 0.000360892 1878 175)"><stop offset="0" stop-color="#FFFFFF"/><stop offset="0.54" stop-color="#FF0000" stop-opacity="0"/><stop offset="1" stop-color="#FF0000" stop-opacity="0"/></radialGradient><radialGradient cx="241069" cy="254923" r="350856" fx="241069" fy="254924" gradientUnits="userSpaceOnUse" spreadMethod="pad" id="fill6" gradientTransform="matrix(0.000360892 0 0 0.000360892 2205 410)"><stop offset="0" stop-color="#FFFFFF"/><stop offset="0.54" stop-color="#FF0000" stop-opacity="0"/><stop offset="1" stop-color="#FF0000" stop-opacity="0"/></radialGradient><radialGradient cx="70658.5" cy="77585.5" r="104939" fx="70658.5" fy="77585.5" gradientUnits="userSpaceOnUse" spreadMethod="pad" id="fill7" gradientTransform="matrix(0.000360892 0 0 0.000360892 2340 519)"><stop offset="0" stop-color="#FFFFFF"/><stop offset="0.54" stop-color="#FF0000" stop-opacity="0"/><stop offset="1" stop-color="#FF0000" stop-opacity="0"/></radialGradient><radialGradient cx="77585.5" cy="83127.5" r="113709" gradientUnits="userSpaceOnUse" spreadMethod="pad" id="fill8" gradientTransform="matrix(0.000360892 0 0 0.000360892 2323 436)"><stop offset="0" stop-color="#FFFFFF"/><stop offset="0.54" stop-color="#FF0000" stop-opacity="0"/><stop offset="1" stop-color="#FF0000" stop-opacity="0"/></radialGradient><clipPath id="clip9"><rect x="1854" y="69" width="527" height="525"/></clipPath><clipPath id="clip10"><rect x="1854" y="69" width="527" height="525"/></clipPath><clipPath id="clip11"><rect x="1854" y="69" width="527" height="525"/></clipPath><clipPath id="clip12"><rect x="1932" y="165" width="350" height="305"/></clipPath><clipPath id="clip13"><rect x="1932" y="165" width="350" height="305"/></clipPath><clipPath id="clip14"><rect x="1932" y="165" width="350" height="305"/></clipPath></defs><g clip-path="url(#clip0)" transform="translate(-1843 -49)"><rect x="1843" y="52.9999" width="550" height="550" fill="url(#fill1)"/><path d="M1847 167.5C1847 102.054 1891.32 49.0002 1946 49.0002 2000.68 49.0002 2045 102.054 2045 167.5 2045 232.946 2000.68 286 1946 286 1891.32 286 1847 232.946 1847 167.5Z" fill="url(#fill2)" fill-rule="evenodd"/><path d="M1877.73 58.0001 2355.27 58.0001C2371.14 58.0001 2384 77.993 2384 102.656L2384 213C2384 174.576 2363.96 143.427 2339.23 143.427L1893.77 143.427C1869.04 143.427 1849 174.576 1849 213L1849 102.656C1849 77.993 1861.86 58.0001 1877.73 58.0001Z" fill="url(#fill3)" fill-rule="evenodd"/><path d="M1849 167C1849 146.565 1864.22 130 1883 130 1901.78 130 1917 146.565 1917 167 1917 187.434 1901.78 204 1883 204 1864.22 204 1849 187.434 1849 167Z" fill="url(#fill4)" fill-rule="evenodd"/><path d="M1878 218.5C1878 194.476 1895.91 175 1918 175 1940.09 175 1958 194.476 1958 218.5 1958 242.524 1940.09 262 1918 262 1895.91 262 1878 242.524 1878 218.5Z" fill="url(#fill5)" fill-rule="evenodd"/><path d="M2205 502C2205 451.19 2243.95 410 2292 410 2340.05 410 2379 451.19 2379 502 2379 552.81 2340.05 594 2292 594 2243.95 594 2205 552.81 2205 502Z" fill="url(#fill6)" fill-rule="evenodd"/><path d="M2340 547C2340 531.536 2351.42 519 2365.5 519 2379.58 519 2391 531.536 2391 547 2391 562.464 2379.58 575 2365.5 575 2351.42 575 2340 562.464 2340 547Z" fill="url(#fill7)" fill-rule="evenodd"/><path d="M2323 466C2323 449.431 2335.54 436 2351 436 2366.46 436 2379 449.431 2379 466 2379 482.569 2366.46 496 2351 496 2335.54 496 2323 482.569 2323 466Z" fill="url(#fill8)" fill-rule="evenodd"/><g clip-path="url(#clip9)"><g clip-path="url(#clip10)"><g clip-path="url(#clip11)"><path d="M2053.16 315.339 2023.97 522.075C2023.3 526.874 2019.59 530.676 2014.81 531.472 2010.03 532.269 2005.29 529.884 2003.09 525.571L1928.94 380.147C1926.9 376.146 1925.87 371.704 1925.94 367.221L1928.92 168.885C1928.97 165.148 1931.35 161.851 1934.88 160.612 1938.41 159.373 1942.33 160.486 1944.7 163.384L2044.96 285.993C2051.66 294.205 2054.64 304.84 2053.15 315.34ZM2050.01 278.842C2057.12 287.546 2068.37 291.767 2079.45 289.899L2328.64 247.993C2331.97 247.436 2334.62 244.906 2335.34 241.62 2336.06 238.323 2334.69 234.931 2331.91 233.041L2182.99 132.219C2179.33 129.741 2174.98 128.502 2170.56 128.692L1955.18 137.827C1951.42 137.984 1948.07 140.262 1946.53 143.685 1944.99 147.118 1945.53 151.13 1947.91 154.048ZM2343.69 259.689C2341.39 256.834 2337.74 255.437 2334.12 256.046L2091.15 296.911C2075.3 299.579 2063.02 312.199 2060.76 328.096L2031.82 532.741C2031.02 538.381 2033.24 544.029 2037.66 547.629 2042.08 551.221 2048.07 552.228 2053.43 550.298L2255.39 477.345C2259.72 475.781 2263.19 472.441 2264.92 468.157L2345.18 269.834C2346.55 266.421 2345.98 262.547 2343.69 259.691Z" fill="#FFFFFF"/></g></g></g><g clip-path="url(#clip12)"><g clip-path="url(#clip13)"><g clip-path="url(#clip14)"><path d="M23.5743 114.251C26.2115 116.644 28.5934 118.578 30.4331 119.999L30.4331 184.55 16.1512 290.21C15.186 297.35 20.1924 303.917 27.3286 304.881 34.4669 305.846 41.0367 300.844 42.0019 293.703L55.248 195.705 62.6795 195.705 75.9256 293.703C76.8908 300.844 83.4606 305.846 90.5989 304.881 97.7351 303.917 102.742 297.349 101.776 290.21L87.4933 184.55 87.4933 123.333C92.1981 122.582 98.2836 121.286 105.098 119.04 120.337 114.017 139.444 104.084 153.855 84.545 156.619 80.7917 155.821 75.5089 152.071 72.7441 148.317 69.9793 143.035 70.7778 140.27 74.5311 128.551 90.4386 112.847 98.7024 99.8079 103.013 93.3099 105.159 87.5324 106.291 83.4469 106.875 82.1029 107.068 80.9637 107.197 80.0206 107.29 79.7959 107.271 79.5702 107.255 79.3402 107.255L41.5568 107.255C38.8637 105.227 33.8963 101.221 29.1704 96.0473 25.8391 92.4154 22.6492 88.2212 20.4076 83.9258 18.1491 79.6155 16.8727 75.2969 16.879 71.1882 16.897 67.7862 17.6712 64.4391 19.8422 60.6753 22.0205 56.9284 25.7178 52.7574 31.7454 48.4039 35.5229 45.676 36.3742 40.4006 33.6484 36.6231 30.9184 32.8446 25.6429 31.9943 21.8654 34.7233 14.3632 40.1369 8.87782 45.964 5.25644 52.1804 1.62767 58.3809-0.0158231 64.9602 0 71.1871 0.00843899 79.0238 2.44731 86.16 5.76383 92.331 10.7703 101.598 17.7989 108.983 23.5743 114.251Z" fill="#C00000" transform="matrix(1.00532 0 0 1 1933.09 165)"/><path d="M86.4608 75.3715C86.4608 88.4799 75.8353 99.1064 62.728 99.1064 49.6207 99.1064 38.9952 88.4799 38.9952 75.3715 38.9952 62.263 49.6207 51.6366 62.728 51.6366 75.8353 51.6366 86.4608 62.263 86.4608 75.3715Z" fill="#C00000" transform="matrix(0.227953 -0.973672 0.978851 0.226747 1908.06 284.344)"/><path d="M253.811 34.1948 254.666 33.7823C256.452 33.8298 263.903 34.4986 263.845 42.504 263.782 51.5981 253.523 84.0798 279.487 90.8331L279.674 91.2213C280.153 92.2181 281.348 92.638 282.344 92.159L299.471 83.9184C300.468 83.4395 300.886 82.2443 300.406 81.2474L300.218 80.8592C311.149 56.3587 279.364 44.1001 272.222 38.4744 265.929 33.5228 270.056 27.2843 271.134 25.8602L271.992 25.4478C272.653 25.1281 272.936 24.3317 272.615 23.6672 272.295 23.0036 271.497 22.7251 270.837 23.0437L252.656 31.7907C251.994 32.1104 251.714 32.9047 252.033 33.5703 252.35 34.2359 253.148 34.5144 253.811 34.1948Z" fill="#C00000" transform="matrix(1.00532 0 0 1 1933.09 165)"/><path d="M244.165 32.4564C244.17 34.025 244.601 35.1537 244.626 35.2275 244.787 35.6495 245.187 35.909 245.614 35.909 245.738 35.909 245.865 35.8868 245.988 35.8404 246.531 35.6336 246.806 35.025 246.598 34.4796 246.598 34.4775 246.531 34.3024 246.446 33.9342 246.362 33.564 246.277 33.0408 246.277 32.4574 246.344 30.7432 246.791 28.6978 250.383 27.4552 250.936 27.2717 251.239 26.6756 251.055 26.1239 250.873 25.5701 250.277 25.2674 249.726 25.452 245.289 26.8497 244.1 30.2021 244.165 32.4564Z" fill="#C00000" transform="matrix(1.00532 0 0 1 1933.09 165)"/><path d="M240.552 35.8225C240.659 35.8225 240.767 35.8056 240.874 35.7718 241.428 35.5946 241.734 35.0007 241.556 34.4448 241.556 34.4448 241.475 34.2022 241.385 33.7138 241.292 33.2264 241.199 32.5302 241.199 31.7295 241.273 28.913 242.12 25.0543 248.386 23.1893 248.946 23.0268 249.269 22.4435 249.11 21.8834 248.949 21.3232 248.364 21.0004 247.804 21.1608 240.623 23.1661 239.018 28.4109 239.089 31.7295 239.091 33.6547 239.529 35.0197 239.548 35.0893 239.691 35.5366 240.105 35.8225 240.552 35.8225Z" fill="#C00000" transform="matrix(1.00532 0 0 1 1933.09 165)"/><path d="M273.103 100.235C273.186 100.235 273.268 100.234 273.346 100.23 274.26 100.23 274.877 100.095 274.933 100.081 275.5 99.9535 275.858 99.3902 275.731 98.8227 275.605 98.2541 275.04 97.8965 274.473 98.0231L274.471 98.0231C274.471 98.0231 274.393 98.0421 274.193 98.0674 273.992 98.0927 273.697 98.1201 273.346 98.1201 271.589 98.0273 268.902 97.7003 268.046 93.2857 267.944 92.7129 267.395 92.332 266.823 92.4354 266.249 92.5367 265.869 93.0863 265.971 93.658 266.865 98.9936 270.876 100.235 273.103 100.235Z" fill="#C00000" transform="matrix(1.00532 0 0 1 1933.09 165)"/><path d="M262.351 93.7635C261.775 93.8437 261.371 94.3785 261.452 94.9545 262.056 99.3712 264.06 102.055 266.327 103.494 268.587 104.939 270.994 105.193 272.505 105.195 273.434 105.195 274.033 105.096 274.077 105.089 274.651 104.992 275.039 104.447 274.941 103.872 274.844 103.299 274.3 102.912 273.726 103.008 273.726 103.008 273.28 103.086 272.505 103.086 271.233 103.089 269.222 102.851 267.467 101.719 265.716 100.579 264.107 98.5969 263.542 94.6612 263.462 94.0853 262.929 93.6823 262.351 93.7635Z" fill="#C00000" transform="matrix(1.00532 0 0 1 1933.09 165)"/><path d="M299.854 53.615C299.854 53.615 300.122 53.6277 300.604 53.7384 302.106 54.1498 304.752 55.0539 304.779 58.9907 304.779 59.2839 304.765 59.5972 304.731 59.9337 304.673 60.5149 305.097 61.0297 305.677 61.0867 305.713 61.0899 305.748 61.092 305.783 61.092 306.318 61.092 306.777 60.6848 306.831 60.1405 306.869 59.7428 306.889 59.362 306.889 58.9917 306.918 55.5855 305.123 53.5243 303.398 52.577 301.676 51.6002 300.063 51.52 299.974 51.5095 299.391 51.4778 298.894 51.9219 298.862 52.5032 298.827 53.0844 299.271 53.5823 299.854 53.615Z" fill="#C00000" transform="matrix(1.00532 0 0 1 1933.09 165)"/><path d="M301.937 49.0253 301.937 49.0232C301.937 49.0232 302.373 49.0706 303.106 49.2784 305.356 49.9704 309.565 51.7616 309.586 57.8092 309.586 58.4347 309.54 59.112 309.438 59.8462 309.357 60.4232 309.762 60.9559 310.338 61.0361 310.386 61.0424 310.435 61.0455 310.482 61.0455 311.001 61.0455 311.454 60.6637 311.527 60.1352 311.64 59.3134 311.695 58.5381 311.695 57.8081 311.718 53.0064 309.28 50.1213 306.906 48.6655 304.535 47.1845 302.255 46.9398 302.165 46.925 301.586 46.8607 301.065 47.2805 301.002 47.8596 300.939 48.4398 301.358 48.9609 301.937 49.0253Z" fill="#C00000" transform="matrix(1.00532 0 0 1 1933.09 165)"/><path d="M231.925 196.804 242.802 196.804 242.802 303.255 255.461 303.255 255.461 218.639 322.445 218.639 322.445 303.255 335.104 303.255 335.104 196.804 345.981 196.804 345.981 187.31 231.925 187.31Z" fill="#C00000" transform="matrix(1.00532 0 0 1 1933.09 165)"/><path d="M156.806 64.4718 170.301 46.4208 161.731 45.1686 169.994 30.6167 166.612 29.0016 157.792 47.3185 165.57 47.906 156.05 64.0667Z" fill="#C00000" transform="matrix(1.00532 0 0 1 1933.09 165)"/><path d="M174.652 61.0635 160.87 68.9255 161.255 69.5373 178.75 61.9601 172.982 57.4389 185.163 50.2278 183.362 47.6223 169.188 57.363Z" fill="#C00000" transform="matrix(1.00532 0 0 1 1933.09 165)"/><path d="M147.877 63.9929 148.586 64.0277 152.256 45.6149 145.366 47.7478 146.353 33.8467 143.23 33.8446 143.177 50.7774 149.235 48.4293Z" fill="#C00000" transform="matrix(1.00532 0 0 1 1933.09 165)"/><path d="M42.6855 30.1842 43.0663 30.8899 62.9201 23.8032 56.8893 18.3959 70.8538 11.3272 69.0552 8.3219 52.7068 18.0341 58.4653 22.5142Z" fill="#C00000" transform="matrix(1.00532 0 0 1 1933.09 165)"/><path d="M58.7375 37.4649 43.9302 36.4628 43.9133 37.14 61.4675 40.2846 59.3103 33.7771 72.5342 34.4585 72.4772 31.4943 56.3925 31.7538Z" fill="#C00000" transform="matrix(1.00532 0 0 1 1933.09 165)"/><path d="M36.89 26.2927 49.2742 13.8431 42.8005 11.9391 50.7616 1.61712 48.329 0 39.5293 13.169 45.4651 14.4739 36.3562 25.9003Z" fill="#C00000" transform="matrix(1.00532 0 0 1 1933.09 165)"/></g></g></g></g></svg>