<svg width="550" height="554" xmlns="http://www.w3.org/2000/svg" xmlns:xlink="http://www.w3.org/1999/xlink" overflow="hidden"><defs><clipPath id="clip0"><rect x="48" y="49" width="550" height="554"/></clipPath><radialGradient cx="762000" cy="762000" r="1.07763e+06" gradientUnits="userSpaceOnUse" spreadMethod="pad" id="fill1" gradientTransform="matrix(0.000360892 0 0 0.000360892 48.0001 52.9999)"><stop offset="0" stop-color="#FFFFFF"/><stop offset="0.15" stop-color="#FFFFFF"/><stop offset="0.45" stop-color="#FF0000"/><stop offset="1" stop-color="#0F1113"/></radialGradient><radialGradient cx="274320" cy="328352" r="427863" fx="274320" fy="328352" gradientUnits="userSpaceOnUse" spreadMethod="pad" id="fill2" gradientTransform="matrix(0.000360892 0 0 0.000360892 50.9999 49.0002)"><stop offset="0" stop-color="#FFFFFF"/><stop offset="0.54" stop-color="#FF0000" stop-opacity="0"/><stop offset="1" stop-color="#FF0000" stop-opacity="0"/></radialGradient><linearGradient x1="321" y1="58.0001" x2="321" y2="213" gradientUnits="userSpaceOnUse" spreadMethod="reflect" id="fill3"><stop offset="0" stop-color="#F5FAFF" stop-opacity="0.231373"/><stop offset="0.32" stop-color="#FFFFFF" stop-opacity="0"/><stop offset="1" stop-color="#FFFFFF" stop-opacity="0"/></linearGradient><radialGradient cx="94211" cy="102524" r="139236" gradientUnits="userSpaceOnUse" spreadMethod="pad" id="fill4" gradientTransform="matrix(0.000360892 0 0 0.000360892 52.9999 130)"><stop offset="0" stop-color="#FFFFFF"/><stop offset="0.54" stop-color="#FF0000" stop-opacity="0"/><stop offset="1" stop-color="#FF0000" stop-opacity="0"/></radialGradient><radialGradient cx="110836" cy="120534" r="163747" fx="110836" fy="120534" gradientUnits="userSpaceOnUse" spreadMethod="pad" id="fill5" gradientTransform="matrix(0.000360892 0 0 0.000360892 82.0002 175)"><stop offset="0" stop-color="#FFFFFF"/><stop offset="0.54" stop-color="#FF0000" stop-opacity="0"/><stop offset="1" stop-color="#FF0000" stop-opacity="0"/></radialGradient><radialGradient cx="241069" cy="254923" r="350856" fx="241069" fy="254924" gradientUnits="userSpaceOnUse" spreadMethod="pad" id="fill6" gradientTransform="matrix(0.000360892 0 0 0.000360892 410 410)"><stop offset="0" stop-color="#FFFFFF"/><stop offset="0.54" stop-color="#FF0000" stop-opacity="0"/><stop offset="1" stop-color="#FF0000" stop-opacity="0"/></radialGradient><radialGradient cx="72043.5" cy="77585.5" r="105876" fx="72043.5" fy="77585.5" gradientUnits="userSpaceOnUse" spreadMethod="pad" id="fill7" gradientTransform="matrix(0.000360892 0 0 0.000360892 544 519)"><stop offset="0" stop-color="#FFFFFF"/><stop offset="0.54" stop-color="#FF0000" stop-opacity="0"/><stop offset="1" stop-color="#FF0000" stop-opacity="0"/></radialGradient><radialGradient cx="77585.5" cy="83127.5" r="113709" gradientUnits="userSpaceOnUse" spreadMethod="pad" id="fill8" gradientTransform="matrix(0.000360892 0 0 0.000360892 528 436)"><stop offset="0" stop-color="#FFFFFF"/><stop offset="0.54" stop-color="#FF0000" stop-opacity="0"/><stop offset="1" stop-color="#FF0000" stop-opacity="0"/></radialGradient><clipPath id="clip9"><rect x="59" y="69" width="526" height="525"/></clipPath><clipPath id="clip10"><rect x="59" y="69" width="526" height="525"/></clipPath><clipPath id="clip11"><rect x="59" y="69" width="526" height="525"/></clipPath><clipPath id="clip12"><rect x="133" y="200" width="382" height="239"/></clipPath><clipPath id="clip13"><rect x="133" y="200" width="382" height="239"/></clipPath><clipPath id="clip14"><rect x="133" y="200" width="382" height="239"/></clipPath></defs><g clip-path="url(#clip0)" transform="translate(-48 -49)"><rect x="48.0001" y="52.9999" width="550" height="550" fill="url(#fill1)"/><path d="M50.9999 167.5C50.9999 102.054 95.3237 49.0002 150 49.0002 204.676 49.0002 249 102.054 249 167.5 249 232.946 204.676 286 150 286 95.3237 286 50.9999 232.946 50.9999 167.5Z" fill="url(#fill2)" fill-rule="evenodd"/><path d="M81.7874 58.0001 560.212 58.0001C576.111 58.0001 589 77.993 589 102.656L589 213C589 174.576 568.92 143.427 544.149 143.427L97.8503 143.427C73.0801 143.427 52.9999 174.576 52.9999 213L52.9999 102.656C52.9999 77.993 65.8884 58.0001 81.7874 58.0001Z" fill="url(#fill3)" fill-rule="evenodd"/><path d="M52.9999 167C52.9999 146.565 68.2223 130 87 130 105.778 130 121 146.565 121 167 121 187.434 105.778 204 87 204 68.2223 204 52.9999 187.434 52.9999 167Z" fill="url(#fill4)" fill-rule="evenodd"/><path d="M82.0002 218.5C82.0002 194.476 99.9087 175 122 175 144.091 175 162 194.476 162 218.5 162 242.524 144.091 262 122 262 99.9087 262 82.0002 242.524 82.0002 218.5Z" fill="url(#fill5)" fill-rule="evenodd"/><path d="M410 502C410 451.19 448.951 410 497 410 545.049 410 584 451.19 584 502 584 552.81 545.049 594 497 594 448.951 594 410 552.81 410 502Z" fill="url(#fill6)" fill-rule="evenodd"/><path d="M544 547C544 531.536 555.641 519 570 519 584.359 519 596 531.536 596 547 596 562.464 584.359 575 570 575 555.641 575 544 562.464 544 547Z" fill="url(#fill7)" fill-rule="evenodd"/><path d="M528 466C528 449.431 540.536 436 556 436 571.464 436 584 449.431 584 466 584 482.569 571.464 496 556 496 540.536 496 528 482.569 528 466Z" fill="url(#fill8)" fill-rule="evenodd"/><g clip-path="url(#clip9)"><g clip-path="url(#clip10)"><g clip-path="url(#clip11)"><path d="M257.157 315.339 227.967 522.075C227.296 526.874 223.589 530.676 218.811 531.472 214.032 532.269 209.286 529.884 207.092 525.571L132.94 380.147C130.903 376.146 129.874 371.704 129.938 367.221L132.92 168.885C132.973 165.148 135.355 161.851 138.884 160.612 142.412 159.373 146.329 160.486 148.702 163.384L248.955 285.993C255.663 294.205 258.645 304.84 257.155 315.34ZM254.006 278.842C261.125 287.546 272.371 291.767 283.448 289.899L532.642 247.993C535.971 247.436 538.618 244.906 539.344 241.62 540.058 238.323 538.693 234.931 535.91 233.041L386.989 132.219C383.335 129.741 378.977 128.502 374.557 128.692L159.181 137.827C155.421 137.984 152.071 140.262 150.528 143.685 148.995 147.118 149.532 151.13 151.914 154.048ZM547.692 259.689C545.391 256.834 541.738 255.437 538.115 256.046L295.145 296.911C279.301 299.579 267.015 312.199 264.758 328.096L235.819 532.741C235.021 538.381 237.236 544.029 241.657 547.629 246.078 551.221 252.074 552.228 257.428 550.298L459.386 477.345C463.722 475.781 467.188 472.441 468.921 468.157L549.184 269.834C550.549 266.421 549.98 262.547 547.692 259.691Z" fill="#FFFFFF"/></g></g></g><g clip-path="url(#clip12)"><g clip-path="url(#clip13)"><g clip-path="url(#clip14)"><path d="M163.265 70.9531C162.924 66.95 159.403 63.984 155.402 64.3258 151.4 64.6666 148.434 68.188 148.775 72.1885L149.269 77.9923 86.8149 80.941C82.7054 85.4514 76.7879 88.2865 70.2205 88.2865 63.4741 88.2865 57.4184 85.2905 53.2999 80.5656 51.7391 80.6529 49.843 80.7838 47.6596 80.9674 41.145 81.5237 32.5333 82.5163 25.0769 84.2579 21.3219 85.1523 17.8851 86.1713 14.7655 87.7756 13.2029 88.6028 11.6713 89.5663 10.206 91.1416 8.76984 92.655 7.34819 95.1993 7.36546 98.1607 7.3591 100.633 8.32444 102.827 9.46248 104.396 11.2123 106.781 13.3193 108.31 15.8944 109.852 18.4714 111.363 21.5901 112.797 25.4742 114.296 25.4851 114.301 25.4951 114.306 25.506 114.311 27.9084 115.235 30.6108 116.179 33.635 117.149 36.4437 118.051 39.5279 118.976 42.9329 119.932 43.5892 120.116 44.2491 120.204 44.8991 120.204 48.0778 120.204 50.9974 118.104 51.8973 114.892 52.9826 111.025 50.7247 107.011 46.8588 105.928 43.032 104.854 39.6779 103.834 36.7391 102.866 34.5031 102.128 32.5033 101.421 30.7572 100.75 30.7472 100.746 30.7381 100.74 30.7281 100.737 29.0628 100.101 27.6148 99.4878 26.385 98.9188 26.5095 98.887 26.634 98.8552 26.7613 98.8243 30.4145 97.8553 35.0475 97.0627 39.5761 96.4628L39.5761 101.68C41.9758 102.437 44.5873 103.213 47.3988 104.001 49.7821 104.668 51.7637 106.225 52.979 108.386 54.1925 110.545 54.4933 113.046 53.8243 115.431 52.7063 119.418 49.0358 122.202 44.9 122.202 44.0546 122.202 43.212 122.088 42.3921 121.858 41.4268 121.587 40.4932 121.319 39.5761 121.052L39.5761 149.28 13.4729 162.181C10.1688 163.812 7.90631 166.939 7.38364 170.588L0.113622 221.491C-0.756271 227.579 3.47412 233.22 9.56247 234.09 10.0951 234.165 10.6269 234.202 11.1505 234.202 16.6025 234.203 21.3665 230.196 22.16 224.642L28.6011 179.545 62.8832 162.602C63.3341 162.379 63.7531 162.122 64.1594 161.849 64.5658 162.123 64.9866 162.381 65.4375 162.604L65.4375 162.602 99.7196 179.545 106.161 224.64C106.954 230.193 111.717 234.202 117.169 234.202 117.693 234.202 118.223 234.166 118.756 234.09 124.846 233.22 129.077 227.579 128.206 221.493L120.933 170.589C120.413 166.94 118.15 163.813 114.847 162.182L88.7446 149.281 88.7446 95.4083 157.5 92.1642C159.467 92.0715 161.329 91.1734 162.627 89.6918 163.927 88.2092 164.571 86.2449 164.403 84.2815L163.265 70.9531Z" fill="#C00000" transform="matrix(1.00086 0 0 1 133.009 200)"/><path d="M90.6735 65.8347C90.6735 77.13 81.5168 86.2867 70.2214 86.2867 58.9261 86.2867 49.7694 77.13 49.7694 65.8347 49.7694 54.5393 58.9261 45.3826 70.2214 45.3826 81.5168 45.3826 90.6735 54.5393 90.6735 65.8347Z" fill="#C00000" transform="matrix(1.00086 0 0 1 133.009 200)"/><path d="M359.033 85.6986C358.953 85.6577 358.876 85.6114 358.793 85.5732L326.856 70.9695C326.726 70.9113 326.596 70.865 326.465 70.8141 325.054 70.2032 322.763 69.4906 319.694 69.4897 313.583 69.4433 305.375 72.5121 296.887 81.6973 288.312 90.9089 278.845 106.258 268.637 132.499 267.182 136.243 269.039 140.457 272.783 141.911 273.647 142.247 274.538 142.407 275.415 142.407 278.326 142.407 281.076 140.645 282.195 137.765 291.956 112.579 300.84 98.7425 307.515 91.6261 308.906 90.1572 310.172 88.9864 311.327 88.032L298.857 115.305C298.855 115.31 298.852 115.314 298.85 115.319L254.647 211.987C252.065 217.634 254.552 224.301 260.194 226.88 265.838 229.462 272.507 226.981 275.088 221.335L309.211 146.711 313.043 148.464 278.92 223.086C276.338 228.733 278.824 235.4 284.467 237.98 290.112 240.562 296.781 238.081 299.363 232.434L336.404 151.429C336.405 151.427 336.406 151.425 336.407 151.423L356.051 108.463C356.058 108.735 356.063 109.012 356.064 109.299 356.113 118.316 352.3 135.152 337.484 163.048 335.603 166.595 336.957 170.998 340.504 172.877 341.588 173.453 342.755 173.726 343.903 173.726 346.509 173.726 349.03 172.321 350.335 169.858 365.714 140.76 370.559 122.17 370.608 109.299 370.639 100.69 368.22 94.5239 365.125 90.6671 362.906 87.8684 360.54 86.4085 359.033 85.6986Z" fill="#C00000" transform="matrix(1.00086 0 0 1 133.009 200)"/><path d="M373.973 54.9668C373.973 66.2633 364.815 75.4208 353.518 75.4208 342.221 75.4208 333.064 66.2633 333.064 54.9668 333.064 43.6704 342.221 34.5128 353.518 34.5128 364.815 34.5128 373.973 43.6704 373.973 54.9668Z" fill="#C00000" transform="matrix(0.416116 -0.909312 0.910091 0.41576 289.653 553.58)"/><path d="M315.711 62.5687C311.87 62.6305 310.253 66.0656 310.203 66.1283 309.979 66.5782 310.164 67.1236 310.614 67.3463 310.743 67.41 310.879 67.4409 311.015 67.4409 311.349 67.4409 311.673 67.2545 311.831 66.9346L311.831 66.9327C311.831 66.9327 311.892 66.8037 312.057 66.5582 312.567 65.7956 313.803 64.3685 315.71 64.3858 316.469 64.3858 317.377 64.5912 318.484 65.2011 318.924 65.4438 319.477 65.2838 319.718 64.8439 319.964 64.4058 319.804 63.8522 319.363 63.6104 318.038 62.8769 316.809 62.5669 315.711 62.5687Z" fill="#C00000" transform="matrix(1.00086 0 0 1 133.009 200)"/><path d="M307.312 62.8414C307.064 63.2786 307.221 63.834 307.657 64.0794 307.798 64.1594 307.951 64.1976 308.103 64.1976 308.421 64.1976 308.729 64.0304 308.897 63.734L308.895 63.734C308.897 63.7313 309.012 63.525 309.283 63.1614 310.108 62.0497 312.137 59.8991 315.194 59.9145 316.534 59.9163 318.124 60.309 320.009 61.4416 320.438 61.7006 320.996 61.5625 321.257 61.1325 321.516 60.7017 321.377 60.1427 320.948 59.8836 318.834 58.6092 316.899 58.0965 315.194 58.0965 309.897 58.1502 307.368 62.776 307.312 62.8414Z" fill="#C00000" transform="matrix(1.00086 0 0 1 133.009 200)"/><path d="M375.016 91.4579C373.901 90.5762 372.838 90.2617 372.773 90.2381 372.291 90.0963 371.785 90.3699 371.643 90.8516 371.498 91.3325 371.772 91.8379 372.254 91.9824L372.254 91.9806C372.254 91.9806 372.422 92.0306 372.734 92.1751 373.712 92.6441 375.489 93.7586 375.478 96.1201 375.478 96.7182 375.368 97.4226 375.081 98.2498 374.918 98.7261 375.169 99.2442 375.645 99.407 375.742 99.4415 375.843 99.4579 375.941 99.4579 376.318 99.4579 376.67 99.2206 376.8 98.8443 377.141 97.8526 377.296 96.9454 377.296 96.1201 377.305 93.8685 376.126 92.326 375.016 91.4579Z" fill="#C00000" transform="matrix(1.00086 0 0 1 133.009 200)"/><path d="M378.58 88.701C377.064 87.3875 375.591 86.8603 375.526 86.8348 375.053 86.6667 374.532 86.9139 374.365 87.3866 374.196 87.8593 374.442 88.3801 374.917 88.5474L374.914 88.5474C374.914 88.5474 375.189 88.6419 375.659 88.891 377.102 89.6654 379.847 91.5861 379.836 95.3229 379.836 96.3982 379.615 97.6526 379.046 99.1161 378.862 99.5833 379.094 100.11 379.562 100.293 379.671 100.336 379.782 100.355 379.892 100.355 380.256 100.355 380.599 100.135 380.741 99.7751 381.377 98.1335 381.655 96.65 381.655 95.3229 381.662 92.1833 380.091 90.0036 378.58 88.701Z" fill="#C00000" transform="matrix(1.00086 0 0 1 133.009 200)"/><path d="M263.907 142.619C264.063 142.723 264.24 142.773 264.416 142.773 264.707 142.773 264.995 142.634 265.17 142.375 265.449 141.958 265.341 141.394 264.925 141.114L264.925 141.112C264.923 141.112 264.824 141.046 264.629 140.876 264.023 140.361 262.866 139.096 262.882 137.448 262.885 136.581 263.165 135.544 264.095 134.285 264.394 133.882 264.31 133.313 263.907 133.015 263.505 132.716 262.935 132.799 262.637 133.203 261.515 134.706 261.062 136.159 261.064 137.448 261.112 140.796 263.844 142.553 263.907 142.619Z" fill="#C00000" transform="matrix(1.00086 0 0 1 133.009 200)"/><path d="M256.539 137.72C256.58 142.315 260.198 144.973 260.263 145.046 260.426 145.17 260.618 145.229 260.808 145.229 261.084 145.229 261.356 145.103 261.536 144.867 261.84 144.468 261.76 143.897 261.361 143.594 261.359 143.594 261.199 143.474 260.914 143.203 260.047 142.378 258.345 140.366 258.358 137.72 258.362 136.189 258.887 134.381 260.573 132.274 260.887 131.883 260.823 131.31 260.433 130.997 260.041 130.684 259.468 130.747 259.157 131.139 257.257 133.491 256.535 135.748 256.539 137.72Z" fill="#C00000" transform="matrix(1.00086 0 0 1 133.009 200)"/><path d="M319.833 210.155C319.831 208.904 319.52 208.009 319.501 207.95 319.334 207.476 318.816 207.226 318.344 207.393 317.868 207.557 317.619 208.075 317.786 208.55L317.784 208.55C317.786 208.55 317.835 208.685 317.895 208.977 317.956 209.269 318.018 209.686 318.018 210.156 317.957 211.652 317.582 213.492 314.364 214.516 313.883 214.661 313.611 215.17 313.754 215.65 313.874 216.045 314.235 216.298 314.626 216.298 314.713 216.298 314.802 216.285 314.889 216.259 318.868 215.11 319.896 212.101 319.833 210.155Z" fill="#C00000" transform="matrix(1.00086 0 0 1 133.009 200)"/><path d="M322.744 207.567C322.262 207.706 321.986 208.212 322.126 208.694L322.124 208.692C322.124 208.692 322.179 208.877 322.244 209.254 322.309 209.63 322.374 210.171 322.374 210.8 322.308 213.231 321.6 216.721 315.985 218.233 315.5 218.362 315.208 218.857 315.332 219.345 315.44 219.752 315.809 220.024 316.215 220.024 316.29 220.024 316.368 220.015 316.444 219.995 322.891 218.373 324.259 213.646 324.192 210.801 324.19 209.294 323.887 208.242 323.871 208.186 323.731 207.704 323.226 207.426 322.744 207.567Z" fill="#C00000" transform="matrix(1.00086 0 0 1 133.009 200)"/><path d="M181.941 63.7313C179.723 65.862 178.047 68.8979 177.686 72.5511 177.295 76.4888 180.203 79.0167 180.53 82.7135 180.75 85.2023 179.587 87.9274 178.255 89.5863 177.453 90.5826 178.655 92.1787 179.454 91.1843 181.685 88.4092 182.66 84.3933 181.923 80.4538 181.19 76.5325 178.394 74.6445 179.905 70.1723 180.492 68.4326 181.635 66.7991 182.796 65.6838 183.676 64.8403 182.829 62.8769 181.941 63.7313Z" fill="#C00000" transform="matrix(1.00086 0 0 1 133.009 200)"/><path d="M191.878 63.7313C189.661 65.862 187.985 68.8979 187.623 72.5511 187.233 76.4888 190.14 79.0167 190.468 82.7135 190.688 85.2023 189.525 87.9274 188.193 89.5863 187.392 90.5826 188.593 92.1787 189.391 91.1843 191.623 88.4092 192.597 84.3933 191.861 80.4538 191.128 76.5325 188.332 74.6445 189.843 70.1723 190.43 68.4326 191.573 66.7991 192.734 65.6838 193.613 64.8403 192.767 62.8769 191.878 63.7313Z" fill="#C00000" transform="matrix(1.00086 0 0 1 133.009 200)"/><path d="M201.815 63.7313C199.597 65.862 197.922 68.8979 197.56 72.5511 197.17 76.4888 200.076 79.0167 200.404 82.7135 200.625 85.2023 199.461 87.9274 198.129 89.5863 197.328 90.5826 198.531 92.1787 199.328 91.1843 201.559 88.4092 202.533 84.3933 201.798 80.4538 201.065 76.5325 198.268 74.6445 199.78 70.1723 200.367 68.4326 201.51 66.7991 202.67 65.6838 203.55 64.8403 202.705 62.8769 201.815 63.7313Z" fill="#C00000" transform="matrix(1.00086 0 0 1 133.009 200)"/><path d="M243.952 63.7313C241.734 65.862 240.059 68.8979 239.697 72.5511 239.306 76.4888 242.214 79.0167 242.541 82.7135 242.761 85.2023 241.599 87.9274 240.267 89.5863 239.464 90.5826 240.667 92.1787 241.465 91.1843 243.697 88.4092 244.671 84.3933 243.935 80.4538 243.201 76.5325 240.405 74.6445 241.917 70.1723 242.505 68.4326 243.647 66.7991 244.807 65.6838 245.687 64.8403 244.841 62.8769 243.952 63.7313Z" fill="#C00000" transform="matrix(1.00086 0 0 1 133.009 200)"/><path d="M253.873 80.4529C253.14 76.5316 250.343 74.6436 251.855 70.1714 252.442 68.4316 253.584 66.7982 254.745 65.6829 255.624 64.8394 254.779 62.876 253.89 63.7304 251.673 65.861 249.997 68.897 249.634 72.5502 249.245 76.4879 252.152 79.0158 252.479 82.7126 252.699 85.2014 251.537 87.9265 250.205 89.5854 249.403 90.5817 250.605 92.1778 251.403 91.1834 253.634 88.4083 254.609 84.3924 253.873 80.4529Z" fill="#C00000" transform="matrix(1.00086 0 0 1 133.009 200)"/><path d="M264.681 65.6838C265.561 64.8403 264.716 62.8769 263.827 63.7313 261.609 65.862 259.934 68.8979 259.571 72.5511 259.181 76.4888 262.088 79.0167 262.415 82.7135 262.636 85.2023 261.473 87.9274 260.141 89.5863 259.339 90.5826 260.542 92.1787 261.34 91.1843 263.571 88.4092 264.545 84.3933 263.81 80.4538 263.077 76.5325 260.279 74.6445 261.792 70.1723 262.38 68.4326 263.522 66.7991 264.681 65.6838Z" fill="#C00000" transform="matrix(1.00086 0 0 1 133.009 200)"/><path d="M314.313 23.4035C315.103 23.7771 316.122 23.8371 317.373 23.5871 317.638 22.8318 317.691 22.0073 317.539 21.1156 317.329 19.9367 317.287 18.3114 317.417 16.2444 317.536 14.2573 317.624 12.094 317.677 9.74699 317.733 7.40182 317.724 6.05381 317.654 5.70658 317.567 5.27027 317.256 4.9094 316.725 4.63398 316.196 4.35856 315.681 4.26948 315.181 4.36765 314.719 4.46309 314.204 4.81487 313.637 5.42207 313.072 6.02926 312.815 6.80008 312.865 7.7336 312.919 8.66349 312.956 9.20069 312.985 9.33977 313.262 10.7251 313.377 12.8739 313.327 15.7817 313.294 18.4632 313.623 21.0093 314.313 23.4035Z" fill="#C00000" transform="matrix(1.00086 0 0 1 133.009 200)"/><path d="M316.449 32.7442C316.909 32.6496 317.448 32.3106 318.058 31.727 318.668 31.1416 318.947 30.4272 318.896 29.5782L318.846 28.3793C318.788 28.0938 318.399 27.8075 317.679 27.5239 316.959 27.2394 316.387 27.1403 315.961 27.2276 315.312 27.3557 314.782 27.853 314.368 28.7183 313.96 29.58 313.811 30.299 313.926 30.8744 314.233 32.3988 315.073 33.0205 316.449 32.7442Z" fill="#C00000" transform="matrix(1.00086 0 0 1 133.009 200)"/><path d="M328.246 30.8944C328.876 31.248 329.587 31.3489 330.372 31.1898 331.122 31.038 331.875 30.5972 332.629 29.8627 333.387 29.1346 333.689 28.3793 333.531 27.6075 333.333 26.6186 332.656 26.2023 331.505 26.3559 330.811 26.055 330.257 25.9441 329.857 26.0241 329.283 26.1395 328.86 26.3613 328.59 26.6877 328.495 26.814 328.369 26.9549 328.205 27.1185 327.345 28.0057 326.972 28.7374 327.086 29.3128 327.228 30.0118 327.618 30.5417 328.246 30.8944Z" fill="#C00000" transform="matrix(1.00086 0 0 1 133.009 200)"/><path d="M325.353 4.96212C324.797 5.96654 324.584 6.79826 324.717 7.46091 324.937 8.55986 325.624 8.99436 326.773 8.76438 328.539 8.40897 329.384 7.65997 329.323 6.51466 329.321 6.17561 329.525 5.79111 329.939 5.35753 330.351 4.92031 331.233 4.57035 332.584 4.29766 333.044 4.20312 333.525 4.18403 334.015 4.24221 334.506 4.29947 334.855 4.40037 335.05 4.54944 335.251 4.70034 335.523 5.11483 335.861 5.80202 336.201 6.48921 336.413 7.04278 336.496 7.46727 336.618 8.06629 336.591 8.70348 336.417 9.37522 336.239 10.0497 335.95 10.5242 335.55 10.7969L333.22 12.3012C331.747 13.2484 330.756 13.9265 330.245 14.3437 329.739 14.7555 329.2 15.3218 328.628 16.0353 328.179 17.736 327.914 18.8595 327.835 19.4022 327.756 19.943 327.775 20.5111 327.893 21.0965 328.003 21.6474 328.211 22.1528 328.514 22.62 328.816 23.0854 329.141 23.2835 329.491 23.2117 330.563 22.9963 331.293 22.6854 331.683 22.2827 332.069 21.8819 332.259 21.3419 332.253 20.6675 332.256 19.3949 332.342 18.2832 332.499 17.3433 335.416 15.6245 337.329 14.4291 338.236 13.7583 339.137 13.0893 339.848 12.0894 340.359 10.756 340.872 9.4243 340.941 7.82632 340.564 5.96836L340.562 5.94927C340.198 4.26584 339.748 3.06872 339.217 2.35698 338.68 1.64434 337.641 0.970791 336.097 0.332687 335.155-0.0754453 333.991-0.109078 332.603 0.235426 331.884 0.407223 331.163 0.572657 330.441 0.729002 329.408 0.963519 328.484 1.46255 327.66 2.22609L327.676 2.22155C326.686 3.04963 325.912 3.96043 325.353 4.96212Z" fill="#C00000" transform="matrix(1.00086 0 0 1 133.009 200)"/></g></g></g></g></svg>