<svg width="560" height="554" xmlns="http://www.w3.org/2000/svg" xmlns:xlink="http://www.w3.org/1999/xlink" overflow="hidden"><defs><clipPath id="clip0"><rect x="1207" y="49" width="560" height="554"/></clipPath><radialGradient cx="762000" cy="762000" r="1.07763e+06" gradientUnits="userSpaceOnUse" spreadMethod="pad" id="fill1" gradientTransform="matrix(0.000360892 0 0 0.000360892 1217 52.9999)"><stop offset="0" stop-color="#FFFFFF"/><stop offset="0.15" stop-color="#FFFFFF"/><stop offset="0.45" stop-color="#FF0000"/><stop offset="1" stop-color="#0F1113"/></radialGradient><radialGradient cx="274320" cy="328352" r="427863" fx="274320" fy="328352" gradientUnits="userSpaceOnUse" spreadMethod="pad" id="fill2" gradientTransform="matrix(0.000360892 0 0 0.000360892 1220 49.0002)"><stop offset="0" stop-color="#FFFFFF"/><stop offset="0.54" stop-color="#FF0000" stop-opacity="0"/><stop offset="1" stop-color="#FF0000" stop-opacity="0"/></radialGradient><linearGradient x1="1490.5" y1="58.0001" x2="1490.5" y2="213" gradientUnits="userSpaceOnUse" spreadMethod="reflect" id="fill3"><stop offset="0" stop-color="#F5FAFF" stop-opacity="0.231373"/><stop offset="0.32" stop-color="#FFFFFF" stop-opacity="0"/><stop offset="1" stop-color="#FFFFFF" stop-opacity="0"/></linearGradient><radialGradient cx="95596.5" cy="102524" r="140178" gradientUnits="userSpaceOnUse" spreadMethod="pad" id="fill4" gradientTransform="matrix(0.000360892 0 0 0.000360892 1222 130)"><stop offset="0" stop-color="#FFFFFF"/><stop offset="0.54" stop-color="#FF0000" stop-opacity="0"/><stop offset="1" stop-color="#FF0000" stop-opacity="0"/></radialGradient><radialGradient cx="112222" cy="120534" r="164689" gradientUnits="userSpaceOnUse" spreadMethod="pad" id="fill5" gradientTransform="matrix(0.000360892 0 0 0.000360892 1251 175)"><stop offset="0" stop-color="#FFFFFF"/><stop offset="0.54" stop-color="#FF0000" stop-opacity="0"/><stop offset="1" stop-color="#FF0000" stop-opacity="0"/></radialGradient><radialGradient cx="241070" cy="254924" r="350857" fx="241070" fy="254924" gradientUnits="userSpaceOnUse" spreadMethod="pad" id="fill6" gradientTransform="matrix(0.000360892 0 0 0.000360892 1579 410)"><stop offset="0" stop-color="#FFFFFF"/><stop offset="0.54" stop-color="#FF0000" stop-opacity="0"/><stop offset="1" stop-color="#FF0000" stop-opacity="0"/></radialGradient><radialGradient cx="72044" cy="77585.5" r="105877" fx="72044" fy="77585.5" gradientUnits="userSpaceOnUse" spreadMethod="pad" id="fill7" gradientTransform="matrix(0.000360892 0 0 0.000360892 1713 519)"><stop offset="0" stop-color="#FFFFFF"/><stop offset="0.54" stop-color="#FF0000" stop-opacity="0"/><stop offset="1" stop-color="#FF0000" stop-opacity="0"/></radialGradient><radialGradient cx="77585.5" cy="83127.5" r="113709" gradientUnits="userSpaceOnUse" spreadMethod="pad" id="fill8" gradientTransform="matrix(0.000360892 0 0 0.000360892 1697 436)"><stop offset="0" stop-color="#FFFFFF"/><stop offset="0.54" stop-color="#FF0000" stop-opacity="0"/><stop offset="1" stop-color="#FF0000" stop-opacity="0"/></radialGradient><clipPath id="clip9"><rect x="1228" y="69" width="527" height="525"/></clipPath><clipPath id="clip10"><rect x="1228" y="69" width="527" height="525"/></clipPath><clipPath id="clip11"><rect x="1228" y="69" width="527" height="525"/></clipPath><clipPath id="clip12"><rect x="1207" y="164" width="344" height="345"/></clipPath><clipPath id="clip13"><rect x="1207" y="164" width="344" height="345"/></clipPath><clipPath id="clip14"><rect x="1207" y="164" width="344" height="345"/></clipPath><clipPath id="clip15"><rect x="1413" y="135" width="298" height="298"/></clipPath><clipPath id="clip16"><rect x="1413" y="135" width="298" height="298"/></clipPath><clipPath id="clip17"><rect x="1413" y="135" width="298" height="298"/></clipPath></defs><g clip-path="url(#clip0)" transform="translate(-1207 -49)"><rect x="1217" y="52.9999" width="550" height="550" fill="url(#fill1)"/><path d="M1220 167.5C1220 102.054 1264.32 49.0002 1319 49.0002 1373.68 49.0002 1418 102.054 1418 167.5 1418 232.946 1373.68 286 1319 286 1264.32 286 1220 232.946 1220 167.5Z" fill="url(#fill2)" fill-rule="evenodd"/><path d="M1251.73 58.0001 1729.27 58.0001C1745.14 58.0001 1758 77.993 1758 102.656L1758 213C1758 174.576 1737.96 143.427 1713.23 143.427L1267.77 143.427C1243.04 143.427 1223 174.576 1223 213L1223 102.656C1223 77.993 1235.86 58.0001 1251.73 58.0001Z" fill="url(#fill3)" fill-rule="evenodd"/><path d="M1222 167C1222 146.565 1237.45 130 1256.5 130 1275.55 130 1291 146.565 1291 167 1291 187.434 1275.55 204 1256.5 204 1237.45 204 1222 187.434 1222 167Z" fill="url(#fill4)" fill-rule="evenodd"/><path d="M1251 218.5C1251 194.476 1269.13 175 1291.5 175 1313.87 175 1332 194.476 1332 218.5 1332 242.524 1313.87 262 1291.5 262 1269.13 262 1251 242.524 1251 218.5Z" fill="url(#fill5)" fill-rule="evenodd"/><path d="M1579 502C1579 451.19 1617.95 410 1666 410 1714.05 410 1753 451.19 1753 502 1753 552.81 1714.05 594 1666 594 1617.95 594 1579 552.81 1579 502Z" fill="url(#fill6)" fill-rule="evenodd"/><path d="M1713 547C1713 531.536 1724.64 519 1739 519 1753.36 519 1765 531.536 1765 547 1765 562.464 1753.36 575 1739 575 1724.64 575 1713 562.464 1713 547Z" fill="url(#fill7)" fill-rule="evenodd"/><path d="M1697 466C1697 449.431 1709.54 436 1725 436 1740.46 436 1753 449.431 1753 466 1753 482.569 1740.46 496 1725 496 1709.54 496 1697 482.569 1697 466Z" fill="url(#fill8)" fill-rule="evenodd"/><g clip-path="url(#clip9)"><g clip-path="url(#clip10)"><g clip-path="url(#clip11)"><path d="M1427.16 315.339 1397.97 522.075C1397.3 526.874 1393.59 530.676 1388.81 531.472 1384.03 532.269 1379.29 529.884 1377.09 525.571L1302.94 380.147C1300.9 376.146 1299.87 371.704 1299.94 367.221L1302.92 168.885C1302.97 165.148 1305.35 161.851 1308.88 160.612 1312.41 159.373 1316.33 160.486 1318.7 163.384L1418.96 285.993C1425.66 294.205 1428.64 304.84 1427.15 315.34ZM1424.01 278.842C1431.12 287.546 1442.37 291.767 1453.45 289.899L1702.64 247.993C1705.97 247.436 1708.62 244.906 1709.34 241.62 1710.06 238.323 1708.69 234.931 1705.91 233.041L1556.99 132.219C1553.33 129.741 1548.98 128.502 1544.56 128.692L1329.18 137.827C1325.42 137.984 1322.07 140.262 1320.53 143.685 1318.99 147.118 1319.53 151.13 1321.91 154.048ZM1717.69 259.689C1715.39 256.834 1711.74 255.437 1708.12 256.046L1465.15 296.911C1449.3 299.579 1437.02 312.199 1434.76 328.096L1405.82 532.741C1405.02 538.381 1407.24 544.029 1411.66 547.629 1416.08 551.221 1422.07 552.228 1427.43 550.298L1629.39 477.345C1633.72 475.781 1637.19 472.441 1638.92 468.157L1719.18 269.834C1720.55 266.421 1719.98 262.547 1717.69 259.691Z" fill="#FFFFFF"/></g></g></g><g clip-path="url(#clip12)"><g clip-path="url(#clip13)"><g clip-path="url(#clip14)"><path d="M-121.765 609.511C-121.765 609.511-140.63 621.859-157.78 634.55-181.447 652.043-208.887 675.367-268.912 673.309-329.28 671.251-360.836 664.391-385.875 720.643-408.17 689.43-411.6 648.956-393.421 620.83-377.643 596.477-351.918 582.757-321.734 570.409-282.632 554.288-279.202 540.568-279.202 540.568-279.202 540.568-271.656 552.916-275.772 562.52-279.888 571.781-285.719 576.24-302.183 585.501-313.845 592.018-320.019 596.82-321.391 608.482-323.106 625.289-286.405 652.043-249.704 645.183-291.207 632.492-296.009 633.178-308.357 618.086-296.009 614.656-274.743 612.598-243.187 582.757-223.979 561.491-205.457 576.583-205.457 576.583-205.457 576.583-227.066 589.96-240.1 603.68-253.477 617.743-272.342 622.545-272.342 622.545-272.342 622.545-241.815 619.115-229.467 605.395-213.346 587.559-199.626 574.182-188.993 572.467-178.36 570.752-171.157 580.699-171.157 580.699-171.157 580.699-185.563 583.786-205.114 605.052-224.665 626.318-245.245 632.492-245.245 632.492-245.245 632.492-216.433 634.55-196.539 610.197-176.645 585.844-156.065 574.182-143.717 592.704-154.35 599.564-165.669 607.453-181.447 622.545-193.109 633.864-208.887 642.782-208.887 642.782-208.887 642.782-188.65 639.352-169.442 624.603-149.891 609.511-140.973 593.047-121.765 609.511Z" fill="#C00000" transform="matrix(-6.14109e-17 -1.00292 -1 6.12323e-17 1999.33 65.2398)"/></g></g></g><g clip-path="url(#clip15)"><g clip-path="url(#clip16)"><g clip-path="url(#clip17)"><path d="M272.793 63.0777 254.904 57.5089C249.795 55.9201 244.365 58.7735 242.777 63.8823 242.776 63.8846 242.775 63.8875 242.774 63.8898L239.358 74.8301C238.819 76.5483 239.775 78.3773 241.493 78.9162 241.496 78.9173 241.5 78.9185 241.504 78.9196L271.668 88.3111C273.39 88.8477 275.221 87.8871 275.758 86.1648L279.18 75.1839C280.754 70.0775 277.897 64.6613 272.793 63.0777Z" fill="#C00000" transform="matrix(1.83697e-16 1 1 -1.83697e-16 1414 135)"/><path d="M263.587 98.7003 242.85 92.2324C240.874 91.617 238.773 92.7197 238.157 94.6954 238.157 94.6966 238.157 94.6972 238.157 94.6978L229.16 122.542 219.699 119.595C216.584 118.635 213.28 120.375 212.309 123.487L210.47 129.386C209.882 131.263 210.918 133.263 212.79 133.865L264.092 149.846C265.979 150.431 267.983 149.377 268.57 147.491L270.409 141.591C271.381 138.468 269.639 135.148 266.517 134.172L257.05 131.225 266.047 103.382C266.656 101.41 265.556 99.3175 263.587 98.7003Z" fill="#C00000" transform="matrix(1.83697e-16 1 1 -1.83697e-16 1414 135)"/><path d="M205.081 148.941C198.172 174.789 184.459 233.737 193.479 276.338 193.87 278.161 195.664 279.322 197.488 278.932 198.096 278.802 198.655 278.506 199.106 278.078 230.72 248.134 253.633 192.046 262.607 166.848 263.459 164.461 262.214 161.836 259.827 160.984 259.768 160.964 259.709 160.944 259.649 160.925L244.926 156.343C243.577 155.923 242.144 156.676 241.724 158.025 241.722 158.031 241.72 158.036 241.719 158.042 230.071 196.327 218.411 219.351 211.949 232.379 211.541 233.189 210.553 233.513 209.743 233.105 209.118 232.789 208.762 232.111 208.857 231.416 210.928 217.019 215.134 191.658 227.275 153.541 227.707 152.199 226.969 150.761 225.628 150.329 225.62 150.327 225.612 150.324 225.604 150.321L210.882 145.739C208.463 144.984 205.889 146.334 205.135 148.753 205.116 148.815 205.098 148.878 205.081 148.941Z" fill="#C00000" transform="matrix(1.83697e-16 1 1 -1.83697e-16 1414 135)"/><path d="M43.326 204.188C78.8906 248.784 139.66 269.371 163.733 276.071 167.337 277.063 171.064 274.946 172.057 271.342 172.301 270.457 172.362 269.532 172.237 268.623 166.523 225.343 181.553 175.613 187.864 157.277 188.778 154.586 187.338 151.664 184.648 150.75 184.07 150.553 183.462 150.461 182.852 150.478 179.894 150.543 176.935 150.443 173.989 150.176 146.673 147.665 127.078 122.768 130.083 95.5099 130.083 95.4345 130.083 95.3532 130.083 95.2778 130.819 88.8158 122.756 85.3469 118.62 90.3646 111.601 98.8801 104.553 110.702 102.227 125.453 100.33 137.502 101.015 149.463 104.855 160.148 107.935 168.722 116.004 183.931 135.5 189.773 138.568 190.623 140.458 193.7 139.828 196.82 139.098 199.999 135.929 201.983 132.75 201.253 132.637 201.227 132.525 201.198 132.414 201.165 107.744 193.909 97.6097 174.853 93.7522 164.139 89.216 151.516 88.1313 137.455 90.614 123.4 95.8927 93.4912 112.03 76.5993 124.641 67.7125 127.696 65.5662 130.892 63.6282 134.207 61.9117 142.03 57.7819 149.279 52.6451 155.768 46.6325 166.697 36.6203 178.971 29.9262 188.351 25.7961 192.319 24.0558 191.118 17.7562 186.791 18.0288 158.402 19.8445 114.345 26.8808 72.1211 49.6141 11.4043 82.2841 0.324844 150.24 43.326 204.188Z" fill="#C00000" transform="matrix(1.83697e-16 1 1 -1.83697e-16 1414 135)"/></g></g></g></g></svg>