<svg width="550" height="550" xmlns="http://www.w3.org/2000/svg" xmlns:xlink="http://www.w3.org/1999/xlink" overflow="hidden"><defs><clipPath id="clip0"><rect x="27" y="602" width="550" height="550"/></clipPath><radialGradient cx="762000" cy="762000" r="1.07763e+06" gradientUnits="userSpaceOnUse" spreadMethod="pad" id="fill1" gradientTransform="matrix(0.000360892 0 0 0.000360892 27.0002 602)"><stop offset="0" stop-color="#FFFFCC"/><stop offset="0.17" stop-color="#FFFFCC"/><stop offset="0.33" stop-color="#00B050"/><stop offset="1" stop-color="#0F1113"/></radialGradient><linearGradient x1="300.5" y1="608" x2="300.5" y2="762" gradientUnits="userSpaceOnUse" spreadMethod="reflect" id="fill2"><stop offset="0" stop-color="#F5FAFF" stop-opacity="0.231373"/><stop offset="0.32" stop-color="#FFFFFF" stop-opacity="0"/><stop offset="1" stop-color="#FFFFFF" stop-opacity="0"/></linearGradient><radialGradient cx="95596.5" cy="102524" r="140178" gradientUnits="userSpaceOnUse" spreadMethod="pad" id="fill3" gradientTransform="matrix(0.000360892 0 0 0.000360892 30.9999 649)"><stop offset="0" stop-color="#FFFFCC"/><stop offset="0.54" stop-color="#92D050" stop-opacity="0"/><stop offset="1" stop-color="#92D050" stop-opacity="0"/></radialGradient><radialGradient cx="112222" cy="120534" r="164688" gradientUnits="userSpaceOnUse" spreadMethod="pad" id="fill4" gradientTransform="matrix(0.000360892 0 0 0.000360892 60.0002 694)"><stop offset="0" stop-color="#FFFFCC"/><stop offset="0.54" stop-color="#92D050" stop-opacity="0"/><stop offset="1" stop-color="#92D050" stop-opacity="0"/></radialGradient><radialGradient cx="293717" cy="278477" r="404745" fx="293716" fy="278476" gradientUnits="userSpaceOnUse" spreadMethod="pad" id="fill5" gradientTransform="matrix(0.000360892 0 0 0.000360892 364 934)"><stop offset="0" stop-color="#FFFFCC"/><stop offset="0.54" stop-color="#92D050" stop-opacity="0"/><stop offset="1" stop-color="#92D050" stop-opacity="0"/></radialGradient><radialGradient cx="243840" cy="281247" r="372234" gradientUnits="userSpaceOnUse" spreadMethod="pad" id="fill6" gradientTransform="matrix(0.000360892 0 0 0.000360892 60.0002 610)"><stop offset="0" stop-color="#FFFFCC"/><stop offset="0.54" stop-color="#92D050" stop-opacity="0"/><stop offset="1" stop-color="#92D050" stop-opacity="0"/></radialGradient><radialGradient cx="72043.5" cy="77585.5" r="105876" fx="72043.5" fy="77585.5" gradientUnits="userSpaceOnUse" spreadMethod="pad" id="fill7" gradientTransform="matrix(0.000360892 0 0 0.000360892 510 1062)"><stop offset="0" stop-color="#FFFFCC"/><stop offset="0.54" stop-color="#92D050" stop-opacity="0"/><stop offset="1" stop-color="#92D050" stop-opacity="0"/></radialGradient><radialGradient cx="77585.5" cy="84512.5" r="114725" gradientUnits="userSpaceOnUse" spreadMethod="pad" id="fill8" gradientTransform="matrix(0.000360892 0 0 0.000360892 494 979)"><stop offset="0" stop-color="#FFFFCC"/><stop offset="0.54" stop-color="#92D050" stop-opacity="0"/><stop offset="1" stop-color="#92D050" stop-opacity="0"/></radialGradient><clipPath id="clip9"><rect x="42" y="616" width="526" height="525"/></clipPath><clipPath id="clip10"><rect x="42" y="616" width="526" height="525"/></clipPath><clipPath id="clip11"><rect x="42" y="616" width="526" height="525"/></clipPath><clipPath id="clip12"><rect x="96" y="722" width="421" height="321"/></clipPath><clipPath id="clip13"><rect x="96" y="722" width="421" height="321"/></clipPath><clipPath id="clip14"><rect x="96" y="722" width="421" height="321"/></clipPath></defs><g clip-path="url(#clip0)" transform="translate(-27 -602)"><rect x="27.0002" y="602" width="550" height="550" fill="url(#fill1)"/><path d="M61.7337 608 539.266 608C555.135 608 568 627.864 568 652.368L568 762C568 723.824 547.957 692.876 523.233 692.876L77.7667 692.876C53.0427 692.876 33 723.824 33 762L33 652.368C33 627.864 45.8644 608 61.7337 608Z" fill="url(#fill2)" fill-rule="evenodd"/><path d="M30.9999 686C30.9999 665.565 46.4461 649 65.5 649 84.5538 649 100 665.565 100 686 100 706.434 84.5538 723 65.5 723 46.4461 723 30.9999 706.434 30.9999 686Z" fill="url(#fill3)" fill-rule="evenodd"/><path d="M60.0002 737.5C60.0002 713.476 78.1326 694 100.5 694 122.868 694 141 713.476 141 737.5 141 761.524 122.868 781 100.5 781 78.1326 781 60.0002 761.524 60.0002 737.5Z" fill="url(#fill4)" fill-rule="evenodd"/><path d="M364 1034.5C364 978.995 411.458 934 470 934 528.542 934 576 978.995 576 1034.5 576 1090 528.542 1135 470 1135 411.458 1135 364 1090 364 1034.5Z" fill="url(#fill5)" fill-rule="evenodd"/><path d="M60.0002 711.5C60.0002 655.443 99.3991 610 148 610 196.601 610 236 655.443 236 711.5 236 767.557 196.601 813 148 813 99.3991 813 60.0002 767.557 60.0002 711.5Z" fill="url(#fill6)" fill-rule="evenodd"/><path d="M510 1090C510 1074.54 521.641 1062 536 1062 550.359 1062 562 1074.54 562 1090 562 1105.46 550.359 1118 536 1118 521.641 1118 510 1105.46 510 1090Z" fill="url(#fill7)" fill-rule="evenodd"/><path d="M494 1009.5C494 992.655 506.536 979 522 979 537.464 979 550 992.655 550 1009.5 550 1026.34 537.464 1040 522 1040 506.536 1040 494 1026.34 494 1009.5Z" fill="url(#fill8)" fill-rule="evenodd"/><g clip-path="url(#clip9)"><g clip-path="url(#clip10)"><g clip-path="url(#clip11)"><path d="M241.157 862.339 211.967 1069.07C211.296 1073.87 207.589 1077.68 202.81 1078.47 198.032 1079.27 193.286 1076.88 191.092 1072.57L116.94 927.146C114.903 923.146 113.874 918.704 113.938 914.221L116.92 715.885C116.972 712.148 119.355 708.851 122.884 707.612 126.412 706.373 130.328 707.486 132.702 710.384L232.955 832.993C239.663 841.205 242.645 851.84 241.155 862.34ZM238.005 825.842C245.125 834.546 256.37 838.767 267.448 836.899L516.642 794.993C519.971 794.436 522.618 791.906 523.344 788.62 524.057 785.323 522.692 781.931 519.91 780.041L370.988 679.219C367.335 676.741 362.977 675.502 358.557 675.692L143.18 684.827C139.421 684.984 136.071 687.262 134.528 690.685 132.995 694.118 133.532 698.13 135.914 701.048ZM531.692 806.689C529.391 803.834 525.737 802.437 522.115 803.046L279.145 843.911C263.301 846.579 251.015 859.199 248.757 875.096L219.819 1079.74C219.021 1085.38 221.236 1091.03 225.657 1094.63 230.078 1098.22 236.074 1099.23 241.428 1097.3L443.386 1024.34C447.722 1022.78 451.188 1019.44 452.921 1015.16L533.184 816.834C534.549 813.421 533.98 809.547 531.692 806.691Z" fill="#FFFFFF"/></g></g></g><g clip-path="url(#clip12)"><g clip-path="url(#clip13)"><g clip-path="url(#clip14)"><path d="M118.335 98.6951C121.381 95.2372 123.248 90.713 123.248 85.7412 123.248 74.9197 114.447 66.1129 103.62 66.1129 92.7925 66.1129 83.9916 74.9197 83.9916 85.7412 83.9916 91.0665 86.1241 95.8911 89.582 99.4374 48.0516 107.29 15.4104 143.589 15.2101 185.697 15.2101 186.198 15.2749 186.704 15.3928 187.187L15.2926 329.628C15.2926 331.366 15.976 333.033 17.2071 334.252 18.4383 335.483 20.0995 336.173 21.8373 336.173L185.414 336.173C189.025 336.173 191.953 333.239 191.959 329.628L192.012 187.164C192.024 186.963 192.035 186.763 192.035 186.551 192.035 141.038 160.508 104.58 118.335 98.6951ZM126.188 323.077C124.468 313.723 122.806 296.58 128.397 288.41 149.627 257.4 146.087 232.883 131.466 195.77 125.027 179.423 125.728 135.507 126.812 113.893 134.099 116.05 140.897 119.313 146.994 123.543L146.994 323.071 126.188 323.071ZM60.2397 323.077 60.2397 125.94C66.3957 121.51 73.2114 117.911 80.4924 115.354 81.5351 137.427 82.0712 179.777 75.7739 195.782 61.1528 232.888 57.6124 257.406 78.843 288.415 84.4393 296.586 82.7722 313.728 81.058 323.083L60.2397 323.083ZM89.6409 281.023C71.5148 254.537 74.4661 234.803 87.9502 200.565 96.1915 179.647 94.2593 128.108 93.4228 112.032 97.6289 111.319 101.929 110.93 106.306 110.93 108.857 110.93 111.378 111.06 113.858 111.313 113.045 126.535 110.93 179.329 119.29 200.56 132.774 234.797 135.731 254.531 117.599 281.017 109.434 292.934 111.172 312.556 112.898 323.071L94.3418 323.071C96.0737 312.562 97.8056 292.946 89.6409 281.023ZM103.62 79.2023C107.225 79.2023 110.159 82.1419 110.159 85.7412 110.159 89.3523 107.225 92.2859 103.62 92.2859 100.015 92.2859 97.081 89.3464 97.081 85.7412 97.081 82.136 100.015 79.2023 103.62 79.2023ZM28.3173 184.348C28.7591 166.805 35.834 150.517 47.1503 137.751L47.1503 323.077 28.3821 323.077 28.4822 185.732C28.4822 185.261 28.4292 184.802 28.3173 184.348ZM178.917 186.551 178.869 323.077 160.089 323.077 160.089 135.224C171.742 148.479 178.811 166.21 178.946 185.968 178.928 186.162 178.917 186.351 178.917 186.551Z" fill="#132F1E" transform="matrix(1 0 0 1.00176 99.1977 686.271)"/><path d="M342.47 93.8057C342.47 106.549 332.139 116.88 319.395 116.88 306.652 116.88 296.321 106.549 296.321 93.8057 296.321 81.0621 306.652 70.7313 319.395 70.7313 332.139 70.7313 342.47 81.0621 342.47 93.8057Z" fill="#132F1E" transform="matrix(1 0 0 1.00176 99.1977 686.271)"/><path d="M397.231 201.048C385.279 195.552 360.655 187.723 353.933 176.207 344.95 160.838 337.274 125.027 305.711 125.227 291.938 125.322 269.506 148.09 253.677 158.369 246.308 163.153 246.549 176.012 245.247 183.688 243.539 193.75 241.837 203.811 240.128 213.879 238.426 223.893 246.85 228.429 255.126 223.94 259.662 221.49 261.642 215.275 262.437 210.592 264.487 198.527 267.214 189.108 269.258 177.043L283.803 165.244C278.855 194.775 274.389 212.241 269.859 252.045 268.516 263.815 266.902 275.897 264.122 279.509 255.138 291.231 248.264 302.736 239.15 314.347 226.255 330.788 249.212 343.401 261.023 328.361 269.088 318.064 277.164 307.779 285.24 297.493 296.68 282.902 296.186 259.109 299.172 241.265 308.226 260.823 317.281 280.375 326.335 299.932 330.523 308.986 334.717 318.029 338.912 327.095 346.735 343.996 370.864 335.242 362.64 317.499 350.97 292.303 341.675 267.102 330.011 241.919 326.37 234.049 320.656 226.385 321.899 217.826 323.931 203.805 325.97 189.785 328.002 175.777 331.366 181.544 334.299 189.426 338.818 194.303 342.022 199.8 354.128 203.258 359.659 205.796 368.313 209.785 376.973 213.767 385.626 217.743 399.499 224.141 411.952 207.817 397.231 201.048Z" fill="#132F1E" transform="matrix(1 0 0 1.00176 99.1977 686.271)"/></g></g></g></g></svg>