<svg width="550" height="550" xmlns="http://www.w3.org/2000/svg" xmlns:xlink="http://www.w3.org/1999/xlink" overflow="hidden"><defs><clipPath id="clip0"><rect x="1203" y="602" width="550" height="550"/></clipPath><radialGradient cx="762000" cy="762000" r="1.07763e+06" gradientUnits="userSpaceOnUse" spreadMethod="pad" id="fill1" gradientTransform="matrix(0.000360892 0 0 0.000360892 1203 602)"><stop offset="0" stop-color="#FFFFCC"/><stop offset="0.17" stop-color="#FFFFCC"/><stop offset="0.33" stop-color="#00B050"/><stop offset="1" stop-color="#0F1113"/></radialGradient><linearGradient x1="1476" y1="608" x2="1476" y2="762" gradientUnits="userSpaceOnUse" spreadMethod="reflect" id="fill2"><stop offset="0" stop-color="#F5FAFF" stop-opacity="0.231373"/><stop offset="0.32" stop-color="#FFFFFF" stop-opacity="0"/><stop offset="1" stop-color="#FFFFFF" stop-opacity="0"/></linearGradient><radialGradient cx="94211" cy="102524" r="139236" gradientUnits="userSpaceOnUse" spreadMethod="pad" id="fill3" gradientTransform="matrix(0.000360892 0 0 0.000360892 1207 649)"><stop offset="0" stop-color="#FFFFCC"/><stop offset="0.54" stop-color="#92D050" stop-opacity="0"/><stop offset="1" stop-color="#92D050" stop-opacity="0"/></radialGradient><radialGradient cx="110836" cy="120534" r="163747" fx="110836" fy="120534" gradientUnits="userSpaceOnUse" spreadMethod="pad" id="fill4" gradientTransform="matrix(0.000360892 0 0 0.000360892 1236 694)"><stop offset="0" stop-color="#FFFFCC"/><stop offset="0.54" stop-color="#92D050" stop-opacity="0"/><stop offset="1" stop-color="#92D050" stop-opacity="0"/></radialGradient><radialGradient cx="292331" cy="278477" r="403741" fx="292331" fy="278476" gradientUnits="userSpaceOnUse" spreadMethod="pad" id="fill5" gradientTransform="matrix(0.000360892 0 0 0.000360892 1540 934)"><stop offset="0" stop-color="#FFFFCC"/><stop offset="0.54" stop-color="#92D050" stop-opacity="0"/><stop offset="1" stop-color="#92D050" stop-opacity="0"/></radialGradient><radialGradient cx="243840" cy="281247" r="372234" gradientUnits="userSpaceOnUse" spreadMethod="pad" id="fill6" gradientTransform="matrix(0.000360892 0 0 0.000360892 1236 610)"><stop offset="0" stop-color="#FFFFCC"/><stop offset="0.54" stop-color="#92D050" stop-opacity="0"/><stop offset="1" stop-color="#92D050" stop-opacity="0"/></radialGradient><radialGradient cx="72043.5" cy="77585.5" r="105876" fx="72043.5" fy="77585.5" gradientUnits="userSpaceOnUse" spreadMethod="pad" id="fill7" gradientTransform="matrix(0.000360892 0 0 0.000360892 1685 1062)"><stop offset="0" stop-color="#FFFFCC"/><stop offset="0.54" stop-color="#92D050" stop-opacity="0"/><stop offset="1" stop-color="#92D050" stop-opacity="0"/></radialGradient><radialGradient cx="77585.5" cy="84512.5" r="114725" gradientUnits="userSpaceOnUse" spreadMethod="pad" id="fill8" gradientTransform="matrix(0.000360892 0 0 0.000360892 1669 979)"><stop offset="0" stop-color="#FFFFCC"/><stop offset="0.54" stop-color="#92D050" stop-opacity="0"/><stop offset="1" stop-color="#92D050" stop-opacity="0"/></radialGradient><clipPath id="clip9"><rect x="1217" y="616" width="527" height="525"/></clipPath><clipPath id="clip10"><rect x="1217" y="616" width="527" height="525"/></clipPath><clipPath id="clip11"><rect x="1217" y="616" width="527" height="525"/></clipPath><clipPath id="clip12"><rect x="1313" y="708" width="344" height="344"/></clipPath><clipPath id="clip13"><rect x="1313" y="708" width="344" height="344"/></clipPath><clipPath id="clip14"><rect x="1313" y="708" width="344" height="344"/></clipPath></defs><g clip-path="url(#clip0)" transform="translate(-1203 -602)"><rect x="1203" y="602" width="550" height="550" fill="url(#fill1)"/><path d="M1236.79 608 1715.21 608C1731.11 608 1744 627.864 1744 652.368L1744 762C1744 723.824 1723.92 692.876 1699.15 692.876L1252.85 692.876C1228.08 692.876 1208 723.824 1208 762L1208 652.368C1208 627.864 1220.89 608 1236.79 608Z" fill="url(#fill2)" fill-rule="evenodd"/><path d="M1207 686C1207 665.565 1222.22 649 1241 649 1259.78 649 1275 665.565 1275 686 1275 706.434 1259.78 723 1241 723 1222.22 723 1207 706.434 1207 686Z" fill="url(#fill3)" fill-rule="evenodd"/><path d="M1236 737.5C1236 713.476 1253.91 694 1276 694 1298.09 694 1316 713.476 1316 737.5 1316 761.524 1298.09 781 1276 781 1253.91 781 1236 761.524 1236 737.5Z" fill="url(#fill4)" fill-rule="evenodd"/><path d="M1540 1034.5C1540 978.995 1587.23 934 1645.5 934 1703.77 934 1751 978.995 1751 1034.5 1751 1090 1703.77 1135 1645.5 1135 1587.23 1135 1540 1090 1540 1034.5Z" fill="url(#fill5)" fill-rule="evenodd"/><path d="M1236 711.5C1236 655.443 1275.4 610 1324 610 1372.6 610 1412 655.443 1412 711.5 1412 767.557 1372.6 813 1324 813 1275.4 813 1236 767.557 1236 711.5Z" fill="url(#fill6)" fill-rule="evenodd"/><path d="M1685 1090C1685 1074.54 1696.64 1062 1711 1062 1725.36 1062 1737 1074.54 1737 1090 1737 1105.46 1725.36 1118 1711 1118 1696.64 1118 1685 1105.46 1685 1090Z" fill="url(#fill7)" fill-rule="evenodd"/><path d="M1669 1009.5C1669 992.655 1681.54 979 1697 979 1712.46 979 1725 992.655 1725 1009.5 1725 1026.34 1712.46 1040 1697 1040 1681.54 1040 1669 1026.34 1669 1009.5Z" fill="url(#fill8)" fill-rule="evenodd"/><g clip-path="url(#clip9)"><g clip-path="url(#clip10)"><g clip-path="url(#clip11)"><path d="M198.157 246.339 168.967 453.075C168.296 457.874 164.589 461.676 159.81 462.472 155.032 463.269 150.286 460.884 148.092 456.571L73.9401 311.146C71.9031 307.146 70.8741 302.704 70.9376 298.221L73.9195 99.8852C73.9725 96.1476 76.3547 92.851 79.884 91.612 83.4115 90.373 87.3285 91.4856 89.7019 94.384L189.955 216.993C196.663 225.205 199.645 235.84 198.155 246.34ZM195.006 209.842C202.125 218.546 213.37 222.767 224.448 220.899L473.642 178.993C476.971 178.436 479.618 175.906 480.344 172.62 481.057 169.323 479.692 165.931 476.91 164.041L327.988 63.2192C324.335 60.7412 319.977 59.5022 315.557 59.692L100.18 68.8266C96.4206 68.9837 93.0711 71.2617 91.528 74.6847 89.995 78.1182 90.5319 82.1297 92.914 85.0482ZM488.692 190.689C486.391 187.834 482.737 186.437 479.115 187.046L236.145 227.911C220.301 230.579 208.015 243.199 205.758 259.096L176.819 463.741C176.021 469.381 178.236 475.029 182.657 478.629 187.078 482.221 193.074 483.227 198.428 481.298L400.386 408.344C404.722 406.78 408.188 403.441 409.921 399.157L490.184 200.834C491.549 197.421 490.98 193.547 488.692 190.691Z" fill="#FFFFFF" transform="matrix(1.0019 0 0 1 1218 616)"/></g></g></g><g clip-path="url(#clip12)"><g clip-path="url(#clip13)"><g clip-path="url(#clip14)"><path d="M1555.17 755.309C1555.64 777.153 1538.31 795.241 1516.47 795.71 1494.62 796.18 1476.54 778.852 1476.07 757.008 1475.6 735.164 1492.93 717.075 1514.77 716.606 1536.61 716.137 1554.7 733.465 1555.17 755.309Z" fill="#132F1E"/><path d="M1601.62 997.992 1551.39 997.992C1553.8 987.328 1557.93 973.568 1560.34 964.624 1566.87 940.888 1570.66 928.16 1570.31 919.904 1569.97 912.68 1569.28 903.048 1568.25 892.728 1561.71 809.824 1552.42 805.008 1537.29 805.008 1537.29 805.008 1537.29 805.008 1537.29 805.008 1517.34 805.008 1504.26 806.728 1496.01 814.984 1492.57 818.424 1489.13 826.68 1489.82 834.248 1490.85 841.816 1493.6 862.8 1493.6 862.8 1481.22 866.24 1467.46 870.024 1454.38 873.12 1444.75 875.528 1438.9 885.16 1441.31 894.792 1443.72 904.424 1453.35 910.272 1462.98 907.864 1476.74 904.424 1488.44 901.672 1498.42 898.92L1500.82 916.464C1483.28 917.84 1461.61 919.56 1455.42 920.592 1444.06 922.312 1433.06 923.688 1400.03 1014.5 1395.9 1025.51 1401.75 1037.9 1412.76 1042.02 1415.17 1043.06 1417.58 1043.4 1419.98 1043.4 1428.58 1043.4 1436.84 1037.9 1440.28 1029.3 1449.57 1004.18 1461.95 974.256 1468.83 962.216 1480.18 961.184 1501.17 959.464 1518.02 958.088 1505.64 1002.81 1502.54 1018.98 1511.83 1031.36 1516.3 1037.21 1523.18 1040.65 1530.75 1040.65L1602.3 1040.65C1614 1040.65 1623.63 1031.02 1623.63 1019.32 1623.63 1007.62 1613.66 997.992 1601.62 997.992Z" fill="#132F1E"/><path d="M1397.28 882.408 1385.24 891.008C1383.18 892.384 1383.52 895.48 1385.93 896.512L1425.49 914.744C1428.58 916.12 1431.68 911.992 1428.93 909.584L1411.38 894.104 1424.46 884.816C1426.18 883.44 1426.18 881.032 1424.46 879.656L1392.12 853.512C1391.09 852.48 1389.37 852.48 1388.34 853.512L1374.92 863.144C1373.2 864.52 1373.2 867.272 1374.92 868.304L1397.28 882.408Z" fill="#132F1E"/><path d="M1417.92 927.472 1394.53 928.848 1397.28 913.024C1397.62 910.96 1395.9 909.24 1393.84 909.24L1352.56 913.368C1351.18 913.368 1350.15 914.744 1349.81 916.12L1347.06 932.632C1346.71 934.696 1348.78 936.76 1350.84 936.072L1376.64 930.224 1373.89 945.36C1373.54 947.768 1375.95 949.488 1378.02 948.8L1418.95 933.664C1422.39 932.288 1421.36 927.472 1417.92 927.472Z" fill="#132F1E"/></g></g></g></g></svg>