<svg width="550" height="550" xmlns="http://www.w3.org/2000/svg" xmlns:xlink="http://www.w3.org/1999/xlink" overflow="hidden"><defs><clipPath id="clip0"><rect x="1798" y="1204" width="550" height="550"/></clipPath><radialGradient cx="762000" cy="762000" r="1.07763e+06" gradientUnits="userSpaceOnUse" spreadMethod="pad" id="fill1" gradientTransform="matrix(0.000360892 0 0 0.000360892 1798 1204)"><stop offset="0" stop-color="#FFFFCC"/><stop offset="0.17" stop-color="#FFFFCC"/><stop offset="0.33" stop-color="#00B050"/><stop offset="1" stop-color="#0F1113"/></radialGradient><linearGradient x1="2071.5" y1="1209" x2="2071.5" y2="1364" gradientUnits="userSpaceOnUse" spreadMethod="reflect" id="fill2"><stop offset="0" stop-color="#F5FAFF" stop-opacity="0.231373"/><stop offset="0.32" stop-color="#FFFFFF" stop-opacity="0"/><stop offset="1" stop-color="#FFFFFF" stop-opacity="0"/></linearGradient><radialGradient cx="94211" cy="102524" r="139237" fx="94211" fy="102524" gradientUnits="userSpaceOnUse" spreadMethod="pad" id="fill3" gradientTransform="matrix(0.000360892 0 0 0.000360892 1802 1250)"><stop offset="0" stop-color="#FFFFCC"/><stop offset="0.54" stop-color="#92D050" stop-opacity="0"/><stop offset="1" stop-color="#92D050" stop-opacity="0"/></radialGradient><radialGradient cx="110836" cy="120534" r="163747" fx="110836" fy="120534" gradientUnits="userSpaceOnUse" spreadMethod="pad" id="fill4" gradientTransform="matrix(0.000360892 0 0 0.000360892 1831 1295)"><stop offset="0" stop-color="#FFFFCC"/><stop offset="0.54" stop-color="#92D050" stop-opacity="0"/><stop offset="1" stop-color="#92D050" stop-opacity="0"/></radialGradient><radialGradient cx="292331" cy="278477" r="403741" fx="292331" fy="278476" gradientUnits="userSpaceOnUse" spreadMethod="pad" id="fill5" gradientTransform="matrix(0.000360892 0 0 0.000360892 2135 1535)"><stop offset="0" stop-color="#FFFFCC"/><stop offset="0.54" stop-color="#92D050" stop-opacity="0"/><stop offset="1" stop-color="#92D050" stop-opacity="0"/></radialGradient><radialGradient cx="243840" cy="281247" r="372234" gradientUnits="userSpaceOnUse" spreadMethod="pad" id="fill6" gradientTransform="matrix(0.000360892 0 0 0.000360892 1831 1211)"><stop offset="0" stop-color="#FFFFCC"/><stop offset="0.54" stop-color="#92D050" stop-opacity="0"/><stop offset="1" stop-color="#92D050" stop-opacity="0"/></radialGradient><radialGradient cx="72043.5" cy="77585.5" r="105876" fx="72043.5" fy="77585.5" gradientUnits="userSpaceOnUse" spreadMethod="pad" id="fill7" gradientTransform="matrix(0.000360892 0 0 0.000360892 2280 1663)"><stop offset="0" stop-color="#FFFFCC"/><stop offset="0.54" stop-color="#92D050" stop-opacity="0"/><stop offset="1" stop-color="#92D050" stop-opacity="0"/></radialGradient><radialGradient cx="77585.5" cy="84513" r="114726" fx="77585.5" fy="84513" gradientUnits="userSpaceOnUse" spreadMethod="pad" id="fill8" gradientTransform="matrix(0.000360892 0 0 0.000360892 2264 1580)"><stop offset="0" stop-color="#FFFFCC"/><stop offset="0.54" stop-color="#92D050" stop-opacity="0"/><stop offset="1" stop-color="#92D050" stop-opacity="0"/></radialGradient><clipPath id="clip9"><rect x="1813" y="1216" width="526" height="527"/></clipPath><clipPath id="clip10"><rect x="1813" y="1216" width="526" height="527"/></clipPath><clipPath id="clip11"><rect x="1813" y="1216" width="526" height="527"/></clipPath><clipPath id="clip12"><rect x="1850" y="1245" width="475" height="475"/></clipPath><clipPath id="clip13"><rect x="1850" y="1245" width="475" height="475"/></clipPath><clipPath id="clip14"><rect x="1850" y="1245" width="475" height="475"/></clipPath></defs><g clip-path="url(#clip0)" transform="translate(-1798 -1204)"><rect x="1798" y="1204" width="550" height="550" fill="url(#fill1)"/><path d="M1832.73 1209 2310.27 1209C2326.14 1209 2339 1228.99 2339 1253.66L2339 1364C2339 1325.58 2318.96 1294.43 2294.23 1294.43L1848.77 1294.43C1824.04 1294.43 1804 1325.58 1804 1364L1804 1253.66C1804 1228.99 1816.86 1209 1832.73 1209Z" fill="url(#fill2)" fill-rule="evenodd"/><path d="M1802 1287C1802 1266.57 1817.22 1250 1836 1250 1854.78 1250 1870 1266.57 1870 1287 1870 1307.43 1854.78 1324 1836 1324 1817.22 1324 1802 1307.43 1802 1287Z" fill="url(#fill3)" fill-rule="evenodd"/><path d="M1831 1338.5C1831 1314.48 1848.91 1295 1871 1295 1893.09 1295 1911 1314.48 1911 1338.5 1911 1362.52 1893.09 1382 1871 1382 1848.91 1382 1831 1362.52 1831 1338.5Z" fill="url(#fill4)" fill-rule="evenodd"/><path d="M2135 1635.5C2135 1580 2182.23 1535 2240.5 1535 2298.77 1535 2346 1580 2346 1635.5 2346 1691 2298.77 1736 2240.5 1736 2182.23 1736 2135 1691 2135 1635.5Z" fill="url(#fill5)" fill-rule="evenodd"/><path d="M1831 1312.5C1831 1256.44 1870.4 1211 1919 1211 1967.6 1211 2007 1256.44 2007 1312.5 2007 1368.56 1967.6 1414 1919 1414 1870.4 1414 1831 1368.56 1831 1312.5Z" fill="url(#fill6)" fill-rule="evenodd"/><path d="M2280 1691C2280 1675.54 2291.64 1663 2306 1663 2320.36 1663 2332 1675.54 2332 1691 2332 1706.46 2320.36 1719 2306 1719 2291.64 1719 2280 1706.46 2280 1691Z" fill="url(#fill7)" fill-rule="evenodd"/><path d="M2264 1610.5C2264 1593.66 2276.54 1580 2292 1580 2307.46 1580 2320 1593.66 2320 1610.5 2320 1627.34 2307.46 1641 2292 1641 2276.54 1641 2264 1627.34 2264 1610.5Z" fill="url(#fill8)" fill-rule="evenodd"/><g clip-path="url(#clip9)"><g clip-path="url(#clip10)"><g clip-path="url(#clip11)"><path d="M2012.16 1463.34 1982.97 1670.08C1982.3 1674.87 1978.59 1678.68 1973.81 1679.47 1969.03 1680.27 1964.29 1677.88 1962.09 1673.57L1887.94 1528.15C1885.9 1524.15 1884.87 1519.7 1884.94 1515.22L1887.92 1316.89C1887.97 1313.15 1890.35 1309.85 1893.88 1308.61 1897.41 1307.37 1901.33 1308.49 1903.7 1311.38L2003.96 1433.99C2010.66 1442.21 2013.64 1452.84 2012.15 1463.34ZM2009.01 1426.84C2016.12 1435.55 2027.37 1439.77 2038.45 1437.9L2287.64 1395.99C2290.97 1395.44 2293.62 1392.91 2294.34 1389.62 2295.06 1386.32 2293.69 1382.93 2290.91 1381.04L2141.99 1280.22C2138.33 1277.74 2133.98 1276.5 2129.56 1276.69L1914.18 1285.83C1910.42 1285.98 1907.07 1288.26 1905.53 1291.68 1903.99 1295.12 1904.53 1299.13 1906.91 1302.05ZM2302.69 1407.69C2300.39 1404.83 2296.74 1403.44 2293.11 1404.05L2050.15 1444.91C2034.3 1447.58 2022.02 1460.2 2019.76 1476.1L1990.82 1680.74C1990.02 1686.38 1992.24 1692.03 1996.66 1695.63 2001.08 1699.22 2007.07 1700.23 2012.43 1698.3L2214.39 1625.34C2218.72 1623.78 2222.19 1620.44 2223.92 1616.16L2304.18 1417.83C2305.55 1414.42 2304.98 1410.55 2302.69 1407.69Z" fill="#FFFFFF"/></g></g></g><g clip-path="url(#clip12)"><g clip-path="url(#clip13)"><g clip-path="url(#clip14)"><path d="M2021.13 1322.81C2021.13 1303.85 2036.5 1288.49 2055.46 1288.49 2074.41 1288.49 2089.78 1303.85 2089.78 1322.81 2089.78 1341.77 2074.41 1357.13 2055.46 1357.13 2036.5 1357.13 2021.13 1341.77 2021.13 1322.81ZM2093.62 1472.75C2069.35 1464.03 2038.63 1452.74 2017.28 1444.01L2017.28 1488.09C2017.28 1488.33 2017.32 1488.56 2017.35 1488.8L2017.35 1658.58C2017.35 1668.18 2025.15 1675.99 2034.76 1675.99 2044.38 1675.99 2052.18 1668.19 2052.18 1658.58L2052.18 1493.91 2059.03 1493.91 2059.03 1658.58C2059.03 1668.18 2066.83 1675.99 2076.45 1675.99 2086.07 1675.99 2093.86 1668.19 2093.86 1658.58L2093.86 1486.43C2093.86 1485.5 2093.77 1484.59 2093.62 1483.7L2093.62 1472.75ZM2099.44 1363.31 2087.81 1363.31 2078.92 1363.31 2030.89 1363.31 2023.09 1363.31 2010.31 1363.31C1999.8 1363.36 1983.26 1371.48 1982.65 1393 1981.51 1401.63 1983.56 1416.96 1998.02 1426.46 2009.96 1434.31 2085.34 1461.41 2108.16 1469.53 2109.73 1470.08 2111.34 1470.35 2112.93 1470.35 2118.79 1470.35 2124.28 1466.71 2126.35 1460.88 2128.99 1453.46 2125.12 1445.32 2117.71 1442.68 2071.92 1426.38 2020.48 1406.95 2013.66 1402.64 2010.9 1400.83 2010.79 1398.06 2010.92 1396.75 2011.16 1395.73 2011.13 1395.34 2011.13 1394.21 2011.13 1393.04 2011.26 1392.24 2011.37 1391.8L2017.28 1391.8 2017.28 1396.5 2025.98 1399.72C2038.15 1404.85 2062.66 1414.31 2093.63 1425.6L2093.63 1391.81 2098.43 1391.81C2098.55 1392.25 2098.68 1393.04 2098.68 1394.21L2098.68 1427.44C2105.63 1429.96 2112.86 1432.56 2120.35 1435.23 2122.92 1436.14 2125.2 1437.51 2127.17 1439.17L2127.17 1394.21C2127.17 1371.79 2110.2 1363.36 2099.44 1363.31ZM2105.49 1476.99C2103.31 1476.21 2101.03 1475.4 2098.68 1474.56L2098.68 1497.07C2098.68 1504.94 2105.06 1511.31 2112.92 1511.31 2120.79 1511.31 2127.17 1504.94 2127.17 1497.07L2127.17 1472.99C2123.25 1476.29 2118.26 1478.26 2112.92 1478.26 2110.39 1478.27 2107.89 1477.83 2105.49 1476.99ZM2189.41 1468.88 2189.42 1468.79 2189.1 1468.79C2188.96 1468.76 2188.83 1468.75 2188.7 1468.73 2188.36 1468.7 2188.04 1468.73 2187.73 1468.81L2175.47 1468.89 2176.33 1458.28C2176.54 1455.67 2174.6 1453.37 2171.98 1453.16 2171.13 1453.1 2170.32 1453.26 2169.6 1453.59L2153.74 1456.43C2151.99 1456.3 2150.46 1457.6 2150.32 1459.35 2150.18 1461.1 2151.48 1462.63 2153.23 1462.77 2153.41 1462.78 2153.58 1462.77 2153.75 1462.77L2166.47 1462.67 2165.6 1473.22C2165.39 1475.84 2167.34 1478.13 2169.95 1478.34 2170.2 1478.36 2170.44 1478.36 2170.68 1478.34L2170.68 1478.4 2188.92 1475.12 2188.92 1475.04C2190.35 1474.83 2191.5 1473.66 2191.61 1472.15 2191.73 1470.66 2190.79 1469.32 2189.41 1468.88ZM2142.78 1443.47C2142.87 1443.39 2142.95 1443.31 2143.03 1443.21L2149.34 1436.81 2154.16 1442.51C2155.37 1443.92 2157.48 1444.1 2158.9 1442.89 2159.02 1442.78 2159.15 1442.65 2159.26 1442.52L2159.28 1442.56 2166.75 1431.83 2166.71 1431.78C2167.31 1430.96 2167.31 1429.81 2166.62 1429 2165.93 1428.19 2164.79 1427.99 2163.89 1428.46L2163.85 1428.41 2163.69 1428.57C2163.61 1428.63 2163.54 1428.69 2163.46 1428.74 2163.28 1428.9 2163.13 1429.07 2163.01 1429.27L2156.94 1435.43 2152.07 1429.7C2150.87 1428.3 2148.75 1428.12 2147.33 1429.33 2146.88 1429.71 2146.56 1430.2 2146.37 1430.73L2139.87 1440.06C2138.92 1440.87 2138.81 1442.28 2139.61 1443.22 2140.41 1444.15 2141.83 1444.28 2142.78 1443.47ZM2155.86 1493.72 2155.69 1493.56C2155.65 1493.48 2155.59 1493.41 2155.53 1493.32 2155.38 1493.15 2155.2 1492.99 2155.01 1492.88L2148.85 1486.81 2154.57 1481.93C2155.98 1480.74 2156.15 1478.61 2154.95 1477.2 2154.56 1476.75 2154.08 1476.42 2153.55 1476.23L2144.22 1469.74C2143.41 1468.79 2142 1468.68 2141.05 1469.48 2140.11 1470.28 2140 1471.7 2140.8 1472.64 2140.88 1472.73 2140.97 1472.82 2141.06 1472.9L2147.45 1479.2 2141.75 1484.03C2140.34 1485.23 2140.18 1487.35 2141.38 1488.76 2141.49 1488.89 2141.61 1489.01 2141.74 1489.12L2141.71 1489.15 2152.45 1496.62 2152.5 1496.58C2153.31 1497.19 2154.47 1497.17 2155.28 1496.48 2156.09 1495.79 2156.29 1494.65 2155.82 1493.75L2155.86 1493.72Z" fill="#132F1E"/></g></g></g></g></svg>