<svg width="550" height="550" xmlns="http://www.w3.org/2000/svg" xmlns:xlink="http://www.w3.org/1999/xlink" overflow="hidden"><defs><clipPath id="clip0"><rect x="1203" y="30" width="550" height="550"/></clipPath><radialGradient cx="762000" cy="762000" r="1.07763e+06" gradientUnits="userSpaceOnUse" spreadMethod="pad" id="fill1" gradientTransform="matrix(0.000360892 0 0 0.000360892 1203 29.9999)"><stop offset="0" stop-color="#FFFFCC"/><stop offset="0.17" stop-color="#FFFFCC"/><stop offset="0.33" stop-color="#00B050"/><stop offset="1" stop-color="#0F1113"/></radialGradient><linearGradient x1="1476.5" y1="35.0001" x2="1476.5" y2="190" gradientUnits="userSpaceOnUse" spreadMethod="reflect" id="fill2"><stop offset="0" stop-color="#F5FAFF" stop-opacity="0.231373"/><stop offset="0.32" stop-color="#FFFFFF" stop-opacity="0"/><stop offset="1" stop-color="#FFFFFF" stop-opacity="0"/></linearGradient><radialGradient cx="94211" cy="102524" r="139236" gradientUnits="userSpaceOnUse" spreadMethod="pad" id="fill3" gradientTransform="matrix(0.000360892 0 0 0.000360892 1207 76)"><stop offset="0" stop-color="#FFFFCC"/><stop offset="0.54" stop-color="#92D050" stop-opacity="0"/><stop offset="1" stop-color="#92D050" stop-opacity="0"/></radialGradient><radialGradient cx="112222" cy="120534" r="164688" gradientUnits="userSpaceOnUse" spreadMethod="pad" id="fill4" gradientTransform="matrix(0.000360892 0 0 0.000360892 1236 121)"><stop offset="0" stop-color="#FFFFCC"/><stop offset="0.54" stop-color="#92D050" stop-opacity="0"/><stop offset="1" stop-color="#92D050" stop-opacity="0"/></radialGradient><radialGradient cx="292331" cy="278477" r="403741" fx="292331" fy="278476" gradientUnits="userSpaceOnUse" spreadMethod="pad" id="fill5" gradientTransform="matrix(0.000360892 0 0 0.000360892 1540 361)"><stop offset="0" stop-color="#FFFFCC"/><stop offset="0.54" stop-color="#92D050" stop-opacity="0"/><stop offset="1" stop-color="#92D050" stop-opacity="0"/></radialGradient><radialGradient cx="243840" cy="281247" r="372234" gradientUnits="userSpaceOnUse" spreadMethod="pad" id="fill6" gradientTransform="matrix(0.000360892 0 0 0.000360892 1236 37.0001)"><stop offset="0" stop-color="#FFFFCC"/><stop offset="0.54" stop-color="#92D050" stop-opacity="0"/><stop offset="1" stop-color="#92D050" stop-opacity="0"/></radialGradient><radialGradient cx="70658" cy="77585" r="104938" fx="70658" fy="77585" gradientUnits="userSpaceOnUse" spreadMethod="pad" id="fill7" gradientTransform="matrix(0.000360892 0 0 0.000360892 1686 489)"><stop offset="0" stop-color="#FFFFCC"/><stop offset="0.54" stop-color="#92D050" stop-opacity="0"/><stop offset="1" stop-color="#92D050" stop-opacity="0"/></radialGradient><radialGradient cx="77585.5" cy="84513" r="114726" fx="77585.5" fy="84513" gradientUnits="userSpaceOnUse" spreadMethod="pad" id="fill8" gradientTransform="matrix(0.000360892 0 0 0.000360892 1669 406)"><stop offset="0" stop-color="#FFFFCC"/><stop offset="0.54" stop-color="#92D050" stop-opacity="0"/><stop offset="1" stop-color="#92D050" stop-opacity="0"/></radialGradient><clipPath id="clip9"><rect x="1218" y="42" width="526" height="526"/></clipPath><clipPath id="clip10"><rect x="1218" y="42" width="526" height="526"/></clipPath><clipPath id="clip11"><rect x="1218" y="42" width="526" height="526"/></clipPath><clipPath id="clip12"><rect x="1312" y="133" width="333" height="333"/></clipPath><clipPath id="clip13"><rect x="1312" y="133" width="333" height="333"/></clipPath><clipPath id="clip14"><rect x="1312" y="133" width="333" height="333"/></clipPath><clipPath id="clip15"><rect x="1250" y="254" width="128" height="127"/></clipPath><clipPath id="clip16"><rect x="1250" y="254" width="128" height="127"/></clipPath><clipPath id="clip17"><rect x="1250" y="254" width="128" height="127"/></clipPath><clipPath id="clip18"><rect x="1592" y="256" width="111" height="111"/></clipPath><clipPath id="clip19"><rect x="1592" y="256" width="111" height="111"/></clipPath><clipPath id="clip20"><rect x="1592" y="256" width="111" height="111"/></clipPath></defs><g clip-path="url(#clip0)" transform="translate(-1203 -30)"><rect x="1203" y="29.9999" width="550" height="550" fill="url(#fill1)"/><path d="M1237.73 35.0001 1715.27 35.0001C1731.14 35.0001 1744 54.993 1744 79.6558L1744 190C1744 151.576 1723.96 120.427 1699.23 120.427L1253.77 120.427C1229.04 120.427 1209 151.576 1209 190L1209 79.6558C1209 54.993 1221.86 35.0001 1237.73 35.0001Z" fill="url(#fill2)" fill-rule="evenodd"/><path d="M1207 113C1207 92.5654 1222.22 76 1241 76 1259.78 76 1275 92.5654 1275 113 1275 133.434 1259.78 150 1241 150 1222.22 150 1207 133.434 1207 113Z" fill="url(#fill3)" fill-rule="evenodd"/><path d="M1236 164.5C1236 140.476 1254.13 121 1276.5 121 1298.87 121 1317 140.476 1317 164.5 1317 188.524 1298.87 208 1276.5 208 1254.13 208 1236 188.524 1236 164.5Z" fill="url(#fill4)" fill-rule="evenodd"/><path d="M1540 461.5C1540 405.995 1587.23 361 1645.5 361 1703.77 361 1751 405.995 1751 461.5 1751 517.005 1703.77 562 1645.5 562 1587.23 562 1540 517.005 1540 461.5Z" fill="url(#fill5)" fill-rule="evenodd"/><path d="M1236 138.5C1236 82.4432 1275.4 37.0001 1324 37.0001 1372.6 37.0001 1412 82.4432 1412 138.5 1412 194.557 1372.6 240 1324 240 1275.4 240 1236 194.557 1236 138.5Z" fill="url(#fill6)" fill-rule="evenodd"/><path d="M1686 517C1686 501.536 1697.42 489 1711.5 489 1725.58 489 1737 501.536 1737 517 1737 532.464 1725.58 545 1711.5 545 1697.42 545 1686 532.464 1686 517Z" fill="url(#fill7)" fill-rule="evenodd"/><path d="M1669 436.5C1669 419.655 1681.54 406 1697 406 1712.46 406 1725 419.655 1725 436.5 1725 453.345 1712.46 467 1697 467 1681.54 467 1669 453.345 1669 436.5Z" fill="url(#fill8)" fill-rule="evenodd"/><g clip-path="url(#clip9)"><g clip-path="url(#clip10)"><g clip-path="url(#clip11)"><path d="M1417.16 289.339 1387.97 496.075C1387.3 500.874 1383.59 504.676 1378.81 505.472 1374.03 506.269 1369.29 503.884 1367.09 499.57L1292.94 354.146C1290.9 350.145 1289.87 345.704 1289.94 341.221L1292.92 142.885C1292.97 139.148 1295.35 135.851 1298.88 134.612 1302.41 133.373 1306.33 134.486 1308.7 137.384L1408.95 259.993C1415.66 268.205 1418.64 278.84 1417.15 289.34ZM1414.01 252.842C1421.12 261.546 1432.37 265.767 1443.45 263.898L1692.64 221.993C1695.97 221.436 1698.62 218.906 1699.34 215.62 1700.06 212.323 1698.69 208.931 1695.91 207.041L1546.99 106.219C1543.33 103.741 1538.98 102.502 1534.56 102.692L1319.18 111.827C1315.42 111.984 1312.07 114.262 1310.53 117.685 1308.99 121.118 1309.53 125.13 1311.91 128.048ZM1707.69 233.689C1705.39 230.834 1701.74 229.437 1698.11 230.046L1455.14 270.911C1439.3 273.579 1427.01 286.199 1424.76 302.096L1395.82 506.741C1395.02 512.38 1397.24 518.029 1401.66 521.629 1406.08 525.221 1412.07 526.227 1417.43 524.298L1619.39 451.344C1623.72 449.78 1627.19 446.441 1628.92 442.157L1709.18 243.834C1710.55 240.421 1709.98 236.547 1707.69 233.691Z" fill="#FFFFFF"/></g></g></g><g clip-path="url(#clip12)"><g clip-path="url(#clip13)"><g clip-path="url(#clip14)"><path d="M166 0.51875C181.058 0.547297 193.258 12.747 193.286 27.805 193.286 43.99 180.058 64.8956 166 64.8956 151.942 64.8956 138.714 44.1456 138.714 27.805 138.742 12.747 150.942 0.547297 166 0.51875ZM312.599 102.92C281.636 107.033 250.456 109.302 219.224 109.716 218.126 104.986 216.379 100.429 214.036 96.1763 265.444 97.2656 296.984 100.171 312.599 102.92ZM166 79.2131C185.112 79.2178 201.968 91.7332 207.5 110.027 194.566 110.303 180.733 110.442 166 110.442 151.268 110.442 137.521 110.442 124.5 110.027 130.018 91.7228 146.883 79.2007 166 79.2131ZM209.264 122.477 209.264 128.806C195.811 129.117 181.39 129.273 166 129.273 150.61 129.273 136.189 129.117 122.736 128.806L122.736 122.477C122.736 122.166 122.736 121.906 122.736 121.595 136.639 121.906 151.112 122.062 165.948 122.062 180.784 122.062 195.258 122.062 209.16 121.595 209.212 121.906 209.264 122.218 209.264 122.477ZM112.673 109.716C81.4401 109.302 50.2605 107.033 19.2975 102.92 34.86 100.171 66.5038 97.2656 117.86 96.1763 115.523 100.433 113.778 104.988 112.673 109.716ZM9.18188 119.313 9.18188 112.569C22.8391 115.566 36.7188 117.439 50.6819 118.171 68.1119 119.624 88.81 120.661 111.324 121.284 111.324 121.699 111.324 122.114 111.324 122.477L111.324 128.494C54.1575 126.834 17.7931 122.788 9.18188 119.313ZM127.146 248.533C91.4152 248.382 55.7278 246.043 20.2831 241.53 37.1425 238.781 71.38 235.876 127.146 234.838ZM9.18188 257.871 9.18188 251.023C22.8391 254.02 36.7188 255.894 50.6819 256.626 72.1581 258.389 98.5625 259.531 127.301 260.101L127.301 267.312C61.005 266.015 18.5713 261.502 9.18188 257.871ZM171.81 260.516 193.234 260.516 193.234 267.727C186.335 267.727 179.176 267.727 171.81 267.727ZM160.19 267.675C152.824 267.675 145.665 267.675 138.766 267.675L138.766 260.309 160.19 260.309ZM193.234 332 138.766 332 138.766 279.139C145.769 279.139 152.928 279.139 160.19 279.139L160.19 320.069C160.19 323.278 162.791 325.879 166 325.879 169.209 325.879 171.81 323.278 171.81 320.069L171.81 279.295C179.073 279.295 186.231 279.295 193.234 279.295ZM322.922 258.026C313.533 261.658 271.047 266.171 204.958 267.468L204.958 260.101C233.697 259.531 260.101 258.389 281.578 256.626 295.541 255.894 309.42 254.02 323.078 251.023ZM311.821 241.686C276.376 246.199 240.689 248.538 204.958 248.689L204.958 234.838C260.62 235.876 294.858 238.625 311.717 241.53ZM209.264 191.938 198.889 191.938C195.68 191.938 193.079 194.539 193.079 197.748L193.079 248.637 171.654 248.637 171.654 193.39C171.654 190.181 169.053 187.58 165.844 187.58 162.635 187.58 160.034 190.181 160.034 193.39L160.034 249 138.61 249 138.61 197.799C138.64 194.63 136.124 192.022 132.956 191.938L122.581 191.938 122.581 140.426C136.535 140.737 151.008 140.893 165.844 140.893 180.681 140.893 195.154 140.893 209.108 140.426ZM220.832 121.232C243.346 120.609 264.044 119.572 281.474 118.119 295.437 117.387 309.317 115.514 322.974 112.517L322.974 119.313C314.363 122.684 277.998 126.731 221.039 128.391L221.039 122.477C220.884 122.114 220.832 121.699 220.832 121.284ZM36.3125 58.6188C36.3125 55.4098 38.9137 52.8088 42.1225 52.8088L44.3013 52.8088 44.3013 50.63C44.3013 47.4212 46.9025 44.82 50.1113 44.82 53.3202 44.82 55.9213 47.4212 55.9213 50.63L55.9213 52.8088 58.1 52.8088C61.309 52.8088 63.91 55.4098 63.91 58.6188 63.91 61.8278 61.309 64.4288 58.1 64.4288L55.9213 64.4288 55.9213 66.6075C55.9213 69.8165 53.3202 72.4175 50.1113 72.4175 46.9025 72.4175 44.3013 69.8165 44.3013 66.6075L44.3013 64.4288 42.33 64.4288C39.1233 64.5434 36.4308 62.0368 36.3162 58.8299 36.3137 58.7593 36.3125 58.6893 36.3125 58.6188ZM288.218 295.688C288.218 298.897 285.617 301.498 282.408 301.498L280.125 301.498 280.125 303.676C280.125 306.885 277.524 309.486 274.315 309.486 271.106 309.486 268.505 306.885 268.505 303.676L268.505 301.498 266.326 301.498C263.117 301.498 260.516 298.897 260.516 295.688 260.516 292.479 263.117 289.878 266.326 289.878L268.505 289.878 268.505 287.699C268.505 284.49 271.106 281.889 274.315 281.889 277.524 281.889 280.125 284.49 280.125 287.699L280.125 289.878 282.304 289.878C285.512 289.82 288.159 292.375 288.217 295.583 288.217 295.618 288.218 295.653 288.218 295.688ZM234.734 183.949 234.734 181.563 232.556 181.563C229.361 181.865 226.526 179.521 226.223 176.327 225.92 173.132 228.265 170.297 231.459 169.994 231.824 169.96 232.191 169.96 232.556 169.994L234.734 169.994 234.734 167.816C234.734 164.607 237.335 162.006 240.544 162.006 243.753 162.006 246.354 164.607 246.354 167.816L246.354 169.994 248.533 169.994C251.728 169.691 254.563 172.036 254.866 175.23 255.168 178.425 252.824 181.26 249.63 181.563 249.265 181.597 248.898 181.597 248.533 181.563L246.354 181.563 246.354 183.741C246.354 186.95 243.753 189.551 240.544 189.551 237.335 189.551 234.734 186.95 234.734 183.741ZM285.779 46.6875C285.807 43.4905 288.392 40.9057 291.589 40.8775L293.768 40.8775 293.768 38.4913C293.768 35.2825 296.369 32.6813 299.578 32.6813 302.787 32.6813 305.388 35.2825 305.388 38.4913L305.388 40.67 307.567 40.67C310.776 40.67 313.377 43.2712 313.377 46.48 313.377 49.6888 310.776 52.29 307.567 52.29L305.388 52.29 305.388 54.4688C305.388 57.6777 302.787 60.2788 299.578 60.2788 296.369 60.2788 293.768 57.6777 293.768 54.4688L293.768 52.29 291.589 52.29C288.46 52.2921 285.891 49.8149 285.779 46.6875Z" fill="#132F1E" transform="matrix(1.00301 0 0 1 1312 133)"/></g></g></g><g clip-path="url(#clip15)"><g clip-path="url(#clip16)"><g clip-path="url(#clip17)"><path d="M89.5108 10.5226C79.016 10.4429 69.2217 15.78 63.5995 24.6421 63.3955 24.9731 62.9617 25.076 62.6306 24.8721 62.5372 24.8145 62.4584 24.7356 62.4007 24.6421 56.7784 15.78 46.9842 10.4429 36.4894 10.5226 18.2176 10.649 4.97211 26.4011 6.40621 44.6162 9.12639 79.0715 49.373 107.55 60.2864 114.669 61.9346 115.748 64.0655 115.748 65.7138 114.669 76.627 107.55 116.874 79.0715 119.594 44.6162 121.028 26.4011 107.78 10.649 89.5108 10.5226ZM88.4955 72.45 72.4501 72.45 72.4501 88.4947 53.5501 88.4947 53.5501 72.45 37.5053 72.45 37.5053 53.5499 53.5501 53.5499 53.5501 37.5053 72.4501 37.5053 72.4501 53.5499 88.4955 53.5499Z" fill="#132F1E" transform="matrix(1 0 0 1.00793 1251 254)"/></g></g></g><g clip-path="url(#clip18)"><g clip-path="url(#clip19)"><g clip-path="url(#clip20)"><path d="M1671.14 265.186C1661.98 265.117 1653.43 269.776 1648.52 277.513 1648.35 277.802 1647.97 277.892 1647.68 277.714 1647.6 277.663 1647.53 277.595 1647.48 277.513 1642.57 269.776 1634.02 265.117 1624.86 265.186 1608.9 265.297 1597.34 279.049 1598.59 294.951 1600.97 325.031 1636.1 349.893 1645.63 356.108 1647.07 357.05 1648.93 357.05 1650.37 356.108 1659.9 349.893 1695.03 325.031 1697.41 294.951 1698.66 279.049 1687.09 265.297 1671.14 265.186ZM1670.26 319.25 1656.25 319.25 1656.25 333.257 1639.75 333.257 1639.75 319.25 1625.74 319.25 1625.74 302.75 1639.75 302.75 1639.75 288.743 1656.25 288.743 1656.25 302.75 1670.26 302.75Z" fill="#132F1E"/></g></g></g></g></svg>