<svg width="550" height="550" xmlns="http://www.w3.org/2000/svg" xmlns:xlink="http://www.w3.org/1999/xlink" overflow="hidden"><defs><clipPath id="clip0"><rect x="1204" y="1204" width="550" height="550"/></clipPath><radialGradient cx="762000" cy="762000" r="1.07763e+06" gradientUnits="userSpaceOnUse" spreadMethod="pad" id="fill1" gradientTransform="matrix(0.000360892 0 0 0.000360892 1204 1204)"><stop offset="0" stop-color="#FFFFCC"/><stop offset="0.17" stop-color="#FFFFCC"/><stop offset="0.33" stop-color="#00B050"/><stop offset="1" stop-color="#0F1113"/></radialGradient><linearGradient x1="1477" y1="1209" x2="1477" y2="1364" gradientUnits="userSpaceOnUse" spreadMethod="reflect" id="fill2"><stop offset="0" stop-color="#F5FAFF" stop-opacity="0.231373"/><stop offset="0.32" stop-color="#FFFFFF" stop-opacity="0"/><stop offset="1" stop-color="#FFFFFF" stop-opacity="0"/></linearGradient><radialGradient cx="94211" cy="102524" r="139237" fx="94211" fy="102524" gradientUnits="userSpaceOnUse" spreadMethod="pad" id="fill3" gradientTransform="matrix(0.000360892 0 0 0.000360892 1208 1250)"><stop offset="0" stop-color="#FFFFCC"/><stop offset="0.54" stop-color="#92D050" stop-opacity="0"/><stop offset="1" stop-color="#92D050" stop-opacity="0"/></radialGradient><radialGradient cx="110836" cy="120534" r="163747" fx="110836" fy="120534" gradientUnits="userSpaceOnUse" spreadMethod="pad" id="fill4" gradientTransform="matrix(0.000360892 0 0 0.000360892 1237 1295)"><stop offset="0" stop-color="#FFFFCC"/><stop offset="0.54" stop-color="#92D050" stop-opacity="0"/><stop offset="1" stop-color="#92D050" stop-opacity="0"/></radialGradient><radialGradient cx="292331" cy="278477" r="403741" fx="292331" fy="278476" gradientUnits="userSpaceOnUse" spreadMethod="pad" id="fill5" gradientTransform="matrix(0.000360892 0 0 0.000360892 1541 1535)"><stop offset="0" stop-color="#FFFFCC"/><stop offset="0.54" stop-color="#92D050" stop-opacity="0"/><stop offset="1" stop-color="#92D050" stop-opacity="0"/></radialGradient><radialGradient cx="243840" cy="281247" r="372234" gradientUnits="userSpaceOnUse" spreadMethod="pad" id="fill6" gradientTransform="matrix(0.000360892 0 0 0.000360892 1237 1211)"><stop offset="0" stop-color="#FFFFCC"/><stop offset="0.54" stop-color="#92D050" stop-opacity="0"/><stop offset="1" stop-color="#92D050" stop-opacity="0"/></radialGradient><radialGradient cx="72043.5" cy="77585.5" r="105876" fx="72043.5" fy="77585.5" gradientUnits="userSpaceOnUse" spreadMethod="pad" id="fill7" gradientTransform="matrix(0.000360892 0 0 0.000360892 1686 1663)"><stop offset="0" stop-color="#FFFFCC"/><stop offset="0.54" stop-color="#92D050" stop-opacity="0"/><stop offset="1" stop-color="#92D050" stop-opacity="0"/></radialGradient><radialGradient cx="77585.5" cy="84513" r="114726" fx="77585.5" fy="84513" gradientUnits="userSpaceOnUse" spreadMethod="pad" id="fill8" gradientTransform="matrix(0.000360892 0 0 0.000360892 1670 1580)"><stop offset="0" stop-color="#FFFFCC"/><stop offset="0.54" stop-color="#92D050" stop-opacity="0"/><stop offset="1" stop-color="#92D050" stop-opacity="0"/></radialGradient><clipPath id="clip9"><rect x="1218" y="1216" width="527" height="527"/></clipPath><clipPath id="clip10"><rect x="1218" y="1216" width="527" height="527"/></clipPath><clipPath id="clip11"><rect x="1218" y="1216" width="527" height="527"/></clipPath><clipPath id="clip12"><rect x="1292" y="1355" width="344" height="344"/></clipPath><clipPath id="clip13"><rect x="1292" y="1355" width="344" height="344"/></clipPath><clipPath id="clip14"><rect x="1292" y="1355" width="344" height="344"/></clipPath><clipPath id="clip15"><rect x="1333" y="1226" width="266" height="266"/></clipPath><clipPath id="clip16"><rect x="1333" y="1226" width="266" height="266"/></clipPath><clipPath id="clip17"><rect x="1333" y="1226" width="266" height="266"/></clipPath><clipPath id="clip18"><rect x="1378" y="1285" width="183" height="184"/></clipPath><clipPath id="clip19"><rect x="1378" y="1285" width="183" height="184"/></clipPath><clipPath id="clip20"><rect x="1378" y="1285" width="183" height="184"/></clipPath></defs><g clip-path="url(#clip0)" transform="translate(-1204 -1204)"><rect x="1204" y="1204" width="550" height="550" fill="url(#fill1)"/><path d="M1237.79 1209 1716.21 1209C1732.11 1209 1745 1228.99 1745 1253.66L1745 1364C1745 1325.58 1724.92 1294.43 1700.15 1294.43L1253.85 1294.43C1229.08 1294.43 1209 1325.58 1209 1364L1209 1253.66C1209 1228.99 1221.89 1209 1237.79 1209Z" fill="url(#fill2)" fill-rule="evenodd"/><path d="M1208 1287C1208 1266.57 1223.22 1250 1242 1250 1260.78 1250 1276 1266.57 1276 1287 1276 1307.43 1260.78 1324 1242 1324 1223.22 1324 1208 1307.43 1208 1287Z" fill="url(#fill3)" fill-rule="evenodd"/><path d="M1237 1338.5C1237 1314.48 1254.91 1295 1277 1295 1299.09 1295 1317 1314.48 1317 1338.5 1317 1362.52 1299.09 1382 1277 1382 1254.91 1382 1237 1362.52 1237 1338.5Z" fill="url(#fill4)" fill-rule="evenodd"/><path d="M1541 1635.5C1541 1580 1588.23 1535 1646.5 1535 1704.77 1535 1752 1580 1752 1635.5 1752 1691 1704.77 1736 1646.5 1736 1588.23 1736 1541 1691 1541 1635.5Z" fill="url(#fill5)" fill-rule="evenodd"/><path d="M1237 1312.5C1237 1256.44 1276.4 1211 1325 1211 1373.6 1211 1413 1256.44 1413 1312.5 1413 1368.56 1373.6 1414 1325 1414 1276.4 1414 1237 1368.56 1237 1312.5Z" fill="url(#fill6)" fill-rule="evenodd"/><path d="M1686 1691C1686 1675.54 1697.64 1663 1712 1663 1726.36 1663 1738 1675.54 1738 1691 1738 1706.46 1726.36 1719 1712 1719 1697.64 1719 1686 1706.46 1686 1691Z" fill="url(#fill7)" fill-rule="evenodd"/><path d="M1670 1610.5C1670 1593.66 1682.54 1580 1698 1580 1713.46 1580 1726 1593.66 1726 1610.5 1726 1627.34 1713.46 1641 1698 1641 1682.54 1641 1670 1627.34 1670 1610.5Z" fill="url(#fill8)" fill-rule="evenodd"/><g clip-path="url(#clip9)"><g clip-path="url(#clip10)"><g clip-path="url(#clip11)"><path d="M198.157 246.339 168.967 453.075C168.296 457.875 164.589 461.676 159.811 462.473 155.032 463.269 150.286 460.885 148.092 456.571L73.9402 311.147C71.9032 307.146 70.8742 302.704 70.9376 298.222L73.9196 99.8852C73.9725 96.1477 76.3547 92.8511 79.884 91.6121 83.4116 90.3731 87.3285 91.4857 89.702 94.3841L189.955 216.994C196.663 225.205 199.645 235.84 198.155 246.34ZM195.006 209.842C202.125 218.546 213.371 222.767 224.448 220.899L473.642 178.993C476.971 178.436 479.618 175.906 480.345 172.62 481.058 169.324 479.693 165.931 476.91 164.041L327.989 63.2192C324.335 60.7412 319.977 59.5022 315.558 59.6921L100.181 68.8267C96.4207 68.9837 93.0712 71.2618 91.5281 74.6848 89.9951 78.1183 90.5319 82.1297 92.9141 85.0483ZM488.692 190.689C486.391 187.834 482.738 186.437 479.115 187.046L236.145 227.911C220.301 230.579 208.015 243.199 205.758 259.096L176.819 463.741C176.021 469.381 178.236 475.029 182.657 478.63 187.078 482.221 193.074 483.228 198.428 481.298L400.387 408.345C404.722 406.781 408.188 403.442 409.921 399.157L490.184 200.834C491.549 197.421 490.98 193.547 488.692 190.691Z" fill="#FFFFFF" transform="matrix(1.0019 0 0 1 1219 1217)"/></g></g></g><g clip-path="url(#clip12)"><g clip-path="url(#clip13)"><g clip-path="url(#clip14)"><path d="M278.948 150.889 287.65 97.8305C289.746 83.7983 278.766 72.6097 267.948 65.5576 251.488 54.8217 231.631 49.3886 212.43 46.1987 188.218 42.1787 163.234 41.8426 138.898 44.9742 118.719 47.5707 98.026 52.4927 80.1385 62.4912 65.6262 70.5997 49.32 85.6334 57.0992 103.95L69.2037 150.505C69.4369 151.363 72.3284 161.292 82.2891 172.347 78.4544 182.98 79.2776 194.992 83.692 205.303L96.5717 241.03 158.442 300.125 172.68 300.125 179.753 300.125 194.697 300.125 255.844 241.722 256.567 241.036 271.347 200.031 271.227 199.986C275.95 183.797 270.432 171.147 270.013 170.241L268.332 167.562C275.834 158.747 278.674 151.613 278.948 150.889ZM263.448 197.184 263.393 197.163 261.263 203.059C257.229 211.82 249.186 221.53 233.957 230.767L233.888 234.269C239.342 230.959 248.387 231.292 252.318 227.858L249.275 236.293 191.308 291.67 183.382 291.67 193.531 268.113 202.696 267.492 201.9 264.055 196.508 260.725 200.775 250.661C206.04 241.993 198.991 238.584 190.043 234.639L189.353 236.193C191.397 237.068 193.5 238.841 194.412 240.885 196.086 244.662 192.262 248.462 190.032 251.086 186.743 254.962 183.117 258.564 179.368 261.997 176.165 264.933 173.332 268.147 168.698 265.736 163.416 261.256 138.781 241.894 154.429 236.204L153.424 233.916C150.598 235.161 144.249 232.499 142.074 236.639 142.074 236.639 130.333 237.023 118.675 230.455 115.131 228.764 96.0777 212.001 92.0235 203.457L89.7562 197.167 89.6568 197.198C87.9384 191.181 88.0001 185.872 88.5935 181.8 88.5077 183.618 88.7616 185.453 89.8008 186.671 98.6674 199.218 117.076 205.131 131.17 208.29 135.814 209.333 159.111 215.809 159.423 205.625 159.55 201.506 156.343 197.338 153.733 194.409 153.733 194.409 149.963 194.152 144.262 193.514 88.422 184.963 77.8061 149.805 77.3842 148.327L69.8966 119.532C82.1622 129.201 97.4738 134.857 112.439 138.761 132.676 144.043 153.757 146.101 174.642 145.854 195.074 145.617 215.668 143.165 235.322 137.457 249.865 133.238 264.933 127.198 276.28 116.87L270.908 148.214C269.313 151.898 253.443 185.268 199.516 193.517 193.843 194.155 190.084 194.406 190.084 194.406 187.47 197.335 184.438 201.763 186.842 205.104 195.037 216.467 213.123 210.9 217.774 209.861 231.861 206.702 242.48 200.473 251.35 187.923 252.709 186.331 255.391 182.428 255.055 180.144 257.768 178.058 260.2 175.949 262.378 173.867 263.239 175.808 266.895 185.097 263.448 197.184Z" fill="#132F1E" transform="matrix(1.00291 0 0 1 1292 1355)"/></g></g></g><g clip-path="url(#clip15)"><g clip-path="url(#clip16)"><g clip-path="url(#clip17)"><path d="M1383.27 1346.04C1383.16 1350.3 1379.87 1353.59 1375.61 1353.7 1373.9 1353.75 1373.9 1356.4 1375.61 1356.35 1381.33 1356.2 1385.77 1351.76 1385.92 1346.04 1385.97 1344.33 1383.32 1344.33 1383.27 1346.04L1383.27 1346.04Z" fill="#132F1E"/><path d="M1393.58 1353.83C1389.32 1353.72 1386.04 1350.44 1385.92 1346.17 1385.87 1344.47 1383.22 1344.46 1383.27 1346.17 1383.42 1351.9 1387.86 1356.33 1393.58 1356.48 1395.29 1356.53 1395.29 1353.88 1393.58 1353.83L1393.58 1353.83Z" fill="#132F1E"/><path d="M1385.92 1364.22C1386.04 1359.96 1389.32 1356.67 1393.58 1356.55 1395.29 1356.5 1395.29 1353.85 1393.58 1353.9 1387.86 1354.05 1383.43 1358.49 1383.27 1364.22 1383.23 1365.93 1385.88 1365.92 1385.92 1364.22L1385.92 1364.22Z" fill="#132F1E"/><path d="M1375.54 1356.42C1379.8 1356.53 1383.09 1359.81 1383.2 1364.08 1383.25 1365.79 1385.9 1365.79 1385.85 1364.08 1385.7 1358.36 1381.27 1353.92 1375.54 1353.77 1373.83 1353.72 1373.83 1356.37 1375.54 1356.42L1375.54 1356.42Z" fill="#132F1E"/><path d="M1544.27 1254.52C1544.15 1258.79 1540.87 1262.07 1536.6 1262.19 1534.9 1262.24 1534.89 1264.89 1536.6 1264.84 1542.33 1264.69 1546.76 1260.25 1546.92 1254.52 1546.96 1252.81 1544.31 1252.82 1544.27 1254.52L1544.27 1254.52Z" fill="#132F1E"/><path d="M1554.58 1262.32C1550.32 1262.21 1547.03 1258.93 1546.92 1254.66 1546.87 1252.96 1544.22 1252.95 1544.27 1254.66 1544.42 1260.39 1548.86 1264.82 1554.58 1264.97 1556.29 1265.02 1556.29 1262.37 1554.58 1262.32L1554.58 1262.32Z" fill="#132F1E"/><path d="M1546.92 1272.71C1547.03 1268.44 1550.31 1265.16 1554.58 1265.04 1556.29 1264.99 1556.29 1262.34 1554.58 1262.39 1548.86 1262.54 1544.43 1266.98 1544.27 1272.71 1544.22 1274.42 1546.87 1274.41 1546.92 1272.71L1546.92 1272.71Z" fill="#132F1E"/><path d="M1536.54 1264.91C1540.8 1265.02 1544.09 1268.3 1544.2 1272.57 1544.25 1274.27 1546.9 1274.28 1546.85 1272.57 1546.69 1266.84 1542.26 1262.41 1536.54 1262.26 1534.82 1262.21 1534.83 1264.86 1536.54 1264.91L1536.54 1264.91Z" fill="#132F1E"/><path d="M1410.04 1257.01C1409.7 1269.39 1400.16 1278.93 1387.79 1279.26 1386.08 1279.31 1386.08 1281.96 1387.79 1281.91 1401.62 1281.54 1412.32 1270.84 1412.69 1257.01 1412.73 1255.3 1410.08 1255.31 1410.04 1257.01L1410.04 1257.01Z" fill="#132F1E"/><path d="M1434.94 1279.62C1422.56 1279.28 1413.02 1269.75 1412.69 1257.37 1412.64 1255.66 1409.99 1255.66 1410.04 1257.37 1410.41 1271.2 1421.1 1281.89 1434.94 1282.27 1436.64 1282.32 1436.64 1279.67 1434.94 1279.62L1434.94 1279.62Z" fill="#132F1E"/><path d="M1412.69 1304.7C1413.02 1292.33 1422.55 1282.78 1434.93 1282.45 1436.64 1282.4 1436.64 1279.75 1434.93 1279.8 1421.1 1280.17 1410.41 1290.87 1410.04 1304.7 1409.99 1306.41 1412.64 1306.4 1412.69 1304.7L1412.69 1304.7Z" fill="#132F1E"/><path d="M1387.61 1282.09C1399.98 1282.42 1409.52 1291.96 1409.86 1304.33 1409.9 1306.04 1412.55 1306.04 1412.51 1304.33 1412.13 1290.5 1401.43 1279.81 1387.61 1279.44 1385.9 1279.39 1385.9 1282.04 1387.61 1282.09L1387.61 1282.09Z" fill="#132F1E"/><path d="M1516.28 1422.21C1516.07 1429.79 1510.23 1435.62 1502.66 1435.82 1500.95 1435.87 1500.95 1438.52 1502.66 1438.47 1511.69 1438.23 1518.68 1431.24 1518.93 1422.21 1518.97 1420.5 1516.32 1420.51 1516.28 1422.21L1516.28 1422.21Z" fill="#132F1E"/><path d="M1532.54 1436.05C1524.97 1435.85 1519.13 1430.01 1518.93 1422.44 1518.88 1420.73 1516.23 1420.73 1516.28 1422.44 1516.52 1431.47 1523.51 1438.46 1532.54 1438.7 1534.25 1438.75 1534.24 1436.1 1532.54 1436.05L1532.54 1436.05Z" fill="#132F1E"/><path d="M1518.93 1452.42C1519.13 1444.86 1524.96 1439.02 1532.53 1438.81 1534.24 1438.76 1534.25 1436.11 1532.53 1436.16 1523.5 1436.41 1516.52 1443.39 1516.28 1452.42 1516.23 1454.14 1518.88 1454.13 1518.93 1452.42L1518.93 1452.42Z" fill="#132F1E"/><path d="M1502.54 1438.59C1510.12 1438.79 1515.96 1444.62 1516.16 1452.2 1516.21 1453.9 1518.86 1453.91 1518.81 1452.2 1518.57 1443.17 1511.58 1436.18 1502.54 1435.94 1500.84 1435.89 1500.84 1438.54 1502.54 1438.59L1502.54 1438.59Z" fill="#132F1E"/><path d="M1494.21 1321.07C1494.21 1325.47 1490.65 1329.02 1486.26 1329.02 1481.87 1329.02 1478.31 1325.47 1478.31 1321.07 1478.31 1316.68 1481.87 1313.12 1486.26 1313.12 1490.65 1313.12 1494.21 1316.68 1494.21 1321.07Z" fill="#132F1E"/><path d="M1523.36 1318.2C1523.36 1320.77 1521.28 1322.84 1518.72 1322.84 1516.16 1322.84 1514.08 1320.77 1514.08 1318.2 1514.08 1315.64 1516.16 1313.57 1518.72 1313.57 1521.28 1313.57 1523.36 1315.64 1523.36 1318.2Z" fill="#132F1E"/><path d="M1555.6 1341.17C1555.6 1344.22 1553.13 1346.69 1550.08 1346.69 1547.03 1346.69 1544.56 1344.22 1544.56 1341.17 1544.56 1338.12 1547.03 1335.65 1550.08 1335.65 1553.13 1335.65 1555.6 1338.12 1555.6 1341.17Z" fill="#132F1E"/><path d="M1452.25 1429.94C1452.25 1432.51 1450.17 1434.58 1447.61 1434.58 1445.05 1434.58 1442.98 1432.51 1442.98 1429.94 1442.98 1427.38 1445.05 1425.31 1447.61 1425.31 1450.17 1425.31 1452.25 1427.38 1452.25 1429.94Z" fill="#132F1E"/><path d="M1421.78 1466.6C1421.78 1471.61 1417.72 1475.66 1412.72 1475.66 1407.72 1475.66 1403.67 1471.61 1403.67 1466.6 1403.67 1461.6 1407.72 1457.55 1412.72 1457.55 1417.72 1457.55 1421.78 1461.6 1421.78 1466.6Z" fill="#132F1E"/><path d="M1425.75 1396.82C1425.75 1399.63 1423.48 1401.9 1420.67 1401.9 1417.86 1401.9 1415.59 1399.63 1415.59 1396.82 1415.59 1394.01 1417.86 1391.74 1420.67 1391.74 1423.48 1391.74 1425.75 1394.01 1425.75 1396.82Z" fill="#132F1E"/><path d="M1473.01 1300.54C1473.01 1303.1 1470.93 1305.17 1468.37 1305.17 1465.81 1305.17 1463.73 1303.1 1463.73 1300.54 1463.73 1297.98 1465.81 1295.9 1468.37 1295.9 1470.93 1295.9 1473.01 1297.98 1473.01 1300.54Z" fill="#132F1E"/><path d="M1477.43 1250.85C1477.43 1254.02 1474.85 1256.59 1471.68 1256.59 1468.51 1256.59 1465.94 1254.02 1465.94 1250.85 1465.94 1247.68 1468.51 1245.11 1471.68 1245.11 1474.85 1245.11 1477.43 1247.68 1477.43 1250.85Z" fill="#132F1E"/><path d="M1503.93 1246.65C1503.93 1248.73 1502.25 1250.41 1500.17 1250.41 1498.1 1250.41 1496.42 1248.73 1496.42 1246.65 1496.42 1244.58 1498.1 1242.9 1500.17 1242.9 1502.25 1242.9 1503.93 1244.58 1503.93 1246.65Z" fill="#132F1E"/><path d="M1477.87 1249.52 1496.42 1246.65"/><path d="M1470.8 1257.03 1468.37 1295.9"/><path d="M1471.68 1304.29 1481.4 1314.89"/><path d="M1494.65 1319.75 1514.08 1318.2"/><path d="M1522.92 1320.63 1546.33 1337.86"/><path d="M1546.33 1345.81 1451.81 1427.07"/><path d="M1444.3 1433.26 1419.57 1460.64"/><path d="M1412.72 1457.55 1419.13 1401.46"/><path d="M1423.1 1391.74 1480.96 1326.37"/></g></g></g><g clip-path="url(#clip18)"><g clip-path="url(#clip19)"><g clip-path="url(#clip20)"><path d="M1553.33 1450.09 1490.33 1340.97C1499.84 1329.88 1498.99 1313.27 1488.4 1303.21 1477.8 1293.14 1461.18 1293.14 1450.58 1303.21 1439.99 1313.27 1439.14 1329.88 1448.65 1340.97L1385.63 1450.09 1401.47 1459.24 1411.13 1442.52C1447.99 1460.35 1490.98 1460.35 1527.84 1442.52L1537.5 1459.24 1553.33 1450.09ZM1469.48 1314C1474.53 1314 1478.63 1318.1 1478.63 1323.15 1478.63 1328.2 1474.53 1332.3 1469.48 1332.3 1464.43 1332.3 1460.33 1328.2 1460.33 1323.15 1460.33 1320.72 1461.29 1318.4 1463.01 1316.68 1464.73 1314.96 1467.05 1314 1469.48 1314L1469.48 1314ZM1460.33 1357.3 1460.33 1437.23C1446.46 1436.13 1432.9 1432.54 1420.3 1426.63L1460.33 1357.3ZM1478.63 1437.23 1478.63 1357.3 1518.66 1426.63C1506.06 1432.54 1492.5 1436.13 1478.63 1437.23L1478.63 1437.23Z" stroke="#FFFFFF" stroke-width="4.60376" fill="#132F1E"/></g></g></g></g></svg>