<svg width="550" height="550" xmlns="http://www.w3.org/2000/svg" xmlns:xlink="http://www.w3.org/1999/xlink" overflow="hidden"><defs><clipPath id="clip0"><rect x="1787" y="30" width="550" height="550"/></clipPath><radialGradient cx="762000" cy="762000" r="1.07763e+06" gradientUnits="userSpaceOnUse" spreadMethod="pad" id="fill1" gradientTransform="matrix(0.000360892 0 0 0.000360892 1787 29.9999)"><stop offset="0" stop-color="#FFFFCC"/><stop offset="0.17" stop-color="#FFFFCC"/><stop offset="0.33" stop-color="#00B050"/><stop offset="1" stop-color="#0F1113"/></radialGradient><linearGradient x1="2060.5" y1="35.0001" x2="2060.5" y2="190" gradientUnits="userSpaceOnUse" spreadMethod="reflect" id="fill2"><stop offset="0" stop-color="#F5FAFF" stop-opacity="0.231373"/><stop offset="0.32" stop-color="#FFFFFF" stop-opacity="0"/><stop offset="1" stop-color="#FFFFFF" stop-opacity="0"/></linearGradient><radialGradient cx="94211" cy="102524" r="139236" gradientUnits="userSpaceOnUse" spreadMethod="pad" id="fill3" gradientTransform="matrix(0.000360892 0 0 0.000360892 1791 76)"><stop offset="0" stop-color="#FFFFCC"/><stop offset="0.54" stop-color="#92D050" stop-opacity="0"/><stop offset="1" stop-color="#92D050" stop-opacity="0"/></radialGradient><radialGradient cx="112222" cy="120534" r="164688" gradientUnits="userSpaceOnUse" spreadMethod="pad" id="fill4" gradientTransform="matrix(0.000360892 0 0 0.000360892 1820 121)"><stop offset="0" stop-color="#FFFFCC"/><stop offset="0.54" stop-color="#92D050" stop-opacity="0"/><stop offset="1" stop-color="#92D050" stop-opacity="0"/></radialGradient><radialGradient cx="292331" cy="278477" r="403741" fx="292331" fy="278476" gradientUnits="userSpaceOnUse" spreadMethod="pad" id="fill5" gradientTransform="matrix(0.000360892 0 0 0.000360892 2124 361)"><stop offset="0" stop-color="#FFFFCC"/><stop offset="0.54" stop-color="#92D050" stop-opacity="0"/><stop offset="1" stop-color="#92D050" stop-opacity="0"/></radialGradient><radialGradient cx="243840" cy="281247" r="372234" gradientUnits="userSpaceOnUse" spreadMethod="pad" id="fill6" gradientTransform="matrix(0.000360892 0 0 0.000360892 1820 37.0001)"><stop offset="0" stop-color="#FFFFCC"/><stop offset="0.54" stop-color="#92D050" stop-opacity="0"/><stop offset="1" stop-color="#92D050" stop-opacity="0"/></radialGradient><radialGradient cx="72043.5" cy="77585" r="105876" gradientUnits="userSpaceOnUse" spreadMethod="pad" id="fill7" gradientTransform="matrix(0.000360892 0 0 0.000360892 2269 489)"><stop offset="0" stop-color="#FFFFCC"/><stop offset="0.54" stop-color="#92D050" stop-opacity="0"/><stop offset="1" stop-color="#92D050" stop-opacity="0"/></radialGradient><radialGradient cx="77585.5" cy="84513" r="114726" fx="77585.5" fy="84513" gradientUnits="userSpaceOnUse" spreadMethod="pad" id="fill8" gradientTransform="matrix(0.000360892 0 0 0.000360892 2253 406)"><stop offset="0" stop-color="#FFFFCC"/><stop offset="0.54" stop-color="#92D050" stop-opacity="0"/><stop offset="1" stop-color="#92D050" stop-opacity="0"/></radialGradient><clipPath id="clip9"><rect x="1802" y="42" width="526" height="526"/></clipPath><clipPath id="clip10"><rect x="1802" y="42" width="526" height="526"/></clipPath><clipPath id="clip11"><rect x="1802" y="42" width="526" height="526"/></clipPath><clipPath id="clip12"><rect x="1868" y="124" width="413" height="411"/></clipPath><clipPath id="clip13"><rect x="1868" y="124" width="413" height="411"/></clipPath><clipPath id="clip14"><rect x="1868" y="124" width="413" height="411"/></clipPath></defs><g clip-path="url(#clip0)" transform="translate(-1787 -30)"><rect x="1787" y="29.9999" width="550" height="550" fill="url(#fill1)"/><path d="M1821.73 35.0001 2299.27 35.0001C2315.14 35.0001 2328 54.993 2328 79.6558L2328 190C2328 151.576 2307.96 120.427 2283.23 120.427L1837.77 120.427C1813.04 120.427 1793 151.576 1793 190L1793 79.6558C1793 54.993 1805.86 35.0001 1821.73 35.0001Z" fill="url(#fill2)" fill-rule="evenodd"/><path d="M1791 113C1791 92.5654 1806.22 76 1825 76 1843.78 76 1859 92.5654 1859 113 1859 133.434 1843.78 150 1825 150 1806.22 150 1791 133.434 1791 113Z" fill="url(#fill3)" fill-rule="evenodd"/><path d="M1820 164.5C1820 140.476 1838.13 121 1860.5 121 1882.87 121 1901 140.476 1901 164.5 1901 188.524 1882.87 208 1860.5 208 1838.13 208 1820 188.524 1820 164.5Z" fill="url(#fill4)" fill-rule="evenodd"/><path d="M2124 461.5C2124 405.995 2171.23 361 2229.5 361 2287.77 361 2335 405.995 2335 461.5 2335 517.005 2287.77 562 2229.5 562 2171.23 562 2124 517.005 2124 461.5Z" fill="url(#fill5)" fill-rule="evenodd"/><path d="M1820 138.5C1820 82.4432 1859.4 37.0001 1908 37.0001 1956.6 37.0001 1996 82.4432 1996 138.5 1996 194.557 1956.6 240 1908 240 1859.4 240 1820 194.557 1820 138.5Z" fill="url(#fill6)" fill-rule="evenodd"/><path d="M2269 517C2269 501.536 2280.64 489 2295 489 2309.36 489 2321 501.536 2321 517 2321 532.464 2309.36 545 2295 545 2280.64 545 2269 532.464 2269 517Z" fill="url(#fill7)" fill-rule="evenodd"/><path d="M2253 436.5C2253 419.655 2265.54 406 2281 406 2296.46 406 2309 419.655 2309 436.5 2309 453.345 2296.46 467 2281 467 2265.54 467 2253 453.345 2253 436.5Z" fill="url(#fill8)" fill-rule="evenodd"/><g clip-path="url(#clip9)"><g clip-path="url(#clip10)"><g clip-path="url(#clip11)"><path d="M2001.16 289.339 1971.97 496.075C1971.3 500.874 1967.59 504.676 1962.81 505.472 1958.03 506.269 1953.29 503.884 1951.09 499.57L1876.94 354.146C1874.9 350.145 1873.87 345.704 1873.94 341.221L1876.92 142.885C1876.97 139.148 1879.35 135.851 1882.88 134.612 1886.41 133.373 1890.33 134.486 1892.7 137.384L1992.96 259.993C1999.66 268.205 2002.64 278.84 2001.15 289.34ZM1998.01 252.842C2005.12 261.546 2016.37 265.767 2027.45 263.898L2276.64 221.993C2279.97 221.436 2282.62 218.906 2283.34 215.62 2284.06 212.323 2282.69 208.931 2279.91 207.041L2130.99 106.219C2127.33 103.741 2122.98 102.502 2118.56 102.692L1903.18 111.827C1899.42 111.984 1896.07 114.262 1894.53 117.685 1892.99 121.118 1893.53 125.13 1895.91 128.048ZM2291.69 233.689C2289.39 230.834 2285.74 229.437 2282.11 230.046L2039.15 270.911C2023.3 273.579 2011.02 286.199 2008.76 302.096L1979.82 506.741C1979.02 512.38 1981.24 518.029 1985.66 521.629 1990.08 525.221 1996.07 526.227 2001.43 524.298L2203.39 451.344C2207.72 449.78 2211.19 446.441 2212.92 442.157L2293.18 243.834C2294.55 240.421 2293.98 236.547 2291.69 233.691Z" fill="#FFFFFF"/></g></g></g><g clip-path="url(#clip12)"><g clip-path="url(#clip13)"><g clip-path="url(#clip14)"><path d="M81.1807 159.402C81.1807 174.1 69.266 186.014 54.5684 186.014 39.8709 186.014 27.9562 174.1 27.9562 159.402 27.9562 144.705 39.8709 132.79 54.5684 132.79 69.266 132.79 81.1807 144.705 81.1807 159.402Z" fill="#132F1E" transform="matrix(-1 0 0 1 2280 124)"/><path d="M248.704 194.51C248.626 194.407 248.523 194.333 248.445 194.234 248.47 194.21 248.503 194.189 248.527 194.165 255.757 188.246 260.397 179.266 260.397 169.25 260.397 151.54 245.905 137.048 228.195 137.048L154.293 137.048 201.008 105.545C205.463 102.54 206.651 96.4329 203.646 91.9735L203.194 91.3036C200.19 86.8484 194.082 85.6606 189.623 88.665L112.807 140.472C112.548 140.644 112.339 140.862 112.104 141.059 102.166 146.558 95.3972 157.15 95.3972 169.254 95.3972 186.964 109.889 201.456 127.599 201.456L188.057 201.456 155.526 223.395C151.326 226.227 149.193 230.97 149.403 235.708 149.267 238.626 149.982 241.602 151.729 244.196L202.294 319.17C206.618 325.582 215.401 327.287 221.812 322.964L221.812 322.964C228.224 318.64 229.93 309.857 225.606 303.445L182.303 239.243 225.429 210.157C225.738 210.691 226.025 211.233 226.412 211.731L306.63 315.545C311.365 321.677 320.259 322.816 326.387 318.077 332.519 313.342 333.658 304.448 328.919 298.32L248.704 194.51Z" fill="#132F1E" transform="matrix(-1 0 0 1 2280 124)"/><path d="M244.479 93.8641 283.224 93.8641C285.497 93.8641 287.334 92.0229 287.334 89.7541 287.334 87.4854 285.497 85.6441 283.224 85.6441L244.479 85.6441C242.206 85.6441 240.369 87.4854 240.369 89.7541 240.369 92.0229 242.206 93.8641 244.479 93.8641Z" fill="#132F1E" transform="matrix(-1 0 0 1 2280 124)"/><path d="M341.491 211.829 302.747 211.829C300.474 211.829 298.637 213.671 298.637 215.939 298.637 218.208 300.474 220.049 302.747 220.049L341.491 220.049C343.764 220.049 345.601 218.208 345.601 215.939 345.601 213.671 343.76 211.829 341.491 211.829Z" fill="#132F1E" transform="matrix(-1 0 0 1 2280 124)"/><path d="M263.854 121.302C263.854 123.571 265.691 125.412 267.964 125.412L337.534 125.412C339.806 125.412 341.644 123.571 341.644 121.302 341.644 119.034 339.806 117.192 337.534 117.192L267.964 117.192C265.691 117.192 263.854 119.03 263.854 121.302Z" fill="#132F1E" transform="matrix(-1 0 0 1 2280 124)"/><path d="M280.294 188.505 341.13 188.505C343.403 188.505 345.24 186.664 345.24 184.395 345.24 182.126 343.403 180.285 341.13 180.285L280.294 180.285C278.021 180.285 276.184 182.126 276.184 184.395 276.184 186.664 278.021 188.505 280.294 188.505Z" fill="#132F1E" transform="matrix(-1 0 0 1 2280 124)"/><path d="M378.934 148.737 284.404 148.737C282.131 148.737 280.294 150.578 280.294 152.847 280.294 155.115 282.131 156.957 284.404 156.957L378.934 156.957C381.206 156.957 383.044 155.115 383.044 152.847 383.044 150.578 381.206 148.737 378.934 148.737Z" fill="#132F1E" transform="matrix(-1 0 0 1 2280 124)"/></g></g></g></g></svg>