<svg width="550" height="550" xmlns="http://www.w3.org/2000/svg" xmlns:xlink="http://www.w3.org/1999/xlink" overflow="hidden"><defs><clipPath id="clip0"><rect x="1827" y="33" width="550" height="550"/></clipPath><radialGradient cx="762000" cy="762000" r="1.07763e+06" gradientUnits="userSpaceOnUse" spreadMethod="pad" id="fill1" gradientTransform="matrix(0.000360892 0 0 0.000360892 1827 33)"><stop offset="0" stop-color="#FFFFCC"/><stop offset="0.17" stop-color="#FFFFCC"/><stop offset="0.33" stop-color="#00B050"/><stop offset="1" stop-color="#0F1113"/></radialGradient><linearGradient x1="2099.5" y1="38.0002" x2="2099.5" y2="193" gradientUnits="userSpaceOnUse" spreadMethod="reflect" id="fill2"><stop offset="0" stop-color="#F5FAFF" stop-opacity="0.231373"/><stop offset="0.32" stop-color="#FFFFFF" stop-opacity="0"/><stop offset="1" stop-color="#FFFFFF" stop-opacity="0"/></linearGradient><radialGradient cx="94210.5" cy="102524" r="139236" gradientUnits="userSpaceOnUse" spreadMethod="pad" id="fill3" gradientTransform="matrix(0.000360892 0 0 0.000360892 1831 79.0001)"><stop offset="0" stop-color="#FFFFCC"/><stop offset="0.54" stop-color="#92D050" stop-opacity="0"/><stop offset="1" stop-color="#92D050" stop-opacity="0"/></radialGradient><radialGradient cx="110836" cy="121920" r="164770" fx="110836" fy="121920" gradientUnits="userSpaceOnUse" spreadMethod="pad" id="fill4" gradientTransform="matrix(0.000360892 0 0 0.000360892 1860 124)"><stop offset="0" stop-color="#FFFFCC"/><stop offset="0.54" stop-color="#92D050" stop-opacity="0"/><stop offset="1" stop-color="#92D050" stop-opacity="0"/></radialGradient><radialGradient cx="292331" cy="278477" r="403741" fx="292331" fy="278476" gradientUnits="userSpaceOnUse" spreadMethod="pad" id="fill5" gradientTransform="matrix(0.000360892 0 0 0.000360892 2164 364)"><stop offset="0" stop-color="#FFFFCC"/><stop offset="0.54" stop-color="#92D050" stop-opacity="0"/><stop offset="1" stop-color="#92D050" stop-opacity="0"/></radialGradient><radialGradient cx="242454" cy="281248" r="371328" gradientUnits="userSpaceOnUse" spreadMethod="pad" id="fill6" gradientTransform="matrix(0.000360892 0 0 0.000360892 1860 39.9999)"><stop offset="0" stop-color="#FFFFCC"/><stop offset="0.54" stop-color="#92D050" stop-opacity="0"/><stop offset="1" stop-color="#92D050" stop-opacity="0"/></radialGradient><radialGradient cx="72043.5" cy="77585.5" r="105876" fx="72043.5" fy="77585.5" gradientUnits="userSpaceOnUse" spreadMethod="pad" id="fill7" gradientTransform="matrix(0.000360892 0 0 0.000360892 2309 492)"><stop offset="0" stop-color="#FFFFCC"/><stop offset="0.54" stop-color="#92D050" stop-opacity="0"/><stop offset="1" stop-color="#92D050" stop-opacity="0"/></radialGradient><radialGradient cx="77585" cy="84512.5" r="114725" fx="77585" fy="84512.5" gradientUnits="userSpaceOnUse" spreadMethod="pad" id="fill8" gradientTransform="matrix(0.000360892 0 0 0.000360892 2293 409)"><stop offset="0" stop-color="#FFFFCC"/><stop offset="0.54" stop-color="#92D050" stop-opacity="0"/><stop offset="1" stop-color="#92D050" stop-opacity="0"/></radialGradient><clipPath id="clip9"><rect x="1842" y="46" width="526" height="525"/></clipPath><clipPath id="clip10"><rect x="1842" y="46" width="526" height="525"/></clipPath><clipPath id="clip11"><rect x="1842" y="46" width="526" height="525"/></clipPath><clipPath id="clip12"><rect x="1904" y="134" width="345" height="345"/></clipPath><clipPath id="clip13"><rect x="1904" y="134" width="345" height="345"/></clipPath><clipPath id="clip14"><rect x="1904" y="134" width="345" height="345"/></clipPath></defs><g clip-path="url(#clip0)" transform="translate(-1827 -33)"><rect x="1827" y="33" width="550" height="550" fill="url(#fill1)"/><path d="M1860.73 38.0002 2338.27 38.0002C2354.14 38.0002 2367 57.993 2367 82.6558L2367 193C2367 154.576 2346.96 123.427 2322.23 123.427L1876.77 123.427C1852.04 123.427 1832 154.576 1832 193L1832 82.6558C1832 57.993 1844.86 38.0002 1860.73 38.0002Z" fill="url(#fill2)" fill-rule="evenodd"/><path d="M1831 116C1831 95.5655 1846.22 79.0001 1865 79.0001 1883.78 79.0001 1899 95.5655 1899 116 1899 136.435 1883.78 153 1865 153 1846.22 153 1831 136.435 1831 116Z" fill="url(#fill3)" fill-rule="evenodd"/><path d="M1860 168C1860 143.7 1877.91 124 1900 124 1922.09 124 1940 143.7 1940 168 1940 192.301 1922.09 212 1900 212 1877.91 212 1860 192.301 1860 168Z" fill="url(#fill4)" fill-rule="evenodd"/><path d="M2164 464.5C2164 408.995 2211.23 364 2269.5 364 2327.77 364 2375 408.995 2375 464.5 2375 520.005 2327.77 565 2269.5 565 2211.23 565 2164 520.005 2164 464.5Z" fill="url(#fill5)" fill-rule="evenodd"/><path d="M1860 141.5C1860 85.443 1899.18 39.9999 1947.5 39.9999 1995.82 39.9999 2035 85.443 2035 141.5 2035 197.557 1995.82 243 1947.5 243 1899.18 243 1860 197.557 1860 141.5Z" fill="url(#fill6)" fill-rule="evenodd"/><path d="M2309 520C2309 504.536 2320.64 492 2335 492 2349.36 492 2361 504.536 2361 520 2361 535.464 2349.36 548 2335 548 2320.64 548 2309 535.464 2309 520Z" fill="url(#fill7)" fill-rule="evenodd"/><path d="M2293 439.5C2293 422.655 2305.54 409 2321 409 2336.46 409 2349 422.655 2349 439.5 2349 456.345 2336.46 470 2321 470 2305.54 470 2293 456.345 2293 439.5Z" fill="url(#fill8)" fill-rule="evenodd"/><g clip-path="url(#clip9)"><g clip-path="url(#clip10)"><g clip-path="url(#clip11)"><path d="M2040.16 292.339 2010.97 499.075C2010.3 503.874 2006.59 507.676 2001.81 508.472 1997.03 509.269 1992.29 506.884 1990.09 502.571L1915.94 357.147C1913.9 353.146 1912.87 348.704 1912.94 344.221L1915.92 145.885C1915.97 142.148 1918.35 138.851 1921.88 137.612 1925.41 136.373 1929.33 137.486 1931.7 140.384L2031.96 262.993C2038.66 271.205 2041.64 281.84 2040.15 292.34ZM2037.01 255.842C2044.13 264.546 2055.37 268.767 2066.45 266.899L2315.64 224.993C2318.97 224.436 2321.62 221.906 2322.34 218.62 2323.06 215.323 2321.69 211.931 2318.91 210.041L2169.99 109.219C2166.33 106.741 2161.98 105.502 2157.56 105.692L1942.18 114.827C1938.42 114.984 1935.07 117.262 1933.53 120.685 1932 124.118 1932.53 128.13 1934.91 131.048ZM2330.69 236.689C2328.39 233.834 2324.74 232.437 2321.11 233.046L2078.15 273.911C2062.3 276.579 2050.02 289.199 2047.76 305.096L2018.82 509.741C2018.02 515.381 2020.24 521.029 2024.66 524.629 2029.08 528.221 2035.07 529.227 2040.43 527.298L2242.39 454.345C2246.72 452.78 2250.19 449.441 2251.92 445.157L2332.18 246.834C2333.55 243.421 2332.98 239.547 2330.69 236.691Z" fill="#FFFFFF"/></g></g></g><g clip-path="url(#clip12)"><g clip-path="url(#clip13)"><g clip-path="url(#clip14)"><path d="M2065.44 265.663 2062.7 234.307C2062.3 229.866 2065.8 226.037 2069.95 225.673 2074.33 225.294 2078.2 228.535 2078.58 232.921L2081.82 270.076C2082.28 275.04 2080.88 277.39 2076.32 278.9L2040.83 290.341C2023.3 295.859 2018.99 303.238 1995.94 300.424L1935.9 291.322C1930.38 290.496 1927.9 287.042 1928.49 282.278 1929.07 277.513 1933.09 274.49 1938.71 275.446L1996.5 285.25C1999.24 285.721 2003.3 287.156 2006.53 281.652 2016.4 265.246 2037.91 251.445 2061.36 243.175L2062.79 259.65C2062.79 259.65 2044.91 263.991 2032.99 276.186L2065.44 265.663Z" fill="#132F1E"/><path d="M2113.4 224.365 2081.12 237.699 2082.57 254.335 2108.89 243.464 2108.89 272.801C2108.89 277.204 2112.46 280.775 2116.86 280.775 2121.26 280.775 2124.83 277.204 2124.83 272.801L2124.83 231.552C2124.83 225.724 2120.08 221.913 2113.4 224.365Z" fill="#132F1E"/><path d="M2106.76 246.856 2090.45 253.599C2090.81 253.592 2091.16 253.585 2091.53 253.585 2096.7 253.585 2101.79 254.06 2106.76 254.954L2106.76 246.856Z" fill="#132F1E"/><path d="M2169.42 284.909C2166.3 288.03 2161.56 287.899 2158.33 284.665 2155.41 281.985 2137.77 266.003 2126.93 261.173L2126.93 244.627C2143.55 250.919 2169.36 274.792 2169.36 274.792L2169.34 274.813C2171.97 277.445 2172.82 281.511 2169.42 284.909Z" fill="#132F1E"/><path d="M2028.1 312.533C2028.1 318.876 2022.96 324.019 2016.61 324.019 2010.27 324.019 2005.13 318.876 2005.13 312.533 2005.13 306.189 2010.27 301.047 2016.61 301.047 2022.96 301.047 2028.1 306.189 2028.1 312.533Z" fill="#132F1E"/><path d="M2171.65 169.257 2223.59 169.257 2223.59 442.74 2171.65 442.74Z" fill="#132F1E"/></g></g></g></g></svg>