<svg width="550" height="550" xmlns="http://www.w3.org/2000/svg" xmlns:xlink="http://www.w3.org/1999/xlink" overflow="hidden"><defs><clipPath id="clip0"><rect x="629" y="1204" width="550" height="550"/></clipPath><radialGradient cx="762000" cy="762000" r="1.07763e+06" gradientUnits="userSpaceOnUse" spreadMethod="pad" id="fill1" gradientTransform="matrix(0.000360892 0 0 0.000360892 629 1204)"><stop offset="0" stop-color="#FFFFCC"/><stop offset="0.17" stop-color="#FFFFCC"/><stop offset="0.33" stop-color="#00B050"/><stop offset="1" stop-color="#0F1113"/></radialGradient><linearGradient x1="902.5" y1="1209" x2="902.5" y2="1364" gradientUnits="userSpaceOnUse" spreadMethod="reflect" id="fill2"><stop offset="0" stop-color="#F5FAFF" stop-opacity="0.231373"/><stop offset="0.32" stop-color="#FFFFFF" stop-opacity="0"/><stop offset="1" stop-color="#FFFFFF" stop-opacity="0"/></linearGradient><radialGradient cx="94211" cy="102524" r="139237" fx="94211" fy="102524" gradientUnits="userSpaceOnUse" spreadMethod="pad" id="fill3" gradientTransform="matrix(0.000360892 0 0 0.000360892 633 1250)"><stop offset="0" stop-color="#FFFFCC"/><stop offset="0.54" stop-color="#92D050" stop-opacity="0"/><stop offset="1" stop-color="#92D050" stop-opacity="0"/></radialGradient><radialGradient cx="112222" cy="120534" r="164688" gradientUnits="userSpaceOnUse" spreadMethod="pad" id="fill4" gradientTransform="matrix(0.000360892 0 0 0.000360892 662 1295)"><stop offset="0" stop-color="#FFFFCC"/><stop offset="0.54" stop-color="#92D050" stop-opacity="0"/><stop offset="1" stop-color="#92D050" stop-opacity="0"/></radialGradient><radialGradient cx="292331" cy="278477" r="403741" fx="292331" fy="278476" gradientUnits="userSpaceOnUse" spreadMethod="pad" id="fill5" gradientTransform="matrix(0.000360892 0 0 0.000360892 966 1535)"><stop offset="0" stop-color="#FFFFCC"/><stop offset="0.54" stop-color="#92D050" stop-opacity="0"/><stop offset="1" stop-color="#92D050" stop-opacity="0"/></radialGradient><radialGradient cx="243840" cy="281247" r="372234" gradientUnits="userSpaceOnUse" spreadMethod="pad" id="fill6" gradientTransform="matrix(0.000360892 0 0 0.000360892 662 1211)"><stop offset="0" stop-color="#FFFFCC"/><stop offset="0.54" stop-color="#92D050" stop-opacity="0"/><stop offset="1" stop-color="#92D050" stop-opacity="0"/></radialGradient><radialGradient cx="70658" cy="77585.5" r="104938" gradientUnits="userSpaceOnUse" spreadMethod="pad" id="fill7" gradientTransform="matrix(0.000360892 0 0 0.000360892 1112 1663)"><stop offset="0" stop-color="#FFFFCC"/><stop offset="0.54" stop-color="#92D050" stop-opacity="0"/><stop offset="1" stop-color="#92D050" stop-opacity="0"/></radialGradient><radialGradient cx="77585.5" cy="84513" r="114726" fx="77585.5" fy="84513" gradientUnits="userSpaceOnUse" spreadMethod="pad" id="fill8" gradientTransform="matrix(0.000360892 0 0 0.000360892 1095 1580)"><stop offset="0" stop-color="#FFFFCC"/><stop offset="0.54" stop-color="#92D050" stop-opacity="0"/><stop offset="1" stop-color="#92D050" stop-opacity="0"/></radialGradient><clipPath id="clip9"><rect x="644" y="1216" width="527" height="527"/></clipPath><clipPath id="clip10"><rect x="644" y="1216" width="527" height="527"/></clipPath><clipPath id="clip11"><rect x="644" y="1216" width="527" height="527"/></clipPath><clipPath id="clip12"><rect x="664" y="1227" width="495" height="495"/></clipPath><clipPath id="clip13"><rect x="664" y="1227" width="495" height="495"/></clipPath><clipPath id="clip14"><rect x="664" y="1227" width="495" height="495"/></clipPath></defs><g clip-path="url(#clip0)" transform="translate(-629 -1204)"><rect x="629" y="1204" width="550" height="550" fill="url(#fill1)"/><path d="M663.734 1209 1141.27 1209C1157.14 1209 1170 1228.99 1170 1253.66L1170 1364C1170 1325.58 1149.96 1294.43 1125.23 1294.43L679.767 1294.43C655.043 1294.43 635 1325.58 635 1364L635 1253.66C635 1228.99 647.864 1209 663.734 1209Z" fill="url(#fill2)" fill-rule="evenodd"/><path d="M633 1287C633 1266.57 648.222 1250 667 1250 685.778 1250 701 1266.57 701 1287 701 1307.43 685.778 1324 667 1324 648.222 1324 633 1307.43 633 1287Z" fill="url(#fill3)" fill-rule="evenodd"/><path d="M662 1338.5C662 1314.48 680.132 1295 702.5 1295 724.867 1295 743 1314.48 743 1338.5 743 1362.52 724.867 1382 702.5 1382 680.132 1382 662 1362.52 662 1338.5Z" fill="url(#fill4)" fill-rule="evenodd"/><path d="M966 1635.5C966 1580 1013.23 1535 1071.5 1535 1129.77 1535 1177 1580 1177 1635.5 1177 1691 1129.77 1736 1071.5 1736 1013.23 1736 966 1691 966 1635.5Z" fill="url(#fill5)" fill-rule="evenodd"/><path d="M662 1312.5C662 1256.44 701.399 1211 750 1211 798.601 1211 838 1256.44 838 1312.5 838 1368.56 798.601 1414 750 1414 701.399 1414 662 1368.56 662 1312.5Z" fill="url(#fill6)" fill-rule="evenodd"/><path d="M1112 1691C1112 1675.54 1123.42 1663 1137.5 1663 1151.58 1663 1163 1675.54 1163 1691 1163 1706.46 1151.58 1719 1137.5 1719 1123.42 1719 1112 1706.46 1112 1691Z" fill="url(#fill7)" fill-rule="evenodd"/><path d="M1095 1610.5C1095 1593.66 1107.54 1580 1123 1580 1138.46 1580 1151 1593.66 1151 1610.5 1151 1627.34 1138.46 1641 1123 1641 1107.54 1641 1095 1627.34 1095 1610.5Z" fill="url(#fill8)" fill-rule="evenodd"/><g clip-path="url(#clip9)"><g clip-path="url(#clip10)"><g clip-path="url(#clip11)"><path d="M843.157 1463.34 813.967 1670.08C813.296 1674.87 809.589 1678.68 804.81 1679.47 800.032 1680.27 795.286 1677.88 793.092 1673.57L718.94 1528.15C716.903 1524.15 715.874 1519.7 715.938 1515.22L718.919 1316.89C718.972 1313.15 721.355 1309.85 724.884 1308.61 728.411 1307.37 732.328 1308.49 734.702 1311.38L834.955 1433.99C841.663 1442.21 844.645 1452.84 843.155 1463.34ZM840.005 1426.84C847.125 1435.55 858.37 1439.77 869.448 1437.9L1118.64 1395.99C1121.97 1395.44 1124.62 1392.91 1125.34 1389.62 1126.06 1386.32 1124.69 1382.93 1121.91 1381.04L972.989 1280.22C969.335 1277.74 964.977 1276.5 960.557 1276.69L745.18 1285.83C741.421 1285.98 738.071 1288.26 736.528 1291.68 734.995 1295.12 735.532 1299.13 737.914 1302.05ZM1133.69 1407.69C1131.39 1404.83 1127.74 1403.44 1124.12 1404.05L881.145 1444.91C865.301 1447.58 853.015 1460.2 850.758 1476.1L821.819 1680.74C821.021 1686.38 823.236 1692.03 827.657 1695.63 832.078 1699.22 838.074 1700.23 843.428 1698.3L1045.39 1625.34C1049.72 1623.78 1053.19 1620.44 1054.92 1616.16L1135.18 1417.83C1136.55 1414.42 1135.98 1410.55 1133.69 1407.69Z" fill="#FFFFFF"/></g></g></g><g clip-path="url(#clip12)"><g clip-path="url(#clip13)"><g clip-path="url(#clip14)"><path d="M1073.17 1509.19 1069.37 1494.16C1085.91 1484.62 1101.53 1473.67 1116.01 1461.41 1054.38 1492.56 984.774 1510.22 911 1510.22 837.231 1510.22 767.626 1492.56 705.995 1461.41 720.489 1473.68 736.114 1484.63 752.653 1494.17L744.023 1515.74 760.967 1498.82C761.125 1498.9 761.274 1498.99 761.432 1499.08L761.209 1498.97 754.778 1528.02 776.034 1506.79 765.532 1547.25 789.491 1513.63 784.798 1560.21 804.8 1518.21C806.865 1518.95 808.925 1519.69 811.015 1520.38L806.292 1567.25 826.373 1525.09C828.181 1525.59 830.029 1526.01 831.846 1526.47L827.144 1577.5 847.58 1530.08C849.714 1530.52 851.829 1531 853.978 1531.39L848 1583.15 868.383 1533.66C870.25 1533.91 872.137 1534.08 874.014 1534.29L876.42 1592.42 889.269 1535.7C891.141 1535.83 893.009 1535.99 894.896 1536.08L902.656 1596.03 910.679 1536.51C910.783 1536.51 910.891 1536.51 911 1536.51 911.445 1536.51 911.889 1536.48 912.334 1536.48L927.682 1592.42 927.682 1536.04C928.339 1536 928.992 1535.94 929.644 1535.91L946.074 1587.38 945.412 1534.59C946.193 1534.5 946.968 1534.41 947.749 1534.32L965.938 1583.15 963.102 1532.18C964.021 1532.03 964.94 1531.9 965.849 1531.74L984.996 1574.04 979.745 1531.9 996.729 1569.43 991.334 1526.18C992.9 1525.77 994.491 1525.4 996.047 1524.97L1015.98 1556.05 1008.07 1521.36C1008.95 1521.08 1009.82 1520.78 1010.7 1520.49L1030.8 1547.11 1022.07 1516.53C1024 1515.8 1025.88 1514.99 1027.79 1514.24L1045.83 1535.46 1039.26 1509.44C1039.72 1509.23 1040.17 1509.02 1040.63 1508.82L1055.5 1526.31 1049.98 1504.47C1053.43 1502.78 1056.87 1501.07 1060.25 1499.26L1073.17 1509.19ZM775.896 1506.35C775.97 1506.38 776.044 1506.42 776.113 1506.45L776.113 1506.46 775.896 1506.35Z" fill="#132F1E"/></g></g></g></g></svg>