<svg width="550" height="550" xmlns="http://www.w3.org/2000/svg" xmlns:xlink="http://www.w3.org/1999/xlink" overflow="hidden"><defs><clipPath id="clip0"><rect x="641" y="33" width="550" height="550"/></clipPath><radialGradient cx="762000" cy="762000" r="1.07763e+06" gradientUnits="userSpaceOnUse" spreadMethod="pad" id="fill1" gradientTransform="matrix(0.000360892 0 0 0.000360892 641 33)"><stop offset="0" stop-color="#FFFFCC"/><stop offset="0.17" stop-color="#FFFFCC"/><stop offset="0.33" stop-color="#00B050"/><stop offset="1" stop-color="#0F1113"/></radialGradient><linearGradient x1="914.5" y1="38.0002" x2="914.5" y2="193" gradientUnits="userSpaceOnUse" spreadMethod="reflect" id="fill2"><stop offset="0" stop-color="#F5FAFF" stop-opacity="0.231373"/><stop offset="0.32" stop-color="#FFFFFF" stop-opacity="0"/><stop offset="1" stop-color="#FFFFFF" stop-opacity="0"/></linearGradient><radialGradient cx="94211" cy="102524" r="139236" gradientUnits="userSpaceOnUse" spreadMethod="pad" id="fill3" gradientTransform="matrix(0.000360892 0 0 0.000360892 645 79.0001)"><stop offset="0" stop-color="#FFFFCC"/><stop offset="0.54" stop-color="#92D050" stop-opacity="0"/><stop offset="1" stop-color="#92D050" stop-opacity="0"/></radialGradient><radialGradient cx="112221" cy="121920" r="165705" fx="112222" fy="121920" gradientUnits="userSpaceOnUse" spreadMethod="pad" id="fill4" gradientTransform="matrix(0.000360892 0 0 0.000360892 674 124)"><stop offset="0" stop-color="#FFFFCC"/><stop offset="0.54" stop-color="#92D050" stop-opacity="0"/><stop offset="1" stop-color="#92D050" stop-opacity="0"/></radialGradient><radialGradient cx="292331" cy="278477" r="403741" fx="292331" fy="278476" gradientUnits="userSpaceOnUse" spreadMethod="pad" id="fill5" gradientTransform="matrix(0.000360892 0 0 0.000360892 978 364)"><stop offset="0" stop-color="#FFFFCC"/><stop offset="0.54" stop-color="#92D050" stop-opacity="0"/><stop offset="1" stop-color="#92D050" stop-opacity="0"/></radialGradient><radialGradient cx="243840" cy="281248" r="372234" gradientUnits="userSpaceOnUse" spreadMethod="pad" id="fill6" gradientTransform="matrix(0.000360892 0 0 0.000360892 674 39.9999)"><stop offset="0" stop-color="#FFFFCC"/><stop offset="0.54" stop-color="#92D050" stop-opacity="0"/><stop offset="1" stop-color="#92D050" stop-opacity="0"/></radialGradient><radialGradient cx="72043.5" cy="77585.5" r="105876" fx="72043.5" fy="77585.5" gradientUnits="userSpaceOnUse" spreadMethod="pad" id="fill7" gradientTransform="matrix(0.000360892 0 0 0.000360892 1123 492)"><stop offset="0" stop-color="#FFFFCC"/><stop offset="0.54" stop-color="#92D050" stop-opacity="0"/><stop offset="1" stop-color="#92D050" stop-opacity="0"/></radialGradient><radialGradient cx="77585.5" cy="84512.5" r="114725" gradientUnits="userSpaceOnUse" spreadMethod="pad" id="fill8" gradientTransform="matrix(0.000360892 0 0 0.000360892 1107 409)"><stop offset="0" stop-color="#FFFFCC"/><stop offset="0.54" stop-color="#92D050" stop-opacity="0"/><stop offset="1" stop-color="#92D050" stop-opacity="0"/></radialGradient><clipPath id="clip9"><rect x="656" y="46" width="527" height="525"/></clipPath><clipPath id="clip10"><rect x="656" y="46" width="527" height="525"/></clipPath><clipPath id="clip11"><rect x="656" y="46" width="527" height="525"/></clipPath><clipPath id="clip12"><rect x="728" y="129" width="367" height="369"/></clipPath><clipPath id="clip13"><rect x="728" y="129" width="367" height="369"/></clipPath><clipPath id="clip14"><rect x="728" y="129" width="367" height="369"/></clipPath></defs><g clip-path="url(#clip0)" transform="translate(-641 -33)"><rect x="641" y="33" width="550" height="550" fill="url(#fill1)"/><path d="M675.734 38.0002 1153.27 38.0002C1169.14 38.0002 1182 57.993 1182 82.6558L1182 193C1182 154.576 1161.96 123.427 1137.23 123.427L691.767 123.427C667.043 123.427 647 154.576 647 193L647 82.6558C647 57.993 659.864 38.0002 675.734 38.0002Z" fill="url(#fill2)" fill-rule="evenodd"/><path d="M645 116C645 95.5655 660.222 79.0001 679 79.0001 697.778 79.0001 713 95.5655 713 116 713 136.435 697.778 153 679 153 660.222 153 645 136.435 645 116Z" fill="url(#fill3)" fill-rule="evenodd"/><path d="M674 168C674 143.7 692.133 124 714.5 124 736.867 124 755 143.7 755 168 755 192.301 736.867 212 714.5 212 692.133 212 674 192.301 674 168Z" fill="url(#fill4)" fill-rule="evenodd"/><path d="M978 464.5C978 408.995 1025.23 364 1083.5 364 1141.77 364 1189 408.995 1189 464.5 1189 520.005 1141.77 565 1083.5 565 1025.23 565 978 520.005 978 464.5Z" fill="url(#fill5)" fill-rule="evenodd"/><path d="M674 141.5C674 85.443 713.399 39.9999 762 39.9999 810.601 39.9999 850 85.443 850 141.5 850 197.557 810.601 243 762 243 713.399 243 674 197.557 674 141.5Z" fill="url(#fill6)" fill-rule="evenodd"/><path d="M1123 520C1123 504.536 1134.64 492 1149 492 1163.36 492 1175 504.536 1175 520 1175 535.464 1163.36 548 1149 548 1134.64 548 1123 535.464 1123 520Z" fill="url(#fill7)" fill-rule="evenodd"/><path d="M1107 439.5C1107 422.655 1119.54 409 1135 409 1150.46 409 1163 422.655 1163 439.5 1163 456.345 1150.46 470 1135 470 1119.54 470 1107 456.345 1107 439.5Z" fill="url(#fill8)" fill-rule="evenodd"/><g clip-path="url(#clip9)"><g clip-path="url(#clip10)"><g clip-path="url(#clip11)"><path d="M855.157 292.339 825.967 499.075C825.296 503.874 821.589 507.676 816.81 508.472 812.032 509.269 807.286 506.884 805.092 502.571L730.94 357.147C728.903 353.146 727.874 348.704 727.938 344.221L730.919 145.885C730.972 142.148 733.355 138.851 736.884 137.612 740.411 136.373 744.328 137.486 746.702 140.384L846.955 262.993C853.663 271.205 856.645 281.84 855.155 292.34ZM852.005 255.842C859.125 264.546 870.37 268.767 881.448 266.899L1130.64 224.993C1133.97 224.436 1136.62 221.906 1137.34 218.62 1138.06 215.323 1136.69 211.931 1133.91 210.041L984.989 109.219C981.335 106.741 976.977 105.502 972.557 105.692L757.18 114.827C753.421 114.984 750.071 117.262 748.528 120.685 746.995 124.118 747.532 128.13 749.914 131.048ZM1145.69 236.689C1143.39 233.834 1139.74 232.437 1136.12 233.046L893.145 273.911C877.301 276.579 865.015 289.199 862.758 305.096L833.819 509.741C833.021 515.381 835.236 521.029 839.657 524.629 844.078 528.221 850.074 529.227 855.428 527.298L1057.39 454.345C1061.72 452.78 1065.19 449.441 1066.92 445.157L1147.18 246.834C1148.55 243.421 1147.98 239.547 1145.69 236.691Z" fill="#FFFFFF"/></g></g></g><g clip-path="url(#clip12)"><g clip-path="url(#clip13)"><g clip-path="url(#clip14)"><path d="M1059.96 159.589C1051.2 165.324 1040.82 169.316 1031.71 171.99 1015.73 176.659 998.89 177.572 982.499 174.656 954.422 169.739 935.369 157.69 924.123 148.178 916.841 142 906.158 142 898.877 148.178 887.631 157.69 868.578 169.739 840.537 174.656 824.145 177.572 807.302 176.659 791.322 171.99 782.219 169.316 771.825 165.338 763.066 159.582 758.114 156.304 751.443 157.661 748.165 162.613 746.896 164.53 746.275 166.805 746.393 169.101 748.099 207.858 752.407 277.717 762.786 339.914 768.208 372.694 784.679 402.633 809.464 424.761 830.574 443.556 859.805 465.21 895.042 480.12 905.579 484.587 917.478 484.587 928.015 480.12 963.238 465.21 992.455 443.563 1013.55 424.783 1038.35 402.638 1054.83 372.679 1060.25 339.878 1070.63 277.696 1074.93 207.858 1076.61 169.116 1076.91 163.185 1072.34 158.135 1066.41 157.836 1064.13 157.721 1061.87 158.335 1059.96 159.589ZM1003.97 295.946C1000.38 308.439 994.34 323.263 980.707 332.244 980.707 332.244 960.823 345.068 938.473 340.803 919.206 337.068 904.67 321.136 902.712 301.608 902.04 295.235 902.994 288.796 905.486 282.893 909.17 274.191 917.091 267.84 926.503 266.93 929.575 266.578 932.686 266.956 935.584 268.034 940.773 270.118 944.778 274.385 946.53 279.696 947.725 283.495 945.614 287.543 941.815 288.738 940.826 289.049 939.781 289.143 938.753 289.014 937.243 288.827 935.713 288.865 934.215 289.129 929.316 290.065 926.103 294.796 927.04 299.695 927.169 300.374 927.376 301.035 927.657 301.666 928.674 303.816 930.696 305.966 934.559 307.4 943.774 310.793 954.119 307.592 959.805 299.587 961.496 297.161 962.775 294.473 963.59 291.631 967.31 278.97 962.681 265.338 952.02 257.561 946.286 253.454 938.179 250.329 926.739 250.852 926.739 250.852 903.414 251.468 889.157 276.234 882.595 287.781 879.921 301.133 881.531 314.317 881.567 314.568 881.595 314.819 881.624 315.034 884.895 340.231 902.528 361.222 926.782 368.794 938.48 372.464 954.88 375.718 971.904 373.044 983.574 371.209 991.609 384.721 984.42 394.097 974.614 406.892 955.913 419.084 920.281 419.084 920.281 419.084 853.619 419.736 825.879 357.268 825.879 357.268 802.275 304.863 832.33 250.78 832.33 250.78 862.865 199.063 929.506 199.063 936.21 199.283 942.869 200.245 949.361 201.931 990.727 212.317 1015.75 255.009 1003.97 295.946Z" fill="#132F1E"/></g></g></g></g></svg>