<svg width="550" height="550" xmlns="http://www.w3.org/2000/svg" xmlns:xlink="http://www.w3.org/1999/xlink" overflow="hidden"><defs><clipPath id="clip0"><rect x="622" y="602" width="550" height="550"/></clipPath><radialGradient cx="762000" cy="762000" r="1.07763e+06" gradientUnits="userSpaceOnUse" spreadMethod="pad" id="fill1" gradientTransform="matrix(0.000360892 0 0 0.000360892 622 602)"><stop offset="0" stop-color="#FFFFCC"/><stop offset="0.17" stop-color="#FFFFCC"/><stop offset="0.33" stop-color="#00B050"/><stop offset="1" stop-color="#0F1113"/></radialGradient><linearGradient x1="895" y1="608" x2="895" y2="762" gradientUnits="userSpaceOnUse" spreadMethod="reflect" id="fill2"><stop offset="0" stop-color="#F5FAFF" stop-opacity="0.231373"/><stop offset="0.32" stop-color="#FFFFFF" stop-opacity="0"/><stop offset="1" stop-color="#FFFFFF" stop-opacity="0"/></linearGradient><radialGradient cx="94211" cy="102524" r="139236" gradientUnits="userSpaceOnUse" spreadMethod="pad" id="fill3" gradientTransform="matrix(0.000360892 0 0 0.000360892 626 649)"><stop offset="0" stop-color="#FFFFCC"/><stop offset="0.54" stop-color="#92D050" stop-opacity="0"/><stop offset="1" stop-color="#92D050" stop-opacity="0"/></radialGradient><radialGradient cx="110836" cy="120534" r="163748" gradientUnits="userSpaceOnUse" spreadMethod="pad" id="fill4" gradientTransform="matrix(0.000360892 0 0 0.000360892 655 694)"><stop offset="0" stop-color="#FFFFCC"/><stop offset="0.54" stop-color="#92D050" stop-opacity="0"/><stop offset="1" stop-color="#92D050" stop-opacity="0"/></radialGradient><radialGradient cx="292331" cy="278477" r="403741" fx="292331" fy="278476" gradientUnits="userSpaceOnUse" spreadMethod="pad" id="fill5" gradientTransform="matrix(0.000360892 0 0 0.000360892 959 934)"><stop offset="0" stop-color="#FFFFCC"/><stop offset="0.54" stop-color="#92D050" stop-opacity="0"/><stop offset="1" stop-color="#92D050" stop-opacity="0"/></radialGradient><radialGradient cx="243840" cy="281247" r="372234" gradientUnits="userSpaceOnUse" spreadMethod="pad" id="fill6" gradientTransform="matrix(0.000360892 0 0 0.000360892 655 610)"><stop offset="0" stop-color="#FFFFCC"/><stop offset="0.54" stop-color="#92D050" stop-opacity="0"/><stop offset="1" stop-color="#92D050" stop-opacity="0"/></radialGradient><radialGradient cx="72043.5" cy="77585.5" r="105876" fx="72043.5" fy="77585.5" gradientUnits="userSpaceOnUse" spreadMethod="pad" id="fill7" gradientTransform="matrix(0.000360892 0 0 0.000360892 1104 1062)"><stop offset="0" stop-color="#FFFFCC"/><stop offset="0.54" stop-color="#92D050" stop-opacity="0"/><stop offset="1" stop-color="#92D050" stop-opacity="0"/></radialGradient><radialGradient cx="77585.5" cy="84512.5" r="114725" gradientUnits="userSpaceOnUse" spreadMethod="pad" id="fill8" gradientTransform="matrix(0.000360892 0 0 0.000360892 1088 979)"><stop offset="0" stop-color="#FFFFCC"/><stop offset="0.54" stop-color="#92D050" stop-opacity="0"/><stop offset="1" stop-color="#92D050" stop-opacity="0"/></radialGradient><clipPath id="clip9"><rect x="638" y="616" width="525" height="525"/></clipPath><clipPath id="clip10"><rect x="638" y="616" width="525" height="525"/></clipPath><clipPath id="clip11"><rect x="638" y="616" width="525" height="525"/></clipPath><clipPath id="clip12"><rect x="673" y="841" width="121" height="121"/></clipPath><clipPath id="clip13"><rect x="673" y="841" width="121" height="121"/></clipPath><clipPath id="clip14"><rect x="673" y="841" width="121" height="121"/></clipPath><clipPath id="clip15"><rect x="1002" y="841" width="120" height="121"/></clipPath><clipPath id="clip16"><rect x="1002" y="841" width="120" height="121"/></clipPath><clipPath id="clip17"><rect x="1002" y="841" width="120" height="121"/></clipPath><clipPath id="clip18"><rect x="726" y="720" width="333" height="333"/></clipPath><clipPath id="clip19"><rect x="726" y="720" width="333" height="333"/></clipPath><clipPath id="clip20"><rect x="726" y="720" width="333" height="333"/></clipPath></defs><g clip-path="url(#clip0)" transform="translate(-622 -602)"><rect x="622" y="602" width="550" height="550" fill="url(#fill1)"/><path d="M655.787 608 1134.21 608C1150.11 608 1163 627.864 1163 652.368L1163 762C1163 723.824 1142.92 692.876 1118.15 692.876L671.85 692.876C647.08 692.876 627 723.824 627 762L627 652.368C627 627.864 639.888 608 655.787 608Z" fill="url(#fill2)" fill-rule="evenodd"/><path d="M626 686C626 665.565 641.222 649 660 649 678.778 649 694 665.565 694 686 694 706.434 678.778 723 660 723 641.222 723 626 706.434 626 686Z" fill="url(#fill3)" fill-rule="evenodd"/><path d="M655 737.5C655 713.476 672.908 694 695 694 717.091 694 735 713.476 735 737.5 735 761.524 717.091 781 695 781 672.908 781 655 761.524 655 737.5Z" fill="url(#fill4)" fill-rule="evenodd"/><path d="M959 1034.5C959 978.995 1006.23 934 1064.5 934 1122.77 934 1170 978.995 1170 1034.5 1170 1090 1122.77 1135 1064.5 1135 1006.23 1135 959 1090 959 1034.5Z" fill="url(#fill5)" fill-rule="evenodd"/><path d="M655 711.5C655 655.443 694.399 610 743 610 791.601 610 831 655.443 831 711.5 831 767.557 791.601 813 743 813 694.399 813 655 767.557 655 711.5Z" fill="url(#fill6)" fill-rule="evenodd"/><path d="M1104 1090C1104 1074.54 1115.64 1062 1130 1062 1144.36 1062 1156 1074.54 1156 1090 1156 1105.46 1144.36 1118 1130 1118 1115.64 1118 1104 1105.46 1104 1090Z" fill="url(#fill7)" fill-rule="evenodd"/><path d="M1088 1009.5C1088 992.655 1100.54 979 1116 979 1131.46 979 1144 992.655 1144 1009.5 1144 1026.34 1131.46 1040 1116 1040 1100.54 1040 1088 1026.34 1088 1009.5Z" fill="url(#fill8)" fill-rule="evenodd"/><g clip-path="url(#clip9)"><g clip-path="url(#clip10)"><g clip-path="url(#clip11)"><path d="M836.157 862.339 806.967 1069.07C806.296 1073.87 802.589 1077.68 797.81 1078.47 793.032 1079.27 788.286 1076.88 786.092 1072.57L711.94 927.146C709.903 923.146 708.874 918.704 708.938 914.221L711.92 715.885C711.972 712.148 714.355 708.851 717.884 707.612 721.412 706.373 725.328 707.486 727.702 710.384L827.955 832.993C834.663 841.205 837.645 851.84 836.155 862.34ZM833.005 825.842C840.125 834.546 851.37 838.767 862.448 836.899L1111.64 794.993C1114.97 794.436 1117.62 791.906 1118.34 788.62 1119.06 785.323 1117.69 781.931 1114.91 780.041L965.988 679.219C962.335 676.741 957.977 675.502 953.557 675.692L738.18 684.827C734.421 684.984 731.071 687.262 729.528 690.685 727.995 694.118 728.532 698.13 730.914 701.048ZM1126.69 806.689C1124.39 803.834 1120.74 802.437 1117.11 803.046L874.145 843.911C858.301 846.579 846.015 859.199 843.758 875.096L814.819 1079.74C814.021 1085.38 816.236 1091.03 820.657 1094.63 825.078 1098.22 831.074 1099.23 836.428 1097.3L1038.39 1024.34C1042.72 1022.78 1046.19 1019.44 1047.92 1015.16L1128.18 816.834C1129.55 813.421 1128.98 809.547 1126.69 806.691Z" fill="#FFFFFF"/></g></g></g><g clip-path="url(#clip12)"><g clip-path="url(#clip13)"><g clip-path="url(#clip14)"><path d="M733.011 844.75C730.714 844.75 728.5 845.136 726.679 846.329 724.858 847.521 723.632 849.681 723.632 852.261 723.632 854.841 724.858 857.009 726.679 858.201 727.994 859.062 729.517 859.488 731.125 859.662L731.125 867.331C729.415 867.426 727.752 867.683 726.119 868.023L724.13 860.64C723.173 858.024 719.87 859.473 720.512 861.611L722.482 868.982C720.864 869.515 719.309 870.174 717.81 870.934L713.99 864.313C712.366 861.972 709.549 864.371 710.734 866.195L714.558 872.809C713.14 873.739 711.802 874.773 710.544 875.9L706.384 871.74C707.405 870.477 708.193 869.097 708.515 867.554 708.96 865.424 708.289 863.021 706.465 861.197 704.64 859.372 702.238 858.716 700.107 859.161 697.976 859.605 696.147 860.902 694.522 862.526 692.898 864.15 691.602 865.977 691.157 868.107 690.712 870.238 691.368 872.644 693.193 874.468 695.017 876.293 697.423 876.964 699.554 876.519 701.097 876.197 702.476 875.409 703.74 874.388L707.896 878.544C706.769 879.803 705.736 881.143 704.806 882.561L698.195 878.735C695.742 877.537 694.365 880.824 696.309 881.99L702.931 885.813C702.171 887.312 701.511 888.866 700.979 890.483L693.61 888.516C691.307 887.874 690.135 891.299 692.64 892.13L700.019 894.115C699.678 895.75 699.422 897.417 699.327 899.129L691.662 899.129C691.487 897.521 691.062 895.994 690.201 894.679 689.009 892.858 686.841 891.636 684.261 891.636 681.681 891.636 679.521 892.858 678.328 894.679 677.136 896.5 676.75 898.714 676.75 901.011 676.75 903.308 677.136 905.522 678.328 907.343 679.521 909.164 681.681 910.39 684.261 910.39 686.841 910.39 689.009 909.164 690.201 907.343 691.065 906.023 691.492 904.494 691.666 902.879L699.327 902.879C699.421 904.595 699.678 906.265 700.019 907.903L692.64 909.877C690.22 910.524 691.191 914.157 693.61 913.51L700.979 911.54C701.51 913.156 702.172 914.711 702.931 916.209L696.309 920.032C693.979 921.241 695.991 924.703 698.195 923.277L704.806 919.465C705.735 920.882 706.773 922.22 707.9 923.478L703.74 927.638C702.476 926.617 701.097 925.829 699.554 925.507 697.423 925.062 695.017 925.733 693.193 927.558 691.368 929.382 690.712 931.77 691.157 933.901 691.602 936.031 692.898 937.876 694.522 939.5 696.147 941.124 697.976 942.421 700.107 942.865 702.238 943.31 704.64 942.654 706.465 940.829 708.289 939.005 708.96 936.599 708.515 934.468 708.193 932.925 707.405 931.546 706.384 930.282L710.544 926.122C711.802 927.249 713.14 928.283 714.558 929.213L710.734 935.827C709.478 937.997 712.734 939.883 713.99 937.713L717.81 931.092C719.308 931.851 720.862 932.512 722.479 933.044L720.512 940.412C719.625 942.956 723.626 944.029 724.13 941.382L726.115 934.003C727.749 934.344 729.414 934.6 731.125 934.695L731.125 942.353C729.517 942.528 727.994 942.953 726.679 943.814 724.858 945.006 723.632 947.177 723.632 949.758 723.632 952.338 724.858 954.494 726.679 955.686 728.5 956.879 730.714 957.25 733.011 957.25 735.308 957.25 737.518 956.879 739.339 955.686 741.16 954.494 742.39 952.338 742.39 949.758 742.39 947.177 741.16 945.006 739.339 943.814 738.019 942.95 736.494 942.522 734.879 942.349L734.879 934.703C736.596 934.607 738.271 934.36 739.91 934.018L741.877 941.382C742.523 943.803 746.152 942.832 745.506 940.412L743.543 933.066C745.161 932.533 746.72 931.872 748.22 931.11L752.032 937.713C753.241 940.043 756.699 938.031 755.273 935.827L751.468 929.224C752.884 928.293 754.235 927.27 755.493 926.141L759.635 930.286C758.614 931.549 757.826 932.929 757.503 934.472 757.059 936.603 757.73 939.005 759.554 940.829 761.379 942.654 763.77 943.31 765.901 942.865 768.031 942.421 769.876 941.124 771.5 939.5 773.124 937.876 774.417 936.031 774.862 933.901 775.306 931.77 774.654 929.382 772.829 927.558 771.005 925.733 768.599 925.059 766.468 925.503 764.925 925.826 763.546 926.617 762.282 927.638L758.148 923.504C759.274 922.243 760.294 920.888 761.224 919.468L767.827 923.277C770.031 924.703 772.039 921.241 769.709 920.032L763.103 916.22C763.862 914.72 764.522 913.161 765.055 911.543L772.412 913.51C774.835 914.162 775.807 910.521 773.382 909.877L766.007 907.907C766.349 906.268 766.597 904.595 766.692 902.879L774.345 902.879C774.519 904.494 774.946 906.023 775.81 907.343 777.002 909.164 779.177 910.39 781.757 910.39 784.338 910.39 786.494 909.164 787.686 907.343 788.878 905.522 789.25 903.308 789.25 901.011 789.25 898.714 788.878 896.5 787.686 894.679 786.494 892.858 784.338 891.636 781.757 891.636 779.177 891.636 777.002 892.858 775.81 894.679 774.949 895.994 774.524 897.521 774.349 899.129L766.699 899.129C766.603 897.416 766.359 895.746 766.018 894.112L773.382 892.13C775.863 891.39 774.807 887.874 772.412 888.516L765.062 890.479C764.53 888.861 763.871 887.302 763.11 885.802L769.709 881.99C771.771 880.716 770.146 877.574 767.827 878.735L761.224 882.558C760.292 881.14 759.271 879.785 758.141 878.526 761.608 874.017 762.401 875.041 766.468 876.519 768.599 876.964 771.005 876.293 772.829 874.468 774.654 872.644 775.306 870.241 774.862 868.111 774.417 865.98 773.124 864.15 771.5 862.526 769.876 860.902 768.031 859.602 765.901 859.157 765.368 859.046 764.819 859.005 764.267 859.032 762.611 859.115 760.922 859.828 759.554 861.197 757.73 863.021 757.059 865.424 757.503 867.554 757.825 869.097 758.611 870.477 759.631 871.74L755.5 875.874C754.24 874.749 752.883 873.732 751.465 872.802L755.273 866.195C756.422 864.025 753.39 862.154 752.032 864.313L748.216 870.92C746.717 870.16 745.16 869.497 743.543 868.964L745.506 861.611C746.146 859.252 742.674 858.154 741.877 860.64L739.903 868.012C738.265 867.67 736.594 867.421 734.879 867.327L734.879 859.666C736.494 859.493 738.019 859.065 739.339 858.201 741.16 857.009 742.39 854.841 742.39 852.261 742.39 849.681 741.16 847.521 739.339 846.329 737.518 845.136 735.308 844.75 733.011 844.75ZM733.011 876.614C735.591 876.614 737.763 877.84 738.955 879.661 740.147 881.482 740.518 883.696 740.518 885.993 740.518 888.29 740.147 890.518 738.955 892.339 737.763 894.16 735.591 895.386 733.011 895.386 730.431 895.386 728.26 894.16 727.067 892.339 725.875 890.518 725.5 888.29 725.5 885.993 725.5 883.696 725.875 881.482 727.067 879.661 728.26 877.84 730.431 876.614 733.011 876.614ZM722.523 900.209C724.696 900.331 726.843 901.589 728.133 903.824 729.423 906.058 729.447 908.546 728.466 910.489 727.485 912.432 725.746 913.87 723.757 915.019 721.768 916.167 719.668 916.957 717.495 916.835 715.322 916.713 713.174 915.437 711.884 913.202 710.594 910.968 710.57 908.484 711.551 906.541 712.532 904.598 714.257 903.171 716.246 902.022 718.235 900.873 720.35 900.087 722.523 900.209ZM743.499 900.209C745.672 900.087 747.772 900.873 749.762 902.022 751.751 903.171 753.49 904.598 754.471 906.541 755.452 908.484 755.428 910.968 754.138 913.202 752.848 915.437 750.701 916.713 748.527 916.835 746.354 916.957 744.254 916.167 742.265 915.019 740.276 913.87 738.537 912.432 737.556 910.489 736.575 908.546 736.595 906.058 737.885 903.824 739.175 901.589 741.326 900.331 743.499 900.209Z" fill="#132F1E"/></g></g></g><g clip-path="url(#clip15)"><g clip-path="url(#clip16)"><g clip-path="url(#clip17)"><path d="M1062.01 844.75C1059.71 844.75 1057.5 845.136 1055.68 846.329 1053.86 847.521 1052.63 849.681 1052.63 852.261 1052.63 854.841 1053.86 857.009 1055.68 858.201 1056.99 859.062 1058.52 859.488 1060.13 859.662L1060.13 867.331C1058.41 867.426 1056.75 867.683 1055.12 868.023L1053.13 860.64C1052.17 858.024 1048.87 859.473 1049.51 861.611L1051.48 868.982C1049.86 869.515 1048.31 870.174 1046.81 870.934L1042.99 864.313C1041.37 861.972 1038.55 864.371 1039.73 866.195L1043.56 872.809C1042.14 873.739 1040.8 874.773 1039.54 875.9L1035.38 871.74C1036.41 870.477 1037.19 869.097 1037.52 867.554 1037.96 865.424 1037.29 863.021 1035.46 861.197 1033.64 859.372 1031.24 858.716 1029.11 859.161 1026.98 859.605 1025.15 860.902 1023.52 862.526 1021.9 864.15 1020.6 865.977 1020.16 868.107 1019.71 870.238 1020.37 872.644 1022.19 874.468 1024.02 876.293 1026.42 876.964 1028.55 876.519 1030.1 876.197 1031.48 875.409 1032.74 874.388L1036.9 878.544C1035.77 879.803 1034.74 881.143 1033.81 882.561L1027.2 878.735C1024.74 877.537 1023.37 880.824 1025.31 881.99L1031.93 885.813C1031.17 887.312 1030.51 888.866 1029.98 890.483L1022.61 888.516C1020.31 887.874 1019.13 891.299 1021.64 892.13L1029.02 894.115C1028.68 895.75 1028.42 897.417 1028.33 899.129L1020.66 899.129C1020.49 897.521 1020.06 895.994 1019.2 894.679 1018.01 892.858 1015.84 891.636 1013.26 891.636 1010.68 891.636 1008.52 892.858 1007.33 894.679 1006.14 896.5 1005.75 898.714 1005.75 901.011 1005.75 903.308 1006.14 905.522 1007.33 907.343 1008.52 909.164 1010.68 910.39 1013.26 910.39 1015.84 910.39 1018.01 909.164 1019.2 907.343 1020.07 906.023 1020.49 904.494 1020.67 902.879L1028.33 902.879C1028.42 904.595 1028.68 906.265 1029.02 907.903L1021.64 909.877C1019.22 910.524 1020.19 914.157 1022.61 913.51L1029.98 911.54C1030.51 913.156 1031.17 914.711 1031.93 916.209L1025.31 920.032C1022.98 921.241 1024.99 924.703 1027.2 923.277L1033.81 919.465C1034.74 920.882 1035.77 922.22 1036.9 923.478L1032.74 927.638C1031.48 926.617 1030.1 925.829 1028.55 925.507 1026.42 925.062 1024.02 925.733 1022.19 927.558 1020.37 929.382 1019.71 931.77 1020.16 933.901 1020.6 936.031 1021.9 937.876 1023.52 939.5 1025.15 941.124 1026.98 942.421 1029.11 942.865 1031.24 943.31 1033.64 942.654 1035.46 940.829 1037.29 939.005 1037.96 936.599 1037.52 934.468 1037.19 932.925 1036.41 931.546 1035.38 930.282L1039.54 926.122C1040.8 927.249 1042.14 928.283 1043.56 929.213L1039.73 935.827C1038.48 937.997 1041.73 939.883 1042.99 937.713L1046.81 931.092C1048.31 931.851 1049.86 932.512 1051.48 933.044L1049.51 940.412C1048.62 942.956 1052.63 944.029 1053.13 941.382L1055.12 934.003C1056.75 934.344 1058.41 934.6 1060.13 934.695L1060.13 942.353C1058.52 942.528 1056.99 942.953 1055.68 943.814 1053.86 945.006 1052.63 947.177 1052.63 949.758 1052.63 952.338 1053.86 954.494 1055.68 955.686 1057.5 956.879 1059.71 957.25 1062.01 957.25 1064.31 957.25 1066.52 956.879 1068.34 955.686 1070.16 954.494 1071.39 952.338 1071.39 949.758 1071.39 947.177 1070.16 945.006 1068.34 943.814 1067.02 942.95 1065.49 942.522 1063.88 942.349L1063.88 934.703C1065.6 934.607 1067.27 934.36 1068.91 934.018L1070.88 941.382C1071.52 943.803 1075.15 942.832 1074.51 940.412L1072.54 933.066C1074.16 932.533 1075.72 931.872 1077.22 931.11L1081.03 937.713C1082.24 940.043 1085.7 938.031 1084.27 935.827L1080.47 929.224C1081.88 928.293 1083.23 927.27 1084.49 926.141L1088.63 930.286C1087.61 931.549 1086.83 932.929 1086.5 934.472 1086.06 936.603 1086.73 939.005 1088.55 940.829 1090.38 942.654 1092.77 943.31 1094.9 942.865 1097.03 942.421 1098.88 941.124 1100.5 939.5 1102.12 937.876 1103.42 936.031 1103.86 933.901 1104.31 931.77 1103.65 929.382 1101.83 927.558 1100 925.733 1097.6 925.059 1095.47 925.503 1093.92 925.826 1092.55 926.617 1091.28 927.638L1087.15 923.504C1088.27 922.243 1089.29 920.888 1090.22 919.468L1096.83 923.277C1099.03 924.703 1101.04 921.241 1098.71 920.032L1092.1 916.22C1092.86 914.72 1093.52 913.161 1094.05 911.543L1101.41 913.51C1103.83 914.162 1104.81 910.521 1102.38 909.877L1095.01 907.907C1095.35 906.268 1095.6 904.595 1095.69 902.879L1103.35 902.879C1103.52 904.494 1103.95 906.023 1104.81 907.343 1106 909.164 1108.18 910.39 1110.76 910.39 1113.34 910.39 1115.49 909.164 1116.69 907.343 1117.88 905.522 1118.25 903.308 1118.25 901.011 1118.25 898.714 1117.88 896.5 1116.69 894.679 1115.49 892.858 1113.34 891.636 1110.76 891.636 1108.18 891.636 1106 892.858 1104.81 894.679 1103.95 895.994 1103.52 897.521 1103.35 899.129L1095.7 899.129C1095.6 897.416 1095.36 895.746 1095.02 894.112L1102.38 892.13C1104.86 891.39 1103.81 887.874 1101.41 888.516L1094.06 890.479C1093.53 888.861 1092.87 887.302 1092.11 885.802L1098.71 881.99C1100.77 880.716 1099.15 877.574 1096.83 878.735L1090.22 882.558C1089.29 881.14 1088.27 879.785 1087.14 878.526 1090.61 874.017 1091.4 875.041 1095.47 876.519 1097.6 876.964 1100 876.293 1101.83 874.468 1103.65 872.644 1104.31 870.241 1103.86 868.111 1103.42 865.98 1102.12 864.15 1100.5 862.526 1098.88 860.902 1097.03 859.602 1094.9 859.157 1094.37 859.046 1093.82 859.005 1093.27 859.032 1091.61 859.115 1089.92 859.828 1088.55 861.197 1086.73 863.021 1086.06 865.424 1086.5 867.554 1086.83 869.097 1087.61 870.477 1088.63 871.74L1084.5 875.874C1083.24 874.749 1081.88 873.732 1080.46 872.802L1084.27 866.195C1085.42 864.025 1082.39 862.154 1081.03 864.313L1077.22 870.92C1075.72 870.16 1074.16 869.497 1072.54 868.964L1074.51 861.611C1075.15 859.252 1071.67 858.154 1070.88 860.64L1068.9 868.012C1067.27 867.67 1065.59 867.421 1063.88 867.327L1063.88 859.666C1065.49 859.493 1067.02 859.065 1068.34 858.201 1070.16 857.009 1071.39 854.841 1071.39 852.261 1071.39 849.681 1070.16 847.521 1068.34 846.329 1066.52 845.136 1064.31 844.75 1062.01 844.75ZM1062.01 876.614C1064.59 876.614 1066.76 877.84 1067.95 879.661 1069.15 881.482 1069.52 883.696 1069.52 885.993 1069.52 888.29 1069.15 890.518 1067.95 892.339 1066.76 894.16 1064.59 895.386 1062.01 895.386 1059.43 895.386 1057.26 894.16 1056.07 892.339 1054.88 890.518 1054.5 888.29 1054.5 885.993 1054.5 883.696 1054.88 881.482 1056.07 879.661 1057.26 877.84 1059.43 876.614 1062.01 876.614ZM1051.52 900.209C1053.7 900.331 1055.84 901.589 1057.13 903.824 1058.42 906.058 1058.45 908.546 1057.47 910.489 1056.49 912.432 1054.75 913.87 1052.76 915.019 1050.77 916.167 1048.67 916.957 1046.49 916.835 1044.32 916.713 1042.17 915.437 1040.88 913.202 1039.59 910.968 1039.57 908.484 1040.55 906.541 1041.53 904.598 1043.26 903.171 1045.25 902.022 1047.24 900.873 1049.35 900.087 1051.52 900.209ZM1072.5 900.209C1074.67 900.087 1076.77 900.873 1078.76 902.022 1080.75 903.171 1082.49 904.598 1083.47 906.541 1084.45 908.484 1084.43 910.968 1083.14 913.202 1081.85 915.437 1079.7 916.713 1077.53 916.835 1075.35 916.957 1073.25 916.167 1071.27 915.019 1069.28 913.87 1067.54 912.432 1066.56 910.489 1065.57 908.546 1065.6 906.058 1066.89 903.824 1068.18 901.589 1070.33 900.331 1072.5 900.209Z" fill="#132F1E"/></g></g></g><g clip-path="url(#clip18)"><g clip-path="url(#clip19)"><g clip-path="url(#clip20)"><path d="M166 0.51875C181.058 0.547297 193.258 12.747 193.286 27.805 193.286 43.99 180.058 64.8956 166 64.8956 151.942 64.8956 138.714 44.1456 138.714 27.805 138.742 12.747 150.942 0.547297 166 0.51875ZM312.599 102.92C281.636 107.033 250.456 109.302 219.224 109.716 218.126 104.986 216.379 100.429 214.036 96.1763 265.444 97.2656 296.984 100.171 312.599 102.92ZM166 79.2131C185.112 79.2178 201.968 91.7332 207.5 110.027 194.566 110.303 180.733 110.442 166 110.442 151.268 110.442 137.521 110.442 124.5 110.027 130.018 91.7228 146.883 79.2007 166 79.2131ZM209.264 122.477 209.264 128.806C195.811 129.117 181.39 129.273 166 129.273 150.61 129.273 136.189 129.117 122.736 128.806L122.736 122.477C122.736 122.166 122.736 121.906 122.736 121.595 136.639 121.906 151.112 122.062 165.948 122.062 180.784 122.062 195.258 122.062 209.16 121.595 209.212 121.906 209.264 122.218 209.264 122.477ZM112.673 109.716C81.4401 109.302 50.2605 107.033 19.2975 102.92 34.86 100.171 66.5038 97.2656 117.86 96.1763 115.523 100.433 113.778 104.988 112.673 109.716ZM9.18188 119.313 9.18188 112.569C22.8391 115.566 36.7188 117.439 50.6819 118.171 68.1119 119.624 88.81 120.661 111.324 121.284 111.324 121.699 111.324 122.114 111.324 122.477L111.324 128.494C54.1575 126.834 17.7931 122.788 9.18188 119.313ZM127.146 248.533C91.4152 248.382 55.7278 246.043 20.2831 241.53 37.1425 238.781 71.38 235.876 127.146 234.838ZM9.18188 257.871 9.18188 251.023C22.8391 254.02 36.7188 255.894 50.6819 256.626 72.1581 258.389 98.5625 259.531 127.301 260.101L127.301 267.312C61.005 266.015 18.5713 261.502 9.18188 257.871ZM171.81 260.516 193.234 260.516 193.234 267.727C186.335 267.727 179.176 267.727 171.81 267.727ZM160.19 267.675C152.824 267.675 145.665 267.675 138.766 267.675L138.766 260.309 160.19 260.309ZM193.234 332 138.766 332 138.766 279.139C145.769 279.139 152.928 279.139 160.19 279.139L160.19 320.069C160.19 323.278 162.791 325.879 166 325.879 169.209 325.879 171.81 323.278 171.81 320.069L171.81 279.295C179.073 279.295 186.231 279.295 193.234 279.295ZM322.922 258.026C313.533 261.658 271.047 266.171 204.958 267.468L204.958 260.101C233.697 259.531 260.101 258.389 281.578 256.626 295.541 255.894 309.42 254.02 323.078 251.023ZM311.821 241.686C276.376 246.199 240.689 248.538 204.958 248.689L204.958 234.838C260.62 235.876 294.858 238.625 311.717 241.53ZM209.264 191.938 198.889 191.938C195.68 191.938 193.079 194.539 193.079 197.748L193.079 248.637 171.654 248.637 171.654 193.39C171.654 190.181 169.053 187.58 165.844 187.58 162.635 187.58 160.034 190.181 160.034 193.39L160.034 249 138.61 249 138.61 197.799C138.64 194.63 136.124 192.022 132.956 191.938L122.581 191.938 122.581 140.426C136.535 140.737 151.008 140.893 165.844 140.893 180.681 140.893 195.154 140.893 209.108 140.426ZM220.832 121.232C243.346 120.609 264.044 119.572 281.474 118.119 295.437 117.387 309.317 115.514 322.974 112.517L322.974 119.313C314.363 122.684 277.998 126.731 221.039 128.391L221.039 122.477C220.884 122.114 220.832 121.699 220.832 121.284ZM36.3125 58.6188C36.3125 55.4098 38.9137 52.8088 42.1225 52.8088L44.3013 52.8088 44.3013 50.63C44.3013 47.4212 46.9025 44.82 50.1113 44.82 53.3202 44.82 55.9213 47.4212 55.9213 50.63L55.9213 52.8088 58.1 52.8088C61.309 52.8088 63.91 55.4098 63.91 58.6188 63.91 61.8278 61.309 64.4288 58.1 64.4288L55.9213 64.4288 55.9213 66.6075C55.9213 69.8165 53.3202 72.4175 50.1113 72.4175 46.9025 72.4175 44.3013 69.8165 44.3013 66.6075L44.3013 64.4288 42.33 64.4288C39.1233 64.5434 36.4308 62.0368 36.3162 58.8299 36.3137 58.7593 36.3125 58.6893 36.3125 58.6188ZM288.218 295.688C288.218 298.897 285.617 301.498 282.408 301.498L280.125 301.498 280.125 303.676C280.125 306.885 277.524 309.486 274.315 309.486 271.106 309.486 268.505 306.885 268.505 303.676L268.505 301.498 266.326 301.498C263.117 301.498 260.516 298.897 260.516 295.688 260.516 292.479 263.117 289.878 266.326 289.878L268.505 289.878 268.505 287.699C268.505 284.49 271.106 281.889 274.315 281.889 277.524 281.889 280.125 284.49 280.125 287.699L280.125 289.878 282.304 289.878C285.512 289.82 288.159 292.375 288.217 295.583 288.217 295.618 288.218 295.653 288.218 295.688ZM234.734 183.949 234.734 181.563 232.556 181.563C229.361 181.865 226.526 179.521 226.223 176.327 225.92 173.132 228.265 170.297 231.459 169.994 231.824 169.96 232.191 169.96 232.556 169.994L234.734 169.994 234.734 167.816C234.734 164.607 237.335 162.006 240.544 162.006 243.753 162.006 246.354 164.607 246.354 167.816L246.354 169.994 248.533 169.994C251.728 169.691 254.563 172.036 254.866 175.23 255.168 178.425 252.824 181.26 249.63 181.563 249.265 181.597 248.898 181.597 248.533 181.563L246.354 181.563 246.354 183.741C246.354 186.95 243.753 189.551 240.544 189.551 237.335 189.551 234.734 186.95 234.734 183.741ZM285.779 46.6875C285.807 43.4905 288.392 40.9057 291.589 40.8775L293.768 40.8775 293.768 38.4913C293.768 35.2825 296.369 32.6813 299.578 32.6813 302.787 32.6813 305.388 35.2825 305.388 38.4913L305.388 40.67 307.567 40.67C310.776 40.67 313.377 43.2712 313.377 46.48 313.377 49.6888 310.776 52.29 307.567 52.29L305.388 52.29 305.388 54.4688C305.388 57.6777 302.787 60.2788 299.578 60.2788 296.369 60.2788 293.768 57.6777 293.768 54.4688L293.768 52.29 291.589 52.29C288.46 52.2921 285.891 49.8149 285.779 46.6875Z" fill="#132F1E" transform="matrix(1 0 0 1.00301 726 720)"/></g></g></g></g></svg>