<svg width="551" height="552" xmlns="http://www.w3.org/2000/svg" xmlns:xlink="http://www.w3.org/1999/xlink" overflow="hidden"><defs><clipPath id="clip0"><rect x="2395" y="602" width="551" height="552"/></clipPath><radialGradient cx="762000" cy="762000" r="1.07763e+06" gradientUnits="userSpaceOnUse" spreadMethod="pad" id="fill1" gradientTransform="matrix(0.000360892 0 0 0.000360892 2396 602)"><stop offset="0" stop-color="#FFFFCC"/><stop offset="0.17" stop-color="#FFFFCC"/><stop offset="0.33" stop-color="#00B050"/><stop offset="1" stop-color="#0F1113"/></radialGradient><linearGradient x1="2669" y1="608" x2="2669" y2="762" gradientUnits="userSpaceOnUse" spreadMethod="reflect" id="fill2"><stop offset="0" stop-color="#F5FAFF" stop-opacity="0.231373"/><stop offset="0.32" stop-color="#FFFFFF" stop-opacity="0"/><stop offset="1" stop-color="#FFFFFF" stop-opacity="0"/></linearGradient><radialGradient cx="94211" cy="102524" r="139236" gradientUnits="userSpaceOnUse" spreadMethod="pad" id="fill3" gradientTransform="matrix(0.000360892 0 0 0.000360892 2400 649)"><stop offset="0" stop-color="#FFFFCC"/><stop offset="0.54" stop-color="#92D050" stop-opacity="0"/><stop offset="1" stop-color="#92D050" stop-opacity="0"/></radialGradient><radialGradient cx="110836" cy="120534" r="163748" gradientUnits="userSpaceOnUse" spreadMethod="pad" id="fill4" gradientTransform="matrix(0.000360892 0 0 0.000360892 2429 694)"><stop offset="0" stop-color="#FFFFCC"/><stop offset="0.54" stop-color="#92D050" stop-opacity="0"/><stop offset="1" stop-color="#92D050" stop-opacity="0"/></radialGradient><radialGradient cx="292330" cy="278476" r="403740" gradientUnits="userSpaceOnUse" spreadMethod="pad" id="fill5" gradientTransform="matrix(0.000360892 0 0 0.000360892 2733 934)"><stop offset="0" stop-color="#FFFFCC"/><stop offset="0.54" stop-color="#92D050" stop-opacity="0"/><stop offset="1" stop-color="#92D050" stop-opacity="0"/></radialGradient><radialGradient cx="243840" cy="281247" r="372234" gradientUnits="userSpaceOnUse" spreadMethod="pad" id="fill6" gradientTransform="matrix(0.000360892 0 0 0.000360892 2429 610)"><stop offset="0" stop-color="#FFFFCC"/><stop offset="0.54" stop-color="#92D050" stop-opacity="0"/><stop offset="1" stop-color="#92D050" stop-opacity="0"/></radialGradient><radialGradient cx="72044" cy="77585.5" r="105877" fx="72044" fy="77585.5" gradientUnits="userSpaceOnUse" spreadMethod="pad" id="fill7" gradientTransform="matrix(0.000360892 0 0 0.000360892 2878 1062)"><stop offset="0" stop-color="#FFFFCC"/><stop offset="0.54" stop-color="#92D050" stop-opacity="0"/><stop offset="1" stop-color="#92D050" stop-opacity="0"/></radialGradient><radialGradient cx="77585.5" cy="84512.5" r="114725" gradientUnits="userSpaceOnUse" spreadMethod="pad" id="fill8" gradientTransform="matrix(0.000360892 0 0 0.000360892 2862 979)"><stop offset="0" stop-color="#FFFFCC"/><stop offset="0.54" stop-color="#92D050" stop-opacity="0"/><stop offset="1" stop-color="#92D050" stop-opacity="0"/></radialGradient><clipPath id="clip9"><rect x="2411" y="616" width="526" height="525"/></clipPath><clipPath id="clip10"><rect x="2411" y="616" width="526" height="525"/></clipPath><clipPath id="clip11"><rect x="2411" y="616" width="526" height="525"/></clipPath><clipPath id="clip12"><rect x="2451" y="667" width="418" height="418"/></clipPath><clipPath id="clip13"><rect x="2451" y="667" width="418" height="418"/></clipPath><clipPath id="clip14"><rect x="2451" y="667" width="418" height="418"/></clipPath><clipPath id="clip15"><rect x="2405" y="1004" width="141" height="139"/></clipPath><clipPath id="clip16"><rect x="2405" y="1004" width="141" height="139"/></clipPath><clipPath id="clip17"><rect x="2405" y="1004" width="141" height="139"/></clipPath></defs><g clip-path="url(#clip0)" transform="translate(-2395 -602)"><rect x="2396" y="602" width="550" height="550" fill="url(#fill1)"/><path d="M2429.79 608 2908.21 608C2924.11 608 2937 627.864 2937 652.368L2937 762C2937 723.824 2916.92 692.876 2892.15 692.876L2445.85 692.876C2421.08 692.876 2401 723.824 2401 762L2401 652.368C2401 627.864 2413.89 608 2429.79 608Z" fill="url(#fill2)" fill-rule="evenodd"/><path d="M2400 686C2400 665.565 2415.22 649 2434 649 2452.78 649 2468 665.565 2468 686 2468 706.434 2452.78 723 2434 723 2415.22 723 2400 706.434 2400 686Z" fill="url(#fill3)" fill-rule="evenodd"/><path d="M2429 737.5C2429 713.476 2446.91 694 2469 694 2491.09 694 2509 713.476 2509 737.5 2509 761.524 2491.09 781 2469 781 2446.91 781 2429 761.524 2429 737.5Z" fill="url(#fill4)" fill-rule="evenodd"/><path d="M2733 1034.5C2733 978.995 2780.23 934 2838.5 934 2896.77 934 2944 978.995 2944 1034.5 2944 1090 2896.77 1135 2838.5 1135 2780.23 1135 2733 1090 2733 1034.5Z" fill="url(#fill5)" fill-rule="evenodd"/><path d="M2429 711.5C2429 655.443 2468.4 610 2517 610 2565.6 610 2605 655.443 2605 711.5 2605 767.557 2565.6 813 2517 813 2468.4 813 2429 767.557 2429 711.5Z" fill="url(#fill6)" fill-rule="evenodd"/><path d="M2878 1090C2878 1074.54 2889.64 1062 2904 1062 2918.36 1062 2930 1074.54 2930 1090 2930 1105.46 2918.36 1118 2904 1118 2889.64 1118 2878 1105.46 2878 1090Z" fill="url(#fill7)" fill-rule="evenodd"/><path d="M2862 1009.5C2862 992.655 2874.54 979 2890 979 2905.46 979 2918 992.655 2918 1009.5 2918 1026.34 2905.46 1040 2890 1040 2874.54 1040 2862 1026.34 2862 1009.5Z" fill="url(#fill8)" fill-rule="evenodd"/><g clip-path="url(#clip9)"><g clip-path="url(#clip10)"><g clip-path="url(#clip11)"><path d="M198.157 246.339 168.967 453.075C168.296 457.874 164.589 461.676 159.81 462.472 155.032 463.269 150.286 460.884 148.092 456.571L73.9401 311.146C71.9031 307.146 70.8741 302.704 70.9376 298.221L73.9195 99.8852C73.9725 96.1476 76.3547 92.851 79.884 91.612 83.4115 90.373 87.3285 91.4856 89.7019 94.384L189.955 216.993C196.663 225.205 199.645 235.84 198.155 246.34ZM195.006 209.842C202.125 218.546 213.37 222.767 224.448 220.899L473.642 178.993C476.971 178.436 479.618 175.906 480.344 172.62 481.057 169.323 479.692 165.931 476.91 164.041L327.988 63.2192C324.335 60.7412 319.977 59.5022 315.557 59.692L100.18 68.8266C96.4206 68.9837 93.0711 71.2617 91.528 74.6847 89.995 78.1182 90.5319 82.1297 92.914 85.0482ZM488.692 190.689C486.391 187.834 482.737 186.437 479.115 187.046L236.145 227.911C220.301 230.579 208.015 243.199 205.758 259.096L176.819 463.741C176.021 469.381 178.236 475.029 182.657 478.629 187.078 482.221 193.074 483.227 198.428 481.298L400.386 408.344C404.722 406.78 408.188 403.441 409.921 399.157L490.184 200.834C491.549 197.421 490.98 193.547 488.692 190.691Z" fill="#FFFFFF" transform="matrix(1.0019 0 0 1 2411 616)"/></g></g></g><g clip-path="url(#clip12)"><g clip-path="url(#clip13)"><g clip-path="url(#clip14)"><path d="M2782.23 1000.19C2774.2 992.155 2747.64 975.152 2718.53 962.662 2722.01 961.286 2725.45 959.806 2728.73 958.159 2755.24 944.825 2751.46 864.98 2751.4 864.167 2749.95 840.857 2720.79 830.484 2705.12 824.896 2702.53 823.979 2700.33 823.197 2698.77 822.519 2692.44 819.798 2687.51 810.51 2685.25 805.036 2694.86 796.071 2701.11 782.049 2701.11 766.266 2701.11 739.244 2682.9 717.268 2660.52 717.268 2638.13 717.268 2619.92 739.244 2619.92 766.266 2619.92 782.049 2626.15 796.061 2635.77 805.036 2633.53 810.489 2628.6 819.788 2622.25 822.519 2620.67 823.186 2618.47 823.979 2615.88 824.896 2600.22 830.474 2571.06 840.846 2569.61 864.167 2569.55 864.97 2565.75 944.815 2592.28 958.159 2595.55 959.796 2598.98 961.286 2602.46 962.673 2573.37 975.141 2546.82 992.155 2538.78 1000.19 2525.26 1013.72 2533.71 1035.7 2557.37 1035.7 2581.04 1035.7 2643.59 1016.47 2660.5 1016.47 2677.42 1016.47 2739.97 1035.7 2763.63 1035.7 2787.3 1035.7 2795.75 1013.72 2782.23 1000.19ZM2627.72 766.297C2627.72 743.592 2642.42 725.118 2660.51 725.118 2678.57 725.118 2693.28 743.592 2693.28 766.297 2693.28 789.003 2678.58 807.466 2660.51 807.466 2642.43 807.466 2627.72 788.992 2627.72 766.297ZM2577.41 864.667C2578.53 846.507 2604.54 837.25 2618.5 832.287 2621.27 831.297 2623.63 830.453 2625.32 829.733 2633.8 826.085 2639.41 816.035 2642.15 809.947 2647.67 813.335 2653.88 815.295 2660.5 815.295 2667.1 815.295 2673.31 813.345 2678.83 809.957 2681.58 816.035 2687.18 826.095 2695.66 829.733 2697.35 830.453 2699.7 831.297 2702.48 832.287 2716.43 837.26 2742.43 846.507 2743.57 864.667 2744.77 883.87 2742.59 942.417 2725.18 951.174 2703.23 962.214 2678.14 966.186 2668.53 962.996 2666.98 962.475 2665.92 961.808 2665.58 961.088 2664.38 958.691 2664.72 957.711 2664.83 957.387 2665.81 954.656 2672.32 951.727 2679.83 948.339 2683.88 946.504 2688.5 944.429 2693.53 941.865L2696.01 940.614C2709.67 933.702 2717.92 929.532 2717.92 905.679L2717.92 885.914 2710.1 885.914 2710.1 905.679C2710.1 924.726 2705.3 927.155 2692.49 933.629L2689.97 934.901C2685.08 937.403 2680.59 939.436 2676.62 941.208 2671.14 943.668 2666.74 945.722 2663.42 947.953 2662.46 947.911 2661.43 947.744 2660.47 947.744 2659.53 947.744 2658.5 947.911 2657.52 947.953 2654.2 945.711 2649.8 943.668 2644.34 941.208 2640.37 939.425 2635.87 937.403 2630.99 934.901L2628.46 933.629C2615.64 927.155 2610.86 924.726 2610.86 905.679L2610.86 885.914 2603.04 885.914 2603.04 905.679C2603.04 929.532 2611.28 933.702 2624.95 940.614L2627.43 941.865C2632.44 944.429 2637.06 946.504 2641.13 948.339 2648.65 951.727 2655.14 954.656 2656.12 957.387 2656.25 957.711 2656.59 958.691 2655.39 961.088 2655.03 961.797 2653.98 962.475 2652.44 962.996 2642.79 966.186 2617.73 962.214 2595.79 951.174 2578.37 942.417 2576.19 883.87 2577.41 864.667Z" fill="#132F1E"/></g></g></g><path d="M2397.5 1151.5 2397.5 891.5 2644.5 1151.5Z" stroke="#0F1113" stroke-width="4.58333" stroke-miterlimit="8" fill="#20A0FB" fill-rule="evenodd"/><g clip-path="url(#clip15)"><g clip-path="url(#clip16)"><g clip-path="url(#clip17)"><path d="M99.4016 75.9467C113.025 65.7289 115.505 51.7761 111.411 36.6876 109.799 31.8477 100.655 34.1787 104.957 43.6793 108.77 54.228 104.957 64.4668 96.3533 74.5123 89.5409 74.6916 88.8237 81.6833 93.843 85.2681 91.391 91.1895 86.7512 95.9447 72.3327 95.486 70.1755 95.5652 71.2472 97.7086 74.3038 97.9963 80.7853 98.8525 86.6567 98.4091 91.8706 96.5618 101.552 93.1563 105.675 80.6074 99.4016 75.9467Z" fill="#FFFFFF" transform="matrix(1 0 0 1 2406 1004)"/><path d="M102.448 75.2295C101.284 76.1261 102.36 78.0081 104.24 76.8433 116.529 70.5827 124.049 56.0489 124.317 47.8034 124.586 41.2607 116.878 41.2607 116.789 47.8034 117.002 58.3146 111.792 67.3399 102.448 75.2295Z" fill="#FFFFFF" transform="matrix(1 0 0 1 2406 1004)"/><path d="M104.061 78.4557C102.626 78.9047 102.447 80.5171 104.061 80.0695 117.121 76.411 126.059 70.5105 128.799 61.2461 130.681 56.2268 126.11 54.8827 124.317 59.0958 119.737 68.709 111.995 73.7214 104.061 78.4557Z" fill="#FFFFFF" transform="matrix(1 0 0 1 2406 1004)"/><path d="M125.572 70.5688C120.277 76.4833 113.268 79.4662 105.495 81.1453 103.972 81.5943 104.331 83.0274 105.495 82.7591 121.799 82.7355 126.095 76.3749 128.799 73.2585 130.592 70.4785 127.724 67.9682 125.572 70.5688Z" fill="#FFFFFF" transform="matrix(1 0 0 1 2406 1004)"/><path d="M119.03 81.8626C115.077 83.2637 111.365 84.8872 105.048 84.1033 103.256 84.1936 102.986 86.0757 104.062 86.3439 110.156 87.5755 115.541 87.1668 119.479 86.3439 124.855 85.357 124.228 79.9805 119.03 81.8626Z" fill="#FFFFFF" transform="matrix(1 0 0 1 2406 1004)"/><path d="M116.43 87.9563C112.433 88.2343 108.416 88.4484 104.062 87.5088 102.539 87.2405 102.001 88.9432 102.986 89.3908 106.491 90.6543 110.216 90.4945 113.922 90.4667 118.133 90.8239 118.133 87.8674 116.43 87.9563Z" fill="#FFFFFF" transform="matrix(1 0 0 1 2406 1004)"/><path d="M111.77 91.9011C108.809 91.9567 105.773 91.8608 102.448 91.1839 101.104 90.7349 100.297 92.1694 101.463 92.6184 104.666 94.0237 107.863 94.6575 111.054 94.5005 113.922 94.7687 113.922 91.6315 111.77 91.9011Z" fill="#FFFFFF" transform="matrix(1 0 0 1 2406 1004)"/><path d="M108.184 96.1879C105.335 95.8043 102.511 95.1941 99.7588 93.9611 98.594 93.7818 97.9671 95.3956 99.2209 95.9335 101.229 97.1414 103.334 97.9101 105.494 98.4147 108.812 99.5197 109.799 96.6508 108.184 96.1879Z" fill="#FFFFFF" transform="matrix(1 0 0 1 2406 1004)"/><path d="M103.704 99.2501C101.288 98.4633 99.004 97.5001 96.9816 96.1879 96.085 95.7542 95.0092 97.368 95.7264 97.9949 97.4709 99.5211 99.4183 100.465 101.463 101.132 104.061 102.297 105.495 100.056 103.704 99.2501Z" fill="#FFFFFF" transform="matrix(1 0 0 1 2406 1004)"/><path d="M92.7671 98.4147C91.7816 98.1742 90.5667 99.3237 91.6927 99.9673L96.8913 103.014C98.9526 104.179 100.297 102.297 98.7733 101.132L92.7671 98.4147Z" fill="#FFFFFF" transform="matrix(1 0 0 1 2406 1004)"/><path d="M93.9333 103.014C92.193 102.234 90.6599 101.184 89.1823 100.056 88.0175 99.2501 86.8527 99.6977 87.2113 100.715 88.3845 101.983 89.7008 103.107 91.2451 104.001 93.843 105.704 95.5471 104.179 93.9333 103.014Z" fill="#FFFFFF" transform="matrix(1 0 0 1 2406 1004)"/><path d="M66.6671 95.486C52.2473 95.9447 47.6088 91.1895 45.1569 85.2681 50.1762 81.6833 49.4589 74.6916 42.6465 74.5123 34.0425 64.4668 30.2297 54.228 34.0425 43.6793 38.3445 34.1787 29.2025 31.849 27.5887 36.6876 23.4965 51.7761 25.9749 65.7275 39.5983 75.9467 33.3252 80.6074 37.448 93.1563 47.1279 96.5618 52.3418 98.4077 58.2145 98.8511 64.6947 97.9963 67.7527 97.7086 68.8244 95.5652 66.6671 95.486Z" fill="#FFFFFF" transform="matrix(1 0 0 1 2406 1004)"/><path d="M34.7597 76.8419C36.6418 78.0067 37.7176 76.1247 36.5514 75.2281 27.2064 67.3385 21.9981 58.3146 22.2108 47.8021 22.1218 41.2593 14.4143 41.2593 14.6826 47.8021 14.9508 56.0489 22.4693 70.5814 34.7597 76.8419Z" fill="#FFFFFF" transform="matrix(1 0 0 1 2406 1004)"/><path d="M34.939 80.0695C36.5528 80.5171 36.3735 78.9047 34.939 78.4557 27.0049 73.7214 19.2626 68.709 14.6826 59.0958 12.8895 54.8827 8.31914 56.2282 10.2012 61.2461 12.9409 70.5119 21.8786 76.411 34.939 80.0695Z" fill="#FFFFFF" transform="matrix(1 0 0 1 2406 1004)"/><path d="M33.5045 81.1453C25.7317 79.4662 18.7233 76.4833 13.4274 70.5688 11.2757 67.9695 8.4081 70.4785 10.2012 73.2585 12.9047 76.3749 17.2012 82.7355 33.5045 82.7591 34.6693 83.0274 35.028 81.5929 33.5045 81.1453Z" fill="#FFFFFF" transform="matrix(1 0 0 1 2406 1004)"/><path d="M34.939 86.3426C36.0149 86.0743 35.7452 84.1922 33.9535 84.1019 27.636 84.8858 23.9233 83.2623 19.9715 81.8612 14.7729 79.9791 14.146 85.357 19.5239 86.3426 23.459 87.1654 28.8453 87.5755 34.939 86.3426Z" fill="#FFFFFF" transform="matrix(1 0 0 1 2406 1004)"/><path d="M36.0149 89.3908C37.0004 88.9418 36.4624 87.2391 34.939 87.5088 30.5855 88.4484 26.5684 88.2343 22.5708 87.9563 20.8667 87.866 20.8667 90.8239 25.0797 90.4667 28.7841 90.4945 32.5107 90.6543 36.0149 89.3908Z" fill="#FFFFFF" transform="matrix(1 0 0 1 2406 1004)"/><path d="M36.5514 91.1839C33.2251 91.8608 30.1908 91.9567 27.2301 91.9011 25.0784 91.6315 25.0784 94.7687 27.9473 94.5005 31.1388 94.6575 34.3357 94.0237 37.5383 92.6184 38.7031 92.1694 37.8955 90.7349 36.5514 91.1839Z" fill="#FFFFFF" transform="matrix(1 0 0 1 2406 1004)"/><path d="M39.2411 93.9625C36.4889 95.1954 33.6644 95.8057 30.8163 96.1893 29.2025 96.6522 30.188 99.5197 33.5045 98.4161 35.666 97.9115 37.7704 97.1428 39.7776 95.9349 41.0328 95.3956 40.4059 93.7832 39.2411 93.9625Z" fill="#FFFFFF" transform="matrix(1 0 0 1 2406 1004)"/><path d="M42.0197 96.1879C39.9972 97.5001 37.7134 98.4633 35.2976 99.2501 33.5059 100.056 34.939 102.297 37.5383 101.132 39.583 100.465 41.5304 99.5211 43.2748 97.9949 43.9907 97.368 42.9162 95.7542 42.0197 96.1879Z" fill="#FFFFFF" transform="matrix(1 0 0 1 2406 1004)"/><path d="M46.2327 98.4147 40.2266 101.132C38.7031 102.297 40.0473 104.179 42.1086 103.014L47.3072 99.9673C48.4331 99.3237 47.2183 98.1742 46.2327 98.4147Z" fill="#FFFFFF" transform="matrix(1 0 0 1 2406 1004)"/><path d="M49.8176 100.056C48.34 101.184 46.8068 102.234 45.0665 103.014 43.4527 104.179 45.1569 105.704 47.7562 104 49.3005 103.106 50.6154 101.981 51.79 100.714 52.1472 99.6977 50.9824 99.2501 49.8176 100.056Z" fill="#FFFFFF" transform="matrix(1 0 0 1 2406 1004)"/></g></g></g></g></svg>