<svg width="550" height="550" xmlns="http://www.w3.org/2000/svg" xmlns:xlink="http://www.w3.org/1999/xlink" overflow="hidden"><defs><clipPath id="clip0"><rect x="2490" y="33" width="550" height="550"/></clipPath><radialGradient cx="762000" cy="762000" r="1.07763e+06" gradientUnits="userSpaceOnUse" spreadMethod="pad" id="fill1" gradientTransform="matrix(0.000360892 0 0 0.000360892 2490 33)"><stop offset="0" stop-color="#FFFFCC"/><stop offset="0.17" stop-color="#FFFFCC"/><stop offset="0.33" stop-color="#00B050"/><stop offset="1" stop-color="#0F1113"/></radialGradient><linearGradient x1="2763.5" y1="38.0002" x2="2763.5" y2="193" gradientUnits="userSpaceOnUse" spreadMethod="reflect" id="fill2"><stop offset="0" stop-color="#F5FAFF" stop-opacity="0.231373"/><stop offset="0.32" stop-color="#FFFFFF" stop-opacity="0"/><stop offset="1" stop-color="#FFFFFF" stop-opacity="0"/></linearGradient><radialGradient cx="95596.5" cy="102524" r="140178" gradientUnits="userSpaceOnUse" spreadMethod="pad" id="fill3" gradientTransform="matrix(0.000360892 0 0 0.000360892 2494 79.0001)"><stop offset="0" stop-color="#FFFFCC"/><stop offset="0.54" stop-color="#92D050" stop-opacity="0"/><stop offset="1" stop-color="#92D050" stop-opacity="0"/></radialGradient><radialGradient cx="112221" cy="121920" r="165705" fx="112222" fy="121920" gradientUnits="userSpaceOnUse" spreadMethod="pad" id="fill4" gradientTransform="matrix(0.000360892 0 0 0.000360892 2523 124)"><stop offset="0" stop-color="#FFFFCC"/><stop offset="0.54" stop-color="#92D050" stop-opacity="0"/><stop offset="1" stop-color="#92D050" stop-opacity="0"/></radialGradient><radialGradient cx="293717" cy="278477" r="404745" fx="293716" fy="278476" gradientUnits="userSpaceOnUse" spreadMethod="pad" id="fill5" gradientTransform="matrix(0.000360892 0 0 0.000360892 2827 364)"><stop offset="0" stop-color="#FFFFCC"/><stop offset="0.54" stop-color="#92D050" stop-opacity="0"/><stop offset="1" stop-color="#92D050" stop-opacity="0"/></radialGradient><radialGradient cx="243840" cy="281248" r="372234" gradientUnits="userSpaceOnUse" spreadMethod="pad" id="fill6" gradientTransform="matrix(0.000360892 0 0 0.000360892 2523 39.9999)"><stop offset="0" stop-color="#FFFFCC"/><stop offset="0.54" stop-color="#92D050" stop-opacity="0"/><stop offset="1" stop-color="#92D050" stop-opacity="0"/></radialGradient><radialGradient cx="72043.5" cy="77585.5" r="105876" fx="72043.5" fy="77585.5" gradientUnits="userSpaceOnUse" spreadMethod="pad" id="fill7" gradientTransform="matrix(0.000360892 0 0 0.000360892 2973 492)"><stop offset="0" stop-color="#FFFFCC"/><stop offset="0.54" stop-color="#92D050" stop-opacity="0"/><stop offset="1" stop-color="#92D050" stop-opacity="0"/></radialGradient><radialGradient cx="77585.5" cy="84512.5" r="114725" gradientUnits="userSpaceOnUse" spreadMethod="pad" id="fill8" gradientTransform="matrix(0.000360892 0 0 0.000360892 2957 409)"><stop offset="0" stop-color="#FFFFCC"/><stop offset="0.54" stop-color="#92D050" stop-opacity="0"/><stop offset="1" stop-color="#92D050" stop-opacity="0"/></radialGradient><clipPath id="clip9"><rect x="2505" y="46" width="526" height="525"/></clipPath><clipPath id="clip10"><rect x="2505" y="46" width="526" height="525"/></clipPath><clipPath id="clip11"><rect x="2505" y="46" width="526" height="525"/></clipPath><clipPath id="clip12"><rect x="2571" y="100" width="376" height="376"/></clipPath><clipPath id="clip13"><rect x="2571" y="100" width="376" height="376"/></clipPath><clipPath id="clip14"><rect x="2571" y="100" width="376" height="376"/></clipPath></defs><g clip-path="url(#clip0)" transform="translate(-2490 -33)"><rect x="2490" y="33" width="550" height="550" fill="url(#fill1)"/><path d="M2524.73 38.0002 3002.27 38.0002C3018.14 38.0002 3031 57.993 3031 82.6558L3031 193C3031 154.576 3010.96 123.427 2986.23 123.427L2540.77 123.427C2516.04 123.427 2496 154.576 2496 193L2496 82.6558C2496 57.993 2508.86 38.0002 2524.73 38.0002Z" fill="url(#fill2)" fill-rule="evenodd"/><path d="M2494 116C2494 95.5655 2509.45 79.0001 2528.5 79.0001 2547.55 79.0001 2563 95.5655 2563 116 2563 136.435 2547.55 153 2528.5 153 2509.45 153 2494 136.435 2494 116Z" fill="url(#fill3)" fill-rule="evenodd"/><path d="M2523 168C2523 143.7 2541.13 124 2563.5 124 2585.87 124 2604 143.7 2604 168 2604 192.301 2585.87 212 2563.5 212 2541.13 212 2523 192.301 2523 168Z" fill="url(#fill4)" fill-rule="evenodd"/><path d="M2827 464.5C2827 408.995 2874.46 364 2933 364 2991.54 364 3039 408.995 3039 464.5 3039 520.005 2991.54 565 2933 565 2874.46 565 2827 520.005 2827 464.5Z" fill="url(#fill5)" fill-rule="evenodd"/><path d="M2523 141.5C2523 85.443 2562.4 39.9999 2611 39.9999 2659.6 39.9999 2699 85.443 2699 141.5 2699 197.557 2659.6 243 2611 243 2562.4 243 2523 197.557 2523 141.5Z" fill="url(#fill6)" fill-rule="evenodd"/><path d="M2973 520C2973 504.536 2984.64 492 2999 492 3013.36 492 3025 504.536 3025 520 3025 535.464 3013.36 548 2999 548 2984.64 548 2973 535.464 2973 520Z" fill="url(#fill7)" fill-rule="evenodd"/><path d="M2957 439.5C2957 422.655 2969.54 409 2985 409 3000.46 409 3013 422.655 3013 439.5 3013 456.345 3000.46 470 2985 470 2969.54 470 2957 456.345 2957 439.5Z" fill="url(#fill8)" fill-rule="evenodd"/><g clip-path="url(#clip9)"><g clip-path="url(#clip10)"><g clip-path="url(#clip11)"><path d="M2704.16 292.339 2674.97 499.075C2674.3 503.874 2670.59 507.676 2665.81 508.472 2661.03 509.269 2656.29 506.884 2654.09 502.571L2579.94 357.147C2577.9 353.146 2576.87 348.704 2576.94 344.221L2579.92 145.885C2579.97 142.148 2582.35 138.851 2585.88 137.612 2589.41 136.373 2593.33 137.486 2595.7 140.384L2695.96 262.993C2702.66 271.205 2705.64 281.84 2704.15 292.34ZM2701.01 255.842C2708.12 264.546 2719.37 268.767 2730.45 266.899L2979.64 224.993C2982.97 224.436 2985.62 221.906 2986.34 218.62 2987.06 215.323 2985.69 211.931 2982.91 210.041L2833.99 109.219C2830.33 106.741 2825.98 105.502 2821.56 105.692L2606.18 114.827C2602.42 114.984 2599.07 117.262 2597.53 120.685 2596 124.118 2596.53 128.13 2598.91 131.048ZM2994.69 236.689C2992.39 233.834 2988.74 232.437 2985.11 233.046L2742.15 273.911C2726.3 276.579 2714.02 289.199 2711.76 305.096L2682.82 509.741C2682.02 515.381 2684.24 521.029 2688.66 524.629 2693.08 528.221 2699.07 529.227 2704.43 527.298L2906.39 454.345C2910.72 452.78 2914.19 449.441 2915.92 445.157L2996.18 246.834C2997.55 243.421 2996.98 239.547 2994.69 236.691Z" fill="#FFFFFF"/></g></g></g><g clip-path="url(#clip12)"><g clip-path="url(#clip13)"><g clip-path="url(#clip14)"><path d="M2597.52 396.213C2614.85 394.686 2632.08 392.083 2649.09 388.42 2654.4 387.279 2659.86 386.918 2665.28 387.351 2749.12 394.045 2807.45 350.606 2807.45 350.606L2821.73 345.479C2830.53 342.397 2835.45 333.022 2832.98 324.026L2790.21 170.855C2787.87 162.518 2782.66 155.272 2775.51 150.391L2742.78 127.986C2737.8 124.592 2731.09 125.352 2727 129.773L2701.64 157.407C2696.48 163.062 2696.45 171.71 2701.57 177.402L2724.27 202.766C2725.94 204.635 2728.05 206.06 2730.41 206.912 2733.95 208.152 2737.88 206.979 2740.16 204.004L2747.05 195.215C2749.74 191.829 2754.66 191.263 2758.05 193.953 2758.3 194.154 2758.54 194.37 2758.77 194.6 2761.5 197.516 2761.66 201.999 2759.14 205.103L2748.55 218.543C2747.51 219.866 2746.87 221.46 2746.71 223.135L2742.47 267.146C2742.4 267.952 2742.33 268.757 2742.28 269.563 2743.16 279.414 2746.16 294.26 2755.81 305.54 2758.59 308.756 2758.36 313.59 2755.28 316.526 2752.1 319.444 2747.16 319.232 2744.24 316.052 2744.2 316.008 2744.16 315.963 2744.12 315.918 2735.9 306.397 2731.44 295.154 2729.04 285.12 2727.74 279.61 2723.08 275.536 2717.44 274.983 2712.43 274.5 2706.58 274.133 2702.44 274.434 2694.94 275.01 2687.7 277.472 2681.39 281.589 2669.82 289.137 2659.75 298.777 2651.71 310.015 2649.18 313.516 2644.29 314.302 2640.79 311.772 2640.66 311.678 2640.53 311.581 2640.41 311.48 2637.22 308.728 2636.7 303.99 2639.19 300.603 2645.27 292.171 2652.35 284.515 2660.29 277.803 2661.86 276.484 2662.07 274.138 2660.75 272.562 2660.6 272.376 2660.42 272.206 2660.23 272.053L2660.19 272.053C2649.84 263.784 2633.58 253.992 2613.84 253.01L2613.51 253.01C2599.69 252.468 2588.05 263.228 2587.51 277.044 2587.5 277.396 2587.49 277.75 2587.49 278.103L2587.49 341.165C2587.49 343.899 2589.7 346.117 2592.44 346.119 2593.11 346.119 2593.78 345.981 2594.4 345.713 2600.86 342.967 2606.57 338.727 2611.06 333.342 2613.64 329.874 2618.54 329.151 2622.01 331.727 2625.47 334.304 2626.2 339.205 2623.62 342.673 2623.07 343.406 2612.09 357.937 2591.27 363.276 2589.07 363.828 2587.52 365.8 2587.51 368.066L2587.51 386.963C2587.51 392.084 2591.66 396.238 2596.78 396.243 2597.02 396.243 2597.27 396.233 2597.52 396.213Z" fill="#132F1E"/><path d="M2899.81 401.091C2897.47 398.709 2893.64 398.677 2891.25 401.019 2891.23 401.043 2891.21 401.067 2891.18 401.091L2860.52 432.153C2859.16 433.534 2859.18 435.755 2860.56 437.115 2861.22 437.76 2862.1 438.122 2863.02 438.123L2879.21 438.123 2879.21 446.238C2879.23 447.827 2880.51 449.111 2882.1 449.131L2908.91 449.131C2910.51 449.131 2911.8 447.839 2911.8 446.245 2911.8 446.243 2911.8 446.24 2911.8 446.238L2911.8 438.123 2927.96 438.123C2929.89 438.121 2931.46 436.549 2931.46 434.611 2931.46 433.691 2931.1 432.809 2930.45 432.153Z" fill="#132F1E"/><path d="M2899.81 320.906C2897.47 318.523 2893.64 318.491 2891.25 320.833 2891.23 320.857 2891.21 320.882 2891.18 320.906L2860.52 351.953C2859.16 353.334 2859.18 355.555 2860.56 356.915 2861.22 357.56 2862.1 357.922 2863.02 357.922L2879.21 357.922 2879.21 366.038C2879.23 367.627 2880.51 368.911 2882.1 368.931L2908.91 368.931C2910.51 368.931 2911.8 367.639 2911.8 366.045 2911.8 366.043 2911.8 366.04 2911.8 366.038L2911.8 357.937 2927.96 357.937C2929.89 357.936 2931.46 356.364 2931.46 354.426 2931.46 353.506 2931.1 352.623 2930.45 351.968Z" fill="#132F1E"/></g></g></g></g></svg>