<svg width="553" height="552" xmlns="http://www.w3.org/2000/svg" xmlns:xlink="http://www.w3.org/1999/xlink" overflow="hidden"><defs><clipPath id="clip0"><rect x="26" y="33" width="553" height="552"/></clipPath><radialGradient cx="762000" cy="762000" r="1.07763e+06" gradientUnits="userSpaceOnUse" spreadMethod="pad" id="fill1" gradientTransform="matrix(0.000360892 0 0 0.000360892 28.9999 33)"><stop offset="0" stop-color="#FFFFCC"/><stop offset="0.17" stop-color="#FFFFCC"/><stop offset="0.33" stop-color="#00B050"/><stop offset="1" stop-color="#0F1113"/></radialGradient><linearGradient x1="302.5" y1="38.0002" x2="302.5" y2="193" gradientUnits="userSpaceOnUse" spreadMethod="reflect" id="fill2"><stop offset="0" stop-color="#F5FAFF" stop-opacity="0.231373"/><stop offset="0.32" stop-color="#FFFFFF" stop-opacity="0"/><stop offset="1" stop-color="#FFFFFF" stop-opacity="0"/></linearGradient><radialGradient cx="94211" cy="102524" r="139236" gradientUnits="userSpaceOnUse" spreadMethod="pad" id="fill3" gradientTransform="matrix(0.000360892 0 0 0.000360892 33 79.0001)"><stop offset="0" stop-color="#FFFFCC"/><stop offset="0.54" stop-color="#92D050" stop-opacity="0"/><stop offset="1" stop-color="#92D050" stop-opacity="0"/></radialGradient><radialGradient cx="112222" cy="121920" r="165705" fx="112222" fy="121920" gradientUnits="userSpaceOnUse" spreadMethod="pad" id="fill4" gradientTransform="matrix(0.000360892 0 0 0.000360892 61.9999 124)"><stop offset="0" stop-color="#FFFFCC"/><stop offset="0.54" stop-color="#92D050" stop-opacity="0"/><stop offset="1" stop-color="#92D050" stop-opacity="0"/></radialGradient><radialGradient cx="292331" cy="278477" r="403741" fx="292331" fy="278476" gradientUnits="userSpaceOnUse" spreadMethod="pad" id="fill5" gradientTransform="matrix(0.000360892 0 0 0.000360892 366 364)"><stop offset="0" stop-color="#FFFFCC"/><stop offset="0.54" stop-color="#92D050" stop-opacity="0"/><stop offset="1" stop-color="#92D050" stop-opacity="0"/></radialGradient><radialGradient cx="243840" cy="281248" r="372234" gradientUnits="userSpaceOnUse" spreadMethod="pad" id="fill6" gradientTransform="matrix(0.000360892 0 0 0.000360892 61.9999 39.9999)"><stop offset="0" stop-color="#FFFFCC"/><stop offset="0.54" stop-color="#92D050" stop-opacity="0"/><stop offset="1" stop-color="#92D050" stop-opacity="0"/></radialGradient><radialGradient cx="70658.5" cy="77585.5" r="104939" fx="70658.5" fy="77585.5" gradientUnits="userSpaceOnUse" spreadMethod="pad" id="fill7" gradientTransform="matrix(0.000360892 0 0 0.000360892 512 492)"><stop offset="0" stop-color="#FFFFCC"/><stop offset="0.54" stop-color="#92D050" stop-opacity="0"/><stop offset="1" stop-color="#92D050" stop-opacity="0"/></radialGradient><radialGradient cx="77585.5" cy="84512.5" r="114725" gradientUnits="userSpaceOnUse" spreadMethod="pad" id="fill8" gradientTransform="matrix(0.000360892 0 0 0.000360892 495 409)"><stop offset="0" stop-color="#FFFFCC"/><stop offset="0.54" stop-color="#92D050" stop-opacity="0"/><stop offset="1" stop-color="#92D050" stop-opacity="0"/></radialGradient><clipPath id="clip9"><rect x="45" y="46" width="525" height="525"/></clipPath><clipPath id="clip10"><rect x="45" y="46" width="525" height="525"/></clipPath><clipPath id="clip11"><rect x="45" y="46" width="525" height="525"/></clipPath><clipPath id="clip12"><rect x="50" y="80" width="497" height="497"/></clipPath><clipPath id="clip13"><rect x="50" y="80" width="497" height="497"/></clipPath><clipPath id="clip14"><rect x="50" y="80" width="497" height="497"/></clipPath><clipPath id="clip15"><rect x="38" y="448" width="123" height="123"/></clipPath><clipPath id="clip16"><rect x="38" y="448" width="123" height="123"/></clipPath><clipPath id="clip17"><rect x="38" y="448" width="123" height="123"/></clipPath></defs><g clip-path="url(#clip0)" transform="translate(-26 -33)"><rect x="28.9999" y="33" width="550" height="550" fill="url(#fill1)"/><path d="M63.7338 38.0002 541.266 38.0002C557.135 38.0002 570 57.993 570 82.6558L570 193C570 154.576 549.957 123.427 525.233 123.427L79.7668 123.427C55.0428 123.427 35.0001 154.576 35.0001 193L35.0001 82.6558C35.0001 57.993 47.8645 38.0002 63.7338 38.0002Z" fill="url(#fill2)" fill-rule="evenodd"/><path d="M33 116C33 95.5655 48.2223 79.0001 67 79.0001 85.7777 79.0001 101 95.5655 101 116 101 136.435 85.7777 153 67 153 48.2223 153 33 136.435 33 116Z" fill="url(#fill3)" fill-rule="evenodd"/><path d="M61.9999 168C61.9999 143.7 80.1324 124 102.5 124 124.868 124 143 143.7 143 168 143 192.301 124.868 212 102.5 212 80.1324 212 61.9999 192.301 61.9999 168Z" fill="url(#fill4)" fill-rule="evenodd"/><path d="M366 464.5C366 408.995 413.234 364 471.5 364 529.766 364 577 408.995 577 464.5 577 520.005 529.766 565 471.5 565 413.234 565 366 520.005 366 464.5Z" fill="url(#fill5)" fill-rule="evenodd"/><path d="M61.9999 141.5C61.9999 85.443 101.399 39.9999 150 39.9999 198.601 39.9999 238 85.443 238 141.5 238 197.557 198.601 243 150 243 101.399 243 61.9999 197.557 61.9999 141.5Z" fill="url(#fill6)" fill-rule="evenodd"/><path d="M512 520C512 504.536 523.417 492 537.5 492 551.583 492 563 504.536 563 520 563 535.464 551.583 548 537.5 548 523.417 548 512 535.464 512 520Z" fill="url(#fill7)" fill-rule="evenodd"/><path d="M495 439.5C495 422.655 507.536 409 523 409 538.464 409 551 422.655 551 439.5 551 456.345 538.464 470 523 470 507.536 470 495 456.345 495 439.5Z" fill="url(#fill8)" fill-rule="evenodd"/><g clip-path="url(#clip9)"><g clip-path="url(#clip10)"><g clip-path="url(#clip11)"><path d="M243.157 292.339 213.967 499.075C213.296 503.874 209.589 507.676 204.81 508.472 200.032 509.269 195.286 506.884 193.092 502.571L118.94 357.147C116.903 353.146 115.874 348.704 115.938 344.221L118.92 145.885C118.973 142.148 121.355 138.851 124.884 137.612 128.412 136.373 132.329 137.486 134.702 140.384L234.955 262.993C241.663 271.205 244.645 281.84 243.155 292.34ZM240.006 255.842C247.125 264.546 258.371 268.767 269.448 266.899L518.642 224.993C521.971 224.436 524.618 221.906 525.344 218.62 526.057 215.323 524.692 211.931 521.91 210.041L372.988 109.219C369.335 106.741 364.977 105.502 360.557 105.692L145.181 114.827C141.421 114.984 138.071 117.262 136.528 120.685 134.995 124.118 135.532 128.13 137.914 131.048ZM533.692 236.689C531.391 233.834 527.737 232.437 524.115 233.046L281.145 273.911C265.301 276.579 253.015 289.199 250.758 305.096L221.819 509.741C221.021 515.381 223.236 521.029 227.657 524.629 232.078 528.221 238.074 529.227 243.428 527.298L445.386 454.345C449.722 452.78 453.188 449.441 454.921 445.157L535.184 246.834C536.549 243.421 535.98 239.547 533.692 236.691Z" fill="#FFFFFF"/></g></g></g><g clip-path="url(#clip12)"><g clip-path="url(#clip13)"><g clip-path="url(#clip14)"><path d="M444.932 534.712C439.343 467.636 377.246 433.429 377.246 433.429 360.777 423.742 348.648 407.118 341.402 394.863 336.122 385.91 333.349 375.7 333.371 365.307L333.371 346.726C363.296 334.22 364.1 300.226 364.1 300.226 392.697 290.858 394.712 265.874 392.988 250.578 392.276 244.283 386.597 239.757 380.302 240.469 379.435 240.567 378.582 240.763 377.759 241.055 374.851 242.085 372.001 243.274 369.225 244.62 384.56 137.098 299 138.561 299 138.561 299 138.561 213.44 137.098 228.804 244.688 226.028 243.342 223.178 242.152 220.27 241.123 214.301 239 207.742 242.118 205.619 248.086 205.328 248.905 205.131 249.753 205.031 250.616 203.307 265.913 205.322 290.897 233.919 300.265 233.919 300.265 234.723 334.22 264.648 346.765L264.648 365.345C264.664 375.719 261.893 385.906 256.627 394.844 249.351 407.099 237.252 423.684 220.783 433.41 220.783 433.41 158.686 467.616 153.096 534.693 152.503 541.37 157.435 547.265 164.112 547.859 164.45 547.889 164.789 547.904 165.128 547.906L432.871 547.906C439.575 547.889 444.995 542.441 444.978 535.737 444.978 535.395 444.962 535.053 444.932 534.712ZM285.931 274.457C280.119 277.77 269.86 281.335 259.397 274.089 250.679 268.083 250.979 258.589 252.171 252.777 252.584 250.759 254.556 249.459 256.573 249.872 257.015 249.963 257.438 250.133 257.818 250.374L286.048 268.083C287.789 269.184 288.307 271.488 287.205 273.229 286.886 273.735 286.449 274.156 285.931 274.457ZM312.088 274.457C310.303 273.429 309.689 271.149 310.718 269.364 311.023 268.834 311.453 268.388 311.971 268.064L340.201 250.355C341.942 249.253 344.245 249.772 345.347 251.512 345.588 251.893 345.758 252.316 345.849 252.757 347.04 258.57 347.302 268.083 338.622 274.07 328.14 281.335 317.891 277.77 312.068 274.457Z" fill="#132F1E"/><path d="M237.397 110.768C216.976 117.549 202.009 138.639 191.643 156.667 168.467 197.026 163.041 245.182 176.656 289.686 180.149 301.017 184.787 311.962 190.5 322.352 197.068 334.365 202.125 345.128 201.65 359.165 201.272 370.16 218.274 370.15 218.642 359.165 219.02 347.289 216.455 335.505 211.173 324.861 206.174 314.525 200.081 304.963 196.061 294.142 188.157 272.921 184.955 250.237 186.673 227.657 188.388 206.393 194.666 185.748 205.08 167.129 210.045 158.206 215.804 149.747 222.285 141.855 229.066 133.562 236.583 126.355 242.221 117.132 244.149 114.003 240.972 109.576 237.397 110.768Z" fill="#132F1E"/><path d="M208.306 387.278C207.445 385.888 206.283 384.709 204.905 383.829 202.36 382.345 199.237 382.246 196.603 383.568 196.244 383.716 195.897 383.894 195.566 384.1 194.934 384.53 194.328 384.999 193.755 385.505 192.884 386.288 192.242 387.292 191.895 388.411 191.712 388.796 191.55 389.191 191.41 389.593 191.124 390.779 191.068 392.009 191.246 393.216 191.297 394.406 191.664 395.56 192.311 396.559L193.706 398.38C194.296 398.951 194.945 399.458 195.644 399.891 196.366 400.287 197.125 400.612 197.911 400.86 199.114 401.161 200.367 401.217 201.592 401.025 202.421 401.003 203.232 400.78 203.956 400.375 205.037 399.938 206.023 399.296 206.862 398.486 208.552 396.754 209.517 394.444 209.565 392.025 209.542 391.194 209.442 390.366 209.265 389.555 209.019 388.767 208.698 388.004 208.306 387.278Z" fill="#132F1E"/><path d="M175.349 411.487C169.962 412.262 166.756 416.534 162.755 419.838 158.369 423.428 153.755 426.728 148.94 429.719 138.875 435.958 128.2 442.138 119.955 450.809 99.0789 472.751 98.8174 507.083 97.3836 535.613 97.1802 539.536 99.7377 544.477 103.865 545.465 105.543 545.919 107.294 546.038 109.018 545.814 113.145 545.262 116.546 540.97 116.768 536.892 118.105 511.104 117.262 477.798 138.614 459.605 147.139 452.339 157.02 446.866 165.651 439.755 172.588 434.059 183.941 423.403 179.398 413.444 178.636 411.962 176.984 411.164 175.349 411.487Z" fill="#132F1E"/><path d="M137.994 394.902C145.395 386.919 152.254 378.191 155.896 367.777 159.994 356.084 158.725 343.51 156.584 331.565 147.933 283.457 138.875 234.768 152.777 186.601 156.489 173.722 161.793 161.355 168.567 149.789 171.61 144.381 175.022 139.189 178.778 134.25 182.653 129.339 187.196 124.863 190.403 119.467 193.222 114.71 188.572 109.063 183.418 110.341 172.559 113.054 164.876 123.032 158.667 131.751 151.75 141.467 146.354 152.288 141.811 163.313 132.375 186.088 128.083 210.636 127.347 235.223 126.591 260.72 129.643 286.237 134.128 311.299 136.298 323.428 139.941 335.721 140.386 348.111 140.832 361.044 135.194 370.858 126.824 380.206 108.98 400.046 85.9621 416.757 80.2174 444.492 77.8342 455.953 95.3299 460.845 97.7227 449.336 102.547 425.844 122.687 411.468 137.994 394.902Z" fill="#132F1E"/><path d="M97.4417 335.983C106.868 320.308 107.129 299.364 106.16 281.645 105.076 261.466 102.547 241.423 102.227 221.195 101.956 202.189 103.312 183.182 108.66 164.863 111.195 156.203 114.65 147.84 118.967 139.917 123.055 132.38 129.624 125.221 132.162 117.045 133.625 112.366 128.597 106.515 123.666 108.51 107.904 114.875 98.8174 136.188 93.3342 151.174 86.553 169.706 83.8405 189.624 83.2689 209.299 82.6586 230.302 84.6639 251.207 86.2721 272.123 87.1614 281.624 87.388 291.177 86.9502 300.71 86.3302 310.708 83.4046 319.31 80.1689 328.659 76.5071 339.054 92.0264 344.982 97.4417 335.983Z" fill="#132F1E"/><path d="M360.603 110.768C381.024 117.549 395.991 138.639 406.357 156.667 429.533 197.026 434.959 245.182 421.343 289.686 417.851 301.017 413.213 311.962 407.5 322.352 400.932 334.365 395.875 345.128 396.35 359.165 396.727 370.16 379.726 370.15 379.358 359.165 378.98 347.289 381.545 335.505 386.827 324.861 391.826 314.525 397.919 304.963 401.939 294.142 409.842 272.921 413.045 250.237 411.326 227.657 409.612 206.393 403.333 185.748 392.92 167.129 387.954 158.206 382.196 149.747 375.715 141.855 368.934 133.562 361.416 126.355 355.778 117.132 353.851 114.003 357.028 109.576 360.603 110.768Z" fill="#132F1E"/><path d="M389.694 387.278C390.555 385.888 391.717 384.709 393.095 383.829 395.64 382.345 398.763 382.246 401.397 383.568 401.756 383.716 402.103 383.894 402.433 384.1 403.066 384.53 403.671 384.999 404.245 385.505 405.116 386.288 405.758 387.292 406.105 388.411 406.288 388.796 406.45 389.191 406.589 389.593 406.876 390.779 406.932 392.009 406.754 393.216 406.704 394.406 406.335 395.56 405.688 396.559L404.293 398.38C403.703 398.951 403.054 399.458 402.356 399.891 401.634 400.287 400.875 400.612 400.089 400.86 398.886 401.161 397.633 401.217 396.408 401.025 395.578 401.003 394.768 400.78 394.044 400.375 392.964 399.938 391.977 399.296 391.138 398.486 389.448 396.754 388.482 394.444 388.435 392.025 388.458 391.194 388.558 390.366 388.735 389.555 388.98 388.767 389.302 388.004 389.694 387.278Z" fill="#132F1E"/><path d="M422.651 411.487C428.037 412.262 431.244 416.534 435.245 419.838 439.63 423.428 444.245 426.728 449.059 429.719 459.125 435.958 469.8 442.138 478.044 450.809 498.921 472.751 499.182 507.083 500.616 535.613 500.82 539.536 498.262 544.477 494.135 545.465 492.457 545.919 490.706 546.038 488.981 545.814 484.855 545.262 481.454 540.97 481.231 536.892 479.895 511.104 480.737 477.798 459.386 459.605 450.861 452.339 440.98 446.866 432.348 439.755 425.412 434.059 414.058 423.403 418.602 413.444 419.364 411.962 421.016 411.164 422.651 411.487Z" fill="#132F1E"/><path d="M460.006 394.902C452.605 386.919 445.746 378.191 442.104 367.777 438.006 356.094 439.275 343.5 441.406 331.575 450.057 283.467 459.115 234.777 445.213 186.611 441.501 173.731 436.197 161.365 429.423 149.799 426.383 144.388 422.975 139.193 419.222 134.25 415.347 129.339 410.803 124.863 407.597 119.467 404.787 114.71 409.437 109.063 414.591 110.341 425.451 113.054 433.133 123.032 439.343 131.751 446.269 141.438 451.646 152.288 456.189 163.303 465.606 186.088 469.916 210.636 470.653 235.223 471.408 260.72 468.357 286.237 463.871 311.299 461.701 323.428 458.059 335.721 457.613 348.111 457.168 361.044 462.806 370.858 471.176 380.206 489.02 400.046 512.038 416.757 517.782 444.492 520.166 455.953 502.67 460.845 500.277 449.336 495.453 425.844 475.312 411.468 460.006 394.902Z" fill="#132F1E"/><path d="M500.558 335.983C491.132 320.308 490.871 299.364 491.839 281.645 492.924 261.466 495.453 241.423 495.772 221.195 496.073 202.189 494.687 183.182 489.369 164.863 486.834 156.203 483.378 147.84 479.061 139.917 474.973 132.38 468.405 125.221 465.867 117.045 464.404 112.366 469.432 106.515 474.363 108.51 490.096 114.875 499.182 136.188 504.666 151.174 511.447 169.706 514.159 189.624 514.731 209.299 515.341 230.302 513.336 251.207 511.728 272.123 510.838 281.624 510.612 291.177 511.05 300.71 511.67 310.708 514.595 319.31 517.831 328.659 521.493 339.054 505.973 344.982 500.558 335.983Z" fill="#132F1E"/></g></g></g><path d="M28.5 582.5 28.5 322.5 275.5 582.5Z" stroke="#0F1113" stroke-width="4.58333" stroke-miterlimit="8" fill="#FF0000" fill-rule="evenodd"/><g clip-path="url(#clip15)"><g clip-path="url(#clip16)"><g clip-path="url(#clip17)"><path d="M154.446 477.257C153.723 476.513 152.396 475.582 150.516 475.098 149.582 474.838 148.548 474.715 147.443 474.645 146.888 474.601 146.315 474.629 145.718 474.624 145.13 474.663 144.514 474.698 143.895 474.78 141.414 475.105 138.757 475.909 136.237 477.1 133.696 478.272 131.272 479.781 128.995 481.387 124.454 484.623 120.484 488.206 116.793 490.647 114.958 491.882 113.205 492.856 111.637 493.525 110.071 494.191 108.706 494.594 107.732 494.804 107.232 494.926 107.244 495.291 107.776 495.336 108.886 495.465 110.543 495.489 112.536 495.202 114.524 494.913 116.832 494.28 119.141 493.307 119.575 493.126 120.009 492.928 120.443 492.73 120.116 494.125 120.042 495.604 120.28 497.107 121.263 503.329 127.104 507.575 133.326 506.592 139.547 505.608 143.794 499.767 142.81 493.546 142.068 488.847 138.553 485.278 134.197 484.235 135.38 483.382 136.59 482.512 137.827 481.681 139.815 480.37 141.867 479.149 143.936 478.327 145.988 477.495 148.092 477.011 149.889 476.896 151.682 476.776 153.171 477.192 154.121 477.68 154.567 477.915 154.824 477.651 154.446 477.257M131.765 520.76C128.215 526.05 120.142 527.268 114.312 528.028 109.711 528.628 105.019 528.935 100.327 528.897 93.7204 528.844 87.1123 528.108 80.7562 526.547 74.7025 525.06 69.6286 522.69 66.9222 521.289 66.2093 520.945 65.4244 521.678 65.8071 522.39 66.2046 523.132 66.7073 524.05 67.3149 525.118 67.98 526.125 68.7447 527.294 69.6594 528.531 70.1489 529.128 70.6569 529.748 71.1827 530.388 78.1241 538.849 89.2046 544.334 100.158 544.443 108.628 544.526 116.512 541.514 123.335 536.627 126.569 534.288 129.4 531.527 131.113 528.614 131.56 527.922 131.895 527.164 132.21 526.492 132.481 525.771 132.748 525.129 132.886 524.468 132.965 524.146 133.046 523.843 133.103 523.546 133.141 523.244 133.178 522.953 133.213 522.675 133.298 522.133 133.281 521.624 133.275 521.183 133.265 520.328 132.201 520.158 131.765 520.76M79.4263 497.107C79.6559 495.654 79.5901 494.224 79.2901 492.87 79.9714 493.183 80.6496 493.478 81.323 493.735 83.5839 494.615 85.749 495.149 87.5893 495.359 89.4336 495.567 90.9289 495.503 91.9465 495.37 92.4731 495.316 92.4615 494.95 91.9543 494.836 90.8865 494.637 89.3646 494.195 87.6627 493.453 85.9578 492.704 84.0812 491.637 82.196 490.3 78.4126 487.659 74.5115 484.074 70.7118 481.387 68.8158 480.048 66.6191 478.687 64.2313 477.526 61.8335 476.384 59.2377 475.442 56.6745 475.028 54.1081 474.602 51.6809 474.664 49.6534 475.087 47.6012 475.506 46.0926 476.48 45.2954 477.273 44.9073 477.663 45.1446 477.942 45.59 477.718 46.4677 477.291 47.7984 476.914 49.4292 476.977 50.2411 476.991 51.138 477.137 52.0884 477.324 52.5616 477.408 53.0425 477.56 53.5336 477.673 54.0207 477.83 54.5195 477.976 55.0197 478.161 58.3964 479.363 61.8807 481.678 65.4971 484.237 61.1469 485.284 57.637 488.851 56.8955 493.546 55.912 499.767 60.1587 505.608 66.3802 506.592 72.6016 507.575 78.4427 503.329 79.4263 497.107" fill-rule="evenodd"/></g></g></g></g></svg>