<svg width="550" height="550" xmlns="http://www.w3.org/2000/svg" xmlns:xlink="http://www.w3.org/1999/xlink" overflow="hidden"><defs><clipPath id="clip0"><rect x="1791" y="602" width="550" height="550"/></clipPath><radialGradient cx="762000" cy="762000" r="1.07763e+06" gradientUnits="userSpaceOnUse" spreadMethod="pad" id="fill1" gradientTransform="matrix(0.000360892 0 0 0.000360892 1791 602)"><stop offset="0" stop-color="#FFFFCC"/><stop offset="0.17" stop-color="#FFFFCC"/><stop offset="0.33" stop-color="#00B050"/><stop offset="1" stop-color="#0F1113"/></radialGradient><linearGradient x1="2064.5" y1="608" x2="2064.5" y2="762" gradientUnits="userSpaceOnUse" spreadMethod="reflect" id="fill2"><stop offset="0" stop-color="#F5FAFF" stop-opacity="0.231373"/><stop offset="0.32" stop-color="#FFFFFF" stop-opacity="0"/><stop offset="1" stop-color="#FFFFFF" stop-opacity="0"/></linearGradient><radialGradient cx="94211" cy="102524" r="139236" gradientUnits="userSpaceOnUse" spreadMethod="pad" id="fill3" gradientTransform="matrix(0.000360892 0 0 0.000360892 1795 649)"><stop offset="0" stop-color="#FFFFCC"/><stop offset="0.54" stop-color="#92D050" stop-opacity="0"/><stop offset="1" stop-color="#92D050" stop-opacity="0"/></radialGradient><radialGradient cx="110836" cy="120534" r="163748" gradientUnits="userSpaceOnUse" spreadMethod="pad" id="fill4" gradientTransform="matrix(0.000360892 0 0 0.000360892 1824 694)"><stop offset="0" stop-color="#FFFFCC"/><stop offset="0.54" stop-color="#92D050" stop-opacity="0"/><stop offset="1" stop-color="#92D050" stop-opacity="0"/></radialGradient><radialGradient cx="292330" cy="278476" r="403740" gradientUnits="userSpaceOnUse" spreadMethod="pad" id="fill5" gradientTransform="matrix(0.000360892 0 0 0.000360892 2128 934)"><stop offset="0" stop-color="#FFFFCC"/><stop offset="0.54" stop-color="#92D050" stop-opacity="0"/><stop offset="1" stop-color="#92D050" stop-opacity="0"/></radialGradient><radialGradient cx="243840" cy="281247" r="372234" gradientUnits="userSpaceOnUse" spreadMethod="pad" id="fill6" gradientTransform="matrix(0.000360892 0 0 0.000360892 1824 610)"><stop offset="0" stop-color="#FFFFCC"/><stop offset="0.54" stop-color="#92D050" stop-opacity="0"/><stop offset="1" stop-color="#92D050" stop-opacity="0"/></radialGradient><radialGradient cx="72044" cy="77585.5" r="105877" fx="72044" fy="77585.5" gradientUnits="userSpaceOnUse" spreadMethod="pad" id="fill7" gradientTransform="matrix(0.000360892 0 0 0.000360892 2273 1062)"><stop offset="0" stop-color="#FFFFCC"/><stop offset="0.54" stop-color="#92D050" stop-opacity="0"/><stop offset="1" stop-color="#92D050" stop-opacity="0"/></radialGradient><radialGradient cx="77585.5" cy="84512.5" r="114725" gradientUnits="userSpaceOnUse" spreadMethod="pad" id="fill8" gradientTransform="matrix(0.000360892 0 0 0.000360892 2257 979)"><stop offset="0" stop-color="#FFFFCC"/><stop offset="0.54" stop-color="#92D050" stop-opacity="0"/><stop offset="1" stop-color="#92D050" stop-opacity="0"/></radialGradient><clipPath id="clip9"><rect x="1807" y="616" width="525" height="525"/></clipPath><clipPath id="clip10"><rect x="1807" y="616" width="525" height="525"/></clipPath><clipPath id="clip11"><rect x="1807" y="616" width="525" height="525"/></clipPath><clipPath id="clip12"><rect x="1864" y="668" width="384" height="383"/></clipPath><clipPath id="clip13"><rect x="1864" y="668" width="384" height="383"/></clipPath><clipPath id="clip14"><rect x="1864" y="668" width="384" height="383"/></clipPath></defs><g clip-path="url(#clip0)" transform="translate(-1791 -602)"><rect x="1791" y="602" width="550" height="550" fill="url(#fill1)"/><path d="M1825.73 608 2303.27 608C2319.14 608 2332 627.864 2332 652.368L2332 762C2332 723.824 2311.96 692.876 2287.23 692.876L1841.77 692.876C1817.04 692.876 1797 723.824 1797 762L1797 652.368C1797 627.864 1809.86 608 1825.73 608Z" fill="url(#fill2)" fill-rule="evenodd"/><path d="M1795 686C1795 665.565 1810.22 649 1829 649 1847.78 649 1863 665.565 1863 686 1863 706.434 1847.78 723 1829 723 1810.22 723 1795 706.434 1795 686Z" fill="url(#fill3)" fill-rule="evenodd"/><path d="M1824 737.5C1824 713.476 1841.91 694 1864 694 1886.09 694 1904 713.476 1904 737.5 1904 761.524 1886.09 781 1864 781 1841.91 781 1824 761.524 1824 737.5Z" fill="url(#fill4)" fill-rule="evenodd"/><path d="M2128 1034.5C2128 978.995 2175.23 934 2233.5 934 2291.77 934 2339 978.995 2339 1034.5 2339 1090 2291.77 1135 2233.5 1135 2175.23 1135 2128 1090 2128 1034.5Z" fill="url(#fill5)" fill-rule="evenodd"/><path d="M1824 711.5C1824 655.443 1863.4 610 1912 610 1960.6 610 2000 655.443 2000 711.5 2000 767.557 1960.6 813 1912 813 1863.4 813 1824 767.557 1824 711.5Z" fill="url(#fill6)" fill-rule="evenodd"/><path d="M2273 1090C2273 1074.54 2284.64 1062 2299 1062 2313.36 1062 2325 1074.54 2325 1090 2325 1105.46 2313.36 1118 2299 1118 2284.64 1118 2273 1105.46 2273 1090Z" fill="url(#fill7)" fill-rule="evenodd"/><path d="M2257 1009.5C2257 992.655 2269.54 979 2285 979 2300.46 979 2313 992.655 2313 1009.5 2313 1026.34 2300.46 1040 2285 1040 2269.54 1040 2257 1026.34 2257 1009.5Z" fill="url(#fill8)" fill-rule="evenodd"/><g clip-path="url(#clip9)"><g clip-path="url(#clip10)"><g clip-path="url(#clip11)"><path d="M2005.16 862.339 1975.97 1069.07C1975.3 1073.87 1971.59 1077.68 1966.81 1078.47 1962.03 1079.27 1957.29 1076.88 1955.09 1072.57L1880.94 927.146C1878.9 923.146 1877.87 918.704 1877.94 914.221L1880.92 715.885C1880.97 712.148 1883.35 708.851 1886.88 707.612 1890.41 706.373 1894.33 707.486 1896.7 710.384L1996.96 832.993C2003.66 841.205 2006.64 851.84 2005.15 862.34ZM2002.01 825.842C2009.13 834.546 2020.37 838.767 2031.45 836.899L2280.64 794.993C2283.97 794.436 2286.62 791.906 2287.34 788.62 2288.06 785.323 2286.69 781.931 2283.91 780.041L2134.99 679.219C2131.33 676.741 2126.98 675.502 2122.56 675.692L1907.18 684.827C1903.42 684.984 1900.07 687.262 1898.53 690.685 1897 694.118 1897.53 698.13 1899.91 701.048ZM2295.69 806.689C2293.39 803.834 2289.74 802.437 2286.11 803.046L2043.15 843.911C2027.3 846.579 2015.02 859.199 2012.76 875.096L1983.82 1079.74C1983.02 1085.38 1985.24 1091.03 1989.66 1094.63 1994.08 1098.22 2000.07 1099.23 2005.43 1097.3L2207.39 1024.34C2211.72 1022.78 2215.19 1019.44 2216.92 1015.16L2297.18 816.834C2298.55 813.421 2297.98 809.547 2295.69 806.691Z" fill="#FFFFFF"/></g></g></g><g clip-path="url(#clip12)"><g clip-path="url(#clip13)"><g clip-path="url(#clip14)"><path d="M191.882 35.3467C196.271 35.3471 199.829 31.7893 199.83 27.4 199.831 23.0108 196.272 19.4523 191.883 19.4518 187.495 19.4514 183.936 23.0093 183.935 27.3985 183.935 27.3991 183.935 27.3995 183.935 27.4 183.941 31.7867 187.495 35.3413 191.882 35.3467Z" fill="#132F1E" transform="matrix(1.00262 0 0 1 1865 669)"/><path d="M216.634 91.7526C223.105 91.7526 228.349 86.5079 228.349 80.0376 228.349 73.5676 223.105 68.3226 216.634 68.3226 210.164 68.3226 204.919 73.5676 204.919 80.0376 204.926 86.5049 210.167 91.7459 216.634 91.7526Z" fill="#132F1E" transform="matrix(1.00262 0 0 1 1865 669)"/><path d="M153.799 80.9112C158.828 80.9112 162.904 76.8348 162.904 71.8059 162.904 66.7771 158.828 62.7006 153.799 62.7006 148.77 62.7006 144.694 66.7772 144.694 71.8059 144.694 71.8072 144.694 71.8083 144.694 71.8096 144.701 76.8348 148.774 80.9053 153.799 80.9112Z" fill="#132F1E" transform="matrix(1.00262 0 0 1 1865 669)"/><path d="M229.047 217.601C226.237 212.469 224.753 206.716 224.731 200.865L224.731 152.549 156.27 152.549 156.27 200.865C156.247 206.725 154.764 212.487 151.954 217.629L93.3056 325.184C86.8018 337.17 91.2466 352.16 103.233 358.664 106.806 360.603 110.803 361.63 114.868 361.653L266.132 361.653C279.757 361.582 290.745 350.479 290.673 336.855 290.653 332.776 289.62 328.766 287.669 325.184ZM193.41 333.439C193.307 333.482 193.203 333.52 193.097 333.555 191.418 334.164 189.58 334.164 187.901 333.555 187.808 333.523 187.715 333.49 187.623 333.453 155.24 320.604 144.324 296.198 147.871 277.709 150.447 264.128 160.249 255.345 172.841 255.345 178.671 255.345 184.613 257.257 190.546 261.034 196.409 257.427 202.406 255.536 208.063 255.536 220.572 255.536 230.406 264.22 233.118 277.66L233.125 277.698C236.677 295.996 225.772 320.327 193.409 333.439Z" fill="#132F1E" transform="matrix(1.00262 0 0 1 1865 669)"/><path d="M140.643 120.551 240.358 120.551 240.358 142.131 140.643 142.131Z" fill="#132F1E" transform="matrix(1.00262 0 0 1 1865 669)"/><path d="M208.062 265.956C203.678 265.956 198.527 267.942 193.559 271.549 191.713 272.889 189.21 272.873 187.382 271.509 182.346 267.752 177.317 265.766 172.839 265.766 165.374 265.766 159.728 271.091 158.105 279.663 155.398 293.774 164.393 312.652 190.489 323.378 216.587 312.431 225.595 293.634 222.903 279.706 221.184 271.222 215.503 265.956 208.062 265.956Z" fill="#132F1E" transform="matrix(1.00262 0 0 1 1865 669)"/></g></g></g></g></svg>