<svg width="550" height="550" xmlns="http://www.w3.org/2000/svg" xmlns:xlink="http://www.w3.org/1999/xlink" overflow="hidden"><defs><clipPath id="clip0"><rect x="29" y="33" width="550" height="550"/></clipPath><radialGradient cx="762000" cy="762000" r="1.07763e+06" gradientUnits="userSpaceOnUse" spreadMethod="pad" id="fill1" gradientTransform="matrix(0.000360892 0 0 0.000360892 28.9999 33)"><stop offset="0" stop-color="#FFFFCC"/><stop offset="0.17" stop-color="#FFFFCC"/><stop offset="0.33" stop-color="#00B050"/><stop offset="1" stop-color="#0F1113"/></radialGradient><linearGradient x1="302.5" y1="38.0002" x2="302.5" y2="193" gradientUnits="userSpaceOnUse" spreadMethod="reflect" id="fill2"><stop offset="0" stop-color="#F5FAFF" stop-opacity="0.231373"/><stop offset="0.32" stop-color="#FFFFFF" stop-opacity="0"/><stop offset="1" stop-color="#FFFFFF" stop-opacity="0"/></linearGradient><radialGradient cx="94211" cy="102524" r="139236" gradientUnits="userSpaceOnUse" spreadMethod="pad" id="fill3" gradientTransform="matrix(0.000360892 0 0 0.000360892 33 79.0001)"><stop offset="0" stop-color="#FFFFCC"/><stop offset="0.54" stop-color="#92D050" stop-opacity="0"/><stop offset="1" stop-color="#92D050" stop-opacity="0"/></radialGradient><radialGradient cx="112222" cy="121920" r="165705" fx="112222" fy="121920" gradientUnits="userSpaceOnUse" spreadMethod="pad" id="fill4" gradientTransform="matrix(0.000360892 0 0 0.000360892 61.9999 124)"><stop offset="0" stop-color="#FFFFCC"/><stop offset="0.54" stop-color="#92D050" stop-opacity="0"/><stop offset="1" stop-color="#92D050" stop-opacity="0"/></radialGradient><radialGradient cx="292331" cy="278477" r="403741" fx="292331" fy="278476" gradientUnits="userSpaceOnUse" spreadMethod="pad" id="fill5" gradientTransform="matrix(0.000360892 0 0 0.000360892 366 364)"><stop offset="0" stop-color="#FFFFCC"/><stop offset="0.54" stop-color="#92D050" stop-opacity="0"/><stop offset="1" stop-color="#92D050" stop-opacity="0"/></radialGradient><radialGradient cx="243840" cy="281248" r="372234" gradientUnits="userSpaceOnUse" spreadMethod="pad" id="fill6" gradientTransform="matrix(0.000360892 0 0 0.000360892 61.9999 39.9999)"><stop offset="0" stop-color="#FFFFCC"/><stop offset="0.54" stop-color="#92D050" stop-opacity="0"/><stop offset="1" stop-color="#92D050" stop-opacity="0"/></radialGradient><radialGradient cx="70658.5" cy="77585.5" r="104939" fx="70658.5" fy="77585.5" gradientUnits="userSpaceOnUse" spreadMethod="pad" id="fill7" gradientTransform="matrix(0.000360892 0 0 0.000360892 512 492)"><stop offset="0" stop-color="#FFFFCC"/><stop offset="0.54" stop-color="#92D050" stop-opacity="0"/><stop offset="1" stop-color="#92D050" stop-opacity="0"/></radialGradient><radialGradient cx="77585.5" cy="84512.5" r="114725" gradientUnits="userSpaceOnUse" spreadMethod="pad" id="fill8" gradientTransform="matrix(0.000360892 0 0 0.000360892 495 409)"><stop offset="0" stop-color="#FFFFCC"/><stop offset="0.54" stop-color="#92D050" stop-opacity="0"/><stop offset="1" stop-color="#92D050" stop-opacity="0"/></radialGradient><clipPath id="clip9"><rect x="45" y="46" width="525" height="525"/></clipPath><clipPath id="clip10"><rect x="45" y="46" width="525" height="525"/></clipPath><clipPath id="clip11"><rect x="45" y="46" width="525" height="525"/></clipPath><clipPath id="clip12"><rect x="80" y="88" width="456" height="457"/></clipPath><clipPath id="clip13"><rect x="80" y="88" width="456" height="457"/></clipPath><clipPath id="clip14"><rect x="80" y="88" width="456" height="457"/></clipPath></defs><g clip-path="url(#clip0)" transform="translate(-29 -33)"><rect x="28.9999" y="33" width="550" height="550" fill="url(#fill1)"/><path d="M63.7338 38.0002 541.266 38.0002C557.135 38.0002 570 57.993 570 82.6558L570 193C570 154.576 549.957 123.427 525.233 123.427L79.7668 123.427C55.0428 123.427 35.0001 154.576 35.0001 193L35.0001 82.6558C35.0001 57.993 47.8645 38.0002 63.7338 38.0002Z" fill="url(#fill2)" fill-rule="evenodd"/><path d="M33 116C33 95.5655 48.2223 79.0001 67 79.0001 85.7777 79.0001 101 95.5655 101 116 101 136.435 85.7777 153 67 153 48.2223 153 33 136.435 33 116Z" fill="url(#fill3)" fill-rule="evenodd"/><path d="M61.9999 168C61.9999 143.7 80.1324 124 102.5 124 124.868 124 143 143.7 143 168 143 192.301 124.868 212 102.5 212 80.1324 212 61.9999 192.301 61.9999 168Z" fill="url(#fill4)" fill-rule="evenodd"/><path d="M366 464.5C366 408.995 413.234 364 471.5 364 529.766 364 577 408.995 577 464.5 577 520.005 529.766 565 471.5 565 413.234 565 366 520.005 366 464.5Z" fill="url(#fill5)" fill-rule="evenodd"/><path d="M61.9999 141.5C61.9999 85.443 101.399 39.9999 150 39.9999 198.601 39.9999 238 85.443 238 141.5 238 197.557 198.601 243 150 243 101.399 243 61.9999 197.557 61.9999 141.5Z" fill="url(#fill6)" fill-rule="evenodd"/><path d="M512 520C512 504.536 523.417 492 537.5 492 551.583 492 563 504.536 563 520 563 535.464 551.583 548 537.5 548 523.417 548 512 535.464 512 520Z" fill="url(#fill7)" fill-rule="evenodd"/><path d="M495 439.5C495 422.655 507.536 409 523 409 538.464 409 551 422.655 551 439.5 551 456.345 538.464 470 523 470 507.536 470 495 456.345 495 439.5Z" fill="url(#fill8)" fill-rule="evenodd"/><g clip-path="url(#clip9)"><g clip-path="url(#clip10)"><g clip-path="url(#clip11)"><path d="M243.157 292.339 213.967 499.075C213.296 503.874 209.589 507.676 204.81 508.472 200.032 509.269 195.286 506.884 193.092 502.571L118.94 357.147C116.903 353.146 115.874 348.704 115.938 344.221L118.92 145.885C118.973 142.148 121.355 138.851 124.884 137.612 128.412 136.373 132.329 137.486 134.702 140.384L234.955 262.993C241.663 271.205 244.645 281.84 243.155 292.34ZM240.006 255.842C247.125 264.546 258.371 268.767 269.448 266.899L518.642 224.993C521.971 224.436 524.618 221.906 525.344 218.62 526.057 215.323 524.692 211.931 521.91 210.041L372.988 109.219C369.335 106.741 364.977 105.502 360.557 105.692L145.181 114.827C141.421 114.984 138.071 117.262 136.528 120.685 134.995 124.118 135.532 128.13 137.914 131.048ZM533.692 236.689C531.391 233.834 527.737 232.437 524.115 233.046L281.145 273.911C265.301 276.579 253.015 289.199 250.758 305.096L221.819 509.741C221.021 515.381 223.236 521.029 227.657 524.629 232.078 528.221 238.074 529.227 243.428 527.298L445.386 454.345C449.722 452.78 453.188 449.441 454.921 445.157L535.184 246.834C536.549 243.421 535.98 239.547 533.692 236.691Z" fill="#FFFFFF"/></g></g></g><g clip-path="url(#clip12)"><g clip-path="url(#clip13)"><g clip-path="url(#clip14)"><path d="M376.453 209.253C375.947 208.24 374.933 206.72 373.92 205.2 372.907 203.68 371.387 201.653 369.36 199.12 368.346 198.107 367.84 197.093 366.827 196.08 366.827 196.08 366.32 195.573 366.32 195.573 365.307 194.56 363.787 193.04 362.267 192.027 361.253 191.013 359.733 190 358.213 188.48 358.213 188.48 357.707 188.48 357.707 187.973 356.187 186.96 354.16 185.44 352.64 184.427 351.627 183.92 350.613 183.413 349.6 182.907 348.587 182.4 348.08 181.893 347.067 181.387 347.067 181.387 346.56 181.387 346.56 180.88 344.533 179.867 342.507 178.853 339.973 177.84 335.413 175.813 330.347 174.293 325.28 173.28 322.747 172.773 320.213 172.267 317.173 172.267 315.653 172.267 314.64 171.76 313.12 171.76L309.067 171.76C307.547 171.76 306.533 171.76 305.013 171.76L299.947 172.267C298.427 172.267 297.413 172.773 295.893 172.773 294.373 172.773 293.36 173.28 291.84 173.28 290.32 173.787 289.307 173.787 287.787 174.293 286.773 174.8 285.253 174.8 284.24 175.307 281.707 175.813 279.173 176.827 277.147 177.84 273.093 179.36 269.04 181.387 265.493 183.92 264.987 183.92 264.987 184.427 264.48 184.427 260.933 186.453 257.893 188.987 254.853 191.52 254.853 191.52 254.347 192.027 254.347 192.027 252.827 193.04 251.813 194.56 250.293 195.573 249.28 196.587 247.76 198.107 246.747 199.12 246.747 199.12 246.747 199.627 246.24 199.627 244.213 201.653 243.2 203.68 241.68 205.2 240.667 206.72 239.653 208.24 239.147 209.253 238.64 210.267 238.133 210.773 238.133 210.773L239.147 211.787C239.147 211.787 240.667 210.267 244.213 207.733 244.72 207.227 244.72 207.227 245.227 206.72 246.747 205.707 248.267 204.693 249.787 203.173 249.787 204.187 249.787 205.2 249.787 205.707 249.787 237.12 275.12 262.453 306.533 262.453 337.947 262.453 363.28 237.12 363.28 205.707 363.28 204.187 363.28 203.173 363.28 201.653 363.787 202.16 364.8 202.667 365.307 203.173 366.32 203.68 366.827 204.187 367.84 204.693 369.36 205.707 370.373 206.72 371.387 207.227 374.427 209.76 376.453 211.28 376.453 211.28L377.467 210.267C377.467 210.773 377.467 210.267 376.453 209.253ZM309.067 198.613C313.12 198.613 316.16 201.653 316.16 205.707 316.16 209.76 312.613 212.8 309.067 212.8 305.013 212.8 301.973 209.76 301.973 205.707 301.973 201.653 305.013 198.613 309.067 198.613ZM307.04 252.32C281.2 252.32 260.427 231.547 260.427 205.707 260.427 202.667 260.933 199.12 261.44 196.08 263.973 194.56 266.507 193.547 269.04 192.027 272.587 190.507 276.64 188.987 280.693 187.467 277.653 192.533 275.627 198.613 275.627 205.2 275.627 223.44 290.32 238.133 308.56 238.133 326.8 238.133 341.493 223.44 341.493 205.2 341.493 198.613 339.467 192.533 336.427 187.467 338.453 187.973 340.48 188.987 342 189.493 344.027 190 346.053 191.013 347.573 192.027 349.6 193.04 351.12 193.547 352.64 194.56 353.653 198.107 353.653 201.653 353.653 205.2 354.16 231.547 332.88 252.32 307.04 252.32Z" fill="#132F1E" transform="matrix(1 0 0 1 80.0001 88)"/><path d="M327.307 269.547C324.773 270.053 321.733 270.56 318.693 271.067 315.653 271.573 312.107 271.573 308.56 271.573 307.04 271.573 305.013 271.573 303.493 271.573 301.973 271.573 299.947 271.067 298.427 271.067 296.907 271.067 295.387 270.56 293.867 270.56 292.347 270.56 290.827 270.053 289.813 269.547 288.8 269.04 287.28 269.04 286.267 268.533 285.253 268.027 284.24 268.027 283.733 267.52 282.213 267.013 281.707 267.013 281.707 267.013L281.707 267.013C281.707 267.013 282.72 267.52 283.733 268.027 285.253 268.533 287.28 269.547 289.813 270.053 290.827 270.56 292.347 271.067 293.867 271.067 295.387 271.573 296.907 272.08 298.427 272.08 299.947 272.08 301.973 272.587 303.493 272.587 305.013 272.587 307.04 273.093 308.56 273.093 312.107 273.093 315.653 272.587 318.693 272.08 320.213 272.08 321.733 271.573 323.253 271.067 324.773 270.56 326.293 270.56 327.307 270.053 328.827 269.547 329.84 269.04 330.853 269.04 331.867 268.533 332.88 268.027 333.387 268.027 334.907 267.52 335.413 267.013 335.413 267.013L335.413 267.013C335.413 267.013 332.373 268.533 327.307 269.547Z" fill="#132F1E" transform="matrix(1 0 0 1 80.0001 88)"/><path d="M321.733 277.653C319.707 278.16 317.68 278.16 315.653 278.667 313.627 278.667 311.093 279.173 308.56 279.173 307.547 279.173 306.027 279.173 305.013 279.173 304 279.173 302.48 279.173 301.467 278.667 300.453 278.667 299.44 278.16 298.427 278.16 297.413 278.16 296.4 277.653 295.387 277.653 293.36 277.147 292.347 276.64 291.333 276.64 290.32 276.133 289.813 276.133 289.813 276.133L289.813 276.133C289.813 276.133 290.32 276.64 291.333 277.147 292.347 277.653 293.867 278.16 295.387 279.173 296.4 279.68 297.413 279.68 298.427 280.187 299.44 280.693 300.453 280.693 301.973 281.2 302.987 281.2 304.507 281.707 305.52 281.707 306.533 281.707 308.053 281.707 309.067 281.707 310.08 281.707 311.6 281.707 312.613 281.707 313.627 281.707 315.147 281.2 316.16 281.2 317.173 281.2 318.187 280.693 319.707 280.693 320.72 280.187 321.733 280.187 322.747 279.68 324.773 279.173 325.787 278.16 326.8 277.653 327.813 277.147 328.32 276.64 328.32 276.64L328.32 276.64C327.307 276.133 325.28 276.64 321.733 277.653Z" fill="#132F1E" transform="matrix(1 0 0 1 80.0001 88)"/><path d="M214.32 204.187C213.307 202.667 211.787 200.64 209.76 198.107 208.747 197.093 208.24 196.08 207.227 195.067 207.227 195.067 206.72 194.56 206.72 194.56 205.707 193.547 204.187 192.027 202.667 191.013 201.653 190 200.133 188.987 198.613 187.467 198.613 187.467 198.107 187.467 198.107 186.96 196.587 185.947 194.56 184.427 193.04 183.413 192.027 182.907 191.013 182.4 190 181.893 188.987 181.387 188.48 180.88 187.467 180.373 187.467 180.373 186.96 180.373 186.96 179.867 184.933 178.853 182.907 177.84 180.373 176.827 175.813 174.8 170.747 173.28 165.68 172.267 163.147 171.76 160.613 171.253 157.573 171.253 156.053 171.253 155.04 170.747 153.52 170.747L149.467 170.747C147.947 170.747 146.933 170.747 145.413 170.747L141.36 171.253C139.84 171.253 138.827 171.76 137.307 171.76 135.787 171.76 134.773 172.267 133.253 172.267 131.733 172.773 130.72 172.773 129.2 173.28 128.187 173.787 126.667 173.787 125.653 174.293 123.12 174.8 120.587 175.813 118.56 176.827 114.507 178.347 110.453 180.373 106.907 182.907 106.4 182.907 106.4 183.413 105.893 183.413 102.347 185.44 99.3066 187.973 96.2666 190.507 96.2666 190.507 95.76 191.013 95.76 191.013 94.24 192.027 93.2266 193.547 91.7066 194.56 90.6933 195.573 89.1733 197.093 88.16 198.107 88.16 198.107 88.16 198.613 87.6533 198.613 85.6266 200.64 84.6133 202.667 83.0933 204.187 82.08 205.707 81.0666 207.227 80.56 208.24 80.0533 209.253 79.5466 209.76 79.5466 209.76L80.56 210.773C80.56 210.773 82.08 209.253 85.6266 206.72 86.1333 206.213 86.1333 206.213 86.64 205.707 88.16 204.693 89.68 203.68 91.2 202.16 91.2 203.173 91.2 204.187 91.2 204.693 91.2 236.107 116.533 261.44 147.947 261.44 179.36 261.44 204.693 236.107 204.693 204.693 204.693 203.173 204.693 202.16 204.693 200.64 205.2 201.147 206.213 201.653 206.72 202.16 207.733 202.667 208.24 203.173 209.253 203.68 210.773 204.693 211.787 205.707 212.8 206.213 215.84 208.747 217.867 210.267 217.867 210.267L218.88 209.253C218.88 209.253 218.373 208.747 217.867 207.733 216.347 207.227 215.84 205.707 214.32 204.187ZM148.96 199.627C153.013 199.627 156.053 202.667 156.053 206.72 156.053 210.773 153.013 213.813 148.96 213.813 144.907 213.813 141.867 210.773 141.867 206.72 141.867 202.667 144.907 199.627 148.96 199.627ZM147.947 251.307C122.107 251.307 101.333 230.533 101.333 204.693 101.333 201.653 101.84 198.107 102.347 195.067 104.88 193.547 107.413 192.533 109.947 191.013 113.493 189.493 117.547 187.973 121.6 186.453 121.6 186.453 121.6 186.453 121.6 186.453 118.053 191.52 116.027 198.107 116.027 204.693 116.027 222.933 130.72 237.627 148.96 237.627 167.2 237.627 181.893 222.933 181.893 204.693 181.893 197.6 179.867 191.52 176.32 185.947 176.32 185.947 176.32 185.947 176.32 185.947 178.347 186.453 180.373 187.467 182.4 187.973 184.427 188.48 186.453 189.493 187.973 190.507 190 191.52 191.52 192.027 193.04 193.04 194.053 196.587 194.053 200.133 194.053 203.68 194.56 230.533 173.787 251.307 147.947 251.307Z" fill="#132F1E" transform="matrix(1 0 0 1 80.0001 88)"/><path d="M167.707 268.533C165.173 269.04 162.133 269.547 159.093 270.053 156.053 270.56 152.507 270.56 148.96 270.56 147.44 270.56 145.413 270.56 143.893 270.56 142.373 270.56 140.347 270.053 138.827 270.053 137.307 270.053 135.787 269.547 134.267 269.547 132.747 269.547 131.227 269.04 130.213 268.533 129.2 268.027 127.68 268.027 126.667 267.52 125.653 267.013 124.64 267.013 124.133 266.507 122.613 266 122.107 266 122.107 266L122.107 266C122.107 266 123.12 266.507 124.133 267.013 125.653 267.52 127.68 268.533 130.213 269.04 131.227 269.547 132.747 270.053 134.267 270.053 135.787 270.56 137.307 271.067 138.827 271.067 140.347 271.067 142.373 271.573 143.893 271.573 145.413 271.573 147.44 272.08 148.96 272.08 152.507 272.08 156.053 271.573 159.093 271.067 160.613 271.067 162.133 270.56 163.653 270.053 165.173 269.547 166.693 269.547 167.707 269.04 169.227 268.533 170.24 268.027 171.253 268.027 172.267 267.52 173.28 267.013 173.787 267.013 175.307 266.507 175.813 266 175.813 266L175.813 266C176.32 266 172.773 267.52 167.707 268.533Z" fill="#132F1E" transform="matrix(1 0 0 1 80.0001 88)"/><path d="M162.133 276.64C160.107 277.147 158.08 277.147 156.053 277.653 154.027 277.653 151.493 278.16 148.96 278.16 147.947 278.16 146.427 278.16 145.413 278.16 144.4 278.16 142.88 278.16 141.867 277.653 140.853 277.653 139.84 277.147 138.827 277.147 137.813 277.147 136.8 276.64 135.787 276.64 133.76 276.133 132.747 275.627 131.733 275.627 130.72 275.12 130.213 275.12 130.213 275.12L130.213 275.12C130.213 275.12 130.72 275.627 131.733 276.133 132.747 276.64 134.267 277.147 135.787 278.16 136.8 278.667 137.813 278.667 138.827 279.173 139.84 279.68 140.853 279.68 142.373 280.187 143.387 280.187 144.907 280.693 145.92 280.693 146.933 280.693 148.453 280.693 149.467 280.693 150.48 280.693 152 280.693 153.013 280.693 154.027 280.693 155.547 280.187 156.56 280.187 157.573 280.187 158.587 279.68 160.107 279.68 161.12 279.173 162.133 279.173 163.147 278.667 165.173 278.16 166.187 277.147 167.2 276.64 168.213 276.133 168.72 275.627 168.72 275.627L168.72 275.627C168.213 274.613 165.68 275.627 162.133 276.64Z" fill="#132F1E" transform="matrix(1 0 0 1 80.0001 88)"/></g></g></g></g></svg>