<svg width="550" height="550" xmlns="http://www.w3.org/2000/svg" xmlns:xlink="http://www.w3.org/1999/xlink" overflow="hidden"><defs><clipPath id="clip0"><rect x="2390" y="1204" width="550" height="550"/></clipPath><radialGradient cx="762000" cy="762000" r="1.07763e+06" gradientUnits="userSpaceOnUse" spreadMethod="pad" id="fill1" gradientTransform="matrix(0.000360892 0 0 0.000360892 2390 1204)"><stop offset="0" stop-color="#FFFFCC"/><stop offset="0.17" stop-color="#FFFFCC"/><stop offset="0.33" stop-color="#00B050"/><stop offset="1" stop-color="#0F1113"/></radialGradient><linearGradient x1="2663.5" y1="1209" x2="2663.5" y2="1364" gradientUnits="userSpaceOnUse" spreadMethod="reflect" id="fill2"><stop offset="0" stop-color="#F5FAFF" stop-opacity="0.231373"/><stop offset="0.32" stop-color="#FFFFFF" stop-opacity="0"/><stop offset="1" stop-color="#FFFFFF" stop-opacity="0"/></linearGradient><radialGradient cx="94211" cy="102524" r="139237" fx="94211" fy="102524" gradientUnits="userSpaceOnUse" spreadMethod="pad" id="fill3" gradientTransform="matrix(0.000360892 0 0 0.000360892 2394 1250)"><stop offset="0" stop-color="#FFFFCC"/><stop offset="0.54" stop-color="#92D050" stop-opacity="0"/><stop offset="1" stop-color="#92D050" stop-opacity="0"/></radialGradient><radialGradient cx="110836" cy="120534" r="163747" fx="110836" fy="120534" gradientUnits="userSpaceOnUse" spreadMethod="pad" id="fill4" gradientTransform="matrix(0.000360892 0 0 0.000360892 2423 1295)"><stop offset="0" stop-color="#FFFFCC"/><stop offset="0.54" stop-color="#92D050" stop-opacity="0"/><stop offset="1" stop-color="#92D050" stop-opacity="0"/></radialGradient><radialGradient cx="292331" cy="278477" r="403741" fx="292331" fy="278476" gradientUnits="userSpaceOnUse" spreadMethod="pad" id="fill5" gradientTransform="matrix(0.000360892 0 0 0.000360892 2727 1535)"><stop offset="0" stop-color="#FFFFCC"/><stop offset="0.54" stop-color="#92D050" stop-opacity="0"/><stop offset="1" stop-color="#92D050" stop-opacity="0"/></radialGradient><radialGradient cx="243840" cy="281247" r="372234" gradientUnits="userSpaceOnUse" spreadMethod="pad" id="fill6" gradientTransform="matrix(0.000360892 0 0 0.000360892 2423 1211)"><stop offset="0" stop-color="#FFFFCC"/><stop offset="0.54" stop-color="#92D050" stop-opacity="0"/><stop offset="1" stop-color="#92D050" stop-opacity="0"/></radialGradient><radialGradient cx="72043.5" cy="77585.5" r="105876" fx="72043.5" fy="77585.5" gradientUnits="userSpaceOnUse" spreadMethod="pad" id="fill7" gradientTransform="matrix(0.000360892 0 0 0.000360892 2872 1663)"><stop offset="0" stop-color="#FFFFCC"/><stop offset="0.54" stop-color="#92D050" stop-opacity="0"/><stop offset="1" stop-color="#92D050" stop-opacity="0"/></radialGradient><radialGradient cx="77585.5" cy="84513" r="114726" fx="77585.5" fy="84513" gradientUnits="userSpaceOnUse" spreadMethod="pad" id="fill8" gradientTransform="matrix(0.000360892 0 0 0.000360892 2856 1580)"><stop offset="0" stop-color="#FFFFCC"/><stop offset="0.54" stop-color="#92D050" stop-opacity="0"/><stop offset="1" stop-color="#92D050" stop-opacity="0"/></radialGradient><clipPath id="clip9"><rect x="2405" y="1216" width="527" height="527"/></clipPath><clipPath id="clip10"><rect x="2405" y="1216" width="527" height="527"/></clipPath><clipPath id="clip11"><rect x="2405" y="1216" width="527" height="527"/></clipPath><clipPath id="clip12"><rect x="2558" y="1281" width="211" height="400"/></clipPath><clipPath id="clip13"><rect x="2558" y="1281" width="211" height="400"/></clipPath><clipPath id="clip14"><rect x="2558" y="1281" width="211" height="400"/></clipPath></defs><g clip-path="url(#clip0)" transform="translate(-2390 -1204)"><rect x="2390" y="1204" width="550" height="550" fill="url(#fill1)"/><path d="M2424.73 1209 2902.27 1209C2918.14 1209 2931 1228.99 2931 1253.66L2931 1364C2931 1325.58 2910.96 1294.43 2886.23 1294.43L2440.77 1294.43C2416.04 1294.43 2396 1325.58 2396 1364L2396 1253.66C2396 1228.99 2408.86 1209 2424.73 1209Z" fill="url(#fill2)" fill-rule="evenodd"/><path d="M2394 1287C2394 1266.57 2409.22 1250 2428 1250 2446.78 1250 2462 1266.57 2462 1287 2462 1307.43 2446.78 1324 2428 1324 2409.22 1324 2394 1307.43 2394 1287Z" fill="url(#fill3)" fill-rule="evenodd"/><path d="M2423 1338.5C2423 1314.48 2440.91 1295 2463 1295 2485.09 1295 2503 1314.48 2503 1338.5 2503 1362.52 2485.09 1382 2463 1382 2440.91 1382 2423 1362.52 2423 1338.5Z" fill="url(#fill4)" fill-rule="evenodd"/><path d="M2727 1635.5C2727 1580 2774.23 1535 2832.5 1535 2890.77 1535 2938 1580 2938 1635.5 2938 1691 2890.77 1736 2832.5 1736 2774.23 1736 2727 1691 2727 1635.5Z" fill="url(#fill5)" fill-rule="evenodd"/><path d="M2423 1312.5C2423 1256.44 2462.4 1211 2511 1211 2559.6 1211 2599 1256.44 2599 1312.5 2599 1368.56 2559.6 1414 2511 1414 2462.4 1414 2423 1368.56 2423 1312.5Z" fill="url(#fill6)" fill-rule="evenodd"/><path d="M2872 1691C2872 1675.54 2883.64 1663 2898 1663 2912.36 1663 2924 1675.54 2924 1691 2924 1706.46 2912.36 1719 2898 1719 2883.64 1719 2872 1706.46 2872 1691Z" fill="url(#fill7)" fill-rule="evenodd"/><path d="M2856 1610.5C2856 1593.66 2868.54 1580 2884 1580 2899.46 1580 2912 1593.66 2912 1610.5 2912 1627.34 2899.46 1641 2884 1641 2868.54 1641 2856 1627.34 2856 1610.5Z" fill="url(#fill8)" fill-rule="evenodd"/><g clip-path="url(#clip9)"><g clip-path="url(#clip10)"><g clip-path="url(#clip11)"><path d="M2604.16 1463.34 2574.97 1670.08C2574.3 1674.87 2570.59 1678.68 2565.81 1679.47 2561.03 1680.27 2556.29 1677.88 2554.09 1673.57L2479.94 1528.15C2477.9 1524.15 2476.87 1519.7 2476.94 1515.22L2479.92 1316.89C2479.97 1313.15 2482.35 1309.85 2485.88 1308.61 2489.41 1307.37 2493.33 1308.49 2495.7 1311.38L2595.96 1433.99C2602.66 1442.21 2605.65 1452.84 2604.15 1463.34ZM2601.01 1426.84C2608.12 1435.55 2619.37 1439.77 2630.45 1437.9L2879.64 1395.99C2882.97 1395.44 2885.62 1392.91 2886.34 1389.62 2887.06 1386.32 2885.69 1382.93 2882.91 1381.04L2733.99 1280.22C2730.33 1277.74 2725.98 1276.5 2721.56 1276.69L2506.18 1285.83C2502.42 1285.98 2499.07 1288.26 2497.53 1291.68 2496 1295.12 2496.53 1299.13 2498.91 1302.05ZM2894.69 1407.69C2892.39 1404.83 2888.74 1403.44 2885.12 1404.05L2642.15 1444.91C2626.3 1447.58 2614.02 1460.2 2611.76 1476.1L2582.82 1680.74C2582.02 1686.38 2584.24 1692.03 2588.66 1695.63 2593.08 1699.22 2599.07 1700.23 2604.43 1698.3L2806.39 1625.34C2810.72 1623.78 2814.19 1620.44 2815.92 1616.16L2896.18 1417.83C2897.55 1414.42 2896.98 1410.55 2894.69 1407.69Z" fill="#FFFFFF"/></g></g></g><g clip-path="url(#clip12)"><g clip-path="url(#clip13)"><g clip-path="url(#clip14)"><path d="M2755.06 1569.96C2752.02 1575.46 2746.18 1579.17 2739.51 1579.17L2739.51 1579.17C2739.16 1579.17 2738.81 1579.16 2738.46 1579.13 2733.72 1578.86 2729.36 1576.75 2726.21 1573.2 2723.05 1569.65 2721.46 1565.08 2721.74 1560.34 2722.45 1548.3 2722.72 1537.36 2722.65 1527.37L2711.5 1517.66 2711.5 1441.92C2717.55 1453.76 2723.38 1472.75 2725.58 1503.05 2726.73 1518.92 2726.9 1537.88 2725.57 1560.57 2725.12 1568.26 2730.99 1574.86 2738.68 1575.31 2738.96 1575.32 2739.24 1575.33 2739.51 1575.33 2746.84 1575.33 2752.99 1569.61 2753.42 1562.2 2754.78 1539.05 2754.62 1519.13 2753.36 1501.96 2747.8 1426.07 2720.69 1404.09 2706.69 1397.78 2703.93 1418.88 2685.85 1435.23 2664 1435.23 2642.16 1435.23 2624.07 1418.88 2621.31 1397.78 2607.31 1404.09 2580.2 1426.07 2574.64 1501.96 2573.39 1519.13 2573.22 1539.05 2574.58 1562.2 2575.01 1569.61 2581.16 1575.33 2588.49 1575.33 2588.77 1575.33 2589.04 1575.32 2589.32 1575.31 2597.01 1574.86 2602.88 1568.26 2602.43 1560.57 2601.11 1537.88 2601.27 1518.92 2602.42 1503.05 2604.71 1471.61 2610.89 1452.35 2617.19 1440.62L2617.19 1517.07 2605.35 1527.37C2605.29 1537.36 2605.56 1548.3 2606.26 1560.34 2606.54 1565.08 2604.95 1569.65 2601.79 1573.2 2598.64 1576.75 2594.29 1578.86 2589.54 1579.14 2589.19 1579.16 2588.84 1579.17 2588.49 1579.17L2588.49 1579.17C2581.83 1579.17 2575.98 1575.46 2572.94 1569.96L2559.27 1655.66C2557.42 1667.32 2565.35 1678.27 2577 1680.12 2578.14 1680.3 2579.28 1680.39 2580.39 1680.39 2590.71 1680.39 2599.78 1672.9 2601.46 1662.39L2615.35 1575.31 2654.38 1541.33 2673.63 1541.33 2712.65 1575.31 2726.55 1662.39C2728.22 1672.9 2737.3 1680.39 2747.61 1680.39 2748.73 1680.39 2749.86 1680.3 2751 1680.12 2762.65 1678.27 2770.59 1667.31 2768.73 1655.66L2755.06 1569.96Z" fill="#132F1E"/><path d="M2703.23 1392.16C2703.23 1413.83 2685.67 1431.39 2664 1431.39 2642.33 1431.39 2624.77 1413.83 2624.77 1392.16 2624.77 1370.49 2642.33 1352.92 2664 1352.92 2685.67 1352.92 2703.23 1370.49 2703.23 1392.16Z" fill="#132F1E"/><path d="M2652.41 1286.76C2654.1 1285.14 2652.48 1281.37 2650.77 1283.01 2646.52 1287.1 2643.3 1292.93 2642.61 1299.93 2641.86 1307.49 2647.44 1312.34 2648.07 1319.43 2648.49 1324.2 2646.26 1329.43 2643.7 1332.61 2642.16 1334.52 2644.47 1337.59 2646 1335.68 2650.28 1330.35 2652.15 1322.65 2650.74 1315.09 2649.33 1307.57 2643.97 1303.95 2646.87 1295.37 2648 1292.03 2650.19 1288.9 2652.41 1286.76Z" fill="#132F1E"/><path d="M2671.48 1286.76C2673.16 1285.14 2671.54 1281.37 2669.84 1283.01 2665.58 1287.1 2662.37 1292.93 2661.67 1299.93 2660.93 1307.49 2666.5 1312.34 2667.13 1319.43 2667.55 1324.2 2665.32 1329.43 2662.77 1332.61 2661.23 1334.52 2663.53 1337.59 2665.07 1335.68 2669.35 1330.35 2671.22 1322.65 2669.8 1315.09 2668.4 1307.57 2663.03 1303.95 2665.93 1295.37 2667.06 1292.03 2669.25 1288.9 2671.48 1286.76Z" fill="#132F1E"/><path d="M2690.54 1286.76C2692.23 1285.14 2690.61 1281.37 2688.9 1283.01 2684.65 1287.1 2681.43 1292.93 2680.74 1299.93 2679.99 1307.49 2685.56 1312.34 2686.19 1319.43 2686.62 1324.2 2684.38 1329.43 2681.83 1332.61 2680.29 1334.52 2682.6 1337.59 2684.13 1335.68 2688.41 1330.35 2690.28 1322.65 2688.87 1315.09 2687.46 1307.57 2682.09 1303.95 2685 1295.37 2686.12 1292.03 2688.31 1288.9 2690.54 1286.76Z" fill="#132F1E"/></g></g></g></g></svg>