<svg width="550" height="550" xmlns="http://www.w3.org/2000/svg" xmlns:xlink="http://www.w3.org/1999/xlink" overflow="hidden"><defs><clipPath id="clip0"><rect x="624" y="30" width="550" height="550"/></clipPath><radialGradient cx="762000" cy="762000" r="1.07763e+06" gradientUnits="userSpaceOnUse" spreadMethod="pad" id="fill1" gradientTransform="matrix(0.000360892 0 0 0.000360892 624 29.9999)"><stop offset="0" stop-color="#FFFFCC"/><stop offset="0.17" stop-color="#FFFFCC"/><stop offset="0.33" stop-color="#00B050"/><stop offset="1" stop-color="#0F1113"/></radialGradient><linearGradient x1="897.5" y1="35.0001" x2="897.5" y2="190" gradientUnits="userSpaceOnUse" spreadMethod="reflect" id="fill2"><stop offset="0" stop-color="#F5FAFF" stop-opacity="0.231373"/><stop offset="0.32" stop-color="#FFFFFF" stop-opacity="0"/><stop offset="1" stop-color="#FFFFFF" stop-opacity="0"/></linearGradient><radialGradient cx="94211" cy="102524" r="139236" gradientUnits="userSpaceOnUse" spreadMethod="pad" id="fill3" gradientTransform="matrix(0.000360892 0 0 0.000360892 628 76)"><stop offset="0" stop-color="#FFFFCC"/><stop offset="0.54" stop-color="#92D050" stop-opacity="0"/><stop offset="1" stop-color="#92D050" stop-opacity="0"/></radialGradient><radialGradient cx="110836" cy="120534" r="163748" gradientUnits="userSpaceOnUse" spreadMethod="pad" id="fill4" gradientTransform="matrix(0.000360892 0 0 0.000360892 657 121)"><stop offset="0" stop-color="#FFFFCC"/><stop offset="0.54" stop-color="#92D050" stop-opacity="0"/><stop offset="1" stop-color="#92D050" stop-opacity="0"/></radialGradient><radialGradient cx="292330" cy="278476" r="403740" gradientUnits="userSpaceOnUse" spreadMethod="pad" id="fill5" gradientTransform="matrix(0.000360892 0 0 0.000360892 961 361)"><stop offset="0" stop-color="#FFFFCC"/><stop offset="0.54" stop-color="#92D050" stop-opacity="0"/><stop offset="1" stop-color="#92D050" stop-opacity="0"/></radialGradient><radialGradient cx="243840" cy="281247" r="372234" gradientUnits="userSpaceOnUse" spreadMethod="pad" id="fill6" gradientTransform="matrix(0.000360892 0 0 0.000360892 657 37.0001)"><stop offset="0" stop-color="#FFFFCC"/><stop offset="0.54" stop-color="#92D050" stop-opacity="0"/><stop offset="1" stop-color="#92D050" stop-opacity="0"/></radialGradient><radialGradient cx="72044" cy="77585" r="105876" gradientUnits="userSpaceOnUse" spreadMethod="pad" id="fill7" gradientTransform="matrix(0.000360892 0 0 0.000360892 1106 489)"><stop offset="0" stop-color="#FFFFCC"/><stop offset="0.54" stop-color="#92D050" stop-opacity="0"/><stop offset="1" stop-color="#92D050" stop-opacity="0"/></radialGradient><radialGradient cx="77585.5" cy="84513" r="114726" fx="77585.5" fy="84513" gradientUnits="userSpaceOnUse" spreadMethod="pad" id="fill8" gradientTransform="matrix(0.000360892 0 0 0.000360892 1090 406)"><stop offset="0" stop-color="#FFFFCC"/><stop offset="0.54" stop-color="#92D050" stop-opacity="0"/><stop offset="1" stop-color="#92D050" stop-opacity="0"/></radialGradient><clipPath id="clip9"><rect x="640" y="42" width="525" height="526"/></clipPath><clipPath id="clip10"><rect x="640" y="42" width="525" height="526"/></clipPath><clipPath id="clip11"><rect x="640" y="42" width="525" height="526"/></clipPath><clipPath id="clip12"><rect x="729" y="137" width="355" height="356"/></clipPath><clipPath id="clip13"><rect x="729" y="137" width="355" height="356"/></clipPath><clipPath id="clip14"><rect x="729" y="137" width="355" height="356"/></clipPath></defs><g clip-path="url(#clip0)" transform="translate(-624 -30)"><rect x="624" y="29.9999" width="550" height="550" fill="url(#fill1)"/><path d="M658.734 35.0001 1136.27 35.0001C1152.14 35.0001 1165 54.993 1165 79.6558L1165 190C1165 151.576 1144.96 120.427 1120.23 120.427L674.767 120.427C650.043 120.427 630 151.576 630 190L630 79.6558C630 54.993 642.865 35.0001 658.734 35.0001Z" fill="url(#fill2)" fill-rule="evenodd"/><path d="M628 113C628 92.5654 643.222 76 662 76 680.778 76 696 92.5654 696 113 696 133.434 680.778 150 662 150 643.222 150 628 133.434 628 113Z" fill="url(#fill3)" fill-rule="evenodd"/><path d="M657 164.5C657 140.476 674.909 121 697 121 719.091 121 737 140.476 737 164.5 737 188.524 719.091 208 697 208 674.909 208 657 188.524 657 164.5Z" fill="url(#fill4)" fill-rule="evenodd"/><path d="M961 461.5C961 405.995 1008.23 361 1066.5 361 1124.77 361 1172 405.995 1172 461.5 1172 517.005 1124.77 562 1066.5 562 1008.23 562 961 517.005 961 461.5Z" fill="url(#fill5)" fill-rule="evenodd"/><path d="M657 138.5C657 82.4432 696.399 37.0001 745 37.0001 793.601 37.0001 833 82.4432 833 138.5 833 194.557 793.601 240 745 240 696.399 240 657 194.557 657 138.5Z" fill="url(#fill6)" fill-rule="evenodd"/><path d="M1106 517C1106 501.536 1117.64 489 1132 489 1146.36 489 1158 501.536 1158 517 1158 532.464 1146.36 545 1132 545 1117.64 545 1106 532.464 1106 517Z" fill="url(#fill7)" fill-rule="evenodd"/><path d="M1090 436.5C1090 419.655 1102.54 406 1118 406 1133.46 406 1146 419.655 1146 436.5 1146 453.345 1133.46 467 1118 467 1102.54 467 1090 453.345 1090 436.5Z" fill="url(#fill8)" fill-rule="evenodd"/><g clip-path="url(#clip9)"><g clip-path="url(#clip10)"><g clip-path="url(#clip11)"><path d="M838.157 289.339 808.967 496.075C808.296 500.874 804.589 504.676 799.81 505.472 795.032 506.269 790.286 503.884 788.092 499.57L713.94 354.146C711.903 350.145 710.874 345.704 710.938 341.221L713.92 142.885C713.973 139.148 716.355 135.851 719.884 134.612 723.412 133.373 727.329 134.486 729.702 137.384L829.955 259.993C836.663 268.205 839.645 278.84 838.155 289.34ZM835.006 252.842C842.125 261.546 853.371 265.767 864.448 263.898L1113.64 221.993C1116.97 221.436 1119.62 218.906 1120.34 215.62 1121.06 212.323 1119.69 208.931 1116.91 207.041L967.989 106.219C964.335 103.741 959.977 102.502 955.557 102.692L740.181 111.827C736.421 111.984 733.071 114.262 731.528 117.685 729.995 121.118 730.532 125.13 732.914 128.048ZM1128.69 233.689C1126.39 230.834 1122.74 229.437 1119.11 230.046L876.145 270.911C860.301 273.579 848.015 286.199 845.758 302.096L816.819 506.741C816.021 512.38 818.236 518.029 822.657 521.629 827.078 525.221 833.074 526.227 838.428 524.298L1040.39 451.344C1044.72 449.78 1048.19 446.441 1049.92 442.157L1130.18 243.834C1131.55 240.421 1130.98 236.547 1128.69 233.691Z" fill="#FFFFFF"/></g></g></g><g clip-path="url(#clip12)"><g clip-path="url(#clip13)"><g clip-path="url(#clip14)"><path d="M1050.11 166.622C1041.64 172.169 1031.59 176.031 1022.78 178.617 1007.33 183.134 991.033 184.016 975.177 181.196 948.018 176.44 929.589 164.784 918.71 155.583 911.667 149.608 901.333 149.608 894.29 155.583 883.411 164.784 864.982 176.44 837.857 181.196 822.002 184.016 805.709 183.133 790.251 178.617 781.446 176.031 771.392 172.182 762.919 166.615 758.13 163.444 751.677 164.757 748.506 169.546 747.278 171.401 746.677 173.601 746.792 175.823 748.442 213.313 752.609 280.887 762.649 341.05 767.896 372.76 783.827 401.722 807.8 423.13 828.22 441.303 856.495 462.249 890.58 476.671 900.773 480.992 912.283 480.992 922.475 476.671 956.547 462.249 984.808 441.31 1005.21 423.144 1029.2 401.723 1045.14 372.744 1050.39 341.016 1060.43 280.832 1064.59 213.313 1066.21 175.836 1066.5 170.1 1062.08 165.215 1056.34 164.926 1054.14 164.814 1051.95 165.408 1050.11 166.622ZM974.172 357.386 891.593 432.581C889.472 434.477 886.215 434.294 884.319 432.173 883.087 430.795 882.688 428.863 883.272 427.11L917.684 328.861C918.663 326.15 917.904 323.116 915.763 321.185L905.924 312.297C903.808 310.387 903.214 307.306 904.468 304.746L920.187 272.664C920.918 271.176 920.305 269.377 918.817 268.645 918.404 268.442 917.95 268.337 917.49 268.338L906.451 268.338C904.072 268.337 901.875 269.609 900.69 271.673L881.699 304.801C880.184 307.442 880.742 310.783 883.03 312.789L895.961 324.111C898.29 326.154 899.028 329.47 897.784 332.307L886.691 357.698C885.558 360.278 882.549 361.453 879.967 360.321 879.788 360.242 879.614 360.154 879.445 360.055L840.319 337.174C835.988 334.626 834.47 329.095 836.894 324.694L890.671 227.623C892.872 223.619 897.077 221.13 901.646 221.127L964.049 221.127C967.836 221.127 970.906 224.197 970.906 227.984 970.906 229.093 970.637 230.185 970.123 231.167L941.119 286.58C937.441 293.601 939.107 302.232 945.134 307.381L973.756 331.905C980.893 337.999 981.739 348.726 975.645 355.864 975.186 356.401 974.694 356.909 974.172 357.386Z" fill="#132F1E"/></g></g></g></g></svg>