<svg width="550" height="550" xmlns="http://www.w3.org/2000/svg" xmlns:xlink="http://www.w3.org/1999/xlink" overflow="hidden"><defs><clipPath id="clip0"><rect x="2397" y="30" width="550" height="550"/></clipPath><radialGradient cx="762000" cy="762000" r="1.07763e+06" gradientUnits="userSpaceOnUse" spreadMethod="pad" id="fill1" gradientTransform="matrix(0.000360892 0 0 0.000360892 2397 29.9999)"><stop offset="0" stop-color="#FFFFCC"/><stop offset="0.17" stop-color="#FFFFCC"/><stop offset="0.33" stop-color="#00B050"/><stop offset="1" stop-color="#0F1113"/></radialGradient><linearGradient x1="2670" y1="35.0001" x2="2670" y2="190" gradientUnits="userSpaceOnUse" spreadMethod="reflect" id="fill2"><stop offset="0" stop-color="#F5FAFF" stop-opacity="0.231373"/><stop offset="0.32" stop-color="#FFFFFF" stop-opacity="0"/><stop offset="1" stop-color="#FFFFFF" stop-opacity="0"/></linearGradient><radialGradient cx="94211" cy="102524" r="139236" gradientUnits="userSpaceOnUse" spreadMethod="pad" id="fill3" gradientTransform="matrix(0.000360892 0 0 0.000360892 2401 76)"><stop offset="0" stop-color="#FFFFCC"/><stop offset="0.54" stop-color="#92D050" stop-opacity="0"/><stop offset="1" stop-color="#92D050" stop-opacity="0"/></radialGradient><radialGradient cx="110836" cy="120534" r="163748" gradientUnits="userSpaceOnUse" spreadMethod="pad" id="fill4" gradientTransform="matrix(0.000360892 0 0 0.000360892 2430 121)"><stop offset="0" stop-color="#FFFFCC"/><stop offset="0.54" stop-color="#92D050" stop-opacity="0"/><stop offset="1" stop-color="#92D050" stop-opacity="0"/></radialGradient><radialGradient cx="292331" cy="278477" r="403741" fx="292331" fy="278476" gradientUnits="userSpaceOnUse" spreadMethod="pad" id="fill5" gradientTransform="matrix(0.000360892 0 0 0.000360892 2734 361)"><stop offset="0" stop-color="#FFFFCC"/><stop offset="0.54" stop-color="#92D050" stop-opacity="0"/><stop offset="1" stop-color="#92D050" stop-opacity="0"/></radialGradient><radialGradient cx="243840" cy="281247" r="372234" gradientUnits="userSpaceOnUse" spreadMethod="pad" id="fill6" gradientTransform="matrix(0.000360892 0 0 0.000360892 2430 37.0001)"><stop offset="0" stop-color="#FFFFCC"/><stop offset="0.54" stop-color="#92D050" stop-opacity="0"/><stop offset="1" stop-color="#92D050" stop-opacity="0"/></radialGradient><radialGradient cx="72044" cy="77585" r="105876" gradientUnits="userSpaceOnUse" spreadMethod="pad" id="fill7" gradientTransform="matrix(0.000360892 0 0 0.000360892 2879 489)"><stop offset="0" stop-color="#FFFFCC"/><stop offset="0.54" stop-color="#92D050" stop-opacity="0"/><stop offset="1" stop-color="#92D050" stop-opacity="0"/></radialGradient><radialGradient cx="77585.5" cy="84513" r="114726" fx="77585.5" fy="84513" gradientUnits="userSpaceOnUse" spreadMethod="pad" id="fill8" gradientTransform="matrix(0.000360892 0 0 0.000360892 2863 406)"><stop offset="0" stop-color="#FFFFCC"/><stop offset="0.54" stop-color="#92D050" stop-opacity="0"/><stop offset="1" stop-color="#92D050" stop-opacity="0"/></radialGradient><clipPath id="clip9"><rect x="2413" y="42" width="526" height="526"/></clipPath><clipPath id="clip10"><rect x="2413" y="42" width="526" height="526"/></clipPath><clipPath id="clip11"><rect x="2413" y="42" width="526" height="526"/></clipPath><clipPath id="clip12"><rect x="2493" y="146" width="344" height="344"/></clipPath><clipPath id="clip13"><rect x="2493" y="146" width="344" height="344"/></clipPath><clipPath id="clip14"><rect x="2493" y="146" width="344" height="344"/></clipPath></defs><g clip-path="url(#clip0)" transform="translate(-2397 -30)"><rect x="2397" y="29.9999" width="550" height="550" fill="url(#fill1)"/><path d="M2430.79 35.0001 2909.21 35.0001C2925.11 35.0001 2938 54.993 2938 79.6558L2938 190C2938 151.576 2917.92 120.427 2893.15 120.427L2446.85 120.427C2422.08 120.427 2402 151.576 2402 190L2402 79.6558C2402 54.993 2414.89 35.0001 2430.79 35.0001Z" fill="url(#fill2)" fill-rule="evenodd"/><path d="M2401 113C2401 92.5654 2416.22 76 2435 76 2453.78 76 2469 92.5654 2469 113 2469 133.434 2453.78 150 2435 150 2416.22 150 2401 133.434 2401 113Z" fill="url(#fill3)" fill-rule="evenodd"/><path d="M2430 164.5C2430 140.476 2447.91 121 2470 121 2492.09 121 2510 140.476 2510 164.5 2510 188.524 2492.09 208 2470 208 2447.91 208 2430 188.524 2430 164.5Z" fill="url(#fill4)" fill-rule="evenodd"/><path d="M2734 461.5C2734 405.995 2781.23 361 2839.5 361 2897.77 361 2945 405.995 2945 461.5 2945 517.005 2897.77 562 2839.5 562 2781.23 562 2734 517.005 2734 461.5Z" fill="url(#fill5)" fill-rule="evenodd"/><path d="M2430 138.5C2430 82.4432 2469.4 37.0001 2518 37.0001 2566.6 37.0001 2606 82.4432 2606 138.5 2606 194.557 2566.6 240 2518 240 2469.4 240 2430 194.557 2430 138.5Z" fill="url(#fill6)" fill-rule="evenodd"/><path d="M2879 517C2879 501.536 2890.64 489 2905 489 2919.36 489 2931 501.536 2931 517 2931 532.464 2919.36 545 2905 545 2890.64 545 2879 532.464 2879 517Z" fill="url(#fill7)" fill-rule="evenodd"/><path d="M2863 436.5C2863 419.655 2875.54 406 2891 406 2906.46 406 2919 419.655 2919 436.5 2919 453.345 2906.46 467 2891 467 2875.54 467 2863 453.345 2863 436.5Z" fill="url(#fill8)" fill-rule="evenodd"/><g clip-path="url(#clip9)"><g clip-path="url(#clip10)"><g clip-path="url(#clip11)"><path d="M2611.16 289.339 2581.97 496.075C2581.3 500.874 2577.59 504.676 2572.81 505.472 2568.03 506.269 2563.29 503.884 2561.09 499.57L2486.94 354.146C2484.9 350.145 2483.87 345.704 2483.94 341.221L2486.92 142.885C2486.97 139.148 2489.35 135.851 2492.88 134.612 2496.41 133.373 2500.33 134.486 2502.7 137.384L2602.96 259.993C2609.66 268.205 2612.65 278.84 2611.15 289.34ZM2608.01 252.842C2615.13 261.546 2626.37 265.767 2637.45 263.898L2886.64 221.993C2889.97 221.436 2892.62 218.906 2893.34 215.62 2894.06 212.323 2892.69 208.931 2889.91 207.041L2740.99 106.219C2737.34 103.741 2732.98 102.502 2728.56 102.692L2513.18 111.827C2509.42 111.984 2506.07 114.262 2504.53 117.685 2503 121.118 2503.53 125.13 2505.91 128.048ZM2901.69 233.689C2899.39 230.834 2895.74 229.437 2892.12 230.046L2649.15 270.911C2633.3 273.579 2621.02 286.199 2618.76 302.096L2589.82 506.741C2589.02 512.38 2591.24 518.029 2595.66 521.629 2600.08 525.221 2606.07 526.227 2611.43 524.298L2813.39 451.344C2817.72 449.78 2821.19 446.441 2822.92 442.157L2903.18 243.834C2904.55 240.421 2903.98 236.547 2901.69 233.691Z" fill="#FFFFFF"/></g></g></g><g clip-path="url(#clip12)"><g clip-path="url(#clip13)"><g clip-path="url(#clip14)"><path d="M18086.7 8232.34 18086.7 8225.48C18086.7 8215.88 18069.6 8211.76 18053.5 8211.76 18037.3 8211.76 18020.2 8216.22 18020.2 8225.48L18020.2 8232.34C18020.2 8238.52 18022.6 8244.69 18027.1 8249.15L18044.2 8265.96C18045.2 8266.99 18045.6 8268.02 18045.6 8269.39L18045.6 8291.34C18045.6 8292.71 18046.3 8293.74 18047.6 8294.08L18057.6 8297.17C18059.3 8297.51 18061 8296.49 18061 8294.43L18061 8269.73C18061 8268.36 18061.7 8267.33 18062.4 8266.3L18079.9 8249.15C18084.3 8244.69 18086.7 8238.52 18086.7 8232.34ZM18053.5 8232C18037 8232 18028.1 8227.54 18027.7 8225.83L18027.7 8225.83C18028.1 8224.11 18037 8219.65 18053.5 8219.65 18069.9 8219.65 18078.5 8224.11 18079.2 8225.83 18078.5 8227.54 18069.9 8232 18053.5 8232Z" fill="#132F1E" transform="matrix(1 0 0 1.00291 2494 146)"/><path d="M18070.6 8267.33C18068.6 8267.33 18067.2 8268.7 18067.2 8270.76 18067.2 8272.82 18068.6 8274.19 18070.6 8274.19L18085.4 8274.19C18087.4 8274.19 18088.8 8272.82 18088.8 8270.76 18088.8 8268.7 18087.4 8267.33 18085.4 8267.33L18070.6 8267.33Z" fill="#132F1E" transform="matrix(1 0 0 1.00291 2494 146)"/><path d="M18085.4 8278.99 18070.6 8278.99C18068.6 8278.99 18067.2 8280.36 18067.2 8282.42 18067.2 8284.48 18068.6 8285.85 18070.6 8285.85L18085.4 8285.85C18087.4 8285.85 18088.8 8284.48 18088.8 8282.42 18088.8 8280.36 18087.4 8278.99 18085.4 8278.99Z" fill="#132F1E" transform="matrix(1 0 0 1.00291 2494 146)"/><path d="M18085.4 8290.31 18070.6 8290.31C18068.6 8290.31 18067.2 8291.68 18067.2 8293.74 18067.2 8295.8 18068.6 8297.17 18070.6 8297.17L18085.4 8297.17C18087.4 8297.17 18088.8 8295.8 18088.8 8293.74 18088.8 8292.03 18087.4 8290.31 18085.4 8290.31Z" fill="#132F1E" transform="matrix(1 0 0 1.00291 2494 146)"/><path d="M283.318 235.641 248.675 217.462C244.559 215.404 240.786 211.974 238.042 208.201L217.462 179.389C210.945 170.128 200.312 164.64 188.65 164.64L154.35 164.64C143.031 164.64 132.398 170.128 125.538 179.389L104.958 208.201C102.214 211.974 98.441 215.404 94.325 217.462L59.682 235.298C51.793 239.414 48.02 248.675 51.107 256.564 54.88 265.825 65.513 269.598 74.431 265.139L109.76 247.303C118.678 242.844 126.224 235.984 132.055 227.752L132.741 227.066 132.741 267.197 77.861 295.323C68.6 300.125 64.484 310.758 67.571 320.362 70.315 328.937 78.547 334.425 87.122 334.425 88.494 334.425 89.523 334.425 90.895 334.082L165.326 321.048C169.099 320.362 173.215 320.362 177.331 321.048L251.762 334.082C253.134 334.425 254.163 334.425 255.535 334.425 264.453 334.425 272.342 328.937 275.086 320.362 278.516 310.415 274.057 300.125 264.796 295.323L209.916 267.197 209.916 226.723 210.602 227.409C216.433 235.641 223.979 242.158 232.897 246.96L268.226 265.139C270.627 266.511 273.371 266.854 275.772 266.854 282.289 266.854 288.806 262.738 291.55 255.878 294.637 248.332 290.864 239.414 283.318 235.641Z" fill="#132F1E" transform="matrix(1 0 0 1.00291 2494 146)"/><path d="M208.544 117.992C208.544 138.451 191.959 155.036 171.5 155.036 151.041 155.036 134.456 138.451 134.456 117.992 134.456 97.5332 151.041 80.948 171.5 80.948 191.959 80.948 208.544 97.5332 208.544 117.992Z" fill="#132F1E" transform="matrix(1 0 0 1.00291 2494 146)"/><path d="M171.5 49.735C176.645 49.735 180.761 45.619 180.761 40.474L180.761 17.836C180.761 12.691 176.645 8.575 171.5 8.575 166.355 8.575 162.239 12.691 162.239 17.836L162.239 40.474C162.239 45.619 166.355 49.735 171.5 49.735Z" fill="#132F1E" transform="matrix(1 0 0 1.00291 2494 146)"/><path d="M121.422 52.136C122.794 55.566 126.224 57.967 129.997 57.967 131.026 57.967 132.398 57.624 133.427 57.281 138.229 55.223 140.287 50.078 138.572 45.276L129.997 24.353C127.939 19.551 122.794 17.493 117.992 19.208 113.19 21.266 111.132 26.411 112.847 31.213L121.422 52.136Z" fill="#132F1E" transform="matrix(1 0 0 1.00291 2494 146)"/><path d="M88.151 78.89C89.866 80.605 92.267 81.634 94.668 81.634 97.069 81.634 99.47 80.605 101.185 78.89 104.958 75.117 104.958 69.286 101.185 65.856L85.064 49.735C81.291 45.962 75.46 45.962 72.03 49.735 68.257 53.508 68.257 59.339 72.03 62.769L88.151 78.89Z" fill="#132F1E" transform="matrix(1 0 0 1.00291 2494 146)"/><path d="M46.648 107.359 67.571 115.934C68.6 116.277 69.972 116.62 71.001 116.62 74.774 116.62 78.204 114.562 79.576 110.789 81.634 105.987 79.233 100.499 74.431 98.784L53.508 90.209C48.706 88.151 43.218 90.552 41.503 95.354 39.445 100.156 41.846 105.644 46.648 107.359Z" fill="#132F1E" transform="matrix(1 0 0 1.00291 2494 146)"/><path d="M72.03 149.205C72.03 144.06 67.914 139.944 62.769 139.944L40.131 139.944C34.986 139.944 30.87 144.06 30.87 149.205 30.87 154.35 34.986 158.466 40.131 158.466L62.769 158.466C67.914 158.466 72.03 154.35 72.03 149.205Z" fill="#132F1E" transform="matrix(1 0 0 1.00291 2494 146)"/><path d="M74.431 199.283C79.233 197.225 81.291 192.08 79.576 187.278 77.518 182.476 72.373 180.418 67.571 182.133L46.648 190.708C41.846 192.766 39.788 197.911 41.503 202.713 42.875 206.143 46.305 208.544 50.078 208.544 51.107 208.544 52.479 208.201 53.508 207.858L74.431 199.283Z" fill="#132F1E" transform="matrix(1 0 0 1.00291 2494 146)"/><path d="M296.352 191.051 275.429 182.476C270.627 180.418 265.139 182.819 263.424 187.621 261.366 192.423 263.767 197.911 268.569 199.626L289.492 208.201C290.521 208.544 291.893 208.887 292.922 208.887 296.695 208.887 300.125 206.829 301.497 203.056 303.555 198.254 301.154 192.766 296.352 191.051Z" fill="#132F1E" transform="matrix(1 0 0 1.00291 2494 146)"/><path d="M302.869 139.944 280.231 139.944C275.086 139.944 270.97 144.06 270.97 149.205 270.97 154.35 275.086 158.466 280.231 158.466L302.869 158.466C308.014 158.466 312.13 154.35 312.13 149.205 312.13 144.06 308.014 139.944 302.869 139.944Z" fill="#132F1E" transform="matrix(1 0 0 1.00291 2494 146)"/><path d="M263.424 111.132C264.796 114.562 268.226 116.963 271.999 116.963 273.028 116.963 274.4 116.62 275.429 116.277L296.352 107.702C301.154 105.644 303.212 100.499 301.497 95.697 299.439 90.895 293.951 88.837 289.492 90.552L268.569 99.127C263.767 100.842 261.366 106.33 263.424 111.132Z" fill="#132F1E" transform="matrix(1 0 0 1.00291 2494 146)"/><path d="M248.332 81.634C250.733 81.634 253.134 80.605 254.849 78.89L270.97 62.769C274.743 58.996 274.743 53.165 270.97 49.735 267.197 45.962 261.366 45.962 257.936 49.735L241.815 65.856C238.042 69.629 238.042 75.46 241.815 78.89 243.873 80.605 245.931 81.634 248.332 81.634Z" fill="#132F1E" transform="matrix(1 0 0 1.00291 2494 146)"/><path d="M209.573 57.281C210.602 57.624 211.974 57.967 213.003 57.967 216.776 57.967 220.206 55.909 221.578 52.136L230.153 31.213C232.211 26.411 229.81 20.923 225.008 19.208 220.206 17.15 214.718 19.551 213.003 24.353L204.428 45.276C202.713 49.735 204.771 55.223 209.573 57.281Z" fill="#132F1E" transform="matrix(1 0 0 1.00291 2494 146)"/></g></g></g></g></svg>