<svg width="550" height="550" xmlns="http://www.w3.org/2000/svg" xmlns:xlink="http://www.w3.org/1999/xlink" overflow="hidden"><defs><clipPath id="clip0"><rect x="35" y="1204" width="550" height="550"/></clipPath><radialGradient cx="762000" cy="762000" r="1.07763e+06" gradientUnits="userSpaceOnUse" spreadMethod="pad" id="fill1" gradientTransform="matrix(0.000360892 0 0 0.000360892 35.0001 1204)"><stop offset="0" stop-color="#FFFFCC"/><stop offset="0.17" stop-color="#FFFFCC"/><stop offset="0.33" stop-color="#00B050"/><stop offset="1" stop-color="#0F1113"/></radialGradient><linearGradient x1="307.5" y1="1209" x2="307.5" y2="1364" gradientUnits="userSpaceOnUse" spreadMethod="reflect" id="fill2"><stop offset="0" stop-color="#F5FAFF" stop-opacity="0.231373"/><stop offset="0.32" stop-color="#FFFFFF" stop-opacity="0"/><stop offset="1" stop-color="#FFFFFF" stop-opacity="0"/></linearGradient><radialGradient cx="94211" cy="102524" r="139237" fx="94211" fy="102524" gradientUnits="userSpaceOnUse" spreadMethod="pad" id="fill3" gradientTransform="matrix(0.000360892 0 0 0.000360892 38.9998 1250)"><stop offset="0" stop-color="#FFFFCC"/><stop offset="0.54" stop-color="#92D050" stop-opacity="0"/><stop offset="1" stop-color="#92D050" stop-opacity="0"/></radialGradient><radialGradient cx="110836" cy="120534" r="163748" gradientUnits="userSpaceOnUse" spreadMethod="pad" id="fill4" gradientTransform="matrix(0.000360892 0 0 0.000360892 68.0001 1295)"><stop offset="0" stop-color="#FFFFCC"/><stop offset="0.54" stop-color="#92D050" stop-opacity="0"/><stop offset="1" stop-color="#92D050" stop-opacity="0"/></radialGradient><radialGradient cx="292331" cy="278477" r="403741" fx="292331" fy="278476" gradientUnits="userSpaceOnUse" spreadMethod="pad" id="fill5" gradientTransform="matrix(0.000360892 0 0 0.000360892 372 1535)"><stop offset="0" stop-color="#FFFFCC"/><stop offset="0.54" stop-color="#92D050" stop-opacity="0"/><stop offset="1" stop-color="#92D050" stop-opacity="0"/></radialGradient><radialGradient cx="242455" cy="281247" r="371327" fx="242454" gradientUnits="userSpaceOnUse" spreadMethod="pad" id="fill6" gradientTransform="matrix(0.000360892 0 0 0.000360892 68.0001 1211)"><stop offset="0" stop-color="#FFFFCC"/><stop offset="0.54" stop-color="#92D050" stop-opacity="0"/><stop offset="1" stop-color="#92D050" stop-opacity="0"/></radialGradient><radialGradient cx="72043.5" cy="77585.5" r="105876" fx="72043.5" fy="77585.5" gradientUnits="userSpaceOnUse" spreadMethod="pad" id="fill7" gradientTransform="matrix(0.000360892 0 0 0.000360892 517 1663)"><stop offset="0" stop-color="#FFFFCC"/><stop offset="0.54" stop-color="#92D050" stop-opacity="0"/><stop offset="1" stop-color="#92D050" stop-opacity="0"/></radialGradient><radialGradient cx="77585.5" cy="84513" r="114726" fx="77585.5" fy="84513" gradientUnits="userSpaceOnUse" spreadMethod="pad" id="fill8" gradientTransform="matrix(0.000360892 0 0 0.000360892 501 1580)"><stop offset="0" stop-color="#FFFFCC"/><stop offset="0.54" stop-color="#92D050" stop-opacity="0"/><stop offset="1" stop-color="#92D050" stop-opacity="0"/></radialGradient><clipPath id="clip9"><rect x="49" y="1216" width="527" height="527"/></clipPath><clipPath id="clip10"><rect x="49" y="1216" width="527" height="527"/></clipPath><clipPath id="clip11"><rect x="49" y="1216" width="527" height="527"/></clipPath><clipPath id="clip12"><rect x="82" y="1259" width="441" height="440"/></clipPath><clipPath id="clip13"><rect x="82" y="1259" width="441" height="440"/></clipPath><clipPath id="clip14"><rect x="82" y="1259" width="441" height="440"/></clipPath></defs><g clip-path="url(#clip0)" transform="translate(-35 -1204)"><rect x="35.0001" y="1204" width="550" height="550" fill="url(#fill1)"/><path d="M68.7336 1209 546.266 1209C562.136 1209 575 1228.99 575 1253.66L575 1364C575 1325.58 554.957 1294.43 530.233 1294.43L84.7666 1294.43C60.0426 1294.43 39.9999 1325.58 39.9999 1364L39.9999 1253.66C39.9999 1228.99 52.8643 1209 68.7336 1209Z" fill="url(#fill2)" fill-rule="evenodd"/><path d="M38.9998 1287C38.9998 1266.57 54.2222 1250 72.9999 1250 91.7776 1250 107 1266.57 107 1287 107 1307.43 91.7776 1324 72.9999 1324 54.2222 1324 38.9998 1307.43 38.9998 1287Z" fill="url(#fill3)" fill-rule="evenodd"/><path d="M68.0001 1338.5C68.0001 1314.48 85.9087 1295 108 1295 130.092 1295 148 1314.48 148 1338.5 148 1362.52 130.092 1382 108 1382 85.9087 1382 68.0001 1362.52 68.0001 1338.5Z" fill="url(#fill4)" fill-rule="evenodd"/><path d="M372 1635.5C372 1580 419.234 1535 477.5 1535 535.766 1535 583 1580 583 1635.5 583 1691 535.766 1736 477.5 1736 419.234 1736 372 1691 372 1635.5Z" fill="url(#fill5)" fill-rule="evenodd"/><path d="M68.0001 1312.5C68.0001 1256.44 107.175 1211 155.5 1211 203.825 1211 243 1256.44 243 1312.5 243 1368.56 203.825 1414 155.5 1414 107.175 1414 68.0001 1368.56 68.0001 1312.5Z" fill="url(#fill6)" fill-rule="evenodd"/><path d="M517 1691C517 1675.54 528.641 1663 543 1663 557.359 1663 569 1675.54 569 1691 569 1706.46 557.359 1719 543 1719 528.641 1719 517 1706.46 517 1691Z" fill="url(#fill7)" fill-rule="evenodd"/><path d="M501 1610.5C501 1593.66 513.536 1580 529 1580 544.464 1580 557 1593.66 557 1610.5 557 1627.34 544.464 1641 529 1641 513.536 1641 501 1627.34 501 1610.5Z" fill="url(#fill8)" fill-rule="evenodd"/><g clip-path="url(#clip9)"><g clip-path="url(#clip10)"><g clip-path="url(#clip11)"><path d="M248.157 1463.34 218.967 1670.08C218.296 1674.87 214.589 1678.68 209.81 1679.47 205.032 1680.27 200.286 1677.88 198.092 1673.57L123.94 1528.15C121.903 1524.15 120.874 1519.7 120.937 1515.22L123.919 1316.89C123.972 1313.15 126.355 1309.85 129.884 1308.61 133.411 1307.37 137.328 1308.49 139.702 1311.38L239.955 1433.99C246.663 1442.21 249.645 1452.84 248.155 1463.34ZM245.005 1426.84C252.125 1435.55 263.37 1439.77 274.448 1437.9L523.642 1395.99C526.971 1395.44 529.618 1392.91 530.344 1389.62 531.058 1386.32 529.693 1382.93 526.91 1381.04L377.988 1280.22C374.335 1277.74 369.977 1276.5 365.557 1276.69L150.18 1285.83C146.421 1285.98 143.071 1288.26 141.528 1291.68 139.995 1295.12 140.532 1299.13 142.914 1302.05ZM538.692 1407.69C536.391 1404.83 532.738 1403.44 529.115 1404.05L286.145 1444.91C270.301 1447.58 258.015 1460.2 255.757 1476.1L226.819 1680.74C226.021 1686.38 228.236 1692.03 232.657 1695.63 237.078 1699.22 243.073 1700.23 248.428 1698.3L450.386 1625.34C454.722 1623.78 458.188 1620.44 459.921 1616.16L540.184 1417.83C541.549 1414.42 540.98 1410.55 538.692 1407.69Z" fill="#FFFFFF"/></g></g></g><g clip-path="url(#clip12)"><g clip-path="url(#clip13)"><g clip-path="url(#clip14)"><path d="M212.915 103.604C214.671 105.36 216.866 106.238 219.061 106.238 221.256 106.238 223.451 105.36 225.207 103.604L250.23 78.581C253.742 75.069 253.742 69.801 250.23 66.289 246.718 62.777 241.45 62.777 237.938 66.289L227.402 76.825 227.402 19.755C227.402 14.926 223.451 11.414 219.061 11.414 214.671 11.414 210.72 15.365 210.72 19.755L210.72 76.825 200.184 66.289C196.672 62.777 191.404 62.777 187.892 66.289 184.38 69.801 184.38 75.069 187.892 78.581L212.915 103.604Z" fill="#132F1E" transform="matrix(1.00228 0 0 1 82.0002 1259)"/><path d="M305.105 133.456C305.544 133.456 305.983 133.456 306.422 133.456L341.542 127.749C346.371 126.871 349.444 122.481 348.566 118.091 347.688 113.262 343.298 110.189 338.908 111.067L323.982 113.262 357.785 67.167C360.419 63.216 359.541 57.948 356.029 55.314 352.078 52.68 346.81 53.558 344.176 57.07L310.373 103.165 308.178 88.239C307.3 83.849 302.91 80.337 298.52 81.215 293.691 82.093 290.618 86.483 291.496 90.873L297.203 125.993C297.642 130.383 301.154 133.456 305.105 133.456Z" fill="#132F1E" transform="matrix(1.00228 0 0 1 82.0002 1259)"/><path d="M133.017 134.334C136.968 134.334 140.919 131.261 141.358 127.31L147.065 92.19C147.943 87.361 144.431 82.971 140.041 82.532 135.212 81.654 130.822 85.166 130.383 89.556L128.188 104.482 94.385 58.387C91.751 54.436 86.483 53.558 82.532 56.631 78.581 59.265 77.703 64.533 80.776 68.484L113.701 114.14 98.775 111.945C93.946 111.067 89.556 114.579 89.117 118.969 88.239 123.798 91.751 128.188 96.141 128.627L131.261 134.334C132.139 134.334 132.578 134.334 133.017 134.334Z" fill="#132F1E" transform="matrix(1.00228 0 0 1 82.0002 1259)"/><path d="M245.84 241.011 191.843 241.011C188.77 241.011 186.136 243.645 186.136 246.718L186.136 282.716 251.547 282.716 251.547 246.718C251.547 243.645 248.913 241.011 245.84 241.011Z" fill="#132F1E" transform="matrix(1.00228 0 0 1 82.0002 1259)"/><path d="M230.914 199.745C230.914 193.16 225.646 187.892 219.061 187.892 212.476 187.892 207.208 193.16 207.208 199.745L207.208 223.89 231.353 223.89 231.353 199.745Z" fill="#132F1E" transform="matrix(1.00228 0 0 1 82.0002 1259)"/><path d="M357.785 281.838 332.323 242.767C331.006 240.133 330.128 237.499 329.689 234.426 324.86 177.795 277.448 133.456 219.5 133.456 158.479 133.456 108.433 183.063 108.433 244.523 108.433 275.253 120.725 305.544 140.919 328.372 151.455 340.225 158.04 355.59 158.04 371.394L158.04 417.05C158.04 423.196 162.869 428.025 169.015 428.025L262.083 428.025C268.229 428.025 273.058 423.196 273.058 417.05L273.058 371.833 311.69 371.833C321.787 371.833 330.128 363.492 330.128 353.395L330.128 305.105 345.054 305.105C357.346 305.105 364.37 291.935 357.785 281.838ZM268.668 291.496C268.668 296.325 264.717 299.837 260.327 299.837L177.356 299.837C172.527 299.837 169.015 295.886 169.015 291.496L169.015 247.157C169.015 235.304 178.234 225.646 189.648 224.329L189.648 199.745C189.648 183.502 202.818 170.771 218.622 170.771 234.426 170.771 247.596 183.941 247.596 199.745L247.596 224.329C259.449 225.207 268.229 235.304 268.229 247.157L268.229 291.496Z" fill="#132F1E" transform="matrix(1.00228 0 0 1 82.0002 1259)"/></g></g></g></g></svg>