<svg width="550" height="550" xmlns="http://www.w3.org/2000/svg" xmlns:xlink="http://www.w3.org/1999/xlink" overflow="hidden"><defs><clipPath id="clip0"><rect x="1233" y="33" width="550" height="550"/></clipPath><radialGradient cx="762000" cy="762000" r="1.07763e+06" gradientUnits="userSpaceOnUse" spreadMethod="pad" id="fill1" gradientTransform="matrix(0.000360892 0 0 0.000360892 1233 33)"><stop offset="0" stop-color="#FFFFCC"/><stop offset="0.17" stop-color="#FFFFCC"/><stop offset="0.33" stop-color="#00B050"/><stop offset="1" stop-color="#0F1113"/></radialGradient><linearGradient x1="1506" y1="38.0002" x2="1506" y2="193" gradientUnits="userSpaceOnUse" spreadMethod="reflect" id="fill2"><stop offset="0" stop-color="#F5FAFF" stop-opacity="0.231373"/><stop offset="0.32" stop-color="#FFFFFF" stop-opacity="0"/><stop offset="1" stop-color="#FFFFFF" stop-opacity="0"/></linearGradient><radialGradient cx="94210.5" cy="102524" r="139236" gradientUnits="userSpaceOnUse" spreadMethod="pad" id="fill3" gradientTransform="matrix(0.000360892 0 0 0.000360892 1237 79.0001)"><stop offset="0" stop-color="#FFFFCC"/><stop offset="0.54" stop-color="#92D050" stop-opacity="0"/><stop offset="1" stop-color="#92D050" stop-opacity="0"/></radialGradient><radialGradient cx="110836" cy="121920" r="164770" fx="110836" fy="121920" gradientUnits="userSpaceOnUse" spreadMethod="pad" id="fill4" gradientTransform="matrix(0.000360892 0 0 0.000360892 1266 124)"><stop offset="0" stop-color="#FFFFCC"/><stop offset="0.54" stop-color="#92D050" stop-opacity="0"/><stop offset="1" stop-color="#92D050" stop-opacity="0"/></radialGradient><radialGradient cx="292331" cy="278477" r="403741" fx="292331" fy="278476" gradientUnits="userSpaceOnUse" spreadMethod="pad" id="fill5" gradientTransform="matrix(0.000360892 0 0 0.000360892 1570 364)"><stop offset="0" stop-color="#FFFFCC"/><stop offset="0.54" stop-color="#92D050" stop-opacity="0"/><stop offset="1" stop-color="#92D050" stop-opacity="0"/></radialGradient><radialGradient cx="243840" cy="281248" r="372234" gradientUnits="userSpaceOnUse" spreadMethod="pad" id="fill6" gradientTransform="matrix(0.000360892 0 0 0.000360892 1266 39.9999)"><stop offset="0" stop-color="#FFFFCC"/><stop offset="0.54" stop-color="#92D050" stop-opacity="0"/><stop offset="1" stop-color="#92D050" stop-opacity="0"/></radialGradient><radialGradient cx="72043.5" cy="77585.5" r="105876" fx="72043.5" fy="77585.5" gradientUnits="userSpaceOnUse" spreadMethod="pad" id="fill7" gradientTransform="matrix(0.000360892 0 0 0.000360892 1715 492)"><stop offset="0" stop-color="#FFFFCC"/><stop offset="0.54" stop-color="#92D050" stop-opacity="0"/><stop offset="1" stop-color="#92D050" stop-opacity="0"/></radialGradient><radialGradient cx="77585" cy="84512.5" r="114725" fx="77585" fy="84512.5" gradientUnits="userSpaceOnUse" spreadMethod="pad" id="fill8" gradientTransform="matrix(0.000360892 0 0 0.000360892 1699 409)"><stop offset="0" stop-color="#FFFFCC"/><stop offset="0.54" stop-color="#92D050" stop-opacity="0"/><stop offset="1" stop-color="#92D050" stop-opacity="0"/></radialGradient><clipPath id="clip9"><rect x="1248" y="46" width="527" height="525"/></clipPath><clipPath id="clip10"><rect x="1248" y="46" width="527" height="525"/></clipPath><clipPath id="clip11"><rect x="1248" y="46" width="527" height="525"/></clipPath><clipPath id="clip12"><rect x="1336" y="126" width="367" height="366"/></clipPath><clipPath id="clip13"><rect x="1336" y="126" width="367" height="366"/></clipPath><clipPath id="clip14"><rect x="1336" y="126" width="367" height="366"/></clipPath></defs><g clip-path="url(#clip0)" transform="translate(-1233 -33)"><rect x="1233" y="33" width="550" height="550" fill="url(#fill1)"/><path d="M1266.79 38.0002 1745.21 38.0002C1761.11 38.0002 1774 57.993 1774 82.6558L1774 193C1774 154.576 1753.92 123.427 1729.15 123.427L1282.85 123.427C1258.08 123.427 1238 154.576 1238 193L1238 82.6558C1238 57.993 1250.89 38.0002 1266.79 38.0002Z" fill="url(#fill2)" fill-rule="evenodd"/><path d="M1237 116C1237 95.5655 1252.22 79.0001 1271 79.0001 1289.78 79.0001 1305 95.5655 1305 116 1305 136.435 1289.78 153 1271 153 1252.22 153 1237 136.435 1237 116Z" fill="url(#fill3)" fill-rule="evenodd"/><path d="M1266 168C1266 143.7 1283.91 124 1306 124 1328.09 124 1346 143.7 1346 168 1346 192.301 1328.09 212 1306 212 1283.91 212 1266 192.301 1266 168Z" fill="url(#fill4)" fill-rule="evenodd"/><path d="M1570 464.5C1570 408.995 1617.23 364 1675.5 364 1733.77 364 1781 408.995 1781 464.5 1781 520.005 1733.77 565 1675.5 565 1617.23 565 1570 520.005 1570 464.5Z" fill="url(#fill5)" fill-rule="evenodd"/><path d="M1266 141.5C1266 85.443 1305.4 39.9999 1354 39.9999 1402.6 39.9999 1442 85.443 1442 141.5 1442 197.557 1402.6 243 1354 243 1305.4 243 1266 197.557 1266 141.5Z" fill="url(#fill6)" fill-rule="evenodd"/><path d="M1715 520C1715 504.536 1726.64 492 1741 492 1755.36 492 1767 504.536 1767 520 1767 535.464 1755.36 548 1741 548 1726.64 548 1715 535.464 1715 520Z" fill="url(#fill7)" fill-rule="evenodd"/><path d="M1699 439.5C1699 422.655 1711.54 409 1727 409 1742.46 409 1755 422.655 1755 439.5 1755 456.345 1742.46 470 1727 470 1711.54 470 1699 456.345 1699 439.5Z" fill="url(#fill8)" fill-rule="evenodd"/><g clip-path="url(#clip9)"><g clip-path="url(#clip10)"><g clip-path="url(#clip11)"><path d="M198.157 246.339 168.967 453.075C168.296 457.874 164.589 461.676 159.81 462.472 155.032 463.269 150.286 460.884 148.092 456.571L73.9401 311.146C71.9031 307.146 70.8741 302.704 70.9376 298.221L73.9195 99.8852C73.9725 96.1476 76.3547 92.851 79.884 91.612 83.4115 90.373 87.3285 91.4856 89.7019 94.384L189.955 216.993C196.663 225.205 199.645 235.84 198.155 246.34ZM195.006 209.842C202.125 218.546 213.37 222.767 224.448 220.899L473.642 178.993C476.971 178.436 479.618 175.906 480.344 172.62 481.057 169.323 479.692 165.931 476.91 164.041L327.988 63.2192C324.335 60.7412 319.977 59.5022 315.557 59.692L100.18 68.8266C96.4206 68.9837 93.0711 71.2617 91.528 74.6847 89.995 78.1182 90.5319 82.1297 92.914 85.0482ZM488.692 190.689C486.391 187.834 482.737 186.437 479.115 187.046L236.145 227.911C220.301 230.579 208.015 243.199 205.758 259.096L176.819 463.741C176.021 469.381 178.236 475.029 182.657 478.629 187.078 482.221 193.074 483.227 198.428 481.298L400.386 408.344C404.722 406.78 408.188 403.441 409.921 399.157L490.184 200.834C491.549 197.421 490.98 193.547 488.692 190.691Z" fill="#FFFFFF" transform="matrix(1.0019 0 0 1 1248 46.0001)"/></g></g></g><g clip-path="url(#clip12)"><g clip-path="url(#clip13)"><g clip-path="url(#clip14)"><path d="M285.673 331.115 301.471 331.115 301.471 339.036C301.471 340.601 302.729 341.876 304.294 341.895L330.451 341.895C332.006 341.895 333.267 340.634 333.267 339.079 333.267 339.064 333.267 339.05 333.267 339.036L333.267 331.115 349.065 331.115C350.956 331.114 352.488 329.58 352.486 327.688 352.486 326.791 352.132 325.929 351.503 325.289L321.579 294.973C319.282 292.648 315.534 292.625 313.209 294.922 313.192 294.939 313.175 294.956 313.159 294.973L283.235 325.289C281.908 326.637 281.926 328.805 283.274 330.132 283.914 330.762 284.775 331.115 285.673 331.115Z" fill="#132F1E" transform="matrix(1.00273 0 0 1 1336 126)"/><path d="M285.673 252.854 301.471 252.854 301.471 260.775C301.49 262.326 302.743 263.579 304.294 263.598L330.451 263.598C332.006 263.598 333.267 262.337 333.267 260.782 333.267 260.78 333.267 260.777 333.267 260.775L333.267 252.854 349.065 252.854C350.956 252.853 352.488 251.319 352.486 249.427 352.486 248.53 352.132 247.668 351.503 247.028L321.579 216.712C319.282 214.386 315.534 214.364 313.209 216.661 313.192 216.678 313.175 216.695 313.159 216.712L283.235 247.028C281.908 248.376 281.926 250.544 283.274 251.871 283.914 252.501 284.775 252.854 285.673 252.854Z" fill="#132F1E" transform="matrix(1.00273 0 0 1 1336 126)"/><path d="M44.7277 214.667 58.0953 268.138C60.7855 278.925 71.7109 285.488 82.4979 282.798 83.0026 282.673 83.5015 282.527 83.9941 282.363L131.646 259.081C135.373 256.852 140.201 258.068 142.429 261.796 144.657 265.523 143.442 270.352 139.714 272.58 139.503 272.706 139.287 272.821 139.066 272.927L123.21 281.419C119.941 283.171 118.406 287.02 119.572 290.541L132.153 328.556C133.796 333.833 139.407 336.779 144.684 335.136 145.64 334.838 146.546 334.399 147.372 333.832L221.394 282.506C229.984 276.565 232.752 265.125 227.828 255.914L218.22 237.95C212.913 228 213.619 215.918 220.05 206.654 231.523 190.07 247.693 159.675 247.114 120.594 247.114 120.594 247.114 95.0027 228.686 66.6591 216.665 48.0933 198.241 34.5921 176.917 28.7224 150.975 21.5954 111.701 19.0863 74.9084 49.5744 74.9084 49.5744 29.6374 85.967 38.5158 155.2L14.783 199.134C12.0194 204.251 13.9269 210.639 19.0437 213.402 20.5893 214.237 22.3193 214.672 24.0759 214.667ZM105.032 63.2922C124.383 50.3035 144.942 49.6673 159.746 51.819 176.552 54.2638 192.064 62.6917 202.386 76.1737 212.394 89.2482 215.833 104.053 216.269 117.306 216.905 136.857 196.503 150.103 178.775 141.846L108.535 109.121C89.8987 100.435 87.9615 74.744 105.032 63.2922Z" fill="#132F1E" transform="matrix(1.00273 0 0 1 1336 126)"/></g></g></g></g></svg>