<svg width="550" height="553" xmlns="http://www.w3.org/2000/svg" xmlns:xlink="http://www.w3.org/1999/xlink" overflow="hidden"><defs><clipPath id="clip0"><rect x="637" y="633" width="550" height="553"/></clipPath><radialGradient cx="762000" cy="762000" r="1.07763e+06" gradientUnits="userSpaceOnUse" spreadMethod="pad" id="fill1" gradientTransform="matrix(0.000360892 0 0 0.000360892 637 633)"><stop offset="0" stop-color="#F0E9DC"/><stop offset="0.17" stop-color="#F0E9DC"/><stop offset="0.33" stop-color="#875C39"/><stop offset="1" stop-color="#0F1113"/></radialGradient><radialGradient cx="257695" cy="281248" r="381453" fx="257694" fy="281248" gradientUnits="userSpaceOnUse" spreadMethod="pad" id="fill2" gradientTransform="matrix(0.000360892 0 0 0.000360892 658 646)"><stop offset="0" stop-color="#F0E9DC"/><stop offset="0.54" stop-color="#875C39" stop-opacity="0"/><stop offset="1" stop-color="#875C39" stop-opacity="0"/></radialGradient><linearGradient x1="909.5" y1="639" x2="909.5" y2="793" gradientUnits="userSpaceOnUse" spreadMethod="reflect" id="fill3"><stop offset="0" stop-color="#F5FAFF" stop-opacity="0.231373"/><stop offset="0.32" stop-color="#FFFFFF" stop-opacity="0"/><stop offset="1" stop-color="#FFFFFF" stop-opacity="0"/></linearGradient><radialGradient cx="94211" cy="102524" r="139236" gradientUnits="userSpaceOnUse" spreadMethod="pad" id="fill4" gradientTransform="matrix(0.000360892 0 0 0.000360892 647 697)"><stop offset="0" stop-color="#F0E9DC"/><stop offset="0.54" stop-color="#875C39" stop-opacity="0"/><stop offset="1" stop-color="#875C39" stop-opacity="0"/></radialGradient><radialGradient cx="112222" cy="120534" r="164688" gradientUnits="userSpaceOnUse" spreadMethod="pad" id="fill5" gradientTransform="matrix(0.000360892 0 0 0.000360892 676 742)"><stop offset="0" stop-color="#F0E9DC"/><stop offset="0.54" stop-color="#875C39" stop-opacity="0"/><stop offset="1" stop-color="#875C39" stop-opacity="0"/></radialGradient><radialGradient cx="292331" cy="278476" r="403740" gradientUnits="userSpaceOnUse" spreadMethod="pad" id="fill6" gradientTransform="matrix(0.000360892 0 0 0.000360892 966 961)"><stop offset="0" stop-color="#F0E9DC"/><stop offset="0.54" stop-color="#875C39" stop-opacity="0"/><stop offset="1" stop-color="#875C39" stop-opacity="0"/></radialGradient><radialGradient cx="70658" cy="77585.5" r="104938" gradientUnits="userSpaceOnUse" spreadMethod="pad" id="fill7" gradientTransform="matrix(0.000360892 0 0 0.000360892 1112 1089)"><stop offset="0" stop-color="#F0E9DC"/><stop offset="0.54" stop-color="#875C39" stop-opacity="0"/><stop offset="1" stop-color="#875C39" stop-opacity="0"/></radialGradient><radialGradient cx="77585.5" cy="84512.5" r="114725" gradientUnits="userSpaceOnUse" spreadMethod="pad" id="fill8" gradientTransform="matrix(0.000360892 0 0 0.000360892 1095 1006)"><stop offset="0" stop-color="#F0E9DC"/><stop offset="0.54" stop-color="#875C39" stop-opacity="0"/><stop offset="1" stop-color="#875C39" stop-opacity="0"/></radialGradient><clipPath id="clip9"><rect x="651" y="649" width="526" height="525"/></clipPath><clipPath id="clip10"><rect x="651" y="649" width="526" height="525"/></clipPath><clipPath id="clip11"><rect x="651" y="649" width="526" height="525"/></clipPath><clipPath id="clip12"><rect x="651" y="1050" width="123" height="123"/></clipPath><clipPath id="clip13"><rect x="651" y="1050" width="123" height="123"/></clipPath><clipPath id="clip14"><rect x="651" y="1050" width="123" height="123"/></clipPath><clipPath id="clip15"><rect x="740" y="695" width="382" height="382"/></clipPath><clipPath id="clip16"><rect x="740" y="695" width="382" height="382"/></clipPath><clipPath id="clip17"><rect x="740" y="695" width="382" height="382"/></clipPath></defs><g clip-path="url(#clip0)" transform="translate(-637 -633)"><rect x="637" y="633" width="550" height="550" fill="url(#fill1)"/><path d="M658 747.5C658 691.443 699.637 646 751 646 802.362 646 844 691.443 844 747.5 844 803.557 802.362 849 751 849 699.637 849 658 803.557 658 747.5Z" fill="url(#fill2)" fill-rule="evenodd"/><path d="M670.734 639 1148.27 639C1164.14 639 1177 658.864 1177 683.368L1177 793C1177 754.824 1156.96 723.876 1132.23 723.876L686.767 723.876C662.043 723.876 642 754.824 642 793L642 683.368C642 658.864 654.865 639 670.734 639Z" fill="url(#fill3)" fill-rule="evenodd"/><path d="M647 734C647 713.566 662.222 697 681 697 699.778 697 715 713.566 715 734 715 754.435 699.778 771 681 771 662.222 771 647 754.435 647 734Z" fill="url(#fill4)" fill-rule="evenodd"/><path d="M676 785.5C676 761.476 694.133 742 716.5 742 738.868 742 757 761.476 757 785.5 757 809.525 738.868 829 716.5 829 694.133 829 676 809.525 676 785.5Z" fill="url(#fill5)" fill-rule="evenodd"/><path d="M966 1061.5C966 1006 1013.23 961 1071.5 961 1129.77 961 1177 1006 1177 1061.5 1177 1117 1129.77 1162 1071.5 1162 1013.23 1162 966 1117 966 1061.5Z" fill="url(#fill6)" fill-rule="evenodd"/><path d="M1112 1117C1112 1101.54 1123.42 1089 1137.5 1089 1151.58 1089 1163 1101.54 1163 1117 1163 1132.46 1151.58 1145 1137.5 1145 1123.42 1145 1112 1132.46 1112 1117Z" fill="url(#fill7)" fill-rule="evenodd"/><path d="M1095 1036.5C1095 1019.66 1107.54 1006 1123 1006 1138.46 1006 1151 1019.66 1151 1036.5 1151 1053.34 1138.46 1067 1123 1067 1107.54 1067 1095 1053.34 1095 1036.5Z" fill="url(#fill8)" fill-rule="evenodd"/><g clip-path="url(#clip9)"><g clip-path="url(#clip10)"><g clip-path="url(#clip11)"><path d="M198.157 246.339 168.967 453.075C168.296 457.874 164.589 461.676 159.81 462.472 155.032 463.269 150.286 460.884 148.092 456.571L73.9401 311.146C71.9031 307.146 70.8741 302.704 70.9376 298.221L73.9195 99.8852C73.9725 96.1476 76.3547 92.851 79.884 91.612 83.4115 90.373 87.3285 91.4856 89.7019 94.384L189.955 216.993C196.663 225.205 199.645 235.84 198.155 246.34ZM195.006 209.842C202.125 218.546 213.37 222.767 224.448 220.899L473.642 178.993C476.971 178.436 479.618 175.906 480.344 172.62 481.057 169.323 479.692 165.931 476.91 164.041L327.988 63.2192C324.335 60.7412 319.977 59.5022 315.557 59.692L100.18 68.8266C96.4206 68.9837 93.0711 71.2617 91.528 74.6847 89.995 78.1182 90.5319 82.1297 92.914 85.0482ZM488.692 190.689C486.391 187.834 482.737 186.437 479.115 187.046L236.145 227.911C220.301 230.579 208.015 243.199 205.758 259.096L176.819 463.741C176.021 469.381 178.236 475.029 182.657 478.629 187.078 482.221 193.074 483.227 198.428 481.298L400.386 408.344C404.722 406.78 408.188 403.441 409.921 399.157L490.184 200.834C491.549 197.421 490.98 193.547 488.692 190.691Z" fill="#FFFFFF" transform="matrix(1.0019 0 0 1 651 649)"/></g></g></g><path d="M640.5 1183.5 640.5 924.5 888.5 1183.5Z" stroke="#0F1113" stroke-width="4.58333" stroke-miterlimit="8" fill="#FF0000" fill-rule="evenodd"/><g clip-path="url(#clip12)"><g clip-path="url(#clip13)"><g clip-path="url(#clip14)"><path d="M766.446 1079.26C765.723 1078.51 764.396 1077.58 762.516 1077.1 761.582 1076.84 760.549 1076.71 759.444 1076.65 758.888 1076.6 758.316 1076.63 757.718 1076.62 757.13 1076.66 756.515 1076.7 755.895 1076.78 753.414 1077.11 750.757 1077.91 748.237 1079.1 745.696 1080.27 743.272 1081.78 740.995 1083.39 736.454 1086.62 732.484 1090.21 728.793 1092.65 726.958 1093.88 725.206 1094.86 723.637 1095.53 722.071 1096.19 720.706 1096.59 719.732 1096.8 719.232 1096.93 719.245 1097.29 719.776 1097.34 720.886 1097.47 722.543 1097.49 724.537 1097.2 726.524 1096.91 728.833 1096.28 731.141 1095.31 731.575 1095.13 732.009 1094.93 732.443 1094.73 732.116 1096.12 732.042 1097.6 732.28 1099.11 733.263 1105.33 739.104 1109.58 745.326 1108.59 751.547 1107.61 755.794 1101.77 754.81 1095.55 754.068 1090.85 750.553 1087.28 746.197 1086.23 747.38 1085.38 748.59 1084.51 749.827 1083.68 751.815 1082.37 753.867 1081.15 755.936 1080.33 757.988 1079.5 760.092 1079.01 761.889 1078.9 763.683 1078.78 765.171 1079.19 766.121 1079.68 766.568 1079.92 766.824 1079.65 766.446 1079.26M743.766 1122.76C740.216 1128.05 732.142 1129.27 726.312 1130.03 721.711 1130.63 717.019 1130.94 712.327 1130.9 705.721 1130.84 699.112 1130.11 692.756 1128.55 686.703 1127.06 681.629 1124.69 678.922 1123.29 678.209 1122.95 677.425 1123.68 677.807 1124.39 678.205 1125.13 678.708 1126.05 679.315 1127.12 679.98 1128.13 680.745 1129.29 681.66 1130.53 682.149 1131.13 682.657 1131.75 683.183 1132.39 690.124 1140.85 701.205 1146.33 712.158 1146.44 720.629 1146.53 728.512 1143.51 735.335 1138.63 738.569 1136.29 741.4 1133.53 743.113 1130.61 743.561 1129.92 743.895 1129.16 744.21 1128.49 744.482 1127.77 744.748 1127.13 744.887 1126.47 744.965 1126.15 745.047 1125.84 745.103 1125.55 745.141 1125.24 745.178 1124.95 745.213 1124.67 745.298 1124.13 745.281 1123.62 745.275 1123.18 745.265 1122.33 744.202 1122.16 743.766 1122.76M691.426 1099.11C691.656 1097.65 691.59 1096.22 691.29 1094.87 691.972 1095.18 692.65 1095.48 693.323 1095.73 695.584 1096.61 697.749 1097.15 699.589 1097.36 701.434 1097.57 702.929 1097.5 703.947 1097.37 704.473 1097.32 704.462 1096.95 703.955 1096.84 702.887 1096.64 701.365 1096.2 699.663 1095.45 697.958 1094.7 696.081 1093.64 694.196 1092.3 690.413 1089.66 686.512 1086.07 682.712 1083.39 680.816 1082.05 678.619 1080.69 676.232 1079.53 673.834 1078.38 671.238 1077.44 668.675 1077.03 666.108 1076.6 663.681 1076.66 661.654 1077.09 659.601 1077.51 658.093 1078.48 657.296 1079.27 656.907 1079.66 657.145 1079.94 657.59 1079.72 658.468 1079.29 659.799 1078.91 661.429 1078.98 662.241 1078.99 663.138 1079.14 664.089 1079.32 664.562 1079.41 665.043 1079.56 665.534 1079.67 666.021 1079.83 666.52 1079.98 667.02 1080.16 670.397 1081.36 673.881 1083.68 677.497 1086.24 673.147 1087.28 669.637 1090.85 668.896 1095.55 667.912 1101.77 672.159 1107.61 678.38 1108.59 684.602 1109.58 690.443 1105.33 691.426 1099.11" fill-rule="evenodd"/></g></g></g><g clip-path="url(#clip15)"><g clip-path="url(#clip16)"><g clip-path="url(#clip17)"><path d="M1037.38 728.067 1014.7 766.386C1012.62 769.887 1012.21 774.129 1013.56 777.966 1016.94 787.516 1020.46 806.914 998.895 817.621 993.265 820.359 987.077 821.758 980.817 821.709L903.842 821.709C899.599 821.708 896.128 825.092 896.023 829.334 895.77 839.623 893.501 858.432 881.653 874.1 881.653 874.1 872.081 891.111 846.527 887.127 843.47 886.615 840.471 885.8 837.574 884.694 831.164 882.302 824.456 880.796 817.639 880.218 795.487 878.539 777.305 898.296 781.781 920.037 782.772 925.119 785.135 929.834 788.616 933.668 792.081 937.293 794.067 942.083 794.181 947.098 794.19 948.348 794.085 949.596 793.868 950.828 793.687 951.805 794.331 952.743 795.307 952.925 795.797 953.016 796.302 952.899 796.703 952.604 798.009 951.617 799.255 950.554 800.434 949.418 807.594 942.493 808.55 931.348 802.672 923.305 799.389 918.828 796.703 911.322 804.627 902.615 811.424 895.155 822.302 895.848 831.098 898.139 838.046 900.003 844.612 903.074 850.497 907.211 852.914 908.905 855.779 910.942 858.114 912.718 869.992 921.812 861.681 941.957 846.766 942.703 845.075 942.805 843.379 942.643 841.737 942.226 839.586 941.724 837.389 942.868 836.567 944.919 833.836 952.477 824.727 965.81 806.425 983.858L763.248 1034.52C763.015 1034.81 763.056 1035.23 763.339 1035.46 763.567 1035.65 763.892 1035.66 764.136 1035.49L821.929 994.37C825.188 992.036 829.723 992.786 832.058 996.046 832.246 996.308 832.417 996.584 832.568 996.87 835.452 1002.49 837.132 1008.64 837.5 1014.95 837.87 1019.99 834.078 1024.38 829.031 1024.75 828.702 1024.78 828.37 1024.79 828.039 1024.77 823.66 1024.6 819.355 1023.58 815.356 1021.79 812.803 1020.66 809.815 1021.25 807.895 1023.28L783.953 1048.13C783.607 1048.47 783.606 1049.03 783.948 1049.37 784.229 1049.65 784.666 1049.71 785.012 1049.51L810.722 1035.34C813.757 1033.66 817.319 1033.19 820.683 1034.04 826.183 1035.47 831.821 1036.31 837.5 1036.54 846.102 1036.84 853.318 1030.11 853.617 1021.5 853.629 1021.2 853.63 1020.89 853.623 1020.59 853.517 1013.45 852.904 1006.32 851.787 999.264 850.239 989.681 856.754 980.657 866.338 979.109 866.555 979.074 866.774 979.042 866.993 979.016 872.925 978.208 878.923 977.983 884.899 978.344 887.362 978.556 889.531 976.731 889.743 974.268 889.749 974.199 889.753 974.13 889.756 974.061 890.301 958.938 894.165 912.464 920.838 887.515 928.41 880.401 938.459 876.525 948.847 876.711 957.852 876.898 969.17 879.27 978.041 888.119 979.991 890.021 982.851 890.652 985.42 889.745 1001.83 884.09 1059.34 865.87 1094.95 875.376 1096.65 875.812 1098.39 874.788 1098.82 873.088 1098.89 872.826 1098.92 872.557 1098.92 872.287L1098.92 838.116C1098.92 836.356 1097.49 834.934 1095.73 834.94 1094.99 834.942 1094.27 835.202 1093.7 835.676 1085.97 842.257 1069.18 852.523 1040.11 851.904 1036.16 851.788 1033.06 848.495 1033.17 844.55 1033.2 843.631 1033.4 842.725 1033.77 841.883 1045.45 815.405 1066.22 793.983 1092.33 781.495 1096.35 779.57 1098.92 775.512 1098.95 771.049L1098.95 733.976C1098.95 727.564 1093.75 722.367 1087.34 722.367L1047.39 722.367C1043.28 722.357 1039.47 724.526 1037.38 728.067Z" fill="#2F2013"/><path d="M788.601 975.248C788.601 979.743 784.956 983.388 780.461 983.388 775.965 983.388 772.321 979.743 772.321 975.248 772.321 970.752 775.965 967.108 780.461 967.108 784.956 967.108 788.601 970.752 788.601 975.248Z" fill="#2F2013"/><path d="M932.149 983.388C932.149 988.464 928.034 992.579 922.957 992.579 917.881 992.579 913.765 988.464 913.765 983.388 913.765 978.311 917.881 974.196 922.957 974.196 928.034 974.196 932.149 978.311 932.149 983.388Z" fill="#2F2013"/><path d="M919.465 951.805C925.009 944.703 931.343 936.742 936.506 930.646 939.603 926.984 944.066 924.754 948.854 924.476 951.189 924.342 953.868 924.245 956.546 924.26 961.964 924.296 967.063 926.826 970.371 931.116 977.75 940.666 994.418 957.23 1015.67 946.784 1042.21 933.832 1069.77 911.367 1092.78 917.843 1096.42 918.904 1098.93 922.25 1098.92 926.05L1098.92 961.908C1098.93 962.69 1098.3 963.33 1097.52 963.336 1097.13 963.338 1096.75 963.18 1096.48 962.9L1096.27 962.691C1083.06 949.392 1062.68 946.357 1046.16 955.23 1041.85 957.528 1036.64 960.527 1030.93 964.265 1023.64 969.096 1015.1 971.69 1006.36 971.726L1006.36 971.726C995.324 971.726 984.686 967.623 976.512 960.214 970.641 954.891 965.126 949.188 960.001 943.143 957.256 939.902 953.222 938.034 948.973 938.04L948.973 938.04C945.679 938.034 942.481 939.152 939.908 941.211 935.902 944.419 929.388 949.664 922.801 955.081 921.833 955.94 920.352 955.852 919.493 954.884 918.716 954.009 918.704 952.695 919.465 951.805Z" fill="#2F2013"/><path d="M983.152 724.172C980.192 730.821 976.393 737.065 971.849 742.75 963.07 753.614 948.718 758.292 935.223 754.688 926.682 752.416 918.647 748.55 911.542 743.295 910.078 742.206 908.152 741.96 906.461 742.646 899.045 745.697 878.423 754.583 863.031 765.028 860.942 766.451 859.782 768.889 859.994 771.408 860.629 779.197 861.733 796.611 860.144 807.794 859.899 809.502 860.675 811.194 862.128 812.122 866.605 814.946 870.485 818.618 873.551 822.933 873.995 823.627 874.918 823.83 875.612 823.386 876.01 823.131 876.264 822.703 876.297 822.231L877.789 809.421C878.086 806.674 877.464 803.906 876.02 801.55 873.446 797.275 870.32 789.053 875.789 779.271 879.065 773.407 885.063 770.005 891.039 768.02 899.623 765.262 908.828 765.085 917.511 767.513 926.792 770.02 941.147 774.534 950.518 780.51 953.924 782.671 958.188 782.974 961.866 781.316 973.057 776.309 995 763.409 1004.3 736.431 1005.41 733.129 1007.02 730.011 1009.05 727.179 1010.06 725.877 1009.82 724.002 1008.52 722.992 1007.98 722.571 1007.3 722.35 1006.62 722.367L985.913 722.367C984.716 722.369 983.633 723.077 983.152 724.172Z" fill="#2F2013"/></g></g></g></g></svg>