<svg width="550" height="550" xmlns="http://www.w3.org/2000/svg" xmlns:xlink="http://www.w3.org/1999/xlink" overflow="hidden"><defs><clipPath id="clip0"><rect x="1849" y="645" width="550" height="550"/></clipPath><radialGradient cx="762000" cy="762000" r="1.07763e+06" gradientUnits="userSpaceOnUse" spreadMethod="pad" id="fill1" gradientTransform="matrix(0.000360892 0 0 0.000360892 1849 645)"><stop offset="0" stop-color="#F0E9DC"/><stop offset="0.17" stop-color="#F0E9DC"/><stop offset="0.33" stop-color="#875C39"/><stop offset="1" stop-color="#0F1113"/></radialGradient><radialGradient cx="257695" cy="282633" r="382476" fx="257694" fy="282633" gradientUnits="userSpaceOnUse" spreadMethod="pad" id="fill2" gradientTransform="matrix(0.000360892 0 0 0.000360892 1871 657)"><stop offset="0" stop-color="#F0E9DC"/><stop offset="0.54" stop-color="#875C39" stop-opacity="0"/><stop offset="1" stop-color="#875C39" stop-opacity="0"/></radialGradient><linearGradient x1="2122.5" y1="650" x2="2122.5" y2="805" gradientUnits="userSpaceOnUse" spreadMethod="reflect" id="fill3"><stop offset="0" stop-color="#F5FAFF" stop-opacity="0.231373"/><stop offset="0.32" stop-color="#FFFFFF" stop-opacity="0"/><stop offset="1" stop-color="#FFFFFF" stop-opacity="0"/></linearGradient><radialGradient cx="94211" cy="102524" r="139236" gradientUnits="userSpaceOnUse" spreadMethod="pad" id="fill4" gradientTransform="matrix(0.000360892 0 0 0.000360892 1860 708)"><stop offset="0" stop-color="#F0E9DC"/><stop offset="0.54" stop-color="#875C39" stop-opacity="0"/><stop offset="1" stop-color="#875C39" stop-opacity="0"/></radialGradient><radialGradient cx="112222" cy="121920" r="165705" fx="112222" fy="121920" gradientUnits="userSpaceOnUse" spreadMethod="pad" id="fill5" gradientTransform="matrix(0.000360892 0 0 0.000360892 1889 753)"><stop offset="0" stop-color="#F0E9DC"/><stop offset="0.54" stop-color="#875C39" stop-opacity="0"/><stop offset="1" stop-color="#875C39" stop-opacity="0"/></radialGradient><radialGradient cx="292331" cy="278476" r="403740" gradientUnits="userSpaceOnUse" spreadMethod="pad" id="fill6" gradientTransform="matrix(0.000360892 0 0 0.000360892 2179 972)"><stop offset="0" stop-color="#F0E9DC"/><stop offset="0.54" stop-color="#875C39" stop-opacity="0"/><stop offset="1" stop-color="#875C39" stop-opacity="0"/></radialGradient><radialGradient cx="72043.5" cy="77585.5" r="105876" fx="72043.5" fy="77585.5" gradientUnits="userSpaceOnUse" spreadMethod="pad" id="fill7" gradientTransform="matrix(0.000360892 0 0 0.000360892 2324 1100)"><stop offset="0" stop-color="#F0E9DC"/><stop offset="0.54" stop-color="#875C39" stop-opacity="0"/><stop offset="1" stop-color="#875C39" stop-opacity="0"/></radialGradient><radialGradient cx="77585.5" cy="84512.5" r="114725" gradientUnits="userSpaceOnUse" spreadMethod="pad" id="fill8" gradientTransform="matrix(0.000360892 0 0 0.000360892 2308 1017)"><stop offset="0" stop-color="#F0E9DC"/><stop offset="0.54" stop-color="#875C39" stop-opacity="0"/><stop offset="1" stop-color="#875C39" stop-opacity="0"/></radialGradient><clipPath id="clip9"><rect x="1864" y="660" width="526" height="525"/></clipPath><clipPath id="clip10"><rect x="1864" y="660" width="526" height="525"/></clipPath><clipPath id="clip11"><rect x="1864" y="660" width="526" height="525"/></clipPath><clipPath id="clip12"><rect x="1955" y="746" width="344" height="346"/></clipPath><clipPath id="clip13"><rect x="1955" y="746" width="344" height="346"/></clipPath><clipPath id="clip14"><rect x="1955" y="746" width="344" height="346"/></clipPath></defs><g clip-path="url(#clip0)" transform="translate(-1849 -645)"><rect x="1849" y="645" width="550" height="550" fill="url(#fill1)"/><path d="M1871 759C1871 702.667 1912.64 657 1964 657 2015.36 657 2057 702.667 2057 759 2057 815.333 2015.36 861 1964 861 1912.64 861 1871 815.333 1871 759Z" fill="url(#fill2)" fill-rule="evenodd"/><path d="M1883.73 650 2361.27 650C2377.14 650 2390 669.993 2390 694.656L2390 805C2390 766.576 2369.96 735.427 2345.23 735.427L1899.77 735.427C1875.04 735.427 1855 766.576 1855 805L1855 694.656C1855 669.993 1867.86 650 1883.73 650Z" fill="url(#fill3)" fill-rule="evenodd"/><path d="M1860 745C1860 724.566 1875.22 708 1894 708 1912.78 708 1928 724.566 1928 745 1928 765.435 1912.78 782 1894 782 1875.22 782 1860 765.435 1860 745Z" fill="url(#fill4)" fill-rule="evenodd"/><path d="M1889 797C1889 772.7 1907.13 753 1929.5 753 1951.87 753 1970 772.7 1970 797 1970 821.301 1951.87 841 1929.5 841 1907.13 841 1889 821.301 1889 797Z" fill="url(#fill5)" fill-rule="evenodd"/><path d="M2179 1072.5C2179 1017 2226.23 972 2284.5 972 2342.77 972 2390 1017 2390 1072.5 2390 1128 2342.77 1173 2284.5 1173 2226.23 1173 2179 1128 2179 1072.5Z" fill="url(#fill6)" fill-rule="evenodd"/><path d="M2324 1128C2324 1112.54 2335.64 1100 2350 1100 2364.36 1100 2376 1112.54 2376 1128 2376 1143.46 2364.36 1156 2350 1156 2335.64 1156 2324 1143.46 2324 1128Z" fill="url(#fill7)" fill-rule="evenodd"/><path d="M2308 1047.5C2308 1030.66 2320.54 1017 2336 1017 2351.46 1017 2364 1030.66 2364 1047.5 2364 1064.34 2351.46 1078 2336 1078 2320.54 1078 2308 1064.34 2308 1047.5Z" fill="url(#fill8)" fill-rule="evenodd"/><g clip-path="url(#clip9)"><g clip-path="url(#clip10)"><g clip-path="url(#clip11)"><path d="M2062.16 906.339 2032.97 1113.07C2032.3 1117.87 2028.59 1121.68 2023.81 1122.47 2019.03 1123.27 2014.29 1120.88 2012.09 1116.57L1937.94 971.146C1935.9 967.146 1934.87 962.704 1934.94 958.221L1937.92 759.885C1937.97 756.148 1940.35 752.851 1943.88 751.612 1947.41 750.373 1951.33 751.486 1953.7 754.384L2053.96 876.993C2060.66 885.205 2063.65 895.84 2062.15 906.34ZM2059.01 869.842C2066.12 878.546 2077.37 882.767 2088.45 880.899L2337.64 838.993C2340.97 838.436 2343.62 835.906 2344.34 832.62 2345.06 829.323 2343.69 825.931 2340.91 824.041L2191.99 723.219C2188.33 720.741 2183.98 719.502 2179.56 719.692L1964.18 728.827C1960.42 728.984 1957.07 731.262 1955.53 734.685 1954 738.118 1954.53 742.13 1956.91 745.048ZM2352.69 850.689C2350.39 847.834 2346.74 846.437 2343.11 847.046L2100.15 887.911C2084.3 890.579 2072.02 903.199 2069.76 919.096L2040.82 1123.74C2040.02 1129.38 2042.24 1135.03 2046.66 1138.63 2051.08 1142.22 2057.07 1143.23 2062.43 1141.3L2264.39 1068.34C2268.72 1066.78 2272.19 1063.44 2273.92 1059.16L2354.18 860.834C2355.55 857.421 2354.98 853.547 2352.69 850.691Z" fill="#FFFFFF"/></g></g></g><g clip-path="url(#clip12)"><g clip-path="url(#clip13)"><g clip-path="url(#clip14)"><path d="M119.021 188.993 90.895 174.587 90.895 154.007 91.238 154.35C94.325 158.466 98.098 161.896 102.9 164.297L121.079 173.558C122.451 174.244 123.48 174.587 124.852 174.587 128.282 174.587 131.712 172.529 133.084 169.099 134.456 164.983 132.741 160.524 128.625 158.466L110.789 149.205C108.731 148.176 106.673 146.461 105.301 144.403L94.668 129.654C91.238 124.852 85.75 122.108 79.919 122.108L62.426 122.108C56.595 122.108 51.107 124.852 47.677 129.654L37.044 144.403C35.672 146.461 33.614 148.176 31.556 149.205L13.72 158.466C9.604 160.524 7.889 165.326 9.261 169.442 11.319 174.244 16.807 176.302 21.266 173.901L39.445 164.64C43.904 162.239 48.02 158.809 50.764 154.693L51.107 154.35 51.107 174.93 22.981 189.336C18.179 191.737 16.121 197.225 17.836 202.37 19.208 206.143 22.981 209.23 27.783 209.23 28.469 209.23 29.155 209.23 29.841 208.887L68.257 202.027C70.315 201.684 72.373 201.684 74.431 202.027L98.098 206.143C100.156 203.399 102.557 201.341 105.644 199.626L122.451 191.051C121.079 190.365 120.05 189.679 119.021 188.993Z" fill="#2F2013" transform="matrix(1 0 0 1.00292 1956 747)"/><path d="M90.209 97.755C90.209 108.363 81.6093 116.963 71.001 116.963 60.3927 116.963 51.793 108.363 51.793 97.755 51.793 87.1467 60.3927 78.547 71.001 78.547 81.6093 78.547 90.209 87.1467 90.209 97.755Z" fill="#2F2013" transform="matrix(1 0 0 1.00292 1956 747)"/><path d="M329.623 158.123 311.787 148.862C309.729 147.833 307.671 146.118 306.299 144.06L295.666 129.311C292.236 124.509 286.748 121.765 280.917 121.765L263.424 121.765C257.593 121.765 252.105 124.509 248.675 129.311L238.042 144.06C236.67 146.118 234.612 147.833 232.554 148.862L214.718 158.123C210.602 160.181 208.544 164.983 210.259 169.099 212.317 173.901 217.805 175.959 222.264 173.558L240.443 164.297C244.902 161.896 249.018 158.466 252.105 154.35L252.448 154.007 252.448 174.587 224.322 188.993C223.293 189.679 222.264 190.365 221.578 191.051L238.385 199.626C241.472 201.341 244.216 203.399 245.931 206.143L269.598 202.027C271.656 201.684 273.714 201.684 275.772 202.027L314.188 208.887C314.874 208.887 315.56 209.23 316.246 209.23 320.705 209.23 324.821 206.486 326.193 202.027 327.908 196.882 325.85 191.737 321.048 188.993L292.922 174.587 292.922 154.007 293.265 154.35C296.352 158.466 300.125 161.896 304.927 164.297L323.106 173.558C324.478 174.244 325.85 174.587 327.222 174.587 330.652 174.587 334.082 172.529 335.111 169.099 335.454 164.983 333.396 160.181 329.623 158.123Z" fill="#2F2013" transform="matrix(1 0 0 1.00292 1956 747)"/><path d="M271.999 116.963C282.632 116.963 291.207 108.388 291.207 97.755 291.207 87.122 282.632 78.89 271.999 78.89 261.366 78.89 252.791 87.465 252.791 98.098 252.791 108.731 261.366 116.963 271.999 116.963Z" fill="#2F2013" transform="matrix(1 0 0 1.00292 1956 747)"/><path d="M232.211 210.602 213.346 200.655C210.945 199.626 209.23 197.911 207.515 195.51L196.196 179.732C192.766 174.587 186.935 171.843 180.761 171.843L162.239 171.843C156.065 171.843 150.234 174.93 146.804 179.732L135.485 195.51C134.113 197.568 132.055 199.283 129.654 200.655L110.789 210.602C106.673 212.66 104.272 217.805 106.33 222.264 108.388 227.409 114.219 229.467 119.021 227.066L138.229 217.119C143.031 214.718 147.147 210.945 150.577 206.486L150.92 206.143 150.92 228.095 121.079 243.53C115.934 245.931 113.876 251.762 115.591 257.25 117.306 262.052 121.422 264.796 126.224 264.796 126.91 264.796 127.596 264.796 128.282 264.796L168.756 257.593C170.814 257.25 173.215 257.25 175.273 257.593L215.061 264.11C215.747 264.11 216.433 264.453 217.119 264.453 221.921 264.453 226.037 261.366 227.752 256.907 229.467 251.419 227.066 245.931 222.264 243.187L192.423 227.752 192.423 205.8 192.766 206.143C195.853 210.602 199.969 214.375 205.114 216.776L224.322 226.723C225.694 227.409 227.066 227.752 228.438 227.752 232.211 227.752 235.641 225.694 237.013 221.921 238.385 217.462 236.327 212.66 232.211 210.602Z" fill="#2F2013" transform="matrix(1 0 0 1.00292 1956 747)"/><path d="M171.5 166.698C182.476 166.698 191.737 157.78 191.737 146.461 191.737 135.142 182.819 126.224 171.5 126.224 160.524 126.224 151.263 135.142 151.263 146.461 151.263 157.78 160.524 166.698 171.5 166.698Z" fill="#2F2013" transform="matrix(1 0 0 1.00292 1956 747)"/><path d="M171.5 112.504C174.587 112.504 177.331 109.76 177.331 106.673L177.331 91.924C177.331 88.837 174.587 86.093 171.5 86.093 168.413 86.093 165.669 88.837 165.669 91.924L165.669 106.673C165.669 110.103 168.413 112.504 171.5 112.504Z" fill="#2F2013" transform="matrix(1 0 0 1.00292 1956 747)"/><path d="M144.746 112.847C145.775 115.248 147.833 116.62 150.234 116.62 150.92 116.62 151.606 116.62 152.292 116.277 155.379 115.248 156.751 111.818 155.722 108.731L150.577 95.011C149.548 91.924 146.118 90.552 143.031 91.581 139.944 92.61 138.572 96.04 139.601 99.127L144.746 112.847Z" fill="#2F2013" transform="matrix(1 0 0 1.00292 1956 747)"/><path d="M190.708 115.934C191.394 116.277 192.08 116.277 192.766 116.277 195.167 116.277 197.225 114.905 198.254 112.504L203.399 98.784C204.428 95.697 203.056 92.61 199.969 91.238 196.882 90.209 193.795 91.581 192.423 94.668L187.278 108.388C186.249 111.475 187.964 114.905 190.708 115.934Z" fill="#2F2013" transform="matrix(1 0 0 1.00292 1956 747)"/></g></g></g></g></svg>