<svg width="550" height="550" xmlns="http://www.w3.org/2000/svg" xmlns:xlink="http://www.w3.org/1999/xlink" overflow="hidden"><defs><clipPath id="clip0"><rect x="1273" y="1250" width="550" height="550"/></clipPath><radialGradient cx="762000" cy="762000" r="1.07763e+06" gradientUnits="userSpaceOnUse" spreadMethod="pad" id="fill1" gradientTransform="matrix(0.000360892 0 0 0.000360892 1273 1250)"><stop offset="0" stop-color="#F0E9DC"/><stop offset="0.17" stop-color="#F0E9DC"/><stop offset="0.33" stop-color="#875C39"/><stop offset="1" stop-color="#0F1113"/></radialGradient><radialGradient cx="256309" cy="282633" r="381544" fx="256309" fy="282633" gradientUnits="userSpaceOnUse" spreadMethod="pad" id="fill2" gradientTransform="matrix(0.000360892 0 0 0.000360892 1295 1262)"><stop offset="0" stop-color="#F0E9DC"/><stop offset="0.54" stop-color="#875C39" stop-opacity="0"/><stop offset="1" stop-color="#875C39" stop-opacity="0"/></radialGradient><linearGradient x1="1546" y1="1255" x2="1546" y2="1410" gradientUnits="userSpaceOnUse" spreadMethod="reflect" id="fill3"><stop offset="0" stop-color="#F5FAFF" stop-opacity="0.231373"/><stop offset="0.32" stop-color="#FFFFFF" stop-opacity="0"/><stop offset="1" stop-color="#FFFFFF" stop-opacity="0"/></linearGradient><radialGradient cx="95596.5" cy="102524" r="140178" gradientUnits="userSpaceOnUse" spreadMethod="pad" id="fill4" gradientTransform="matrix(0.000360892 0 0 0.000360892 1283 1313)"><stop offset="0" stop-color="#F0E9DC"/><stop offset="0.54" stop-color="#875C39" stop-opacity="0"/><stop offset="1" stop-color="#875C39" stop-opacity="0"/></radialGradient><radialGradient cx="112221" cy="121920" r="165705" fx="112222" fy="121920" gradientUnits="userSpaceOnUse" spreadMethod="pad" id="fill5" gradientTransform="matrix(0.000360892 0 0 0.000360892 1312 1358)"><stop offset="0" stop-color="#F0E9DC"/><stop offset="0.54" stop-color="#875C39" stop-opacity="0"/><stop offset="1" stop-color="#875C39" stop-opacity="0"/></radialGradient><radialGradient cx="293716" cy="278476" r="404745" gradientUnits="userSpaceOnUse" spreadMethod="pad" id="fill6" gradientTransform="matrix(0.000360892 0 0 0.000360892 1602 1577)"><stop offset="0" stop-color="#F0E9DC"/><stop offset="0.54" stop-color="#875C39" stop-opacity="0"/><stop offset="1" stop-color="#875C39" stop-opacity="0"/></radialGradient><radialGradient cx="72043.5" cy="77585.5" r="105876" fx="72043.5" fy="77585.5" gradientUnits="userSpaceOnUse" spreadMethod="pad" id="fill7" gradientTransform="matrix(0.000360892 0 0 0.000360892 1748 1705)"><stop offset="0" stop-color="#F0E9DC"/><stop offset="0.54" stop-color="#875C39" stop-opacity="0"/><stop offset="1" stop-color="#875C39" stop-opacity="0"/></radialGradient><radialGradient cx="77585" cy="84512.5" r="114725" fx="77585" fy="84512.5" gradientUnits="userSpaceOnUse" spreadMethod="pad" id="fill8" gradientTransform="matrix(0.000360892 0 0 0.000360892 1732 1622)"><stop offset="0" stop-color="#F0E9DC"/><stop offset="0.54" stop-color="#875C39" stop-opacity="0"/><stop offset="1" stop-color="#875C39" stop-opacity="0"/></radialGradient><clipPath id="clip9"><rect x="1288" y="1265" width="525" height="525"/></clipPath><clipPath id="clip10"><rect x="1288" y="1265" width="525" height="525"/></clipPath><clipPath id="clip11"><rect x="1288" y="1265" width="525" height="525"/></clipPath><clipPath id="clip12"><rect x="1357" y="1349" width="364" height="365"/></clipPath><clipPath id="clip13"><rect x="1357" y="1349" width="364" height="365"/></clipPath><clipPath id="clip14"><rect x="1357" y="1349" width="364" height="365"/></clipPath></defs><g clip-path="url(#clip0)" transform="translate(-1273 -1250)"><rect x="1273" y="1250" width="550" height="550" fill="url(#fill1)"/><path d="M1295 1364C1295 1307.67 1336.41 1262 1387.5 1262 1438.59 1262 1480 1307.67 1480 1364 1480 1420.33 1438.59 1466 1387.5 1466 1336.41 1466 1295 1420.33 1295 1364Z" fill="url(#fill2)" fill-rule="evenodd"/><path d="M1306.79 1255 1785.21 1255C1801.11 1255 1814 1274.99 1814 1299.66L1814 1410C1814 1371.58 1793.92 1340.43 1769.15 1340.43L1322.85 1340.43C1298.08 1340.43 1278 1371.58 1278 1410L1278 1299.66C1278 1274.99 1290.89 1255 1306.79 1255Z" fill="url(#fill3)" fill-rule="evenodd"/><path d="M1283 1350C1283 1329.57 1298.45 1313 1317.5 1313 1336.55 1313 1352 1329.57 1352 1350 1352 1370.43 1336.55 1387 1317.5 1387 1298.45 1387 1283 1370.43 1283 1350Z" fill="url(#fill4)" fill-rule="evenodd"/><path d="M1312 1402C1312 1377.7 1330.13 1358 1352.5 1358 1374.87 1358 1393 1377.7 1393 1402 1393 1426.3 1374.87 1446 1352.5 1446 1330.13 1446 1312 1426.3 1312 1402Z" fill="url(#fill5)" fill-rule="evenodd"/><path d="M1602 1677.5C1602 1622 1649.46 1577 1708 1577 1766.54 1577 1814 1622 1814 1677.5 1814 1733 1766.54 1778 1708 1778 1649.46 1778 1602 1733 1602 1677.5Z" fill="url(#fill6)" fill-rule="evenodd"/><path d="M1748 1733C1748 1717.54 1759.64 1705 1774 1705 1788.36 1705 1800 1717.54 1800 1733 1800 1748.46 1788.36 1761 1774 1761 1759.64 1761 1748 1748.46 1748 1733Z" fill="url(#fill7)" fill-rule="evenodd"/><path d="M1732 1652.5C1732 1635.66 1744.54 1622 1760 1622 1775.46 1622 1788 1635.66 1788 1652.5 1788 1669.34 1775.46 1683 1760 1683 1744.54 1683 1732 1669.34 1732 1652.5Z" fill="url(#fill8)" fill-rule="evenodd"/><g clip-path="url(#clip9)"><g clip-path="url(#clip10)"><g clip-path="url(#clip11)"><path d="M1486.16 1511.34 1456.97 1718.07C1456.3 1722.87 1452.59 1726.68 1447.81 1727.47 1443.03 1728.27 1438.29 1725.88 1436.09 1721.57L1361.94 1576.15C1359.9 1572.15 1358.87 1567.7 1358.94 1563.22L1361.92 1364.89C1361.97 1361.15 1364.35 1357.85 1367.88 1356.61 1371.41 1355.37 1375.33 1356.49 1377.7 1359.38L1477.96 1481.99C1484.66 1490.21 1487.64 1500.84 1486.15 1511.34ZM1483.01 1474.84C1490.12 1483.55 1501.37 1487.77 1512.45 1485.9L1761.64 1443.99C1764.97 1443.44 1767.62 1440.91 1768.34 1437.62 1769.06 1434.32 1767.69 1430.93 1764.91 1429.04L1615.99 1328.22C1612.33 1325.74 1607.98 1324.5 1603.56 1324.69L1388.18 1333.83C1384.42 1333.98 1381.07 1336.26 1379.53 1339.68 1377.99 1343.12 1378.53 1347.13 1380.91 1350.05ZM1776.69 1455.69C1774.39 1452.83 1770.74 1451.44 1767.11 1452.05L1524.15 1492.91C1508.3 1495.58 1496.02 1508.2 1493.76 1524.1L1464.82 1728.74C1464.02 1734.38 1466.24 1740.03 1470.66 1743.63 1475.08 1747.22 1481.07 1748.23 1486.43 1746.3L1688.39 1673.34C1692.72 1671.78 1696.19 1668.44 1697.92 1664.16L1778.18 1465.83C1779.55 1462.42 1778.98 1458.55 1776.69 1455.69Z" fill="#FFFFFF"/></g></g></g><g clip-path="url(#clip12)"><g clip-path="url(#clip13)"><g clip-path="url(#clip14)"><path d="M315.86 180.713C307.706 175.467 302.999 168.887 297.951 164.981 295.244 162.882 293.66 159.65 293.661 156.225L293.661 148.426C293.658 145.342 294.942 142.396 297.206 140.301 302.897 134.898 308.059 128.963 312.62 122.576 313.814 120.918 315.263 119.46 316.916 118.259 325.629 111.92 325.629 104.745 325.629 104.745 325.849 88.616 314.959 93.1818 314.959 93.1818 319.851 34.9742 277.83 34.5346 277.83 34.5346 277.83 34.5346 235.808 34.9742 240.693 93.1818 240.693 93.1818 229.81 88.616 230.058 104.745 230.058 104.745 230.058 111.913 238.765 118.259 240.421 119.459 241.874 120.917 243.068 122.576 247.625 128.966 252.786 134.901 258.482 140.301 260.742 142.398 262.026 145.343 262.026 148.426L262.026 156.225C262.027 159.648 260.444 162.878 257.737 164.974 252.689 168.887 247.981 175.467 239.828 180.713 239.828 180.713 213.596 198.636 213.596 220.331L213.596 331.642C213.596 337.421 218.281 342.106 224.06 342.106 224.062 342.106 224.065 342.106 224.067 342.106L331.606 342.106C337.386 342.106 342.071 337.421 342.071 331.642L342.071 220.331C342.071 198.636 315.86 180.713 315.86 180.713ZM291.754 79.6544C294.828 79.6544 297.32 82.1465 297.32 85.2199 297.32 88.2934 294.828 90.7855 291.754 90.7855 288.681 90.7855 286.189 88.2934 286.189 85.2199 286.184 82.15 288.67 79.6587 291.74 79.6544 291.749 79.6544 291.759 79.6544 291.768 79.6544ZM258.368 85.2199C258.364 82.1465 260.853 79.6516 263.927 79.6473 267 79.6431 269.495 82.1323 269.499 85.2057 269.503 88.2792 267.014 90.7741 263.941 90.7784 263.939 90.7784 263.936 90.7784 263.934 90.7784 260.867 90.7741 258.382 88.287 258.382 85.2199ZM277.844 128.936C267.272 128.936 258.701 120.366 258.701 109.793L258.701 108.319C258.706 106.524 260.161 105.071 261.956 105.071L293.732 105.071C295.527 105.071 296.982 106.524 296.986 108.319L296.986 109.793C296.986 120.36 288.425 128.928 277.858 128.936Z" fill="#2F2013" transform="matrix(1 0 0 1.00275 1357 1350)"/><path d="M135.82 21.6028C137.196 30.0113 142.662 43.0992 152.779 50.267 153.47 50.7824 153.611 51.7598 153.095 52.45 152.968 52.6204 152.807 52.763 152.623 52.869 148.178 55.2086 140.67 62.8302 136.6 78.91 136.497 79.4084 136.01 79.7295 135.511 79.6267 135.107 79.5438 134.807 79.2014 134.778 78.7894 133.842 71.1324 130.701 59.4767 120.456 54.5776 119.304 53.9848 118.85 52.5699 119.443 51.4174 119.56 51.1902 119.713 50.9836 119.896 50.8058 124.15 46.7575 131.949 41.589 134.31 21.6169 134.346 21.1996 134.714 20.8906 135.132 20.927 135.493 20.9585 135.782 21.2417 135.82 21.6028Z" fill="#2F2013" transform="matrix(1 0 0 1.00275 1357 1350)"/><path d="M115.21 279.12C116.507 287.082 121.69 299.475 131.268 306.267 131.921 306.748 132.061 307.666 131.58 308.319 131.457 308.486 131.3 308.625 131.12 308.727 126.915 310.939 119.776 318.157 115.954 333.386 115.871 333.86 115.418 334.176 114.944 334.093 114.541 334.022 114.242 333.681 114.224 333.272 113.331 326.026 110.361 314.988 100.662 310.344 99.5754 309.776 99.155 308.435 99.7229 307.349 99.8293 307.146 99.9668 306.96 100.13 306.799 104.185 302.97 111.53 298.085 113.778 279.148 113.77 278.753 114.084 278.426 114.48 278.418 114.875 278.41 115.202 278.724 115.21 279.12Z" fill="#2F2013" transform="matrix(1 0 0 1.00275 1357 1350)"/><path d="M231.618 20.9292C212.199 20.9292 193.574 29.2952 181.195 44.2548 175.876 50.7865 171.245 57.85 167.377 65.3329 156.033 86.886 150.489 110.992 150.489 135.338L150.489 163.775C126.143 132.332 73.3019 66.524 28.8202 27.6504 26.8521 25.9157 23.8504 26.105 22.1158 28.0732 21.3553 28.9359 20.9338 30.0453 20.9292 31.1953L20.9292 89.0059C58.0942 108.063 74.3157 128.95 74.3157 128.95 55.6624 117.379 32.67 114.331 20.9292 113.53L20.9292 123.292C20.9311 128.914 25.2145 133.61 30.8125 134.126 46.0556 135.544 76.2442 141.442 101.994 164.995 115.153 176.909 119.627 195.689 113.253 212.256 108.752 224.14 101.402 234.738 91.8489 243.118 89.9878 244.748 87.1569 244.562 85.5262 242.701 85.4433 242.607 85.3653 242.51 85.2908 242.409 82.3606 238.322 80.0415 233.829 78.4066 229.073 77.9521 227.926 76.6547 227.365 75.5075 227.819 74.8234 228.09 74.3165 228.681 74.1527 229.399 71.6074 242.303 65.6094 265.82 52.9399 287.316 51.5333 289.768 52.381 292.896 54.8333 294.303 56.0506 295.001 57.5012 295.169 58.8457 294.767 74.5213 290.017 100.917 279.779 119.06 261.048 120.229 259.836 120.195 257.907 118.984 256.737 118.373 256.148 117.545 255.84 116.699 255.887 113.807 256.067 110.905 256.018 108.021 255.738 105.558 255.496 103.758 253.304 104 250.841 104.102 249.801 104.563 248.83 105.305 248.095 115.231 238.375 135.678 217.835 150.51 199.934L150.51 330.202C150.506 336.751 155.809 342.063 162.357 342.071L172.872 342.071C179.426 342.071 184.74 336.757 184.74 330.202L184.74 139.578C184.74 105.745 195.878 72.7276 216.949 46.2541 222.173 39.6652 227.972 33.5533 234.277 27.9907 235.949 26.5181 236.11 23.969 234.638 22.2971 233.874 21.4295 232.774 20.9314 231.618 20.9292Z" fill="#2F2013" transform="matrix(1 0 0 1.00275 1357 1350)"/><path d="M53.2093 27.1187 108.553 92.4941C111.835 96.1099 117.543 91.8986 115.04 87.6943L77.726 27.3526C75.3601 23.3705 71.0707 20.9296 66.4389 20.9292L55.953 20.9292C53.9091 20.9267 52.2502 22.5817 52.2477 24.6257 52.2466 25.5474 52.5895 26.4364 53.2093 27.1187Z" fill="#2F2013" transform="matrix(1 0 0 1.00275 1357 1350)"/><path d="M135.75 111.346C135.75 115.046 133.577 118.045 130.896 118.045 128.215 118.045 126.042 115.046 126.042 111.346 126.042 107.646 128.215 104.647 130.896 104.647 133.577 104.647 135.75 107.646 135.75 111.346Z" fill="#2F2013" transform="matrix(0.821908 -0.56962 0.568055 0.824172 1316.94 1444.34)"/></g></g></g></g></svg>