<svg width="552" height="550" xmlns="http://www.w3.org/2000/svg" xmlns:xlink="http://www.w3.org/1999/xlink" overflow="hidden"><defs><clipPath id="clip0"><rect x="2394" y="38" width="552" height="550"/></clipPath><radialGradient cx="762000" cy="762000" r="1.07763e+06" gradientUnits="userSpaceOnUse" spreadMethod="pad" id="fill1" gradientTransform="matrix(0.000360892 0 0 0.000360892 2396 38.0002)"><stop offset="0" stop-color="#F0E9DC"/><stop offset="0.17" stop-color="#F0E9DC"/><stop offset="0.33" stop-color="#875C39"/><stop offset="1" stop-color="#0F1113"/></radialGradient><radialGradient cx="257695" cy="281248" r="381453" fx="257694" fy="281248" gradientUnits="userSpaceOnUse" spreadMethod="pad" id="fill2" gradientTransform="matrix(0.000360892 0 0 0.000360892 2418 50.9999)"><stop offset="0" stop-color="#F0E9DC"/><stop offset="0.54" stop-color="#875C39" stop-opacity="0"/><stop offset="1" stop-color="#875C39" stop-opacity="0"/></radialGradient><linearGradient x1="2669.5" y1="44" x2="2669.5" y2="198" gradientUnits="userSpaceOnUse" spreadMethod="reflect" id="fill3"><stop offset="0" stop-color="#F5FAFF" stop-opacity="0.231373"/><stop offset="0.32" stop-color="#FFFFFF" stop-opacity="0"/><stop offset="1" stop-color="#FFFFFF" stop-opacity="0"/></linearGradient><radialGradient cx="94211" cy="102524" r="139236" gradientUnits="userSpaceOnUse" spreadMethod="pad" id="fill4" gradientTransform="matrix(0.000360892 0 0 0.000360892 2407 102)"><stop offset="0" stop-color="#F0E9DC"/><stop offset="0.54" stop-color="#875C39" stop-opacity="0"/><stop offset="1" stop-color="#875C39" stop-opacity="0"/></radialGradient><radialGradient cx="110836" cy="120534" r="163747" fx="110836" fy="120534" gradientUnits="userSpaceOnUse" spreadMethod="pad" id="fill5" gradientTransform="matrix(0.000360892 0 0 0.000360892 2436 147)"><stop offset="0" stop-color="#F0E9DC"/><stop offset="0.54" stop-color="#875C39" stop-opacity="0"/><stop offset="1" stop-color="#875C39" stop-opacity="0"/></radialGradient><radialGradient cx="292331" cy="279862" r="404697" gradientUnits="userSpaceOnUse" spreadMethod="pad" id="fill6" gradientTransform="matrix(0.000360892 0 0 0.000360892 2726 365)"><stop offset="0" stop-color="#F0E9DC"/><stop offset="0.54" stop-color="#875C39" stop-opacity="0"/><stop offset="1" stop-color="#875C39" stop-opacity="0"/></radialGradient><radialGradient cx="72043.5" cy="77585.5" r="105876" fx="72043.5" fy="77585.5" gradientUnits="userSpaceOnUse" spreadMethod="pad" id="fill7" gradientTransform="matrix(0.000360892 0 0 0.000360892 2871 494)"><stop offset="0" stop-color="#F0E9DC"/><stop offset="0.54" stop-color="#875C39" stop-opacity="0"/><stop offset="1" stop-color="#875C39" stop-opacity="0"/></radialGradient><radialGradient cx="77585.5" cy="83127" r="113708" gradientUnits="userSpaceOnUse" spreadMethod="pad" id="fill8" gradientTransform="matrix(0.000360892 0 0 0.000360892 2855 411)"><stop offset="0" stop-color="#F0E9DC"/><stop offset="0.54" stop-color="#875C39" stop-opacity="0"/><stop offset="1" stop-color="#875C39" stop-opacity="0"/></radialGradient><clipPath id="clip9"><rect x="2411" y="52" width="525" height="527"/></clipPath><clipPath id="clip10"><rect x="2411" y="52" width="525" height="527"/></clipPath><clipPath id="clip11"><rect x="2411" y="52" width="525" height="527"/></clipPath><clipPath id="clip12"><rect x="2403" y="154" width="508" height="336"/></clipPath><clipPath id="clip13"><rect x="2403" y="154" width="508" height="336"/></clipPath><clipPath id="clip14"><rect x="2403" y="154" width="508" height="336"/></clipPath><clipPath id="clip15"><rect x="2406" y="451" width="123" height="123"/></clipPath><clipPath id="clip16"><rect x="2406" y="451" width="123" height="123"/></clipPath><clipPath id="clip17"><rect x="2406" y="451" width="123" height="123"/></clipPath></defs><g clip-path="url(#clip0)" transform="translate(-2394 -38)"><rect x="2396" y="38.0002" width="550" height="550" fill="url(#fill1)"/><path d="M2418 152.5C2418 96.443 2459.64 50.9999 2511 50.9999 2562.36 50.9999 2604 96.443 2604 152.5 2604 208.557 2562.36 254 2511 254 2459.64 254 2418 208.557 2418 152.5Z" fill="url(#fill2)" fill-rule="evenodd"/><path d="M2430.73 44 2908.27 44C2924.14 44 2937 63.8639 2937 88.3676L2937 198C2937 159.824 2916.96 128.876 2892.23 128.876L2446.77 128.876C2422.04 128.876 2402 159.824 2402 198L2402 88.3676C2402 63.8639 2414.86 44 2430.73 44Z" fill="url(#fill3)" fill-rule="evenodd"/><path d="M2407 139C2407 118.566 2422.22 102 2441 102 2459.78 102 2475 118.566 2475 139 2475 159.435 2459.78 176 2441 176 2422.22 176 2407 159.435 2407 139Z" fill="url(#fill4)" fill-rule="evenodd"/><path d="M2436 190.5C2436 166.476 2453.91 147 2476 147 2498.09 147 2516 166.476 2516 190.5 2516 214.525 2498.09 234 2476 234 2453.91 234 2436 214.525 2436 190.5Z" fill="url(#fill5)" fill-rule="evenodd"/><path d="M2726 466C2726 410.219 2773.23 365 2831.5 365 2889.77 365 2937 410.219 2937 466 2937 521.781 2889.77 567 2831.5 567 2773.23 567 2726 521.781 2726 466Z" fill="url(#fill6)" fill-rule="evenodd"/><path d="M2871 522C2871 506.536 2882.64 494 2897 494 2911.36 494 2923 506.536 2923 522 2923 537.464 2911.36 550 2897 550 2882.64 550 2871 537.464 2871 522Z" fill="url(#fill7)" fill-rule="evenodd"/><path d="M2855 441C2855 424.432 2867.54 411 2883 411 2898.46 411 2911 424.432 2911 441 2911 457.569 2898.46 471 2883 471 2867.54 471 2855 457.569 2855 441Z" fill="url(#fill8)" fill-rule="evenodd"/><g clip-path="url(#clip9)"><g clip-path="url(#clip10)"><g clip-path="url(#clip11)"><path d="M198.157 246.339 168.967 453.075C168.296 457.874 164.589 461.676 159.81 462.472 155.032 463.269 150.286 460.884 148.092 456.571L73.9401 311.146C71.9031 307.146 70.8741 302.704 70.9376 298.221L73.9195 99.8852C73.9725 96.1476 76.3547 92.851 79.884 91.612 83.4115 90.373 87.3285 91.4856 89.7019 94.384L189.955 216.993C196.663 225.205 199.645 235.84 198.155 246.34ZM195.006 209.842C202.125 218.546 213.37 222.767 224.448 220.899L473.642 178.993C476.971 178.436 479.618 175.906 480.344 172.62 481.057 169.323 479.692 165.931 476.91 164.041L327.988 63.2192C324.335 60.7412 319.977 59.5022 315.557 59.692L100.18 68.8266C96.4206 68.9837 93.0711 71.2617 91.528 74.6847 89.995 78.1182 90.5319 82.1297 92.914 85.0482ZM488.692 190.689C486.391 187.834 482.737 186.437 479.115 187.046L236.145 227.911C220.301 230.579 208.015 243.199 205.758 259.096L176.819 463.741C176.021 469.381 178.236 475.029 182.657 478.629 187.078 482.221 193.074 483.227 198.428 481.298L400.386 408.344C404.722 406.78 408.188 403.441 409.921 399.157L490.184 200.834C491.549 197.421 490.98 193.547 488.692 190.691Z" fill="#FFFFFF" transform="matrix(1 0 0 1.0019 2411 52.9999)"/></g></g></g><g clip-path="url(#clip12)"><g clip-path="url(#clip13)"><g clip-path="url(#clip14)"><path d="M129.652 243.159C126.621 238.264 122.408 234.181 117.413 231.3 120.753 235.071 124.803 239.109 129.652 243.159Z" fill="#2F2013" transform="matrix(1.00024 0 0 1 2404.03 154)"/><path d="M490.617 285.861C492.459 282.618 493.516 278.873 493.516 274.878 493.516 262.579 483.545 252.608 471.245 252.608 468.775 252.608 466.403 253.016 464.183 253.758 464.249 253.073 464.286 252.38 464.286 251.678 464.286 239.893 454.73 230.336 442.943 230.336 437.843 230.336 433.164 232.127 429.493 235.111 425.719 231.852 421.238 229.391 416.309 227.988 416.432 226.777 416.497 225.547 416.497 224.303 416.497 210.035 408.129 197.724 396.036 191.999L397.933 183.937 391.468 190.208C388.091 189.148 384.497 188.577 380.771 188.577 377.714 188.577 374.747 188.962 371.915 189.684 378.372 180.522 383.414 168.562 385.519 153.171 385.519 153.171 384.51 155.998 382.009 160.533 375.562 172.22 359.194 195.249 324.614 210.48 322.079 211.597 319.453 212.673 316.721 213.697 318.764 216.469 327.249 217.319 337.638 214.376 337.613 214.426 337.584 214.482 337.559 214.531 336.213 217.135 335.091 219.202 334.311 220.606 333.531 222.012 333.112 222.726 333.112 222.729L327.772 231.829 337.929 229.906 338.142 229.866C338.467 229.748 360.074 225.787 380.265 212.295 374.522 226.949 366.102 239.783 358.344 249.593 356.04 252.512 353.805 255.145 351.716 257.5 359.491 254.49 366.188 251.023 371.875 247.489 380.303 235.521 388.662 220.5 393.29 203.373 401.202 208.646 406.884 216.991 408.647 226.704 408.025 226.671 407.399 226.652 406.77 226.652 402.987 226.652 399.349 227.264 395.938 228.38 394.544 231.431 393.06 234.289 391.496 236.956 382.303 246.613 360.602 264.727 323.235 270.665 320.506 271.098 317.718 271.485 314.822 271.78 316.257 275.396 326.269 278.73 339.218 277.51 340.082 278.563 341.628 280.246 343.923 281.969 347.422 284.602 352.829 287.312 359.812 287.307 361.54 287.309 363.35 287.141 365.229 286.781 360.153 297.53 352.167 305.339 344.689 310.761 339.975 314.179 335.502 316.608 332.242 318.162 330.612 318.942 329.286 319.5 328.385 319.86 327.934 320.04 327.592 320.169 327.37 320.249 327.148 320.332 327.085 320.35 327.085 320.353L322.542 321.886 325.611 330.975 330.155 329.439C330.45 329.332 339.72 326.195 350.315 318.528 359.674 311.752 370.174 301.277 375.885 286.156 376.619 284.212 377.284 282.201 377.847 280.1L380.671 269.542 370.992 274.611C370.718 274.753 370.457 274.872 370.191 275.003 366.067 277.026 362.652 277.708 359.811 277.715 356.139 277.709 353.256 276.578 351.034 275.204 356.151 273.684 361.44 271.408 366.634 268.176 376.501 262.035 386.028 252.442 393.398 238.015 395.224 237.666 397.108 237.475 399.036 237.475 415.52 237.475 428.884 250.838 428.884 267.323 428.884 267.502 428.873 267.679 428.87 267.858 424.206 268.896 419.898 270.87 416.148 273.572 419.143 272.734 422.297 272.276 425.561 272.276 444.822 272.276 460.434 287.888 460.434 307.15 460.434 318.646 454.869 328.841 446.287 335.193 448.87 334.434 451.327 333.384 453.623 332.079 464.152 326.098 471.261 314.789 471.261 301.813 471.261 297.392 470.429 293.168 468.926 289.279 469.891 289.168 470.87 289.103 471.865 289.103 485.873 289.103 497.229 300.46 497.229 314.465 497.229 323.551 492.45 331.514 485.272 335.994 497.526 333.759 506.82 323.035 506.82 310.136 506.816 299.198 500.128 289.819 490.617 285.861ZM353.738 215.17C351.221 216.145 348.86 216.965 346.739 217.646 348.057 215.063 349.55 212.04 351.131 208.674 355.655 206.091 360.184 202.764 364.422 198.562 367.32 197.803 370.363 197.395 373.501 197.395 376.648 197.395 379.7 197.807 382.608 198.571 373.415 206.372 362.614 211.744 353.738 215.17ZM457.38 253.564C457.38 255.082 457.161 256.546 456.787 257.947 453.875 260.435 451.611 263.659 450.288 267.333 449.466 267.923 448.588 268.437 447.665 268.874 445.546 268.154 443.337 267.633 441.057 267.332 441.383 265.419 441.561 263.455 441.561 261.449 441.561 252.616 438.264 244.558 432.843 238.422 435.128 237.274 437.699 236.613 440.432 236.613 449.793 236.614 457.38 244.202 457.38 253.564ZM467.965 287.038C464.644 279.972 459.018 274.209 452.053 270.712 454.55 263.972 461.017 259.159 468.625 259.159 478.394 259.159 486.31 267.077 486.31 276.843 486.31 279.465 485.725 281.946 484.699 284.183 483.338 283.966 481.944 283.85 480.523 283.85 475.975 283.851 471.697 285.006 467.965 287.038Z" fill="#2F2013" transform="matrix(1.00024 0 0 1 2404.03 154)"/><path d="M394.169 229.014C386.566 231.969 380.26 237.512 376.336 244.571 385.045 238.571 390.888 232.734 394.169 229.014Z" fill="#2F2013" transform="matrix(1.00024 0 0 1 2404.03 154)"/><path d="M279.314 232.337C279.333 232.12 279.347 231.902 279.347 231.679L279.347 186.208 291.215 201.289C292.604 203.056 294.695 204.121 296.941 204.211 297.043 204.215 297.146 204.217 297.248 204.217 299.383 204.217 301.422 203.326 302.879 201.752L326.217 176.496C329.091 173.384 328.899 168.53 325.789 165.656 322.677 162.779 317.823 162.971 314.947 166.083L297.712 184.732 288.829 173.444C294.192 166.049 297.835 155.322 295.731 140.806 295.731 140.806 295.613 142.592 294.929 145.58 293.178 153.208 287.677 168.733 270.755 182.84 268.289 183.537 266.35 183.526 265.458 182.84 272.992 177.246 278.56 171.307 282.684 165.636L279.537 161.636C278.191 159.926 276.265 158.948 274.257 158.751 270.337 166.278 262.466 171.432 253.408 171.432 244.352 171.432 236.481 166.278 232.561 158.752 230.552 158.949 228.624 159.927 227.278 161.638L227.276 161.636 217.168 174.483C227.672 185.619 243.382 197.788 266.275 206.483 265.133 208.021 261.981 208.951 257.619 208.949 223.353 193.686 207.199 170.756 200.847 159.126 198.382 154.613 197.391 151.802 197.391 151.802 199.06 164.394 202.72 174.679 207.517 183.014L191.869 166.08C188.993 162.968 184.139 162.778 181.027 165.655 177.916 168.529 177.724 173.383 180.6 176.497L203.938 201.751C205.393 203.326 207.434 204.216 209.569 204.216 209.672 204.216 209.774 204.214 209.875 204.21 212.122 204.12 214.21 203.055 215.601 201.288L218.636 197.431C221.484 200.216 224.458 202.609 227.471 204.647L227.471 231.678C227.471 231.901 227.485 232.119 227.504 232.335L213.889 289.056C220.152 292.916 227.396 296.591 235.714 299.745L250.272 239.092 256.546 239.092 262.843 265.327C270.933 260.231 277.723 254.797 283.404 249.374L279.314 232.337Z" fill="#2F2013" transform="matrix(1.00024 0 0 1 2404.03 154)"/><path d="M274.987 147.935C274.987 159.853 265.326 169.514 253.408 169.514 241.491 169.514 231.83 159.853 231.83 147.935 231.83 136.018 241.491 126.357 253.408 126.357 265.326 126.357 274.987 136.018 274.987 147.935Z" fill="#2F2013" transform="matrix(1.00024 0 0 1 2404.03 154)"/><path d="M341.043 72.412 335.788 62.0869 332.208 73.1035C332.208 73.1035 332.083 73.4871 331.812 74.2553 330.863 76.9512 328.221 83.9858 324.379 91.0521 322.26 95.0206 319.691 98.9633 316.991 102.139 316.615 98.7686 316.045 94.7099 315.189 90.2724 322.32 80.2858 327.132 65.9231 324.477 46.5513 324.477 46.5513 324.301 48.9364 323.361 52.928 320.927 63.256 313.302 84.4231 290.014 103.521 288.315 104.915 286.554 106.301 284.682 107.669 287.433 109.819 297.533 107.339 306.964 99.2663 307.319 101.81 307.569 104.092 307.742 106 307.916 107.925 308.016 109.469 308.071 110.521 308.126 111.572 308.134 112.084 308.137 112.084L308.297 120.185 315.321 116.146C324.124 110.938 330.11 100.98 334.522 92.3315 335.227 90.9217 335.882 89.5445 336.484 88.2258 338.065 95.1587 338.705 102.964 338.69 110.655 338.69 113.674 338.593 116.673 338.432 119.6 342.424 115.278 345.644 111.019 348.228 107.04 347.931 94.9755 346.185 82.5962 341.043 72.412Z" fill="#2F2013" transform="matrix(1.00024 0 0 1 2404.03 154)"/><path d="M254.784 18.2488C240.331 10.609 228.507 5.91445 228.402 5.87226L213.609 0 222.696 13.068C228.528 21.3657 231.131 27.6494 231.047 31.5796 230.973 34.6121 230.029 36.769 226.692 39.6979 224.479 41.5872 221.169 43.5389 216.758 45.503 218.105 48.1836 219.692 50.9897 221.535 53.8736 226.087 51.7934 229.842 49.5771 232.882 47.025 237.755 43.0191 240.713 37.5285 240.639 31.5796 240.598 27.9591 239.709 24.3733 238.124 20.6454 243.197 23.0402 249.298 26.0871 255.64 29.6269 259.5 31.7742 263.452 34.1172 267.309 36.5983 269.1 33.5437 270.501 30.6282 271.592 27.9505 265.93 24.3618 260.176 21.1115 254.784 18.2488Z" fill="#2F2013" transform="matrix(1.00024 0 0 1 2404.03 154)"/><path d="M363.343 178.139C367.841 164.387 371.271 149.328 371.293 135.006L371.293 118.47 362.445 132.44 362.447 132.44C362.278 132.701 360.113 135.919 356.035 139.427 353.221 141.85 349.53 144.401 344.941 146.31 345.455 143.401 346.027 139.813 346.55 135.769 355.288 126.66 361.735 111.893 359.529 89.3574 359.529 89.3574 359.111 93.1476 357.124 98.9853 353.572 109.418 344.997 126.396 324.807 140.005 321.455 142.263 317.786 144.431 313.762 146.459 316.419 149.155 325.912 149.067 335.608 143.999 335.285 145.861 334.982 147.466 334.73 148.739 334.511 149.842 334.33 150.705 334.204 151.282 334.078 151.862 334.015 152.134 334.015 152.136L332.31 159.427 339.647 157.924C348.726 156.062 355.75 151.962 360.758 147.967 358.742 162.528 353.77 177.807 348.545 190.674 354.274 186.55 359.174 182.297 363.343 178.139Z" fill="#2F2013" transform="matrix(1.00024 0 0 1 2404.03 154)"/><path d="M297.206 48.7235C291.751 42.5463 284.744 36.8371 277.292 31.7119 277.953 27.0001 277.932 21.7186 276.921 15.8176 276.921 15.8176 276.85 17.6062 276.241 20.61 274.688 28.2804 269.586 43.9417 253.029 58.478 251.811 59.5483 250.546 60.6138 249.2 61.6678 252.373 63.982 267.925 57.8978 274.642 41.5863 280.579 45.8713 285.962 50.4354 290.002 55.0532 296.732 62.6537 301.128 73.4315 303.838 83.5888 306.551 80.2283 308.88 76.9138 310.869 73.7077 307.896 64.9286 303.591 56.0305 297.206 48.7235Z" fill="#2F2013" transform="matrix(1.00024 0 0 1 2404.03 154)"/><path d="M184.232 268.347C181.138 264.239 179.753 261.602 179.753 261.602 186.035 283.68 197.647 297.38 209.954 305.447L206.252 320.872C204.723 327.241 208.648 333.641 215.015 335.167 221.382 336.698 227.784 332.777 229.314 326.406L232.165 314.531C244.311 316.889 254.057 314.777 255.837 311.472 253.007 310.847 250.273 310.156 247.627 309.414 211.51 299.277 192.202 278.932 184.232 268.347Z" fill="#2F2013" transform="matrix(1.00024 0 0 1 2404.03 154)"/><path d="M211.289 92.7669C209.411 90.3433 208.554 88.7705 208.554 88.7705 218.866 123.386 251.149 122.516 253.723 117.589 252.049 117.241 250.443 116.846 248.876 116.426 227.595 110.732 216.082 98.9556 211.289 92.7669Z" fill="#2F2013" transform="matrix(1.00024 0 0 1 2404.03 154)"/><path d="M103.468 272.261C107.6 281.683 112.567 289.286 117.986 295.383 129.098 307.89 142.108 314.043 153.747 316.435 154.673 317.165 155.596 317.872 156.506 318.531 167.101 326.198 176.371 329.334 176.665 329.44L181.21 330.975 184.278 321.891 179.736 320.356C179.736 320.356 179.673 320.335 179.45 320.252 178.623 319.952 176.099 318.974 172.675 317.222 179.792 316.238 184.692 313.815 185.615 311.345 182.735 311.11 179.962 310.783 177.246 310.408 125.652 303.278 103.468 272.261 103.468 272.261Z" fill="#2F2013" transform="matrix(1.00024 0 0 1 2404.03 154)"/><path d="M128.099 166.191C126.11 162.178 125.332 159.684 125.332 159.684 126.466 171.885 129.809 181.717 134.349 189.559 131.684 188.924 128.906 188.579 126.046 188.579 122.318 188.579 118.724 189.151 115.347 190.21L108.884 183.946 110.781 192.001C98.6871 197.727 90.3203 210.037 90.3203 224.305 90.3203 225.549 90.3846 226.779 90.5083 227.99 85.5788 229.393 81.0981 231.853 77.3243 235.113 73.653 232.129 68.9729 230.338 63.8736 230.338 52.0869 230.338 42.5309 239.895 42.5309 251.68 42.5309 252.381 42.5674 253.075 42.6326 253.759 40.4134 253.018 38.0407 252.61 35.5711 252.61 23.2713 252.61 13.3001 262.58 13.3001 274.88 13.3001 278.875 14.357 282.62 16.1993 285.863 6.68841 289.819 0 299.198 0 310.142 0 323.041 9.29318 333.765 21.5479 336 14.3694 331.52 9.59049 323.556 9.59049 314.47 9.59049 300.465 20.9466 289.108 34.9544 289.108 35.9499 289.108 36.9301 289.171 37.8939 289.284 36.3911 293.173 35.5577 297.397 35.5577 301.817 35.5577 314.792 42.6662 326.102 53.1956 332.084 55.4925 333.388 57.9486 334.439 60.5323 335.198 51.9497 328.845 46.3844 318.651 46.3844 307.155 46.3844 287.893 61.9967 272.281 81.2583 272.281 84.521 272.281 87.6753 272.739 90.6704 273.577 86.9195 270.875 82.6115 268.901 77.9476 267.862 77.9448 267.684 77.9342 267.507 77.9342 267.328 77.9342 250.843 91.2976 237.48 107.782 237.48 108.465 237.48 109.139 237.51 109.81 237.555 116.789 252.939 127.136 262.846 137.59 268.851 143.58 272.293 149.605 274.455 155.051 275.633 152.933 276.805 150.25 277.729 147.006 277.717 144.161 277.713 140.748 277.03 136.626 275.007 136.359 274.876 136.1 274.758 135.827 274.616L126.146 269.548 128.97 280.105C129.533 282.205 130.199 284.216 130.933 286.161 131.551 287.796 132.227 289.371 132.949 290.898 137.563 293.367 142.737 295.732 148.491 297.838 145.894 294.56 143.528 290.891 141.59 286.785 143.47 287.145 145.279 287.312 147.006 287.31 153.987 287.315 159.391 284.604 162.893 281.972 166.114 279.555 167.865 277.216 168.304 276.602 172.055 276.211 174.701 275.144 175.655 273.678 173.454 272.996 171.322 272.277 169.241 271.531L168.454 270.859C168.169 270.885 167.881 270.91 167.586 270.928 118.434 252.63 103.433 217.278 103.433 217.278 104.119 220.759 104.953 224.042 105.905 227.155 104 226.832 102.046 226.656 100.049 226.656 99.4198 226.656 98.7935 226.675 98.1721 226.708 99.1167 221.499 101.188 216.687 104.13 212.528 104.059 212.185 103.982 211.851 103.913 211.505 103.913 211.505 104.035 211.79 104.285 212.31 106.803 208.806 109.934 205.773 113.529 203.378 118.115 220.35 126.365 235.258 134.717 247.171 141.315 252.104 149.167 256.924 158.434 261.165 158.007 260.71 157.571 260.238 157.124 259.751 147.842 249.62 134.547 232.751 126.533 212.287 146.729 225.792 168.349 229.754 168.674 229.872L168.888 229.912 179.046 231.839 173.704 222.734C173.704 222.731 173.284 222.018 172.505 220.612 171.886 219.497 171.044 217.949 170.053 216.062 176.41 217.301 181.303 216.653 182.78 214.821 180.453 213.831 178.238 212.794 176.086 211.731 146.597 197.188 133.246 176.57 128.099 166.191ZM49.4351 253.564C49.4351 244.202 57.0231 236.614 66.3844 236.614 69.1167 236.614 71.6879 237.274 73.9734 238.423 68.5509 244.558 65.2537 252.617 65.2537 261.45 65.2537 263.456 65.433 265.42 65.7581 267.333 63.4785 267.634 61.2698 268.155 59.1512 268.875 58.2277 268.438 57.3502 267.924 56.5282 267.335 55.2048 263.659 52.9404 260.435 50.0278 257.946 49.6528 256.546 49.4351 255.082 49.4351 253.564ZM26.2923 283.851C24.871 283.851 23.4756 283.967 22.1147 284.184 21.0904 281.947 20.5045 279.466 20.5045 276.844 20.5045 267.077 28.4214 259.16 38.1893 259.16 45.7984 259.16 52.2653 263.973 54.7607 270.713 47.7961 274.21 42.1703 279.973 38.8491 287.039 35.1194 285.006 30.8411 283.851 26.2923 283.851ZM124.212 198.57C127.119 197.806 130.169 197.395 133.314 197.395 135.727 197.395 138.082 197.638 140.361 198.094 145.465 204.102 151.291 208.426 156.973 211.384 158.075 213.674 159.122 215.778 160.075 217.645 150.487 214.55 136.007 208.603 124.212 198.57Z" fill="#2F2013" transform="matrix(1.00024 0 0 1 2404.03 154)"/><path d="M312.048 213.33C312.048 213.33 311.295 216.212 309.214 220.912 303.849 233.027 289.652 257.218 256.768 275.273 254.358 276.596 251.853 277.888 249.239 279.137 251.207 281.37 257.882 281.739 266.193 279.281L277.505 326.405C279.033 332.776 285.435 336.696 291.804 335.166 298.169 333.64 302.095 327.239 300.565 320.871L287.737 267.426C300.018 256.993 310.757 239.796 312.048 213.33Z" fill="#2F2013" transform="matrix(1.00024 0 0 1 2404.03 154)"/><path d="M207.98 30.7682C207.093 26.7661 206.95 24.379 206.95 24.379 205.533 33.7815 205.902 42.0198 207.455 49.1666 199.154 52.6777 193.832 59.3853 190.901 66.6405 187.716 74.426 186.844 82.9788 186.833 90.6167 186.834 93.4622 186.961 96.183 187.155 98.688 184.795 95.3764 182.627 91.6323 180.867 88.0397 178.87 84.0568 177.291 80.2829 176.221 77.5276 175.685 76.1513 175.278 75.0273 175.003 74.2563 174.732 73.4881 174.609 73.1044 174.607 73.1044L171.029 62.0955 165.773 72.4101C162.368 79.1493 160.456 86.8534 159.46 94.7895 161.792 98.4579 164.663 102.383 168.19 106.387 168.382 100.108 169.039 93.8736 170.328 88.221 170.93 89.5416 171.586 90.9207 172.292 92.3324 176.705 100.981 182.691 110.939 191.493 116.147L201.056 121.651 198.556 110.902C198.556 110.902 198.533 110.805 198.478 110.545 198.086 108.734 196.417 100.284 196.423 90.6167 196.41 83.748 197.287 76.2856 199.769 70.2887 202.013 64.9535 205.196 60.8775 210.317 58.4099 219.684 81.1825 241.604 89.3066 245.923 86.0228 244.07 84.6313 242.329 83.2215 240.647 81.8049 217.618 62.3957 210.275 41.1269 207.98 30.7682Z" fill="#2F2013" transform="matrix(1.00024 0 0 1 2404.03 154)"/><path d="M151.047 87.4777C149.06 81.64 148.642 77.8498 148.642 77.8498 146.676 97.9304 151.581 111.841 158.856 121.08 159.461 131.173 160.794 140.214 161.873 146.31 157.064 144.31 153.242 141.606 150.386 139.085 148.308 137.252 146.758 135.524 145.752 134.287 145.249 133.668 144.883 133.174 144.651 132.849 144.535 132.686 144.455 132.567 144.408 132.498 144.391 132.473 144.379 132.453 144.369 132.441L144.37 132.441 135.522 118.477 135.522 135.006C135.548 151.464 140.069 168.896 145.549 184.202 149.825 188.606 154.957 193.112 161.115 197.424 159.641 194.049 158.144 190.45 156.687 186.674 152.057 174.714 147.869 161.049 146.058 147.971 151.067 151.965 158.09 156.063 167.167 157.925L174.507 159.43 172.799 152.135C172.799 152.135 172.736 151.862 172.61 151.283 172.057 148.753 170.433 140.783 169.299 130.594 180.041 137.504 191.455 137.951 194.409 134.952 190.387 132.923 186.717 130.756 183.364 128.497 163.174 114.888 154.6 97.9102 151.047 87.4777Z" fill="#2F2013" transform="matrix(1.00024 0 0 1 2404.03 154)"/></g></g></g><path d="M2396.5 583.5 2396.5 324.5 2643.5 583.5Z" stroke="#0F1113" stroke-width="4.58333" stroke-miterlimit="8" fill="#FF0000" fill-rule="evenodd"/><g clip-path="url(#clip15)"><g clip-path="url(#clip16)"><g clip-path="url(#clip17)"><path d="M2522.45 479.257C2521.72 478.513 2520.4 477.582 2518.52 477.098 2517.58 476.838 2516.55 476.715 2515.44 476.645 2514.89 476.601 2514.32 476.629 2513.72 476.625 2513.13 476.663 2512.51 476.698 2511.9 476.78 2509.41 477.105 2506.76 477.909 2504.24 479.1 2501.7 480.272 2499.27 481.781 2496.99 483.387 2492.45 486.623 2488.48 490.206 2484.79 492.648 2482.96 493.882 2481.21 494.856 2479.64 495.526 2478.07 496.191 2476.71 496.594 2475.73 496.804 2475.23 496.926 2475.24 497.291 2475.78 497.336 2476.89 497.466 2478.54 497.489 2480.54 497.202 2482.52 496.913 2484.83 496.28 2487.14 495.307 2487.58 495.127 2488.01 494.928 2488.44 494.73 2488.12 496.125 2488.04 497.604 2488.28 499.107 2489.26 505.329 2495.1 509.575 2501.33 508.592 2507.55 507.608 2511.79 501.767 2510.81 495.546 2510.07 490.847 2506.55 487.278 2502.2 486.235 2503.38 485.382 2504.59 484.512 2505.83 483.681 2507.81 482.37 2509.87 481.15 2511.94 480.327 2513.99 479.496 2516.09 479.011 2517.89 478.896 2519.68 478.776 2521.17 479.192 2522.12 479.68 2522.57 479.915 2522.82 479.651 2522.45 479.257M2499.77 522.761C2496.22 528.05 2488.14 529.268 2482.31 530.028 2477.71 530.628 2473.02 530.935 2468.33 530.897 2461.72 530.844 2455.11 530.108 2448.76 528.547 2442.7 527.06 2437.63 524.69 2434.92 523.289 2434.21 522.945 2433.42 523.678 2433.81 524.39 2434.2 525.132 2434.71 526.05 2435.32 527.119 2435.98 528.125 2436.74 529.294 2437.66 530.532 2438.15 531.128 2438.66 531.748 2439.18 532.388 2446.12 540.849 2457.2 546.334 2468.16 546.443 2476.63 546.526 2484.51 543.514 2491.33 538.628 2494.57 536.288 2497.4 533.527 2499.11 530.614 2499.56 529.922 2499.9 529.164 2500.21 528.492 2500.48 527.771 2500.75 527.129 2500.89 526.468 2500.96 526.146 2501.05 525.843 2501.1 525.546 2501.14 525.244 2501.18 524.953 2501.21 524.675 2501.3 524.133 2501.28 523.624 2501.27 523.183 2501.26 522.328 2500.2 522.158 2499.77 522.761M2447.43 499.107C2447.66 497.654 2447.59 496.225 2447.29 494.87 2447.97 495.183 2448.65 495.478 2449.32 495.735 2451.58 496.615 2453.75 497.149 2455.59 497.359 2457.43 497.567 2458.93 497.503 2459.95 497.371 2460.47 497.316 2460.46 496.95 2459.95 496.836 2458.89 496.637 2457.36 496.195 2455.66 495.453 2453.96 494.704 2452.08 493.637 2450.2 492.3 2446.41 489.659 2442.51 486.074 2438.71 483.387 2436.82 482.048 2434.62 480.687 2432.23 479.526 2429.83 478.384 2427.24 477.443 2424.67 477.028 2422.11 476.602 2419.68 476.664 2417.65 477.087 2415.6 477.506 2414.09 478.48 2413.3 479.273 2412.91 479.663 2413.14 479.942 2413.59 479.718 2414.47 479.291 2415.8 478.914 2417.43 478.977 2418.24 478.991 2419.14 479.137 2420.09 479.324 2420.56 479.408 2421.04 479.56 2421.53 479.673 2422.02 479.83 2422.52 479.976 2423.02 480.161 2426.4 481.363 2429.88 483.678 2433.5 486.237 2429.15 487.284 2425.64 490.851 2424.9 495.546 2423.91 501.767 2428.16 507.608 2434.38 508.592 2440.6 509.575 2446.44 505.329 2447.43 499.107" fill-rule="evenodd"/></g></g></g></g></svg>