<svg width="550" height="550" xmlns="http://www.w3.org/2000/svg" xmlns:xlink="http://www.w3.org/1999/xlink" overflow="hidden"><defs><clipPath id="clip0"><rect x="35" y="633" width="550" height="550"/></clipPath><radialGradient cx="762000" cy="762000" r="1.07763e+06" gradientUnits="userSpaceOnUse" spreadMethod="pad" id="fill1" gradientTransform="matrix(0.000360892 0 0 0.000360892 35.0001 633)"><stop offset="0" stop-color="#F0E9DC"/><stop offset="0.17" stop-color="#F0E9DC"/><stop offset="0.33" stop-color="#875C39"/><stop offset="1" stop-color="#0F1113"/></radialGradient><radialGradient cx="257695" cy="281248" r="381453" fx="257694" fy="281248" gradientUnits="userSpaceOnUse" spreadMethod="pad" id="fill2" gradientTransform="matrix(0.000360892 0 0 0.000360892 57.0001 646)"><stop offset="0" stop-color="#F0E9DC"/><stop offset="0.54" stop-color="#875C39" stop-opacity="0"/><stop offset="1" stop-color="#875C39" stop-opacity="0"/></radialGradient><linearGradient x1="308.5" y1="639" x2="308.5" y2="793" gradientUnits="userSpaceOnUse" spreadMethod="reflect" id="fill3"><stop offset="0" stop-color="#F5FAFF" stop-opacity="0.231373"/><stop offset="0.32" stop-color="#FFFFFF" stop-opacity="0"/><stop offset="1" stop-color="#FFFFFF" stop-opacity="0"/></linearGradient><radialGradient cx="94211" cy="102524" r="139236" gradientUnits="userSpaceOnUse" spreadMethod="pad" id="fill4" gradientTransform="matrix(0.000360892 0 0 0.000360892 46.0001 697)"><stop offset="0" stop-color="#F0E9DC"/><stop offset="0.54" stop-color="#875C39" stop-opacity="0"/><stop offset="1" stop-color="#875C39" stop-opacity="0"/></radialGradient><radialGradient cx="110836" cy="120534" r="163748" gradientUnits="userSpaceOnUse" spreadMethod="pad" id="fill5" gradientTransform="matrix(0.000360892 0 0 0.000360892 74.9999 742)"><stop offset="0" stop-color="#F0E9DC"/><stop offset="0.54" stop-color="#875C39" stop-opacity="0"/><stop offset="1" stop-color="#875C39" stop-opacity="0"/></radialGradient><radialGradient cx="292331" cy="278476" r="403740" gradientUnits="userSpaceOnUse" spreadMethod="pad" id="fill6" gradientTransform="matrix(0.000360892 0 0 0.000360892 365 961)"><stop offset="0" stop-color="#F0E9DC"/><stop offset="0.54" stop-color="#875C39" stop-opacity="0"/><stop offset="1" stop-color="#875C39" stop-opacity="0"/></radialGradient><radialGradient cx="72043.5" cy="77585.5" r="105876" fx="72043.5" fy="77585.5" gradientUnits="userSpaceOnUse" spreadMethod="pad" id="fill7" gradientTransform="matrix(0.000360892 0 0 0.000360892 510 1089)"><stop offset="0" stop-color="#F0E9DC"/><stop offset="0.54" stop-color="#875C39" stop-opacity="0"/><stop offset="1" stop-color="#875C39" stop-opacity="0"/></radialGradient><radialGradient cx="77585.5" cy="84512.5" r="114725" gradientUnits="userSpaceOnUse" spreadMethod="pad" id="fill8" gradientTransform="matrix(0.000360892 0 0 0.000360892 494 1006)"><stop offset="0" stop-color="#F0E9DC"/><stop offset="0.54" stop-color="#875C39" stop-opacity="0"/><stop offset="1" stop-color="#875C39" stop-opacity="0"/></radialGradient><clipPath id="clip9"><rect x="49" y="649" width="527" height="525"/></clipPath><clipPath id="clip10"><rect x="49" y="649" width="527" height="525"/></clipPath><clipPath id="clip11"><rect x="49" y="649" width="527" height="525"/></clipPath><clipPath id="clip12"><rect x="207" y="740" width="187" height="388"/></clipPath><clipPath id="clip13"><rect x="207" y="740" width="187" height="388"/></clipPath><clipPath id="clip14"><rect x="207" y="740" width="187" height="388"/></clipPath></defs><g clip-path="url(#clip0)" transform="translate(-35 -633)"><rect x="35.0001" y="633" width="550" height="550" fill="url(#fill1)"/><path d="M57.0001 747.5C57.0001 691.443 98.6376 646 150 646 201.363 646 243 691.443 243 747.5 243 803.557 201.363 849 150 849 98.6376 849 57.0001 803.557 57.0001 747.5Z" fill="url(#fill2)" fill-rule="evenodd"/><path d="M69.7336 639 547.266 639C563.136 639 576 658.864 576 683.368L576 793C576 754.824 555.957 723.876 531.233 723.876L85.7667 723.876C61.0426 723.876 40.9999 754.824 40.9999 793L40.9999 683.368C40.9999 658.864 53.8643 639 69.7336 639Z" fill="url(#fill3)" fill-rule="evenodd"/><path d="M46.0001 734C46.0001 713.566 61.2224 697 80.0001 697 98.7778 697 114 713.566 114 734 114 754.435 98.7778 771 80.0001 771 61.2224 771 46.0001 754.435 46.0001 734Z" fill="url(#fill4)" fill-rule="evenodd"/><path d="M74.9999 785.5C74.9999 761.476 92.9086 742 115 742 137.091 742 155 761.476 155 785.5 155 809.525 137.091 829 115 829 92.9086 829 74.9999 809.525 74.9999 785.5Z" fill="url(#fill5)" fill-rule="evenodd"/><path d="M365 1061.5C365 1006 412.234 961 470.5 961 528.766 961 576 1006 576 1061.5 576 1117 528.766 1162 470.5 1162 412.234 1162 365 1117 365 1061.5Z" fill="url(#fill6)" fill-rule="evenodd"/><path d="M510 1117C510 1101.54 521.641 1089 536 1089 550.359 1089 562 1101.54 562 1117 562 1132.46 550.359 1145 536 1145 521.641 1145 510 1132.46 510 1117Z" fill="url(#fill7)" fill-rule="evenodd"/><path d="M494 1036.5C494 1019.66 506.536 1006 522 1006 537.464 1006 550 1019.66 550 1036.5 550 1053.34 537.464 1067 522 1067 506.536 1067 494 1053.34 494 1036.5Z" fill="url(#fill8)" fill-rule="evenodd"/><g clip-path="url(#clip9)"><g clip-path="url(#clip10)"><g clip-path="url(#clip11)"><path d="M248.157 895.339 218.967 1102.07C218.296 1106.87 214.589 1110.68 209.81 1111.47 205.032 1112.27 200.286 1109.88 198.092 1105.57L123.94 960.146C121.903 956.146 120.874 951.704 120.937 947.221L123.919 748.885C123.972 745.148 126.355 741.851 129.884 740.612 133.411 739.373 137.328 740.486 139.702 743.384L239.955 865.993C246.663 874.205 249.645 884.84 248.155 895.34ZM245.005 858.842C252.125 867.546 263.37 871.767 274.448 869.899L523.642 827.993C526.971 827.436 529.618 824.906 530.344 821.62 531.058 818.323 529.693 814.931 526.91 813.041L377.988 712.219C374.335 709.741 369.977 708.502 365.557 708.692L150.18 717.827C146.421 717.984 143.071 720.262 141.528 723.685 139.995 727.118 140.532 731.13 142.914 734.048ZM538.692 839.689C536.391 836.834 532.738 835.437 529.115 836.046L286.145 876.911C270.301 879.579 258.015 892.199 255.757 908.096L226.819 1112.74C226.021 1118.38 228.236 1124.03 232.657 1127.63 237.078 1131.22 243.073 1132.23 248.428 1130.3L450.386 1057.34C454.722 1055.78 458.188 1052.44 459.921 1048.16L540.184 849.834C541.549 846.421 540.98 842.547 538.692 839.691Z" fill="#FFFFFF"/></g></g></g><g clip-path="url(#clip12)"><g clip-path="url(#clip13)"><g clip-path="url(#clip14)"><path d="M10.1095 128.525C11.2298 128.525 12.3678 128.338 13.4844 127.941 23.8238 124.252 32.3772 117.631 39.6082 110.197 47.3217 102.232 53.6269 93.2136 58.7978 84.9393L58.7978 138.283C58.7978 138.622 58.8155 138.956 58.8483 139.286 58.842 139.915 58.8622 140.549 58.9317 141.191L72.8253 267.495C73.7158 275.575 80.5539 281.558 88.4998 281.558 89.0771 281.558 89.6593 281.528 90.2466 281.462 91.1396 281.363 91.9985 281.177 92.8346 280.94 93.6708 281.178 94.5309 281.365 95.4239 281.462 96.0112 281.528 96.5935 281.558 97.1707 281.558 105.117 281.558 111.955 275.576 112.844 267.495L126.739 141.191C126.75 141.088 126.748 140.989 126.758 140.888 126.988 140.058 127.119 139.186 127.119 138.283L127.119 84.9658C129.433 88.6602 131.97 92.4999 134.737 96.3055 144.063 109.011 155.972 121.989 172.43 127.941 173.545 128.337 174.684 128.524 175.804 128.524 179.963 128.525 183.859 125.938 185.328 121.791 187.194 116.532 184.44 110.759 179.181 108.893 172.892 106.685 166.62 102.132 160.803 96.1236 152.056 87.142 144.569 75.1582 138.859 65.2596 135.984 60.2933 133.559 55.8865 131.362 52.3398 130.236 50.5475 129.223 48.9889 127.864 47.3848 127.159 46.5777 126.388 45.734 125.097 44.7791 124.194 44.1527 122.899 43.3115 120.982 42.8467 120.799 42.7734 120.611 42.714 120.422 42.6522 115.261 52.5709 104.892 59.3649 92.9572 59.3649 81.0238 59.3649 70.6541 52.5709 65.4933 42.6522 65.295 42.7178 65.0954 42.7822 64.9009 42.8606 63.8917 43.1157 63.0354 43.4656 62.3659 43.8154 60.0457 45.0949 59.0795 46.2519 58.1322 47.2825 56.4776 49.2238 55.3004 51.1146 53.9136 53.378 49.2529 61.118 42.997 73.2118 34.8073 84.4555 26.6884 95.722 16.7241 105.469 6.73209 108.891 1.4702 110.756-1.28074 116.531 0.582269 121.791 2.05247 125.934 5.95026 128.524 10.1095 128.525Z" fill="#2F2013" transform="matrix(1.00047 0 0 1 208 740.093)"/><path d="M121.376 28.4188C121.376 44.114 108.652 56.8375 92.9572 56.8375 77.2619 56.8375 64.5384 44.114 64.5384 28.4188 64.5384 12.7235 77.2619-8.97456e-15 92.9572-8.97456e-15 108.652-1.34618e-14 121.376 12.7235 121.376 28.4188Z" fill="#2F2013" transform="matrix(1.00047 0 0 1 208 740.093)"/><path d="M79.7999 297.768 84.0097 297.768 84.0097 348.29 79.7999 348.29Z" fill="#2F2013" transform="matrix(1.00047 0 0 1 208 740.093)"/><path d="M101.903 297.768 106.112 297.768 106.112 348.29 101.903 348.29Z" fill="#2F2013" transform="matrix(1.00047 0 0 1 208 740.093)"/><path d="M90.8516 305.978 95.0614 305.978 95.0614 386.814 90.8516 386.814Z" fill="#2F2013" transform="matrix(1.00047 0 0 1 208 740.093)"/></g></g></g></g></svg>