<svg width="550" height="550" xmlns="http://www.w3.org/2000/svg" xmlns:xlink="http://www.w3.org/1999/xlink" overflow="hidden"><defs><clipPath id="clip0"><rect x="19" y="1240" width="550" height="550"/></clipPath><radialGradient cx="762000" cy="762000" r="1.07763e+06" gradientUnits="userSpaceOnUse" spreadMethod="pad" id="fill1" gradientTransform="matrix(0.000360892 0 0 0.000360892 18.9999 1240)"><stop offset="0" stop-color="#F0E9DC"/><stop offset="0.17" stop-color="#F0E9DC"/><stop offset="0.33" stop-color="#875C39"/><stop offset="1" stop-color="#0F1113"/></radialGradient><radialGradient cx="257695" cy="282633" r="382476" fx="257694" fy="282633" gradientUnits="userSpaceOnUse" spreadMethod="pad" id="fill2" gradientTransform="matrix(0.000360892 0 0 0.000360892 40.9999 1252)"><stop offset="0" stop-color="#F0E9DC"/><stop offset="0.54" stop-color="#875C39" stop-opacity="0"/><stop offset="1" stop-color="#875C39" stop-opacity="0"/></radialGradient><linearGradient x1="292.5" y1="1245" x2="292.5" y2="1400" gradientUnits="userSpaceOnUse" spreadMethod="reflect" id="fill3"><stop offset="0" stop-color="#F5FAFF" stop-opacity="0.231373"/><stop offset="0.32" stop-color="#FFFFFF" stop-opacity="0"/><stop offset="1" stop-color="#FFFFFF" stop-opacity="0"/></linearGradient><radialGradient cx="94211" cy="102524" r="139236" gradientUnits="userSpaceOnUse" spreadMethod="pad" id="fill4" gradientTransform="matrix(0.000360892 0 0 0.000360892 29.9999 1303)"><stop offset="0" stop-color="#F0E9DC"/><stop offset="0.54" stop-color="#875C39" stop-opacity="0"/><stop offset="1" stop-color="#875C39" stop-opacity="0"/></radialGradient><radialGradient cx="112221" cy="121920" r="165705" fx="112222" fy="121920" gradientUnits="userSpaceOnUse" spreadMethod="pad" id="fill5" gradientTransform="matrix(0.000360892 0 0 0.000360892 59.0001 1348)"><stop offset="0" stop-color="#F0E9DC"/><stop offset="0.54" stop-color="#875C39" stop-opacity="0"/><stop offset="1" stop-color="#875C39" stop-opacity="0"/></radialGradient><radialGradient cx="292331" cy="278476" r="403740" gradientUnits="userSpaceOnUse" spreadMethod="pad" id="fill6" gradientTransform="matrix(0.000360892 0 0 0.000360892 349 1567)"><stop offset="0" stop-color="#F0E9DC"/><stop offset="0.54" stop-color="#875C39" stop-opacity="0"/><stop offset="1" stop-color="#875C39" stop-opacity="0"/></radialGradient><radialGradient cx="70658" cy="77585.5" r="104938" gradientUnits="userSpaceOnUse" spreadMethod="pad" id="fill7" gradientTransform="matrix(0.000360892 0 0 0.000360892 495 1695)"><stop offset="0" stop-color="#F0E9DC"/><stop offset="0.54" stop-color="#875C39" stop-opacity="0"/><stop offset="1" stop-color="#875C39" stop-opacity="0"/></radialGradient><radialGradient cx="77585" cy="84513" r="114725" gradientUnits="userSpaceOnUse" spreadMethod="pad" id="fill8" gradientTransform="matrix(0.000360892 0 0 0.000360892 478 1612)"><stop offset="0" stop-color="#F0E9DC"/><stop offset="0.54" stop-color="#875C39" stop-opacity="0"/><stop offset="1" stop-color="#875C39" stop-opacity="0"/></radialGradient><clipPath id="clip9"><rect x="34" y="1255" width="525" height="525"/></clipPath><clipPath id="clip10"><rect x="34" y="1255" width="525" height="525"/></clipPath><clipPath id="clip11"><rect x="34" y="1255" width="525" height="525"/></clipPath><clipPath id="clip12"><rect x="207" y="1349" width="166" height="315"/></clipPath><clipPath id="clip13"><rect x="207" y="1349" width="166" height="315"/></clipPath><clipPath id="clip14"><rect x="207" y="1349" width="166" height="315"/></clipPath></defs><g clip-path="url(#clip0)" transform="translate(-19 -1240)"><rect x="18.9999" y="1240" width="550" height="550" fill="url(#fill1)"/><path d="M40.9999 1354C40.9999 1297.67 82.6374 1252 134 1252 185.362 1252 227 1297.67 227 1354 227 1410.33 185.362 1456 134 1456 82.6374 1456 40.9999 1410.33 40.9999 1354Z" fill="url(#fill2)" fill-rule="evenodd"/><path d="M53.7338 1245 531.266 1245C547.136 1245 560 1264.99 560 1289.66L560 1400C560 1361.58 539.957 1330.43 515.233 1330.43L69.7668 1330.43C45.0428 1330.43 25.0001 1361.58 25.0001 1400L25.0001 1289.66C25.0001 1264.99 37.8645 1245 53.7338 1245Z" fill="url(#fill3)" fill-rule="evenodd"/><path d="M29.9999 1340C29.9999 1319.57 45.2222 1303 63.9999 1303 82.7776 1303 98 1319.57 98 1340 98 1360.43 82.7776 1377 63.9999 1377 45.2222 1377 29.9999 1360.43 29.9999 1340Z" fill="url(#fill4)" fill-rule="evenodd"/><path d="M59.0001 1392C59.0001 1367.7 77.1325 1348 99.5 1348 121.867 1348 140 1367.7 140 1392 140 1416.3 121.867 1436 99.5 1436 77.1325 1436 59.0001 1416.3 59.0001 1392Z" fill="url(#fill5)" fill-rule="evenodd"/><path d="M349 1667.5C349 1612 396.234 1567 454.5 1567 512.766 1567 560 1612 560 1667.5 560 1723 512.766 1768 454.5 1768 396.234 1768 349 1723 349 1667.5Z" fill="url(#fill6)" fill-rule="evenodd"/><path d="M495 1723C495 1707.54 506.417 1695 520.5 1695 534.583 1695 546 1707.54 546 1723 546 1738.46 534.583 1751 520.5 1751 506.417 1751 495 1738.46 495 1723Z" fill="url(#fill7)" fill-rule="evenodd"/><path d="M478 1642.5C478 1625.66 490.536 1612 506 1612 521.464 1612 534 1625.66 534 1642.5 534 1659.34 521.464 1673 506 1673 490.536 1673 478 1659.34 478 1642.5Z" fill="url(#fill8)" fill-rule="evenodd"/><g clip-path="url(#clip9)"><g clip-path="url(#clip10)"><g clip-path="url(#clip11)"><path d="M232.157 1501.34 202.967 1708.07C202.296 1712.87 198.589 1716.68 193.81 1717.47 189.032 1718.27 184.286 1715.88 182.092 1711.57L107.94 1566.15C105.903 1562.15 104.874 1557.7 104.938 1553.22L107.92 1354.89C107.973 1351.15 110.355 1347.85 113.884 1346.61 117.412 1345.37 121.329 1346.49 123.702 1349.38L223.955 1471.99C230.663 1480.21 233.645 1490.84 232.155 1501.34ZM229.006 1464.84C236.125 1473.55 247.37 1477.77 258.448 1475.9L507.642 1433.99C510.971 1433.44 513.618 1430.91 514.344 1427.62 515.057 1424.32 513.692 1420.93 510.91 1419.04L361.988 1318.22C358.335 1315.74 353.977 1314.5 349.557 1314.69L134.181 1323.83C130.421 1323.98 127.071 1326.26 125.528 1329.68 123.995 1333.12 124.532 1337.13 126.914 1340.05ZM522.692 1445.69C520.391 1442.83 516.737 1441.44 513.115 1442.05L270.145 1482.91C254.301 1485.58 242.015 1498.2 239.758 1514.1L210.819 1718.74C210.021 1724.38 212.236 1730.03 216.657 1733.63 221.078 1737.22 227.074 1738.23 232.428 1736.3L434.386 1663.34C438.722 1661.78 442.188 1658.44 443.921 1654.16L524.184 1455.83C525.549 1452.42 524.98 1448.55 522.692 1445.69Z" fill="#FFFFFF"/></g></g></g><g clip-path="url(#clip12)"><g clip-path="url(#clip13)"><g clip-path="url(#clip14)"><path d="M153.801 225.415C151.416 229.729 146.834 232.637 141.606 232.637L141.605 232.637C141.331 232.637 141.055 232.629 140.78 232.613 137.058 232.395 133.645 230.741 131.169 227.956 128.692 225.171 127.447 221.589 127.665 217.868 128.217 208.423 128.429 199.842 128.377 192.003L119.63 184.388 119.63 124.977C124.379 134.259 128.949 149.155 130.677 172.928 131.581 185.378 131.709 200.253 130.668 218.046 130.316 224.08 134.92 229.257 140.955 229.61 141.171 229.622 141.389 229.629 141.605 229.629 147.355 229.629 152.177 225.141 152.519 219.325 153.58 201.169 153.455 185.544 152.468 172.069 148.108 112.543 126.842 95.2977 115.86 90.3446 113.693 106.899 99.5053 119.725 82.3698 119.725 65.2344 119.725 51.0467 106.899 48.8799 90.3446 37.8972 95.2977 16.6307 112.543 12.2713 172.069 11.285 185.542 11.1578 201.169 12.2207 219.325 12.5613 225.141 17.3831 229.629 23.135 229.629 23.3498 229.629 23.5673 229.624 23.7848 229.61 29.8185 229.257 34.4228 224.08 34.0712 218.046 33.0303 200.253 33.1589 185.378 34.063 172.928 35.855 148.264 40.7082 133.154 45.6449 123.953L45.6449 183.924 36.3624 192.006C36.3118 199.844 36.5225 208.424 37.0751 217.87 37.2926 221.59 36.0478 225.173 33.5706 227.958 31.0934 230.743 27.6805 232.397 23.9598 232.614 23.6863 232.63 23.41 232.639 23.135 232.639L23.1336 232.639C17.9056 232.639 13.3232 229.731 10.939 225.415L0.214758 292.648C-1.24204 301.788 4.98457 310.377 14.122 311.834 15.0166 311.976 15.9057 312.046 16.7812 312.046 24.8722 312.046 31.9934 306.171 33.308 297.926L44.2045 229.61 74.8191 202.958 89.9205 202.958 120.535 229.61 131.433 297.926C132.748 306.171 139.867 312.046 147.96 312.046 148.837 312.046 149.726 311.976 150.619 311.834 159.758 310.377 165.984 301.785 164.526 292.648L153.801 225.415Z" fill="#2F2013" transform="matrix(1.0016 0 0 1 208 1350.48)"/><path d="M113.146 85.9373C113.146 102.935 99.3663 116.715 82.3685 116.715 65.3706 116.715 51.5911 102.935 51.5911 85.9373 51.5911 68.9394 65.3706 55.1599 82.3685 55.1599 99.3663 55.1599 113.146 68.9394 113.146 85.9373Z" fill="#2F2013" transform="matrix(1.0016 0 0 1 208 1350.48)"/><path d="M73.2789 3.25556C74.603 1.98617 73.3295-0.968461 71.9917 0.317349 68.6541 3.52367 66.1331 8.0924 65.5886 13.5899 65.0005 19.5156 69.3763 23.3197 69.8687 28.8829 70.1998 32.6281 68.4502 36.729 66.4463 39.2254 65.2385 40.7246 67.0482 43.1266 68.2492 41.6302 71.6073 37.454 73.0737 31.4107 71.9657 25.4823 70.8618 19.5812 66.6542 16.7402 68.929 10.0102 69.814 7.39204 71.5335 4.93396 73.2789 3.25556Z" fill="#2F2013" transform="matrix(1.0016 0 0 1 208 1350.48)"/><path d="M88.2339 3.25556C89.5567 1.98617 88.2846-0.968461 86.9468 0.317349 83.6091 3.52367 81.0881 8.0924 80.5423 13.5899 79.9569 19.5156 84.3314 23.3197 84.8238 28.8829 85.1548 32.6281 83.4053 36.729 81.4014 39.2254 80.1949 40.7246 82.0032 43.1266 83.2042 41.6302 86.5624 37.454 88.0288 31.4107 86.9208 25.4823 85.8183 19.5812 81.6093 16.7402 83.8841 10.0102 84.7691 7.39204 86.4885 4.93396 88.2339 3.25556Z" fill="#2F2013" transform="matrix(1.0016 0 0 1 208 1350.48)"/><path d="M103.188 3.25556C104.512 1.98617 103.24-0.968461 101.902 0.317349 98.5642 3.52367 96.0432 8.0924 95.4974 13.5899 94.9106 19.5156 99.2837 23.3197 99.7775 28.8829 100.11 32.6281 98.359 36.729 96.3551 39.2254 95.1486 40.7246 96.9583 43.1266 98.1593 41.6302 101.516 37.454 102.982 31.4107 101.876 25.4823 100.773 19.5812 96.563 16.7402 98.8391 10.0102 99.7228 7.39204 101.442 4.93396 103.188 3.25556Z" fill="#2F2013" transform="matrix(1.0016 0 0 1 208 1350.48)"/></g></g></g></g></svg>