<svg width="550" height="550" xmlns="http://www.w3.org/2000/svg" xmlns:xlink="http://www.w3.org/1999/xlink" overflow="hidden"><defs><clipPath id="clip0"><rect x="628" y="1240" width="550" height="550"/></clipPath><radialGradient cx="762000" cy="762000" r="1.07763e+06" gradientUnits="userSpaceOnUse" spreadMethod="pad" id="fill1" gradientTransform="matrix(0.000360892 0 0 0.000360892 628 1240)"><stop offset="0" stop-color="#F0E9DC"/><stop offset="0.17" stop-color="#F0E9DC"/><stop offset="0.33" stop-color="#875C39"/><stop offset="1" stop-color="#0F1113"/></radialGradient><radialGradient cx="257695" cy="282633" r="382476" fx="257694" fy="282633" gradientUnits="userSpaceOnUse" spreadMethod="pad" id="fill2" gradientTransform="matrix(0.000360892 0 0 0.000360892 650 1252)"><stop offset="0" stop-color="#F0E9DC"/><stop offset="0.54" stop-color="#875C39" stop-opacity="0"/><stop offset="1" stop-color="#875C39" stop-opacity="0"/></radialGradient><linearGradient x1="901.5" y1="1245" x2="901.5" y2="1400" gradientUnits="userSpaceOnUse" spreadMethod="reflect" id="fill3"><stop offset="0" stop-color="#F5FAFF" stop-opacity="0.231373"/><stop offset="0.32" stop-color="#FFFFFF" stop-opacity="0"/><stop offset="1" stop-color="#FFFFFF" stop-opacity="0"/></linearGradient><radialGradient cx="94211" cy="102524" r="139236" gradientUnits="userSpaceOnUse" spreadMethod="pad" id="fill4" gradientTransform="matrix(0.000360892 0 0 0.000360892 639 1303)"><stop offset="0" stop-color="#F0E9DC"/><stop offset="0.54" stop-color="#875C39" stop-opacity="0"/><stop offset="1" stop-color="#875C39" stop-opacity="0"/></radialGradient><radialGradient cx="110836" cy="121920" r="164770" fx="110836" fy="121920" gradientUnits="userSpaceOnUse" spreadMethod="pad" id="fill5" gradientTransform="matrix(0.000360892 0 0 0.000360892 668 1348)"><stop offset="0" stop-color="#F0E9DC"/><stop offset="0.54" stop-color="#875C39" stop-opacity="0"/><stop offset="1" stop-color="#875C39" stop-opacity="0"/></radialGradient><radialGradient cx="292331" cy="278476" r="403740" gradientUnits="userSpaceOnUse" spreadMethod="pad" id="fill6" gradientTransform="matrix(0.000360892 0 0 0.000360892 958 1567)"><stop offset="0" stop-color="#F0E9DC"/><stop offset="0.54" stop-color="#875C39" stop-opacity="0"/><stop offset="1" stop-color="#875C39" stop-opacity="0"/></radialGradient><radialGradient cx="72043.5" cy="77585.5" r="105876" fx="72043.5" fy="77585.5" gradientUnits="userSpaceOnUse" spreadMethod="pad" id="fill7" gradientTransform="matrix(0.000360892 0 0 0.000360892 1103 1695)"><stop offset="0" stop-color="#F0E9DC"/><stop offset="0.54" stop-color="#875C39" stop-opacity="0"/><stop offset="1" stop-color="#875C39" stop-opacity="0"/></radialGradient><radialGradient cx="77585.5" cy="84513" r="114726" fx="77585.5" fy="84513" gradientUnits="userSpaceOnUse" spreadMethod="pad" id="fill8" gradientTransform="matrix(0.000360892 0 0 0.000360892 1087 1612)"><stop offset="0" stop-color="#F0E9DC"/><stop offset="0.54" stop-color="#875C39" stop-opacity="0"/><stop offset="1" stop-color="#875C39" stop-opacity="0"/></radialGradient><clipPath id="clip9"><rect x="643" y="1255" width="526" height="525"/></clipPath><clipPath id="clip10"><rect x="643" y="1255" width="526" height="525"/></clipPath><clipPath id="clip11"><rect x="643" y="1255" width="526" height="525"/></clipPath><clipPath id="clip12"><rect x="634" y="1271" width="507" height="507"/></clipPath><clipPath id="clip13"><rect x="634" y="1271" width="507" height="507"/></clipPath><clipPath id="clip14"><rect x="634" y="1271" width="507" height="507"/></clipPath><clipPath id="clip15"><rect x="639" y="1639" width="139" height="140"/></clipPath><clipPath id="clip16"><rect x="639" y="1639" width="139" height="140"/></clipPath><clipPath id="clip17"><rect x="639" y="1639" width="139" height="140"/></clipPath></defs><g clip-path="url(#clip0)" transform="translate(-628 -1240)"><rect x="628" y="1240" width="550" height="550" fill="url(#fill1)"/><path d="M650 1354C650 1297.67 691.638 1252 743 1252 794.362 1252 836 1297.67 836 1354 836 1410.33 794.362 1456 743 1456 691.638 1456 650 1410.33 650 1354Z" fill="url(#fill2)" fill-rule="evenodd"/><path d="M662.734 1245 1140.27 1245C1156.14 1245 1169 1264.99 1169 1289.66L1169 1400C1169 1361.58 1148.96 1330.43 1124.23 1330.43L678.767 1330.43C654.043 1330.43 634 1361.58 634 1400L634 1289.66C634 1264.99 646.864 1245 662.734 1245Z" fill="url(#fill3)" fill-rule="evenodd"/><path d="M639 1340C639 1319.57 654.222 1303 673 1303 691.778 1303 707 1319.57 707 1340 707 1360.43 691.778 1377 673 1377 654.222 1377 639 1360.43 639 1340Z" fill="url(#fill4)" fill-rule="evenodd"/><path d="M668 1392C668 1367.7 685.909 1348 708 1348 730.091 1348 748 1367.7 748 1392 748 1416.3 730.091 1436 708 1436 685.909 1436 668 1416.3 668 1392Z" fill="url(#fill5)" fill-rule="evenodd"/><path d="M958 1667.5C958 1612 1005.23 1567 1063.5 1567 1121.77 1567 1169 1612 1169 1667.5 1169 1723 1121.77 1768 1063.5 1768 1005.23 1768 958 1723 958 1667.5Z" fill="url(#fill6)" fill-rule="evenodd"/><path d="M1103 1723C1103 1707.54 1114.64 1695 1129 1695 1143.36 1695 1155 1707.54 1155 1723 1155 1738.46 1143.36 1751 1129 1751 1114.64 1751 1103 1738.46 1103 1723Z" fill="url(#fill7)" fill-rule="evenodd"/><path d="M1087 1642.5C1087 1625.66 1099.54 1612 1115 1612 1130.46 1612 1143 1625.66 1143 1642.5 1143 1659.34 1130.46 1673 1115 1673 1099.54 1673 1087 1659.34 1087 1642.5Z" fill="url(#fill8)" fill-rule="evenodd"/><g clip-path="url(#clip9)"><g clip-path="url(#clip10)"><g clip-path="url(#clip11)"><path d="M841.157 1501.34 811.967 1708.07C811.296 1712.87 807.589 1716.68 802.811 1717.47 798.032 1718.27 793.286 1715.88 791.092 1711.57L716.94 1566.15C714.903 1562.15 713.874 1557.7 713.938 1553.22L716.92 1354.89C716.973 1351.15 719.355 1347.85 722.884 1346.61 726.412 1345.37 730.329 1346.49 732.702 1349.38L832.955 1471.99C839.663 1480.21 842.645 1490.84 841.155 1501.34ZM838.006 1464.84C845.125 1473.55 856.371 1477.77 867.448 1475.9L1116.64 1433.99C1119.97 1433.44 1122.62 1430.91 1123.34 1427.62 1124.06 1424.32 1122.69 1420.93 1119.91 1419.04L970.989 1318.22C967.335 1315.74 962.977 1314.5 958.557 1314.69L743.181 1323.83C739.421 1323.98 736.071 1326.26 734.528 1329.68 732.995 1333.12 733.532 1337.13 735.914 1340.05ZM1131.69 1445.69C1129.39 1442.83 1125.74 1441.44 1122.12 1442.05L879.145 1482.91C863.301 1485.58 851.015 1498.2 848.758 1514.1L819.819 1718.74C819.021 1724.38 821.236 1730.03 825.657 1733.63 830.078 1737.22 836.074 1738.23 841.428 1736.3L1043.39 1663.34C1047.72 1661.78 1051.19 1658.44 1052.92 1654.16L1133.18 1455.83C1134.55 1452.42 1133.98 1448.55 1131.69 1445.69Z" fill="#FFFFFF"/></g></g></g><g clip-path="url(#clip12)"><g clip-path="url(#clip13)"><g clip-path="url(#clip14)"><path d="M886.816 1421.72C886.816 1427.42 882.197 1432.04 876.499 1432.04 870.801 1432.04 866.181 1427.42 866.181 1421.72 866.181 1416.02 870.801 1411.4 876.499 1411.4 882.197 1411.4 886.816 1416.02 886.816 1421.72Z" fill="#2F2013"/><path d="M907.43 1385.15C907.43 1390.85 902.811 1395.47 897.113 1395.47 891.415 1395.47 886.796 1390.85 886.796 1385.15 886.796 1379.45 891.415 1374.83 897.113 1374.83 902.811 1374.83 907.43 1379.45 907.43 1385.15Z" fill="#2F2013"/><path d="M881.189 1354.22C881.189 1359.92 876.57 1364.54 870.872 1364.54 865.174 1364.54 860.555 1359.92 860.555 1354.22 860.555 1348.53 865.174 1343.91 870.872 1343.91 876.57 1343.91 881.189 1348.53 881.189 1354.22Z" fill="#2F2013"/><path d="M952.439 1354.22C952.439 1359.92 947.82 1364.54 942.122 1364.54 936.424 1364.54 931.804 1359.92 931.804 1354.22 931.804 1348.52 936.424 1343.9 942.122 1343.9 947.82 1343.9 952.439 1348.52 952.439 1354.22Z" fill="#2F2013"/><path d="M944.94 1397.34C944.94 1403.04 940.321 1407.66 934.623 1407.66 928.925 1407.66 924.305 1403.04 924.305 1397.34 924.305 1391.64 928.925 1387.02 934.623 1387.02 940.321 1387.02 944.94 1391.64 944.94 1397.34Z" fill="#2F2013"/><path d="M849.301 1391.73C849.301 1397.43 844.682 1402.05 838.984 1402.05 833.286 1402.05 828.666 1397.43 828.666 1391.73 828.666 1386.03 833.286 1381.41 838.984 1381.41 844.682 1381.41 849.301 1386.03 849.301 1391.73Z" fill="#2F2013"/><path d="M1140.62 1406.36 1077.65 1434.18C1065.58 1426.97 1037.28 1412.11 1008.93 1412.11 1000.57 1412.11 992.697 1413.41 985.329 1416.04L901.303 1447.86 900.276 1448.3C887.752 1454.38 881.326 1467.1 884.281 1479.98 884.478 1480.81 884.751 1481.6 885.01 1482.4L878.351 1479.23 830.599 1456.33C829.577 1455.87 828.388 1455.64 827.174 1455.64 823.495 1455.63 820.343 1457.85 819.007 1461.05 818.531 1462.14 818.253 1463.35 818.253 1464.62L818.253 1485.99 792.518 1485.9C759.557 1485.78 749.23 1505.05 749.149 1528.91L749.093 1543.55 719.249 1543.44C700.674 1518.98 671.214 1494.46 635.005 1478.06L635.005 1702.51C686.708 1693.88 707.039 1671.7 733.164 1664.24 772.253 1653.06 799.784 1663.12 799.784 1663.12 819.725 1688.68 859.133 1705.21 894.072 1705.35 897.422 1705.36 979.905 1703.39 1000.01 1630.48L1140.67 1565.05 1140.62 1406.36ZM943.022 1639.68C941.256 1640.54 939.521 1640.96 937.846 1640.96 932.579 1640.96 928.814 1636.61 927.822 1632.29 926.679 1627.33 928.9 1622.96 933.773 1620.59L993.268 1591.71C995.014 1590.87 996.593 1588.72 995.798 1585.24 995.07 1582.07 992.525 1578.69 989.225 1578.69 988.507 1578.69 987.819 1578.84 987.166 1579.16L895.701 1623.57C893.956 1624.41 892.225 1624.85 890.56 1624.85 885.232 1624.85 881.422 1620.41 880.42 1616.02 879.266 1611.02 881.478 1606.63 886.34 1604.27L977.805 1559.86C979.556 1559.01 981.134 1556.86 980.33 1553.39 979.601 1550.21 977.056 1546.82 973.762 1546.82 973.043 1546.82 972.36 1546.98 971.703 1547.3L865.007 1599.11C863.267 1599.96 861.536 1600.39 859.882 1600.39 854.558 1600.39 850.753 1595.95 849.741 1591.55 848.588 1586.55 850.799 1582.17 855.646 1579.82L962.331 1528.01C964.082 1527.16 965.661 1525.02 964.861 1521.54 964.138 1518.36 961.593 1514.99 958.294 1514.99 957.585 1514.99 956.892 1515.14 956.239 1515.46L873.412 1555.67C871.676 1556.52 869.956 1556.95 868.307 1556.95 862.978 1556.95 859.178 1552.49 858.166 1548.09 857.013 1543.1 859.214 1538.73 864.046 1536.39L978.721 1480.71C980.512 1479.84 982.136 1477.6 981.296 1473.94 980.502 1470.46 977.77 1466.76 974.278 1466.76 973.55 1466.76 972.846 1466.93 972.644 1467.07L917.54 1483.86C915.127 1485.03 912.789 1485.62 910.568 1485.62 904.364 1485.62 900.529 1481.04 899.481 1476.49 898.434 1471.94 899.881 1465.83 906.828 1462.44L990.804 1430.64C996.264 1428.69 1002.37 1427.7 1008.95 1427.7 1040.76 1427.7 1074.54 1450.61 1074.87 1450.84L1076.31 1451.82 1125.36 1430.15 1125.86 1552.74 943.022 1639.68Z" fill="#2F2013"/></g></g></g><path d="M630.5 1786.5 630.5 1527.5 878.5 1786.5Z" stroke="#0F1113" stroke-width="4.58333" stroke-miterlimit="8" fill="#20A0FB" fill-rule="evenodd"/><g clip-path="url(#clip15)"><g clip-path="url(#clip16)"><g clip-path="url(#clip17)"><path d="M99.4016 75.9467C113.025 65.7289 115.505 51.7761 111.411 36.6876 109.799 31.8477 100.655 34.1787 104.957 43.6793 108.77 54.228 104.957 64.4668 96.3533 74.5123 89.5409 74.6916 88.8237 81.6833 93.843 85.2681 91.391 91.1895 86.7512 95.9447 72.3327 95.486 70.1755 95.5652 71.2472 97.7086 74.3038 97.9963 80.7853 98.8525 86.6567 98.4091 91.8706 96.5618 101.552 93.1563 105.675 80.6074 99.4016 75.9467Z" fill="#FFFFFF" transform="matrix(1 0 0 1.00719 639 1639)"/><path d="M102.448 75.2295C101.284 76.1261 102.36 78.0081 104.24 76.8433 116.529 70.5827 124.049 56.0489 124.317 47.8034 124.586 41.2607 116.878 41.2607 116.789 47.8034 117.002 58.3146 111.792 67.3399 102.448 75.2295Z" fill="#FFFFFF" transform="matrix(1 0 0 1.00719 639 1639)"/><path d="M104.061 78.4557C102.626 78.9047 102.447 80.5171 104.061 80.0695 117.121 76.411 126.059 70.5105 128.799 61.2461 130.681 56.2268 126.11 54.8827 124.317 59.0958 119.737 68.709 111.995 73.7214 104.061 78.4557Z" fill="#FFFFFF" transform="matrix(1 0 0 1.00719 639 1639)"/><path d="M125.572 70.5688C120.277 76.4833 113.268 79.4662 105.495 81.1453 103.972 81.5943 104.331 83.0274 105.495 82.7591 121.799 82.7355 126.095 76.3749 128.799 73.2585 130.592 70.4785 127.724 67.9682 125.572 70.5688Z" fill="#FFFFFF" transform="matrix(1 0 0 1.00719 639 1639)"/><path d="M119.03 81.8626C115.077 83.2637 111.365 84.8872 105.048 84.1033 103.256 84.1936 102.986 86.0757 104.062 86.3439 110.156 87.5755 115.541 87.1668 119.479 86.3439 124.855 85.357 124.228 79.9805 119.03 81.8626Z" fill="#FFFFFF" transform="matrix(1 0 0 1.00719 639 1639)"/><path d="M116.43 87.9563C112.433 88.2343 108.416 88.4484 104.062 87.5088 102.539 87.2405 102.001 88.9432 102.986 89.3908 106.491 90.6543 110.216 90.4945 113.922 90.4667 118.133 90.8239 118.133 87.8674 116.43 87.9563Z" fill="#FFFFFF" transform="matrix(1 0 0 1.00719 639 1639)"/><path d="M111.77 91.9011C108.809 91.9567 105.773 91.8608 102.448 91.1839 101.104 90.7349 100.297 92.1694 101.463 92.6184 104.666 94.0237 107.863 94.6575 111.054 94.5005 113.922 94.7687 113.922 91.6315 111.77 91.9011Z" fill="#FFFFFF" transform="matrix(1 0 0 1.00719 639 1639)"/><path d="M108.184 96.1879C105.335 95.8043 102.511 95.1941 99.7588 93.9611 98.594 93.7818 97.9671 95.3956 99.2209 95.9335 101.229 97.1414 103.334 97.9101 105.494 98.4147 108.812 99.5197 109.799 96.6508 108.184 96.1879Z" fill="#FFFFFF" transform="matrix(1 0 0 1.00719 639 1639)"/><path d="M103.704 99.2501C101.288 98.4633 99.004 97.5001 96.9816 96.1879 96.085 95.7542 95.0092 97.368 95.7264 97.9949 97.4709 99.5211 99.4183 100.465 101.463 101.132 104.061 102.297 105.495 100.056 103.704 99.2501Z" fill="#FFFFFF" transform="matrix(1 0 0 1.00719 639 1639)"/><path d="M92.7671 98.4147C91.7816 98.1742 90.5667 99.3237 91.6927 99.9673L96.8913 103.014C98.9526 104.179 100.297 102.297 98.7733 101.132L92.7671 98.4147Z" fill="#FFFFFF" transform="matrix(1 0 0 1.00719 639 1639)"/><path d="M93.9333 103.014C92.193 102.234 90.6599 101.184 89.1823 100.056 88.0175 99.2501 86.8527 99.6977 87.2113 100.715 88.3845 101.983 89.7008 103.107 91.2451 104.001 93.843 105.704 95.5471 104.179 93.9333 103.014Z" fill="#FFFFFF" transform="matrix(1 0 0 1.00719 639 1639)"/><path d="M66.6671 95.486C52.2473 95.9447 47.6088 91.1895 45.1569 85.2681 50.1762 81.6833 49.4589 74.6916 42.6465 74.5123 34.0425 64.4668 30.2297 54.228 34.0425 43.6793 38.3445 34.1787 29.2025 31.849 27.5887 36.6876 23.4965 51.7761 25.9749 65.7275 39.5983 75.9467 33.3252 80.6074 37.448 93.1563 47.1279 96.5618 52.3418 98.4077 58.2145 98.8511 64.6947 97.9963 67.7527 97.7086 68.8244 95.5652 66.6671 95.486Z" fill="#FFFFFF" transform="matrix(1 0 0 1.00719 639 1639)"/><path d="M34.7597 76.8419C36.6418 78.0067 37.7176 76.1247 36.5514 75.2281 27.2064 67.3385 21.9981 58.3146 22.2108 47.8021 22.1218 41.2593 14.4143 41.2593 14.6826 47.8021 14.9508 56.0489 22.4693 70.5814 34.7597 76.8419Z" fill="#FFFFFF" transform="matrix(1 0 0 1.00719 639 1639)"/><path d="M34.939 80.0695C36.5528 80.5171 36.3735 78.9047 34.939 78.4557 27.0049 73.7214 19.2626 68.709 14.6826 59.0958 12.8895 54.8827 8.31914 56.2282 10.2012 61.2461 12.9409 70.5119 21.8786 76.411 34.939 80.0695Z" fill="#FFFFFF" transform="matrix(1 0 0 1.00719 639 1639)"/><path d="M33.5045 81.1453C25.7317 79.4662 18.7233 76.4833 13.4274 70.5688 11.2757 67.9695 8.4081 70.4785 10.2012 73.2585 12.9047 76.3749 17.2012 82.7355 33.5045 82.7591 34.6693 83.0274 35.028 81.5929 33.5045 81.1453Z" fill="#FFFFFF" transform="matrix(1 0 0 1.00719 639 1639)"/><path d="M34.939 86.3426C36.0149 86.0743 35.7452 84.1922 33.9535 84.1019 27.636 84.8858 23.9233 83.2623 19.9715 81.8612 14.7729 79.9791 14.146 85.357 19.5239 86.3426 23.459 87.1654 28.8453 87.5755 34.939 86.3426Z" fill="#FFFFFF" transform="matrix(1 0 0 1.00719 639 1639)"/><path d="M36.0149 89.3908C37.0004 88.9418 36.4624 87.2391 34.939 87.5088 30.5855 88.4484 26.5684 88.2343 22.5708 87.9563 20.8667 87.866 20.8667 90.8239 25.0797 90.4667 28.7841 90.4945 32.5107 90.6543 36.0149 89.3908Z" fill="#FFFFFF" transform="matrix(1 0 0 1.00719 639 1639)"/><path d="M36.5514 91.1839C33.2251 91.8608 30.1908 91.9567 27.2301 91.9011 25.0784 91.6315 25.0784 94.7687 27.9473 94.5005 31.1388 94.6575 34.3357 94.0237 37.5383 92.6184 38.7031 92.1694 37.8955 90.7349 36.5514 91.1839Z" fill="#FFFFFF" transform="matrix(1 0 0 1.00719 639 1639)"/><path d="M39.2411 93.9625C36.4889 95.1954 33.6644 95.8057 30.8163 96.1893 29.2025 96.6522 30.188 99.5197 33.5045 98.4161 35.666 97.9115 37.7704 97.1428 39.7776 95.9349 41.0328 95.3956 40.4059 93.7832 39.2411 93.9625Z" fill="#FFFFFF" transform="matrix(1 0 0 1.00719 639 1639)"/><path d="M42.0197 96.1879C39.9972 97.5001 37.7134 98.4633 35.2976 99.2501 33.5059 100.056 34.939 102.297 37.5383 101.132 39.583 100.465 41.5304 99.5211 43.2748 97.9949 43.9907 97.368 42.9162 95.7542 42.0197 96.1879Z" fill="#FFFFFF" transform="matrix(1 0 0 1.00719 639 1639)"/><path d="M46.2327 98.4147 40.2266 101.132C38.7031 102.297 40.0473 104.179 42.1086 103.014L47.3072 99.9673C48.4331 99.3237 47.2183 98.1742 46.2327 98.4147Z" fill="#FFFFFF" transform="matrix(1 0 0 1.00719 639 1639)"/><path d="M49.8176 100.056C48.34 101.184 46.8068 102.234 45.0665 103.014 43.4527 104.179 45.1569 105.704 47.7562 104 49.3005 103.106 50.6154 101.981 51.79 100.714 52.1472 99.6977 50.9824 99.2501 49.8176 100.056Z" fill="#FFFFFF" transform="matrix(1 0 0 1.00719 639 1639)"/></g></g></g></g></svg>