<svg width="550" height="553" xmlns="http://www.w3.org/2000/svg" xmlns:xlink="http://www.w3.org/1999/xlink" overflow="hidden"><defs><clipPath id="clip0"><rect x="1219" y="633" width="550" height="553"/></clipPath><radialGradient cx="762000" cy="762000" r="1.07763e+06" gradientUnits="userSpaceOnUse" spreadMethod="pad" id="fill1" gradientTransform="matrix(0.000360892 0 0 0.000360892 1219 633)"><stop offset="0" stop-color="#F0E9DC"/><stop offset="0.17" stop-color="#F0E9DC"/><stop offset="0.33" stop-color="#875C39"/><stop offset="1" stop-color="#0F1113"/></radialGradient><radialGradient cx="257695" cy="281248" r="381453" fx="257694" fy="281248" gradientUnits="userSpaceOnUse" spreadMethod="pad" id="fill2" gradientTransform="matrix(0.000360892 0 0 0.000360892 1241 646)"><stop offset="0" stop-color="#F0E9DC"/><stop offset="0.54" stop-color="#875C39" stop-opacity="0"/><stop offset="1" stop-color="#875C39" stop-opacity="0"/></radialGradient><linearGradient x1="1492" y1="639" x2="1492" y2="793" gradientUnits="userSpaceOnUse" spreadMethod="reflect" id="fill3"><stop offset="0" stop-color="#F5FAFF" stop-opacity="0.231373"/><stop offset="0.32" stop-color="#FFFFFF" stop-opacity="0"/><stop offset="1" stop-color="#FFFFFF" stop-opacity="0"/></linearGradient><radialGradient cx="94211" cy="102524" r="139236" gradientUnits="userSpaceOnUse" spreadMethod="pad" id="fill4" gradientTransform="matrix(0.000360892 0 0 0.000360892 1230 697)"><stop offset="0" stop-color="#F0E9DC"/><stop offset="0.54" stop-color="#875C39" stop-opacity="0"/><stop offset="1" stop-color="#875C39" stop-opacity="0"/></radialGradient><radialGradient cx="110836" cy="120534" r="163747" fx="110836" fy="120534" gradientUnits="userSpaceOnUse" spreadMethod="pad" id="fill5" gradientTransform="matrix(0.000360892 0 0 0.000360892 1259 742)"><stop offset="0" stop-color="#F0E9DC"/><stop offset="0.54" stop-color="#875C39" stop-opacity="0"/><stop offset="1" stop-color="#875C39" stop-opacity="0"/></radialGradient><radialGradient cx="292331" cy="278476" r="403740" gradientUnits="userSpaceOnUse" spreadMethod="pad" id="fill6" gradientTransform="matrix(0.000360892 0 0 0.000360892 1549 961)"><stop offset="0" stop-color="#F0E9DC"/><stop offset="0.54" stop-color="#875C39" stop-opacity="0"/><stop offset="1" stop-color="#875C39" stop-opacity="0"/></radialGradient><radialGradient cx="72043.5" cy="77585.5" r="105876" fx="72043.5" fy="77585.5" gradientUnits="userSpaceOnUse" spreadMethod="pad" id="fill7" gradientTransform="matrix(0.000360892 0 0 0.000360892 1694 1089)"><stop offset="0" stop-color="#F0E9DC"/><stop offset="0.54" stop-color="#875C39" stop-opacity="0"/><stop offset="1" stop-color="#875C39" stop-opacity="0"/></radialGradient><radialGradient cx="77585.5" cy="84512.5" r="114725" gradientUnits="userSpaceOnUse" spreadMethod="pad" id="fill8" gradientTransform="matrix(0.000360892 0 0 0.000360892 1678 1006)"><stop offset="0" stop-color="#F0E9DC"/><stop offset="0.54" stop-color="#875C39" stop-opacity="0"/><stop offset="1" stop-color="#875C39" stop-opacity="0"/></radialGradient><clipPath id="clip9"><rect x="1234" y="649" width="525" height="525"/></clipPath><clipPath id="clip10"><rect x="1234" y="649" width="525" height="525"/></clipPath><clipPath id="clip11"><rect x="1234" y="649" width="525" height="525"/></clipPath><clipPath id="clip12"><rect x="1233" y="1050" width="123" height="123"/></clipPath><clipPath id="clip13"><rect x="1233" y="1050" width="123" height="123"/></clipPath><clipPath id="clip14"><rect x="1233" y="1050" width="123" height="123"/></clipPath><clipPath id="clip15"><rect x="1320" y="735" width="330" height="331"/></clipPath><clipPath id="clip16"><rect x="1320" y="735" width="330" height="331"/></clipPath><clipPath id="clip17"><rect x="1320" y="735" width="330" height="331"/></clipPath></defs><g clip-path="url(#clip0)" transform="translate(-1219 -633)"><rect x="1219" y="633" width="550" height="550" fill="url(#fill1)"/><path d="M1241 747.5C1241 691.443 1282.64 646 1334 646 1385.36 646 1427 691.443 1427 747.5 1427 803.557 1385.36 849 1334 849 1282.64 849 1241 803.557 1241 747.5Z" fill="url(#fill2)" fill-rule="evenodd"/><path d="M1252.79 639 1731.21 639C1747.11 639 1760 658.864 1760 683.368L1760 793C1760 754.824 1739.92 723.876 1715.15 723.876L1268.85 723.876C1244.08 723.876 1224 754.824 1224 793L1224 683.368C1224 658.864 1236.89 639 1252.79 639Z" fill="url(#fill3)" fill-rule="evenodd"/><path d="M1230 734C1230 713.566 1245.22 697 1264 697 1282.78 697 1298 713.566 1298 734 1298 754.435 1282.78 771 1264 771 1245.22 771 1230 754.435 1230 734Z" fill="url(#fill4)" fill-rule="evenodd"/><path d="M1259 785.5C1259 761.476 1276.91 742 1299 742 1321.09 742 1339 761.476 1339 785.5 1339 809.525 1321.09 829 1299 829 1276.91 829 1259 809.525 1259 785.5Z" fill="url(#fill5)" fill-rule="evenodd"/><path d="M1549 1061.5C1549 1006 1596.23 961 1654.5 961 1712.77 961 1760 1006 1760 1061.5 1760 1117 1712.77 1162 1654.5 1162 1596.23 1162 1549 1117 1549 1061.5Z" fill="url(#fill6)" fill-rule="evenodd"/><path d="M1694 1117C1694 1101.54 1705.64 1089 1720 1089 1734.36 1089 1746 1101.54 1746 1117 1746 1132.46 1734.36 1145 1720 1145 1705.64 1145 1694 1132.46 1694 1117Z" fill="url(#fill7)" fill-rule="evenodd"/><path d="M1678 1036.5C1678 1019.66 1690.54 1006 1706 1006 1721.46 1006 1734 1019.66 1734 1036.5 1734 1053.34 1721.46 1067 1706 1067 1690.54 1067 1678 1053.34 1678 1036.5Z" fill="url(#fill8)" fill-rule="evenodd"/><g clip-path="url(#clip9)"><g clip-path="url(#clip10)"><g clip-path="url(#clip11)"><path d="M1432.16 895.339 1402.97 1102.07C1402.3 1106.87 1398.59 1110.68 1393.81 1111.47 1389.03 1112.27 1384.29 1109.88 1382.09 1105.57L1307.94 960.146C1305.9 956.146 1304.87 951.704 1304.94 947.221L1307.92 748.885C1307.97 745.148 1310.35 741.851 1313.88 740.612 1317.41 739.373 1321.33 740.486 1323.7 743.384L1423.96 865.993C1430.66 874.205 1433.64 884.84 1432.15 895.34ZM1429.01 858.842C1436.13 867.546 1447.37 871.767 1458.45 869.899L1707.64 827.993C1710.97 827.436 1713.62 824.906 1714.34 821.62 1715.06 818.323 1713.69 814.931 1710.91 813.041L1561.99 712.219C1558.33 709.741 1553.98 708.502 1549.56 708.692L1334.18 717.827C1330.42 717.984 1327.07 720.262 1325.53 723.685 1324 727.118 1324.53 731.13 1326.91 734.048ZM1722.69 839.689C1720.39 836.834 1716.74 835.437 1713.11 836.046L1470.15 876.911C1454.3 879.579 1442.02 892.199 1439.76 908.096L1410.82 1112.74C1410.02 1118.38 1412.24 1124.03 1416.66 1127.63 1421.08 1131.22 1427.07 1132.23 1432.43 1130.3L1634.39 1057.34C1638.72 1055.78 1642.19 1052.44 1643.92 1048.16L1724.18 849.834C1725.55 846.421 1724.98 842.547 1722.69 839.691Z" fill="#FFFFFF"/></g></g></g><path d="M1222.5 1183.5 1222.5 924.5 1470.5 1183.5Z" stroke="#0F1113" stroke-width="4.58333" stroke-miterlimit="8" fill="#FF0000" fill-rule="evenodd"/><g clip-path="url(#clip12)"><g clip-path="url(#clip13)"><g clip-path="url(#clip14)"><path d="M1348.45 1079.26C1347.72 1078.51 1346.4 1077.58 1344.52 1077.1 1343.58 1076.84 1342.55 1076.71 1341.44 1076.65 1340.89 1076.6 1340.32 1076.63 1339.72 1076.62 1339.13 1076.66 1338.51 1076.7 1337.9 1076.78 1335.41 1077.11 1332.76 1077.91 1330.24 1079.1 1327.7 1080.27 1325.27 1081.78 1322.99 1083.39 1318.45 1086.62 1314.48 1090.21 1310.79 1092.65 1308.96 1093.88 1307.21 1094.86 1305.64 1095.53 1304.07 1096.19 1302.71 1096.59 1301.73 1096.8 1301.23 1096.93 1301.24 1097.29 1301.78 1097.34 1302.89 1097.47 1304.54 1097.49 1306.54 1097.2 1308.52 1096.91 1310.83 1096.28 1313.14 1095.31 1313.58 1095.13 1314.01 1094.93 1314.44 1094.73 1314.12 1096.12 1314.04 1097.6 1314.28 1099.11 1315.26 1105.33 1321.1 1109.58 1327.33 1108.59 1333.55 1107.61 1337.79 1101.77 1336.81 1095.55 1336.07 1090.85 1332.55 1087.28 1328.2 1086.23 1329.38 1085.38 1330.59 1084.51 1331.83 1083.68 1333.81 1082.37 1335.87 1081.15 1337.94 1080.33 1339.99 1079.5 1342.09 1079.01 1343.89 1078.9 1345.68 1078.78 1347.17 1079.19 1348.12 1079.68 1348.57 1079.92 1348.82 1079.65 1348.45 1079.26M1325.77 1122.76C1322.22 1128.05 1314.14 1129.27 1308.31 1130.03 1303.71 1130.63 1299.02 1130.94 1294.33 1130.9 1287.72 1130.84 1281.11 1130.11 1274.76 1128.55 1268.7 1127.06 1263.63 1124.69 1260.92 1123.29 1260.21 1122.95 1259.42 1123.68 1259.81 1124.39 1260.2 1125.13 1260.71 1126.05 1261.32 1127.12 1261.98 1128.13 1262.74 1129.29 1263.66 1130.53 1264.15 1131.13 1264.66 1131.75 1265.18 1132.39 1272.12 1140.85 1283.2 1146.33 1294.16 1146.44 1302.63 1146.53 1310.51 1143.51 1317.33 1138.63 1320.57 1136.29 1323.4 1133.53 1325.11 1130.61 1325.56 1129.92 1325.9 1129.16 1326.21 1128.49 1326.48 1127.77 1326.75 1127.13 1326.89 1126.47 1326.96 1126.15 1327.05 1125.84 1327.1 1125.55 1327.14 1125.24 1327.18 1124.95 1327.21 1124.67 1327.3 1124.13 1327.28 1123.62 1327.27 1123.18 1327.26 1122.33 1326.2 1122.16 1325.77 1122.76M1273.43 1099.11C1273.66 1097.65 1273.59 1096.22 1273.29 1094.87 1273.97 1095.18 1274.65 1095.48 1275.32 1095.73 1277.58 1096.61 1279.75 1097.15 1281.59 1097.36 1283.43 1097.57 1284.93 1097.5 1285.95 1097.37 1286.47 1097.32 1286.46 1096.95 1285.95 1096.84 1284.89 1096.64 1283.36 1096.2 1281.66 1095.45 1279.96 1094.7 1278.08 1093.64 1276.2 1092.3 1272.41 1089.66 1268.51 1086.07 1264.71 1083.39 1262.82 1082.05 1260.62 1080.69 1258.23 1079.53 1255.83 1078.38 1253.24 1077.44 1250.67 1077.03 1248.11 1076.6 1245.68 1076.66 1243.65 1077.09 1241.6 1077.51 1240.09 1078.48 1239.3 1079.27 1238.91 1079.66 1239.14 1079.94 1239.59 1079.72 1240.47 1079.29 1241.8 1078.91 1243.43 1078.98 1244.24 1078.99 1245.14 1079.14 1246.09 1079.32 1246.56 1079.41 1247.04 1079.56 1247.53 1079.67 1248.02 1079.83 1248.52 1079.98 1249.02 1080.16 1252.4 1081.36 1255.88 1083.68 1259.5 1086.24 1255.15 1087.28 1251.64 1090.85 1250.9 1095.55 1249.91 1101.77 1254.16 1107.61 1260.38 1108.59 1266.6 1109.58 1272.44 1105.33 1273.43 1099.11" fill-rule="evenodd"/></g></g></g><g clip-path="url(#clip15)"><g clip-path="url(#clip16)"><g clip-path="url(#clip17)"><path d="M1591.46 797.895C1591.46 793.945 1588.26 790.749 1584.33 790.749 1580.39 790.749 1577.19 793.945 1577.19 797.895 1577.19 801.818 1580.39 805.014 1584.33 805.014 1588.26 805.014 1591.46 801.818 1591.46 797.895Z" fill="#2F2013"/><path d="M1584.81 839.469C1584.81 834.325 1580.65 830.167 1575.51 830.167 1570.38 830.167 1566.22 834.325 1566.22 839.469 1566.22 844.588 1570.38 848.746 1575.51 848.746 1580.65 848.746 1584.81 844.588 1584.81 839.469Z" fill="#2F2013"/><path d="M1555.45 802.571C1555.53 795.634 1549.97 789.917 1543.02 789.839 1536.07 789.761 1530.36 795.322 1530.28 802.26 1530.27 802.364 1530.27 802.468 1530.28 802.571 1530.19 809.535 1535.75 815.226 1542.71 815.33 1549.66 815.407 1555.36 809.847 1555.45 802.883 1555.45 802.779 1555.45 802.675 1555.45 802.571Z" fill="#2F2013"/><path d="M1613.57 789.969 1616.68 782.771C1618.44 778.692 1621.7 775.444 1625.77 773.677L1632.97 770.585C1633.27 770.455 1633.4 770.117 1633.28 769.806 1633.22 769.676 1633.11 769.572 1632.97 769.493L1625.77 766.401C1621.7 764.635 1618.44 761.387 1616.68 757.307L1613.57 750.109C1613.45 749.797 1613.11 749.667 1612.81 749.797 1612.67 749.85 1612.56 749.954 1612.5 750.109L1609.39 757.307C1607.63 761.387 1604.38 764.635 1600.3 766.401L1593.1 769.493C1592.81 769.623 1592.67 769.961 1592.8 770.273 1592.85 770.403 1592.96 770.507 1593.1 770.559L1600.3 773.677C1604.38 775.444 1607.63 778.692 1609.39 782.771L1612.5 789.969C1612.62 790.255 1612.96 790.411 1613.26 790.281 1613.4 790.229 1613.51 790.099 1613.57 789.969Z" fill="#2F2013"/><path d="M1395.45 937.741 1451.17 927.582 1481.12 892.607 1529.35 858.542C1533.5 855.631 1534.49 849.889 1531.56 845.731 1528.77 841.782 1523.39 840.665 1519.26 843.185L1463.87 877.042Z" fill="#2F2013"/><path d="M1408.13 1035.83C1412.99 1033.62 1417.04 1029.96 1419.69 1025.33L1422.26 1020.87C1423.84 1018.11 1426.79 1016.4 1429.99 1016.4L1470.75 1016.4C1472.59 1016.4 1474.41 1015.95 1476.05 1015.12L1481.27 977.056 1461.97 955.203 1418.56 964.479C1417.44 964.713 1416.35 963.959 1416.14 962.842 1415.93 961.751 1416.62 960.686 1417.7 960.426L1463.48 950.656 1485.65 975.73 1480.86 1010.63 1504.53 978.355C1507.64 974.119 1507.51 968.325 1504.21 964.22L1478.96 932.908C1476.3 929.583 1472.03 927.998 1467.85 928.777L1395.23 942.003C1386.98 943.51 1379.43 947.642 1373.71 953.774L1336.81 993.426C1336.64 993.66 1336.64 993.971 1336.81 994.205L1370.99 1051.92C1371.16 1052.23 1371.52 1052.33 1371.82 1052.2Z" fill="#2F2013"/></g></g></g></g></svg>