<svg width="550" height="550" xmlns="http://www.w3.org/2000/svg" xmlns:xlink="http://www.w3.org/1999/xlink" overflow="hidden"><defs><clipPath id="clip0"><rect x="1986" y="1243" width="550" height="550"/></clipPath><radialGradient cx="762000" cy="762000" r="1.07763e+06" gradientUnits="userSpaceOnUse" spreadMethod="pad" id="fill1" gradientTransform="matrix(0.000360892 0 0 0.000360892 1986 1243)"><stop offset="0" stop-color="#F0E9DC"/><stop offset="0.17" stop-color="#F0E9DC"/><stop offset="0.33" stop-color="#875C39"/><stop offset="1" stop-color="#0F1113"/></radialGradient><radialGradient cx="257695" cy="281247" r="381453" fx="257695" gradientUnits="userSpaceOnUse" spreadMethod="pad" id="fill2" gradientTransform="matrix(0.000360892 0 0 0.000360892 2008 1256)"><stop offset="0" stop-color="#F0E9DC"/><stop offset="0.54" stop-color="#875C39" stop-opacity="0"/><stop offset="1" stop-color="#875C39" stop-opacity="0"/></radialGradient><linearGradient x1="2259.5" y1="1249" x2="2259.5" y2="1403" gradientUnits="userSpaceOnUse" spreadMethod="reflect" id="fill3"><stop offset="0" stop-color="#F5FAFF" stop-opacity="0.231373"/><stop offset="0.32" stop-color="#FFFFFF" stop-opacity="0"/><stop offset="1" stop-color="#FFFFFF" stop-opacity="0"/></linearGradient><radialGradient cx="94211" cy="102524" r="139236" gradientUnits="userSpaceOnUse" spreadMethod="pad" id="fill4" gradientTransform="matrix(0.000360892 0 0 0.000360892 1997 1307)"><stop offset="0" stop-color="#F0E9DC"/><stop offset="0.54" stop-color="#875C39" stop-opacity="0"/><stop offset="1" stop-color="#875C39" stop-opacity="0"/></radialGradient><radialGradient cx="110836" cy="120534" r="163748" gradientUnits="userSpaceOnUse" spreadMethod="pad" id="fill5" gradientTransform="matrix(0.000360892 0 0 0.000360892 2026 1352)"><stop offset="0" stop-color="#F0E9DC"/><stop offset="0.54" stop-color="#875C39" stop-opacity="0"/><stop offset="1" stop-color="#875C39" stop-opacity="0"/></radialGradient><radialGradient cx="292331" cy="279862" r="404698" fx="292331" fy="279862" gradientUnits="userSpaceOnUse" spreadMethod="pad" id="fill6" gradientTransform="matrix(0.000360892 0 0 0.000360892 2316 1570)"><stop offset="0" stop-color="#F0E9DC"/><stop offset="0.54" stop-color="#875C39" stop-opacity="0"/><stop offset="1" stop-color="#875C39" stop-opacity="0"/></radialGradient><radialGradient cx="72044" cy="77585" r="105876" gradientUnits="userSpaceOnUse" spreadMethod="pad" id="fill7" gradientTransform="matrix(0.000360892 0 0 0.000360892 2461 1699)"><stop offset="0" stop-color="#F0E9DC"/><stop offset="0.54" stop-color="#875C39" stop-opacity="0"/><stop offset="1" stop-color="#875C39" stop-opacity="0"/></radialGradient><radialGradient cx="77585.5" cy="83127.5" r="113709" gradientUnits="userSpaceOnUse" spreadMethod="pad" id="fill8" gradientTransform="matrix(0.000360892 0 0 0.000360892 2445 1616)"><stop offset="0" stop-color="#F0E9DC"/><stop offset="0.54" stop-color="#875C39" stop-opacity="0"/><stop offset="1" stop-color="#875C39" stop-opacity="0"/></radialGradient><clipPath id="clip9"><rect x="2000" y="1259" width="526" height="526"/></clipPath><clipPath id="clip10"><rect x="2000" y="1259" width="526" height="526"/></clipPath><clipPath id="clip11"><rect x="2000" y="1259" width="526" height="526"/></clipPath><clipPath id="clip12"><rect x="2055" y="1314" width="382" height="383"/></clipPath><clipPath id="clip13"><rect x="2055" y="1314" width="382" height="383"/></clipPath><clipPath id="clip14"><rect x="2055" y="1314" width="382" height="383"/></clipPath></defs><g clip-path="url(#clip0)" transform="translate(-1986 -1243)"><rect x="1986" y="1243" width="550" height="550" fill="url(#fill1)"/><path d="M2008 1357.5C2008 1301.44 2049.64 1256 2101 1256 2152.36 1256 2194 1301.44 2194 1357.5 2194 1413.56 2152.36 1459 2101 1459 2049.64 1459 2008 1413.56 2008 1357.5Z" fill="url(#fill2)" fill-rule="evenodd"/><path d="M2020.73 1249 2498.27 1249C2514.14 1249 2527 1268.86 2527 1293.37L2527 1403C2527 1364.82 2506.96 1333.88 2482.23 1333.88L2036.77 1333.88C2012.04 1333.88 1992 1364.82 1992 1403L1992 1293.37C1992 1268.86 2004.86 1249 2020.73 1249Z" fill="url(#fill3)" fill-rule="evenodd"/><path d="M1997 1344C1997 1323.57 2012.22 1307 2031 1307 2049.78 1307 2065 1323.57 2065 1344 2065 1364.43 2049.78 1381 2031 1381 2012.22 1381 1997 1364.43 1997 1344Z" fill="url(#fill4)" fill-rule="evenodd"/><path d="M2026 1395.5C2026 1371.48 2043.91 1352 2066 1352 2088.09 1352 2106 1371.48 2106 1395.5 2106 1419.52 2088.09 1439 2066 1439 2043.91 1439 2026 1419.52 2026 1395.5Z" fill="url(#fill5)" fill-rule="evenodd"/><path d="M2316 1671C2316 1615.22 2363.23 1570 2421.5 1570 2479.77 1570 2527 1615.22 2527 1671 2527 1726.78 2479.77 1772 2421.5 1772 2363.23 1772 2316 1726.78 2316 1671Z" fill="url(#fill6)" fill-rule="evenodd"/><path d="M2461 1727C2461 1711.54 2472.64 1699 2487 1699 2501.36 1699 2513 1711.54 2513 1727 2513 1742.46 2501.36 1755 2487 1755 2472.64 1755 2461 1742.46 2461 1727Z" fill="url(#fill7)" fill-rule="evenodd"/><path d="M2445 1646C2445 1629.43 2457.54 1616 2473 1616 2488.46 1616 2501 1629.43 2501 1646 2501 1662.57 2488.46 1676 2473 1676 2457.54 1676 2445 1662.57 2445 1646Z" fill="url(#fill8)" fill-rule="evenodd"/><g clip-path="url(#clip9)"><g clip-path="url(#clip10)"><g clip-path="url(#clip11)"><path d="M2199.16 1505.34 2169.97 1712.07C2169.3 1716.87 2165.59 1720.68 2160.81 1721.47 2156.03 1722.27 2151.29 1719.88 2149.09 1715.57L2074.94 1570.15C2072.9 1566.15 2071.87 1561.7 2071.94 1557.22L2074.92 1358.89C2074.97 1355.15 2077.35 1351.85 2080.88 1350.61 2084.41 1349.37 2088.33 1350.49 2090.7 1353.38L2190.96 1475.99C2197.66 1484.21 2200.64 1494.84 2199.15 1505.34ZM2196.01 1468.84C2203.12 1477.55 2214.37 1481.77 2225.45 1479.9L2474.64 1437.99C2477.97 1437.44 2480.62 1434.91 2481.34 1431.62 2482.06 1428.32 2480.69 1424.93 2477.91 1423.04L2328.99 1322.22C2325.33 1319.74 2320.98 1318.5 2316.56 1318.69L2101.18 1327.83C2097.42 1327.98 2094.07 1330.26 2092.53 1333.68 2091 1337.12 2091.53 1341.13 2093.91 1344.05ZM2489.69 1449.69C2487.39 1446.83 2483.74 1445.44 2480.11 1446.05L2237.15 1486.91C2221.3 1489.58 2209.02 1502.2 2206.76 1518.1L2177.82 1722.74C2177.02 1728.38 2179.24 1734.03 2183.66 1737.63 2188.08 1741.22 2194.07 1742.23 2199.43 1740.3L2401.39 1667.34C2405.72 1665.78 2409.19 1662.44 2410.92 1658.16L2491.18 1459.83C2492.55 1456.42 2491.98 1452.55 2489.69 1449.69Z" fill="#FFFFFF"/></g></g></g><g clip-path="url(#clip12)"><g clip-path="url(#clip13)"><g clip-path="url(#clip14)"><path d="M191.882 35.3467C196.271 35.3471 199.829 31.7892 199.83 27.4 199.831 23.0108 196.272 19.4523 191.883 19.4518 187.494 19.4514 183.936 23.0093 183.935 27.3985 183.935 27.399 183.935 27.3995 183.935 27.4 183.94 31.7866 187.495 35.3413 191.882 35.3467Z" fill="#2F2013" transform="matrix(1 0 0 1.00262 2056 1314)"/><path d="M216.634 91.7525C223.104 91.7525 228.349 86.5078 228.349 80.0375 228.349 73.5675 223.104 68.3225 216.634 68.3225 210.164 68.3225 204.919 73.5675 204.919 80.0375 204.926 86.5048 210.167 91.7458 216.634 91.7525Z" fill="#2F2013" transform="matrix(1 0 0 1.00262 2056 1314)"/><path d="M153.799 80.9111C158.828 80.9111 162.904 76.8347 162.904 71.8058 162.904 66.7771 158.828 62.7005 153.799 62.7005 148.77 62.7005 144.694 66.7771 144.694 71.8058 144.694 71.8071 144.694 71.8083 144.694 71.8095 144.701 76.8347 148.774 80.9052 153.799 80.9111Z" fill="#2F2013" transform="matrix(1 0 0 1.00262 2056 1314)"/><path d="M229.046 217.601C226.237 212.468 224.753 206.716 224.73 200.865L224.73 152.549 156.269 152.549 156.269 200.865C156.247 206.724 154.764 212.486 151.953 217.628L93.3055 325.183C86.8017 337.17 91.2465 352.159 103.233 358.664 106.806 360.602 110.802 361.629 114.868 361.652L266.132 361.652C279.757 361.582 290.745 350.479 290.673 336.854 290.652 332.776 289.62 328.766 287.669 325.183ZM193.41 333.439C193.307 333.481 193.203 333.519 193.097 333.554 191.418 334.164 189.579 334.164 187.901 333.554 187.808 333.523 187.715 333.489 187.623 333.453 155.24 320.604 144.324 296.198 147.87 277.709 150.447 264.127 160.248 255.345 172.841 255.345 178.671 255.345 184.613 257.257 190.545 261.034 196.408 257.426 202.405 255.536 208.062 255.536 220.571 255.536 230.406 264.22 233.118 277.66L233.125 277.698C236.677 295.995 225.772 320.326 193.409 333.439Z" fill="#2F2013" transform="matrix(1 0 0 1.00262 2056 1314)"/><path d="M140.643 120.551 240.357 120.551 240.357 142.131 140.643 142.131Z" fill="#2F2013" transform="matrix(1 0 0 1.00262 2056 1314)"/><path d="M208.062 265.956C203.678 265.956 198.527 267.942 193.558 271.549 191.713 272.889 189.21 272.873 187.382 271.509 182.346 267.751 177.317 265.765 172.839 265.765 165.374 265.765 159.728 271.09 158.105 279.663 155.397 293.773 164.393 312.651 190.489 323.377 216.587 312.431 225.594 293.634 222.903 279.705 221.184 271.221 215.503 265.956 208.062 265.956Z" fill="#2F2013" transform="matrix(1 0 0 1.00262 2056 1314)"/></g></g></g></g></svg>