<svg width="550" height="550" xmlns="http://www.w3.org/2000/svg" xmlns:xlink="http://www.w3.org/1999/xlink" overflow="hidden"><defs><clipPath id="clip0"><rect x="1218" y="38" width="550" height="550"/></clipPath><radialGradient cx="762000" cy="762000" r="1.07763e+06" gradientUnits="userSpaceOnUse" spreadMethod="pad" id="fill1" gradientTransform="matrix(0.000360892 0 0 0.000360892 1218 38.0002)"><stop offset="0" stop-color="#F0E9DC"/><stop offset="0.17" stop-color="#F0E9DC"/><stop offset="0.33" stop-color="#875C39"/><stop offset="1" stop-color="#0F1113"/></radialGradient><radialGradient cx="257695" cy="281248" r="381453" fx="257694" fy="281248" gradientUnits="userSpaceOnUse" spreadMethod="pad" id="fill2" gradientTransform="matrix(0.000360892 0 0 0.000360892 1240 50.9999)"><stop offset="0" stop-color="#F0E9DC"/><stop offset="0.54" stop-color="#875C39" stop-opacity="0"/><stop offset="1" stop-color="#875C39" stop-opacity="0"/></radialGradient><linearGradient x1="1491.5" y1="44" x2="1491.5" y2="198" gradientUnits="userSpaceOnUse" spreadMethod="reflect" id="fill3"><stop offset="0" stop-color="#F5FAFF" stop-opacity="0.231373"/><stop offset="0.32" stop-color="#FFFFFF" stop-opacity="0"/><stop offset="1" stop-color="#FFFFFF" stop-opacity="0"/></linearGradient><radialGradient cx="94211" cy="102524" r="139236" gradientUnits="userSpaceOnUse" spreadMethod="pad" id="fill4" gradientTransform="matrix(0.000360892 0 0 0.000360892 1229 102)"><stop offset="0" stop-color="#F0E9DC"/><stop offset="0.54" stop-color="#875C39" stop-opacity="0"/><stop offset="1" stop-color="#875C39" stop-opacity="0"/></radialGradient><radialGradient cx="110836" cy="120534" r="163747" fx="110836" fy="120534" gradientUnits="userSpaceOnUse" spreadMethod="pad" id="fill5" gradientTransform="matrix(0.000360892 0 0 0.000360892 1258 147)"><stop offset="0" stop-color="#F0E9DC"/><stop offset="0.54" stop-color="#875C39" stop-opacity="0"/><stop offset="1" stop-color="#875C39" stop-opacity="0"/></radialGradient><radialGradient cx="292331" cy="279862" r="404697" gradientUnits="userSpaceOnUse" spreadMethod="pad" id="fill6" gradientTransform="matrix(0.000360892 0 0 0.000360892 1548 365)"><stop offset="0" stop-color="#F0E9DC"/><stop offset="0.54" stop-color="#875C39" stop-opacity="0"/><stop offset="1" stop-color="#875C39" stop-opacity="0"/></radialGradient><radialGradient cx="72043.5" cy="77585.5" r="105876" fx="72043.5" fy="77585.5" gradientUnits="userSpaceOnUse" spreadMethod="pad" id="fill7" gradientTransform="matrix(0.000360892 0 0 0.000360892 1693 494)"><stop offset="0" stop-color="#F0E9DC"/><stop offset="0.54" stop-color="#875C39" stop-opacity="0"/><stop offset="1" stop-color="#875C39" stop-opacity="0"/></radialGradient><radialGradient cx="77585" cy="83127" r="113708" gradientUnits="userSpaceOnUse" spreadMethod="pad" id="fill8" gradientTransform="matrix(0.000360892 0 0 0.000360892 1677 411)"><stop offset="0" stop-color="#F0E9DC"/><stop offset="0.54" stop-color="#875C39" stop-opacity="0"/><stop offset="1" stop-color="#875C39" stop-opacity="0"/></radialGradient><clipPath id="clip9"><rect x="1233" y="52" width="525" height="527"/></clipPath><clipPath id="clip10"><rect x="1233" y="52" width="525" height="527"/></clipPath><clipPath id="clip11"><rect x="1233" y="52" width="525" height="527"/></clipPath><clipPath id="clip12"><rect x="1332" y="167" width="280" height="280"/></clipPath><clipPath id="clip13"><rect x="1332" y="167" width="280" height="280"/></clipPath><clipPath id="clip14"><rect x="1332" y="167" width="280" height="280"/></clipPath></defs><g clip-path="url(#clip0)" transform="translate(-1218 -38)"><rect x="1218" y="38.0002" width="550" height="550" fill="url(#fill1)"/><path d="M1240 152.5C1240 96.443 1281.64 50.9999 1333 50.9999 1384.36 50.9999 1426 96.443 1426 152.5 1426 208.557 1384.36 254 1333 254 1281.64 254 1240 208.557 1240 152.5Z" fill="url(#fill2)" fill-rule="evenodd"/><path d="M1252.73 44 1730.27 44C1746.14 44 1759 63.8639 1759 88.3676L1759 198C1759 159.824 1738.96 128.876 1714.23 128.876L1268.77 128.876C1244.04 128.876 1224 159.824 1224 198L1224 88.3676C1224 63.8639 1236.86 44 1252.73 44Z" fill="url(#fill3)" fill-rule="evenodd"/><path d="M1229 139C1229 118.566 1244.22 102 1263 102 1281.78 102 1297 118.566 1297 139 1297 159.435 1281.78 176 1263 176 1244.22 176 1229 159.435 1229 139Z" fill="url(#fill4)" fill-rule="evenodd"/><path d="M1258 190.5C1258 166.476 1275.91 147 1298 147 1320.09 147 1338 166.476 1338 190.5 1338 214.525 1320.09 234 1298 234 1275.91 234 1258 214.525 1258 190.5Z" fill="url(#fill5)" fill-rule="evenodd"/><path d="M1548 466C1548 410.219 1595.23 365 1653.5 365 1711.77 365 1759 410.219 1759 466 1759 521.781 1711.77 567 1653.5 567 1595.23 567 1548 521.781 1548 466Z" fill="url(#fill6)" fill-rule="evenodd"/><path d="M1693 522C1693 506.536 1704.64 494 1719 494 1733.36 494 1745 506.536 1745 522 1745 537.464 1733.36 550 1719 550 1704.64 550 1693 537.464 1693 522Z" fill="url(#fill7)" fill-rule="evenodd"/><path d="M1677 441C1677 424.432 1689.54 411 1705 411 1720.46 411 1733 424.432 1733 441 1733 457.569 1720.46 471 1705 471 1689.54 471 1677 457.569 1677 441Z" fill="url(#fill8)" fill-rule="evenodd"/><g clip-path="url(#clip9)"><g clip-path="url(#clip10)"><g clip-path="url(#clip11)"><path d="M198.157 246.339 168.967 453.075C168.296 457.874 164.589 461.676 159.81 462.472 155.032 463.269 150.286 460.884 148.092 456.571L73.9401 311.146C71.9031 307.146 70.8741 302.704 70.9376 298.221L73.9195 99.8852C73.9725 96.1476 76.3547 92.851 79.884 91.612 83.4115 90.373 87.3285 91.4856 89.7019 94.384L189.955 216.993C196.663 225.205 199.645 235.84 198.155 246.34ZM195.006 209.842C202.125 218.546 213.37 222.767 224.448 220.899L473.642 178.993C476.971 178.436 479.618 175.906 480.344 172.62 481.057 169.323 479.692 165.931 476.91 164.041L327.988 63.2192C324.335 60.7412 319.977 59.5022 315.557 59.692L100.18 68.8266C96.4206 68.9837 93.0711 71.2617 91.528 74.6847 89.995 78.1182 90.5319 82.1297 92.914 85.0482ZM488.692 190.689C486.391 187.834 482.737 186.437 479.115 187.046L236.145 227.911C220.301 230.579 208.015 243.199 205.758 259.096L176.819 463.741C176.021 469.381 178.236 475.029 182.657 478.629 187.078 482.221 193.074 483.227 198.428 481.298L400.386 408.344C404.722 406.78 408.188 403.441 409.921 399.157L490.184 200.834C491.549 197.421 490.98 193.547 488.692 190.691Z" fill="#FFFFFF" transform="matrix(1 0 0 1.0019 1233 52.9999)"/></g></g></g><g clip-path="url(#clip12)"><g clip-path="url(#clip13)"><g clip-path="url(#clip14)"><path d="M1529.12 205.507C1529.5 223.287 1515.39 238.01 1497.61 238.392 1479.83 238.774 1465.11 224.67 1464.73 206.89 1464.35 189.11 1478.45 174.387 1496.23 174.005 1514.01 173.623 1528.73 187.727 1529.12 205.507Z" fill="#2F2013"/><path d="M1566.92 403.04 1526.04 403.04C1528 394.36 1531.36 383.16 1533.32 375.88 1538.64 356.56 1541.72 346.2 1541.44 339.48 1541.16 333.6 1540.6 325.76 1539.76 317.36 1534.44 249.88 1526.88 245.96 1514.56 245.96 1514.56 245.96 1514.56 245.96 1514.56 245.96 1498.32 245.96 1487.68 247.36 1480.96 254.08 1478.16 256.88 1475.36 263.6 1475.92 269.76 1476.76 275.92 1479 293 1479 293 1468.92 295.8 1457.72 298.88 1447.08 301.4 1439.24 303.36 1434.48 311.2 1436.44 319.04 1438.4 326.88 1446.24 331.64 1454.08 329.68 1465.28 326.88 1474.8 324.64 1482.92 322.4L1484.88 336.68C1470.6 337.8 1452.96 339.2 1447.92 340.04 1438.68 341.44 1429.72 342.56 1402.84 416.48 1399.48 425.44 1404.24 435.52 1413.2 438.88 1415.16 439.72 1417.12 440 1419.08 440 1426.08 440 1432.8 435.52 1435.6 428.52 1443.16 408.08 1453.24 383.72 1458.84 373.92 1468.08 373.08 1485.16 371.68 1498.88 370.56 1488.8 406.96 1486.28 420.12 1493.84 430.2 1497.48 434.96 1503.08 437.76 1509.24 437.76L1567.48 437.76C1577 437.76 1584.84 429.92 1584.84 420.4 1584.84 410.88 1576.72 403.04 1566.92 403.04Z" fill="#2F2013"/><path d="M1400.6 308.96 1390.8 315.96C1389.12 317.08 1389.4 319.6 1391.36 320.44L1423.56 335.28C1426.08 336.4 1428.6 333.04 1426.36 331.08L1412.08 318.48 1422.72 310.92C1424.12 309.8 1424.12 307.84 1422.72 306.72L1396.4 285.44C1395.56 284.6 1394.16 284.6 1393.32 285.44L1382.4 293.28C1381 294.4 1381 296.64 1382.4 297.48L1400.6 308.96Z" fill="#2F2013"/><path d="M1417.4 345.64 1398.36 346.76 1400.6 333.88C1400.88 332.2 1399.48 330.8 1397.8 330.8L1364.2 334.16C1363.08 334.16 1362.24 335.28 1361.96 336.4L1359.72 349.84C1359.44 351.52 1361.12 353.2 1362.8 352.64L1383.8 347.88 1381.56 360.2C1381.28 362.16 1383.24 363.56 1384.92 363L1418.24 350.68C1421.04 349.56 1420.2 345.64 1417.4 345.64Z" fill="#2F2013"/></g></g></g></g></svg>