<svg width="550" height="550" xmlns="http://www.w3.org/2000/svg" xmlns:xlink="http://www.w3.org/1999/xlink" overflow="hidden"><defs><clipPath id="clip0"><rect x="627" y="38" width="550" height="550"/></clipPath><radialGradient cx="762000" cy="762000" r="1.07763e+06" gradientUnits="userSpaceOnUse" spreadMethod="pad" id="fill1" gradientTransform="matrix(0.000360892 0 0 0.000360892 627 38.0002)"><stop offset="0" stop-color="#F0E9DC"/><stop offset="0.17" stop-color="#F0E9DC"/><stop offset="0.33" stop-color="#875C39"/><stop offset="1" stop-color="#0F1113"/></radialGradient><radialGradient cx="257695" cy="281248" r="381453" fx="257694" fy="281248" gradientUnits="userSpaceOnUse" spreadMethod="pad" id="fill2" gradientTransform="matrix(0.000360892 0 0 0.000360892 648 50.9999)"><stop offset="0" stop-color="#F0E9DC"/><stop offset="0.54" stop-color="#875C39" stop-opacity="0"/><stop offset="1" stop-color="#875C39" stop-opacity="0"/></radialGradient><linearGradient x1="899.5" y1="44" x2="899.5" y2="198" gradientUnits="userSpaceOnUse" spreadMethod="reflect" id="fill3"><stop offset="0" stop-color="#F5FAFF" stop-opacity="0.231373"/><stop offset="0.32" stop-color="#FFFFFF" stop-opacity="0"/><stop offset="1" stop-color="#FFFFFF" stop-opacity="0"/></linearGradient><radialGradient cx="95596.5" cy="102524" r="140178" gradientUnits="userSpaceOnUse" spreadMethod="pad" id="fill4" gradientTransform="matrix(0.000360892 0 0 0.000360892 637 102)"><stop offset="0" stop-color="#F0E9DC"/><stop offset="0.54" stop-color="#875C39" stop-opacity="0"/><stop offset="1" stop-color="#875C39" stop-opacity="0"/></radialGradient><radialGradient cx="112222" cy="120534" r="164689" gradientUnits="userSpaceOnUse" spreadMethod="pad" id="fill5" gradientTransform="matrix(0.000360892 0 0 0.000360892 666 147)"><stop offset="0" stop-color="#F0E9DC"/><stop offset="0.54" stop-color="#875C39" stop-opacity="0"/><stop offset="1" stop-color="#875C39" stop-opacity="0"/></radialGradient><radialGradient cx="292331" cy="279862" r="404697" gradientUnits="userSpaceOnUse" spreadMethod="pad" id="fill6" gradientTransform="matrix(0.000360892 0 0 0.000360892 956 365)"><stop offset="0" stop-color="#F0E9DC"/><stop offset="0.54" stop-color="#875C39" stop-opacity="0"/><stop offset="1" stop-color="#875C39" stop-opacity="0"/></radialGradient><radialGradient cx="70658" cy="77585.5" r="104938" gradientUnits="userSpaceOnUse" spreadMethod="pad" id="fill7" gradientTransform="matrix(0.000360892 0 0 0.000360892 1102 494)"><stop offset="0" stop-color="#F0E9DC"/><stop offset="0.54" stop-color="#875C39" stop-opacity="0"/><stop offset="1" stop-color="#875C39" stop-opacity="0"/></radialGradient><radialGradient cx="77585.5" cy="83127" r="113708" gradientUnits="userSpaceOnUse" spreadMethod="pad" id="fill8" gradientTransform="matrix(0.000360892 0 0 0.000360892 1085 411)"><stop offset="0" stop-color="#F0E9DC"/><stop offset="0.54" stop-color="#875C39" stop-opacity="0"/><stop offset="1" stop-color="#875C39" stop-opacity="0"/></radialGradient><clipPath id="clip9"><rect x="641" y="52" width="527" height="527"/></clipPath><clipPath id="clip10"><rect x="641" y="52" width="527" height="527"/></clipPath><clipPath id="clip11"><rect x="641" y="52" width="527" height="527"/></clipPath><clipPath id="clip12"><rect x="720" y="136" width="330" height="330"/></clipPath><clipPath id="clip13"><rect x="720" y="136" width="330" height="330"/></clipPath><clipPath id="clip14"><rect x="720" y="136" width="330" height="330"/></clipPath><clipPath id="clip15"><rect x="688" y="122" width="169" height="168"/></clipPath><clipPath id="clip16"><rect x="688" y="122" width="169" height="168"/></clipPath><clipPath id="clip17"><rect x="688" y="122" width="169" height="168"/></clipPath><clipPath id="clip18"><rect x="946" y="273" width="169" height="169"/></clipPath><clipPath id="clip19"><rect x="946" y="273" width="169" height="169"/></clipPath><clipPath id="clip20"><rect x="946" y="273" width="169" height="169"/></clipPath></defs><g clip-path="url(#clip0)" transform="translate(-627 -38)"><rect x="627" y="38.0002" width="550" height="550" fill="url(#fill1)"/><path d="M648 152.5C648 96.443 689.637 50.9999 741 50.9999 792.362 50.9999 834 96.443 834 152.5 834 208.557 792.362 254 741 254 689.637 254 648 208.557 648 152.5Z" fill="url(#fill2)" fill-rule="evenodd"/><path d="M660.734 44 1138.27 44C1154.14 44 1167 63.8639 1167 88.3676L1167 198C1167 159.824 1146.96 128.876 1122.23 128.876L676.767 128.876C652.043 128.876 632 159.824 632 198L632 88.3676C632 63.8639 644.865 44 660.734 44Z" fill="url(#fill3)" fill-rule="evenodd"/><path d="M637 139C637 118.566 652.446 102 671.5 102 690.554 102 706 118.566 706 139 706 159.435 690.554 176 671.5 176 652.446 176 637 159.435 637 139Z" fill="url(#fill4)" fill-rule="evenodd"/><path d="M666 190.5C666 166.476 684.132 147 706.5 147 728.867 147 747 166.476 747 190.5 747 214.525 728.867 234 706.5 234 684.132 234 666 214.525 666 190.5Z" fill="url(#fill5)" fill-rule="evenodd"/><path d="M956 466C956 410.219 1003.23 365 1061.5 365 1119.77 365 1167 410.219 1167 466 1167 521.781 1119.77 567 1061.5 567 1003.23 567 956 521.781 956 466Z" fill="url(#fill6)" fill-rule="evenodd"/><path d="M1102 522C1102 506.536 1113.42 494 1127.5 494 1141.58 494 1153 506.536 1153 522 1153 537.464 1141.58 550 1127.5 550 1113.42 550 1102 537.464 1102 522Z" fill="url(#fill7)" fill-rule="evenodd"/><path d="M1085 441C1085 424.432 1097.54 411 1113 411 1128.46 411 1141 424.432 1141 441 1141 457.569 1128.46 471 1113 471 1097.54 471 1085 457.569 1085 441Z" fill="url(#fill8)" fill-rule="evenodd"/><g clip-path="url(#clip9)"><g clip-path="url(#clip10)"><g clip-path="url(#clip11)"><path d="M839.534 299.808 810.289 506.938C809.616 511.746 805.902 515.555 801.115 516.353 796.327 517.151 791.572 514.762 789.374 510.44L715.081 364.739C713.04 360.73 712.009 356.281 712.073 351.789L715.06 153.075C715.114 149.331 717.5 146.028 721.036 144.786 724.571 143.545 728.495 144.66 730.873 147.564L831.317 270.407C838.037 278.634 841.025 289.289 839.532 299.809ZM836.377 263.241C843.51 271.962 854.777 276.191 865.876 274.319L1115.54 232.333C1118.88 231.775 1121.53 229.241 1122.26 225.949 1122.97 222.646 1121.61 219.247 1118.82 217.353L969.613 116.34C965.953 113.857 961.587 112.615 957.159 112.806L741.371 121.958C737.604 122.115 734.249 124.397 732.703 127.827 731.167 131.267 731.704 135.286 734.091 138.21ZM1130.62 244.052C1128.32 241.191 1124.66 239.792 1121.03 240.402L877.595 281.345C861.721 284.018 849.411 296.662 847.15 312.59L818.156 517.624C817.357 523.275 819.575 528.933 824.005 532.541 828.435 536.14 834.441 537.148 839.806 535.215L1042.15 462.122C1046.49 460.555 1049.97 457.21 1051.7 452.917L1132.12 254.216C1133.49 250.797 1132.92 246.916 1130.62 244.054Z" fill="#FFFFFF"/></g></g></g><g clip-path="url(#clip12)"><g clip-path="url(#clip13)"><g clip-path="url(#clip14)"><path d="M249.082 302.606C244.725 278.262 216.743 259.139 216.743 259.139 206.493 252.56 195.551 244.303 189.196 239.395 185.798 236.764 183.811 232.707 183.815 228.409L183.815 218.613C183.835 214.711 185.487 210.995 188.37 208.363 196.96 200.426 204.097 191.105 207.633 186.191 209.188 184.061 211.066 182.187 213.2 180.637 223.969 172.706 223.969 163.795 223.969 163.795 224.245 143.551 210.586 149.285 210.586 149.285 216.743 76.2344 164 75.6515 164 75.6515 164 75.6515 111.257 76.2344 117.388 149.266 117.388 149.266 103.73 143.532 104.006 163.776 104.006 163.776 104.006 172.687 114.774 180.618 116.908 182.168 118.787 184.042 120.342 186.172 123.878 191.086 131.014 200.407 139.605 208.344 142.488 210.975 144.139 214.692 144.16 218.594L144.16 228.389C144.164 232.687 142.177 236.744 138.779 239.376 132.449 244.283 121.482 252.541 111.232 259.12 111.232 259.12 83.2493 278.256 78.893 302.587 78.3697 305.48 80.2902 308.25 83.1833 308.773 83.4908 308.829 83.8022 308.857 84.1141 308.858L243.861 308.858C246.8 308.847 249.175 306.454 249.163 303.514 249.162 303.209 249.135 302.906 249.082 302.606Z" fill="#2F2013" transform="matrix(1 0 0 1.00305 721 136)"/><path d="M87.9963 203.604 70.219 203.604 70.219 185.826C70.219 183.501 68.3349 181.617 66.0101 181.617 66.0017 181.617 65.9928 181.617 65.9844 181.617L45.1064 181.617C42.7819 181.617 40.8975 183.501 40.8975 185.826L40.8975 203.604 23.1202 203.604C20.7957 203.604 18.9113 205.488 18.9113 207.813L18.9113 228.703C18.9113 231.028 20.7957 232.912 23.1202 232.912L40.8975 232.912 40.8975 250.696C40.8975 253.02 42.7819 254.905 45.1064 254.905L65.9844 254.905C68.3093 254.905 70.1933 253.02 70.1933 250.696L70.1933 232.919 87.9707 232.919C90.2955 232.919 92.1796 231.034 92.1796 228.71L92.1796 207.813C92.1796 205.498 90.3109 203.618 87.9963 203.604Z" fill="#2F2013" transform="matrix(1 0 0 1.00305 721 136)"/><path d="M304.297 44.2032 283.996 44.2032 283.996 23.9274C283.996 21.2738 281.845 19.1227 279.191 19.1227L255.341 19.1227C252.687 19.1227 250.536 21.2738 250.536 23.9274L250.536 44.2032 230.247 44.2032C227.597 44.1996 225.446 46.345 225.443 48.995 225.443 48.9972 225.443 48.9993 225.443 49.0014L225.443 72.8584C225.443 75.5086 227.591 77.6566 230.241 77.6566 230.243 77.6566 230.245 77.6566 230.247 77.6566L250.536 77.6566 250.536 97.9517C250.536 100.605 252.687 102.756 255.341 102.756L279.191 102.756C281.845 102.756 283.996 100.605 283.996 97.9517L283.996 77.6758 304.297 77.6758C306.947 77.6758 309.095 75.5278 309.095 72.8776L309.095 49.0207C309.106 46.3707 306.967 44.2138 304.316 44.2032 304.31 44.2032 304.304 44.2032 304.297 44.2032Z" fill="#2F2013" transform="matrix(1 0 0 1.00305 721 136)"/></g></g></g><g clip-path="url(#clip15)"><g clip-path="url(#clip16)"><g clip-path="url(#clip17)"><path d="M83.5155 5.21876C80.3187 5.21876 77.2378 5.75629 74.7036 7.41533 72.1694 9.07437 70.4634 12.0808 70.4634 15.6716 70.4634 19.2623 72.1694 22.2789 74.7036 23.938 76.5336 25.136 78.6532 25.7283 80.8907 25.9715L80.8907 36.6435C78.5107 36.7755 76.1964 37.133 73.9239 37.6066L71.1564 27.3322C69.8243 23.6912 65.2279 25.7085 66.1211 28.6828L68.863 38.9418C66.6112 39.6826 64.4472 40.6006 62.36 41.6582L57.0444 32.444C54.7849 29.1859 50.8633 32.5248 52.5137 35.0635L57.8345 44.2676C55.8616 45.5616 53.9998 47.0012 52.2486 48.5691L46.4592 42.7794C47.8803 41.0212 48.977 39.1021 49.4253 36.9543 50.0442 33.9892 49.1103 30.6458 46.5714 28.1069 44.0322 25.5678 40.6891 24.6543 37.7238 25.2733 34.7587 25.8922 32.2122 27.6965 29.9517 29.957 27.6915 32.2172 25.8871 34.7587 25.2681 37.7238 24.6492 40.6891 25.5627 44.0374 28.1017 46.5764 30.6409 49.1155 33.9892 50.0492 36.9543 49.4305 39.1021 48.9819 41.0212 47.8852 42.7794 46.4641L48.5639 52.2486C46.9954 54.0008 45.5571 55.8657 44.2626 57.8395L35.0635 52.5137C31.6499 50.8471 29.7331 55.4214 32.4387 57.0444L41.6532 62.3652C40.5964 64.4509 39.6772 66.613 38.9369 68.863L28.6828 66.1263C25.4779 65.2329 23.8455 69.9994 27.3322 71.1564L37.6017 73.9187C37.1268 76.1941 36.7706 78.5128 36.6383 80.8959L25.9715 80.8959C25.7283 78.6581 25.136 76.5336 23.938 74.7036 22.2789 72.1694 19.2623 70.4686 15.6716 70.4686 12.0808 70.4686 9.07437 72.1694 7.41533 74.7036 5.75629 77.2378 5.21876 80.3187 5.21876 83.5155 5.21876 86.712 5.75629 89.7929 7.41533 92.3271 9.07437 94.8616 12.0808 96.5673 15.6716 96.5673 19.2623 96.5673 22.2789 94.8616 23.938 92.3271 25.1406 90.4901 25.7353 88.3619 25.9766 86.1147L36.6383 86.1147C36.7698 88.5023 37.1262 90.8272 37.6017 93.1068L27.3322 95.8539C23.9646 96.7536 25.3151 101.809 28.6828 100.91L38.9369 98.1677C39.6769 100.417 40.597 102.58 41.6532 104.666L32.4387 109.986C29.1961 111.669 31.9962 116.486 35.0635 114.502L44.2626 109.196C45.5566 111.169 47.0012 113.03 48.5691 114.782L42.7794 120.572C41.0212 119.15 39.1021 118.054 36.9543 117.605 33.9892 116.986 30.6409 117.92 28.1017 120.46 25.5627 122.999 24.6492 126.321 25.2681 129.287 25.8871 132.252 27.6915 134.819 29.9517 137.079 32.2122 139.339 34.7587 141.144 37.7238 141.763 40.6891 142.381 44.0322 141.468 46.5714 138.929 49.1103 136.39 50.0442 133.042 49.4253 130.076 48.977 127.929 47.8803 126.009 46.4592 124.251L52.2486 118.462C54 120.03 55.8616 121.469 57.8345 122.763L52.5137 131.967C50.7657 134.988 55.2964 137.613 57.0444 134.592L62.36 125.377C64.4448 126.434 66.6085 127.354 68.8581 128.094L66.1211 138.348C64.8858 141.888 70.4548 143.382 71.1564 139.699L73.9187 129.429C76.192 129.903 78.5099 130.26 80.8907 130.392L80.8907 141.049C78.6532 141.292 76.5336 141.885 74.7036 143.083 72.1694 144.742 70.4634 147.763 70.4634 151.354 70.4634 154.945 72.1694 157.946 74.7036 159.605 77.2378 161.264 80.3187 161.781 83.5155 161.781 86.712 161.781 89.7876 161.264 92.3221 159.605 94.8564 157.946 96.5673 154.945 96.5673 151.354 96.5673 147.763 94.8564 144.742 92.3221 143.083 90.4849 141.88 88.3619 141.285 86.1147 141.044L86.1147 130.403C88.5049 130.27 90.8361 129.926 93.117 129.45L95.8539 139.699C96.7531 143.067 101.804 141.716 100.904 138.348L98.1726 128.125C100.425 127.383 102.594 126.463 104.681 125.403L109.986 134.592C111.669 137.835 116.481 135.035 114.497 131.967L109.201 122.778C111.173 121.482 113.052 120.059 114.802 118.487L120.567 124.256C119.146 126.014 118.049 127.934 117.6 130.082 116.982 133.047 117.915 136.39 120.454 138.929 122.994 141.468 126.321 142.381 129.287 141.763 132.252 141.144 134.819 139.339 137.079 137.079 139.339 134.819 141.139 132.252 141.758 129.287 142.377 126.321 141.468 122.999 138.929 120.46 136.39 117.92 133.042 116.982 130.076 117.6 127.929 118.049 126.009 119.151 124.251 120.572L118.497 114.818C120.064 113.063 121.485 111.177 122.778 109.201L131.967 114.502C135.035 116.486 137.83 111.669 134.587 109.986L125.393 104.681C126.45 102.594 127.368 100.424 128.109 98.1726L138.348 100.91C141.72 101.817 143.074 96.7495 139.699 95.8539L129.434 93.112C129.91 90.8311 130.256 88.5033 130.387 86.1147L141.039 86.1147C141.28 88.3619 141.875 90.4901 143.077 92.3271 144.736 94.8616 147.763 96.5673 151.354 96.5673 154.945 96.5673 157.946 94.8616 159.605 92.3271 161.264 89.7929 161.781 86.712 161.781 83.5155 161.781 80.3187 161.264 77.2378 159.605 74.7036 157.946 72.1694 154.945 70.4686 151.354 70.4686 147.763 70.4686 144.736 72.1694 143.077 74.7036 141.879 76.5336 141.287 78.6581 141.044 80.8959L130.398 80.8959C130.264 78.5125 129.924 76.1886 129.45 73.9138L139.699 71.1564C143.151 70.126 141.681 65.2329 138.348 66.1263L128.119 68.8581C127.379 66.6059 126.462 64.4368 125.403 62.3498L134.587 57.0444C137.457 55.2705 135.194 50.8985 131.967 52.5137L122.778 57.8345C121.482 55.8608 120.061 53.9752 118.487 52.2233 123.313 45.948 124.416 47.373 130.076 49.4305 133.042 50.0492 136.39 49.1155 138.929 46.5764 141.468 44.0374 142.377 40.694 141.758 37.729 141.139 34.7637 139.339 32.2172 137.079 29.957 134.819 27.6965 132.252 25.8871 129.287 25.2681 128.545 25.1134 127.782 25.0566 127.014 25.0949 124.708 25.2099 122.359 26.2026 120.454 28.1069 117.915 30.6458 116.982 33.9892 117.6 36.9543 118.049 39.1013 119.141 41.0218 120.561 42.7794L114.813 48.5334C113.058 46.967 111.171 45.5514 109.196 44.2574L114.497 35.0635C116.095 32.0429 111.876 29.4395 109.986 32.444L104.676 41.6378C102.589 40.5803 100.423 39.6576 98.1726 38.9165L100.904 28.6828C101.795 25.4007 96.9634 23.8728 95.8539 27.3322L93.1068 37.5912C90.8278 37.1155 88.5017 36.7695 86.1147 36.6383L86.1147 25.9766C88.3619 25.7353 90.4849 25.1406 92.3221 23.938 94.8564 22.2789 96.5673 19.2623 96.5673 15.6716 96.5673 12.0808 94.8564 9.07437 92.3221 7.41533 89.7876 5.75629 86.712 5.21876 83.5155 5.21876ZM83.5155 49.5628C87.106 49.5628 90.1279 51.2688 91.787 53.803 93.446 56.3375 93.9632 59.4181 93.9632 62.6149 93.9632 65.8116 93.446 68.9126 91.787 71.4471 90.1279 73.9813 87.106 75.6874 83.5155 75.6874 79.9247 75.6874 76.9028 73.9813 75.2438 71.4471 73.5847 68.9126 73.0626 65.8116 73.0626 62.6149 73.0626 59.4181 73.5847 56.3375 75.2438 53.803 76.9028 51.2688 79.9247 49.5628 83.5155 49.5628ZM68.9192 82.3992C71.9434 82.5688 74.9317 84.3197 76.7269 87.4296 78.5222 90.5392 78.5558 94.001 77.1906 96.7048 75.8254 99.409 73.4049 101.411 70.6366 103.009 67.8684 104.608 64.9461 105.707 61.9218 105.537 58.8976 105.367 55.9093 103.591 54.1141 100.481 52.3185 97.3718 52.2849 93.9149 53.6501 91.2111 55.0156 88.507 57.4154 86.5204 60.184 84.9219 62.9523 83.3237 65.8949 82.2296 68.9192 82.3992ZM98.1116 82.3992C101.136 82.2296 104.058 83.3237 106.827 84.9219 109.595 86.5204 112.015 88.507 113.381 91.2111 114.746 93.9149 114.712 97.3718 112.917 100.481 111.121 103.591 108.133 105.367 105.109 105.537 102.085 105.707 99.1624 104.608 96.3941 103.009 93.6258 101.411 91.2053 99.409 89.8401 96.7048 88.4749 94.001 88.5033 90.5392 90.2988 87.4296 92.0941 84.3197 95.0873 82.5688 98.1116 82.3992Z" fill="#2F2013" transform="matrix(1.00599 0 0 1 689 122)"/></g></g></g><g clip-path="url(#clip18)"><g clip-path="url(#clip19)"><g clip-path="url(#clip20)"><path d="M83.5155 5.21876C80.3187 5.21876 77.2378 5.75629 74.7036 7.41533 72.1694 9.07437 70.4634 12.0808 70.4634 15.6716 70.4634 19.2623 72.1694 22.2789 74.7036 23.938 76.5336 25.136 78.6532 25.7283 80.8907 25.9715L80.8907 36.6435C78.5107 36.7755 76.1964 37.133 73.9239 37.6066L71.1564 27.3322C69.8243 23.6912 65.2279 25.7085 66.1211 28.6828L68.863 38.9418C66.6112 39.6826 64.4472 40.6006 62.36 41.6582L57.0444 32.444C54.7849 29.1859 50.8633 32.5248 52.5137 35.0635L57.8345 44.2676C55.8616 45.5616 53.9998 47.0012 52.2486 48.5691L46.4592 42.7794C47.8803 41.0212 48.977 39.1021 49.4253 36.9543 50.0442 33.9892 49.1103 30.6458 46.5714 28.1069 44.0322 25.5678 40.6891 24.6543 37.7238 25.2733 34.7587 25.8922 32.2122 27.6965 29.9517 29.957 27.6915 32.2172 25.8871 34.7587 25.2681 37.7238 24.6492 40.6891 25.5627 44.0374 28.1017 46.5764 30.6409 49.1155 33.9892 50.0492 36.9543 49.4305 39.1021 48.9819 41.0212 47.8852 42.7794 46.4641L48.5639 52.2486C46.9954 54.0008 45.5571 55.8657 44.2626 57.8395L35.0635 52.5137C31.6499 50.8471 29.7331 55.4214 32.4387 57.0444L41.6532 62.3652C40.5964 64.4509 39.6772 66.613 38.9369 68.863L28.6828 66.1263C25.4779 65.2329 23.8455 69.9994 27.3322 71.1564L37.6017 73.9187C37.1268 76.1941 36.7706 78.5128 36.6383 80.8959L25.9715 80.8959C25.7283 78.6581 25.136 76.5336 23.938 74.7036 22.2789 72.1694 19.2623 70.4686 15.6716 70.4686 12.0808 70.4686 9.07437 72.1694 7.41533 74.7036 5.75629 77.2378 5.21876 80.3187 5.21876 83.5155 5.21876 86.712 5.75629 89.7929 7.41533 92.3271 9.07437 94.8616 12.0808 96.5673 15.6716 96.5673 19.2623 96.5673 22.2789 94.8616 23.938 92.3271 25.1406 90.4901 25.7353 88.3619 25.9766 86.1147L36.6383 86.1147C36.7698 88.5023 37.1262 90.8272 37.6017 93.1068L27.3322 95.8539C23.9646 96.7536 25.3151 101.809 28.6828 100.91L38.9369 98.1677C39.6769 100.417 40.597 102.58 41.6532 104.666L32.4387 109.986C29.1961 111.669 31.9962 116.486 35.0635 114.502L44.2626 109.196C45.5566 111.169 47.0012 113.03 48.5691 114.782L42.7794 120.572C41.0212 119.15 39.1021 118.054 36.9543 117.605 33.9892 116.986 30.6409 117.92 28.1017 120.46 25.5627 122.999 24.6492 126.321 25.2681 129.287 25.8871 132.252 27.6915 134.819 29.9517 137.079 32.2122 139.339 34.7587 141.144 37.7238 141.763 40.6891 142.381 44.0322 141.468 46.5714 138.929 49.1103 136.39 50.0442 133.042 49.4253 130.076 48.977 127.929 47.8803 126.009 46.4592 124.251L52.2486 118.462C54 120.03 55.8616 121.469 57.8345 122.763L52.5137 131.967C50.7657 134.988 55.2964 137.613 57.0444 134.592L62.36 125.377C64.4448 126.434 66.6085 127.354 68.8581 128.094L66.1211 138.348C64.8858 141.888 70.4548 143.382 71.1564 139.699L73.9187 129.429C76.192 129.903 78.5099 130.26 80.8907 130.392L80.8907 141.049C78.6532 141.292 76.5336 141.885 74.7036 143.083 72.1694 144.742 70.4634 147.763 70.4634 151.354 70.4634 154.945 72.1694 157.946 74.7036 159.605 77.2378 161.264 80.3187 161.781 83.5155 161.781 86.712 161.781 89.7876 161.264 92.3221 159.605 94.8564 157.946 96.5673 154.945 96.5673 151.354 96.5673 147.763 94.8564 144.742 92.3221 143.083 90.4849 141.88 88.3619 141.285 86.1147 141.044L86.1147 130.403C88.5049 130.27 90.8361 129.926 93.117 129.45L95.8539 139.699C96.7531 143.067 101.804 141.716 100.904 138.348L98.1726 128.125C100.425 127.383 102.594 126.463 104.681 125.403L109.986 134.592C111.669 137.835 116.481 135.035 114.497 131.967L109.201 122.778C111.173 121.482 113.052 120.059 114.802 118.487L120.567 124.256C119.146 126.014 118.049 127.934 117.6 130.082 116.982 133.047 117.915 136.39 120.454 138.929 122.994 141.468 126.321 142.381 129.287 141.763 132.252 141.144 134.819 139.339 137.079 137.079 139.339 134.819 141.139 132.252 141.758 129.287 142.377 126.321 141.468 122.999 138.929 120.46 136.39 117.92 133.042 116.982 130.076 117.6 127.929 118.049 126.009 119.151 124.251 120.572L118.497 114.818C120.064 113.063 121.485 111.177 122.778 109.201L131.967 114.502C135.035 116.486 137.83 111.669 134.587 109.986L125.393 104.681C126.45 102.594 127.368 100.424 128.109 98.1726L138.348 100.91C141.72 101.817 143.074 96.7495 139.699 95.8539L129.434 93.112C129.91 90.8311 130.256 88.5033 130.387 86.1147L141.039 86.1147C141.28 88.3619 141.875 90.4901 143.077 92.3271 144.736 94.8616 147.763 96.5673 151.354 96.5673 154.945 96.5673 157.946 94.8616 159.605 92.3271 161.264 89.7929 161.781 86.712 161.781 83.5155 161.781 80.3187 161.264 77.2378 159.605 74.7036 157.946 72.1694 154.945 70.4686 151.354 70.4686 147.763 70.4686 144.736 72.1694 143.077 74.7036 141.879 76.5336 141.287 78.6581 141.044 80.8959L130.398 80.8959C130.264 78.5125 129.924 76.1886 129.45 73.9138L139.699 71.1564C143.151 70.126 141.681 65.2329 138.348 66.1263L128.119 68.8581C127.379 66.6059 126.462 64.4368 125.403 62.3498L134.587 57.0444C137.457 55.2705 135.194 50.8985 131.967 52.5137L122.778 57.8345C121.482 55.8608 120.061 53.9752 118.487 52.2233 123.313 45.948 124.416 47.373 130.076 49.4305 133.042 50.0492 136.39 49.1155 138.929 46.5764 141.468 44.0374 142.377 40.694 141.758 37.729 141.139 34.7637 139.339 32.2172 137.079 29.957 134.819 27.6965 132.252 25.8871 129.287 25.2681 128.545 25.1134 127.782 25.0566 127.014 25.0949 124.708 25.2099 122.359 26.2026 120.454 28.1069 117.915 30.6458 116.982 33.9892 117.6 36.9543 118.049 39.1013 119.141 41.0218 120.561 42.7794L114.813 48.5334C113.058 46.967 111.171 45.5514 109.196 44.2574L114.497 35.0635C116.095 32.0429 111.876 29.4395 109.986 32.444L104.676 41.6378C102.589 40.5803 100.423 39.6576 98.1726 38.9165L100.904 28.6828C101.795 25.4007 96.9634 23.8728 95.8539 27.3322L93.1068 37.5912C90.8278 37.1155 88.5017 36.7695 86.1147 36.6383L86.1147 25.9766C88.3619 25.7353 90.4849 25.1406 92.3221 23.938 94.8564 22.2789 96.5673 19.2623 96.5673 15.6716 96.5673 12.0808 94.8564 9.07437 92.3221 7.41533 89.7876 5.75629 86.712 5.21876 83.5155 5.21876ZM83.5155 49.5628C87.106 49.5628 90.1279 51.2688 91.787 53.803 93.446 56.3375 93.9632 59.4181 93.9632 62.6149 93.9632 65.8116 93.446 68.9126 91.787 71.4471 90.1279 73.9813 87.106 75.6874 83.5155 75.6874 79.9247 75.6874 76.9028 73.9813 75.2438 71.4471 73.5847 68.9126 73.0626 65.8116 73.0626 62.6149 73.0626 59.4181 73.5847 56.3375 75.2438 53.803 76.9028 51.2688 79.9247 49.5628 83.5155 49.5628ZM68.9192 82.3992C71.9434 82.5688 74.9317 84.3197 76.7269 87.4296 78.5222 90.5392 78.5558 94.001 77.1906 96.7048 75.8254 99.409 73.4049 101.411 70.6366 103.009 67.8684 104.608 64.9461 105.707 61.9218 105.537 58.8976 105.367 55.9093 103.591 54.1141 100.481 52.3185 97.3718 52.2849 93.9149 53.6501 91.2111 55.0156 88.507 57.4154 86.5204 60.184 84.9219 62.9523 83.3237 65.8949 82.2296 68.9192 82.3992ZM98.1116 82.3992C101.136 82.2296 104.058 83.3237 106.827 84.9219 109.595 86.5204 112.015 88.507 113.381 91.2111 114.746 93.9149 114.712 97.3718 112.917 100.481 111.121 103.591 108.133 105.367 105.109 105.537 102.085 105.707 99.1624 104.608 96.3941 103.009 93.6258 101.411 91.2053 99.409 89.8401 96.7048 88.4749 94.001 88.5033 90.5392 90.2988 87.4296 92.0941 84.3197 95.0873 82.5688 98.1116 82.3992Z" fill="#2F2013" transform="matrix(1.00599 0 0 1 946 274)"/></g></g></g></g></svg>