<svg width="550" height="550" xmlns="http://www.w3.org/2000/svg" xmlns:xlink="http://www.w3.org/1999/xlink" overflow="hidden"><defs><clipPath id="clip0"><rect x="1806" y="38" width="550" height="550"/></clipPath><radialGradient cx="762000" cy="762000" r="1.07763e+06" gradientUnits="userSpaceOnUse" spreadMethod="pad" id="fill1" gradientTransform="matrix(0.000360892 0 0 0.000360892 1806 38.0002)"><stop offset="0" stop-color="#F0E9DC"/><stop offset="0.17" stop-color="#F0E9DC"/><stop offset="0.33" stop-color="#875C39"/><stop offset="1" stop-color="#0F1113"/></radialGradient><radialGradient cx="257695" cy="281248" r="381453" fx="257694" fy="281248" gradientUnits="userSpaceOnUse" spreadMethod="pad" id="fill2" gradientTransform="matrix(0.000360892 0 0 0.000360892 1827 50.9999)"><stop offset="0" stop-color="#F0E9DC"/><stop offset="0.54" stop-color="#875C39" stop-opacity="0"/><stop offset="1" stop-color="#875C39" stop-opacity="0"/></radialGradient><linearGradient x1="2078.5" y1="44" x2="2078.5" y2="198" gradientUnits="userSpaceOnUse" spreadMethod="reflect" id="fill3"><stop offset="0" stop-color="#F5FAFF" stop-opacity="0.231373"/><stop offset="0.32" stop-color="#FFFFFF" stop-opacity="0"/><stop offset="1" stop-color="#FFFFFF" stop-opacity="0"/></linearGradient><radialGradient cx="95596.5" cy="102524" r="140178" gradientUnits="userSpaceOnUse" spreadMethod="pad" id="fill4" gradientTransform="matrix(0.000360892 0 0 0.000360892 1816 102)"><stop offset="0" stop-color="#F0E9DC"/><stop offset="0.54" stop-color="#875C39" stop-opacity="0"/><stop offset="1" stop-color="#875C39" stop-opacity="0"/></radialGradient><radialGradient cx="112222" cy="120534" r="164689" gradientUnits="userSpaceOnUse" spreadMethod="pad" id="fill5" gradientTransform="matrix(0.000360892 0 0 0.000360892 1845 147)"><stop offset="0" stop-color="#F0E9DC"/><stop offset="0.54" stop-color="#875C39" stop-opacity="0"/><stop offset="1" stop-color="#875C39" stop-opacity="0"/></radialGradient><radialGradient cx="292331" cy="279862" r="404697" gradientUnits="userSpaceOnUse" spreadMethod="pad" id="fill6" gradientTransform="matrix(0.000360892 0 0 0.000360892 2135 365)"><stop offset="0" stop-color="#F0E9DC"/><stop offset="0.54" stop-color="#875C39" stop-opacity="0"/><stop offset="1" stop-color="#875C39" stop-opacity="0"/></radialGradient><radialGradient cx="70658" cy="77585.5" r="104938" gradientUnits="userSpaceOnUse" spreadMethod="pad" id="fill7" gradientTransform="matrix(0.000360892 0 0 0.000360892 2281 494)"><stop offset="0" stop-color="#F0E9DC"/><stop offset="0.54" stop-color="#875C39" stop-opacity="0"/><stop offset="1" stop-color="#875C39" stop-opacity="0"/></radialGradient><radialGradient cx="77585.5" cy="83127" r="113708" gradientUnits="userSpaceOnUse" spreadMethod="pad" id="fill8" gradientTransform="matrix(0.000360892 0 0 0.000360892 2264 411)"><stop offset="0" stop-color="#F0E9DC"/><stop offset="0.54" stop-color="#875C39" stop-opacity="0"/><stop offset="1" stop-color="#875C39" stop-opacity="0"/></radialGradient><clipPath id="clip9"><rect x="1820" y="52" width="527" height="527"/></clipPath><clipPath id="clip10"><rect x="1820" y="52" width="527" height="527"/></clipPath><clipPath id="clip11"><rect x="1820" y="52" width="527" height="527"/></clipPath><clipPath id="clip12"><rect x="1919" y="121" width="331" height="330"/></clipPath><clipPath id="clip13"><rect x="1919" y="121" width="331" height="330"/></clipPath><clipPath id="clip14"><rect x="1919" y="121" width="331" height="330"/></clipPath></defs><g clip-path="url(#clip0)" transform="translate(-1806 -38)"><rect x="1806" y="38.0002" width="550" height="550" fill="url(#fill1)"/><path d="M1827 152.5C1827 96.443 1868.64 50.9999 1920 50.9999 1971.36 50.9999 2013 96.443 2013 152.5 2013 208.557 1971.36 254 1920 254 1868.64 254 1827 208.557 1827 152.5Z" fill="url(#fill2)" fill-rule="evenodd"/><path d="M1839.73 44 2317.27 44C2333.14 44 2346 63.8639 2346 88.3676L2346 198C2346 159.824 2325.96 128.876 2301.23 128.876L1855.77 128.876C1831.04 128.876 1811 159.824 1811 198L1811 88.3676C1811 63.8639 1823.86 44 1839.73 44Z" fill="url(#fill3)" fill-rule="evenodd"/><path d="M1816 139C1816 118.566 1831.45 102 1850.5 102 1869.55 102 1885 118.566 1885 139 1885 159.435 1869.55 176 1850.5 176 1831.45 176 1816 159.435 1816 139Z" fill="url(#fill4)" fill-rule="evenodd"/><path d="M1845 190.5C1845 166.476 1863.13 147 1885.5 147 1907.87 147 1926 166.476 1926 190.5 1926 214.525 1907.87 234 1885.5 234 1863.13 234 1845 214.525 1845 190.5Z" fill="url(#fill5)" fill-rule="evenodd"/><path d="M2135 466C2135 410.219 2182.23 365 2240.5 365 2298.77 365 2346 410.219 2346 466 2346 521.781 2298.77 567 2240.5 567 2182.23 567 2135 521.781 2135 466Z" fill="url(#fill6)" fill-rule="evenodd"/><path d="M2281 522C2281 506.536 2292.42 494 2306.5 494 2320.58 494 2332 506.536 2332 522 2332 537.464 2320.58 550 2306.5 550 2292.42 550 2281 537.464 2281 522Z" fill="url(#fill7)" fill-rule="evenodd"/><path d="M2264 441C2264 424.432 2276.54 411 2292 411 2307.46 411 2320 424.432 2320 441 2320 457.569 2307.46 471 2292 471 2276.54 471 2264 457.569 2264 441Z" fill="url(#fill8)" fill-rule="evenodd"/><g clip-path="url(#clip9)"><g clip-path="url(#clip10)"><g clip-path="url(#clip11)"><path d="M2018.53 299.808 1989.29 506.938C1988.62 511.746 1984.9 515.555 1980.11 516.353 1975.33 517.151 1970.57 514.762 1968.37 510.44L1894.08 364.739C1892.04 360.73 1891.01 356.281 1891.07 351.789L1894.06 153.075C1894.11 149.331 1896.5 146.028 1900.04 144.786 1903.57 143.545 1907.49 144.66 1909.87 147.564L2010.32 270.407C2017.04 278.634 2020.03 289.289 2018.53 299.809ZM2015.38 263.241C2022.51 271.962 2033.78 276.191 2044.88 274.319L2294.54 232.333C2297.88 231.775 2300.53 229.241 2301.26 225.949 2301.97 222.646 2300.61 219.247 2297.82 217.353L2148.61 116.34C2144.95 113.857 2140.59 112.615 2136.16 112.806L1920.37 121.958C1916.6 122.115 1913.25 124.397 1911.7 127.827 1910.17 131.267 1910.7 135.286 1913.09 138.21ZM2309.62 244.052C2307.32 241.191 2303.66 239.792 2300.03 240.402L2056.59 281.345C2040.72 284.018 2028.41 296.662 2026.15 312.59L1997.16 517.624C1996.36 523.275 1998.58 528.933 2003.01 532.541 2007.43 536.14 2013.44 537.148 2018.81 535.215L2221.15 462.122C2225.49 460.555 2228.97 457.21 2230.7 452.917L2311.12 254.216C2312.49 250.797 2311.92 246.916 2309.62 244.054Z" fill="#FFFFFF"/></g></g></g><g clip-path="url(#clip12)"><g clip-path="url(#clip13)"><g clip-path="url(#clip14)"><path d="M2145.88 236.156C2126.9 236.174 2111.52 251.554 2111.5 270.531L2111.5 289.118C2099.29 281.068 2090.88 267.573 2090.88 240.893L2090.88 146.781C2090.88 142.984 2087.8 139.906 2084 139.906 2080.2 139.906 2077.12 142.984 2077.12 146.781L2077.12 240.893C2077.12 267.573 2068.71 281.068 2056.5 289.118L2056.5 270.531C2056.48 251.554 2041.1 236.174 2022.13 236.156 1991.67 236.156 1946.5 279.461 1946.5 339.281L1946.5 394.281C1946.52 413.259 1961.9 428.639 1980.88 428.656 2027.59 428.656 2056.5 396.537 2056.5 366.781L2056.5 320.894C2047.23 325.022 2037.56 328.217 2027.66 330.432 2025.97 330.865 2024.46 331.287 2022.86 331.711 2019.02 337.009 2019.89 341.404 2022.24 348.708 2025.23 357.959 2029.31 370.648 2013.03 383.364 2011.83 384.319 2010.34 384.835 2008.8 384.828 2005.01 384.821 2001.93 381.737 2001.94 377.941 2001.95 375.832 2002.92 373.842 2004.58 372.542 2013.29 365.72 2011.91 361.45 2009.16 352.924 2007.25 347.876 2006.34 342.506 2006.47 337.112 1994.42 342.344 1987.75 349.992 1987.75 366.781 1987.75 370.578 1984.67 373.656 1980.88 373.656 1977.08 373.656 1974 370.578 1974 366.781 1974 329.949 2000.71 323.128 2024.26 317.112 2027.67 316.241 2031.06 315.375 2034.38 314.435 2031.36 307.959 2025.54 303.226 2018.58 301.59 2011.38 300.422 2004.14 303.428 1999.88 309.351 1997.42 312.25 1993.08 312.611 1990.18 310.156 1987.28 307.702 1986.92 303.361 1989.38 300.462 1996.86 290.787 2009.07 286.023 2021.13 288.068 2032.9 290.704 2042.67 298.862 2047.36 309.969 2064 305.6 2077.6 293.601 2084 277.625 2090.4 293.601 2104 305.6 2120.64 309.969 2125.34 298.862 2135.1 290.704 2146.87 288.068 2158.93 286.023 2171.14 290.787 2178.63 300.462 2181.08 303.361 2180.72 307.702 2177.82 310.156 2174.92 312.611 2170.58 312.25 2168.13 309.351 2163.87 303.427 2156.62 300.422 2149.42 301.59 2142.46 303.226 2136.64 307.959 2133.62 314.435 2136.94 315.375 2140.33 316.241 2143.74 317.112 2167.29 323.128 2194 329.949 2194 366.781 2194 370.578 2190.92 373.656 2187.12 373.656 2183.33 373.656 2180.25 370.578 2180.25 366.781 2180.25 349.992 2173.58 342.344 2161.53 337.113 2161.67 342.507 2160.75 347.877 2158.85 352.925 2156.09 361.45 2154.71 365.721 2163.42 372.543 2166.41 374.885 2166.94 379.207 2164.59 382.195 2163.29 383.854 2161.3 384.824 2159.2 384.828 2157.66 384.836 2156.17 384.319 2154.97 383.364 2138.69 370.648 2142.77 357.959 2145.75 348.708 2148.11 341.404 2148.98 337.009 2145.13 331.711 2143.54 331.287 2142.03 330.865 2140.34 330.432 2130.43 328.217 2120.77 325.021 2111.5 320.894L2111.5 366.781C2111.5 396.537 2140.41 428.656 2187.12 428.656 2206.1 428.639 2221.48 413.259 2221.5 394.281L2221.5 339.281C2221.5 279.461 2176.33 236.156 2145.88 236.156Z" fill="#2F2013"/></g></g></g></g></svg>