<svg width="550" height="550" xmlns="http://www.w3.org/2000/svg" xmlns:xlink="http://www.w3.org/1999/xlink" overflow="hidden"><defs><clipPath id="clip0"><rect x="35" y="38" width="550" height="550"/></clipPath><radialGradient cx="762000" cy="762000" r="1.07763e+06" gradientUnits="userSpaceOnUse" spreadMethod="pad" id="fill1" gradientTransform="matrix(0.000360892 0 0 0.000360892 35.0001 38.0002)"><stop offset="0" stop-color="#F0E9DC"/><stop offset="0.17" stop-color="#F0E9DC"/><stop offset="0.33" stop-color="#875C39"/><stop offset="1" stop-color="#0F1113"/></radialGradient><radialGradient cx="257695" cy="281248" r="381453" fx="257694" fy="281248" gradientUnits="userSpaceOnUse" spreadMethod="pad" id="fill2" gradientTransform="matrix(0.000360892 0 0 0.000360892 57.0001 50.9999)"><stop offset="0" stop-color="#F0E9DC"/><stop offset="0.54" stop-color="#875C39" stop-opacity="0"/><stop offset="1" stop-color="#875C39" stop-opacity="0"/></radialGradient><linearGradient x1="308.5" y1="44" x2="308.5" y2="198" gradientUnits="userSpaceOnUse" spreadMethod="reflect" id="fill3"><stop offset="0" stop-color="#F5FAFF" stop-opacity="0.231373"/><stop offset="0.32" stop-color="#FFFFFF" stop-opacity="0"/><stop offset="1" stop-color="#FFFFFF" stop-opacity="0"/></linearGradient><radialGradient cx="94211" cy="102524" r="139236" gradientUnits="userSpaceOnUse" spreadMethod="pad" id="fill4" gradientTransform="matrix(0.000360892 0 0 0.000360892 46.0001 102)"><stop offset="0" stop-color="#F0E9DC"/><stop offset="0.54" stop-color="#875C39" stop-opacity="0"/><stop offset="1" stop-color="#875C39" stop-opacity="0"/></radialGradient><radialGradient cx="110836" cy="120534" r="163748" gradientUnits="userSpaceOnUse" spreadMethod="pad" id="fill5" gradientTransform="matrix(0.000360892 0 0 0.000360892 74.9999 147)"><stop offset="0" stop-color="#F0E9DC"/><stop offset="0.54" stop-color="#875C39" stop-opacity="0"/><stop offset="1" stop-color="#875C39" stop-opacity="0"/></radialGradient><radialGradient cx="292331" cy="279862" r="404697" gradientUnits="userSpaceOnUse" spreadMethod="pad" id="fill6" gradientTransform="matrix(0.000360892 0 0 0.000360892 365 365)"><stop offset="0" stop-color="#F0E9DC"/><stop offset="0.54" stop-color="#875C39" stop-opacity="0"/><stop offset="1" stop-color="#875C39" stop-opacity="0"/></radialGradient><radialGradient cx="72043.5" cy="77585.5" r="105876" fx="72043.5" fy="77585.5" gradientUnits="userSpaceOnUse" spreadMethod="pad" id="fill7" gradientTransform="matrix(0.000360892 0 0 0.000360892 510 494)"><stop offset="0" stop-color="#F0E9DC"/><stop offset="0.54" stop-color="#875C39" stop-opacity="0"/><stop offset="1" stop-color="#875C39" stop-opacity="0"/></radialGradient><radialGradient cx="77585.5" cy="83127" r="113708" gradientUnits="userSpaceOnUse" spreadMethod="pad" id="fill8" gradientTransform="matrix(0.000360892 0 0 0.000360892 494 411)"><stop offset="0" stop-color="#F0E9DC"/><stop offset="0.54" stop-color="#875C39" stop-opacity="0"/><stop offset="1" stop-color="#875C39" stop-opacity="0"/></radialGradient><clipPath id="clip9"><rect x="49" y="52" width="527" height="527"/></clipPath><clipPath id="clip10"><rect x="49" y="52" width="527" height="527"/></clipPath><clipPath id="clip11"><rect x="49" y="52" width="527" height="527"/></clipPath><clipPath id="clip12"><rect x="134" y="141" width="328" height="329"/></clipPath><clipPath id="clip13"><rect x="134" y="141" width="328" height="329"/></clipPath><clipPath id="clip14"><rect x="134" y="141" width="328" height="329"/></clipPath></defs><g clip-path="url(#clip0)" transform="translate(-35 -38)"><rect x="35.0001" y="38.0002" width="550" height="550" fill="url(#fill1)"/><path d="M57.0001 152.5C57.0001 96.443 98.6376 50.9999 150 50.9999 201.363 50.9999 243 96.443 243 152.5 243 208.557 201.363 254 150 254 98.6376 254 57.0001 208.557 57.0001 152.5Z" fill="url(#fill2)" fill-rule="evenodd"/><path d="M69.7336 44 547.266 44C563.136 44 576 63.8639 576 88.3676L576 198C576 159.824 555.957 128.876 531.233 128.876L85.7667 128.876C61.0426 128.876 40.9999 159.824 40.9999 198L40.9999 88.3676C40.9999 63.8639 53.8643 44 69.7336 44Z" fill="url(#fill3)" fill-rule="evenodd"/><path d="M46.0001 139C46.0001 118.566 61.2224 102 80.0001 102 98.7778 102 114 118.566 114 139 114 159.435 98.7778 176 80.0001 176 61.2224 176 46.0001 159.435 46.0001 139Z" fill="url(#fill4)" fill-rule="evenodd"/><path d="M74.9999 190.5C74.9999 166.476 92.9086 147 115 147 137.091 147 155 166.476 155 190.5 155 214.525 137.091 234 115 234 92.9086 234 74.9999 214.525 74.9999 190.5Z" fill="url(#fill5)" fill-rule="evenodd"/><path d="M365 466C365 410.219 412.234 365 470.5 365 528.766 365 576 410.219 576 466 576 521.781 528.766 567 470.5 567 412.234 567 365 521.781 365 466Z" fill="url(#fill6)" fill-rule="evenodd"/><path d="M510 522C510 506.536 521.641 494 536 494 550.359 494 562 506.536 562 522 562 537.464 550.359 550 536 550 521.641 550 510 537.464 510 522Z" fill="url(#fill7)" fill-rule="evenodd"/><path d="M494 441C494 424.432 506.536 411 522 411 537.464 411 550 424.432 550 441 550 457.569 537.464 471 522 471 506.536 471 494 457.569 494 441Z" fill="url(#fill8)" fill-rule="evenodd"/><g clip-path="url(#clip9)"><g clip-path="url(#clip10)"><g clip-path="url(#clip11)"><path d="M198.157 246.339 168.967 453.075C168.296 457.875 164.589 461.676 159.811 462.473 155.032 463.269 150.286 460.885 148.092 456.571L73.9402 311.147C71.9032 307.146 70.8742 302.704 70.9376 298.222L73.9196 99.8852C73.9725 96.1477 76.3547 92.8511 79.884 91.6121 83.4116 90.3731 87.3285 91.4857 89.702 94.3841L189.955 216.994C196.663 225.205 199.645 235.84 198.155 246.34ZM195.006 209.842C202.125 218.546 213.371 222.767 224.448 220.899L473.642 178.993C476.971 178.436 479.618 175.906 480.345 172.62 481.058 169.324 479.693 165.931 476.91 164.041L327.989 63.2192C324.335 60.7412 319.977 59.5022 315.558 59.6921L100.181 68.8267C96.4207 68.9837 93.0712 71.2618 91.5281 74.6848 89.9951 78.1183 90.5319 82.1297 92.9141 85.0483ZM488.692 190.689C486.391 187.834 482.738 186.437 479.115 187.046L236.145 227.911C220.301 230.579 208.015 243.199 205.758 259.096L176.819 463.741C176.021 469.381 178.236 475.029 182.657 478.63 187.078 482.221 193.074 483.228 198.428 481.298L400.387 408.345C404.722 406.781 408.188 403.442 409.921 399.157L490.184 200.834C491.549 197.421 490.98 193.547 488.692 190.691Z" fill="#FFFFFF" transform="matrix(1 0 0 1.0019 49.9998 52.9999)"/></g></g></g><g clip-path="url(#clip12)"><g clip-path="url(#clip13)"><g clip-path="url(#clip14)"><path d="M383.081 444.606C378.725 420.262 350.743 401.139 350.743 401.139 340.493 394.56 329.551 386.302 323.196 381.395 319.798 378.763 317.811 374.706 317.815 370.408L317.815 360.613C317.835 356.711 319.487 352.994 322.369 350.363 330.96 342.426 338.097 333.105 341.633 328.191 343.188 326.061 345.066 324.187 347.2 322.637 357.969 314.706 357.969 305.795 357.969 305.795 358.244 285.551 344.586 291.285 344.586 291.285 350.743 218.234 298 217.651 298 217.651 298 217.651 245.257 218.234 251.388 291.266 251.388 291.266 237.73 285.532 238.006 305.776 238.006 305.776 238.006 314.687 248.774 322.618 250.908 324.167 252.787 326.042 254.341 328.172 257.878 333.086 265.014 342.407 273.605 350.344 276.488 352.975 278.139 356.691 278.16 360.594L278.16 370.389C278.164 374.687 276.177 378.744 272.779 381.376 266.449 386.283 255.482 394.541 245.232 401.12 245.232 401.12 217.249 420.255 212.893 444.586 212.37 447.479 214.29 450.249 217.183 450.773 217.491 450.829 217.802 450.857 218.114 450.858L377.86 450.858C380.8 450.846 383.174 448.454 383.163 445.514 383.162 445.209 383.135 444.905 383.081 444.606Z" fill="#2F2013"/><path d="M221.996 345.603 204.219 345.603 204.219 327.826C204.219 325.501 202.335 323.617 200.01 323.617 200.002 323.617 199.993 323.617 199.984 323.617L179.106 323.617C176.782 323.617 174.898 325.501 174.898 327.826L174.898 345.603 157.12 345.603C154.796 345.603 152.911 347.488 152.911 349.812L152.911 370.703C152.911 373.028 154.796 374.912 157.12 374.912L174.898 374.912 174.898 392.696C174.898 395.02 176.782 396.905 179.106 396.905L199.984 396.905C202.309 396.905 204.193 395.02 204.193 392.696L204.193 374.918 221.971 374.918C224.296 374.918 226.18 373.034 226.18 370.709L226.18 349.812C226.18 347.498 224.311 345.617 221.996 345.603Z" fill="#2F2013"/><path d="M438.297 186.203 417.995 186.203 417.995 165.927C417.995 163.274 415.844 161.123 413.191 161.123L389.34 161.123C386.687 161.123 384.536 163.274 384.536 165.927L384.536 186.203 364.247 186.203C361.597 186.2 359.446 188.345 359.442 190.995 359.442 190.997 359.442 190.999 359.442 191.001L359.442 214.858C359.442 217.508 361.59 219.657 364.241 219.657 364.243 219.657 364.245 219.657 364.247 219.657L384.536 219.657 384.536 239.952C384.536 242.605 386.687 244.756 389.34 244.756L413.191 244.756C415.844 244.756 417.995 242.605 417.995 239.952L417.995 219.676 438.297 219.676C440.947 219.676 443.095 217.528 443.095 214.877L443.095 191.021C443.106 188.371 440.966 186.214 438.316 186.203 438.31 186.203 438.303 186.203 438.297 186.203Z" fill="#2F2013"/></g></g></g></g></svg>