<svg width="550" height="550" xmlns="http://www.w3.org/2000/svg" xmlns:xlink="http://www.w3.org/1999/xlink" overflow="hidden"><defs><clipPath id="clip0"><rect x="1857" y="646" width="550" height="550"/></clipPath><radialGradient cx="762000" cy="762000" r="1.07763e+06" gradientUnits="userSpaceOnUse" spreadMethod="pad" id="fill1" gradientTransform="matrix(0.000360892 0 0 0.000360892 1857 646)"><stop offset="0" stop-color="#D4F7F5"/><stop offset="0.17" stop-color="#D4F7F5"/><stop offset="0.33" stop-color="#1FA09A"/><stop offset="1" stop-color="#0F1113"/></radialGradient><radialGradient cx="257695" cy="281248" r="381453" fx="257694" fy="281248" gradientUnits="userSpaceOnUse" spreadMethod="pad" id="fill2" gradientTransform="matrix(0.000360892 0 0 0.000360892 1878 659)"><stop offset="0" stop-color="#C8F9E7"/><stop offset="0.54" stop-color="#59ECB7" stop-opacity="0"/><stop offset="1" stop-color="#59ECB7" stop-opacity="0"/></radialGradient><linearGradient x1="2129.5" y1="652" x2="2129.5" y2="806" gradientUnits="userSpaceOnUse" spreadMethod="reflect" id="fill3"><stop offset="0" stop-color="#F5FAFF" stop-opacity="0.231373"/><stop offset="0.32" stop-color="#FFFFFF" stop-opacity="0"/><stop offset="1" stop-color="#FFFFFF" stop-opacity="0"/></linearGradient><radialGradient cx="94211" cy="102524" r="139237" fx="94211" fy="102524" gradientUnits="userSpaceOnUse" spreadMethod="pad" id="fill4" gradientTransform="matrix(0.000360892 0 0 0.000360892 1867 710)"><stop offset="0" stop-color="#C8F9E7"/><stop offset="0.54" stop-color="#59ECB7" stop-opacity="0"/><stop offset="1" stop-color="#59ECB7" stop-opacity="0"/></radialGradient><radialGradient cx="112222" cy="120534" r="164688" gradientUnits="userSpaceOnUse" spreadMethod="pad" id="fill5" gradientTransform="matrix(0.000360892 0 0 0.000360892 1896 755)"><stop offset="0" stop-color="#C8F9E7"/><stop offset="0.54" stop-color="#59ECB7" stop-opacity="0"/><stop offset="1" stop-color="#59ECB7" stop-opacity="0"/></radialGradient><radialGradient cx="292331" cy="278477" r="403741" fx="292331" fy="278476" gradientUnits="userSpaceOnUse" spreadMethod="pad" id="fill6" gradientTransform="matrix(0.000360892 0 0 0.000360892 2186 974)"><stop offset="0" stop-color="#C8F9E7"/><stop offset="0.54" stop-color="#59ECB7" stop-opacity="0"/><stop offset="1" stop-color="#59ECB7" stop-opacity="0"/></radialGradient><radialGradient cx="70658" cy="77585.5" r="104938" gradientUnits="userSpaceOnUse" spreadMethod="pad" id="fill7" gradientTransform="matrix(0.000360892 0 0 0.000360892 2332 1102)"><stop offset="0" stop-color="#C8F9E7"/><stop offset="0.54" stop-color="#59ECB7" stop-opacity="0"/><stop offset="1" stop-color="#59ECB7" stop-opacity="0"/></radialGradient><radialGradient cx="77585" cy="84513" r="114725" gradientUnits="userSpaceOnUse" spreadMethod="pad" id="fill8" gradientTransform="matrix(0.000360892 0 0 0.000360892 2315 1019)"><stop offset="0" stop-color="#C8F9E7"/><stop offset="0.54" stop-color="#59ECB7" stop-opacity="0"/><stop offset="1" stop-color="#59ECB7" stop-opacity="0"/></radialGradient><clipPath id="clip9"><rect x="1870" y="658" width="525" height="526"/></clipPath><clipPath id="clip10"><rect x="1870" y="658" width="525" height="526"/></clipPath><clipPath id="clip11"><rect x="1870" y="658" width="525" height="526"/></clipPath><clipPath id="clip12"><rect x="1919" y="695" width="426" height="424"/></clipPath><clipPath id="clip13"><rect x="1919" y="695" width="426" height="424"/></clipPath><clipPath id="clip14"><rect x="1919" y="695" width="426" height="424"/></clipPath></defs><g clip-path="url(#clip0)" transform="translate(-1857 -646)"><rect x="1857" y="646" width="550" height="550" fill="url(#fill1)"/><path d="M1878 760.5C1878 704.443 1919.64 659 1971 659 2022.36 659 2064 704.443 2064 760.5 2064 816.557 2022.36 862 1971 862 1919.64 862 1878 816.557 1878 760.5Z" fill="url(#fill2)" fill-rule="evenodd"/><path d="M1890.73 652 2368.27 652C2384.14 652 2397 671.864 2397 696.368L2397 806C2397 767.824 2376.96 736.876 2352.23 736.876L1906.77 736.876C1882.04 736.876 1862 767.824 1862 806L1862 696.368C1862 671.864 1874.86 652 1890.73 652Z" fill="url(#fill3)" fill-rule="evenodd"/><path d="M1867 747C1867 726.565 1882.22 710 1901 710 1919.78 710 1935 726.565 1935 747 1935 767.435 1919.78 784 1901 784 1882.22 784 1867 767.435 1867 747Z" fill="url(#fill4)" fill-rule="evenodd"/><path d="M1896 798.5C1896 774.475 1914.13 755 1936.5 755 1958.87 755 1977 774.475 1977 798.5 1977 822.524 1958.87 842 1936.5 842 1914.13 842 1896 822.524 1896 798.5Z" fill="url(#fill5)" fill-rule="evenodd"/><path d="M2186 1074.5C2186 1019 2233.23 974 2291.5 974 2349.77 974 2397 1019 2397 1074.5 2397 1130 2349.77 1175 2291.5 1175 2233.23 1175 2186 1130 2186 1074.5Z" fill="url(#fill6)" fill-rule="evenodd"/><path d="M2332 1130C2332 1114.54 2343.42 1102 2357.5 1102 2371.58 1102 2383 1114.54 2383 1130 2383 1145.46 2371.58 1158 2357.5 1158 2343.42 1158 2332 1145.46 2332 1130Z" fill="url(#fill7)" fill-rule="evenodd"/><path d="M2315 1049.5C2315 1032.66 2327.54 1019 2343 1019 2358.46 1019 2371 1032.66 2371 1049.5 2371 1066.34 2358.46 1080 2343 1080 2327.54 1080 2315 1066.34 2315 1049.5Z" fill="url(#fill8)" fill-rule="evenodd"/><g clip-path="url(#clip9)"><g clip-path="url(#clip10)"><g clip-path="url(#clip11)"><path d="M2068.16 905.339 2038.97 1112.07C2038.3 1116.87 2034.59 1120.68 2029.81 1121.47 2025.03 1122.27 2020.29 1119.88 2018.09 1115.57L1943.94 970.146C1941.9 966.145 1940.87 961.704 1940.94 957.221L1943.92 758.885C1943.97 755.148 1946.35 751.851 1949.88 750.612 1953.41 749.373 1957.33 750.486 1959.7 753.384L2059.96 875.993C2066.66 884.205 2069.64 894.84 2068.15 905.34ZM2065.01 868.842C2072.12 877.546 2083.37 881.767 2094.45 879.898L2343.64 837.993C2346.97 837.436 2349.62 834.906 2350.34 831.62 2351.06 828.323 2349.69 824.931 2346.91 823.041L2197.99 722.219C2194.33 719.741 2189.98 718.502 2185.56 718.692L1970.18 727.827C1966.42 727.984 1963.07 730.262 1961.53 733.685 1959.99 737.118 1960.53 741.13 1962.91 744.048ZM2358.69 849.689C2356.39 846.833 2352.74 845.437 2349.11 846.046L2106.15 886.911C2090.3 889.579 2078.02 902.199 2075.76 918.096L2046.82 1122.74C2046.02 1128.38 2048.24 1134.03 2052.66 1137.63 2057.08 1141.22 2063.07 1142.23 2068.43 1140.3L2270.39 1067.34C2274.72 1065.78 2278.19 1062.44 2279.92 1058.16L2360.18 859.834C2361.55 856.421 2360.98 852.547 2358.69 849.691Z" fill="#FFFFFF"/></g></g></g><g clip-path="url(#clip12)"><g clip-path="url(#clip13)"><g clip-path="url(#clip14)"><path d="M384.992 323.936C386.688 322.24 386.688 318.848 384.992 317.152L337.504 269.664C335.808 267.968 332.416 267.968 330.72 269.664L329.872 271.36C328.176 273.056 328.176 276.448 329.872 278.144L377.36 325.632C379.056 327.328 382.448 327.328 384.144 325.632L384.992 323.936Z" fill="#025464" transform="matrix(1 0 0 1 1920 695)"/><path d="M390.928 312.064C392.624 313.76 396.016 313.76 397.712 312.064L398.56 311.216C400.256 309.52 400.256 306.128 398.56 304.432L351.072 256.944C349.376 255.248 345.984 255.248 344.288 256.944L343.44 257.792C341.744 259.488 341.744 262.88 343.44 264.576L390.928 312.064Z" fill="#025464" transform="matrix(1 0 0 1 1920 695)"/><path d="M324.784 283.232C323.088 281.536 319.696 281.536 318 283.232L317.152 284.08C315.456 285.776 315.456 289.168 317.152 290.864L364.64 338.352C366.336 340.048 369.728 340.048 371.424 338.352L372.272 337.504C373.968 335.808 373.968 332.416 372.272 330.72L324.784 283.232Z" fill="#025464" transform="matrix(1 0 0 1 1920 695)"/><path d="M413.824 324.784C411.28 322.24 407.04 322.24 404.496 324.784L384.992 344.288C382.448 346.832 382.448 351.072 384.992 353.616 387.536 356.16 391.776 356.16 394.32 353.616L413.824 334.112C416.368 331.568 416.368 327.328 413.824 324.784Z" fill="#025464" transform="matrix(1 0 0 1 1920 695)"/><path d="M329.872 235.744 331.568 234.048C334.112 231.504 334.112 227.264 331.568 224.72L329.872 223.024C327.328 220.48 323.088 220.48 320.544 223.024L318.848 224.72 295.952 201.824 276.448 250.16 284.928 258.64 283.232 260.336C280.688 262.88 280.688 267.12 283.232 269.664L284.928 271.36C287.472 273.904 291.712 273.904 294.256 271.36L295.952 269.664 304.432 278.144 338.352 244.224 329.872 235.744Z" fill="#025464" transform="matrix(1 0 0 1 1920 695)"/><path d="M13.568 318.848 18.656 323.936 8.48 334.112 30.528 356.16 40.704 345.984 44.944 351.072 77.168 318.848 44.944 287.472Z" fill="#025464" transform="matrix(1 0 0 1 1920 695)"/><path d="M1974.54 972.579 1984.13 962.985 2015.91 994.765 2006.32 1004.36Z" fill="#025464"/><path d="M1993.57 954.076 2003.16 944.482 2034.94 976.262 2025.35 985.856Z" fill="#025464"/><path d="M2007.8 930.779 2017.4 921.185 2058.17 961.96 2048.58 971.554Z" fill="#025464"/><path d="M236.592 160.272 220.48 176.384 270.512 229.808 281.536 202.672Z" fill="#025464" transform="matrix(1 0 0 1 1920 695)"/><path d="M202.672 128.896 138.224 68.688 128.048 78.016 189.104 142.464Z" fill="#025464" transform="matrix(1 0 0 1 1920 695)"/><path d="M293.408 87.344C296.8 83.104 296.8 76.32 293.408 72.928L291.712 71.232C287.472 66.992 280.688 66.992 277.296 71.232L119.568 228.96 135.68 245.072 293.408 87.344Z" fill="#025464" transform="matrix(1 0 0 1 1920 695)"/></g></g></g></g></svg>