<svg width="550" height="552" xmlns="http://www.w3.org/2000/svg" xmlns:xlink="http://www.w3.org/1999/xlink" overflow="hidden"><defs><clipPath id="clip0"><rect x="2388" y="41" width="550" height="552"/></clipPath><radialGradient cx="762000" cy="762000" r="1.07763e+06" gradientUnits="userSpaceOnUse" spreadMethod="pad" id="fill1" gradientTransform="matrix(0.000360892 0 0 0.000360892 2388 40.9999)"><stop offset="0" stop-color="#D9D9D9"/><stop offset="0.17" stop-color="#D9D9D9"/><stop offset="0.33" stop-color="#7F7F7F"/><stop offset="1" stop-color="#0F1113"/></radialGradient><radialGradient cx="256309" cy="281248" r="380519" fx="256309" gradientUnits="userSpaceOnUse" spreadMethod="pad" id="fill2" gradientTransform="matrix(0.000360892 0 0 0.000360892 2410 54)"><stop offset="0" stop-color="#FFFFFF"/><stop offset="0.54" stop-color="#7F7F7F" stop-opacity="0"/><stop offset="1" stop-color="#7F7F7F" stop-opacity="0"/></radialGradient><linearGradient x1="2661" y1="47.0001" x2="2661" y2="201" gradientUnits="userSpaceOnUse" spreadMethod="reflect" id="fill3"><stop offset="0" stop-color="#F5FAFF" stop-opacity="0.231373"/><stop offset="0.32" stop-color="#FFFFFF" stop-opacity="0"/><stop offset="1" stop-color="#FFFFFF" stop-opacity="0"/></linearGradient><radialGradient cx="95596.5" cy="101139" r="139168" fx="95596.5" fy="101138" gradientUnits="userSpaceOnUse" spreadMethod="pad" id="fill4" gradientTransform="matrix(0.000360892 0 0 0.000360892 2398 105)"><stop offset="0" stop-color="#FFFFFF"/><stop offset="0.54" stop-color="#7F7F7F" stop-opacity="0"/><stop offset="1" stop-color="#7F7F7F" stop-opacity="0"/></radialGradient><radialGradient cx="112222" cy="120534" r="164689" gradientUnits="userSpaceOnUse" spreadMethod="pad" id="fill5" gradientTransform="matrix(0.000360892 0 0 0.000360892 2427 150)"><stop offset="0" stop-color="#FFFFFF"/><stop offset="0.54" stop-color="#7F7F7F" stop-opacity="0"/><stop offset="1" stop-color="#7F7F7F" stop-opacity="0"/></radialGradient><radialGradient cx="293716" cy="278476" r="404745" gradientUnits="userSpaceOnUse" spreadMethod="pad" id="fill6" gradientTransform="matrix(0.000360892 0 0 0.000360892 2717 368)"><stop offset="0" stop-color="#FFFFFF"/><stop offset="0.54" stop-color="#7F7F7F" stop-opacity="0"/><stop offset="1" stop-color="#7F7F7F" stop-opacity="0"/></radialGradient><radialGradient cx="70658" cy="77585.5" r="104938" gradientUnits="userSpaceOnUse" spreadMethod="pad" id="fill7" gradientTransform="matrix(0.000360892 0 0 0.000360892 2863 496)"><stop offset="0" stop-color="#FFFFFF"/><stop offset="0.54" stop-color="#7F7F7F" stop-opacity="0"/><stop offset="1" stop-color="#7F7F7F" stop-opacity="0"/></radialGradient><radialGradient cx="77585.5" cy="84513" r="114726" fx="77585.5" fy="84513" gradientUnits="userSpaceOnUse" spreadMethod="pad" id="fill8" gradientTransform="matrix(0.000360892 0 0 0.000360892 2847 413)"><stop offset="0" stop-color="#FFFFFF"/><stop offset="0.54" stop-color="#7F7F7F" stop-opacity="0"/><stop offset="1" stop-color="#7F7F7F" stop-opacity="0"/></radialGradient><clipPath id="clip9"><rect x="2401" y="55" width="527" height="526"/></clipPath><clipPath id="clip10"><rect x="2401" y="55" width="527" height="526"/></clipPath><clipPath id="clip11"><rect x="2401" y="55" width="527" height="526"/></clipPath><clipPath id="clip12"><rect x="2403" y="456" width="123" height="123"/></clipPath><clipPath id="clip13"><rect x="2403" y="456" width="123" height="123"/></clipPath><clipPath id="clip14"><rect x="2403" y="456" width="123" height="123"/></clipPath><clipPath id="clip15"><rect x="2486" y="111" width="347" height="347"/></clipPath><clipPath id="clip16"><rect x="2486" y="111" width="347" height="347"/></clipPath><clipPath id="clip17"><rect x="2486" y="111" width="347" height="347"/></clipPath></defs><g clip-path="url(#clip0)" transform="translate(-2388 -41)"><rect x="2388" y="40.9999" width="550" height="550" fill="url(#fill1)"/><path d="M2410 155.5C2410 99.4431 2451.41 54 2502.5 54 2553.59 54 2595 99.4431 2595 155.5 2595 211.557 2553.59 257 2502.5 257 2451.41 257 2410 211.557 2410 155.5Z" fill="url(#fill2)" fill-rule="evenodd"/><path d="M2421.79 47.0001 2900.21 47.0001C2916.11 47.0001 2929 66.864 2929 91.3678L2929 201C2929 162.824 2908.92 131.876 2884.15 131.876L2437.85 131.876C2413.08 131.876 2393 162.824 2393 201L2393 91.3678C2393 66.864 2405.89 47.0001 2421.79 47.0001Z" fill="url(#fill3)" fill-rule="evenodd"/><path d="M2398 141.5C2398 121.341 2413.45 105 2432.5 105 2451.55 105 2467 121.341 2467 141.5 2467 161.658 2451.55 178 2432.5 178 2413.45 178 2398 161.658 2398 141.5Z" fill="url(#fill4)" fill-rule="evenodd"/><path d="M2427 193.5C2427 169.475 2445.13 150 2467.5 150 2489.87 150 2508 169.475 2508 193.5 2508 217.524 2489.87 237 2467.5 237 2445.13 237 2427 217.524 2427 193.5Z" fill="url(#fill5)" fill-rule="evenodd"/><path d="M2717 468.5C2717 412.995 2764.46 368 2823 368 2881.54 368 2929 412.995 2929 468.5 2929 524.005 2881.54 569 2823 569 2764.46 569 2717 524.005 2717 468.5Z" fill="url(#fill6)" fill-rule="evenodd"/><path d="M2863 524C2863 508.536 2874.42 496 2888.5 496 2902.58 496 2914 508.536 2914 524 2914 539.464 2902.58 552 2888.5 552 2874.42 552 2863 539.464 2863 524Z" fill="url(#fill7)" fill-rule="evenodd"/><path d="M2847 443.5C2847 426.655 2859.54 413 2875 413 2890.46 413 2903 426.655 2903 443.5 2903 460.345 2890.46 474 2875 474 2859.54 474 2847 460.345 2847 443.5Z" fill="url(#fill8)" fill-rule="evenodd"/><g clip-path="url(#clip9)"><g clip-path="url(#clip10)"><g clip-path="url(#clip11)"><path d="M2599.53 301.808 2570.29 508.938C2569.62 513.746 2565.9 517.556 2561.11 518.353 2556.33 519.151 2551.57 516.762 2549.37 512.44L2475.08 366.739C2473.04 362.731 2472.01 358.281 2472.07 353.789L2475.06 155.075C2475.11 151.331 2477.5 148.028 2481.04 146.787 2484.57 145.545 2488.49 146.66 2490.87 149.564L2591.32 272.407C2598.04 280.634 2601.03 291.289 2599.53 301.809ZM2596.38 265.241C2603.51 273.962 2614.78 278.191 2625.88 276.319L2875.54 234.334C2878.88 233.776 2881.53 231.241 2882.26 227.949 2882.97 224.646 2881.61 221.247 2878.82 219.354L2729.61 118.34C2725.95 115.857 2721.59 114.616 2717.16 114.806L2501.37 123.958C2497.6 124.115 2494.25 126.397 2492.7 129.827 2491.17 133.267 2491.7 137.286 2494.09 140.21ZM2890.62 246.052C2888.32 243.191 2884.66 241.792 2881.03 242.402L2637.59 283.345C2621.72 286.018 2609.41 298.662 2607.15 314.59L2578.16 519.625C2577.36 525.275 2579.58 530.933 2584.01 534.541 2588.43 538.14 2594.44 539.148 2599.81 537.215L2802.15 464.122C2806.49 462.555 2809.97 459.21 2811.7 454.917L2892.12 256.216C2893.48 252.797 2892.92 248.916 2890.62 246.054Z" fill="#FFFFFF"/></g></g></g><path d="M2393.5 590.5 2393.5 330.5 2641.5 590.5Z" stroke="#0F1113" stroke-width="4.58333" stroke-miterlimit="8" fill="#FF0000" fill-rule="evenodd"/><g clip-path="url(#clip12)"><g clip-path="url(#clip13)"><g clip-path="url(#clip14)"><path d="M2519.45 485.256C2518.72 484.513 2517.4 483.582 2515.52 483.097 2514.58 482.838 2513.55 482.715 2512.44 482.645 2511.89 482.601 2511.32 482.629 2510.72 482.624 2510.13 482.663 2509.51 482.698 2508.9 482.78 2506.41 483.105 2503.76 483.909 2501.24 485.1 2498.7 486.272 2496.27 487.781 2493.99 489.387 2489.45 492.623 2485.48 496.206 2481.79 498.647 2479.96 499.882 2478.21 500.856 2476.64 501.525 2475.07 502.191 2473.71 502.594 2472.73 502.804 2472.23 502.926 2472.24 503.291 2472.78 503.336 2473.89 503.465 2475.54 503.489 2477.54 503.202 2479.52 502.913 2481.83 502.28 2484.14 501.307 2484.57 501.126 2485.01 500.928 2485.44 500.73 2485.12 502.125 2485.04 503.604 2485.28 505.107 2486.26 511.329 2492.1 515.575 2498.33 514.592 2504.55 513.608 2508.79 507.767 2507.81 501.545 2507.07 496.847 2503.55 493.278 2499.2 492.235 2500.38 491.382 2501.59 490.512 2502.83 489.681 2504.81 488.37 2506.87 487.149 2508.94 486.327 2510.99 485.495 2513.09 485.011 2514.89 484.896 2516.68 484.775 2518.17 485.191 2519.12 485.68 2519.57 485.915 2519.82 485.651 2519.45 485.256M2496.77 528.76C2493.22 534.05 2485.14 535.268 2479.31 536.028 2474.71 536.628 2470.02 536.935 2465.33 536.897 2458.72 536.844 2452.11 536.108 2445.76 534.547 2439.7 533.06 2434.63 530.69 2431.92 529.289 2431.21 528.945 2430.42 529.677 2430.81 530.39 2431.2 531.132 2431.71 532.05 2432.31 533.118 2432.98 534.125 2433.74 535.294 2434.66 536.531 2435.15 537.128 2435.66 537.748 2436.18 538.388 2443.12 546.849 2454.2 552.334 2465.16 552.442 2473.63 552.526 2481.51 549.513 2488.33 544.627 2491.57 542.288 2494.4 539.527 2496.11 536.614 2496.56 535.921 2496.9 535.164 2497.21 534.492 2497.48 533.771 2497.75 533.128 2497.89 532.468 2497.96 532.146 2498.05 531.843 2498.1 531.546 2498.14 531.244 2498.18 530.953 2498.21 530.675 2498.3 530.133 2498.28 529.624 2498.27 529.183 2498.26 528.327 2497.2 528.158 2496.77 528.76M2444.43 505.107C2444.66 503.653 2444.59 502.224 2444.29 500.87 2444.97 501.183 2445.65 501.478 2446.32 501.735 2448.58 502.615 2450.75 503.149 2452.59 503.359 2454.43 503.567 2455.93 503.503 2456.95 503.37 2457.47 503.316 2457.46 502.95 2456.95 502.836 2455.89 502.637 2454.36 502.195 2452.66 501.453 2450.96 500.704 2449.08 499.637 2447.2 498.3 2443.41 495.659 2439.51 492.074 2435.71 489.387 2433.82 488.048 2431.62 486.687 2429.23 485.526 2426.83 484.384 2424.24 483.442 2421.67 483.028 2419.11 482.602 2416.68 482.664 2414.65 483.087 2412.6 483.506 2411.09 484.48 2410.3 485.273 2409.91 485.662 2410.14 485.942 2410.59 485.718 2411.47 485.29 2412.8 484.914 2414.43 484.977 2415.24 484.99 2416.14 485.137 2417.09 485.324 2417.56 485.408 2418.04 485.56 2418.53 485.673 2419.02 485.83 2419.52 485.976 2420.02 486.161 2423.4 487.363 2426.88 489.678 2430.5 492.237 2426.15 493.284 2422.64 496.85 2421.9 501.545 2420.91 507.767 2425.16 513.608 2431.38 514.592 2437.6 515.575 2443.44 511.329 2444.43 505.107" fill-rule="evenodd"/></g></g></g><g clip-path="url(#clip15)"><g clip-path="url(#clip16)"><g clip-path="url(#clip17)"><path d="M2786.39 282.88C2778.6 277.865 2770.26 271.576 2765.43 267.841 2762.86 265.827 2761.36 262.739 2761.36 259.471L2761.36 252.016C2761.36 249.068 2762.59 246.253 2764.75 244.249 2770.2 239.088 2775.13 233.414 2779.49 227.306 2780.63 225.722 2782.02 224.329 2783.59 223.179 2791.92 217.12 2791.92 210.261 2791.92 210.261 2792.13 194.843 2781.76 199.207 2781.76 199.207 2786.39 143.531 2746.25 143.138 2746.25 143.138 2746.25 143.138 2706.08 143.558 2710.76 199.2 2710.76 199.2 2700.35 194.836 2700.59 210.254 2700.59 210.254 2700.59 217.106 2708.91 223.172 2710.49 224.323 2711.88 225.715 2713.03 227.299 2717.38 233.407 2722.32 239.081 2727.76 244.243 2729.92 246.247 2731.15 249.061 2731.15 252.009L2731.15 259.464C2731.16 262.73 2729.66 265.816 2727.08 267.828 2722.26 271.569 2713.92 277.858 2706.11 282.873 2706.11 282.873 2681.04 300.007 2681.04 320.745L2681.04 427.149C2681.04 432.674 2685.52 437.153 2691.04 437.153L2801.51 437.153C2807.04 437.153 2811.52 432.674 2811.52 427.149L2811.52 320.752C2811.45 300.013 2786.39 282.88 2786.39 282.88ZM2731.16 207.74C2727.77 207.74 2725 204.297 2725 200.054 2725 195.812 2727.76 192.362 2731.16 192.362 2734.55 192.362 2737.31 195.805 2737.31 200.054 2737.31 204.304 2734.55 207.74 2731.16 207.74ZM2755.14 200.054C2755.14 195.805 2757.9 192.362 2761.3 192.362 2764.69 192.362 2767.44 195.805 2767.44 200.054 2767.44 204.304 2764.69 207.74 2761.3 207.74 2757.9 207.74 2755.14 204.297 2755.14 200.054Z" fill="#292929"/><path d="M2684.3 227.957C2678.72 220.373 2674 213.229 2672.11 203.822 2670.03 193.358 2671.62 182.582 2674.75 172.498 2676.49 167.106 2678.66 161.866 2681.25 156.828 2683.9 151.664 2687.04 146.92 2688.57 141.315 2689.39 138.272 2685.65 134.68 2682.76 136.849 2674.87 142.779 2669.88 152.62 2665.96 161.505 2661.83 170.83 2659.1 180.481 2658.56 190.681 2658 200.424 2659.69 210.165 2663.51 219.146 2667.23 227.74 2674.14 234.171 2678.26 242.474 2687.33 260.772 2661.8 275.351 2653.04 288.092 2641.12 305.435 2644.3 329.874 2644.23 349.766L2643.89 430.274C2643.85 438.922 2657.28 438.935 2657.33 430.274 2657.47 407.271 2657.6 384.269 2657.73 361.267 2657.8 349.854 2657.83 338.441 2657.93 327.028 2658.02 317.384 2658.13 307.123 2662.68 298.36 2667.15 289.786 2675.09 283.782 2681.35 276.611 2687.33 269.759 2692.28 261.762 2693.15 252.531 2694.02 243.301 2689.63 235.188 2684.3 227.957Z" fill="#292929"/><path d="M2640.04 152.518C2642.98 148.452 2646.28 144.934 2647.45 139.966 2647.88 138.283 2646.86 136.572 2645.18 136.144 2644.67 136.015 2644.14 136.015 2643.63 136.144 2635.29 138.319 2629.1 147.428 2624.35 154.178 2618.81 161.973 2614.8 170.749 2612.54 180.041 2610.32 189.728 2610.37 199.798 2612.7 209.461 2615.03 219.268 2620.52 227.496 2623.94 236.842 2631.61 257.777 2610.7 274.334 2603.56 292.267 2595.74 311.786 2597.98 334.246 2598.21 354.801L2598.66 392.571C2598.73 399.179 2598.8 405.787 2598.89 412.402 2598.96 417.702 2598.16 424.533 2600.25 429.623 2600.61 431.641 2601.21 433.611 2602.02 435.492 2603.51 438.786 2609.02 438.644 2610.54 435.492 2614.43 427.448 2613.2 416.299 2613.32 407.543 2613.38 402.826 2613.3 398.111 2613.08 393.398 2612.93 390.213 2612.93 387.333 2612.12 384.622 2612.05 378.459 2611.99 372.296 2611.92 366.133 2611.81 354.978 2611.62 343.822 2611.58 332.667 2611.58 323.049 2611.71 313.304 2614.09 303.937 2619.05 284.473 2636.51 270.681 2638.76 250.227 2639.87 240.129 2636.05 231.203 2631.62 222.365 2627.27 213.643 2623.86 204.744 2623.72 194.863 2623.57 184.602 2626.79 174.592 2631.68 165.666 2634.2 161.118 2636.99 156.727 2640.04 152.518Z" fill="#292929"/><path d="M2576.17 170.783C2577.27 165.282 2578.91 159.902 2581.07 154.721 2583.34 149.373 2587.17 144.412 2587.17 138.401 2587.17 136.137 2584.82 134.124 2582.55 134.883 2572.38 138.272 2567.31 153.508 2564.66 162.833 2561.47 174.031 2560.57 185.755 2561.99 197.309 2563.61 210.146 2568.82 221.627 2572.84 233.805 2576.42 244.683 2578.77 257.079 2572.57 267.482 2568.03 275.12 2579.94 282.06 2584.47 274.436 2598.41 250.979 2583.02 226.859 2577.02 203.782 2574.22 192.992 2573.93 181.703 2576.17 170.783Z" fill="#292929"/><path d="M2572.63 296.13C2571.8 294.849 2570.45 293.48 2568.88 293.243 2567.77 292.976 2566.6 292.976 2565.49 293.243L2565.49 293.243C2564.78 293.348 2564.11 293.597 2563.5 293.975 2562.09 294.831 2561.06 296.179 2560.59 297.756 2560.24 299.003 2559.99 300.277 2559.85 301.565 2559.92 303.275 2560.6 304.904 2561.76 306.16 2562.78 307.136 2564.08 307.76 2565.48 307.943 2566.91 308.179 2568.38 307.908 2569.63 307.177 2571.06 306.277 2572.12 304.898 2572.62 303.287 2572.78 302.819 2572.92 302.358 2573.05 301.884 2573.33 301.227 2573.47 300.522 2573.48 299.81L2573.48 299.81C2573.59 298.524 2573.3 297.235 2572.63 296.13Z" fill="#292929"/><path d="M2569.04 379.329C2569.04 370.45 2568.95 361.585 2568.72 352.707 2568.6 348.302 2568.62 343.897 2567.98 339.518 2567.42 335.662 2567.5 330.993 2564.35 328.356 2562.95 327.048 2560.78 327.048 2559.39 328.356 2556.37 330.871 2556.43 335.011 2555.86 338.692 2555.18 343.029 2555.18 347.38 2555.03 351.758 2554.79 360.955 2554.7 370.132 2554.68 379.329L2554.68 405.957C2554.68 414.415 2553.7 424.255 2558.54 431.711 2559.68 433.564 2562.11 434.142 2563.96 433.004 2564.49 432.68 2564.93 432.237 2565.25 431.711 2569.94 424.493 2569.12 415.12 2569.12 406.926Z" fill="#292929"/><path d="M2531.26 130.885C2526.6 132.993 2523.63 138.496 2521.38 142.887 2518.96 147.701 2517.12 152.783 2515.89 158.028 2513.91 166.317 2526.73 169.854 2528.66 161.552 2529.64 157.144 2531.11 152.859 2533.05 148.777 2534.94 144.846 2538.14 141.071 2538.86 136.754 2539.62 132.091 2535.53 128.96 2531.26 130.885Z" fill="#292929"/><path d="M2513.52 191.359C2514.05 192.283 2514.82 193.051 2515.75 193.589 2517.69 194.714 2520.08 194.714 2522.02 193.589 2522.63 193.244 2523.2 192.82 2523.7 192.328 2524.13 191.882 2524.51 191.394 2524.83 190.871 2524.89 190.777 2524.94 190.68 2524.99 190.58 2525.26 190.046 2525.49 189.49 2525.67 188.919 2525.75 188.564 2525.8 188.204 2525.84 187.842 2525.98 186.851 2525.94 185.842 2525.72 184.866 2525.55 184.079 2525.17 183.35 2524.63 182.752 2524.2 182.09 2523.61 181.549 2522.92 181.179L2521.45 180.563C2520.66 180.307 2519.82 180.27 2519.01 180.454 2518.47 180.454 2517.94 180.597 2517.47 180.868 2516.9 181.053 2516.37 181.35 2515.92 181.742L2515.72 181.83C2515.02 182.201 2514.43 182.742 2514 183.402 2513.47 183.993 2513.09 184.708 2512.91 185.483 2512.67 186.365 2512.59 187.282 2512.66 188.194 2512.65 189.307 2512.95 190.401 2513.52 191.359Z" fill="#292929"/><path d="M2519.08 318.163C2516.96 313.703 2511.18 315.764 2509.69 319.39 2507.27 325.3 2508.14 333.209 2508.1 339.512 2508.06 346.384 2507.95 353.263 2507.94 360.142 2507.94 373.893 2507.32 387.678 2507.64 401.396 2507.84 410.206 2520.4 409.949 2521.15 401.396 2522.39 387.407 2522.31 373.263 2522.33 359.2 2522.33 352.321 2522.14 345.449 2521.91 338.57 2521.69 331.941 2521.96 324.242 2519.08 318.163Z" fill="#292929"/><path d="M2520.26 426.221C2520.1 425.455 2519.8 424.724 2519.38 424.066 2518.38 422.56 2516.72 421.632 2514.91 421.578 2514.76 421.568 2514.61 421.568 2514.46 421.578 2511.98 421.687 2509.29 423.313 2508.77 425.916L2508.68 426.221C2508.47 426.621 2508.31 427.048 2508.21 427.488 2507.93 429.053 2507.85 430.647 2507.97 432.232 2507.86 435.621 2511.04 438.881 2514.46 438.725 2518.02 438.653 2520.89 435.788 2520.96 432.232 2521.08 430.647 2521 429.053 2520.72 427.488 2520.62 427.048 2520.47 426.621 2520.26 426.221Z" fill="#292929"/><path d="M2524.01 212.314C2521.49 210.491 2517.58 212.931 2517.75 215.906 2518.11 222.006 2520.94 227.828 2521.64 233.955 2522.33 240.569 2521.67 247.253 2519.72 253.609 2517.78 260.129 2515.09 266.384 2513.35 272.965 2511.65 279.383 2508.87 288.397 2510.88 294.869 2512.43 299.837 2519.93 301.484 2522.55 296.394 2524.49 292.64 2524.46 288.6 2525.19 284.5 2525.91 280.432 2526.85 276.406 2528.02 272.443 2530.05 265.51 2532.98 258.814 2534.23 251.671 2536.41 239.376 2535.08 220.339 2524.01 212.314Z" fill="#292929"/></g></g></g></g></svg>