<svg width="554" height="553" xmlns="http://www.w3.org/2000/svg" xmlns:xlink="http://www.w3.org/1999/xlink" overflow="hidden"><defs><clipPath id="clip0"><rect x="25" y="41" width="554" height="553"/></clipPath><radialGradient cx="762000" cy="762000" r="1.07763e+06" gradientUnits="userSpaceOnUse" spreadMethod="pad" id="fill1" gradientTransform="matrix(0.000360892 0 0 0.000360892 28.9999 40.9999)"><stop offset="0" stop-color="#D9D9D9"/><stop offset="0.17" stop-color="#D9D9D9"/><stop offset="0.33" stop-color="#7F7F7F"/><stop offset="1" stop-color="#0F1113"/></radialGradient><radialGradient cx="257695" cy="281248" r="381453" fx="257694" fy="281248" gradientUnits="userSpaceOnUse" spreadMethod="pad" id="fill2" gradientTransform="matrix(0.000360892 0 0 0.000360892 50.9999 54)"><stop offset="0" stop-color="#FFFFFF"/><stop offset="0.54" stop-color="#7F7F7F" stop-opacity="0"/><stop offset="1" stop-color="#7F7F7F" stop-opacity="0"/></radialGradient><linearGradient x1="302.5" y1="47.0001" x2="302.5" y2="201" gradientUnits="userSpaceOnUse" spreadMethod="reflect" id="fill3"><stop offset="0" stop-color="#F5FAFF" stop-opacity="0.231373"/><stop offset="0.32" stop-color="#FFFFFF" stop-opacity="0"/><stop offset="1" stop-color="#FFFFFF" stop-opacity="0"/></linearGradient><radialGradient cx="94211" cy="101138" r="138220" gradientUnits="userSpaceOnUse" spreadMethod="pad" id="fill4" gradientTransform="matrix(0.000360892 0 0 0.000360892 39.9999 105)"><stop offset="0" stop-color="#FFFFFF"/><stop offset="0.54" stop-color="#7F7F7F" stop-opacity="0"/><stop offset="1" stop-color="#7F7F7F" stop-opacity="0"/></radialGradient><radialGradient cx="112222" cy="120534" r="164688" gradientUnits="userSpaceOnUse" spreadMethod="pad" id="fill5" gradientTransform="matrix(0.000360892 0 0 0.000360892 69.0001 150)"><stop offset="0" stop-color="#FFFFFF"/><stop offset="0.54" stop-color="#7F7F7F" stop-opacity="0"/><stop offset="1" stop-color="#7F7F7F" stop-opacity="0"/></radialGradient><radialGradient cx="292331" cy="278476" r="403740" gradientUnits="userSpaceOnUse" spreadMethod="pad" id="fill6" gradientTransform="matrix(0.000360892 0 0 0.000360892 359 368)"><stop offset="0" stop-color="#FFFFFF"/><stop offset="0.54" stop-color="#7F7F7F" stop-opacity="0"/><stop offset="1" stop-color="#7F7F7F" stop-opacity="0"/></radialGradient><radialGradient cx="70658" cy="77585.5" r="104938" gradientUnits="userSpaceOnUse" spreadMethod="pad" id="fill7" gradientTransform="matrix(0.000360892 0 0 0.000360892 505 496)"><stop offset="0" stop-color="#FFFFFF"/><stop offset="0.54" stop-color="#7F7F7F" stop-opacity="0"/><stop offset="1" stop-color="#7F7F7F" stop-opacity="0"/></radialGradient><radialGradient cx="77585.5" cy="84513" r="114726" fx="77585.5" fy="84513" gradientUnits="userSpaceOnUse" spreadMethod="pad" id="fill8" gradientTransform="matrix(0.000360892 0 0 0.000360892 488 413)"><stop offset="0" stop-color="#FFFFFF"/><stop offset="0.54" stop-color="#7F7F7F" stop-opacity="0"/><stop offset="1" stop-color="#7F7F7F" stop-opacity="0"/></radialGradient><clipPath id="clip9"><rect x="42" y="55" width="526" height="526"/></clipPath><clipPath id="clip10"><rect x="42" y="55" width="526" height="526"/></clipPath><clipPath id="clip11"><rect x="42" y="55" width="526" height="526"/></clipPath><clipPath id="clip12"><rect x="92" y="107" width="412" height="414"/></clipPath><clipPath id="clip13"><rect x="92" y="107" width="412" height="414"/></clipPath><clipPath id="clip14"><rect x="92" y="107" width="412" height="414"/></clipPath><clipPath id="clip15"><rect x="38" y="458" width="122" height="123"/></clipPath><clipPath id="clip16"><rect x="38" y="458" width="122" height="123"/></clipPath><clipPath id="clip17"><rect x="38" y="458" width="122" height="123"/></clipPath></defs><g clip-path="url(#clip0)" transform="translate(-25 -41)"><rect x="28.9999" y="40.9999" width="550" height="550" fill="url(#fill1)"/><path d="M50.9999 155.5C50.9999 99.4431 92.6374 54 144 54 195.362 54 237 99.4431 237 155.5 237 211.557 195.362 257 144 257 92.6374 257 50.9999 211.557 50.9999 155.5Z" fill="url(#fill2)" fill-rule="evenodd"/><path d="M63.7338 47.0001 541.266 47.0001C557.135 47.0001 570 66.864 570 91.3678L570 201C570 162.824 549.957 131.876 525.233 131.876L79.7668 131.876C55.0428 131.876 35.0001 162.824 35.0001 201L35.0001 91.3678C35.0001 66.864 47.8645 47.0001 63.7338 47.0001Z" fill="url(#fill3)" fill-rule="evenodd"/><path d="M39.9999 141.5C39.9999 121.341 55.2222 105 73.9999 105 92.7776 105 108 121.341 108 141.5 108 161.658 92.7776 178 73.9999 178 55.2222 178 39.9999 161.658 39.9999 141.5Z" fill="url(#fill4)" fill-rule="evenodd"/><path d="M69.0001 193.5C69.0001 169.475 87.1325 150 109.5 150 131.867 150 150 169.475 150 193.5 150 217.524 131.867 237 109.5 237 87.1325 237 69.0001 217.524 69.0001 193.5Z" fill="url(#fill5)" fill-rule="evenodd"/><path d="M359 468.5C359 412.995 406.234 368 464.5 368 522.766 368 570 412.995 570 468.5 570 524.005 522.766 569 464.5 569 406.234 569 359 524.005 359 468.5Z" fill="url(#fill6)" fill-rule="evenodd"/><path d="M505 524C505 508.536 516.417 496 530.5 496 544.583 496 556 508.536 556 524 556 539.464 544.583 552 530.5 552 516.417 552 505 539.464 505 524Z" fill="url(#fill7)" fill-rule="evenodd"/><path d="M488 443.5C488 426.655 500.536 413 516 413 531.464 413 544 426.655 544 443.5 544 460.345 531.464 474 516 474 500.536 474 488 460.345 488 443.5Z" fill="url(#fill8)" fill-rule="evenodd"/><g clip-path="url(#clip9)"><g clip-path="url(#clip10)"><g clip-path="url(#clip11)"><path d="M198.157 246.339 168.967 453.075C168.296 457.874 164.589 461.676 159.81 462.472 155.032 463.269 150.286 460.884 148.092 456.571L73.9401 311.146C71.9031 307.146 70.8741 302.704 70.9376 298.221L73.9195 99.8852C73.9725 96.1476 76.3547 92.851 79.884 91.612 83.4115 90.373 87.3285 91.4856 89.7019 94.384L189.955 216.993C196.663 225.205 199.645 235.84 198.155 246.34ZM195.006 209.842C202.125 218.546 213.37 222.767 224.448 220.899L473.642 178.993C476.971 178.436 479.618 175.906 480.344 172.62 481.057 169.323 479.692 165.931 476.91 164.041L327.988 63.2192C324.335 60.7412 319.977 59.5022 315.557 59.692L100.18 68.8266C96.4206 68.9837 93.0711 71.2617 91.528 74.6847 89.995 78.1182 90.5319 82.1297 92.914 85.0482ZM488.692 190.689C486.391 187.834 482.737 186.437 479.115 187.046L236.145 227.911C220.301 230.579 208.015 243.199 205.758 259.096L176.819 463.741C176.021 469.381 178.236 475.029 182.657 478.629 187.078 482.221 193.074 483.227 198.428 481.298L400.386 408.344C404.722 406.78 408.188 403.441 409.921 399.157L490.184 200.834C491.549 197.421 490.98 193.547 488.692 190.691Z" fill="#FFFFFF" transform="matrix(1 0 0 1.0019 43 55)"/></g></g></g><g clip-path="url(#clip12)"><g clip-path="url(#clip13)"><g clip-path="url(#clip14)"><path d="M307.431 228.486C305.76 230.387 303.339 231.46 300.808 231.423L299.271 231.423C282.825 231.412 266.798 236.607 253.485 246.261 251.817 247.481 251.453 249.822 252.673 251.49 252.691 251.515 252.71 251.54 252.728 251.564 254.917 254.421 257.717 258.002 260.775 261.679 261.986 263.139 264.116 263.423 265.668 262.331 271.819 257.999 278.752 254.899 286.083 253.206 286.252 253.56 286.083 253.15 286.227 253.504 280.216 258.895 288.223 267.755 293.47 262.637 334.726 222.266 371.227 198.97 393.581 186.859 404.404 181.001 417.013 190.706 414.358 202.857 409.763 223.867 399.761 243.131 390.7 257.358 387.819 261.88 393.524 266.934 397.54 263.425 424.489 239.816 444.099 209.511 457.763 182.442 472.384 153.473 440.776 122.895 412.781 138.836 372.321 161.914 335.442 197.183 307.431 228.486Z" fill="#292929"/><path d="M377.423 233.853C377.019 234.645 377.333 235.614 378.125 236.018 378.705 236.314 379.406 236.231 379.901 235.809 384.769 230.9 391.094 222.547 395.496 209.527 396.483 206.577 394.892 203.385 391.942 202.399 390.712 201.987 389.378 202.012 388.165 202.47 379.982 205.77 367.42 212.682 352.759 227.037 350.048 229.707 350.013 234.067 352.683 236.778 352.989 237.09 353.325 237.371 353.684 237.619L353.845 237.724C356.613 239.63 360.37 239.156 362.576 236.621 367.292 231.221 372.403 226.177 377.865 221.533 379.064 220.564 380.822 220.75 381.792 221.949 382.486 222.808 382.609 223.995 382.106 224.977 380.883 227.48 379.346 230.449 377.423 233.853Z" fill="#292929"/><path d="M304.438 212.609C310.312 209.809 314.762 204.225 319.187 199.573 323.962 194.552 328.825 189.614 333.776 184.759 343.674 175.044 353.883 165.677 364.403 156.659 370.036 151.831 361.876 143.567 356.259 148.411 345.498 157.676 335.078 167.332 324.997 177.38 320.089 182.273 315.261 187.251 310.513 192.315 306.039 197.103 301.154 202.068 298.966 208.409 297.791 211.805 301.742 213.905 304.438 212.609Z" fill="#292929"/><path d="M375.491 144.114C375.978 144.531 376.486 144.923 377.012 145.289 377.57 145.599 378.161 145.845 378.775 146.021 380.534 146.473 382.4 146.225 383.981 145.329L385.349 144.259C385.997 143.656 386.479 142.897 386.749 142.054 387.377 140.65 387.497 139.071 387.087 137.588L386.99 137.347C386.894 136.584 386.633 135.851 386.226 135.198 385.59 134.202 384.751 133.352 383.764 132.704 383.002 132.211 382.12 131.933 381.213 131.899 380.307 131.69 379.361 131.731 378.477 132.02 377.328 132.396 376.274 133.017 375.387 133.838 373.086 136.124 372.611 139.67 374.228 142.481 374.594 143.066 375.017 143.613 375.491 144.114Z" fill="#292929"/><path d="M450.891 221.582C447.227 226.946 443.377 232.153 439.343 237.201 435.416 242.117 431.296 246.857 427.136 251.548 423.338 255.877 418.051 260.118 416.418 265.823 415.889 267.812 417.074 269.852 419.062 270.381 419.671 270.543 420.312 270.547 420.924 270.394 426.613 268.938 430.773 263.441 434.797 259.281 439.577 254.284 444.002 248.885 448.283 243.445 452.259 238.397 456.078 233.236 459.742 227.963 463.066 223.135 468.787 217.164 468.594 211.016 468.465 207.451 465.061 205.834 462.06 207.218 456.861 209.592 454.021 217.003 450.891 221.582Z" fill="#292929"/><path d="M455.582 249.786C447.398 260.376 438.828 270.595 430.041 280.67 425.883 285.439 421.654 290.147 417.351 294.792 413.465 298.968 408.009 303.314 407.695 309.365 407.695 311.221 409.186 312.734 411.042 312.761 416.732 312.511 420.803 307.466 424.585 303.595 429.245 298.824 433.839 293.979 438.321 289.039 447.294 279.149 455.735 268.76 463.902 258.195 468.473 252.24 460.233 243.775 455.582 249.786Z" fill="#292929"/><path d="M330.509 340.024C332.927 337.602 332.923 333.679 330.502 331.261 329.35 330.111 327.792 329.46 326.164 329.45 324.545 329.473 322.998 330.125 321.851 331.269 319.459 333.696 319.459 337.596 321.851 340.024 324.18 342.408 328.001 342.453 330.385 340.123 330.419 340.09 330.452 340.057 330.485 340.024Z" fill="#292929"/><path d="M191.315 166.09C196.634 170.999 202.926 174.837 208.744 179.102 214.956 183.641 221.008 188.42 227.188 193.039 232.989 197.377 238.783 202.06 244.939 205.834 250.668 209.35 256.205 215.233 262.578 217.317 263.486 217.549 264.411 217 264.643 216.091 264.715 215.81 264.713 215.513 264.638 215.233 262.344 208.948 256.245 204.168 252.318 198.889 247.844 192.87 241.954 187.576 236.313 182.699 230.672 177.823 224.975 173.51 219.044 169.237 212.607 164.618 206.065 159.428 198.814 156.233 192.9 153.626 185.658 160.868 191.315 166.09Z" fill="#292929"/><path d="M237.648 164.328C241.728 168.352 245.864 172.27 249.848 176.398 256.993 183.761 264.614 192.597 273.505 197.763 275.332 198.825 277.883 197.055 277.191 194.89 274.028 184.992 266.11 175.859 259.126 168.432 255.448 164.521 251.57 160.739 247.619 157.118 244.006 153.803 239.644 148.709 234.398 149.176 232.289 149.369 230.189 150.922 230.318 153.312 230.599 158.317 234.261 160.981 237.648 164.328Z" fill="#292929"/><path d="M133.248 193.764C140.297 208.248 149.736 221.533 159.723 234.038 163.167 238.359 184.394 267.714 190.357 258.839 192.9 255.049 189.303 250.623 187.187 247.501 183.823 242.512 179.944 237.949 176.186 233.274 168.552 223.955 161.431 214.228 154.854 204.136 148.795 194.641 143.243 184.646 139.895 173.807 138.213 168.36 136.596 162.18 136.781 156.418 136.781 156.04 136.829 155.613 136.853 155.243 137.658 155.967 139.267 156.692 139.887 157.295 140.924 158.295 141.83 159.423 142.583 160.651 147.499 168.303 159.731 161.077 154.653 153.473 150.742 147.43 144.747 141.724 137.449 140.397 130.802 139.19 125.515 143.615 123.769 149.932 121.862 156.828 123.528 165.028 125.129 171.836 127.021 179.421 129.744 186.775 133.248 193.764Z" fill="#292929"/><path d="M202.347 265.349C200.882 265.362 199.479 265.938 198.428 266.958 196.237 269.166 196.251 272.732 198.459 274.924 199.494 275.951 200.888 276.537 202.347 276.558 203.814 276.546 205.22 275.969 206.274 274.949 207.299 273.875 207.874 272.45 207.883 270.965 207.915 267.886 205.443 265.364 202.363 265.332 202.353 265.332 202.341 265.332 202.331 265.332Z" fill="#292929"/><path d="M149.229 267.063C155.72 274.406 162.628 281.37 169.918 287.92 173.66 291.372 177.426 294.848 181.409 298.019 185.11 300.964 188.941 304.69 193.479 306.066 197.318 307.249 199.716 302.952 198.307 299.757 196.352 295.428 192.007 291.791 188.828 288.306 185.65 284.822 182.552 281.643 179.502 278.224 173.169 271.134 167.246 263.691 161.147 256.392 155.047 249.094 149.318 241.634 143.661 234.054 140.909 230.379 138.227 226.654 135.614 222.877 132.709 218.701 130.03 214.026 125.628 211.33 121.733 208.964 115.167 211.925 115.787 217.051 116.913 226.885 125.193 236.138 130.81 243.944 136.556 251.942 142.8 259.611 149.229 267.063Z" fill="#292929"/><path d="M195.282 326.754C186.036 329.41 179.47 336.829 172.662 343.476 165.302 350.648 158.215 358.091 151.402 365.806 144.586 373.547 137.867 381.32 131.502 389.415 126.602 395.66 117.139 404.125 118.869 412.703 119.272 414.143 120.592 415.132 122.087 415.117 127.004 414.795 129.651 411.617 132.637 407.947 135.622 404.278 138.672 400.568 141.722 396.883 148.055 389.206 154.428 381.594 161.034 374.134 167.641 366.675 174.312 359.304 181.063 352.005 187.5 345.021 194.855 338.712 198.05 329.579 198.637 327.897 196.843 326.312 195.282 326.754Z" fill="#292929"/><path d="M201.8 356.335C199.422 356.366 197.233 357.638 196.03 359.69L195.925 359.859 195.25 361.469C194.976 362.336 194.937 363.261 195.137 364.148 195.287 365.609 195.931 366.974 196.964 368.019 197.803 368.801 198.802 369.392 199.893 369.749 201.624 370.147 203.441 369.907 205.01 369.073L205.163 368.952C206.164 368.37 206.996 367.538 207.577 366.538 208.178 365.502 208.491 364.324 208.487 363.126 208.464 361.341 207.766 359.629 206.531 358.338 205.275 357.08 203.578 356.36 201.8 356.335Z" fill="#292929"/><path d="M249.928 411.609C262.457 396.36 275.879 380.427 285.23 362.997 287.402 358.974 284.851 355.152 281.552 353.961 279.432 352.648 276.656 353.22 275.227 355.264 273.143 357.831 271.019 360.358 268.886 362.885 252.884 353.092 242.39 336.37 240.529 317.702L241.414 318.506C246.025 322.707 250.837 326.706 255.722 330.577 260.606 334.447 265.917 339.09 271.816 341.038 275.3 342.188 279.291 337.553 276.893 334.334 273.401 329.635 268.219 326.119 263.72 322.417 258.892 318.45 254.249 314.314 249.654 310.089 247.948 308.522 246.253 306.951 244.569 305.374 242.196 303.136 241.222 299.788 242.026 296.627 242.847 293.382 243.937 290.211 245.285 287.148 259.641 301.479 275.163 314.443 293.22 324.002 298.966 327.044 303.737 318.772 298.29 315.207 284.127 305.945 272.049 293.48 260.397 281.338 249.598 270.072 239.049 258.581 228.885 246.736 219.382 235.656 210.072 224.406 201.172 212.811L200.979 212.561C200.979 212.432 200.939 212.304 200.939 212.175 200.939 209.761 201.663 210.565 203.94 210.895L205.018 211.145 205.944 211.475C209.283 213.253 212.438 215.353 215.6 217.437 222.038 221.678 228.564 225.557 235.838 228.051 239.789 229.403 244.038 225.066 242.718 221.067 241.672 217.904 239.652 215.104 237.085 213.824L236.932 213.688C226.203 205.77 215.206 198.259 203.94 191.156 198.613 187.785 193.254 184.453 187.846 181.235 182.439 178.016 176.516 173.662 170.264 173.389L170.007 173.389C165.87 171.948 160.399 175.135 162.113 180.422 164.752 188.332 170.425 195.172 174.988 201.979 179.816 209.149 184.877 216.158 190.1 223.038 199.812 235.817 209.839 248.378 220.452 260.408 222.812 263.09 225.184 265.753 227.566 268.398 229.378 270.432 229.77 273.363 228.556 275.801 226.949 279.048 225.568 282.401 224.419 285.836 223.969 285.554 223.51 285.273 223.035 285.031 219.921 283.422 215.141 286.174 216.598 290.077 217.74 292.972 219.373 295.648 221.426 297.987 220.652 302.478 220.254 307.027 220.235 311.586 220.163 338.31 233.39 363.32 255.521 378.303 237.937 397.85 219.217 416.344 199.458 433.689 193.302 439.097 186.486 445.204 178.222 446.79 172.855 447.812 165.742 446.452 162.644 441.414 158.298 434.349 164.116 422.987 167.053 416.364 168.204 413.773 173.225 403.682 179.373 396.006 184.258 389.922 176.154 381.602 170.868 387.379 157.58 401.861 146.04 417.851 136.483 435.025 131.896 443.303 127.79 451.839 124.188 460.59 121.403 467.365 117.436 475.654 119.649 484.304 121.244 490.201 126.153 494.612 132.186 495.57L132.267 495.57C141.4 497.075 150.774 495.9 159.497 492.93 178.971 486.316 194.228 471.791 208.511 457.444 223.068 442.871 236.844 427.533 249.928 411.609Z" fill="#292929"/><path d="M187.42 421.514C195.95 425.538 203.409 417.708 209.146 412.325L209.243 412.228C212.262 409.92 214.934 407.192 217.177 404.125 221.436 399.414 225.441 394.48 229.175 389.343 233.416 383.549 224.098 376.379 219.35 381.65 213.427 388.224 207.537 394.839 201.574 401.381L200.705 402.355 200.319 402.644C198.372 404.023 196.113 404.896 193.745 405.187 191.58 405.38 189.568 404.576 187.412 405.083 178.673 407.118 180.749 418.376 187.42 421.514Z" fill="#292929"/><path d="M229.215 455.174C221.973 463.72 213.387 471.767 206.861 480.924 204.856 483.016 203.118 485.349 201.687 487.869 199.418 492.069 207.046 497.477 212.47 493.099 218.907 487.909 224.822 481.689 230.334 475.501 232.531 473.039 235.693 469.707 237.697 466.11 238.244 465.136 238.839 464.187 239.371 463.205 242.734 456.929 234.301 449.139 229.215 455.174Z" fill="#292929"/><path d="M460.973 450.733C444.727 451.803 429.051 445.711 414.575 438.799 400.866 432.138 387.859 424.121 375.749 414.868 363.784 405.684 352.397 395.77 341.654 385.183 336.199 379.904 330.735 374.625 325.367 369.25 320 363.875 314.738 357.695 308.034 353.76 302.884 350.734 297.574 356.665 300.157 361.742 302.41 366.128 305.258 369.789 302.064 373.611 298.04 378.439 293.671 382.865 289.511 387.597 284.983 392.741 280.423 397.867 275.831 402.974 266.979 412.888 257.548 422.585 249.445 433.158 244.617 439.459 252.085 447.602 258.249 442.09 269.458 432.064 279.307 420.203 289.406 409.178 292.399 405.911 295.328 402.588 298.258 399.241L298.829 398.589C302.514 394.352 307.521 391.483 313.04 390.445 314.15 390.244 315.244 390.027 316.331 389.785 320.464 388.846 324.789 390.092 327.79 393.085 329.479 394.764 331.185 396.43 332.907 398.082 344.692 409.47 357.196 420.089 370.341 429.875 371.597 430.803 372.874 431.728 374.172 432.651 374.992 433.198 375.215 434.307 374.667 435.128 374.21 435.817 373.338 436.1 372.562 435.814 367.292 434.006 362.129 431.903 357.096 429.513 352.246 427.187 347.567 424.52 343.095 421.53 339.031 418.803 334.847 414.876 330.067 413.709 327.916 413.15 325.72 414.44 325.161 416.591 324.984 417.272 324.988 417.987 325.174 418.666 327.87 428.362 340.777 435.564 348.84 440.239 359.136 446.027 370.045 450.647 381.366 454.016 392.922 457.551 404.647 460.505 416.498 462.867 423.113 464.219 429.373 465.064 436.133 464.686 439.947 464.477 457.722 463.929 462.623 463.076 469.519 461.974 467.95 450.274 460.973 450.733Z" fill="#292929"/><path d="M477.687 418.416C476.571 414.308 474.722 410.435 472.231 406.982 466.333 398.436 459.678 390.317 453.087 382.326 446.312 374.102 439.343 366.039 431.997 358.33 424.972 350.951 417.424 341.223 408.379 336.451 402.513 333.361 395.464 339.726 399.069 345.89 403.728 353.848 411.791 360.165 418.011 366.9 424.006 373.394 429.928 379.968 435.666 386.687 437.05 388.297 438.426 389.906 439.786 391.572 446.867 400.359 445.781 409.758 435.593 406.113 430.765 403.312 419.25 396.585 411.622 391.628 402.105 385.491 392.776 379.053 383.635 372.316 379.112 368.984 374.614 365.074 369.955 361.452 367.193 359.252 366.421 355.379 368.129 352.287 374.898 339.794 378.401 325.794 378.316 311.586 378.396 283.966 364.284 258.242 340.946 243.469 338.633 242.038 335.622 242.491 333.833 244.539L322.479 257.294 322.479 257.294 310.175 271.102C306.699 275.222 312.018 280.919 316.266 277.628L328.482 268.133C331.859 265.485 336.66 265.686 339.804 268.608 351.72 279.712 358.447 295.297 358.352 311.586 358.385 326.984 352.51 341.809 341.936 353.003 339.486 355.651 339.629 359.779 342.258 362.249L350.466 370.022C351.15 370.698 351.85 371.358 352.566 372.01L352.566 372.01 352.566 372.01C356.058 375.14 359.905 377.94 363.477 380.701 369.995 385.754 376.626 390.655 383.369 395.402 397.489 405.348 412.046 414.618 427.04 423.212 433.715 427.035 440.604 430.475 447.672 433.512 453.787 436.136 460.7 439.145 467.363 438.791 474.323 438.381 480.423 433.681 480.238 426.182 480.145 423.403 479.26 420.709 477.687 418.416Z" fill="#292929"/><path d="M406.44 474.696C398.248 471.727 389.541 470.101 381.189 467.398 372.836 464.694 364.507 461.894 356.469 458.425 340.166 451.376 325.488 441.817 310.465 432.418 303.48 428.048 295.707 438.171 301.677 443.973 315.55 457.436 333.326 466.883 351.158 473.658 359.968 477.077 369.091 479.63 378.396 481.279 387.441 482.84 397.315 484.055 406.44 482.783 410.873 482.18 409.852 475.919 406.44 474.696Z" fill="#292929"/></g></g></g><path d="M27.5 591.5 27.5 332.5 275.5 591.5Z" stroke="#0F1113" stroke-width="4.58333" stroke-miterlimit="8" fill="#FF0000" fill-rule="evenodd"/><g clip-path="url(#clip15)"><g clip-path="url(#clip16)"><g clip-path="url(#clip17)"><path d="M115.446 28.2565C114.723 27.5134 113.396 26.5824 111.516 26.0976 110.582 25.8378 109.548 25.7148 108.443 25.6453 107.887 25.6011 107.315 25.6291 106.718 25.6244 106.13 25.663 105.514 25.6979 104.895 25.7798 102.414 26.1054 99.7568 26.9087 97.2368 28.0996 94.6959 29.2717 92.2719 30.7811 89.9946 32.3871 85.4542 35.6232 81.4836 39.2063 77.793 41.6474 75.9581 42.8823 74.2052 43.8558 72.637 44.5254 71.0712 45.1911 69.7057 45.594 68.7322 45.8036 68.2318 45.9257 68.2443 46.2907 68.7762 46.3356 69.8858 46.4654 71.5429 46.4887 73.5363 46.2018 75.5235 45.9126 77.8324 45.2801 80.1405 44.3066 80.5751 44.1264 81.0089 43.9277 81.4426 43.7297 81.1155 45.1246 81.0421 46.6039 81.2795 48.107 82.263 54.3285 88.1041 58.5751 94.3255 57.5915 100.547 56.608 104.794 50.767 103.81 44.5455 103.068 39.8466 99.5526 36.2781 95.197 35.235 96.3801 34.3821 97.5901 33.5122 98.8266 32.6809 100.815 31.3703 102.867 30.1494 104.936 29.3266 106.987 28.4955 109.092 28.0106 110.889 27.8962 112.682 27.7755 114.171 28.1916 115.121 28.6802 115.567 28.9153 115.824 28.6509 115.446 28.2565M92.7651 71.7603C89.2152 77.0501 81.1419 78.2679 75.3116 79.028 70.7109 79.6281 66.0189 79.935 61.3269 79.8971 54.7204 79.8438 48.1123 79.1076 41.7562 77.5465 35.7026 76.0596 30.6286 73.6896 27.9223 72.2885 27.2093 71.9452 26.4245 72.6774 26.8072 73.3896 27.2047 74.1319 27.7073 75.0497 28.315 76.1183 28.98 77.1251 29.7447 78.2943 30.6595 79.5313 31.149 80.1275 31.657 80.7477 32.1828 81.3879 39.1242 89.8487 50.2046 95.3341 61.1576 95.4423 69.6284 95.5259 77.5115 92.5133 84.3346 87.6272 87.569 85.2881 90.3998 82.5269 92.1125 79.6142 92.5603 78.9213 92.8951 78.1636 93.2098 77.4916 93.4811 76.771 93.748 76.1284 93.8863 75.468 93.9644 75.1456 94.0464 74.8425 94.1029 74.5456 94.1408 74.244 94.1779 73.9533 94.2127 73.6749 94.2977 73.1328 94.2807 72.6241 94.2745 72.1826 94.2645 71.3273 93.2013 71.158 92.7651 71.7603M40.4263 48.107C40.6559 46.6534 40.5901 45.2244 40.2901 43.8697 40.9714 44.1829 41.6496 44.4783 42.323 44.735 44.5839 45.6149 46.7491 46.1492 48.5893 46.3588 50.4336 46.5668 51.9289 46.5026 52.9465 46.3704 53.4731 46.3162 53.4615 45.9497 52.9543 45.836 51.8865 45.6365 50.3646 45.195 48.6627 44.4528 46.9578 43.7042 45.0812 42.6372 43.1961 41.3002 39.4126 38.6589 35.5115 35.0742 31.7119 32.3871 29.8159 31.0478 27.6191 29.687 25.2314 28.5256 22.8336 27.3843 20.2378 26.4425 17.6746 26.028 15.1082 25.602 12.681 25.6638 10.6535 26.0868 8.60137 26.5059 7.09278 27.4802 6.29557 28.2727 5.90741 28.6625 6.14479 28.9416 6.59018 28.7181 7.46779 28.2905 8.79854 27.9139 10.4293 27.9773 11.2412 27.9905 12.1382 28.1367 13.0885 28.3238 13.5617 28.408 14.0426 28.5604 14.5337 28.6732 15.0208 28.8302 15.5196 28.9757 16.0198 29.1612 19.3965 30.3628 22.8808 32.6779 26.4972 35.2373 22.147 36.2843 18.6372 39.8505 17.8956 44.5455 16.9121 50.767 21.1588 56.608 27.3803 57.5915 33.6016 58.5751 39.4427 54.3285 40.4263 48.107" fill-rule="evenodd" transform="matrix(1 0 0 1 38.0002 459)"/></g></g></g></g></svg>