<svg width="550" height="552" xmlns="http://www.w3.org/2000/svg" xmlns:xlink="http://www.w3.org/1999/xlink" overflow="hidden"><defs><clipPath id="clip0"><rect x="1811" y="41" width="550" height="552"/></clipPath><radialGradient cx="762000" cy="762000" r="1.07763e+06" gradientUnits="userSpaceOnUse" spreadMethod="pad" id="fill1" gradientTransform="matrix(0.000360892 0 0 0.000360892 1811 40.9999)"><stop offset="0" stop-color="#D9D9D9"/><stop offset="0.17" stop-color="#D9D9D9"/><stop offset="0.33" stop-color="#7F7F7F"/><stop offset="1" stop-color="#0F1113"/></radialGradient><radialGradient cx="256309" cy="281248" r="380519" fx="256310" gradientUnits="userSpaceOnUse" spreadMethod="pad" id="fill2" gradientTransform="matrix(0.000360892 0 0 0.000360892 1833 54)"><stop offset="0" stop-color="#FFFFFF"/><stop offset="0.54" stop-color="#7F7F7F" stop-opacity="0"/><stop offset="1" stop-color="#7F7F7F" stop-opacity="0"/></radialGradient><linearGradient x1="2084" y1="47.0001" x2="2084" y2="201" gradientUnits="userSpaceOnUse" spreadMethod="reflect" id="fill3"><stop offset="0" stop-color="#F5FAFF" stop-opacity="0.231373"/><stop offset="0.32" stop-color="#FFFFFF" stop-opacity="0"/><stop offset="1" stop-color="#FFFFFF" stop-opacity="0"/></linearGradient><radialGradient cx="95596.5" cy="101139" r="139168" fx="95596.5" fy="101138" gradientUnits="userSpaceOnUse" spreadMethod="pad" id="fill4" gradientTransform="matrix(0.000360892 0 0 0.000360892 1821 105)"><stop offset="0" stop-color="#FFFFFF"/><stop offset="0.54" stop-color="#7F7F7F" stop-opacity="0"/><stop offset="1" stop-color="#7F7F7F" stop-opacity="0"/></radialGradient><radialGradient cx="112222" cy="120534" r="164688" gradientUnits="userSpaceOnUse" spreadMethod="pad" id="fill5" gradientTransform="matrix(0.000360892 0 0 0.000360892 1850 150)"><stop offset="0" stop-color="#FFFFFF"/><stop offset="0.54" stop-color="#7F7F7F" stop-opacity="0"/><stop offset="1" stop-color="#7F7F7F" stop-opacity="0"/></radialGradient><radialGradient cx="293716" cy="278476" r="404745" gradientUnits="userSpaceOnUse" spreadMethod="pad" id="fill6" gradientTransform="matrix(0.000360892 0 0 0.000360892 2140 368)"><stop offset="0" stop-color="#FFFFFF"/><stop offset="0.54" stop-color="#7F7F7F" stop-opacity="0"/><stop offset="1" stop-color="#7F7F7F" stop-opacity="0"/></radialGradient><radialGradient cx="72043.5" cy="77585.5" r="105876" fx="72043.5" fy="77585.5" gradientUnits="userSpaceOnUse" spreadMethod="pad" id="fill7" gradientTransform="matrix(0.000360892 0 0 0.000360892 2286 496)"><stop offset="0" stop-color="#FFFFFF"/><stop offset="0.54" stop-color="#7F7F7F" stop-opacity="0"/><stop offset="1" stop-color="#7F7F7F" stop-opacity="0"/></radialGradient><radialGradient cx="77585.5" cy="84513" r="114726" fx="77585.5" fy="84513" gradientUnits="userSpaceOnUse" spreadMethod="pad" id="fill8" gradientTransform="matrix(0.000360892 0 0 0.000360892 2270 413)"><stop offset="0" stop-color="#FFFFFF"/><stop offset="0.54" stop-color="#7F7F7F" stop-opacity="0"/><stop offset="1" stop-color="#7F7F7F" stop-opacity="0"/></radialGradient><clipPath id="clip9"><rect x="1823" y="55" width="527" height="526"/></clipPath><clipPath id="clip10"><rect x="1823" y="55" width="527" height="526"/></clipPath><clipPath id="clip11"><rect x="1823" y="55" width="527" height="526"/></clipPath><clipPath id="clip12"><rect x="1827" y="456" width="123" height="123"/></clipPath><clipPath id="clip13"><rect x="1827" y="456" width="123" height="123"/></clipPath><clipPath id="clip14"><rect x="1827" y="456" width="123" height="123"/></clipPath><clipPath id="clip15"><rect x="1892" y="145" width="369" height="367"/></clipPath><clipPath id="clip16"><rect x="1892" y="145" width="369" height="367"/></clipPath><clipPath id="clip17"><rect x="1892" y="145" width="369" height="367"/></clipPath></defs><g clip-path="url(#clip0)" transform="translate(-1811 -41)"><rect x="1811" y="40.9999" width="550" height="550" fill="url(#fill1)"/><path d="M1833 155.5C1833 99.4431 1874.41 54 1925.5 54 1976.59 54 2018 99.4431 2018 155.5 2018 211.557 1976.59 257 1925.5 257 1874.41 257 1833 211.557 1833 155.5Z" fill="url(#fill2)" fill-rule="evenodd"/><path d="M1844.79 47.0001 2323.21 47.0001C2339.11 47.0001 2352 66.864 2352 91.3678L2352 201C2352 162.824 2331.92 131.876 2307.15 131.876L1860.85 131.876C1836.08 131.876 1816 162.824 1816 201L1816 91.3678C1816 66.864 1828.89 47.0001 1844.79 47.0001Z" fill="url(#fill3)" fill-rule="evenodd"/><path d="M1821 141.5C1821 121.341 1836.45 105 1855.5 105 1874.55 105 1890 121.341 1890 141.5 1890 161.658 1874.55 178 1855.5 178 1836.45 178 1821 161.658 1821 141.5Z" fill="url(#fill4)" fill-rule="evenodd"/><path d="M1850 193.5C1850 169.475 1868.13 150 1890.5 150 1912.87 150 1931 169.475 1931 193.5 1931 217.524 1912.87 237 1890.5 237 1868.13 237 1850 217.524 1850 193.5Z" fill="url(#fill5)" fill-rule="evenodd"/><path d="M2140 468.5C2140 412.995 2187.46 368 2246 368 2304.54 368 2352 412.995 2352 468.5 2352 524.005 2304.54 569 2246 569 2187.46 569 2140 524.005 2140 468.5Z" fill="url(#fill6)" fill-rule="evenodd"/><path d="M2286 524C2286 508.536 2297.64 496 2312 496 2326.36 496 2338 508.536 2338 524 2338 539.464 2326.36 552 2312 552 2297.64 552 2286 539.464 2286 524Z" fill="url(#fill7)" fill-rule="evenodd"/><path d="M2270 443.5C2270 426.655 2282.54 413 2298 413 2313.46 413 2326 426.655 2326 443.5 2326 460.345 2313.46 474 2298 474 2282.54 474 2270 460.345 2270 443.5Z" fill="url(#fill8)" fill-rule="evenodd"/><g clip-path="url(#clip9)"><g clip-path="url(#clip10)"><g clip-path="url(#clip11)"><path d="M2022.53 301.808 1993.29 508.938C1992.62 513.746 1988.9 517.556 1984.11 518.353 1979.33 519.151 1974.57 516.762 1972.37 512.44L1898.08 366.739C1896.04 362.731 1895.01 358.281 1895.07 353.789L1898.06 155.075C1898.11 151.331 1900.5 148.028 1904.04 146.787 1907.57 145.545 1911.49 146.66 1913.87 149.564L2014.32 272.407C2021.04 280.634 2024.02 291.289 2022.53 301.809ZM2019.38 265.241C2026.51 273.962 2037.78 278.191 2048.88 276.319L2298.54 234.334C2301.88 233.776 2304.53 231.241 2305.26 227.949 2305.97 224.646 2304.61 221.247 2301.82 219.354L2152.61 118.34C2148.95 115.857 2144.59 114.616 2140.16 114.806L1924.37 123.958C1920.6 124.115 1917.25 126.397 1915.7 129.827 1914.17 133.267 1914.7 137.286 1917.09 140.21ZM2313.62 246.052C2311.32 243.191 2307.66 241.792 2304.03 242.402L2060.59 283.345C2044.72 286.018 2032.41 298.662 2030.15 314.59L2001.16 519.625C2000.36 525.275 2002.58 530.933 2007 534.541 2011.43 538.14 2017.44 539.148 2022.81 537.215L2225.15 464.122C2229.49 462.555 2232.97 459.21 2234.7 454.917L2315.12 256.216C2316.48 252.797 2315.92 248.916 2313.62 246.054Z" fill="#FFFFFF"/></g></g></g><path d="M1816.5 590.5 1816.5 330.5 2064.5 590.5Z" stroke="#0F1113" stroke-width="4.58333" stroke-miterlimit="8" fill="#FF0000" fill-rule="evenodd"/><g clip-path="url(#clip12)"><g clip-path="url(#clip13)"><g clip-path="url(#clip14)"><path d="M1942.45 485.256C1941.72 484.513 1940.4 483.582 1938.52 483.097 1937.58 482.838 1936.55 482.715 1935.44 482.645 1934.89 482.601 1934.32 482.629 1933.72 482.624 1933.13 482.663 1932.51 482.698 1931.9 482.78 1929.41 483.105 1926.76 483.909 1924.24 485.1 1921.7 486.272 1919.27 487.781 1916.99 489.387 1912.45 492.623 1908.48 496.206 1904.79 498.647 1902.96 499.882 1901.21 500.856 1899.64 501.525 1898.07 502.191 1896.71 502.594 1895.73 502.804 1895.23 502.926 1895.24 503.291 1895.78 503.336 1896.89 503.465 1898.54 503.489 1900.54 503.202 1902.52 502.913 1904.83 502.28 1907.14 501.307 1907.58 501.126 1908.01 500.928 1908.44 500.73 1908.12 502.125 1908.04 503.604 1908.28 505.107 1909.26 511.329 1915.1 515.575 1921.33 514.592 1927.55 513.608 1931.79 507.767 1930.81 501.545 1930.07 496.847 1926.55 493.278 1922.2 492.235 1923.38 491.382 1924.59 490.512 1925.83 489.681 1927.81 488.37 1929.87 487.149 1931.94 486.327 1933.99 485.495 1936.09 485.011 1937.89 484.896 1939.68 484.775 1941.17 485.191 1942.12 485.68 1942.57 485.915 1942.82 485.651 1942.45 485.256M1919.77 528.76C1916.22 534.05 1908.14 535.268 1902.31 536.028 1897.71 536.628 1893.02 536.935 1888.33 536.897 1881.72 536.844 1875.11 536.108 1868.76 534.547 1862.7 533.06 1857.63 530.69 1854.92 529.289 1854.21 528.945 1853.42 529.677 1853.81 530.39 1854.2 531.132 1854.71 532.05 1855.32 533.118 1855.98 534.125 1856.74 535.294 1857.66 536.531 1858.15 537.128 1858.66 537.748 1859.18 538.388 1866.12 546.849 1877.2 552.334 1888.16 552.442 1896.63 552.526 1904.51 549.513 1911.33 544.627 1914.57 542.288 1917.4 539.527 1919.11 536.614 1919.56 535.921 1919.9 535.164 1920.21 534.492 1920.48 533.771 1920.75 533.128 1920.89 532.468 1920.96 532.146 1921.05 531.843 1921.1 531.546 1921.14 531.244 1921.18 530.953 1921.21 530.675 1921.3 530.133 1921.28 529.624 1921.27 529.183 1921.26 528.327 1920.2 528.158 1919.77 528.76M1867.43 505.107C1867.66 503.653 1867.59 502.224 1867.29 500.87 1867.97 501.183 1868.65 501.478 1869.32 501.735 1871.58 502.615 1873.75 503.149 1875.59 503.359 1877.43 503.567 1878.93 503.503 1879.95 503.37 1880.47 503.316 1880.46 502.95 1879.95 502.836 1878.89 502.637 1877.36 502.195 1875.66 501.453 1873.96 500.704 1872.08 499.637 1870.2 498.3 1866.41 495.659 1862.51 492.074 1858.71 489.387 1856.82 488.048 1854.62 486.687 1852.23 485.526 1849.83 484.384 1847.24 483.442 1844.67 483.028 1842.11 482.602 1839.68 482.664 1837.65 483.087 1835.6 483.506 1834.09 484.48 1833.3 485.273 1832.91 485.662 1833.14 485.942 1833.59 485.718 1834.47 485.29 1835.8 484.914 1837.43 484.977 1838.24 484.99 1839.14 485.137 1840.09 485.324 1840.56 485.408 1841.04 485.56 1841.53 485.673 1842.02 485.83 1842.52 485.976 1843.02 486.161 1846.4 487.363 1849.88 489.678 1853.5 492.237 1849.15 493.284 1845.64 496.85 1844.9 501.545 1843.91 507.767 1848.16 513.608 1854.38 514.592 1860.6 515.575 1866.44 511.329 1867.43 505.107" fill-rule="evenodd"/></g></g></g><g clip-path="url(#clip15)"><g clip-path="url(#clip16)"><g clip-path="url(#clip17)"><path d="M224.393 325.626C219.611 320.478 216.962 313.707 216.981 306.681L216.981 275.744C225.87 269.472 229.282 259.717 230.543 254.241 231.094 251.778 232.627 249.647 234.787 248.341 243.933 242.879 248.406 233.109 250.248 218.738 252.312 202.617 239.095 204.287 239.095 204.287L239.095 167.587C239.194 155.624 235.195 143.989 227.762 134.614 227.341 134.084 226.911 133.568 226.472 133.066 216.359 121.513 201.721 114.931 186.367 115.031L180.633 115.031C165.282 114.939 150.65 121.526 140.542 133.08 140.103 133.582 139.673 134.098 139.252 134.629 131.82 144.003 127.821 155.639 127.919 167.601L127.919 204.287C127.919 204.287 114.702 202.631 116.766 218.745 118.608 233.117 123.081 242.886 132.227 248.348 134.387 249.654 135.92 251.785 136.471 254.248 137.732 259.731 141.144 269.487 150.033 275.752L150.033 306.689C150.056 313.709 147.415 320.477 142.642 325.626 134.247 334.669 123.829 341.596 112.243 345.84L254.792 345.84C243.206 341.596 232.789 334.669 224.393 325.626ZM162.749 226.042C156.556 226.759 150.706 220.365 149.674 211.706 148.642 203.047 152.842 195.449 159.036 194.711 165.229 193.972 171.085 200.395 172.11 209.047 173.135 217.698 168.956 225.311 162.756 226.042ZM204.237 226.042C198.037 225.325 193.85 217.698 194.875 209.054 195.9 200.409 201.757 194.001 207.95 194.718 214.143 195.435 218.336 203.061 217.311 211.713 216.286 220.365 210.437 226.78 204.244 226.042Z" fill="#292929" transform="matrix(1.00273 0 0 1 1892 145)"/><path d="M159.358 27.2383C154.92 26.1893 150.253 26.7906 146.226 28.9299 125.812 39.3808 105.369 32.8938 93.5921 27.1164 85.5231 23.1778 76.6592 21.14 67.6799 21.1598L65.7517 21.1598C64.0314 21.1433 62.3183 21.3849 60.6696 21.8766 59.3993 22.2105 58.2224 22.8309 57.229 23.6901 53.9621 26.4729 52.554 30.8665 53.5949 35.0298 61.3936 66.7051 78.7616 82.5248 89.2913 89.5064 93.4344 92.2517 99.0326 91.9363 102.509 88.3882 106.465 84.3612 106.407 77.8893 102.38 73.9332 102.14 73.6981 101.889 73.4745 101.627 73.2638 89.5422 63.4723 82.1807 49.3944 81.98 49.0289 80.679 46.5419 81.6402 43.4711 84.1275 42.1701 86.5309 40.9129 89.4978 41.7644 90.8683 44.1045 93.1491 47.904 95.8178 51.4568 98.8319 54.7059 100.562 56.5752 102.828 57.8645 105.319 58.3974 111.13 59.6734 117.077 60.2247 123.024 60.0389 124.603 59.9973 125.95 58.8859 126.292 57.3437 126.57 56.1244 126.77 54.8892 126.894 53.645 127.077 50.8462 129.493 48.7249 132.292 48.907 135.091 49.0891 137.212 51.5056 137.03 54.3045 137.03 54.4909 137.79 67.5724 123.819 88.2376 120.565 93.0402 120.235 99.219 123.819 103.778L123.819 103.778C127.428 108.342 133.693 109.844 138.98 107.412 167.25 94.4666 172.368 63.2358 172.82 45.0507 173.032 36.7018 167.448 29.3135 159.358 27.2383Z" fill="#292929" transform="matrix(1.00273 0 0 1 1892 145)"/><path d="M46.8928 57.9172C49.0002 60.9994 51.9892 65.2285 55.0715 69.0705 56.2945 70.6268 56.0243 72.8803 54.468 74.1031 54.4308 74.1325 54.393 74.1605 54.3547 74.1884 51.9821 75.9876 51.0717 80.0088 54.8708 86.2808 58.8705 92.8753 67.2283 97.1044 73.9734 99.8067 78.7186 101.65 81.0711 106.992 79.2268 111.738 79.0978 112.07 78.9494 112.394 78.7831 112.709L78.5967 113.039C76.4069 116.747 71.9621 118.471 67.8448 117.211 59.2432 114.637 39.5457 107.283 30.8581 86.2951 23.2887 68.0312 31.9763 59.4368 37.8827 55.9101 40.9459 54.1012 44.8871 54.9791 46.8928 57.9172Z" fill="#292929" transform="matrix(1.00273 0 0 1 1892 145)"/><path d="M31.9691 112.007C34.8363 113.311 38.836 115.053 42.7641 116.494 44.2009 117.036 44.9256 118.641 44.3827 120.078 44.3314 120.214 44.2696 120.346 44.1977 120.472 43.0436 122.787 43.9109 126.056 49.3658 128.923 55.1001 131.941 63.3075 131.374 69.6583 130.414 74.4465 129.697 78.6827 133.016 78.5035 137.582 78.5035 137.682 78.5035 137.79 78.5035 137.897 78.2742 141.481 75.4357 144.621 71.7155 145.517 63.9526 147.381 45.6384 150.57 30.557 139.245 17.4468 129.396 20.8659 119.497 24.1059 114.429 25.7864 111.814 29.1078 110.79 31.9691 112.007Z" fill="#292929" transform="matrix(1.00273 0 0 1 1892 145)"/><path d="M44.8213 158.168C50.6852 159.209 56.6969 159.082 62.5118 157.796 63.8861 157.496 65.3192 157.902 66.3323 158.878 67.8735 160.39 70.8553 162.075 75.5718 159.788 78.5143 158.248 81.1256 156.143 83.2559 153.595 86.2815 150.097 91.398 149.311 95.3339 151.739L95.3339 151.739C99.7436 154.452 101.119 160.227 98.4054 164.637 98.204 164.965 97.9825 165.28 97.7424 165.58 93.3412 171.006 86.5317 177.529 77.5645 180.633 62.5978 185.829 46.0255 177.608 42.1835 162.24 42.0903 161.881 42.0043 161.523 41.9254 161.136 41.641 159.788 42.5032 158.464 43.8512 158.18 44.1706 158.113 44.5002 158.109 44.8213 158.168Z" fill="#292929" transform="matrix(1.00273 0 0 1 1892 145)"/><path d="M207.642 27.2383C212.079 26.1893 216.746 26.7906 220.773 28.9299 241.188 39.3808 261.631 32.8938 273.408 27.1164 281.477 23.1778 290.341 21.14 299.32 21.1598L301.219 21.1598C302.94 21.1433 304.653 21.3849 306.301 21.8766 307.572 22.2105 308.749 22.8309 309.742 23.6901 313.009 26.4729 314.417 30.8665 313.376 35.0298 305.577 66.7051 288.209 82.5248 277.68 89.5064 273.537 92.2517 267.938 91.9363 264.462 88.3882 260.506 84.3612 260.564 77.8893 264.591 73.9332 264.831 73.6981 265.082 73.4745 265.344 73.2638 277.429 63.4723 284.79 49.3944 284.991 49.0289 286.292 46.5419 285.331 43.4711 282.844 42.1701 280.44 40.9129 277.473 41.7644 276.103 44.1045 273.822 47.904 271.153 51.4568 268.139 54.7059 266.409 56.5752 264.143 57.8645 261.652 58.3974 255.841 59.6734 249.894 60.2247 243.947 60.0389 242.379 59.9844 241.046 58.8758 240.707 57.3437 240.43 56.1244 240.229 54.8892 240.105 53.645 239.923 50.8462 237.507 48.7249 234.708 48.907 231.909 49.0891 229.788 51.5056 229.97 54.3045 229.97 54.4909 229.21 67.5724 243.18 88.2376 246.435 93.0402 246.764 99.219 243.18 103.778L243.18 103.778C239.571 108.342 233.306 109.844 228.02 107.412 199.75 94.4666 194.632 63.2358 194.18 45.0507 193.968 36.7018 199.552 29.3135 207.642 27.2383Z" fill="#292929" transform="matrix(1.00273 0 0 1 1892 145)"/><path d="M320.107 57.9172C318 60.9994 315.011 65.2213 311.928 69.0705 310.705 70.6268 310.976 72.8803 312.532 74.1031 312.569 74.1325 312.607 74.1605 312.645 74.1884 315.018 75.9876 315.928 80.0088 312.129 86.2808 308.129 92.8753 299.771 97.1044 293.026 99.8067 288.281 101.65 285.929 106.992 287.773 111.738 287.902 112.07 288.05 112.394 288.217 112.709L288.403 113.039C290.593 116.747 295.038 118.471 299.155 117.211 307.757 114.637 327.454 107.283 336.142 86.2951 343.704 68.0455 335.016 59.4511 329.11 55.9245 326.052 54.1173 322.117 54.9882 320.107 57.9172Z" fill="#292929" transform="matrix(1.00273 0 0 1 1892 145)"/><path d="M335.031 112.007C332.163 113.311 328.164 115.053 324.236 116.494 322.798 117.036 322.074 118.641 322.617 120.078 322.668 120.214 322.73 120.346 322.802 120.472 323.956 122.787 323.089 126.056 317.634 128.923 311.9 131.941 303.692 131.374 297.341 130.414 292.553 129.697 288.317 133.016 288.496 137.582 288.496 137.682 288.496 137.79 288.496 137.897 288.726 141.481 291.564 144.621 295.284 145.517 303.047 147.381 321.361 150.57 336.443 139.245 349.553 129.396 346.134 119.497 342.894 114.429 341.214 111.814 337.892 110.79 335.031 112.007Z" fill="#292929" transform="matrix(1.00273 0 0 1 1892 145)"/><path d="M322.178 158.168C316.314 159.209 310.303 159.082 304.488 157.796 303.114 157.496 301.68 157.902 300.667 158.878 299.126 160.39 296.144 162.075 291.428 159.788 288.485 158.248 285.874 156.143 283.744 153.595 280.718 150.097 275.602 149.311 271.666 151.739L271.666 151.739C267.256 154.452 265.881 160.227 268.594 164.637 268.796 164.965 269.017 165.28 269.257 165.58 273.659 171.006 280.468 177.529 289.435 180.633 304.402 185.829 320.974 177.608 324.816 162.24 324.909 161.881 324.995 161.523 325.074 161.136 325.359 159.788 324.497 158.464 323.148 158.18 322.829 158.113 322.5 158.109 322.178 158.168Z" fill="#292929" transform="matrix(1.00273 0 0 1 1892 145)"/></g></g></g></g></svg>