<svg width="550" height="550" xmlns="http://www.w3.org/2000/svg" xmlns:xlink="http://www.w3.org/1999/xlink" overflow="hidden"><defs><clipPath id="clip0"><rect x="650" y="646" width="550" height="550"/></clipPath><radialGradient cx="762000" cy="762000" r="1.07763e+06" gradientUnits="userSpaceOnUse" spreadMethod="pad" id="fill1" gradientTransform="matrix(0.000360892 0 0 0.000360892 650 646)"><stop offset="0" stop-color="#D9D9D9"/><stop offset="0.17" stop-color="#D9D9D9"/><stop offset="0.33" stop-color="#7F7F7F"/><stop offset="1" stop-color="#0F1113"/></radialGradient><radialGradient cx="257695" cy="281248" r="381453" fx="257694" fy="281248" gradientUnits="userSpaceOnUse" spreadMethod="pad" id="fill2" gradientTransform="matrix(0.000360892 0 0 0.000360892 672 659)"><stop offset="0" stop-color="#FFFFFF"/><stop offset="0.54" stop-color="#7F7F7F" stop-opacity="0"/><stop offset="1" stop-color="#7F7F7F" stop-opacity="0"/></radialGradient><linearGradient x1="923.5" y1="652" x2="923.5" y2="806" gradientUnits="userSpaceOnUse" spreadMethod="reflect" id="fill3"><stop offset="0" stop-color="#F5FAFF" stop-opacity="0.231373"/><stop offset="0.32" stop-color="#FFFFFF" stop-opacity="0"/><stop offset="1" stop-color="#FFFFFF" stop-opacity="0"/></linearGradient><radialGradient cx="94211" cy="102524" r="139236" gradientUnits="userSpaceOnUse" spreadMethod="pad" id="fill4" gradientTransform="matrix(0.000360892 0 0 0.000360892 661 709)"><stop offset="0" stop-color="#FFFFFF"/><stop offset="0.54" stop-color="#7F7F7F" stop-opacity="0"/><stop offset="1" stop-color="#7F7F7F" stop-opacity="0"/></radialGradient><radialGradient cx="112222" cy="120534" r="164689" gradientUnits="userSpaceOnUse" spreadMethod="pad" id="fill5" gradientTransform="matrix(0.000360892 0 0 0.000360892 690 755)"><stop offset="0" stop-color="#FFFFFF"/><stop offset="0.54" stop-color="#7F7F7F" stop-opacity="0"/><stop offset="1" stop-color="#7F7F7F" stop-opacity="0"/></radialGradient><radialGradient cx="292331" cy="278476" r="403740" gradientUnits="userSpaceOnUse" spreadMethod="pad" id="fill6" gradientTransform="matrix(0.000360892 0 0 0.000360892 980 973)"><stop offset="0" stop-color="#FFFFFF"/><stop offset="0.54" stop-color="#7F7F7F" stop-opacity="0"/><stop offset="1" stop-color="#7F7F7F" stop-opacity="0"/></radialGradient><radialGradient cx="72043.5" cy="77585.5" r="105876" fx="72043.5" fy="77585.5" gradientUnits="userSpaceOnUse" spreadMethod="pad" id="fill7" gradientTransform="matrix(0.000360892 0 0 0.000360892 1125 1101)"><stop offset="0" stop-color="#FFFFFF"/><stop offset="0.54" stop-color="#7F7F7F" stop-opacity="0"/><stop offset="1" stop-color="#7F7F7F" stop-opacity="0"/></radialGradient><radialGradient cx="77585.5" cy="84513" r="114726" fx="77585.5" fy="84513" gradientUnits="userSpaceOnUse" spreadMethod="pad" id="fill8" gradientTransform="matrix(0.000360892 0 0 0.000360892 1109 1018)"><stop offset="0" stop-color="#FFFFFF"/><stop offset="0.54" stop-color="#7F7F7F" stop-opacity="0"/><stop offset="1" stop-color="#7F7F7F" stop-opacity="0"/></radialGradient><clipPath id="clip9"><rect x="664" y="660" width="526" height="526"/></clipPath><clipPath id="clip10"><rect x="664" y="660" width="526" height="526"/></clipPath><clipPath id="clip11"><rect x="664" y="660" width="526" height="526"/></clipPath><clipPath id="clip12"><rect x="744" y="808" width="345" height="345"/></clipPath><clipPath id="clip13"><rect x="744" y="808" width="345" height="345"/></clipPath><clipPath id="clip14"><rect x="744" y="808" width="345" height="345"/></clipPath><clipPath id="clip15"><rect x="765" y="684" width="310" height="310"/></clipPath><clipPath id="clip16"><rect x="765" y="684" width="310" height="310"/></clipPath><clipPath id="clip17"><rect x="765" y="684" width="310" height="310"/></clipPath><clipPath id="clip18"><rect x="764" y="684" width="310" height="311"/></clipPath><clipPath id="clip19"><rect x="764" y="684" width="310" height="311"/></clipPath><clipPath id="clip20"><rect x="764" y="684" width="310" height="311"/></clipPath></defs><g clip-path="url(#clip0)" transform="translate(-650 -646)"><rect x="650" y="646" width="550" height="550" fill="url(#fill1)"/><path d="M672 760.5C672 704.443 713.638 659 765 659 816.362 659 858 704.443 858 760.5 858 816.557 816.362 862 765 862 713.638 862 672 816.557 672 760.5Z" fill="url(#fill2)" fill-rule="evenodd"/><path d="M684.734 652 1162.27 652C1178.14 652 1191 671.864 1191 696.368L1191 806C1191 767.824 1170.96 736.876 1146.23 736.876L700.767 736.876C676.043 736.876 656 767.824 656 806L656 696.368C656 671.864 668.864 652 684.734 652Z" fill="url(#fill3)" fill-rule="evenodd"/><path d="M661 746C661 725.566 676.222 709 695 709 713.778 709 729 725.566 729 746 729 766.435 713.778 783 695 783 676.222 783 661 766.435 661 746Z" fill="url(#fill4)" fill-rule="evenodd"/><path d="M690 798.5C690 774.475 708.132 755 730.5 755 752.867 755 771 774.475 771 798.5 771 822.524 752.867 842 730.5 842 708.132 842 690 822.524 690 798.5Z" fill="url(#fill5)" fill-rule="evenodd"/><path d="M980 1073.5C980 1018 1027.23 973 1085.5 973 1143.77 973 1191 1018 1191 1073.5 1191 1129 1143.77 1174 1085.5 1174 1027.23 1174 980 1129 980 1073.5Z" fill="url(#fill6)" fill-rule="evenodd"/><path d="M1125 1129C1125 1113.54 1136.64 1101 1151 1101 1165.36 1101 1177 1113.54 1177 1129 1177 1144.46 1165.36 1157 1151 1157 1136.64 1157 1125 1144.46 1125 1129Z" fill="url(#fill7)" fill-rule="evenodd"/><path d="M1109 1048.5C1109 1031.66 1121.54 1018 1137 1018 1152.46 1018 1165 1031.66 1165 1048.5 1165 1065.34 1152.46 1079 1137 1079 1121.54 1079 1109 1065.34 1109 1048.5Z" fill="url(#fill8)" fill-rule="evenodd"/><g clip-path="url(#clip9)"><g clip-path="url(#clip10)"><g clip-path="url(#clip11)"><path d="M198.157 246.339 168.967 453.075C168.296 457.874 164.589 461.676 159.81 462.472 155.032 463.269 150.286 460.884 148.092 456.571L73.9401 311.146C71.9031 307.146 70.8741 302.704 70.9376 298.221L73.9195 99.8852C73.9725 96.1476 76.3547 92.851 79.884 91.612 83.4115 90.373 87.3285 91.4856 89.7019 94.384L189.955 216.993C196.663 225.205 199.645 235.84 198.155 246.34ZM195.006 209.842C202.125 218.546 213.37 222.767 224.448 220.899L473.642 178.993C476.971 178.436 479.618 175.906 480.344 172.62 481.057 169.323 479.692 165.931 476.91 164.041L327.988 63.2192C324.335 60.7412 319.977 59.5022 315.557 59.692L100.18 68.8266C96.4206 68.9837 93.0711 71.2617 91.528 74.6847 89.995 78.1182 90.5319 82.1297 92.914 85.0482ZM488.692 190.689C486.391 187.834 482.737 186.437 479.115 187.046L236.145 227.911C220.301 230.579 208.015 243.199 205.758 259.096L176.819 463.741C176.021 469.381 178.236 475.029 182.657 478.629 187.078 482.221 193.074 483.227 198.428 481.298L400.386 408.344C404.722 406.78 408.188 403.441 409.921 399.157L490.184 200.834C491.549 197.421 490.98 193.547 488.692 190.691Z" fill="#FFFFFF" transform="matrix(1 0 0 1.0019 664 660)"/></g></g></g><g clip-path="url(#clip12)"><g clip-path="url(#clip13)"><g clip-path="url(#clip14)"><path d="M1024.76 960.329 1033.49 907.116C1035.59 893.042 1024.58 881.821 1013.73 874.749 997.221 863.981 977.307 858.532 958.049 855.333 933.766 851.302 908.71 850.964 884.303 854.105 864.065 856.709 843.312 861.646 825.372 871.673 810.817 879.805 794.464 894.883 802.266 913.253L814.405 959.944C814.639 960.804 817.539 970.762 827.529 981.85 823.683 992.514 824.509 1004.56 828.936 1014.9L841.853 1050.73 903.904 1110 918.183 1110 925.277 1110 940.265 1110 1001.59 1051.43 1002.32 1050.74 1017.14 1009.61 1017.02 1009.57C1021.75 993.332 1016.22 980.646 1015.8 979.737L1014.11 977.051C1021.64 968.21 1024.49 961.055 1024.76 960.329ZM1009.22 1006.76 1009.16 1006.74 1007.02 1012.65C1002.98 1021.44 994.913 1031.18 979.639 1040.44L979.57 1043.95C985.04 1040.63 994.111 1040.97 998.053 1037.52L995.002 1045.98 936.866 1101.52 928.916 1101.52 939.095 1077.89 948.287 1077.27 947.489 1073.82 942.081 1070.48 946.36 1060.39C951.641 1051.7 944.572 1048.28 935.597 1044.32L934.905 1045.88C936.955 1046.76 939.064 1048.54 939.979 1050.59 941.658 1054.38 937.822 1058.19 935.586 1060.82 932.287 1064.71 928.651 1068.32 924.891 1071.76 921.678 1074.71 918.837 1077.93 914.189 1075.51 908.892 1071.02 884.186 1051.6 899.879 1045.89L898.871 1043.6C896.037 1044.85 889.669 1042.18 887.488 1046.33 887.488 1046.33 875.713 1046.71 864.02 1040.13 860.467 1038.43 841.358 1021.62 837.292 1013.05L835.018 1006.74 834.918 1006.77C833.195 1000.74 833.257 995.413 833.852 991.33 833.766 993.153 834.02 994.994 835.063 996.215 843.955 1008.8 862.417 1014.73 876.552 1017.9 881.21 1018.94 904.575 1025.44 904.888 1015.22 905.015 1011.09 901.799 1006.91 899.181 1003.98 899.181 1003.98 895.4 1003.72 889.683 1003.08 833.68 994.502 823.033 959.242 822.61 957.759L815.1 928.88C827.402 938.578 842.758 944.25 857.767 948.165 878.063 953.463 899.205 955.527 920.151 955.279 940.643 955.042 961.297 952.582 981.008 946.858 995.594 942.627 1010.71 936.569 1022.09 926.211L1016.7 957.646C1015.1 961.34 999.182 994.808 945.098 1003.08 939.408 1003.72 935.638 1003.97 935.638 1003.97 933.017 1006.91 929.976 1011.35 932.387 1014.7 940.605 1026.1 958.744 1020.52 963.409 1019.47 977.537 1016.3 988.187 1010.06 997.083 997.471 998.445 995.874 1001.14 991.96 1000.8 989.669 1003.52 987.577 1005.96 985.462 1008.14 983.373 1009.01 985.32 1012.67 994.636 1009.22 1006.76Z" fill="#292929"/></g></g></g><g clip-path="url(#clip15)"><g clip-path="url(#clip16)"><g clip-path="url(#clip17)"><path d="M1046.98 851.749C1046.63 850.699 1042.43 839.612 1038.82 829.759 1035.68 822.326 1033.53 820.891 1028.67 820.891L1024.34 820.918 1020.01 820.891C1015.15 820.891 1013 822.326 1009.86 829.759 1006.25 839.612 1002.05 850.702 1001.7 851.749 1001.02 853.823 999.913 857.85 1002.86 858.959 1005.8 860.068 1007.14 857.558 1008.39 854.283 1009.65 851.004 1012.29 841.154 1014.52 835.407 1014.71 834.912 1014.93 834.435 1015.14 833.948 1015.23 833.968 1015.31 833.989 1015.39 834.009 1015.26 836.423 1015.05 845.25 1015 847.667 1014.72 858.489 1010.42 892.75 1009.19 899.922 1008.56 904.269 1009.46 906.405 1012.28 906.405 1015.11 906.405 1016.36 905.879 1017.23 901.406 1018.52 892.414 1020.95 873.602 1021.78 867.199 1021.95 865.823 1022.23 864.192 1024.34 864.175 1026.45 864.192 1026.73 865.823 1026.91 867.199 1027.73 873.602 1030.16 892.414 1031.45 901.406 1032.33 905.879 1033.57 906.405 1036.4 906.405 1039.22 906.405 1040.12 904.269 1039.5 899.922 1038.27 892.75 1033.96 858.489 1033.69 847.667 1033.62 845.253 1033.42 836.423 1033.29 834.009 1033.37 833.989 1033.46 833.968 1033.54 833.948 1033.75 834.435 1033.97 834.912 1034.16 835.407 1036.4 841.154 1039.03 851.004 1040.29 854.283 1041.55 857.558 1042.88 860.068 1045.82 858.959 1048.77 857.85 1047.66 853.823 1046.98 851.749Z" stroke="#FFFFFF" stroke-width="8.0111" fill="#C00000" fill-rule="evenodd"/><path d="M1024.49 818.772C1029.42 818.758 1033.65 814.357 1033.64 809.238 1033.63 804.187 1029.49 799.889 1024.54 799.796 1019.55 799.707 1015.19 804.167 1015.22 809.324 1015.24 814.422 1019.52 818.789 1024.49 818.772Z" stroke="#FFFFFF" stroke-width="8.0111" fill="#C00000" fill-rule="evenodd"/><path d="M986.186 829.759C983.042 822.326 980.892 820.891 976.034 820.891L971.701 820.918 967.372 820.891C962.514 820.891 960.364 822.326 957.219 829.759 953.614 839.612 949.415 850.702 949.065 851.749 948.379 853.823 947.276 857.85 950.219 858.959 953.161 860.068 954.5 857.558 955.753 854.283 957.007 851.004 959.647 841.154 961.882 835.407 962.074 834.912 962.294 834.435 962.5 833.948 962.586 833.968 962.672 833.989 962.754 834.009 962.617 836.423 962.417 845.25 962.356 847.667 962.078 858.489 957.779 892.75 956.546 899.922 955.925 904.269 956.818 906.405 959.643 906.405 962.469 906.405 963.712 905.879 964.587 901.406 965.875 892.414 968.309 873.602 969.136 867.199 969.312 865.823 969.59 864.192 971.698 864.175 973.806 864.192 974.084 865.823 974.262 867.199 975.086 873.602 977.521 892.414 978.812 901.406 979.687 905.879 980.93 906.405 983.759 906.405 986.588 906.405 987.477 904.269 986.856 899.922 985.627 892.75 981.325 858.489 981.05 847.667 980.988 845.253 980.786 836.423 980.648 834.009 980.734 833.989 980.817 833.968 980.903 833.948 981.109 834.435 981.328 834.912 981.521 835.407 983.756 841.154 986.392 851.004 987.649 854.283 988.906 857.558 990.245 860.068 993.187 858.959 996.129 857.854 995.027 853.823 994.341 851.749 993.994 850.699 989.795 839.612 986.186 829.759Z" stroke="#FFFFFF" stroke-width="8.0111" fill="#C00000" fill-rule="evenodd"/><path d="M962.579 809.324C962.603 814.422 966.888 818.786 971.849 818.772 976.786 818.758 981.009 814.357 981.002 809.238 980.995 804.187 976.851 799.889 971.9 799.796 966.915 799.707 962.555 804.167 962.579 809.324Z" stroke="#FFFFFF" stroke-width="8.0111" fill="#C00000" fill-rule="evenodd"/><path d="M933.55 829.759C930.405 822.326 928.256 820.891 923.398 820.891L919.065 820.918 914.735 820.891C909.881 820.891 907.728 822.326 904.583 829.759 900.978 839.612 896.779 850.702 896.429 851.749 895.742 853.823 894.64 857.85 897.582 858.959 900.525 860.068 901.864 857.558 903.117 854.283 904.374 851.004 907.01 841.154 909.245 835.407 909.438 834.912 909.657 834.435 909.863 833.948 909.949 833.968 910.032 833.989 910.117 834.009 909.98 836.423 909.781 845.25 909.719 847.667 909.441 858.489 905.143 892.75 903.913 899.922 903.292 904.269 904.181 906.405 907.01 906.405 909.839 906.405 911.079 905.879 911.954 901.406 913.242 892.414 915.676 873.602 916.503 867.199 916.679 865.823 916.957 864.192 919.065 864.175 921.173 864.192 921.451 865.823 921.629 867.199 922.453 873.602 924.888 892.414 926.175 901.406 927.051 905.879 928.294 906.405 931.123 906.405 933.952 906.405 934.841 904.269 934.219 899.922 932.99 892.75 928.688 858.489 928.414 847.667 928.352 845.253 928.149 836.423 928.012 834.009 928.098 833.989 928.18 833.968 928.266 833.948 928.472 834.435 928.695 834.912 928.884 835.407 931.116 841.154 933.756 851.004 935.013 854.283 936.266 857.558 937.605 860.068 940.547 858.959 943.49 857.854 942.391 853.823 941.701 851.749 941.357 850.699 937.158 839.612 933.55 829.759Z" stroke="#FFFFFF" stroke-width="8.0111" fill="#C00000" fill-rule="evenodd"/><path d="M919.212 818.772C924.15 818.758 928.373 814.357 928.366 809.238 928.359 804.187 924.215 799.889 919.264 799.796 914.279 799.707 909.915 804.163 909.942 809.324 909.97 814.422 914.251 818.789 919.212 818.772Z" stroke="#FFFFFF" stroke-width="8.0111" fill="#C00000" fill-rule="evenodd"/><path d="M880.914 829.759C877.769 822.326 875.619 820.891 870.761 820.891L866.432 820.918 862.102 820.891C857.244 820.891 855.091 822.326 851.95 829.759 848.341 839.612 844.146 850.702 843.796 851.749 843.109 853.823 842.007 857.85 844.949 858.959 847.892 860.068 849.231 857.558 850.484 854.283 851.741 851.004 854.377 841.154 856.612 835.407 856.805 834.912 857.024 834.435 857.23 833.948 857.316 833.968 857.399 833.989 857.484 834.009 857.347 836.423 857.148 845.25 857.086 847.667 856.808 858.489 852.51 892.75 851.28 899.922 850.659 904.269 851.548 906.405 854.377 906.405 857.206 906.405 858.449 905.879 859.325 901.406 860.612 892.414 863.047 873.602 863.87 867.199 864.049 865.823 864.324 864.192 866.435 864.175 868.543 864.192 868.821 865.823 869 867.199 869.824 873.602 872.258 892.414 873.546 901.406 874.425 905.879 875.664 906.405 878.493 906.405 881.322 906.405 882.211 904.269 881.59 899.922 880.361 892.75 876.059 858.489 875.784 847.667 875.722 845.253 875.52 836.423 875.386 834.009 875.468 833.989 875.554 833.968 875.64 833.948 875.846 834.435 876.069 834.912 876.258 835.407 878.493 841.154 881.13 851.004 882.386 854.283 883.643 857.558 884.979 860.068 887.921 858.959 890.863 857.854 889.765 853.823 889.075 851.749 888.721 850.699 884.522 839.612 880.914 829.759Z" stroke="#FFFFFF" stroke-width="8.0111" fill="#C00000" fill-rule="evenodd"/><path d="M866.576 818.772C871.513 818.758 875.736 814.357 875.729 809.238 875.722 804.187 871.578 799.889 866.627 799.796 861.642 799.707 857.279 804.163 857.306 809.324 857.333 814.422 861.615 818.789 866.576 818.772Z" stroke="#FFFFFF" stroke-width="8.0111" fill="#C00000" fill-rule="evenodd"/><path d="M828.281 829.759C825.136 822.326 822.983 820.891 818.128 820.891L813.795 820.918 809.466 820.891C804.608 820.891 802.455 822.326 799.314 829.759 795.705 839.612 791.51 850.702 791.159 851.749 790.469 853.823 789.371 857.85 792.313 858.959 795.255 860.068 796.594 857.558 797.847 854.283 799.104 851.004 801.741 841.154 803.976 835.407 804.168 834.912 804.388 834.435 804.594 833.948 804.68 833.968 804.762 833.989 804.848 834.009 804.711 836.423 804.508 845.25 804.446 847.667 804.168 858.489 799.87 892.75 798.641 899.922 798.019 904.269 798.908 906.405 801.737 906.405 804.567 906.405 805.809 905.879 806.685 901.406 807.972 892.414 810.407 873.602 811.231 867.199 811.409 865.823 811.684 864.192 813.795 864.175 815.903 864.192 816.181 865.823 816.36 867.199 817.184 873.602 819.618 892.414 820.909 901.406 821.785 905.879 823.028 906.405 825.853 906.405 828.679 906.405 829.571 904.269 828.95 899.922 827.721 892.75 823.422 858.489 823.144 847.667 823.082 845.253 822.88 836.423 822.746 834.009 822.828 833.989 822.914 833.968 823 833.948 823.21 834.435 823.429 834.912 823.618 835.407 825.853 841.154 828.49 851.004 829.747 854.283 831.003 857.558 832.339 860.068 835.281 858.959 838.224 857.854 837.125 853.823 836.435 851.749 836.085 850.699 831.886 839.612 828.281 829.759Z" stroke="#FFFFFF" stroke-width="8.0111" fill="#C00000" fill-rule="evenodd"/><path d="M813.94 818.772C818.877 818.758 823.1 814.357 823.093 809.238 823.086 804.187 818.942 799.889 813.991 799.796 809.006 799.707 804.642 804.163 804.673 809.324 804.697 814.422 808.978 818.789 813.94 818.772Z" stroke="#FFFFFF" stroke-width="8.0111" fill="#C00000" fill-rule="evenodd"/><path d="M845.725 796.322C846.113 796.871 847.167 796.359 847.167 795.419 847.164 791.295 843.779 787.786 839.734 787.711 835.666 787.639 832.102 791.278 832.126 795.491 832.129 796.411 833.283 796.71 833.753 796.095 835.168 794.234 837.362 793.015 839.734 793.056 842.172 793.101 844.362 794.399 845.725 796.322Z" stroke="#FFFFFF" stroke-width="8.0111" fill="#C00000" fill-rule="evenodd"/><path d="M898.358 796.322C898.746 796.871 899.804 796.359 899.8 795.419 899.797 791.295 896.412 787.786 892.367 787.711 888.295 787.639 884.735 791.278 884.759 795.491 884.762 796.411 885.916 796.71 886.386 796.095 887.801 794.234 889.995 793.015 892.367 793.056 894.808 793.101 896.999 794.399 898.358 796.322Z" stroke="#FFFFFF" stroke-width="8.0111" fill="#C00000" fill-rule="evenodd"/><path d="M950.995 796.322C951.383 796.871 952.44 796.359 952.437 795.419 952.433 791.295 949.048 787.786 945.004 787.711 940.932 787.639 937.371 791.278 937.395 795.491 937.399 796.411 938.552 796.71 939.023 796.095 940.437 794.234 942.635 793.015 945.007 793.056 947.445 793.101 949.635 794.399 950.995 796.322Z" stroke="#FFFFFF" stroke-width="8.0111" fill="#C00000" fill-rule="evenodd"/><path d="M1003.63 796.322C1004.02 796.871 1005.08 796.359 1005.07 795.419 1005.07 791.295 1001.68 787.786 997.64 787.711 993.568 787.639 990.008 791.278 990.028 795.491 990.032 796.411 991.185 796.71 991.656 796.095 993.07 794.234 995.268 793.015 997.64 793.056 1000.08 793.101 1002.27 794.399 1003.63 796.322Z" stroke="#FFFFFF" stroke-width="8.0111" fill="#C00000" fill-rule="evenodd"/><path d="M862.463 782.914C863.743 781.232 865.731 780.127 867.881 780.164 870.088 780.202 872.073 781.376 873.305 783.117 873.659 783.615 874.613 783.151 874.613 782.303 874.61 778.568 871.544 775.389 867.884 775.323 864.2 775.255 860.973 778.551 860.993 782.369 860.993 783.199 862.041 783.471 862.463 782.914Z" stroke="#FFFFFF" stroke-width="8.0111" fill="#C00000" fill-rule="evenodd"/><path d="M913.115 782.914C914.395 781.232 916.383 780.127 918.533 780.164 920.737 780.202 922.725 781.376 923.954 783.117 924.307 783.615 925.262 783.151 925.262 782.303 925.258 778.568 922.193 775.389 918.533 775.323 914.845 775.255 911.621 778.551 911.638 782.369 911.642 783.199 912.689 783.471 913.115 782.914Z" stroke="#FFFFFF" stroke-width="8.0111" fill="#C00000" fill-rule="evenodd"/><path d="M963.767 782.914C965.047 781.232 967.035 780.127 969.185 780.164 971.392 780.202 973.377 781.376 974.609 783.117 974.963 783.615 975.917 783.151 975.917 782.303 975.914 778.568 972.848 775.389 969.188 775.323 965.501 775.255 962.277 778.551 962.297 782.369 962.297 783.199 963.341 783.471 963.767 782.914Z" stroke="#FFFFFF" stroke-width="8.0111" fill="#C00000" fill-rule="evenodd"/><path d="M887.629 771.505C888.69 770.112 890.338 769.195 892.12 769.226 893.95 769.257 895.594 770.228 896.614 771.674 896.906 772.086 897.699 771.701 897.696 770.997 897.692 767.904 895.152 765.271 892.117 765.212 889.061 765.157 886.39 767.887 886.407 771.049 886.41 771.742 887.276 771.969 887.629 771.505Z" stroke="#FFFFFF" stroke-width="8.0111" fill="#C00000" fill-rule="evenodd"/><path d="M944.207 770.977C945.268 769.583 946.916 768.666 948.698 768.697 950.528 768.728 952.172 769.7 953.192 771.145 953.484 771.557 954.277 771.172 954.277 770.469 954.274 767.372 951.733 764.742 948.698 764.683 945.646 764.628 942.971 767.358 942.988 770.52 942.988 771.21 943.853 771.437 944.207 770.977Z" stroke="#FFFFFF" stroke-width="8.0111" fill="#C00000" fill-rule="evenodd"/></g></g></g><g clip-path="url(#clip18)"><g clip-path="url(#clip19)"><g clip-path="url(#clip20)"><path d="M280.977 167.749C280.63 166.699 276.431 155.612 272.823 145.759 269.678 138.326 267.525 136.89 262.671 136.89L258.338 136.918 254.008 136.89C249.15 136.89 247.001 138.326 243.856 145.759 240.251 155.612 236.052 166.702 235.702 167.749 235.015 169.823 233.913 173.85 236.855 174.959 239.798 176.068 241.137 173.558 242.393 170.283 243.647 167.004 246.287 157.154 248.522 151.407 248.714 150.912 248.934 150.435 249.14 149.947 249.226 149.968 249.312 149.989 249.394 150.009 249.257 152.423 249.054 161.25 248.996 163.667 248.718 174.489 244.419 208.75 243.186 215.922 242.565 220.269 243.458 222.404 246.283 222.404 249.112 222.404 250.355 221.879 251.231 217.406 252.518 208.414 254.952 189.602 255.78 183.199 255.955 181.822 256.233 180.192 258.341 180.174 260.449 180.192 260.727 181.822 260.906 183.199 261.73 189.602 264.164 208.414 265.455 217.406 266.331 221.879 267.573 222.404 270.399 222.404 273.225 222.404 274.117 220.269 273.496 215.922 272.267 208.75 267.965 174.489 267.687 163.667 267.625 161.253 267.422 152.423 267.288 150.009 267.371 149.989 267.457 149.968 267.543 149.947 267.749 150.435 267.968 150.912 268.161 151.407 270.396 157.154 273.032 167.004 274.289 170.283 275.546 173.558 276.881 176.068 279.824 174.959 282.766 173.85 281.664 169.823 280.977 167.749Z" fill="#292929" fill-rule="evenodd" transform="matrix(1 0 0 1.00324 765 684)"/><path d="M258.485 134.772C263.423 134.758 267.646 130.357 267.639 125.238 267.632 120.187 263.488 115.889 258.537 115.796 253.552 115.707 249.191 120.167 249.215 125.324 249.243 130.422 253.524 134.789 258.485 134.772Z" fill="#292929" fill-rule="evenodd" transform="matrix(1 0 0 1.00324 765 684)"/><path d="M220.187 145.759C217.042 138.326 214.892 136.89 210.034 136.89L205.701 136.918 201.372 136.89C196.514 136.89 194.364 138.326 191.22 145.759 187.615 155.612 183.416 166.702 183.065 167.749 182.379 169.823 181.277 173.85 184.219 174.959 187.161 176.068 188.5 173.558 189.753 170.283 191.007 167.004 193.647 157.154 195.882 151.407 196.074 150.912 196.294 150.435 196.5 149.947 196.586 149.968 196.672 149.989 196.754 150.009 196.617 152.423 196.418 161.25 196.356 163.667 196.078 174.489 191.779 208.75 190.547 215.922 189.925 220.269 190.818 222.404 193.643 222.404 196.469 222.404 197.712 221.879 198.587 217.406 199.875 208.414 202.309 189.602 203.137 183.199 203.312 181.822 203.59 180.192 205.698 180.174 207.806 180.192 208.084 181.822 208.263 183.199 209.087 189.602 211.521 208.414 212.812 217.406 213.687 221.879 214.93 222.404 217.759 222.404 220.588 222.404 221.477 220.269 220.856 215.922 219.627 208.75 215.325 174.489 215.05 163.667 214.988 161.253 214.786 152.423 214.649 150.009 214.734 149.989 214.817 149.968 214.903 149.947 215.109 150.435 215.328 150.912 215.521 151.407 217.756 157.154 220.393 167.004 221.649 170.283 222.906 173.558 224.245 176.068 227.187 174.959 230.129 173.854 229.027 169.823 228.341 167.749 227.994 166.699 223.795 155.612 220.187 145.759Z" fill="#292929" fill-rule="evenodd" transform="matrix(1 0 0 1.00324 765 684)"/><path d="M196.579 125.324C196.603 130.422 200.888 134.786 205.849 134.772 210.786 134.758 215.009 130.357 215.002 125.238 214.995 120.187 210.851 115.889 205.9 115.796 200.915 115.707 196.555 120.167 196.579 125.324Z" fill="#292929" fill-rule="evenodd" transform="matrix(1 0 0 1.00324 765 684)"/><path d="M167.55 145.759C164.405 138.326 162.256 136.89 157.398 136.89L153.065 136.918 148.735 136.89C143.881 136.89 141.728 138.326 138.583 145.759 134.978 155.612 130.779 166.702 130.429 167.749 129.742 169.823 128.64 173.85 131.583 174.959 134.525 176.068 135.864 173.558 137.117 170.283 138.374 167.004 141.01 157.154 143.246 151.407 143.438 150.912 143.658 150.435 143.864 149.947 143.949 149.968 144.032 149.989 144.118 150.009 143.98 152.423 143.781 161.25 143.719 163.667 143.441 174.489 139.143 208.75 137.914 215.922 137.292 220.269 138.181 222.404 141.01 222.404 143.84 222.404 145.079 221.879 145.954 217.406 147.242 208.414 149.676 189.602 150.504 183.199 150.679 181.822 150.957 180.192 153.065 180.174 155.173 180.192 155.451 181.822 155.63 183.199 156.454 189.602 158.888 208.414 160.175 217.406 161.051 221.879 162.294 222.404 165.123 222.404 167.952 222.404 168.841 220.269 168.22 215.922 166.99 208.75 162.689 174.489 162.414 163.667 162.352 161.253 162.149 152.423 162.012 150.009 162.098 149.989 162.18 149.968 162.266 149.947 162.472 150.435 162.695 150.912 162.884 151.407 165.116 157.154 167.756 167.004 169.013 170.283 170.266 173.558 171.605 176.068 174.547 174.959 177.49 173.854 176.391 169.823 175.701 167.749 175.358 166.699 171.159 155.612 167.55 145.759Z" fill="#292929" fill-rule="evenodd" transform="matrix(1 0 0 1.00324 765 684)"/><path d="M153.213 134.772C158.15 134.758 162.373 130.357 162.366 125.238 162.359 120.187 158.215 115.889 153.264 115.796 148.279 115.707 143.915 120.163 143.943 125.324 143.97 130.422 148.251 134.789 153.213 134.772Z" fill="#292929" fill-rule="evenodd" transform="matrix(1 0 0 1.00324 765 684)"/><path d="M114.914 145.759C111.769 138.326 109.619 136.89 104.761 136.89L100.432 136.918 96.1024 136.89C91.2443 136.89 89.0916 138.326 85.9501 145.759 82.3416 155.612 78.1461 166.702 77.7959 167.749 77.1092 169.823 76.0071 173.85 78.9495 174.959 81.8919 176.068 83.2309 173.558 84.484 170.283 85.7406 167.004 88.3774 157.154 90.6125 151.407 90.8048 150.912 91.0245 150.435 91.2305 149.947 91.3164 149.968 91.3988 149.989 91.4846 150.009 91.3473 152.423 91.1481 161.25 91.0863 163.667 90.8082 174.489 86.5097 208.75 85.2806 215.922 84.6591 220.269 85.5484 222.404 88.3774 222.404 91.2065 222.404 92.4494 221.879 93.3249 217.406 94.6124 208.414 97.0466 189.602 97.8706 183.199 98.0491 181.822 98.3238 180.192 100.435 180.174 102.543 180.192 102.821 181.822 103 183.199 103.824 189.602 106.258 208.414 107.546 217.406 108.425 221.879 109.664 222.404 112.493 222.404 115.322 222.404 116.211 220.269 115.59 215.922 114.361 208.75 110.059 174.489 109.784 163.667 109.722 161.253 109.52 152.423 109.386 150.009 109.468 149.989 109.554 149.968 109.64 149.947 109.846 150.435 110.069 150.912 110.258 151.407 112.493 157.154 115.13 167.004 116.387 170.283 117.643 173.558 118.979 176.068 121.921 174.959 124.863 173.854 123.765 169.823 123.075 167.749 122.721 166.699 118.522 155.612 114.914 145.759Z" fill="#292929" fill-rule="evenodd" transform="matrix(1 0 0 1.00324 765 684)"/><path d="M100.576 134.772C105.513 134.758 109.736 130.357 109.729 125.238 109.722 120.187 105.578 115.889 100.628 115.796 95.6424 115.707 91.2786 120.163 91.3061 125.324 91.3335 130.422 95.6149 134.789 100.576 134.772Z" fill="#292929" fill-rule="evenodd" transform="matrix(1 0 0 1.00324 765 684)"/><path d="M62.2807 145.759C59.1357 138.326 56.983 136.89 52.1283 136.89L47.7954 136.918 43.466 136.89C38.6078 136.89 36.4551 138.326 33.3136 145.759 29.7052 155.612 25.5097 166.702 25.1595 167.749 24.4694 169.823 23.3707 173.85 26.3131 174.959 29.2554 176.068 30.5944 173.558 31.8476 170.283 33.1042 167.004 35.741 157.154 37.9761 151.407 38.1684 150.912 38.3881 150.435 38.5941 149.947 38.6799 149.968 38.7623 149.989 38.8482 150.009 38.7108 152.423 38.5083 161.25 38.4465 163.667 38.1684 174.489 33.8698 208.75 32.6407 215.922 32.0193 220.269 32.9085 222.404 35.7376 222.404 38.5666 222.404 39.8095 221.879 40.685 217.406 41.9725 208.414 44.4067 189.602 45.2307 183.199 45.4093 181.822 45.6839 180.192 47.7954 180.174 49.9035 180.192 50.1816 181.822 50.3601 183.199 51.1841 189.602 53.6184 208.414 54.9093 217.406 55.7848 221.879 57.0277 222.404 59.8533 222.404 62.6789 222.404 63.5716 220.269 62.9502 215.922 61.721 208.75 57.4225 174.489 57.1444 163.667 57.0826 161.253 56.88 152.423 56.7461 150.009 56.8285 149.989 56.9144 149.968 57.0002 149.947 57.2096 150.435 57.4294 150.912 57.6182 151.407 59.8533 157.154 62.4901 167.004 63.7467 170.283 65.0033 173.558 66.3389 176.068 69.2812 174.959 72.2236 173.854 71.1249 169.823 70.4348 167.749 70.0846 166.699 65.8857 155.612 62.2807 145.759Z" fill="#292929" fill-rule="evenodd" transform="matrix(1 0 0 1.00324 765 684)"/><path d="M47.9396 134.772C52.8768 134.758 57.0998 130.357 57.0929 125.238 57.086 120.187 52.942 115.889 47.9911 115.796 43.0059 115.707 38.6422 120.163 38.6731 125.324 38.6971 130.422 42.9785 134.789 47.9396 134.772Z" fill="#292929" fill-rule="evenodd" transform="matrix(1 0 0 1.00324 765 684)"/><path d="M79.7254 112.322C80.1134 112.871 81.1674 112.359 81.1674 111.419 81.164 107.295 77.7787 103.786 73.7343 103.711 69.6658 103.639 66.102 107.278 66.126 111.491 66.1294 112.411 67.283 112.709 67.7534 112.095 69.1679 110.234 71.3618 109.015 73.7343 109.056 76.1719 109.101 78.3624 110.399 79.7254 112.322Z" fill="#292929" fill-rule="evenodd" transform="matrix(1 0 0 1.00324 765 684)"/><path d="M132.358 112.322C132.746 112.871 133.804 112.359 133.8 111.419 133.797 107.295 130.412 103.786 126.367 103.711 122.295 103.639 118.735 107.278 118.759 111.491 118.762 112.411 119.916 112.709 120.386 112.095 121.801 110.234 123.995 109.015 126.367 109.056 128.808 109.101 130.999 110.399 132.358 112.322Z" fill="#292929" fill-rule="evenodd" transform="matrix(1 0 0 1.00324 765 684)"/><path d="M184.995 112.322C185.383 112.871 186.44 112.359 186.437 111.419 186.433 107.295 183.048 103.786 179.004 103.711 174.932 103.639 171.371 107.278 171.395 111.491 171.399 112.411 172.552 112.709 173.023 112.095 174.437 110.234 176.635 109.015 179.007 109.056 181.445 109.101 183.635 110.399 184.995 112.322Z" fill="#292929" fill-rule="evenodd" transform="matrix(1 0 0 1.00324 765 684)"/><path d="M237.631 112.322C238.019 112.871 239.077 112.359 239.073 111.419 239.066 107.295 235.685 103.786 231.64 103.711 227.568 103.639 224.008 107.278 224.028 111.491 224.032 112.411 225.185 112.709 225.656 112.095 227.07 110.234 229.268 109.015 231.64 109.056 234.081 109.101 236.272 110.399 237.631 112.322Z" fill="#292929" fill-rule="evenodd" transform="matrix(1 0 0 1.00324 765 684)"/><path d="M96.4629 98.9143C97.7436 97.232 99.7315 96.1265 101.881 96.1642 104.088 96.202 106.073 97.3762 107.305 99.1169 107.659 99.6147 108.614 99.1512 108.614 98.3032 108.61 94.5677 105.544 91.3885 101.884 91.3232 98.2002 91.2546 94.9729 94.5506 94.9935 98.3684 94.9935 99.1993 96.0406 99.4705 96.4629 98.9143Z" fill="#292929" fill-rule="evenodd" transform="matrix(1 0 0 1.00324 765 684)"/><path d="M147.115 98.9143C148.396 97.232 150.383 96.1265 152.533 96.1642 154.737 96.202 156.725 97.3762 157.954 99.1169 158.308 99.6147 159.262 99.1512 159.262 98.3032 159.259 94.5677 156.193 91.3885 152.533 91.3232 148.845 91.2546 145.621 94.5506 145.639 98.3684 145.642 99.1993 146.689 99.4705 147.115 98.9143Z" fill="#292929" fill-rule="evenodd" transform="matrix(1 0 0 1.00324 765 684)"/><path d="M197.767 98.9143C199.048 97.232 201.035 96.1265 203.185 96.1642 205.392 96.202 207.377 97.3762 208.609 99.1169 208.963 99.6147 209.917 99.1512 209.917 98.3032 209.914 94.5677 206.848 91.3885 203.188 91.3232 199.501 91.2546 196.277 94.5506 196.297 98.3684 196.297 99.1993 197.341 99.4705 197.767 98.9143Z" fill="#292929" fill-rule="evenodd" transform="matrix(1 0 0 1.00324 765 684)"/><path d="M121.629 87.5054C122.69 86.1114 124.338 85.1947 126.12 85.2256 127.95 85.2565 129.595 86.2282 130.614 87.6736 130.906 88.0856 131.699 87.7011 131.696 86.9972 131.692 83.9038 129.152 81.2704 126.117 81.2121 123.061 81.1571 120.39 83.8866 120.407 87.0487 120.41 87.7423 121.276 87.9689 121.629 87.5054Z" fill="#292929" fill-rule="evenodd" transform="matrix(1 0 0 1.00324 765 684)"/><path d="M178.207 86.9766C179.268 85.5827 180.916 84.666 182.698 84.6969 184.528 84.7278 186.173 85.6994 187.192 87.1449 187.484 87.5569 188.277 87.1723 188.277 86.4685 188.274 83.3716 185.733 80.7417 182.698 80.6833 179.646 80.6284 176.971 83.3579 176.988 86.52 176.988 87.2101 177.854 87.4367 178.207 86.9766Z" fill="#292929" fill-rule="evenodd" transform="matrix(1 0 0 1.00324 765 684)"/></g></g></g></g></svg>