<svg width="550" height="550" xmlns="http://www.w3.org/2000/svg" xmlns:xlink="http://www.w3.org/1999/xlink" overflow="hidden"><defs><clipPath id="clip0"><rect x="1239" y="41" width="550" height="550"/></clipPath><radialGradient cx="762000" cy="762000" r="1.07763e+06" gradientUnits="userSpaceOnUse" spreadMethod="pad" id="fill1" gradientTransform="matrix(0.000360892 0 0 0.000360892 1239 40.9999)"><stop offset="0" stop-color="#D9D9D9"/><stop offset="0.17" stop-color="#D9D9D9"/><stop offset="0.33" stop-color="#7F7F7F"/><stop offset="1" stop-color="#0F1113"/></radialGradient><radialGradient cx="256309" cy="281248" r="380519" fx="256310" gradientUnits="userSpaceOnUse" spreadMethod="pad" id="fill2" gradientTransform="matrix(0.000360892 0 0 0.000360892 1261 54)"><stop offset="0" stop-color="#FFFFFF"/><stop offset="0.54" stop-color="#7F7F7F" stop-opacity="0"/><stop offset="1" stop-color="#7F7F7F" stop-opacity="0"/></radialGradient><linearGradient x1="1512" y1="47.0001" x2="1512" y2="201" gradientUnits="userSpaceOnUse" spreadMethod="reflect" id="fill3"><stop offset="0" stop-color="#F5FAFF" stop-opacity="0.231373"/><stop offset="0.32" stop-color="#FFFFFF" stop-opacity="0"/><stop offset="1" stop-color="#FFFFFF" stop-opacity="0"/></linearGradient><radialGradient cx="94211" cy="101138" r="138220" gradientUnits="userSpaceOnUse" spreadMethod="pad" id="fill4" gradientTransform="matrix(0.000360892 0 0 0.000360892 1250 105)"><stop offset="0" stop-color="#FFFFFF"/><stop offset="0.54" stop-color="#7F7F7F" stop-opacity="0"/><stop offset="1" stop-color="#7F7F7F" stop-opacity="0"/></radialGradient><radialGradient cx="112222" cy="120534" r="164688" gradientUnits="userSpaceOnUse" spreadMethod="pad" id="fill5" gradientTransform="matrix(0.000360892 0 0 0.000360892 1278 150)"><stop offset="0" stop-color="#FFFFFF"/><stop offset="0.54" stop-color="#7F7F7F" stop-opacity="0"/><stop offset="1" stop-color="#7F7F7F" stop-opacity="0"/></radialGradient><radialGradient cx="293716" cy="278476" r="404745" gradientUnits="userSpaceOnUse" spreadMethod="pad" id="fill6" gradientTransform="matrix(0.000360892 0 0 0.000360892 1568 368)"><stop offset="0" stop-color="#FFFFFF"/><stop offset="0.54" stop-color="#7F7F7F" stop-opacity="0"/><stop offset="1" stop-color="#7F7F7F" stop-opacity="0"/></radialGradient><radialGradient cx="72043.5" cy="77585.5" r="105876" fx="72043.5" fy="77585.5" gradientUnits="userSpaceOnUse" spreadMethod="pad" id="fill7" gradientTransform="matrix(0.000360892 0 0 0.000360892 1714 496)"><stop offset="0" stop-color="#FFFFFF"/><stop offset="0.54" stop-color="#7F7F7F" stop-opacity="0"/><stop offset="1" stop-color="#7F7F7F" stop-opacity="0"/></radialGradient><radialGradient cx="77585.5" cy="84513" r="114726" fx="77585.5" fy="84513" gradientUnits="userSpaceOnUse" spreadMethod="pad" id="fill8" gradientTransform="matrix(0.000360892 0 0 0.000360892 1698 413)"><stop offset="0" stop-color="#FFFFFF"/><stop offset="0.54" stop-color="#7F7F7F" stop-opacity="0"/><stop offset="1" stop-color="#7F7F7F" stop-opacity="0"/></radialGradient><clipPath id="clip9"><rect x="1251" y="55" width="527" height="526"/></clipPath><clipPath id="clip10"><rect x="1251" y="55" width="527" height="526"/></clipPath><clipPath id="clip11"><rect x="1251" y="55" width="527" height="526"/></clipPath><clipPath id="clip12"><rect x="1355" y="119" width="302" height="304"/></clipPath><clipPath id="clip13"><rect x="1355" y="119" width="302" height="304"/></clipPath><clipPath id="clip14"><rect x="1355" y="119" width="302" height="304"/></clipPath><clipPath id="clip15"><rect x="1375" y="319" width="257" height="258"/></clipPath><clipPath id="clip16"><rect x="1375" y="319" width="257" height="258"/></clipPath><clipPath id="clip17"><rect x="1375" y="319" width="257" height="258"/></clipPath></defs><g clip-path="url(#clip0)" transform="translate(-1239 -41)"><rect x="1239" y="40.9999" width="550" height="550" fill="url(#fill1)"/><path d="M1261 155.5C1261 99.4431 1302.41 54 1353.5 54 1404.59 54 1446 99.4431 1446 155.5 1446 211.557 1404.59 257 1353.5 257 1302.41 257 1261 211.557 1261 155.5Z" fill="url(#fill2)" fill-rule="evenodd"/><path d="M1272.79 47.0001 1751.21 47.0001C1767.11 47.0001 1780 66.864 1780 91.3678L1780 201C1780 162.824 1759.92 131.876 1735.15 131.876L1288.85 131.876C1264.08 131.876 1244 162.824 1244 201L1244 91.3678C1244 66.864 1256.89 47.0001 1272.79 47.0001Z" fill="url(#fill3)" fill-rule="evenodd"/><path d="M1250 141.5C1250 121.341 1265.22 105 1284 105 1302.78 105 1318 121.341 1318 141.5 1318 161.658 1302.78 178 1284 178 1265.22 178 1250 161.658 1250 141.5Z" fill="url(#fill4)" fill-rule="evenodd"/><path d="M1278 193.5C1278 169.475 1296.13 150 1318.5 150 1340.87 150 1359 169.475 1359 193.5 1359 217.524 1340.87 237 1318.5 237 1296.13 237 1278 217.524 1278 193.5Z" fill="url(#fill5)" fill-rule="evenodd"/><path d="M1568 468.5C1568 412.995 1615.46 368 1674 368 1732.54 368 1780 412.995 1780 468.5 1780 524.005 1732.54 569 1674 569 1615.46 569 1568 524.005 1568 468.5Z" fill="url(#fill6)" fill-rule="evenodd"/><path d="M1714 524C1714 508.536 1725.64 496 1740 496 1754.36 496 1766 508.536 1766 524 1766 539.464 1754.36 552 1740 552 1725.64 552 1714 539.464 1714 524Z" fill="url(#fill7)" fill-rule="evenodd"/><path d="M1698 443.5C1698 426.655 1710.54 413 1726 413 1741.46 413 1754 426.655 1754 443.5 1754 460.345 1741.46 474 1726 474 1710.54 474 1698 460.345 1698 443.5Z" fill="url(#fill8)" fill-rule="evenodd"/><g clip-path="url(#clip9)"><g clip-path="url(#clip10)"><g clip-path="url(#clip11)"><path d="M1450.53 301.808 1421.29 508.938C1420.62 513.746 1416.9 517.556 1412.11 518.353 1407.33 519.151 1402.57 516.762 1400.37 512.44L1326.08 366.739C1324.04 362.731 1323.01 358.281 1323.07 353.789L1326.06 155.075C1326.11 151.331 1328.5 148.028 1332.04 146.787 1335.57 145.545 1339.49 146.66 1341.87 149.564L1442.32 272.407C1449.04 280.634 1452.02 291.289 1450.53 301.809ZM1447.38 265.241C1454.51 273.962 1465.78 278.191 1476.88 276.319L1726.54 234.334C1729.88 233.776 1732.53 231.241 1733.26 227.949 1733.97 224.646 1732.61 221.247 1729.82 219.354L1580.61 118.34C1576.95 115.857 1572.59 114.616 1568.16 114.806L1352.37 123.958C1348.6 124.115 1345.25 126.397 1343.7 129.827 1342.17 133.267 1342.7 137.286 1345.09 140.21ZM1741.62 246.052C1739.32 243.191 1735.66 241.792 1732.03 242.402L1488.59 283.345C1472.72 286.018 1460.41 298.662 1458.15 314.59L1429.16 519.625C1428.36 525.275 1430.58 530.933 1435 534.541 1439.43 538.14 1445.44 539.148 1450.81 537.215L1653.15 464.122C1657.49 462.555 1660.97 459.21 1662.7 454.917L1743.12 256.216C1744.48 252.797 1743.92 248.916 1741.62 246.054Z" fill="#FFFFFF"/></g></g></g><g clip-path="url(#clip12)"><g clip-path="url(#clip13)"><g clip-path="url(#clip14)"><text fill="#292929" font-family="Arial,Arial_MSFontService,sans-serif" font-weight="400" font-size="10" transform="matrix(4.71875 0 0 4.71875 1424.32 -885)">heart<tspan font-size="10" x="4.30001" y="12.0795">r</tspan><tspan font-size="10" x="11.53" y="12.0795">a</tspan><tspan font-size="10" x="18.12" y="12.0795">te</tspan><tspan font-size="10" x="103.58" y="0">tea</tspan><tspan font-size="10" x="85.5411" y="96">checklist</tspan><tspan font-size="10" x="186.785" y="0">pr</tspan><tspan font-size="10" x="200.725" y="0">o</tspan><tspan font-size="10" x="208.735" y="0">tein</tspan><tspan font-size="10" x="171.98" y="12.0795">supplements</tspan><tspan font-size="10" x="278.41" y="0">Weighing</tspan><tspan font-size="10" x="286.16" y="12.0795">s</tspan><tspan font-size="10" x="292.32" y="12.0795">c</tspan><tspan font-size="10" x="299.27" y="12.0795">ales</tspan><tspan font-size="10" x="378.785" y="0">pr</tspan><tspan font-size="10" x="392.725" y="0">o</tspan><tspan font-size="10" x="400.735" y="0">tein</tspan><tspan font-size="10" x="383.835" y="12.0795">shake</tspan><tspan font-size="10" x="480.365" y="0">Sport</tspan><tspan font-size="10" x="478.945" y="12.0795">w</tspan><tspan font-size="10" x="488.935" y="12.0795">a</tspan><tspan font-size="10" x="495.525" y="12.0795">t</tspan><tspan font-size="10" x="500.755" y="12.0795">ch</tspan><tspan font-size="10" x="-6.9047" y="96">vi</tspan><tspan font-size="10" x="2.8153" y="96">t</tspan><tspan font-size="10" x="7.8153" y="96">amins</tspan><tspan font-size="10" x="191.305" y="96">W</tspan><tspan font-size="10" x="201.295" y="96">a</tspan><tspan font-size="10" x="207.885" y="96">ter</tspan><tspan font-size="10" x="190.19" y="108.079">B</tspan><tspan font-size="10" x="197.31" y="108.079">o</tspan><tspan font-size="10" x="205.32" y="108.079">ttle</tspan><tspan font-size="10" x="275.956" y="96">dumbbell</tspan><tspan font-size="10" x="281.701" y="108.079">weights</tspan><tspan font-size="10" x="370.891" y="96">kettlebell</tspan><tspan font-size="10" x="472.74" y="96">running</tspan><tspan font-size="10" x="3.10009" y="192">meal</tspan><tspan font-size="10" x="101.815" y="192">diet</tspan><tspan font-size="10" x="185.24" y="192">Electric</tspan><tspan font-size="10" x="180.635" y="204.079">treadmill</tspan><tspan font-size="10" x="278.355" y="192">W</tspan><tspan font-size="10" x="288.675" y="192">or</tspan><tspan font-size="10" x="304.025" y="192">k</tspan><tspan font-size="10" x="310.855" y="192">out</tspan><tspan font-size="10" x="277.895" y="204.079">Schedule</tspan><tspan font-size="10" x="386.645" y="192">bo</tspan><tspan font-size="10" x="401.885" y="192">d</tspan><tspan font-size="10" x="409.675" y="192">y</tspan><tspan font-size="10" x="384.015" y="204.079">shape</tspan><tspan font-size="10" x="476.78" y="192">weight</tspan><tspan font-size="10" x="472.575" y="204.079">training</tspan><tspan font-size="10" x="-14.1845" y="288">medi</tspan><tspan font-size="10" x="12.5255" y="288">ta</tspan><tspan font-size="10" x="24.1155" y="288">tion</tspan><tspan font-size="10" x="78.9405" y="288">brain</tspan><tspan font-size="10" x="111.451" y="288">wa</tspan><tspan font-size="10" x="128.23" y="288">ves</tspan><tspan font-size="10" x="192.225" y="288">fl</tspan><tspan font-size="10" x="203.145" y="288">o</tspan><tspan font-size="10" x="211.045" y="288">or</tspan><tspan font-size="10" x="195.7" y="300.079">p</tspan><tspan font-size="10" x="202.41" y="300.079">l</tspan><tspan font-size="10" x="207.72" y="300.079">an</tspan><tspan font-size="10" x="289.325" y="288">home</tspan><tspan font-size="10" x="291.115" y="300.079">l</tspan><tspan font-size="10" x="296.355" y="300.079">o</tspan><tspan font-size="10" x="304.305" y="300.079">an</tspan><tspan font-size="10" x="366.61" y="288">house price</tspan><tspan font-size="10" x="377.895" y="300.079">gr</tspan><tspan font-size="10" x="392.634" y="300.079">o</tspan><tspan font-size="10" x="400.665" y="300.079">wth</tspan><tspan font-size="10" x="481.325" y="288">home</tspan><tspan font-size="10" x="463.66" y="300.079">ren</tspan><tspan font-size="10" x="485.36" y="300.079">o</tspan><tspan font-size="10" x="493.39" y="300.079">v</tspan><tspan font-size="10" x="499.68" y="300.079">a</tspan><tspan font-size="10" x="506.27" y="300.079">tion</tspan><tspan font-size="10" x="1.3252" y="384">home</tspan><tspan font-size="10" x="-13.0048" y="396.079">insurance</tspan><tspan font-size="10" x="92.2801" y="384">bu</tspan><tspan font-size="10" x="107.02" y="384">d</tspan><tspan font-size="10" x="114.63" y="384">get</tspan><tspan font-size="10" x="95.1301" y="396.079">house</tspan><tspan font-size="10" x="192.27" y="384">so</tspan><tspan font-size="10" x="206.55" y="384">l</tspan><tspan font-size="10" x="211.86" y="384">ar</tspan><tspan font-size="10" x="189.595" y="396.079">p</tspan><tspan font-size="10" x="195.895" y="396.079">anels</tspan><tspan font-size="10" x="281.19" y="384">housing</tspan><tspan font-size="10" x="275.485" y="396.079">do</tspan><tspan font-size="10" x="290.995" y="396.079">cument</tspan><tspan font-size="10" x="377.19" y="384">housing</tspan><tspan font-size="10" x="387.7" y="396.079">p</tspan><tspan font-size="10" x="394.41" y="396.079">l</tspan><tspan font-size="10" x="399.719" y="396.079">an</tspan><tspan font-size="10" x="479.13" y="384">house</tspan><tspan font-size="10" x="479.94" y="396.079">a</tspan><tspan font-size="10" x="487.03" y="396.079">gent</tspan><tspan font-size="10" x="-10.7099" y="480">grad</tspan><tspan font-size="10" x="19.1201" y="480">u</tspan><tspan font-size="10" x="26.5401" y="480">a</tspan><tspan font-size="10" x="33.1301" y="480">te</tspan><tspan font-size="10" x="86.7251" y="480">engineer</tspan><tspan font-size="10" x="195.745" y="480">chef</tspan><tspan font-size="10" x="289.325" y="480">home</tspan><tspan font-size="10" x="284.015" y="492.079">m</tspan><tspan font-size="10" x="293.405" y="492.079">o</tspan><tspan font-size="10" x="301.435" y="492.079">ving</tspan><tspan font-size="10" x="383.13" y="480">house</tspan><tspan font-size="10" x="375.8" y="492.079">for rent</tspan><tspan font-size="10" x="479.13" y="480">house</tspan><tspan font-size="10" x="466.32" y="492.079">inspection</tspan></text><path d="M221.781 245.375 250.094 245.375C255.308 245.375 259.531 241.152 259.531 235.937 259.531 230.723 255.308 226.5 250.094 226.5L235.937 226.5 217.062 193.469 217.062 141.562C217.062 133.743 210.725 127.406 202.906 127.406L188.939 205.619 221.781 245.375Z" fill="#292929" transform="matrix(1 0 0 1 1355 120)"/><path d="M84.9374 141.562 84.9374 193.469 66.0625 226.5 51.9062 226.5C46.692 226.5 42.4687 230.723 42.4687 235.937 42.4687 241.152 46.692 245.375 51.9062 245.375L80.2187 245.375 113.061 205.619 99.0937 127.406C91.2747 127.406 84.9374 133.743 84.9374 141.562Z" fill="#292929" transform="matrix(1 0 0 1 1355 120)"/><path d="M283.125 18.875 292.562 18.875 292.562 28.3125 283.125 28.3125Z" fill="#292929" transform="matrix(1 0 0 1 1355 120)"/><path d="M273.687 9.43749 283.125 9.43749 283.125 18.875 273.687 18.875Z" fill="#292929" transform="matrix(1 0 0 1 1355 120)"/><path d="M264.25 18.875 273.687 18.875 273.687 28.3125 264.25 28.3125Z" fill="#292929" transform="matrix(1 0 0 1 1355 120)"/><path d="M273.687 28.3125 283.125 28.3125 283.125 37.75 273.687 37.75Z" fill="#292929" transform="matrix(1 0 0 1 1355 120)"/><path d="M245.375 18.875 254.812 18.875 254.812 28.3125 245.375 28.3125Z" fill="#292929" transform="matrix(1 0 0 1 1355 120)"/><path d="M235.937 113.25 245.375 113.25 245.375 122.687 235.937 122.687Z" fill="#292929" transform="matrix(1 0 0 1 1355 120)"/><path d="M254.812 113.25 264.25 113.25 264.25 122.687 254.812 122.687Z" fill="#292929" transform="matrix(1 0 0 1 1355 120)"/><path d="M245.375 103.812 254.812 103.812 254.812 113.25 245.375 113.25Z" fill="#292929" transform="matrix(1 0 0 1 1355 120)"/><path d="M245.375 122.687 254.812 122.687 254.812 132.125 245.375 132.125Z" fill="#292929" transform="matrix(1 0 0 1 1355 120)"/><path d="M61.3437 99.0937 70.7812 99.0937 70.7812 108.531 61.3437 108.531Z" fill="#292929" transform="matrix(1 0 0 1 1355 120)"/><path d="M51.9062 89.6562 61.3437 89.6562 61.3437 99.0937 51.9062 99.0937Z" fill="#292929" transform="matrix(1 0 0 1 1355 120)"/><path d="M42.4687 99.0937 51.9062 99.0937 51.9062 108.531 42.4687 108.531Z" fill="#292929" transform="matrix(1 0 0 1 1355 120)"/><path d="M51.9062 108.531 61.3437 108.531 61.3437 117.969 51.9062 117.969Z" fill="#292929" transform="matrix(1 0 0 1 1355 120)"/><path d="M23.5937 99.0937 33.0312 99.0937 33.0312 108.531 23.5937 108.531Z" fill="#292929" transform="matrix(1 0 0 1 1355 120)"/><path d="M9.43749 37.75 18.875 37.75 18.875 47.1875 9.43749 47.1875Z" fill="#292929" transform="matrix(1 0 0 1 1355 120)"/><path d="M28.3125 37.75 37.75 37.75 37.75 47.1875 28.3125 47.1875Z" fill="#292929" transform="matrix(1 0 0 1 1355 120)"/><path d="M18.875 28.3125 28.3125 28.3125 28.3125 37.75 18.875 37.75Z" fill="#292929" transform="matrix(1 0 0 1 1355 120)"/><path d="M18.875 47.1875 28.3125 47.1875 28.3125 56.625 18.875 56.625Z" fill="#292929" transform="matrix(1 0 0 1 1355 120)"/><path d="M75.5 9.43749 84.9374 9.43749 84.9374 18.875 75.5 18.875Z" fill="#292929" transform="matrix(1 0 0 1 1355 120)"/><path d="M141.562 107.224 141.562 127.406C141.562 130.016 139.448 132.125 136.844 132.125L127.406 132.125 127.406 138.16 151 146.026 174.594 138.16 174.594 132.125 165.156 132.125C162.551 132.125 160.437 130.016 160.437 127.406L160.437 107.224C154.081 108.965 147.919 108.965 141.562 107.224Z" fill="#292929" transform="matrix(1 0 0 1 1355 120)"/><path d="M175.627 217.062 196.861 132.125 184.031 132.125 184.031 141.562C184.031 143.596 182.733 145.399 180.804 146.036L152.491 155.473C152.005 155.634 151.505 155.719 151 155.719 150.495 155.719 149.995 155.634 149.509 155.473L121.196 146.036C119.266 145.399 117.969 143.596 117.969 141.562L117.969 132.125 105.138 132.125 126.373 217.062 175.627 217.062Z" fill="#292929" transform="matrix(1 0 0 1 1355 120)"/><path d="M186.122 70.7812 184.031 70.7812C169.068 70.7812 156.398 60.7822 152.349 47.1073 141.303 56.021 128.095 62.1223 114.128 64.7223 117.001 78.3548 126.783 90.548 138.292 96.0265 138.467 96.0831 138.646 96.1162 138.816 96.1917 145.068 99.0654 150.929 99.7873 156.983 98.3623 157.03 98.3529 157.073 98.3387 157.12 98.3245 159.111 97.8432 161.126 97.1354 163.184 96.1917 163.212 96.1775 163.245 96.1775 163.278 96.1633 173.126 91.5815 181.927 82.0449 186.122 70.7812Z" fill="#292929" transform="matrix(1 0 0 1 1355 120)"/><path d="M197.98 56.625C195.918 31.9459 177.642 14.1562 151 14.1562 124.528 14.1562 107.116 34.1354 104.214 56.625L103.812 56.625 103.812 122.687 122.687 122.687 132.125 122.687 132.125 103.435C117.435 95.4933 105.804 79.1806 104.058 61.2493 103.808 58.7107 105.624 56.4315 108.158 56.1106 124.806 53.9872 140.515 46.2815 152.382 34.4091 153.732 33.0595 155.756 32.6443 157.526 33.3851 159.286 34.1165 160.437 35.8436 160.437 37.75 160.437 50.7596 171.022 61.3437 184.031 61.3437L192.421 61.3437C193.851 61.3437 195.2 61.9902 196.097 63.1038 196.989 64.2174 197.333 65.6755 197.031 67.0723 193.605 82.7149 182.851 96.3568 169.875 103.411L169.875 122.687 179.312 122.687 198.187 122.687 198.187 66.0625 198.187 61.339 198.187 56.625 197.98 56.625Z" fill="#292929" transform="matrix(1 0 0 1 1355 120)"/><path d="M253.114 247.324C249.037 243.761 243.634 242.143 238.254 242.869L196.262 248.598 177.359 226.5 124.641 226.5 105.742 248.598 63.7456 242.869C58.3851 242.143 52.9632 243.761 48.8909 247.324 44.8092 250.882 42.4687 256.03 42.4687 261.442 42.4687 270.771 49.4383 278.755 58.6823 280.02L150.363 292.52C150.575 292.548 150.788 292.562 151 292.562 151.212 292.562 151.425 292.548 151.637 292.52L243.317 280.02C252.561 278.755 259.531 270.771 259.531 261.442 259.531 256.03 257.191 250.882 253.114 247.324Z" fill="#292929" transform="matrix(1 0 0 1 1355 120)"/></g></g></g><g clip-path="url(#clip15)"><g clip-path="url(#clip16)"><g clip-path="url(#clip17)"><path d="M150.016 225.024 150.016 233.728 145.152 237.056 145.152 240.64C145.152 240.64 144.64 243.968 131.328 243.968 118.016 243.968 117.504 240.64 117.504 240.64L117.504 237.312 112.64 233.728 112.64 225.024 117.504 221.952 117.504 215.808 115.456 214.528 115.456 186.368 117.76 186.368 117.76 145.92 115.712 145.92 115.712 145.408 117.248 144.64 117.248 142.08 119.808 139.52 116.992 137.728 116.992 134.656 119.808 132.608 116.992 131.072 116.992 128.256 119.552 126.208 116.992 124.672 116.992 121.856 119.808 119.808 116.992 118.016 116.992 115.456 119.552 113.408 116.992 111.616 116.992 108.8 119.552 107.008 117.76 105.472 117.76 102.4 120.576 100.608 117.76 98.56 117.76 96.256 120.576 94.464 117.504 92.16 117.504 89.6 120.576 87.552 117.248 85.504 117.248 83.456C117.248 80.64 124.928 79.616 124.928 79.616L124.928 70.656C124.928 70.656 123.648 70.656 123.136 70.656 122.624 70.656 122.368 69.888 122.368 69.888L122.368 68.608 118.272 68.096C118.272 68.096 117.504 67.584 117.504 66.56 117.504 65.536 118.016 65.28 118.016 65.28L119.296 64.768C119.296 64.768 119.296 60.16 119.296 58.88 119.296 57.6 120.832 57.344 120.832 57.344L125.44 56.832 125.44 45.056C125.44 45.056 125.184 45.056 124.16 45.056 123.136 45.056 123.136 44.032 123.136 44.032L123.136 41.984C123.136 41.984 122.112 41.984 120.576 41.984 119.04 41.984 118.528 40.448 118.528 40.448L118.528 32C117.248 31.744 115.712 29.696 115.712 29.696L115.712 26.88C111.872 24.832 112.64 23.808 112.64 23.808 112.64 23.808 112.896 22.784 114.688 21.76 116.48 20.736 124.928 19.968 124.928 19.968L124.928 15.104C125.696 14.336 129.024 13.824 130.816 13.568L130.816 13.568C130.816 13.568 131.072 13.568 131.328 13.568 131.584 13.568 131.84 13.568 131.84 13.568L131.84 13.568C133.632 13.824 136.96 14.336 137.728 15.104L137.728 19.712C137.728 19.712 146.176 20.224 147.968 21.504 149.76 22.528 150.016 23.552 150.016 23.552 150.016 23.552 150.784 24.832 146.944 26.624L146.944 29.44C146.944 29.44 145.408 31.488 144.128 31.744L144.128 40.192C144.128 40.192 143.616 41.728 142.08 41.728 140.544 41.728 139.52 41.728 139.52 41.728L139.52 43.776C139.52 43.776 139.52 44.8 138.496 44.8 137.472 44.8 137.216 44.8 137.216 44.8L137.216 56.576 141.824 57.088C141.824 57.088 143.36 57.344 143.36 58.624 143.36 59.904 143.36 64.512 143.36 64.512L144.64 65.024C144.64 65.024 145.152 65.28 145.152 66.304 145.152 67.328 144.384 67.84 144.384 67.84L140.288 68.352 140.288 69.632C140.288 69.632 140.288 70.4 139.52 70.4 138.752 70.4 137.728 70.4 137.728 70.4L137.728 79.36C137.728 79.36 145.408 80.128 145.408 83.2L145.408 85.248 142.08 87.296 145.152 89.344 145.152 91.904 142.336 93.952 145.152 95.744 145.152 98.048 142.336 100.352 145.152 102.144 145.152 105.216 142.848 107.008 145.408 108.8 145.408 111.616 142.848 113.408 145.408 115.456 145.408 118.016 142.592 119.808 145.408 121.856 145.408 124.672 142.848 126.208 145.408 128.256 145.408 131.072 142.592 132.608 145.408 134.656 145.408 137.728 142.592 139.52 145.152 142.08 145.152 144.64 146.688 145.408 147.2 214.272 145.152 215.552 145.152 221.696 150.016 225.024ZM104.192 184.832 105.472 186.624 107.776 186.624 107.776 169.472 109.312 167.936 109.312 147.712 103.936 146.432 103.936 184.832ZM110.592 147.712 110.592 167.168 114.176 167.168 114.176 185.344 116.736 185.344 116.736 147.712 110.592 147.712ZM109.056 186.624 113.152 186.624 113.152 168.704 110.336 168.704 109.056 170.24 109.056 186.624Z" fill="#292929" transform="matrix(6.14715e-17 1.00391 -1 6.12323e-17 1631 320)"/></g></g></g></g></svg>