<svg width="550" height="550" xmlns="http://www.w3.org/2000/svg" xmlns:xlink="http://www.w3.org/1999/xlink" overflow="hidden"><defs><clipPath id="clip0"><rect x="1812" y="647" width="550" height="550"/></clipPath><radialGradient cx="762000" cy="762000" r="1.07763e+06" gradientUnits="userSpaceOnUse" spreadMethod="pad" id="fill1" gradientTransform="matrix(0.000360892 0 0 0.000360892 1812 647)"><stop offset="0" stop-color="#D9D9D9"/><stop offset="0.17" stop-color="#D9D9D9"/><stop offset="0.33" stop-color="#7F7F7F"/><stop offset="1" stop-color="#0F1113"/></radialGradient><radialGradient cx="256310" cy="282633" r="381544" gradientUnits="userSpaceOnUse" spreadMethod="pad" id="fill2" gradientTransform="matrix(0.000360892 0 0 0.000360892 1833 657)"><stop offset="0" stop-color="#FFFFFF"/><stop offset="0.54" stop-color="#7F7F7F" stop-opacity="0"/><stop offset="1" stop-color="#7F7F7F" stop-opacity="0"/></radialGradient><linearGradient x1="2084" y1="650" x2="2084" y2="805" gradientUnits="userSpaceOnUse" spreadMethod="reflect" id="fill3"><stop offset="0" stop-color="#F5FAFF" stop-opacity="0.231373"/><stop offset="0.32" stop-color="#FFFFFF" stop-opacity="0"/><stop offset="1" stop-color="#FFFFFF" stop-opacity="0"/></linearGradient><radialGradient cx="95596.5" cy="102524" r="140178" gradientUnits="userSpaceOnUse" spreadMethod="pad" id="fill4" gradientTransform="matrix(0.000360892 0 0 0.000360892 1821 708)"><stop offset="0" stop-color="#FFFFFF"/><stop offset="0.54" stop-color="#7F7F7F" stop-opacity="0"/><stop offset="1" stop-color="#7F7F7F" stop-opacity="0"/></radialGradient><radialGradient cx="112221" cy="121920" r="165705" fx="112222" fy="121920" gradientUnits="userSpaceOnUse" spreadMethod="pad" id="fill5" gradientTransform="matrix(0.000360892 0 0 0.000360892 1850 753)"><stop offset="0" stop-color="#FFFFFF"/><stop offset="0.54" stop-color="#7F7F7F" stop-opacity="0"/><stop offset="1" stop-color="#7F7F7F" stop-opacity="0"/></radialGradient><radialGradient cx="293716" cy="278476" r="404745" gradientUnits="userSpaceOnUse" spreadMethod="pad" id="fill6" gradientTransform="matrix(0.000360892 0 0 0.000360892 2140 972)"><stop offset="0" stop-color="#FFFFFF"/><stop offset="0.54" stop-color="#7F7F7F" stop-opacity="0"/><stop offset="1" stop-color="#7F7F7F" stop-opacity="0"/></radialGradient><radialGradient cx="72043.5" cy="77585.5" r="105876" fx="72043.5" fy="77585.5" gradientUnits="userSpaceOnUse" spreadMethod="pad" id="fill7" gradientTransform="matrix(0.000360892 0 0 0.000360892 2286 1100)"><stop offset="0" stop-color="#FFFFFF"/><stop offset="0.54" stop-color="#7F7F7F" stop-opacity="0"/><stop offset="1" stop-color="#7F7F7F" stop-opacity="0"/></radialGradient><radialGradient cx="77585.5" cy="84512.5" r="114725" gradientUnits="userSpaceOnUse" spreadMethod="pad" id="fill8" gradientTransform="matrix(0.000360892 0 0 0.000360892 2270 1017)"><stop offset="0" stop-color="#FFFFFF"/><stop offset="0.54" stop-color="#7F7F7F" stop-opacity="0"/><stop offset="1" stop-color="#7F7F7F" stop-opacity="0"/></radialGradient><clipPath id="clip9"><rect x="1823" y="658" width="527" height="526"/></clipPath><clipPath id="clip10"><rect x="1823" y="658" width="527" height="526"/></clipPath><clipPath id="clip11"><rect x="1823" y="658" width="527" height="526"/></clipPath><clipPath id="clip12"><rect x="1868" y="707" width="444" height="443"/></clipPath><clipPath id="clip13"><rect x="1868" y="707" width="444" height="443"/></clipPath><clipPath id="clip14"><rect x="1868" y="707" width="444" height="443"/></clipPath></defs><g clip-path="url(#clip0)" transform="translate(-1812 -647)"><rect x="1812" y="647" width="550" height="550" fill="url(#fill1)"/><path d="M1833 759C1833 702.667 1874.41 657 1925.5 657 1976.59 657 2018 702.667 2018 759 2018 815.333 1976.59 861 1925.5 861 1874.41 861 1833 815.333 1833 759Z" fill="url(#fill2)" fill-rule="evenodd"/><path d="M1844.79 650 2323.21 650C2339.11 650 2352 669.993 2352 694.656L2352 805C2352 766.576 2331.92 735.427 2307.15 735.427L1860.85 735.427C1836.08 735.427 1816 766.576 1816 805L1816 694.656C1816 669.993 1828.89 650 1844.79 650Z" fill="url(#fill3)" fill-rule="evenodd"/><path d="M1821 745C1821 724.566 1836.45 708 1855.5 708 1874.55 708 1890 724.566 1890 745 1890 765.435 1874.55 782 1855.5 782 1836.45 782 1821 765.435 1821 745Z" fill="url(#fill4)" fill-rule="evenodd"/><path d="M1850 797C1850 772.7 1868.13 753 1890.5 753 1912.87 753 1931 772.7 1931 797 1931 821.301 1912.87 841 1890.5 841 1868.13 841 1850 821.301 1850 797Z" fill="url(#fill5)" fill-rule="evenodd"/><path d="M2140 1072.5C2140 1017 2187.46 972 2246 972 2304.54 972 2352 1017 2352 1072.5 2352 1128 2304.54 1173 2246 1173 2187.46 1173 2140 1128 2140 1072.5Z" fill="url(#fill6)" fill-rule="evenodd"/><path d="M2286 1128C2286 1112.54 2297.64 1100 2312 1100 2326.36 1100 2338 1112.54 2338 1128 2338 1143.46 2326.36 1156 2312 1156 2297.64 1156 2286 1143.46 2286 1128Z" fill="url(#fill7)" fill-rule="evenodd"/><path d="M2270 1047.5C2270 1030.66 2282.54 1017 2298 1017 2313.46 1017 2326 1030.66 2326 1047.5 2326 1064.34 2313.46 1078 2298 1078 2282.54 1078 2270 1064.34 2270 1047.5Z" fill="url(#fill8)" fill-rule="evenodd"/><g clip-path="url(#clip9)"><g clip-path="url(#clip10)"><g clip-path="url(#clip11)"><path d="M198.157 246.339 168.967 453.075C168.296 457.874 164.589 461.676 159.81 462.472 155.032 463.269 150.286 460.884 148.092 456.571L73.9401 311.146C71.9031 307.146 70.8741 302.704 70.9376 298.221L73.9195 99.8852C73.9725 96.1476 76.3547 92.851 79.884 91.612 83.4115 90.373 87.3285 91.4856 89.7019 94.384L189.955 216.993C196.663 225.205 199.645 235.84 198.155 246.34ZM195.006 209.842C202.125 218.546 213.37 222.767 224.448 220.899L473.642 178.993C476.971 178.436 479.618 175.906 480.344 172.62 481.057 169.323 479.692 165.931 476.91 164.041L327.988 63.2192C324.335 60.7412 319.977 59.5022 315.557 59.692L100.18 68.8266C96.4206 68.9837 93.0711 71.2617 91.528 74.6847 89.995 78.1182 90.5319 82.1297 92.914 85.0482ZM488.692 190.689C486.391 187.834 482.737 186.437 479.115 187.046L236.145 227.911C220.301 230.579 208.015 243.199 205.758 259.096L176.819 463.741C176.021 469.381 178.236 475.029 182.657 478.629 187.078 482.221 193.074 483.227 198.428 481.298L400.386 408.344C404.722 406.78 408.188 403.441 409.921 399.157L490.184 200.834C491.549 197.421 490.98 193.547 488.692 190.691Z" fill="#FFFFFF" transform="matrix(1.0019 0 0 1 1824 659)"/></g></g></g><g clip-path="url(#clip12)"><g clip-path="url(#clip13)"><g clip-path="url(#clip14)"><path d="M1994.6 833.859C2012.53 833.859 2028.76 839.463 2042.34 849.457 2044.13 850.774 2045.85 852.188 2047.55 853.651 2050.78 849.342 2055.57 846.84 2060.62 846.433 2061.39 846.341 2062.18 846.288 2062.95 846.301 2078.2 846.535 2117.56 848.719 2123.7 848.935 2132.31 849.245 2139.3 855.919 2139.3 864.542 2139.3 873.148 2132.31 879.751 2123.7 880.132 2103.26 881.029 2085.33 882.028 2078.74 882.399 2078.74 882.523 2078.72 882.646 2078.72 882.77 2078.98 886.421 2082.12 889.263 2085.8 888.936 2086 888.923 2106.27 887.553 2124 886.757 2133.84 886.32 2141.88 879.95 2144.74 871.345 2155.35 870.995 2168.33 870.576 2180.08 870.213 2165.62 890.682 2146.91 917.229 2137.71 930.228 2137.71 930.228 2132.79 930.086 2132.61 930.073 2130.74 929.945 2129.21 931.346 2129.1 933.176 2128.98 935.001 2130.37 936.579 2132.2 936.694 2133.78 936.792 2150.35 938.232 2169.75 939.386 2171.87 939.581 2174.02 939.775 2176.19 939.978 2193.45 941.57 2205.33 952.067 2210.16 963.387 2215.99 977.044 2211.31 986.707 2198.38 986.777 2175.74 986.897 2017.59 989.46 1994.6 989.474 1993.88 989.474 1992.29 989.169 1992.19 989.142 1982.1 986.596 1974.27 968.333 1974.27 946.14 1974.27 923.92 1982.12 905.63 1992.23 903.129 1992.31 903.111 1992.38 903.076 1992.46 903.058 1993.16 902.899 1993.87 902.811 1994.6 902.811 1995.34 902.811 2007.6 902.811 2012.38 902.819 2010.03 899.986 2007.41 897.754 2004.57 896.185 2001.48 894.474 1998.14 893.524 1994.59 893.524 1977.05 893.524 1964.32 915.792 1964.32 946.471 1964.32 977.151 1977.05 999.419 1994.59 999.419 1998.62 999.419 2002.37 998.199 2005.79 996.02 2008.79 995.989 2012.25 995.949 2016 995.905 2010.08 1002.36 2002.78 1006.05 1994.59 1006.05 1983.88 1006.05 1974.64 999.754 1968.09 989.142L1957.04 989.142C1951.16 977.544 1947.74 962.812 1947.74 946.14 1947.74 930.926 1950.56 917.295 1955.53 906.21L1955.53 906.201 1966.75 906.201C1973.35 894.165 1983.11 886.899 1994.59 886.899 2001.4 886.899 2007.6 889.453 2012.91 894.019 2014.57 895.451 2016.13 897.118 2017.6 898.934 2021.43 893.122 2025.26 887.301 2028.84 881.864 2027.24 880.255 2025.58 878.757 2023.84 877.391 2015.44 870.766 2005.53 867.004 1994.59 867.004 1961.68 867.004 1937.8 900.428 1937.8 946.471 1937.8 992.515 1961.68 1025.94 1994.59 1025.94 2013.89 1025.94 2030.04 1014.39 2040.14 995.595 2042.61 995.564 2045.13 995.529 2047.71 995.498 2036.68 1018.37 2017.61 1032.57 1994.59 1032.57 1969.63 1032.57 1949.34 1015.83 1938.88 989.478L1928.42 989.478C1923.82 976.651 1921.23 962.056 1921.23 946.144 1921.23 931.633 1923.37 918.197 1927.22 906.205L1937.87 906.205C1947.99 878.288 1968.78 860.383 1994.59 860.383 2006.92 860.383 2018.07 864.533 2027.51 871.831 2029.25 873.183 2030.94 874.642 2032.56 876.207 2037.21 869.139 2041.16 863.128 2043.74 859.216 2042.06 857.735 2040.34 856.321 2038.57 855.004 2026.03 845.704 2011.09 840.493 1994.59 840.493 1946.31 840.493 1911.28 885.064 1911.28 946.48 1911.28 1007.9 1946.31 1052.47 1994.59 1052.47 2028.8 1052.47 2056.34 1030.08 2069.5 995.197 2071.86 995.162 2074.23 995.127 2076.62 995.096 2062.91 1033.96 2032.55 1059.1 1994.59 1059.1 1942.47 1059.1 1904.64 1011.74 1904.64 946.48 1904.64 881.223 1942.48 833.859 1994.6 833.859Z" fill="#292929"/><path d="M2184.39 863.066C2190.22 858.425 2193.04 852.065 2193.04 844.016 2193.04 835.874 2189.83 829.35 2183.73 824.7 2183.73 824.7 2202.89 825.103 2208.5 825.244 2218.87 825.509 2227.27 833.646 2227.27 844.016 2227.27 854.385 2218.87 862.584 2208.5 862.783 2202.26 862.907 2184.39 863.066 2184.39 863.066ZM2091.35 822.234C2092.27 822.123 2093.22 822.057 2094.15 822.075 2112.5 822.353 2160.25 824.979 2167.64 825.244 2178.01 825.62 2186.42 833.646 2186.42 844.016 2186.42 854.385 2178.01 862.584 2167.64 862.783 2162.1 862.889 2154.21 863.234 2145.84 863.636 2145.36 852.179 2135.99 842.88 2124.02 842.314L2114.63 841.845C2101.32 841.174 2082.26 840.215 2069.26 839.826 2072.72 834.862 2074.84 831.821 2074.84 831.821 2078.72 826.017 2084.9 822.755 2091.35 822.234ZM2254.54 842.022C2247.14 842.416 2240.2 842.796 2233.86 843.149 2233.4 829.819 2222.55 819.113 2208.74 818.618 2206.62 818.543 2201.17 818.274 2194.05 817.92 2183.88 817.416 2170.81 816.766 2158.95 816.258 2162.55 810.959 2164.76 807.714 2164.76 807.714 2169.05 801.283 2175.89 797.672 2183.04 797.093 2184.06 796.974 2185.11 796.898 2186.14 796.916 2206.48 797.226 2228.32 798.883 2254.54 800.426 2266.01 801.098 2275.34 809.743 2275.34 821.235 2275.34 832.714 2266.01 841.412 2254.54 842.022Z" fill="#292929"/><path d="M2208.74 818.618C2206.62 818.543 2201.17 818.274 2194.05 817.92 2183.88 817.416 2170.81 816.766 2158.95 816.258 2162.55 810.959 2164.76 807.714 2164.76 807.714 2169.05 801.283 2175.89 797.672 2183.04 797.093 2184.06 796.974 2185.11 796.898 2186.14 796.916 2206.48 797.226 2228.32 798.883 2254.54 800.426 2266.01 801.098 2275.34 809.743 2275.34 821.235 2275.34 832.718 2266.02 841.412 2254.54 842.022 2247.14 842.416 2240.2 842.796 2233.86 843.149 2233.4 829.819 2222.55 819.113 2208.74 818.618Z" fill="#292929"/><path d="M2094.15 822.075C2112.5 822.353 2160.25 824.979 2167.64 825.244 2178.01 825.62 2186.41 833.646 2186.41 844.016 2186.41 854.385 2178.01 862.584 2167.64 862.783 2162.09 862.889 2154.2 863.234 2145.84 863.636 2145.35 852.179 2135.99 842.88 2124.01 842.314L2114.63 841.845C2101.32 841.174 2082.25 840.215 2069.26 839.826 2072.72 834.862 2074.84 831.821 2074.84 831.821 2078.72 826.017 2084.89 822.755 2091.34 822.234 2092.27 822.123 2093.22 822.057 2094.15 822.075Z" fill="#292929"/></g></g></g></g></svg>