<svg width="550" height="550" xmlns="http://www.w3.org/2000/svg" xmlns:xlink="http://www.w3.org/1999/xlink" overflow="hidden"><defs><clipPath id="clip0"><rect x="29" y="1255" width="550" height="550"/></clipPath><radialGradient cx="762000" cy="762000" r="1.07763e+06" gradientUnits="userSpaceOnUse" spreadMethod="pad" id="fill1" gradientTransform="matrix(0.000360892 0 0 0.000360892 28.9999 1255)"><stop offset="0" stop-color="#D9D9D9"/><stop offset="0.17" stop-color="#D9D9D9"/><stop offset="0.33" stop-color="#7F7F7F"/><stop offset="1" stop-color="#0F1113"/></radialGradient><radialGradient cx="256309" cy="281247" r="380518" fx="256309" gradientUnits="userSpaceOnUse" spreadMethod="pad" id="fill2" gradientTransform="matrix(0.000360892 0 0 0.000360892 49.0002 1266)"><stop offset="0" stop-color="#FFFFFF"/><stop offset="0.54" stop-color="#7F7F7F" stop-opacity="0"/><stop offset="1" stop-color="#7F7F7F" stop-opacity="0"/></radialGradient><linearGradient x1="300" y1="1259" x2="300" y2="1413" gradientUnits="userSpaceOnUse" spreadMethod="reflect" id="fill3"><stop offset="0" stop-color="#F5FAFF" stop-opacity="0.231373"/><stop offset="0.32" stop-color="#FFFFFF" stop-opacity="0"/><stop offset="1" stop-color="#FFFFFF" stop-opacity="0"/></linearGradient><radialGradient cx="94210.5" cy="101138" r="138219" fx="94210.5" fy="101138" gradientUnits="userSpaceOnUse" spreadMethod="pad" id="fill4" gradientTransform="matrix(0.000360892 0 0 0.000360892 38.0002 1317)"><stop offset="0" stop-color="#FFFFFF"/><stop offset="0.54" stop-color="#7F7F7F" stop-opacity="0"/><stop offset="1" stop-color="#7F7F7F" stop-opacity="0"/></radialGradient><radialGradient cx="110836" cy="120534" r="163748" gradientUnits="userSpaceOnUse" spreadMethod="pad" id="fill5" gradientTransform="matrix(0.000360892 0 0 0.000360892 67 1362)"><stop offset="0" stop-color="#FFFFFF"/><stop offset="0.54" stop-color="#7F7F7F" stop-opacity="0"/><stop offset="1" stop-color="#7F7F7F" stop-opacity="0"/></radialGradient><radialGradient cx="292330" cy="278476" r="403740" gradientUnits="userSpaceOnUse" spreadMethod="pad" id="fill6" gradientTransform="matrix(0.000360892 0 0 0.000360892 357 1580)"><stop offset="0" stop-color="#FFFFFF"/><stop offset="0.54" stop-color="#7F7F7F" stop-opacity="0"/><stop offset="1" stop-color="#7F7F7F" stop-opacity="0"/></radialGradient><radialGradient cx="72044" cy="77585.5" r="105877" fx="72044" fy="77585.5" gradientUnits="userSpaceOnUse" spreadMethod="pad" id="fill7" gradientTransform="matrix(0.000360892 0 0 0.000360892 502 1708)"><stop offset="0" stop-color="#FFFFFF"/><stop offset="0.54" stop-color="#7F7F7F" stop-opacity="0"/><stop offset="1" stop-color="#7F7F7F" stop-opacity="0"/></radialGradient><radialGradient cx="77585.5" cy="83127.5" r="113709" gradientUnits="userSpaceOnUse" spreadMethod="pad" id="fill8" gradientTransform="matrix(0.000360892 0 0 0.000360892 486 1626)"><stop offset="0" stop-color="#FFFFFF"/><stop offset="0.54" stop-color="#7F7F7F" stop-opacity="0"/><stop offset="1" stop-color="#7F7F7F" stop-opacity="0"/></radialGradient><clipPath id="clip9"><rect x="40" y="1268" width="527" height="525"/></clipPath><clipPath id="clip10"><rect x="40" y="1268" width="527" height="525"/></clipPath><clipPath id="clip11"><rect x="40" y="1268" width="527" height="525"/></clipPath><clipPath id="clip12"><rect x="42" y="1668" width="123" height="123"/></clipPath><clipPath id="clip13"><rect x="42" y="1668" width="123" height="123"/></clipPath><clipPath id="clip14"><rect x="42" y="1668" width="123" height="123"/></clipPath><clipPath id="clip15"><rect x="95" y="1326" width="387" height="387"/></clipPath><clipPath id="clip16"><rect x="95" y="1326" width="387" height="387"/></clipPath><clipPath id="clip17"><rect x="95" y="1326" width="387" height="387"/></clipPath></defs><g clip-path="url(#clip0)" transform="translate(-29 -1255)"><rect x="28.9999" y="1255" width="550" height="550" fill="url(#fill1)"/><path d="M49.0002 1367.5C49.0002 1311.44 90.4138 1266 141.5 1266 192.586 1266 234 1311.44 234 1367.5 234 1423.56 192.586 1469 141.5 1469 90.4138 1469 49.0002 1423.56 49.0002 1367.5Z" fill="url(#fill2)" fill-rule="evenodd"/><path d="M60.7874 1259 539.212 1259C555.111 1259 568 1278.86 568 1303.37L568 1413C568 1374.82 547.92 1343.88 523.149 1343.88L76.8504 1343.88C52.0802 1343.88 32 1374.82 32 1413L32 1303.37C32 1278.86 44.8885 1259 60.7874 1259Z" fill="url(#fill3)" fill-rule="evenodd"/><path d="M38.0002 1353.5C38.0002 1333.34 53.2224 1317 72 1317 90.7776 1317 106 1333.34 106 1353.5 106 1373.66 90.7776 1390 72 1390 53.2224 1390 38.0002 1373.66 38.0002 1353.5Z" fill="url(#fill4)" fill-rule="evenodd"/><path d="M67 1405.5C67 1381.48 84.9087 1362 107 1362 129.091 1362 147 1381.48 147 1405.5 147 1429.52 129.091 1449 107 1449 84.9087 1449 67 1429.52 67 1405.5Z" fill="url(#fill5)" fill-rule="evenodd"/><path d="M357 1680.5C357 1625 404.234 1580 462.5 1580 520.766 1580 568 1625 568 1680.5 568 1736 520.766 1781 462.5 1781 404.234 1781 357 1736 357 1680.5Z" fill="url(#fill6)" fill-rule="evenodd"/><path d="M502 1736C502 1720.54 513.641 1708 528 1708 542.359 1708 554 1720.54 554 1736 554 1751.46 542.359 1764 528 1764 513.641 1764 502 1751.46 502 1736Z" fill="url(#fill7)" fill-rule="evenodd"/><path d="M486 1656C486 1639.43 498.536 1626 514 1626 529.464 1626 542 1639.43 542 1656 542 1672.57 529.464 1686 514 1686 498.536 1686 486 1672.57 486 1656Z" fill="url(#fill8)" fill-rule="evenodd"/><g clip-path="url(#clip9)"><g clip-path="url(#clip10)"><g clip-path="url(#clip11)"><path d="M239.157 1514.34 209.967 1721.07C209.296 1725.87 205.589 1729.68 200.81 1730.47 196.032 1731.27 191.286 1728.88 189.092 1724.57L114.94 1579.15C112.903 1575.15 111.874 1570.7 111.938 1566.22L114.919 1367.89C114.972 1364.15 117.355 1360.85 120.884 1359.61 124.411 1358.37 128.328 1359.49 130.702 1362.38L230.955 1484.99C237.663 1493.21 240.645 1503.84 239.155 1514.34ZM236.006 1477.84C243.125 1486.55 254.371 1490.77 265.448 1488.9L514.642 1446.99C517.971 1446.44 520.618 1443.91 521.345 1440.62 522.058 1437.32 520.693 1433.93 517.91 1432.04L368.989 1331.22C365.335 1328.74 360.977 1327.5 356.557 1327.69L141.18 1336.83C137.421 1336.98 134.071 1339.26 132.528 1342.68 130.995 1346.12 131.532 1350.13 133.914 1353.05ZM529.692 1458.69C527.391 1455.83 523.738 1454.44 520.115 1455.05L277.145 1495.91C261.301 1498.58 249.015 1511.2 246.758 1527.1L217.819 1731.74C217.021 1737.38 219.236 1743.03 223.657 1746.63 228.078 1750.22 234.074 1751.23 239.428 1749.3L441.387 1676.34C445.722 1674.78 449.188 1671.44 450.921 1667.16L531.184 1468.83C532.549 1465.42 531.98 1461.55 529.692 1458.69Z" fill="#FFFFFF"/></g></g></g><path d="M32.5002 1802.5 32.5002 1542.5 280.5 1802.5Z" stroke="#0F1113" stroke-width="4.58333" stroke-miterlimit="8" fill="#FF0000" fill-rule="evenodd"/><g clip-path="url(#clip12)"><g clip-path="url(#clip13)"><g clip-path="url(#clip14)"><path d="M158.446 1697.26C157.723 1696.51 156.396 1695.58 154.516 1695.1 153.582 1694.84 152.549 1694.71 151.444 1694.65 150.888 1694.6 150.315 1694.63 149.718 1694.62 149.13 1694.66 148.515 1694.7 147.895 1694.78 145.414 1695.11 142.757 1695.91 140.237 1697.1 137.696 1698.27 135.272 1699.78 132.995 1701.39 128.454 1704.62 124.484 1708.21 120.793 1710.65 118.958 1711.88 117.205 1712.86 115.637 1713.53 114.071 1714.19 112.706 1714.59 111.732 1714.8 111.232 1714.93 111.244 1715.29 111.776 1715.34 112.886 1715.47 114.543 1715.49 116.536 1715.2 118.524 1714.91 120.833 1714.28 123.141 1713.31 123.575 1713.13 124.009 1712.93 124.443 1712.73 124.116 1714.12 124.042 1715.6 124.28 1717.11 125.263 1723.33 131.104 1727.58 137.326 1726.59 143.547 1725.61 147.794 1719.77 146.81 1713.55 146.068 1708.85 142.553 1705.28 138.197 1704.23 139.38 1703.38 140.59 1702.51 141.827 1701.68 143.815 1700.37 145.867 1699.15 147.936 1698.33 149.988 1697.5 152.092 1697.01 153.889 1696.9 155.682 1696.78 157.171 1697.19 158.121 1697.68 158.567 1697.92 158.824 1697.65 158.446 1697.26M135.765 1740.76C132.215 1746.05 124.142 1747.27 118.312 1748.03 113.711 1748.63 109.019 1748.94 104.327 1748.9 97.7205 1748.84 91.1124 1748.11 84.7563 1746.55 78.7027 1745.06 73.6287 1742.69 70.9224 1741.29 70.2094 1740.95 69.4246 1741.68 69.8073 1742.39 70.2048 1743.13 70.7074 1744.05 71.3151 1745.12 71.9801 1746.13 72.7448 1747.29 73.6596 1748.53 74.149 1749.13 74.657 1749.75 75.1828 1750.39 82.1243 1758.85 93.2047 1764.33 104.158 1764.44 112.629 1764.53 120.512 1761.51 127.335 1756.63 130.569 1754.29 133.4 1751.53 135.113 1748.61 135.561 1747.92 135.895 1747.16 136.21 1746.49 136.481 1745.77 136.748 1745.13 136.887 1744.47 136.965 1744.15 137.047 1743.84 137.103 1743.55 137.141 1743.24 137.178 1742.95 137.213 1742.67 137.298 1742.13 137.281 1741.62 137.275 1741.18 137.265 1740.33 136.202 1740.16 135.765 1740.76M83.4264 1717.11C83.656 1715.65 83.5902 1714.22 83.2902 1712.87 83.9715 1713.18 84.6497 1713.48 85.3231 1713.73 87.584 1714.61 89.7492 1715.15 91.5894 1715.36 93.4337 1715.57 94.929 1715.5 95.9466 1715.37 96.4732 1715.32 96.4616 1714.95 95.9545 1714.84 94.8866 1714.64 93.3648 1714.2 91.6629 1713.45 89.9579 1712.7 88.0813 1711.64 86.1962 1710.3 82.4127 1707.66 78.5116 1704.07 74.7119 1701.39 72.8159 1700.05 70.6192 1698.69 68.2314 1697.53 65.8336 1696.38 63.2378 1695.44 60.6746 1695.03 58.1082 1694.6 55.681 1694.66 53.6535 1695.09 51.6014 1695.51 50.0928 1696.48 49.2956 1697.27 48.9074 1697.66 49.1448 1697.94 49.5902 1697.72 50.4678 1697.29 51.7985 1696.91 53.4293 1696.98 54.2412 1696.99 55.1382 1697.14 56.0885 1697.32 56.5617 1697.41 57.0427 1697.56 57.5337 1697.67 58.0209 1697.83 58.5196 1697.98 59.0198 1698.16 62.3965 1699.36 65.8808 1701.68 69.4973 1704.24 65.147 1705.28 61.6372 1708.85 60.8957 1713.55 59.9121 1719.77 64.1588 1725.61 70.3803 1726.59 76.6017 1727.58 82.4428 1723.33 83.4264 1717.11" fill-rule="evenodd"/></g></g></g><g clip-path="url(#clip15)"><g clip-path="url(#clip16)"><g clip-path="url(#clip17)"><path d="M284.552 1348.03C284.552 1349.16 284.334 1351.09 283.9 1353.84 283.527 1356.39 283.403 1358.54 283.527 1360.29 283.776 1363.04 284.522 1365.97 285.775 1369.09 287.46 1373.14 289.673 1376.73 292.418 1379.85 293.915 1381.59 296.535 1384.03 300.28 1387.15 303.835 1390.2 306.486 1392.79 308.231 1394.91 311.101 1398.35 313.502 1402.34 315.437 1406.89 316.809 1410.26 317.59 1413.63 317.774 1417 317.898 1419.24 317.744 1422.02 317.311 1425.32 316.813 1429.19 316.56 1431.75 316.56 1433 316.56 1435.8 317.058 1438.39 318.061 1440.76 320.116 1445.81 323.114 1449.03 327.042 1450.4 330.409 1451.53 334.123 1451.24 338.181 1449.56 342.795 1447.69 345.073 1442.95 345.013 1435.34 345.013 1429.29 343.765 1423.27 341.269 1417.28 341.02 1416.66 340.209 1415.19 338.837 1412.88L338.837 1412.79C338.155 1411.61 337.31 1410.17 336.311 1408.49 333.441 1403.56 331.82 1400.63 331.447 1399.69 329.26 1394.39 329.543 1388.62 332.283 1382.38 333.973 1378.76 336.182 1375.49 338.931 1372.56 340.175 1370.81 341.736 1369.19 343.61 1367.69 343.546 1367.94 343.546 1368.19 343.61 1368.44 343.795 1368.31 343.953 1368.22 344.078 1368.16 344.451 1369.1 344.73 1371.53 344.914 1375.46 345.167 1379.14 345.57 1381.67 346.132 1383.04 348.066 1387.78 350.966 1392.08 354.834 1395.95 357.017 1398.14 360.822 1401.31 366.247 1405.5 371.364 1409.49 375.232 1412.86 377.853 1415.6 381.846 1419.91 384.964 1424.77 387.211 1430.2 391.076 1439.62 392.482 1447.79 391.419 1454.71 390.732 1459.52 388.519 1464.6 384.775 1469.97 382.776 1472.77 381.31 1474.83 380.379 1476.15 378.878 1478.52 377.763 1480.67 377.012 1482.6 375.202 1487.65 375.545 1493.21 378.037 1499.25 378.535 1500.57 379.504 1501.63 380.941 1502.44 381.691 1502.5 382.468 1502.34 383.278 1501.97 384.029 1501.66 386.118 1498.95 389.549 1493.83 390.732 1487.22 395.352 1484.35 403.397 1485.22 403.273 1485.29 403.179 1485.38 403.119 1485.5 400.498 1488.93 399.344 1493.24 399.653 1498.41 399.906 1503.53 400.374 1507.55 401.056 1510.48 402.055 1512.91 403.488 1515.26 405.362 1517.5 406.546 1518.81 408.385 1520.68 410.882 1523.11 413.442 1525.49 415.278 1527.39 416.401 1528.82 418.336 1531.13 419.802 1533.56 420.802 1536.12 423.482 1542.48 423.294 1548.91 420.236 1555.4 418.55 1559.02 414.622 1564.54 408.445 1571.96 402.583 1578.95 398.873 1584.53 397.312 1588.71 395.502 1593.45 394.781 1597.85 395.159 1601.9 396.655 1604.95 398.118 1606.42 399.555 1606.3 400.927 1606.11 401.798 1605.95 402.175 1605.83 406.477 1604.02 409.595 1601 411.534 1596.75 413.155 1592.95 413.464 1589.49 412.468 1586.37L414.248 1590.67C416.74 1596.78 412.533 1605.61 401.618 1617.15 399.868 1618.9 395.343 1623.3 388.048 1630.35 382.935 1635.27 379.594 1638.89 378.033 1641.2 374.602 1646.26 372.294 1651.96 371.111 1658.32 370.673 1660.51 370.304 1663.22 369.987 1666.46 369.674 1669.83 369.425 1672.36 369.236 1674.04 368.555 1679.72 367.182 1684.18 365.119 1687.43 362.439 1691.73 357.854 1695.22 351.365 1697.9 344.442 1700.71 337.859 1701.52 331.619 1700.33 329.187 1699.9 326.849 1699.12 324.598 1697.99 323.663 1697.87 322.226 1697.65 320.296 1697.34 318.924 1697.09 317.766 1696.87 316.831 1696.69L316.831 1696.87C314.776 1696.62 313.056 1696.53 311.684 1696.59L311.594 1696.59C307.352 1697.16 305.135 1697.44 304.95 1697.44 303.578 1697.62 302.609 1697.78 302.047 1697.9 300.734 1698.22 299.113 1698.71 297.179 1699.4L297.179 1699.31C296.184 1699.69 295.09 1700.18 293.902 1700.81L293.812 1700.9C293.688 1700.9 293.593 1700.93 293.533 1701 291.415 1702.43 289.883 1703.33 288.948 1703.71 277.596 1708.45 267.611 1710.41 259.003 1709.6 249.023 1708.66 242.221 1703.92 238.605 1695.38 237.795 1694.2 237.079 1692.92 236.457 1691.54 236.084 1690.6 235.646 1688.55 235.144 1685.37 234.707 1682.19 234.304 1680.13 233.926 1679.19 231.808 1674.08 228.342 1670.36 223.539 1668.06 221.416 1667.06 216.646 1665.65 209.222 1663.85 202.733 1662.35 197.681 1660.38 194.061 1657.95 188.7 1654.28 184.488 1648.72 181.43 1641.3 180.495 1639.05 180.307 1635.68 180.868 1631.19L181.053 1631.1C181.242 1631.66 181.49 1632.26 181.803 1632.88 183.116 1636.12 184.921 1638.59 187.229 1640.27 189.536 1641.77 191.629 1642.15 193.499 1641.4 195.682 1640.46 196.93 1637.84 197.243 1633.54 197.492 1630.04 197.243 1627.39 196.493 1625.58 195.867 1624.03 195.026 1622.62 193.967 1621.38 192.907 1620.06 191.629 1618.88 190.128 1617.82 188.567 1616.76 185.573 1615.2 181.143 1613.14 177.09 1611.21 174.032 1609.4 171.973 1607.71 168.791 1605.15 166.389 1601.94 164.768 1598.07 163.271 1594.33 162.898 1590.37 163.644 1586.19 164.082 1583.7 165.3 1579.92 167.294 1574.87 169.228 1570 170.412 1566.23 170.85 1563.55 171.596 1559.17 171.163 1555.03 169.541 1551.1 168.607 1548.86 167.045 1546.89 164.862 1545.21 162.804 1543.64 160.492 1542.52 157.936 1541.83 155.375 1541.21 153.038 1541.21 150.919 1541.83 148.612 1542.46 146.862 1543.74 145.678 1545.68L144.554 1546.14C146.176 1544.33 148.702 1541.18 152.133 1536.69 155.504 1532.76 159.025 1530.04 162.709 1528.55 164.142 1527.93 166.891 1528.46 170.944 1530.14 175.057 1531.83 177.836 1532.39 179.269 1531.83 185.196 1529.33 188.657 1525.37 189.656 1519.94 190.403 1515.7 189.686 1510.93 187.503 1505.63 185.753 1501.51 183.446 1498.02 180.577 1495.15 177.643 1492.22 175.585 1489.25 174.401 1486.26 171.592 1479.52 171.939 1471.82 175.43 1463.15 178.673 1455.22 183.446 1448.74 189.746 1443.68 189.06 1445.43 188.528 1447.83 188.155 1450.89 187.718 1454.69 187.876 1457.53 188.623 1459.4 190.308 1463.46 192.774 1466.26 196.017 1467.83 199.632 1469.7 203.814 1469.67 208.553 1467.73 214.854 1465.11 217.504 1460.22 216.505 1453.04 216.132 1450.36 215.227 1447.17 213.79 1443.49 211.98 1439.19 210.672 1436.07 209.861 1434.14 207.614 1428.78 207.897 1423.19 210.702 1417.39 212.636 1413.34 216.286 1408.47 221.651 1402.79 228.514 1395.62 232.442 1391.41 233.442 1390.16 236.748 1385.67 237.743 1381.86 236.435 1378.74 235.685 1376.87 234.501 1375.12 232.88 1373.5 234.128 1374.06 235.685 1374.59 237.559 1375.09 239.116 1375.65 240.398 1376.52 241.398 1377.71 242.646 1379.21 243.988 1381.7 245.421 1385.2 246.355 1387.38 246.917 1389.78 247.106 1392.4 247.17 1393.96 247.076 1396.24 246.827 1399.23 246.574 1402.23 246.514 1404.47 246.639 1405.97 246.763 1408.59 247.295 1411.02 248.23 1413.27 248.856 1414.89 250.846 1416.61 254.217 1418.42 257.773 1420.29 260.517 1420.85 262.447 1420.1 266.38 1418.42 268.653 1415.77 269.28 1412.15 269.777 1409.28 269.215 1405.88 267.594 1401.95 267.281 1401.08 265.63 1398.08 262.636 1392.97 259.642 1387.85 257.957 1384.86 257.584 1383.99 255.525 1378.87 255.341 1374.07 257.022 1369.58 258.081 1366.71 260.577 1362.93 264.51 1358.25 268.752 1353.2 271.561 1349.3 272.929 1346.55 275.361 1341.69 276.077 1336.51 275.082 1331.02 275.396 1331.76 276.704 1333.36 279.015 1335.79 281.258 1338.29 282.601 1340.03 283.038 1341.03 284.055 1343.44 284.552 1345.79 284.552 1348.03ZM345.935 1537.8C337.327 1552.71 325.288 1559.94 309.814 1559.51 305.135 1559.32 301.33 1558.63 298.401 1557.45 298.963 1559.7 299.774 1561.82 300.833 1563.82 302.643 1567.12 305.105 1570.09 308.227 1572.7 314.587 1577.81 321.827 1579.97 329.937 1579.16 338.048 1578.35 344.721 1574.79 349.962 1568.49 355.139 1562.19 357.292 1554.96 356.421 1546.78 355.795 1540.48 353.359 1535.3 349.122 1531.25 348.182 1533.49 347.123 1535.68 345.935 1537.8ZM342.478 1601.81C339.356 1601.87 336.77 1605.2 334.711 1611.82 332.652 1618.43 331.747 1626.38 331.996 1635.68 332.305 1644.97 333.647 1652.86 336.019 1659.35 338.451 1665.9 341.23 1669.15 344.344 1669.09 347.59 1668.96 350.211 1665.56 352.205 1658.89 354.26 1652.27 355.165 1644.35 354.92 1635.12 354.667 1625.82 353.329 1617.9 350.897 1611.35 348.525 1604.86 345.72 1601.68 342.478 1601.81ZM311.409 1614.34C307.978 1614.78 305.422 1617.99 303.737 1623.98 302.051 1630.03 301.742 1637.12 302.802 1645.22 303.861 1653.27 305.98 1659.97 309.162 1665.34 312.344 1670.77 315.651 1673.26 319.082 1672.82 322.518 1672.32 325.069 1669.08 326.755 1663.09 328.501 1657.04 328.814 1649.99 327.694 1641.94 326.695 1633.83 324.572 1627.09 321.33 1621.73 318.147 1616.31 314.836 1613.85 311.409 1614.34ZM281.464 1619.49C278.033 1619.99 275.567 1623.26 274.07 1629.32 272.513 1635.43 272.355 1642.51 273.603 1650.55 274.851 1658.6 277.128 1665.28 280.435 1670.58 283.742 1675.94 287.109 1678.35 290.54 1677.79 293.975 1677.23 296.467 1673.92 298.024 1667.87 299.525 1661.82 299.679 1654.77 298.491 1646.72 297.247 1638.67 294.97 1631.99 291.659 1626.69 288.361 1621.39 284.96 1618.99 281.464 1619.49ZM257.511 1619.77C253.891 1613.91 250.524 1611.35 247.406 1612.1 244.348 1612.79 242.478 1616.59 241.792 1623.52 241.106 1630.44 241.822 1638.42 243.945 1647.47 246.128 1656.52 249.057 1663.97 252.737 1669.84 256.357 1675.76 259.724 1678.35 262.842 1677.6 265.96 1676.86 267.834 1673.02 268.456 1666.09 269.142 1659.23 268.426 1651.27 266.303 1642.23 264.184 1633.18 261.255 1625.7 257.511 1619.77ZM279.033 1581.22C278.222 1582.96 277.531 1584.71 276.974 1586.46 276.163 1589.14 275.696 1591.79 275.571 1594.41 275.447 1598.65 276.412 1602.11 278.471 1604.8 280.469 1607.42 282.995 1608.07 286.053 1606.76 288.55 1605.82 290.763 1603.8 292.697 1600.68 295.129 1603.36 297.685 1604.92 300.37 1605.36 303.552 1605.98 305.89 1604.8 307.391 1601.81 308.888 1598.81 309.136 1595.26 308.137 1591.14 307.575 1588.83 306.67 1586.52 305.422 1584.21 304.487 1582.47 303.368 1580.72 302.055 1578.97 298.997 1575.04 295.849 1572.48 292.607 1571.3 291.921 1571.11 291.294 1570.96 290.733 1570.83 290.608 1570.83 290.514 1570.83 290.454 1570.83 290.141 1570.83 289.858 1570.83 289.613 1570.83 289.36 1570.9 289.116 1570.96 288.863 1571.02L288.674 1571.11C288.052 1571.3 287.426 1571.55 286.804 1571.86 283.806 1573.67 281.216 1576.79 279.033 1581.22ZM276.974 1557.92C276.974 1557.73 276.974 1557.54 276.974 1557.36 272.359 1560.85 266.59 1562.5 259.664 1562.31 245.939 1561.88 233.309 1557.04 221.767 1547.81 218.714 1552.43 217.496 1557.79 218.117 1563.91 218.928 1572.02 222.484 1578.66 228.784 1583.84 235.144 1589.01 242.38 1591.2 250.494 1590.38 258.605 1589.57 265.278 1585.99 270.519 1579.62 273.08 1576.44 274.915 1573.07 276.039 1569.52 277.098 1565.9 277.411 1562.04 276.974 1557.92Z" fill="#292929" fill-rule="evenodd"/></g></g></g></g></svg>