<svg width="550" height="555" xmlns="http://www.w3.org/2000/svg" xmlns:xlink="http://www.w3.org/1999/xlink" overflow="hidden"><defs><clipPath id="clip0"><rect x="1234" y="646" width="550" height="555"/></clipPath><radialGradient cx="762000" cy="762000" r="1.07763e+06" gradientUnits="userSpaceOnUse" spreadMethod="pad" id="fill1" gradientTransform="matrix(0.000360892 0 0 0.000360892 1234 646)"><stop offset="0" stop-color="#D9D9D9"/><stop offset="0.17" stop-color="#D9D9D9"/><stop offset="0.33" stop-color="#7F7F7F"/><stop offset="1" stop-color="#0F1113"/></radialGradient><radialGradient cx="256309" cy="281248" r="380519" fx="256309" gradientUnits="userSpaceOnUse" spreadMethod="pad" id="fill2" gradientTransform="matrix(0.000360892 0 0 0.000360892 1256 659)"><stop offset="0" stop-color="#FFFFFF"/><stop offset="0.54" stop-color="#7F7F7F" stop-opacity="0"/><stop offset="1" stop-color="#7F7F7F" stop-opacity="0"/></radialGradient><linearGradient x1="1507" y1="652" x2="1507" y2="806" gradientUnits="userSpaceOnUse" spreadMethod="reflect" id="fill3"><stop offset="0" stop-color="#F5FAFF" stop-opacity="0.231373"/><stop offset="0.32" stop-color="#FFFFFF" stop-opacity="0"/><stop offset="1" stop-color="#FFFFFF" stop-opacity="0"/></linearGradient><radialGradient cx="94211" cy="102524" r="139236" gradientUnits="userSpaceOnUse" spreadMethod="pad" id="fill4" gradientTransform="matrix(0.000360892 0 0 0.000360892 1245 709)"><stop offset="0" stop-color="#FFFFFF"/><stop offset="0.54" stop-color="#7F7F7F" stop-opacity="0"/><stop offset="1" stop-color="#7F7F7F" stop-opacity="0"/></radialGradient><radialGradient cx="112222" cy="120534" r="164689" gradientUnits="userSpaceOnUse" spreadMethod="pad" id="fill5" gradientTransform="matrix(0.000360892 0 0 0.000360892 1273 755)"><stop offset="0" stop-color="#FFFFFF"/><stop offset="0.54" stop-color="#7F7F7F" stop-opacity="0"/><stop offset="1" stop-color="#7F7F7F" stop-opacity="0"/></radialGradient><radialGradient cx="293716" cy="278476" r="404745" gradientUnits="userSpaceOnUse" spreadMethod="pad" id="fill6" gradientTransform="matrix(0.000360892 0 0 0.000360892 1563 973)"><stop offset="0" stop-color="#FFFFFF"/><stop offset="0.54" stop-color="#7F7F7F" stop-opacity="0"/><stop offset="1" stop-color="#7F7F7F" stop-opacity="0"/></radialGradient><radialGradient cx="72043.5" cy="77585.5" r="105876" fx="72043.5" fy="77585.5" gradientUnits="userSpaceOnUse" spreadMethod="pad" id="fill7" gradientTransform="matrix(0.000360892 0 0 0.000360892 1709 1101)"><stop offset="0" stop-color="#FFFFFF"/><stop offset="0.54" stop-color="#7F7F7F" stop-opacity="0"/><stop offset="1" stop-color="#7F7F7F" stop-opacity="0"/></radialGradient><radialGradient cx="77585.5" cy="84513" r="114726" fx="77585.5" fy="84513" gradientUnits="userSpaceOnUse" spreadMethod="pad" id="fill8" gradientTransform="matrix(0.000360892 0 0 0.000360892 1693 1018)"><stop offset="0" stop-color="#FFFFFF"/><stop offset="0.54" stop-color="#7F7F7F" stop-opacity="0"/><stop offset="1" stop-color="#7F7F7F" stop-opacity="0"/></radialGradient><clipPath id="clip9"><rect x="1247" y="660" width="527" height="526"/></clipPath><clipPath id="clip10"><rect x="1247" y="660" width="527" height="526"/></clipPath><clipPath id="clip11"><rect x="1247" y="660" width="527" height="526"/></clipPath><clipPath id="clip12"><rect x="1248" y="1050" width="140" height="141"/></clipPath><clipPath id="clip13"><rect x="1248" y="1050" width="140" height="141"/></clipPath><clipPath id="clip14"><rect x="1248" y="1050" width="140" height="141"/></clipPath><clipPath id="clip15"><rect x="1327" y="718" width="345" height="344"/></clipPath><clipPath id="clip16"><rect x="1327" y="718" width="345" height="344"/></clipPath><clipPath id="clip17"><rect x="1327" y="718" width="345" height="344"/></clipPath></defs><g clip-path="url(#clip0)" transform="translate(-1234 -646)"><rect x="1234" y="646" width="550" height="550" fill="url(#fill1)"/><path d="M1256 760.5C1256 704.443 1297.41 659 1348.5 659 1399.59 659 1441 704.443 1441 760.5 1441 816.557 1399.59 862 1348.5 862 1297.41 862 1256 816.557 1256 760.5Z" fill="url(#fill2)" fill-rule="evenodd"/><path d="M1267.79 652 1746.21 652C1762.11 652 1775 671.864 1775 696.368L1775 806C1775 767.824 1754.92 736.876 1730.15 736.876L1283.85 736.876C1259.08 736.876 1239 767.824 1239 806L1239 696.368C1239 671.864 1251.89 652 1267.79 652Z" fill="url(#fill3)" fill-rule="evenodd"/><path d="M1245 746C1245 725.566 1260.22 709 1279 709 1297.78 709 1313 725.566 1313 746 1313 766.435 1297.78 783 1279 783 1260.22 783 1245 766.435 1245 746Z" fill="url(#fill4)" fill-rule="evenodd"/><path d="M1273 798.5C1273 774.475 1291.13 755 1313.5 755 1335.87 755 1354 774.475 1354 798.5 1354 822.524 1335.87 842 1313.5 842 1291.13 842 1273 822.524 1273 798.5Z" fill="url(#fill5)" fill-rule="evenodd"/><path d="M1563 1073.5C1563 1018 1610.46 973 1669 973 1727.54 973 1775 1018 1775 1073.5 1775 1129 1727.54 1174 1669 1174 1610.46 1174 1563 1129 1563 1073.5Z" fill="url(#fill6)" fill-rule="evenodd"/><path d="M1709 1129C1709 1113.54 1720.64 1101 1735 1101 1749.36 1101 1761 1113.54 1761 1129 1761 1144.46 1749.36 1157 1735 1157 1720.64 1157 1709 1144.46 1709 1129Z" fill="url(#fill7)" fill-rule="evenodd"/><path d="M1693 1048.5C1693 1031.66 1705.54 1018 1721 1018 1736.46 1018 1749 1031.66 1749 1048.5 1749 1065.34 1736.46 1079 1721 1079 1705.54 1079 1693 1065.34 1693 1048.5Z" fill="url(#fill8)" fill-rule="evenodd"/><g clip-path="url(#clip9)"><g clip-path="url(#clip10)"><g clip-path="url(#clip11)"><path d="M1445.53 906.808 1416.29 1113.94C1415.62 1118.75 1411.9 1122.56 1407.11 1123.35 1402.33 1124.15 1397.57 1121.76 1395.37 1117.44L1321.08 971.739C1319.04 967.731 1318.01 963.281 1318.07 958.789L1321.06 760.075C1321.11 756.331 1323.5 753.028 1327.04 751.787 1330.57 750.545 1334.49 751.66 1336.87 754.564L1437.32 877.407C1444.04 885.634 1447.03 896.289 1445.53 906.809ZM1442.38 870.241C1449.51 878.962 1460.78 883.191 1471.88 881.319L1721.54 839.334C1724.88 838.776 1727.53 836.241 1728.26 832.949 1728.97 829.646 1727.61 826.247 1724.82 824.354L1575.61 723.34C1571.95 720.857 1567.59 719.616 1563.16 719.806L1347.37 728.958C1343.6 729.115 1340.25 731.397 1338.7 734.827 1337.17 738.267 1337.7 742.286 1340.09 745.21ZM1736.62 851.052C1734.32 848.191 1730.66 846.792 1727.03 847.402L1483.59 888.345C1467.72 891.018 1455.41 903.662 1453.15 919.59L1424.16 1124.62C1423.36 1130.27 1425.58 1135.93 1430.01 1139.54 1434.43 1143.14 1440.44 1144.15 1445.81 1142.21L1648.15 1069.12C1652.49 1067.56 1655.97 1064.21 1657.7 1059.92L1738.12 861.216C1739.49 857.797 1738.92 853.916 1736.62 851.054Z" fill="#FFFFFF"/></g></g></g><path d="M1239.5 1198.5 1239.5 939.5 1486.5 1198.5Z" stroke="#0F1113" stroke-width="4.58333" stroke-miterlimit="8" fill="#20A0FB" fill-rule="evenodd"/><g clip-path="url(#clip12)"><g clip-path="url(#clip13)"><g clip-path="url(#clip14)"><path d="M99.4016 75.9467C113.025 65.7289 115.505 51.7761 111.411 36.6876 109.799 31.8477 100.655 34.1787 104.957 43.6793 108.77 54.228 104.957 64.4668 96.3533 74.5123 89.5409 74.6916 88.8237 81.6833 93.843 85.2681 91.391 91.1895 86.7512 95.9447 72.3327 95.486 70.1755 95.5652 71.2472 97.7086 74.3038 97.9963 80.7853 98.8525 86.6567 98.4091 91.8706 96.5618 101.552 93.1563 105.675 80.6074 99.4016 75.9467Z" fill="#FFFFFF" transform="matrix(1 0 0 1 1248 1051)"/><path d="M102.448 75.2295C101.284 76.1261 102.36 78.0081 104.24 76.8433 116.529 70.5827 124.049 56.0489 124.317 47.8034 124.586 41.2607 116.878 41.2607 116.789 47.8034 117.002 58.3146 111.792 67.3399 102.448 75.2295Z" fill="#FFFFFF" transform="matrix(1 0 0 1 1248 1051)"/><path d="M104.061 78.4557C102.626 78.9047 102.447 80.5171 104.061 80.0695 117.121 76.411 126.059 70.5105 128.799 61.2461 130.681 56.2268 126.11 54.8827 124.317 59.0958 119.737 68.709 111.995 73.7214 104.061 78.4557Z" fill="#FFFFFF" transform="matrix(1 0 0 1 1248 1051)"/><path d="M125.572 70.5688C120.277 76.4833 113.268 79.4662 105.495 81.1453 103.972 81.5943 104.331 83.0274 105.495 82.7591 121.799 82.7355 126.095 76.3749 128.799 73.2585 130.592 70.4785 127.724 67.9682 125.572 70.5688Z" fill="#FFFFFF" transform="matrix(1 0 0 1 1248 1051)"/><path d="M119.03 81.8626C115.077 83.2637 111.365 84.8872 105.048 84.1033 103.256 84.1936 102.986 86.0757 104.062 86.3439 110.156 87.5755 115.541 87.1668 119.479 86.3439 124.855 85.357 124.228 79.9805 119.03 81.8626Z" fill="#FFFFFF" transform="matrix(1 0 0 1 1248 1051)"/><path d="M116.43 87.9563C112.433 88.2343 108.416 88.4484 104.062 87.5088 102.539 87.2405 102.001 88.9432 102.986 89.3908 106.491 90.6543 110.216 90.4945 113.922 90.4667 118.133 90.8239 118.133 87.8674 116.43 87.9563Z" fill="#FFFFFF" transform="matrix(1 0 0 1 1248 1051)"/><path d="M111.77 91.9011C108.809 91.9567 105.773 91.8608 102.448 91.1839 101.104 90.7349 100.297 92.1694 101.463 92.6184 104.666 94.0237 107.863 94.6575 111.054 94.5005 113.922 94.7687 113.922 91.6315 111.77 91.9011Z" fill="#FFFFFF" transform="matrix(1 0 0 1 1248 1051)"/><path d="M108.184 96.1879C105.335 95.8043 102.511 95.1941 99.7588 93.9611 98.594 93.7818 97.9671 95.3956 99.2209 95.9335 101.229 97.1414 103.334 97.9101 105.494 98.4147 108.812 99.5197 109.799 96.6508 108.184 96.1879Z" fill="#FFFFFF" transform="matrix(1 0 0 1 1248 1051)"/><path d="M103.704 99.2501C101.288 98.4633 99.004 97.5001 96.9816 96.1879 96.085 95.7542 95.0092 97.368 95.7264 97.9949 97.4709 99.5211 99.4183 100.465 101.463 101.132 104.061 102.297 105.495 100.056 103.704 99.2501Z" fill="#FFFFFF" transform="matrix(1 0 0 1 1248 1051)"/><path d="M92.7671 98.4147C91.7816 98.1742 90.5667 99.3237 91.6927 99.9673L96.8913 103.014C98.9526 104.179 100.297 102.297 98.7733 101.132L92.7671 98.4147Z" fill="#FFFFFF" transform="matrix(1 0 0 1 1248 1051)"/><path d="M93.9333 103.014C92.193 102.234 90.6599 101.184 89.1823 100.056 88.0175 99.2501 86.8527 99.6977 87.2113 100.715 88.3845 101.983 89.7008 103.107 91.2451 104.001 93.843 105.704 95.5471 104.179 93.9333 103.014Z" fill="#FFFFFF" transform="matrix(1 0 0 1 1248 1051)"/><path d="M66.6671 95.486C52.2473 95.9447 47.6088 91.1895 45.1569 85.2681 50.1762 81.6833 49.4589 74.6916 42.6465 74.5123 34.0425 64.4668 30.2297 54.228 34.0425 43.6793 38.3445 34.1787 29.2025 31.849 27.5887 36.6876 23.4965 51.7761 25.9749 65.7275 39.5983 75.9467 33.3252 80.6074 37.448 93.1563 47.1279 96.5618 52.3418 98.4077 58.2145 98.8511 64.6947 97.9963 67.7527 97.7086 68.8244 95.5652 66.6671 95.486Z" fill="#FFFFFF" transform="matrix(1 0 0 1 1248 1051)"/><path d="M34.7597 76.8419C36.6418 78.0067 37.7176 76.1247 36.5514 75.2281 27.2064 67.3385 21.9981 58.3146 22.2108 47.8021 22.1218 41.2593 14.4143 41.2593 14.6826 47.8021 14.9508 56.0489 22.4693 70.5814 34.7597 76.8419Z" fill="#FFFFFF" transform="matrix(1 0 0 1 1248 1051)"/><path d="M34.939 80.0695C36.5528 80.5171 36.3735 78.9047 34.939 78.4557 27.0049 73.7214 19.2626 68.709 14.6826 59.0958 12.8895 54.8827 8.31914 56.2282 10.2012 61.2461 12.9409 70.5119 21.8786 76.411 34.939 80.0695Z" fill="#FFFFFF" transform="matrix(1 0 0 1 1248 1051)"/><path d="M33.5045 81.1453C25.7317 79.4662 18.7233 76.4833 13.4274 70.5688 11.2757 67.9695 8.4081 70.4785 10.2012 73.2585 12.9047 76.3749 17.2012 82.7355 33.5045 82.7591 34.6693 83.0274 35.028 81.5929 33.5045 81.1453Z" fill="#FFFFFF" transform="matrix(1 0 0 1 1248 1051)"/><path d="M34.939 86.3426C36.0149 86.0743 35.7452 84.1922 33.9535 84.1019 27.636 84.8858 23.9233 83.2623 19.9715 81.8612 14.7729 79.9791 14.146 85.357 19.5239 86.3426 23.459 87.1654 28.8453 87.5755 34.939 86.3426Z" fill="#FFFFFF" transform="matrix(1 0 0 1 1248 1051)"/><path d="M36.0149 89.3908C37.0004 88.9418 36.4624 87.2391 34.939 87.5088 30.5855 88.4484 26.5684 88.2343 22.5708 87.9563 20.8667 87.866 20.8667 90.8239 25.0797 90.4667 28.7841 90.4945 32.5107 90.6543 36.0149 89.3908Z" fill="#FFFFFF" transform="matrix(1 0 0 1 1248 1051)"/><path d="M36.5514 91.1839C33.2251 91.8608 30.1908 91.9567 27.2301 91.9011 25.0784 91.6315 25.0784 94.7687 27.9473 94.5005 31.1388 94.6575 34.3357 94.0237 37.5383 92.6184 38.7031 92.1694 37.8955 90.7349 36.5514 91.1839Z" fill="#FFFFFF" transform="matrix(1 0 0 1 1248 1051)"/><path d="M39.2411 93.9625C36.4889 95.1954 33.6644 95.8057 30.8163 96.1893 29.2025 96.6522 30.188 99.5197 33.5045 98.4161 35.666 97.9115 37.7704 97.1428 39.7776 95.9349 41.0328 95.3956 40.4059 93.7832 39.2411 93.9625Z" fill="#FFFFFF" transform="matrix(1 0 0 1 1248 1051)"/><path d="M42.0197 96.1879C39.9972 97.5001 37.7134 98.4633 35.2976 99.2501 33.5059 100.056 34.939 102.297 37.5383 101.132 39.583 100.465 41.5304 99.5211 43.2748 97.9949 43.9907 97.368 42.9162 95.7542 42.0197 96.1879Z" fill="#FFFFFF" transform="matrix(1 0 0 1 1248 1051)"/><path d="M46.2327 98.4147 40.2266 101.132C38.7031 102.297 40.0473 104.179 42.1086 103.014L47.3072 99.9673C48.4331 99.3237 47.2183 98.1742 46.2327 98.4147Z" fill="#FFFFFF" transform="matrix(1 0 0 1 1248 1051)"/><path d="M49.8176 100.056C48.34 101.184 46.8068 102.234 45.0665 103.014 43.4527 104.179 45.1569 105.704 47.7562 104 49.3005 103.106 50.6154 101.981 51.79 100.714 52.1472 99.6977 50.9824 99.2501 49.8176 100.056Z" fill="#FFFFFF" transform="matrix(1 0 0 1 1248 1051)"/></g></g></g><g clip-path="url(#clip15)"><g clip-path="url(#clip16)"><g clip-path="url(#clip17)"><path d="M202.616 45.752C202.616 62.6607 188.909 76.3679 172 76.3679 155.091 76.3679 141.384 62.6607 141.384 45.752 141.384 28.8432 155.091 15.136 172 15.136 188.909 15.136 202.616 28.8432 202.616 45.752Z" fill="#292929" transform="matrix(1 0 0 1 1328 718)"/><path d="M124.184 136.224 219.472 136.224C221.192 136.224 222.568 134.848 222.568 133.128L222.568 118.68C222.568 103.2 212.592 90.1279 198.832 85.3119 191.264 90.4719 181.632 93.9119 171.656 93.9119 161.68 93.9119 152.048 90.8159 144.48 85.3119 130.72 90.1279 120.744 103.2 120.744 118.68L120.744 133.128C121.088 134.848 122.464 136.224 124.184 136.224Z" fill="#292929" transform="matrix(1 0 0 1 1328 718)"/><path d="M87.0319 277.952C79.4639 283.456 69.8319 286.552 59.512 286.552 49.192 286.552 39.904 283.456 31.992 277.952 18.232 282.768 8.25599 295.84 8.25599 311.32L8.25599 325.768C8.25599 327.488 9.63199 328.864 11.352 328.864L106.984 328.864C108.704 328.864 110.08 327.488 110.08 325.768L110.08 311.32C110.424 295.84 100.792 282.768 87.0319 277.952Z" fill="#292929" transform="matrix(1 0 0 1 1328 718)"/><path d="M90.1279 238.392C90.1279 255.301 76.4207 269.008 59.512 269.008 42.6032 269.008 28.896 255.301 28.896 238.392 28.896 221.483 42.6032 207.776 59.512 207.776 76.4207 207.776 90.1279 221.483 90.1279 238.392Z" fill="#292929" transform="matrix(1 0 0 1 1328 718)"/><path d="M311.664 277.952C304.096 283.456 294.464 286.552 284.144 286.552 274.168 286.552 264.536 283.456 256.624 277.952 242.864 282.768 233.232 295.84 233.232 311.32L233.232 325.768C233.232 327.488 234.608 328.864 236.328 328.864L331.616 328.864C333.336 328.864 335.056 327.488 335.056 325.768L335.056 311.32C335.4 295.84 325.424 282.768 311.664 277.952Z" fill="#292929" transform="matrix(1 0 0 1 1328 718)"/><path d="M315.104 238.392C315.104 255.301 301.397 269.008 284.488 269.008 267.579 269.008 253.872 255.301 253.872 238.392 253.872 221.483 267.579 207.776 284.488 207.776 301.397 207.776 315.104 221.483 315.104 238.392Z" fill="#292929" transform="matrix(1 0 0 1 1328 718)"/><path d="M172 159.96C136.568 159.96 108.016 188.856 108.016 223.944 108.016 259.032 136.568 288.272 172 288.272 207.432 288.272 235.984 259.376 235.984 224.288 235.984 189.2 207.432 159.96 172 159.96ZM172 258.344C167.184 258.344 163.4 254.56 163.4 249.744 163.4 244.928 167.184 241.144 172 241.144 176.816 241.144 180.6 244.928 180.6 249.744 180.6 254.56 176.816 258.344 172 258.344ZM172 221.536C156.52 221.536 143.792 234.264 143.792 249.744 143.792 256.624 146.544 263.16 151.016 268.32 134.16 260.408 122.808 243.208 122.808 223.944 122.808 196.768 144.824 174.752 172 174.752 184.728 174.752 195.392 185.072 195.392 198.144 195.392 211.216 184.728 221.536 172 221.536Z" fill="#292929" transform="matrix(1 0 0 1 1328 718)"/><path d="M180.6 198.488C180.6 203.238 176.75 207.088 172 207.088 167.25 207.088 163.4 203.238 163.4 198.488 163.4 193.738 167.25 189.888 172 189.888 176.75 189.888 180.6 193.738 180.6 198.488Z" fill="#292929" transform="matrix(1 0 0 1 1328 718)"/></g></g></g></g></svg>