<svg width="550" height="550" xmlns="http://www.w3.org/2000/svg" xmlns:xlink="http://www.w3.org/1999/xlink" overflow="hidden"><defs><clipPath id="clip0"><rect x="2490" y="646" width="550" height="550"/></clipPath><radialGradient cx="762000" cy="762000" r="1.07763e+06" gradientUnits="userSpaceOnUse" spreadMethod="pad" id="fill1" gradientTransform="matrix(0.000360892 0 0 0.000360892 2490 646)"><stop offset="0" stop-color="#D4F7F5"/><stop offset="0.17" stop-color="#D4F7F5"/><stop offset="0.33" stop-color="#1FA09A"/><stop offset="1" stop-color="#0F1113"/></radialGradient><radialGradient cx="257695" cy="281248" r="381453" fx="257694" fy="281248" gradientUnits="userSpaceOnUse" spreadMethod="pad" id="fill2" gradientTransform="matrix(0.000360892 0 0 0.000360892 2512 659)"><stop offset="0" stop-color="#C8F9E7"/><stop offset="0.54" stop-color="#59ECB7" stop-opacity="0"/><stop offset="1" stop-color="#59ECB7" stop-opacity="0"/></radialGradient><linearGradient x1="2763.5" y1="652" x2="2763.5" y2="806" gradientUnits="userSpaceOnUse" spreadMethod="reflect" id="fill3"><stop offset="0" stop-color="#F5FAFF" stop-opacity="0.231373"/><stop offset="0.32" stop-color="#FFFFFF" stop-opacity="0"/><stop offset="1" stop-color="#FFFFFF" stop-opacity="0"/></linearGradient><radialGradient cx="94210.5" cy="102524" r="139236" gradientUnits="userSpaceOnUse" spreadMethod="pad" id="fill4" gradientTransform="matrix(0.000360892 0 0 0.000360892 2501 710)"><stop offset="0" stop-color="#C8F9E7"/><stop offset="0.54" stop-color="#59ECB7" stop-opacity="0"/><stop offset="1" stop-color="#59ECB7" stop-opacity="0"/></radialGradient><radialGradient cx="110836" cy="120534" r="163748" gradientUnits="userSpaceOnUse" spreadMethod="pad" id="fill5" gradientTransform="matrix(0.000360892 0 0 0.000360892 2530 755)"><stop offset="0" stop-color="#C8F9E7"/><stop offset="0.54" stop-color="#59ECB7" stop-opacity="0"/><stop offset="1" stop-color="#59ECB7" stop-opacity="0"/></radialGradient><radialGradient cx="292330" cy="278476" r="403740" gradientUnits="userSpaceOnUse" spreadMethod="pad" id="fill6" gradientTransform="matrix(0.000360892 0 0 0.000360892 2820 974)"><stop offset="0" stop-color="#C8F9E7"/><stop offset="0.54" stop-color="#59ECB7" stop-opacity="0"/><stop offset="1" stop-color="#59ECB7" stop-opacity="0"/></radialGradient><radialGradient cx="72044" cy="77585.5" r="105877" fx="72044" fy="77585.5" gradientUnits="userSpaceOnUse" spreadMethod="pad" id="fill7" gradientTransform="matrix(0.000360892 0 0 0.000360892 2965 1102)"><stop offset="0" stop-color="#C8F9E7"/><stop offset="0.54" stop-color="#59ECB7" stop-opacity="0"/><stop offset="1" stop-color="#59ECB7" stop-opacity="0"/></radialGradient><radialGradient cx="77585.5" cy="84513" r="114726" fx="77585.5" fy="84513" gradientUnits="userSpaceOnUse" spreadMethod="pad" id="fill8" gradientTransform="matrix(0.000360892 0 0 0.000360892 2949 1019)"><stop offset="0" stop-color="#C8F9E7"/><stop offset="0.54" stop-color="#59ECB7" stop-opacity="0"/><stop offset="1" stop-color="#59ECB7" stop-opacity="0"/></radialGradient><clipPath id="clip9"><rect x="2502" y="658" width="528" height="526"/></clipPath><clipPath id="clip10"><rect x="2502" y="658" width="528" height="526"/></clipPath><clipPath id="clip11"><rect x="2502" y="658" width="528" height="526"/></clipPath><clipPath id="clip12"><rect x="2580" y="739" width="377" height="378"/></clipPath><clipPath id="clip13"><rect x="2580" y="739" width="377" height="378"/></clipPath><clipPath id="clip14"><rect x="2580" y="739" width="377" height="378"/></clipPath></defs><g clip-path="url(#clip0)" transform="translate(-2490 -646)"><rect x="2490" y="646" width="550" height="550" fill="url(#fill1)"/><path d="M2512 760.5C2512 704.443 2553.64 659 2605 659 2656.36 659 2698 704.443 2698 760.5 2698 816.557 2656.36 862 2605 862 2553.64 862 2512 816.557 2512 760.5Z" fill="url(#fill2)" fill-rule="evenodd"/><path d="M2524.73 652 3002.27 652C3018.14 652 3031 671.864 3031 696.368L3031 806C3031 767.824 3010.96 736.876 2986.23 736.876L2540.77 736.876C2516.04 736.876 2496 767.824 2496 806L2496 696.368C2496 671.864 2508.86 652 2524.73 652Z" fill="url(#fill3)" fill-rule="evenodd"/><path d="M2501 747C2501 726.565 2516.22 710 2535 710 2553.78 710 2569 726.565 2569 747 2569 767.435 2553.78 784 2535 784 2516.22 784 2501 767.435 2501 747Z" fill="url(#fill4)" fill-rule="evenodd"/><path d="M2530 798.5C2530 774.475 2547.91 755 2570 755 2592.09 755 2610 774.475 2610 798.5 2610 822.524 2592.09 842 2570 842 2547.91 842 2530 822.524 2530 798.5Z" fill="url(#fill5)" fill-rule="evenodd"/><path d="M2820 1074.5C2820 1019 2867.23 974 2925.5 974 2983.77 974 3031 1019 3031 1074.5 3031 1130 2983.77 1175 2925.5 1175 2867.23 1175 2820 1130 2820 1074.5Z" fill="url(#fill6)" fill-rule="evenodd"/><path d="M2965 1130C2965 1114.54 2976.64 1102 2991 1102 3005.36 1102 3017 1114.54 3017 1130 3017 1145.46 3005.36 1158 2991 1158 2976.64 1158 2965 1145.46 2965 1130Z" fill="url(#fill7)" fill-rule="evenodd"/><path d="M2949 1049.5C2949 1032.66 2961.54 1019 2977 1019 2992.46 1019 3005 1032.66 3005 1049.5 3005 1066.34 2992.46 1080 2977 1080 2961.54 1080 2949 1066.34 2949 1049.5Z" fill="url(#fill8)" fill-rule="evenodd"/><g clip-path="url(#clip9)"><g clip-path="url(#clip10)"><g clip-path="url(#clip11)"><path d="M198.157 246.339 168.967 453.075C168.296 457.874 164.589 461.676 159.81 462.472 155.032 463.269 150.286 460.884 148.092 456.571L73.9401 311.146C71.9031 307.146 70.8741 302.704 70.9376 298.221L73.9195 99.8852C73.9725 96.1476 76.3547 92.851 79.884 91.612 83.4115 90.373 87.3285 91.4856 89.7019 94.384L189.955 216.993C196.663 225.205 199.645 235.84 198.155 246.34ZM195.006 209.842C202.125 218.546 213.37 222.767 224.448 220.899L473.642 178.993C476.971 178.436 479.618 175.906 480.344 172.62 481.057 169.323 479.692 165.931 476.91 164.041L327.988 63.2192C324.335 60.7412 319.977 59.5022 315.557 59.692L100.18 68.8266C96.4206 68.9837 93.0711 71.2617 91.528 74.6847 89.995 78.1182 90.5319 82.1297 92.914 85.0482ZM488.692 190.689C486.391 187.834 482.737 186.437 479.115 187.046L236.145 227.911C220.301 230.579 208.015 243.199 205.758 259.096L176.819 463.741C176.021 469.381 178.236 475.029 182.657 478.629 187.078 482.221 193.074 483.227 198.428 481.298L400.386 408.344C404.722 406.78 408.188 403.441 409.921 399.157L490.184 200.834C491.549 197.421 490.98 193.547 488.692 190.691Z" fill="#FFFFFF" transform="matrix(1.00191 0 0 1 2503 659)"/></g></g></g><g clip-path="url(#clip12)"><g clip-path="url(#clip13)"><g clip-path="url(#clip14)"><path d="M19826.9 9024.38 19826.9 9016.86C19826.9 9006.33 19808.1 9001.82 19790.4 9001.82 19772.7 9001.82 19753.9 9006.71 19753.9 9016.86L19753.9 9024.38C19753.9 9031.15 19756.5 9037.91 19761.4 9042.8L19780.2 9061.23C19781.4 9062.35 19781.7 9063.48 19781.7 9064.99L19781.7 9089.05C19781.7 9090.55 19782.5 9091.68 19784 9092.06L19794.9 9095.44C19796.8 9095.82 19798.7 9094.69 19798.7 9092.43L19798.7 9065.36C19798.7 9063.86 19799.4 9062.73 19800.2 9061.6L19819.3 9042.8C19824.2 9037.91 19826.9 9031.15 19826.9 9024.38ZM19790.4 9024C19772.3 9024 19762.6 9019.11 19762.2 9017.23L19762.2 9017.23C19762.6 9015.35 19772.3 9010.46 19790.4 9010.46 19808.4 9010.46 19817.8 9015.35 19818.6 9017.23 19817.8 9019.11 19808.4 9024 19790.4 9024Z" fill="#025464" transform="matrix(1 0 0 1.00266 2581 739)"/><path d="M19809.2 9062.73C19806.9 9062.73 19805.4 9064.23 19805.4 9066.49 19805.4 9068.75 19806.9 9070.25 19809.2 9070.25L19825.4 9070.25C19827.6 9070.25 19829.1 9068.75 19829.1 9066.49 19829.1 9064.23 19827.6 9062.73 19825.4 9062.73L19809.2 9062.73Z" fill="#025464" transform="matrix(1 0 0 1.00266 2581 739)"/><path d="M19825.4 9075.51 19809.2 9075.51C19806.9 9075.51 19805.4 9077.02 19805.4 9079.27 19805.4 9081.53 19806.9 9083.03 19809.2 9083.03L19825.4 9083.03C19827.6 9083.03 19829.1 9081.53 19829.1 9079.27 19829.1 9077.02 19827.6 9075.51 19825.4 9075.51Z" fill="#025464" transform="matrix(1 0 0 1.00266 2581 739)"/><path d="M19825.4 9087.92 19809.2 9087.92C19806.9 9087.92 19805.4 9089.43 19805.4 9091.68 19805.4 9093.94 19806.9 9095.44 19809.2 9095.44L19825.4 9095.44C19827.6 9095.44 19829.1 9093.94 19829.1 9091.68 19829.1 9089.8 19827.6 9087.92 19825.4 9087.92Z" fill="#025464" transform="matrix(1 0 0 1.00266 2581 739)"/><path d="M187.624 108.288C184.616 111.296 184.616 115.808 187.624 118.816 203.416 134.608 212.064 155.664 212.064 178.224 212.064 200.784 203.416 221.84 187.624 237.632 184.616 240.64 184.616 245.152 187.624 248.16 189.128 249.664 191.008 250.416 192.888 250.416 194.768 250.416 196.648 249.664 198.152 248.16 216.952 229.36 227.104 204.92 227.104 178.6 227.104 152.28 216.952 127.464 198.152 109.04 195.144 105.656 190.256 105.656 187.624 108.288Z" fill="#025464" transform="matrix(1 0 0 1.00266 2581 739)"/><path d="M177.472 128.968C174.464 125.96 169.952 125.96 166.944 128.968 163.936 131.976 163.936 136.488 166.944 139.496 177.472 150.024 183.112 163.56 183.112 178.224 183.112 192.888 177.096 206.8 166.944 216.952 163.936 219.96 163.936 224.472 166.944 227.48 168.448 228.984 170.328 229.736 172.208 229.736 174.088 229.736 175.968 228.984 177.472 227.48 190.632 214.696 197.776 196.648 197.776 178.224 197.776 159.424 190.632 142.128 177.472 128.968Z" fill="#025464" transform="matrix(1 0 0 1.00266 2581 739)"/><path d="M157.168 149.272C154.16 146.264 149.648 146.264 146.64 149.272 143.632 152.28 143.632 156.792 146.64 159.8 151.528 164.688 154.16 171.08 154.16 178.224 154.16 184.992 151.528 191.76 146.64 196.648 143.632 199.656 143.632 204.168 146.64 207.176 148.144 208.68 150.024 209.432 151.904 209.432 153.784 209.432 155.664 208.68 157.168 207.176 164.688 199.656 169.2 189.128 169.2 178.6 168.824 167.32 164.688 157.168 157.168 149.272Z" fill="#025464" transform="matrix(1 0 0 1.00266 2581 739)"/><path d="M78.208 125.96C50.384 125.96 27.448 147.392 25.192 174.464 25.192 175.968 24.816 177.096 24.064 178.6L10.528 199.28C7.896 203.416 10.904 208.68 15.416 208.68L23.312 208.68C24.44 208.68 25.192 209.432 25.192 210.56L25.192 231.992C25.192 236.88 29.328 241.016 34.216 241.016L50.384 241.016C51.888 241.016 53.016 242.144 53.016 243.648L53.016 265.456C53.016 268.088 55.272 270.344 57.904 269.968L103.776 265.832C106.032 265.456 107.912 263.576 107.912 261.32L107.912 230.864C107.912 228.984 109.04 227.104 110.544 225.6 123.704 214.32 131.976 197.4 131.976 179.728 131.6 150.024 107.912 125.96 78.208 125.96Z" fill="#025464" transform="matrix(1 0 0 1.00266 2581 739)"/><path d="M365.472 199.656 351.936 178.976C351.184 177.848 350.808 176.344 350.808 174.84 348.552 147.768 325.616 126.336 297.792 126.336 268.464 126.336 244.4 150.4 244.4 179.728 244.4 197.4 252.672 214.32 265.832 225.6 267.336 227.104 268.464 228.984 268.464 230.864L268.464 261.32C268.464 263.576 270.344 265.832 272.6 265.832L318.472 269.968C321.104 270.344 323.36 268.088 323.36 265.456L323.36 243.648C323.36 242.144 324.488 241.016 325.992 241.016L342.16 241.016C347.048 241.016 351.184 236.88 351.184 231.992L351.184 210.56C351.184 209.432 351.936 208.68 353.064 208.68L360.96 208.68C365.472 208.68 368.104 203.416 365.472 199.656Z" fill="#025464" transform="matrix(1 0 0 1.00266 2581 739)"/></g></g></g></g></svg>