<svg width="550" height="550" xmlns="http://www.w3.org/2000/svg" xmlns:xlink="http://www.w3.org/1999/xlink" overflow="hidden"><defs><clipPath id="clip0"><rect x="47" y="646" width="550" height="550"/></clipPath><radialGradient cx="762000" cy="762000" r="1.07763e+06" gradientUnits="userSpaceOnUse" spreadMethod="pad" id="fill1" gradientTransform="matrix(0.000360892 0 0 0.000360892 47.0001 646)"><stop offset="0" stop-color="#D4F7F5"/><stop offset="0.17" stop-color="#D4F7F5"/><stop offset="0.33" stop-color="#1FA09A"/><stop offset="1" stop-color="#0F1113"/></radialGradient><radialGradient cx="257695" cy="281248" r="381453" fx="257694" fy="281248" gradientUnits="userSpaceOnUse" spreadMethod="pad" id="fill2" gradientTransform="matrix(0.000360892 0 0 0.000360892 69.0001 659)"><stop offset="0" stop-color="#C8F9E7"/><stop offset="0.54" stop-color="#59ECB7" stop-opacity="0"/><stop offset="1" stop-color="#59ECB7" stop-opacity="0"/></radialGradient><linearGradient x1="320.5" y1="652" x2="320.5" y2="806" gradientUnits="userSpaceOnUse" spreadMethod="reflect" id="fill3"><stop offset="0" stop-color="#F5FAFF" stop-opacity="0.231373"/><stop offset="0.32" stop-color="#FFFFFF" stop-opacity="0"/><stop offset="1" stop-color="#FFFFFF" stop-opacity="0"/></linearGradient><radialGradient cx="94211" cy="102524" r="139237" fx="94211" fy="102524" gradientUnits="userSpaceOnUse" spreadMethod="pad" id="fill4" gradientTransform="matrix(0.000360892 0 0 0.000360892 58.0001 710)"><stop offset="0" stop-color="#C8F9E7"/><stop offset="0.54" stop-color="#59ECB7" stop-opacity="0"/><stop offset="1" stop-color="#59ECB7" stop-opacity="0"/></radialGradient><radialGradient cx="112222" cy="120534" r="164689" gradientUnits="userSpaceOnUse" spreadMethod="pad" id="fill5" gradientTransform="matrix(0.000360892 0 0 0.000360892 87 755)"><stop offset="0" stop-color="#C8F9E7"/><stop offset="0.54" stop-color="#59ECB7" stop-opacity="0"/><stop offset="1" stop-color="#59ECB7" stop-opacity="0"/></radialGradient><radialGradient cx="292331" cy="278477" r="403741" fx="292331" fy="278476" gradientUnits="userSpaceOnUse" spreadMethod="pad" id="fill6" gradientTransform="matrix(0.000360892 0 0 0.000360892 377 974)"><stop offset="0" stop-color="#C8F9E7"/><stop offset="0.54" stop-color="#59ECB7" stop-opacity="0"/><stop offset="1" stop-color="#59ECB7" stop-opacity="0"/></radialGradient><radialGradient cx="72043.5" cy="77585.5" r="105876" fx="72043.5" fy="77585.5" gradientUnits="userSpaceOnUse" spreadMethod="pad" id="fill7" gradientTransform="matrix(0.000360892 0 0 0.000360892 522 1102)"><stop offset="0" stop-color="#C8F9E7"/><stop offset="0.54" stop-color="#59ECB7" stop-opacity="0"/><stop offset="1" stop-color="#59ECB7" stop-opacity="0"/></radialGradient><radialGradient cx="77585.5" cy="84513" r="114726" fx="77585.5" fy="84513" gradientUnits="userSpaceOnUse" spreadMethod="pad" id="fill8" gradientTransform="matrix(0.000360892 0 0 0.000360892 506 1019)"><stop offset="0" stop-color="#C8F9E7"/><stop offset="0.54" stop-color="#59ECB7" stop-opacity="0"/><stop offset="1" stop-color="#59ECB7" stop-opacity="0"/></radialGradient><clipPath id="clip9"><rect x="60" y="658" width="527" height="526"/></clipPath><clipPath id="clip10"><rect x="60" y="658" width="527" height="526"/></clipPath><clipPath id="clip11"><rect x="60" y="658" width="527" height="526"/></clipPath><clipPath id="clip12"><rect x="118" y="708" width="401" height="400"/></clipPath><clipPath id="clip13"><rect x="118" y="708" width="401" height="400"/></clipPath><clipPath id="clip14"><rect x="118" y="708" width="401" height="400"/></clipPath></defs><g clip-path="url(#clip0)" transform="translate(-47 -646)"><rect x="47.0001" y="646" width="550" height="550" fill="url(#fill1)"/><path d="M69.0001 760.5C69.0001 704.443 110.638 659 162 659 213.363 659 255 704.443 255 760.5 255 816.557 213.363 862 162 862 110.638 862 69.0001 816.557 69.0001 760.5Z" fill="url(#fill2)" fill-rule="evenodd"/><path d="M81.7337 652 559.266 652C575.136 652 588 671.864 588 696.368L588 806C588 767.824 567.957 736.876 543.233 736.876L97.7667 736.876C73.0427 736.876 52.9999 767.824 52.9999 806L52.9999 696.368C52.9999 671.864 65.8644 652 81.7337 652Z" fill="url(#fill3)" fill-rule="evenodd"/><path d="M58.0001 747C58.0001 726.565 73.2224 710 92.0001 710 110.778 710 126 726.565 126 747 126 767.435 110.778 784 92.0001 784 73.2224 784 58.0001 767.435 58.0001 747Z" fill="url(#fill4)" fill-rule="evenodd"/><path d="M87 798.5C87 774.475 105.132 755 127.5 755 149.868 755 168 774.475 168 798.5 168 822.524 149.868 842 127.5 842 105.132 842 87 822.524 87 798.5Z" fill="url(#fill5)" fill-rule="evenodd"/><path d="M377 1074.5C377 1019 424.234 974 482.5 974 540.766 974 588 1019 588 1074.5 588 1130 540.766 1175 482.5 1175 424.234 1175 377 1130 377 1074.5Z" fill="url(#fill6)" fill-rule="evenodd"/><path d="M522 1130C522 1114.54 533.641 1102 548 1102 562.359 1102 574 1114.54 574 1130 574 1145.46 562.359 1158 548 1158 533.641 1158 522 1145.46 522 1130Z" fill="url(#fill7)" fill-rule="evenodd"/><path d="M506 1049.5C506 1032.66 518.536 1019 534 1019 549.464 1019 562 1032.66 562 1049.5 562 1066.34 549.464 1080 534 1080 518.536 1080 506 1066.34 506 1049.5Z" fill="url(#fill8)" fill-rule="evenodd"/><g clip-path="url(#clip9)"><g clip-path="url(#clip10)"><g clip-path="url(#clip11)"><path d="M259.157 905.339 229.967 1112.07C229.296 1116.87 225.589 1120.68 220.81 1121.47 216.032 1122.27 211.286 1119.88 209.092 1115.57L134.94 970.146C132.903 966.145 131.874 961.704 131.937 957.221L134.919 758.885C134.972 755.148 137.355 751.851 140.884 750.612 144.411 749.373 148.328 750.486 150.702 753.384L250.955 875.993C257.663 884.205 260.645 894.84 259.155 905.34ZM256.005 868.842C263.125 877.546 274.37 881.767 285.448 879.898L534.642 837.993C537.971 837.436 540.618 834.906 541.344 831.62 542.058 828.323 540.693 824.931 537.91 823.041L388.988 722.219C385.335 719.741 380.977 718.502 376.557 718.692L161.18 727.827C157.421 727.984 154.071 730.262 152.528 733.685 150.995 737.118 151.532 741.13 153.914 744.048ZM549.692 849.689C547.391 846.833 543.738 845.437 540.115 846.046L297.145 886.911C281.301 889.579 269.015 902.199 266.758 918.096L237.819 1122.74C237.021 1128.38 239.236 1134.03 243.657 1137.63 248.078 1141.22 254.073 1142.23 259.428 1140.3L461.386 1067.34C465.722 1065.78 469.188 1062.44 470.921 1058.16L551.184 859.834C552.549 856.421 551.98 852.547 549.692 849.691Z" fill="#FFFFFF"/></g></g></g><g clip-path="url(#clip12)"><g clip-path="url(#clip13)"><g clip-path="url(#clip14)"><path d="M346.713 222.456C346.685 222.289 304.558 115.923 304.558 115.923 304.344 115.395 303.973 114.968 303.491 114.68 303.092 114.457 297.023 110.987 287.781 108.389L281.926 93.8949C281.731 93.4217 281.397 93.0134 280.961 92.7258 271.617 86.7686 262.7 83.7529 254.441 83.7529 234.835 83.7529 225.955 100.381 225.584 101.095 225.398 101.448 225.305 101.847 225.305 102.246L225.305 123.959C222.568 126.771 219.914 129.796 217.455 133.247 217.158 133.674 216.991 134.185 216.991 134.704L216.991 162.161 182.037 162.161 182.037 134.704C182.037 134.175 181.87 133.674 181.573 133.247 179.105 129.796 176.46 126.771 173.714 123.959L173.714 102.246C173.714 101.847 173.621 101.457 173.435 101.095 173.064 100.381 164.184 83.7529 144.577 83.7529 136.328 83.7529 127.402 86.7686 118.058 92.7258 117.622 93.0134 117.287 93.4217 117.093 93.8949L111.247 108.389C101.996 110.978 95.9363 114.448 95.5373 114.68 95.0548 114.968 94.6837 115.395 94.4702 115.923 94.4702 115.923 52.334 222.299 52.3061 222.456 48.5295 230.715 46.3954 239.873 46.3954 249.524 46.3954 285.768 75.8843 315.256 112.128 315.256 148.372 315.256 177.861 285.768 177.861 249.524 177.861 247.9 177.731 246.304 177.62 244.717 182.195 252.057 190.212 257.002 199.5 257.002 208.788 257.002 216.806 252.057 221.38 244.717 221.259 246.304 221.139 247.9 221.139 249.524 221.139 285.768 250.628 315.256 286.863 315.256 323.116 315.256 352.595 285.768 352.595 249.524 352.605 239.873 350.471 230.715 346.713 222.456ZM112.128 295.279C86.8892 295.279 66.3546 274.744 66.3546 249.514 66.3546 224.275 86.8892 203.741 112.128 203.741 137.358 203.741 157.893 224.275 157.893 249.514 157.893 274.744 137.367 295.279 112.128 295.279ZM199.5 242.026C193.413 242.026 188.477 237.099 188.477 231.003 188.477 224.906 193.413 219.979 199.5 219.979 205.587 219.979 210.524 224.906 210.524 231.003 210.524 237.099 205.587 242.026 199.5 242.026ZM286.872 295.279C261.642 295.279 241.117 274.744 241.117 249.514 241.117 224.275 261.642 203.741 286.872 203.741 312.111 203.741 332.645 224.275 332.645 249.514 332.636 274.744 312.102 295.279 286.872 295.279Z" fill="#025464" transform="matrix(1 0 0 1.00251 119 708)"/><path d="M124.627 219.088C122.001 218.207 119.218 219.626 118.345 222.215 117.454 224.813 118.846 227.643 121.444 228.544 122.066 228.766 136.783 234.111 136.783 252.53 136.783 255.295 139.019 257.522 141.775 257.522 144.531 257.522 146.776 255.295 146.776 252.53 146.767 231.912 132.282 221.64 124.627 219.088Z" fill="#025464" transform="matrix(1 0 0 1.00251 119 708)"/><path d="M299.38 219.088C296.763 218.207 293.97 219.626 293.079 222.215 292.198 224.813 293.59 227.643 296.179 228.544 296.8 228.766 311.517 234.111 311.517 252.53 311.517 255.295 313.753 257.522 316.509 257.522 319.265 257.522 321.501 255.295 321.501 252.53 321.501 231.912 307.026 221.64 299.38 219.088Z" fill="#025464" transform="matrix(1 0 0 1.00251 119 708)"/></g></g></g></g></svg>