<svg width="550" height="550" xmlns="http://www.w3.org/2000/svg" xmlns:xlink="http://www.w3.org/1999/xlink" overflow="hidden"><defs><clipPath id="clip0"><rect x="661" y="646" width="550" height="550"/></clipPath><radialGradient cx="762000" cy="762000" r="1.07763e+06" gradientUnits="userSpaceOnUse" spreadMethod="pad" id="fill1" gradientTransform="matrix(0.000360892 0 0 0.000360892 661 646)"><stop offset="0" stop-color="#D4F7F5"/><stop offset="0.17" stop-color="#D4F7F5"/><stop offset="0.33" stop-color="#1FA09A"/><stop offset="1" stop-color="#0F1113"/></radialGradient><radialGradient cx="257695" cy="281248" r="381453" fx="257694" fy="281248" gradientUnits="userSpaceOnUse" spreadMethod="pad" id="fill2" gradientTransform="matrix(0.000360892 0 0 0.000360892 683 659)"><stop offset="0" stop-color="#C8F9E7"/><stop offset="0.54" stop-color="#59ECB7" stop-opacity="0"/><stop offset="1" stop-color="#59ECB7" stop-opacity="0"/></radialGradient><linearGradient x1="934.5" y1="652" x2="934.5" y2="806" gradientUnits="userSpaceOnUse" spreadMethod="reflect" id="fill3"><stop offset="0" stop-color="#F5FAFF" stop-opacity="0.231373"/><stop offset="0.32" stop-color="#FFFFFF" stop-opacity="0"/><stop offset="1" stop-color="#FFFFFF" stop-opacity="0"/></linearGradient><radialGradient cx="94211" cy="102524" r="139237" fx="94211" fy="102524" gradientUnits="userSpaceOnUse" spreadMethod="pad" id="fill4" gradientTransform="matrix(0.000360892 0 0 0.000360892 672 710)"><stop offset="0" stop-color="#C8F9E7"/><stop offset="0.54" stop-color="#59ECB7" stop-opacity="0"/><stop offset="1" stop-color="#59ECB7" stop-opacity="0"/></radialGradient><radialGradient cx="110836" cy="120534" r="163748" gradientUnits="userSpaceOnUse" spreadMethod="pad" id="fill5" gradientTransform="matrix(0.000360892 0 0 0.000360892 701 755)"><stop offset="0" stop-color="#C8F9E7"/><stop offset="0.54" stop-color="#59ECB7" stop-opacity="0"/><stop offset="1" stop-color="#59ECB7" stop-opacity="0"/></radialGradient><radialGradient cx="292331" cy="278477" r="403741" fx="292331" fy="278476" gradientUnits="userSpaceOnUse" spreadMethod="pad" id="fill6" gradientTransform="matrix(0.000360892 0 0 0.000360892 991 974)"><stop offset="0" stop-color="#C8F9E7"/><stop offset="0.54" stop-color="#59ECB7" stop-opacity="0"/><stop offset="1" stop-color="#59ECB7" stop-opacity="0"/></radialGradient><radialGradient cx="72043.5" cy="77585.5" r="105876" fx="72043.5" fy="77585.5" gradientUnits="userSpaceOnUse" spreadMethod="pad" id="fill7" gradientTransform="matrix(0.000360892 0 0 0.000360892 1136 1102)"><stop offset="0" stop-color="#C8F9E7"/><stop offset="0.54" stop-color="#59ECB7" stop-opacity="0"/><stop offset="1" stop-color="#59ECB7" stop-opacity="0"/></radialGradient><radialGradient cx="77585.5" cy="84513" r="114726" fx="77585.5" fy="84513" gradientUnits="userSpaceOnUse" spreadMethod="pad" id="fill8" gradientTransform="matrix(0.000360892 0 0 0.000360892 1120 1019)"><stop offset="0" stop-color="#C8F9E7"/><stop offset="0.54" stop-color="#59ECB7" stop-opacity="0"/><stop offset="1" stop-color="#59ECB7" stop-opacity="0"/></radialGradient><clipPath id="clip9"><rect x="674" y="658" width="525" height="526"/></clipPath><clipPath id="clip10"><rect x="674" y="658" width="525" height="526"/></clipPath><clipPath id="clip11"><rect x="674" y="658" width="525" height="526"/></clipPath><clipPath id="clip12"><rect x="768" y="762" width="345" height="344"/></clipPath><clipPath id="clip13"><rect x="768" y="762" width="345" height="344"/></clipPath><clipPath id="clip14"><rect x="768" y="762" width="345" height="344"/></clipPath></defs><g clip-path="url(#clip0)" transform="translate(-661 -646)"><rect x="661" y="646" width="550" height="550" fill="url(#fill1)"/><path d="M683 760.5C683 704.443 724.638 659 776 659 827.362 659 869 704.443 869 760.5 869 816.557 827.362 862 776 862 724.638 862 683 816.557 683 760.5Z" fill="url(#fill2)" fill-rule="evenodd"/><path d="M695.734 652 1173.27 652C1189.14 652 1202 671.864 1202 696.368L1202 806C1202 767.824 1181.96 736.876 1157.23 736.876L711.767 736.876C687.043 736.876 667 767.824 667 806L667 696.368C667 671.864 679.864 652 695.734 652Z" fill="url(#fill3)" fill-rule="evenodd"/><path d="M672 747C672 726.565 687.222 710 706 710 724.778 710 740 726.565 740 747 740 767.435 724.778 784 706 784 687.222 784 672 767.435 672 747Z" fill="url(#fill4)" fill-rule="evenodd"/><path d="M701 798.5C701 774.475 718.909 755 741 755 763.091 755 781 774.475 781 798.5 781 822.524 763.091 842 741 842 718.909 842 701 822.524 701 798.5Z" fill="url(#fill5)" fill-rule="evenodd"/><path d="M991 1074.5C991 1019 1038.23 974 1096.5 974 1154.77 974 1202 1019 1202 1074.5 1202 1130 1154.77 1175 1096.5 1175 1038.23 1175 991 1130 991 1074.5Z" fill="url(#fill6)" fill-rule="evenodd"/><path d="M1136 1130C1136 1114.54 1147.64 1102 1162 1102 1176.36 1102 1188 1114.54 1188 1130 1188 1145.46 1176.36 1158 1162 1158 1147.64 1158 1136 1145.46 1136 1130Z" fill="url(#fill7)" fill-rule="evenodd"/><path d="M1120 1049.5C1120 1032.66 1132.54 1019 1148 1019 1163.46 1019 1176 1032.66 1176 1049.5 1176 1066.34 1163.46 1080 1148 1080 1132.54 1080 1120 1066.34 1120 1049.5Z" fill="url(#fill8)" fill-rule="evenodd"/><g clip-path="url(#clip9)"><g clip-path="url(#clip10)"><g clip-path="url(#clip11)"><path d="M872.157 905.339 842.967 1112.07C842.296 1116.87 838.589 1120.68 833.811 1121.47 829.032 1122.27 824.286 1119.88 822.092 1115.57L747.94 970.146C745.903 966.145 744.874 961.704 744.938 957.221L747.92 758.885C747.973 755.148 750.355 751.851 753.884 750.612 757.412 749.373 761.329 750.486 763.702 753.384L863.955 875.993C870.663 884.205 873.645 894.84 872.155 905.34ZM869.006 868.842C876.125 877.546 887.371 881.767 898.448 879.898L1147.64 837.993C1150.97 837.436 1153.62 834.906 1154.34 831.62 1155.06 828.323 1153.69 824.931 1150.91 823.041L1001.99 722.219C998.335 719.741 993.977 718.502 989.557 718.692L774.181 727.827C770.421 727.984 767.071 730.262 765.528 733.685 763.995 737.118 764.532 741.13 766.914 744.048ZM1162.69 849.689C1160.39 846.833 1156.74 845.437 1153.11 846.046L910.145 886.911C894.301 889.579 882.015 902.199 879.758 918.096L850.819 1122.74C850.021 1128.38 852.236 1134.03 856.657 1137.63 861.078 1141.22 867.074 1142.23 872.428 1140.3L1074.39 1067.34C1078.72 1065.78 1082.19 1062.44 1083.92 1058.16L1164.18 859.834C1165.55 856.421 1164.98 852.547 1162.69 849.691Z" fill="#FFFFFF"/></g></g></g><g clip-path="url(#clip12)"><g clip-path="url(#clip13)"><g clip-path="url(#clip14)"><path d="M1092.57 918.12C1092.57 891.541 1071.02 869.987 1044.43 869.987 1028.33 869.987 1015.24 875.478 1006.82 888.745 1001.33 897.386 998.165 910.625 996.303 914.484 991.566 924.267 993.658 928.997 957.557 931.199 949.123 931.713 941.505 931.888 939.409 931.946 940.133 931.964 940.195 931.974 939.409 931.974 938.631 931.974 938.696 931.964 939.409 931.946 937.324 931.888 929.699 931.717 921.261 931.199 885.167 928.997 887.256 924.267 882.523 914.484 880.657 910.625 877.487 897.386 872.01 888.745 863.582 875.478 850.493 869.987 834.389 869.987 807.807 869.987 786.256 891.541 786.256 918.12 786.256 944.706 805.375 949.673 823.496 950.431 824.099 950.455 824.727 950.472 825.365 950.472 843.493 950.472 870.137 940.343 888.728 938.213 897.066 937.259 908.748 937.054 919.279 937.054 927.353 937.054 934.748 937.177 939.409 937.177 944.074 937.177 951.462 937.054 959.543 937.054 970.067 937.054 981.756 937.259 990.091 938.213 1008.69 940.343 1035.33 950.472 1053.46 950.472 1054.1 950.472 1054.72 950.455 1055.33 950.431 1073.45 949.673 1092.57 944.706 1092.57 918.12Z" fill="#025464"/><path d="M817.504 977.943C811.134 977.943 807.831 974.677 805.667 971.827 804.881 970.795 805.084 969.327 806.116 968.548 807.142 967.766 808.61 967.961 809.392 969.004 810.966 971.066 813.017 973.264 817.507 973.264 821.997 973.264 824.051 971.062 825.619 969.004 826.401 967.961 827.869 967.769 828.898 968.548 829.93 969.33 830.126 970.798 829.347 971.827 827.173 974.677 823.873 977.943 817.504 977.943Z" fill="#025464"/><path d="M855.566 977.943C849.2 977.943 845.894 974.677 843.733 971.827 842.947 970.798 843.15 969.327 844.182 968.548 845.204 967.766 846.679 967.961 847.458 969.004 849.029 971.066 851.083 973.264 855.57 973.264 860.06 973.264 862.114 971.062 863.685 969.004 864.467 967.961 865.932 967.769 866.964 968.548 867.997 969.327 868.192 970.795 867.414 971.827 865.239 974.677 861.943 977.943 855.566 977.943Z" fill="#025464"/><path d="M1025.43 977.943C1019.06 977.943 1015.76 974.677 1013.59 971.827 1012.81 970.798 1013.01 969.327 1014.04 968.548 1015.07 967.766 1016.54 967.961 1017.31 969.004 1018.89 971.066 1020.95 973.264 1025.43 973.264 1029.93 973.264 1031.97 971.062 1033.54 969.004 1034.32 967.961 1035.79 967.769 1036.82 968.548 1037.85 969.33 1038.05 970.798 1037.27 971.827 1035.1 974.677 1031.8 977.943 1025.43 977.943Z" fill="#025464"/><path d="M1063.5 977.943C1057.12 977.943 1053.82 974.677 1051.65 971.827 1050.87 970.798 1051.08 969.327 1052.1 968.548 1053.13 967.769 1054.6 967.961 1055.38 969.004 1056.95 971.066 1059.01 973.264 1063.5 973.264 1067.98 973.264 1070.04 971.062 1071.6 969.004 1072.39 967.961 1073.85 967.776 1074.88 968.548 1075.91 969.33 1076.11 970.795 1075.33 971.827 1073.17 974.677 1069.87 977.943 1063.5 977.943Z" fill="#025464"/><path d="M890.13 940.683C887.249 951.95 882.389 963.729 876.157 973.899 860.385 999.617 844.563 1003.46 836.533 1003.46 828.507 1003.46 812.681 999.617 796.917 973.899 786.651 957.153 780.024 936.021 780.024 920.055 780.024 888.896 805.375 863.545 836.537 863.545 867.702 863.545 893.049 888.896 893.049 920.055 893.049 921.375 892.933 922.771 892.847 924.15 894.095 924.713 895.625 925.22 897.45 925.676 897.608 923.759 897.724 921.866 897.724 920.051 897.724 886.314 870.278 858.86 836.533 858.86 802.792 858.86 775.342 886.314 775.342 920.051 775.342 936.824 782.247 958.913 792.924 976.337 805.495 996.842 820.982 1008.13 836.53 1008.13 852.078 1008.13 867.564 996.842 880.139 976.337 886.882 965.337 892.109 952.475 895.052 940.261 893.262 940.388 891.633 940.525 890.13 940.683Z" fill="#025464"/><path d="M1044.46 858.863C1010.72 858.863 983.272 886.317 983.272 920.055 983.272 921.667 983.392 923.365 983.512 925.066 984.442 924.771 985.299 924.462 986.026 924.136 986.836 923.769 987.501 923.375 988.095 922.956 988.05 921.992 987.954 920.994 987.954 920.055 987.954 888.896 1013.3 863.545 1044.46 863.545 1075.62 863.545 1100.98 888.896 1100.98 920.055 1100.98 936.021 1094.34 957.15 1084.08 973.895 1068.31 999.613 1052.5 1003.46 1044.46 1003.46 1036.44 1003.46 1020.61 999.613 1004.84 973.895 998.656 963.815 993.836 952.146 990.945 940.964 990.571 940.916 990.163 940.833 989.792 940.789 988.63 940.655 987.33 940.542 985.975 940.429 988.925 952.592 994.135 965.385 1000.85 976.341 1013.42 996.845 1028.91 1008.14 1044.46 1008.14 1060.01 1008.14 1075.5 996.845 1088.07 976.341 1098.75 958.916 1105.66 936.824 1105.66 920.055 1105.65 886.317 1078.2 858.863 1044.46 858.863Z" fill="#025464"/></g></g></g></g></svg>