<svg width="553" height="554" xmlns="http://www.w3.org/2000/svg" xmlns:xlink="http://www.w3.org/1999/xlink" overflow="hidden"><defs><clipPath id="clip0"><rect x="2408" y="647" width="553" height="554"/></clipPath><radialGradient cx="762000" cy="762000" r="1.07763e+06" gradientUnits="userSpaceOnUse" spreadMethod="pad" id="fill1" gradientTransform="matrix(0.000360892 0 0 0.000360892 2411 647)"><stop offset="0" stop-color="#D9D9D9"/><stop offset="0.17" stop-color="#D9D9D9"/><stop offset="0.33" stop-color="#7F7F7F"/><stop offset="1" stop-color="#0F1113"/></radialGradient><radialGradient cx="257695" cy="282633" r="382476" fx="257694" fy="282633" gradientUnits="userSpaceOnUse" spreadMethod="pad" id="fill2" gradientTransform="matrix(0.000360892 0 0 0.000360892 2431 657)"><stop offset="0" stop-color="#FFFFFF"/><stop offset="0.54" stop-color="#7F7F7F" stop-opacity="0"/><stop offset="1" stop-color="#7F7F7F" stop-opacity="0"/></radialGradient><linearGradient x1="2682.5" y1="650" x2="2682.5" y2="805" gradientUnits="userSpaceOnUse" spreadMethod="reflect" id="fill3"><stop offset="0" stop-color="#F5FAFF" stop-opacity="0.231373"/><stop offset="0.32" stop-color="#FFFFFF" stop-opacity="0"/><stop offset="1" stop-color="#FFFFFF" stop-opacity="0"/></linearGradient><radialGradient cx="94211" cy="102524" r="139236" gradientUnits="userSpaceOnUse" spreadMethod="pad" id="fill4" gradientTransform="matrix(0.000360892 0 0 0.000360892 2420 708)"><stop offset="0" stop-color="#FFFFFF"/><stop offset="0.54" stop-color="#7F7F7F" stop-opacity="0"/><stop offset="1" stop-color="#7F7F7F" stop-opacity="0"/></radialGradient><radialGradient cx="110836" cy="121920" r="164770" fx="110836" fy="121920" gradientUnits="userSpaceOnUse" spreadMethod="pad" id="fill5" gradientTransform="matrix(0.000360892 0 0 0.000360892 2449 753)"><stop offset="0" stop-color="#FFFFFF"/><stop offset="0.54" stop-color="#7F7F7F" stop-opacity="0"/><stop offset="1" stop-color="#7F7F7F" stop-opacity="0"/></radialGradient><radialGradient cx="292331" cy="278476" r="403740" gradientUnits="userSpaceOnUse" spreadMethod="pad" id="fill6" gradientTransform="matrix(0.000360892 0 0 0.000360892 2739 972)"><stop offset="0" stop-color="#FFFFFF"/><stop offset="0.54" stop-color="#7F7F7F" stop-opacity="0"/><stop offset="1" stop-color="#7F7F7F" stop-opacity="0"/></radialGradient><radialGradient cx="72043.5" cy="77585.5" r="105876" fx="72043.5" fy="77585.5" gradientUnits="userSpaceOnUse" spreadMethod="pad" id="fill7" gradientTransform="matrix(0.000360892 0 0 0.000360892 2884 1100)"><stop offset="0" stop-color="#FFFFFF"/><stop offset="0.54" stop-color="#7F7F7F" stop-opacity="0"/><stop offset="1" stop-color="#7F7F7F" stop-opacity="0"/></radialGradient><radialGradient cx="77585.5" cy="84512.5" r="114725" gradientUnits="userSpaceOnUse" spreadMethod="pad" id="fill8" gradientTransform="matrix(0.000360892 0 0 0.000360892 2868 1017)"><stop offset="0" stop-color="#FFFFFF"/><stop offset="0.54" stop-color="#7F7F7F" stop-opacity="0"/><stop offset="1" stop-color="#7F7F7F" stop-opacity="0"/></radialGradient><clipPath id="clip9"><rect x="2423" y="658" width="525" height="526"/></clipPath><clipPath id="clip10"><rect x="2423" y="658" width="525" height="526"/></clipPath><clipPath id="clip11"><rect x="2423" y="658" width="525" height="526"/></clipPath><clipPath id="clip12"><rect x="2425" y="1061" width="123" height="122"/></clipPath><clipPath id="clip13"><rect x="2425" y="1061" width="123" height="122"/></clipPath><clipPath id="clip14"><rect x="2425" y="1061" width="123" height="122"/></clipPath><clipPath id="clip15"><path d="M2711.53 661.454 2947.5 964.815 2644.14 1200.78 2408.17 897.422Z" fill-rule="evenodd" clip-rule="evenodd"/></clipPath><clipPath id="clip16"><path d="M2711.53 661.454 2947.5 964.815 2644.14 1200.78 2408.17 897.422Z" fill-rule="evenodd" clip-rule="evenodd"/></clipPath><clipPath id="clip17"><path d="M2711.53 661.454 2947.5 964.815 2644.14 1200.78 2408.17 897.422Z" fill-rule="evenodd" clip-rule="evenodd"/></clipPath></defs><g clip-path="url(#clip0)" transform="translate(-2408 -647)"><rect x="2411" y="647" width="550" height="550" fill="url(#fill1)"/><path d="M2431 759C2431 702.667 2472.64 657 2524 657 2575.36 657 2617 702.667 2617 759 2617 815.333 2575.36 861 2524 861 2472.64 861 2431 815.333 2431 759Z" fill="url(#fill2)" fill-rule="evenodd"/><path d="M2443.73 650 2921.27 650C2937.14 650 2950 669.993 2950 694.656L2950 805C2950 766.576 2929.96 735.427 2905.23 735.427L2459.77 735.427C2435.04 735.427 2415 766.576 2415 805L2415 694.656C2415 669.993 2427.86 650 2443.73 650Z" fill="url(#fill3)" fill-rule="evenodd"/><path d="M2420 745C2420 724.566 2435.22 708 2454 708 2472.78 708 2488 724.566 2488 745 2488 765.435 2472.78 782 2454 782 2435.22 782 2420 765.435 2420 745Z" fill="url(#fill4)" fill-rule="evenodd"/><path d="M2449 797C2449 772.7 2466.91 753 2489 753 2511.09 753 2529 772.7 2529 797 2529 821.301 2511.09 841 2489 841 2466.91 841 2449 821.301 2449 797Z" fill="url(#fill5)" fill-rule="evenodd"/><path d="M2739 1072.5C2739 1017 2786.23 972 2844.5 972 2902.77 972 2950 1017 2950 1072.5 2950 1128 2902.77 1173 2844.5 1173 2786.23 1173 2739 1128 2739 1072.5Z" fill="url(#fill6)" fill-rule="evenodd"/><path d="M2884 1128C2884 1112.54 2895.64 1100 2910 1100 2924.36 1100 2936 1112.54 2936 1128 2936 1143.46 2924.36 1156 2910 1156 2895.64 1156 2884 1143.46 2884 1128Z" fill="url(#fill7)" fill-rule="evenodd"/><path d="M2868 1047.5C2868 1030.66 2880.54 1017 2896 1017 2911.46 1017 2924 1030.66 2924 1047.5 2924 1064.34 2911.46 1078 2896 1078 2880.54 1078 2868 1064.34 2868 1047.5Z" fill="url(#fill8)" fill-rule="evenodd"/><g clip-path="url(#clip9)"><g clip-path="url(#clip10)"><g clip-path="url(#clip11)"><path d="M2621.16 905.339 2591.97 1112.07C2591.3 1116.87 2587.59 1120.68 2582.81 1121.47 2578.03 1122.27 2573.29 1119.88 2571.09 1115.57L2496.94 970.146C2494.9 966.145 2493.87 961.704 2493.94 957.221L2496.92 758.885C2496.97 755.148 2499.35 751.851 2502.88 750.612 2506.41 749.373 2510.33 750.486 2512.7 753.384L2612.96 875.993C2619.66 884.205 2622.64 894.84 2621.15 905.34ZM2618.01 868.842C2625.12 877.546 2636.37 881.767 2647.45 879.898L2896.64 837.993C2899.97 837.436 2902.62 834.906 2903.34 831.62 2904.06 828.323 2902.69 824.931 2899.91 823.041L2750.99 722.219C2747.33 719.741 2742.98 718.502 2738.56 718.692L2523.18 727.827C2519.42 727.984 2516.07 730.262 2514.53 733.685 2513 737.118 2513.53 741.13 2515.91 744.048ZM2911.69 849.689C2909.39 846.833 2905.74 845.437 2902.11 846.046L2659.15 886.911C2643.3 889.579 2631.02 902.199 2628.76 918.096L2599.82 1122.74C2599.02 1128.38 2601.24 1134.03 2605.66 1137.63 2610.08 1141.22 2616.07 1142.23 2621.43 1140.3L2823.39 1067.34C2827.72 1065.78 2831.19 1062.44 2832.92 1058.16L2913.18 859.834C2914.55 856.421 2913.98 852.547 2911.69 849.691Z" fill="#FFFFFF"/></g></g></g><path d="M2415.5 1193.5 2415.5 934.5 2662.5 1193.5Z" stroke="#0F1113" stroke-width="4.58333" stroke-miterlimit="8" fill="#FF0000" fill-rule="evenodd"/><g clip-path="url(#clip12)"><g clip-path="url(#clip13)"><g clip-path="url(#clip14)"><path d="M115.446 28.2565C114.723 27.5134 113.396 26.5824 111.516 26.0976 110.582 25.8378 109.548 25.7148 108.443 25.6453 107.887 25.6011 107.315 25.6291 106.718 25.6244 106.13 25.663 105.514 25.6979 104.895 25.7798 102.414 26.1054 99.7568 26.9087 97.2368 28.0996 94.6959 29.2717 92.2719 30.7811 89.9946 32.3871 85.4542 35.6232 81.4836 39.2063 77.793 41.6474 75.9581 42.8823 74.2052 43.8558 72.637 44.5254 71.0712 45.1911 69.7057 45.594 68.7322 45.8036 68.2318 45.9257 68.2443 46.2907 68.7762 46.3356 69.8858 46.4654 71.5429 46.4887 73.5363 46.2018 75.5235 45.9126 77.8324 45.2801 80.1405 44.3066 80.5751 44.1264 81.0089 43.9277 81.4426 43.7297 81.1155 45.1246 81.0421 46.6039 81.2795 48.107 82.263 54.3285 88.1041 58.5751 94.3255 57.5915 100.547 56.608 104.794 50.767 103.81 44.5455 103.068 39.8466 99.5526 36.2781 95.197 35.235 96.3801 34.3821 97.5901 33.5122 98.8266 32.6809 100.815 31.3703 102.867 30.1494 104.936 29.3266 106.987 28.4955 109.092 28.0106 110.889 27.8962 112.682 27.7755 114.171 28.1916 115.121 28.6802 115.567 28.9153 115.824 28.6509 115.446 28.2565M92.7651 71.7603C89.2152 77.0501 81.1419 78.2679 75.3116 79.028 70.7109 79.6281 66.0189 79.935 61.3269 79.8971 54.7204 79.8438 48.1123 79.1076 41.7562 77.5465 35.7026 76.0596 30.6286 73.6896 27.9223 72.2885 27.2093 71.9452 26.4245 72.6774 26.8072 73.3896 27.2047 74.1319 27.7073 75.0497 28.315 76.1183 28.98 77.1251 29.7447 78.2943 30.6595 79.5313 31.149 80.1275 31.657 80.7477 32.1828 81.3879 39.1242 89.8487 50.2046 95.3341 61.1576 95.4423 69.6284 95.5259 77.5115 92.5133 84.3346 87.6272 87.569 85.2881 90.3998 82.5269 92.1125 79.6142 92.5603 78.9213 92.8951 78.1636 93.2098 77.4916 93.4811 76.771 93.748 76.1284 93.8863 75.468 93.9644 75.1456 94.0464 74.8425 94.1029 74.5456 94.1408 74.244 94.1779 73.9533 94.2127 73.6749 94.2977 73.1328 94.2807 72.6241 94.2745 72.1826 94.2645 71.3273 93.2013 71.158 92.7651 71.7603M40.4263 48.107C40.6559 46.6534 40.5901 45.2244 40.2901 43.8697 40.9714 44.1829 41.6496 44.4783 42.323 44.735 44.5839 45.6149 46.7491 46.1492 48.5893 46.3588 50.4336 46.5668 51.9289 46.5026 52.9465 46.3704 53.4731 46.3162 53.4615 45.9497 52.9543 45.836 51.8865 45.6365 50.3646 45.195 48.6627 44.4528 46.9578 43.7042 45.0812 42.6372 43.1961 41.3002 39.4126 38.6589 35.5115 35.0742 31.7119 32.3871 29.8159 31.0478 27.6191 29.687 25.2314 28.5256 22.8336 27.3843 20.2378 26.4425 17.6746 26.028 15.1082 25.602 12.681 25.6638 10.6535 26.0868 8.60137 26.5059 7.09278 27.4802 6.29557 28.2727 5.90741 28.6625 6.14479 28.9416 6.59018 28.7181 7.46779 28.2905 8.79854 27.9139 10.4293 27.9773 11.2412 27.9905 12.1382 28.1367 13.0885 28.3238 13.5617 28.408 14.0426 28.5604 14.5337 28.6732 15.0208 28.8302 15.5196 28.9757 16.0198 29.1612 19.3965 30.3628 22.8808 32.6779 26.4972 35.2373 22.147 36.2843 18.6372 39.8505 17.8956 44.5455 16.9121 50.767 21.1588 56.608 27.3803 57.5915 33.6016 58.5751 39.4427 54.3285 40.4263 48.107" fill-rule="evenodd" transform="matrix(1.0082 0 0 1 2425 1061)"/></g></g></g><g clip-path="url(#clip15)"><g clip-path="url(#clip16)"><g clip-path="url(#clip17)"><path d="M2656.95 887.946 2681.31 869.139C2687.81 864.143 2689.02 854.826 2684.03 848.329 2684.02 848.327 2684.02 848.325 2684.02 848.323L2682.54 846.421C2677.53 839.926 2668.2 838.724 2661.7 843.736L2633.3 865.655C2631.55 867.004 2631.22 869.521 2632.57 871.276 2632.95 871.778 2633.45 872.181 2634.03 872.453 2640.04 875.242 2645.29 879.442 2649.33 884.694L2651.3 887.224C2652.65 888.983 2655.18 889.309 2656.94 887.951 2656.94 887.95 2656.94 887.948 2656.95 887.946Z" fill="#292929"/><path d="M2678.45 922.375C2679.72 924.085 2682.14 924.439 2683.85 923.168 2683.86 923.162 2683.86 923.155 2683.87 923.149L2707.45 904.955 2708.39 904.217C2714.88 899.202 2716.08 889.882 2711.08 883.386L2709.6 881.484C2704.59 874.988 2695.26 873.784 2688.76 878.795 2688.76 878.795 2688.76 878.795 2688.76 878.795L2664.23 897.736C2662.55 899.021 2662.24 901.42 2663.53 903.094 2663.53 903.095 2663.53 903.098 2663.53 903.099L2678.4 922.364Z" fill="#292929"/><path d="M2664.04 975.452C2669.52 982.608 2679.9 983.605 2686.99 978.126L2734.83 941.205C2741.65 935.9 2743.52 926.136 2738.59 919.047 2733.52 911.757 2723.5 909.959 2716.21 915.03 2715.99 915.178 2715.79 915.33 2715.58 915.488L2686.07 938.262C2684.71 939.28 2683.72 940.702 2683.22 942.324 2681.91 946.801 2679.13 950.703 2675.32 953.394 2672.1 955.674 2668.73 957.748 2665.25 959.603 2662.12 961.284 2660.4 964.758 2660.96 968.263 2661.37 970.879 2662.43 973.351 2664.04 975.452Z" fill="#292929"/><path d="M2762.29 976.008C2769.42 970.739 2770.94 960.682 2765.67 953.544 2760.4 946.406 2750.34 944.891 2743.21 950.16 2743.02 950.295 2742.84 950.434 2742.67 950.576L2694.07 988.072C2687.16 993.641 2686.08 1003.75 2691.65 1010.66 2697.05 1017.36 2706.77 1018.61 2713.7 1013.5Z" fill="#292929"/><path d="M2665.52 999.178 2646.59 974.64C2646 973.882 2644.98 972.7 2644.31 972.022L2644.31 972.022 2632.07 959.475C2630.16 957.506 2627 957.464 2625.04 959.382 2624.22 960.173 2623.71 961.218 2623.57 962.343 2621.91 975.67 2615.5 992.259 2597.88 1009 2595.22 1011.53 2591.01 1011.42 2588.48 1008.76 2588.48 1008.76 2588.48 1008.76 2588.48 1008.75 2588.34 1008.58 2588.2 1008.39 2588.06 1008.21 2585.97 1005.51 2586.27 1001.67 2588.76 999.331 2625.39 964.519 2605.51 932.443 2604.65 931.099 2602.67 927.994 2603.58 923.874 2606.69 921.897 2606.7 921.888 2606.72 921.879 2606.73 921.87 2609.5 920.236 2613.03 920.739 2615.22 923.081L2641.36 949.877C2644.13 952.729 2648.33 953.669 2652.05 952.273L2652.11 952.232C2653.74 951.623 2655.35 950.926 2656.92 950.174 2660.89 948.236 2664.69 945.976 2668.29 943.417 2668.82 943.051 2669.31 942.63 2669.75 942.16 2671.89 939.894 2672.77 936.716 2672.1 933.671 2671.81 932.332 2671.22 931.075 2670.38 929.99L2653.18 907.701 2649.78 903.328 2646.38 898.955 2641.94 893.249C2636.37 886.019 2627.84 881.676 2618.72 881.42 2616.63 881.366 2614.55 881.519 2612.49 881.878 2607.67 882.741 2603.12 884.755 2599.24 887.748L2535.46 936.966C2522.93 946.64 2516.42 962.205 2518.33 977.924L2518.48 979.114C2519.06 983.829 2517.11 988.5 2513.35 991.401L2512 992.447C2507.73 995.73 2506.92 1001.86 2510.2 1006.13 2510.22 1006.15 2510.23 1006.16 2510.24 1006.18L2568.96 1081.67C2572.27 1085.92 2578.4 1086.69 2582.66 1083.38L2584.91 1081.62C2588.71 1078.68 2593.8 1077.99 2598.24 1079.81L2598.24 1079.81C2608.27 1083.95 2619.74 1082.42 2628.32 1075.8L2658.63 1052.41C2675.21 1039.6 2678.3 1015.79 2665.52 999.178Z" fill="#292929"/><path d="M2890.4 966.069 2892.54 949.041C2893.26 943.182 2889.11 937.839 2883.25 937.102L2834.13 930.969C2834.14 916.541 2832.16 902.179 2828.26 888.288 2827.09 884.202 2822.84 881.833 2818.75 882.998 2818.61 883.037 2818.47 883.081 2818.34 883.128L2810.06 885.928C2800.78 889.081 2795.23 898.584 2797.05 908.214 2800.04 923.973 2799.87 940.168 2796.56 955.861 2795.5 960.296 2798.24 964.752 2802.67 965.812 2803.01 965.893 2803.35 965.952 2803.69 965.99L2878.48 975.335C2884.33 976.064 2889.66 971.918 2890.4 966.069Z" fill="#292929"/><path d="M2796.05 1051.11 2788.4 1041.28C2798.22 1031.53 2806.67 1020.49 2813.54 1008.47 2815.66 1004.79 2814.39 1000.08 2810.7 997.957 2810.59 997.889 2810.46 997.823 2810.34 997.761L2802.49 993.784C2793.68 989.368 2782.96 992.122 2777.36 1000.24 2770.41 1010.16 2762.01 1018.99 2752.45 1026.42 2749.72 1028.54 2746.93 1030.52 2744.1 1032.37 2740.24 1034.9 2739.17 1040.07 2741.7 1043.92 2741.82 1044.11 2741.96 1044.29 2742.1 1044.47L2765.65 1074.76C2769.28 1079.41 2776 1080.25 2780.66 1076.63L2794.17 1066.11C2798.83 1062.49 2799.67 1055.77 2796.05 1051.11Z" fill="#292929"/><path d="M2652 812.687C2668.87 808.988 2686.33 808.928 2703.22 812.513 2707.74 813.456 2712.17 810.558 2713.11 806.041 2713.15 805.817 2713.19 805.591 2713.22 805.364L2722.57 730.574C2723.29 724.714 2719.14 719.372 2713.28 718.635L2696.27 716.483C2690.41 715.75 2685.06 719.905 2684.33 725.763 2684.33 725.763 2684.33 725.764 2684.33 725.765L2678.2 774.873C2662.32 774.864 2646.53 777.266 2631.37 781.998 2627.31 783.264 2625.04 787.582 2626.3 791.643 2626.35 791.774 2626.39 791.904 2626.44 792.033L2629.5 800.263C2632.87 809.422 2642.46 814.716 2652 812.687Z" fill="#292929"/><path d="M2773.66 856.581C2775.78 859.307 2777.76 862.09 2779.6 864.93 2782.13 868.781 2787.3 869.853 2791.15 867.325 2791.34 867.2 2791.53 867.066 2791.71 866.925L2821.98 843.374C2826.64 839.757 2827.49 833.05 2823.88 828.387L2813.34 814.842C2809.72 810.182 2803 809.343 2798.34 812.968 2798.34 812.969 2798.34 812.971 2798.34 812.973L2788.51 820.614C2778.5 810.535 2767.14 801.893 2754.75 794.934 2751.05 792.836 2746.35 794.134 2744.25 797.834 2744.18 797.956 2744.12 798.079 2744.05 798.203L2740.14 806.091C2735.79 814.922 2738.6 825.609 2746.74 831.152 2756.96 838.195 2766.04 846.772 2773.66 856.581Z" fill="#292929"/><path d="M2603.81 835.358C2606.53 833.242 2609.32 831.264 2612.16 829.409 2616.01 826.881 2617.08 821.711 2614.55 817.861 2614.43 817.671 2614.29 817.487 2614.15 817.308L2590.6 787.025C2586.97 782.369 2580.26 781.53 2575.6 785.15L2562.05 795.686C2557.39 799.311 2556.55 806.027 2560.17 810.691L2582.67 839.611C2586.07 843.953 2592.35 844.714 2596.7 841.309 2596.89 841.159 2597.07 841.002 2597.25 840.839 2599.37 838.943 2601.55 837.118 2603.81 835.358Z" fill="#292929"/></g></g></g></g></svg>