<svg width="550" height="550" xmlns="http://www.w3.org/2000/svg" xmlns:xlink="http://www.w3.org/1999/xlink" overflow="hidden"><defs><clipPath id="clip0"><rect x="627" y="41" width="550" height="550"/></clipPath><radialGradient cx="762000" cy="762000" r="1.07763e+06" gradientUnits="userSpaceOnUse" spreadMethod="pad" id="fill1" gradientTransform="matrix(0.000360892 0 0 0.000360892 627 40.9999)"><stop offset="0" stop-color="#D9D9D9"/><stop offset="0.17" stop-color="#D9D9D9"/><stop offset="0.33" stop-color="#7F7F7F"/><stop offset="1" stop-color="#0F1113"/></radialGradient><radialGradient cx="257695" cy="281248" r="381453" fx="257694" fy="281248" gradientUnits="userSpaceOnUse" spreadMethod="pad" id="fill2" gradientTransform="matrix(0.000360892 0 0 0.000360892 649 54)"><stop offset="0" stop-color="#FFFFFF"/><stop offset="0.54" stop-color="#7F7F7F" stop-opacity="0"/><stop offset="1" stop-color="#7F7F7F" stop-opacity="0"/></radialGradient><linearGradient x1="900.5" y1="47.0001" x2="900.5" y2="201" gradientUnits="userSpaceOnUse" spreadMethod="reflect" id="fill3"><stop offset="0" stop-color="#F5FAFF" stop-opacity="0.231373"/><stop offset="0.32" stop-color="#FFFFFF" stop-opacity="0"/><stop offset="1" stop-color="#FFFFFF" stop-opacity="0"/></linearGradient><radialGradient cx="94211" cy="101138" r="138220" gradientUnits="userSpaceOnUse" spreadMethod="pad" id="fill4" gradientTransform="matrix(0.000360892 0 0 0.000360892 638 105)"><stop offset="0" stop-color="#FFFFFF"/><stop offset="0.54" stop-color="#7F7F7F" stop-opacity="0"/><stop offset="1" stop-color="#7F7F7F" stop-opacity="0"/></radialGradient><radialGradient cx="110836" cy="120534" r="163748" gradientUnits="userSpaceOnUse" spreadMethod="pad" id="fill5" gradientTransform="matrix(0.000360892 0 0 0.000360892 667 150)"><stop offset="0" stop-color="#FFFFFF"/><stop offset="0.54" stop-color="#7F7F7F" stop-opacity="0"/><stop offset="1" stop-color="#7F7F7F" stop-opacity="0"/></radialGradient><radialGradient cx="292331" cy="278476" r="403740" gradientUnits="userSpaceOnUse" spreadMethod="pad" id="fill6" gradientTransform="matrix(0.000360892 0 0 0.000360892 957 368)"><stop offset="0" stop-color="#FFFFFF"/><stop offset="0.54" stop-color="#7F7F7F" stop-opacity="0"/><stop offset="1" stop-color="#7F7F7F" stop-opacity="0"/></radialGradient><radialGradient cx="72043.5" cy="77585.5" r="105876" fx="72043.5" fy="77585.5" gradientUnits="userSpaceOnUse" spreadMethod="pad" id="fill7" gradientTransform="matrix(0.000360892 0 0 0.000360892 1102 496)"><stop offset="0" stop-color="#FFFFFF"/><stop offset="0.54" stop-color="#7F7F7F" stop-opacity="0"/><stop offset="1" stop-color="#7F7F7F" stop-opacity="0"/></radialGradient><radialGradient cx="77585.5" cy="84513" r="114726" fx="77585.5" fy="84513" gradientUnits="userSpaceOnUse" spreadMethod="pad" id="fill8" gradientTransform="matrix(0.000360892 0 0 0.000360892 1086 413)"><stop offset="0" stop-color="#FFFFFF"/><stop offset="0.54" stop-color="#7F7F7F" stop-opacity="0"/><stop offset="1" stop-color="#7F7F7F" stop-opacity="0"/></radialGradient><clipPath id="clip9"><rect x="641" y="55" width="525" height="526"/></clipPath><clipPath id="clip10"><rect x="641" y="55" width="525" height="526"/></clipPath><clipPath id="clip11"><rect x="641" y="55" width="525" height="526"/></clipPath><clipPath id="clip12"><rect x="723" y="146" width="344" height="344"/></clipPath><clipPath id="clip13"><rect x="723" y="146" width="344" height="344"/></clipPath><clipPath id="clip14"><rect x="723" y="146" width="344" height="344"/></clipPath></defs><g clip-path="url(#clip0)" transform="translate(-627 -41)"><rect x="627" y="40.9999" width="550" height="550" fill="url(#fill1)"/><path d="M649 155.5C649 99.4431 690.638 54 742 54 793.362 54 835 99.4431 835 155.5 835 211.557 793.362 257 742 257 690.638 257 649 211.557 649 155.5Z" fill="url(#fill2)" fill-rule="evenodd"/><path d="M661.734 47.0001 1139.27 47.0001C1155.14 47.0001 1168 66.864 1168 91.3678L1168 201C1168 162.824 1147.96 131.876 1123.23 131.876L677.767 131.876C653.043 131.876 633 162.824 633 201L633 91.3678C633 66.864 645.864 47.0001 661.734 47.0001Z" fill="url(#fill3)" fill-rule="evenodd"/><path d="M638 141.5C638 121.341 653.222 105 672 105 690.778 105 706 121.341 706 141.5 706 161.658 690.778 178 672 178 653.222 178 638 161.658 638 141.5Z" fill="url(#fill4)" fill-rule="evenodd"/><path d="M667 193.5C667 169.475 684.909 150 707 150 729.091 150 747 169.475 747 193.5 747 217.524 729.091 237 707 237 684.909 237 667 217.524 667 193.5Z" fill="url(#fill5)" fill-rule="evenodd"/><path d="M957 468.5C957 412.995 1004.23 368 1062.5 368 1120.77 368 1168 412.995 1168 468.5 1168 524.005 1120.77 569 1062.5 569 1004.23 569 957 524.005 957 468.5Z" fill="url(#fill6)" fill-rule="evenodd"/><path d="M1102 524C1102 508.536 1113.64 496 1128 496 1142.36 496 1154 508.536 1154 524 1154 539.464 1142.36 552 1128 552 1113.64 552 1102 539.464 1102 524Z" fill="url(#fill7)" fill-rule="evenodd"/><path d="M1086 443.5C1086 426.655 1098.54 413 1114 413 1129.46 413 1142 426.655 1142 443.5 1142 460.345 1129.46 474 1114 474 1098.54 474 1086 460.345 1086 443.5Z" fill="url(#fill8)" fill-rule="evenodd"/><g clip-path="url(#clip9)"><g clip-path="url(#clip10)"><g clip-path="url(#clip11)"><path d="M198.157 246.339 168.967 453.075C168.296 457.874 164.589 461.676 159.81 462.472 155.032 463.269 150.286 460.884 148.092 456.571L73.9401 311.146C71.9031 307.146 70.8741 302.704 70.9376 298.221L73.9195 99.8852C73.9725 96.1476 76.3547 92.851 79.884 91.612 83.4115 90.373 87.3285 91.4856 89.7019 94.384L189.955 216.993C196.663 225.205 199.645 235.84 198.155 246.34ZM195.006 209.842C202.125 218.546 213.37 222.767 224.448 220.899L473.642 178.993C476.971 178.436 479.618 175.906 480.344 172.62 481.057 169.323 479.692 165.931 476.91 164.041L327.988 63.2192C324.335 60.7412 319.977 59.5022 315.557 59.692L100.18 68.8266C96.4206 68.9837 93.0711 71.2617 91.528 74.6847 89.995 78.1182 90.5319 82.1297 92.914 85.0482ZM488.692 190.689C486.391 187.834 482.737 186.437 479.115 187.046L236.145 227.911C220.301 230.579 208.015 243.199 205.758 259.096L176.819 463.741C176.021 469.381 178.236 475.029 182.657 478.629 187.078 482.221 193.074 483.227 198.428 481.298L400.386 408.344C404.722 406.78 408.188 403.441 409.921 399.157L490.184 200.834C491.549 197.421 490.98 193.547 488.692 190.691Z" fill="#FFFFFF" transform="matrix(1 0 0 1.0019 641 55)"/></g></g></g><g clip-path="url(#clip12)"><g clip-path="url(#clip13)"><g clip-path="url(#clip14)"><path d="M299.096 105.644C293.608 99.813 278.516 88.151 271.656 84.035 270.627 83.349 268.912 83.349 267.883 84.378 262.738 89.866 256.907 95.697 255.192 98.098 254.163 99.127 252.791 101.185 251.076 103.243 250.39 103.929 251.076 104.958 251.762 104.958 254.849 105.301 257.936 106.33 261.023 107.359 268.226 110.103 287.091 127.596 294.637 130.34 302.183 133.427 308.014 130.683 310.415 124.166 312.473 119.707 304.927 111.475 299.096 105.644Z" fill="#292929" transform="matrix(1 0 0 1.00291 724 146)"/><path d="M255.192 111.475C253.82 110.789 249.704 109.76 247.646 109.074 246.96 108.731 246.274 109.074 245.931 109.76 242.158 114.219 238.042 119.707 234.955 123.823 234.612 124.509 234.612 125.195 235.298 125.538 241.129 128.282 247.303 131.712 250.39 133.427 259.308 137.886 277.83 144.403 281.26 144.746 285.033 145.089 288.806 145.775 291.207 139.258 293.265 133.084 256.907 112.504 255.192 111.475Z" fill="#292929" transform="matrix(1 0 0 1.00291 724 146)"/><path d="M232.554 131.026C231.868 130.683 230.839 131.026 230.496 131.712 230.153 132.055 229.81 132.398 229.81 132.741 226.723 137.2 223.636 141.659 220.892 146.804 220.549 147.49 220.892 148.862 221.578 149.205 225.008 150.92 229.124 152.292 232.897 152.635 246.96 155.036 256.564 151.949 257.936 146.461 258.622 143.031 243.873 136.857 232.554 131.026Z" fill="#292929" transform="matrix(1 0 0 1.00291 724 146)"/><path d="M320.705 35.672C320.705 35.672 320.362 34.986 316.932 34.986 304.927 34.986 273.371 43.561 267.54 45.276 259.994 47.334 253.477 49.735 241.472 59.339 235.641 63.798 226.723 71.344 221.921 75.117 220.549 76.832 216.09 80.948 207.515 85.75 207.172 85.75 206.829 86.093 206.829 86.093 206.143 86.093 205.457 85.75 205.114 85.064 204.771 84.378 205.114 83.349 205.8 82.663 208.201 81.291 210.602 79.919 212.66 78.204 208.544 77.861 200.998 76.832 190.022 75.46 188.65 75.117 187.278 75.117 185.906 75.117 170.471 75.117 159.495 86.436 153.321 95.697 149.548 101.528 133.427 111.818 116.277 122.794 102.9 131.712 88.837 140.63 83.006 146.118 73.059 155.722 39.102 176.988 24.696 185.906 20.58 188.307 18.179 192.423 18.179 197.225 18.179 197.568 17.836 232.211 18.179 243.873 18.865 269.255 24.01 306.985 32.242 306.985 33.957 306.985 36.015 305.27 38.073 302.183 46.305 289.835 61.054 274.4 77.518 260.68 95.354 246.274 111.818 236.67 123.137 234.269 131.369 232.554 140.973 231.182 150.234 229.81 167.727 227.409 184.191 225.008 191.737 220.549 200.655 215.061 224.665 208.544 237.699 205.457 241.815 204.428 244.902 203.399 246.274 203.056 248.332 202.37 252.448 202.027 256.907 201.684 263.081 201.341 270.97 200.655 274.743 198.94 280.917 195.853 294.98 190.365 302.183 188.307 305.27 187.278 307.328 184.877 307.671 181.79 308.014 177.674 305.27 173.901 299.782 171.157 293.265 167.727 281.603 165.669 270.627 165.669 262.395 165.669 254.849 166.698 247.646 168.756 241.472 170.471 236.327 171.5 231.525 171.5 223.293 171.5 218.491 168.413 214.032 165.669 213.689 165.326 213.346 164.983 212.66 164.983 209.916 163.268 209.916 159.495 212.66 153.321 212.66 152.978 212.66 152.635 213.003 152.635 215.404 147.147 222.95 134.456 228.781 126.224 233.583 119.364 246.274 103.243 250.39 98.441 253.477 94.668 264.796 83.006 271.313 76.832 272.342 75.803 273.028 75.117 273.714 74.431L275.086 73.059C275.086 73.059 275.429 72.716 275.772 72.716 280.231 69.286 292.236 62.769 302.869 57.281 309.729 53.851 316.246 50.421 317.618 49.049 321.391 44.933 322.077 39.445 320.705 35.672Z" fill="#292929" transform="matrix(1 0 0 1.00291 724 146)"/></g></g></g></g></svg>