<svg width="550" height="552" xmlns="http://www.w3.org/2000/svg" xmlns:xlink="http://www.w3.org/1999/xlink" overflow="hidden"><defs><clipPath id="clip0"><rect x="35" y="646" width="550" height="552"/></clipPath><radialGradient cx="762000" cy="762000" r="1.07763e+06" gradientUnits="userSpaceOnUse" spreadMethod="pad" id="fill1" gradientTransform="matrix(0.000360892 0 0 0.000360892 35.0001 646)"><stop offset="0" stop-color="#D9D9D9"/><stop offset="0.17" stop-color="#D9D9D9"/><stop offset="0.33" stop-color="#7F7F7F"/><stop offset="1" stop-color="#0F1113"/></radialGradient><radialGradient cx="257695" cy="281248" r="381453" fx="257694" fy="281248" gradientUnits="userSpaceOnUse" spreadMethod="pad" id="fill2" gradientTransform="matrix(0.000360892 0 0 0.000360892 57.0001 659)"><stop offset="0" stop-color="#FFFFFF"/><stop offset="0.54" stop-color="#7F7F7F" stop-opacity="0"/><stop offset="1" stop-color="#7F7F7F" stop-opacity="0"/></radialGradient><linearGradient x1="308.5" y1="652" x2="308.5" y2="806" gradientUnits="userSpaceOnUse" spreadMethod="reflect" id="fill3"><stop offset="0" stop-color="#F5FAFF" stop-opacity="0.231373"/><stop offset="0.32" stop-color="#FFFFFF" stop-opacity="0"/><stop offset="1" stop-color="#FFFFFF" stop-opacity="0"/></linearGradient><radialGradient cx="94211" cy="102524" r="139236" gradientUnits="userSpaceOnUse" spreadMethod="pad" id="fill4" gradientTransform="matrix(0.000360892 0 0 0.000360892 46.0001 709)"><stop offset="0" stop-color="#FFFFFF"/><stop offset="0.54" stop-color="#7F7F7F" stop-opacity="0"/><stop offset="1" stop-color="#7F7F7F" stop-opacity="0"/></radialGradient><radialGradient cx="110836" cy="120534" r="163748" gradientUnits="userSpaceOnUse" spreadMethod="pad" id="fill5" gradientTransform="matrix(0.000360892 0 0 0.000360892 74.9999 755)"><stop offset="0" stop-color="#FFFFFF"/><stop offset="0.54" stop-color="#7F7F7F" stop-opacity="0"/><stop offset="1" stop-color="#7F7F7F" stop-opacity="0"/></radialGradient><radialGradient cx="292331" cy="278476" r="403740" gradientUnits="userSpaceOnUse" spreadMethod="pad" id="fill6" gradientTransform="matrix(0.000360892 0 0 0.000360892 365 973)"><stop offset="0" stop-color="#FFFFFF"/><stop offset="0.54" stop-color="#7F7F7F" stop-opacity="0"/><stop offset="1" stop-color="#7F7F7F" stop-opacity="0"/></radialGradient><radialGradient cx="72043.5" cy="77585.5" r="105876" fx="72043.5" fy="77585.5" gradientUnits="userSpaceOnUse" spreadMethod="pad" id="fill7" gradientTransform="matrix(0.000360892 0 0 0.000360892 510 1101)"><stop offset="0" stop-color="#FFFFFF"/><stop offset="0.54" stop-color="#7F7F7F" stop-opacity="0"/><stop offset="1" stop-color="#7F7F7F" stop-opacity="0"/></radialGradient><radialGradient cx="77585.5" cy="84513" r="114726" fx="77585.5" fy="84513" gradientUnits="userSpaceOnUse" spreadMethod="pad" id="fill8" gradientTransform="matrix(0.000360892 0 0 0.000360892 494 1018)"><stop offset="0" stop-color="#FFFFFF"/><stop offset="0.54" stop-color="#7F7F7F" stop-opacity="0"/><stop offset="1" stop-color="#7F7F7F" stop-opacity="0"/></radialGradient><clipPath id="clip9"><rect x="49" y="660" width="526" height="526"/></clipPath><clipPath id="clip10"><rect x="49" y="660" width="526" height="526"/></clipPath><clipPath id="clip11"><rect x="49" y="660" width="526" height="526"/></clipPath><clipPath id="clip12"><rect x="50" y="1061" width="123" height="123"/></clipPath><clipPath id="clip13"><rect x="50" y="1061" width="123" height="123"/></clipPath><clipPath id="clip14"><rect x="50" y="1061" width="123" height="123"/></clipPath><clipPath id="clip15"><rect x="166" y="775" width="273" height="275"/></clipPath><clipPath id="clip16"><rect x="166" y="775" width="273" height="275"/></clipPath><clipPath id="clip17"><rect x="166" y="775" width="273" height="275"/></clipPath><clipPath id="clip18"><rect x="150" y="833" width="311" height="310"/></clipPath><clipPath id="clip19"><rect x="150" y="833" width="311" height="310"/></clipPath><clipPath id="clip20"><rect x="150" y="833" width="311" height="310"/></clipPath><clipPath id="clip21"><rect x="150" y="833" width="311" height="310"/></clipPath><clipPath id="clip22"><rect x="150" y="833" width="311" height="310"/></clipPath><clipPath id="clip23"><rect x="150" y="833" width="311" height="310"/></clipPath></defs><g clip-path="url(#clip0)" transform="translate(-35 -646)"><rect x="35.0001" y="646" width="550" height="550" fill="url(#fill1)"/><path d="M57.0001 760.5C57.0001 704.443 98.6376 659 150 659 201.363 659 243 704.443 243 760.5 243 816.557 201.363 862 150 862 98.6376 862 57.0001 816.557 57.0001 760.5Z" fill="url(#fill2)" fill-rule="evenodd"/><path d="M69.7336 652 547.266 652C563.136 652 576 671.864 576 696.368L576 806C576 767.824 555.957 736.876 531.233 736.876L85.7667 736.876C61.0426 736.876 40.9999 767.824 40.9999 806L40.9999 696.368C40.9999 671.864 53.8643 652 69.7336 652Z" fill="url(#fill3)" fill-rule="evenodd"/><path d="M46.0001 746C46.0001 725.566 61.2224 709 80.0001 709 98.7778 709 114 725.566 114 746 114 766.435 98.7778 783 80.0001 783 61.2224 783 46.0001 766.435 46.0001 746Z" fill="url(#fill4)" fill-rule="evenodd"/><path d="M74.9999 798.5C74.9999 774.475 92.9086 755 115 755 137.091 755 155 774.475 155 798.5 155 822.524 137.091 842 115 842 92.9086 842 74.9999 822.524 74.9999 798.5Z" fill="url(#fill5)" fill-rule="evenodd"/><path d="M365 1073.5C365 1018 412.234 973 470.5 973 528.766 973 576 1018 576 1073.5 576 1129 528.766 1174 470.5 1174 412.234 1174 365 1129 365 1073.5Z" fill="url(#fill6)" fill-rule="evenodd"/><path d="M510 1129C510 1113.54 521.641 1101 536 1101 550.359 1101 562 1113.54 562 1129 562 1144.46 550.359 1157 536 1157 521.641 1157 510 1144.46 510 1129Z" fill="url(#fill7)" fill-rule="evenodd"/><path d="M494 1048.5C494 1031.66 506.536 1018 522 1018 537.464 1018 550 1031.66 550 1048.5 550 1065.34 537.464 1079 522 1079 506.536 1079 494 1065.34 494 1048.5Z" fill="url(#fill8)" fill-rule="evenodd"/><g clip-path="url(#clip9)"><g clip-path="url(#clip10)"><g clip-path="url(#clip11)"><path d="M198.157 246.339 168.967 453.075C168.296 457.874 164.589 461.676 159.81 462.472 155.032 463.269 150.286 460.884 148.092 456.571L73.9401 311.146C71.9031 307.146 70.8741 302.704 70.9376 298.221L73.9195 99.8852C73.9725 96.1476 76.3547 92.851 79.884 91.612 83.4115 90.373 87.3285 91.4856 89.7019 94.384L189.955 216.993C196.663 225.205 199.645 235.84 198.155 246.34ZM195.006 209.842C202.125 218.546 213.37 222.767 224.448 220.899L473.642 178.993C476.971 178.436 479.618 175.906 480.344 172.62 481.057 169.323 479.692 165.931 476.91 164.041L327.988 63.2192C324.335 60.7412 319.977 59.5022 315.557 59.692L100.18 68.8266C96.4206 68.9837 93.0711 71.2617 91.528 74.6847 89.995 78.1182 90.5319 82.1297 92.914 85.0482ZM488.692 190.689C486.391 187.834 482.737 186.437 479.115 187.046L236.145 227.911C220.301 230.579 208.015 243.199 205.758 259.096L176.819 463.741C176.021 469.381 178.236 475.029 182.657 478.629 187.078 482.221 193.074 483.227 198.428 481.298L400.386 408.344C404.722 406.78 408.188 403.441 409.921 399.157L490.184 200.834C491.549 197.421 490.98 193.547 488.692 190.691Z" fill="#FFFFFF" transform="matrix(1 0 0 1.0019 49.0002 660)"/></g></g></g><path d="M41.5001 1195.5 41.5001 935.5 288.5 1195.5Z" stroke="#0F1113" stroke-width="4.58333" stroke-miterlimit="8" fill="#FF0000" fill-rule="evenodd"/><g clip-path="url(#clip12)"><g clip-path="url(#clip13)"><g clip-path="url(#clip14)"><path d="M166.446 1090.26C165.723 1089.51 164.396 1088.58 162.516 1088.1 161.582 1087.84 160.548 1087.71 159.444 1087.65 158.888 1087.6 158.315 1087.63 157.718 1087.62 157.13 1087.66 156.515 1087.7 155.895 1087.78 153.414 1088.11 150.757 1088.91 148.237 1090.1 145.696 1091.27 143.272 1092.78 140.995 1094.39 136.454 1097.62 132.484 1101.21 128.793 1103.65 126.958 1104.88 125.205 1105.86 123.637 1106.53 122.071 1107.19 120.706 1107.59 119.732 1107.8 119.232 1107.93 119.244 1108.29 119.776 1108.34 120.886 1108.47 122.543 1108.49 124.536 1108.2 126.524 1107.91 128.832 1107.28 131.141 1106.31 131.575 1106.13 132.009 1105.93 132.443 1105.73 132.116 1107.12 132.042 1108.6 132.28 1110.11 133.263 1116.33 139.104 1120.58 145.326 1119.59 151.547 1118.61 155.794 1112.77 154.81 1106.55 154.068 1101.85 150.553 1098.28 146.197 1097.23 147.38 1096.38 148.59 1095.51 149.827 1094.68 151.815 1093.37 153.867 1092.15 155.936 1091.33 157.988 1090.5 160.092 1090.01 161.889 1089.9 163.682 1089.78 165.171 1090.19 166.121 1090.68 166.567 1090.92 166.824 1090.65 166.446 1090.26M143.765 1133.76C140.215 1139.05 132.142 1140.27 126.312 1141.03 121.711 1141.63 117.019 1141.94 112.327 1141.9 105.72 1141.84 99.1123 1141.11 92.7562 1139.55 86.7026 1138.06 81.6286 1135.69 78.9223 1134.29 78.2093 1133.95 77.4245 1134.68 77.8072 1135.39 78.2047 1136.13 78.7073 1137.05 79.315 1138.12 79.98 1139.13 80.7447 1140.29 81.6595 1141.53 82.1489 1142.13 82.6569 1142.75 83.1828 1143.39 90.1242 1151.85 101.205 1157.33 112.158 1157.44 120.628 1157.53 128.512 1154.51 135.335 1149.63 138.569 1147.29 141.4 1144.53 143.113 1141.61 143.56 1140.92 143.895 1140.16 144.21 1139.49 144.481 1138.77 144.748 1138.13 144.886 1137.47 144.965 1137.15 145.047 1136.84 145.103 1136.55 145.141 1136.24 145.178 1135.95 145.213 1135.67 145.298 1135.13 145.281 1134.62 145.275 1134.18 145.265 1133.33 144.201 1133.16 143.765 1133.76M91.4263 1110.11C91.6559 1108.65 91.5901 1107.22 91.2901 1105.87 91.9714 1106.18 92.6496 1106.48 93.323 1106.73 95.5839 1107.61 97.7491 1108.15 99.5893 1108.36 101.434 1108.57 102.929 1108.5 103.947 1108.37 104.473 1108.32 104.462 1107.95 103.954 1107.84 102.886 1107.64 101.365 1107.2 99.6628 1106.45 97.9578 1105.7 96.0812 1104.64 94.1961 1103.3 90.4126 1100.66 86.5115 1097.07 82.7118 1094.39 80.8158 1093.05 78.6191 1091.69 76.2313 1090.53 73.8335 1089.38 71.2377 1088.44 68.6745 1088.03 66.1081 1087.6 63.6809 1087.66 61.6534 1088.09 59.6013 1088.51 58.0927 1089.48 57.2955 1090.27 56.9073 1090.66 57.1447 1090.94 57.5901 1090.72 58.4677 1090.29 59.7984 1089.91 61.4292 1089.98 62.2411 1089.99 63.1381 1090.14 64.0884 1090.32 64.5616 1090.41 65.0426 1090.56 65.5336 1090.67 66.0208 1090.83 66.5195 1090.98 67.0197 1091.16 70.3964 1092.36 73.8807 1094.68 77.4972 1097.24 73.1469 1098.28 69.6371 1101.85 68.8956 1106.55 67.912 1112.77 72.1587 1118.61 78.3802 1119.59 84.6016 1120.58 90.4427 1116.33 91.4263 1110.11" fill-rule="evenodd"/></g></g></g><g clip-path="url(#clip15)"><g clip-path="url(#clip16)"><g clip-path="url(#clip17)"><path d="M262.208 86.2509C240.325 73.1128 221.855 55.1119 208.162 33.6131 201.935 23.8022 191.143 17.873 179.497 17.873 166.615 17.873 154.885 25.1245 149.126 36.6417L136.5 61.9369 123.874 36.6844C118.115 25.1672 106.342 17.9156 93.5025 17.9156 81.9 17.9156 71.0653 23.8448 64.8375 33.6558 51.1448 55.1545 32.632 73.1981 10.792 86.2936L0 92.7347C31.4376 118.456 53.7469 153.648 63.6005 193.062L63.6005 193.062C70.2122 219.509 93.9717 238.022 121.186 238.022L151.771 238.022C179.028 238.022 202.745 219.466 209.357 193.062L209.357 193.062C219.253 153.648 241.562 118.456 273 92.7347L262.208 86.2509ZM208.546 126.39C201.935 133.002 196.859 141.064 193.83 149.894 193.702 150.15 193.617 150.406 193.531 150.704 190.844 158.809 186.536 166.146 180.99 172.374 177.706 176.085 173.91 179.412 169.772 182.27 166.829 184.36 163.672 186.152 160.302 187.645 152.709 191.1 144.647 192.806 136.543 192.806 128.438 192.806 120.333 191.1 112.783 187.645 109.584 186.194 106.47 184.446 103.612 182.483 103.612 182.483 103.612 182.441 103.569 182.441 99.8583 179.924 96.4884 177.023 93.4598 173.824 93.0759 173.44 92.6494 173.014 92.3081 172.63 86.6348 166.317 82.2839 158.895 79.5539 150.704 79.5112 150.534 79.4259 150.321 79.3406 150.15 76.312 141.192 71.2359 133.13 64.5389 126.433L30.8831 92.7773 63.9844 77.4211C67.8661 75.6295 71.9611 74.3925 76.0987 73.6673 78.8287 73.1981 81.5587 72.9422 84.3314 72.9422 85.1419 72.9422 85.9097 72.9422 86.7628 73.0275 93.6304 73.3261 100.413 75.1603 106.683 78.4022 107.963 78.9994 109.243 79.7245 110.48 80.535 118.414 85.6111 127.457 88.1704 136.543 88.1704 145.628 88.1704 154.672 85.6111 162.606 80.535 163.885 79.7245 165.165 78.9994 166.487 78.3169 171.563 75.7148 176.981 74.0512 182.526 73.3687 187.261 72.7289 192.081 72.8142 196.816 73.582 196.816 73.582 196.816 73.582 196.859 73.6247 201.039 74.2645 205.134 75.5442 209.058 77.3784L242.202 92.692 208.546 126.39Z" fill="#292929" transform="matrix(1 0 0 1 166 776)"/><path d="M204.963 82.8811C202.958 81.9426 200.868 81.2601 198.821 80.6629 203.513 88.5544 208.632 104.422 190.716 122.338 190.716 122.338 192.849 110.565 184.787 97.6401L170.625 102.375 162.094 98.1094 157.828 106.641 145.031 110.906 136.5 102.375 127.969 110.906 115.172 106.641 110.906 98.1094 102.375 102.375 88.2984 97.6828 88.2984 97.6828C80.0658 110.693 82.0279 122.594 82.0279 122.594 64.0697 104.636 69.3164 88.6397 74.0512 80.6629 71.9611 81.2601 69.9562 81.9426 68.0367 82.8384L41.4619 95.1234 69.743 123.405C75.8428 129.504 80.6203 136.884 83.8195 144.861 86.3362 141.15 90.8151 135.306 98.1094 128.054 97.8534 129.547 95.1661 146.396 97.6401 162.094L106.641 162.094 115.172 166.359 119.437 170.625 123.703 166.359 132.234 166.359 136.5 170.625 140.766 166.359 149.297 166.359 153.562 170.625 157.828 166.359 166.359 162.094 175.53 162.094 175.53 162.094C178.004 146.396 175.274 129.504 175.061 128.054 182.27 135.22 186.706 141.022 189.266 144.733 192.465 136.799 197.2 129.462 203.257 123.405L231.538 95.1234 204.963 82.8811Z" fill="#292929" transform="matrix(1 0 0 1 166 776)"/><path d="M213.281 226.078C213.281 226.078 207.139 236.316 207.139 236.316 203.342 242.671 202.617 255.383 212.812 255.937 223.817 256.535 223.433 242.97 219.424 236.316L213.281 226.078Z" fill="#292929" transform="matrix(1 0 0 1 166 776)"/><path d="M43.6373 185.512C43.6373 185.512 35.3194 199.418 35.2767 199.418 30.1153 208.034 29.1342 225.31 42.9548 226.035 57.8845 226.803 57.3726 208.461 51.9553 199.418L43.6373 185.512Z" fill="#292929" transform="matrix(1 0 0 1 166 776)"/></g></g></g><g clip-path="url(#clip18)"><g clip-path="url(#clip19)"><g clip-path="url(#clip20)"><path d="M280.977 167.749C280.63 166.699 276.431 155.612 272.823 145.759 269.678 138.326 267.525 136.89 262.671 136.89L258.338 136.918 254.008 136.89C249.15 136.89 247.001 138.326 243.856 145.759 240.251 155.612 236.052 166.702 235.702 167.749 235.015 169.823 233.913 173.85 236.855 174.959 239.798 176.068 241.137 173.558 242.393 170.283 243.647 167.004 246.287 157.154 248.522 151.407 248.714 150.912 248.934 150.435 249.14 149.947 249.226 149.968 249.312 149.989 249.394 150.009 249.257 152.423 249.054 161.25 248.996 163.667 248.718 174.489 244.419 208.75 243.186 215.922 242.565 220.269 243.458 222.404 246.283 222.404 249.112 222.404 250.355 221.879 251.231 217.406 252.518 208.414 254.952 189.602 255.78 183.199 255.955 181.822 256.233 180.192 258.341 180.174 260.449 180.192 260.727 181.822 260.906 183.199 261.73 189.602 264.164 208.414 265.455 217.406 266.331 221.879 267.573 222.404 270.399 222.404 273.225 222.404 274.117 220.269 273.496 215.922 272.267 208.75 267.965 174.489 267.687 163.667 267.625 161.253 267.422 152.423 267.288 150.009 267.371 149.989 267.457 149.968 267.543 149.947 267.749 150.435 267.968 150.912 268.161 151.407 270.396 157.154 273.032 167.004 274.289 170.283 275.546 173.558 276.881 176.068 279.824 174.959 282.766 173.85 281.664 169.823 280.977 167.749Z" stroke="#FFFFFF" stroke-width="9.15557" fill="#292929" fill-rule="evenodd" transform="matrix(1.00324 0 0 1 151 834)"/><path d="M258.485 134.772C263.423 134.758 267.646 130.357 267.639 125.238 267.632 120.187 263.488 115.889 258.537 115.796 253.552 115.707 249.191 120.167 249.215 125.324 249.243 130.422 253.524 134.789 258.485 134.772Z" stroke="#FFFFFF" stroke-width="9.15557" fill="#292929" fill-rule="evenodd" transform="matrix(1.00324 0 0 1 151 834)"/><path d="M220.187 145.759C217.042 138.326 214.892 136.89 210.034 136.89L205.701 136.918 201.372 136.89C196.514 136.89 194.364 138.326 191.22 145.759 187.615 155.612 183.416 166.702 183.065 167.749 182.379 169.823 181.277 173.85 184.219 174.959 187.161 176.068 188.5 173.558 189.753 170.283 191.007 167.004 193.647 157.154 195.882 151.407 196.074 150.912 196.294 150.435 196.5 149.947 196.586 149.968 196.672 149.989 196.754 150.009 196.617 152.423 196.418 161.25 196.356 163.667 196.078 174.489 191.779 208.75 190.547 215.922 189.925 220.269 190.818 222.404 193.643 222.404 196.469 222.404 197.712 221.879 198.587 217.406 199.875 208.414 202.309 189.602 203.137 183.199 203.312 181.822 203.59 180.192 205.698 180.174 207.806 180.192 208.084 181.822 208.263 183.199 209.087 189.602 211.521 208.414 212.812 217.406 213.687 221.879 214.93 222.404 217.759 222.404 220.588 222.404 221.477 220.269 220.856 215.922 219.627 208.75 215.325 174.489 215.05 163.667 214.988 161.253 214.786 152.423 214.649 150.009 214.734 149.989 214.817 149.968 214.903 149.947 215.109 150.435 215.328 150.912 215.521 151.407 217.756 157.154 220.393 167.004 221.649 170.283 222.906 173.558 224.245 176.068 227.187 174.959 230.129 173.854 229.027 169.823 228.341 167.749 227.994 166.699 223.795 155.612 220.187 145.759Z" stroke="#FFFFFF" stroke-width="9.15557" fill="#292929" fill-rule="evenodd" transform="matrix(1.00324 0 0 1 151 834)"/><path d="M196.579 125.324C196.603 130.422 200.888 134.786 205.849 134.772 210.786 134.758 215.009 130.357 215.002 125.238 214.995 120.187 210.851 115.889 205.9 115.796 200.915 115.707 196.555 120.167 196.579 125.324Z" stroke="#FFFFFF" stroke-width="9.15557" fill="#292929" fill-rule="evenodd" transform="matrix(1.00324 0 0 1 151 834)"/><path d="M167.55 145.759C164.405 138.326 162.256 136.89 157.398 136.89L153.065 136.918 148.735 136.89C143.881 136.89 141.728 138.326 138.583 145.759 134.978 155.612 130.779 166.702 130.429 167.749 129.742 169.823 128.64 173.85 131.583 174.959 134.525 176.068 135.864 173.558 137.117 170.283 138.374 167.004 141.01 157.154 143.246 151.407 143.438 150.912 143.658 150.435 143.864 149.947 143.949 149.968 144.032 149.989 144.118 150.009 143.98 152.423 143.781 161.25 143.719 163.667 143.441 174.489 139.143 208.75 137.914 215.922 137.292 220.269 138.181 222.404 141.01 222.404 143.84 222.404 145.079 221.879 145.954 217.406 147.242 208.414 149.676 189.602 150.504 183.199 150.679 181.822 150.957 180.192 153.065 180.174 155.173 180.192 155.451 181.822 155.63 183.199 156.454 189.602 158.888 208.414 160.175 217.406 161.051 221.879 162.294 222.404 165.123 222.404 167.952 222.404 168.841 220.269 168.22 215.922 166.99 208.75 162.689 174.489 162.414 163.667 162.352 161.253 162.149 152.423 162.012 150.009 162.098 149.989 162.18 149.968 162.266 149.947 162.472 150.435 162.695 150.912 162.884 151.407 165.116 157.154 167.756 167.004 169.013 170.283 170.266 173.558 171.605 176.068 174.547 174.959 177.49 173.854 176.391 169.823 175.701 167.749 175.358 166.699 171.159 155.612 167.55 145.759Z" stroke="#FFFFFF" stroke-width="9.15557" fill="#292929" fill-rule="evenodd" transform="matrix(1.00324 0 0 1 151 834)"/><path d="M153.213 134.772C158.15 134.758 162.373 130.357 162.366 125.238 162.359 120.187 158.215 115.889 153.264 115.796 148.279 115.707 143.915 120.163 143.943 125.324 143.97 130.422 148.251 134.789 153.213 134.772Z" stroke="#FFFFFF" stroke-width="9.15557" fill="#292929" fill-rule="evenodd" transform="matrix(1.00324 0 0 1 151 834)"/><path d="M114.914 145.759C111.769 138.326 109.619 136.89 104.761 136.89L100.432 136.918 96.1024 136.89C91.2443 136.89 89.0916 138.326 85.9501 145.759 82.3416 155.612 78.1461 166.702 77.7959 167.749 77.1092 169.823 76.0071 173.85 78.9495 174.959 81.8919 176.068 83.2309 173.558 84.484 170.283 85.7406 167.004 88.3774 157.154 90.6125 151.407 90.8048 150.912 91.0245 150.435 91.2305 149.947 91.3164 149.968 91.3988 149.989 91.4846 150.009 91.3473 152.423 91.1481 161.25 91.0863 163.667 90.8082 174.489 86.5097 208.75 85.2806 215.922 84.6591 220.269 85.5484 222.404 88.3774 222.404 91.2065 222.404 92.4494 221.879 93.3249 217.406 94.6124 208.414 97.0466 189.602 97.8706 183.199 98.0491 181.822 98.3238 180.192 100.435 180.174 102.543 180.192 102.821 181.822 103 183.199 103.824 189.602 106.258 208.414 107.546 217.406 108.425 221.879 109.664 222.404 112.493 222.404 115.322 222.404 116.211 220.269 115.59 215.922 114.361 208.75 110.059 174.489 109.784 163.667 109.722 161.253 109.52 152.423 109.386 150.009 109.468 149.989 109.554 149.968 109.64 149.947 109.846 150.435 110.069 150.912 110.258 151.407 112.493 157.154 115.13 167.004 116.387 170.283 117.643 173.558 118.979 176.068 121.921 174.959 124.863 173.854 123.765 169.823 123.075 167.749 122.721 166.699 118.522 155.612 114.914 145.759Z" stroke="#FFFFFF" stroke-width="9.15557" fill="#292929" fill-rule="evenodd" transform="matrix(1.00324 0 0 1 151 834)"/><path d="M100.576 134.772C105.513 134.758 109.736 130.357 109.729 125.238 109.722 120.187 105.578 115.889 100.628 115.796 95.6424 115.707 91.2786 120.163 91.3061 125.324 91.3335 130.422 95.6149 134.789 100.576 134.772Z" stroke="#FFFFFF" stroke-width="9.15557" fill="#292929" fill-rule="evenodd" transform="matrix(1.00324 0 0 1 151 834)"/><path d="M62.2807 145.759C59.1357 138.326 56.983 136.89 52.1283 136.89L47.7954 136.918 43.466 136.89C38.6078 136.89 36.4551 138.326 33.3136 145.759 29.7052 155.612 25.5097 166.702 25.1595 167.749 24.4694 169.823 23.3707 173.85 26.3131 174.959 29.2554 176.068 30.5944 173.558 31.8476 170.283 33.1042 167.004 35.741 157.154 37.9761 151.407 38.1684 150.912 38.3881 150.435 38.5941 149.947 38.6799 149.968 38.7623 149.989 38.8482 150.009 38.7108 152.423 38.5083 161.25 38.4465 163.667 38.1684 174.489 33.8698 208.75 32.6407 215.922 32.0193 220.269 32.9085 222.404 35.7376 222.404 38.5666 222.404 39.8095 221.879 40.685 217.406 41.9725 208.414 44.4067 189.602 45.2307 183.199 45.4093 181.822 45.6839 180.192 47.7954 180.174 49.9035 180.192 50.1816 181.822 50.3601 183.199 51.1841 189.602 53.6184 208.414 54.9093 217.406 55.7848 221.879 57.0277 222.404 59.8533 222.404 62.6789 222.404 63.5716 220.269 62.9502 215.922 61.721 208.75 57.4225 174.489 57.1444 163.667 57.0826 161.253 56.88 152.423 56.7461 150.009 56.8285 149.989 56.9144 149.968 57.0002 149.947 57.2096 150.435 57.4294 150.912 57.6182 151.407 59.8533 157.154 62.4901 167.004 63.7467 170.283 65.0033 173.558 66.3389 176.068 69.2812 174.959 72.2236 173.854 71.1249 169.823 70.4348 167.749 70.0846 166.699 65.8857 155.612 62.2807 145.759Z" stroke="#FFFFFF" stroke-width="9.15557" fill="#292929" fill-rule="evenodd" transform="matrix(1.00324 0 0 1 151 834)"/><path d="M47.9396 134.772C52.8768 134.758 57.0998 130.357 57.0929 125.238 57.086 120.187 52.942 115.889 47.9911 115.796 43.0059 115.707 38.6422 120.163 38.6731 125.324 38.6971 130.422 42.9785 134.789 47.9396 134.772Z" stroke="#FFFFFF" stroke-width="9.15557" fill="#292929" fill-rule="evenodd" transform="matrix(1.00324 0 0 1 151 834)"/><path d="M79.7254 112.322C80.1134 112.871 81.1674 112.359 81.1674 111.419 81.164 107.295 77.7787 103.786 73.7343 103.711 69.6658 103.639 66.102 107.278 66.126 111.491 66.1294 112.411 67.283 112.709 67.7534 112.095 69.1679 110.234 71.3618 109.015 73.7343 109.056 76.1719 109.101 78.3624 110.399 79.7254 112.322Z" stroke="#FFFFFF" stroke-width="9.15557" fill="#292929" fill-rule="evenodd" transform="matrix(1.00324 0 0 1 151 834)"/><path d="M132.358 112.322C132.746 112.871 133.804 112.359 133.8 111.419 133.797 107.295 130.412 103.786 126.367 103.711 122.295 103.639 118.735 107.278 118.759 111.491 118.762 112.411 119.916 112.709 120.386 112.095 121.801 110.234 123.995 109.015 126.367 109.056 128.808 109.101 130.999 110.399 132.358 112.322Z" stroke="#FFFFFF" stroke-width="9.15557" fill="#292929" fill-rule="evenodd" transform="matrix(1.00324 0 0 1 151 834)"/><path d="M184.995 112.322C185.383 112.871 186.44 112.359 186.437 111.419 186.433 107.295 183.048 103.786 179.004 103.711 174.932 103.639 171.371 107.278 171.395 111.491 171.399 112.411 172.552 112.709 173.023 112.095 174.437 110.234 176.635 109.015 179.007 109.056 181.445 109.101 183.635 110.399 184.995 112.322Z" stroke="#FFFFFF" stroke-width="9.15557" fill="#292929" fill-rule="evenodd" transform="matrix(1.00324 0 0 1 151 834)"/><path d="M237.631 112.322C238.019 112.871 239.077 112.359 239.073 111.419 239.066 107.295 235.685 103.786 231.64 103.711 227.568 103.639 224.008 107.278 224.028 111.491 224.032 112.411 225.185 112.709 225.656 112.095 227.07 110.234 229.268 109.015 231.64 109.056 234.081 109.101 236.272 110.399 237.631 112.322Z" stroke="#FFFFFF" stroke-width="9.15557" fill="#292929" fill-rule="evenodd" transform="matrix(1.00324 0 0 1 151 834)"/><path d="M96.4629 98.9143C97.7436 97.232 99.7315 96.1265 101.881 96.1642 104.088 96.202 106.073 97.3762 107.305 99.1169 107.659 99.6147 108.614 99.1512 108.614 98.3032 108.61 94.5677 105.544 91.3885 101.884 91.3232 98.2002 91.2546 94.9729 94.5506 94.9935 98.3684 94.9935 99.1993 96.0406 99.4705 96.4629 98.9143Z" stroke="#FFFFFF" stroke-width="9.15557" fill="#292929" fill-rule="evenodd" transform="matrix(1.00324 0 0 1 151 834)"/><path d="M147.115 98.9143C148.396 97.232 150.383 96.1265 152.533 96.1642 154.737 96.202 156.725 97.3762 157.954 99.1169 158.308 99.6147 159.262 99.1512 159.262 98.3032 159.259 94.5677 156.193 91.3885 152.533 91.3232 148.845 91.2546 145.621 94.5506 145.639 98.3684 145.642 99.1993 146.689 99.4705 147.115 98.9143Z" stroke="#FFFFFF" stroke-width="9.15557" fill="#292929" fill-rule="evenodd" transform="matrix(1.00324 0 0 1 151 834)"/><path d="M197.767 98.9143C199.048 97.232 201.035 96.1265 203.185 96.1642 205.392 96.202 207.377 97.3762 208.609 99.1169 208.963 99.6147 209.917 99.1512 209.917 98.3032 209.914 94.5677 206.848 91.3885 203.188 91.3232 199.501 91.2546 196.277 94.5506 196.297 98.3684 196.297 99.1993 197.341 99.4705 197.767 98.9143Z" stroke="#FFFFFF" stroke-width="9.15557" fill="#292929" fill-rule="evenodd" transform="matrix(1.00324 0 0 1 151 834)"/><path d="M121.629 87.5054C122.69 86.1114 124.338 85.1947 126.12 85.2256 127.95 85.2565 129.595 86.2282 130.614 87.6736 130.906 88.0856 131.699 87.7011 131.696 86.9972 131.692 83.9038 129.152 81.2704 126.117 81.2121 123.061 81.1571 120.39 83.8866 120.407 87.0487 120.41 87.7423 121.276 87.9689 121.629 87.5054Z" stroke="#FFFFFF" stroke-width="9.15557" fill="#292929" fill-rule="evenodd" transform="matrix(1.00324 0 0 1 151 834)"/><path d="M178.207 86.9766C179.268 85.5827 180.916 84.666 182.698 84.6969 184.528 84.7278 186.173 85.6994 187.192 87.1449 187.484 87.5569 188.277 87.1723 188.277 86.4685 188.274 83.3716 185.733 80.7417 182.698 80.6833 179.646 80.6284 176.971 83.3579 176.988 86.52 176.988 87.2101 177.854 87.4367 178.207 86.9766Z" stroke="#FFFFFF" stroke-width="9.15557" fill="#292929" fill-rule="evenodd" transform="matrix(1.00324 0 0 1 151 834)"/></g></g></g><g clip-path="url(#clip21)"><g clip-path="url(#clip22)"><g clip-path="url(#clip23)"><path d="M280.977 167.749C280.63 166.699 276.431 155.612 272.823 145.759 269.678 138.326 267.525 136.89 262.671 136.89L258.338 136.918 254.008 136.89C249.15 136.89 247.001 138.326 243.856 145.759 240.251 155.612 236.052 166.702 235.702 167.749 235.015 169.823 233.913 173.85 236.855 174.959 239.798 176.068 241.137 173.558 242.393 170.283 243.647 167.004 246.287 157.154 248.522 151.407 248.714 150.912 248.934 150.435 249.14 149.947 249.226 149.968 249.312 149.989 249.394 150.009 249.257 152.423 249.054 161.25 248.996 163.667 248.718 174.489 244.419 208.75 243.186 215.922 242.565 220.269 243.458 222.404 246.283 222.404 249.112 222.404 250.355 221.879 251.231 217.406 252.518 208.414 254.952 189.602 255.78 183.199 255.955 181.822 256.233 180.192 258.341 180.174 260.449 180.192 260.727 181.822 260.906 183.199 261.73 189.602 264.164 208.414 265.455 217.406 266.331 221.879 267.573 222.404 270.399 222.404 273.225 222.404 274.117 220.269 273.496 215.922 272.267 208.75 267.965 174.489 267.687 163.667 267.625 161.253 267.422 152.423 267.288 150.009 267.371 149.989 267.457 149.968 267.543 149.947 267.749 150.435 267.968 150.912 268.161 151.407 270.396 157.154 273.032 167.004 274.289 170.283 275.546 173.558 276.881 176.068 279.824 174.959 282.766 173.85 281.664 169.823 280.977 167.749Z" fill="#292929" fill-rule="evenodd" transform="matrix(1.00324 0 0 1 151 834)"/><path d="M258.485 134.772C263.423 134.758 267.646 130.357 267.639 125.238 267.632 120.187 263.488 115.889 258.537 115.796 253.552 115.707 249.191 120.167 249.215 125.324 249.243 130.422 253.524 134.789 258.485 134.772Z" fill="#292929" fill-rule="evenodd" transform="matrix(1.00324 0 0 1 151 834)"/><path d="M220.187 145.759C217.042 138.326 214.892 136.89 210.034 136.89L205.701 136.918 201.372 136.89C196.514 136.89 194.364 138.326 191.22 145.759 187.615 155.612 183.416 166.702 183.065 167.749 182.379 169.823 181.277 173.85 184.219 174.959 187.161 176.068 188.5 173.558 189.753 170.283 191.007 167.004 193.647 157.154 195.882 151.407 196.074 150.912 196.294 150.435 196.5 149.947 196.586 149.968 196.672 149.989 196.754 150.009 196.617 152.423 196.418 161.25 196.356 163.667 196.078 174.489 191.779 208.75 190.547 215.922 189.925 220.269 190.818 222.404 193.643 222.404 196.469 222.404 197.712 221.879 198.587 217.406 199.875 208.414 202.309 189.602 203.137 183.199 203.312 181.822 203.59 180.192 205.698 180.174 207.806 180.192 208.084 181.822 208.263 183.199 209.087 189.602 211.521 208.414 212.812 217.406 213.687 221.879 214.93 222.404 217.759 222.404 220.588 222.404 221.477 220.269 220.856 215.922 219.627 208.75 215.325 174.489 215.05 163.667 214.988 161.253 214.786 152.423 214.649 150.009 214.734 149.989 214.817 149.968 214.903 149.947 215.109 150.435 215.328 150.912 215.521 151.407 217.756 157.154 220.393 167.004 221.649 170.283 222.906 173.558 224.245 176.068 227.187 174.959 230.129 173.854 229.027 169.823 228.341 167.749 227.994 166.699 223.795 155.612 220.187 145.759Z" fill="#292929" fill-rule="evenodd" transform="matrix(1.00324 0 0 1 151 834)"/><path d="M196.579 125.324C196.603 130.422 200.888 134.786 205.849 134.772 210.786 134.758 215.009 130.357 215.002 125.238 214.995 120.187 210.851 115.889 205.9 115.796 200.915 115.707 196.555 120.167 196.579 125.324Z" fill="#292929" fill-rule="evenodd" transform="matrix(1.00324 0 0 1 151 834)"/><path d="M167.55 145.759C164.405 138.326 162.256 136.89 157.398 136.89L153.065 136.918 148.735 136.89C143.881 136.89 141.728 138.326 138.583 145.759 134.978 155.612 130.779 166.702 130.429 167.749 129.742 169.823 128.64 173.85 131.583 174.959 134.525 176.068 135.864 173.558 137.117 170.283 138.374 167.004 141.01 157.154 143.246 151.407 143.438 150.912 143.658 150.435 143.864 149.947 143.949 149.968 144.032 149.989 144.118 150.009 143.98 152.423 143.781 161.25 143.719 163.667 143.441 174.489 139.143 208.75 137.914 215.922 137.292 220.269 138.181 222.404 141.01 222.404 143.84 222.404 145.079 221.879 145.954 217.406 147.242 208.414 149.676 189.602 150.504 183.199 150.679 181.822 150.957 180.192 153.065 180.174 155.173 180.192 155.451 181.822 155.63 183.199 156.454 189.602 158.888 208.414 160.175 217.406 161.051 221.879 162.294 222.404 165.123 222.404 167.952 222.404 168.841 220.269 168.22 215.922 166.99 208.75 162.689 174.489 162.414 163.667 162.352 161.253 162.149 152.423 162.012 150.009 162.098 149.989 162.18 149.968 162.266 149.947 162.472 150.435 162.695 150.912 162.884 151.407 165.116 157.154 167.756 167.004 169.013 170.283 170.266 173.558 171.605 176.068 174.547 174.959 177.49 173.854 176.391 169.823 175.701 167.749 175.358 166.699 171.159 155.612 167.55 145.759Z" fill="#292929" fill-rule="evenodd" transform="matrix(1.00324 0 0 1 151 834)"/><path d="M153.213 134.772C158.15 134.758 162.373 130.357 162.366 125.238 162.359 120.187 158.215 115.889 153.264 115.796 148.279 115.707 143.915 120.163 143.943 125.324 143.97 130.422 148.251 134.789 153.213 134.772Z" fill="#292929" fill-rule="evenodd" transform="matrix(1.00324 0 0 1 151 834)"/><path d="M114.914 145.759C111.769 138.326 109.619 136.89 104.761 136.89L100.432 136.918 96.1024 136.89C91.2443 136.89 89.0916 138.326 85.9501 145.759 82.3416 155.612 78.1461 166.702 77.7959 167.749 77.1092 169.823 76.0071 173.85 78.9495 174.959 81.8919 176.068 83.2309 173.558 84.484 170.283 85.7406 167.004 88.3774 157.154 90.6125 151.407 90.8048 150.912 91.0245 150.435 91.2305 149.947 91.3164 149.968 91.3988 149.989 91.4846 150.009 91.3473 152.423 91.1481 161.25 91.0863 163.667 90.8082 174.489 86.5097 208.75 85.2806 215.922 84.6591 220.269 85.5484 222.404 88.3774 222.404 91.2065 222.404 92.4494 221.879 93.3249 217.406 94.6124 208.414 97.0466 189.602 97.8706 183.199 98.0491 181.822 98.3238 180.192 100.435 180.174 102.543 180.192 102.821 181.822 103 183.199 103.824 189.602 106.258 208.414 107.546 217.406 108.425 221.879 109.664 222.404 112.493 222.404 115.322 222.404 116.211 220.269 115.59 215.922 114.361 208.75 110.059 174.489 109.784 163.667 109.722 161.253 109.52 152.423 109.386 150.009 109.468 149.989 109.554 149.968 109.64 149.947 109.846 150.435 110.069 150.912 110.258 151.407 112.493 157.154 115.13 167.004 116.387 170.283 117.643 173.558 118.979 176.068 121.921 174.959 124.863 173.854 123.765 169.823 123.075 167.749 122.721 166.699 118.522 155.612 114.914 145.759Z" fill="#292929" fill-rule="evenodd" transform="matrix(1.00324 0 0 1 151 834)"/><path d="M100.576 134.772C105.513 134.758 109.736 130.357 109.729 125.238 109.722 120.187 105.578 115.889 100.628 115.796 95.6424 115.707 91.2786 120.163 91.3061 125.324 91.3335 130.422 95.6149 134.789 100.576 134.772Z" fill="#292929" fill-rule="evenodd" transform="matrix(1.00324 0 0 1 151 834)"/><path d="M62.2807 145.759C59.1357 138.326 56.983 136.89 52.1283 136.89L47.7954 136.918 43.466 136.89C38.6078 136.89 36.4551 138.326 33.3136 145.759 29.7052 155.612 25.5097 166.702 25.1595 167.749 24.4694 169.823 23.3707 173.85 26.3131 174.959 29.2554 176.068 30.5944 173.558 31.8476 170.283 33.1042 167.004 35.741 157.154 37.9761 151.407 38.1684 150.912 38.3881 150.435 38.5941 149.947 38.6799 149.968 38.7623 149.989 38.8482 150.009 38.7108 152.423 38.5083 161.25 38.4465 163.667 38.1684 174.489 33.8698 208.75 32.6407 215.922 32.0193 220.269 32.9085 222.404 35.7376 222.404 38.5666 222.404 39.8095 221.879 40.685 217.406 41.9725 208.414 44.4067 189.602 45.2307 183.199 45.4093 181.822 45.6839 180.192 47.7954 180.174 49.9035 180.192 50.1816 181.822 50.3601 183.199 51.1841 189.602 53.6184 208.414 54.9093 217.406 55.7848 221.879 57.0277 222.404 59.8533 222.404 62.6789 222.404 63.5716 220.269 62.9502 215.922 61.721 208.75 57.4225 174.489 57.1444 163.667 57.0826 161.253 56.88 152.423 56.7461 150.009 56.8285 149.989 56.9144 149.968 57.0002 149.947 57.2096 150.435 57.4294 150.912 57.6182 151.407 59.8533 157.154 62.4901 167.004 63.7467 170.283 65.0033 173.558 66.3389 176.068 69.2812 174.959 72.2236 173.854 71.1249 169.823 70.4348 167.749 70.0846 166.699 65.8857 155.612 62.2807 145.759Z" fill="#292929" fill-rule="evenodd" transform="matrix(1.00324 0 0 1 151 834)"/><path d="M47.9396 134.772C52.8768 134.758 57.0998 130.357 57.0929 125.238 57.086 120.187 52.942 115.889 47.9911 115.796 43.0059 115.707 38.6422 120.163 38.6731 125.324 38.6971 130.422 42.9785 134.789 47.9396 134.772Z" fill="#292929" fill-rule="evenodd" transform="matrix(1.00324 0 0 1 151 834)"/><path d="M79.7254 112.322C80.1134 112.871 81.1674 112.359 81.1674 111.419 81.164 107.295 77.7787 103.786 73.7343 103.711 69.6658 103.639 66.102 107.278 66.126 111.491 66.1294 112.411 67.283 112.709 67.7534 112.095 69.1679 110.234 71.3618 109.015 73.7343 109.056 76.1719 109.101 78.3624 110.399 79.7254 112.322Z" fill="#292929" fill-rule="evenodd" transform="matrix(1.00324 0 0 1 151 834)"/><path d="M132.358 112.322C132.746 112.871 133.804 112.359 133.8 111.419 133.797 107.295 130.412 103.786 126.367 103.711 122.295 103.639 118.735 107.278 118.759 111.491 118.762 112.411 119.916 112.709 120.386 112.095 121.801 110.234 123.995 109.015 126.367 109.056 128.808 109.101 130.999 110.399 132.358 112.322Z" fill="#292929" fill-rule="evenodd" transform="matrix(1.00324 0 0 1 151 834)"/><path d="M184.995 112.322C185.383 112.871 186.44 112.359 186.437 111.419 186.433 107.295 183.048 103.786 179.004 103.711 174.932 103.639 171.371 107.278 171.395 111.491 171.399 112.411 172.552 112.709 173.023 112.095 174.437 110.234 176.635 109.015 179.007 109.056 181.445 109.101 183.635 110.399 184.995 112.322Z" fill="#292929" fill-rule="evenodd" transform="matrix(1.00324 0 0 1 151 834)"/><path d="M237.631 112.322C238.019 112.871 239.077 112.359 239.073 111.419 239.066 107.295 235.685 103.786 231.64 103.711 227.568 103.639 224.008 107.278 224.028 111.491 224.032 112.411 225.185 112.709 225.656 112.095 227.07 110.234 229.268 109.015 231.64 109.056 234.081 109.101 236.272 110.399 237.631 112.322Z" fill="#292929" fill-rule="evenodd" transform="matrix(1.00324 0 0 1 151 834)"/><path d="M96.4629 98.9143C97.7436 97.232 99.7315 96.1265 101.881 96.1642 104.088 96.202 106.073 97.3762 107.305 99.1169 107.659 99.6147 108.614 99.1512 108.614 98.3032 108.61 94.5677 105.544 91.3885 101.884 91.3232 98.2002 91.2546 94.9729 94.5506 94.9935 98.3684 94.9935 99.1993 96.0406 99.4705 96.4629 98.9143Z" fill="#292929" fill-rule="evenodd" transform="matrix(1.00324 0 0 1 151 834)"/><path d="M147.115 98.9143C148.396 97.232 150.383 96.1265 152.533 96.1642 154.737 96.202 156.725 97.3762 157.954 99.1169 158.308 99.6147 159.262 99.1512 159.262 98.3032 159.259 94.5677 156.193 91.3885 152.533 91.3232 148.845 91.2546 145.621 94.5506 145.639 98.3684 145.642 99.1993 146.689 99.4705 147.115 98.9143Z" fill="#292929" fill-rule="evenodd" transform="matrix(1.00324 0 0 1 151 834)"/><path d="M197.767 98.9143C199.048 97.232 201.035 96.1265 203.185 96.1642 205.392 96.202 207.377 97.3762 208.609 99.1169 208.963 99.6147 209.917 99.1512 209.917 98.3032 209.914 94.5677 206.848 91.3885 203.188 91.3232 199.501 91.2546 196.277 94.5506 196.297 98.3684 196.297 99.1993 197.341 99.4705 197.767 98.9143Z" fill="#292929" fill-rule="evenodd" transform="matrix(1.00324 0 0 1 151 834)"/><path d="M121.629 87.5054C122.69 86.1114 124.338 85.1947 126.12 85.2256 127.95 85.2565 129.595 86.2282 130.614 87.6736 130.906 88.0856 131.699 87.7011 131.696 86.9972 131.692 83.9038 129.152 81.2704 126.117 81.2121 123.061 81.1571 120.39 83.8866 120.407 87.0487 120.41 87.7423 121.276 87.9689 121.629 87.5054Z" fill="#292929" fill-rule="evenodd" transform="matrix(1.00324 0 0 1 151 834)"/><path d="M178.207 86.9766C179.268 85.5827 180.916 84.666 182.698 84.6969 184.528 84.7278 186.173 85.6994 187.192 87.1449 187.484 87.5569 188.277 87.1723 188.277 86.4685 188.274 83.3716 185.733 80.7417 182.698 80.6833 179.646 80.6284 176.971 83.3579 176.988 86.52 176.988 87.2101 177.854 87.4367 178.207 86.9766Z" fill="#292929" fill-rule="evenodd" transform="matrix(1.00324 0 0 1 151 834)"/></g></g></g></g></svg>