<svg width="550" height="553" xmlns="http://www.w3.org/2000/svg" xmlns:xlink="http://www.w3.org/1999/xlink" overflow="hidden"><defs><clipPath id="clip0"><rect x="2501" y="1240" width="550" height="553"/></clipPath><radialGradient cx="762000" cy="762000" r="1.07763e+06" gradientUnits="userSpaceOnUse" spreadMethod="pad" id="fill1" gradientTransform="matrix(0.000360892 0 0 0.000360892 2501 1243)"><stop offset="0" stop-color="#FFFFFF"/><stop offset="0.15" stop-color="#FFFFFF"/><stop offset="0.45" stop-color="#FF0000"/><stop offset="1" stop-color="#0F1113"/></radialGradient><radialGradient cx="274320" cy="328353" r="427863" fx="274320" fy="328353" gradientUnits="userSpaceOnUse" spreadMethod="pad" id="fill2" gradientTransform="matrix(0.000360892 0 0 0.000360892 2504 1240)"><stop offset="0" stop-color="#FFFFFF"/><stop offset="0.54" stop-color="#FF0000" stop-opacity="0"/><stop offset="1" stop-color="#FF0000" stop-opacity="0"/></radialGradient><linearGradient x1="2774" y1="1249" x2="2774" y2="1403" gradientUnits="userSpaceOnUse" spreadMethod="reflect" id="fill3"><stop offset="0" stop-color="#F5FAFF" stop-opacity="0.231373"/><stop offset="0.32" stop-color="#FFFFFF" stop-opacity="0"/><stop offset="1" stop-color="#FFFFFF" stop-opacity="0"/></linearGradient><radialGradient cx="94211" cy="102524" r="139236" gradientUnits="userSpaceOnUse" spreadMethod="pad" id="fill4" gradientTransform="matrix(0.000360892 0 0 0.000360892 2506 1321)"><stop offset="0" stop-color="#FFFFFF"/><stop offset="0.54" stop-color="#FF0000" stop-opacity="0"/><stop offset="1" stop-color="#FF0000" stop-opacity="0"/></radialGradient><radialGradient cx="112222" cy="120534" r="164688" gradientUnits="userSpaceOnUse" spreadMethod="pad" id="fill5" gradientTransform="matrix(0.000360892 0 0 0.000360892 2535 1366)"><stop offset="0" stop-color="#FFFFFF"/><stop offset="0.54" stop-color="#FF0000" stop-opacity="0"/><stop offset="1" stop-color="#FF0000" stop-opacity="0"/></radialGradient><radialGradient cx="241069" cy="256309" r="351864" fx="241069" fy="256309" gradientUnits="userSpaceOnUse" spreadMethod="pad" id="fill6" gradientTransform="matrix(0.000360892 0 0 0.000360892 2863 1600)"><stop offset="0" stop-color="#FFFFFF"/><stop offset="0.54" stop-color="#FF0000" stop-opacity="0"/><stop offset="1" stop-color="#FF0000" stop-opacity="0"/></radialGradient><radialGradient cx="72043.5" cy="77585.5" r="105876" fx="72043.5" fy="77585.5" gradientUnits="userSpaceOnUse" spreadMethod="pad" id="fill7" gradientTransform="matrix(0.000360892 0 0 0.000360892 2997 1709)"><stop offset="0" stop-color="#FFFFFF"/><stop offset="0.54" stop-color="#FF0000" stop-opacity="0"/><stop offset="1" stop-color="#FF0000" stop-opacity="0"/></radialGradient><radialGradient cx="77585.5" cy="84513" r="114726" fx="77585.5" fy="84513" gradientUnits="userSpaceOnUse" spreadMethod="pad" id="fill8" gradientTransform="matrix(0.000360892 0 0 0.000360892 2981 1626)"><stop offset="0" stop-color="#FFFFFF"/><stop offset="0.54" stop-color="#FF0000" stop-opacity="0"/><stop offset="1" stop-color="#FF0000" stop-opacity="0"/></radialGradient><clipPath id="clip9"><rect x="2512" y="1259" width="527" height="527"/></clipPath><clipPath id="clip10"><rect x="2512" y="1259" width="527" height="527"/></clipPath><clipPath id="clip11"><rect x="2512" y="1259" width="527" height="527"/></clipPath><clipPath id="clip12"><rect x="2521" y="1339" width="507" height="338"/></clipPath><clipPath id="clip13"><rect x="2521" y="1339" width="507" height="338"/></clipPath><clipPath id="clip14"><rect x="2521" y="1339" width="507" height="338"/></clipPath></defs><g clip-path="url(#clip0)" transform="translate(-2501 -1240)"><rect x="2501" y="1243" width="550" height="550" fill="url(#fill1)"/><path d="M2504 1358.5C2504 1293.05 2548.32 1240 2603 1240 2657.68 1240 2702 1293.05 2702 1358.5 2702 1423.95 2657.68 1477 2603 1477 2548.32 1477 2504 1423.95 2504 1358.5Z" fill="url(#fill2)" fill-rule="evenodd"/><path d="M2534.79 1249 3013.21 1249C3029.11 1249 3042 1268.86 3042 1293.37L3042 1403C3042 1364.82 3021.92 1333.88 2997.15 1333.88L2550.85 1333.88C2526.08 1333.88 2506 1364.82 2506 1403L2506 1293.37C2506 1268.86 2518.89 1249 2534.79 1249Z" fill="url(#fill3)" fill-rule="evenodd"/><path d="M2506 1358C2506 1337.57 2521.22 1321 2540 1321 2558.78 1321 2574 1337.57 2574 1358 2574 1378.43 2558.78 1395 2540 1395 2521.22 1395 2506 1378.43 2506 1358Z" fill="url(#fill4)" fill-rule="evenodd"/><path d="M2535 1409.5C2535 1385.48 2553.13 1366 2575.5 1366 2597.87 1366 2616 1385.48 2616 1409.5 2616 1433.52 2597.87 1453 2575.5 1453 2553.13 1453 2535 1433.52 2535 1409.5Z" fill="url(#fill5)" fill-rule="evenodd"/><path d="M2863 1692.5C2863 1641.41 2901.95 1600 2950 1600 2998.05 1600 3037 1641.41 3037 1692.5 3037 1743.59 2998.05 1785 2950 1785 2901.95 1785 2863 1743.59 2863 1692.5Z" fill="url(#fill6)" fill-rule="evenodd"/><path d="M2997 1737C2997 1721.54 3008.64 1709 3023 1709 3037.36 1709 3049 1721.54 3049 1737 3049 1752.46 3037.36 1765 3023 1765 3008.64 1765 2997 1752.46 2997 1737Z" fill="url(#fill7)" fill-rule="evenodd"/><path d="M2981 1656.5C2981 1639.66 2993.54 1626 3009 1626 3024.46 1626 3037 1639.66 3037 1656.5 3037 1673.34 3024.46 1687 3009 1687 2993.54 1687 2981 1673.34 2981 1656.5Z" fill="url(#fill8)" fill-rule="evenodd"/><g clip-path="url(#clip9)"><g clip-path="url(#clip10)"><g clip-path="url(#clip11)"><path d="M198.157 246.339 168.967 453.075C168.296 457.875 164.589 461.676 159.811 462.473 155.032 463.269 150.286 460.885 148.092 456.571L73.9402 311.147C71.9032 307.146 70.8742 302.704 70.9376 298.222L73.9196 99.8852C73.9725 96.1477 76.3547 92.8511 79.884 91.6121 83.4116 90.3731 87.3285 91.4857 89.702 94.3841L189.955 216.994C196.663 225.205 199.645 235.84 198.155 246.34ZM195.006 209.842C202.125 218.546 213.371 222.767 224.448 220.899L473.642 178.993C476.971 178.436 479.618 175.906 480.345 172.62 481.058 169.324 479.693 165.931 476.91 164.041L327.989 63.2192C324.335 60.7412 319.977 59.5022 315.558 59.6921L100.181 68.8267C96.4207 68.9837 93.0712 71.2618 91.5281 74.6848 89.9951 78.1183 90.5319 82.1297 92.9141 85.0483ZM488.692 190.689C486.391 187.834 482.738 186.437 479.115 187.046L236.145 227.911C220.301 230.579 208.015 243.199 205.758 259.096L176.819 463.741C176.021 469.381 178.236 475.029 182.657 478.63 187.078 482.221 193.074 483.228 198.428 481.298L400.387 408.345C404.722 406.781 408.188 403.442 409.921 399.157L490.184 200.834C491.549 197.421 490.98 193.547 488.692 190.691Z" fill="#FFFFFF" transform="matrix(1.0019 0 0 1 2512 1260)"/></g></g></g><g clip-path="url(#clip12)"><g clip-path="url(#clip13)"><g clip-path="url(#clip14)"><path d="M129.427 242.737C126.402 237.851 122.196 233.775 117.21 230.898 120.543 234.663 124.586 238.694 129.427 242.737Z" stroke="#FFFFFF" stroke-width="4.58503" fill="#C00000" transform="matrix(1 0 0 1.00174 2521.03 1340)"/><path d="M489.765 285.365C491.604 282.128 492.659 278.389 492.659 274.401 492.659 262.123 482.705 252.169 470.427 252.169 467.962 252.169 465.593 252.577 463.378 253.317 463.443 252.634 463.48 251.942 463.48 251.242 463.48 239.476 453.941 229.936 442.175 229.936 437.083 229.936 432.412 231.724 428.747 234.703 424.98 231.45 420.507 228.993 415.586 227.592 415.71 226.383 415.774 225.156 415.774 223.914 415.774 209.671 407.421 197.381 395.349 191.665L397.243 183.618 390.789 189.878C387.417 188.82 383.83 188.249 380.11 188.249 377.058 188.249 374.097 188.634 371.27 189.355 377.715 180.208 382.749 168.27 384.85 152.905 384.85 152.905 383.843 155.727 381.346 160.255 374.911 171.921 358.571 194.91 324.051 210.115 321.52 211.23 318.899 212.304 316.171 213.326 318.211 216.093 326.681 216.941 337.052 214.004 337.027 214.054 336.998 214.109 336.973 214.158 335.629 216.758 334.509 218.822 333.731 220.223 332.952 221.627 332.534 222.339 332.534 222.342L327.203 231.427 337.343 229.507 337.555 229.467C337.879 229.349 359.449 225.395 379.605 211.927 373.872 226.555 365.466 239.367 357.722 249.16 355.422 252.074 353.19 254.702 351.105 257.053 358.867 254.049 365.552 250.588 371.23 247.06 379.643 235.112 387.988 220.117 392.607 203.02 400.505 208.284 406.178 216.614 407.938 226.31 407.317 226.278 406.692 226.259 406.064 226.259 402.288 226.259 398.656 226.869 395.251 227.984 393.859 231.029 392.378 233.882 390.817 236.545 381.639 246.185 359.976 264.268 322.674 270.195 319.95 270.628 317.167 271.013 314.276 271.308 315.708 274.918 325.703 278.246 338.63 277.029 339.491 278.08 341.035 279.759 343.326 281.48 346.819 284.108 352.217 286.813 359.188 286.808 360.913 286.81 362.719 286.643 364.595 286.284 359.527 297.014 351.555 304.809 344.091 310.221 339.385 313.633 334.92 316.058 331.666 317.61 330.038 318.389 328.714 318.946 327.815 319.305 327.365 319.485 327.023 319.613 326.802 319.694 326.58 319.776 326.517 319.794 326.517 319.797L321.983 321.328 325.046 330.401 329.582 328.867C329.876 328.76 339.13 325.629 349.707 317.975 359.05 311.211 369.531 300.755 375.232 285.66 375.966 283.719 376.629 281.711 377.191 279.614L380.011 269.074 370.348 274.135C370.075 274.276 369.815 274.395 369.548 274.526 365.432 276.545 362.022 277.226 359.187 277.233 355.521 277.227 352.643 276.098 350.425 274.726 355.533 273.209 360.812 270.937 365.997 267.71 375.848 261.58 385.358 252.004 392.715 237.602 394.538 237.253 396.418 237.063 398.344 237.063 414.799 237.063 428.139 250.403 428.139 266.859 428.139 267.037 428.129 267.215 428.126 267.393 423.47 268.429 419.17 270.4 415.425 273.098 418.415 272.261 421.564 271.803 424.822 271.803 444.05 271.803 459.635 287.389 459.635 306.617 459.635 318.093 454.08 328.27 445.512 334.612 448.091 333.853 450.544 332.805 452.836 331.503 463.346 325.532 470.443 314.242 470.443 301.289 470.443 296.876 469.612 292.659 468.112 288.777 469.075 288.666 470.053 288.602 471.046 288.602 485.03 288.602 496.366 299.939 496.366 313.92 496.366 322.99 491.596 330.939 484.43 335.411 496.662 333.18 505.94 322.475 505.94 309.598 505.936 298.679 499.26 289.316 489.765 285.365ZM353.124 214.797C350.611 215.769 348.254 216.588 346.137 217.268 347.453 214.69 348.944 211.672 350.521 208.311 355.037 205.733 359.559 202.412 363.79 198.218 366.683 197.46 369.72 197.053 372.852 197.053 375.994 197.053 379.041 197.463 381.944 198.226 372.767 206.014 361.985 211.376 353.124 214.797ZM456.586 253.124C456.586 254.639 456.368 256.1 455.994 257.499 453.087 259.983 450.827 263.201 449.506 266.869 448.686 267.458 447.81 267.971 446.888 268.407 444.773 267.688 442.567 267.169 440.291 266.868 440.617 264.958 440.795 262.998 440.795 260.995 440.795 252.178 437.504 244.134 432.091 238.009 434.373 236.863 436.94 236.202 439.667 236.202 449.012 236.203 456.586 243.778 456.586 253.124ZM467.153 286.54C463.837 279.486 458.221 273.733 451.269 270.242 453.761 263.514 460.216 258.709 467.811 258.709 477.563 258.709 485.466 266.613 485.466 276.362 485.466 278.98 484.882 281.457 483.858 283.69 482.5 283.473 481.108 283.357 479.689 283.357 475.149 283.358 470.878 284.512 467.153 286.54Z" stroke="#FFFFFF" stroke-width="4.58503" fill="#C00000" transform="matrix(1 0 0 1.00174 2521.03 1340)"/><path d="M393.485 228.617C385.895 231.566 379.6 237.1 375.683 244.146 384.376 238.157 390.21 232.33 393.485 228.617Z" stroke="#FFFFFF" stroke-width="4.58503" fill="#C00000" transform="matrix(1 0 0 1.00174 2521.03 1340)"/><path d="M278.83 231.934C278.849 231.717 278.862 231.499 278.862 231.277L278.862 185.885 290.71 200.94C292.096 202.703 294.183 203.767 296.425 203.857 296.528 203.861 296.63 203.863 296.732 203.863 298.864 203.863 300.899 202.973 302.353 201.402L325.65 176.189C328.52 173.083 328.328 168.237 325.223 165.368 322.117 162.497 317.271 162.688 314.4 165.795L297.195 184.411 288.328 173.143C293.681 165.761 297.319 155.052 295.218 140.561 295.218 140.561 295.1 142.345 294.417 145.327 292.669 152.942 287.178 168.44 270.285 182.522 267.823 183.218 265.888 183.208 264.997 182.522 272.518 176.938 278.077 171.01 282.194 165.349L279.052 161.356C277.708 159.649 275.785 158.672 273.781 158.476 269.867 165.989 262.01 171.134 252.969 171.134 243.928 171.134 236.071 165.989 232.157 158.477 230.152 158.673 228.227 159.65 226.884 161.358L226.882 161.356 216.791 174.18C227.277 185.297 242.959 197.445 265.813 206.125 264.673 207.66 261.527 208.588 257.172 208.586 222.965 193.349 206.839 170.459 200.498 158.85 198.038 154.345 197.049 151.539 197.049 151.539 198.715 164.109 202.368 174.376 207.157 182.697L191.536 165.792C188.665 162.685 183.82 162.496 180.713 165.367 177.607 168.236 177.416 173.082 180.287 176.19L203.584 201.401C205.036 202.973 207.074 203.862 209.206 203.862 209.308 203.862 209.41 203.86 209.511 203.856 211.754 203.766 213.838 202.702 215.227 200.939L218.257 197.088C221.099 199.868 224.068 202.257 227.076 204.291L227.076 231.276C227.076 231.498 227.091 231.716 227.109 231.932L213.518 288.555C219.77 292.407 227.002 296.076 235.305 299.225L249.838 238.677 256.1 238.677 262.386 264.866C270.463 259.779 277.241 254.355 282.912 248.941L278.83 231.934Z" stroke="#FFFFFF" stroke-width="4.58503" fill="#C00000" transform="matrix(1 0 0 1.00174 2521.03 1340)"/><path d="M274.51 147.678C274.51 159.575 264.866 169.22 252.969 169.22 241.072 169.22 231.428 159.575 231.428 147.678 231.428 135.782 241.072 126.137 252.969 126.137 264.866 126.137 274.51 135.782 274.51 147.678Z" stroke="#FFFFFF" stroke-width="4.58503" fill="#C00000" transform="matrix(1 0 0 1.00174 2521.03 1340)"/><path d="M340.451 72.2863 335.205 61.9791 331.631 72.9766C331.631 72.9766 331.507 73.3596 331.236 74.1264 330.289 76.8176 327.651 83.84 323.816 90.8941 321.7 94.8557 319.136 98.7915 316.441 101.961 316.065 98.5972 315.496 94.5455 314.642 90.1157 321.761 80.1465 326.564 65.8087 323.914 46.4705 323.914 46.4705 323.738 48.8515 322.8 52.8361 320.37 63.1462 312.758 84.2766 289.511 103.341 287.815 104.733 286.057 106.116 284.188 107.482 286.934 109.628 297.017 107.152 306.431 99.094 306.785 101.633 307.035 103.912 307.208 105.816 307.382 107.737 307.481 109.279 307.537 110.329 307.591 111.378 307.599 111.889 307.602 111.889L307.762 119.977 314.774 115.944C323.561 110.745 329.537 100.805 333.941 92.1712 334.645 90.7638 335.299 89.389 335.9 88.0726 337.478 94.9936 338.117 102.786 338.102 110.463 338.102 113.477 338.005 116.471 337.845 119.393 341.829 115.078 345.044 110.827 347.623 106.855 347.327 94.8107 345.584 82.4528 340.451 72.2863Z" stroke="#FFFFFF" stroke-width="4.58503" fill="#C00000" transform="matrix(1 0 0 1.00174 2521.03 1340)"/><path d="M254.342 18.2171C239.914 10.5906 228.11 5.90419 228.006 5.86206L213.238 0 222.309 13.0453C228.131 21.3286 230.73 27.6014 230.646 31.5247 230.573 34.552 229.63 36.7052 226.299 39.629 224.089 41.515 220.785 43.4633 216.382 45.424 217.726 48.0999 219.311 50.9012 221.15 53.7801 225.695 51.7035 229.443 49.491 232.478 46.9434 237.342 42.9444 240.295 37.4634 240.221 31.5247 240.181 27.9106 239.293 24.331 237.711 20.6096 242.775 23.0002 248.865 26.0418 255.196 29.5755 259.05 31.7191 262.994 34.058 266.845 36.5347 268.633 33.4855 270.031 30.575 271.121 27.902 265.468 24.3195 259.724 21.0749 254.342 18.2171Z" stroke="#FFFFFF" stroke-width="4.58503" fill="#C00000" transform="matrix(1 0 0 1.00174 2521.03 1340)"/><path d="M362.713 177.83C367.203 164.101 370.626 149.069 370.648 134.772L370.648 118.265 361.816 132.21 361.818 132.21C361.649 132.47 359.488 135.683 355.417 139.185 352.607 141.604 348.923 144.15 344.342 146.056 344.856 143.152 345.426 139.57 345.949 135.533 354.672 126.44 361.107 111.699 358.905 89.2024 358.905 89.2024 358.488 92.9859 356.504 98.8135 352.958 109.228 344.398 126.177 324.243 139.762 320.897 142.016 317.234 144.18 313.218 146.205 315.87 148.896 325.346 148.808 335.025 143.749 334.703 145.608 334.401 147.21 334.149 148.481 333.931 149.582 333.75 150.443 333.624 151.02 333.498 151.599 333.435 151.87 333.435 151.872L331.734 159.151 339.058 157.65C348.121 155.791 355.133 151.698 360.132 147.71 358.119 162.246 353.156 177.498 347.94 190.343 353.659 186.227 358.551 181.981 362.713 177.83Z" stroke="#FFFFFF" stroke-width="4.58503" fill="#C00000" transform="matrix(1 0 0 1.00174 2521.03 1340)"/><path d="M296.69 48.6389C291.245 42.4724 284.25 36.7731 276.81 31.6569 277.471 26.9532 277.45 21.6809 276.441 15.7901 276.441 15.7901 276.37 17.5757 275.762 20.5742 274.211 28.2313 269.118 43.8654 252.59 58.3765 251.374 59.4449 250.111 60.5086 248.768 61.5608 251.935 63.8709 267.46 57.7973 274.165 41.5141 280.092 45.7917 285.466 50.3479 289.499 54.9577 296.217 62.545 300.605 73.304 303.311 83.4437 306.019 80.089 308.344 76.7803 310.329 73.5798 307.361 64.8159 303.064 55.9333 296.69 48.6389Z" stroke="#FFFFFF" stroke-width="4.58503" fill="#C00000" transform="matrix(1 0 0 1.00174 2521.03 1340)"/><path d="M183.913 267.881C180.824 263.78 179.441 261.148 179.441 261.148 185.712 283.188 197.304 296.864 209.59 304.917L205.894 320.315C204.368 326.673 208.286 333.061 214.642 334.586 220.998 336.114 227.388 332.2 228.916 325.84L231.762 313.985C243.887 316.339 253.616 314.231 255.393 310.932 252.568 310.307 249.839 309.618 247.198 308.877 211.142 298.757 191.868 278.448 183.913 267.881Z" stroke="#FFFFFF" stroke-width="4.58503" fill="#C00000" transform="matrix(1 0 0 1.00174 2521.03 1340)"/><path d="M210.922 92.6059C209.048 90.1865 208.192 88.6164 208.192 88.6164 218.487 123.172 250.713 122.303 253.283 117.385 251.611 117.037 250.008 116.643 248.444 116.224 227.2 110.54 215.707 98.7839 210.922 92.6059Z" stroke="#FFFFFF" stroke-width="4.58503" fill="#C00000" transform="matrix(1 0 0 1.00174 2521.03 1340)"/><path d="M103.288 271.789C107.414 281.194 112.372 288.783 117.781 294.87 128.873 307.356 141.861 313.498 153.48 315.886 154.405 316.615 155.326 317.32 156.235 317.978 166.811 325.632 176.065 328.763 176.359 328.868L180.896 330.401 183.958 321.333 179.424 319.8C179.424 319.8 179.361 319.779 179.139 319.696 178.313 319.397 175.793 318.42 172.375 316.671 179.48 315.689 184.371 313.27 185.293 310.804 182.418 310.57 179.649 310.243 176.938 309.869 125.434 302.752 103.288 271.789 103.288 271.789Z" stroke="#FFFFFF" stroke-width="4.58503" fill="#C00000" transform="matrix(1 0 0 1.00174 2521.03 1340)"/><path d="M127.877 165.902C125.891 161.897 125.115 159.406 125.115 159.406 126.246 171.586 129.584 181.401 134.116 189.23 131.456 188.596 128.682 188.251 125.827 188.251 122.106 188.251 118.518 188.823 115.147 189.88L108.695 183.626 110.588 191.667C98.5158 197.384 90.1636 209.673 90.1636 223.916 90.1636 225.158 90.2277 226.385 90.3512 227.594 85.4303 228.995 80.9574 231.451 77.1901 234.705 73.5252 231.726 68.8532 229.938 63.7627 229.938 51.9965 229.938 42.4571 239.478 42.4571 251.243 42.4571 251.943 42.4935 252.635 42.5586 253.319 40.3432 252.579 37.9746 252.171 35.5094 252.171 23.2309 252.171 13.277 262.124 13.277 274.403 13.277 278.391 14.332 282.13 16.1712 285.367 6.6768 289.316 0 298.679 0 309.604 0 322.48 9.27705 333.186 21.5105 335.417 14.3445 330.945 9.57384 322.995 9.57384 313.924 9.57384 299.944 20.9102 288.606 34.8938 288.606 35.8875 288.606 36.866 288.67 37.8282 288.782 36.3279 292.665 35.496 296.881 35.496 301.294 35.496 314.246 42.5921 325.536 53.1032 331.508 55.3962 332.81 57.848 333.858 60.4272 334.616 51.8596 328.275 46.3039 318.098 46.3039 306.621 46.3039 287.393 61.8891 271.808 81.1172 271.808 84.3743 271.808 87.5231 272.266 90.513 273.102 86.7687 270.405 82.4681 268.434 77.8124 267.397 77.8095 267.219 77.799 267.043 77.799 266.864 77.799 250.408 91.1391 237.067 107.595 237.067 108.276 237.067 108.949 237.098 109.62 237.143 116.586 252.5 126.916 262.389 137.351 268.384 143.331 271.821 149.345 273.978 154.782 275.154 152.667 276.325 149.99 277.247 146.751 277.235 143.911 277.231 140.504 276.549 136.389 274.53 136.123 274.399 135.863 274.281 135.591 274.139L125.927 269.081 128.746 279.618C129.308 281.715 129.973 283.723 130.706 285.664 131.322 287.297 131.997 288.869 132.718 290.393 137.324 292.858 142.489 295.219 148.234 297.321 145.641 294.049 143.279 290.386 141.344 286.288 143.221 286.647 145.026 286.813 146.751 286.811 153.72 286.816 159.114 284.11 162.611 281.482 165.826 279.07 167.574 276.735 168.012 276.122 171.757 275.731 174.398 274.667 175.35 273.203 173.152 272.522 171.024 271.804 168.948 271.059L168.162 270.389C167.877 270.415 167.59 270.44 167.295 270.458 118.228 252.191 103.254 216.901 103.254 216.901 103.938 220.375 104.77 223.654 105.721 226.761 103.82 226.439 101.869 226.262 99.8753 226.262 99.2472 226.262 98.6221 226.282 98.0017 226.314 98.9447 221.115 101.013 216.311 103.949 212.159 103.878 211.816 103.802 211.483 103.733 211.138 103.733 211.138 103.854 211.422 104.104 211.942 106.617 208.444 109.743 205.416 113.332 203.025 117.91 219.968 126.146 234.849 134.483 246.742 141.07 251.667 148.908 256.478 158.159 260.712 157.733 260.257 157.297 259.786 156.851 259.3 147.586 249.187 134.313 232.347 126.313 211.919 146.474 225.4 168.056 229.355 168.381 229.473L168.595 229.513 178.735 231.437 173.402 222.348C173.402 222.345 172.983 221.633 172.206 220.229 171.587 219.117 170.748 217.57 169.758 215.687 176.104 216.924 180.989 216.277 182.463 214.448 180.139 213.46 177.929 212.424 175.781 211.364 146.343 196.846 133.015 176.264 127.877 165.902ZM49.3493 253.124C49.3493 243.778 56.9241 236.203 66.2692 236.203 68.9968 236.203 71.5635 236.863 73.845 238.01 68.4319 244.134 65.1404 252.179 65.1404 260.996 65.1404 262.999 65.3195 264.959 65.644 266.869 63.3683 267.17 61.1634 267.689 59.0486 268.408 58.1266 267.972 57.2506 267.459 56.4301 266.871 55.1089 263.201 52.8486 259.983 49.941 257.498 49.5667 256.1 49.3493 254.639 49.3493 253.124ZM26.2467 283.358C24.8278 283.358 23.4349 283.474 22.0763 283.691 21.0538 281.458 20.4689 278.981 20.4689 276.363 20.4689 266.613 28.3721 258.71 38.123 258.71 45.7189 258.71 52.1746 263.515 54.6657 270.243 47.7132 273.734 42.0971 279.487 38.7817 286.541 35.0584 284.512 30.7876 283.358 26.2467 283.358ZM123.997 198.225C126.898 197.462 129.943 197.053 133.083 197.053 135.492 197.053 137.842 197.295 140.117 197.751 145.212 203.748 151.028 208.064 156.701 211.017 157.801 213.303 158.845 215.404 159.797 217.267 150.226 214.177 135.77 208.241 123.997 198.225Z" stroke="#FFFFFF" stroke-width="4.58503" fill="#C00000" transform="matrix(1 0 0 1.00174 2521.03 1340)"/><path d="M311.506 212.96C311.506 212.96 310.754 215.837 308.677 220.529 303.321 232.622 289.149 256.771 256.322 274.795 253.916 276.116 251.416 277.406 248.806 278.652 250.771 280.881 257.435 281.25 265.731 278.796L277.023 325.839C278.549 332.199 284.94 336.112 291.298 334.585 297.652 333.061 301.57 326.671 300.043 320.314L287.237 266.962C299.498 256.547 310.217 239.38 311.506 212.96Z" stroke="#FFFFFF" stroke-width="4.58503" fill="#C00000" transform="matrix(1 0 0 1.00174 2521.03 1340)"/><path d="M207.619 30.7148C206.734 26.7196 206.591 24.3367 206.591 24.3367 205.176 33.7229 205.545 41.9468 207.095 49.0813 198.808 52.5862 193.496 59.2822 190.569 66.5248 187.39 74.2968 186.52 82.8348 186.509 90.4594 186.51 93.3 186.636 96.0161 186.83 98.5167 184.475 95.2109 182.31 91.4733 180.553 87.8869 178.56 83.9109 176.983 80.1436 175.916 77.393 175.38 76.0192 174.973 74.8971 174.7 74.1274 174.429 73.3605 174.306 72.9776 174.304 72.9776L170.732 61.9878 165.486 72.2844C162.086 79.012 160.177 86.7026 159.183 94.625 161.512 98.287 164.377 102.206 167.898 106.203 168.09 99.9346 168.746 93.7107 170.032 88.0679 170.634 89.3862 171.288 90.7629 171.993 92.1722 176.398 100.806 182.374 110.746 191.161 115.945L200.707 121.44 198.211 110.71C198.211 110.71 198.188 110.612 198.134 110.353 197.742 108.545 196.076 100.11 196.082 90.4594 196.069 83.6026 196.944 76.1532 199.422 70.1667 201.662 64.8408 204.84 60.7719 209.952 58.3085 219.303 81.0416 241.184 89.1516 245.496 85.8735 243.647 84.4844 241.908 83.077 240.23 81.6629 217.24 62.2874 209.91 41.0555 207.619 30.7148Z" stroke="#FFFFFF" stroke-width="4.58503" fill="#C00000" transform="matrix(1 0 0 1.00174 2521.03 1340)"/><path d="M150.785 87.3259C148.801 81.4983 148.384 77.7147 148.384 77.7147 146.421 97.7604 151.318 111.647 158.58 120.87 159.184 130.945 160.515 139.971 161.592 146.056 156.792 144.06 152.976 141.361 150.125 138.844 148.051 137.014 146.504 135.289 145.499 134.054 144.997 133.436 144.631 132.942 144.4 132.619 144.285 132.456 144.204 132.337 144.157 132.268 144.14 132.243 144.128 132.223 144.119 132.211L144.12 132.211 135.287 118.271 135.287 134.772C135.313 151.201 139.826 168.603 145.296 183.882 149.565 188.278 154.688 192.777 160.836 197.081 159.364 193.712 157.87 190.119 156.416 186.35 151.793 174.411 147.612 160.77 145.805 147.714 150.805 151.701 157.815 155.792 166.877 157.651L174.204 159.154 172.5 151.871C172.5 151.871 172.436 151.598 172.31 151.021 171.759 148.495 170.137 140.538 169.005 130.367 179.729 137.265 191.123 137.712 194.071 134.717 190.056 132.692 186.393 130.529 183.046 128.274 162.891 114.689 154.331 97.7403 150.785 87.3259Z" stroke="#FFFFFF" stroke-width="4.58503" fill="#C00000" transform="matrix(1 0 0 1.00174 2521.03 1340)"/></g></g></g></g></svg>