<svg width="550" height="550" xmlns="http://www.w3.org/2000/svg" xmlns:xlink="http://www.w3.org/1999/xlink" overflow="hidden"><defs><clipPath id="clip0"><rect x="657" y="38" width="550" height="550"/></clipPath><radialGradient cx="762000" cy="762000" r="1.07763e+06" gradientUnits="userSpaceOnUse" spreadMethod="pad" id="fill1" gradientTransform="matrix(0.000360892 0 0 0.000360892 657 38.0002)"><stop offset="0" stop-color="#FFFFFF"/><stop offset="0.26" stop-color="#FFFFFF"/><stop offset="0.5" stop-color="#20A0FB"/><stop offset="1" stop-color="#0F1113"/></radialGradient><radialGradient cx="374072" cy="419792" r="562278" gradientUnits="userSpaceOnUse" spreadMethod="pad" id="fill2" gradientTransform="matrix(0.000360892 0 0 0.000360892 662 46.0001)"><stop offset="0" stop-color="#FFFFFF"/><stop offset="0.54" stop-color="#20A0FB" stop-opacity="0"/><stop offset="1" stop-color="#20A0FB" stop-opacity="0"/></radialGradient><linearGradient x1="929.5" y1="44" x2="929.5" y2="198" gradientUnits="userSpaceOnUse" spreadMethod="reflect" id="fill3"><stop offset="0" stop-color="#F5FAFF" stop-opacity="0.231373"/><stop offset="0.32" stop-color="#FFFFFF" stop-opacity="0"/><stop offset="1" stop-color="#FFFFFF" stop-opacity="0"/></linearGradient><radialGradient cx="94211" cy="102524" r="139237" fx="94211" fy="102524" gradientUnits="userSpaceOnUse" spreadMethod="pad" id="fill4" gradientTransform="matrix(0.000360892 0 0 0.000360892 659 83.9999)"><stop offset="0" stop-color="#FFFFFF"/><stop offset="0.54" stop-color="#20A0FB" stop-opacity="0"/><stop offset="1" stop-color="#20A0FB" stop-opacity="0"/></radialGradient><radialGradient cx="110836" cy="120534" r="163748" gradientUnits="userSpaceOnUse" spreadMethod="pad" id="fill5" gradientTransform="matrix(0.000360892 0 0 0.000360892 679 131)"><stop offset="0" stop-color="#FFFFFF"/><stop offset="0.54" stop-color="#20A0FB" stop-opacity="0"/><stop offset="1" stop-color="#20A0FB" stop-opacity="0"/></radialGradient><radialGradient cx="292331" cy="278477" r="403741" fx="292331" fy="278476" gradientUnits="userSpaceOnUse" spreadMethod="pad" id="fill6" gradientTransform="matrix(0.000360892 0 0 0.000360892 989 360)"><stop offset="0" stop-color="#FFFFFF"/><stop offset="0.54" stop-color="#20A0FB" stop-opacity="0"/><stop offset="1" stop-color="#20A0FB" stop-opacity="0"/></radialGradient><radialGradient cx="72044" cy="77585.5" r="105877" fx="72044" fy="77585.5" gradientUnits="userSpaceOnUse" spreadMethod="pad" id="fill7" gradientTransform="matrix(0.000360892 0 0 0.000360892 1150 488)"><stop offset="0" stop-color="#FFFFFF"/><stop offset="0.54" stop-color="#20A0FB" stop-opacity="0"/><stop offset="1" stop-color="#20A0FB" stop-opacity="0"/></radialGradient><radialGradient cx="77585.5" cy="83127" r="113708" gradientUnits="userSpaceOnUse" spreadMethod="pad" id="fill8" gradientTransform="matrix(0.000360892 0 0 0.000360892 1146 433)"><stop offset="0" stop-color="#FFFFFF"/><stop offset="0.54" stop-color="#20A0FB" stop-opacity="0"/><stop offset="1" stop-color="#20A0FB" stop-opacity="0"/></radialGradient><clipPath id="clip9"><rect x="669" y="51" width="526" height="527"/></clipPath><clipPath id="clip10"><rect x="669" y="51" width="526" height="527"/></clipPath><clipPath id="clip11"><rect x="669" y="51" width="526" height="527"/></clipPath><clipPath id="clip12"><rect x="706" y="97" width="441" height="441"/></clipPath><clipPath id="clip13"><rect x="706" y="97" width="441" height="441"/></clipPath><clipPath id="clip14"><rect x="706" y="97" width="441" height="441"/></clipPath><clipPath id="clip15"><rect x="884" y="262" width="84" height="85"/></clipPath><clipPath id="clip16"><rect x="884" y="262" width="84" height="85"/></clipPath><clipPath id="clip17"><rect x="884" y="262" width="84" height="85"/></clipPath></defs><g clip-path="url(#clip0)" transform="translate(-657 -38)"><rect x="657" y="38.0002" width="550" height="550" fill="url(#fill1)"/><path d="M662 197.5C662 113.829 722.442 46.0001 797 46.0001 871.558 46.0001 932 113.829 932 197.5 932 281.171 871.558 349 797 349 722.442 349 662 281.171 662 197.5Z" fill="url(#fill2)" fill-rule="evenodd"/><path d="M690.734 44 1168.27 44C1184.14 44 1197 63.8639 1197 88.3676L1197 198C1197 159.824 1176.96 128.876 1152.23 128.876L706.767 128.876C682.043 128.876 662 159.824 662 198L662 88.3676C662 63.8639 674.865 44 690.734 44Z" fill="url(#fill3)" fill-rule="evenodd"/><path d="M659 121C659 100.565 674.222 83.9999 693 83.9999 711.778 83.9999 727 100.565 727 121 727 141.435 711.778 158 693 158 674.222 158 659 141.435 659 121Z" fill="url(#fill4)" fill-rule="evenodd"/><path d="M679 174.5C679 150.476 696.909 131 719 131 741.091 131 759 150.476 759 174.5 759 198.524 741.091 218 719 218 696.909 218 679 198.524 679 174.5Z" fill="url(#fill5)" fill-rule="evenodd"/><path d="M989 460.5C989 404.995 1036.23 360 1094.5 360 1152.77 360 1200 404.995 1200 460.5 1200 516.005 1152.77 561 1094.5 561 1036.23 561 989 516.005 989 460.5Z" fill="url(#fill6)" fill-rule="evenodd"/><path d="M1150 516C1150 500.536 1161.64 488 1176 488 1190.36 488 1202 500.536 1202 516 1202 531.464 1190.36 544 1176 544 1161.64 544 1150 531.464 1150 516Z" fill="url(#fill7)" fill-rule="evenodd"/><path d="M1146 463C1146 446.432 1158.54 433 1174 433 1189.46 433 1202 446.432 1202 463 1202 479.569 1189.46 493 1174 493 1158.54 493 1146 479.569 1146 463Z" fill="url(#fill8)" fill-rule="evenodd"/><g clip-path="url(#clip9)"><g clip-path="url(#clip10)"><g clip-path="url(#clip11)"><path d="M868.157 298.339 838.967 505.075C838.296 509.874 834.589 513.676 829.81 514.473 825.032 515.269 820.286 512.884 818.092 508.571L743.94 363.147C741.903 359.146 740.874 354.704 740.938 350.221L743.919 151.885C743.972 148.148 746.355 144.851 749.884 143.612 753.411 142.373 757.328 143.486 759.702 146.384L859.955 268.993C866.663 277.205 869.645 287.84 868.155 298.34ZM865.005 261.842C872.125 270.546 883.37 274.767 894.448 272.899L1143.64 230.993C1146.97 230.436 1149.62 227.906 1150.34 224.62 1151.06 221.323 1149.69 217.931 1146.91 216.041L997.988 115.219C994.335 112.741 989.977 111.502 985.557 111.692L770.18 120.827C766.421 120.984 763.071 123.262 761.528 126.685 759.995 130.118 760.532 134.13 762.914 137.048ZM1158.69 242.689C1156.39 239.834 1152.74 238.437 1149.11 239.046L906.145 279.911C890.301 282.579 878.015 295.199 875.757 311.096L846.819 515.741C846.021 521.381 848.236 527.029 852.657 530.63 857.078 534.221 863.073 535.228 868.428 533.298L1070.39 460.345C1074.72 458.781 1078.19 455.442 1079.92 451.157L1160.18 252.834C1161.55 249.421 1160.98 245.547 1158.69 242.691Z" fill="#FFFFFF"/></g></g></g><g clip-path="url(#clip12)"><g clip-path="url(#clip13)"><g clip-path="url(#clip14)"><path d="M1126.69 245.601 1061.27 266.847C1057.65 268.02 1055.68 271.899 1056.85 275.511 1058.09 279.062 1061.91 281.008 1065.51 279.926L1130.93 258.68C1134.55 257.509 1136.53 253.631 1135.35 250.019 1134.19 246.407 1130.31 244.428 1126.7 245.599 1126.69 245.599 1126.69 245.6 1126.69 245.601Z" fill="#023A63"/><path d="M1006.87 206.761C1009.95 208.956 1014.22 208.28 1016.47 205.241L1056.9 149.62C1059.14 146.548 1058.46 142.249 1055.38 140.017 1052.31 137.785 1048.02 138.465 1045.78 141.536L1005.35 197.157C1003.12 200.229 1003.8 204.528 1006.87 206.761Z" fill="#023A63"/><path d="M796.615 140.016C793.544 142.249 792.864 146.548 795.096 149.62L835.528 205.241C837.79 208.263 842.046 208.937 845.13 206.761 848.202 204.528 848.882 200.229 846.649 197.157L806.217 141.536C803.985 138.465 799.687 137.785 796.615 140.016Z" fill="#023A63"/><path d="M788.614 280.241C791.572 280.2 794.186 278.308 795.151 275.511 796.324 271.899 794.347 268.02 790.735 266.847L725.313 245.601C721.702 244.426 717.822 246.402 716.648 250.013 715.473 253.624 717.448 257.503 721.059 258.678 721.062 258.678 721.064 258.679 721.066 258.68L786.489 279.926C787.175 280.147 787.893 280.254 788.614 280.241Z" fill="#023A63"/><path d="M932.875 173.625 932.875 104.875C932.875 101.078 929.797 98 926 98 922.203 98 919.125 101.078 919.125 104.875L919.125 173.625C919.125 177.422 922.203 180.5 926 180.5 929.797 180.5 932.875 177.422 932.875 173.625Z" fill="#023A63"/><path d="M883.485 187.231C887.096 186.057 889.072 182.178 887.898 178.567 887.898 178.566 887.898 178.566 887.898 178.566L876.205 142.604C875.038 138.991 871.164 137.008 867.551 138.175 863.938 139.342 861.956 143.216 863.122 146.829 863.125 146.837 863.128 146.845 863.13 146.853 863.13 146.853 874.811 182.78 874.822 182.816 876.033 186.395 879.878 188.355 883.485 187.231Z" fill="#023A63"/><path d="M772.961 206.875C770.73 209.946 771.41 214.244 774.481 216.475 774.481 216.475 774.482 216.476 774.483 216.477L805.091 238.703C808.174 240.889 812.439 240.212 814.693 237.178 816.925 234.108 816.244 229.811 813.174 227.58 813.173 227.579 813.172 227.578 813.171 227.578L782.563 205.351C779.494 203.12 775.197 203.799 772.966 206.868 772.964 206.871 772.962 206.873 772.961 206.876Z" fill="#023A63"/><path d="M788.418 318C788.417 314.203 785.339 311.125 781.543 311.125L743.707 311.125C739.91 311.125 736.832 314.203 736.832 318 736.832 321.797 739.91 324.875 743.707 324.875L781.543 324.875C785.339 324.875 788.417 321.797 788.418 318Z" fill="#023A63"/><path d="M1108.29 311.125 1070.46 311.125C1066.66 311.125 1063.58 314.203 1063.58 318 1063.58 321.797 1066.66 324.875 1070.46 324.875L1108.29 324.875C1112.09 324.875 1115.17 321.797 1115.17 318 1115.17 314.203 1112.09 311.125 1108.29 311.125Z" fill="#023A63"/><path d="M1037.31 237.178C1039.6 240.146 1043.81 240.814 1046.91 238.702L1077.52 216.476C1080.59 214.245 1081.27 209.946 1079.04 206.874 1076.81 203.802 1072.51 203.12 1069.44 205.351L1038.83 227.578C1035.76 229.807 1035.08 234.104 1037.3 237.176 1037.31 237.177 1037.31 237.177 1037.31 237.178Z" fill="#023A63"/><path d="M977.178 182.816 988.87 146.853C990.05 143.245 988.082 139.363 984.473 138.183 980.865 137.003 976.983 138.971 975.803 142.579 975.8 142.587 975.797 142.595 975.795 142.604L964.103 178.566C962.928 182.177 964.904 186.056 968.515 187.231 972.122 188.355 975.967 186.395 977.178 182.816Z" fill="#023A63"/><path d="M1080.59 454.335C1076.82 393.705 995.835 380.967 995.835 380.967 989.666 379.875 983.913 377.121 979.195 373 976.168 376.476 972.928 379.76 969.494 382.834 976.196 388.878 984.462 392.915 993.349 394.487L993.523 394.518 993.672 394.542C994.371 394.655 1063.43 406.341 1066.84 454.771 1066.83 458.69 1066.77 486.056 1066.94 517.32 1066.95 521.132 1063.88 524.236 1060.07 524.253 1060.06 524.253 1060.05 524.253 1060.05 524.253L791.956 524.253C788.146 524.25 785.059 521.16 785.063 517.347 785.063 517.341 785.063 517.33 785.063 517.32 785.234 486.056 785.167 458.69 785.156 454.771 788.566 406.341 857.629 394.655 858.303 394.546L858.478 394.519 858.652 394.487C866.734 393.057 874.317 389.586 880.682 384.405 877.827 382.103 875.152 379.588 872.679 376.882 872.028 376.158 871.406 375.39 870.771 374.642 866.462 377.861 861.461 380.027 856.166 380.967 856.166 380.967 775.183 393.705 771.405 454.335 771.405 454.335 771.499 483.289 771.313 517.244 771.254 528.65 780.45 537.942 791.854 538 791.888 538 791.922 538 791.956 538L1060.05 538C1071.45 537.997 1080.69 528.753 1080.69 517.347 1080.69 517.313 1080.69 517.279 1080.69 517.244 1080.5 483.289 1080.59 454.335 1080.59 454.335Z" fill="#023A63"/><path d="M882.906 367.642C893.627 379.661 908.921 386.599 925.027 386.75 936.493 386.807 947.631 382.921 956.573 375.742 975.711 360.406 988.663 336.657 995.132 313.663 997.138 306.582 998.166 299.26 998.188 291.901 998.188 253.158 965.866 221.75 926 221.75 907.398 221.685 889.471 228.719 875.878 241.419 861.834 254.453 853.841 272.74 853.813 291.901 854.429 319.759 864.714 346.535 882.906 367.642Z" fill="#023A63"/></g></g></g><g clip-path="url(#clip15)"><g clip-path="url(#clip16)"><g clip-path="url(#clip17)"><path d="M943.66 310.706 938.045 281.79C936.925 276.023 931.875 271.859 926 271.859L926 271.859C920.125 271.859 915.075 276.023 913.955 281.79L908.34 310.705C902.349 310.705 897.492 315.379 897.492 321.145 897.492 326.911 902.349 331.585 908.34 331.585 909.182 331.585 910.001 331.492 910.787 331.316L910.787 325.953C908.367 325.649 906.513 323.939 906.513 321.874 906.513 319.594 908.772 317.746 911.559 317.746 914.345 317.746 916.604 319.594 916.604 321.874 916.604 322.175 916.564 322.468 916.489 322.751L916.489 334.294C918.85 336.658 922.236 338.14 926 338.14 929.764 338.14 933.15 336.658 935.511 334.294L935.511 322.751C935.436 322.468 935.396 322.175 935.396 321.874 935.396 319.594 937.655 317.746 940.442 317.746 943.228 317.746 945.487 319.594 945.487 321.874 945.487 323.939 943.633 325.649 941.213 325.953L941.213 331.316C941.999 331.492 942.818 331.585 943.66 331.585 949.651 331.585 954.508 326.911 954.508 321.145 954.508 315.379 949.651 310.706 943.66 310.706Z" fill="#FFFFFF"/></g></g></g></g></svg>