<svg width="550" height="550" xmlns="http://www.w3.org/2000/svg" xmlns:xlink="http://www.w3.org/1999/xlink" overflow="hidden"><defs><clipPath id="clip0"><rect x="1855" y="629" width="550" height="550"/></clipPath><radialGradient cx="762000" cy="762000" r="1.07763e+06" gradientUnits="userSpaceOnUse" spreadMethod="pad" id="fill1" gradientTransform="matrix(0.000360892 0 0 0.000360892 1855 629)"><stop offset="0" stop-color="#FFFFFF"/><stop offset="0.26" stop-color="#FFFFFF"/><stop offset="0.5" stop-color="#20A0FB"/><stop offset="1" stop-color="#0F1113"/></radialGradient><radialGradient cx="374072" cy="419793" r="562278" gradientUnits="userSpaceOnUse" spreadMethod="pad" id="fill2" gradientTransform="matrix(0.000360892 0 0 0.000360892 1860 637)"><stop offset="0" stop-color="#FFFFFF"/><stop offset="0.54" stop-color="#20A0FB" stop-opacity="0"/><stop offset="1" stop-color="#20A0FB" stop-opacity="0"/></radialGradient><linearGradient x1="2128" y1="635" x2="2128" y2="789" gradientUnits="userSpaceOnUse" spreadMethod="reflect" id="fill3"><stop offset="0" stop-color="#F5FAFF" stop-opacity="0.231373"/><stop offset="0.32" stop-color="#FFFFFF" stop-opacity="0"/><stop offset="1" stop-color="#FFFFFF" stop-opacity="0"/></linearGradient><radialGradient cx="94211" cy="102524" r="139236" gradientUnits="userSpaceOnUse" spreadMethod="pad" id="fill4" gradientTransform="matrix(0.000360892 0 0 0.000360892 1857 675)"><stop offset="0" stop-color="#FFFFFF"/><stop offset="0.54" stop-color="#20A0FB" stop-opacity="0"/><stop offset="1" stop-color="#20A0FB" stop-opacity="0"/></radialGradient><radialGradient cx="110836" cy="120534" r="163748" gradientUnits="userSpaceOnUse" spreadMethod="pad" id="fill5" gradientTransform="matrix(0.000360892 0 0 0.000360892 1877 722)"><stop offset="0" stop-color="#FFFFFF"/><stop offset="0.54" stop-color="#20A0FB" stop-opacity="0"/><stop offset="1" stop-color="#20A0FB" stop-opacity="0"/></radialGradient><radialGradient cx="292331" cy="279862" r="404697" gradientUnits="userSpaceOnUse" spreadMethod="pad" id="fill6" gradientTransform="matrix(0.000360892 0 0 0.000360892 2187 950)"><stop offset="0" stop-color="#FFFFFF"/><stop offset="0.54" stop-color="#20A0FB" stop-opacity="0"/><stop offset="1" stop-color="#20A0FB" stop-opacity="0"/></radialGradient><radialGradient cx="72043.5" cy="77585.5" r="105876" fx="72043.5" fy="77585.5" gradientUnits="userSpaceOnUse" spreadMethod="pad" id="fill7" gradientTransform="matrix(0.000360892 0 0 0.000360892 2348 1079)"><stop offset="0" stop-color="#FFFFFF"/><stop offset="0.54" stop-color="#20A0FB" stop-opacity="0"/><stop offset="1" stop-color="#20A0FB" stop-opacity="0"/></radialGradient><radialGradient cx="77585.5" cy="83127" r="113708" gradientUnits="userSpaceOnUse" spreadMethod="pad" id="fill8" gradientTransform="matrix(0.000360892 0 0 0.000360892 2344 1024)"><stop offset="0" stop-color="#FFFFFF"/><stop offset="0.54" stop-color="#20A0FB" stop-opacity="0"/><stop offset="1" stop-color="#20A0FB" stop-opacity="0"/></radialGradient><clipPath id="clip9"><rect x="1868" y="643" width="526" height="526"/></clipPath><clipPath id="clip10"><rect x="1868" y="643" width="526" height="526"/></clipPath><clipPath id="clip11"><rect x="1868" y="643" width="526" height="526"/></clipPath><clipPath id="clip12"><rect x="1925" y="699" width="269" height="310"/></clipPath><clipPath id="clip13"><rect x="1925" y="699" width="269" height="310"/></clipPath><clipPath id="clip14"><rect x="1925" y="699" width="269" height="310"/></clipPath></defs><g clip-path="url(#clip0)" transform="translate(-1855 -629)"><rect x="1855" y="629" width="550" height="550" fill="url(#fill1)"/><path d="M1860 788.5C1860 704.829 1920.44 637 1995 637 2069.56 637 2130 704.829 2130 788.5 2130 872.171 2069.56 940 1995 940 1920.44 940 1860 872.171 1860 788.5Z" fill="url(#fill2)" fill-rule="evenodd"/><path d="M1888.79 635 2367.21 635C2383.11 635 2396 654.864 2396 679.368L2396 789C2396 750.824 2375.92 719.876 2351.15 719.876L1904.85 719.876C1880.08 719.876 1860 750.824 1860 789L1860 679.368C1860 654.864 1872.89 635 1888.79 635Z" fill="url(#fill3)" fill-rule="evenodd"/><path d="M1857 712C1857 691.566 1872.22 675 1891 675 1909.78 675 1925 691.566 1925 712 1925 732.435 1909.78 749 1891 749 1872.22 749 1857 732.435 1857 712Z" fill="url(#fill4)" fill-rule="evenodd"/><path d="M1877 765.5C1877 741.475 1894.91 722 1917 722 1939.09 722 1957 741.475 1957 765.5 1957 789.524 1939.09 809 1917 809 1894.91 809 1877 789.524 1877 765.5Z" fill="url(#fill5)" fill-rule="evenodd"/><path d="M2187 1051C2187 995.219 2234.23 950 2292.5 950 2350.77 950 2398 995.219 2398 1051 2398 1106.78 2350.77 1152 2292.5 1152 2234.23 1152 2187 1106.78 2187 1051Z" fill="url(#fill6)" fill-rule="evenodd"/><path d="M2348 1107C2348 1091.54 2359.64 1079 2374 1079 2388.36 1079 2400 1091.54 2400 1107 2400 1122.46 2388.36 1135 2374 1135 2359.64 1135 2348 1122.46 2348 1107Z" fill="url(#fill7)" fill-rule="evenodd"/><path d="M2344 1054C2344 1037.43 2356.54 1024 2372 1024 2387.46 1024 2400 1037.43 2400 1054 2400 1070.57 2387.46 1084 2372 1084 2356.54 1084 2344 1070.57 2344 1054Z" fill="url(#fill8)" fill-rule="evenodd"/><g clip-path="url(#clip9)"><g clip-path="url(#clip10)"><g clip-path="url(#clip11)"><path d="M2067.16 889.339 2037.97 1096.08C2037.3 1100.87 2033.59 1104.68 2028.81 1105.47 2024.03 1106.27 2019.29 1103.88 2017.09 1099.57L1942.94 954.147C1940.9 950.146 1939.87 945.704 1939.94 941.222L1942.92 742.885C1942.97 739.148 1945.35 735.851 1948.88 734.612 1952.41 733.373 1956.33 734.486 1958.7 737.384L2058.96 859.994C2065.66 868.205 2068.64 878.84 2067.15 889.34ZM2064.01 852.842C2071.12 861.546 2082.37 865.767 2093.45 863.899L2342.64 821.993C2345.97 821.436 2348.62 818.906 2349.34 815.62 2350.06 812.324 2348.69 808.931 2345.91 807.041L2196.99 706.219C2193.33 703.741 2188.98 702.502 2184.56 702.692L1969.18 711.827C1965.42 711.984 1962.07 714.262 1960.53 717.685 1958.99 721.118 1959.53 725.13 1961.91 728.048ZM2357.69 833.689C2355.39 830.834 2351.74 829.437 2348.11 830.046L2105.15 870.911C2089.3 873.579 2077.02 886.199 2074.76 902.096L2045.82 1106.74C2045.02 1112.38 2047.24 1118.03 2051.66 1121.63 2056.08 1125.22 2062.07 1126.23 2067.43 1124.3L2269.39 1051.34C2273.72 1049.78 2277.19 1046.44 2278.92 1042.16L2359.18 843.834C2360.55 840.421 2359.98 836.547 2357.69 833.691Z" fill="#FFFFFF"/></g></g></g><g clip-path="url(#clip12)"><g clip-path="url(#clip13)"><g clip-path="url(#clip14)"><path d="M133.729 308.604C60.0064 308.604 0 248.598 0 174.876 0 101.154 60.0064 41.1473 133.729 41.1473 207.451 41.1473 267.457 101.154 267.457 174.876 267.457 248.598 207.794 308.604 133.729 308.604ZM133.729 77.1511C79.8942 77.1511 36.3467 121.041 36.3467 174.533 36.3467 228.024 80.2371 272.258 133.729 272.258 187.22 272.258 231.453 228.367 231.453 174.876 231.453 121.384 187.563 77.1511 133.729 77.1511Z" fill="#023A63" transform="matrix(1.00075 0 0 1 1925 700.198)"/><path d="M189.963 174.533C189.963 204.022 166.303 227.681 136.472 227.681 106.983 227.681 83.3232 204.022 83.3232 174.533 83.3232 145.044 106.983 121.041 136.472 121.041 138.872 121.041 141.272 121.384 143.33 121.384 142.644 123.442 142.301 125.842 142.301 128.242 142.301 139.901 151.559 149.502 163.217 149.502 169.732 149.502 175.219 146.759 178.991 141.958 186.191 151.216 189.963 162.532 189.963 174.533Z" fill="#023A63" transform="matrix(1.00075 0 0 1 1925 700.198)"/><path d="M123.099 0 150.53 0 150.53 39.4328 123.099 39.4328Z" fill="#023A63" transform="matrix(1.00075 0 0 1 1925 700.198)"/><path d="M31.5577 25.7264 71.0048 25.7264 71.0048 53.1679 31.5577 53.1679Z" fill="#023A63" transform="matrix(0.707471 0.706743 -0.707271 0.706943 1967.94 675.434)"/><path d="M2156.36 721.754 2175.77 741.151 2147.87 769.034 2128.46 749.637Z" fill="#023A63"/></g></g></g><path d="M2121.64 968.373 2159.6 929.988 2321.89 1090.47 2283.94 1128.85Z" fill="#023A63" fill-rule="evenodd"/></g></svg>