<svg width="550" height="550" xmlns="http://www.w3.org/2000/svg" xmlns:xlink="http://www.w3.org/1999/xlink" overflow="hidden"><defs><clipPath id="clip0"><rect x="31" y="1233" width="550" height="550"/></clipPath><radialGradient cx="762000" cy="762000" r="1.07763e+06" gradientUnits="userSpaceOnUse" spreadMethod="pad" id="fill1" gradientTransform="matrix(0.000360892 0 0 0.000360892 30.9999 1233)"><stop offset="0" stop-color="#FFFFFF"/><stop offset="0.26" stop-color="#FFFFFF"/><stop offset="0.5" stop-color="#20A0FB"/><stop offset="1" stop-color="#0F1113"/></radialGradient><radialGradient cx="374072" cy="421178" r="563313" fx="374072" fy="421178" gradientUnits="userSpaceOnUse" spreadMethod="pad" id="fill2" gradientTransform="matrix(0.000360892 0 0 0.000360892 36.0001 1240)"><stop offset="0" stop-color="#FFFFFF"/><stop offset="0.54" stop-color="#20A0FB" stop-opacity="0"/><stop offset="1" stop-color="#20A0FB" stop-opacity="0"/></radialGradient><linearGradient x1="304.5" y1="1238" x2="304.5" y2="1393" gradientUnits="userSpaceOnUse" spreadMethod="reflect" id="fill3"><stop offset="0" stop-color="#F5FAFF" stop-opacity="0.231373"/><stop offset="0.32" stop-color="#FFFFFF" stop-opacity="0"/><stop offset="1" stop-color="#FFFFFF" stop-opacity="0"/></linearGradient><radialGradient cx="94211" cy="102524" r="139236" gradientUnits="userSpaceOnUse" spreadMethod="pad" id="fill4" gradientTransform="matrix(0.000360892 0 0 0.000360892 33 1279)"><stop offset="0" stop-color="#FFFFFF"/><stop offset="0.54" stop-color="#20A0FB" stop-opacity="0"/><stop offset="1" stop-color="#20A0FB" stop-opacity="0"/></radialGradient><radialGradient cx="112222" cy="120535" r="164689" fx="112222" fy="120535" gradientUnits="userSpaceOnUse" spreadMethod="pad" id="fill5" gradientTransform="matrix(0.000360892 0 0 0.000360892 52.9999 1326)"><stop offset="0" stop-color="#FFFFFF"/><stop offset="0.54" stop-color="#20A0FB" stop-opacity="0"/><stop offset="1" stop-color="#20A0FB" stop-opacity="0"/></radialGradient><radialGradient cx="293716" cy="278476" r="404745" gradientUnits="userSpaceOnUse" spreadMethod="pad" id="fill6" gradientTransform="matrix(0.000360892 0 0 0.000360892 363 1554)"><stop offset="0" stop-color="#FFFFFF"/><stop offset="0.54" stop-color="#20A0FB" stop-opacity="0"/><stop offset="1" stop-color="#20A0FB" stop-opacity="0"/></radialGradient><radialGradient cx="72044" cy="77585.5" r="105877" fx="72044" fy="77585.5" gradientUnits="userSpaceOnUse" spreadMethod="pad" id="fill7" gradientTransform="matrix(0.000360892 0 0 0.000360892 524 1682)"><stop offset="0" stop-color="#FFFFFF"/><stop offset="0.54" stop-color="#20A0FB" stop-opacity="0"/><stop offset="1" stop-color="#20A0FB" stop-opacity="0"/></radialGradient><radialGradient cx="77585.5" cy="84513" r="114726" fx="77585.5" fy="84513" gradientUnits="userSpaceOnUse" spreadMethod="pad" id="fill8" gradientTransform="matrix(0.000360892 0 0 0.000360892 520 1627)"><stop offset="0" stop-color="#FFFFFF"/><stop offset="0.54" stop-color="#20A0FB" stop-opacity="0"/><stop offset="1" stop-color="#20A0FB" stop-opacity="0"/></radialGradient><clipPath id="clip9"><rect x="45" y="1247" width="525" height="526"/></clipPath><clipPath id="clip10"><rect x="45" y="1247" width="525" height="526"/></clipPath><clipPath id="clip11"><rect x="45" y="1247" width="525" height="526"/></clipPath><clipPath id="clip12"><rect x="137" y="1331" width="344" height="344"/></clipPath><clipPath id="clip13"><rect x="137" y="1331" width="344" height="344"/></clipPath><clipPath id="clip14"><rect x="137" y="1331" width="344" height="344"/></clipPath></defs><g clip-path="url(#clip0)" transform="translate(-31 -1233)"><rect x="30.9999" y="1233" width="550" height="550" fill="url(#fill1)"/><path d="M36.0001 1392C36.0001 1308.05 96.4416 1240 171 1240 245.558 1240 306 1308.05 306 1392 306 1475.95 245.558 1544 171 1544 96.4416 1544 36.0001 1475.95 36.0001 1392Z" fill="url(#fill2)" fill-rule="evenodd"/><path d="M65.7338 1238 543.266 1238C559.136 1238 572 1257.99 572 1282.66L572 1393C572 1354.58 551.957 1323.43 527.233 1323.43L81.7669 1323.43C57.0429 1323.43 37.0001 1354.58 37.0001 1393L37.0001 1282.66C37.0001 1257.99 49.8646 1238 65.7338 1238Z" fill="url(#fill3)" fill-rule="evenodd"/><path d="M33 1316C33 1295.57 48.2223 1279 67 1279 85.7777 1279 101 1295.57 101 1316 101 1336.43 85.7777 1353 67 1353 48.2223 1353 33 1336.43 33 1316Z" fill="url(#fill4)" fill-rule="evenodd"/><path d="M52.9999 1369.5C52.9999 1345.48 71.1324 1326 93.5 1326 115.868 1326 134 1345.48 134 1369.5 134 1393.52 115.868 1413 93.5 1413 71.1324 1413 52.9999 1393.52 52.9999 1369.5Z" fill="url(#fill5)" fill-rule="evenodd"/><path d="M363 1654.5C363 1599 410.458 1554 469 1554 527.542 1554 575 1599 575 1654.5 575 1710 527.542 1755 469 1755 410.458 1755 363 1710 363 1654.5Z" fill="url(#fill6)" fill-rule="evenodd"/><path d="M524 1710C524 1694.54 535.641 1682 550 1682 564.359 1682 576 1694.54 576 1710 576 1725.46 564.359 1738 550 1738 535.641 1738 524 1725.46 524 1710Z" fill="url(#fill7)" fill-rule="evenodd"/><path d="M520 1657.5C520 1640.66 532.536 1627 548 1627 563.464 1627 576 1640.66 576 1657.5 576 1674.34 563.464 1688 548 1688 532.536 1688 520 1674.34 520 1657.5Z" fill="url(#fill8)" fill-rule="evenodd"/><g clip-path="url(#clip9)"><g clip-path="url(#clip10)"><g clip-path="url(#clip11)"><path d="M243.157 1493.34 213.967 1700.07C213.296 1704.87 209.589 1708.68 204.81 1709.47 200.032 1710.27 195.286 1707.88 193.092 1703.57L118.94 1558.15C116.903 1554.15 115.874 1549.7 115.938 1545.22L118.92 1346.89C118.973 1343.15 121.355 1339.85 124.884 1338.61 128.412 1337.37 132.329 1338.49 134.702 1341.38L234.955 1463.99C241.663 1472.21 244.645 1482.84 243.155 1493.34ZM240.006 1456.84C247.125 1465.55 258.371 1469.77 269.448 1467.9L518.642 1425.99C521.971 1425.44 524.618 1422.91 525.344 1419.62 526.057 1416.32 524.692 1412.93 521.91 1411.04L372.988 1310.22C369.335 1307.74 364.977 1306.5 360.557 1306.69L145.181 1315.83C141.421 1315.98 138.071 1318.26 136.528 1321.68 134.995 1325.12 135.532 1329.13 137.914 1332.05ZM533.692 1437.69C531.391 1434.83 527.737 1433.44 524.115 1434.05L281.145 1474.91C265.301 1477.58 253.015 1490.2 250.758 1506.1L221.819 1710.74C221.021 1716.38 223.236 1722.03 227.657 1725.63 232.078 1729.22 238.074 1730.23 243.428 1728.3L445.386 1655.34C449.722 1653.78 453.188 1650.44 454.921 1646.16L535.184 1447.83C536.549 1444.42 535.98 1440.55 533.692 1437.69Z" fill="#FFFFFF"/></g></g></g><g clip-path="url(#clip12)"><g clip-path="url(#clip13)"><g clip-path="url(#clip14)"><path d="M-520.56 1331 113.99 1331 113.99 1670.57-520.56 1670.57Z" stroke="#023A63" stroke-width="5.71668" fill="#023A63"/><path d="M138 1207.52 481 1207.52 481 1310.42 138 1310.42Z" stroke="#023A63" stroke-width="5.71668" fill="#023A63"/><text fill="#023A63" font-family="Arial,Arial_MSFontService,sans-serif" font-weight="400" font-size="2" transform="matrix(3.43 0 0 3.43 364.38 1264)">http://<tspan font-size="2" x="7" y="0">thenounproject</tspan><tspan font-size="2" x="20" y="0">.</tspan><tspan font-size="2" x="21" y="0">com</tspan><tspan font-size="6" x="-58.834" y="-4.95627">The Noun Project</tspan><tspan font-size="4" x="-57.714" y="-0.291545">Icon Template</tspan><tspan font-size="6" x="-244.5" y="30.0292">Reminders</tspan></text><path d="M165.44 1281.27 199.74 1281.27" stroke="#023A63" stroke-width="5.71668" stroke-miterlimit="10" fill="none"/><path d="M-475.97 1387.59-417.66 1387.59" stroke="#023A63" stroke-width="5.71668" stroke-miterlimit="10" fill="none"/><path d="M-447.851 1438.42-417.938 1438.42-417.938 1468.06-447.851 1468.06Z" stroke="#023A63" stroke-width="5.71668" fill="#023A63"/><path d="M-426.081 1476.13-409.799 1476.13-409.799 1460-426.081 1460-426.081 1476.13ZM-408.283 1477.63-427.594 1477.63-427.594 1458.49-408.283 1458.49-408.283 1477.63-408.283 1477.63ZM-432.138 1482.13-403.741 1482.13-403.741 1454-432.138 1454-432.138 1482.13-432.138 1482.13ZM-402.225 1483.64-433.654 1483.64-433.654 1452.49-402.225 1452.49-402.225 1483.64-402.225 1483.64Z" stroke="#023A63" stroke-width="5.71668" fill="#023A63"/><path d="M-431.891 1482.38-432.382 1481.89-403.985 1453.75-403.498 1454.24Z" stroke="#023A63" stroke-width="5.71668" fill="#023A63"/><path d="M-475.97 1529.94-355.92 1529.94-355.92 1641.42-475.97 1641.42Z" stroke="#023A63" stroke-width="5.71668" fill="#023A63"/><text fill="#023A63" font-family="Arial,Arial_MSFontService,sans-serif" font-weight="400" font-size="3" transform="matrix(3.43 0 0 3.43 -475.97 1537)">Strokes<tspan font-size="2" x="0" y="4.95627">Try to keep strokes at </tspan><tspan font-size="2" x="23" y="4.95627">4</tspan><tspan font-size="2" x="24" y="4.95627">px</tspan><tspan font-size="2" x="0" y="10.2041">Minimum stroke weight is </tspan><tspan font-size="2" x="24" y="10.2041">2</tspan><tspan font-size="2" x="25" y="10.2041">px</tspan><tspan font-size="2" x="0" y="14.5773">For thicker strokes use even </tspan><tspan font-size="2" x="0" y="17.4927">numbers</tspan><tspan font-size="2" x="8" y="17.4927">: </tspan><tspan font-size="2" x="10" y="17.4927">6</tspan><tspan font-size="2" x="11" y="17.4927">px</tspan><tspan font-size="2" x="13" y="17.4927">, </tspan><tspan font-size="2" x="15" y="17.4927">8</tspan><tspan font-size="2" x="16" y="17.4927">px etc</tspan><tspan font-size="2" x="22" y="17.4927">.</tspan><tspan font-size="2" x="0" y="22.1574">Remember to expand strokes </tspan><tspan font-size="2" x="0" y="25.0729">before saving as an SVG</tspan></text><path d="M-330.195 1529.94-210.145 1529.94-210.145 1641.42-330.195 1641.42Z" stroke="#023A63" stroke-width="5.71668" fill="#023A63"/><text fill="#023A63" font-family="Arial,Arial_MSFontService,sans-serif" font-weight="400" font-size="3" transform="matrix(3.43 0 0 3.43 -330.195 1537)">Size<tspan font-size="2" x="0" y="4.95627">Cannot be wider or taller than </tspan><tspan font-size="2" x="0" y="8.45481">100</tspan><tspan font-size="2" x="3" y="8.45481">px </tspan><tspan font-size="2" x="6" y="8.45481">(</tspan><tspan font-size="2" x="7" y="8.45481">artboard size</tspan><tspan font-size="2" x="19" y="8.45481">)</tspan><tspan font-size="2" x="0" y="13.7026">Scale your icon to fill as much of </tspan><tspan font-size="2" x="0" y="16.6181">the artboard as possible</tspan></text><path d="M-184.42 1529.94-64.3702 1529.94-64.3702 1641.42-184.42 1641.42Z" stroke="#023A63" stroke-width="5.71668" fill="#023A63"/><text fill="#023A63" font-family="Arial,Arial_MSFontService,sans-serif" font-weight="400" font-size="3" transform="matrix(3.43 0 0 3.43 -184.42 1537)">Ungroup<tspan font-size="2" x="0" y="4.95627">If your design has more than one </tspan><tspan font-size="2" x="0" y="8.16326">shape</tspan><tspan font-size="2" x="5" y="8.16326">, </tspan><tspan font-size="2" x="7" y="8.16326">make sure to ungroup</tspan></text><path d="M-33.5002 1529.94 86.5498 1529.94 86.5498 1641.42-33.5002 1641.42Z" stroke="#023A63" stroke-width="5.71668" fill="#023A63"/><text fill="#023A63" font-family="Arial,Arial_MSFontService,sans-serif" font-weight="400" font-size="3" transform="matrix(3.43 0 0 3.43 -33.5002 1537)">Save as<tspan font-size="2" x="0" y="4.95627">Save as </tspan><tspan font-size="2" x="8" y="4.95627">.</tspan><tspan font-size="2" x="9" y="4.95627">SVG and make sure </tspan><tspan font-size="2" x="0" y="8.16326">“</tspan><tspan font-size="2" x="1" y="8.16326">Use Artboards</tspan><tspan font-size="2" x="14" y="8.16326">” </tspan><tspan font-size="2" x="16" y="8.16326">is checked</tspan></text><text fill="#023A63" font-family="Arial,Arial_MSFontService,sans-serif" font-weight="400" font-size="3" transform="matrix(3.45538 0 0 3.43 -292.609 1436)">100<tspan font-size="3" x="6" y="0">px</tspan><tspan font-size="5" x="83.921" y="8.45481">.</tspan><tspan font-size="5" x="84.921" y="8.45481">SVG</tspan></text><path d="M-295.943 1450.42-260.748 1450.42-260.748 1485.35-295.943 1485.35Z" stroke="#023A63" stroke-width="5.71668" fill="#023A63"/><path d="M-295.816 1439.96-294.026 1439.96-294.026 1447.97-295.816 1447.97Z" stroke="#023A63" stroke-width="5.71668" fill="#023A63"/><path d="M-262.665 1439.96-260.871 1439.96-260.871 1447.97-262.665 1447.97Z" stroke="#023A63" stroke-width="5.71668" fill="#023A63"/><path d="M-297.61 1441.92-259.081 1441.92-259.081 1443.88-297.61 1443.88Z" stroke="#023A63" stroke-width="5.71668" fill="#023A63"/><path d="M-149.451 1447.08-114.105 1447.08-114.105 1481.92-149.451 1481.92Z" stroke="#023A63" stroke-width="5.71668" fill="#023A63"/><path d="M-125.455 1429.47-114.109 1429.47-114.109 1440.65-125.455 1440.65Z" stroke="#023A63" stroke-width="5.71668" fill="#023A63"/><path d="M-474.255 1408.18-371.355 1408.18-371.355 1511.08-474.255 1511.08Z" stroke="#023A63" stroke-width="5.71668" stroke-miterlimit="10" fill="#023A63"/><path d="M-330.195 1408.18-227.295 1408.18-227.295 1511.08-330.195 1511.08Z" stroke="#023A63" stroke-width="5.71668" stroke-miterlimit="10" fill="#023A63"/><path d="M-182.705 1408.18-79.8052 1408.18-79.8052 1511.08-182.705 1511.08Z" stroke="#023A63" stroke-width="5.71668" stroke-miterlimit="10" fill="#023A63"/><path d="M-31.7852 1408.18 71.1148 1408.18 71.1148 1511.08-31.7852 1511.08Z" stroke="#023A63" stroke-width="5.71668" stroke-miterlimit="10" fill="#023A63"/><path d="M446.7 1634.56C446.7 1637.4 444.395 1639.7 441.555 1639.7L177.445 1639.7C174.601 1639.7 172.3 1637.4 172.3 1634.56L172.3 1634.56C172.3 1631.71 174.601 1629.41 177.445 1629.41L441.555 1629.41C444.395 1629.41 446.7 1631.71 446.7 1634.56L446.7 1634.56Z" stroke="#023A63" stroke-width="5.71668" fill="#023A63"/><path d="M456.99 1648.28C456.99 1651.12 454.685 1653.42 451.845 1653.42L167.155 1653.42C164.311 1653.42 162.01 1651.12 162.01 1648.28L162.01 1648.28C162.01 1645.44 164.311 1643.13 167.155 1643.13L451.845 1643.13C454.685 1643.13 456.99 1645.44 456.99 1648.28L456.99 1648.28Z" stroke="#023A63" stroke-width="5.71668" fill="#023A63"/><path d="M250.881 1600.41C239.991 1591.98 230.764 1582.35 223.589 1570.71 216.423 1559.18 211.429 1546.07 209.124 1532.32 204.357 1504.81 210.983 1474.83 228.12 1451.51 232.4 1445.66 237.202 1440.15 242.443 1435.55 247.732 1430.89 253.618 1426.89 259.943 1423.69 272.572 1417.27 286.954 1414.1 301.264 1414.62 315.578 1415.11 329.771 1419.26 342.071 1426.66 348.177 1430.31 354.038 1434.89 358.895 1439.85 363.756 1444.86 367.817 1450.6 370.897 1456.84 377.078 1469.32 379.218 1483.77 377.002 1497.49 374.872 1511.21 368.321 1524.17 358.796 1534.03 349.518 1543.67 336.597 1549.47 323.378 1550.19 310.158 1551.01 296.874 1546.78 286.67 1538.74 281.49 1534.7 277.419 1530.01 274.459 1524.47 271.523 1518.98 269.863 1512.85 269.496 1506.69 268.703 1494.34 273.564 1482.01 281.974 1473.56 290.172 1465.21 302.588 1461.85 313.602 1464.28 319.121 1465.43 324.249 1467.96 328.533 1471.46 332.793 1474.9 335.883 1479.36 337.533 1484.36 339.187 1489.34 339.379 1494.74 338.175 1499.72 336.974 1504.7 334.374 1509.28 330.906 1512.8 327.487 1516.25 322.976 1518.45 318.298 1519.09 313.619 1519.75 308.828 1518.9 304.784 1516.79 300.705 1514.67 297.371 1511.45 295.667 1507.51 293.893 1503.6 293.667 1499.13 294.802 1495.17 295.379 1493.19 296.26 1491.32 297.44 1489.68 298.078 1488.81 298.579 1488.16 299.392 1487.35 300.016 1486.73 300.822 1486.07 301.607 1485.56 304.825 1483.43 308.817 1482.75 312.405 1483.48 316.027 1484.24 319.183 1486.21 321.169 1489.05 323.1 1491.84 323.662 1495.37 322.911 1498.46 322.208 1501.48 320.123 1504.34 317.656 1505.61 315.108 1507.02 312.059 1507.09 309.599 1506.09 307.126 1505.11 305.164 1503.19 304.492 1500.91 303.768 1498.64 304.156 1496.24 305.264 1494.47 306.307 1492.67 308.121 1491.52 309.867 1491.28 311.633 1491 313.311 1491.51 314.494 1492.36 317.012 1494.08 317.108 1496.89 316.61 1498.25 316.123 1499.72 315.43 1500.25 315.471 1500.26 315.43 1500.24 316.147 1499.76 316.703 1498.28 317.262 1496.92 317.317 1493.99 314.72 1492.05 313.506 1491.1 311.729 1490.47 309.788 1490.69 307.843 1490.89 305.823 1492.02 304.547 1494.01 303.24 1495.92 302.671 1498.6 303.394 1501.23 304.067 1503.9 306.245 1506.22 309.027 1507.45 311.812 1508.72 315.379 1508.8 318.497 1507.25 321.721 1505.65 323.981 1502.7 325.082 1499.03 326.128 1495.4 325.659 1491.11 323.419 1487.57 321.23 1484.11 317.382 1481.41 313.088 1480.39 308.766 1479.33 303.816 1479.94 299.659 1482.44 298.606 1483.08 297.67 1483.76 296.699 1484.66 295.917 1485.36 294.977 1486.41 294.271 1487.33 292.761 1489.27 291.582 1491.51 290.775 1493.92 289.181 1498.74 289.218 1504.31 291.263 1509.36 293.255 1514.48 297.341 1518.73 302.204 1521.49 307.109 1524.3 313.046 1525.63 318.998 1525.02 324.931 1524.44 330.869 1521.87 335.486 1517.57 340.003 1513.32 343.433 1507.8 345.203 1501.57 346.966 1495.36 347.014 1488.51 345.134 1482.02 343.306 1475.54 339.379 1469.42 334.162 1464.88 329.02 1460.33 322.678 1456.87 315.739 1455.15 301.94 1451.53 285.709 1455.14 274.469 1465.71 263.466 1475.94 256.722 1491.25 257.12 1507.15 257.295 1515.06 259.137 1523.07 262.711 1530.4 266.217 1537.72 271.657 1544.39 277.858 1549.55 290.271 1560.1 306.972 1566.16 323.974 1565.71 340.95 1565.42 358.182 1558.5 370.863 1546.21 383.307 1534.21 392.122 1518.22 395.466 1500.78 398.879 1483.4 396.828 1464.74 389.313 1448.18 385.57 1439.91 380.491 1432.17 374.327 1425.41 368.112 1418.65 361.283 1412.99 353.668 1408.05 338.507 1398.26 320.692 1392.39 302.492 1391.2 284.293 1389.97 265.706 1393.43 249.053 1401.26 240.725 1405.16 232.894 1410.15 225.811 1416.03 218.667 1421.96 212.554 1428.61 207.059 1435.68 196.059 1449.89 188.006 1466.38 183.516 1483.7 183.173 1485.02 182.888 1486.35 182.586 1487.68L182.586 1547.76C185.677 1561.33 190.822 1574.38 197.809 1586.24 202.237 1593.77 207.372 1600.84 213.1 1607.3 218.89 1613.81 225.04 1619.54 231.505 1624.78 232.009 1625.19 232.531 1625.58 233.038 1625.99L306.619 1625.99C286.982 1621.94 267.637 1613.46 250.881 1600.41Z" stroke="#023A63" stroke-width="5.71668" fill="#023A63"/><path d="M436.41 1581.88C435.124 1583.34 433.837 1584.81 432.479 1586.24 428.919 1590.02 425.091 1593.64 420.995 1597.09 412.815 1604 403.523 1610.15 393.281 1615.13 383.427 1619.96 372.626 1623.64 361.265 1625.98L436.41 1625.98 436.41 1581.88Z" stroke="#023A63" stroke-width="5.71668" fill="#023A63"/><path d="M285.486 1361.87C285.486 1359.86 285.761 1357.93 286.224 1356.06 227.296 1366.99 182.59 1418.61 182.59 1480.69L182.59 1625.98 196.31 1625.98 196.31 1481.16C196.31 1426.82 235.861 1381.52 287.404 1371.28 286.169 1368.39 285.486 1365.21 285.486 1361.87Z" stroke="#023A63" stroke-width="5.71668" fill="#023A63"/><path d="M332.772 1356.06C333.235 1357.93 333.51 1359.86 333.51 1361.87 333.51 1365.21 332.827 1368.38 331.592 1371.28 383.139 1381.52 422.69 1426.81 422.69 1481.16L422.69 1625.98 436.41 1625.98 436.41 1480.69C436.41 1418.61 391.7 1366.99 332.772 1356.06Z" stroke="#023A63" stroke-width="5.71668" fill="#023A63"/><path d="M309.5 1341.29C298.133 1341.29 288.916 1350.51 288.916 1361.87 288.916 1373.23 298.133 1382.45 309.5 1382.45 320.863 1382.45 330.08 1373.23 330.08 1361.87 330.08 1350.51 320.863 1341.29 309.5 1341.29ZM309.5 1379.02C300.026 1379.02 292.35 1371.34 292.35 1361.87 292.35 1352.4 300.03 1344.72 309.5 1344.72 318.974 1344.72 326.65 1352.4 326.65 1361.87 326.65 1371.34 318.974 1379.02 309.5 1379.02Z" stroke="#023A63" stroke-width="5.71668" fill="#023A63"/><path d="M309.5 1361.87 316.36 1358.44" stroke="#023A63" stroke-width="5.71668" stroke-linecap="round" stroke-miterlimit="1" fill="none"/><path d="M309.5 1361.87 299.21 1358.44" stroke="#023A63" stroke-width="5.71668" stroke-linecap="round" stroke-miterlimit="1" fill="none"/></g></g></g></g></svg>