<svg width="550" height="550" xmlns="http://www.w3.org/2000/svg" xmlns:xlink="http://www.w3.org/1999/xlink" overflow="hidden"><defs><clipPath id="clip0"><rect x="1856" y="1233" width="550" height="550"/></clipPath><radialGradient cx="762000" cy="762000" r="1.07763e+06" gradientUnits="userSpaceOnUse" spreadMethod="pad" id="fill1" gradientTransform="matrix(0.000360892 0 0 0.000360892 1856 1233)"><stop offset="0" stop-color="#FFFFFF"/><stop offset="0.26" stop-color="#FFFFFF"/><stop offset="0.5" stop-color="#20A0FB"/><stop offset="1" stop-color="#0F1113"/></radialGradient><radialGradient cx="374072" cy="421178" r="563313" fx="374072" fy="421178" gradientUnits="userSpaceOnUse" spreadMethod="pad" id="fill2" gradientTransform="matrix(0.000360892 0 0 0.000360892 1862 1240)"><stop offset="0" stop-color="#FFFFFF"/><stop offset="0.54" stop-color="#20A0FB" stop-opacity="0"/><stop offset="1" stop-color="#20A0FB" stop-opacity="0"/></radialGradient><linearGradient x1="2129.5" y1="1238" x2="2129.5" y2="1393" gradientUnits="userSpaceOnUse" spreadMethod="reflect" id="fill3"><stop offset="0" stop-color="#F5FAFF" stop-opacity="0.231373"/><stop offset="0.32" stop-color="#FFFFFF" stop-opacity="0"/><stop offset="1" stop-color="#FFFFFF" stop-opacity="0"/></linearGradient><radialGradient cx="94211" cy="102524" r="139236" gradientUnits="userSpaceOnUse" spreadMethod="pad" id="fill4" gradientTransform="matrix(0.000360892 0 0 0.000360892 1859 1279)"><stop offset="0" stop-color="#FFFFFF"/><stop offset="0.54" stop-color="#20A0FB" stop-opacity="0"/><stop offset="1" stop-color="#20A0FB" stop-opacity="0"/></radialGradient><radialGradient cx="110837" cy="120535" r="163748" fx="110836" fy="120535" gradientUnits="userSpaceOnUse" spreadMethod="pad" id="fill5" gradientTransform="matrix(0.000360892 0 0 0.000360892 1879 1326)"><stop offset="0" stop-color="#FFFFFF"/><stop offset="0.54" stop-color="#20A0FB" stop-opacity="0"/><stop offset="1" stop-color="#20A0FB" stop-opacity="0"/></radialGradient><radialGradient cx="292331" cy="278476" r="403740" gradientUnits="userSpaceOnUse" spreadMethod="pad" id="fill6" gradientTransform="matrix(0.000360892 0 0 0.000360892 2189 1554)"><stop offset="0" stop-color="#FFFFFF"/><stop offset="0.54" stop-color="#20A0FB" stop-opacity="0"/><stop offset="1" stop-color="#20A0FB" stop-opacity="0"/></radialGradient><radialGradient cx="72044" cy="77585.5" r="105877" fx="72044" fy="77585.5" gradientUnits="userSpaceOnUse" spreadMethod="pad" id="fill7" gradientTransform="matrix(0.000360892 0 0 0.000360892 2350 1682)"><stop offset="0" stop-color="#FFFFFF"/><stop offset="0.54" stop-color="#20A0FB" stop-opacity="0"/><stop offset="1" stop-color="#20A0FB" stop-opacity="0"/></radialGradient><radialGradient cx="77585.5" cy="84513" r="114726" fx="77585.5" fy="84513" gradientUnits="userSpaceOnUse" spreadMethod="pad" id="fill8" gradientTransform="matrix(0.000360892 0 0 0.000360892 2346 1627)"><stop offset="0" stop-color="#FFFFFF"/><stop offset="0.54" stop-color="#20A0FB" stop-opacity="0"/><stop offset="1" stop-color="#20A0FB" stop-opacity="0"/></radialGradient><clipPath id="clip9"><rect x="1870" y="1247" width="525" height="526"/></clipPath><clipPath id="clip10"><rect x="1870" y="1247" width="525" height="526"/></clipPath><clipPath id="clip11"><rect x="1870" y="1247" width="525" height="526"/></clipPath><clipPath id="clip12"><rect x="1919" y="1302" width="412" height="412"/></clipPath><clipPath id="clip13"><rect x="1919" y="1302" width="412" height="412"/></clipPath><clipPath id="clip14"><rect x="1919" y="1302" width="412" height="412"/></clipPath></defs><g clip-path="url(#clip0)" transform="translate(-1856 -1233)"><rect x="1856" y="1233" width="550" height="550" fill="url(#fill1)"/><path d="M1862 1392C1862 1308.05 1922.44 1240 1997 1240 2071.56 1240 2132 1308.05 2132 1392 2132 1475.95 2071.56 1544 1997 1544 1922.44 1544 1862 1475.95 1862 1392Z" fill="url(#fill2)" fill-rule="evenodd"/><path d="M1890.73 1238 2368.27 1238C2384.14 1238 2397 1257.99 2397 1282.66L2397 1393C2397 1354.58 2376.96 1323.43 2352.23 1323.43L1906.77 1323.43C1882.04 1323.43 1862 1354.58 1862 1393L1862 1282.66C1862 1257.99 1874.86 1238 1890.73 1238Z" fill="url(#fill3)" fill-rule="evenodd"/><path d="M1859 1316C1859 1295.57 1874.22 1279 1893 1279 1911.78 1279 1927 1295.57 1927 1316 1927 1336.43 1911.78 1353 1893 1353 1874.22 1353 1859 1336.43 1859 1316Z" fill="url(#fill4)" fill-rule="evenodd"/><path d="M1879 1369.5C1879 1345.48 1896.91 1326 1919 1326 1941.09 1326 1959 1345.48 1959 1369.5 1959 1393.52 1941.09 1413 1919 1413 1896.91 1413 1879 1393.52 1879 1369.5Z" fill="url(#fill5)" fill-rule="evenodd"/><path d="M2189 1654.5C2189 1599 2236.23 1554 2294.5 1554 2352.77 1554 2400 1599 2400 1654.5 2400 1710 2352.77 1755 2294.5 1755 2236.23 1755 2189 1710 2189 1654.5Z" fill="url(#fill6)" fill-rule="evenodd"/><path d="M2350 1710C2350 1694.54 2361.64 1682 2376 1682 2390.36 1682 2402 1694.54 2402 1710 2402 1725.46 2390.36 1738 2376 1738 2361.64 1738 2350 1725.46 2350 1710Z" fill="url(#fill7)" fill-rule="evenodd"/><path d="M2346 1657.5C2346 1640.66 2358.54 1627 2374 1627 2389.46 1627 2402 1640.66 2402 1657.5 2402 1674.34 2389.46 1688 2374 1688 2358.54 1688 2346 1674.34 2346 1657.5Z" fill="url(#fill8)" fill-rule="evenodd"/><g clip-path="url(#clip9)"><g clip-path="url(#clip10)"><g clip-path="url(#clip11)"><path d="M2068.16 1493.34 2038.97 1700.07C2038.3 1704.87 2034.59 1708.68 2029.81 1709.47 2025.03 1710.27 2020.29 1707.88 2018.09 1703.57L1943.94 1558.15C1941.9 1554.15 1940.87 1549.7 1940.94 1545.22L1943.92 1346.89C1943.97 1343.15 1946.35 1339.85 1949.88 1338.61 1953.41 1337.37 1957.33 1338.49 1959.7 1341.38L2059.96 1463.99C2066.66 1472.21 2069.64 1482.84 2068.15 1493.34ZM2065.01 1456.84C2072.12 1465.55 2083.37 1469.77 2094.45 1467.9L2343.64 1425.99C2346.97 1425.44 2349.62 1422.91 2350.34 1419.62 2351.06 1416.32 2349.69 1412.93 2346.91 1411.04L2197.99 1310.22C2194.33 1307.74 2189.98 1306.5 2185.56 1306.69L1970.18 1315.83C1966.42 1315.98 1963.07 1318.26 1961.53 1321.68 1959.99 1325.12 1960.53 1329.13 1962.91 1332.05ZM2358.69 1437.69C2356.39 1434.83 2352.74 1433.44 2349.11 1434.05L2106.15 1474.91C2090.3 1477.58 2078.02 1490.2 2075.76 1506.1L2046.82 1710.74C2046.02 1716.38 2048.24 1722.03 2052.66 1725.63 2057.08 1729.22 2063.07 1730.23 2068.43 1728.3L2270.39 1655.34C2274.72 1653.78 2278.19 1650.44 2279.92 1646.16L2360.18 1447.83C2361.55 1444.42 2360.98 1440.55 2358.69 1437.69Z" fill="#FFFFFF"/></g></g></g><g clip-path="url(#clip12)"><g clip-path="url(#clip13)"><g clip-path="url(#clip14)"><path d="M2132 1532.58 2132 1635.69C2132 1643.09 2137.99 1649.08 2145.38 1649.08 2152.78 1649.08 2158.66 1643.2 2158.66 1635.8L2158.68 1487.2 2171.98 1524.99C2173.99 1530.53 2180.1 1533.42 2185.65 1531.43 2191.19 1529.44 2194.1 1523.33 2192.11 1517.79L2159.99 1428.22C2157.85 1422.22 2152.17 1418.28 2145.19 1418.19L2104.79 1418.19C2097.82 1418.28 2092.14 1422.22 2089.99 1428.22L2057.89 1517.79C2055.9 1523.33 2058.8 1529.44 2064.35 1531.43 2069.9 1533.42 2076.01 1530.52 2078.02 1524.99L2091.32 1487.2 2091.36 1635.55C2091.36 1642.95 2097.21 1649.08 2104.61 1649.08 2112 1649.08 2117.99 1643.09 2117.99 1635.69L2117.99 1532.58 2132 1532.58Z" fill="#023A63"/><path d="M2145.38 1699.33C2138.39 1699.33 2131.54 1698.2 2125 1695.99 2118.45 1698.2 2111.61 1699.33 2104.61 1699.33 2069.6 1699.33 2041.12 1670.72 2041.12 1635.55L2041.1 1576.07C2013.43 1562.5 2000.06 1530.25 2010.58 1500.86L2042.69 1411.26C2045.07 1404.63 2048.44 1398.5 2052.74 1393.03 2052.67 1391.69 2052.63 1390.35 2052.63 1389.03 2052.63 1349.12 2085.09 1316.66 2125 1316.66 2164.9 1316.66 2197.36 1349.13 2197.36 1389.03 2197.36 1390.36 2197.32 1391.7 2197.25 1393.04 2201.56 1398.52 2204.94 1404.65 2207.32 1411.31L2239.42 1500.82C2249.95 1530.26 2236.59 1562.53 2208.92 1576.07L2208.9 1635.81C2208.9 1670.83 2180.41 1699.33 2145.38 1699.33ZM2125 1683.88C2125.7 1683.88 2126.41 1684.01 2127.08 1684.26 2132.91 1686.47 2139.07 1687.59 2145.39 1687.59 2173.94 1687.59 2197.17 1664.36 2197.17 1635.81L2197.18 1572.28C2197.18 1569.91 2198.62 1567.76 2200.81 1566.86 2225.13 1556.83 2237.24 1529.57 2228.37 1504.79L2196.27 1415.27C2194.09 1409.17 2190.88 1403.61 2186.75 1398.75 2185.74 1397.55 2185.24 1395.99 2185.39 1394.43 2185.54 1392.64 2185.63 1390.83 2185.63 1389.04 2185.63 1355.61 2158.43 1328.41 2125 1328.41 2091.58 1328.41 2064.38 1355.61 2064.38 1389.04 2064.38 1390.81 2064.46 1392.62 2064.63 1394.41 2064.77 1395.98 2064.27 1397.53 2063.25 1398.73 2059.13 1403.6 2055.93 1409.15 2053.75 1415.23L2021.63 1504.82C2012.78 1529.55 2024.89 1556.81 2049.21 1566.86 2051.41 1567.77 2052.84 1569.91 2052.84 1572.29L2052.86 1635.55C2052.86 1664.24 2076.07 1687.59 2104.61 1687.59 2110.93 1687.59 2117.09 1686.47 2122.92 1684.26 2123.59 1684.01 2124.3 1683.88 2125 1683.88Z" fill="#023A63"/><path d="M2145.38 1679.1C2138.2 1679.1 2131.25 1677.35 2125 1674.01 2118.75 1677.36 2111.8 1679.1 2104.61 1679.1 2080.76 1679.1 2061.35 1659.56 2061.35 1635.55L2061.33 1561.54C2058.92 1561.14 2056.55 1560.53 2054.23 1559.7 2033.11 1552.1 2022.08 1528.76 2029.62 1507.67L2061.74 1418.09C2064.28 1411 2068.47 1404.78 2074.01 1399.83 2073.25 1396.27 2072.87 1392.66 2072.87 1389.03 2072.87 1360.28 2096.25 1336.9 2125 1336.9 2153.75 1336.9 2177.13 1360.29 2177.13 1389.03 2177.13 1392.66 2176.75 1396.28 2175.99 1399.85 2181.53 1404.79 2185.73 1411.02 2188.27 1418.12L2220.37 1507.65C2227.93 1528.76 2216.91 1552.1 2195.82 1559.68 2193.49 1560.51 2191.1 1561.14 2188.69 1561.54L2188.68 1635.8C2188.67 1659.67 2169.26 1679.1 2145.38 1679.1ZM2125 1657C2126.57 1657 2128.15 1657.48 2129.5 1658.43 2134.17 1661.71 2139.66 1663.44 2145.38 1663.44 2160.62 1663.44 2173.02 1651.04 2173.02 1635.81L2173.03 1554.23C2173.03 1552.11 2173.88 1550.09 2175.4 1548.62 2176.92 1547.14 2178.96 1546.3 2181.09 1546.41L2182.05 1546.43C2184.93 1546.43 2187.78 1545.93 2190.53 1544.95 2203.49 1540.28 2210.28 1525.92 2205.63 1512.94L2173.52 1423.4C2171.45 1417.61 2167.7 1412.72 2162.65 1409.25 2159.79 1407.28 2158.57 1403.66 2159.65 1400.36 2160.86 1396.66 2161.47 1392.85 2161.47 1389.03 2161.47 1368.92 2145.11 1352.55 2124.99 1352.55 2104.88 1352.55 2088.52 1368.92 2088.52 1389.03 2088.52 1392.84 2089.13 1396.65 2090.34 1400.34 2091.42 1403.64 2090.2 1407.25 2087.34 1409.22 2082.3 1412.7 2078.54 1417.59 2076.47 1423.37L2044.36 1512.95C2039.72 1525.92 2046.52 1540.28 2059.52 1544.96 2062.22 1545.93 2065.06 1546.42 2067.94 1546.42L2068.85 1546.41C2070.98 1546.3 2073.05 1547.11 2074.58 1548.59 2076.11 1550.06 2076.98 1552.1 2076.98 1554.22L2077 1635.54C2077 1650.92 2089.39 1663.44 2104.61 1663.44 2110.33 1663.44 2115.82 1661.7 2120.49 1658.42 2121.85 1657.48 2123.43 1657 2125 1657Z" fill="#023A63"/><path d="M2125 1411.14C2137.21 1411.14 2147.12 1401.24 2147.12 1389.03 2147.12 1376.81 2137.21 1366.91 2125 1366.91 2112.79 1366.91 2102.89 1376.81 2102.89 1389.03 2102.88 1401.24 2112.78 1411.14 2125 1411.14Z" fill="#023A63"/></g></g></g></g></svg>