<svg width="550" height="550" xmlns="http://www.w3.org/2000/svg" xmlns:xlink="http://www.w3.org/1999/xlink" overflow="hidden"><defs><clipPath id="clip0"><rect x="2447" y="1233" width="550" height="550"/></clipPath><radialGradient cx="762000" cy="762000" r="1.07763e+06" gradientUnits="userSpaceOnUse" spreadMethod="pad" id="fill1" gradientTransform="matrix(0.000360892 0 0 0.000360892 2447 1233)"><stop offset="0" stop-color="#FFFFFF"/><stop offset="0.26" stop-color="#FFFFFF"/><stop offset="0.5" stop-color="#20A0FB"/><stop offset="1" stop-color="#0F1113"/></radialGradient><radialGradient cx="374073" cy="421179" r="563313" fx="374073" fy="421178" gradientUnits="userSpaceOnUse" spreadMethod="pad" id="fill2" gradientTransform="matrix(0.000360892 0 0 0.000360892 2452 1240)"><stop offset="0" stop-color="#FFFFFF"/><stop offset="0.54" stop-color="#20A0FB" stop-opacity="0"/><stop offset="1" stop-color="#20A0FB" stop-opacity="0"/></radialGradient><linearGradient x1="2720" y1="1238" x2="2720" y2="1393" gradientUnits="userSpaceOnUse" spreadMethod="reflect" id="fill3"><stop offset="0" stop-color="#F5FAFF" stop-opacity="0.231373"/><stop offset="0.32" stop-color="#FFFFFF" stop-opacity="0"/><stop offset="1" stop-color="#FFFFFF" stop-opacity="0"/></linearGradient><radialGradient cx="94211" cy="102524" r="139236" gradientUnits="userSpaceOnUse" spreadMethod="pad" id="fill4" gradientTransform="matrix(0.000360892 0 0 0.000360892 2449 1279)"><stop offset="0" stop-color="#FFFFFF"/><stop offset="0.54" stop-color="#20A0FB" stop-opacity="0"/><stop offset="1" stop-color="#20A0FB" stop-opacity="0"/></radialGradient><radialGradient cx="110836" cy="120535" r="163748" gradientUnits="userSpaceOnUse" spreadMethod="pad" id="fill5" gradientTransform="matrix(0.000360892 0 0 0.000360892 2469 1326)"><stop offset="0" stop-color="#FFFFFF"/><stop offset="0.54" stop-color="#20A0FB" stop-opacity="0"/><stop offset="1" stop-color="#20A0FB" stop-opacity="0"/></radialGradient><radialGradient cx="292331" cy="278476" r="403740" gradientUnits="userSpaceOnUse" spreadMethod="pad" id="fill6" gradientTransform="matrix(0.000360892 0 0 0.000360892 2779 1554)"><stop offset="0" stop-color="#FFFFFF"/><stop offset="0.54" stop-color="#20A0FB" stop-opacity="0"/><stop offset="1" stop-color="#20A0FB" stop-opacity="0"/></radialGradient><radialGradient cx="72043.5" cy="77585.5" r="105876" fx="72043.5" fy="77585.5" gradientUnits="userSpaceOnUse" spreadMethod="pad" id="fill7" gradientTransform="matrix(0.000360892 0 0 0.000360892 2940 1682)"><stop offset="0" stop-color="#FFFFFF"/><stop offset="0.54" stop-color="#20A0FB" stop-opacity="0"/><stop offset="1" stop-color="#20A0FB" stop-opacity="0"/></radialGradient><radialGradient cx="77585.5" cy="84513" r="114726" fx="77585.5" fy="84513" gradientUnits="userSpaceOnUse" spreadMethod="pad" id="fill8" gradientTransform="matrix(0.000360892 0 0 0.000360892 2936 1627)"><stop offset="0" stop-color="#FFFFFF"/><stop offset="0.54" stop-color="#20A0FB" stop-opacity="0"/><stop offset="1" stop-color="#20A0FB" stop-opacity="0"/></radialGradient><clipPath id="clip9"><rect x="2460" y="1247" width="527" height="526"/></clipPath><clipPath id="clip10"><rect x="2460" y="1247" width="527" height="526"/></clipPath><clipPath id="clip11"><rect x="2460" y="1247" width="527" height="526"/></clipPath><clipPath id="clip12"><rect x="2567" y="1345" width="310" height="282"/></clipPath><clipPath id="clip13"><rect x="2567" y="1345" width="310" height="282"/></clipPath><clipPath id="clip14"><rect x="2567" y="1345" width="310" height="282"/></clipPath></defs><g clip-path="url(#clip0)" transform="translate(-2447 -1233)"><rect x="2447" y="1233" width="550" height="550" fill="url(#fill1)"/><path d="M2452 1392C2452 1308.05 2512.44 1240 2587 1240 2661.56 1240 2722 1308.05 2722 1392 2722 1475.95 2661.56 1544 2587 1544 2512.44 1544 2452 1475.95 2452 1392Z" fill="url(#fill2)" fill-rule="evenodd"/><path d="M2480.79 1238 2959.21 1238C2975.11 1238 2988 1257.99 2988 1282.66L2988 1393C2988 1354.58 2967.92 1323.43 2943.15 1323.43L2496.85 1323.43C2472.08 1323.43 2452 1354.58 2452 1393L2452 1282.66C2452 1257.99 2464.89 1238 2480.79 1238Z" fill="url(#fill3)" fill-rule="evenodd"/><path d="M2449 1316C2449 1295.57 2464.22 1279 2483 1279 2501.78 1279 2517 1295.57 2517 1316 2517 1336.43 2501.78 1353 2483 1353 2464.22 1353 2449 1336.43 2449 1316Z" fill="url(#fill4)" fill-rule="evenodd"/><path d="M2469 1369.5C2469 1345.48 2486.91 1326 2509 1326 2531.09 1326 2549 1345.48 2549 1369.5 2549 1393.52 2531.09 1413 2509 1413 2486.91 1413 2469 1393.52 2469 1369.5Z" fill="url(#fill5)" fill-rule="evenodd"/><path d="M2779 1654.5C2779 1599 2826.23 1554 2884.5 1554 2942.77 1554 2990 1599 2990 1654.5 2990 1710 2942.77 1755 2884.5 1755 2826.23 1755 2779 1710 2779 1654.5Z" fill="url(#fill6)" fill-rule="evenodd"/><path d="M2940 1710C2940 1694.54 2951.64 1682 2966 1682 2980.36 1682 2992 1694.54 2992 1710 2992 1725.46 2980.36 1738 2966 1738 2951.64 1738 2940 1725.46 2940 1710Z" fill="url(#fill7)" fill-rule="evenodd"/><path d="M2936 1657.5C2936 1640.66 2948.54 1627 2964 1627 2979.46 1627 2992 1640.66 2992 1657.5 2992 1674.34 2979.46 1688 2964 1688 2948.54 1688 2936 1674.34 2936 1657.5Z" fill="url(#fill8)" fill-rule="evenodd"/><g clip-path="url(#clip9)"><g clip-path="url(#clip10)"><g clip-path="url(#clip11)"><path d="M2659.16 1493.34 2629.97 1700.07C2629.3 1704.87 2625.59 1708.68 2620.81 1709.47 2616.03 1710.27 2611.29 1707.88 2609.09 1703.57L2534.94 1558.15C2532.9 1554.15 2531.87 1549.7 2531.94 1545.22L2534.92 1346.89C2534.97 1343.15 2537.35 1339.85 2540.88 1338.61 2544.41 1337.37 2548.33 1338.49 2550.7 1341.38L2650.96 1463.99C2657.66 1472.21 2660.65 1482.84 2659.15 1493.34ZM2656.01 1456.84C2663.12 1465.55 2674.37 1469.77 2685.45 1467.9L2934.64 1425.99C2937.97 1425.44 2940.62 1422.91 2941.34 1419.62 2942.06 1416.32 2940.69 1412.93 2937.91 1411.04L2788.99 1310.22C2785.33 1307.74 2780.98 1306.5 2776.56 1306.69L2561.18 1315.83C2557.42 1315.98 2554.07 1318.26 2552.53 1321.68 2551 1325.12 2551.53 1329.13 2553.91 1332.05ZM2949.69 1437.69C2947.39 1434.83 2943.74 1433.44 2940.12 1434.05L2697.15 1474.91C2681.3 1477.58 2669.02 1490.2 2666.76 1506.1L2637.82 1710.74C2637.02 1716.38 2639.24 1722.03 2643.66 1725.63 2648.08 1729.22 2654.07 1730.23 2659.43 1728.3L2861.39 1655.34C2865.72 1653.78 2869.19 1650.44 2870.92 1646.16L2951.18 1447.83C2952.55 1444.42 2951.98 1440.55 2949.69 1437.69Z" fill="#FFFFFF"/></g></g></g><g clip-path="url(#clip12)"><g clip-path="url(#clip13)"><g clip-path="url(#clip14)"><path d="M299.326 118.641C296.261 113.987 292.675 111.003 289.36 109.35 286.167 107.739 283.361 107.377 281.681 107.358 281.573 107.354 281.467 107.342 281.359 107.342L245.302 107.342C245.209 107.342 245.121 107.352 245.029 107.356 243.354 107.37 240.521 107.721 237.294 109.349 232.273 111.838 226.861 117.284 223.075 126.932 219.242 136.618 216.667 150.625 216.655 171.773 216.657 177.237 216.831 183.182 217.213 189.654 217.445 193.621 220.736 196.682 224.663 196.683 224.809 196.683 224.956 196.679 225.105 196.67 229.222 196.427 232.362 192.895 232.121 188.779 231.754 182.572 231.589 176.918 231.591 171.773 231.559 149.17 234.855 136.474 238.091 129.847L238.091 269.844C238.091 276.218 243.259 281.382 249.629 281.382 256.002 281.382 261.169 276.218 261.169 269.844L261.169 185.596 265.495 185.596 265.495 269.844C265.495 276.218 270.662 281.382 277.033 281.382 283.405 281.382 288.573 276.218 288.573 269.844L288.573 129.894C289.125 131.028 289.682 132.329 290.233 133.846 292.864 141.139 295.078 153.101 295.067 171.775 295.07 176.92 294.903 182.575 294.54 188.782 294.3 192.898 297.443 196.429 301.56 196.669 301.709 196.679 301.856 196.682 302.004 196.682 305.927 196.683 309.216 193.618 309.449 189.65 309.824 183.182 309.999 177.24 310.001 171.775 309.961 143.606 305.462 128.014 299.326 118.641Z" fill="#023A63" transform="matrix(1 0 0 1.00004 2567 1345.02)"/><path d="M284.327 81.0244C284.327 92.6216 274.926 102.023 263.329 102.023 251.732 102.023 242.33 92.6216 242.33 81.0244 242.33 69.4273 251.732 60.0259 263.329 60.0259 274.926 60.0259 284.327 69.4273 284.327 81.0244Z" fill="#023A63" transform="matrix(1 0 0 1.00004 2567 1345.02)"/><path d="M211.691 79.3875C211.635 76.037 208.873 73.367 205.523 73.4248 202.173 73.4817 199.505 76.2433 199.561 79.5928 199.617 82.9432 202.378 85.6114 205.729 85.5554 209.08 85.4994 211.748 82.7379 211.691 79.3875ZM200.807 79.7272C200.767 77.3249 202.683 75.3399 205.089 75.2997 207.493 75.2596 209.477 77.1756 209.517 79.5797 209.557 81.9857 207.641 83.967 205.237 84.009 202.833 84.0491 200.849 82.1331 200.807 79.7272Z" fill="#023A63" transform="matrix(1 0 0 1.00004 2567 1345.02)"/><path d="M223.554 87.6702C223.51 85.0925 221.385 83.0403 218.809 83.0841 216.232 83.128 214.177 85.2512 214.223 87.8289 214.265 90.4047 216.39 92.4588 218.966 92.4149 221.544 92.372 223.598 90.246 223.554 87.6702ZM215.935 87.9549C215.91 86.4094 217.141 85.1355 218.687 85.1075 220.232 85.0823 221.507 86.3142 221.534 87.8597 221.56 89.4052 220.329 90.6791 218.782 90.7071 217.237 90.7332 215.963 89.5003 215.935 87.9549Z" fill="#023A63" transform="matrix(1 0 0 1.00004 2567 1345.02)"/><path d="M231.798 88.9152C234.376 88.8713 236.43 86.7463 236.386 84.1705 236.343 81.5928 234.217 79.5405 231.642 79.5844 229.064 79.6282 227.01 81.7514 227.056 84.3291 227.098 86.9049 229.224 88.9591 231.798 88.9152ZM231.519 81.6077C233.065 81.5825 234.34 82.8144 234.367 84.3599 234.392 85.9054 233.162 87.1793 231.615 87.2073 230.069 87.2325 228.795 86.0006 228.767 84.4551 228.742 82.9096 229.974 81.6357 231.519 81.6077Z" fill="#023A63" transform="matrix(1 0 0 1.00004 2567 1345.02)"/><path d="M151.011 28.9014C149.489 29.3755 148.037 29.956 146.671 30.6308 147.159 16.4395 160.638 5.06391 177.201 5.06391 181.558 5.06391 185.698 5.85625 189.45 7.27389 188.601 9.02936 188.112 11.0014 188.112 13.0947 188.112 13.7984 188.181 14.4834 188.286 15.1572 188.708 9.17122 193.359 4.45262 199.047 4.45262 205.014 4.45262 209.849 9.64065 209.849 16.0401 209.849 19.7703 208.199 23.0806 205.646 25.201 208.108 24.1558 210.172 22.334 211.571 20.0354 216.918 21.8235 220.675 26.0335 220.675 30.9453 220.675 35.201 217.846 38.9201 213.616 41.005 214.046 40.9032 214.468 40.7838 214.881 40.6494 215.911 42.9826 216.484 45.5248 216.484 48.1893 216.484 58.961 207.217 67.7785 195.468 68.5532 196.12 67.2195 196.494 65.7907 196.494 64.2937 196.494 61.045 194.807 58.0903 192.055 55.8439 192.833 57.3819 193.264 59.0712 193.264 60.8444 193.264 67.9801 186.306 73.7645 177.727 73.7645 169.284 73.7645 162.43 68.164 162.208 61.1887 161.865 62.1836 161.662 63.2205 161.662 64.2928 161.662 64.4682 161.689 64.64 161.699 64.8136 151.259 63.3661 143.019 56.8854 141.128 48.6512L137.663 52.0521 135.663 54.0129C139.063 62.276 149.103 68.2648 160.963 68.2648 161.487 68.2648 162.007 68.2498 162.523 68.2265 164.795 73.3147 171.343 76.9936 179.076 76.9936 185.862 76.9936 191.729 74.1574 194.603 70.0258 195.925 70.2424 197.284 70.36 198.675 70.36 211.211 70.36 221.372 61.2149 221.372 49.9317 221.372 46.0148 220.146 42.3563 218.021 39.2486 221.989 36.8977 224.602 32.9033 224.602 28.3704 224.602 22.2071 219.768 17.0517 213.269 15.6584 213.429 14.8287 213.517 13.9719 213.517 13.0928 213.516 5.86372 207.829 0 200.813 0 197.445 0 194.391 1.36164 192.118 3.56788 187.443 1.40923 182.061 0.174521 176.328 0.174521 158.393 0.174521 143.855 12.2118 143.855 27.0629 143.855 28.712 144.043 30.3237 144.387 31.8916 142.717 32.9219 141.213 34.1025 139.908 35.41L143.467 35.9532C145.264 33.1637 147.855 30.7493 151.011 28.9014Z" fill="#023A63" transform="matrix(1 0 0 1.00004 2567 1345.02)"/><path d="M52.0969 81.422C52.0969 76.2769 56.2844 72.0884 61.4305 72.0884 62.1547 72.0884 62.8798 72.178 63.5863 72.346 60.7622 67.6525 56.122 64.0585 50.3647 62.7184 39.0722 60.0884 27.7862 67.1113 25.1553 78.4019 22.5272 89.6945 29.55 100.98 40.8426 103.609 44.7119 104.511 48.5775 104.267 52.0978 103.118L52.0978 102.42 52.0978 81.422Z" fill="#023A63" transform="matrix(1 0 0 1.00004 2567 1345.02)"/><path d="M14.3173 189.185C16.6934 197.013 19.6583 209.897 19.6369 225.357 19.6341 237.693 17.7899 251.649 12.3901 266.235 10.1521 272.277 13.2375 278.989 19.2794 281.225 20.6159 281.72 21.984 281.955 23.3298 281.955 28.0718 281.955 32.529 279.042 34.2714 274.337 40.7623 256.809 42.9704 240.017 42.9686 225.358 42.9396 201.982 37.452 184.002 34.4852 175.953 32.5486 161.475 36.0475 144.824 38.6279 132.113L26.6579 132.431 26.4059 132.434C21.314 132.434 17.2178 128.444 17.0825 123.347 17.0181 120.855 17.9253 118.488 19.6415 116.677 21.3569 114.868 23.6751 113.837 26.167 113.772L38.7241 113.44C37.131 109.613 34.3788 106.663 30.6382 105.731 22.6709 103.744 11.1217 108.071 6.42275 121.736 0.0718616 140.564-1.29351 152.819 1.11992 173.551 3.09098 183.697 8.4274 187.691 14.3173 189.185Z" fill="#023A63" transform="matrix(1 0 0 1.00004 2567 1345.02)"/><path d="M134.285 46.0287 135.528 49.8785 146.162 39.4436 131.432 37.1982 132.676 41.0479 66.429 64.3413 66.9265 65.8812Z" fill="#023A63" transform="matrix(1 0 0 1.00004 2567 1345.02)"/><path d="M18.9472 123.299C19.0555 127.354 22.376 130.567 26.4049 130.568 26.4731 130.568 26.5403 130.567 26.6084 130.565L39.0078 130.237 61.6274 129.637C65.6796 129.529 68.8966 126.229 68.8966 122.172L68.8966 81.422C68.8966 78.5345 67.2531 76.0342 64.8546 74.7921 63.828 74.261 62.6652 73.9558 61.4305 73.9558 57.3054 73.9558 53.9634 77.2997 53.9634 81.4229L53.9634 102.421 53.9634 114.903 39.3867 115.289 26.2155 115.638C22.0923 115.746 18.8389 119.178 18.9472 123.299Z" fill="#023A63" transform="matrix(1 0 0 1.00004 2567 1345.02)"/></g></g></g></g></svg>