<svg width="550" height="550" xmlns="http://www.w3.org/2000/svg" xmlns:xlink="http://www.w3.org/1999/xlink" overflow="hidden"><defs><clipPath id="clip0"><rect x="49" y="629" width="550" height="550"/></clipPath><radialGradient cx="762000" cy="762000" r="1.07763e+06" gradientUnits="userSpaceOnUse" spreadMethod="pad" id="fill1" gradientTransform="matrix(0.000360892 0 0 0.000360892 49.0002 629)"><stop offset="0" stop-color="#FFFFFF"/><stop offset="0.26" stop-color="#FFFFFF"/><stop offset="0.5" stop-color="#20A0FB"/><stop offset="1" stop-color="#0F1113"/></radialGradient><radialGradient cx="374072" cy="419793" r="562278" gradientUnits="userSpaceOnUse" spreadMethod="pad" id="fill2" gradientTransform="matrix(0.000360892 0 0 0.000360892 55 637)"><stop offset="0" stop-color="#FFFFFF"/><stop offset="0.54" stop-color="#20A0FB" stop-opacity="0"/><stop offset="1" stop-color="#20A0FB" stop-opacity="0"/></radialGradient><linearGradient x1="322.5" y1="635" x2="322.5" y2="789" gradientUnits="userSpaceOnUse" spreadMethod="reflect" id="fill3"><stop offset="0" stop-color="#F5FAFF" stop-opacity="0.231373"/><stop offset="0.32" stop-color="#FFFFFF" stop-opacity="0"/><stop offset="1" stop-color="#FFFFFF" stop-opacity="0"/></linearGradient><radialGradient cx="94211" cy="102524" r="139236" gradientUnits="userSpaceOnUse" spreadMethod="pad" id="fill4" gradientTransform="matrix(0.000360892 0 0 0.000360892 51.9999 675)"><stop offset="0" stop-color="#FFFFFF"/><stop offset="0.54" stop-color="#20A0FB" stop-opacity="0"/><stop offset="1" stop-color="#20A0FB" stop-opacity="0"/></radialGradient><radialGradient cx="110836" cy="120534" r="163748" gradientUnits="userSpaceOnUse" spreadMethod="pad" id="fill5" gradientTransform="matrix(0.000360892 0 0 0.000360892 71.9998 722)"><stop offset="0" stop-color="#FFFFFF"/><stop offset="0.54" stop-color="#20A0FB" stop-opacity="0"/><stop offset="1" stop-color="#20A0FB" stop-opacity="0"/></radialGradient><radialGradient cx="292331" cy="279862" r="404697" gradientUnits="userSpaceOnUse" spreadMethod="pad" id="fill6" gradientTransform="matrix(0.000360892 0 0 0.000360892 382 950)"><stop offset="0" stop-color="#FFFFFF"/><stop offset="0.54" stop-color="#20A0FB" stop-opacity="0"/><stop offset="1" stop-color="#20A0FB" stop-opacity="0"/></radialGradient><radialGradient cx="72043.5" cy="77585.5" r="105876" fx="72043.5" fy="77585.5" gradientUnits="userSpaceOnUse" spreadMethod="pad" id="fill7" gradientTransform="matrix(0.000360892 0 0 0.000360892 543 1079)"><stop offset="0" stop-color="#FFFFFF"/><stop offset="0.54" stop-color="#20A0FB" stop-opacity="0"/><stop offset="1" stop-color="#20A0FB" stop-opacity="0"/></radialGradient><radialGradient cx="78971" cy="83127" r="114658" fx="78971" fy="83127" gradientUnits="userSpaceOnUse" spreadMethod="pad" id="fill8" gradientTransform="matrix(0.000360892 0 0 0.000360892 538 1024)"><stop offset="0" stop-color="#FFFFFF"/><stop offset="0.54" stop-color="#20A0FB" stop-opacity="0"/><stop offset="1" stop-color="#20A0FB" stop-opacity="0"/></radialGradient><clipPath id="clip9"><rect x="62" y="643" width="527" height="526"/></clipPath><clipPath id="clip10"><rect x="62" y="643" width="527" height="526"/></clipPath><clipPath id="clip11"><rect x="62" y="643" width="527" height="526"/></clipPath><clipPath id="clip12"><rect x="135" y="751" width="357" height="358"/></clipPath><clipPath id="clip13"><rect x="135" y="751" width="357" height="358"/></clipPath><clipPath id="clip14"><rect x="135" y="751" width="357" height="358"/></clipPath></defs><g clip-path="url(#clip0)" transform="translate(-49 -629)"><rect x="49.0002" y="629" width="550" height="550" fill="url(#fill1)"/><path d="M55 788.5C55 704.829 115.442 637 190 637 264.558 637 325 704.829 325 788.5 325 872.171 264.558 940 190 940 115.442 940 55 872.171 55 788.5Z" fill="url(#fill2)" fill-rule="evenodd"/><path d="M83.7337 635 561.266 635C577.135 635 590 654.864 590 679.368L590 789C590 750.824 569.957 719.876 545.233 719.876L99.7667 719.876C75.0427 719.876 55 750.824 55 789L55 679.368C55 654.864 67.8644 635 83.7337 635Z" fill="url(#fill3)" fill-rule="evenodd"/><path d="M51.9999 712C51.9999 691.566 67.2222 675 85.9999 675 104.778 675 120 691.566 120 712 120 732.435 104.778 749 85.9999 749 67.2222 749 51.9999 732.435 51.9999 712Z" fill="url(#fill4)" fill-rule="evenodd"/><path d="M71.9998 765.5C71.9998 741.475 89.9085 722 112 722 134.091 722 152 741.475 152 765.5 152 789.524 134.091 809 112 809 89.9085 809 71.9998 789.524 71.9998 765.5Z" fill="url(#fill5)" fill-rule="evenodd"/><path d="M382 1051C382 995.219 429.234 950 487.5 950 545.766 950 593 995.219 593 1051 593 1106.78 545.766 1152 487.5 1152 429.234 1152 382 1106.78 382 1051Z" fill="url(#fill6)" fill-rule="evenodd"/><path d="M543 1107C543 1091.54 554.641 1079 569 1079 583.359 1079 595 1091.54 595 1107 595 1122.46 583.359 1135 569 1135 554.641 1135 543 1122.46 543 1107Z" fill="url(#fill7)" fill-rule="evenodd"/><path d="M538 1054C538 1037.43 550.76 1024 566.5 1024 582.24 1024 595 1037.43 595 1054 595 1070.57 582.24 1084 566.5 1084 550.76 1084 538 1070.57 538 1054Z" fill="url(#fill8)" fill-rule="evenodd"/><g clip-path="url(#clip9)"><g clip-path="url(#clip10)"><g clip-path="url(#clip11)"><path d="M261.157 889.339 231.967 1096.08C231.296 1100.87 227.589 1104.68 222.81 1105.47 218.032 1106.27 213.286 1103.88 211.092 1099.57L136.94 954.147C134.903 950.146 133.874 945.704 133.938 941.222L136.919 742.885C136.972 739.148 139.355 735.851 142.884 734.612 146.411 733.373 150.328 734.486 152.702 737.384L252.955 859.994C259.663 868.205 262.645 878.84 261.155 889.34ZM258.006 852.842C265.125 861.546 276.371 865.767 287.448 863.899L536.642 821.993C539.971 821.436 542.618 818.906 543.345 815.62 544.058 812.324 542.693 808.931 539.91 807.041L390.989 706.219C387.335 703.741 382.977 702.502 378.557 702.692L163.18 711.827C159.421 711.984 156.071 714.262 154.528 717.685 152.995 721.118 153.532 725.13 155.914 728.048ZM551.692 833.689C549.391 830.834 545.738 829.437 542.115 830.046L299.145 870.911C283.301 873.579 271.015 886.199 268.758 902.096L239.819 1106.74C239.021 1112.38 241.236 1118.03 245.657 1121.63 250.078 1125.22 256.074 1126.23 261.428 1124.3L463.387 1051.34C467.722 1049.78 471.188 1046.44 472.921 1042.16L553.184 843.834C554.549 840.421 553.98 836.547 551.692 833.691Z" fill="#FFFFFF"/></g></g></g><g clip-path="url(#clip12)"><g clip-path="url(#clip13)"><g clip-path="url(#clip14)"><path d="M116.641 216.089 128.783 180.22C131.539 172.061 139.195 166.429 147.83 166.234 147.83 166.234 147.837 166.234 147.844 166.234 156.761 166.234 164.471 171.524 167.508 179.402L169.238 183.867 181.299 147.147C184.101 138.653 191.819 132.954 200.521 132.954L201.265 132.954 201.916 133.007C210.933 133.47 218.704 139.866 220.869 148.655L239.535 224.403 302.474 224.403C324.562 195.473 343.252 163.763 343.252 121.586 343.252 62.1316 303.776 13.7308 255.238 13.7308 228.257 13.7308 197.637 46.7532 186.035 60.5527 174.432 46.7532 143.813 13.7308 116.832 13.7308 68.2937 13.7308 28.749 62.1316 28.749 121.586 28.749 159.765 44.0733 189.36 63.3579 216.089L116.641 216.089Z" fill="#023A63" transform="matrix(1 0 0 1.0028 135 751)"/><path d="M203.397 249.913 198.04 228.17 190.397 251.428C187.695 259.661 180.052 265.347 171.39 265.588 171.383 265.588 171.383 265.588 171.376 265.588 162.379 265.588 154.669 260.305 151.618 252.441L149.4 246.715C145.812 253.158 138.974 257.282 131.411 257.282L95.9094 257.282C139.197 311.107 179.72 340.73 181.435 341.965 182.671 342.857 184.044 343.269 185.485 343.269 186.859 343.269 188.232 342.857 189.399 342.033 191.088 340.864 228.516 314.196 269.306 265.595L223.397 265.595C213.883 265.595 205.657 259.145 203.397 249.913Z" fill="#023A63" transform="matrix(1 0 0 1.0028 135 751)"/><path d="M321.034 238.133 228.774 238.133 207.534 151.934C206.803 148.964 204.188 146.832 201.131 146.718 198.127 146.389 195.305 148.522 194.346 151.431L170.297 224.624 154.696 184.343C153.657 181.648 150.928 179.885 148.145 179.959 145.256 180.025 142.715 181.882 141.79 184.625L126.49 229.82 20.6131 229.82C16.8184 229.82 13.7477 232.89 13.7477 236.685 13.7477 240.48 16.8184 243.551 20.6131 243.551L131.411 243.551C134.355 243.551 136.969 241.673 137.915 238.884L148.729 206.951 164.424 247.479C165.45 250.128 167.997 251.864 170.827 251.864 170.887 251.864 170.947 251.864 171.008 251.864 173.904 251.784 176.445 249.9 177.351 247.144L199.924 178.444 216.733 246.642C217.484 249.705 220.239 251.864 223.397 251.864L321.034 251.864C324.829 251.864 327.9 248.793 327.9 244.999 327.9 241.204 324.829 238.133 321.034 238.133Z" fill="#023A63" transform="matrix(1 0 0 1.0028 135 751)"/></g></g></g></g></svg>