<svg width="550" height="550" xmlns="http://www.w3.org/2000/svg" xmlns:xlink="http://www.w3.org/1999/xlink" overflow="hidden"><defs><clipPath id="clip0"><rect x="1242" y="1233" width="550" height="550"/></clipPath><radialGradient cx="762000" cy="762000" r="1.07763e+06" gradientUnits="userSpaceOnUse" spreadMethod="pad" id="fill1" gradientTransform="matrix(0.000360892 0 0 0.000360892 1242 1233)"><stop offset="0" stop-color="#FFFFFF"/><stop offset="0.26" stop-color="#FFFFFF"/><stop offset="0.5" stop-color="#20A0FB"/><stop offset="1" stop-color="#0F1113"/></radialGradient><radialGradient cx="374072" cy="421178" r="563313" fx="374072" fy="421178" gradientUnits="userSpaceOnUse" spreadMethod="pad" id="fill2" gradientTransform="matrix(0.000360892 0 0 0.000360892 1247 1240)"><stop offset="0" stop-color="#FFFFFF"/><stop offset="0.54" stop-color="#20A0FB" stop-opacity="0"/><stop offset="1" stop-color="#20A0FB" stop-opacity="0"/></radialGradient><linearGradient x1="1515" y1="1238" x2="1515" y2="1393" gradientUnits="userSpaceOnUse" spreadMethod="reflect" id="fill3"><stop offset="0" stop-color="#F5FAFF" stop-opacity="0.231373"/><stop offset="0.32" stop-color="#FFFFFF" stop-opacity="0"/><stop offset="1" stop-color="#FFFFFF" stop-opacity="0"/></linearGradient><radialGradient cx="94211" cy="102524" r="139236" gradientUnits="userSpaceOnUse" spreadMethod="pad" id="fill4" gradientTransform="matrix(0.000360892 0 0 0.000360892 1244 1279)"><stop offset="0" stop-color="#FFFFFF"/><stop offset="0.54" stop-color="#20A0FB" stop-opacity="0"/><stop offset="1" stop-color="#20A0FB" stop-opacity="0"/></radialGradient><radialGradient cx="110837" cy="120535" r="163748" fx="110836" fy="120535" gradientUnits="userSpaceOnUse" spreadMethod="pad" id="fill5" gradientTransform="matrix(0.000360892 0 0 0.000360892 1264 1326)"><stop offset="0" stop-color="#FFFFFF"/><stop offset="0.54" stop-color="#20A0FB" stop-opacity="0"/><stop offset="1" stop-color="#20A0FB" stop-opacity="0"/></radialGradient><radialGradient cx="292331" cy="278476" r="403740" gradientUnits="userSpaceOnUse" spreadMethod="pad" id="fill6" gradientTransform="matrix(0.000360892 0 0 0.000360892 1574 1554)"><stop offset="0" stop-color="#FFFFFF"/><stop offset="0.54" stop-color="#20A0FB" stop-opacity="0"/><stop offset="1" stop-color="#20A0FB" stop-opacity="0"/></radialGradient><radialGradient cx="72044" cy="77585.5" r="105877" fx="72044" fy="77585.5" gradientUnits="userSpaceOnUse" spreadMethod="pad" id="fill7" gradientTransform="matrix(0.000360892 0 0 0.000360892 1735 1682)"><stop offset="0" stop-color="#FFFFFF"/><stop offset="0.54" stop-color="#20A0FB" stop-opacity="0"/><stop offset="1" stop-color="#20A0FB" stop-opacity="0"/></radialGradient><radialGradient cx="77585.5" cy="84513" r="114726" fx="77585.5" fy="84513" gradientUnits="userSpaceOnUse" spreadMethod="pad" id="fill8" gradientTransform="matrix(0.000360892 0 0 0.000360892 1731 1627)"><stop offset="0" stop-color="#FFFFFF"/><stop offset="0.54" stop-color="#20A0FB" stop-opacity="0"/><stop offset="1" stop-color="#20A0FB" stop-opacity="0"/></radialGradient><clipPath id="clip9"><rect x="1255" y="1247" width="526" height="526"/></clipPath><clipPath id="clip10"><rect x="1255" y="1247" width="526" height="526"/></clipPath><clipPath id="clip11"><rect x="1255" y="1247" width="526" height="526"/></clipPath><clipPath id="clip12"><rect x="1314" y="1323" width="375" height="377"/></clipPath><clipPath id="clip13"><rect x="1314" y="1323" width="375" height="377"/></clipPath><clipPath id="clip14"><rect x="1314" y="1323" width="375" height="377"/></clipPath></defs><g clip-path="url(#clip0)" transform="translate(-1242 -1233)"><rect x="1242" y="1233" width="550" height="550" fill="url(#fill1)"/><path d="M1247 1392C1247 1308.05 1307.44 1240 1382 1240 1456.56 1240 1517 1308.05 1517 1392 1517 1475.95 1456.56 1544 1382 1544 1307.44 1544 1247 1475.95 1247 1392Z" fill="url(#fill2)" fill-rule="evenodd"/><path d="M1275.79 1238 1754.21 1238C1770.11 1238 1783 1257.99 1783 1282.66L1783 1393C1783 1354.58 1762.92 1323.43 1738.15 1323.43L1291.85 1323.43C1267.08 1323.43 1247 1354.58 1247 1393L1247 1282.66C1247 1257.99 1259.89 1238 1275.79 1238Z" fill="url(#fill3)" fill-rule="evenodd"/><path d="M1244 1316C1244 1295.57 1259.22 1279 1278 1279 1296.78 1279 1312 1295.57 1312 1316 1312 1336.43 1296.78 1353 1278 1353 1259.22 1353 1244 1336.43 1244 1316Z" fill="url(#fill4)" fill-rule="evenodd"/><path d="M1264 1369.5C1264 1345.48 1281.91 1326 1304 1326 1326.09 1326 1344 1345.48 1344 1369.5 1344 1393.52 1326.09 1413 1304 1413 1281.91 1413 1264 1393.52 1264 1369.5Z" fill="url(#fill5)" fill-rule="evenodd"/><path d="M1574 1654.5C1574 1599 1621.23 1554 1679.5 1554 1737.77 1554 1785 1599 1785 1654.5 1785 1710 1737.77 1755 1679.5 1755 1621.23 1755 1574 1710 1574 1654.5Z" fill="url(#fill6)" fill-rule="evenodd"/><path d="M1735 1710C1735 1694.54 1746.64 1682 1761 1682 1775.36 1682 1787 1694.54 1787 1710 1787 1725.46 1775.36 1738 1761 1738 1746.64 1738 1735 1725.46 1735 1710Z" fill="url(#fill7)" fill-rule="evenodd"/><path d="M1731 1657.5C1731 1640.66 1743.54 1627 1759 1627 1774.46 1627 1787 1640.66 1787 1657.5 1787 1674.34 1774.46 1688 1759 1688 1743.54 1688 1731 1674.34 1731 1657.5Z" fill="url(#fill8)" fill-rule="evenodd"/><g clip-path="url(#clip9)"><g clip-path="url(#clip10)"><g clip-path="url(#clip11)"><path d="M198.157 246.339 168.967 453.075C168.296 457.874 164.589 461.676 159.81 462.472 155.032 463.269 150.286 460.884 148.092 456.571L73.9401 311.146C71.9031 307.146 70.8741 302.704 70.9376 298.221L73.9195 99.8852C73.9725 96.1476 76.3547 92.851 79.884 91.612 83.4115 90.373 87.3285 91.4856 89.7019 94.384L189.955 216.993C196.663 225.205 199.645 235.84 198.155 246.34ZM195.006 209.842C202.125 218.546 213.37 222.767 224.448 220.899L473.642 178.993C476.971 178.436 479.618 175.906 480.344 172.62 481.057 169.323 479.692 165.931 476.91 164.041L327.988 63.2192C324.335 60.7412 319.977 59.5022 315.557 59.692L100.18 68.8266C96.4206 68.9837 93.0711 71.2617 91.528 74.6847 89.995 78.1182 90.5319 82.1297 92.914 85.0482ZM488.692 190.689C486.391 187.834 482.737 186.437 479.115 187.046L236.145 227.911C220.301 230.579 208.015 243.199 205.758 259.096L176.819 463.741C176.021 469.381 178.236 475.029 182.657 478.629 187.078 482.221 193.074 483.227 198.428 481.298L400.386 408.344C404.722 406.78 408.188 403.441 409.921 399.157L490.184 200.834C491.549 197.421 490.98 193.547 488.692 190.691Z" fill="#FFFFFF" transform="matrix(1.0019 0 0 1 1255 1247)"/></g></g></g><g clip-path="url(#clip12)"><g clip-path="url(#clip13)"><g clip-path="url(#clip14)"><path d="M353.957 321.342 273.391 321.342C242.336 321.342 195.915 315.044 172.478 311.543 162.974 310.12 154.077 306.003 146.843 299.677L93.0321 252.634C86.5304 246.956 76.6567 247.623 70.9785 254.125 70.8743 254.244 70.7719 254.365 70.6713 254.487L16.3037 320.749C14.7072 322.697 13.8349 325.138 13.8354 327.656L13.8354 343.037C13.8354 349.043 18.705 353.913 24.7119 353.913 24.7143 353.913 24.7168 353.913 24.7192 353.913L353.957 353.913C357.937 353.913 361.164 350.686 361.164 346.706L361.164 328.549C361.164 324.57 357.937 321.342 353.957 321.342Z" fill="#023A63" transform="matrix(1 0 0 1.00267 1314 1323)"/><path d="M158.144 289.306C163.14 293.415 169.139 296.122 175.525 297.151 183.999 298.513 196.941 300.359 208.952 301.113 210.995 301.24 212.754 299.686 212.88 297.643 212.934 296.773 212.679 295.911 212.16 295.21L174.499 244.511C171.412 240.35 165.535 239.48 161.374 242.567 160.739 243.039 160.165 243.589 159.668 244.204L141.504 266.616C139.341 269.302 139.663 273.211 142.236 275.508 146.235 279.162 152.344 284.59 158.144 289.306Z" fill="#023A63" transform="matrix(1 0 0 1.00267 1314 1323)"/><path d="M258.281 307.507 260.823 307.507C263.524 307.507 265.715 305.316 265.715 302.614 265.715 302.612 265.715 302.609 265.715 302.607L265.715 289.731 286.853 289.731C288.54 289.725 289.902 288.353 289.896 286.666 289.893 285.83 289.547 285.032 288.94 284.458 279.221 275.2 276.057 265.071 276.057 265.071L285.74 265.071C287.431 265.062 288.794 263.686 288.787 261.995 288.783 261.279 288.529 260.587 288.069 260.039 277.478 247.317 268.93 230.925 264.045 220.488 262.878 218.007 259.919 216.941 257.438 218.108 256.392 218.601 255.551 219.442 255.058 220.488 250.173 230.903 241.626 247.295 231.035 260.039 229.947 261.333 230.114 263.264 231.408 264.352 231.956 264.813 232.648 265.067 233.364 265.071L243.047 265.071C243.047 265.071 239.883 275.2 230.156 284.458 228.931 285.616 228.877 287.55 230.035 288.775 230.611 289.385 231.412 289.73 232.251 289.731L253.418 289.731 253.418 302.607C253.418 305.299 255.589 307.487 258.281 307.507Z" fill="#023A63" transform="matrix(1 0 0 1.00267 1314 1323)"/><path d="M326.316 220.51C321.43 230.925 312.883 247.317 302.292 260.061 301.204 261.355 301.371 263.286 302.665 264.374 303.214 264.835 303.906 265.089 304.621 265.093L314.304 265.093C314.304 265.093 311.14 275.222 301.413 284.48 300.188 285.638 300.134 287.572 301.292 288.797 301.868 289.407 302.669 289.752 303.508 289.753L324.646 289.753 324.646 302.629C324.641 305.331 326.829 307.525 329.531 307.529 329.533 307.529 329.536 307.529 329.538 307.529L332.08 307.529C334.782 307.529 336.972 305.338 336.972 302.636 336.972 302.634 336.972 302.631 336.972 302.629L336.972 289.731 358.11 289.731C359.797 289.729 361.163 288.36 361.161 286.673 361.16 285.835 360.814 285.033 360.205 284.458 350.478 275.2 347.314 265.071 347.314 265.071L356.997 265.071C358.688 265.076 360.063 263.71 360.069 262.02 360.071 261.282 359.808 260.568 359.326 260.01 348.735 247.287 340.188 230.896 335.302 220.459 334.121 217.984 331.157 216.935 328.681 218.117 327.638 218.615 326.802 219.461 326.316 220.51Z" fill="#023A63" transform="matrix(1 0 0 1.00267 1314 1323)"/><path d="M82.7636 236.704C83.9618 237.544 85.3805 238.015 86.8432 238.059 91.0436 238.203 94.5658 234.915 94.7094 230.715 94.7988 228.129 93.5683 225.676 91.4428 224.201 50.4272 195.732 28.3813 157.119 28.103 156.628 26.0502 152.957 21.4101 151.646 17.7392 153.699 14.0683 155.752 12.7567 160.391 14.8096 164.062 15.769 165.784 38.7085 206.118 82.7636 236.704Z" fill="#023A63" transform="matrix(1 0 0 1.00267 1314 1323)"/><path d="M143.166 232.661C145.862 229.436 145.432 224.637 142.207 221.942 142.2 221.936 142.192 221.929 142.185 221.924 134.234 215.294 126.683 208.202 119.568 200.683 116.673 197.636 111.856 197.511 108.808 200.405 105.761 203.3 105.636 208.117 108.53 211.164 116.057 219.118 124.045 226.624 132.451 233.642 135.683 236.328 140.481 235.885 143.166 232.654Z" fill="#023A63" transform="matrix(1 0 0 1.00267 1314 1323)"/><path d="M59.5532 157.383C62.1824 160.665 66.9749 161.195 70.2575 158.566 73.5402 155.936 74.0698 151.144 71.4404 147.861 47.1167 117.466 34.7754 91.7284 34.6508 91.4648 32.8488 87.6664 28.3088 86.0485 24.5105 87.8503 20.7121 89.652 19.0939 94.1923 20.896 97.9906 21.4233 99.1186 34.0503 125.508 59.5532 157.383Z" fill="#023A63" transform="matrix(1 0 0 1.00267 1314 1323)"/><path d="M74.8974 107.234C101.188 148.757 135.399 184.697 175.576 213.003 179.095 215.3 183.811 214.31 186.108 210.792 188.298 207.438 187.514 202.961 184.314 200.552 92.2851 136.018 61.7578 48.164 61.4575 47.2851 60.041 43.3282 55.685 41.2688 51.7281 42.6853 47.8769 44.0639 45.8045 48.2404 47.0361 52.1411 47.3584 53.1005 55.1367 75.9155 74.8974 107.234Z" fill="#023A63" transform="matrix(1 0 0 1.00267 1314 1323)"/><path d="M212.893 192.788C217.096 192.793 220.507 189.391 220.512 185.188 220.516 182.894 219.484 180.722 217.705 179.275 201.986 166.496 187.047 152.788 172.969 138.223 170.004 135.243 165.186 135.231 162.206 138.196 159.288 141.099 159.209 145.797 162.026 148.799 176.525 163.8 191.908 177.92 208.096 191.081 209.45 192.187 211.145 192.789 212.893 192.788Z" fill="#023A63" transform="matrix(1 0 0 1.00267 1314 1323)"/><path d="M92.5048 57.9638C94.5739 61.6226 99.2174 62.9112 102.876 60.8422 106.534 58.7732 107.823 54.1299 105.754 50.4711 97.6244 36.0937 93.911 27.1802 93.8744 27.0923 92.4945 23.1225 88.1579 21.0231 84.1874 22.4031 80.2177 23.7831 78.1186 28.1199 79.4985 32.0897 79.5944 32.3661 79.7065 32.6368 79.8339 32.9004 79.9658 33.2885 83.8622 42.6709 92.5048 57.9638Z" fill="#023A63" transform="matrix(1 0 0 1.00267 1314 1323)"/><path d="M298.572 209.919C302.774 210.104 306.331 206.846 306.515 202.643 306.63 200.042 305.407 197.563 303.274 196.069 297.531 192.07 291.643 187.558 285.761 182.651 282.526 179.96 277.719 180.4 275.028 183.636 272.336 186.872 272.777 191.678 276.013 194.37 282.231 199.555 288.464 204.338 294.572 208.586 295.752 209.401 297.139 209.863 298.572 209.919Z" fill="#023A63" transform="matrix(1 0 0 1.00267 1314 1323)"/><path d="M207.949 141.394C211.355 143.857 216.112 143.093 218.575 139.687 220.832 136.567 220.402 132.252 217.573 129.639 173.247 93.4643 152.915 44.956 152.6 44.1796 151.011 40.2883 146.567 38.4225 142.676 40.0122 138.784 41.6019 136.919 46.0451 138.508 49.9365 139.38 52.0019 160.4 102.539 207.949 141.394Z" fill="#023A63" transform="matrix(1 0 0 1.00267 1314 1323)"/><path d="M272.673 139.497C276.204 141.782 280.92 140.772 283.205 137.241 285.49 133.71 284.48 128.994 280.949 126.709 238.227 99.016 217.119 63.3178 216.914 62.9882 214.804 59.3477 210.143 58.1065 206.503 60.216 202.862 62.3255 201.621 66.9868 203.73 70.6274 204.66 72.2021 226.736 109.731 272.673 139.497Z" fill="#023A63" transform="matrix(1 0 0 1.00267 1314 1323)"/><path d="M334.716 128.738C338.289 130.951 342.98 129.849 345.193 126.276 347.406 122.703 346.304 118.013 342.731 115.799 342.714 115.788 342.696 115.777 342.678 115.766 285.644 80.7128 247.888 25.2539 247.405 24.5434 245.168 20.985 240.471 19.9134 236.912 22.1497 233.354 24.3861 232.282 29.0837 234.518 32.6421 234.599 32.7697 234.682 32.8949 234.77 33.0176 236.367 35.4052 274.658 91.8456 334.716 128.738Z" fill="#023A63" transform="matrix(1 0 0 1.00267 1314 1323)"/><path d="M345.476 84.3163C349.049 86.5297 353.739 85.4274 355.952 81.8547 358.166 78.2812 357.063 73.5908 353.491 71.3778 353.403 71.3236 353.314 71.2712 353.225 71.2206 326.015 55.1074 304.043 24.5801 303.823 24.2798 301.385 20.8556 296.634 20.0555 293.21 22.4927 289.786 24.9298 288.986 29.6813 291.423 33.1054 292.39 34.4677 315.439 66.5478 345.476 84.3163Z" fill="#023A63" transform="matrix(1 0 0 1.00267 1314 1323)"/><path d="M23.5986 248.774C23.5986 255.072 28.7042 260.178 35.0024 260.178 41.3006 260.178 46.4062 255.072 46.4062 248.774 46.4062 242.476 41.3006 237.37 35.0024 237.37 28.7042 237.37 23.5986 242.476 23.5986 248.774Z" fill="#023A63" transform="matrix(1 0 0 1.00267 1314 1323)"/><path d="M75.4394 180.249C75.4394 186.547 80.5451 191.653 86.8432 191.653 93.1413 191.653 98.247 186.547 98.247 180.249 98.247 173.951 93.1413 168.845 86.8432 168.845 80.5451 168.845 75.4394 173.951 75.4394 180.249Z" fill="#023A63" transform="matrix(1 0 0 1.00267 1314 1323)"/><path d="M133.52 119.553C139.818 119.558 144.927 114.455 144.932 108.157 144.936 101.859 139.833 96.7499 133.535 96.7455 127.237 96.7411 122.128 101.844 122.124 108.142 122.124 108.144 122.124 108.147 122.124 108.149 122.124 114.444 127.225 119.549 133.52 119.553Z" fill="#023A63" transform="matrix(1 0 0 1.00267 1314 1323)"/><path d="M201.611 32.5716C201.611 38.8699 196.506 43.9757 190.207 43.9757 183.909 43.9757 178.803 38.8699 178.803 32.5716 178.803 26.2733 183.909 21.1675 190.207 21.1675 196.506 21.1675 201.611 26.2733 201.611 32.5716Z" fill="#023A63" transform="matrix(0.0984489 -0.997771 0.995116 0.0987115 1453.04 1542.22)"/><path d="M259.548 164.348C259.532 158.05 254.413 152.957 248.115 152.973 241.817 152.99 236.724 158.109 236.741 164.407 236.757 170.693 241.858 175.781 248.144 175.781 254.442 175.781 259.548 170.675 259.548 164.377 259.548 164.368 259.548 164.358 259.548 164.348Z" fill="#023A63" transform="matrix(1 0 0 1.00267 1314 1323)"/><path d="M224.465 230.764C224.47 224.466 219.367 219.357 213.069 219.353 206.771 219.348 201.662 224.451 201.658 230.749 201.653 237.047 206.756 242.156 213.054 242.16 213.056 242.16 213.059 242.16 213.061 242.16 219.356 242.16 224.461 237.059 224.465 230.764Z" fill="#023A63" transform="matrix(1 0 0 1.00267 1314 1323)"/><path d="M333.318 157.471C333.318 151.172 328.212 146.067 321.914 146.067 315.616 146.067 310.51 151.172 310.51 157.471 310.51 163.769 315.616 168.874 321.914 168.874 328.212 168.874 333.318 163.769 333.318 157.471Z" fill="#023A63" transform="matrix(1 0 0 1.00267 1314 1323)"/></g></g></g></g></svg>