<svg width="550" height="550" xmlns="http://www.w3.org/2000/svg" xmlns:xlink="http://www.w3.org/1999/xlink" overflow="hidden"><defs><clipPath id="clip0"><rect x="652" y="38" width="550" height="550"/></clipPath><radialGradient cx="762000" cy="762000" r="1.07763e+06" gradientUnits="userSpaceOnUse" spreadMethod="pad" id="fill1" gradientTransform="matrix(0.000360892 0 0 0.000360892 652 38.0002)"><stop offset="0" stop-color="#FFFFFF"/><stop offset="0.26" stop-color="#FFFFFF"/><stop offset="0.5" stop-color="#20A0FB"/><stop offset="1" stop-color="#0F1113"/></radialGradient><radialGradient cx="374073" cy="419792" r="562278" gradientUnits="userSpaceOnUse" spreadMethod="pad" id="fill2" gradientTransform="matrix(0.000360892 0 0 0.000360892 658 46.0001)"><stop offset="0" stop-color="#FFFFFF"/><stop offset="0.54" stop-color="#20A0FB" stop-opacity="0"/><stop offset="1" stop-color="#20A0FB" stop-opacity="0"/></radialGradient><linearGradient x1="925.5" y1="44" x2="925.5" y2="198" gradientUnits="userSpaceOnUse" spreadMethod="reflect" id="fill3"><stop offset="0" stop-color="#F5FAFF" stop-opacity="0.231373"/><stop offset="0.32" stop-color="#FFFFFF" stop-opacity="0"/><stop offset="1" stop-color="#FFFFFF" stop-opacity="0"/></linearGradient><radialGradient cx="94211" cy="102524" r="139237" fx="94211" fy="102524" gradientUnits="userSpaceOnUse" spreadMethod="pad" id="fill4" gradientTransform="matrix(0.000360892 0 0 0.000360892 655 83.9999)"><stop offset="0" stop-color="#FFFFFF"/><stop offset="0.54" stop-color="#20A0FB" stop-opacity="0"/><stop offset="1" stop-color="#20A0FB" stop-opacity="0"/></radialGradient><radialGradient cx="110836" cy="120534" r="163747" fx="110836" fy="120534" gradientUnits="userSpaceOnUse" spreadMethod="pad" id="fill5" gradientTransform="matrix(0.000360892 0 0 0.000360892 675 131)"><stop offset="0" stop-color="#FFFFFF"/><stop offset="0.54" stop-color="#20A0FB" stop-opacity="0"/><stop offset="1" stop-color="#20A0FB" stop-opacity="0"/></radialGradient><radialGradient cx="292331" cy="278477" r="403741" fx="292331" fy="278476" gradientUnits="userSpaceOnUse" spreadMethod="pad" id="fill6" gradientTransform="matrix(0.000360892 0 0 0.000360892 985 360)"><stop offset="0" stop-color="#FFFFFF"/><stop offset="0.54" stop-color="#20A0FB" stop-opacity="0"/><stop offset="1" stop-color="#20A0FB" stop-opacity="0"/></radialGradient><radialGradient cx="70658" cy="77585.5" r="104938" gradientUnits="userSpaceOnUse" spreadMethod="pad" id="fill7" gradientTransform="matrix(0.000360892 0 0 0.000360892 1146 488)"><stop offset="0" stop-color="#FFFFFF"/><stop offset="0.54" stop-color="#20A0FB" stop-opacity="0"/><stop offset="1" stop-color="#20A0FB" stop-opacity="0"/></radialGradient><radialGradient cx="77585.5" cy="83127" r="113708" gradientUnits="userSpaceOnUse" spreadMethod="pad" id="fill8" gradientTransform="matrix(0.000360892 0 0 0.000360892 1141 433)"><stop offset="0" stop-color="#FFFFFF"/><stop offset="0.54" stop-color="#20A0FB" stop-opacity="0"/><stop offset="1" stop-color="#20A0FB" stop-opacity="0"/></radialGradient><clipPath id="clip9"><rect x="665" y="51" width="527" height="527"/></clipPath><clipPath id="clip10"><rect x="665" y="51" width="527" height="527"/></clipPath><clipPath id="clip11"><rect x="665" y="51" width="527" height="527"/></clipPath><clipPath id="clip12"><rect x="710" y="110" width="420" height="420"/></clipPath><clipPath id="clip13"><rect x="710" y="110" width="420" height="420"/></clipPath><clipPath id="clip14"><rect x="710" y="110" width="420" height="420"/></clipPath><clipPath id="clip15"><rect x="861" y="144" width="217" height="216"/></clipPath><clipPath id="clip16"><rect x="861" y="144" width="217" height="216"/></clipPath><clipPath id="clip17"><rect x="861" y="144" width="217" height="216"/></clipPath></defs><g clip-path="url(#clip0)" transform="translate(-652 -38)"><rect x="652" y="38.0002" width="550" height="550" fill="url(#fill1)"/><path d="M658 197.5C658 113.829 718.442 46.0001 793 46.0001 867.559 46.0001 928 113.829 928 197.5 928 281.171 867.559 349 793 349 718.442 349 658 281.171 658 197.5Z" fill="url(#fill2)" fill-rule="evenodd"/><path d="M686.734 44 1164.27 44C1180.14 44 1193 63.8639 1193 88.3676L1193 198C1193 159.824 1172.96 128.876 1148.23 128.876L702.767 128.876C678.043 128.876 658 159.824 658 198L658 88.3676C658 63.8639 670.864 44 686.734 44Z" fill="url(#fill3)" fill-rule="evenodd"/><path d="M655 121C655 100.565 670.222 83.9999 689 83.9999 707.778 83.9999 723 100.565 723 121 723 141.435 707.778 158 689 158 670.222 158 655 141.435 655 121Z" fill="url(#fill4)" fill-rule="evenodd"/><path d="M675 174.5C675 150.476 692.909 131 715 131 737.091 131 755 150.476 755 174.5 755 198.524 737.091 218 715 218 692.909 218 675 198.524 675 174.5Z" fill="url(#fill5)" fill-rule="evenodd"/><path d="M985 460.5C985 404.995 1032.23 360 1090.5 360 1148.77 360 1196 404.995 1196 460.5 1196 516.005 1148.77 561 1090.5 561 1032.23 561 985 516.005 985 460.5Z" fill="url(#fill6)" fill-rule="evenodd"/><path d="M1146 516C1146 500.536 1157.42 488 1171.5 488 1185.58 488 1197 500.536 1197 516 1197 531.464 1185.58 544 1171.5 544 1157.42 544 1146 531.464 1146 516Z" fill="url(#fill7)" fill-rule="evenodd"/><path d="M1141 463C1141 446.432 1153.54 433 1169 433 1184.46 433 1197 446.432 1197 463 1197 479.569 1184.46 493 1169 493 1153.54 493 1141 479.569 1141 463Z" fill="url(#fill8)" fill-rule="evenodd"/><g clip-path="url(#clip9)"><g clip-path="url(#clip10)"><g clip-path="url(#clip11)"><path d="M864.157 298.339 834.967 505.075C834.296 509.874 830.589 513.676 825.81 514.473 821.032 515.269 816.286 512.884 814.092 508.571L739.94 363.147C737.903 359.146 736.874 354.704 736.937 350.221L739.919 151.885C739.972 148.148 742.355 144.851 745.884 143.612 749.411 142.373 753.328 143.486 755.702 146.384L855.955 268.993C862.663 277.205 865.645 287.84 864.155 298.34ZM861.005 261.842C868.125 270.546 879.37 274.767 890.448 272.899L1139.64 230.993C1142.97 230.436 1145.62 227.906 1146.34 224.62 1147.06 221.323 1145.69 217.931 1142.91 216.041L993.988 115.219C990.335 112.741 985.977 111.502 981.557 111.692L766.18 120.827C762.42 120.984 759.071 123.262 757.528 126.685 755.995 130.118 756.532 134.13 758.914 137.048ZM1154.69 242.689C1152.39 239.834 1148.74 238.437 1145.11 239.046L902.145 279.911C886.301 282.579 874.015 295.199 871.757 311.096L842.819 515.741C842.021 521.381 844.236 527.029 848.657 530.63 853.078 534.221 859.073 535.228 864.428 533.298L1066.39 460.345C1070.72 458.781 1074.19 455.442 1075.92 451.157L1156.18 252.834C1157.55 249.421 1156.98 245.547 1154.69 242.691Z" fill="#FFFFFF"/></g></g></g><g clip-path="url(#clip12)"><g clip-path="url(#clip13)"><g clip-path="url(#clip14)"><path d="M936.422 121.313C855.136 121.313 788.934 184.163 783.068 263.773 783.068 264.611 782.649 265.03 782.649 265.868 773.012 279.695 754.576 306.511 752.062 312.377 745.358 317.824 763.375 331.651 770.079 333.746 772.593 334.584 780.135 334.165 782.23 333.746L782.23 413.356C782.23 422.155 789.353 429.278 798.152 429.278L861.84 429.278 861.84 502.184C861.84 510.983 868.963 518.106 877.762 518.106L1021.06 518.106C1039.91 518.106 1055.42 502.603 1055.42 483.748L1055.42 372.713C1077.21 346.316 1090.19 312.377 1090.19 275.086 1090.61 190.029 1021.48 121.313 936.422 121.313ZM1054.58 278.438C1039.5 322.852 981.674 343.383 925.109 324.528 868.544 305.254 835.024 253.717 850.108 209.303 865.192 164.889 923.014 144.358 979.579 163.213 1036.14 182.068 1069.66 233.605 1054.58 278.438Z" fill="#023A63"/></g></g></g><g clip-path="url(#clip15)"><g clip-path="url(#clip16)"><g clip-path="url(#clip17)"><path d="M206.53 62.4265 196.278 65.526C195.161 65.8534 194.52 67.0253 194.847 68.1433 195.174 69.2613 196.346 69.9021 197.464 69.5747 197.476 69.5714 197.488 69.568 197.499 69.5642L207.751 66.4651C208.866 66.128 209.497 64.9506 209.16 63.8351 208.822 62.7201 207.645 62.0894 206.53 62.4265Z" fill="#023A63" transform="matrix(1.00463 0 0 1 861 144)"/><path d="M67.3949 55.8807 66.5461 55.6233C62.2147 56.5439 57.704 56.0979 53.6367 54.3472L51.9707 55.2698C54.2489 59.0312 59.2915 67.6307 62.3122 74.8629 64.8189 68.7816 66.5275 62.4012 67.3949 55.8807Z" fill="#023A63" transform="matrix(1.00463 0 0 1 861 144)"/><path d="M78.0131 27.5851C74.093 18.8225 63.8119 14.8967 55.0496 18.8166 52.6588 19.8861 50.5406 21.4821 48.8531 23.4853 53.5823 24.9363 58.4216 26.0014 63.3234 26.6701 68.1893 27.3509 73.1003 27.6568 78.0131 27.5851Z" fill="#023A63" transform="matrix(1.00463 0 0 1 861 144)"/><path d="M46.2797 93.3761C47.9321 93.7043 49.4062 94.6282 50.422 95.9719L50.6161 95.9634C54.1687 91.0701 57.2657 85.8616 59.8682 80.4034 57.6475 73.1565 50.8865 61.63 48.2764 57.3172L38.6998 62.6222C38.4813 62.7766 38.275 62.9361 38.067 63.0947 43.0059 69.6979 45.1967 75.7054 44.5677 80.9704 44.3416 83.0827 43.5801 85.1023 42.355 86.8379L42.5503 87.0209C43.7948 88.1891 44.4913 89.826 44.4702 91.5325 44.4614 92.0282 44.3913 92.5209 44.2618 92.9993Z" fill="#023A63" transform="matrix(1.00463 0 0 1 861 144)"/><path d="M13.157 161.048C13.1616 161.063 13.1659 161.079 13.1701 161.095 13.3321 161.733 13.5004 162.377 13.6696 163.024 14.6374 166.723 15.6376 170.548 15.795 174.418 15.7984 174.498 15.8038 174.578 15.8119 174.66 15.9836 176.416 17.2226 177.846 17.7187 178.305L18.0605 178.469C20.0601 179.425 22.3863 179.418 24.3801 178.45 24.5756 178.338 24.7059 178.139 24.7307 177.915 24.7445 177.827 24.7638 177.74 24.7885 177.654L30.7665 156.937C31.0985 155.113 32.3424 153.587 34.0617 152.893L57.2037 136.833C57.367 136.719 57.5454 136.63 57.7336 136.566 66.4031 133.651 90.5938 144.267 97.8015 147.591 98.0597 147.71 98.2918 147.88 98.4824 148.091L134.008 187.355C134.111 187.459 134.254 187.512 134.399 187.502 134.554 187.501 134.701 187.436 134.805 187.322L142.682 178.839C142.854 178.656 142.882 178.379 142.751 178.164 141.238 175.638 139.835 172.958 138.349 170.121 131.201 156.47 122.305 139.481 91.2637 120.509 90.3778 119.967 89.0561 118.742 87.5934 117.23L54.8808 130.022C54.3923 130.213 53.8726 130.312 53.3477 130.314 52.1994 130.314 50.7473 129.825 49.2948 128.02 48.2439 126.715 47.4208 123.435 47.0272 119.79L34.5427 121.679C33.9387 122.439 33.2317 123.111 32.4422 123.677L13.3169 137.261C13.2978 137.275 13.2788 137.288 13.2599 137.3 9.95219 139.489 8.38261 143.524 9.34242 147.373Z" fill="#023A63" transform="matrix(1.00463 0 0 1 861 144)"/><path d="M13.7607 190.076C15.6816 188.763 17.7935 187.755 20.0218 187.086L24.2127 185.827C24.7036 185.677 25.0966 185.307 25.2749 184.826 25.4306 184.43 25.3885 183.984 25.1615 183.624 25.1374 183.587 25.1112 183.549 25.083 183.513L24.6025 182.887C22.1211 183.668 19.447 183.571 17.0281 182.615L15.7604 183.885C13.4977 186.153 10.8405 187.989 7.91901 189.304 6.92495 189.75 6.48063 190.917 6.92655 191.911 7.19132 192.501 7.72862 192.924 8.36451 193.043 8.88877 193.145 9.43223 193.033 9.87271 192.731Z" fill="#023A63" transform="matrix(1.00463 0 0 1 861 144)"/><path d="M145.864 197.311C146.628 197.704 147.503 197.827 148.346 197.663 151.572 197.16 154.846 197.034 158.101 197.287 158.139 197.291 158.176 197.297 158.214 197.303L165.509 198.546C165.6 198.562 165.69 198.583 165.779 198.61 166.29 198.77 166.843 198.718 167.315 198.465 167.782 198.219 168.13 197.795 168.281 197.288 168.451 196.735 168.364 196.135 168.046 195.652 167.728 195.159 167.206 194.833 166.623 194.764 163.54 194.376 159.218 193.418 156.335 191.891L155.347 191.369C153.978 190.644 152.676 189.798 151.457 188.842L144.343 183.25 140.262 187.646C140.618 188.014 141.002 188.408 141.338 188.754 141.933 189.366 142.524 189.973 142.964 190.433 143.901 191.413 144.52 192.061 144.187 193.25 143.513 195.668 144.729 196.69 145.864 197.311Z" fill="#023A63" transform="matrix(1.00463 0 0 1 861 144)"/><path d="M32.9855 96.3942C33.68 97.0932 34.7995 97.1278 35.5358 96.473L39.628 92.8373C40.3932 92.1577 40.4624 90.9861 39.7827 90.2209 39.745 90.1787 39.7055 90.1382 39.6642 90.0994L33.9149 84.7124 36.7993 81.6328 39.2381 83.9181C40.6966 81.5189 42.225 75.9024 35.0025 66.0403 34.3126 66.8891 33.7284 67.818 33.2627 68.8078 33.2463 68.8436 33.2285 68.8786 33.2104 68.9137L24.3869 85.4689C23.9699 86.4248 24.1776 87.5386 24.9113 88.2802Z" fill="#023A63" transform="matrix(1.00463 0 0 1 861 144)"/><path d="M65.8656 51.4599C72.0368 50.1027 76.9841 45.5017 78.7855 39.4453 73.434 39.4407 68.0889 39.0884 62.783 38.3906 56.697 37.5867 50.6798 36.3303 44.7807 34.6317 44.7997 44.1775 52.5534 51.8999 62.0991 51.8809 63.3664 51.8784 64.6295 51.7366 65.8656 51.4577Z" fill="#023A63" transform="matrix(1.00463 0 0 1 861 144)"/><path d="M79.4812 35.2265C79.5238 34.0742 79.4512 32.9205 79.2635 31.7828 78.3923 31.8056 77.5212 31.8207 76.6479 31.8207 71.9929 31.8214 67.343 31.4972 62.7332 30.8504 57.2172 30.0998 51.778 28.8663 46.4779 27.1641 45.9797 28.1975 45.5861 29.2783 45.3034 30.3902 51.2055 32.1276 57.2332 33.4058 63.3327 34.2132 68.6863 34.9161 74.0816 35.2547 79.4812 35.2265Z" fill="#023A63" transform="matrix(1.00463 0 0 1 861 144)"/><path d="M170.993 58.7461C171.217 58.7461 171.441 58.7098 171.654 58.6393L191.003 52.261C192.11 51.8961 192.712 50.7034 192.347 49.5964 191.982 48.4899 190.789 47.8883 189.682 48.2532L170.333 54.6328C169.226 54.9964 168.624 56.1887 168.987 57.2952 169.272 58.1613 170.081 58.7469 170.993 58.7461Z" fill="#023A63" transform="matrix(1.00463 0 0 1 861 144)"/><path d="M32.6978 32.4173C32.9507 32.4171 33.2015 32.3714 33.4382 32.2823L40.1372 29.7679C40.438 29.6552 40.709 29.4751 40.9294 29.2414L42.5625 27.5117 38.0451 20.7862C37.9809 20.6845 37.9254 20.5775 37.8793 20.4664 37.7782 20.2096 37.5379 20.0342 37.2625 20.0163 37.2397 20.0163 37.214 20.0129 37.1861 20.0129 36.9328 20.0085 36.6959 20.1381 36.563 20.3538L34.5566 23.4415C34.4137 23.6524 34.3957 23.9239 34.5094 24.1519 34.6178 24.3868 34.8442 24.5451 35.1021 24.5662 35.1519 24.5713 35.2021 24.5784 35.2519 24.5873L38.9137 25.2319 38.1965 25.9913 31.9528 28.3335C30.8617 28.7417 30.3081 29.9572 30.7163 31.0483 31.0249 31.8733 31.8137 32.4196 32.6944 32.4185Z" fill="#023A63" transform="matrix(1.00463 0 0 1 861 144)"/><path d="M53.3579 126.084 84.5344 113.897C82.3407 111.408 80.268 108.872 79.1964 107.471 78.1519 106.11 77.5435 104.465 77.4511 102.751L77.3929 102.017 53.8266 109.631C53.7886 109.701 53.7523 109.772 53.7114 109.842 53.0874 110.896 52.191 111.762 51.1169 112.35 50.5621 117.661 51.8341 124.319 52.5909 125.386 52.7905 125.674 53.0524 125.913 53.3579 126.084Z" fill="#023A63" transform="matrix(1.00463 0 0 1 861 144)"/><path d="M115.816 79.8486 115.816 75.8607C115.816 74.9722 115.185 74.209 114.312 74.0403L103.55 71.9638C100.714 71.4183 97.9948 70.3852 95.512 68.9107L82.1534 60.9858C80.7354 60.145 79.2226 59.4751 77.6469 58.9903L71.4896 57.1218C69.1537 74.5474 60.4074 89.2189 55.957 95.7432L68.175 95.2424Z" fill="#023A63" transform="matrix(1.00463 0 0 1 861 144)"/><path d="M44.0437 112.031 37.7704 114.469C37.3172 115.292 36.9691 116.169 36.7343 117.079L46.7775 115.56C46.769 114.725 46.7868 113.904 46.8323 113.113 45.8346 112.961 44.8828 112.591 44.0437 112.031Z" fill="#023A63" transform="matrix(1.00463 0 0 1 861 144)"/><path d="M206.492 53.2115 130.025 77.9203 125.839 75.9223C125.078 75.5607 124.189 75.5864 123.45 75.9923L120.035 77.9308 120.035 81.1476 49.5412 103.823 47.3521 99.0013C47.0028 98.2348 46.3058 97.683 45.4794 97.5185L41.5391 96.7823 39.2006 98.86 44.0522 105.589 32.0355 109.455C30.944 109.863 30.3891 111.078 30.7962 112.169 31.2033 113.26 32.4182 113.815 33.5097 113.408 33.5277 113.402 33.5457 113.394 33.5635 113.387L47.4103 108.933C48.2456 109.077 49.0986 108.803 49.6926 108.199L127.671 83.1119 130.217 83.7535C131.125 84.0092 132.1 83.7628 132.777 83.1059 133.289 82.6098 133.572 81.923 133.558 81.21L207.789 57.2256C208.902 56.8814 209.525 55.6997 209.18 54.5868 208.836 53.4739 207.655 52.8512 206.542 53.1954 206.525 53.2005 206.509 53.206 206.492 53.2115Z" fill="#023A63" transform="matrix(1.00463 0 0 1 861 144)"/></g></g></g></g></svg>