<svg width="550" height="550" xmlns="http://www.w3.org/2000/svg" xmlns:xlink="http://www.w3.org/1999/xlink" overflow="hidden"><defs><clipPath id="clip0"><rect x="1945" y="38" width="550" height="550"/></clipPath><radialGradient cx="762000" cy="762000" r="1.07763e+06" gradientUnits="userSpaceOnUse" spreadMethod="pad" id="fill1" gradientTransform="matrix(0.000360892 0 0 0.000360892 1945 38.0002)"><stop offset="0" stop-color="#FFFFFF"/><stop offset="0.26" stop-color="#FFFFFF"/><stop offset="0.5" stop-color="#20A0FB"/><stop offset="1" stop-color="#0F1113"/></radialGradient><radialGradient cx="374072" cy="419792" r="562278" gradientUnits="userSpaceOnUse" spreadMethod="pad" id="fill2" gradientTransform="matrix(0.000360892 0 0 0.000360892 1950 46.0001)"><stop offset="0" stop-color="#FFFFFF"/><stop offset="0.54" stop-color="#20A0FB" stop-opacity="0"/><stop offset="1" stop-color="#20A0FB" stop-opacity="0"/></radialGradient><linearGradient x1="2218" y1="44" x2="2218" y2="198" gradientUnits="userSpaceOnUse" spreadMethod="reflect" id="fill3"><stop offset="0" stop-color="#F5FAFF" stop-opacity="0.231373"/><stop offset="0.32" stop-color="#FFFFFF" stop-opacity="0"/><stop offset="1" stop-color="#FFFFFF" stop-opacity="0"/></linearGradient><radialGradient cx="94211" cy="102524" r="139237" fx="94211" fy="102524" gradientUnits="userSpaceOnUse" spreadMethod="pad" id="fill4" gradientTransform="matrix(0.000360892 0 0 0.000360892 1947 83.9999)"><stop offset="0" stop-color="#FFFFFF"/><stop offset="0.54" stop-color="#20A0FB" stop-opacity="0"/><stop offset="1" stop-color="#20A0FB" stop-opacity="0"/></radialGradient><radialGradient cx="112222" cy="120534" r="164689" gradientUnits="userSpaceOnUse" spreadMethod="pad" id="fill5" gradientTransform="matrix(0.000360892 0 0 0.000360892 1967 131)"><stop offset="0" stop-color="#FFFFFF"/><stop offset="0.54" stop-color="#20A0FB" stop-opacity="0"/><stop offset="1" stop-color="#20A0FB" stop-opacity="0"/></radialGradient><radialGradient cx="292331" cy="278477" r="403741" fx="292331" fy="278476" gradientUnits="userSpaceOnUse" spreadMethod="pad" id="fill6" gradientTransform="matrix(0.000360892 0 0 0.000360892 2277 360)"><stop offset="0" stop-color="#FFFFFF"/><stop offset="0.54" stop-color="#20A0FB" stop-opacity="0"/><stop offset="1" stop-color="#20A0FB" stop-opacity="0"/></radialGradient><radialGradient cx="72044" cy="77585.5" r="105877" fx="72044" fy="77585.5" gradientUnits="userSpaceOnUse" spreadMethod="pad" id="fill7" gradientTransform="matrix(0.000360892 0 0 0.000360892 2438 488)"><stop offset="0" stop-color="#FFFFFF"/><stop offset="0.54" stop-color="#20A0FB" stop-opacity="0"/><stop offset="1" stop-color="#20A0FB" stop-opacity="0"/></radialGradient><radialGradient cx="77585.5" cy="83127" r="113708" gradientUnits="userSpaceOnUse" spreadMethod="pad" id="fill8" gradientTransform="matrix(0.000360892 0 0 0.000360892 2434 433)"><stop offset="0" stop-color="#FFFFFF"/><stop offset="0.54" stop-color="#20A0FB" stop-opacity="0"/><stop offset="1" stop-color="#20A0FB" stop-opacity="0"/></radialGradient><clipPath id="clip9"><rect x="1959" y="51" width="525" height="527"/></clipPath><clipPath id="clip10"><rect x="1959" y="51" width="525" height="527"/></clipPath><clipPath id="clip11"><rect x="1959" y="51" width="525" height="527"/></clipPath><clipPath id="clip12"><rect x="2163" y="55" width="331" height="330"/></clipPath><clipPath id="clip13"><rect x="2163" y="55" width="331" height="330"/></clipPath><clipPath id="clip14"><rect x="2163" y="55" width="331" height="330"/></clipPath></defs><g clip-path="url(#clip0)" transform="translate(-1945 -38)"><rect x="1945" y="38.0002" width="550" height="550" fill="url(#fill1)"/><path d="M1950 197.5C1950 113.829 2010.44 46.0001 2085 46.0001 2159.56 46.0001 2220 113.829 2220 197.5 2220 281.171 2159.56 349 2085 349 2010.44 349 1950 281.171 1950 197.5Z" fill="url(#fill2)" fill-rule="evenodd"/><path d="M1978.79 44 2457.21 44C2473.11 44 2486 63.8639 2486 88.3676L2486 198C2486 159.824 2465.92 128.876 2441.15 128.876L1994.85 128.876C1970.08 128.876 1950 159.824 1950 198L1950 88.3676C1950 63.8639 1962.89 44 1978.79 44Z" fill="url(#fill3)" fill-rule="evenodd"/><path d="M1947 121C1947 100.565 1962.22 83.9999 1981 83.9999 1999.78 83.9999 2015 100.565 2015 121 2015 141.435 1999.78 158 1981 158 1962.22 158 1947 141.435 1947 121Z" fill="url(#fill4)" fill-rule="evenodd"/><path d="M1967 174.5C1967 150.476 1985.13 131 2007.5 131 2029.87 131 2048 150.476 2048 174.5 2048 198.524 2029.87 218 2007.5 218 1985.13 218 1967 198.524 1967 174.5Z" fill="url(#fill5)" fill-rule="evenodd"/><path d="M2277 460.5C2277 404.995 2324.23 360 2382.5 360 2440.77 360 2488 404.995 2488 460.5 2488 516.005 2440.77 561 2382.5 561 2324.23 561 2277 516.005 2277 460.5Z" fill="url(#fill6)" fill-rule="evenodd"/><path d="M2438 516C2438 500.536 2449.64 488 2464 488 2478.36 488 2490 500.536 2490 516 2490 531.464 2478.36 544 2464 544 2449.64 544 2438 531.464 2438 516Z" fill="url(#fill7)" fill-rule="evenodd"/><path d="M2434 463C2434 446.432 2446.54 433 2462 433 2477.46 433 2490 446.432 2490 463 2490 479.569 2477.46 493 2462 493 2446.54 493 2434 479.569 2434 463Z" fill="url(#fill8)" fill-rule="evenodd"/><g clip-path="url(#clip9)"><g clip-path="url(#clip10)"><g clip-path="url(#clip11)"><path d="M2157.16 298.339 2127.97 505.075C2127.3 509.874 2123.59 513.676 2118.81 514.473 2114.03 515.269 2109.29 512.884 2107.09 508.571L2032.94 363.147C2030.9 359.146 2029.87 354.704 2029.94 350.221L2032.92 151.885C2032.97 148.148 2035.35 144.851 2038.88 143.612 2042.41 142.373 2046.33 143.486 2048.7 146.384L2148.96 268.993C2155.66 277.205 2158.64 287.84 2157.15 298.34ZM2154.01 261.842C2161.12 270.546 2172.37 274.767 2183.45 272.899L2432.64 230.993C2435.97 230.436 2438.62 227.906 2439.34 224.62 2440.06 221.323 2438.69 217.931 2435.91 216.041L2286.99 115.219C2283.33 112.741 2278.98 111.502 2274.56 111.692L2059.18 120.827C2055.42 120.984 2052.07 123.262 2050.53 126.685 2049 130.118 2049.53 134.13 2051.91 137.048ZM2447.69 242.689C2445.39 239.834 2441.74 238.437 2438.11 239.046L2195.15 279.911C2179.3 282.579 2167.02 295.199 2164.76 311.096L2135.82 515.741C2135.02 521.381 2137.24 527.029 2141.66 530.63 2146.08 534.221 2152.07 535.228 2157.43 533.298L2359.39 460.345C2363.72 458.781 2367.19 455.442 2368.92 451.157L2449.18 252.834C2450.55 249.421 2449.98 245.547 2447.69 242.691Z" fill="#FFFFFF"/></g></g></g><g clip-path="url(#clip12)"><g clip-path="url(#clip13)"><g clip-path="url(#clip14)"><path d="M2347.91 328.281C2370.25 300.781 2395 266.062 2397.41 226.875L2438.66 226.875C2435.56 278.094 2397.41 319.688 2347.91 328.281ZM2219.34 226.875 2260.59 226.875C2263.34 266.062 2287.75 300.781 2310.09 328.281 2260.59 319.688 2222.44 278.094 2219.34 226.875ZM2310.09 111.719C2287.75 139.219 2263 173.938 2260.59 213.125L2219.34 213.125C2222.44 161.906 2260.59 120.312 2310.09 111.719ZM2335.88 226.875 2383.66 226.875C2380.91 262.281 2357.88 294.25 2335.88 321.406L2335.88 226.875ZM2322.12 226.875 2322.12 321.406C2300.12 294.25 2277.09 262.281 2274.34 226.875L2322.12 226.875ZM2335.88 118.594C2357.88 145.75 2380.91 177.375 2383.66 213.125L2335.88 213.125 2335.88 118.594ZM2322.12 213.125 2274.34 213.125C2277.09 177.719 2300.12 145.75 2322.12 118.594L2322.12 213.125ZM2438.66 213.125 2397.41 213.125C2395 173.938 2370.25 139.219 2347.91 111.719 2397.41 120.312 2435.56 161.906 2438.66 213.125ZM2329 89.375C2256.81 89.375 2198.38 147.812 2198.38 220 2198.38 292.188 2256.81 350.625 2329 350.625 2401.19 350.625 2459.62 292.188 2459.62 220 2459.62 147.812 2401.19 89.375 2329 89.375Z" stroke="#FFFFFF" stroke-width="4.58332" fill="#023A63"/></g></g></g><path d="M1992.5 351C1992.5 335.26 2005.26 322.5 2021 322.5L2066.17 322.5 2066.17 322.5 2176.67 322.5 2406 322.5C2421.74 322.5 2434.5 335.26 2434.5 351L2434.5 422.25 2434.5 422.25 2434.5 465 2434.5 465C2434.5 480.74 2421.74 493.5 2406 493.5L2176.67 493.5 2066.63 549.829 2066.17 493.5 2021 493.5C2005.26 493.5 1992.5 480.74 1992.5 465L1992.5 465 1992.5 422.25 1992.5 422.25Z" stroke="#FFFFFF" stroke-width="4.58333" stroke-miterlimit="8" fill="#023A63" fill-rule="evenodd"/><rect x="2011" y="340" width="416" height="133" fill="#023A63"/><text fill="#FFFFFF" font-family="Aurebesh,Aurebesh_MSFontService,sans-serif" font-weight="400" font-size="83" transform="matrix(1 0 0 1 2044.28 436)">hello</text></g></svg>