<svg width="550" height="550" xmlns="http://www.w3.org/2000/svg" xmlns:xlink="http://www.w3.org/1999/xlink" overflow="hidden"><defs><clipPath id="clip0"><rect x="32" y="38" width="550" height="550"/></clipPath><radialGradient cx="762000" cy="762000" r="1.07763e+06" gradientUnits="userSpaceOnUse" spreadMethod="pad" id="fill1" gradientTransform="matrix(0.000360892 0 0 0.000360892 32 38.0002)"><stop offset="0" stop-color="#FFFFFF"/><stop offset="0.26" stop-color="#FFFFFF"/><stop offset="0.5" stop-color="#20A0FB"/><stop offset="1" stop-color="#0F1113"/></radialGradient><radialGradient cx="374072" cy="419792" r="562278" gradientUnits="userSpaceOnUse" spreadMethod="pad" id="fill2" gradientTransform="matrix(0.000360892 0 0 0.000360892 37.0001 46.0001)"><stop offset="0" stop-color="#FFFFFF"/><stop offset="0.54" stop-color="#20A0FB" stop-opacity="0"/><stop offset="1" stop-color="#20A0FB" stop-opacity="0"/></radialGradient><linearGradient x1="305.5" y1="44" x2="305.5" y2="198" gradientUnits="userSpaceOnUse" spreadMethod="reflect" id="fill3"><stop offset="0" stop-color="#F5FAFF" stop-opacity="0.231373"/><stop offset="0.32" stop-color="#FFFFFF" stop-opacity="0"/><stop offset="1" stop-color="#FFFFFF" stop-opacity="0"/></linearGradient><radialGradient cx="94211" cy="102524" r="139237" fx="94211" fy="102524" gradientUnits="userSpaceOnUse" spreadMethod="pad" id="fill4" gradientTransform="matrix(0.000360892 0 0 0.000360892 34 83.9999)"><stop offset="0" stop-color="#FFFFFF"/><stop offset="0.54" stop-color="#20A0FB" stop-opacity="0"/><stop offset="1" stop-color="#20A0FB" stop-opacity="0"/></radialGradient><radialGradient cx="112222" cy="120534" r="164689" gradientUnits="userSpaceOnUse" spreadMethod="pad" id="fill5" gradientTransform="matrix(0.000360892 0 0 0.000360892 54 131)"><stop offset="0" stop-color="#FFFFFF"/><stop offset="0.54" stop-color="#20A0FB" stop-opacity="0"/><stop offset="1" stop-color="#20A0FB" stop-opacity="0"/></radialGradient><radialGradient cx="293717" cy="278477" r="404745" fx="293716" fy="278476" gradientUnits="userSpaceOnUse" spreadMethod="pad" id="fill6" gradientTransform="matrix(0.000360892 0 0 0.000360892 364 360)"><stop offset="0" stop-color="#FFFFFF"/><stop offset="0.54" stop-color="#20A0FB" stop-opacity="0"/><stop offset="1" stop-color="#20A0FB" stop-opacity="0"/></radialGradient><radialGradient cx="72044" cy="77585.5" r="105877" fx="72044" fy="77585.5" gradientUnits="userSpaceOnUse" spreadMethod="pad" id="fill7" gradientTransform="matrix(0.000360892 0 0 0.000360892 525 488)"><stop offset="0" stop-color="#FFFFFF"/><stop offset="0.54" stop-color="#20A0FB" stop-opacity="0"/><stop offset="1" stop-color="#20A0FB" stop-opacity="0"/></radialGradient><radialGradient cx="77585.5" cy="83127" r="113708" gradientUnits="userSpaceOnUse" spreadMethod="pad" id="fill8" gradientTransform="matrix(0.000360892 0 0 0.000360892 521 433)"><stop offset="0" stop-color="#FFFFFF"/><stop offset="0.54" stop-color="#20A0FB" stop-opacity="0"/><stop offset="1" stop-color="#20A0FB" stop-opacity="0"/></radialGradient><clipPath id="clip9"><rect x="46" y="51" width="525" height="527"/></clipPath><clipPath id="clip10"><rect x="46" y="51" width="525" height="527"/></clipPath><clipPath id="clip11"><rect x="46" y="51" width="525" height="527"/></clipPath><clipPath id="clip12"><rect x="105" y="132" width="346" height="367"/></clipPath><clipPath id="clip13"><rect x="105" y="132" width="346" height="367"/></clipPath><clipPath id="clip14"><rect x="105" y="132" width="346" height="367"/></clipPath></defs><g clip-path="url(#clip0)" transform="translate(-32 -38)"><rect x="32" y="38.0002" width="550" height="550" fill="url(#fill1)"/><path d="M37.0001 197.5C37.0001 113.829 97.4417 46.0001 172 46.0001 246.558 46.0001 307 113.829 307 197.5 307 281.171 246.558 349 172 349 97.4417 349 37.0001 281.171 37.0001 197.5Z" fill="url(#fill2)" fill-rule="evenodd"/><path d="M66.7339 44 544.266 44C560.136 44 573 63.8639 573 88.3676L573 198C573 159.824 552.957 128.876 528.233 128.876L82.7669 128.876C58.0429 128.876 38.0002 159.824 38.0002 198L38.0002 88.3676C38.0002 63.8639 50.8646 44 66.7339 44Z" fill="url(#fill3)" fill-rule="evenodd"/><path d="M34 121C34 100.565 49.2224 83.9999 68.0001 83.9999 86.7778 83.9999 102 100.565 102 121 102 141.435 86.7778 158 68.0001 158 49.2224 158 34 141.435 34 121Z" fill="url(#fill4)" fill-rule="evenodd"/><path d="M54 174.5C54 150.476 72.1325 131 94.5 131 116.868 131 135 150.476 135 174.5 135 198.524 116.868 218 94.5 218 72.1325 218 54 198.524 54 174.5Z" fill="url(#fill5)" fill-rule="evenodd"/><path d="M364 460.5C364 404.995 411.458 360 470 360 528.542 360 576 404.995 576 460.5 576 516.005 528.542 561 470 561 411.458 561 364 516.005 364 460.5Z" fill="url(#fill6)" fill-rule="evenodd"/><path d="M525 516C525 500.536 536.641 488 551 488 565.359 488 577 500.536 577 516 577 531.464 565.359 544 551 544 536.641 544 525 531.464 525 516Z" fill="url(#fill7)" fill-rule="evenodd"/><path d="M521 463C521 446.432 533.536 433 549 433 564.464 433 577 446.432 577 463 577 479.569 564.464 493 549 493 533.536 493 521 479.569 521 463Z" fill="url(#fill8)" fill-rule="evenodd"/><g clip-path="url(#clip9)"><g clip-path="url(#clip10)"><g clip-path="url(#clip11)"><path d="M244.157 298.339 214.967 505.075C214.296 509.874 210.589 513.676 205.81 514.473 201.032 515.269 196.286 512.884 194.092 508.571L119.94 363.147C117.903 359.146 116.874 354.704 116.938 350.221L119.92 151.885C119.973 148.148 122.355 144.851 125.884 143.612 129.412 142.373 133.329 143.486 135.702 146.384L235.955 268.993C242.663 277.205 245.645 287.84 244.155 298.34ZM241.006 261.842C248.125 270.546 259.371 274.767 270.448 272.899L519.642 230.993C522.971 230.436 525.618 227.906 526.344 224.62 527.057 221.323 525.692 217.931 522.91 216.041L373.988 115.219C370.335 112.741 365.977 111.502 361.557 111.692L146.181 120.827C142.421 120.984 139.071 123.262 137.528 126.685 135.995 130.118 136.532 134.13 138.914 137.048ZM534.692 242.689C532.391 239.834 528.737 238.437 525.115 239.046L282.145 279.911C266.301 282.579 254.015 295.199 251.758 311.096L222.819 515.741C222.021 521.381 224.236 527.029 228.657 530.63 233.078 534.221 239.074 535.228 244.428 533.298L446.386 460.345C450.722 458.781 454.188 455.442 455.921 451.157L536.184 252.834C537.549 249.421 536.98 245.547 534.692 242.691Z" fill="#FFFFFF"/></g></g></g><g clip-path="url(#clip12)"><g clip-path="url(#clip13)"><g clip-path="url(#clip14)"><path d="M223.171 156.952C223.02 147.994 215.636 140.853 206.677 141.007 197.72 141.16 190.585 148.544 190.736 157.503 190.887 166.462 198.271 173.597 207.23 173.446 216.189 173.295 223.323 165.91 223.171 156.952ZM205.914 169.307C199.485 169.415 194.182 164.292 194.07 157.859 193.962 151.436 199.085 146.127 205.519 146.019 211.946 145.91 217.25 151.035 217.357 157.463 217.464 163.899 212.341 169.195 205.914 169.307Z" fill="#023A63" transform="matrix(1 0 0 1.00035 106.209 132)"/><path d="M177.197 169.312C171.712 169.406 167.342 173.926 167.438 179.409 167.526 184.89 172.05 189.262 177.531 189.168 183.017 189.076 187.388 184.554 187.295 179.072 187.201 173.587 182.678 169.219 177.197 169.312ZM176.452 186.378C172.795 186.441 169.781 183.528 169.717 179.868 169.656 176.211 172.57 173.195 176.229 173.134 179.884 173.074 182.899 175.987 182.963 179.644 183.022 183.299 180.113 186.316 176.452 186.378Z" fill="#023A63" transform="matrix(1 0 0 1.00035 106.209 132)"/><path d="M145.069 188.064C145.14 192.364 148.688 195.794 152.987 195.72 157.291 195.646 160.721 192.099 160.647 187.798 160.573 183.496 157.026 180.068 152.725 180.142 148.424 180.216 144.994 183.76 145.069 188.064ZM157.275 188.114C157.318 190.694 155.263 192.823 152.68 192.867 150.098 192.911 147.972 190.854 147.927 188.274 147.884 185.691 149.941 183.563 152.522 183.52 155.103 183.477 157.229 185.534 157.275 188.114Z" fill="#023A63" transform="matrix(1 0 0 1.00035 106.209 132)"/><path d="M123.472 193.067C123.525 196.254 126.154 198.798 129.342 198.742 132.533 198.687 135.075 196.056 135.02 192.871 134.966 189.679 132.335 187.14 129.148 187.194 125.959 187.248 123.416 189.877 123.472 193.067ZM132.521 193.104C132.553 195.017 131.029 196.595 129.115 196.628 127.202 196.662 125.625 195.137 125.591 193.223 125.56 191.309 127.085 189.732 128.997 189.7 130.911 189.667 132.488 191.19 132.521 193.104Z" fill="#023A63" transform="matrix(1 0 0 1.00035 106.209 132)"/><path d="M321.964 31.2345C322.281 29.5846 322.454 27.8832 322.454 26.1376 322.454 11.7025 311.102 0 297.098 0 290.375 0 284.28 2.71786 279.742 7.1224 270.409 2.81483 259.667 0.34986 248.225 0.34986 212.427 0.34986 183.407 24.376 183.407 54.0159 183.407 57.3094 183.786 60.5269 184.47 63.656 172.354 71.1283 164.587 82.6049 164.587 95.4859 164.587 118.005 188.301 136.26 217.556 136.26 218.6 136.26 219.632 136.23 220.658 136.185 225.193 146.341 238.274 153.683 253.711 153.683 267.258 153.683 278.988 148.027 284.724 139.779 287.355 140.208 290.062 140.442 292.829 140.442 317.85 140.442 338.132 122.189 338.132 99.6682 338.132 91.8498 335.683 84.5482 331.443 78.3428 339.365 73.6522 344.58 65.6778 344.58 56.6294 344.581 44.3278 334.941 34.0137 321.964 31.2345ZM309.96 128.997C303.291 133.43 295.225 136.248 286.465 136.831 287.763 134.173 288.474 131.313 288.474 128.33 288.474 126.796 288.278 125.298 287.92 123.839 285.925 133.062 278.594 140.737 268.675 144.58L281.987 114.024C282.82 114.515 283.767 114.78 284.729 114.78 285.699 114.78 286.681 114.519 287.565 113.971 287.631 113.929 287.683 113.874 287.747 113.831L310.694 119.55 309.96 128.997ZM296.07 113.933C296.214 113.351 296.805 112.995 297.385 113.141 297.97 113.286 298.323 113.876 298.177 114.457 298.032 115.04 297.441 115.395 296.86 115.25 296.278 115.105 295.923 114.515 296.07 113.933ZM289.995 110.446C290.256 109.151 290.057 107.762 289.304 106.552L286.918 102.704 293.44 87.7325 299.102 90.2269C301.826 91.4263 305.005 90.1913 306.206 87.4686 307.405 84.7446 306.17 81.5639 303.447 80.3646L297.744 77.8517 308.207 53.8354 315.662 55.694 310.996 115.68 289.995 110.446ZM305.758 51.3041C305.904 50.721 306.494 50.3675 307.076 50.5123 307.659 50.6572 308.013 51.2477 307.868 51.8295 307.722 52.4126 307.131 52.7674 306.549 52.6226 305.966 52.4765 305.611 51.8872 305.758 51.3041ZM322.663 81.8671C323.519 81.6646 324.365 81.4313 325.19 81.1637 327.239 85.8138 328.378 90.8775 328.378 96.1856 328.378 107.603 323.157 117.919 314.753 125.32L320.313 53.8317 320.53 52.9614 305.188 49.1387 304.969 50.014 293.633 76.0398 281.41 70.6544C279.042 69.611 276.261 70.4016 274.796 72.5339L271.09 77.9266C272.329 78.4127 273.404 79.2806 274.124 80.4419L278.068 86.7995 281.15 82.3164 289.329 85.9206 284.039 98.0626 273.391 80.8961C272.45 79.3813 270.837 78.4348 269.055 78.355 267.273 78.274 265.58 79.0719 264.507 80.4959L261.075 85.0527 260.597 84.2548 263.819 79.9779C265.011 78.3943 266.83 77.4884 268.809 77.4884 268.902 77.4884 268.997 77.4896 269.094 77.4945 269.621 77.519 270.136 77.6111 270.628 77.7609L258.983 60.9578 266.66 28.8002C267.102 26.9465 265.96 25.0868 264.107 24.6436 262.255 24.2017 260.395 25.3446 259.952 27.1982L252.213 59.6185 241.058 67.351 208.363 60.8461C206.496 60.4741 204.68 61.6882 204.308 63.5554 203.935 65.4225 205.15 67.2381 207.017 67.6113L239.734 74.1211 255.687 97.1345C255.934 97.4917 256.242 97.7802 256.583 98.0073 256.836 98.3056 257.118 98.5843 257.444 98.8298 259.82 100.621 263.199 100.145 264.988 97.7679L268.379 93.2676 278.805 110.076 263.031 146.285C260.223 146.904 257.277 147.238 254.236 147.238 236.504 147.238 221.918 136.03 220.172 121.668 219.379 123.793 218.949 126.026 218.949 128.333 218.949 128.681 218.967 129.026 218.985 129.369 195.203 126.057 177.13 109.658 177.13 89.9139 177.13 76.7064 185.218 64.9929 197.69 57.6912 194.651 58.6389 191.754 59.7965 189.026 61.1432 190.002 32.8156 216.902 10.1103 249.965 10.1103 258.662 10.1103 266.926 11.6914 274.411 14.5222 273.874 15.6369 273.401 16.7908 273.018 17.9889 277.575 12.4145 284.257 8.89011 291.71 8.89011 305.437 8.89011 316.56 20.8271 316.56 35.5506 316.56 38.6981 316.048 41.7155 315.115 44.5181 316.425 43.153 317.574 41.6284 318.57 39.992 329.241 43.5618 336.739 51.967 336.739 61.7705 336.742 70.2628 331.109 77.7069 322.663 81.8671ZM316.902 54.0821C317.048 53.499 317.637 53.1443 318.219 53.2891 318.802 53.4352 319.157 54.0244 319.012 54.6075 318.867 55.1906 318.275 55.5442 317.695 55.3993 317.11 55.2545 316.755 54.6628 316.902 54.0821Z" fill="#023A63" transform="matrix(1 0 0 1.00035 106.209 132)"/><path d="M128.494 357.715C126.336 358.12 124.136 358.117 121.959 357.705L90.3472 351.74 58.7347 357.705C56.5569 358.117 54.3559 358.12 52.199 357.715 47.8129 356.886 44.0553 354.503 41.4798 351.142L29.5846 351.142C25.5176 351.142 22.2191 354.44 22.2191 358.508 22.2191 362.575 25.5176 365.872 29.5846 365.872L151.107 365.872C155.174 365.872 158.473 362.575 158.473 358.508 158.473 354.44 155.174 351.142 151.107 351.142L139.215 351.142C136.638 354.503 132.88 356.887 128.494 357.715Z" fill="#023A63" transform="matrix(1 0 0 1.00035 106.209 132)"/><path d="M123.548 309.591 123.548 273.104C125.797 276.695 128.263 280.427 130.952 284.125 140.016 296.473 151.591 309.087 167.586 314.872 168.67 315.257 169.778 315.438 170.865 315.438 174.908 315.439 178.695 312.925 180.122 308.895 181.936 303.784 179.259 298.172 174.148 296.359 168.036 294.213 161.94 289.789 156.287 283.948 147.784 275.219 140.508 263.572 134.959 253.951 132.165 249.125 129.808 244.842 127.672 241.394 126.578 239.653 125.593 238.138 124.273 236.579 123.588 235.794 122.838 234.974 121.583 234.045 120.705 233.436 119.447 232.619 117.583 232.167 117.407 232.096 117.223 232.039 117.04 231.978 112.024 241.619 101.945 248.221 90.346 248.221 78.7479 248.221 68.6694 241.618 63.6536 231.978 63.4608 232.043 63.2669 232.105 63.0778 232.18 62.097 232.428 61.2647 232.768 60.6141 233.108 58.359 234.352 57.4199 235.476 56.4992 236.478 54.8923 238.365 53.747 240.202 52.3991 242.402 47.8694 249.925 41.7892 261.679 33.8296 272.607 25.9375 283.559 16.2531 293.033 6.54299 296.358 1.4289 298.171-1.24476 303.784 0.565913 308.896 1.99481 312.923 5.78312 315.439 9.82553 315.441 10.9144 315.441 12.0204 315.259 13.1056 314.874 23.1546 311.288 31.4677 304.853 38.4956 297.627 45.9936 289.886 52.1205 281.121 57.1462 273.079L57.1462 309.591 90.3472 315.853 123.548 309.591Z" fill="#023A63" transform="matrix(1 0 0 1.00035 106.209 132)"/><path d="M122.415 355.296C130.655 356.851 138.59 351.43 140.141 343.194 140.197 342.903 140.222 342.613 140.262 342.322L96.9602 350.493 122.415 355.296Z" fill="#023A63" transform="matrix(1 0 0 1.00035 106.209 132)"/><path d="M52.1941 323.048 83.7208 317.102 39.4568 308.748C31.2173 307.194 23.2835 312.612 21.7293 320.851 20.1765 329.084 25.5901 337.023 33.8296 338.578L37.8806 339.343C38.0598 336.184 39.0726 333.12 40.9041 330.438 43.5544 326.551 47.5637 323.926 52.1941 323.048Z" fill="#023A63" transform="matrix(1 0 0 1.00035 106.209 132)"/><path d="M158.965 320.852C157.411 312.614 149.477 307.195 141.238 308.749L52.6496 325.468C44.4113 327.019 38.9964 334.959 40.5518 343.193 42.1047 351.428 50.0397 356.849 58.278 355.295L146.866 338.579C155.106 337.024 160.519 329.085 158.965 320.852Z" fill="#023A63" transform="matrix(1 0 0 1.00035 106.209 132)"/><path d="M117.966 218.147C117.966 233.401 105.6 245.767 90.346 245.767 75.0916 245.767 62.7255 233.401 62.7255 218.147 62.7255 202.892 75.0916 190.526 90.346 190.526 105.6 190.526 117.966 202.892 117.966 218.147Z" fill="#023A63" transform="matrix(1 0 0 1.00035 106.209 132)"/><path d="M278.61 65.7269C277.861 65.7208 276.988 66.0596 276.218 66.9766 276.062 67.1571 276.086 67.4308 276.266 67.5843 276.347 67.6542 276.447 67.6874 276.546 67.6874 276.669 67.6874 276.789 67.6358 276.875 67.5364 277.529 66.7765 278.108 66.5936 278.611 66.5899 279.028 66.5899 279.41 66.7372 279.69 66.8919 279.827 66.9692 279.94 67.0466 280.015 67.1031 280.091 67.1595 280.117 67.1865 280.118 67.1865 280.293 67.3498 280.564 67.34 280.727 67.1644 280.889 66.9889 280.879 66.7188 280.706 66.5543 280.667 66.5285 279.848 65.7392 278.61 65.7269Z" fill="#023A63" transform="matrix(1 0 0 1.00035 106.209 132)"/><path d="M278.54 63.575C277.407 63.5676 276.07 64.0783 274.89 65.5919 274.743 65.7785 274.774 66.0498 274.963 66.1959 275.041 66.2585 275.136 66.2892 275.229 66.2892 275.355 66.2892 275.483 66.2315 275.568 66.1235 276.63 64.7829 277.655 64.4429 278.54 64.4355 279.196 64.4355 279.791 64.6442 280.217 64.859 280.43 64.9658 280.601 65.0739 280.714 65.1512 280.83 65.2298 280.879 65.2727 280.881 65.2727 281.064 65.425 281.334 65.4004 281.487 65.2187 281.641 65.0358 281.616 64.7645 281.433 64.6111 281.395 64.5865 280.22 63.5848 278.54 63.575Z" fill="#023A63" transform="matrix(1 0 0 1.00035 106.209 132)"/><path d="M200.042 65.4716C200.041 65.069 200.177 64.6945 200.32 64.4232 200.391 64.287 200.462 64.179 200.515 64.1053 200.564 64.0341 200.59 64.0071 200.59 64.0059 200.746 63.8266 200.729 63.5541 200.549 63.3982 200.37 63.2411 200.098 63.2607 199.942 63.4387 199.917 63.4756 199.19 64.2809 199.181 65.4704 199.174 66.2376 199.529 67.1374 200.508 67.9083 200.587 67.9722 200.683 68.0016 200.776 68.0016 200.904 68.0016 201.029 67.9464 201.114 67.8396 201.263 67.6542 201.233 67.3829 201.045 67.2344 200.237 66.5801 200.05 65.9896 200.042 65.4716Z" fill="#023A63" transform="matrix(1 0 0 1.00035 106.209 132)"/><path d="M197.893 65.5674C197.893 64.9352 198.082 64.3619 198.277 63.9494 198.375 63.7419 198.472 63.5762 198.543 63.4645 198.616 63.3528 198.654 63.3062 198.653 63.3037 198.801 63.1171 198.768 62.8458 198.578 62.6997 198.392 62.5537 198.12 62.5868 197.975 62.7746 197.951 62.8127 197.038 63.958 197.03 65.5674 197.021 66.7274 197.554 68.1072 199.165 69.282 199.242 69.3385 199.33 69.3655 199.419 69.3655 199.551 69.3655 199.683 69.3041 199.767 69.1887 199.907 68.9972 199.867 68.7284 199.676 68.5872 198.25 67.5266 197.901 66.477 197.893 65.5674Z" fill="#023A63" transform="matrix(1 0 0 1.00035 106.209 132)"/><path d="M259.192 103.442C259.712 103.442 260.292 103.296 260.919 102.952 261.128 102.838 261.205 102.578 261.091 102.368 260.977 102.158 260.715 102.082 260.505 102.196 259.98 102.481 259.549 102.58 259.192 102.58 258.579 102.579 258.134 102.293 257.813 101.979 257.656 101.823 257.536 101.664 257.457 101.546 257.38 101.43 257.353 101.367 257.351 101.368 257.246 101.155 256.987 101.066 256.772 101.172 256.56 101.278 256.472 101.537 256.577 101.749 256.602 101.778 257.366 103.411 259.192 103.442Z" fill="#023A63" transform="matrix(1 0 0 1.00035 106.209 132)"/><path d="M258.945 105.561C258.946 105.561 258.949 105.561 258.949 105.561 259.754 105.561 260.669 105.318 261.668 104.717 261.872 104.594 261.939 104.332 261.816 104.128 261.694 103.923 261.431 103.857 261.226 103.979 260.332 104.513 259.579 104.699 258.946 104.699 257.97 104.699 257.234 104.256 256.72 103.793 256.464 103.562 256.269 103.328 256.14 103.155 256.012 102.981 255.96 102.882 255.957 102.883 255.841 102.675 255.578 102.6 255.37 102.718 255.163 102.835 255.089 103.097 255.205 103.304 255.23 103.337 256.429 105.536 258.945 105.561Z" fill="#023A63" transform="matrix(1 0 0 1.00035 106.209 132)"/><path d="M249.985 31.0823 244.369 30.8969 246.426 27.2436C246.559 27.0092 246.532 26.7158 246.358 26.5095 246.183 26.3033 245.901 26.226 245.647 26.3168L241.005 27.9507 241.539 21.4151C241.563 21.1364 241.404 20.8749 241.146 20.7657 240.89 20.6577 240.59 20.7276 240.406 20.94L236.193 25.8049 233.419 20.7534C233.289 20.5165 233.022 20.3839 232.755 20.4257 232.486 20.4662 232.271 20.6724 232.217 20.9388L231.021 26.9846 226.557 23.7831C226.33 23.621 226.03 23.621 225.804 23.7819 225.578 23.9439 225.48 24.2287 225.561 24.4938L227.576 31.2382 223.412 31.4223C223.148 31.4333 222.919 31.604 222.83 31.8507 222.743 32.0999 222.811 32.3749 223.008 32.5504L226.684 35.8379C226.807 35.9484 226.961 36.0012 227.114 36.0012 227.292 36.0012 227.468 35.9287 227.596 35.7876 227.835 35.5199 227.813 35.1112 227.546 34.8742L225.053 32.645 228.457 32.494C228.656 32.4866 228.842 32.3847 228.955 32.2227 229.072 32.0619 229.105 31.8532 229.049 31.6629L227.339 25.9375 231.082 28.621C231.261 28.7511 231.492 28.7793 231.697 28.6983 231.902 28.6173 232.049 28.4381 232.092 28.222L233.139 22.9336 235.503 27.2424C235.605 27.4278 235.789 27.553 236.002 27.5751 236.212 27.5972 236.42 27.5161 236.559 27.3553L240.086 23.2822 239.632 28.8407C239.612 29.058 239.709 29.2728 239.88 29.4054 240.054 29.5392 240.284 29.576 240.491 29.5036L244.452 28.1078 242.717 31.1915C242.605 31.3891 242.605 31.6273 242.717 31.8262 242.828 32.0238 243.033 32.1478 243.258 32.1552L247.928 32.3098 244.608 34.5268C244.311 34.7245 244.23 35.1259 244.43 35.4242 244.628 35.7213 245.029 35.8023 245.326 35.6022L250.319 32.2693C250.552 32.1134 250.659 31.8237 250.582 31.5536 250.508 31.2811 250.265 31.0921 249.985 31.0823Z" fill="#023A63" transform="matrix(1 0 0 1.00035 106.209 132)"/><path d="M320.049 50.5308C320.034 50.5308 320.022 50.5308 320.004 50.532 319.819 50.5443 319.681 50.7038 319.693 50.8868 319.707 51.0697 319.865 51.2084 320.049 51.1961 320.994 51.2059 321.381 51.5717 321.618 51.9633 321.849 52.3574 321.87 52.819 321.868 52.9037 321.867 52.9196 321.867 52.9282 321.868 52.9282 321.868 53.1124 322.017 53.2609 322.201 53.2609 322.384 53.2609 322.534 53.1124 322.534 52.9282 322.534 52.9282 322.534 52.9196 322.534 52.9037 322.531 52.7551 322.518 52.1966 322.195 51.6307 321.878 51.0598 321.189 50.5197 320.049 50.5308Z" fill="#023A63" transform="matrix(1 0 0 1.00035 106.209 132)"/><path d="M320.426 49.0491C320.342 49.0491 320.253 49.0503 320.162 49.0564 319.979 49.065 319.837 49.2209 319.845 49.4051 319.855 49.588 320.012 49.7304 320.196 49.7206 320.271 49.7169 320.35 49.7144 320.425 49.7144 321.933 49.7267 322.602 50.3798 322.984 51.0476 323.171 51.3827 323.269 51.7276 323.319 51.9854 323.37 52.242 323.37 52.3967 323.371 52.3967 323.375 52.5784 323.523 52.7244 323.704 52.7244 323.705 52.7244 323.707 52.7244 323.708 52.7244 323.893 52.722 324.04 52.571 324.037 52.3869 324.035 52.3586 324.024 51.5607 323.567 50.7259 323.118 49.89 322.148 49.038 320.426 49.0491Z" fill="#023A63" transform="matrix(1 0 0 1.00035 106.209 132)"/><path d="M305.13 45.3221 305.13 45.3197C305.096 45.3221 304.227 45.208 303.453 45.7665 302.986 46.1053 302.599 46.7167 302.539 47.6423 302.534 47.7245 302.559 47.8019 302.604 47.8632 302.66 47.9406 302.746 47.9909 302.848 47.997 303.032 48.0105 303.189 47.8706 303.204 47.6877 303.262 46.9143 303.537 46.5362 303.849 46.3018 304.106 46.1103 304.412 46.0256 304.654 45.9949 304.777 45.9789 304.881 45.9752 304.952 45.9777 305.025 45.9777 305.054 45.9838 305.054 45.9801 305.236 46.0022 305.4 45.8697 305.422 45.6892 305.443 45.5051 305.312 45.3418 305.13 45.3221Z" fill="#023A63" transform="matrix(1 0 0 1.00035 106.209 132)"/><path d="M304.05 44.4911C304.23 44.4604 304.386 44.4481 304.492 44.4444 304.601 44.4395 304.652 44.4444 304.65 44.4444 304.832 44.4543 304.99 44.3155 305.001 44.1314 305.014 43.9473 304.872 43.7901 304.688 43.7791L304.69 43.7779C304.655 43.7803 303.468 43.6981 302.421 44.4616 301.714 44.9772 301.115 45.9089 301.077 47.3931 301.076 47.4704 301.099 47.5428 301.141 47.6005 301.2 47.6791 301.293 47.7319 301.4 47.7368 301.584 47.7417 301.737 47.5969 301.742 47.4127 301.788 46.0894 302.269 45.4056 302.816 44.9981 303.225 44.6961 303.688 44.5549 304.05 44.4911Z" fill="#023A63" transform="matrix(1 0 0 1.00035 106.209 132)"/><path d="M248.889 51.2759C248.889 56.8271 244.389 61.3273 238.837 61.3273 233.286 61.3273 228.786 56.8271 228.786 51.2759 228.786 45.7247 233.286 41.2245 238.837 41.2245 244.389 41.2245 248.889 45.7247 248.889 51.2759Z" fill="#023A63" transform="matrix(1 0 0 1.00035 106.209 132)"/></g></g></g></g></svg>