<svg width="550" height="550" xmlns="http://www.w3.org/2000/svg" xmlns:xlink="http://www.w3.org/1999/xlink" overflow="hidden"><defs><clipPath id="clip0"><rect x="1319" y="38" width="550" height="550"/></clipPath><radialGradient cx="762000" cy="762000" r="1.07763e+06" gradientUnits="userSpaceOnUse" spreadMethod="pad" id="fill1" gradientTransform="matrix(0.000360892 0 0 0.000360892 1319 38.0002)"><stop offset="0" stop-color="#FFFFFF"/><stop offset="0.26" stop-color="#FFFFFF"/><stop offset="0.5" stop-color="#20A0FB"/><stop offset="1" stop-color="#0F1113"/></radialGradient><radialGradient cx="374072" cy="419792" r="562278" gradientUnits="userSpaceOnUse" spreadMethod="pad" id="fill2" gradientTransform="matrix(0.000360892 0 0 0.000360892 1325 46.0001)"><stop offset="0" stop-color="#FFFFFF"/><stop offset="0.54" stop-color="#20A0FB" stop-opacity="0"/><stop offset="1" stop-color="#20A0FB" stop-opacity="0"/></radialGradient><linearGradient x1="1592.5" y1="44" x2="1592.5" y2="198" gradientUnits="userSpaceOnUse" spreadMethod="reflect" id="fill3"><stop offset="0" stop-color="#F5FAFF" stop-opacity="0.231373"/><stop offset="0.32" stop-color="#FFFFFF" stop-opacity="0"/><stop offset="1" stop-color="#FFFFFF" stop-opacity="0"/></linearGradient><radialGradient cx="95596.5" cy="102524" r="140178" fx="95596.5" fy="102524" gradientUnits="userSpaceOnUse" spreadMethod="pad" id="fill4" gradientTransform="matrix(0.000360892 0 0 0.000360892 1321 83.9999)"><stop offset="0" stop-color="#FFFFFF"/><stop offset="0.54" stop-color="#20A0FB" stop-opacity="0"/><stop offset="1" stop-color="#20A0FB" stop-opacity="0"/></radialGradient><radialGradient cx="112222" cy="120534" r="164689" gradientUnits="userSpaceOnUse" spreadMethod="pad" id="fill5" gradientTransform="matrix(0.000360892 0 0 0.000360892 1341 131)"><stop offset="0" stop-color="#FFFFFF"/><stop offset="0.54" stop-color="#20A0FB" stop-opacity="0"/><stop offset="1" stop-color="#20A0FB" stop-opacity="0"/></radialGradient><radialGradient cx="292331" cy="278477" r="403741" fx="292331" fy="278476" gradientUnits="userSpaceOnUse" spreadMethod="pad" id="fill6" gradientTransform="matrix(0.000360892 0 0 0.000360892 1652 360)"><stop offset="0" stop-color="#FFFFFF"/><stop offset="0.54" stop-color="#20A0FB" stop-opacity="0"/><stop offset="1" stop-color="#20A0FB" stop-opacity="0"/></radialGradient><radialGradient cx="70658.5" cy="77585.5" r="104939" fx="70658.5" fy="77585.5" gradientUnits="userSpaceOnUse" spreadMethod="pad" id="fill7" gradientTransform="matrix(0.000360892 0 0 0.000360892 1813 488)"><stop offset="0" stop-color="#FFFFFF"/><stop offset="0.54" stop-color="#20A0FB" stop-opacity="0"/><stop offset="1" stop-color="#20A0FB" stop-opacity="0"/></radialGradient><radialGradient cx="77585.5" cy="83127" r="113708" gradientUnits="userSpaceOnUse" spreadMethod="pad" id="fill8" gradientTransform="matrix(0.000360892 0 0 0.000360892 1808 433)"><stop offset="0" stop-color="#FFFFFF"/><stop offset="0.54" stop-color="#20A0FB" stop-opacity="0"/><stop offset="1" stop-color="#20A0FB" stop-opacity="0"/></radialGradient><clipPath id="clip9"><rect x="1333" y="51" width="525" height="527"/></clipPath><clipPath id="clip10"><rect x="1333" y="51" width="525" height="527"/></clipPath><clipPath id="clip11"><rect x="1333" y="51" width="525" height="527"/></clipPath><clipPath id="clip12"><rect x="1356" y="110" width="420" height="420"/></clipPath><clipPath id="clip13"><rect x="1356" y="110" width="420" height="420"/></clipPath><clipPath id="clip14"><rect x="1356" y="110" width="420" height="420"/></clipPath><clipPath id="clip15"><rect x="1499" y="128" width="201" height="204"/></clipPath><clipPath id="clip16"><rect x="1499" y="128" width="201" height="204"/></clipPath><clipPath id="clip17"><rect x="1499" y="128" width="201" height="204"/></clipPath></defs><g clip-path="url(#clip0)" transform="translate(-1319 -38)"><rect x="1319" y="38.0002" width="550" height="550" fill="url(#fill1)"/><path d="M1325 197.5C1325 113.829 1385.44 46.0001 1460 46.0001 1534.56 46.0001 1595 113.829 1595 197.5 1595 281.171 1534.56 349 1460 349 1385.44 349 1325 281.171 1325 197.5Z" fill="url(#fill2)" fill-rule="evenodd"/><path d="M1353.73 44 1831.27 44C1847.14 44 1860 63.8639 1860 88.3676L1860 198C1860 159.824 1839.96 128.876 1815.23 128.876L1369.77 128.876C1345.04 128.876 1325 159.824 1325 198L1325 88.3676C1325 63.8639 1337.86 44 1353.73 44Z" fill="url(#fill3)" fill-rule="evenodd"/><path d="M1321 121C1321 100.565 1336.45 83.9999 1355.5 83.9999 1374.55 83.9999 1390 100.565 1390 121 1390 141.435 1374.55 158 1355.5 158 1336.45 158 1321 141.435 1321 121Z" fill="url(#fill4)" fill-rule="evenodd"/><path d="M1341 174.5C1341 150.476 1359.13 131 1381.5 131 1403.87 131 1422 150.476 1422 174.5 1422 198.524 1403.87 218 1381.5 218 1359.13 218 1341 198.524 1341 174.5Z" fill="url(#fill5)" fill-rule="evenodd"/><path d="M1652 460.5C1652 404.995 1699.23 360 1757.5 360 1815.77 360 1863 404.995 1863 460.5 1863 516.005 1815.77 561 1757.5 561 1699.23 561 1652 516.005 1652 460.5Z" fill="url(#fill6)" fill-rule="evenodd"/><path d="M1813 516C1813 500.536 1824.42 488 1838.5 488 1852.58 488 1864 500.536 1864 516 1864 531.464 1852.58 544 1838.5 544 1824.42 544 1813 531.464 1813 516Z" fill="url(#fill7)" fill-rule="evenodd"/><path d="M1808 463C1808 446.432 1820.54 433 1836 433 1851.46 433 1864 446.432 1864 463 1864 479.569 1851.46 493 1836 493 1820.54 493 1808 479.569 1808 463Z" fill="url(#fill8)" fill-rule="evenodd"/><g clip-path="url(#clip9)"><g clip-path="url(#clip10)"><g clip-path="url(#clip11)"><path d="M1531.16 298.339 1501.97 505.075C1501.3 509.874 1497.59 513.676 1492.81 514.473 1488.03 515.269 1483.29 512.884 1481.09 508.571L1406.94 363.147C1404.9 359.146 1403.87 354.704 1403.94 350.221L1406.92 151.885C1406.97 148.148 1409.35 144.851 1412.88 143.612 1416.41 142.373 1420.33 143.486 1422.7 146.384L1522.96 268.993C1529.66 277.205 1532.64 287.84 1531.15 298.34ZM1528.01 261.842C1535.13 270.546 1546.37 274.767 1557.45 272.899L1806.64 230.993C1809.97 230.436 1812.62 227.906 1813.34 224.62 1814.06 221.323 1812.69 217.931 1809.91 216.041L1660.99 115.219C1657.33 112.741 1652.98 111.502 1648.56 111.692L1433.18 120.827C1429.42 120.984 1426.07 123.262 1424.53 126.685 1423 130.118 1423.53 134.13 1425.91 137.048ZM1821.69 242.689C1819.39 239.834 1815.74 238.437 1812.11 239.046L1569.15 279.911C1553.3 282.579 1541.02 295.199 1538.76 311.096L1509.82 515.741C1509.02 521.381 1511.24 527.029 1515.66 530.63 1520.08 534.221 1526.07 535.228 1531.43 533.298L1733.39 460.345C1737.72 458.781 1741.19 455.442 1742.92 451.157L1823.18 252.834C1824.55 249.421 1823.98 245.547 1821.69 242.691Z" fill="#FFFFFF"/></g></g></g><g clip-path="url(#clip12)"><g clip-path="url(#clip13)"><g clip-path="url(#clip14)"><path d="M1581.42 121.313C1500.14 121.313 1433.93 184.163 1428.07 263.773 1428.07 264.611 1427.65 265.03 1427.65 265.868 1418.01 279.695 1399.58 306.511 1397.06 312.377 1390.36 317.824 1408.38 331.651 1415.08 333.746 1417.59 334.584 1425.14 334.165 1427.23 333.746L1427.23 413.356C1427.23 422.155 1434.35 429.278 1443.15 429.278L1506.84 429.278 1506.84 502.184C1506.84 510.983 1513.96 518.106 1522.76 518.106L1666.06 518.106C1684.92 518.106 1700.42 502.603 1700.42 483.748L1700.42 372.713C1722.21 346.316 1735.2 312.377 1735.2 275.086 1735.61 190.029 1666.48 121.313 1581.42 121.313ZM1699.58 278.438C1684.5 322.852 1626.67 343.383 1570.11 324.528 1513.54 305.254 1480.02 253.717 1495.11 209.303 1510.19 164.889 1568.01 144.358 1624.58 163.213 1681.14 182.068 1714.66 233.605 1699.58 278.438Z" fill="#023A63"/></g></g></g><g clip-path="url(#clip15)"><g clip-path="url(#clip16)"><g clip-path="url(#clip17)"><path d="M43.9687 148.952 43.9687 142.898C43.9687 142.031 43.2655 141.328 42.3984 141.328 41.5313 141.328 40.8281 142.031 40.8281 142.898L40.8281 148.952 36.1903 145.061C35.5258 144.503 34.5352 144.59 33.9777 145.254L33.9777 145.254C33.4203 145.919 33.507 146.909 34.1715 147.467L38.0841 150.75 32.9765 150.75C32.1094 150.75 31.4062 151.453 31.4062 152.32L31.4062 152.32C31.4062 153.187 32.1094 153.89 32.9765 153.89L38.0841 153.89 34.1715 157.173C33.507 157.731 33.4203 158.721 33.9777 159.386L33.9777 159.386C34.5352 160.05 35.5258 160.137 36.1903 159.579L40.8281 155.688 40.8281 161.742C40.8281 162.609 41.5313 163.312 42.3984 163.312 43.2655 163.312 43.9687 162.609 43.9687 161.742L43.9687 161.742 43.9687 155.688 48.6064 159.579 48.6064 159.579C49.271 160.137 50.2616 160.05 50.819 159.386 51.3765 158.721 51.2898 157.731 50.6252 157.173L46.7127 153.89 51.8202 153.89C52.6874 153.89 53.3906 153.187 53.3906 152.32 53.3906 151.453 52.6874 150.75 51.8202 150.75L46.7127 150.75 50.6252 147.467C51.2898 146.909 51.3765 145.919 50.819 145.254L50.819 145.254C50.2616 144.59 49.271 144.503 48.6064 145.061L43.9687 148.952ZM160.172 148.952 160.172 142.898C160.172 142.031 159.468 141.328 158.601 141.328 157.734 141.328 157.031 142.031 157.031 142.898L157.031 148.952 152.393 145.061C151.729 144.503 150.738 144.59 150.181 145.254 149.623 145.919 149.71 146.909 150.374 147.467L154.287 150.75 149.179 150.75C148.312 150.75 147.609 151.453 147.609 152.32 147.609 153.187 148.312 153.89 149.179 153.89L154.287 153.89 150.374 157.173C149.71 157.731 149.623 158.721 150.181 159.386L150.181 159.386C150.738 160.05 151.729 160.137 152.393 159.579L157.031 155.688 157.031 161.742C157.031 162.609 157.734 163.312 158.601 163.312 159.468 163.312 160.172 162.609 160.172 161.742L160.172 155.688 164.809 159.579 164.809 159.579C165.474 160.137 166.465 160.05 167.022 159.386L167.022 159.386C167.579 158.721 167.493 157.731 166.828 157.173L162.916 153.89 168.023 153.89C168.89 153.89 169.594 153.187 169.594 152.32 169.594 151.453 168.89 150.75 168.023 150.75L162.916 150.75 166.828 147.467C167.493 146.909 167.579 145.919 167.022 145.254 166.465 144.59 165.474 144.503 164.809 145.061L160.172 148.952ZM135.047 170.937 135.047 164.883C135.047 164.015 134.344 163.312 133.476 163.312 132.609 163.312 131.906 164.015 131.906 164.883L131.906 170.937 127.268 167.045C126.604 166.488 125.613 166.574 125.056 167.239 124.498 167.903 124.585 168.894 125.25 169.451L129.162 172.734 124.055 172.734C123.187 172.734 122.484 173.437 122.484 174.304 122.484 175.172 123.187 175.875 124.055 175.875L129.162 175.875 125.25 179.158C124.585 179.715 124.498 180.706 125.056 181.37L125.056 181.37C125.613 182.034 126.604 182.121 127.268 181.564L131.906 177.672 131.906 183.726C131.906 184.593 132.609 185.297 133.476 185.297 134.344 185.297 135.047 184.593 135.047 183.726L135.047 177.672 139.684 181.564C140.349 182.121 141.34 182.034 141.897 181.37 142.454 180.706 142.368 179.715 141.703 179.158L137.791 175.875 142.898 175.875C143.765 175.875 144.469 175.172 144.469 174.304 144.469 173.437 143.765 172.734 142.898 172.734L137.791 172.734 141.703 169.451C142.368 168.894 142.454 167.903 141.897 167.239 141.34 166.574 140.349 166.488 139.684 167.045L135.047 170.937ZM103.64 152.093 103.64 146.039C103.64 145.172 102.937 144.469 102.07 144.469 101.203 144.469 100.5 145.172 100.5 146.039L100.5 152.093 95.8621 148.202C95.1976 147.644 94.207 147.731 93.6496 148.395L93.6496 148.395C93.0921 149.06 93.1788 150.05 93.8433 150.608L97.7559 153.89 92.6483 153.89C91.7812 153.89 91.078 154.594 91.078 155.461 91.078 156.328 91.7812 157.031 92.6483 157.031L92.6483 157.031 97.7559 157.031 93.8433 160.314C93.1788 160.871 93.0921 161.862 93.6496 162.527 94.207 163.191 95.1976 163.277 95.8621 162.72L100.5 158.828 100.5 164.883C100.5 165.75 101.203 166.453 102.07 166.453 102.937 166.453 103.64 165.75 103.64 164.883L103.64 158.828 108.278 162.72C108.943 163.277 109.933 163.191 110.491 162.527 111.048 161.862 110.962 160.871 110.297 160.314L106.384 157.031 111.492 157.031C112.359 157.031 113.062 156.328 113.062 155.461 113.062 154.594 112.359 153.89 111.492 153.89L106.384 153.89 110.297 150.608C110.962 150.05 111.048 149.06 110.491 148.395 109.933 147.731 108.943 147.644 108.278 148.202L103.64 152.093ZM72.2343 170.937 72.2343 164.883C72.2343 164.015 71.5311 163.312 70.664 163.312 69.7968 163.312 69.0937 164.015 69.0937 164.883L69.0937 170.937 64.4559 167.045C63.7914 166.488 62.8008 166.574 62.2433 167.239 61.6859 167.903 61.7726 168.894 62.4371 169.451L66.3497 172.734 61.2421 172.734C60.375 172.734 59.6718 173.437 59.6718 174.304L59.6718 174.304C59.6718 175.172 60.375 175.875 61.2421 175.875L66.3497 175.875 62.4371 179.158C61.7726 179.715 61.6859 180.706 62.2433 181.37 62.8008 182.034 63.7914 182.121 64.4559 181.564L69.0937 177.672 69.0937 183.726C69.0937 184.593 69.7968 185.297 70.664 185.297 71.5311 185.297 72.2343 184.593 72.2343 183.726L72.2343 177.672 76.872 181.564 76.872 181.564C77.5366 182.121 78.5271 182.034 79.0846 181.37L79.0846 181.37C79.6421 180.706 79.5554 179.715 78.8908 179.158L74.9782 175.875 80.0858 175.875C80.953 175.875 81.6561 175.172 81.6561 174.304 81.6561 173.437 80.953 172.734 80.0858 172.734L74.9782 172.734 78.8908 169.451C79.5554 168.894 79.6421 167.903 79.0846 167.239L79.0846 167.239C78.5271 166.574 77.5366 166.488 76.872 167.045L72.2343 170.937ZM40.8281 135.047C23.4829 135.047 9.42186 120.986 9.42186 103.64 9.42186 86.9358 22.4636 73.2773 38.9205 72.2911 43.883 50.6717 63.2421 34.5468 86.3671 34.5468 99.7983 34.5468 111.959 39.9864 120.767 48.7826 124.287 47.695 128.028 47.1093 131.906 47.1093 152.72 47.1093 169.594 63.9826 169.594 84.7968 169.594 85.869 169.549 86.9308 169.461 87.9804 181.8 88.7235 191.578 98.966 191.578 111.492 191.578 121.607 185.202 130.233 176.25 133.57 174.229 134.518 171.973 135.047 169.594 135.047L40.8281 135.047Z" fill="#023A63" fill-rule="evenodd" transform="matrix(1 0 0 1.00498 1499 129)"/></g></g></g></g></svg>