<svg width="550" height="550" xmlns="http://www.w3.org/2000/svg" xmlns:xlink="http://www.w3.org/1999/xlink" overflow="hidden"><defs><clipPath id="clip0"><rect x="1856" y="38" width="550" height="550"/></clipPath><radialGradient cx="762000" cy="762000" r="1.07763e+06" gradientUnits="userSpaceOnUse" spreadMethod="pad" id="fill1" gradientTransform="matrix(0.000360892 0 0 0.000360892 1856 38.0002)"><stop offset="0" stop-color="#FFFFFF"/><stop offset="0.26" stop-color="#FFFFFF"/><stop offset="0.5" stop-color="#20A0FB"/><stop offset="1" stop-color="#0F1113"/></radialGradient><radialGradient cx="374072" cy="419792" r="562278" gradientUnits="userSpaceOnUse" spreadMethod="pad" id="fill2" gradientTransform="matrix(0.000360892 0 0 0.000360892 1861 46.0001)"><stop offset="0" stop-color="#FFFFFF"/><stop offset="0.54" stop-color="#20A0FB" stop-opacity="0"/><stop offset="1" stop-color="#20A0FB" stop-opacity="0"/></radialGradient><linearGradient x1="2129" y1="44" x2="2129" y2="198" gradientUnits="userSpaceOnUse" spreadMethod="reflect" id="fill3"><stop offset="0" stop-color="#F5FAFF" stop-opacity="0.231373"/><stop offset="0.32" stop-color="#FFFFFF" stop-opacity="0"/><stop offset="1" stop-color="#FFFFFF" stop-opacity="0"/></linearGradient><radialGradient cx="94211" cy="102524" r="139237" fx="94211" fy="102524" gradientUnits="userSpaceOnUse" spreadMethod="pad" id="fill4" gradientTransform="matrix(0.000360892 0 0 0.000360892 1858 83.9999)"><stop offset="0" stop-color="#FFFFFF"/><stop offset="0.54" stop-color="#20A0FB" stop-opacity="0"/><stop offset="1" stop-color="#20A0FB" stop-opacity="0"/></radialGradient><radialGradient cx="110836" cy="120534" r="163748" gradientUnits="userSpaceOnUse" spreadMethod="pad" id="fill5" gradientTransform="matrix(0.000360892 0 0 0.000360892 1878 131)"><stop offset="0" stop-color="#FFFFFF"/><stop offset="0.54" stop-color="#20A0FB" stop-opacity="0"/><stop offset="1" stop-color="#20A0FB" stop-opacity="0"/></radialGradient><radialGradient cx="292331" cy="278477" r="403741" fx="292331" fy="278476" gradientUnits="userSpaceOnUse" spreadMethod="pad" id="fill6" gradientTransform="matrix(0.000360892 0 0 0.000360892 2188 360)"><stop offset="0" stop-color="#FFFFFF"/><stop offset="0.54" stop-color="#20A0FB" stop-opacity="0"/><stop offset="1" stop-color="#20A0FB" stop-opacity="0"/></radialGradient><radialGradient cx="72044" cy="77585.5" r="105877" fx="72044" fy="77585.5" gradientUnits="userSpaceOnUse" spreadMethod="pad" id="fill7" gradientTransform="matrix(0.000360892 0 0 0.000360892 2349 488)"><stop offset="0" stop-color="#FFFFFF"/><stop offset="0.54" stop-color="#20A0FB" stop-opacity="0"/><stop offset="1" stop-color="#20A0FB" stop-opacity="0"/></radialGradient><radialGradient cx="77585.5" cy="83127" r="113708" gradientUnits="userSpaceOnUse" spreadMethod="pad" id="fill8" gradientTransform="matrix(0.000360892 0 0 0.000360892 2345 433)"><stop offset="0" stop-color="#FFFFFF"/><stop offset="0.54" stop-color="#20A0FB" stop-opacity="0"/><stop offset="1" stop-color="#20A0FB" stop-opacity="0"/></radialGradient><clipPath id="clip9"><rect x="1868" y="51" width="527" height="527"/></clipPath><clipPath id="clip10"><rect x="1868" y="51" width="527" height="527"/></clipPath><clipPath id="clip11"><rect x="1868" y="51" width="527" height="527"/></clipPath><clipPath id="clip12"><rect x="1915" y="110" width="420" height="420"/></clipPath><clipPath id="clip13"><rect x="1915" y="110" width="420" height="420"/></clipPath><clipPath id="clip14"><rect x="1915" y="110" width="420" height="420"/></clipPath><clipPath id="clip15"><rect x="2084" y="174" width="143" height="142"/></clipPath><clipPath id="clip16"><rect x="2084" y="174" width="143" height="142"/></clipPath><clipPath id="clip17"><rect x="2084" y="174" width="143" height="142"/></clipPath></defs><g clip-path="url(#clip0)" transform="translate(-1856 -38)"><rect x="1856" y="38.0002" width="550" height="550" fill="url(#fill1)"/><path d="M1861 197.5C1861 113.829 1921.44 46.0001 1996 46.0001 2070.56 46.0001 2131 113.829 2131 197.5 2131 281.171 2070.56 349 1996 349 1921.44 349 1861 281.171 1861 197.5Z" fill="url(#fill2)" fill-rule="evenodd"/><path d="M1889.79 44 2368.21 44C2384.11 44 2397 63.8639 2397 88.3676L2397 198C2397 159.824 2376.92 128.876 2352.15 128.876L1905.85 128.876C1881.08 128.876 1861 159.824 1861 198L1861 88.3676C1861 63.8639 1873.89 44 1889.79 44Z" fill="url(#fill3)" fill-rule="evenodd"/><path d="M1858 121C1858 100.565 1873.22 83.9999 1892 83.9999 1910.78 83.9999 1926 100.565 1926 121 1926 141.435 1910.78 158 1892 158 1873.22 158 1858 141.435 1858 121Z" fill="url(#fill4)" fill-rule="evenodd"/><path d="M1878 174.5C1878 150.476 1895.91 131 1918 131 1940.09 131 1958 150.476 1958 174.5 1958 198.524 1940.09 218 1918 218 1895.91 218 1878 198.524 1878 174.5Z" fill="url(#fill5)" fill-rule="evenodd"/><path d="M2188 460.5C2188 404.995 2235.23 360 2293.5 360 2351.77 360 2399 404.995 2399 460.5 2399 516.005 2351.77 561 2293.5 561 2235.23 561 2188 516.005 2188 460.5Z" fill="url(#fill6)" fill-rule="evenodd"/><path d="M2349 516C2349 500.536 2360.64 488 2375 488 2389.36 488 2401 500.536 2401 516 2401 531.464 2389.36 544 2375 544 2360.64 544 2349 531.464 2349 516Z" fill="url(#fill7)" fill-rule="evenodd"/><path d="M2345 463C2345 446.432 2357.54 433 2373 433 2388.46 433 2401 446.432 2401 463 2401 479.569 2388.46 493 2373 493 2357.54 493 2345 479.569 2345 463Z" fill="url(#fill8)" fill-rule="evenodd"/><g clip-path="url(#clip9)"><g clip-path="url(#clip10)"><g clip-path="url(#clip11)"><path d="M198.157 246.339 168.967 453.075C168.296 457.875 164.589 461.676 159.811 462.473 155.032 463.269 150.286 460.885 148.092 456.571L73.9402 311.147C71.9032 307.146 70.8742 302.704 70.9376 298.222L73.9196 99.8852C73.9725 96.1477 76.3547 92.8511 79.884 91.6121 83.4116 90.3731 87.3285 91.4857 89.702 94.3841L189.955 216.994C196.663 225.205 199.645 235.84 198.155 246.34ZM195.006 209.842C202.125 218.546 213.371 222.767 224.448 220.899L473.642 178.993C476.971 178.436 479.618 175.906 480.345 172.62 481.058 169.324 479.693 165.931 476.91 164.041L327.989 63.2192C324.335 60.7412 319.977 59.5022 315.558 59.6921L100.181 68.8267C96.4207 68.9837 93.0712 71.2618 91.5281 74.6848 89.9951 78.1183 90.5319 82.1297 92.9141 85.0483ZM488.692 190.689C486.391 187.834 482.738 186.437 479.115 187.046L236.145 227.911C220.301 230.579 208.015 243.199 205.758 259.096L176.819 463.741C176.021 469.381 178.236 475.029 182.657 478.63 187.078 482.221 193.074 483.228 198.428 481.298L400.387 408.345C404.722 406.781 408.188 403.442 409.921 399.157L490.184 200.834C491.549 197.421 490.98 193.547 488.692 190.691Z" fill="#FFFFFF" transform="matrix(1.0019 0 0 1 1869 51.9999)"/></g></g></g><g clip-path="url(#clip12)"><g clip-path="url(#clip13)"><g clip-path="url(#clip14)"><path d="M2140.42 121.313C2059.14 121.313 1992.93 184.163 1987.07 263.773 1987.07 264.611 1986.65 265.03 1986.65 265.868 1977.01 279.695 1958.58 306.511 1956.06 312.377 1949.36 317.824 1967.38 331.651 1974.08 333.746 1976.59 334.584 1984.14 334.165 1986.23 333.746L1986.23 413.356C1986.23 422.155 1993.35 429.278 2002.15 429.278L2065.84 429.278 2065.84 502.184C2065.84 510.983 2072.96 518.106 2081.76 518.106L2225.06 518.106C2243.92 518.106 2259.42 502.603 2259.42 483.748L2259.42 372.713C2281.21 346.316 2294.2 312.377 2294.2 275.086 2294.61 190.029 2225.48 121.313 2140.42 121.313ZM2258.58 278.438C2243.5 322.852 2185.67 343.383 2129.11 324.528 2072.54 305.254 2039.02 253.717 2054.11 209.303 2069.19 164.889 2127.01 144.358 2183.58 163.213 2240.14 182.068 2273.66 233.605 2258.58 278.438Z" fill="#023A63"/></g></g></g><g clip-path="url(#clip15)"><g clip-path="url(#clip16)"><g clip-path="url(#clip17)"><path d="M2155.5 304.442C2188.05 304.442 2214.44 278.055 2214.44 245.5 2214.44 212.945 2188.05 186.558 2155.5 186.558 2122.95 186.558 2096.56 212.945 2096.56 245.5 2096.56 278.055 2122.95 304.442 2155.5 304.442ZM2159.2 298.524C2185.6 296.708 2206.71 275.605 2208.52 249.197L2199.16 249.197 2199.16 241.803 2208.52 241.803C2206.71 215.395 2185.6 194.292 2159.2 192.476L2159.2 201.836 2151.8 201.836 2151.8 192.476C2125.4 194.292 2104.29 215.395 2102.48 241.803L2111.84 241.803 2111.84 249.197 2102.48 249.197C2104.29 275.605 2125.4 296.708 2151.8 298.524L2151.8 289.164 2159.2 289.164 2159.2 298.524ZM2177.85 215.157 2171.05 251.937C2170.77 253.459 2170.03 254.748 2168.85 255.752L2140.4 280.031C2136.81 283.102 2132.28 280.491 2133.15 275.843L2139.95 239.063C2140.23 237.541 2140.97 236.252 2142.15 235.248L2170.6 210.969C2174.19 207.898 2178.72 210.509 2177.85 215.157ZM2158.44 240.407C2161.25 242.033 2162.21 245.628 2160.59 248.439 2158.97 251.252 2155.37 252.215 2152.56 250.593 2149.75 248.967 2148.79 245.372 2150.41 242.561 2152.03 239.748 2155.63 238.785 2158.44 240.407ZM2155.5 311.249C2119.19 311.249 2089.75 281.812 2089.75 245.5 2089.75 209.188 2119.19 179.751 2155.5 179.751 2191.81 179.751 2221.25 209.188 2221.25 245.5 2221.25 281.812 2191.81 311.249 2155.5 311.249Z" fill="#023A63"/></g></g></g></g></svg>