<svg width="550" height="550" xmlns="http://www.w3.org/2000/svg" xmlns:xlink="http://www.w3.org/1999/xlink" overflow="hidden"><defs><clipPath id="clip0"><rect x="654" y="629" width="550" height="550"/></clipPath><radialGradient cx="762000" cy="762000" r="1.07763e+06" gradientUnits="userSpaceOnUse" spreadMethod="pad" id="fill1" gradientTransform="matrix(0.000360892 0 0 0.000360892 654 629)"><stop offset="0" stop-color="#FFFFFF"/><stop offset="0.26" stop-color="#FFFFFF"/><stop offset="0.5" stop-color="#20A0FB"/><stop offset="1" stop-color="#0F1113"/></radialGradient><radialGradient cx="374072" cy="419793" r="562278" gradientUnits="userSpaceOnUse" spreadMethod="pad" id="fill2" gradientTransform="matrix(0.000360892 0 0 0.000360892 660 637)"><stop offset="0" stop-color="#FFFFFF"/><stop offset="0.54" stop-color="#20A0FB" stop-opacity="0"/><stop offset="1" stop-color="#20A0FB" stop-opacity="0"/></radialGradient><linearGradient x1="927.5" y1="635" x2="927.5" y2="789" gradientUnits="userSpaceOnUse" spreadMethod="reflect" id="fill3"><stop offset="0" stop-color="#F5FAFF" stop-opacity="0.231373"/><stop offset="0.32" stop-color="#FFFFFF" stop-opacity="0"/><stop offset="1" stop-color="#FFFFFF" stop-opacity="0"/></linearGradient><radialGradient cx="95596.5" cy="102524" r="140178" gradientUnits="userSpaceOnUse" spreadMethod="pad" id="fill4" gradientTransform="matrix(0.000360892 0 0 0.000360892 656 675)"><stop offset="0" stop-color="#FFFFFF"/><stop offset="0.54" stop-color="#20A0FB" stop-opacity="0"/><stop offset="1" stop-color="#20A0FB" stop-opacity="0"/></radialGradient><radialGradient cx="112222" cy="120534" r="164688" gradientUnits="userSpaceOnUse" spreadMethod="pad" id="fill5" gradientTransform="matrix(0.000360892 0 0 0.000360892 676 722)"><stop offset="0" stop-color="#FFFFFF"/><stop offset="0.54" stop-color="#20A0FB" stop-opacity="0"/><stop offset="1" stop-color="#20A0FB" stop-opacity="0"/></radialGradient><radialGradient cx="292331" cy="279862" r="404697" gradientUnits="userSpaceOnUse" spreadMethod="pad" id="fill6" gradientTransform="matrix(0.000360892 0 0 0.000360892 987 950)"><stop offset="0" stop-color="#FFFFFF"/><stop offset="0.54" stop-color="#20A0FB" stop-opacity="0"/><stop offset="1" stop-color="#20A0FB" stop-opacity="0"/></radialGradient><radialGradient cx="70658" cy="77585.5" r="104938" gradientUnits="userSpaceOnUse" spreadMethod="pad" id="fill7" gradientTransform="matrix(0.000360892 0 0 0.000360892 1148 1079)"><stop offset="0" stop-color="#FFFFFF"/><stop offset="0.54" stop-color="#20A0FB" stop-opacity="0"/><stop offset="1" stop-color="#20A0FB" stop-opacity="0"/></radialGradient><radialGradient cx="77585.5" cy="83127" r="113708" gradientUnits="userSpaceOnUse" spreadMethod="pad" id="fill8" gradientTransform="matrix(0.000360892 0 0 0.000360892 1143 1024)"><stop offset="0" stop-color="#FFFFFF"/><stop offset="0.54" stop-color="#20A0FB" stop-opacity="0"/><stop offset="1" stop-color="#20A0FB" stop-opacity="0"/></radialGradient><clipPath id="clip9"><rect x="667" y="643" width="527" height="526"/></clipPath><clipPath id="clip10"><rect x="667" y="643" width="527" height="526"/></clipPath><clipPath id="clip11"><rect x="667" y="643" width="527" height="526"/></clipPath><clipPath id="clip12"><rect x="701" y="699" width="420" height="420"/></clipPath><clipPath id="clip13"><rect x="701" y="699" width="420" height="420"/></clipPath><clipPath id="clip14"><rect x="701" y="699" width="420" height="420"/></clipPath><clipPath id="clip15"><rect x="859" y="755" width="159" height="161"/></clipPath><clipPath id="clip16"><rect x="859" y="755" width="159" height="161"/></clipPath><clipPath id="clip17"><rect x="859" y="755" width="159" height="161"/></clipPath></defs><g clip-path="url(#clip0)" transform="translate(-654 -629)"><rect x="654" y="629" width="550" height="550" fill="url(#fill1)"/><path d="M660 788.5C660 704.829 720.442 637 795 637 869.558 637 930 704.829 930 788.5 930 872.171 869.558 940 795 940 720.442 940 660 872.171 660 788.5Z" fill="url(#fill2)" fill-rule="evenodd"/><path d="M688.734 635 1166.27 635C1182.14 635 1195 654.864 1195 679.368L1195 789C1195 750.824 1174.96 719.876 1150.23 719.876L704.767 719.876C680.043 719.876 660 750.824 660 789L660 679.368C660 654.864 672.864 635 688.734 635Z" fill="url(#fill3)" fill-rule="evenodd"/><path d="M656 712C656 691.566 671.446 675 690.5 675 709.554 675 725 691.566 725 712 725 732.435 709.554 749 690.5 749 671.446 749 656 732.435 656 712Z" fill="url(#fill4)" fill-rule="evenodd"/><path d="M676 765.5C676 741.475 694.133 722 716.5 722 738.868 722 757 741.475 757 765.5 757 789.524 738.868 809 716.5 809 694.133 809 676 789.524 676 765.5Z" fill="url(#fill5)" fill-rule="evenodd"/><path d="M987 1051C987 995.219 1034.23 950 1092.5 950 1150.77 950 1198 995.219 1198 1051 1198 1106.78 1150.77 1152 1092.5 1152 1034.23 1152 987 1106.78 987 1051Z" fill="url(#fill6)" fill-rule="evenodd"/><path d="M1148 1107C1148 1091.54 1159.42 1079 1173.5 1079 1187.58 1079 1199 1091.54 1199 1107 1199 1122.46 1187.58 1135 1173.5 1135 1159.42 1135 1148 1122.46 1148 1107Z" fill="url(#fill7)" fill-rule="evenodd"/><path d="M1143 1054C1143 1037.43 1155.54 1024 1171 1024 1186.46 1024 1199 1037.43 1199 1054 1199 1070.57 1186.46 1084 1171 1084 1155.54 1084 1143 1070.57 1143 1054Z" fill="url(#fill8)" fill-rule="evenodd"/><g clip-path="url(#clip9)"><g clip-path="url(#clip10)"><g clip-path="url(#clip11)"><path d="M866.157 889.339 836.967 1096.08C836.296 1100.87 832.589 1104.68 827.81 1105.47 823.032 1106.27 818.286 1103.88 816.092 1099.57L741.94 954.147C739.903 950.146 738.874 945.704 738.938 941.222L741.919 742.885C741.972 739.148 744.355 735.851 747.884 734.612 751.411 733.373 755.328 734.486 757.702 737.384L857.955 859.994C864.663 868.205 867.645 878.84 866.155 889.34ZM863.005 852.842C870.125 861.546 881.37 865.767 892.448 863.899L1141.64 821.993C1144.97 821.436 1147.62 818.906 1148.34 815.62 1149.06 812.324 1147.69 808.931 1144.91 807.041L995.989 706.219C992.335 703.741 987.977 702.502 983.557 702.692L768.18 711.827C764.421 711.984 761.071 714.262 759.528 717.685 757.995 721.118 758.532 725.13 760.914 728.048ZM1156.69 833.689C1154.39 830.834 1150.74 829.437 1147.12 830.046L904.145 870.911C888.301 873.579 876.015 886.199 873.758 902.096L844.819 1106.74C844.021 1112.38 846.236 1118.03 850.657 1121.63 855.078 1125.22 861.074 1126.23 866.428 1124.3L1068.39 1051.34C1072.72 1049.78 1076.19 1046.44 1077.92 1042.16L1158.18 843.834C1159.55 840.421 1158.98 836.547 1156.69 833.691Z" fill="#FFFFFF"/></g></g></g><g clip-path="url(#clip12)"><g clip-path="url(#clip13)"><g clip-path="url(#clip14)"><path d="M927.422 711.313C846.136 711.313 779.934 774.163 774.068 853.773 774.068 854.611 773.649 855.03 773.649 855.868 764.012 869.695 745.576 896.511 743.062 902.377 736.358 907.824 754.375 921.651 761.079 923.746 763.593 924.584 771.135 924.165 773.23 923.746L773.23 1003.36C773.23 1012.15 780.353 1019.28 789.152 1019.28L852.84 1019.28 852.84 1092.18C852.84 1100.98 859.963 1108.11 868.762 1108.11L1012.06 1108.11C1030.92 1108.11 1046.42 1092.6 1046.42 1073.75L1046.42 962.713C1068.21 936.316 1081.19 902.377 1081.19 865.086 1081.61 780.029 1012.48 711.313 927.422 711.313ZM1045.58 868.438C1030.5 912.852 972.674 933.383 916.109 914.528 859.544 895.254 826.024 843.717 841.108 799.303 856.192 754.889 914.014 734.358 970.579 753.213 1027.14 772.068 1060.66 823.605 1045.58 868.438Z" fill="#023A63"/></g></g></g><g clip-path="url(#clip15)"><g clip-path="url(#clip16)"><g clip-path="url(#clip17)"><path d="M936.056 839.158C936.295 839.32 936.55 839.456 936.817 839.565 937.083 839.675 937.358 839.76 937.64 839.82 938.208 839.931 938.792 839.931 939.36 839.82 939.642 839.76 939.917 839.675 940.183 839.565 940.45 839.456 940.705 839.32 940.944 839.158 941.425 838.838 941.838 838.425 942.158 837.944 942.318 837.704 942.453 837.449 942.565 837.183 943.009 836.105 943.009 834.895 942.565 833.817 942.453 833.551 942.318 833.296 942.158 833.056 941.838 832.575 941.425 832.162 940.944 831.842 940.704 831.682 940.449 831.546 940.183 831.435 939.106 830.986 937.894 830.986 936.817 831.435 936.551 831.546 936.296 831.682 936.056 831.842 935.575 832.162 935.162 832.575 934.842 833.056 934.682 833.296 934.546 833.551 934.435 833.817 934.217 834.352 934.102 834.923 934.096 835.5 934.103 836.666 934.57 837.782 935.395 838.605 935.594 838.813 935.816 838.998 936.056 839.158Z" fill="#023A63"/><path d="M963.303 796.371C965.735 796.376 967.711 794.409 967.716 791.976 967.719 790.391 966.87 788.927 965.493 788.142 958.563 784.195 950.852 781.82 942.904 781.182L942.904 769.13C942.904 766.698 940.932 764.726 938.5 764.726 936.068 764.726 934.096 766.698 934.096 769.13L934.096 781.195C926.148 781.832 918.436 784.208 911.507 788.154 909.395 789.36 908.661 792.051 909.868 794.163 911.074 796.275 913.765 797.009 915.877 795.803 921.474 792.612 927.683 790.645 934.096 790.03L934.096 809.762C934.096 812.194 936.068 814.165 938.5 814.165 940.932 814.165 942.904 812.194 942.904 809.762L942.904 790.03C949.317 790.645 955.526 792.612 961.123 795.803 961.788 796.178 962.54 796.373 963.303 796.371Z" fill="#023A63"/><path d="M961.123 875.197C955.526 878.388 949.317 880.355 942.904 880.97L942.904 861.238C942.904 858.806 940.932 856.835 938.5 856.835 936.068 856.835 934.096 858.806 934.096 861.238L934.096 880.97C927.683 880.355 921.474 878.388 915.877 875.197 913.765 873.991 911.074 874.725 909.868 876.837 908.661 878.949 909.395 881.64 911.507 882.846 918.436 886.792 926.148 889.167 934.096 889.805L934.096 901.87C934.096 904.302 936.068 906.274 938.5 906.274 940.932 906.274 942.904 904.302 942.904 901.87L942.904 889.805C950.852 889.168 958.563 886.792 965.493 882.846 967.605 881.64 968.339 878.949 967.132 876.837 965.926 874.725 963.235 873.991 961.123 875.197Z" fill="#023A63"/><path d="M1004.87 831.096 992.805 831.096C992.167 823.148 989.792 815.436 985.846 808.507 984.639 806.395 981.949 805.661 979.837 806.867 977.725 808.074 976.991 810.765 978.197 812.877 981.387 818.474 983.355 824.684 983.97 831.096L964.238 831.096C961.806 831.096 959.835 833.068 959.835 835.5 959.835 837.932 961.806 839.904 964.238 839.904L983.97 839.904C983.355 846.316 981.387 852.526 978.197 858.123 976.991 860.235 977.725 862.926 979.837 864.132 981.949 865.339 984.639 864.605 985.846 862.493 989.792 855.563 992.167 847.852 992.805 839.904L1004.87 839.904C1007.3 839.904 1009.27 837.932 1009.27 835.5 1009.27 833.068 1007.3 831.096 1004.87 831.096Z" fill="#023A63"/><path d="M872.13 839.904 884.195 839.904C884.833 847.852 887.208 855.563 891.154 862.493 892.361 864.605 895.051 865.339 897.163 864.132 899.275 862.926 900.009 860.235 898.803 858.123 895.613 852.526 893.645 846.316 893.03 839.904L912.762 839.904C915.194 839.904 917.165 837.932 917.165 835.5 917.165 833.068 915.194 831.096 912.762 831.096L893.03 831.096C893.645 824.683 895.612 818.474 898.803 812.877 900.009 810.765 899.275 808.074 897.163 806.867 895.051 805.661 892.361 806.395 891.154 808.507 887.208 815.436 884.833 823.148 884.195 831.096L872.13 831.096C869.698 831.096 867.726 833.068 867.726 835.5 867.726 837.932 869.698 839.904 872.13 839.904Z" fill="#023A63"/></g></g></g></g></svg>