<svg width="550" height="550" xmlns="http://www.w3.org/2000/svg" xmlns:xlink="http://www.w3.org/1999/xlink" overflow="hidden"><defs><clipPath id="clip0"><rect x="2423" y="38" width="550" height="550"/></clipPath><radialGradient cx="762000" cy="762000" r="1.07763e+06" gradientUnits="userSpaceOnUse" spreadMethod="pad" id="fill1" gradientTransform="matrix(0.000360892 0 0 0.000360892 2423 38.0002)"><stop offset="0" stop-color="#FFFFFF"/><stop offset="0.26" stop-color="#FFFFFF"/><stop offset="0.5" stop-color="#20A0FB"/><stop offset="1" stop-color="#0F1113"/></radialGradient><radialGradient cx="372687" cy="419792" r="561357" fx="372688" fy="419792" gradientUnits="userSpaceOnUse" spreadMethod="pad" id="fill2" gradientTransform="matrix(0.000360892 0 0 0.000360892 2429 46.0001)"><stop offset="0" stop-color="#FFFFFF"/><stop offset="0.54" stop-color="#20A0FB" stop-opacity="0"/><stop offset="1" stop-color="#20A0FB" stop-opacity="0"/></radialGradient><linearGradient x1="2696.5" y1="44" x2="2696.5" y2="198" gradientUnits="userSpaceOnUse" spreadMethod="reflect" id="fill3"><stop offset="0" stop-color="#F5FAFF" stop-opacity="0.231373"/><stop offset="0.32" stop-color="#FFFFFF" stop-opacity="0"/><stop offset="1" stop-color="#FFFFFF" stop-opacity="0"/></linearGradient><radialGradient cx="95596" cy="102524" r="140178" gradientUnits="userSpaceOnUse" spreadMethod="pad" id="fill4" gradientTransform="matrix(0.000360892 0 0 0.000360892 2425 83.9999)"><stop offset="0" stop-color="#FFFFFF"/><stop offset="0.54" stop-color="#20A0FB" stop-opacity="0"/><stop offset="1" stop-color="#20A0FB" stop-opacity="0"/></radialGradient><radialGradient cx="112222" cy="120534" r="164688" gradientUnits="userSpaceOnUse" spreadMethod="pad" id="fill5" gradientTransform="matrix(0.000360892 0 0 0.000360892 2445 131)"><stop offset="0" stop-color="#FFFFFF"/><stop offset="0.54" stop-color="#20A0FB" stop-opacity="0"/><stop offset="1" stop-color="#20A0FB" stop-opacity="0"/></radialGradient><radialGradient cx="292331" cy="278477" r="403741" fx="292331" fy="278476" gradientUnits="userSpaceOnUse" spreadMethod="pad" id="fill6" gradientTransform="matrix(0.000360892 0 0 0.000360892 2756 360)"><stop offset="0" stop-color="#FFFFFF"/><stop offset="0.54" stop-color="#20A0FB" stop-opacity="0"/><stop offset="1" stop-color="#20A0FB" stop-opacity="0"/></radialGradient><radialGradient cx="70658" cy="77585.5" r="104938" gradientUnits="userSpaceOnUse" spreadMethod="pad" id="fill7" gradientTransform="matrix(0.000360892 0 0 0.000360892 2917 488)"><stop offset="0" stop-color="#FFFFFF"/><stop offset="0.54" stop-color="#20A0FB" stop-opacity="0"/><stop offset="1" stop-color="#20A0FB" stop-opacity="0"/></radialGradient><radialGradient cx="77585.5" cy="83127" r="113708" gradientUnits="userSpaceOnUse" spreadMethod="pad" id="fill8" gradientTransform="matrix(0.000360892 0 0 0.000360892 2912 433)"><stop offset="0" stop-color="#FFFFFF"/><stop offset="0.54" stop-color="#20A0FB" stop-opacity="0"/><stop offset="1" stop-color="#20A0FB" stop-opacity="0"/></radialGradient><clipPath id="clip9"><rect x="2436" y="51" width="527" height="527"/></clipPath><clipPath id="clip10"><rect x="2436" y="51" width="527" height="527"/></clipPath><clipPath id="clip11"><rect x="2436" y="51" width="527" height="527"/></clipPath><clipPath id="clip12"><rect x="2530" y="216" width="345" height="345"/></clipPath><clipPath id="clip13"><rect x="2530" y="216" width="345" height="345"/></clipPath><clipPath id="clip14"><rect x="2530" y="216" width="345" height="345"/></clipPath><clipPath id="clip15"><rect x="2570" y="89" width="266" height="266"/></clipPath><clipPath id="clip16"><rect x="2570" y="89" width="266" height="266"/></clipPath><clipPath id="clip17"><rect x="2570" y="89" width="266" height="266"/></clipPath><clipPath id="clip18"><rect x="2614" y="148" width="185" height="184"/></clipPath><clipPath id="clip19"><rect x="2614" y="148" width="185" height="184"/></clipPath><clipPath id="clip20"><rect x="2614" y="148" width="185" height="184"/></clipPath></defs><g clip-path="url(#clip0)" transform="translate(-2423 -38)"><rect x="2423" y="38.0002" width="550" height="550" fill="url(#fill1)"/><path d="M2429 197.5C2429 113.829 2489.22 46.0001 2563.5 46.0001 2637.78 46.0001 2698 113.829 2698 197.5 2698 281.171 2637.78 349 2563.5 349 2489.22 349 2429 281.171 2429 197.5Z" fill="url(#fill2)" fill-rule="evenodd"/><path d="M2457.73 44 2935.27 44C2951.14 44 2964 63.8639 2964 88.3676L2964 198C2964 159.824 2943.96 128.876 2919.23 128.876L2473.77 128.876C2449.04 128.876 2429 159.824 2429 198L2429 88.3676C2429 63.8639 2441.86 44 2457.73 44Z" fill="url(#fill3)" fill-rule="evenodd"/><path d="M2425 121C2425 100.565 2440.45 83.9999 2459.5 83.9999 2478.55 83.9999 2494 100.565 2494 121 2494 141.435 2478.55 158 2459.5 158 2440.45 158 2425 141.435 2425 121Z" fill="url(#fill4)" fill-rule="evenodd"/><path d="M2445 174.5C2445 150.476 2463.13 131 2485.5 131 2507.87 131 2526 150.476 2526 174.5 2526 198.524 2507.87 218 2485.5 218 2463.13 218 2445 198.524 2445 174.5Z" fill="url(#fill5)" fill-rule="evenodd"/><path d="M2756 460.5C2756 404.995 2803.23 360 2861.5 360 2919.77 360 2967 404.995 2967 460.5 2967 516.005 2919.77 561 2861.5 561 2803.23 561 2756 516.005 2756 460.5Z" fill="url(#fill6)" fill-rule="evenodd"/><path d="M2917 516C2917 500.536 2928.42 488 2942.5 488 2956.58 488 2968 500.536 2968 516 2968 531.464 2956.58 544 2942.5 544 2928.42 544 2917 531.464 2917 516Z" fill="url(#fill7)" fill-rule="evenodd"/><path d="M2912 463C2912 446.432 2924.54 433 2940 433 2955.46 433 2968 446.432 2968 463 2968 479.569 2955.46 493 2940 493 2924.54 493 2912 479.569 2912 463Z" fill="url(#fill8)" fill-rule="evenodd"/><g clip-path="url(#clip9)"><g clip-path="url(#clip10)"><g clip-path="url(#clip11)"><path d="M2635.16 298.339 2605.97 505.075C2605.3 509.874 2601.59 513.676 2596.81 514.473 2592.03 515.269 2587.29 512.884 2585.09 508.571L2510.94 363.147C2508.9 359.146 2507.87 354.704 2507.94 350.221L2510.92 151.885C2510.97 148.148 2513.35 144.851 2516.88 143.612 2520.41 142.373 2524.33 143.486 2526.7 146.384L2626.95 268.993C2633.66 277.205 2636.64 287.84 2635.15 298.34ZM2632.01 261.842C2639.12 270.546 2650.37 274.767 2661.45 272.899L2910.64 230.993C2913.97 230.436 2916.62 227.906 2917.34 224.62 2918.06 221.323 2916.69 217.931 2913.91 216.041L2764.99 115.219C2761.33 112.741 2756.98 111.502 2752.56 111.692L2537.18 120.827C2533.42 120.984 2530.07 123.262 2528.53 126.685 2526.99 130.118 2527.53 134.13 2529.91 137.048ZM2925.69 242.689C2923.39 239.834 2919.74 238.437 2916.11 239.046L2673.14 279.911C2657.3 282.579 2645.01 295.199 2642.76 311.096L2613.82 515.741C2613.02 521.381 2615.24 527.029 2619.66 530.63 2624.08 534.221 2630.07 535.228 2635.43 533.298L2837.39 460.345C2841.72 458.781 2845.19 455.442 2846.92 451.157L2927.18 252.834C2928.55 249.421 2927.98 245.547 2925.69 242.691Z" fill="#FFFFFF"/></g></g></g><g clip-path="url(#clip12)"><g clip-path="url(#clip13)"><g clip-path="url(#clip14)"><path d="M2809.76 368.329 2818.49 315.116C2820.59 301.043 2809.58 289.821 2798.73 282.749 2782.22 271.981 2762.31 266.532 2743.05 263.333 2718.77 259.302 2693.71 258.964 2669.3 262.105 2649.07 264.709 2628.31 269.646 2610.37 279.673 2595.82 287.805 2579.46 302.883 2587.27 321.253L2599.41 367.944C2599.64 368.804 2602.54 378.763 2612.53 389.85 2608.68 400.514 2609.51 412.561 2613.94 422.901L2626.85 458.732 2688.9 518 2703.18 518 2710.28 518 2725.26 518 2786.59 459.427 2787.32 458.739 2802.14 417.614 2802.02 417.569C2806.75 401.332 2801.22 388.646 2800.8 387.737L2799.11 385.051C2806.64 376.21 2809.49 369.055 2809.76 368.329ZM2794.22 414.759 2794.16 414.738 2792.02 420.651C2787.98 429.437 2779.91 439.176 2764.64 448.44L2764.57 451.952C2770.04 448.632 2779.11 448.966 2783.05 445.523L2780 453.982 2721.87 509.52 2713.92 509.52 2724.1 485.894 2733.29 485.272 2732.49 481.825 2727.08 478.485 2731.36 468.392C2736.64 459.699 2729.57 456.279 2720.6 452.323L2719.91 453.882C2721.96 454.759 2724.06 456.538 2724.98 458.588 2726.66 462.375 2722.82 466.187 2720.59 468.818 2717.29 472.706 2713.65 476.318 2709.89 479.761 2706.68 482.706 2703.84 485.929 2699.19 483.511 2693.89 479.018 2669.19 459.599 2684.88 453.892L2683.87 451.598C2681.04 452.846 2674.67 450.177 2672.49 454.329 2672.49 454.329 2660.71 454.714 2649.02 448.127 2645.47 446.431 2626.36 429.62 2622.29 421.05L2620.02 414.741 2619.92 414.772C2618.19 408.739 2618.26 403.414 2618.85 399.33 2618.77 401.154 2619.02 402.994 2620.06 404.215 2628.96 416.799 2647.42 422.729 2661.55 425.897 2666.21 426.943 2689.57 433.438 2689.89 423.225 2690.02 419.093 2686.8 414.913 2684.18 411.976 2684.18 411.976 2680.4 411.718 2674.68 411.078 2618.68 402.502 2608.03 367.242 2607.61 365.759L2600.1 336.88C2612.4 346.578 2627.76 352.25 2642.77 356.165 2663.06 361.463 2684.2 363.527 2705.15 363.279 2725.64 363.042 2746.3 360.582 2766.01 354.858 2780.59 350.627 2795.71 344.569 2807.09 334.211L2801.7 365.646C2800.1 369.34 2784.18 402.808 2730.1 411.081 2724.41 411.721 2720.64 411.972 2720.64 411.972 2718.02 414.91 2714.98 419.351 2717.39 422.702 2725.61 434.098 2743.74 428.515 2748.41 427.473 2762.54 424.305 2773.19 418.058 2782.08 405.471 2783.45 403.875 2786.14 399.96 2785.8 397.669 2788.52 395.577 2790.96 393.462 2793.14 391.374 2794.01 393.321 2797.67 402.636 2794.22 414.759Z" fill="#023A63"/></g></g></g><g clip-path="url(#clip15)"><g clip-path="url(#clip16)"><g clip-path="url(#clip17)"><path d="M2621.27 208.035C2621.16 212.302 2617.87 215.585 2613.61 215.702 2611.9 215.75 2611.9 218.4 2613.61 218.352 2619.33 218.198 2623.77 213.762 2623.92 208.035 2623.97 206.326 2621.32 206.329 2621.27 208.035L2621.27 208.035Z" fill="#023A63"/><path d="M2631.58 215.834C2627.32 215.72 2624.04 212.44 2623.92 208.173 2623.87 206.467 2621.22 206.464 2621.27 208.173 2621.42 213.897 2625.86 218.331 2631.58 218.484 2633.29 218.532 2633.29 215.882 2631.58 215.834L2631.58 215.834Z" fill="#023A63"/><path d="M2623.92 226.22C2624.04 221.956 2627.32 218.667 2631.58 218.551 2633.29 218.503 2633.29 215.853 2631.58 215.901 2625.86 216.054 2621.43 220.493 2621.27 226.22 2621.23 227.929 2623.88 227.924 2623.92 226.22L2623.92 226.22Z" fill="#023A63"/><path d="M2613.54 218.418C2617.8 218.532 2621.09 221.813 2621.2 226.082 2621.25 227.786 2623.9 227.791 2623.85 226.082 2623.7 220.355 2619.27 215.924 2613.54 215.768 2611.83 215.72 2611.83 218.37 2613.54 218.418L2613.54 218.418Z" fill="#023A63"/><path d="M2782.27 116.523C2782.15 120.789 2778.87 124.073 2774.6 124.189 2772.9 124.237 2772.89 126.887 2774.6 126.839 2780.33 126.686 2784.76 122.25 2784.92 116.523 2784.96 114.814 2782.31 114.819 2782.27 116.523L2782.27 116.523Z" fill="#023A63"/><path d="M2792.58 124.325C2788.32 124.211 2785.03 120.927 2784.92 116.663 2784.87 114.957 2782.22 114.954 2782.27 116.663 2782.42 122.387 2786.86 126.821 2792.58 126.975 2794.29 127.02 2794.29 124.37 2792.58 124.325L2792.58 124.325Z" fill="#023A63"/><path d="M2784.92 134.707C2785.03 130.443 2788.31 127.157 2792.58 127.041 2794.29 126.993 2794.29 124.343 2792.58 124.391 2786.86 124.544 2782.43 128.983 2782.27 134.707 2782.22 136.416 2784.87 136.411 2784.92 134.707L2784.92 134.707Z" fill="#023A63"/><path d="M2774.54 126.906C2778.8 127.02 2782.09 130.3 2782.2 134.567 2782.25 136.273 2784.9 136.276 2784.85 134.567 2784.69 128.843 2780.26 124.409 2774.54 124.256 2772.82 124.211 2772.83 126.861 2774.54 126.906L2774.54 126.906Z" fill="#023A63"/><path d="M2648.04 119.011C2647.7 131.389 2638.16 140.927 2625.79 141.261 2624.08 141.308 2624.08 143.958 2625.79 143.911 2639.62 143.537 2650.32 132.844 2650.69 119.011 2650.73 117.302 2648.08 117.307 2648.04 119.011L2648.04 119.011Z" fill="#023A63"/><path d="M2672.93 141.618C2660.56 141.285 2651.02 131.747 2650.69 119.369 2650.64 117.662 2647.99 117.66 2648.04 119.369 2648.41 133.202 2659.1 143.895 2672.93 144.268 2674.64 144.316 2674.64 141.666 2672.93 141.618L2672.93 141.618Z" fill="#023A63"/><path d="M2650.69 166.698C2651.02 154.325 2660.55 144.783 2672.93 144.449 2674.64 144.401 2674.64 141.751 2672.93 141.799 2659.1 142.172 2648.41 152.87 2648.04 166.698 2647.99 168.407 2650.64 168.402 2650.69 166.698L2650.69 166.698Z" fill="#023A63"/><path d="M2625.61 144.088C2637.98 144.422 2647.52 153.957 2647.86 166.332 2647.9 168.039 2650.55 168.042 2650.51 166.332 2650.13 152.502 2639.43 141.812 2625.61 141.438 2623.9 141.393 2623.9 144.043 2625.61 144.088L2625.61 144.088Z" fill="#023A63"/><path d="M2754.28 284.21C2754.07 291.786 2748.23 297.619 2740.66 297.823 2738.95 297.87 2738.95 300.52 2740.66 300.473 2749.69 300.229 2756.68 293.243 2756.93 284.21 2756.97 282.5 2754.32 282.506 2754.28 284.21L2754.28 284.21Z" fill="#023A63"/><path d="M2770.54 298.051C2762.97 297.847 2757.13 292.014 2756.93 284.438 2756.88 282.731 2754.23 282.726 2754.28 284.438 2754.52 293.471 2761.51 300.457 2770.54 300.701 2772.25 300.746 2772.24 298.096 2770.54 298.051L2770.54 298.051Z" fill="#023A63"/><path d="M2756.93 314.425C2757.13 306.857 2762.96 301.016 2770.53 300.812 2772.24 300.764 2772.25 298.114 2770.53 298.162 2761.5 298.406 2754.52 305.394 2754.28 314.425 2754.23 316.137 2756.88 316.132 2756.93 314.425L2756.93 314.425Z" fill="#023A63"/><path d="M2740.54 300.587C2748.12 300.791 2753.96 306.621 2754.16 314.197 2754.21 315.904 2756.86 315.909 2756.81 314.197 2756.57 305.166 2749.58 298.18 2740.54 297.937 2738.84 297.889 2738.84 300.539 2740.54 300.587L2740.54 300.587Z" fill="#023A63"/><path d="M2732.21 183.075C2732.21 187.466 2728.65 191.025 2724.26 191.025 2719.87 191.025 2716.31 187.466 2716.31 183.075 2716.31 178.684 2719.87 175.125 2724.26 175.125 2728.65 175.125 2732.21 178.684 2732.21 183.075Z" fill="#023A63"/><path d="M2761.36 180.205C2761.36 182.766 2759.28 184.843 2756.72 184.843 2754.16 184.843 2752.08 182.766 2752.08 180.205 2752.08 177.644 2754.16 175.568 2756.72 175.568 2759.28 175.568 2761.36 177.644 2761.36 180.205Z" fill="#023A63"/><path d="M2793.6 203.17C2793.6 206.219 2791.13 208.69 2788.08 208.69 2785.03 208.69 2782.56 206.219 2782.56 203.17 2782.56 200.121 2785.03 197.65 2788.08 197.65 2791.13 197.65 2793.6 200.121 2793.6 203.17Z" fill="#023A63"/><path d="M2690.25 291.945C2690.25 294.506 2688.17 296.583 2685.61 296.583 2683.05 296.583 2680.98 294.506 2680.98 291.945 2680.98 289.384 2683.05 287.307 2685.61 287.307 2688.17 287.307 2690.25 289.384 2690.25 291.945Z" fill="#023A63"/><path d="M2659.77 328.605C2659.77 333.606 2655.72 337.66 2650.72 337.66 2645.72 337.66 2641.66 333.606 2641.66 328.605 2641.66 323.604 2645.72 319.55 2650.72 319.55 2655.72 319.55 2659.77 323.604 2659.77 328.605Z" fill="#023A63"/><path d="M2663.75 258.82C2663.75 261.626 2661.48 263.9 2658.67 263.9 2655.86 263.9 2653.59 261.626 2653.59 258.82 2653.59 256.014 2655.86 253.74 2658.67 253.74 2661.48 253.74 2663.75 256.014 2663.75 258.82Z" fill="#023A63"/><path d="M2711.01 162.538C2711.01 165.099 2708.93 167.175 2706.37 167.175 2703.81 167.175 2701.73 165.099 2701.73 162.538 2701.73 159.976 2703.81 157.9 2706.37 157.9 2708.93 157.9 2711.01 159.976 2711.01 162.538Z" fill="#023A63"/><path d="M2715.43 112.85C2715.43 116.022 2712.85 118.593 2709.68 118.593 2706.51 118.593 2703.94 116.022 2703.94 112.85 2703.94 109.679 2706.51 107.107 2709.68 107.107 2712.85 107.107 2715.43 109.679 2715.43 112.85Z" fill="#023A63"/><path d="M2741.93 108.655C2741.93 110.729 2740.25 112.41 2738.17 112.41 2736.1 112.41 2734.42 110.729 2734.42 108.655 2734.42 106.581 2736.1 104.9 2738.17 104.9 2740.25 104.9 2741.93 106.581 2741.93 108.655Z" fill="#023A63"/><path d="M2715.87 111.525 2734.42 108.655"/><path d="M2708.8 119.032 2706.37 157.9"/><path d="M2709.68 166.293 2719.4 176.893"/><path d="M2732.65 181.75 2752.08 180.205"/><path d="M2760.92 182.632 2784.32 199.857"/><path d="M2784.32 207.807 2689.81 289.075"/><path d="M2682.3 295.258 2657.57 322.643"/><path d="M2650.72 319.55 2657.12 263.458"/><path d="M2661.1 253.743 2718.96 188.375"/></g></g></g><g clip-path="url(#clip18)"><g clip-path="url(#clip19)"><g clip-path="url(#clip20)"><path d="M175.334 164.091 112.331 54.9724C121.842 43.8764 120.992 27.2739 110.397 17.2079 99.8017 7.14181 83.1777 7.14181 72.5827 17.2079 61.9877 27.2739 61.1373 43.8764 70.6482 54.9724L7.625 164.091 23.4749 173.241 33.1332 156.522C69.9931 174.351 112.981 174.351 149.841 156.522L159.5 173.241 175.334 164.091ZM91.4796 28.0003C96.533 28.0003 100.63 32.0969 100.63 37.1503 100.63 42.2036 96.533 46.3002 91.4796 46.3002 86.4263 46.3002 82.3296 42.2036 82.3296 37.1503 82.3296 34.7235 83.2937 32.3963 85.0097 30.6803 86.7255 28.9643 89.0529 28.0003 91.4796 28.0003L91.4796 28.0003ZM82.3296 71.3 82.3296 151.23C68.4581 150.134 54.8983 146.542 42.3035 140.627L82.3296 71.3ZM100.63 151.23 100.63 71.3 140.656 140.627C128.061 146.542 114.501 150.134 100.63 151.23L100.63 151.23Z" stroke="#FFFFFF" stroke-width="4.60376" fill="#023A63" transform="matrix(1 0 0 1 2615 148)"/></g></g></g></g></svg>