<svg width="550" height="550" xmlns="http://www.w3.org/2000/svg" xmlns:xlink="http://www.w3.org/1999/xlink" overflow="hidden"><defs><clipPath id="clip0"><rect x="1234" y="629" width="550" height="550"/></clipPath><radialGradient cx="762000" cy="762000" r="1.07763e+06" gradientUnits="userSpaceOnUse" spreadMethod="pad" id="fill1" gradientTransform="matrix(0.000360892 0 0 0.000360892 1234 629)"><stop offset="0" stop-color="#FFFFFF"/><stop offset="0.26" stop-color="#FFFFFF"/><stop offset="0.5" stop-color="#20A0FB"/><stop offset="1" stop-color="#0F1113"/></radialGradient><radialGradient cx="372687" cy="419793" r="561357" fx="372688" fy="419793" gradientUnits="userSpaceOnUse" spreadMethod="pad" id="fill2" gradientTransform="matrix(0.000360892 0 0 0.000360892 1240 637)"><stop offset="0" stop-color="#FFFFFF"/><stop offset="0.54" stop-color="#20A0FB" stop-opacity="0"/><stop offset="1" stop-color="#20A0FB" stop-opacity="0"/></radialGradient><linearGradient x1="1507.5" y1="635" x2="1507.5" y2="789" gradientUnits="userSpaceOnUse" spreadMethod="reflect" id="fill3"><stop offset="0" stop-color="#F5FAFF" stop-opacity="0.231373"/><stop offset="0.32" stop-color="#FFFFFF" stop-opacity="0"/><stop offset="1" stop-color="#FFFFFF" stop-opacity="0"/></linearGradient><radialGradient cx="95596" cy="102523" r="140177" fx="95596" fy="102524" gradientUnits="userSpaceOnUse" spreadMethod="pad" id="fill4" gradientTransform="matrix(0.000360892 0 0 0.000360892 1236 675)"><stop offset="0" stop-color="#FFFFFF"/><stop offset="0.54" stop-color="#20A0FB" stop-opacity="0"/><stop offset="1" stop-color="#20A0FB" stop-opacity="0"/></radialGradient><radialGradient cx="112222" cy="120534" r="164688" gradientUnits="userSpaceOnUse" spreadMethod="pad" id="fill5" gradientTransform="matrix(0.000360892 0 0 0.000360892 1256 722)"><stop offset="0" stop-color="#FFFFFF"/><stop offset="0.54" stop-color="#20A0FB" stop-opacity="0"/><stop offset="1" stop-color="#20A0FB" stop-opacity="0"/></radialGradient><radialGradient cx="292330" cy="279861" r="404697" fx="292330" fy="279862" gradientUnits="userSpaceOnUse" spreadMethod="pad" id="fill6" gradientTransform="matrix(0.000360892 0 0 0.000360892 1567 950)"><stop offset="0" stop-color="#FFFFFF"/><stop offset="0.54" stop-color="#20A0FB" stop-opacity="0"/><stop offset="1" stop-color="#20A0FB" stop-opacity="0"/></radialGradient><radialGradient cx="70658" cy="77585.5" r="104938" gradientUnits="userSpaceOnUse" spreadMethod="pad" id="fill7" gradientTransform="matrix(0.000360892 0 0 0.000360892 1728 1079)"><stop offset="0" stop-color="#FFFFFF"/><stop offset="0.54" stop-color="#20A0FB" stop-opacity="0"/><stop offset="1" stop-color="#20A0FB" stop-opacity="0"/></radialGradient><radialGradient cx="77585.5" cy="83127" r="113708" gradientUnits="userSpaceOnUse" spreadMethod="pad" id="fill8" gradientTransform="matrix(0.000360892 0 0 0.000360892 1723 1024)"><stop offset="0" stop-color="#FFFFFF"/><stop offset="0.54" stop-color="#20A0FB" stop-opacity="0"/><stop offset="1" stop-color="#20A0FB" stop-opacity="0"/></radialGradient><clipPath id="clip9"><rect x="1248" y="643" width="526" height="526"/></clipPath><clipPath id="clip10"><rect x="1248" y="643" width="526" height="526"/></clipPath><clipPath id="clip11"><rect x="1248" y="643" width="526" height="526"/></clipPath><clipPath id="clip12"><rect x="1334" y="795" width="344" height="344"/></clipPath><clipPath id="clip13"><rect x="1334" y="795" width="344" height="344"/></clipPath><clipPath id="clip14"><rect x="1334" y="795" width="344" height="344"/></clipPath><clipPath id="clip15"><rect x="1354" y="669" width="310" height="310"/></clipPath><clipPath id="clip16"><rect x="1354" y="669" width="310" height="310"/></clipPath><clipPath id="clip17"><rect x="1354" y="669" width="310" height="310"/></clipPath><clipPath id="clip18"><rect x="1354" y="669" width="311" height="312"/></clipPath><clipPath id="clip19"><rect x="1354" y="669" width="311" height="312"/></clipPath><clipPath id="clip20"><rect x="1354" y="669" width="311" height="312"/></clipPath></defs><g clip-path="url(#clip0)" transform="translate(-1234 -629)"><rect x="1234" y="629" width="550" height="550" fill="url(#fill1)"/><path d="M1240 788.5C1240 704.829 1300.22 637 1374.5 637 1448.78 637 1509 704.829 1509 788.5 1509 872.171 1448.78 940 1374.5 940 1300.22 940 1240 872.171 1240 788.5Z" fill="url(#fill2)" fill-rule="evenodd"/><path d="M1268.73 635 1746.27 635C1762.14 635 1775 654.864 1775 679.368L1775 789C1775 750.824 1754.96 719.876 1730.23 719.876L1284.77 719.876C1260.04 719.876 1240 750.824 1240 789L1240 679.368C1240 654.864 1252.86 635 1268.73 635Z" fill="url(#fill3)" fill-rule="evenodd"/><path d="M1236 712C1236 691.566 1251.45 675 1270.5 675 1289.55 675 1305 691.566 1305 712 1305 732.435 1289.55 749 1270.5 749 1251.45 749 1236 732.435 1236 712Z" fill="url(#fill4)" fill-rule="evenodd"/><path d="M1256 765.5C1256 741.475 1274.13 722 1296.5 722 1318.87 722 1337 741.475 1337 765.5 1337 789.524 1318.87 809 1296.5 809 1274.13 809 1256 789.524 1256 765.5Z" fill="url(#fill5)" fill-rule="evenodd"/><path d="M1567 1051C1567 995.219 1614.23 950 1672.5 950 1730.77 950 1778 995.219 1778 1051 1778 1106.78 1730.77 1152 1672.5 1152 1614.23 1152 1567 1106.78 1567 1051Z" fill="url(#fill6)" fill-rule="evenodd"/><path d="M1728 1107C1728 1091.54 1739.42 1079 1753.5 1079 1767.58 1079 1779 1091.54 1779 1107 1779 1122.46 1767.58 1135 1753.5 1135 1739.42 1135 1728 1122.46 1728 1107Z" fill="url(#fill7)" fill-rule="evenodd"/><path d="M1723 1054C1723 1037.43 1735.54 1024 1751 1024 1766.46 1024 1779 1037.43 1779 1054 1779 1070.57 1766.46 1084 1751 1084 1735.54 1084 1723 1070.57 1723 1054Z" fill="url(#fill8)" fill-rule="evenodd"/><g clip-path="url(#clip9)"><g clip-path="url(#clip10)"><g clip-path="url(#clip11)"><path d="M1446.16 889.339 1416.97 1096.08C1416.3 1100.87 1412.59 1104.68 1407.81 1105.47 1403.03 1106.27 1398.29 1103.88 1396.09 1099.57L1321.94 954.147C1319.9 950.146 1318.87 945.704 1318.94 941.222L1321.92 742.885C1321.97 739.148 1324.35 735.851 1327.88 734.612 1331.41 733.373 1335.33 734.486 1337.7 737.384L1437.96 859.994C1444.66 868.205 1447.64 878.84 1446.15 889.34ZM1443.01 852.842C1450.13 861.546 1461.37 865.767 1472.45 863.899L1721.64 821.993C1724.97 821.436 1727.62 818.906 1728.34 815.62 1729.06 812.324 1727.69 808.931 1724.91 807.041L1575.99 706.219C1572.33 703.741 1567.98 702.502 1563.56 702.692L1348.18 711.827C1344.42 711.984 1341.07 714.262 1339.53 717.685 1338 721.118 1338.53 725.13 1340.91 728.048ZM1736.69 833.689C1734.39 830.834 1730.74 829.437 1727.11 830.046L1484.15 870.911C1468.3 873.579 1456.02 886.199 1453.76 902.096L1424.82 1106.74C1424.02 1112.38 1426.24 1118.03 1430.66 1121.63 1435.08 1125.22 1441.07 1126.23 1446.43 1124.3L1648.39 1051.34C1652.72 1049.78 1656.19 1046.44 1657.92 1042.16L1738.18 843.834C1739.55 840.421 1738.98 836.547 1736.69 833.691Z" fill="#FFFFFF"/></g></g></g><g clip-path="url(#clip12)"><g clip-path="url(#clip13)"><g clip-path="url(#clip14)"><path d="M278.948 150.889 287.65 97.8305C289.746 83.7983 278.766 72.6097 267.948 65.5576 251.488 54.8217 231.631 49.3886 212.43 46.1987 188.218 42.1787 163.234 41.8426 138.898 44.9742 118.719 47.5707 98.026 52.4927 80.1385 62.4912 65.6262 70.5997 49.32 85.6334 57.0992 103.95L69.2037 150.505C69.4369 151.363 72.3284 161.292 82.2891 172.347 78.4544 182.98 79.2776 194.992 83.692 205.303L96.5717 241.03 158.442 300.125 172.68 300.125 179.753 300.125 194.697 300.125 255.844 241.722 256.567 241.036 271.347 200.031 271.227 199.986C275.95 183.797 270.432 171.147 270.013 170.241L268.332 167.562C275.834 158.747 278.674 151.613 278.948 150.889ZM263.448 197.184 263.393 197.163 261.263 203.059C257.229 211.82 249.186 221.53 233.957 230.767L233.888 234.269C239.342 230.959 248.387 231.292 252.318 227.858L249.275 236.293 191.308 291.67 183.382 291.67 193.531 268.113 202.696 267.492 201.9 264.055 196.508 260.725 200.775 250.661C206.04 241.993 198.991 238.584 190.043 234.639L189.353 236.193C191.397 237.068 193.5 238.841 194.412 240.885 196.086 244.662 192.262 248.462 190.032 251.086 186.743 254.962 183.117 258.564 179.368 261.997 176.165 264.933 173.332 268.147 168.698 265.736 163.416 261.256 138.781 241.894 154.429 236.204L153.424 233.916C150.598 235.161 144.249 232.499 142.074 236.639 142.074 236.639 130.333 237.023 118.675 230.455 115.131 228.764 96.0777 212.001 92.0235 203.457L89.7562 197.167 89.6568 197.198C87.9384 191.181 88.0001 185.872 88.5935 181.8 88.5077 183.618 88.7616 185.453 89.8008 186.671 98.6674 199.218 117.076 205.131 131.17 208.29 135.814 209.333 159.111 215.809 159.423 205.625 159.55 201.506 156.343 197.338 153.733 194.409 153.733 194.409 149.963 194.152 144.262 193.514 88.422 184.963 77.8061 149.805 77.3842 148.327L69.8966 119.532C82.1622 129.201 97.4738 134.857 112.439 138.761 132.676 144.043 153.757 146.101 174.642 145.854 195.074 145.617 215.668 143.165 235.322 137.457 249.865 133.238 264.933 127.198 276.28 116.87L270.908 148.214C269.313 151.898 253.443 185.268 199.516 193.517 193.843 194.155 190.084 194.406 190.084 194.406 187.47 197.335 184.438 201.763 186.842 205.104 195.037 216.467 213.123 210.9 217.774 209.861 231.861 206.702 242.48 200.473 251.35 187.923 252.709 186.331 255.391 182.428 255.055 180.144 257.768 178.058 260.2 175.949 262.378 173.867 263.239 175.808 266.895 185.097 263.448 197.184Z" fill="#023A63" transform="matrix(1 0 0 1.00291 1334 795)"/></g></g></g><g clip-path="url(#clip15)"><g clip-path="url(#clip16)"><g clip-path="url(#clip17)"><path d="M1634.98 837.749C1634.63 836.699 1630.43 825.612 1626.82 815.759 1623.68 808.326 1621.53 806.89 1616.67 806.89L1612.34 806.918 1608.01 806.89C1603.15 806.89 1601 808.326 1597.86 815.759 1594.25 825.612 1590.05 836.702 1589.7 837.749 1589.02 839.823 1587.91 843.85 1590.86 844.959 1593.8 846.068 1595.14 843.558 1596.39 840.283 1597.65 837.004 1600.29 827.154 1602.52 821.406 1602.71 820.912 1602.93 820.435 1603.14 819.947 1603.23 819.968 1603.31 819.989 1603.39 820.009 1603.26 822.423 1603.05 831.25 1603 833.667 1602.72 844.489 1598.42 878.75 1597.19 885.922 1596.57 890.269 1597.46 892.404 1600.28 892.404 1603.11 892.404 1604.36 891.879 1605.23 887.406 1606.52 878.414 1608.95 859.602 1609.78 853.199 1609.96 851.822 1610.23 850.192 1612.34 850.174 1614.45 850.192 1614.73 851.822 1614.91 853.199 1615.73 859.602 1618.16 878.414 1619.46 887.406 1620.33 891.879 1621.57 892.404 1624.4 892.404 1627.22 892.404 1628.12 890.269 1627.5 885.922 1626.27 878.75 1621.96 844.489 1621.69 833.667 1621.62 831.253 1621.42 822.423 1621.29 820.009 1621.37 819.989 1621.46 819.968 1621.54 819.947 1621.75 820.435 1621.97 820.912 1622.16 821.406 1624.4 827.154 1627.03 837.004 1628.29 840.283 1629.55 843.558 1630.88 846.068 1633.82 844.959 1636.77 843.85 1635.66 839.823 1634.98 837.749Z" stroke="#FFFFFF" stroke-width="8.0111" fill="#C00000" fill-rule="evenodd"/><path d="M1612.49 804.772C1617.42 804.758 1621.65 800.357 1621.64 795.238 1621.63 790.187 1617.49 785.889 1612.54 785.796 1607.55 785.707 1603.19 790.167 1603.22 795.323 1603.24 800.422 1607.52 804.789 1612.49 804.772Z" stroke="#FFFFFF" stroke-width="8.0111" fill="#C00000" fill-rule="evenodd"/><path d="M1574.19 815.759C1571.04 808.326 1568.89 806.89 1564.03 806.89L1559.7 806.918 1555.37 806.89C1550.51 806.89 1548.36 808.326 1545.22 815.759 1541.61 825.612 1537.42 836.702 1537.07 837.749 1536.38 839.823 1535.28 843.85 1538.22 844.959 1541.16 846.068 1542.5 843.558 1543.75 840.283 1545.01 837.004 1547.65 827.154 1549.88 821.406 1550.07 820.912 1550.29 820.435 1550.5 819.947 1550.59 819.968 1550.67 819.989 1550.75 820.009 1550.62 822.423 1550.42 831.25 1550.36 833.667 1550.08 844.489 1545.78 878.75 1544.55 885.922 1543.93 890.269 1544.82 892.404 1547.64 892.404 1550.47 892.404 1551.71 891.879 1552.59 887.406 1553.88 878.414 1556.31 859.602 1557.14 853.199 1557.31 851.822 1557.59 850.192 1559.7 850.174 1561.81 850.192 1562.08 851.822 1562.26 853.199 1563.09 859.602 1565.52 878.414 1566.81 887.406 1567.69 891.879 1568.93 892.404 1571.76 892.404 1574.59 892.404 1575.48 890.269 1574.86 885.922 1573.63 878.75 1569.32 844.489 1569.05 833.667 1568.99 831.253 1568.79 822.423 1568.65 820.009 1568.73 819.989 1568.82 819.968 1568.9 819.947 1569.11 820.435 1569.33 820.912 1569.52 821.406 1571.76 827.154 1574.39 837.004 1575.65 840.283 1576.91 843.558 1578.24 846.068 1581.19 844.959 1584.13 843.854 1583.03 839.823 1582.34 837.749 1581.99 836.699 1577.79 825.612 1574.19 815.759Z" stroke="#FFFFFF" stroke-width="8.0111" fill="#C00000" fill-rule="evenodd"/><path d="M1550.58 795.323C1550.6 800.422 1554.89 804.786 1559.85 804.772 1564.79 804.758 1569.01 800.357 1569 795.238 1569 790.187 1564.85 785.889 1559.9 785.796 1554.92 785.707 1550.55 790.167 1550.58 795.323Z" stroke="#FFFFFF" stroke-width="8.0111" fill="#C00000" fill-rule="evenodd"/><path d="M1521.55 815.759C1518.41 808.326 1516.26 806.89 1511.4 806.89L1507.06 806.918 1502.74 806.89C1497.88 806.89 1495.73 808.326 1492.58 815.759 1488.98 825.612 1484.78 836.702 1484.43 837.749 1483.74 839.823 1482.64 843.85 1485.58 844.959 1488.52 846.068 1489.86 843.558 1491.12 840.283 1492.37 837.004 1495.01 827.154 1497.25 821.406 1497.44 820.912 1497.66 820.435 1497.86 819.947 1497.95 819.968 1498.03 819.989 1498.12 820.009 1497.98 822.423 1497.78 831.25 1497.72 833.667 1497.44 844.489 1493.14 878.75 1491.91 885.922 1491.29 890.269 1492.18 892.404 1495.01 892.404 1497.84 892.404 1499.08 891.879 1499.95 887.406 1501.24 878.414 1503.68 859.602 1504.5 853.199 1504.68 851.822 1504.96 850.192 1507.06 850.174 1509.17 850.192 1509.45 851.822 1509.63 853.199 1510.45 859.602 1512.89 878.414 1514.18 887.406 1515.05 891.879 1516.29 892.404 1519.12 892.404 1521.95 892.404 1522.84 890.269 1522.22 885.922 1520.99 878.75 1516.69 844.489 1516.41 833.667 1516.35 831.253 1516.15 822.423 1516.01 820.009 1516.1 819.989 1516.18 819.968 1516.27 819.947 1516.47 820.435 1516.7 820.912 1516.88 821.406 1519.12 827.154 1521.76 837.004 1523.01 840.283 1524.27 843.558 1525.6 846.068 1528.55 844.959 1531.49 843.854 1530.39 839.823 1529.7 837.749 1529.36 836.699 1525.16 825.612 1521.55 815.759Z" stroke="#FFFFFF" stroke-width="8.0111" fill="#C00000" fill-rule="evenodd"/><path d="M1507.21 804.772C1512.15 804.758 1516.37 800.357 1516.37 795.238 1516.36 790.187 1512.21 785.889 1507.26 785.796 1502.28 785.707 1497.92 790.163 1497.94 795.323 1497.97 800.422 1502.25 804.789 1507.21 804.772Z" stroke="#FFFFFF" stroke-width="8.0111" fill="#C00000" fill-rule="evenodd"/><path d="M1468.91 815.759C1465.77 808.326 1463.62 806.89 1458.76 806.89L1454.43 806.918 1450.1 806.89C1445.24 806.89 1443.09 808.326 1439.95 815.759 1436.34 825.612 1432.15 836.702 1431.8 837.749 1431.11 839.823 1430.01 843.85 1432.95 844.959 1435.89 846.068 1437.23 843.558 1438.48 840.283 1439.74 837.004 1442.38 827.154 1444.61 821.406 1444.8 820.912 1445.02 820.435 1445.23 819.947 1445.32 819.968 1445.4 819.989 1445.48 820.009 1445.35 822.423 1445.15 831.25 1445.09 833.667 1444.81 844.489 1440.51 878.75 1439.28 885.922 1438.66 890.269 1439.55 892.404 1442.38 892.404 1445.21 892.404 1446.45 891.879 1447.32 887.406 1448.61 878.414 1451.05 859.602 1451.87 853.199 1452.05 851.822 1452.32 850.192 1454.44 850.174 1456.54 850.192 1456.82 851.822 1457 853.199 1457.82 859.602 1460.26 878.414 1461.55 887.406 1462.42 891.879 1463.66 892.404 1466.49 892.404 1469.32 892.404 1470.21 890.269 1469.59 885.922 1468.36 878.75 1464.06 844.489 1463.78 833.667 1463.72 831.253 1463.52 822.423 1463.39 820.009 1463.47 819.989 1463.55 819.968 1463.64 819.947 1463.85 820.435 1464.07 820.912 1464.26 821.406 1466.49 827.154 1469.13 837.004 1470.39 840.283 1471.64 843.558 1472.98 846.068 1475.92 844.959 1478.86 843.854 1477.76 839.823 1477.07 837.749 1476.72 836.699 1472.52 825.612 1468.91 815.759Z" stroke="#FFFFFF" stroke-width="8.0111" fill="#C00000" fill-rule="evenodd"/><path d="M1454.58 804.772C1459.51 804.758 1463.74 800.357 1463.73 795.238 1463.72 790.187 1459.58 785.889 1454.63 785.796 1449.64 785.707 1445.28 790.163 1445.31 795.323 1445.33 800.422 1449.61 804.789 1454.58 804.772Z" stroke="#FFFFFF" stroke-width="8.0111" fill="#C00000" fill-rule="evenodd"/><path d="M1416.28 815.759C1413.14 808.326 1410.98 806.89 1406.13 806.89L1401.8 806.918 1397.47 806.89C1392.61 806.89 1390.46 808.326 1387.31 815.759 1383.71 825.612 1379.51 836.702 1379.16 837.749 1378.47 839.823 1377.37 843.85 1380.31 844.959 1383.26 846.068 1384.59 843.558 1385.85 840.283 1387.1 837.004 1389.74 827.154 1391.98 821.406 1392.17 820.912 1392.39 820.435 1392.59 819.947 1392.68 819.968 1392.76 819.989 1392.85 820.009 1392.71 822.423 1392.51 831.25 1392.45 833.667 1392.17 844.489 1387.87 878.75 1386.64 885.922 1386.02 890.269 1386.91 892.404 1389.74 892.404 1392.57 892.404 1393.81 891.879 1394.69 887.406 1395.97 878.414 1398.41 859.602 1399.23 853.199 1399.41 851.822 1399.68 850.192 1401.8 850.174 1403.9 850.192 1404.18 851.822 1404.36 853.199 1405.18 859.602 1407.62 878.414 1408.91 887.406 1409.78 891.879 1411.03 892.404 1413.85 892.404 1416.68 892.404 1417.57 890.269 1416.95 885.922 1415.72 878.75 1411.42 844.489 1411.14 833.667 1411.08 831.253 1410.88 822.423 1410.75 820.009 1410.83 819.989 1410.91 819.968 1411 819.947 1411.21 820.435 1411.43 820.912 1411.62 821.406 1413.85 827.154 1416.49 837.004 1417.75 840.283 1419 843.558 1420.34 846.068 1423.28 844.959 1426.22 843.854 1425.12 839.823 1424.43 837.749 1424.08 836.699 1419.89 825.612 1416.28 815.759Z" stroke="#FFFFFF" stroke-width="8.0111" fill="#C00000" fill-rule="evenodd"/><path d="M1401.94 804.772C1406.88 804.758 1411.1 800.357 1411.09 795.238 1411.09 790.187 1406.94 785.889 1401.99 785.796 1397.01 785.707 1392.64 790.163 1392.67 795.323 1392.7 800.422 1396.98 804.789 1401.94 804.772Z" stroke="#FFFFFF" stroke-width="8.0111" fill="#C00000" fill-rule="evenodd"/><path d="M1433.73 782.321C1434.11 782.871 1435.17 782.359 1435.17 781.418 1435.16 777.295 1431.78 773.786 1427.73 773.711 1423.67 773.639 1420.1 777.278 1420.13 781.491 1420.13 782.411 1421.28 782.709 1421.75 782.095 1423.17 780.234 1425.36 779.015 1427.73 779.056 1430.17 779.101 1432.36 780.399 1433.73 782.321Z" stroke="#FFFFFF" stroke-width="8.0111" fill="#C00000" fill-rule="evenodd"/><path d="M1486.36 782.321C1486.75 782.871 1487.8 782.359 1487.8 781.418 1487.8 777.295 1484.41 773.786 1480.37 773.711 1476.3 773.639 1472.73 777.278 1472.76 781.491 1472.76 782.411 1473.92 782.709 1474.39 782.095 1475.8 780.234 1477.99 779.015 1480.37 779.056 1482.81 779.101 1485 780.399 1486.36 782.321Z" stroke="#FFFFFF" stroke-width="8.0111" fill="#C00000" fill-rule="evenodd"/><path d="M1538.99 782.321C1539.38 782.871 1540.44 782.359 1540.44 781.418 1540.43 777.295 1537.05 773.786 1533 773.711 1528.93 773.639 1525.37 777.278 1525.4 781.491 1525.4 782.411 1526.55 782.709 1527.02 782.095 1528.44 780.234 1530.63 779.015 1533.01 779.056 1535.44 779.101 1537.64 780.399 1538.99 782.321Z" stroke="#FFFFFF" stroke-width="8.0111" fill="#C00000" fill-rule="evenodd"/><path d="M1591.63 782.321C1592.02 782.871 1593.08 782.359 1593.07 781.418 1593.07 777.295 1589.68 773.786 1585.64 773.711 1581.57 773.639 1578.01 777.278 1578.03 781.491 1578.03 782.411 1579.19 782.709 1579.66 782.095 1581.07 780.234 1583.27 779.015 1585.64 779.056 1588.08 779.101 1590.27 780.399 1591.63 782.321Z" stroke="#FFFFFF" stroke-width="8.0111" fill="#C00000" fill-rule="evenodd"/><path d="M1450.46 768.914C1451.74 767.232 1453.73 766.126 1455.88 766.164 1458.09 766.202 1460.07 767.376 1461.31 769.117 1461.66 769.615 1462.61 769.151 1462.61 768.303 1462.61 764.568 1459.54 761.388 1455.88 761.323 1452.2 761.255 1448.97 764.551 1448.99 768.368 1448.99 769.199 1450.04 769.47 1450.46 768.914Z" stroke="#FFFFFF" stroke-width="8.0111" fill="#C00000" fill-rule="evenodd"/><path d="M1501.11 768.914C1502.4 767.232 1504.38 766.126 1506.53 766.164 1508.74 766.202 1510.72 767.376 1511.95 769.117 1512.31 769.615 1513.26 769.151 1513.26 768.303 1513.26 764.568 1510.19 761.388 1506.53 761.323 1502.85 761.255 1499.62 764.551 1499.64 768.368 1499.64 769.199 1500.69 769.47 1501.11 768.914Z" stroke="#FFFFFF" stroke-width="8.0111" fill="#C00000" fill-rule="evenodd"/><path d="M1551.77 768.914C1553.05 767.232 1555.04 766.126 1557.18 766.164 1559.39 766.202 1561.38 767.376 1562.61 769.117 1562.96 769.615 1563.92 769.151 1563.92 768.303 1563.91 764.568 1560.85 761.388 1557.19 761.323 1553.5 761.255 1550.28 764.551 1550.3 768.368 1550.3 769.199 1551.34 769.47 1551.77 768.914Z" stroke="#FFFFFF" stroke-width="8.0111" fill="#C00000" fill-rule="evenodd"/><path d="M1475.63 757.505C1476.69 756.111 1478.34 755.195 1480.12 755.226 1481.95 755.256 1483.59 756.228 1484.61 757.674 1484.91 758.086 1485.7 757.701 1485.7 756.997 1485.69 753.904 1483.15 751.27 1480.12 751.212 1477.06 751.157 1474.39 753.887 1474.41 757.049 1474.41 757.742 1475.28 757.969 1475.63 757.505Z" stroke="#FFFFFF" stroke-width="8.0111" fill="#C00000" fill-rule="evenodd"/><path d="M1532.21 756.977C1533.27 755.583 1534.92 754.666 1536.7 754.697 1538.53 754.728 1540.17 755.699 1541.19 757.145 1541.48 757.557 1542.28 757.172 1542.28 756.468 1542.27 753.372 1539.73 750.742 1536.7 750.683 1533.65 750.628 1530.97 753.358 1530.99 756.52 1530.99 757.21 1531.85 757.437 1532.21 756.977Z" stroke="#FFFFFF" stroke-width="8.0111" fill="#C00000" fill-rule="evenodd"/></g></g></g><g clip-path="url(#clip18)"><g clip-path="url(#clip19)"><g clip-path="url(#clip20)"><path d="M1635.89 838.292C1635.54 837.238 1631.33 826.116 1627.71 816.23 1624.55 808.773 1622.39 807.333 1617.52 807.333L1613.17 807.361 1608.83 807.333C1603.96 807.333 1601.8 808.773 1598.65 816.23 1595.03 826.116 1590.82 837.242 1590.46 838.292 1589.78 840.373 1588.67 844.413 1591.62 845.525 1594.57 846.638 1595.92 844.12 1597.18 840.834 1598.44 837.545 1601.08 827.663 1603.33 821.896 1603.52 821.401 1603.74 820.922 1603.95 820.433 1604.03 820.453 1604.12 820.474 1604.2 820.495 1604.06 822.916 1603.86 831.772 1603.8 834.197 1603.52 845.054 1599.21 879.426 1597.97 886.621 1597.35 890.982 1598.25 893.124 1601.08 893.124 1603.92 893.124 1605.17 892.597 1606.04 888.109 1607.34 879.088 1609.78 860.216 1610.61 853.792 1610.78 852.411 1611.06 850.775 1613.18 850.758 1615.29 850.775 1615.57 852.411 1615.75 853.792 1616.58 860.216 1619.02 879.088 1620.31 888.109 1621.19 892.597 1622.44 893.124 1625.27 893.124 1628.11 893.124 1629 890.982 1628.38 886.621 1627.15 879.426 1622.83 845.054 1622.55 834.197 1622.49 831.775 1622.29 822.916 1622.15 820.495 1622.24 820.474 1622.32 820.453 1622.41 820.433 1622.61 820.922 1622.84 821.401 1623.03 821.896 1625.27 827.663 1627.92 837.545 1629.18 840.834 1630.44 844.12 1631.78 846.638 1634.73 845.525 1637.68 844.413 1636.58 840.373 1635.89 838.292Z" fill="#023A63" fill-rule="evenodd"/><path d="M1613.32 805.208C1618.28 805.194 1622.51 800.779 1622.5 795.643 1622.5 790.576 1618.34 786.264 1613.37 786.171 1608.37 786.081 1604 790.556 1604.02 795.729 1604.05 800.844 1608.34 805.225 1613.32 805.208Z" fill="#023A63" fill-rule="evenodd"/><path d="M1574.9 816.23C1571.74 808.773 1569.59 807.333 1564.71 807.333L1560.37 807.361 1556.02 807.333C1551.15 807.333 1548.99 808.773 1545.84 816.23 1542.22 826.116 1538.01 837.242 1537.66 838.292 1536.97 840.373 1535.86 844.413 1538.82 845.525 1541.77 846.638 1543.11 844.12 1544.37 840.834 1545.62 837.545 1548.27 827.663 1550.52 821.896 1550.71 821.401 1550.93 820.922 1551.14 820.433 1551.22 820.453 1551.31 820.474 1551.39 820.495 1551.25 822.916 1551.05 831.772 1550.99 834.197 1550.71 845.054 1546.4 879.426 1545.16 886.621 1544.54 890.982 1545.44 893.124 1548.27 893.124 1551.1 893.124 1552.35 892.597 1553.23 888.109 1554.52 879.088 1556.96 860.216 1557.79 853.792 1557.97 852.411 1558.25 850.775 1560.36 850.758 1562.48 850.775 1562.76 852.411 1562.94 853.792 1563.76 860.216 1566.21 879.088 1567.5 888.109 1568.38 892.597 1569.63 893.124 1572.46 893.124 1575.3 893.124 1576.19 890.982 1575.57 886.621 1574.34 879.426 1570.02 845.054 1569.75 834.197 1569.68 831.775 1569.48 822.916 1569.34 820.495 1569.43 820.474 1569.51 820.453 1569.6 820.433 1569.8 820.922 1570.03 821.401 1570.22 821.896 1572.46 827.663 1575.11 837.545 1576.37 840.834 1577.63 844.12 1578.97 846.638 1581.92 845.525 1584.87 844.416 1583.77 840.373 1583.08 838.292 1582.73 837.238 1578.52 826.116 1574.9 816.23Z" fill="#023A63" fill-rule="evenodd"/><path d="M1551.22 795.729C1551.24 800.844 1555.54 805.222 1560.52 805.208 1565.47 805.194 1569.7 800.779 1569.7 795.643 1569.69 790.576 1565.53 786.264 1560.57 786.171 1555.57 786.081 1551.19 790.556 1551.22 795.729Z" fill="#023A63" fill-rule="evenodd"/><path d="M1522.09 816.23C1518.94 808.773 1516.78 807.333 1511.91 807.333L1507.56 807.361 1503.22 807.333C1498.35 807.333 1496.19 808.773 1493.03 816.23 1489.41 826.116 1485.2 837.242 1484.85 838.292 1484.16 840.373 1483.06 844.413 1486.01 845.525 1488.96 846.638 1490.3 844.12 1491.56 840.834 1492.82 837.545 1495.47 827.663 1497.71 821.896 1497.9 821.401 1498.12 820.922 1498.33 820.433 1498.42 820.453 1498.5 820.474 1498.58 820.495 1498.45 822.916 1498.25 831.772 1498.18 834.197 1497.91 845.054 1493.59 879.426 1492.36 886.621 1491.74 890.982 1492.63 893.124 1495.47 893.124 1498.31 893.124 1499.55 892.597 1500.43 888.109 1501.72 879.088 1504.16 860.216 1504.99 853.792 1505.17 852.411 1505.45 850.775 1507.56 850.758 1509.68 850.775 1509.95 852.411 1510.13 853.792 1510.96 860.216 1513.4 879.088 1514.69 888.109 1515.57 892.597 1516.82 893.124 1519.66 893.124 1522.5 893.124 1523.39 890.982 1522.76 886.621 1521.53 879.426 1517.22 845.054 1516.94 834.197 1516.88 831.775 1516.67 822.916 1516.54 820.495 1516.62 820.474 1516.71 820.453 1516.79 820.433 1517 820.922 1517.22 821.401 1517.41 821.896 1519.65 827.663 1522.3 837.545 1523.56 840.834 1524.82 844.12 1526.16 846.638 1529.11 845.525 1532.06 844.416 1530.96 840.373 1530.27 838.292 1529.93 837.238 1525.71 826.116 1522.09 816.23Z" fill="#023A63" fill-rule="evenodd"/><path d="M1507.71 805.208C1512.66 805.194 1516.9 800.779 1516.89 795.643 1516.88 790.576 1512.73 786.264 1507.76 786.171 1502.76 786.081 1498.38 790.552 1498.41 795.729 1498.44 800.844 1502.73 805.225 1507.71 805.208Z" fill="#023A63" fill-rule="evenodd"/><path d="M1469.29 816.23C1466.13 808.773 1463.97 807.333 1459.1 807.333L1454.76 807.361 1450.41 807.333C1445.54 807.333 1443.38 808.773 1440.23 816.23 1436.61 826.116 1432.4 837.242 1432.05 838.292 1431.36 840.373 1430.25 844.413 1433.21 845.525 1436.16 846.638 1437.5 844.12 1438.76 840.834 1440.02 837.545 1442.66 827.663 1444.91 821.896 1445.1 821.401 1445.32 820.922 1445.53 820.433 1445.61 820.453 1445.69 820.474 1445.78 820.495 1445.64 822.916 1445.44 831.772 1445.38 834.197 1445.1 845.054 1440.79 879.426 1439.56 886.621 1438.93 890.982 1439.83 893.124 1442.66 893.124 1445.5 893.124 1446.75 892.597 1447.63 888.109 1448.92 879.088 1451.36 860.216 1452.19 853.792 1452.37 852.411 1452.64 850.775 1454.76 850.758 1456.88 850.775 1457.15 852.411 1457.33 853.792 1458.16 860.216 1460.6 879.088 1461.89 888.109 1462.78 892.597 1464.02 893.124 1466.86 893.124 1469.7 893.124 1470.59 890.982 1469.96 886.621 1468.73 879.426 1464.42 845.054 1464.14 834.197 1464.08 831.775 1463.87 822.916 1463.74 820.495 1463.82 820.474 1463.91 820.453 1463.99 820.433 1464.2 820.922 1464.43 821.401 1464.61 821.896 1466.86 827.663 1469.5 837.545 1470.76 840.834 1472.02 844.12 1473.36 846.638 1476.32 845.525 1479.27 844.416 1478.17 840.373 1477.47 838.292 1477.12 837.238 1472.91 826.116 1469.29 816.23Z" fill="#023A63" fill-rule="evenodd"/><path d="M1454.9 805.208C1459.85 805.194 1464.09 800.779 1464.08 795.643 1464.08 790.576 1459.92 786.264 1454.95 786.171 1449.95 786.081 1445.57 790.552 1445.6 795.729 1445.63 800.844 1449.92 805.225 1454.9 805.208Z" fill="#023A63" fill-rule="evenodd"/><path d="M1416.48 816.23C1413.33 808.773 1411.17 807.333 1406.3 807.333L1401.95 807.361 1397.61 807.333C1392.73 807.333 1390.57 808.773 1387.42 816.23 1383.8 826.116 1379.59 837.242 1379.24 838.292 1378.55 840.373 1377.45 844.413 1380.4 845.525 1383.35 846.638 1384.69 844.12 1385.95 840.834 1387.21 837.545 1389.86 827.663 1392.1 821.896 1392.29 821.401 1392.51 820.922 1392.72 820.433 1392.81 820.453 1392.89 820.474 1392.97 820.495 1392.84 822.916 1392.63 831.772 1392.57 834.197 1392.29 845.054 1387.98 879.426 1386.75 886.621 1386.12 890.982 1387.02 893.124 1389.85 893.124 1392.69 893.124 1393.94 892.597 1394.82 888.109 1396.11 879.088 1398.55 860.216 1399.38 853.792 1399.56 852.411 1399.83 850.775 1401.95 850.758 1404.07 850.775 1404.34 852.411 1404.52 853.792 1405.35 860.216 1407.79 879.088 1409.09 888.109 1409.97 892.597 1411.21 893.124 1414.05 893.124 1416.88 893.124 1417.78 890.982 1417.15 886.621 1415.92 879.426 1411.61 845.054 1411.33 834.197 1411.27 831.775 1411.06 822.916 1410.93 820.495 1411.01 820.474 1411.1 820.453 1411.18 820.433 1411.39 820.922 1411.62 821.401 1411.8 821.896 1414.05 827.663 1416.69 837.545 1417.95 840.834 1419.21 844.12 1420.55 846.638 1423.51 845.525 1426.46 844.416 1425.36 840.373 1424.66 838.292 1424.31 837.238 1420.1 826.116 1416.48 816.23Z" fill="#023A63" fill-rule="evenodd"/><path d="M1402.09 805.208C1407.05 805.194 1411.28 800.779 1411.28 795.643 1411.27 790.576 1407.11 786.264 1402.15 786.171 1397.15 786.081 1392.77 790.552 1392.8 795.729 1392.82 800.844 1397.12 805.225 1402.09 805.208Z" fill="#023A63" fill-rule="evenodd"/><path d="M1433.98 782.685C1434.37 783.236 1435.43 782.723 1435.43 781.779 1435.43 777.642 1432.03 774.122 1427.97 774.046 1423.89 773.974 1420.32 777.625 1420.34 781.851 1420.34 782.775 1421.5 783.074 1421.97 782.458 1423.39 780.591 1425.59 779.368 1427.97 779.409 1430.42 779.454 1432.62 780.756 1433.98 782.685Z" fill="#023A63" fill-rule="evenodd"/><path d="M1486.79 782.685C1487.18 783.236 1488.24 782.723 1488.23 781.779 1488.23 777.642 1484.83 774.122 1480.78 774.046 1476.69 773.974 1473.12 777.625 1473.14 781.851 1473.15 782.775 1474.3 783.074 1474.78 782.458 1476.2 780.591 1478.4 779.368 1480.78 779.409 1483.23 779.454 1485.42 780.756 1486.79 782.685Z" fill="#023A63" fill-rule="evenodd"/><path d="M1539.59 782.685C1539.98 783.236 1541.04 782.723 1541.04 781.779 1541.04 777.642 1537.64 774.122 1533.58 774.046 1529.5 773.974 1525.93 777.625 1525.95 781.851 1525.95 782.775 1527.11 783.074 1527.58 782.458 1529 780.591 1531.21 779.368 1533.59 779.409 1536.03 779.454 1538.23 780.756 1539.59 782.685Z" fill="#023A63" fill-rule="evenodd"/><path d="M1592.4 782.685C1592.79 783.236 1593.85 782.723 1593.85 781.779 1593.84 777.642 1590.45 774.122 1586.39 774.046 1582.3 773.974 1578.73 777.625 1578.75 781.851 1578.76 782.775 1579.91 783.074 1580.39 782.458 1581.81 780.591 1584.01 779.368 1586.39 779.409 1588.84 779.454 1591.04 780.756 1592.4 782.685Z" fill="#023A63" fill-rule="evenodd"/><path d="M1450.78 769.234C1452.06 767.547 1454.05 766.438 1456.21 766.475 1458.43 766.513 1460.42 767.691 1461.65 769.438 1462.01 769.937 1462.96 769.472 1462.96 768.621 1462.96 764.874 1459.89 761.684 1456.21 761.619 1452.52 761.55 1449.28 764.857 1449.3 768.687 1449.3 769.52 1450.35 769.792 1450.78 769.234Z" fill="#023A63" fill-rule="evenodd"/><path d="M1501.59 769.234C1502.88 767.547 1504.87 766.438 1507.03 766.475 1509.24 766.513 1511.23 767.691 1512.47 769.438 1512.82 769.937 1513.78 769.472 1513.78 768.621 1513.77 764.874 1510.7 761.684 1507.03 761.619 1503.33 761.55 1500.09 764.857 1500.11 768.687 1500.11 769.52 1501.16 769.792 1501.59 769.234Z" fill="#023A63" fill-rule="evenodd"/><path d="M1552.41 769.234C1553.69 767.547 1555.69 766.438 1557.84 766.475 1560.06 766.513 1562.05 767.691 1563.28 769.438 1563.64 769.937 1564.6 769.472 1564.6 768.621 1564.59 764.874 1561.52 761.684 1557.85 761.619 1554.15 761.55 1550.91 764.857 1550.93 768.687 1550.93 769.52 1551.98 769.792 1552.41 769.234Z" fill="#023A63" fill-rule="evenodd"/><path d="M1476.02 757.789C1477.09 756.39 1478.74 755.47 1480.53 755.501 1482.36 755.532 1484.01 756.507 1485.04 757.957 1485.33 758.371 1486.13 757.985 1486.12 757.279 1486.12 754.175 1483.57 751.533 1480.52 751.475 1477.46 751.42 1474.78 754.158 1474.8 757.33 1474.8 758.026 1475.67 758.254 1476.02 757.789Z" fill="#023A63" fill-rule="evenodd"/><path d="M1532.78 757.258C1533.85 755.86 1535.5 754.94 1537.29 754.971 1539.13 755.002 1540.78 755.977 1541.8 757.427 1542.09 757.84 1542.89 757.454 1542.89 756.748 1542.88 753.641 1540.33 751.003 1537.29 750.944 1534.23 750.889 1531.54 753.628 1531.56 756.8 1531.56 757.492 1532.43 757.72 1532.78 757.258Z" fill="#023A63" fill-rule="evenodd"/></g></g></g></g></svg>