<svg width="550" height="550" xmlns="http://www.w3.org/2000/svg" xmlns:xlink="http://www.w3.org/1999/xlink" overflow="hidden"><defs><clipPath id="clip0"><rect x="32" y="38" width="550" height="550"/></clipPath><radialGradient cx="762000" cy="762000" r="1.07763e+06" gradientUnits="userSpaceOnUse" spreadMethod="pad" id="fill1" gradientTransform="matrix(0.000360892 0 0 0.000360892 32 38.0002)"><stop offset="0" stop-color="#FFFFFF"/><stop offset="0.26" stop-color="#FFFFFF"/><stop offset="0.5" stop-color="#20A0FB"/><stop offset="1" stop-color="#0F1113"/></radialGradient><radialGradient cx="374072" cy="419792" r="562278" gradientUnits="userSpaceOnUse" spreadMethod="pad" id="fill2" gradientTransform="matrix(0.000360892 0 0 0.000360892 37.0001 46.0001)"><stop offset="0" stop-color="#FFFFFF"/><stop offset="0.54" stop-color="#20A0FB" stop-opacity="0"/><stop offset="1" stop-color="#20A0FB" stop-opacity="0"/></radialGradient><linearGradient x1="305.5" y1="44" x2="305.5" y2="198" gradientUnits="userSpaceOnUse" spreadMethod="reflect" id="fill3"><stop offset="0" stop-color="#F5FAFF" stop-opacity="0.231373"/><stop offset="0.32" stop-color="#FFFFFF" stop-opacity="0"/><stop offset="1" stop-color="#FFFFFF" stop-opacity="0"/></linearGradient><radialGradient cx="94211" cy="102524" r="139237" fx="94211" fy="102524" gradientUnits="userSpaceOnUse" spreadMethod="pad" id="fill4" gradientTransform="matrix(0.000360892 0 0 0.000360892 34 83.9999)"><stop offset="0" stop-color="#FFFFFF"/><stop offset="0.54" stop-color="#20A0FB" stop-opacity="0"/><stop offset="1" stop-color="#20A0FB" stop-opacity="0"/></radialGradient><radialGradient cx="112222" cy="120534" r="164689" gradientUnits="userSpaceOnUse" spreadMethod="pad" id="fill5" gradientTransform="matrix(0.000360892 0 0 0.000360892 54 131)"><stop offset="0" stop-color="#FFFFFF"/><stop offset="0.54" stop-color="#20A0FB" stop-opacity="0"/><stop offset="1" stop-color="#20A0FB" stop-opacity="0"/></radialGradient><radialGradient cx="293717" cy="278477" r="404745" fx="293716" fy="278476" gradientUnits="userSpaceOnUse" spreadMethod="pad" id="fill6" gradientTransform="matrix(0.000360892 0 0 0.000360892 364 360)"><stop offset="0" stop-color="#FFFFFF"/><stop offset="0.54" stop-color="#20A0FB" stop-opacity="0"/><stop offset="1" stop-color="#20A0FB" stop-opacity="0"/></radialGradient><radialGradient cx="72044" cy="77585.5" r="105877" fx="72044" fy="77585.5" gradientUnits="userSpaceOnUse" spreadMethod="pad" id="fill7" gradientTransform="matrix(0.000360892 0 0 0.000360892 525 488)"><stop offset="0" stop-color="#FFFFFF"/><stop offset="0.54" stop-color="#20A0FB" stop-opacity="0"/><stop offset="1" stop-color="#20A0FB" stop-opacity="0"/></radialGradient><radialGradient cx="77585.5" cy="83127" r="113708" gradientUnits="userSpaceOnUse" spreadMethod="pad" id="fill8" gradientTransform="matrix(0.000360892 0 0 0.000360892 521 433)"><stop offset="0" stop-color="#FFFFFF"/><stop offset="0.54" stop-color="#20A0FB" stop-opacity="0"/><stop offset="1" stop-color="#20A0FB" stop-opacity="0"/></radialGradient><clipPath id="clip9"><rect x="46" y="51" width="525" height="527"/></clipPath><clipPath id="clip10"><rect x="46" y="51" width="525" height="527"/></clipPath><clipPath id="clip11"><rect x="46" y="51" width="525" height="527"/></clipPath><clipPath id="clip12"><rect x="115" y="148" width="345" height="344"/></clipPath><clipPath id="clip13"><rect x="115" y="148" width="345" height="344"/></clipPath><clipPath id="clip14"><rect x="115" y="148" width="345" height="344"/></clipPath></defs><g clip-path="url(#clip0)" transform="translate(-32 -38)"><rect x="32" y="38.0002" width="550" height="550" fill="url(#fill1)"/><path d="M37.0001 197.5C37.0001 113.829 97.4417 46.0001 172 46.0001 246.558 46.0001 307 113.829 307 197.5 307 281.171 246.558 349 172 349 97.4417 349 37.0001 281.171 37.0001 197.5Z" fill="url(#fill2)" fill-rule="evenodd"/><path d="M66.7339 44 544.266 44C560.136 44 573 63.8639 573 88.3676L573 198C573 159.824 552.957 128.876 528.233 128.876L82.7669 128.876C58.0429 128.876 38.0002 159.824 38.0002 198L38.0002 88.3676C38.0002 63.8639 50.8646 44 66.7339 44Z" fill="url(#fill3)" fill-rule="evenodd"/><path d="M34 121C34 100.565 49.2224 83.9999 68.0001 83.9999 86.7778 83.9999 102 100.565 102 121 102 141.435 86.7778 158 68.0001 158 49.2224 158 34 141.435 34 121Z" fill="url(#fill4)" fill-rule="evenodd"/><path d="M54 174.5C54 150.476 72.1325 131 94.5 131 116.868 131 135 150.476 135 174.5 135 198.524 116.868 218 94.5 218 72.1325 218 54 198.524 54 174.5Z" fill="url(#fill5)" fill-rule="evenodd"/><path d="M364 460.5C364 404.995 411.458 360 470 360 528.542 360 576 404.995 576 460.5 576 516.005 528.542 561 470 561 411.458 561 364 516.005 364 460.5Z" fill="url(#fill6)" fill-rule="evenodd"/><path d="M525 516C525 500.536 536.641 488 551 488 565.359 488 577 500.536 577 516 577 531.464 565.359 544 551 544 536.641 544 525 531.464 525 516Z" fill="url(#fill7)" fill-rule="evenodd"/><path d="M521 463C521 446.432 533.536 433 549 433 564.464 433 577 446.432 577 463 577 479.569 564.464 493 549 493 533.536 493 521 479.569 521 463Z" fill="url(#fill8)" fill-rule="evenodd"/><g clip-path="url(#clip9)"><g clip-path="url(#clip10)"><g clip-path="url(#clip11)"><path d="M244.157 298.339 214.967 505.075C214.296 509.874 210.589 513.676 205.81 514.473 201.032 515.269 196.286 512.884 194.092 508.571L119.94 363.147C117.903 359.146 116.874 354.704 116.938 350.221L119.92 151.885C119.973 148.148 122.355 144.851 125.884 143.612 129.412 142.373 133.329 143.486 135.702 146.384L235.955 268.993C242.663 277.205 245.645 287.84 244.155 298.34ZM241.006 261.842C248.125 270.546 259.371 274.767 270.448 272.899L519.642 230.993C522.971 230.436 525.618 227.906 526.344 224.62 527.057 221.323 525.692 217.931 522.91 216.041L373.988 115.219C370.335 112.741 365.977 111.502 361.557 111.692L146.181 120.827C142.421 120.984 139.071 123.262 137.528 126.685 135.995 130.118 136.532 134.13 138.914 137.048ZM534.692 242.689C532.391 239.834 528.737 238.437 525.115 239.046L282.145 279.911C266.301 282.579 254.015 295.199 251.758 311.096L222.819 515.741C222.021 521.381 224.236 527.029 228.657 530.63 233.078 534.221 239.074 535.228 244.428 533.298L446.386 460.345C450.722 458.781 454.188 455.442 455.921 451.157L536.184 252.834C537.549 249.421 536.98 245.547 534.692 242.691Z" fill="#FFFFFF"/></g></g></g><g clip-path="url(#clip12)"><g clip-path="url(#clip13)"><g clip-path="url(#clip14)"><path d="M339.184 154.8C334.368 146.888 331.272 138.288 330.24 129 329.896 126.936 329.208 124.528 328.176 122.808 326.456 120.056 324.392 117.304 322.328 114.552 325.768 111.8 328.176 108.016 329.208 103.544 324.392 103.544 319.232 104.576 314.76 106.64 313.728 105.608 312.696 104.92 311.664 103.888 313.728 100.104 315.448 95.9759 316.48 91.8479 310.632 91.5039 305.472 93.5679 301.344 97.0079 300.312 96.3199 299.28 95.9759 298.248 95.2879 278.64 85.6559 261.44 72.2399 247.68 54.352 189.2 58.48 136.568 90.4719 105.264 140.008 78.4319 166.152 41.968 180.256 4.128 178.88 17.2 195.048 37.84 203.304 58.48 199.52 79.1199 196.08 95.9759 181.288 102.512 161.68 100.792 176.128 104.232 190.576 111.8 202.616 87.0319 224.288 72.2399 254.904 71.2079 287.928 74.9919 289.304 79.4639 289.304 83.2479 287.584 80.1519 256.28 100.448 227.384 131.064 219.472 132.44 209.152 136.568 199.864 142.416 191.952 149.64 194.704 155.832 199.176 160.992 205.368 156.176 215.344 149.296 223.944 140.696 230.48 150.328 241.488 159.96 252.152 169.592 263.16 176.128 263.848 182.664 263.848 189.2 263.16 175.44 257.312 162.712 245.616 155.488 232.544 170.28 224.976 183.008 214.656 192.984 201.584 190.576 188.512 182.664 177.16 171.312 170.968 179.568 167.872 188.856 166.84 198.144 167.528L198.144 167.528 202.272 179.912 202.272 179.912C203.992 197.8 201.584 216.032 195.048 233.232 203.304 242.52 208.12 250.776 209.84 263.16 214.656 264.536 220.16 264.536 224.976 263.16 217.064 255.592 212.248 242.864 210.528 232.2 210.528 223.256 212.592 214.656 216.376 206.744 224.976 223.6 230.136 242.52 230.48 261.784 241.144 267.976 249.744 277.264 254.56 288.616 259.72 289.648 264.88 289.648 270.04 288.616 259.032 278.296 250.088 265.912 243.552 252.496 234.952 224.632 230.48 195.392 230.48 166.152 235.296 162.712 239.08 157.896 241.488 152.736 256.624 156.864 272.792 154.8 286.552 147.92 298.248 152.736 309.256 158.928 319.576 166.152 321.64 167.528 324.048 165.12 322.672 163.056 319.576 158.24 316.824 153.08 314.416 147.92 314.416 147.92 314.416 147.576 314.416 147.92 319.92 153.768 326.456 158.24 333.68 161.68 337.464 163.056 341.248 158.584 339.184 154.8ZM321.984 137.256C321.64 137.6 321.296 137.6 320.608 137.256 318.888 136.912 317.856 135.192 317.512 133.472L317.512 131.408 319.576 132.096C321.296 132.784 322.328 134.16 322.328 136.224 322.328 136.568 322.328 136.912 321.984 137.256Z" fill="#023A63" transform="matrix(1 0 0 1 116 148)"/></g></g></g></g></svg>