<svg width="550" height="550" xmlns="http://www.w3.org/2000/svg" xmlns:xlink="http://www.w3.org/1999/xlink" overflow="hidden"><defs><clipPath id="clip0"><rect x="656" y="1233" width="550" height="550"/></clipPath><radialGradient cx="762000" cy="762000" r="1.07763e+06" gradientUnits="userSpaceOnUse" spreadMethod="pad" id="fill1" gradientTransform="matrix(0.000360892 0 0 0.000360892 656 1233)"><stop offset="0" stop-color="#FFFFFF"/><stop offset="0.26" stop-color="#FFFFFF"/><stop offset="0.5" stop-color="#20A0FB"/><stop offset="1" stop-color="#0F1113"/></radialGradient><radialGradient cx="374072" cy="421178" r="563313" fx="374072" fy="421178" gradientUnits="userSpaceOnUse" spreadMethod="pad" id="fill2" gradientTransform="matrix(0.000360892 0 0 0.000360892 661 1240)"><stop offset="0" stop-color="#FFFFFF"/><stop offset="0.54" stop-color="#20A0FB" stop-opacity="0"/><stop offset="1" stop-color="#20A0FB" stop-opacity="0"/></radialGradient><linearGradient x1="929" y1="1238" x2="929" y2="1393" gradientUnits="userSpaceOnUse" spreadMethod="reflect" id="fill3"><stop offset="0" stop-color="#F5FAFF" stop-opacity="0.231373"/><stop offset="0.32" stop-color="#FFFFFF" stop-opacity="0"/><stop offset="1" stop-color="#FFFFFF" stop-opacity="0"/></linearGradient><radialGradient cx="94211" cy="102524" r="139236" gradientUnits="userSpaceOnUse" spreadMethod="pad" id="fill4" gradientTransform="matrix(0.000360892 0 0 0.000360892 658 1279)"><stop offset="0" stop-color="#FFFFFF"/><stop offset="0.54" stop-color="#20A0FB" stop-opacity="0"/><stop offset="1" stop-color="#20A0FB" stop-opacity="0"/></radialGradient><radialGradient cx="110837" cy="120535" r="163748" fx="110836" fy="120535" gradientUnits="userSpaceOnUse" spreadMethod="pad" id="fill5" gradientTransform="matrix(0.000360892 0 0 0.000360892 678 1326)"><stop offset="0" stop-color="#FFFFFF"/><stop offset="0.54" stop-color="#20A0FB" stop-opacity="0"/><stop offset="1" stop-color="#20A0FB" stop-opacity="0"/></radialGradient><radialGradient cx="292331" cy="278476" r="403740" gradientUnits="userSpaceOnUse" spreadMethod="pad" id="fill6" gradientTransform="matrix(0.000360892 0 0 0.000360892 988 1554)"><stop offset="0" stop-color="#FFFFFF"/><stop offset="0.54" stop-color="#20A0FB" stop-opacity="0"/><stop offset="1" stop-color="#20A0FB" stop-opacity="0"/></radialGradient><radialGradient cx="72043.5" cy="77585.5" r="105876" fx="72043.5" fy="77585.5" gradientUnits="userSpaceOnUse" spreadMethod="pad" id="fill7" gradientTransform="matrix(0.000360892 0 0 0.000360892 1149 1682)"><stop offset="0" stop-color="#FFFFFF"/><stop offset="0.54" stop-color="#20A0FB" stop-opacity="0"/><stop offset="1" stop-color="#20A0FB" stop-opacity="0"/></radialGradient><radialGradient cx="77585.5" cy="84513" r="114726" fx="77585.5" fy="84513" gradientUnits="userSpaceOnUse" spreadMethod="pad" id="fill8" gradientTransform="matrix(0.000360892 0 0 0.000360892 1145 1627)"><stop offset="0" stop-color="#FFFFFF"/><stop offset="0.54" stop-color="#20A0FB" stop-opacity="0"/><stop offset="1" stop-color="#20A0FB" stop-opacity="0"/></radialGradient><clipPath id="clip9"><rect x="668" y="1247" width="527" height="526"/></clipPath><clipPath id="clip10"><rect x="668" y="1247" width="527" height="526"/></clipPath><clipPath id="clip11"><rect x="668" y="1247" width="527" height="526"/></clipPath><clipPath id="clip12"><rect x="693" y="1303" width="420" height="420"/></clipPath><clipPath id="clip13"><rect x="693" y="1303" width="420" height="420"/></clipPath><clipPath id="clip14"><rect x="693" y="1303" width="420" height="420"/></clipPath><clipPath id="clip15"><rect x="848" y="1360" width="172" height="174"/></clipPath><clipPath id="clip16"><rect x="848" y="1360" width="172" height="174"/></clipPath><clipPath id="clip17"><rect x="848" y="1360" width="172" height="174"/></clipPath></defs><g clip-path="url(#clip0)" transform="translate(-656 -1233)"><rect x="656" y="1233" width="550" height="550" fill="url(#fill1)"/><path d="M661 1392C661 1308.05 721.442 1240 796 1240 870.558 1240 931 1308.05 931 1392 931 1475.95 870.558 1544 796 1544 721.442 1544 661 1475.95 661 1392Z" fill="url(#fill2)" fill-rule="evenodd"/><path d="M689.787 1238 1168.21 1238C1184.11 1238 1197 1257.99 1197 1282.66L1197 1393C1197 1354.58 1176.92 1323.43 1152.15 1323.43L705.85 1323.43C681.08 1323.43 661 1354.58 661 1393L661 1282.66C661 1257.99 673.889 1238 689.787 1238Z" fill="url(#fill3)" fill-rule="evenodd"/><path d="M658 1316C658 1295.57 673.222 1279 692 1279 710.778 1279 726 1295.57 726 1316 726 1336.43 710.778 1353 692 1353 673.222 1353 658 1336.43 658 1316Z" fill="url(#fill4)" fill-rule="evenodd"/><path d="M678 1369.5C678 1345.48 695.909 1326 718 1326 740.091 1326 758 1345.48 758 1369.5 758 1393.52 740.091 1413 718 1413 695.909 1413 678 1393.52 678 1369.5Z" fill="url(#fill5)" fill-rule="evenodd"/><path d="M988 1654.5C988 1599 1035.23 1554 1093.5 1554 1151.77 1554 1199 1599 1199 1654.5 1199 1710 1151.77 1755 1093.5 1755 1035.23 1755 988 1710 988 1654.5Z" fill="url(#fill6)" fill-rule="evenodd"/><path d="M1149 1710C1149 1694.54 1160.64 1682 1175 1682 1189.36 1682 1201 1694.54 1201 1710 1201 1725.46 1189.36 1738 1175 1738 1160.64 1738 1149 1725.46 1149 1710Z" fill="url(#fill7)" fill-rule="evenodd"/><path d="M1145 1657.5C1145 1640.66 1157.54 1627 1173 1627 1188.46 1627 1201 1640.66 1201 1657.5 1201 1674.34 1188.46 1688 1173 1688 1157.54 1688 1145 1674.34 1145 1657.5Z" fill="url(#fill8)" fill-rule="evenodd"/><g clip-path="url(#clip9)"><g clip-path="url(#clip10)"><g clip-path="url(#clip11)"><path d="M198.157 246.339 168.967 453.075C168.296 457.874 164.589 461.676 159.81 462.472 155.032 463.269 150.286 460.884 148.092 456.571L73.9401 311.146C71.9031 307.146 70.8741 302.704 70.9376 298.221L73.9195 99.8852C73.9725 96.1476 76.3547 92.851 79.884 91.612 83.4115 90.373 87.3285 91.4856 89.7019 94.384L189.955 216.993C196.663 225.205 199.645 235.84 198.155 246.34ZM195.006 209.842C202.125 218.546 213.37 222.767 224.448 220.899L473.642 178.993C476.971 178.436 479.618 175.906 480.344 172.62 481.057 169.323 479.692 165.931 476.91 164.041L327.988 63.2192C324.335 60.7412 319.977 59.5022 315.557 59.692L100.18 68.8266C96.4206 68.9837 93.0711 71.2617 91.528 74.6847 89.995 78.1182 90.5319 82.1297 92.914 85.0482ZM488.692 190.689C486.391 187.834 482.737 186.437 479.115 187.046L236.145 227.911C220.301 230.579 208.015 243.199 205.758 259.096L176.819 463.741C176.021 469.381 178.236 475.029 182.657 478.629 187.078 482.221 193.074 483.227 198.428 481.298L400.386 408.344C404.722 406.78 408.188 403.441 409.921 399.157L490.184 200.834C491.549 197.421 490.98 193.547 488.692 190.691Z" fill="#FFFFFF" transform="matrix(1.0019 0 0 1 669 1247)"/></g></g></g><g clip-path="url(#clip12)"><g clip-path="url(#clip13)"><g clip-path="url(#clip14)"><path d="M918.422 1315.31C837.136 1315.31 770.934 1378.16 765.068 1457.77 765.068 1458.61 764.649 1459.03 764.649 1459.87 755.012 1473.69 736.576 1500.51 734.062 1506.38 727.358 1511.82 745.375 1525.65 752.079 1527.75 754.593 1528.58 762.135 1528.16 764.23 1527.75L764.23 1607.36C764.23 1616.15 771.353 1623.28 780.152 1623.28L843.84 1623.28 843.84 1696.18C843.84 1704.98 850.963 1712.11 859.762 1712.11L1003.06 1712.11C1021.92 1712.11 1037.42 1696.6 1037.42 1677.75L1037.42 1566.71C1059.21 1540.32 1072.2 1506.38 1072.2 1469.09 1072.61 1384.03 1003.48 1315.31 918.422 1315.31ZM1036.58 1472.44C1021.5 1516.85 963.674 1537.38 907.109 1518.53 850.544 1499.25 817.024 1447.72 832.108 1403.3 847.192 1358.89 905.014 1338.36 961.579 1357.21 1018.14 1376.07 1051.66 1427.6 1036.58 1472.44Z" fill="#023A63"/></g></g></g><g clip-path="url(#clip15)"><g clip-path="url(#clip16)"><g clip-path="url(#clip17)"><path d="M155.316 145.684 106.296 77.3999C104.748 75.3359 102.34 73.9599 99.7599 73.9599L89.0959 73.9599 96.4919 91.6759C97.1799 93.5679 96.6639 95.6319 94.9439 96.8359L84.4519 103.888 90.6439 116.616C91.6759 118.68 90.6439 121.26 88.7519 122.292 88.0639 122.636 87.5479 122.636 86.8599 122.636 85.3119 122.636 83.7639 121.776 83.0759 120.228L75.1639 104.232C74.3039 102.34 74.9919 100.104 76.5399 98.8999L87.2039 91.6759 79.9799 73.9599 72.2399 73.9599C69.66 73.9599 67.2519 75.1639 65.7039 77.2279L16.512 145.684C13.416 149.984 15.308 156.176 20.296 158.068 31.476 162.196 52.804 167.7 85.9999 167.7 119.196 167.7 140.524 162.024 151.704 158.068 156.692 156.176 158.584 149.984 155.316 145.684Z" fill="#023A63" transform="matrix(1 0 0 1 848 1361)"/><path d="M67.768 39.56C67.5959 40.248 67.424 40.764 67.424 41.624 67.424 47.472 72.0679 52.116 77.9159 52.116 79.2919 52.116 80.6679 51.772 81.8719 51.256L83.7639 63.984C84.1079 66.7359 88.0639 66.7359 88.4079 63.984L90.2999 51.256C91.5039 51.772 92.8799 52.116 94.2559 52.116 100.104 52.116 104.748 47.472 104.748 41.624 104.748 40.936 104.404 40.248 104.404 39.56 108.876 37.152 111.972 32.68 111.972 27.176 111.972 20.124 106.64 14.276 99.9319 13.416 97.6959 8.08399 92.5359 4.3 86.3439 4.3 80.1519 4.3 74.9919 8.08399 72.7559 13.416 65.8759 14.276 60.716 20.124 60.716 27.176 60.2 32.68 63.296 37.152 67.768 39.56Z" fill="#023A63" transform="matrix(1 0 0 1 848 1361)"/></g></g></g></g></svg>