<svg width="550" height="550" xmlns="http://www.w3.org/2000/svg" xmlns:xlink="http://www.w3.org/1999/xlink" overflow="hidden"><defs><clipPath id="clip0"><rect x="1250" y="38" width="550" height="550"/></clipPath><radialGradient cx="762000" cy="762000" r="1.07763e+06" gradientUnits="userSpaceOnUse" spreadMethod="pad" id="fill1" gradientTransform="matrix(0.000360892 0 0 0.000360892 1250 38.0002)"><stop offset="0" stop-color="#FFFFFF"/><stop offset="0.26" stop-color="#FFFFFF"/><stop offset="0.5" stop-color="#20A0FB"/><stop offset="1" stop-color="#0F1113"/></radialGradient><radialGradient cx="374072" cy="419792" r="562278" gradientUnits="userSpaceOnUse" spreadMethod="pad" id="fill2" gradientTransform="matrix(0.000360892 0 0 0.000360892 1255 46.0001)"><stop offset="0" stop-color="#FFFFFF"/><stop offset="0.54" stop-color="#20A0FB" stop-opacity="0"/><stop offset="1" stop-color="#20A0FB" stop-opacity="0"/></radialGradient><linearGradient x1="1522.5" y1="44" x2="1522.5" y2="198" gradientUnits="userSpaceOnUse" spreadMethod="reflect" id="fill3"><stop offset="0" stop-color="#F5FAFF" stop-opacity="0.231373"/><stop offset="0.32" stop-color="#FFFFFF" stop-opacity="0"/><stop offset="1" stop-color="#FFFFFF" stop-opacity="0"/></linearGradient><radialGradient cx="94211" cy="102524" r="139237" fx="94211" fy="102524" gradientUnits="userSpaceOnUse" spreadMethod="pad" id="fill4" gradientTransform="matrix(0.000360892 0 0 0.000360892 1252 83.9999)"><stop offset="0" stop-color="#FFFFFF"/><stop offset="0.54" stop-color="#20A0FB" stop-opacity="0"/><stop offset="1" stop-color="#20A0FB" stop-opacity="0"/></radialGradient><radialGradient cx="110836" cy="120534" r="163748" gradientUnits="userSpaceOnUse" spreadMethod="pad" id="fill5" gradientTransform="matrix(0.000360892 0 0 0.000360892 1272 131)"><stop offset="0" stop-color="#FFFFFF"/><stop offset="0.54" stop-color="#20A0FB" stop-opacity="0"/><stop offset="1" stop-color="#20A0FB" stop-opacity="0"/></radialGradient><radialGradient cx="292331" cy="278477" r="403741" fx="292331" fy="278476" gradientUnits="userSpaceOnUse" spreadMethod="pad" id="fill6" gradientTransform="matrix(0.000360892 0 0 0.000360892 1582 360)"><stop offset="0" stop-color="#FFFFFF"/><stop offset="0.54" stop-color="#20A0FB" stop-opacity="0"/><stop offset="1" stop-color="#20A0FB" stop-opacity="0"/></radialGradient><radialGradient cx="72043.5" cy="77585.5" r="105876" fx="72043.5" fy="77585.5" gradientUnits="userSpaceOnUse" spreadMethod="pad" id="fill7" gradientTransform="matrix(0.000360892 0 0 0.000360892 1743 488)"><stop offset="0" stop-color="#FFFFFF"/><stop offset="0.54" stop-color="#20A0FB" stop-opacity="0"/><stop offset="1" stop-color="#20A0FB" stop-opacity="0"/></radialGradient><radialGradient cx="77585.5" cy="83127" r="113708" gradientUnits="userSpaceOnUse" spreadMethod="pad" id="fill8" gradientTransform="matrix(0.000360892 0 0 0.000360892 1739 433)"><stop offset="0" stop-color="#FFFFFF"/><stop offset="0.54" stop-color="#20A0FB" stop-opacity="0"/><stop offset="1" stop-color="#20A0FB" stop-opacity="0"/></radialGradient><clipPath id="clip9"><rect x="1262" y="51" width="527" height="527"/></clipPath><clipPath id="clip10"><rect x="1262" y="51" width="527" height="527"/></clipPath><clipPath id="clip11"><rect x="1262" y="51" width="527" height="527"/></clipPath><clipPath id="clip12"><rect x="1309" y="110" width="420" height="420"/></clipPath><clipPath id="clip13"><rect x="1309" y="110" width="420" height="420"/></clipPath><clipPath id="clip14"><rect x="1309" y="110" width="420" height="420"/></clipPath><clipPath id="clip15"><rect x="1476" y="159" width="155" height="155"/></clipPath><clipPath id="clip16"><rect x="1476" y="159" width="155" height="155"/></clipPath><clipPath id="clip17"><rect x="1476" y="159" width="155" height="155"/></clipPath></defs><g clip-path="url(#clip0)" transform="translate(-1250 -38)"><rect x="1250" y="38.0002" width="550" height="550" fill="url(#fill1)"/><path d="M1255 197.5C1255 113.829 1315.44 46.0001 1390 46.0001 1464.56 46.0001 1525 113.829 1525 197.5 1525 281.171 1464.56 349 1390 349 1315.44 349 1255 281.171 1255 197.5Z" fill="url(#fill2)" fill-rule="evenodd"/><path d="M1283.73 44 1761.27 44C1777.14 44 1790 63.8639 1790 88.3676L1790 198C1790 159.824 1769.96 128.876 1745.23 128.876L1299.77 128.876C1275.04 128.876 1255 159.824 1255 198L1255 88.3676C1255 63.8639 1267.86 44 1283.73 44Z" fill="url(#fill3)" fill-rule="evenodd"/><path d="M1252 121C1252 100.565 1267.22 83.9999 1286 83.9999 1304.78 83.9999 1320 100.565 1320 121 1320 141.435 1304.78 158 1286 158 1267.22 158 1252 141.435 1252 121Z" fill="url(#fill4)" fill-rule="evenodd"/><path d="M1272 174.5C1272 150.476 1289.91 131 1312 131 1334.09 131 1352 150.476 1352 174.5 1352 198.524 1334.09 218 1312 218 1289.91 218 1272 198.524 1272 174.5Z" fill="url(#fill5)" fill-rule="evenodd"/><path d="M1582 460.5C1582 404.995 1629.23 360 1687.5 360 1745.77 360 1793 404.995 1793 460.5 1793 516.005 1745.77 561 1687.5 561 1629.23 561 1582 516.005 1582 460.5Z" fill="url(#fill6)" fill-rule="evenodd"/><path d="M1743 516C1743 500.536 1754.64 488 1769 488 1783.36 488 1795 500.536 1795 516 1795 531.464 1783.36 544 1769 544 1754.64 544 1743 531.464 1743 516Z" fill="url(#fill7)" fill-rule="evenodd"/><path d="M1739 463C1739 446.432 1751.54 433 1767 433 1782.46 433 1795 446.432 1795 463 1795 479.569 1782.46 493 1767 493 1751.54 493 1739 479.569 1739 463Z" fill="url(#fill8)" fill-rule="evenodd"/><g clip-path="url(#clip9)"><g clip-path="url(#clip10)"><g clip-path="url(#clip11)"><path d="M198.157 246.339 168.967 453.075C168.296 457.875 164.589 461.676 159.811 462.473 155.032 463.269 150.286 460.885 148.092 456.571L73.9402 311.147C71.9032 307.146 70.8742 302.704 70.9376 298.222L73.9196 99.8852C73.9725 96.1477 76.3547 92.8511 79.884 91.6121 83.4116 90.3731 87.3285 91.4857 89.702 94.3841L189.955 216.994C196.663 225.205 199.645 235.84 198.155 246.34ZM195.006 209.842C202.125 218.546 213.371 222.767 224.448 220.899L473.642 178.993C476.971 178.436 479.618 175.906 480.345 172.62 481.058 169.324 479.693 165.931 476.91 164.041L327.989 63.2192C324.335 60.7412 319.977 59.5022 315.558 59.6921L100.181 68.8267C96.4207 68.9837 93.0712 71.2618 91.5281 74.6848 89.9951 78.1183 90.5319 82.1297 92.9141 85.0483ZM488.692 190.689C486.391 187.834 482.738 186.437 479.115 187.046L236.145 227.911C220.301 230.579 208.015 243.199 205.758 259.096L176.819 463.741C176.021 469.381 178.236 475.029 182.657 478.63 187.078 482.221 193.074 483.228 198.428 481.298L400.387 408.345C404.722 406.781 408.188 403.442 409.921 399.157L490.184 200.834C491.549 197.421 490.98 193.547 488.692 190.691Z" fill="#FFFFFF" transform="matrix(1.0019 0 0 1 1263 51.9999)"/></g></g></g><g clip-path="url(#clip12)"><g clip-path="url(#clip13)"><g clip-path="url(#clip14)"><path d="M1534.42 121.313C1453.14 121.313 1386.93 184.163 1381.07 263.773 1381.07 264.611 1380.65 265.03 1380.65 265.868 1371.01 279.695 1352.58 306.511 1350.06 312.377 1343.36 317.824 1361.38 331.651 1368.08 333.746 1370.59 334.584 1378.14 334.165 1380.23 333.746L1380.23 413.356C1380.23 422.155 1387.35 429.278 1396.15 429.278L1459.84 429.278 1459.84 502.184C1459.84 510.983 1466.96 518.106 1475.76 518.106L1619.06 518.106C1637.92 518.106 1653.42 502.603 1653.42 483.748L1653.42 372.713C1675.21 346.316 1688.2 312.377 1688.2 275.086 1688.61 190.029 1619.48 121.313 1534.42 121.313ZM1652.58 278.438C1637.5 322.852 1579.67 343.383 1523.11 324.528 1466.54 305.254 1433.02 253.717 1448.11 209.303 1463.19 164.889 1521.01 144.358 1577.58 163.213 1634.14 182.068 1667.66 233.605 1652.58 278.438Z" fill="#023A63"/></g></g></g><g clip-path="url(#clip15)"><g clip-path="url(#clip16)"><g clip-path="url(#clip17)"><path d="M148.56 124.094 86.5615 16.7107C84.4853 13.1121 80.6449 10.8952 76.491 10.8952 72.334 10.8952 68.4937 13.1121 66.4174 16.7107L4.09429 124.659C2.01807 128.257 2.01807 132.691 4.09429 136.29 6.17203 139.888 10.0108 142.105 14.1678 142.105L138.814 142.105C138.82 142.105 138.829 142.105 138.834 142.105 145.257 142.105 150.465 136.899 150.465 130.474 150.464 128.118 149.764 125.925 148.56 124.094ZM76.8857 131.903C74.1654 132.117 71.7862 130.084 71.572 127.362 71.5521 127.111 71.5537 126.836 71.572 126.591L71.9867 121.291C72.1825 118.8 74.3597 116.937 76.8536 117.132 79.1058 117.308 80.8423 119.108 81.0121 121.291L81.4268 126.591C81.6395 129.313 79.6076 131.692 76.8857 131.903ZM83.0073 42.4714 81.0121 105.648C80.9326 108.141 78.8487 110.098 76.3579 110.018 73.9665 109.943 72.0662 108.006 71.9882 105.648L69.9931 42.4714C69.8798 38.8789 72.7027 35.8725 76.2936 35.7592 79.8891 35.646 82.8925 38.4673 83.0073 42.0613 83.0119 42.1929 83.0119 42.3428 83.0073 42.4714Z" fill="#023A63" transform="matrix(1.00653 0 0 1 1476 160)"/></g></g></g></g></svg>