<svg width="550" height="550" xmlns="http://www.w3.org/2000/svg" xmlns:xlink="http://www.w3.org/1999/xlink" overflow="hidden"><defs><clipPath id="clip0"><rect x="2439" y="629" width="550" height="550"/></clipPath><radialGradient cx="762000" cy="762000" r="1.07763e+06" gradientUnits="userSpaceOnUse" spreadMethod="pad" id="fill1" gradientTransform="matrix(0.000360892 0 0 0.000360892 2439 629)"><stop offset="0" stop-color="#FFFFFF"/><stop offset="0.26" stop-color="#FFFFFF"/><stop offset="0.5" stop-color="#20A0FB"/><stop offset="1" stop-color="#0F1113"/></radialGradient><radialGradient cx="374072" cy="419793" r="562278" gradientUnits="userSpaceOnUse" spreadMethod="pad" id="fill2" gradientTransform="matrix(0.000360892 0 0 0.000360892 2444 637)"><stop offset="0" stop-color="#FFFFFF"/><stop offset="0.54" stop-color="#20A0FB" stop-opacity="0"/><stop offset="1" stop-color="#20A0FB" stop-opacity="0"/></radialGradient><linearGradient x1="2711.5" y1="635" x2="2711.5" y2="789" gradientUnits="userSpaceOnUse" spreadMethod="reflect" id="fill3"><stop offset="0" stop-color="#F5FAFF" stop-opacity="0.231373"/><stop offset="0.32" stop-color="#FFFFFF" stop-opacity="0"/><stop offset="1" stop-color="#FFFFFF" stop-opacity="0"/></linearGradient><radialGradient cx="94211" cy="102524" r="139236" gradientUnits="userSpaceOnUse" spreadMethod="pad" id="fill4" gradientTransform="matrix(0.000360892 0 0 0.000360892 2441 675)"><stop offset="0" stop-color="#FFFFFF"/><stop offset="0.54" stop-color="#20A0FB" stop-opacity="0"/><stop offset="1" stop-color="#20A0FB" stop-opacity="0"/></radialGradient><radialGradient cx="110836" cy="120534" r="163748" gradientUnits="userSpaceOnUse" spreadMethod="pad" id="fill5" gradientTransform="matrix(0.000360892 0 0 0.000360892 2461 722)"><stop offset="0" stop-color="#FFFFFF"/><stop offset="0.54" stop-color="#20A0FB" stop-opacity="0"/><stop offset="1" stop-color="#20A0FB" stop-opacity="0"/></radialGradient><radialGradient cx="292331" cy="279862" r="404697" gradientUnits="userSpaceOnUse" spreadMethod="pad" id="fill6" gradientTransform="matrix(0.000360892 0 0 0.000360892 2771 950)"><stop offset="0" stop-color="#FFFFFF"/><stop offset="0.54" stop-color="#20A0FB" stop-opacity="0"/><stop offset="1" stop-color="#20A0FB" stop-opacity="0"/></radialGradient><radialGradient cx="72044" cy="77585.5" r="105877" fx="72044" fy="77585.5" gradientUnits="userSpaceOnUse" spreadMethod="pad" id="fill7" gradientTransform="matrix(0.000360892 0 0 0.000360892 2932 1079)"><stop offset="0" stop-color="#FFFFFF"/><stop offset="0.54" stop-color="#20A0FB" stop-opacity="0"/><stop offset="1" stop-color="#20A0FB" stop-opacity="0"/></radialGradient><radialGradient cx="77585.5" cy="83127" r="113708" gradientUnits="userSpaceOnUse" spreadMethod="pad" id="fill8" gradientTransform="matrix(0.000360892 0 0 0.000360892 2928 1024)"><stop offset="0" stop-color="#FFFFFF"/><stop offset="0.54" stop-color="#20A0FB" stop-opacity="0"/><stop offset="1" stop-color="#20A0FB" stop-opacity="0"/></radialGradient><clipPath id="clip9"><rect x="2451" y="643" width="526" height="526"/></clipPath><clipPath id="clip10"><rect x="2451" y="643" width="526" height="526"/></clipPath><clipPath id="clip11"><rect x="2451" y="643" width="526" height="526"/></clipPath><clipPath id="clip12"><rect x="2494" y="711" width="441" height="441"/></clipPath><clipPath id="clip13"><rect x="2494" y="711" width="441" height="441"/></clipPath><clipPath id="clip14"><rect x="2494" y="711" width="441" height="441"/></clipPath></defs><g clip-path="url(#clip0)" transform="translate(-2439 -629)"><rect x="2439" y="629" width="550" height="550" fill="url(#fill1)"/><path d="M2444 788.5C2444 704.829 2504.44 637 2579 637 2653.56 637 2714 704.829 2714 788.5 2714 872.171 2653.56 940 2579 940 2504.44 940 2444 872.171 2444 788.5Z" fill="url(#fill2)" fill-rule="evenodd"/><path d="M2472.73 635 2950.27 635C2966.14 635 2979 654.864 2979 679.368L2979 789C2979 750.824 2958.96 719.876 2934.23 719.876L2488.77 719.876C2464.04 719.876 2444 750.824 2444 789L2444 679.368C2444 654.864 2456.86 635 2472.73 635Z" fill="url(#fill3)" fill-rule="evenodd"/><path d="M2441 712C2441 691.566 2456.22 675 2475 675 2493.78 675 2509 691.566 2509 712 2509 732.435 2493.78 749 2475 749 2456.22 749 2441 732.435 2441 712Z" fill="url(#fill4)" fill-rule="evenodd"/><path d="M2461 765.5C2461 741.475 2478.91 722 2501 722 2523.09 722 2541 741.475 2541 765.5 2541 789.524 2523.09 809 2501 809 2478.91 809 2461 789.524 2461 765.5Z" fill="url(#fill5)" fill-rule="evenodd"/><path d="M2771 1051C2771 995.219 2818.23 950 2876.5 950 2934.77 950 2982 995.219 2982 1051 2982 1106.78 2934.77 1152 2876.5 1152 2818.23 1152 2771 1106.78 2771 1051Z" fill="url(#fill6)" fill-rule="evenodd"/><path d="M2932 1107C2932 1091.54 2943.64 1079 2958 1079 2972.36 1079 2984 1091.54 2984 1107 2984 1122.46 2972.36 1135 2958 1135 2943.64 1135 2932 1122.46 2932 1107Z" fill="url(#fill7)" fill-rule="evenodd"/><path d="M2928 1054C2928 1037.43 2940.54 1024 2956 1024 2971.46 1024 2984 1037.43 2984 1054 2984 1070.57 2971.46 1084 2956 1084 2940.54 1084 2928 1070.57 2928 1054Z" fill="url(#fill8)" fill-rule="evenodd"/><g clip-path="url(#clip9)"><g clip-path="url(#clip10)"><g clip-path="url(#clip11)"><path d="M2650.16 889.339 2620.97 1096.08C2620.3 1100.87 2616.59 1104.68 2611.81 1105.47 2607.03 1106.27 2602.29 1103.88 2600.09 1099.57L2525.94 954.147C2523.9 950.146 2522.87 945.704 2522.94 941.222L2525.92 742.885C2525.97 739.148 2528.35 735.851 2531.88 734.612 2535.41 733.373 2539.33 734.486 2541.7 737.384L2641.96 859.994C2648.66 868.205 2651.64 878.84 2650.15 889.34ZM2647.01 852.842C2654.12 861.546 2665.37 865.767 2676.45 863.899L2925.64 821.993C2928.97 821.436 2931.62 818.906 2932.34 815.62 2933.06 812.324 2931.69 808.931 2928.91 807.041L2779.99 706.219C2776.33 703.741 2771.98 702.502 2767.56 702.692L2552.18 711.827C2548.42 711.984 2545.07 714.262 2543.53 717.685 2542 721.118 2542.53 725.13 2544.91 728.048ZM2940.69 833.689C2938.39 830.834 2934.74 829.437 2931.11 830.046L2688.15 870.911C2672.3 873.579 2660.02 886.199 2657.76 902.096L2628.82 1106.74C2628.02 1112.38 2630.24 1118.03 2634.66 1121.63 2639.08 1125.22 2645.07 1126.23 2650.43 1124.3L2852.39 1051.34C2856.72 1049.78 2860.19 1046.44 2861.92 1042.16L2942.18 843.834C2943.55 840.421 2942.98 836.547 2940.69 833.691Z" fill="#FFFFFF"/></g></g></g><g clip-path="url(#clip12)"><g clip-path="url(#clip13)"><g clip-path="url(#clip14)"><path d="M2860.41 966.375C2860.41 969.602 2857.79 972.219 2854.56 972.219 2851.34 972.219 2848.72 969.602 2848.72 966.375 2848.72 963.147 2851.34 960.531 2854.56 960.531 2857.79 960.531 2860.41 963.147 2860.41 966.375Z" fill="#023A63"/><path d="M2881.72 944.031C2881.72 948.587 2878.03 952.281 2873.47 952.281 2868.91 952.281 2865.22 948.587 2865.22 944.031 2865.22 939.475 2868.91 935.781 2873.47 935.781 2878.03 935.781 2881.72 939.475 2881.72 944.031Z" fill="#023A63"/><path d="M2838.75 979.781C2838.75 981.869 2837.06 983.562 2834.97 983.562 2832.88 983.562 2831.19 981.869 2831.19 979.781 2831.19 977.693 2832.88 976 2834.97 976 2837.06 976 2838.75 977.693 2838.75 979.781Z" fill="#023A63"/><path d="M2854.91 828.531C2854.91 828.531 2882.41 824.406 2900.28 796.562 2900.28 796.562 2871.75 805.844 2854.91 828.531Z" fill="#023A63"/><path d="M2921.25 811.344C2904.75 804.469 2888.94 817.875 2888.94 817.875 2911.62 818.906 2921.25 811.344 2921.25 811.344Z" fill="#023A63"/><path d="M2889.97 875.281C2889.97 882.685 2883.97 888.687 2876.56 888.687 2869.16 888.687 2863.16 882.685 2863.16 875.281 2863.16 867.877 2869.16 861.875 2876.56 861.875 2883.97 861.875 2889.97 867.877 2889.97 875.281Z" fill="#023A63"/><path d="M2877.94 825.781C2877.94 825.781 2899.25 822 2914.38 834.031 2914.38 834.031 2905.09 816.5 2877.94 825.781Z" fill="#023A63"/><path d="M2891.69 911.031C2891.69 916.347 2887.38 920.656 2882.06 920.656 2876.75 920.656 2872.44 916.347 2872.44 911.031 2872.44 905.715 2876.75 901.406 2882.06 901.406 2887.38 901.406 2891.69 905.715 2891.69 911.031Z" fill="#023A63"/><path d="M2581.28 966.375C2581.28 969.602 2578.67 972.219 2575.44 972.219 2572.21 972.219 2569.59 969.602 2569.59 966.375 2569.59 963.147 2572.21 960.531 2575.44 960.531 2578.67 960.531 2581.28 963.147 2581.28 966.375Z" fill="#023A63"/><path d="M2564.78 944.031C2564.78 948.587 2561.09 952.281 2556.53 952.281 2551.97 952.281 2548.28 948.587 2548.28 944.031 2548.28 939.475 2551.97 935.781 2556.53 935.781 2561.09 935.781 2564.78 939.475 2564.78 944.031Z" fill="#023A63"/><path d="M2598.81 979.781C2598.81 981.869 2597.12 983.562 2595.03 983.562 2592.94 983.562 2591.25 981.869 2591.25 979.781 2591.25 977.693 2592.94 976 2595.03 976 2597.12 976 2598.81 977.693 2598.81 979.781Z" fill="#023A63"/><path d="M2529.72 796.562C2547.25 824.062 2575.09 828.531 2575.09 828.531 2558.25 805.844 2529.72 796.562 2529.72 796.562Z" fill="#023A63"/><path d="M2541.06 818.219C2541.06 818.219 2525.25 804.469 2508.75 811.687 2508.75 811.344 2518.38 818.906 2541.06 818.219Z" fill="#023A63"/><path d="M2566.84 875.281C2566.84 882.685 2560.84 888.687 2553.44 888.687 2546.03 888.687 2540.03 882.685 2540.03 875.281 2540.03 867.877 2546.03 861.875 2553.44 861.875 2560.84 861.875 2566.84 867.877 2566.84 875.281Z" fill="#023A63"/><path d="M2552.06 825.781C2524.91 816.5 2515.62 834.031 2515.62 834.031 2531.09 822 2552.06 825.781 2552.06 825.781Z" fill="#023A63"/><path d="M2557.56 911.031C2557.56 916.347 2553.25 920.656 2547.94 920.656 2542.62 920.656 2538.31 916.347 2538.31 911.031 2538.31 905.715 2542.62 901.406 2547.94 901.406 2553.25 901.406 2557.56 905.715 2557.56 911.031Z" fill="#023A63"/><path d="M2681.31 863.25C2697.81 873.562 2698.84 911.031 2698.84 911.031 2688.53 906.219 2683.72 892.469 2683.72 892.469 2682.34 910.344 2690.94 922.719 2696.44 928.562 2701.59 925.812 2707.78 924.437 2715.34 924.437 2722.91 924.437 2729.09 925.812 2734.25 928.562 2739.41 922.719 2748.34 910.344 2746.97 892.469 2746.97 892.469 2741.81 906.219 2731.84 911.031 2731.84 911.031 2732.88 873.562 2749.38 863.25 2749.38 863.25 2728.75 870.469 2725.66 886.969 2725.66 886.969 2715.34 846.062 2748 831.281 2748 831.281 2730.12 826.812 2720.84 838.156 2720.84 830.25 2719.47 821.656 2715.69 812.719 2711.91 821.656 2710.53 830.25 2710.53 838.156 2701.59 826.812 2683.38 831.281 2683.38 831.281 2715.69 846.062 2705.72 886.969 2705.72 886.969 2702.28 870.469 2681.31 863.25 2681.31 863.25Z" fill="#023A63"/><path d="M2842.53 836.094C2850.09 818.562 2872.78 798.625 2906.47 786.25 2886.88 787.281 2871.06 790.031 2858.69 793.812L2865.91 783.844C2865.91 783.844 2810.22 785.219 2781.34 855.344 2781.34 855.344 2770.34 854.312 2773.09 833.344 2773.09 833.344 2756.25 844.687 2754.88 901.062 2754.19 933.719 2728.75 943.344 2714.66 944.719 2700.56 943.687 2675.12 933.719 2674.44 901.062 2673.41 844.687 2656.56 833.344 2656.56 833.344 2659.31 854.312 2648.31 855.344 2648.31 855.344 2619.78 785.219 2563.75 783.844 2563.75 783.844L2570.97 793.812C2558.25 790.031 2542.78 787.281 2523.19 786.25 2556.88 798.625 2579.56 818.562 2587.12 836.094 2570.97 831.969 2550 830.937 2520.09 835.75 2543.47 838.844 2562.38 846.75 2576.47 855.687 2584.72 861.187 2580.25 868.062 2577.5 872.875 2575.09 877.687 2572.34 883.531 2568.91 890.75 2561 910.687 2566.84 936.812 2585.06 955.375 2608.78 979.781 2644.88 982.875 2665.5 962.937 2668.94 959.5 2675.47 951.937 2685.44 955.031 2686.12 955.375 2687.16 955.375 2687.84 955.719 2686.47 957.094 2685.44 958.812 2684.41 960.531 2665.84 992.5 2705.03 1064.34 2709.84 1072.25L2714.66 1080.5 2719.47 1072.25C2723.94 1064 2763.47 992.156 2744.91 960.531 2743.88 958.812 2742.5 957.094 2741.47 955.719 2742.16 955.375 2743.19 955.375 2743.88 955.031 2753.84 951.937 2760.38 959.5 2763.81 962.937 2784.44 983.219 2820.19 979.781 2844.25 955.375 2862.81 936.469 2868.31 910.687 2860.41 890.75 2856.97 883.187 2854.22 877.687 2851.81 872.875 2849.06 868.062 2844.59 860.844 2852.84 855.687 2866.59 846.75 2885.84 838.844 2909.22 835.75 2879.66 830.937 2858.69 831.625 2842.53 836.094ZM2660 915.844C2640.41 877.687 2611.19 851.219 2611.19 851.219 2618.06 852.937 2625.28 856.031 2625.28 856.031 2625.28 856.031 2622.19 849.156 2618.06 842.969 2613.94 836.781 2606.03 827.844 2606.03 827.844 2643.16 848.812 2660 915.844 2660 915.844ZM2659.31 956.062C2642.12 973.25 2611.53 970.156 2591.25 949.875 2575.09 933.375 2570.28 910.344 2578.19 893.156 2579.91 889.375 2590.22 873.906 2603.28 884.906 2607.06 888.344 2609.81 892.812 2613.25 897.969 2611.53 898.656 2609.81 900.031 2608.44 901.406 2600.53 908.969 2601.56 922.719 2610.84 932 2619.78 941.281 2633.53 942.656 2641.44 934.75 2641.78 934.406 2641.78 934.062 2642.12 934.062 2642.12 934.062 2642.12 934.062 2642.12 934.062 2649 940.25 2657.25 944.719 2665.5 948.156 2663.78 950.906 2661.72 953.656 2659.31 956.062ZM2715 1057.81C2702.28 1032.72 2682.69 985.281 2694.38 965.344 2698.16 959.156 2704.69 956.062 2715 956.062 2725.31 956.062 2732.19 959.156 2735.62 965.344 2747.31 985.281 2727.72 1033.06 2715 1057.81ZM2823.97 827.844C2823.97 827.844 2815.72 836.781 2811.94 842.969 2807.81 849.156 2804.72 856.031 2804.72 856.031 2804.72 856.031 2811.94 852.937 2818.81 851.219 2818.81 851.219 2789.59 877.687 2770 915.844 2770 915.844 2786.84 848.812 2823.97 827.844ZM2851.47 893.156C2859.38 910.344 2854.91 933.375 2838.41 949.875 2818.12 970.5 2787.88 973.25 2770.34 956.062 2767.94 953.656 2765.88 950.906 2764.16 948.156 2772.75 944.719 2781 939.906 2787.53 934.062 2787.53 934.062 2787.53 934.062 2787.53 934.062 2787.88 934.406 2787.88 934.75 2788.22 934.75 2796.12 942.312 2809.88 941.281 2818.81 932 2827.75 922.719 2828.78 908.969 2821.22 901.406 2819.84 900.031 2818.12 899 2816.41 897.969 2819.5 892.812 2822.25 888 2826.38 884.906 2839.44 873.562 2849.75 889.375 2851.47 893.156Z" fill="#023A63"/></g></g></g></g></svg>