<svg width="550" height="550" xmlns="http://www.w3.org/2000/svg" xmlns:xlink="http://www.w3.org/1999/xlink" overflow="hidden"><defs><clipPath id="clip0"><rect x="70" y="1235" width="550" height="550"/></clipPath><radialGradient cx="762000" cy="762000" r="1.07763e+06" gradientUnits="userSpaceOnUse" spreadMethod="pad" id="fill1" gradientTransform="matrix(0.000360892 0 0 0.000360892 70.0001 1235)"><stop offset="0" stop-color="#F6C0DC"/><stop offset="0.17" stop-color="#F6C0DC"/><stop offset="0.33" stop-color="#E44397"/><stop offset="1" stop-color="#0F1113"/></radialGradient><radialGradient cx="256309" cy="281247" r="380518" fx="256309" gradientUnits="userSpaceOnUse" spreadMethod="pad" id="fill2" gradientTransform="matrix(0.000360892 0 0 0.000360892 92.0001 1248)"><stop offset="0" stop-color="#F6C0DC"/><stop offset="0.54" stop-color="#ED82BA" stop-opacity="0"/><stop offset="1" stop-color="#ED82BA" stop-opacity="0"/></radialGradient><linearGradient x1="343" y1="1241" x2="343" y2="1395" gradientUnits="userSpaceOnUse" spreadMethod="reflect" id="fill3"><stop offset="0" stop-color="#F5FAFF" stop-opacity="0.231373"/><stop offset="0.32" stop-color="#FFFFFF" stop-opacity="0"/><stop offset="1" stop-color="#FFFFFF" stop-opacity="0"/></linearGradient><radialGradient cx="94210.5" cy="102524" r="139236" gradientUnits="userSpaceOnUse" spreadMethod="pad" id="fill4" gradientTransform="matrix(0.000360892 0 0 0.000360892 81.0001 1299)"><stop offset="0" stop-color="#F6C0DC"/><stop offset="0.54" stop-color="#ED82BA" stop-opacity="0"/><stop offset="1" stop-color="#ED82BA" stop-opacity="0"/></radialGradient><radialGradient cx="110836" cy="120534" r="163748" gradientUnits="userSpaceOnUse" spreadMethod="pad" id="fill5" gradientTransform="matrix(0.000360892 0 0 0.000360892 110 1344)"><stop offset="0" stop-color="#F6C0DC"/><stop offset="0.54" stop-color="#ED82BA" stop-opacity="0"/><stop offset="1" stop-color="#ED82BA" stop-opacity="0"/></radialGradient><radialGradient cx="292330" cy="278476" r="403740" gradientUnits="userSpaceOnUse" spreadMethod="pad" id="fill6" gradientTransform="matrix(0.000360892 0 0 0.000360892 400 1563)"><stop offset="0" stop-color="#F6C0DC"/><stop offset="0.54" stop-color="#ED82BA" stop-opacity="0"/><stop offset="1" stop-color="#ED82BA" stop-opacity="0"/></radialGradient><radialGradient cx="72044" cy="77585.5" r="105877" fx="72044" fy="77585.5" gradientUnits="userSpaceOnUse" spreadMethod="pad" id="fill7" gradientTransform="matrix(0.000360892 0 0 0.000360892 545 1691)"><stop offset="0" stop-color="#F6C0DC"/><stop offset="0.54" stop-color="#ED82BA" stop-opacity="0"/><stop offset="1" stop-color="#ED82BA" stop-opacity="0"/></radialGradient><radialGradient cx="77585.5" cy="83127" r="113708" gradientUnits="userSpaceOnUse" spreadMethod="pad" id="fill8" gradientTransform="matrix(0.000360892 0 0 0.000360892 529 1608)"><stop offset="0" stop-color="#F6C0DC"/><stop offset="0.54" stop-color="#ED82BA" stop-opacity="0"/><stop offset="1" stop-color="#ED82BA" stop-opacity="0"/></radialGradient><clipPath id="clip9"><rect x="81" y="1255" width="526" height="525"/></clipPath><clipPath id="clip10"><rect x="81" y="1255" width="526" height="525"/></clipPath><clipPath id="clip11"><rect x="81" y="1255" width="526" height="525"/></clipPath><clipPath id="clip12"><rect x="145" y="1324" width="393" height="394"/></clipPath><clipPath id="clip13"><rect x="145" y="1324" width="393" height="394"/></clipPath><clipPath id="clip14"><rect x="145" y="1324" width="393" height="394"/></clipPath></defs><g clip-path="url(#clip0)" transform="translate(-70 -1235)"><rect x="70.0001" y="1235" width="550" height="550" fill="url(#fill1)"/><path d="M92.0001 1349.5C92.0001 1293.44 133.414 1248 184.5 1248 235.586 1248 277 1293.44 277 1349.5 277 1405.56 235.586 1451 184.5 1451 133.414 1451 92.0001 1405.56 92.0001 1349.5Z" fill="url(#fill2)" fill-rule="evenodd"/><path d="M103.787 1241 582.212 1241C598.111 1241 611 1260.86 611 1285.37L611 1395C611 1356.82 590.92 1325.88 566.149 1325.88L119.85 1325.88C95.0801 1325.88 74.9999 1356.82 74.9999 1395L74.9999 1285.37C74.9999 1260.86 87.8884 1241 103.787 1241Z" fill="url(#fill3)" fill-rule="evenodd"/><path d="M81.0001 1336C81.0001 1315.57 96.2224 1299 115 1299 133.778 1299 149 1315.57 149 1336 149 1356.43 133.778 1373 115 1373 96.2224 1373 81.0001 1356.43 81.0001 1336Z" fill="url(#fill4)" fill-rule="evenodd"/><path d="M110 1387.5C110 1363.48 127.909 1344 150 1344 172.091 1344 190 1363.48 190 1387.5 190 1411.52 172.091 1431 150 1431 127.909 1431 110 1411.52 110 1387.5Z" fill="url(#fill5)" fill-rule="evenodd"/><path d="M400 1663.5C400 1608 447.234 1563 505.5 1563 563.766 1563 611 1608 611 1663.5 611 1719 563.766 1764 505.5 1764 447.234 1764 400 1719 400 1663.5Z" fill="url(#fill6)" fill-rule="evenodd"/><path d="M545 1719C545 1703.54 556.64 1691 571 1691 585.359 1691 597 1703.54 597 1719 597 1734.46 585.359 1747 571 1747 556.64 1747 545 1734.46 545 1719Z" fill="url(#fill7)" fill-rule="evenodd"/><path d="M529 1638C529 1621.43 541.536 1608 557 1608 572.464 1608 585 1621.43 585 1638 585 1654.57 572.464 1668 557 1668 541.536 1668 529 1654.57 529 1638Z" fill="url(#fill8)" fill-rule="evenodd"/><g clip-path="url(#clip9)"><g clip-path="url(#clip10)"><g clip-path="url(#clip11)"><path d="M279.157 1501.34 249.967 1708.07C249.296 1712.87 245.589 1716.68 240.811 1717.47 236.032 1718.27 231.286 1715.88 229.092 1711.57L154.94 1566.15C152.903 1562.15 151.874 1557.7 151.938 1553.22L154.92 1354.89C154.973 1351.15 157.355 1347.85 160.884 1346.61 164.412 1345.37 168.329 1346.49 170.702 1349.38L270.955 1471.99C277.663 1480.21 280.645 1490.84 279.155 1501.34ZM276.006 1464.84C283.125 1473.55 294.371 1477.77 305.448 1475.9L554.642 1433.99C557.971 1433.44 560.618 1430.91 561.344 1427.62 562.058 1424.32 560.693 1420.93 557.91 1419.04L408.989 1318.22C405.335 1315.74 400.977 1314.5 396.557 1314.69L181.181 1323.83C177.421 1323.98 174.071 1326.26 172.528 1329.68 170.995 1333.12 171.532 1337.13 173.914 1340.05ZM569.692 1445.69C567.391 1442.83 563.738 1441.44 560.115 1442.05L317.145 1482.91C301.301 1485.58 289.015 1498.2 286.758 1514.1L257.819 1718.74C257.021 1724.38 259.236 1730.03 263.657 1733.63 268.078 1737.22 274.074 1738.23 279.428 1736.3L481.386 1663.34C485.722 1661.78 489.188 1658.44 490.921 1654.16L571.184 1455.83C572.549 1452.42 571.98 1448.55 569.692 1445.69Z" fill="#FFFFFF"/></g></g></g><g clip-path="url(#clip12)"><g clip-path="url(#clip13)"><g clip-path="url(#clip14)"><path d="M252.714 1502.08C252.716 1515.43 263.258 1526.4 276.601 1526.94 279.311 1532.38 282.456 1537.59 286.004 1542.53 294.54 1554.36 306.521 1566.32 322.848 1573.76 339.174 1581.2 358.318 1579.2 372.341 1568.11 382.397 1560.15 392.828 1547.34 399.207 1526.8 412.872 1525.33 422.76 1513.07 421.292 1499.4 420.287 1490.03 414.075 1482.04 405.247 1478.74 404.48 1455.1 397.802 1408.48 359.062 1390.15 334.339 1378.44 304.925 1383.17 286.004 1402.93 272.364 1417.18 260.904 1441.12 264.205 1481.09 257.04 1485.66 252.706 1493.58 252.714 1502.08ZM357.197 1462.85C365.94 1462.85 373.024 1471.94 373.024 1483.14 373.024 1494.35 365.94 1503.43 357.197 1503.43 348.454 1503.43 341.37 1494.34 341.37 1483.14 341.37 1471.94 348.454 1462.85 357.197 1462.85ZM341.37 1527.49C348.385 1527.48 354.076 1533.17 354.081 1540.18 354.085 1547.2 348.401 1552.89 341.385 1552.89 334.369 1552.9 328.678 1547.21 328.674 1540.2 328.674 1540.19 328.674 1540.19 328.674 1540.18 328.674 1533.17 334.358 1527.49 341.37 1527.49ZM301.939 1472.62C308.847 1472.62 314.389 1478.76 314.389 1486.26 314.389 1493.76 308.817 1499.9 301.939 1499.9 295.062 1499.9 289.489 1493.8 289.489 1486.26 289.489 1478.72 295.062 1472.62 301.939 1472.62Z" fill="#500165"/><path d="M445.683 1683.66C441.618 1634.48 400.518 1596.64 351.172 1596.64L351.172 1596.64C305.418 1596.64 266.188 1629.3 257.903 1674.3L255.301 1688.42C254.11 1694.9 258.393 1701.11 264.868 1702.3 265.586 1702.44 266.315 1702.5 267.045 1702.5L434.293 1702.5C440.876 1702.5 446.214 1697.17 446.215 1690.58 446.215 1690.25 446.201 1689.93 446.175 1689.6Z" fill="#500165"/><path d="M169.509 1565.19C179.702 1574.65 193.542 1574.16 195.085 1574.08 201.367 1573.73 206.175 1568.35 205.823 1562.06 205.471 1555.78 200.093 1550.97 193.81 1551.33 192.92 1551.38 187.808 1551.08 185.006 1548.49 184.392 1547.92 182.542 1546.18 182.419 1540.96 182.419 1540.45 182.703 1533.7 190.256 1531.38 198.086 1528.98 205.37 1529.41 211.311 1532.64 216.686 1535.65 220.615 1540.71 222.203 1546.66 223.394 1551.16 223.85 1555.83 223.554 1560.48 222.431 1569.49 217.794 1577.7 210.651 1583.31 199.941 1591.69 193.411 1604.32 192.766 1617.9L192.252 1629.07C191.97 1635.35 196.827 1640.67 203.106 1640.96L203.643 1640.96C209.725 1640.95 214.728 1636.16 215.011 1630.09L215.525 1618.92C215.874 1611.95 219.236 1605.48 224.736 1601.2 245 1585.28 246.282 1562.46 246.328 1561.5 246.74 1554.38 245.991 1547.24 244.11 1540.36 240.861 1528.52 232.952 1518.5 222.188 1512.59 210.904 1506.45 197.195 1505.41 183.579 1509.59 164.481 1515.46 159.584 1532.78 159.63 1541.18L159.63 1541.3C159.868 1553.69 165.134 1561.14 169.509 1565.19Z" fill="#500165"/><path d="M194.685 1671.79C195.112 1672.41 195.589 1672.99 196.113 1673.52 196.642 1674.05 197.223 1674.53 197.848 1674.94 198.466 1675.35 199.121 1675.7 199.805 1675.98 200.494 1676.27 201.209 1676.48 201.939 1676.63 202.672 1676.78 203.418 1676.85 204.165 1676.85 205.659 1676.85 207.14 1676.56 208.517 1675.98 209.208 1675.7 209.869 1675.35 210.49 1674.94 211.114 1674.53 211.696 1674.05 212.225 1673.52 212.748 1672.99 213.221 1672.41 213.637 1671.79 214.043 1671.16 214.395 1670.5 214.688 1669.82 214.973 1669.13 215.188 1668.42 215.333 1667.69 216.109 1663.96 214.955 1660.09 212.263 1657.4 211.734 1656.87 211.153 1656.4 210.528 1655.99 209.907 1655.57 209.246 1655.22 208.556 1654.94 207.864 1654.65 207.143 1654.43 206.406 1654.29 204.195 1653.85 201.902 1654.07 199.82 1654.94 199.136 1655.23 198.481 1655.58 197.863 1655.99 197.239 1656.4 196.657 1656.87 196.128 1657.4 193.441 1660.1 192.271 1663.95 193.004 1667.69 193.155 1668.42 193.374 1669.13 193.657 1669.82 193.94 1670.5 194.284 1671.16 194.685 1671.79Z" fill="#500165"/><path d="M499.145 1344.02C487.862 1337.88 474.153 1336.83 460.536 1341.01 441.446 1346.87 436.526 1364.22 436.595 1372.58L436.595 1372.71C436.833 1385.1 442.099 1392.54 446.474 1396.6 456.675 1406.05 470.507 1405.57 472.05 1405.49 478.332 1405.13 483.14 1399.76 482.788 1393.47 482.437 1387.19 477.058 1382.38 470.776 1382.74 469.893 1382.79 464.773 1382.49 461.971 1379.9 461.365 1379.33 459.507 1377.59 459.385 1372.37 459.385 1371.86 459.676 1365.11 467.222 1362.79 475.051 1360.39 482.335 1360.82 488.276 1364.04 493.654 1367.05 497.583 1372.11 499.168 1378.07 500.363 1382.57 500.818 1387.24 500.519 1391.88 499.405 1400.9 494.769 1409.11 487.624 1414.72 476.911 1423.1 470.379 1435.72 469.732 1449.31L469.217 1460.48C468.926 1466.76 473.785 1472.09 480.069 1472.38 480.07 1472.38 480.07 1472.38 480.071 1472.38L480.608 1472.38C486.68 1472.36 491.667 1467.58 491.945 1461.51L492.467 1450.34C492.809 1443.38 496.172 1436.9 501.678 1432.62 521.942 1416.7 523.216 1393.89 523.262 1392.92 523.693 1385.81 522.968 1378.67 521.113 1371.79 517.85 1359.94 509.924 1349.92 499.145 1344.02Z" fill="#500165"/><path d="M471.658 1503.2C472.082 1503.82 472.557 1504.4 473.078 1504.93 473.609 1505.46 474.19 1505.93 474.813 1506.35 475.431 1506.76 476.086 1507.11 476.77 1507.39 477.461 1507.67 478.175 1507.89 478.904 1508.04 479.64 1508.19 480.388 1508.26 481.138 1508.26 481.882 1508.26 482.625 1508.19 483.356 1508.04 484.086 1507.89 484.801 1507.67 485.49 1507.39 486.179 1507.11 486.839 1506.76 487.463 1506.35 488.084 1505.93 488.662 1505.46 489.19 1504.93 489.713 1504.4 490.186 1503.82 490.602 1503.2 491.013 1502.58 491.366 1501.92 491.654 1501.23 491.938 1500.54 492.153 1499.83 492.298 1499.1 492.451 1498.37 492.529 1497.62 492.529 1496.87 492.516 1493.85 491.317 1490.95 489.19 1488.81 488.662 1488.28 488.084 1487.81 487.463 1487.39 486.839 1486.99 486.179 1486.64 485.49 1486.35 484.803 1486.06 484.088 1485.84 483.356 1485.7 481.887 1485.4 480.373 1485.4 478.904 1485.7 478.173 1485.85 477.459 1486.06 476.77 1486.35 476.086 1486.64 475.431 1486.99 474.813 1487.39 471.634 1489.5 469.728 1493.06 469.739 1496.87 469.737 1497.62 469.811 1498.36 469.962 1499.1 470.107 1499.83 470.323 1500.54 470.607 1501.23 470.894 1501.92 471.247 1502.58 471.658 1503.2Z" fill="#500165"/></g></g></g></g></svg>