<svg width="550" height="550" xmlns="http://www.w3.org/2000/svg" xmlns:xlink="http://www.w3.org/1999/xlink" overflow="hidden"><defs><clipPath id="clip0"><rect x="682" y="1256" width="550" height="550"/></clipPath><radialGradient cx="762000" cy="762000" r="1.07763e+06" gradientUnits="userSpaceOnUse" spreadMethod="pad" id="fill1" gradientTransform="matrix(0.000360892 0 0 0.000360892 682 1256)"><stop offset="0" stop-color="#F6C0DC"/><stop offset="0.17" stop-color="#F6C0DC"/><stop offset="0.33" stop-color="#E44397"/><stop offset="1" stop-color="#0F1113"/></radialGradient><radialGradient cx="257695" cy="281247" r="381453" fx="257694" fy="281247" gradientUnits="userSpaceOnUse" spreadMethod="pad" id="fill2" gradientTransform="matrix(0.000360892 0 0 0.000360892 704 1269)"><stop offset="0" stop-color="#F6C0DC"/><stop offset="0.54" stop-color="#ED82BA" stop-opacity="0"/><stop offset="1" stop-color="#ED82BA" stop-opacity="0"/></radialGradient><linearGradient x1="955.5" y1="1262" x2="955.5" y2="1416" gradientUnits="userSpaceOnUse" spreadMethod="reflect" id="fill3"><stop offset="0" stop-color="#F5FAFF" stop-opacity="0.231373"/><stop offset="0.32" stop-color="#FFFFFF" stop-opacity="0"/><stop offset="1" stop-color="#FFFFFF" stop-opacity="0"/></linearGradient><radialGradient cx="94211" cy="102524" r="139236" gradientUnits="userSpaceOnUse" spreadMethod="pad" id="fill4" gradientTransform="matrix(0.000360892 0 0 0.000360892 693 1320)"><stop offset="0" stop-color="#F6C0DC"/><stop offset="0.54" stop-color="#ED82BA" stop-opacity="0"/><stop offset="1" stop-color="#ED82BA" stop-opacity="0"/></radialGradient><radialGradient cx="110836" cy="120534" r="163748" gradientUnits="userSpaceOnUse" spreadMethod="pad" id="fill5" gradientTransform="matrix(0.000360892 0 0 0.000360892 722 1365)"><stop offset="0" stop-color="#F6C0DC"/><stop offset="0.54" stop-color="#ED82BA" stop-opacity="0"/><stop offset="1" stop-color="#ED82BA" stop-opacity="0"/></radialGradient><radialGradient cx="292331" cy="279862" r="404698" fx="292331" fy="279862" gradientUnits="userSpaceOnUse" spreadMethod="pad" id="fill6" gradientTransform="matrix(0.000360892 0 0 0.000360892 1012 1583)"><stop offset="0" stop-color="#F6C0DC"/><stop offset="0.54" stop-color="#ED82BA" stop-opacity="0"/><stop offset="1" stop-color="#ED82BA" stop-opacity="0"/></radialGradient><radialGradient cx="72043.5" cy="77585.5" r="105876" fx="72043.5" fy="77585.5" gradientUnits="userSpaceOnUse" spreadMethod="pad" id="fill7" gradientTransform="matrix(0.000360892 0 0 0.000360892 1157 1712)"><stop offset="0" stop-color="#F6C0DC"/><stop offset="0.54" stop-color="#ED82BA" stop-opacity="0"/><stop offset="1" stop-color="#ED82BA" stop-opacity="0"/></radialGradient><radialGradient cx="77585.5" cy="83127" r="113708" gradientUnits="userSpaceOnUse" spreadMethod="pad" id="fill8" gradientTransform="matrix(0.000360892 0 0 0.000360892 1141 1629)"><stop offset="0" stop-color="#F6C0DC"/><stop offset="0.54" stop-color="#ED82BA" stop-opacity="0"/><stop offset="1" stop-color="#ED82BA" stop-opacity="0"/></radialGradient><clipPath id="clip9"><rect x="693" y="1276" width="525" height="525"/></clipPath><clipPath id="clip10"><rect x="693" y="1276" width="525" height="525"/></clipPath><clipPath id="clip11"><rect x="693" y="1276" width="525" height="525"/></clipPath><clipPath id="clip12"><rect x="738" y="1326" width="417" height="418"/></clipPath><clipPath id="clip13"><rect x="738" y="1326" width="417" height="418"/></clipPath><clipPath id="clip14"><rect x="738" y="1326" width="417" height="418"/></clipPath></defs><g clip-path="url(#clip0)" transform="translate(-682 -1256)"><rect x="682" y="1256" width="550" height="550" fill="url(#fill1)"/><path d="M704 1370.5C704 1314.44 745.638 1269 797 1269 848.362 1269 890 1314.44 890 1370.5 890 1426.56 848.362 1472 797 1472 745.638 1472 704 1426.56 704 1370.5Z" fill="url(#fill2)" fill-rule="evenodd"/><path d="M716.734 1262 1194.27 1262C1210.14 1262 1223 1281.86 1223 1306.37L1223 1416C1223 1377.82 1202.96 1346.88 1178.23 1346.88L732.767 1346.88C708.043 1346.88 688 1377.82 688 1416L688 1306.37C688 1281.86 700.864 1262 716.734 1262Z" fill="url(#fill3)" fill-rule="evenodd"/><path d="M693 1357C693 1336.57 708.222 1320 727 1320 745.778 1320 761 1336.57 761 1357 761 1377.43 745.778 1394 727 1394 708.222 1394 693 1377.43 693 1357Z" fill="url(#fill4)" fill-rule="evenodd"/><path d="M722 1408.5C722 1384.48 739.909 1365 762 1365 784.091 1365 802 1384.48 802 1408.5 802 1432.52 784.091 1452 762 1452 739.909 1452 722 1432.52 722 1408.5Z" fill="url(#fill5)" fill-rule="evenodd"/><path d="M1012 1684C1012 1628.22 1059.23 1583 1117.5 1583 1175.77 1583 1223 1628.22 1223 1684 1223 1739.78 1175.77 1785 1117.5 1785 1059.23 1785 1012 1739.78 1012 1684Z" fill="url(#fill6)" fill-rule="evenodd"/><path d="M1157 1740C1157 1724.54 1168.64 1712 1183 1712 1197.36 1712 1209 1724.54 1209 1740 1209 1755.46 1197.36 1768 1183 1768 1168.64 1768 1157 1755.46 1157 1740Z" fill="url(#fill7)" fill-rule="evenodd"/><path d="M1141 1659C1141 1642.43 1153.54 1629 1169 1629 1184.46 1629 1197 1642.43 1197 1659 1197 1675.57 1184.46 1689 1169 1689 1153.54 1689 1141 1675.57 1141 1659Z" fill="url(#fill8)" fill-rule="evenodd"/><g clip-path="url(#clip9)"><g clip-path="url(#clip10)"><g clip-path="url(#clip11)"><path d="M891.157 1522.34 861.967 1729.07C861.296 1733.87 857.589 1737.68 852.81 1738.47 848.032 1739.27 843.286 1736.88 841.092 1732.57L766.94 1587.15C764.903 1583.15 763.874 1578.7 763.938 1574.22L766.92 1375.89C766.972 1372.15 769.355 1368.85 772.884 1367.61 776.412 1366.37 780.328 1367.49 782.702 1370.38L882.955 1492.99C889.663 1501.21 892.645 1511.84 891.155 1522.34ZM888.005 1485.84C895.125 1494.55 906.37 1498.77 917.448 1496.9L1166.64 1454.99C1169.97 1454.44 1172.62 1451.91 1173.34 1448.62 1174.06 1445.32 1172.69 1441.93 1169.91 1440.04L1020.99 1339.22C1017.33 1336.74 1012.98 1335.5 1008.56 1335.69L793.18 1344.83C789.421 1344.98 786.071 1347.26 784.528 1350.68 782.995 1354.12 783.532 1358.13 785.914 1361.05ZM1181.69 1466.69C1179.39 1463.83 1175.74 1462.44 1172.11 1463.05L929.145 1503.91C913.301 1506.58 901.015 1519.2 898.758 1535.1L869.819 1739.74C869.021 1745.38 871.236 1751.03 875.657 1754.63 880.078 1758.22 886.074 1759.23 891.428 1757.3L1093.39 1684.34C1097.72 1682.78 1101.19 1679.44 1102.92 1675.16L1183.18 1476.83C1184.55 1473.42 1183.98 1469.55 1181.69 1466.69Z" fill="#FFFFFF"/></g></g></g><g clip-path="url(#clip12)"><g clip-path="url(#clip13)"><g clip-path="url(#clip14)"><path d="M944.24 1495.8C944.24 1514.28 929.257 1529.27 910.775 1529.27 892.292 1529.27 877.309 1514.28 877.309 1495.8 877.309 1477.32 892.292 1462.34 910.775 1462.34 929.257 1462.34 944.24 1477.32 944.24 1495.8Z" fill="#500165"/><path d="M944.246 1572.69C944.246 1591.18 929.261 1606.17 910.775 1606.17 892.29 1606.17 877.304 1591.18 877.304 1572.69 877.304 1554.21 892.29 1539.22 910.775 1539.22 929.261 1539.22 944.246 1554.21 944.246 1572.69Z" fill="#500165"/><path d="M1020.47 1572.7C1020.47 1591.18 1005.48 1606.17 986.997 1606.17 968.51 1606.17 953.524 1591.18 953.524 1572.7 953.524 1554.21 968.51 1539.22 986.997 1539.22 1005.48 1539.22 1020.47 1554.21 1020.47 1572.7Z" fill="#500165"/><path d="M1020.48 1495.81C1020.48 1514.29 1005.49 1529.28 987.004 1529.28 968.517 1529.28 953.531 1514.29 953.531 1495.81 953.531 1477.32 968.517 1462.33 987.004 1462.33 1005.49 1462.33 1020.48 1477.32 1020.48 1495.81Z" fill="#500165"/><path d="M828.131 1494.94C830.905 1478.17 842.561 1466.13 854.163 1468.05 865.766 1469.97 872.923 1485.12 870.148 1501.9 867.373 1518.67 855.718 1530.71 844.115 1528.79 832.513 1526.87 825.356 1511.72 828.131 1494.94Z" fill="#500165"/><path d="M910.442 1411.79C927.22 1409.07 942.352 1416.26 944.24 1427.87 946.128 1439.48 934.057 1451.1 917.278 1453.83 900.5 1456.56 885.368 1449.36 883.48 1437.75 881.592 1426.14 893.663 1414.52 910.442 1411.79Z" fill="#500165"/><path d="M842.521 1427.89C852.816 1417.48 866.748 1414.57 873.659 1421.4 880.562 1428.22 877.826 1442.19 867.539 1452.61 857.235 1463.02 843.312 1465.93 836.393 1459.11 829.49 1452.28 832.232 1438.31 842.521 1427.89Z" fill="#500165"/><path d="M910.083 1655.18C893.306 1652.41 881.262 1640.75 883.18 1629.15 885.098 1617.55 900.253 1610.39 917.029 1613.16 933.806 1615.94 945.85 1627.59 943.932 1639.2 942.014 1650.8 926.859 1657.95 910.083 1655.18Z" fill="#500165"/><path d="M826.919 1572.88C824.199 1556.1 831.398 1540.97 843.001 1539.08 854.605 1537.19 866.238 1549.26 868.972 1566.04 871.685 1582.83 864.501 1597.96 852.89 1599.85 841.279 1601.73 829.661 1589.66 826.919 1572.88Z" fill="#500165"/><path d="M843.023 1640.8C832.61 1630.51 829.702 1616.57 836.526 1609.66 843.351 1602.76 857.325 1605.5 867.738 1615.79 878.151 1626.08 881.06 1640.02 874.235 1646.93 867.41 1653.83 853.436 1651.09 843.023 1640.8Z" fill="#500165"/><path d="M1069.66 1573.55C1066.87 1590.33 1055.22 1602.37 1043.62 1600.45 1032.01 1598.53 1024.84 1583.38 1027.62 1566.61 1030.4 1549.83 1042.05 1537.79 1053.65 1539.71 1065.26 1541.63 1072.41 1556.79 1069.66 1573.55Z" fill="#500165"/><path d="M987.344 1656.71C970.566 1659.43 955.43 1652.24 953.538 1640.63 951.646 1629.03 963.723 1617.4 980.5 1614.67 997.292 1611.94 1012.41 1619.14 1014.31 1630.75 1016.2 1642.35 1004.12 1653.97 987.344 1656.71Z" fill="#500165"/><path d="M1055.25 1640.61C1044.98 1651.02 1031.03 1653.93 1024.12 1647.11 1017.22 1640.28 1019.95 1626.31 1030.24 1615.9 1040.53 1605.48 1054.48 1602.57 1061.38 1609.4 1068.27 1616.22 1065.54 1630.19 1055.25 1640.61Z" fill="#500165"/><path d="M987.698 1413.31C1004.48 1416.09 1016.52 1427.74 1014.6 1439.35 1012.68 1450.95 997.528 1458.11 980.752 1455.33 963.981 1452.56 951.942 1440.91 953.849 1429.3 955.785 1417.7 970.936 1410.54 987.698 1413.31Z" fill="#500165"/><path d="M1070.85 1495.62C1073.58 1512.4 1066.38 1527.54 1054.77 1529.42 1043.17 1531.31 1031.54 1519.24 1028.81 1502.46 1026.08 1485.68 1033.28 1470.54 1044.89 1468.65 1056.5 1466.77 1068.12 1478.84 1070.85 1495.62Z" fill="#500165"/><path d="M1054.75 1427.71C1065.16 1437.99 1068.07 1451.93 1061.25 1458.84 1054.43 1465.74 1040.46 1463 1030.05 1452.71 1019.63 1442.43 1016.72 1428.49 1023.54 1421.59 1030.36 1414.68 1044.33 1417.42 1054.75 1427.71Z" fill="#500165"/><path d="M816.261 1401.49C823.853 1393.8 832.87 1390.4 836.4 1393.89 839.931 1397.38 836.639 1406.43 829.047 1414.12 821.455 1421.8 812.439 1425.21 808.908 1421.72 805.377 1418.23 808.67 1409.17 816.261 1401.49Z" fill="#500165"/><path d="M790.068 1500.45C792.167 1485.29 800.342 1473.9 808.338 1475.01 816.335 1476.11 821.117 1489.3 819.018 1504.45 816.933 1519.6 808.752 1531 800.755 1529.9 792.758 1528.79 787.969 1515.61 790.068 1500.45Z" fill="#500165"/><path d="M915.21 1375.17C930.257 1372.35 943.649 1376.49 945.142 1384.42 946.635 1392.36 935.645 1401.08 920.612 1403.9 905.557 1406.72 892.165 1402.57 890.679 1394.65 889.194 1386.72 900.169 1378 915.21 1375.17Z" fill="#500165"/><path d="M856.77 1386.46C867.924 1379.8 879.9 1379.31 883.518 1385.37 887.137 1391.43 881.029 1401.75 869.874 1408.41 858.72 1415.07 846.745 1415.55 843.126 1409.49 839.507 1403.43 845.616 1393.12 856.77 1386.46Z" fill="#500165"/><path d="M800.644 1442.95C806.801 1431.86 816.793 1425.66 822.972 1429.08 829.135 1432.51 829.151 1444.28 822.986 1455.36 816.837 1466.45 806.838 1472.66 800.666 1469.23 794.503 1465.8 794.48 1454.04 800.644 1442.95Z" fill="#500165"/><path d="M816.616 1667.06C808.933 1659.46 805.533 1650.44 809.023 1646.91 812.513 1643.38 821.571 1646.68 829.254 1654.27 836.938 1661.87 840.337 1670.89 836.847 1674.42 833.357 1677.95 824.3 1674.65 816.616 1667.06Z" fill="#500165"/><path d="M915.579 1693.25C900.428 1691.15 889.031 1682.97 890.14 1674.97 891.233 1666.98 904.426 1662.2 919.585 1664.29 934.736 1666.39 946.132 1674.56 945.023 1682.56 943.915 1690.56 930.745 1695.34 915.579 1693.25Z" fill="#500165"/><path d="M790.304 1568.1C787.481 1553.07 791.622 1539.67 799.553 1538.18 807.484 1536.69 816.202 1547.67 819.025 1562.71 821.848 1577.75 817.707 1591.15 809.776 1592.64 801.845 1594.13 793.127 1583.14 790.304 1568.1Z" fill="#500165"/><path d="M801.583 1626.55C794.925 1615.4 794.441 1603.42 800.503 1599.8 806.564 1596.19 816.875 1602.3 823.534 1613.45 830.192 1624.61 830.675 1636.59 824.614 1640.2 818.552 1643.82 808.241 1637.71 801.583 1626.55Z" fill="#500165"/><path d="M858.08 1682.67C846.996 1676.51 840.79 1666.52 844.218 1660.35 847.647 1654.18 859.412 1654.17 870.496 1660.33 881.581 1666.48 887.787 1676.48 884.358 1682.65 880.929 1688.82 869.164 1688.83 858.08 1682.67Z" fill="#500165"/><path d="M1081.52 1667.01C1073.92 1674.7 1064.9 1678.1 1061.38 1674.61 1057.84 1671.12 1061.14 1662.07 1068.73 1654.38 1076.33 1646.69 1085.35 1643.29 1088.86 1646.78 1092.41 1650.27 1089.12 1659.33 1081.52 1667.01Z" fill="#500165"/><path d="M1107.71 1568.04C1105.62 1583.2 1097.44 1594.59 1089.45 1593.49 1081.45 1592.39 1076.66 1579.21 1078.75 1564.05 1080.84 1548.89 1089.02 1537.5 1097.02 1538.6 1105.01 1539.71 1109.8 1552.89 1107.71 1568.04Z" fill="#500165"/><path d="M982.568 1693.33C967.527 1696.15 954.126 1692.01 952.636 1684.08 951.146 1676.15 962.131 1667.43 977.172 1664.6 992.213 1661.78 1005.61 1665.92 1007.1 1673.85 1008.59 1681.78 997.609 1690.5 982.568 1693.33Z" fill="#500165"/><path d="M1041.02 1682.05C1029.86 1688.7 1017.88 1689.19 1014.26 1683.13 1010.65 1677.07 1016.75 1666.75 1027.9 1660.1 1039.06 1653.44 1051.04 1652.96 1054.66 1659.01 1058.27 1665.08 1052.17 1675.38 1041.02 1682.05Z" fill="#500165"/><path d="M1097.13 1625.55C1090.98 1636.63 1080.98 1642.84 1074.81 1639.42 1068.64 1635.99 1068.63 1624.23 1074.79 1613.14 1080.95 1602.05 1090.94 1595.84 1097.11 1599.27 1103.28 1602.7 1103.29 1614.46 1097.13 1625.55Z" fill="#500165"/><path d="M1081.16 1401.44C1088.85 1409.03 1092.25 1418.05 1088.76 1421.58 1085.27 1425.11 1076.22 1421.82 1068.53 1414.23 1060.85 1406.64 1057.44 1397.63 1060.93 1394.1 1064.42 1390.56 1073.48 1393.85 1081.16 1401.44Z" fill="#500165"/><path d="M982.2 1375.25C997.359 1377.35 1008.75 1385.53 1007.64 1393.52 1006.55 1401.52 993.36 1406.3 978.194 1404.21 963.043 1402.12 951.646 1393.93 952.748 1385.94 953.849 1377.94 967.041 1373.16 982.2 1375.25Z" fill="#500165"/><path d="M1107.48 1500.4C1110.3 1515.43 1106.16 1528.83 1098.22 1530.32 1090.28 1531.81 1081.56 1520.83 1078.74 1505.79 1075.92 1490.75 1080.06 1477.36 1088 1475.87 1095.94 1474.38 1104.66 1485.36 1107.48 1500.4Z" fill="#500165"/><path d="M1096.19 1441.95C1102.85 1453.1 1103.34 1465.07 1097.28 1468.69 1091.22 1472.31 1080.91 1466.21 1074.24 1455.06 1067.58 1443.91 1067.1 1431.93 1073.16 1428.31 1079.21 1424.69 1089.53 1430.8 1096.19 1441.95Z" fill="#500165"/><path d="M1039.7 1385.83C1050.79 1391.99 1056.99 1401.98 1053.56 1408.15 1050.14 1414.32 1038.37 1414.33 1027.28 1408.17 1016.2 1402.01 1009.99 1392.02 1013.42 1385.85 1016.85 1379.68 1028.61 1379.67 1039.7 1385.83Z" fill="#500165"/><path d="M763.136 1506C764.921 1493.06 771.02 1483.21 776.757 1484.01 782.494 1484.8 785.698 1495.93 783.912 1508.86 782.126 1521.8 776.028 1531.65 770.29 1530.86 764.553 1530.06 761.35 1518.93 763.136 1506Z" fill="#500165"/><path d="M921.639 1348.17C934.614 1346.7 945.66 1350.18 946.311 1355.93 946.962 1361.68 936.972 1367.54 923.997 1369 911.022 1370.47 899.976 1367 899.325 1361.25 898.674 1355.49 908.664 1349.64 921.639 1348.17Z" fill="#500165"/><path d="M921.12 1720.18C908.187 1718.39 898.346 1712.29 899.14 1706.55 899.934 1700.81 911.062 1697.61 923.995 1699.4 936.928 1701.19 946.768 1707.3 945.974 1713.03 945.18 1718.77 934.052 1721.97 921.12 1720.18Z" fill="#500165"/><path d="M763.298 1561.68C761.828 1548.7 765.302 1537.65 771.057 1537 776.812 1536.35 782.67 1546.34 784.14 1559.32 785.61 1572.3 782.137 1583.35 776.381 1584 770.626 1584.65 764.768 1574.66 763.298 1561.68Z" fill="#500165"/><path d="M1134.64 1562.5C1132.85 1575.44 1126.75 1585.29 1121.01 1584.49 1115.28 1583.7 1112.08 1572.57 1113.87 1559.63 1115.65 1546.7 1121.75 1536.86 1127.49 1537.65 1133.22 1538.44 1136.43 1549.57 1134.64 1562.5Z" fill="#500165"/><path d="M976.14 1720.34C963.161 1721.81 952.119 1718.33 951.461 1712.58 950.818 1706.83 960.803 1700.97 973.789 1699.5 986.752 1698.03 997.802 1701.5 998.452 1707.25 999.11 1713 989.117 1718.86 976.14 1720.34Z" fill="#500165"/><path d="M976.65 1348.33C989.584 1350.11 999.429 1356.2 998.639 1361.94 997.849 1367.67 986.723 1370.88 973.789 1369.09 960.855 1367.31 951.01 1361.22 951.8 1355.48 952.59 1349.75 963.715 1346.54 976.65 1348.33Z" fill="#500165"/><path d="M1134.48 1506.82C1135.95 1519.8 1132.48 1530.84 1126.73 1531.5 1120.97 1532.15 1115.12 1522.16 1113.65 1509.18 1112.18 1496.21 1115.65 1485.16 1121.4 1484.51 1127.15 1483.86 1133.01 1493.85 1134.48 1506.82Z" fill="#500165"/></g></g></g></g></svg>