<svg width="550" height="550" xmlns="http://www.w3.org/2000/svg" xmlns:xlink="http://www.w3.org/1999/xlink" overflow="hidden"><defs><clipPath id="clip0"><rect x="1277" y="1256" width="550" height="550"/></clipPath><radialGradient cx="762000" cy="762000" r="1.07763e+06" gradientUnits="userSpaceOnUse" spreadMethod="pad" id="fill1" gradientTransform="matrix(0.000360892 0 0 0.000360892 1277 1256)"><stop offset="0" stop-color="#F6C0DC"/><stop offset="0.17" stop-color="#F6C0DC"/><stop offset="0.33" stop-color="#E44397"/><stop offset="1" stop-color="#0F1113"/></radialGradient><radialGradient cx="257695" cy="281247" r="381453" fx="257694" fy="281247" gradientUnits="userSpaceOnUse" spreadMethod="pad" id="fill2" gradientTransform="matrix(0.000360892 0 0 0.000360892 1299 1269)"><stop offset="0" stop-color="#F6C0DC"/><stop offset="0.54" stop-color="#ED82BA" stop-opacity="0"/><stop offset="1" stop-color="#ED82BA" stop-opacity="0"/></radialGradient><linearGradient x1="1550.5" y1="1262" x2="1550.5" y2="1416" gradientUnits="userSpaceOnUse" spreadMethod="reflect" id="fill3"><stop offset="0" stop-color="#F5FAFF" stop-opacity="0.231373"/><stop offset="0.32" stop-color="#FFFFFF" stop-opacity="0"/><stop offset="1" stop-color="#FFFFFF" stop-opacity="0"/></linearGradient><radialGradient cx="94211" cy="102524" r="139236" gradientUnits="userSpaceOnUse" spreadMethod="pad" id="fill4" gradientTransform="matrix(0.000360892 0 0 0.000360892 1288 1320)"><stop offset="0" stop-color="#F6C0DC"/><stop offset="0.54" stop-color="#ED82BA" stop-opacity="0"/><stop offset="1" stop-color="#ED82BA" stop-opacity="0"/></radialGradient><radialGradient cx="110836" cy="120534" r="163748" gradientUnits="userSpaceOnUse" spreadMethod="pad" id="fill5" gradientTransform="matrix(0.000360892 0 0 0.000360892 1317 1365)"><stop offset="0" stop-color="#F6C0DC"/><stop offset="0.54" stop-color="#ED82BA" stop-opacity="0"/><stop offset="1" stop-color="#ED82BA" stop-opacity="0"/></radialGradient><radialGradient cx="292331" cy="279862" r="404698" fx="292331" fy="279862" gradientUnits="userSpaceOnUse" spreadMethod="pad" id="fill6" gradientTransform="matrix(0.000360892 0 0 0.000360892 1607 1583)"><stop offset="0" stop-color="#F6C0DC"/><stop offset="0.54" stop-color="#ED82BA" stop-opacity="0"/><stop offset="1" stop-color="#ED82BA" stop-opacity="0"/></radialGradient><radialGradient cx="72043.5" cy="77585.5" r="105876" fx="72043.5" fy="77585.5" gradientUnits="userSpaceOnUse" spreadMethod="pad" id="fill7" gradientTransform="matrix(0.000360892 0 0 0.000360892 1752 1712)"><stop offset="0" stop-color="#F6C0DC"/><stop offset="0.54" stop-color="#ED82BA" stop-opacity="0"/><stop offset="1" stop-color="#ED82BA" stop-opacity="0"/></radialGradient><radialGradient cx="77585.5" cy="83127" r="113708" gradientUnits="userSpaceOnUse" spreadMethod="pad" id="fill8" gradientTransform="matrix(0.000360892 0 0 0.000360892 1736 1629)"><stop offset="0" stop-color="#F6C0DC"/><stop offset="0.54" stop-color="#ED82BA" stop-opacity="0"/><stop offset="1" stop-color="#ED82BA" stop-opacity="0"/></radialGradient><clipPath id="clip9"><rect x="1288" y="1276" width="525" height="525"/></clipPath><clipPath id="clip10"><rect x="1288" y="1276" width="525" height="525"/></clipPath><clipPath id="clip11"><rect x="1288" y="1276" width="525" height="525"/></clipPath><clipPath id="clip12"><rect x="1416" y="1394" width="262" height="263"/></clipPath><clipPath id="clip13"><rect x="1416" y="1394" width="262" height="263"/></clipPath><clipPath id="clip14"><rect x="1416" y="1394" width="262" height="263"/></clipPath></defs><g clip-path="url(#clip0)" transform="translate(-1277 -1256)"><rect x="1277" y="1256" width="550" height="550" fill="url(#fill1)"/><path d="M1299 1370.5C1299 1314.44 1340.64 1269 1392 1269 1443.36 1269 1485 1314.44 1485 1370.5 1485 1426.56 1443.36 1472 1392 1472 1340.64 1472 1299 1426.56 1299 1370.5Z" fill="url(#fill2)" fill-rule="evenodd"/><path d="M1311.73 1262 1789.27 1262C1805.14 1262 1818 1281.86 1818 1306.37L1818 1416C1818 1377.82 1797.96 1346.88 1773.23 1346.88L1327.77 1346.88C1303.04 1346.88 1283 1377.82 1283 1416L1283 1306.37C1283 1281.86 1295.86 1262 1311.73 1262Z" fill="url(#fill3)" fill-rule="evenodd"/><path d="M1288 1357C1288 1336.57 1303.22 1320 1322 1320 1340.78 1320 1356 1336.57 1356 1357 1356 1377.43 1340.78 1394 1322 1394 1303.22 1394 1288 1377.43 1288 1357Z" fill="url(#fill4)" fill-rule="evenodd"/><path d="M1317 1408.5C1317 1384.48 1334.91 1365 1357 1365 1379.09 1365 1397 1384.48 1397 1408.5 1397 1432.52 1379.09 1452 1357 1452 1334.91 1452 1317 1432.52 1317 1408.5Z" fill="url(#fill5)" fill-rule="evenodd"/><path d="M1607 1684C1607 1628.22 1654.23 1583 1712.5 1583 1770.77 1583 1818 1628.22 1818 1684 1818 1739.78 1770.77 1785 1712.5 1785 1654.23 1785 1607 1739.78 1607 1684Z" fill="url(#fill6)" fill-rule="evenodd"/><path d="M1752 1740C1752 1724.54 1763.64 1712 1778 1712 1792.36 1712 1804 1724.54 1804 1740 1804 1755.46 1792.36 1768 1778 1768 1763.64 1768 1752 1755.46 1752 1740Z" fill="url(#fill7)" fill-rule="evenodd"/><path d="M1736 1659C1736 1642.43 1748.54 1629 1764 1629 1779.46 1629 1792 1642.43 1792 1659 1792 1675.57 1779.46 1689 1764 1689 1748.54 1689 1736 1675.57 1736 1659Z" fill="url(#fill8)" fill-rule="evenodd"/><g clip-path="url(#clip9)"><g clip-path="url(#clip10)"><g clip-path="url(#clip11)"><path d="M1486.16 1522.34 1456.97 1729.07C1456.3 1733.87 1452.59 1737.68 1447.81 1738.47 1443.03 1739.27 1438.29 1736.88 1436.09 1732.57L1361.94 1587.15C1359.9 1583.15 1358.87 1578.7 1358.94 1574.22L1361.92 1375.89C1361.97 1372.15 1364.35 1368.85 1367.88 1367.61 1371.41 1366.37 1375.33 1367.49 1377.7 1370.38L1477.96 1492.99C1484.66 1501.21 1487.64 1511.84 1486.15 1522.34ZM1483.01 1485.84C1490.12 1494.55 1501.37 1498.77 1512.45 1496.9L1761.64 1454.99C1764.97 1454.44 1767.62 1451.91 1768.34 1448.62 1769.06 1445.32 1767.69 1441.93 1764.91 1440.04L1615.99 1339.22C1612.33 1336.74 1607.98 1335.5 1603.56 1335.69L1388.18 1344.83C1384.42 1344.98 1381.07 1347.26 1379.53 1350.68 1377.99 1354.12 1378.53 1358.13 1380.91 1361.05ZM1776.69 1466.69C1774.39 1463.83 1770.74 1462.44 1767.11 1463.05L1524.15 1503.91C1508.3 1506.58 1496.02 1519.2 1493.76 1535.1L1464.82 1739.74C1464.02 1745.38 1466.24 1751.03 1470.66 1754.63 1475.08 1758.22 1481.07 1759.23 1486.43 1757.3L1688.39 1684.34C1692.72 1682.78 1696.19 1679.44 1697.92 1675.16L1778.18 1476.83C1779.55 1473.42 1778.98 1469.55 1776.69 1466.69Z" fill="#FFFFFF"/></g></g></g><g clip-path="url(#clip12)"><g clip-path="url(#clip13)"><g clip-path="url(#clip14)"><path d="M157.347 86.6475C157.347 101.458 145.341 113.464 130.53 113.464 115.72 113.464 103.714 101.458 103.714 86.6475 103.714 71.8372 115.72 59.8311 130.53 59.8311 145.341 59.8311 157.347 71.8372 157.347 86.6475Z" fill="#500165" transform="matrix(1 0 0 1.00383 1417 1395)"/><path d="M184.9 54.1734C184.9 66.9203 177.752 77.2536 168.935 77.2536 160.117 77.2536 152.969 66.9203 152.969 54.1734 152.969 41.4266 160.117 31.0933 168.935 31.0933 177.752 31.0933 184.9 41.4266 184.9 54.1734Z" fill="#500165" transform="matrix(-0.583605 0.813539 -0.810434 -0.585841 1728.21 1343.61)"/><path d="M190.268 45.1699C197.228 49.9188 204.899 50.8039 207.402 47.1395 209.913 43.4711 206.312 36.6334 199.363 31.8806 192.398 27.126 184.732 26.2446 182.217 29.9148 179.714 33.5797 183.315 40.4132 190.268 45.1699Z" fill="#500165" transform="matrix(1 0 0 1.00383 1417 1395)"/><path d="M128.814 33.5797C139.245 33.7196 147.764 29.3734 147.841 23.8836 147.914 18.38 139.522 13.7941 129.098 13.6483 118.66 13.5104 110.148 17.8525 110.064 23.3595 109.998 28.8514 118.387 33.4393 128.814 33.5797Z" fill="#500165" transform="matrix(1 0 0 1.00383 1417 1395)"/><path d="M73.3726 67.8039C78.5171 74.9503 91.0673 74.7086 101.395 67.274 111.73 59.8298 115.93 48.0112 110.785 40.8606 105.633 33.7118 93.0867 33.954 82.7594 41.3943 72.4243 48.825 68.2243 60.6535 73.3726 67.8039Z" fill="#500165" transform="matrix(1 0 0 1.00383 1417 1395)"/><path d="M71.0423 45.9224C77.9988 41.1639 81.6001 34.3322 79.0968 30.6654 76.5784 26.9955 68.9115 27.8784 61.9548 32.631 55.0023 37.3859 51.4011 44.2196 53.9119 47.8919 56.4151 51.5564 64.0857 50.6713 71.0423 45.9224Z" fill="#500165" transform="matrix(1 0 0 1.00383 1417 1395)"/><path d="M113.414 130.581C113.414 145.392 101.408 157.399 86.5966 157.399 71.7856 157.399 59.7789 145.392 59.7789 130.581 59.7789 115.77 71.7856 103.763 86.5966 103.763 101.408 103.763 113.414 115.77 113.414 130.581Z" fill="#500165" transform="matrix(1 0 0 1.00383 1417 1395)"/><path d="M70.0899 168.985C70.0899 181.733 62.9412 192.067 54.1228 192.067 45.3045 192.067 38.1558 181.733 38.1558 168.985 38.1558 156.237 45.3045 145.903 54.1228 145.903 62.9412 145.903 70.0899 156.237 70.0899 168.985Z" fill="#500165" transform="matrix(-0.810421 0.585848 -0.583611 -0.813527 1613.54 1670.18)"/><path d="M30.04 182.096C26.3696 184.608 27.2489 192.277 32.0056 199.238 36.7587 206.189 43.5919 209.79 47.2624 207.279 50.9253 204.776 50.0423 197.105 45.2926 190.145 40.5364 183.19 33.7024 179.593 30.04 182.096Z" fill="#500165" transform="matrix(1 0 0 1.00383 1417 1395)"/><path d="M33.5301 128.866C33.3876 118.437 28.7995 110.048 23.3101 110.115 17.8007 110.2 13.4585 118.711 13.6005 129.148 13.7428 139.571 18.3306 147.964 23.8357 147.893 29.3257 147.816 33.6719 139.295 33.5301 128.866Z" fill="#500165" transform="matrix(1 0 0 1.00383 1417 1395)"/><path d="M40.8086 110.835C47.9613 115.982 59.7781 111.78 67.2263 101.446 74.659 91.1172 74.901 78.5667 67.7519 73.4221 60.5997 68.2757 48.7749 72.476 41.3426 82.809 33.9023 93.1386 33.6638 105.685 40.8086 110.835Z" fill="#500165" transform="matrix(1 0 0 1.00383 1417 1395)"/><path d="M45.8726 71.0938C50.6181 64.1355 51.5047 56.4645 47.8384 53.9615 44.168 51.4527 37.3345 55.0522 32.5817 62.0047 27.8286 68.9614 26.9456 76.6319 30.6158 79.1448 34.2784 81.6478 41.1122 78.0507 45.8726 71.0938Z" fill="#500165" transform="matrix(1 0 0 1.00383 1417 1395)"/><path d="M150.379 194.364C160.848 183.892 160.856 166.908 150.387 156.435 139.913 145.962 122.925 145.967 112.452 156.439 101.978 166.912 101.982 183.892 112.455 194.366 122.929 204.837 139.906 204.837 150.379 194.364Z" fill="#500165" transform="matrix(1 0 0 1.00383 1417 1395)"/><path d="M109.323 208.217C109.323 220.965 102.175 231.299 93.3565 231.299 84.5383 231.299 77.3897 220.965 77.3897 208.217 77.3897 195.469 84.5383 185.135 93.3565 185.135 102.175 185.135 109.323 195.469 109.323 208.217Z" fill="#500165" transform="matrix(0.583697 -0.813472 0.810367 0.585933 1287.01 1557.68)"/><path d="M71.8522 216.704C64.8919 211.955 57.2211 211.07 54.7181 214.735 52.207 218.405 55.8086 225.241 62.7611 229.994 69.7217 234.749 77.3886 235.629 79.9033 231.961 82.4063 228.295 78.8055 221.461 71.8522 216.704Z" fill="#500165" transform="matrix(1 0 0 1.00383 1417 1395)"/><path d="M133.129 228.467C122.702 228.327 114.179 232.673 114.107 238.165 114.033 243.667 122.426 248.254 132.849 248.398 143.288 248.537 151.795 244.196 151.88 238.689 151.949 233.197 143.56 228.609 133.129 228.467Z" fill="#500165" transform="matrix(1 0 0 1.00383 1417 1395)"/><path d="M188.575 194.245C183.43 187.096 170.88 187.338 160.549 194.775 150.217 202.217 146.017 214.038 151.166 221.188 156.314 228.335 168.856 228.095 179.188 220.653 189.523 213.224 193.723 201.396 188.575 194.245Z" fill="#500165" transform="matrix(1 0 0 1.00383 1417 1395)"/><path d="M190.786 216.009C183.829 220.768 180.236 227.602 182.739 231.266 185.25 234.936 192.921 234.053 199.877 229.3 206.83 224.547 210.427 217.712 207.92 214.042 205.417 210.377 197.746 211.262 190.786 216.009Z" fill="#500165" transform="matrix(1 0 0 1.00383 1417 1395)"/><path d="M202.169 131.466C202.169 146.277 190.162 158.284 175.351 158.284 160.54 158.284 148.533 146.277 148.533 131.466 148.533 116.655 160.54 104.648 175.351 104.648 190.162 104.648 202.169 116.655 202.169 131.466Z" fill="#500165" transform="matrix(1 0 0 1.00383 1417 1395)"/><path d="M220.831 83.965C213.403 73.6299 201.574 69.4296 194.426 74.5781 187.277 79.7227 187.515 92.271 194.955 102.604 202.396 112.931 214.22 117.137 221.369 111.989 228.517 106.84 228.275 94.294 220.831 83.965Z" fill="#500165" transform="matrix(1 0 0 1.00383 1417 1395)"/><path d="M232.084 79.7801C235.754 77.2656 234.871 69.5969 230.114 62.6363 225.362 55.6854 218.528 52.0862 214.858 54.5952 211.195 57.0984 212.078 64.7692 216.827 71.7296 221.584 78.6842 228.418 82.281 232.084 79.7801Z" fill="#500165" transform="matrix(1 0 0 1.00383 1417 1395)"/><path d="M238.115 114.156C232.625 114.231 228.279 122.752 228.418 133.181 228.556 143.612 233.147 152.001 238.637 151.931 244.147 151.847 248.489 143.337 248.351 132.899 248.205 122.476 243.617 114.083 238.115 114.156Z" fill="#500165" transform="matrix(1 0 0 1.00383 1417 1395)"/><path d="M194.195 188.624C201.344 193.773 213.172 189.573 220.601 179.238 228.042 168.908 228.287 156.364 221.138 151.213 213.986 146.067 202.166 150.269 194.725 160.602 187.289 170.931 187.047 183.482 194.195 188.624Z" fill="#500165" transform="matrix(1 0 0 1.00383 1417 1395)"/><path d="M215.96 190.84C211.211 197.796 210.327 205.469 213.99 207.972 217.66 210.481 224.498 206.88 229.251 199.927 234.004 192.97 234.887 185.302 231.216 182.787 227.55 180.284 220.716 183.881 215.96 190.84Z" fill="#500165" transform="matrix(1 0 0 1.00383 1417 1395)"/></g></g></g></g></svg>