<svg width="550" height="554" xmlns="http://www.w3.org/2000/svg" xmlns:xlink="http://www.w3.org/1999/xlink" overflow="hidden"><defs><clipPath id="clip0"><rect x="234" y="952" width="550" height="554"/></clipPath><radialGradient cx="762000" cy="762000" r="1.07763e+06" gradientUnits="userSpaceOnUse" spreadMethod="pad" id="fill1" gradientTransform="matrix(0.000360892 0 0 0.000360892 234 956)"><stop offset="0" stop-color="#FFFFFF"/><stop offset="0.15" stop-color="#FFFFFF"/><stop offset="0.45" stop-color="#FF0000"/><stop offset="1" stop-color="#0F1113"/></radialGradient><radialGradient cx="274320" cy="328353" r="427863" fx="274320" fy="328353" gradientUnits="userSpaceOnUse" spreadMethod="pad" id="fill2" gradientTransform="matrix(0.000360892 0 0 0.000360892 237 952)"><stop offset="0" stop-color="#FFFFFF"/><stop offset="0.54" stop-color="#FF0000" stop-opacity="0"/><stop offset="1" stop-color="#FF0000" stop-opacity="0"/></radialGradient><linearGradient x1="507.5" y1="962" x2="507.5" y2="1116" gradientUnits="userSpaceOnUse" spreadMethod="reflect" id="fill3"><stop offset="0" stop-color="#F5FAFF" stop-opacity="0.231373"/><stop offset="0.32" stop-color="#FFFFFF" stop-opacity="0"/><stop offset="1" stop-color="#FFFFFF" stop-opacity="0"/></linearGradient><radialGradient cx="95596.5" cy="102524" r="140178" gradientUnits="userSpaceOnUse" spreadMethod="pad" id="fill4" gradientTransform="matrix(0.000360892 0 0 0.000360892 239 1033)"><stop offset="0" stop-color="#FFFFFF"/><stop offset="0.54" stop-color="#FF0000" stop-opacity="0"/><stop offset="1" stop-color="#FF0000" stop-opacity="0"/></radialGradient><radialGradient cx="112222" cy="120534" r="164688" gradientUnits="userSpaceOnUse" spreadMethod="pad" id="fill5" gradientTransform="matrix(0.000360892 0 0 0.000360892 268 1078)"><stop offset="0" stop-color="#FFFFFF"/><stop offset="0.54" stop-color="#FF0000" stop-opacity="0"/><stop offset="1" stop-color="#FF0000" stop-opacity="0"/></radialGradient><radialGradient cx="241069" cy="254923" r="350856" fx="241069" fy="254924" gradientUnits="userSpaceOnUse" spreadMethod="pad" id="fill6" gradientTransform="matrix(0.000360892 0 0 0.000360892 596 1313)"><stop offset="0" stop-color="#FFFFFF"/><stop offset="0.54" stop-color="#FF0000" stop-opacity="0"/><stop offset="1" stop-color="#FF0000" stop-opacity="0"/></radialGradient><radialGradient cx="72043.5" cy="77585.5" r="105876" fx="72043.5" fy="77585.5" gradientUnits="userSpaceOnUse" spreadMethod="pad" id="fill7" gradientTransform="matrix(0.000360892 0 0 0.000360892 730 1422)"><stop offset="0" stop-color="#FFFFFF"/><stop offset="0.54" stop-color="#FF0000" stop-opacity="0"/><stop offset="1" stop-color="#FF0000" stop-opacity="0"/></radialGradient><radialGradient cx="77585.5" cy="84513" r="114726" fx="77585.5" fy="84513" gradientUnits="userSpaceOnUse" spreadMethod="pad" id="fill8" gradientTransform="matrix(0.000360892 0 0 0.000360892 714 1339)"><stop offset="0" stop-color="#FFFFFF"/><stop offset="0.54" stop-color="#FF0000" stop-opacity="0"/><stop offset="1" stop-color="#FF0000" stop-opacity="0"/></radialGradient><clipPath id="clip9"><rect x="279" y="1006" width="452" height="452"/></clipPath><clipPath id="clip10"><rect x="279" y="1006" width="452" height="452"/></clipPath><clipPath id="clip11"><rect x="279" y="1006" width="452" height="452"/></clipPath></defs><g clip-path="url(#clip0)" transform="translate(-234 -952)"><rect x="234" y="956" width="550" height="550" fill="url(#fill1)"/><path d="M237 1070.5C237 1005.05 281.324 952 336 952 390.676 952 435 1005.05 435 1070.5 435 1135.95 390.676 1189 336 1189 281.324 1189 237 1135.95 237 1070.5Z" fill="url(#fill2)" fill-rule="evenodd"/><path d="M268.734 962 746.266 962C762.136 962 775 981.864 775 1006.37L775 1116C775 1077.82 754.957 1046.88 730.233 1046.88L284.767 1046.88C260.043 1046.88 240 1077.82 240 1116L240 1006.37C240 981.864 252.864 962 268.734 962Z" fill="url(#fill3)" fill-rule="evenodd"/><path d="M239 1070C239 1049.57 254.446 1033 273.5 1033 292.554 1033 308 1049.57 308 1070 308 1090.43 292.554 1107 273.5 1107 254.446 1107 239 1090.43 239 1070Z" fill="url(#fill4)" fill-rule="evenodd"/><path d="M268 1121.5C268 1097.48 286.133 1078 308.5 1078 330.867 1078 349 1097.48 349 1121.5 349 1145.52 330.867 1165 308.5 1165 286.133 1165 268 1145.52 268 1121.5Z" fill="url(#fill5)" fill-rule="evenodd"/><path d="M596 1405C596 1354.19 634.951 1313 683 1313 731.049 1313 770 1354.19 770 1405 770 1455.81 731.049 1497 683 1497 634.951 1497 596 1455.81 596 1405Z" fill="url(#fill6)" fill-rule="evenodd"/><path d="M730 1450C730 1434.54 741.641 1422 756 1422 770.359 1422 782 1434.54 782 1450 782 1465.46 770.359 1478 756 1478 741.641 1478 730 1465.46 730 1450Z" fill="url(#fill7)" fill-rule="evenodd"/><path d="M714 1369.5C714 1352.66 726.536 1339 742 1339 757.464 1339 770 1352.66 770 1369.5 770 1386.34 757.464 1400 742 1400 726.536 1400 714 1386.34 714 1369.5Z" fill="url(#fill8)" fill-rule="evenodd"/><g clip-path="url(#clip9)"><g clip-path="url(#clip10)"><g clip-path="url(#clip11)"><path d="M279.15 1344.25C278.951 1282.24 278.951 1180.76 279.15 1118.75L279.512 1006 504.966 1006 730.42 1006 730.42 1231.5 730.42 1457 504.966 1457 279.512 1457ZM399.411 1430.06C358.052 1408.19 326.371 1376.58 303.93 1334.79L298.466 1324.61 298.445 1381.31 298.424 1438 356.383 1437.98 414.341 1437.95 399.411 1430.06ZM554.327 1432.13C590.305 1423.33 620.777 1406.47 647.901 1380.36 681.59 1347.92 702.62 1307.53 709.572 1261.9L710.444 1256.2 700.479 1265.68C694.997 1270.89 672.823 1292.27 651.195 1313.19 629.568 1334.11 597.358 1365.17 579.618 1382.23 529.616 1430.3 523.923 1435.87 523.923 1436.75 523.923 1438.08 540.011 1435.63 554.327 1432.13ZM711.377 1379.41 711.334 1320.82 704.727 1333.51C682.467 1376.28 646.125 1412.15 604.459 1432.48L593.149 1438 652.282 1438 711.42 1438 711.377 1379.41ZM470.669 1425.65C464.751 1419.55 452.781 1407.15 444.069 1398.09 435.358 1389.03 411.996 1364.8 392.153 1344.25 372.31 1323.7 348.117 1298.61 338.389 1288.51 297.457 1246 299.712 1248.09 299.701 1252.66 299.695 1254.89 300.866 1262.8 302.301 1270.24 318.193 1352.58 381.579 1416.82 464.114 1434.23 482.979 1438.21 482.927 1438.27 470.669 1425.65ZM526.456 1408.69C542.783 1392.77 548.936 1386.04 546.728 1386.52 517.234 1392.91 485.929 1392.54 462.62 1385.53 459.408 1384.56 456.779 1384.05 456.779 1384.39 456.779 1385.24 501.605 1431.62 502.386 1431.57 502.735 1431.55 513.566 1421.26 526.456 1408.69ZM528.242 1361.38C533.753 1360.4 538.943 1358.85 539.776 1357.94 542.161 1355.34 547.552 1340.66 551.014 1327.34 556.779 1305.16 561.926 1268.04 561.931 1248.61L561.931 1241.02 534.083 1268.85 506.24 1296.67 478.541 1269.15C463.305 1254.02 450.382 1241.64 449.817 1241.64 448.443 1241.64 450.032 1270.02 452.431 1288.34 456.156 1316.79 467.002 1355.74 472.067 1358.87 478.464 1362.83 511.78 1364.31 528.242 1361.38ZM460.811 1347.92C453.461 1331.5 447.27 1308.33 443.241 1282.17 440.375 1263.57 440.007 1202.92 442.653 1185.26 446.834 1157.35 452.762 1134.49 460.643 1115.9 462.64 1111.2 463.865 1107.36 463.377 1107.37 462.884 1107.38 456.779 1110.14 449.812 1113.51 410.205 1132.65 383.247 1168.01 375.689 1210.72 373.191 1224.84 374.668 1252.18 378.693 1266.34 387.607 1297.68 410.386 1328.09 436.872 1344.01 444.025 1348.31 463.334 1357.12 464.043 1356.41 464.263 1356.19 462.807 1352.37 460.811 1347.92ZM564.033 1349.36C597.885 1332.26 621.049 1304.51 632.479 1267.35 635.663 1256.99 635.912 1254.55 635.974 1232.77 636.055 1204.68 634.169 1195.83 623.429 1173.86 610.439 1147.28 590.698 1127.55 563.53 1114 555.701 1110.09 548.979 1107.21 548.591 1107.6 548.203 1107.98 549.324 1111.54 551.076 1115.51 559.178 1133.83 566.527 1163.74 569.764 1191.59 571.804 1209.14 571.765 1255.97 569.697 1272.67 565.708 1304.9 559.072 1330.31 548.433 1354.07 547.116 1357.01 551.502 1355.68 564.033 1349.36ZM690.798 1250.1 705.019 1236.25 683.314 1213.59C671.377 1201.13 661.341 1191.21 661.016 1191.53 660.685 1191.86 661.025 1194.58 661.768 1197.56 664.32 1207.83 666.024 1229.55 665.182 1241 664.449 1250.91 661.428 1268.3 658.689 1278.37 657.755 1281.81 662.725 1277.44 690.798 1250.1ZM529.625 1255.57 552.402 1232.77 529.625 1209.96 506.848 1187.16 483.712 1210.27 460.581 1233.37 483.056 1255.87C495.414 1268.25 505.824 1278.37 506.188 1278.37 506.551 1278.37 517.1 1268.11 529.625 1255.57ZM351.136 1271.72C345.631 1251.9 345.202 1214.66 350.256 1195.5 351.711 1189.99 352.691 1185.26 352.433 1185.01 351.574 1184.15 307.193 1228.04 307.621 1229.32 308.238 1231.17 349.535 1274.3 350.829 1274.45 351.433 1274.52 351.571 1273.29 351.136 1271.72ZM477.928 1198.32 506.063 1170.21 531.78 1195.41C545.924 1209.27 557.952 1221.35 558.507 1222.26 559.067 1223.16 560.154 1223.9 560.92 1223.9 562.754 1223.9 561.442 1195.41 558.703 1175.61 555.108 1149.64 547.672 1120.5 541.581 1108.49 539.379 1104.15 538.799 1103.85 529.381 1102.18 511.186 1098.97 474.409 1100.94 470.856 1105.31 468.993 1107.6 462.06 1128.23 458.732 1141.37 454.543 1157.93 450.588 1186.53 449.463 1208.38 448.955 1218.31 448.821 1226.43 449.166 1226.43 449.511 1226.43 462.453 1213.78 477.928 1198.32ZM709.869 1204.58C706.575 1176.8 694.403 1143.83 678.43 1119.38 647.379 1071.86 597.176 1038.54 541.284 1028.35 535.855 1027.36 531.579 1027.01 531.785 1027.58 531.991 1028.15 534.71 1031.36 537.827 1034.72 547.667 1045.34 710.314 1213.76 710.726 1213.76 710.855 1213.76 710.468 1209.63 709.869 1204.58ZM316.056 1193.16C324.126 1185.3 362.368 1148.37 401.039 1111.07 439.71 1073.78 475.342 1039.4 480.217 1034.68L489.084 1026.1 480.849 1026.89C424.36 1032.37 366.998 1067.18 334.435 1115.75 318.981 1138.8 305.917 1170.38 302.269 1193.49 301.444 1198.72 300.488 1203.99 300.145 1205.21 299.801 1206.43 299.94 1207.43 300.452 1207.43 300.965 1207.43 307.986 1201.01 316.056 1193.16ZM711.42 1083.28 711.42 1025 652.828 1025.04 594.236 1025.07 608.802 1032.68C649.917 1054.14 683.616 1088.02 704.195 1128.56 707.82 1135.7 710.927 1141.54 711.1 1141.55 711.277 1141.55 711.42 1115.33 711.42 1083.28ZM303.978 1127.93C323.763 1088.76 361.645 1051.21 401.502 1031.26 407.125 1028.44 411.981 1025.88 412.294 1025.57 412.607 1025.26 387.114 1025 355.643 1025L298.424 1025 298.424 1080.74C298.424 1111.4 298.702 1136.49 299.041 1136.49 299.381 1136.49 301.602 1132.64 303.978 1127.93ZM539.364 1064.59C532.369 1057.1 522.649 1047.03 517.756 1042.21L508.864 1033.45 490.104 1051.27C469.645 1070.72 463.487 1076.94 464.694 1076.94 465.129 1076.94 469.443 1076.11 474.279 1075.09 494.035 1070.94 525.033 1071.46 542.295 1076.23 545.776 1077.2 549.405 1078.04 550.353 1078.1 551.301 1078.16 546.355 1072.08 539.364 1064.59Z" fill="#FFFFFF"/></g></g></g></g></svg>